<svg xmlns="http://www.w3.org/2000/svg" width="1200" height="610" viewBox="0 0 1200 610" role="img">
<title>图 12.4：用对数累积赔率重新描述离散分布</title>
<desc>左图显示一至七档道德许可回答的频数，中图显示累积比例，右图显示前六档回答的对数累积赔率；第七档为正无穷而未画出。</desc>
<rect width="100%" height="100%" fill="#fbfaf6"/>
<text x="244.0" y="40.0" text-anchor="middle" font-family="-apple-system,BlinkMacSystemFont,PingFang SC,Noto Sans CJK SC,sans-serif" font-size="21" font-weight="650" fill="#30332e">样本回答的频数</text>
<rect x="20" y="62" width="370" height="500" rx="8" fill="#fff" stroke="#d9d5c8"/>
<line x1="98" y1="520" x2="390" y2="520" stroke="#30332e" stroke-width="1.7"/>
<line x1="98" y1="520" x2="98" y2="92" stroke="#30332e" stroke-width="1.7"/>
<text x="244.0" y="552.0" text-anchor="middle" font-family="-apple-system,BlinkMacSystemFont,PingFang SC,Noto Sans CJK SC,sans-serif" font-size="18" font-weight="400" fill="#30332e">回答</text>
<text x="42.0" y="306.0" text-anchor="middle" font-family="-apple-system,BlinkMacSystemFont,PingFang SC,Noto Sans CJK SC,sans-serif" font-size="18" font-weight="400" fill="#30332e" transform="rotate(-90 42 306.0)">频数</text>
<line x1="98.0" y1="520" x2="98.0" y2="526" stroke="#30332e"/>
<text x="98.0" y="547.0" text-anchor="middle" font-family="-apple-system,BlinkMacSystemFont,PingFang SC,Noto Sans CJK SC,sans-serif" font-size="15" font-weight="400" fill="#30332e">1</text>
<line x1="146.7" y1="520" x2="146.7" y2="526" stroke="#30332e"/>
<text x="146.7" y="547.0" text-anchor="middle" font-family="-apple-system,BlinkMacSystemFont,PingFang SC,Noto Sans CJK SC,sans-serif" font-size="15" font-weight="400" fill="#30332e">2</text>
<line x1="195.3" y1="520" x2="195.3" y2="526" stroke="#30332e"/>
<text x="195.3" y="547.0" text-anchor="middle" font-family="-apple-system,BlinkMacSystemFont,PingFang SC,Noto Sans CJK SC,sans-serif" font-size="15" font-weight="400" fill="#30332e">3</text>
<line x1="244.0" y1="520" x2="244.0" y2="526" stroke="#30332e"/>
<text x="244.0" y="547.0" text-anchor="middle" font-family="-apple-system,BlinkMacSystemFont,PingFang SC,Noto Sans CJK SC,sans-serif" font-size="15" font-weight="400" fill="#30332e">4</text>
<line x1="292.7" y1="520" x2="292.7" y2="526" stroke="#30332e"/>
<text x="292.7" y="547.0" text-anchor="middle" font-family="-apple-system,BlinkMacSystemFont,PingFang SC,Noto Sans CJK SC,sans-serif" font-size="15" font-weight="400" fill="#30332e">5</text>
<line x1="341.3" y1="520" x2="341.3" y2="526" stroke="#30332e"/>
<text x="341.3" y="547.0" text-anchor="middle" font-family="-apple-system,BlinkMacSystemFont,PingFang SC,Noto Sans CJK SC,sans-serif" font-size="15" font-weight="400" fill="#30332e">6</text>
<line x1="390.0" y1="520" x2="390.0" y2="526" stroke="#30332e"/>
<text x="390.0" y="547.0" text-anchor="middle" font-family="-apple-system,BlinkMacSystemFont,PingFang SC,Noto Sans CJK SC,sans-serif" font-size="15" font-weight="400" fill="#30332e">7</text>
<line x1="92" y1="520.0" x2="98" y2="520.0" stroke="#30332e"/>
<text x="87.0" y="525.0" text-anchor="end" font-family="-apple-system,BlinkMacSystemFont,PingFang SC,Noto Sans CJK SC,sans-serif" font-size="14" font-weight="400" fill="#30332e">0</text>
<line x1="98" y1="520.0" x2="390" y2="520.0" stroke="#d9d5c8" stroke-dasharray="4 7"/>
<line x1="92" y1="434.4" x2="98" y2="434.4" stroke="#30332e"/>
<text x="87.0" y="439.4" text-anchor="end" font-family="-apple-system,BlinkMacSystemFont,PingFang SC,Noto Sans CJK SC,sans-serif" font-size="14" font-weight="400" fill="#30332e">500</text>
<line x1="98" y1="434.4" x2="390" y2="434.4" stroke="#d9d5c8" stroke-dasharray="4 7"/>
<line x1="92" y1="348.8" x2="98" y2="348.8" stroke="#30332e"/>
<text x="87.0" y="353.8" text-anchor="end" font-family="-apple-system,BlinkMacSystemFont,PingFang SC,Noto Sans CJK SC,sans-serif" font-size="14" font-weight="400" fill="#30332e">1000</text>
<line x1="98" y1="348.8" x2="390" y2="348.8" stroke="#d9d5c8" stroke-dasharray="4 7"/>
<line x1="92" y1="263.2" x2="98" y2="263.2" stroke="#30332e"/>
<text x="87.0" y="268.2" text-anchor="end" font-family="-apple-system,BlinkMacSystemFont,PingFang SC,Noto Sans CJK SC,sans-serif" font-size="14" font-weight="400" fill="#30332e">1500</text>
<line x1="98" y1="263.2" x2="390" y2="263.2" stroke="#d9d5c8" stroke-dasharray="4 7"/>
<line x1="92" y1="177.6" x2="98" y2="177.6" stroke="#30332e"/>
<text x="87.0" y="182.6" text-anchor="end" font-family="-apple-system,BlinkMacSystemFont,PingFang SC,Noto Sans CJK SC,sans-serif" font-size="14" font-weight="400" fill="#30332e">2000</text>
<line x1="98" y1="177.6" x2="390" y2="177.6" stroke="#d9d5c8" stroke-dasharray="4 7"/>
<line x1="92" y1="92.0" x2="98" y2="92.0" stroke="#30332e"/>
<text x="87.0" y="97.0" text-anchor="end" font-family="-apple-system,BlinkMacSystemFont,PingFang SC,Noto Sans CJK SC,sans-serif" font-size="14" font-weight="400" fill="#30332e">2500</text>
<line x1="98" y1="92.0" x2="390" y2="92.0" stroke="#d9d5c8" stroke-dasharray="4 7"/>
<line x1="98.0" y1="520" x2="98.0" y2="302.6" stroke="#30332e" stroke-width="6"/>
<line x1="146.7" y1="520" x2="146.7" y2="364.6" stroke="#30332e" stroke-width="6"/>
<line x1="195.3" y1="520" x2="195.3" y2="336.5" stroke="#30332e" stroke-width="6"/>
<line x1="244.0" y1="520" x2="244.0" y2="120.6" stroke="#30332e" stroke-width="6"/>
<line x1="292.7" y1="520" x2="292.7" y2="270.7" stroke="#30332e" stroke-width="6"/>
<line x1="341.3" y1="520" x2="341.3" y2="272.3" stroke="#30332e" stroke-width="6"/>
<line x1="390.0" y1="520" x2="390.0" y2="272.8" stroke="#30332e" stroke-width="6"/>
<text x="639.0" y="40.0" text-anchor="middle" font-family="-apple-system,BlinkMacSystemFont,PingFang SC,Noto Sans CJK SC,sans-serif" font-size="21" font-weight="650" fill="#30332e">各回答的累积比例</text>
<rect x="415" y="62" width="370" height="500" rx="8" fill="#fff" stroke="#d9d5c8"/>
<line x1="493" y1="520" x2="785" y2="520" stroke="#30332e" stroke-width="1.7"/>
<line x1="493" y1="520" x2="493" y2="92" stroke="#30332e" stroke-width="1.7"/>
<text x="639.0" y="552.0" text-anchor="middle" font-family="-apple-system,BlinkMacSystemFont,PingFang SC,Noto Sans CJK SC,sans-serif" font-size="18" font-weight="400" fill="#30332e">回答</text>
<text x="437.0" y="306.0" text-anchor="middle" font-family="-apple-system,BlinkMacSystemFont,PingFang SC,Noto Sans CJK SC,sans-serif" font-size="18" font-weight="400" fill="#30332e" transform="rotate(-90 437 306.0)">累积比例</text>
<line x1="493.0" y1="520" x2="493.0" y2="526" stroke="#30332e"/>
<text x="493.0" y="547.0" text-anchor="middle" font-family="-apple-system,BlinkMacSystemFont,PingFang SC,Noto Sans CJK SC,sans-serif" font-size="15" font-weight="400" fill="#30332e">1</text>
<line x1="541.7" y1="520" x2="541.7" y2="526" stroke="#30332e"/>
<text x="541.7" y="547.0" text-anchor="middle" font-family="-apple-system,BlinkMacSystemFont,PingFang SC,Noto Sans CJK SC,sans-serif" font-size="15" font-weight="400" fill="#30332e">2</text>
<line x1="590.3" y1="520" x2="590.3" y2="526" stroke="#30332e"/>
<text x="590.3" y="547.0" text-anchor="middle" font-family="-apple-system,BlinkMacSystemFont,PingFang SC,Noto Sans CJK SC,sans-serif" font-size="15" font-weight="400" fill="#30332e">3</text>
<line x1="639.0" y1="520" x2="639.0" y2="526" stroke="#30332e"/>
<text x="639.0" y="547.0" text-anchor="middle" font-family="-apple-system,BlinkMacSystemFont,PingFang SC,Noto Sans CJK SC,sans-serif" font-size="15" font-weight="400" fill="#30332e">4</text>
<line x1="687.7" y1="520" x2="687.7" y2="526" stroke="#30332e"/>
<text x="687.7" y="547.0" text-anchor="middle" font-family="-apple-system,BlinkMacSystemFont,PingFang SC,Noto Sans CJK SC,sans-serif" font-size="15" font-weight="400" fill="#30332e">5</text>
<line x1="736.3" y1="520" x2="736.3" y2="526" stroke="#30332e"/>
<text x="736.3" y="547.0" text-anchor="middle" font-family="-apple-system,BlinkMacSystemFont,PingFang SC,Noto Sans CJK SC,sans-serif" font-size="15" font-weight="400" fill="#30332e">6</text>
<line x1="785.0" y1="520" x2="785.0" y2="526" stroke="#30332e"/>
<text x="785.0" y="547.0" text-anchor="middle" font-family="-apple-system,BlinkMacSystemFont,PingFang SC,Noto Sans CJK SC,sans-serif" font-size="15" font-weight="400" fill="#30332e">7</text>
<line x1="487" y1="520.0" x2="493" y2="520.0" stroke="#30332e"/>
<text x="482.0" y="525.0" text-anchor="end" font-family="-apple-system,BlinkMacSystemFont,PingFang SC,Noto Sans CJK SC,sans-serif" font-size="14" font-weight="400" fill="#30332e">0.0</text>
<line x1="493" y1="520.0" x2="785" y2="520.0" stroke="#d9d5c8" stroke-dasharray="4 7"/>
<line x1="487" y1="434.4" x2="493" y2="434.4" stroke="#30332e"/>
<text x="482.0" y="439.4" text-anchor="end" font-family="-apple-system,BlinkMacSystemFont,PingFang SC,Noto Sans CJK SC,sans-serif" font-size="14" font-weight="400" fill="#30332e">0.2</text>
<line x1="493" y1="434.4" x2="785" y2="434.4" stroke="#d9d5c8" stroke-dasharray="4 7"/>
<line x1="487" y1="348.8" x2="493" y2="348.8" stroke="#30332e"/>
<text x="482.0" y="353.8" text-anchor="end" font-family="-apple-system,BlinkMacSystemFont,PingFang SC,Noto Sans CJK SC,sans-serif" font-size="14" font-weight="400" fill="#30332e">0.4</text>
<line x1="493" y1="348.8" x2="785" y2="348.8" stroke="#d9d5c8" stroke-dasharray="4 7"/>
<line x1="487" y1="263.2" x2="493" y2="263.2" stroke="#30332e"/>
<text x="482.0" y="268.2" text-anchor="end" font-family="-apple-system,BlinkMacSystemFont,PingFang SC,Noto Sans CJK SC,sans-serif" font-size="14" font-weight="400" fill="#30332e">0.6</text>
<line x1="493" y1="263.2" x2="785" y2="263.2" stroke="#d9d5c8" stroke-dasharray="4 7"/>
<line x1="487" y1="177.6" x2="493" y2="177.6" stroke="#30332e"/>
<text x="482.0" y="182.6" text-anchor="end" font-family="-apple-system,BlinkMacSystemFont,PingFang SC,Noto Sans CJK SC,sans-serif" font-size="14" font-weight="400" fill="#30332e">0.8</text>
<line x1="493" y1="177.6" x2="785" y2="177.6" stroke="#d9d5c8" stroke-dasharray="4 7"/>
<line x1="487" y1="92.0" x2="493" y2="92.0" stroke="#30332e"/>
<text x="482.0" y="97.0" text-anchor="end" font-family="-apple-system,BlinkMacSystemFont,PingFang SC,Noto Sans CJK SC,sans-serif" font-size="14" font-weight="400" fill="#30332e">1.0</text>
<line x1="493" y1="92.0" x2="785" y2="92.0" stroke="#d9d5c8" stroke-dasharray="4 7"/>
<polyline points="493.0,465.3 541.7,426.1 590.3,379.9 639.0,279.4 687.7,216.6 736.3,154.2 785.0,92.0" fill="none" stroke="#30332e" stroke-width="2.5"/>
<circle cx="493.0" cy="465.3" r="6" fill="#fff" stroke="#30332e" stroke-width="2"/>
<circle cx="541.7" cy="426.1" r="6" fill="#fff" stroke="#30332e" stroke-width="2"/>
<circle cx="590.3" cy="379.9" r="6" fill="#fff" stroke="#30332e" stroke-width="2"/>
<circle cx="639.0" cy="279.4" r="6" fill="#fff" stroke="#30332e" stroke-width="2"/>
<circle cx="687.7" cy="216.6" r="6" fill="#fff" stroke="#30332e" stroke-width="2"/>
<circle cx="736.3" cy="154.2" r="6" fill="#fff" stroke="#30332e" stroke-width="2"/>
<circle cx="785.0" cy="92.0" r="6" fill="#fff" stroke="#30332e" stroke-width="2"/>
<text x="1034.0" y="40.0" text-anchor="middle" font-family="-apple-system,BlinkMacSystemFont,PingFang SC,Noto Sans CJK SC,sans-serif" font-size="21" font-weight="650" fill="#30332e">各回答的对数累积赔率</text>
<rect x="810" y="62" width="370" height="500" rx="8" fill="#fff" stroke="#d9d5c8"/>
<line x1="888" y1="520" x2="1180" y2="520" stroke="#30332e" stroke-width="1.7"/>
<line x1="888" y1="520" x2="888" y2="92" stroke="#30332e" stroke-width="1.7"/>
<text x="1034.0" y="552.0" text-anchor="middle" font-family="-apple-system,BlinkMacSystemFont,PingFang SC,Noto Sans CJK SC,sans-serif" font-size="18" font-weight="400" fill="#30332e">回答</text>
<text x="832.0" y="306.0" text-anchor="middle" font-family="-apple-system,BlinkMacSystemFont,PingFang SC,Noto Sans CJK SC,sans-serif" font-size="18" font-weight="400" fill="#30332e" transform="rotate(-90 832 306.0)">对数累积赔率</text>
<line x1="888.0" y1="520" x2="888.0" y2="526" stroke="#30332e"/>
<text x="888.0" y="547.0" text-anchor="middle" font-family="-apple-system,BlinkMacSystemFont,PingFang SC,Noto Sans CJK SC,sans-serif" font-size="15" font-weight="400" fill="#30332e">1</text>
<line x1="936.7" y1="520" x2="936.7" y2="526" stroke="#30332e"/>
<text x="936.7" y="547.0" text-anchor="middle" font-family="-apple-system,BlinkMacSystemFont,PingFang SC,Noto Sans CJK SC,sans-serif" font-size="15" font-weight="400" fill="#30332e">2</text>
<line x1="985.3" y1="520" x2="985.3" y2="526" stroke="#30332e"/>
<text x="985.3" y="547.0" text-anchor="middle" font-family="-apple-system,BlinkMacSystemFont,PingFang SC,Noto Sans CJK SC,sans-serif" font-size="15" font-weight="400" fill="#30332e">3</text>
<line x1="1034.0" y1="520" x2="1034.0" y2="526" stroke="#30332e"/>
<text x="1034.0" y="547.0" text-anchor="middle" font-family="-apple-system,BlinkMacSystemFont,PingFang SC,Noto Sans CJK SC,sans-serif" font-size="15" font-weight="400" fill="#30332e">4</text>
<line x1="1082.7" y1="520" x2="1082.7" y2="526" stroke="#30332e"/>
<text x="1082.7" y="547.0" text-anchor="middle" font-family="-apple-system,BlinkMacSystemFont,PingFang SC,Noto Sans CJK SC,sans-serif" font-size="15" font-weight="400" fill="#30332e">5</text>
<line x1="1131.3" y1="520" x2="1131.3" y2="526" stroke="#30332e"/>
<text x="1131.3" y="547.0" text-anchor="middle" font-family="-apple-system,BlinkMacSystemFont,PingFang SC,Noto Sans CJK SC,sans-serif" font-size="15" font-weight="400" fill="#30332e">6</text>
<line x1="1180.0" y1="520" x2="1180.0" y2="526" stroke="#30332e"/>
<text x="1180.0" y="547.0" text-anchor="middle" font-family="-apple-system,BlinkMacSystemFont,PingFang SC,Noto Sans CJK SC,sans-serif" font-size="15" font-weight="400" fill="#30332e">7</text>
<line x1="882" y1="520.0" x2="888" y2="520.0" stroke="#30332e"/>
<text x="877.0" y="525.0" text-anchor="end" font-family="-apple-system,BlinkMacSystemFont,PingFang SC,Noto Sans CJK SC,sans-serif" font-size="14" font-weight="400" fill="#30332e">-2</text>
<line x1="888" y1="520.0" x2="1180" y2="520.0" stroke="#d9d5c8" stroke-dasharray="4 7"/>
<line x1="882" y1="413.0" x2="888" y2="413.0" stroke="#30332e"/>
<text x="877.0" y="418.0" text-anchor="end" font-family="-apple-system,BlinkMacSystemFont,PingFang SC,Noto Sans CJK SC,sans-serif" font-size="14" font-weight="400" fill="#30332e">-1</text>
<line x1="888" y1="413.0" x2="1180" y2="413.0" stroke="#d9d5c8" stroke-dasharray="4 7"/>
<line x1="882" y1="306.0" x2="888" y2="306.0" stroke="#30332e"/>
<text x="877.0" y="311.0" text-anchor="end" font-family="-apple-system,BlinkMacSystemFont,PingFang SC,Noto Sans CJK SC,sans-serif" font-size="14" font-weight="400" fill="#30332e">0</text>
<line x1="888" y1="306.0" x2="1180" y2="306.0" stroke="#d9d5c8" stroke-dasharray="4 7"/>
<line x1="882" y1="199.0" x2="888" y2="199.0" stroke="#30332e"/>
<text x="877.0" y="204.0" text-anchor="end" font-family="-apple-system,BlinkMacSystemFont,PingFang SC,Noto Sans CJK SC,sans-serif" font-size="14" font-weight="400" fill="#30332e">1</text>
<line x1="888" y1="199.0" x2="1180" y2="199.0" stroke="#d9d5c8" stroke-dasharray="4 7"/>
<line x1="882" y1="92.0" x2="888" y2="92.0" stroke="#30332e"/>
<text x="877.0" y="97.0" text-anchor="end" font-family="-apple-system,BlinkMacSystemFont,PingFang SC,Noto Sans CJK SC,sans-serif" font-size="14" font-weight="400" fill="#30332e">2</text>
<line x1="888" y1="92.0" x2="1180" y2="92.0" stroke="#d9d5c8" stroke-dasharray="4 7"/>
<polyline points="888.0,511.4 936.7,441.8 985.3,383.1 1034.0,279.2 1082.7,210.8 1131.3,116.5" fill="none" stroke="#30332e" stroke-width="2.5"/>
<circle cx="888.0" cy="511.4" r="6" fill="#fff" stroke="#30332e" stroke-width="2"/>
<circle cx="936.7" cy="441.8" r="6" fill="#fff" stroke="#30332e" stroke-width="2"/>
<circle cx="985.3" cy="383.1" r="6" fill="#fff" stroke="#30332e" stroke-width="2"/>
<circle cx="1034.0" cy="279.2" r="6" fill="#fff" stroke="#30332e" stroke-width="2"/>
<circle cx="1082.7" cy="210.8" r="6" fill="#fff" stroke="#30332e" stroke-width="2"/>
<circle cx="1131.3" cy="116.5" r="6" fill="#fff" stroke="#30332e" stroke-width="2"/>
<text x="996.0" y="588.0" text-anchor="middle" font-family="-apple-system,BlinkMacSystemFont,PingFang SC,Noto Sans CJK SC,sans-serif" font-size="14" font-weight="400" fill="#666860">第 7 档的对数累积赔率为 +∞，未绘制</text>
</svg>
