<?xml version="1.0" encoding="UTF-8"?><svg xmlns="http://www.w3.org/2000/svg" width="1200" height="620" viewBox="0 0 1200 620" role="img" aria-labelledby="title desc"><title id="title">开坚果模型的先验预测模拟</title><desc id="desc">左图为二十条相对体重生长先验曲线，右图为对应的开坚果速率先验曲线；曲线均随年龄增长并在成年前后逐渐趋平。</desc><rect width="100%" height="100%" fill="#fff"/><style>.axis{font:15px -apple-system, BlinkMacSystemFont, "PingFang SC", sans-serif;fill:#30332e}.label{font:19px -apple-system, BlinkMacSystemFont, "PingFang SC", sans-serif;fill:#30332e}.title{font:700 22px -apple-system, BlinkMacSystemFont, "PingFang SC", sans-serif;fill:#263f86}.panel{fill:#fff;stroke:#3c403b;stroke-width:1.4}.curve{fill:none;stroke:#222722;stroke-width:2;opacity:.56}</style><text class="title" x="312" y="34" text-anchor="middle">相对体重的先验生长曲线</text><text class="title" x="892" y="34" text-anchor="middle">开坚果速率的先验曲线</text><rect class="panel" x="85" y="70" width="455" height="410"/><rect class="panel" x="665" y="70" width="455" height="410"/><path class="curve" d="M85,480 L88.79,465.81 L92.58,452.12 L96.38,438.89 L100.17,426.13 L103.96,413.81 L107.75,401.91 L111.54,390.43 L115.33,379.34 L119.12,368.63 L122.92,358.3 L126.71,348.32 L130.5,338.69 L134.29,329.4 L138.08,320.42 L141.88,311.76 L145.67,303.39 L149.46,295.31 L153.25,287.52 L157.04,279.99 L160.83,272.73 L164.62,265.71 L168.42,258.94 L172.21,252.4 L176,246.09 L179.79,240 L183.58,234.11 L187.38,228.43 L191.17,222.95 L194.96,217.66 L198.75,212.55 L202.54,207.62 L206.33,202.86 L210.12,198.26 L213.92,193.82 L217.71,189.54 L221.5,185.4 L225.29,181.41 L229.08,177.55 L232.88,173.83 L236.67,170.24 L240.46,166.77 L244.25,163.42 L248.04,160.19 L251.83,157.07 L255.62,154.05 L259.42,151.15 L263.21,148.34 L267,145.63 L270.79,143.01 L274.58,140.48 L278.38,138.05 L282.17,135.69 L285.96,133.42 L289.75,131.22 L293.54,129.11 L297.33,127.06 L301.12,125.09 L304.92,123.18 L308.71,121.34 L312.5,119.56 L316.29,117.85 L320.08,116.19 L323.88,114.59 L327.67,113.05 L331.46,111.56 L335.25,110.12 L339.04,108.73 L342.83,107.39 L346.62,106.1 L350.42,104.85 L354.21,103.65 L358,102.48 L361.79,101.36 L365.58,100.27 L369.38,99.22 L373.17,98.21 L376.96,97.24 L380.75,96.29 L384.54,95.38 L388.33,94.51 L392.12,93.66 L395.92,92.84 L399.71,92.05 L403.5,91.29 L407.29,90.55 L411.08,89.84 L414.87,89.15 L418.67,88.49 L422.46,87.85 L426.25,87.23 L430.04,86.64 L433.83,86.06 L437.62,85.5 L441.42,84.97 L445.21,84.45 L449,83.95 L452.79,83.47 L456.58,83 L460.38,82.55 L464.17,82.12 L467.96,81.7 L471.75,81.29 L475.54,80.9 L479.33,80.53 L483.12,80.16 L486.92,79.81 L490.71,79.47 L494.5,79.14 L498.29,78.83 L502.08,78.52 L505.88,78.23 L509.67,77.94 L513.46,77.67 L517.25,77.4 L521.04,77.14 L524.83,76.9 L528.62,76.66 L532.42,76.43 L536.21,76.21 L540,75.99"/><path class="curve" d="M665,480 L668.79,480 L672.58,480 L676.38,480 L680.17,480 L683.96,480 L687.75,480 L691.54,480 L695.33,479.99 L699.12,479.98 L702.92,479.96 L706.71,479.93 L710.5,479.89 L714.29,479.82 L718.08,479.72 L721.88,479.59 L725.67,479.41 L729.46,479.17 L733.25,478.87 L737.04,478.5 L740.83,478.04 L744.62,477.48 L748.42,476.82 L752.21,476.04 L756,475.13 L759.79,474.1 L763.58,472.92 L767.38,471.6 L771.17,470.12 L774.96,468.49 L778.75,466.69 L782.54,464.74 L786.33,462.62 L790.12,460.33 L793.92,457.88 L797.71,455.27 L801.5,452.5 L805.29,449.58 L809.08,446.5 L812.88,443.28 L816.67,439.92 L820.46,436.42 L824.25,432.8 L828.04,429.06 L831.83,425.2 L835.62,421.25 L839.42,417.19 L843.21,413.05 L847,408.83 L850.79,404.54 L854.58,400.19 L858.38,395.79 L862.17,391.33 L865.96,386.84 L869.75,382.32 L873.54,377.78 L877.33,373.22 L881.12,368.65 L884.92,364.08 L888.71,359.51 L892.5,354.96 L896.29,350.42 L900.08,345.91 L903.88,341.42 L907.67,336.97 L911.46,332.55 L915.25,328.17 L919.04,323.84 L922.83,319.56 L926.62,315.33 L930.42,311.15 L934.21,307.03 L938,302.97 L941.79,298.98 L945.58,295.05 L949.38,291.18 L953.17,287.38 L956.96,283.65 L960.75,279.99 L964.54,276.41 L968.33,272.89 L972.12,269.44 L975.92,266.07 L979.71,262.77 L983.5,259.54 L987.29,256.39 L991.08,253.3 L994.88,250.29 L998.67,247.35 L1002.46,244.48 L1006.25,241.68 L1010.04,238.95 L1013.83,236.29 L1017.62,233.69 L1021.42,231.17 L1025.21,228.71 L1029,226.31 L1032.79,223.98 L1036.58,221.71 L1040.38,219.51 L1044.17,217.36 L1047.96,215.28 L1051.75,213.25 L1055.54,211.28 L1059.33,209.37 L1063.12,207.51 L1066.92,205.71 L1070.71,203.95 L1074.5,202.25 L1078.29,200.6 L1082.08,199 L1085.88,197.45 L1089.67,195.94 L1093.46,194.48 L1097.25,193.07 L1101.04,191.69 L1104.83,190.36 L1108.62,189.07 L1112.42,187.82 L1116.21,186.61 L1120,185.44"/><path class="curve" d="M85,480 L88.79,470.39 L92.58,461.01 L96.38,451.84 L100.17,442.89 L103.96,434.16 L107.75,425.62 L111.54,417.29 L115.33,409.15 L119.12,401.2 L122.92,393.44 L126.71,385.86 L130.5,378.45 L134.29,371.23 L138.08,364.17 L141.88,357.27 L145.67,350.54 L149.46,343.96 L153.25,337.54 L157.04,331.27 L160.83,325.15 L164.62,319.17 L168.42,313.33 L172.21,307.63 L176,302.06 L179.79,296.62 L183.58,291.31 L187.38,286.12 L191.17,281.06 L194.96,276.11 L198.75,271.28 L202.54,266.56 L206.33,261.96 L210.12,257.46 L213.92,253.07 L217.71,248.77 L221.5,244.58 L225.29,240.49 L229.08,236.5 L232.88,232.6 L236.67,228.78 L240.46,225.06 L244.25,221.43 L248.04,217.88 L251.83,214.41 L255.62,211.03 L259.42,207.73 L263.21,204.5 L267,201.35 L270.79,198.27 L274.58,195.26 L278.38,192.33 L282.17,189.46 L285.96,186.66 L289.75,183.92 L293.54,181.25 L297.33,178.65 L301.12,176.1 L304.92,173.61 L308.71,171.19 L312.5,168.81 L316.29,166.5 L320.08,164.24 L323.88,162.03 L327.67,159.87 L331.46,157.77 L335.25,155.71 L339.04,153.7 L342.83,151.74 L346.62,149.82 L350.42,147.95 L354.21,146.13 L358,144.34 L361.79,142.6 L365.58,140.9 L369.38,139.24 L373.17,137.61 L376.96,136.03 L380.75,134.48 L384.54,132.97 L388.33,131.49 L392.12,130.05 L395.92,128.65 L399.71,127.27 L403.5,125.93 L407.29,124.62 L411.08,123.34 L414.87,122.09 L418.67,120.87 L422.46,119.68 L426.25,118.51 L430.04,117.37 L433.83,116.26 L437.62,115.18 L441.42,114.12 L445.21,113.09 L449,112.08 L452.79,111.09 L456.58,110.13 L460.38,109.19 L464.17,108.27 L467.96,107.37 L471.75,106.5 L475.54,105.64 L479.33,104.81 L483.12,103.99 L486.92,103.19 L490.71,102.42 L494.5,101.66 L498.29,100.91 L502.08,100.19 L505.88,99.48 L509.67,98.79 L513.46,98.12 L517.25,97.46 L521.04,96.81 L524.83,96.19 L528.62,95.57 L532.42,94.97 L536.21,94.39 L540,93.82"/><path class="curve" d="M665,480 L668.79,480 L672.58,480 L676.38,480 L680.17,479.99 L683.96,479.99 L687.75,479.97 L691.54,479.94 L695.33,479.89 L699.12,479.82 L702.92,479.72 L706.71,479.59 L710.5,479.41 L714.29,479.19 L718.08,478.91 L721.88,478.57 L725.67,478.17 L729.46,477.69 L733.25,477.13 L737.04,476.49 L740.83,475.76 L744.62,474.94 L748.42,474.02 L752.21,473 L756,471.87 L759.79,470.65 L763.58,469.31 L767.38,467.86 L771.17,466.3 L774.96,464.64 L778.75,462.86 L782.54,460.97 L786.33,458.97 L790.12,456.86 L793.92,454.64 L797.71,452.32 L801.5,449.89 L805.29,447.36 L809.08,444.73 L812.88,442.01 L816.67,439.19 L820.46,436.29 L824.25,433.29 L828.04,430.22 L831.83,427.06 L835.62,423.83 L839.42,420.52 L843.21,417.15 L847,413.71 L850.79,410.22 L854.58,406.66 L858.38,403.06 L862.17,399.4 L865.96,395.7 L869.75,391.96 L873.54,388.19 L877.33,384.37 L881.12,380.53 L884.92,376.67 L888.71,372.78 L892.5,368.87 L896.29,364.95 L900.08,361.01 L903.88,357.07 L907.67,353.11 L911.46,349.16 L915.25,345.2 L919.04,341.25 L922.83,337.31 L926.62,333.37 L930.42,329.44 L934.21,325.52 L938,321.62 L941.79,317.74 L945.58,313.87 L949.38,310.03 L953.17,306.21 L956.96,302.41 L960.75,298.64 L964.54,294.9 L968.33,291.18 L972.12,287.5 L975.92,283.85 L979.71,280.24 L983.5,276.65 L987.29,273.11 L991.08,269.6 L994.88,266.12 L998.67,262.69 L1002.46,259.29 L1006.25,255.93 L1010.04,252.62 L1013.83,249.34 L1017.62,246.1 L1021.42,242.91 L1025.21,239.76 L1029,236.65 L1032.79,233.58 L1036.58,230.56 L1040.38,227.57 L1044.17,224.63 L1047.96,221.74 L1051.75,218.89 L1055.54,216.08 L1059.33,213.31 L1063.12,210.58 L1066.92,207.9 L1070.71,205.26 L1074.5,202.67 L1078.29,200.11 L1082.08,197.6 L1085.88,195.13 L1089.67,192.7 L1093.46,190.31 L1097.25,187.97 L1101.04,185.66 L1104.83,183.4 L1108.62,181.17 L1112.42,178.98 L1116.21,176.84 L1120,174.73"/><path class="curve" d="M85,480 L88.79,468.81 L92.58,457.93 L96.38,447.34 L100.17,437.05 L103.96,427.03 L107.75,417.29 L111.54,407.81 L115.33,398.59 L119.12,389.63 L122.92,380.91 L126.71,372.42 L130.5,364.17 L134.29,356.14 L138.08,348.33 L141.88,340.74 L145.67,333.35 L149.46,326.16 L153.25,319.17 L157.04,312.38 L160.83,305.76 L164.62,299.33 L168.42,293.07 L172.21,286.98 L176,281.06 L179.79,275.3 L183.58,269.7 L187.38,264.25 L191.17,258.95 L194.96,253.79 L198.75,248.78 L202.54,243.9 L206.33,239.16 L210.12,234.54 L213.92,230.05 L217.71,225.68 L221.5,221.43 L225.29,217.3 L229.08,213.28 L232.88,209.37 L236.67,205.57 L240.46,201.87 L244.25,198.27 L248.04,194.77 L251.83,191.37 L255.62,188.05 L259.42,184.83 L263.21,181.7 L267,178.65 L270.79,175.69 L274.58,172.8 L278.38,170 L282.17,167.27 L285.96,164.61 L289.75,162.03 L293.54,159.52 L297.33,157.08 L301.12,154.7 L304.92,152.39 L308.71,150.14 L312.5,147.96 L316.29,145.83 L320.08,143.76 L323.88,141.75 L327.67,139.79 L331.46,137.88 L335.25,136.03 L339.04,134.23 L342.83,132.48 L346.62,130.77 L350.42,129.11 L354.21,127.5 L358,125.93 L361.79,124.41 L365.58,122.92 L369.38,121.48 L373.17,120.07 L376.96,118.71 L380.75,117.38 L384.54,116.08 L388.33,114.83 L392.12,113.6 L395.92,112.41 L399.71,111.26 L403.5,110.13 L407.29,109.04 L411.08,107.97 L414.87,106.93 L418.67,105.93 L422.46,104.95 L426.25,103.99 L430.04,103.06 L433.83,102.16 L437.62,101.29 L441.42,100.43 L445.21,99.6 L449,98.79 L452.79,98.01 L456.58,97.24 L460.38,96.5 L464.17,95.78 L467.96,95.07 L471.75,94.39 L475.54,93.72 L479.33,93.08 L483.12,92.45 L486.92,91.83 L490.71,91.24 L494.5,90.66 L498.29,90.09 L502.08,89.55 L505.88,89.01 L509.67,88.49 L513.46,87.99 L517.25,87.5 L521.04,87.02 L524.83,86.56 L528.62,86.11 L532.42,85.67 L536.21,85.24 L540,84.82"/><path class="curve" d="M665,480 L668.79,480 L672.58,480 L676.38,479.99 L680.17,479.98 L683.96,479.94 L687.75,479.87 L691.54,479.76 L695.33,479.6 L699.12,479.36 L702.92,479.04 L706.71,478.63 L710.5,478.1 L714.29,477.46 L718.08,476.67 L721.88,475.75 L725.67,474.67 L729.46,473.43 L733.25,472.01 L737.04,470.43 L740.83,468.66 L744.62,466.71 L748.42,464.57 L752.21,462.24 L756,459.73 L759.79,457.04 L763.58,454.15 L767.38,451.09 L771.17,447.85 L774.96,444.43 L778.75,440.85 L782.54,437.1 L786.33,433.19 L790.12,429.13 L793.92,424.93 L797.71,420.59 L801.5,416.12 L805.29,411.53 L809.08,406.82 L812.88,402 L816.67,397.09 L820.46,392.08 L824.25,386.99 L828.04,381.82 L831.83,376.59 L835.62,371.29 L839.42,365.94 L843.21,360.54 L847,355.1 L850.79,349.63 L854.58,344.13 L858.38,338.61 L862.17,333.08 L865.96,327.54 L869.75,322 L873.54,316.46 L877.33,310.93 L881.12,305.42 L884.92,299.92 L888.71,294.45 L892.5,289 L896.29,283.58 L900.08,278.2 L903.88,272.86 L907.67,267.55 L911.46,262.3 L915.25,257.09 L919.04,251.93 L922.83,246.82 L926.62,241.77 L930.42,236.78 L934.21,231.84 L938,226.97 L941.79,222.16 L945.58,217.41 L949.38,212.73 L953.17,208.11 L956.96,203.56 L960.75,199.08 L964.54,194.67 L968.33,190.33 L972.12,186.05 L975.92,181.85 L979.71,177.72 L983.5,173.66 L987.29,169.66 L991.08,165.74 L994.88,161.89 L998.67,158.11 L1002.46,154.4 L1006.25,150.76 L1010.04,147.19 L1013.83,143.69 L1017.62,140.25 L1021.42,136.88 L1025.21,133.59 L1029,130.35 L1032.79,127.19 L1036.58,124.08 L1040.38,121.05 L1044.17,118.07 L1047.96,115.16 L1051.75,112.32 L1055.54,109.53 L1059.33,106.8 L1063.12,104.13 L1066.92,101.53 L1070.71,98.98 L1074.5,96.48 L1078.29,94.04 L1082.08,91.66 L1085.88,89.33 L1089.67,87.06 L1093.46,84.84 L1097.25,82.66 L1101.04,80.54 L1104.83,78.47 L1108.62,76.45 L1112.42,74.47 L1116.21,72.54 L1120,70.66"/><path class="curve" d="M85,480 L88.79,471.75 L92.58,463.66 L96.38,455.74 L100.17,447.98 L103.96,440.37 L107.75,432.92 L111.54,425.62 L115.33,418.46 L119.12,411.45 L122.92,404.57 L126.71,397.84 L130.5,391.24 L134.29,384.78 L138.08,378.44 L141.88,372.24 L145.67,366.15 L149.46,360.19 L153.25,354.35 L157.04,348.63 L160.83,343.02 L164.62,337.53 L168.42,332.15 L172.21,326.87 L176,321.7 L179.79,316.64 L183.58,311.67 L187.38,306.81 L191.17,302.04 L194.96,297.37 L198.75,292.8 L202.54,288.31 L206.33,283.92 L210.12,279.62 L213.92,275.4 L217.71,271.26 L221.5,267.21 L225.29,263.24 L229.08,259.36 L232.88,255.55 L236.67,251.81 L240.46,248.15 L244.25,244.57 L248.04,241.05 L251.83,237.61 L255.62,234.24 L259.42,230.93 L263.21,227.69 L267,224.52 L270.79,221.41 L274.58,218.36 L278.38,215.38 L282.17,212.45 L285.96,209.59 L289.75,206.78 L293.54,204.02 L297.33,201.33 L301.12,198.68 L304.92,196.09 L308.71,193.56 L312.5,191.07 L316.29,188.63 L320.08,186.25 L323.88,183.91 L327.67,181.61 L331.46,179.37 L335.25,177.17 L339.04,175.01 L342.83,172.9 L346.62,170.83 L350.42,168.8 L354.21,166.81 L358,164.86 L361.79,162.95 L365.58,161.08 L369.38,159.25 L373.17,157.45 L376.96,155.69 L380.75,153.97 L384.54,152.28 L388.33,150.62 L392.12,149 L395.92,147.41 L399.71,145.85 L403.5,144.33 L407.29,142.83 L411.08,141.36 L414.87,139.93 L418.67,138.52 L422.46,137.14 L426.25,135.79 L430.04,134.47 L433.83,133.17 L437.62,131.9 L441.42,130.65 L445.21,129.43 L449,128.24 L452.79,127.06 L456.58,125.92 L460.38,124.79 L464.17,123.69 L467.96,122.61 L471.75,121.55 L475.54,120.51 L479.33,119.49 L483.12,118.5 L486.92,117.52 L490.71,116.57 L494.5,115.63 L498.29,114.71 L502.08,113.81 L505.88,112.93 L509.67,112.07 L513.46,111.22 L517.25,110.39 L521.04,109.58 L524.83,108.78 L528.62,108 L532.42,107.23 L536.21,106.49 L540,105.75"/><path class="curve" d="M665,480 L668.79,480 L672.58,480 L676.38,480 L680.17,480 L683.96,480 L687.75,479.99 L691.54,479.99 L695.33,479.98 L699.12,479.96 L702.92,479.94 L706.71,479.91 L710.5,479.86 L714.29,479.8 L718.08,479.72 L721.88,479.62 L725.67,479.49 L729.46,479.34 L733.25,479.15 L737.04,478.93 L740.83,478.67 L744.62,478.37 L748.42,478.03 L752.21,477.64 L756,477.2 L759.79,476.7 L763.58,476.15 L767.38,475.54 L771.17,474.87 L774.96,474.13 L778.75,473.33 L782.54,472.46 L786.33,471.52 L790.12,470.51 L793.92,469.44 L797.71,468.28 L801.5,467.06 L805.29,465.76 L809.08,464.39 L812.88,462.95 L816.67,461.43 L820.46,459.84 L824.25,458.17 L828.04,456.43 L831.83,454.62 L835.62,452.74 L839.42,450.79 L843.21,448.78 L847,446.69 L850.79,444.54 L854.58,442.33 L858.38,440.05 L862.17,437.71 L865.96,435.32 L869.75,432.87 L873.54,430.36 L877.33,427.8 L881.12,425.19 L884.92,422.53 L888.71,419.82 L892.5,417.07 L896.29,414.28 L900.08,411.44 L903.88,408.57 L907.67,405.67 L911.46,402.73 L915.25,399.76 L919.04,396.76 L922.83,393.73 L926.62,390.68 L930.42,387.61 L934.21,384.52 L938,381.41 L941.79,378.28 L945.58,375.14 L949.38,371.98 L953.17,368.82 L956.96,365.65 L960.75,362.47 L964.54,359.28 L968.33,356.1 L972.12,352.91 L975.92,349.72 L979.71,346.53 L983.5,343.35 L987.29,340.17 L991.08,337 L994.88,333.84 L998.67,330.68 L1002.46,327.54 L1006.25,324.41 L1010.04,321.29 L1013.83,318.18 L1017.62,315.09 L1021.42,312.02 L1025.21,308.96 L1029,305.92 L1032.79,302.9 L1036.58,299.9 L1040.38,296.92 L1044.17,293.96 L1047.96,291.03 L1051.75,288.12 L1055.54,285.23 L1059.33,282.36 L1063.12,279.52 L1066.92,276.71 L1070.71,273.92 L1074.5,271.16 L1078.29,268.42 L1082.08,265.71 L1085.88,263.03 L1089.67,260.38 L1093.46,257.75 L1097.25,255.16 L1101.04,252.59 L1104.83,250.05 L1108.62,247.54 L1112.42,245.05 L1116.21,242.6 L1120,240.18"/><path class="curve" d="M85,480 L88.79,465.33 L92.58,451.19 L96.38,437.55 L100.17,424.4 L103.96,411.72 L107.75,399.49 L111.54,387.7 L115.33,376.33 L119.12,365.37 L122.92,354.81 L126.71,344.62 L130.5,334.79 L134.29,325.32 L138.08,316.18 L141.88,307.37 L145.67,298.88 L149.46,290.69 L153.25,282.79 L157.04,275.18 L160.83,267.84 L164.62,260.76 L168.42,253.94 L172.21,247.35 L176,241.01 L179.79,234.89 L183.58,228.99 L187.38,223.3 L191.17,217.82 L194.96,212.53 L198.75,207.43 L202.54,202.51 L206.33,197.77 L210.12,193.2 L213.92,188.79 L217.71,184.54 L221.5,180.44 L225.29,176.49 L229.08,172.68 L232.88,169.01 L236.67,165.46 L240.46,162.05 L244.25,158.76 L248.04,155.58 L251.83,152.52 L255.62,149.57 L259.42,146.72 L263.21,143.97 L267,141.33 L270.79,138.78 L274.58,136.31 L278.38,133.94 L282.17,131.65 L285.96,129.45 L289.75,127.32 L293.54,125.27 L297.33,123.29 L301.12,121.39 L304.92,119.55 L308.71,117.77 L312.5,116.07 L316.29,114.42 L320.08,112.83 L323.88,111.3 L327.67,109.82 L331.46,108.39 L335.25,107.02 L339.04,105.7 L342.83,104.42 L346.62,103.19 L350.42,102 L354.21,100.85 L358,99.75 L361.79,98.69 L365.58,97.66 L369.38,96.67 L373.17,95.72 L376.96,94.8 L380.75,93.91 L384.54,93.05 L388.33,92.23 L392.12,91.43 L395.92,90.67 L399.71,89.93 L403.5,89.21 L407.29,88.53 L411.08,87.86 L414.87,87.22 L418.67,86.61 L422.46,86.01 L426.25,85.44 L430.04,84.89 L433.83,84.36 L437.62,83.84 L441.42,83.35 L445.21,82.87 L449,82.41 L452.79,81.96 L456.58,81.54 L460.38,81.12 L464.17,80.73 L467.96,80.34 L471.75,79.97 L475.54,79.62 L479.33,79.27 L483.12,78.94 L486.92,78.62 L490.71,78.31 L494.5,78.01 L498.29,77.73 L502.08,77.45 L505.88,77.18 L509.67,76.93 L513.46,76.68 L517.25,76.44 L521.04,76.21 L524.83,75.99 L528.62,75.77 L532.42,75.57 L536.21,75.37 L540,75.18"/><path class="curve" d="M665,480 L668.79,480 L672.58,480 L676.38,479.98 L680.17,479.94 L683.96,479.85 L687.75,479.69 L691.54,479.44 L695.33,479.08 L699.12,478.58 L702.92,477.92 L706.71,477.09 L710.5,476.06 L714.29,474.83 L718.08,473.37 L721.88,471.69 L725.67,469.78 L729.46,467.63 L733.25,465.24 L737.04,462.61 L740.83,459.76 L744.62,456.68 L748.42,453.37 L752.21,449.86 L756,446.15 L759.79,442.24 L763.58,438.16 L767.38,433.91 L771.17,429.5 L774.96,424.95 L778.75,420.28 L782.54,415.48 L786.33,410.58 L790.12,405.6 L793.92,400.53 L797.71,395.4 L801.5,390.21 L805.29,384.99 L809.08,379.73 L812.88,374.45 L816.67,369.16 L820.46,363.87 L824.25,358.58 L828.04,353.31 L831.83,348.07 L835.62,342.85 L839.42,337.68 L843.21,332.55 L847,327.46 L850.79,322.44 L854.58,317.47 L858.38,312.57 L862.17,307.74 L865.96,302.98 L869.75,298.29 L873.54,293.69 L877.33,289.16 L881.12,284.72 L884.92,280.36 L888.71,276.08 L892.5,271.89 L896.29,267.79 L900.08,263.78 L903.88,259.86 L907.67,256.02 L911.46,252.27 L915.25,248.62 L919.04,245.05 L922.83,241.57 L926.62,238.17 L930.42,234.86 L934.21,231.64 L938,228.5 L941.79,225.45 L945.58,222.48 L949.38,219.59 L953.17,216.78 L956.96,214.04 L960.75,211.39 L964.54,208.81 L968.33,206.3 L972.12,203.87 L975.92,201.51 L979.71,199.22 L983.5,197 L987.29,194.84 L991.08,192.75 L994.88,190.72 L998.67,188.76 L1002.46,186.85 L1006.25,185.01 L1010.04,183.22 L1013.83,181.49 L1017.62,179.81 L1021.42,178.19 L1025.21,176.62 L1029,175.09 L1032.79,173.62 L1036.58,172.19 L1040.38,170.82 L1044.17,169.48 L1047.96,168.19 L1051.75,166.94 L1055.54,165.73 L1059.33,164.57 L1063.12,163.44 L1066.92,162.35 L1070.71,161.29 L1074.5,160.27 L1078.29,159.28 L1082.08,158.33 L1085.88,157.41 L1089.67,156.52 L1093.46,155.66 L1097.25,154.83 L1101.04,154.03 L1104.83,153.25 L1108.62,152.5 L1112.42,151.78 L1116.21,151.08 L1120,150.41"/><path class="curve" d="M85,480 L88.79,470.45 L92.58,461.12 L96.38,452.01 L100.17,443.11 L103.96,434.41 L107.75,425.92 L111.54,417.63 L115.33,409.53 L119.12,401.62 L122.92,393.89 L126.71,386.35 L130.5,378.98 L134.29,371.78 L138.08,364.75 L141.88,357.88 L145.67,351.17 L149.46,344.62 L153.25,338.22 L157.04,331.97 L160.83,325.87 L164.62,319.91 L168.42,314.09 L172.21,308.4 L176,302.85 L179.79,297.42 L183.58,292.12 L187.38,286.95 L191.17,281.89 L194.96,276.96 L198.75,272.13 L202.54,267.43 L206.33,262.83 L210.12,258.33 L213.92,253.94 L217.71,249.66 L221.5,245.47 L225.29,241.39 L229.08,237.39 L232.88,233.49 L236.67,229.68 L240.46,225.96 L244.25,222.33 L248.04,218.78 L251.83,215.31 L255.62,211.93 L259.42,208.62 L263.21,205.39 L267,202.24 L270.79,199.16 L274.58,196.15 L278.38,193.21 L282.17,190.34 L285.96,187.53 L289.75,184.8 L293.54,182.12 L297.33,179.51 L301.12,176.96 L304.92,174.47 L308.71,172.03 L312.5,169.65 L316.29,167.33 L320.08,165.06 L323.88,162.85 L327.67,160.69 L331.46,158.57 L335.25,156.51 L339.04,154.49 L342.83,152.53 L346.62,150.6 L350.42,148.73 L354.21,146.89 L358,145.1 L361.79,143.35 L365.58,141.64 L369.38,139.97 L373.17,138.34 L376.96,136.75 L380.75,135.19 L384.54,133.68 L388.33,132.19 L392.12,130.74 L395.92,129.33 L399.71,127.95 L403.5,126.6 L407.29,125.28 L411.08,123.99 L414.87,122.73 L418.67,121.5 L422.46,120.3 L426.25,119.13 L430.04,117.99 L433.83,116.87 L437.62,115.78 L441.42,114.71 L445.21,113.67 L449,112.65 L452.79,111.66 L456.58,110.69 L460.38,109.74 L464.17,108.81 L467.96,107.91 L471.75,107.03 L475.54,106.16 L479.33,105.32 L483.12,104.5 L486.92,103.69 L490.71,102.91 L494.5,102.14 L498.29,101.39 L502.08,100.66 L505.88,99.95 L509.67,99.25 L513.46,98.57 L517.25,97.9 L521.04,97.25 L524.83,96.62 L528.62,96 L532.42,95.39 L536.21,94.8 L540,94.22"/><path class="curve" d="M665,480 L668.79,480 L672.58,480 L676.38,480 L680.17,480 L683.96,480 L687.75,480 L691.54,480 L695.33,480 L699.12,480 L702.92,480 L706.71,480 L710.5,480 L714.29,479.99 L718.08,479.99 L721.88,479.98 L725.67,479.98 L729.46,479.96 L733.25,479.95 L737.04,479.93 L740.83,479.9 L744.62,479.86 L748.42,479.81 L752.21,479.76 L756,479.68 L759.79,479.6 L763.58,479.49 L767.38,479.36 L771.17,479.21 L774.96,479.04 L778.75,478.84 L782.54,478.6 L786.33,478.34 L790.12,478.03 L793.92,477.69 L797.71,477.31 L801.5,476.88 L805.29,476.41 L809.08,475.89 L812.88,475.32 L816.67,474.7 L820.46,474.02 L824.25,473.29 L828.04,472.5 L831.83,471.65 L835.62,470.74 L839.42,469.76 L843.21,468.72 L847,467.62 L850.79,466.46 L854.58,465.23 L858.38,463.94 L862.17,462.58 L865.96,461.15 L869.75,459.67 L873.54,458.11 L877.33,456.5 L881.12,454.82 L884.92,453.08 L888.71,451.29 L892.5,449.43 L896.29,447.51 L900.08,445.54 L903.88,443.52 L907.67,441.44 L911.46,439.31 L915.25,437.13 L919.04,434.9 L922.83,432.63 L926.62,430.31 L930.42,427.95 L934.21,425.56 L938,423.12 L941.79,420.65 L945.58,418.15 L949.38,415.62 L953.17,413.06 L956.96,410.47 L960.75,407.86 L964.54,405.23 L968.33,402.58 L972.12,399.91 L975.92,397.23 L979.71,394.53 L983.5,391.82 L987.29,389.1 L991.08,386.38 L994.88,383.64 L998.67,380.91 L1002.46,378.17 L1006.25,375.44 L1010.04,372.7 L1013.83,369.97 L1017.62,367.24 L1021.42,364.52 L1025.21,361.81 L1029,359.11 L1032.79,356.42 L1036.58,353.74 L1040.38,351.07 L1044.17,348.42 L1047.96,345.78 L1051.75,343.16 L1055.54,340.56 L1059.33,337.98 L1063.12,335.41 L1066.92,332.87 L1070.71,330.35 L1074.5,327.85 L1078.29,325.37 L1082.08,322.92 L1085.88,320.49 L1089.67,318.09 L1093.46,315.71 L1097.25,313.36 L1101.04,311.03 L1104.83,308.74 L1108.62,306.46 L1112.42,304.22 L1116.21,302 L1120,299.81"/><path class="curve" d="M85,480 L88.79,471.77 L92.58,463.71 L96.38,455.8 L100.17,448.06 L103.96,440.47 L107.75,433.03 L111.54,425.75 L115.33,418.6 L119.12,411.61 L122.92,404.75 L126.71,398.03 L130.5,391.45 L134.29,384.99 L138.08,378.67 L141.88,372.47 L145.67,366.4 L149.46,360.45 L153.25,354.62 L157.04,348.91 L160.83,343.31 L164.62,337.83 L168.42,332.45 L172.21,327.18 L176,322.02 L179.79,316.96 L183.58,312 L187.38,307.14 L191.17,302.38 L194.96,297.72 L198.75,293.15 L202.54,288.67 L206.33,284.28 L210.12,279.98 L213.92,275.76 L217.71,271.63 L221.5,267.59 L225.29,263.62 L229.08,259.73 L232.88,255.93 L236.67,252.19 L240.46,248.54 L244.25,244.95 L248.04,241.44 L251.83,238 L255.62,234.63 L259.42,231.32 L263.21,228.08 L267,224.91 L270.79,221.8 L274.58,218.75 L278.38,215.77 L282.17,212.84 L285.96,209.97 L289.75,207.17 L293.54,204.41 L297.33,201.71 L301.12,199.07 L304.92,196.48 L308.71,193.94 L312.5,191.45 L316.29,189.01 L320.08,186.63 L323.88,184.28 L327.67,181.99 L331.46,179.74 L335.25,177.54 L339.04,175.38 L342.83,173.27 L346.62,171.19 L350.42,169.16 L354.21,167.17 L358,165.22 L361.79,163.31 L365.58,161.44 L369.38,159.6 L373.17,157.8 L376.96,156.04 L380.75,154.31 L384.54,152.62 L388.33,150.96 L392.12,149.34 L395.92,147.74 L399.71,146.18 L403.5,144.65 L407.29,143.16 L411.08,141.69 L414.87,140.25 L418.67,138.84 L422.46,137.46 L426.25,136.1 L430.04,134.78 L433.83,133.48 L437.62,132.2 L441.42,130.95 L445.21,129.73 L449,128.53 L452.79,127.36 L456.58,126.2 L460.38,125.08 L464.17,123.97 L467.96,122.89 L471.75,121.83 L475.54,120.79 L479.33,119.77 L483.12,118.77 L486.92,117.79 L490.71,116.83 L494.5,115.89 L498.29,114.97 L502.08,114.06 L505.88,113.18 L509.67,112.31 L513.46,111.46 L517.25,110.63 L521.04,109.82 L524.83,109.02 L528.62,108.23 L532.42,107.47 L536.21,106.71 L540,105.98"/><path class="curve" d="M665,480 L668.79,480 L672.58,480 L676.38,479.99 L680.17,479.98 L683.96,479.95 L687.75,479.91 L691.54,479.84 L695.33,479.75 L699.12,479.63 L702.92,479.47 L706.71,479.28 L710.5,479.04 L714.29,478.75 L718.08,478.4 L721.88,478.01 L725.67,477.56 L729.46,477.04 L733.25,476.47 L737.04,475.83 L740.83,475.12 L744.62,474.35 L748.42,473.51 L752.21,472.6 L756,471.63 L759.79,470.58 L763.58,469.47 L767.38,468.29 L771.17,467.04 L774.96,465.72 L778.75,464.33 L782.54,462.89 L786.33,461.37 L790.12,459.8 L793.92,458.17 L797.71,456.47 L801.5,454.72 L805.29,452.91 L809.08,451.05 L812.88,449.14 L816.67,447.18 L820.46,445.16 L824.25,443.11 L828.04,441.01 L831.83,438.87 L835.62,436.69 L839.42,434.47 L843.21,432.22 L847,429.93 L850.79,427.62 L854.58,425.27 L858.38,422.9 L862.17,420.5 L865.96,418.08 L869.75,415.65 L873.54,413.19 L877.33,410.71 L881.12,408.22 L884.92,405.72 L888.71,403.21 L892.5,400.69 L896.29,398.16 L900.08,395.62 L903.88,393.08 L907.67,390.54 L911.46,387.99 L915.25,385.45 L919.04,382.9 L922.83,380.36 L926.62,377.83 L930.42,375.29 L934.21,372.77 L938,370.25 L941.79,367.74 L945.58,365.25 L949.38,362.76 L953.17,360.28 L956.96,357.82 L960.75,355.37 L964.54,352.94 L968.33,350.52 L972.12,348.12 L975.92,345.73 L979.71,343.36 L983.5,341.01 L987.29,338.68 L991.08,336.36 L994.88,334.07 L998.67,331.8 L1002.46,329.54 L1006.25,327.31 L1010.04,325.1 L1013.83,322.91 L1017.62,320.74 L1021.42,318.6 L1025.21,316.48 L1029,314.38 L1032.79,312.3 L1036.58,310.25 L1040.38,308.22 L1044.17,306.22 L1047.96,304.23 L1051.75,302.28 L1055.54,300.34 L1059.33,298.43 L1063.12,296.54 L1066.92,294.68 L1070.71,292.84 L1074.5,291.03 L1078.29,289.24 L1082.08,287.47 L1085.88,285.73 L1089.67,284.01 L1093.46,282.32 L1097.25,280.64 L1101.04,279 L1104.83,277.37 L1108.62,275.77 L1112.42,274.19 L1116.21,272.64 L1120,271.1"/><path class="curve" d="M85,480 L88.79,470.46 L92.58,461.14 L96.38,452.03 L100.17,443.14 L103.96,434.46 L107.75,425.98 L111.54,417.69 L115.33,409.6 L119.12,401.69 L122.92,393.98 L126.71,386.43 L130.5,379.07 L134.29,371.88 L138.08,364.85 L141.88,357.99 L145.67,351.29 L149.46,344.74 L153.25,338.35 L157.04,332.1 L160.83,326 L164.62,320.04 L168.42,314.22 L172.21,308.54 L176,302.99 L179.79,297.56 L183.58,292.27 L187.38,287.09 L191.17,282.04 L194.96,277.11 L198.75,272.29 L202.54,267.58 L206.33,262.98 L210.12,258.49 L213.92,254.1 L217.71,249.82 L221.5,245.63 L225.29,241.54 L229.08,237.55 L232.88,233.65 L236.67,229.84 L240.46,226.12 L244.25,222.49 L248.04,218.94 L251.83,215.47 L255.62,212.09 L259.42,208.78 L263.21,205.55 L267,202.4 L270.79,199.32 L274.58,196.31 L278.38,193.37 L282.17,190.49 L285.96,187.69 L289.75,184.95 L293.54,182.28 L297.33,179.66 L301.12,177.11 L304.92,174.62 L308.71,172.18 L312.5,169.8 L316.29,167.48 L320.08,165.21 L323.88,163 L327.67,160.83 L331.46,158.72 L335.25,156.65 L339.04,154.64 L342.83,152.67 L346.62,150.74 L350.42,148.86 L354.21,147.03 L358,145.24 L361.79,143.48 L365.58,141.77 L369.38,140.1 L373.17,138.47 L376.96,136.88 L380.75,135.32 L384.54,133.8 L388.33,132.32 L392.12,130.87 L395.92,129.45 L399.71,128.07 L403.5,126.71 L407.29,125.39 L411.08,124.11 L414.87,122.85 L418.67,121.62 L422.46,120.42 L426.25,119.24 L430.04,118.1 L433.83,116.98 L437.62,115.88 L441.42,114.82 L445.21,113.77 L449,112.75 L452.79,111.76 L456.58,110.79 L460.38,109.84 L464.17,108.91 L467.96,108 L471.75,107.12 L475.54,106.26 L479.33,105.41 L483.12,104.59 L486.92,103.78 L490.71,103 L494.5,102.23 L498.29,101.48 L502.08,100.75 L505.88,100.03 L509.67,99.33 L513.46,98.65 L517.25,97.98 L521.04,97.33 L524.83,96.69 L528.62,96.07 L532.42,95.47 L536.21,94.87 L540,94.3"/><path class="curve" d="M665,480 L668.79,480 L672.58,479.99 L676.38,479.96 L680.17,479.9 L683.96,479.79 L687.75,479.62 L691.54,479.39 L695.33,479.08 L699.12,478.68 L702.92,478.19 L706.71,477.59 L710.5,476.89 L714.29,476.08 L718.08,475.15 L721.88,474.1 L725.67,472.92 L729.46,471.63 L733.25,470.22 L737.04,468.68 L740.83,467.02 L744.62,465.24 L748.42,463.34 L752.21,461.33 L756,459.21 L759.79,456.97 L763.58,454.63 L767.38,452.19 L771.17,449.64 L774.96,447.01 L778.75,444.28 L782.54,441.47 L786.33,438.57 L790.12,435.6 L793.92,432.55 L797.71,429.44 L801.5,426.26 L805.29,423.02 L809.08,419.73 L812.88,416.39 L816.67,413 L820.46,409.56 L824.25,406.1 L828.04,402.59 L831.83,399.06 L835.62,395.5 L839.42,391.92 L843.21,388.32 L847,384.71 L850.79,381.08 L854.58,377.45 L858.38,373.81 L862.17,370.16 L865.96,366.52 L869.75,362.88 L873.54,359.25 L877.33,355.63 L881.12,352.02 L884.92,348.42 L888.71,344.84 L892.5,341.27 L896.29,337.72 L900.08,334.2 L903.88,330.7 L907.67,327.22 L911.46,323.77 L915.25,320.35 L919.04,316.95 L922.83,313.59 L926.62,310.26 L930.42,306.96 L934.21,303.69 L938,300.46 L941.79,297.26 L945.58,294.1 L949.38,290.97 L953.17,287.89 L956.96,284.84 L960.75,281.83 L964.54,278.85 L968.33,275.92 L972.12,273.02 L975.92,270.17 L979.71,267.35 L983.5,264.58 L987.29,261.84 L991.08,259.15 L994.88,256.49 L998.67,253.88 L1002.46,251.3 L1006.25,248.77 L1010.04,246.27 L1013.83,243.82 L1017.62,241.4 L1021.42,239.03 L1025.21,236.69 L1029,234.4 L1032.79,232.14 L1036.58,229.92 L1040.38,227.73 L1044.17,225.59 L1047.96,223.48 L1051.75,221.41 L1055.54,219.38 L1059.33,217.39 L1063.12,215.43 L1066.92,213.5 L1070.71,211.61 L1074.5,209.76 L1078.29,207.94 L1082.08,206.15 L1085.88,204.4 L1089.67,202.68 L1093.46,201 L1097.25,199.34 L1101.04,197.72 L1104.83,196.13 L1108.62,194.57 L1112.42,193.04 L1116.21,191.54 L1120,190.07"/><path class="curve" d="M85,480 L88.79,470.67 L92.58,461.55 L96.38,452.64 L100.17,443.94 L103.96,435.43 L107.75,427.11 L111.54,418.99 L115.33,411.04 L119.12,403.28 L122.92,395.7 L126.71,388.29 L130.5,381.05 L134.29,373.97 L138.08,367.05 L141.88,360.29 L145.67,353.69 L149.46,347.23 L153.25,340.92 L157.04,334.76 L160.83,328.73 L164.62,322.84 L168.42,317.09 L172.21,311.47 L176,305.97 L179.79,300.6 L183.58,295.36 L187.38,290.23 L191.17,285.22 L194.96,280.32 L198.75,275.53 L202.54,270.86 L206.33,266.29 L210.12,261.82 L213.92,257.46 L217.71,253.19 L221.5,249.02 L225.29,244.95 L229.08,240.97 L232.88,237.08 L236.67,233.27 L240.46,229.56 L244.25,225.93 L248.04,222.38 L251.83,218.91 L255.62,215.52 L259.42,212.21 L263.21,208.98 L267,205.81 L270.79,202.72 L274.58,199.7 L278.38,196.75 L282.17,193.87 L285.96,191.05 L289.75,188.29 L293.54,185.6 L297.33,182.97 L301.12,180.4 L304.92,177.89 L308.71,175.43 L312.5,173.03 L316.29,170.69 L320.08,168.4 L323.88,166.16 L327.67,163.97 L331.46,161.83 L335.25,159.74 L339.04,157.7 L342.83,155.71 L346.62,153.76 L350.42,151.85 L354.21,149.99 L358,148.17 L361.79,146.39 L365.58,144.65 L369.38,142.95 L373.17,141.29 L376.96,139.67 L380.75,138.08 L384.54,136.53 L388.33,135.02 L392.12,133.54 L395.92,132.1 L399.71,130.68 L403.5,129.3 L407.29,127.95 L411.08,126.63 L414.87,125.34 L418.67,124.09 L422.46,122.85 L426.25,121.65 L430.04,120.48 L433.83,119.33 L437.62,118.21 L441.42,117.11 L445.21,116.04 L449,114.99 L452.79,113.97 L456.58,112.96 L460.38,111.99 L464.17,111.03 L467.96,110.1 L471.75,109.19 L475.54,108.29 L479.33,107.42 L483.12,106.57 L486.92,105.74 L490.71,104.93 L494.5,104.13 L498.29,103.35 L502.08,102.6 L505.88,101.85 L509.67,101.13 L513.46,100.42 L517.25,99.73 L521.04,99.05 L524.83,98.39 L528.62,97.74 L532.42,97.11 L536.21,96.5 L540,95.89"/><path class="curve" d="M665,480 L668.79,480 L672.58,480 L676.38,480 L680.17,479.99 L683.96,479.98 L687.75,479.96 L691.54,479.93 L695.33,479.87 L699.12,479.79 L702.92,479.69 L706.71,479.54 L710.5,479.36 L714.29,479.13 L718.08,478.84 L721.88,478.5 L725.67,478.1 L729.46,477.63 L733.25,477.08 L737.04,476.46 L740.83,475.76 L744.62,474.97 L748.42,474.1 L752.21,473.14 L756,472.08 L759.79,470.93 L763.58,469.69 L767.38,468.36 L771.17,466.92 L774.96,465.4 L778.75,463.77 L782.54,462.06 L786.33,460.24 L790.12,458.34 L793.92,456.34 L797.71,454.26 L801.5,452.08 L805.29,449.82 L809.08,447.48 L812.88,445.06 L816.67,442.56 L820.46,439.98 L824.25,437.33 L828.04,434.62 L831.83,431.84 L835.62,428.99 L839.42,426.09 L843.21,423.12 L847,420.11 L850.79,417.05 L854.58,413.94 L858.38,410.78 L862.17,407.59 L865.96,404.36 L869.75,401.1 L873.54,397.81 L877.33,394.49 L881.12,391.15 L884.92,387.78 L888.71,384.4 L892.5,381 L896.29,377.59 L900.08,374.17 L903.88,370.75 L907.67,367.31 L911.46,363.88 L915.25,360.45 L919.04,357.02 L922.83,353.59 L926.62,350.17 L930.42,346.76 L934.21,343.36 L938,339.98 L941.79,336.61 L945.58,333.25 L949.38,329.91 L953.17,326.6 L956.96,323.3 L960.75,320.02 L964.54,316.77 L968.33,313.55 L972.12,310.34 L975.92,307.17 L979.71,304.02 L983.5,300.91 L987.29,297.82 L991.08,294.76 L994.88,291.74 L998.67,288.74 L1002.46,285.78 L1006.25,282.86 L1010.04,279.96 L1013.83,277.1 L1017.62,274.28 L1021.42,271.48 L1025.21,268.73 L1029,266.01 L1032.79,263.33 L1036.58,260.68 L1040.38,258.07 L1044.17,255.49 L1047.96,252.95 L1051.75,250.45 L1055.54,247.98 L1059.33,245.55 L1063.12,243.15 L1066.92,240.8 L1070.71,238.47 L1074.5,236.19 L1078.29,233.94 L1082.08,231.72 L1085.88,229.54 L1089.67,227.4 L1093.46,225.29 L1097.25,223.22 L1101.04,221.18 L1104.83,219.17 L1108.62,217.2 L1112.42,215.27 L1116.21,213.36 L1120,211.49"/><path class="curve" d="M85,480 L88.79,470.38 L92.58,460.99 L96.38,451.82 L100.17,442.87 L103.96,434.12 L107.75,425.58 L111.54,417.24 L115.33,409.1 L119.12,401.15 L122.92,393.38 L126.71,385.8 L130.5,378.39 L134.29,371.16 L138.08,364.09 L141.88,357.2 L145.67,350.46 L149.46,343.88 L153.25,337.46 L157.04,331.19 L160.83,325.06 L164.62,319.08 L168.42,313.24 L172.21,307.53 L176,301.96 L179.79,296.52 L183.58,291.21 L187.38,286.02 L191.17,280.95 L194.96,276.01 L198.75,271.18 L202.54,266.46 L206.33,261.85 L210.12,257.35 L213.92,252.96 L217.71,248.67 L221.5,244.48 L225.29,240.38 L229.08,236.39 L232.88,232.49 L236.67,228.67 L240.46,224.95 L244.25,221.32 L248.04,217.77 L251.83,214.3 L255.62,210.92 L259.42,207.61 L263.21,204.39 L267,201.24 L270.79,198.16 L274.58,195.15 L278.38,192.22 L282.17,189.35 L285.96,186.55 L289.75,183.82 L293.54,181.15 L297.33,178.54 L301.12,176 L304.92,173.51 L308.71,171.08 L312.5,168.71 L316.29,166.4 L320.08,164.14 L323.88,161.93 L327.67,159.77 L331.46,157.67 L335.25,155.61 L339.04,153.6 L342.83,151.64 L346.62,149.73 L350.42,147.86 L354.21,146.03 L358,144.25 L361.79,142.51 L365.58,140.81 L369.38,139.15 L373.17,137.52 L376.96,135.94 L380.75,134.39 L384.54,132.88 L388.33,131.41 L392.12,129.97 L395.92,128.56 L399.71,127.19 L403.5,125.85 L407.29,124.54 L411.08,123.26 L414.87,122.01 L418.67,120.79 L422.46,119.6 L426.25,118.44 L430.04,117.3 L433.83,116.19 L437.62,115.11 L441.42,114.05 L445.21,113.02 L449,112.01 L452.79,111.02 L456.58,110.06 L460.38,109.12 L464.17,108.2 L467.96,107.31 L471.75,106.43 L475.54,105.58 L479.33,104.74 L483.12,103.93 L486.92,103.13 L490.71,102.36 L494.5,101.6 L498.29,100.86 L502.08,100.13 L505.88,99.42 L509.67,98.73 L513.46,98.06 L517.25,97.4 L521.04,96.76 L524.83,96.13 L528.62,95.52 L532.42,94.92 L536.21,94.34 L540,93.77"/><path class="curve" d="M665,480 L668.79,480 L672.58,480 L676.38,480 L680.17,480 L683.96,480 L687.75,480 L691.54,480 L695.33,480 L699.12,480 L702.92,479.99 L706.71,479.99 L710.5,479.98 L714.29,479.97 L718.08,479.95 L721.88,479.93 L725.67,479.9 L729.46,479.85 L733.25,479.8 L737.04,479.72 L740.83,479.63 L744.62,479.52 L748.42,479.38 L752.21,479.22 L756,479.02 L759.79,478.79 L763.58,478.52 L767.38,478.21 L771.17,477.86 L774.96,477.45 L778.75,476.99 L782.54,476.48 L786.33,475.91 L790.12,475.27 L793.92,474.57 L797.71,473.81 L801.5,472.97 L805.29,472.06 L809.08,471.08 L812.88,470.02 L816.67,468.89 L820.46,467.68 L824.25,466.38 L828.04,465.01 L831.83,463.55 L835.62,462.02 L839.42,460.4 L843.21,458.7 L847,456.92 L850.79,455.07 L854.58,453.13 L858.38,451.11 L862.17,449.02 L865.96,446.86 L869.75,444.62 L873.54,442.3 L877.33,439.92 L881.12,437.47 L884.92,434.96 L888.71,432.38 L892.5,429.74 L896.29,427.05 L900.08,424.3 L903.88,421.49 L907.67,418.63 L911.46,415.73 L915.25,412.78 L919.04,409.79 L922.83,406.76 L926.62,403.7 L930.42,400.6 L934.21,397.47 L938,394.31 L941.79,391.12 L945.58,387.92 L949.38,384.69 L953.17,381.44 L956.96,378.18 L960.75,374.91 L964.54,371.63 L968.33,368.34 L972.12,365.05 L975.92,361.75 L979.71,358.45 L983.5,355.15 L987.29,351.86 L991.08,348.57 L994.88,345.29 L998.67,342.02 L1002.46,338.76 L1006.25,335.51 L1010.04,332.28 L1013.83,329.06 L1017.62,325.86 L1021.42,322.68 L1025.21,319.52 L1029,316.39 L1032.79,313.27 L1036.58,310.18 L1040.38,307.12 L1044.17,304.08 L1047.96,301.06 L1051.75,298.08 L1055.54,295.13 L1059.33,292.2 L1063.12,289.3 L1066.92,286.44 L1070.71,283.61 L1074.5,280.81 L1078.29,278.04 L1082.08,275.3 L1085.88,272.6 L1089.67,269.94 L1093.46,267.3 L1097.25,264.7 L1101.04,262.14 L1104.83,259.61 L1108.62,257.12 L1112.42,254.66 L1116.21,252.23 L1120,249.85"/><path class="curve" d="M85,480 L88.79,468.66 L92.58,457.64 L96.38,446.92 L100.17,436.5 L103.96,426.37 L107.75,416.52 L111.54,406.94 L115.33,397.62 L119.12,388.56 L122.92,379.75 L126.71,371.19 L130.5,362.86 L134.29,354.76 L138.08,346.89 L141.88,339.24 L145.67,331.79 L149.46,324.55 L153.25,317.52 L157.04,310.67 L160.83,304.02 L164.62,297.55 L168.42,291.26 L172.21,285.14 L176,279.19 L179.79,273.41 L183.58,267.78 L187.38,262.31 L191.17,257 L194.96,251.83 L198.75,246.8 L202.54,241.91 L206.33,237.16 L210.12,232.54 L213.92,228.04 L217.71,223.67 L221.5,219.42 L225.29,215.29 L229.08,211.28 L232.88,207.37 L236.67,203.57 L240.46,199.88 L244.25,196.29 L248.04,192.8 L251.83,189.4 L255.62,186.1 L259.42,182.89 L263.21,179.77 L267,176.73 L270.79,173.78 L274.58,170.91 L278.38,168.12 L282.17,165.41 L285.96,162.77 L289.75,160.21 L293.54,157.71 L297.33,155.29 L301.12,152.93 L304.92,150.64 L308.71,148.41 L312.5,146.24 L316.29,144.13 L320.08,142.08 L323.88,140.09 L327.67,138.15 L331.46,136.27 L335.25,134.43 L339.04,132.65 L342.83,130.92 L346.62,129.24 L350.42,127.6 L354.21,126.01 L358,124.46 L361.79,122.95 L365.58,121.49 L369.38,120.06 L373.17,118.68 L376.96,117.33 L380.75,116.03 L384.54,114.75 L388.33,113.52 L392.12,112.31 L395.92,111.14 L399.71,110 L403.5,108.9 L407.29,107.82 L411.08,106.78 L414.87,105.76 L418.67,104.77 L422.46,103.81 L426.25,102.88 L430.04,101.97 L433.83,101.08 L437.62,100.22 L441.42,99.39 L445.21,98.58 L449,97.79 L452.79,97.02 L456.58,96.27 L460.38,95.54 L464.17,94.84 L467.96,94.15 L471.75,93.48 L475.54,92.83 L479.33,92.2 L483.12,91.59 L486.92,90.99 L490.71,90.41 L494.5,89.85 L498.29,89.3 L502.08,88.76 L505.88,88.25 L509.67,87.74 L513.46,87.25 L517.25,86.77 L521.04,86.31 L524.83,85.86 L528.62,85.42 L532.42,84.99 L536.21,84.58 L540,84.18"/><path class="curve" d="M665,480 L668.79,480 L672.58,480 L676.38,480 L680.17,479.99 L683.96,479.98 L687.75,479.96 L691.54,479.92 L695.33,479.86 L699.12,479.76 L702.92,479.62 L706.71,479.44 L710.5,479.19 L714.29,478.88 L718.08,478.48 L721.88,478 L725.67,477.43 L729.46,476.75 L733.25,475.96 L737.04,475.05 L740.83,474.01 L744.62,472.85 L748.42,471.55 L752.21,470.12 L756,468.55 L759.79,466.83 L763.58,464.97 L767.38,462.97 L771.17,460.83 L774.96,458.54 L778.75,456.11 L782.54,453.55 L786.33,450.85 L790.12,448.02 L793.92,445.06 L797.71,441.98 L801.5,438.78 L805.29,435.46 L809.08,432.04 L812.88,428.51 L816.67,424.89 L820.46,421.17 L824.25,417.37 L828.04,413.49 L831.83,409.53 L835.62,405.51 L839.42,401.42 L843.21,397.28 L847,393.09 L850.79,388.85 L854.58,384.57 L858.38,380.26 L862.17,375.93 L865.96,371.57 L869.75,367.19 L873.54,362.79 L877.33,358.39 L881.12,353.99 L884.92,349.59 L888.71,345.19 L892.5,340.8 L896.29,336.43 L900.08,332.07 L903.88,327.73 L907.67,323.41 L911.46,319.12 L915.25,314.86 L919.04,310.64 L922.83,306.44 L926.62,302.29 L930.42,298.17 L934.21,294.1 L938,290.06 L941.79,286.08 L945.58,282.14 L949.38,278.24 L953.17,274.4 L956.96,270.61 L960.75,266.87 L964.54,263.18 L968.33,259.54 L972.12,255.96 L975.92,252.44 L979.71,248.97 L983.5,245.55 L987.29,242.19 L991.08,238.89 L994.88,235.64 L998.67,232.45 L1002.46,229.32 L1006.25,226.24 L1010.04,223.22 L1013.83,220.25 L1017.62,217.35 L1021.42,214.49 L1025.21,211.69 L1029,208.95 L1032.79,206.26 L1036.58,203.63 L1040.38,201.05 L1044.17,198.52 L1047.96,196.04 L1051.75,193.62 L1055.54,191.25 L1059.33,188.92 L1063.12,186.65 L1066.92,184.43 L1070.71,182.25 L1074.5,180.13 L1078.29,178.05 L1082.08,176.02 L1085.88,174.03 L1089.67,172.09 L1093.46,170.19 L1097.25,168.34 L1101.04,166.52 L1104.83,164.76 L1108.62,163.03 L1112.42,161.34 L1116.21,159.69 L1120,158.08"/><path class="curve" d="M85,480 L88.79,468.57 L92.58,457.45 L96.38,446.65 L100.17,436.15 L103.96,425.94 L107.75,416.01 L111.54,406.37 L115.33,396.99 L119.12,387.87 L122.92,379.01 L126.71,370.39 L130.5,362.01 L134.29,353.87 L138.08,345.96 L141.88,338.26 L145.67,330.78 L149.46,323.51 L153.25,316.44 L157.04,309.57 L160.83,302.89 L164.62,296.4 L168.42,290.08 L172.21,283.95 L176,277.98 L179.79,272.18 L183.58,266.54 L187.38,261.06 L191.17,255.74 L194.96,250.56 L198.75,245.52 L202.54,240.63 L206.33,235.87 L210.12,231.25 L213.92,226.75 L217.71,222.38 L221.5,218.13 L225.29,214 L229.08,209.98 L232.88,206.08 L236.67,202.29 L240.46,198.6 L244.25,195.01 L248.04,191.53 L251.83,188.14 L255.62,184.84 L259.42,181.64 L263.21,178.53 L267,175.5 L270.79,172.56 L274.58,169.7 L278.38,166.92 L282.17,164.22 L285.96,161.59 L289.75,159.04 L293.54,156.55 L297.33,154.14 L301.12,151.8 L304.92,149.51 L308.71,147.3 L312.5,145.14 L316.29,143.05 L320.08,141.01 L323.88,139.03 L327.67,137.11 L331.46,135.23 L335.25,133.42 L339.04,131.65 L342.83,129.93 L346.62,128.26 L350.42,126.63 L354.21,125.05 L358,123.52 L361.79,122.03 L365.58,120.58 L369.38,119.17 L373.17,117.79 L376.96,116.46 L380.75,115.17 L384.54,113.91 L388.33,112.68 L392.12,111.49 L395.92,110.34 L399.71,109.21 L403.5,108.12 L407.29,107.05 L411.08,106.02 L414.87,105.02 L418.67,104.04 L422.46,103.09 L426.25,102.17 L430.04,101.27 L433.83,100.4 L437.62,99.55 L441.42,98.73 L445.21,97.93 L449,97.15 L452.79,96.39 L456.58,95.66 L460.38,94.94 L464.17,94.24 L467.96,93.57 L471.75,92.91 L475.54,92.27 L479.33,91.65 L483.12,91.05 L486.92,90.46 L490.71,89.89 L494.5,89.34 L498.29,88.8 L502.08,88.27 L505.88,87.76 L509.67,87.27 L513.46,86.79 L517.25,86.32 L521.04,85.86 L524.83,85.42 L528.62,84.99 L532.42,84.57 L536.21,84.17 L540,83.77"/><path class="curve" d="M665,480 L668.79,480 L672.58,480 L676.38,480 L680.17,480 L683.96,479.99 L687.75,479.97 L691.54,479.94 L695.33,479.89 L699.12,479.82 L702.92,479.71 L706.71,479.56 L710.5,479.36 L714.29,479.1 L718.08,478.78 L721.88,478.37 L725.67,477.89 L729.46,477.31 L733.25,476.63 L737.04,475.84 L740.83,474.94 L744.62,473.93 L748.42,472.79 L752.21,471.52 L756,470.12 L759.79,468.59 L763.58,466.93 L767.38,465.13 L771.17,463.19 L774.96,461.12 L778.75,458.92 L782.54,456.58 L786.33,454.12 L790.12,451.52 L793.92,448.8 L797.71,445.97 L801.5,443.01 L805.29,439.94 L809.08,436.77 L812.88,433.5 L816.67,430.12 L820.46,426.66 L824.25,423.11 L828.04,419.48 L831.83,415.77 L835.62,412 L839.42,408.16 L843.21,404.26 L847,400.31 L850.79,396.31 L854.58,392.28 L858.38,388.2 L862.17,384.1 L865.96,379.97 L869.75,375.82 L873.54,371.65 L877.33,367.47 L881.12,363.29 L884.92,359.1 L888.71,354.92 L892.5,350.74 L896.29,346.57 L900.08,342.42 L903.88,338.28 L907.67,334.16 L911.46,330.06 L915.25,325.99 L919.04,321.95 L922.83,317.95 L926.62,313.97 L930.42,310.03 L934.21,306.13 L938,302.27 L941.79,298.45 L945.58,294.68 L949.38,290.95 L953.17,287.26 L956.96,283.63 L960.75,280.04 L964.54,276.5 L968.33,273.01 L972.12,269.58 L975.92,266.19 L979.71,262.86 L983.5,259.59 L987.29,256.36 L991.08,253.19 L994.88,250.07 L998.67,247.01 L1002.46,244 L1006.25,241.05 L1010.04,238.14 L1013.83,235.3 L1017.62,232.5 L1021.42,229.76 L1025.21,227.08 L1029,224.44 L1032.79,221.86 L1036.58,219.33 L1040.38,216.85 L1044.17,214.43 L1047.96,212.05 L1051.75,209.72 L1055.54,207.44 L1059.33,205.21 L1063.12,203.03 L1066.92,200.9 L1070.71,198.81 L1074.5,196.77 L1078.29,194.78 L1082.08,192.83 L1085.88,190.92 L1089.67,189.06 L1093.46,187.24 L1097.25,185.46 L1101.04,183.73 L1104.83,182.03 L1108.62,180.37 L1112.42,178.76 L1116.21,177.18 L1120,175.64"/><path class="curve" d="M85,480 L88.79,472.76 L92.58,465.64 L96.38,458.65 L100.17,451.79 L103.96,445.04 L107.75,438.42 L111.54,431.91 L115.33,425.51 L119.12,419.23 L122.92,413.06 L126.71,407 L130.5,401.05 L134.29,395.2 L138.08,389.46 L141.88,383.81 L145.67,378.27 L149.46,372.82 L153.25,367.47 L157.04,362.22 L160.83,357.06 L164.62,351.99 L168.42,347 L172.21,342.11 L176,337.3 L179.79,332.58 L183.58,327.94 L187.38,323.39 L191.17,318.91 L194.96,314.51 L198.75,310.19 L202.54,305.95 L206.33,301.78 L210.12,297.69 L213.92,293.66 L217.71,289.71 L221.5,285.83 L225.29,282.02 L229.08,278.27 L232.88,274.59 L236.67,270.98 L240.46,267.43 L244.25,263.94 L248.04,260.52 L251.83,257.15 L255.62,253.84 L259.42,250.6 L263.21,247.41 L267,244.27 L270.79,241.19 L274.58,238.17 L278.38,235.2 L282.17,232.28 L285.96,229.41 L289.75,226.6 L293.54,223.83 L297.33,221.11 L301.12,218.44 L304.92,215.82 L308.71,213.24 L312.5,210.71 L316.29,208.23 L320.08,205.79 L323.88,203.39 L327.67,201.03 L331.46,198.72 L335.25,196.44 L339.04,194.21 L342.83,192.01 L346.62,189.86 L350.42,187.74 L354.21,185.66 L358,183.62 L361.79,181.61 L365.58,179.64 L369.38,177.7 L373.17,175.8 L376.96,173.93 L380.75,172.09 L384.54,170.29 L388.33,168.52 L392.12,166.78 L395.92,165.07 L399.71,163.39 L403.5,161.74 L407.29,160.12 L411.08,158.53 L414.87,156.96 L418.67,155.43 L422.46,153.92 L426.25,152.44 L430.04,150.98 L433.83,149.55 L437.62,148.14 L441.42,146.76 L445.21,145.41 L449,144.07 L452.79,142.77 L456.58,141.48 L460.38,140.22 L464.17,138.98 L467.96,137.76 L471.75,136.56 L475.54,135.39 L479.33,134.23 L483.12,133.1 L486.92,131.98 L490.71,130.89 L494.5,129.81 L498.29,128.75 L502.08,127.72 L505.88,126.7 L509.67,125.7 L513.46,124.71 L517.25,123.74 L521.04,122.8 L524.83,121.86 L528.62,120.95 L532.42,120.05 L536.21,119.16 L540,118.29"/><path class="curve" d="M665,480 L668.79,480 L672.58,480 L676.38,480 L680.17,480 L683.96,479.99 L687.75,479.98 L691.54,479.96 L695.33,479.93 L699.12,479.89 L702.92,479.84 L706.71,479.77 L710.5,479.68 L714.29,479.56 L718.08,479.42 L721.88,479.26 L725.67,479.06 L729.46,478.83 L733.25,478.56 L737.04,478.26 L740.83,477.91 L744.62,477.53 L748.42,477.09 L752.21,476.62 L756,476.09 L759.79,475.52 L763.58,474.89 L767.38,474.22 L771.17,473.49 L774.96,472.71 L778.75,471.87 L782.54,470.98 L786.33,470.04 L790.12,469.04 L793.92,467.98 L797.71,466.87 L801.5,465.7 L805.29,464.48 L809.08,463.21 L812.88,461.88 L816.67,460.5 L820.46,459.07 L824.25,457.58 L828.04,456.05 L831.83,454.46 L835.62,452.83 L839.42,451.15 L843.21,449.42 L847,447.65 L850.79,445.83 L854.58,443.97 L858.38,442.07 L862.17,440.13 L865.96,438.15 L869.75,436.13 L873.54,434.08 L877.33,432 L881.12,429.88 L884.92,427.73 L888.71,425.55 L892.5,423.34 L896.29,421.1 L900.08,418.84 L903.88,416.56 L907.67,414.25 L911.46,411.92 L915.25,409.58 L919.04,407.21 L922.83,404.83 L926.62,402.43 L930.42,400.02 L934.21,397.59 L938,395.16 L941.79,392.71 L945.58,390.26 L949.38,387.79 L953.17,385.33 L956.96,382.85 L960.75,380.38 L964.54,377.89 L968.33,375.41 L972.12,372.93 L975.92,370.45 L979.71,367.97 L983.5,365.49 L987.29,363.01 L991.08,360.54 L994.88,358.07 L998.67,355.61 L1002.46,353.16 L1006.25,350.71 L1010.04,348.28 L1013.83,345.85 L1017.62,343.43 L1021.42,341.02 L1025.21,338.62 L1029,336.24 L1032.79,333.87 L1036.58,331.51 L1040.38,329.16 L1044.17,326.83 L1047.96,324.51 L1051.75,322.21 L1055.54,319.92 L1059.33,317.65 L1063.12,315.39 L1066.92,313.15 L1070.71,310.93 L1074.5,308.73 L1078.29,306.54 L1082.08,304.37 L1085.88,302.22 L1089.67,300.09 L1093.46,297.98 L1097.25,295.88 L1101.04,293.81 L1104.83,291.75 L1108.62,289.72 L1112.42,287.7 L1116.21,285.7 L1120,283.73"/><path class="curve" d="M85,480 L88.79,471.71 L92.58,463.58 L96.38,455.62 L100.17,447.82 L103.96,440.18 L107.75,432.69 L111.54,425.36 L115.33,418.17 L119.12,411.13 L122.92,404.23 L126.71,397.47 L130.5,390.84 L134.29,384.35 L138.08,378 L141.88,371.77 L145.67,365.66 L149.46,359.68 L153.25,353.82 L157.04,348.08 L160.83,342.46 L164.62,336.95 L168.42,331.55 L172.21,326.26 L176,321.07 L179.79,316 L183.58,311.02 L187.38,306.14 L191.17,301.37 L194.96,296.69 L198.75,292.1 L202.54,287.61 L206.33,283.21 L210.12,278.9 L213.92,274.67 L217.71,270.53 L221.5,266.48 L225.29,262.5 L229.08,258.61 L232.88,254.79 L236.67,251.06 L240.46,247.39 L244.25,243.81 L248.04,240.29 L251.83,236.85 L255.62,233.47 L259.42,230.16 L263.21,226.93 L267,223.75 L270.79,220.64 L274.58,217.59 L278.38,214.61 L282.17,211.68 L285.96,208.82 L289.75,206.01 L293.54,203.26 L297.33,200.56 L301.12,197.92 L304.92,195.34 L308.71,192.8 L312.5,190.32 L316.29,187.88 L320.08,185.5 L323.88,183.16 L327.67,180.87 L331.46,178.63 L335.25,176.43 L339.04,174.28 L342.83,172.17 L346.62,170.11 L350.42,168.08 L354.21,166.1 L358,164.15 L361.79,162.25 L365.58,160.38 L369.38,158.56 L373.17,156.76 L376.96,155.01 L380.75,153.29 L384.54,151.6 L388.33,149.95 L392.12,148.34 L395.92,146.75 L399.71,145.2 L403.5,143.68 L407.29,142.19 L411.08,140.73 L414.87,139.3 L418.67,137.9 L422.46,136.52 L426.25,135.18 L430.04,133.86 L433.83,132.57 L437.62,131.3 L441.42,130.06 L445.21,128.85 L449,127.66 L452.79,126.49 L456.58,125.35 L460.38,124.23 L464.17,123.13 L467.96,122.06 L471.75,121 L475.54,119.97 L479.33,118.96 L483.12,117.97 L486.92,117 L490.71,116.05 L494.5,115.12 L498.29,114.21 L502.08,113.31 L505.88,112.44 L509.67,111.58 L513.46,110.74 L517.25,109.91 L521.04,109.11 L524.83,108.31 L528.62,107.54 L532.42,106.78 L536.21,106.04 L540,105.31"/><path class="curve" d="M665,480 L668.79,480 L672.58,480 L676.38,479.98 L680.17,479.96 L683.96,479.91 L687.75,479.83 L691.54,479.72 L695.33,479.57 L699.12,479.37 L702.92,479.12 L706.71,478.81 L710.5,478.44 L714.29,478 L718.08,477.49 L721.88,476.91 L725.67,476.25 L729.46,475.5 L733.25,474.68 L737.04,473.78 L740.83,472.79 L744.62,471.71 L748.42,470.55 L752.21,469.31 L756,467.98 L759.79,466.57 L763.58,465.07 L767.38,463.49 L771.17,461.83 L774.96,460.09 L778.75,458.28 L782.54,456.39 L786.33,454.42 L790.12,452.38 L793.92,450.28 L797.71,448.11 L801.5,445.87 L805.29,443.57 L809.08,441.21 L812.88,438.8 L816.67,436.33 L820.46,433.81 L824.25,431.24 L828.04,428.63 L831.83,425.98 L835.62,423.28 L839.42,420.54 L843.21,417.77 L847,414.97 L850.79,412.14 L854.58,409.28 L858.38,406.4 L862.17,403.49 L865.96,400.56 L869.75,397.62 L873.54,394.66 L877.33,391.68 L881.12,388.7 L884.92,385.7 L888.71,382.7 L892.5,379.69 L896.29,376.68 L900.08,373.67 L903.88,370.66 L907.67,367.65 L911.46,364.65 L915.25,361.65 L919.04,358.65 L922.83,355.67 L926.62,352.69 L930.42,349.73 L934.21,346.78 L938,343.84 L941.79,340.92 L945.58,338.01 L949.38,335.12 L953.17,332.24 L956.96,329.39 L960.75,326.55 L964.54,323.74 L968.33,320.95 L972.12,318.18 L975.92,315.43 L979.71,312.7 L983.5,310 L987.29,307.32 L991.08,304.67 L994.88,302.04 L998.67,299.44 L1002.46,296.87 L1006.25,294.32 L1010.04,291.8 L1013.83,289.3 L1017.62,286.84 L1021.42,284.4 L1025.21,281.99 L1029,279.61 L1032.79,277.25 L1036.58,274.93 L1040.38,272.63 L1044.17,270.36 L1047.96,268.12 L1051.75,265.91 L1055.54,263.73 L1059.33,261.58 L1063.12,259.45 L1066.92,257.36 L1070.71,255.29 L1074.5,253.25 L1078.29,251.24 L1082.08,249.26 L1085.88,247.3 L1089.67,245.38 L1093.46,243.48 L1097.25,241.61 L1101.04,239.76 L1104.83,237.95 L1108.62,236.16 L1112.42,234.4 L1116.21,232.66 L1120,230.96"/><path class="curve" d="M85,480 L88.79,471.55 L92.58,463.28 L96.38,455.18 L100.17,447.25 L103.96,439.48 L107.75,431.86 L111.54,424.41 L115.33,417.11 L119.12,409.96 L122.92,402.96 L126.71,396.1 L130.5,389.38 L134.29,382.8 L138.08,376.36 L141.88,370.05 L145.67,363.87 L149.46,357.81 L153.25,351.88 L157.04,346.08 L160.83,340.39 L164.62,334.82 L168.42,329.36 L172.21,324.02 L176,318.79 L179.79,313.66 L183.58,308.64 L187.38,303.73 L191.17,298.91 L194.96,294.2 L198.75,289.58 L202.54,285.06 L206.33,280.63 L210.12,276.29 L213.92,272.04 L217.71,267.88 L221.5,263.8 L225.29,259.81 L229.08,255.9 L232.88,252.07 L236.67,248.32 L240.46,244.65 L244.25,241.05 L248.04,237.52 L251.83,234.07 L255.62,230.69 L259.42,227.38 L263.21,224.14 L267,220.97 L270.79,217.86 L274.58,214.81 L278.38,211.83 L282.17,208.91 L285.96,206.04 L289.75,203.24 L293.54,200.5 L297.33,197.81 L301.12,195.18 L304.92,192.6 L308.71,190.07 L312.5,187.6 L316.29,185.18 L320.08,182.8 L323.88,180.48 L327.67,178.2 L331.46,175.98 L335.25,173.79 L339.04,171.65 L342.83,169.56 L346.62,167.51 L350.42,165.5 L354.21,163.53 L358,161.61 L361.79,159.72 L365.58,157.87 L369.38,156.06 L373.17,154.29 L376.96,152.55 L380.75,150.85 L384.54,149.19 L388.33,147.55 L392.12,145.96 L395.92,144.39 L399.71,142.86 L403.5,141.36 L407.29,139.89 L411.08,138.45 L414.87,137.04 L418.67,135.66 L422.46,134.31 L426.25,132.98 L430.04,131.68 L433.83,130.41 L437.62,129.17 L441.42,127.95 L445.21,126.76 L449,125.59 L452.79,124.44 L456.58,123.32 L460.38,122.22 L464.17,121.15 L467.96,120.09 L471.75,119.06 L475.54,118.05 L479.33,117.06 L483.12,116.09 L486.92,115.14 L490.71,114.21 L494.5,113.3 L498.29,112.41 L502.08,111.54 L505.88,110.68 L509.67,109.84 L513.46,109.02 L517.25,108.22 L521.04,107.43 L524.83,106.66 L528.62,105.9 L532.42,105.16 L536.21,104.44 L540,103.73"/><path class="curve" d="M665,480 L668.79,479.99 L672.58,479.95 L676.38,479.85 L680.17,479.68 L683.96,479.42 L687.75,479.05 L691.54,478.59 L695.33,478.01 L699.12,477.31 L702.92,476.48 L706.71,475.54 L710.5,474.47 L714.29,473.28 L718.08,471.96 L721.88,470.51 L725.67,468.95 L729.46,467.26 L733.25,465.46 L737.04,463.55 L740.83,461.52 L744.62,459.39 L748.42,457.15 L752.21,454.82 L756,452.39 L759.79,449.87 L763.58,447.26 L767.38,444.57 L771.17,441.81 L774.96,438.96 L778.75,436.05 L782.54,433.08 L786.33,430.04 L790.12,426.94 L793.92,423.8 L797.71,420.6 L801.5,417.36 L805.29,414.08 L809.08,410.76 L812.88,407.4 L816.67,404.02 L820.46,400.61 L824.25,397.17 L828.04,393.72 L831.83,390.25 L835.62,386.76 L839.42,383.26 L843.21,379.76 L847,376.25 L850.79,372.73 L854.58,369.22 L858.38,365.7 L862.17,362.19 L865.96,358.69 L869.75,355.19 L873.54,351.71 L877.33,348.23 L881.12,344.77 L884.92,341.33 L888.71,337.9 L892.5,334.49 L896.29,331.1 L900.08,327.73 L903.88,324.38 L907.67,321.06 L911.46,317.76 L915.25,314.49 L919.04,311.24 L922.83,308.02 L926.62,304.83 L930.42,301.67 L934.21,298.54 L938,295.44 L941.79,292.37 L945.58,289.33 L949.38,286.32 L953.17,283.35 L956.96,280.41 L960.75,277.5 L964.54,274.63 L968.33,271.79 L972.12,268.98 L975.92,266.21 L979.71,263.48 L983.5,260.78 L987.29,258.11 L991.08,255.48 L994.88,252.88 L998.67,250.32 L1002.46,247.79 L1006.25,245.3 L1010.04,242.84 L1013.83,240.42 L1017.62,238.03 L1021.42,235.68 L1025.21,233.36 L1029,231.07 L1032.79,228.82 L1036.58,226.6 L1040.38,224.42 L1044.17,222.26 L1047.96,220.15 L1051.75,218.06 L1055.54,216.01 L1059.33,213.99 L1063.12,212 L1066.92,210.04 L1070.71,208.12 L1074.5,206.23 L1078.29,204.36 L1082.08,202.53 L1085.88,200.73 L1089.67,198.96 L1093.46,197.21 L1097.25,195.5 L1101.04,193.81 L1104.83,192.16 L1108.62,190.53 L1112.42,188.93 L1116.21,187.36 L1120,185.81"/><path class="curve" d="M85,480 L88.79,468.79 L92.58,457.88 L96.38,447.27 L100.17,436.96 L103.96,426.92 L107.75,417.16 L111.54,407.67 L115.33,398.43 L119.12,389.45 L122.92,380.72 L126.71,372.22 L130.5,363.95 L134.29,355.91 L138.08,348.1 L141.88,340.49 L145.67,333.09 L149.46,325.9 L153.25,318.9 L157.04,312.09 L160.83,305.47 L164.62,299.03 L168.42,292.77 L172.21,286.68 L176,280.75 L179.79,274.99 L183.58,269.38 L187.38,263.93 L191.17,258.63 L194.96,253.47 L198.75,248.45 L202.54,243.57 L206.33,238.83 L210.12,234.21 L213.92,229.72 L217.71,225.35 L221.5,221.1 L225.29,216.97 L229.08,212.95 L232.88,209.04 L236.67,205.24 L240.46,201.54 L244.25,197.94 L248.04,194.44 L251.83,191.04 L255.62,187.73 L259.42,184.51 L263.21,181.38 L267,178.33 L270.79,175.37 L274.58,172.49 L278.38,169.69 L282.17,166.96 L285.96,164.31 L289.75,161.73 L293.54,159.22 L297.33,156.78 L301.12,154.41 L304.92,152.1 L308.71,149.85 L312.5,147.67 L316.29,145.55 L320.08,143.48 L323.88,141.47 L327.67,139.52 L331.46,137.62 L335.25,135.77 L339.04,133.97 L342.83,132.22 L346.62,130.52 L350.42,128.86 L354.21,127.25 L358,125.69 L361.79,124.16 L365.58,122.68 L369.38,121.24 L373.17,119.84 L376.96,118.48 L380.75,117.15 L384.54,115.86 L388.33,114.61 L392.12,113.39 L395.92,112.2 L399.71,111.05 L403.5,109.93 L407.29,108.83 L411.08,107.77 L414.87,106.74 L418.67,105.73 L422.46,104.76 L426.25,103.81 L430.04,102.88 L433.83,101.98 L437.62,101.11 L441.42,100.26 L445.21,99.43 L449,98.62 L452.79,97.84 L456.58,97.08 L460.38,96.34 L464.17,95.62 L467.96,94.92 L471.75,94.24 L475.54,93.57 L479.33,92.93 L483.12,92.3 L486.92,91.69 L490.71,91.1 L494.5,90.52 L498.29,89.96 L502.08,89.42 L505.88,88.88 L509.67,88.37 L513.46,87.87 L517.25,87.38 L521.04,86.9 L524.83,86.44 L528.62,85.99 L532.42,85.55 L536.21,85.13 L540,84.71"/><path class="curve" d="M665,480 L668.79,480 L672.58,480 L676.38,479.99 L680.17,479.98 L683.96,479.95 L687.75,479.91 L691.54,479.83 L695.33,479.71 L699.12,479.54 L702.92,479.32 L706.71,479.03 L710.5,478.66 L714.29,478.22 L718.08,477.68 L721.88,477.05 L725.67,476.31 L729.46,475.47 L733.25,474.51 L737.04,473.44 L740.83,472.25 L744.62,470.94 L748.42,469.51 L752.21,467.96 L756,466.28 L759.79,464.49 L763.58,462.58 L767.38,460.55 L771.17,458.41 L774.96,456.15 L778.75,453.79 L782.54,451.33 L786.33,448.76 L790.12,446.1 L793.92,443.35 L797.71,440.52 L801.5,437.6 L805.29,434.6 L809.08,431.54 L812.88,428.41 L816.67,425.21 L820.46,421.96 L824.25,418.66 L828.04,415.31 L831.83,411.93 L835.62,408.5 L839.42,405.05 L843.21,401.56 L847,398.06 L850.79,394.53 L854.58,390.99 L858.38,387.44 L862.17,383.89 L865.96,380.33 L869.75,376.77 L873.54,373.22 L877.33,369.68 L881.12,366.14 L884.92,362.62 L888.71,359.12 L892.5,355.64 L896.29,352.18 L900.08,348.74 L903.88,345.33 L907.67,341.95 L911.46,338.59 L915.25,335.27 L919.04,331.99 L922.83,328.73 L926.62,325.52 L930.42,322.34 L934.21,319.2 L938,316.11 L941.79,313.05 L945.58,310.03 L949.38,307.06 L953.17,304.13 L956.96,301.24 L960.75,298.4 L964.54,295.6 L968.33,292.85 L972.12,290.14 L975.92,287.48 L979.71,284.87 L983.5,282.29 L987.29,279.77 L991.08,277.29 L994.88,274.85 L998.67,272.46 L1002.46,270.12 L1006.25,267.82 L1010.04,265.56 L1013.83,263.35 L1017.62,261.18 L1021.42,259.06 L1025.21,256.97 L1029,254.93 L1032.79,252.94 L1036.58,250.98 L1040.38,249.07 L1044.17,247.19 L1047.96,245.36 L1051.75,243.56 L1055.54,241.81 L1059.33,240.09 L1063.12,238.41 L1066.92,236.77 L1070.71,235.16 L1074.5,233.59 L1078.29,232.06 L1082.08,230.56 L1085.88,229.1 L1089.67,227.67 L1093.46,226.27 L1097.25,224.9 L1101.04,223.57 L1104.83,222.27 L1108.62,221 L1112.42,219.76 L1116.21,218.54 L1120,217.36"/><path class="curve" d="M85,480 L88.79,471.9 L92.58,463.97 L96.38,456.19 L100.17,448.56 L103.96,441.08 L107.75,433.75 L111.54,426.57 L115.33,419.53 L119.12,412.63 L122.92,405.86 L126.71,399.23 L130.5,392.72 L134.29,386.35 L138.08,380.1 L141.88,373.98 L145.67,367.98 L149.46,362.09 L153.25,356.32 L157.04,350.67 L160.83,345.12 L164.62,339.69 L168.42,334.37 L172.21,329.14 L176,324.03 L179.79,319.01 L183.58,314.09 L187.38,309.27 L191.17,304.55 L194.96,299.91 L198.75,295.37 L202.54,290.92 L206.33,286.56 L210.12,282.28 L213.92,278.09 L217.71,273.98 L221.5,269.95 L225.29,266 L229.08,262.13 L232.88,258.34 L236.67,254.62 L240.46,250.97 L244.25,247.4 L248.04,243.9 L251.83,240.46 L255.62,237.09 L259.42,233.79 L263.21,230.56 L267,227.39 L270.79,224.28 L274.58,221.23 L278.38,218.25 L282.17,215.32 L285.96,212.45 L289.75,209.64 L293.54,206.88 L297.33,204.18 L301.12,201.53 L304.92,198.93 L308.71,196.38 L312.5,193.89 L316.29,191.44 L320.08,189.04 L323.88,186.69 L327.67,184.39 L331.46,182.13 L335.25,179.91 L339.04,177.74 L342.83,175.61 L346.62,173.53 L350.42,171.48 L354.21,169.48 L358,167.51 L361.79,165.59 L365.58,163.7 L369.38,161.85 L373.17,160.04 L376.96,158.26 L380.75,156.52 L384.54,154.81 L388.33,153.13 L392.12,151.49 L395.92,149.88 L399.71,148.3 L403.5,146.76 L407.29,145.24 L411.08,143.76 L414.87,142.3 L418.67,140.87 L422.46,139.47 L426.25,138.1 L430.04,136.75 L433.83,135.44 L437.62,134.14 L441.42,132.88 L445.21,131.64 L449,130.42 L452.79,129.22 L456.58,128.06 L460.38,126.91 L464.17,125.78 L467.96,124.68 L471.75,123.6 L475.54,122.54 L479.33,121.51 L483.12,120.49 L486.92,119.49 L490.71,118.51 L494.5,117.56 L498.29,116.62 L502.08,115.7 L505.88,114.79 L509.67,113.91 L513.46,113.04 L517.25,112.19 L521.04,111.36 L524.83,110.54 L528.62,109.74 L532.42,108.96 L536.21,108.19 L540,107.43"/><path class="curve" d="M665,480 L668.79,480 L672.58,480 L676.38,480 L680.17,480 L683.96,480 L687.75,480 L691.54,480 L695.33,480 L699.12,480 L702.92,480 L706.71,480 L710.5,479.99 L714.29,479.99 L718.08,479.99 L721.88,479.98 L725.67,479.97 L729.46,479.95 L733.25,479.94 L737.04,479.91 L740.83,479.88 L744.62,479.84 L748.42,479.79 L752.21,479.74 L756,479.66 L759.79,479.58 L763.58,479.48 L767.38,479.36 L771.17,479.23 L774.96,479.07 L778.75,478.89 L782.54,478.68 L786.33,478.45 L790.12,478.19 L793.92,477.9 L797.71,477.58 L801.5,477.22 L805.29,476.83 L809.08,476.4 L812.88,475.93 L816.67,475.42 L820.46,474.87 L824.25,474.27 L828.04,473.63 L831.83,472.94 L835.62,472.21 L839.42,471.42 L843.21,470.59 L847,469.71 L850.79,468.77 L854.58,467.79 L858.38,466.75 L862.17,465.66 L865.96,464.52 L869.75,463.33 L873.54,462.08 L877.33,460.79 L881.12,459.44 L884.92,458.04 L888.71,456.58 L892.5,455.08 L896.29,453.53 L900.08,451.92 L903.88,450.27 L907.67,448.57 L911.46,446.83 L915.25,445.04 L919.04,443.2 L922.83,441.32 L926.62,439.4 L930.42,437.44 L934.21,435.44 L938,433.39 L941.79,431.32 L945.58,429.2 L949.38,427.05 L953.17,424.87 L956.96,422.66 L960.75,420.42 L964.54,418.15 L968.33,415.85 L972.12,413.53 L975.92,411.18 L979.71,408.81 L983.5,406.42 L987.29,404.01 L991.08,401.58 L994.88,399.14 L998.67,396.68 L1002.46,394.21 L1006.25,391.72 L1010.04,389.23 L1013.83,386.72 L1017.62,384.21 L1021.42,381.69 L1025.21,379.17 L1029,376.64 L1032.79,374.11 L1036.58,371.57 L1040.38,369.04 L1044.17,366.51 L1047.96,363.98 L1051.75,361.45 L1055.54,358.93 L1059.33,356.41 L1063.12,353.9 L1066.92,351.39 L1070.71,348.9 L1074.5,346.41 L1078.29,343.93 L1082.08,341.46 L1085.88,339.01 L1089.67,336.57 L1093.46,334.14 L1097.25,331.72 L1101.04,329.32 L1104.83,326.93 L1108.62,324.56 L1112.42,322.21 L1116.21,319.87 L1120,317.55"/><path class="curve" d="M85,480 L88.79,467.44 L92.58,455.26 L96.38,443.45 L100.17,432.01 L103.96,420.92 L107.75,410.17 L111.54,399.74 L115.33,389.64 L119.12,379.85 L122.92,370.35 L126.71,361.15 L130.5,352.23 L134.29,343.58 L138.08,335.2 L141.88,327.07 L145.67,319.2 L149.46,311.56 L153.25,304.16 L157.04,296.98 L160.83,290.03 L164.62,283.29 L168.42,276.75 L172.21,270.42 L176,264.28 L179.79,258.32 L183.58,252.55 L187.38,246.96 L191.17,241.54 L194.96,236.28 L198.75,231.19 L202.54,226.25 L206.33,221.46 L210.12,216.82 L213.92,212.32 L217.71,207.96 L221.5,203.73 L225.29,199.63 L229.08,195.66 L232.88,191.81 L236.67,188.08 L240.46,184.46 L244.25,180.95 L248.04,177.55 L251.83,174.26 L255.62,171.06 L259.42,167.97 L263.21,164.97 L267,162.06 L270.79,159.24 L274.58,156.5 L278.38,153.85 L282.17,151.28 L285.96,148.79 L289.75,146.38 L293.54,144.04 L297.33,141.77 L301.12,139.57 L304.92,137.44 L308.71,135.37 L312.5,133.37 L316.29,131.43 L320.08,129.54 L323.88,127.72 L327.67,125.95 L331.46,124.24 L335.25,122.58 L339.04,120.96 L342.83,119.4 L346.62,117.89 L350.42,116.42 L354.21,115 L358,113.62 L361.79,112.28 L365.58,110.99 L369.38,109.73 L373.17,108.51 L376.96,107.33 L380.75,106.19 L384.54,105.08 L388.33,104.01 L392.12,102.96 L395.92,101.95 L399.71,100.98 L403.5,100.03 L407.29,99.11 L411.08,98.21 L414.87,97.35 L418.67,96.51 L422.46,95.7 L426.25,94.91 L430.04,94.15 L433.83,93.41 L437.62,92.69 L441.42,92 L445.21,91.32 L449,90.67 L452.79,90.04 L456.58,89.42 L460.38,88.83 L464.17,88.25 L467.96,87.69 L471.75,87.15 L475.54,86.62 L479.33,86.11 L483.12,85.62 L486.92,85.14 L490.71,84.68 L494.5,84.23 L498.29,83.79 L502.08,83.37 L505.88,82.96 L509.67,82.56 L513.46,82.18 L517.25,81.8 L521.04,81.44 L524.83,81.09 L528.62,80.75 L532.42,80.42 L536.21,80.1 L540,79.79"/><path class="curve" d="M665,480 L668.79,479.99 L672.58,479.94 L676.38,479.8 L680.17,479.55 L683.96,479.16 L687.75,478.61 L691.54,477.88 L695.33,476.96 L699.12,475.85 L702.92,474.54 L706.71,473.03 L710.5,471.32 L714.29,469.42 L718.08,467.33 L721.88,465.05 L725.67,462.59 L729.46,459.97 L733.25,457.19 L737.04,454.25 L740.83,451.18 L744.62,447.97 L748.42,444.64 L752.21,441.19 L756,437.65 L759.79,434.01 L763.58,430.29 L767.38,426.5 L771.17,422.65 L774.96,418.73 L778.75,414.78 L782.54,410.78 L786.33,406.75 L790.12,402.7 L793.92,398.63 L797.71,394.55 L801.5,390.47 L805.29,386.39 L809.08,382.32 L812.88,378.26 L816.67,374.22 L820.46,370.2 L824.25,366.21 L828.04,362.25 L831.83,358.32 L835.62,354.44 L839.42,350.59 L843.21,346.78 L847,343.03 L850.79,339.31 L854.58,335.65 L858.38,332.04 L862.17,328.49 L865.96,324.99 L869.75,321.54 L873.54,318.16 L877.33,314.83 L881.12,311.55 L884.92,308.34 L888.71,305.19 L892.5,302.1 L896.29,299.06 L900.08,296.09 L903.88,293.18 L907.67,290.32 L911.46,287.53 L915.25,284.8 L919.04,282.12 L922.83,279.51 L926.62,276.95 L930.42,274.45 L934.21,272.01 L938,269.62 L941.79,267.29 L945.58,265.01 L949.38,262.79 L953.17,260.62 L956.96,258.5 L960.75,256.44 L964.54,254.43 L968.33,252.46 L972.12,250.55 L975.92,248.69 L979.71,246.87 L983.5,245.1 L987.29,243.37 L991.08,241.69 L994.88,240.05 L998.67,238.46 L1002.46,236.91 L1006.25,235.4 L1010.04,233.93 L1013.83,232.5 L1017.62,231.1 L1021.42,229.75 L1025.21,228.43 L1029,227.15 L1032.79,225.9 L1036.58,224.69 L1040.38,223.51 L1044.17,222.36 L1047.96,221.25 L1051.75,220.17 L1055.54,219.11 L1059.33,218.09 L1063.12,217.09 L1066.92,216.13 L1070.71,215.19 L1074.5,214.28 L1078.29,213.39 L1082.08,212.53 L1085.88,211.69 L1089.67,210.88 L1093.46,210.09 L1097.25,209.32 L1101.04,208.58 L1104.83,207.85 L1108.62,207.15 L1112.42,206.47 L1116.21,205.81 L1120,205.16"/><path class="curve" d="M85,480 L88.79,468.3 L92.58,456.94 L96.38,445.9 L100.17,435.17 L103.96,424.75 L107.75,414.63 L111.54,404.79 L115.33,395.24 L119.12,385.96 L122.92,376.94 L126.71,368.19 L130.5,359.68 L134.29,351.41 L138.08,343.38 L141.88,335.58 L145.67,328 L149.46,320.64 L153.25,313.49 L157.04,306.54 L160.83,299.79 L164.62,293.24 L168.42,286.87 L172.21,280.68 L176,274.67 L179.79,268.83 L183.58,263.15 L187.38,257.64 L191.17,252.29 L194.96,247.09 L198.75,242.03 L202.54,237.12 L206.33,232.36 L210.12,227.72 L213.92,223.22 L217.71,218.85 L221.5,214.6 L225.29,210.48 L229.08,206.47 L232.88,202.57 L236.67,198.79 L240.46,195.12 L244.25,191.55 L248.04,188.08 L251.83,184.71 L255.62,181.44 L259.42,178.26 L263.21,175.17 L267,172.17 L270.79,169.25 L274.58,166.42 L278.38,163.67 L282.17,161 L285.96,158.4 L289.75,155.88 L293.54,153.43 L297.33,151.05 L301.12,148.73 L304.92,146.49 L308.71,144.3 L312.5,142.18 L316.29,140.12 L320.08,138.12 L323.88,136.18 L327.67,134.29 L331.46,132.46 L335.25,130.67 L339.04,128.94 L342.83,127.26 L346.62,125.63 L350.42,124.04 L354.21,122.5 L358,121 L361.79,119.54 L365.58,118.13 L369.38,116.76 L373.17,115.42 L376.96,114.13 L380.75,112.87 L384.54,111.65 L388.33,110.46 L392.12,109.3 L395.92,108.18 L399.71,107.09 L403.5,106.03 L407.29,105 L411.08,104.01 L414.87,103.04 L418.67,102.09 L422.46,101.18 L426.25,100.29 L430.04,99.42 L433.83,98.58 L437.62,97.77 L441.42,96.98 L445.21,96.21 L449,95.46 L452.79,94.73 L456.58,94.03 L460.38,93.34 L464.17,92.67 L467.96,92.03 L471.75,91.4 L475.54,90.79 L479.33,90.2 L483.12,89.62 L486.92,89.06 L490.71,88.52 L494.5,87.99 L498.29,87.47 L502.08,86.98 L505.88,86.49 L509.67,86.02 L513.46,85.56 L517.25,85.12 L521.04,84.69 L524.83,84.27 L528.62,83.86 L532.42,83.47 L536.21,83.08 L540,82.71"/><path class="curve" d="M665,480 L668.79,480 L672.58,480 L676.38,480 L680.17,479.99 L683.96,479.98 L687.75,479.95 L691.54,479.91 L695.33,479.84 L699.12,479.73 L702.92,479.58 L706.71,479.38 L710.5,479.11 L714.29,478.77 L718.08,478.35 L721.88,477.84 L725.67,477.22 L729.46,476.5 L733.25,475.67 L737.04,474.71 L740.83,473.63 L744.62,472.42 L748.42,471.07 L752.21,469.59 L756,467.96 L759.79,466.2 L763.58,464.29 L767.38,462.24 L771.17,460.06 L774.96,457.74 L778.75,455.28 L782.54,452.69 L786.33,449.97 L790.12,447.13 L793.92,444.17 L797.71,441.1 L801.5,437.91 L805.29,434.62 L809.08,431.23 L812.88,427.75 L816.67,424.18 L820.46,420.53 L824.25,416.81 L828.04,413.01 L831.83,409.16 L835.62,405.24 L839.42,401.28 L843.21,397.27 L847,393.22 L850.79,389.13 L854.58,385.02 L858.38,380.89 L862.17,376.73 L865.96,372.57 L869.75,368.4 L873.54,364.22 L877.33,360.04 L881.12,355.87 L884.92,351.71 L888.71,347.56 L892.5,343.43 L896.29,339.32 L900.08,335.24 L903.88,331.18 L907.67,327.15 L911.46,323.15 L915.25,319.19 L919.04,315.26 L922.83,311.37 L926.62,307.53 L930.42,303.73 L934.21,299.97 L938,296.26 L941.79,292.6 L945.58,288.99 L949.38,285.42 L953.17,281.91 L956.96,278.45 L960.75,275.05 L964.54,271.7 L968.33,268.4 L972.12,265.15 L975.92,261.96 L979.71,258.83 L983.5,255.75 L987.29,252.73 L991.08,249.76 L994.88,246.84 L998.67,243.99 L1002.46,241.18 L1006.25,238.44 L1010.04,235.74 L1013.83,233.1 L1017.62,230.52 L1021.42,227.98 L1025.21,225.5 L1029,223.07 L1032.79,220.7 L1036.58,218.37 L1040.38,216.1 L1044.17,213.87 L1047.96,211.7 L1051.75,209.57 L1055.54,207.49 L1059.33,205.46 L1063.12,203.47 L1066.92,201.53 L1070.71,199.64 L1074.5,197.79 L1078.29,195.98 L1082.08,194.22 L1085.88,192.49 L1089.67,190.81 L1093.46,189.17 L1097.25,187.57 L1101.04,186.01 L1104.83,184.49 L1108.62,183 L1112.42,181.55 L1116.21,180.14 L1120,178.76"/><path class="curve" d="M85,480 L88.79,467.78 L92.58,455.93 L96.38,444.43 L100.17,433.27 L103.96,422.44 L107.75,411.94 L111.54,401.75 L115.33,391.87 L119.12,382.27 L122.92,372.97 L126.71,363.94 L130.5,355.18 L134.29,346.68 L138.08,338.44 L141.88,330.44 L145.67,322.68 L149.46,315.15 L153.25,307.84 L157.04,300.75 L160.83,293.88 L164.62,287.21 L168.42,280.73 L172.21,274.45 L176,268.36 L179.79,262.45 L183.58,256.71 L187.38,251.15 L191.17,245.75 L194.96,240.52 L198.75,235.43 L202.54,230.5 L206.33,225.72 L210.12,221.08 L213.92,216.58 L217.71,212.21 L221.5,207.97 L225.29,203.86 L229.08,199.87 L232.88,196 L236.67,192.25 L240.46,188.6 L244.25,185.07 L248.04,181.64 L251.83,178.31 L255.62,175.09 L259.42,171.95 L263.21,168.92 L267,165.97 L270.79,163.11 L274.58,160.33 L278.38,157.64 L282.17,155.03 L285.96,152.5 L289.75,150.04 L293.54,147.65 L297.33,145.34 L301.12,143.09 L304.92,140.92 L308.71,138.8 L312.5,136.75 L316.29,134.76 L320.08,132.83 L323.88,130.96 L327.67,129.14 L331.46,127.38 L335.25,125.67 L339.04,124.01 L342.83,122.4 L346.62,120.84 L350.42,119.33 L354.21,117.86 L358,116.43 L361.79,115.05 L365.58,113.7 L369.38,112.4 L373.17,111.14 L376.96,109.91 L380.75,108.72 L384.54,107.57 L388.33,106.45 L392.12,105.36 L395.92,104.31 L399.71,103.29 L403.5,102.3 L407.29,101.33 L411.08,100.4 L414.87,99.49 L418.67,98.61 L422.46,97.76 L426.25,96.93 L430.04,96.13 L433.83,95.35 L437.62,94.6 L441.42,93.86 L445.21,93.15 L449,92.46 L452.79,91.79 L456.58,91.14 L460.38,90.51 L464.17,89.9 L467.96,89.31 L471.75,88.73 L475.54,88.18 L479.33,87.63 L483.12,87.11 L486.92,86.6 L490.71,86.1 L494.5,85.62 L498.29,85.16 L502.08,84.71 L505.88,84.27 L509.67,83.84 L513.46,83.43 L517.25,83.03 L521.04,82.64 L524.83,82.27 L528.62,81.9 L532.42,81.55 L536.21,81.2 L540,80.87"/><path class="curve" d="M665,480 L668.79,480 L672.58,480 L676.38,480 L680.17,479.99 L683.96,479.97 L687.75,479.94 L691.54,479.88 L695.33,479.79 L699.12,479.65 L702.92,479.45 L706.71,479.19 L710.5,478.86 L714.29,478.43 L718.08,477.9 L721.88,477.27 L725.67,476.52 L729.46,475.64 L733.25,474.63 L737.04,473.48 L740.83,472.19 L744.62,470.75 L748.42,469.16 L752.21,467.42 L756,465.52 L759.79,463.47 L763.58,461.27 L767.38,458.92 L771.17,456.42 L774.96,453.77 L778.75,450.99 L782.54,448.06 L786.33,445.01 L790.12,441.84 L793.92,438.54 L797.71,435.13 L801.5,431.61 L805.29,427.99 L809.08,424.28 L812.88,420.48 L816.67,416.6 L820.46,412.65 L824.25,408.63 L828.04,404.55 L831.83,400.42 L835.62,396.25 L839.42,392.03 L843.21,387.78 L847,383.5 L850.79,379.2 L854.58,374.89 L858.38,370.57 L862.17,366.24 L865.96,361.91 L869.75,357.59 L873.54,353.28 L877.33,348.98 L881.12,344.7 L884.92,340.44 L888.71,336.21 L892.5,332.01 L896.29,327.84 L900.08,323.71 L903.88,319.62 L907.67,315.57 L911.46,311.56 L915.25,307.6 L919.04,303.68 L922.83,299.82 L926.62,296 L930.42,292.24 L934.21,288.53 L938,284.88 L941.79,281.29 L945.58,277.75 L949.38,274.27 L953.17,270.85 L956.96,267.48 L960.75,264.18 L964.54,260.94 L968.33,257.75 L972.12,254.63 L975.92,251.57 L979.71,248.56 L983.5,245.62 L987.29,242.74 L991.08,239.91 L994.88,237.14 L998.67,234.43 L1002.46,231.78 L1006.25,229.19 L1010.04,226.66 L1013.83,224.18 L1017.62,221.75 L1021.42,219.38 L1025.21,217.07 L1029,214.8 L1032.79,212.6 L1036.58,210.44 L1040.38,208.33 L1044.17,206.28 L1047.96,204.27 L1051.75,202.31 L1055.54,200.4 L1059.33,198.54 L1063.12,196.72 L1066.92,194.95 L1070.71,193.23 L1074.5,191.54 L1078.29,189.9 L1082.08,188.3 L1085.88,186.74 L1089.67,185.23 L1093.46,183.75 L1097.25,182.31 L1101.04,180.91 L1104.83,179.54 L1108.62,178.21 L1112.42,176.92 L1116.21,175.66 L1120,174.43"/><line x1="85" y1="480" x2="85" y2="486" stroke="#3c403b"/><text class="axis" x="85" y="507" text-anchor="middle">0</text><line x1="160.83" y1="480" x2="160.83" y2="486" stroke="#3c403b"/><text class="axis" x="160.83" y="507" text-anchor="middle">4</text><line x1="236.67" y1="480" x2="236.67" y2="486" stroke="#3c403b"/><text class="axis" x="236.67" y="507" text-anchor="middle">8</text><line x1="312.5" y1="480" x2="312.5" y2="486" stroke="#3c403b"/><text class="axis" x="312.5" y="507" text-anchor="middle">12</text><line x1="388.33" y1="480" x2="388.33" y2="486" stroke="#3c403b"/><text class="axis" x="388.33" y="507" text-anchor="middle">16</text><line x1="464.17" y1="480" x2="464.17" y2="486" stroke="#3c403b"/><text class="axis" x="464.17" y="507" text-anchor="middle">20</text><line x1="540" y1="480" x2="540" y2="486" stroke="#3c403b"/><text class="axis" x="540" y="507" text-anchor="middle">24</text><text class="label" x="312.5" y="573" text-anchor="middle">年龄</text><line x1="665" y1="480" x2="665" y2="486" stroke="#3c403b"/><text class="axis" x="665" y="507" text-anchor="middle">0</text><line x1="740.83" y1="480" x2="740.83" y2="486" stroke="#3c403b"/><text class="axis" x="740.83" y="507" text-anchor="middle">4</text><line x1="816.67" y1="480" x2="816.67" y2="486" stroke="#3c403b"/><text class="axis" x="816.67" y="507" text-anchor="middle">8</text><line x1="892.5" y1="480" x2="892.5" y2="486" stroke="#3c403b"/><text class="axis" x="892.5" y="507" text-anchor="middle">12</text><line x1="968.33" y1="480" x2="968.33" y2="486" stroke="#3c403b"/><text class="axis" x="968.33" y="507" text-anchor="middle">16</text><line x1="1044.17" y1="480" x2="1044.17" y2="486" stroke="#3c403b"/><text class="axis" x="1044.17" y="507" text-anchor="middle">20</text><line x1="1120" y1="480" x2="1120" y2="486" stroke="#3c403b"/><text class="axis" x="1120" y="507" text-anchor="middle">24</text><text class="label" x="892.5" y="573" text-anchor="middle">年龄</text><text class="axis" x="73" y="485" text-anchor="end">0.0</text><text class="axis" x="73" y="403" text-anchor="end">0.2</text><text class="axis" x="73" y="321" text-anchor="end">0.4</text><text class="axis" x="73" y="239" text-anchor="end">0.6</text><text class="axis" x="73" y="157" text-anchor="end">0.8</text><text class="axis" x="73" y="75" text-anchor="end">1.0</text><text class="axis" x="653" y="485" text-anchor="end">0.0</text><text class="axis" x="653" y="416.67" text-anchor="end">0.2</text><text class="axis" x="653" y="348.33" text-anchor="end">0.4</text><text class="axis" x="653" y="280" text-anchor="end">0.6</text><text class="axis" x="653" y="211.67" text-anchor="end">0.8</text><text class="axis" x="653" y="143.33" text-anchor="end">1.0</text><text class="axis" x="653" y="75" text-anchor="end">1.2</text><text class="label" x="28" y="275.0" text-anchor="middle" transform="rotate(-90 28 275.0)">相对体重</text><text class="label" x="608" y="275.0" text-anchor="middle" transform="rotate(-90 608 275.0)">每秒坚果数</text></svg>