<svg xmlns="http://www.w3.org/2000/svg" width="920" height="650" viewBox="0 0 920 650">
<title>图 14.8：二元组赠礼分布</title>
<desc>三百个住户二元组两个方向的赠礼计数散点。大多数点聚集在原点附近，少量二元组有很高计数，整体相关约为零点二四。</desc>
<rect width="920" height="650" fill="#fff"/>
<rect x="105.0" y="65.0" width="745.0" height="470.0" fill="#fff" stroke="#30332e" stroke-width="1.5"/>
<line x1="105.0" y1="535.0" x2="850.0" y2="65.0" stroke="#30332e" stroke-width="2" stroke-dasharray="10 8"/>
<line x1="105.0" y1="535.0" x2="105.0" y2="542.0" stroke="#30332e"/>
<text x="105.0" y="565.0" text-anchor="middle" font-family="-apple-system,BlinkMacSystemFont,PingFang SC,Noto Sans CJK SC,sans-serif" font-size="17" font-weight="400" fill="#30332e">0</text>
<line x1="98.0" y1="535.0" x2="105.0" y2="535.0" stroke="#30332e"/>
<text x="90.0" y="541.0" text-anchor="end" font-family="-apple-system,BlinkMacSystemFont,PingFang SC,Noto Sans CJK SC,sans-serif" font-size="17" font-weight="400" fill="#30332e">0</text>
<line x1="240.5" y1="535.0" x2="240.5" y2="542.0" stroke="#30332e"/>
<text x="240.5" y="565.0" text-anchor="middle" font-family="-apple-system,BlinkMacSystemFont,PingFang SC,Noto Sans CJK SC,sans-serif" font-size="17" font-weight="400" fill="#30332e">20</text>
<line x1="98.0" y1="449.5" x2="105.0" y2="449.5" stroke="#30332e"/>
<text x="90.0" y="455.5" text-anchor="end" font-family="-apple-system,BlinkMacSystemFont,PingFang SC,Noto Sans CJK SC,sans-serif" font-size="17" font-weight="400" fill="#30332e">20</text>
<line x1="375.9" y1="535.0" x2="375.9" y2="542.0" stroke="#30332e"/>
<text x="375.9" y="565.0" text-anchor="middle" font-family="-apple-system,BlinkMacSystemFont,PingFang SC,Noto Sans CJK SC,sans-serif" font-size="17" font-weight="400" fill="#30332e">40</text>
<line x1="98.0" y1="364.1" x2="105.0" y2="364.1" stroke="#30332e"/>
<text x="90.0" y="370.1" text-anchor="end" font-family="-apple-system,BlinkMacSystemFont,PingFang SC,Noto Sans CJK SC,sans-serif" font-size="17" font-weight="400" fill="#30332e">40</text>
<line x1="511.4" y1="535.0" x2="511.4" y2="542.0" stroke="#30332e"/>
<text x="511.4" y="565.0" text-anchor="middle" font-family="-apple-system,BlinkMacSystemFont,PingFang SC,Noto Sans CJK SC,sans-serif" font-size="17" font-weight="400" fill="#30332e">60</text>
<line x1="98.0" y1="278.6" x2="105.0" y2="278.6" stroke="#30332e"/>
<text x="90.0" y="284.6" text-anchor="end" font-family="-apple-system,BlinkMacSystemFont,PingFang SC,Noto Sans CJK SC,sans-serif" font-size="17" font-weight="400" fill="#30332e">60</text>
<line x1="646.8" y1="535.0" x2="646.8" y2="542.0" stroke="#30332e"/>
<text x="646.8" y="565.0" text-anchor="middle" font-family="-apple-system,BlinkMacSystemFont,PingFang SC,Noto Sans CJK SC,sans-serif" font-size="17" font-weight="400" fill="#30332e">80</text>
<line x1="98.0" y1="193.2" x2="105.0" y2="193.2" stroke="#30332e"/>
<text x="90.0" y="199.2" text-anchor="end" font-family="-apple-system,BlinkMacSystemFont,PingFang SC,Noto Sans CJK SC,sans-serif" font-size="17" font-weight="400" fill="#30332e">80</text>
<line x1="782.3" y1="535.0" x2="782.3" y2="542.0" stroke="#30332e"/>
<text x="782.3" y="565.0" text-anchor="middle" font-family="-apple-system,BlinkMacSystemFont,PingFang SC,Noto Sans CJK SC,sans-serif" font-size="17" font-weight="400" fill="#30332e">100</text>
<line x1="98.0" y1="107.7" x2="105.0" y2="107.7" stroke="#30332e"/>
<text x="90.0" y="113.7" text-anchor="end" font-family="-apple-system,BlinkMacSystemFont,PingFang SC,Noto Sans CJK SC,sans-serif" font-size="17" font-weight="400" fill="#30332e">100</text>
<circle cx="121.0" cy="517.6" r="4.2" fill="#6670ee" opacity="0.72"/>
<circle cx="147.3" cy="514.7" r="4.2" fill="#6670ee" opacity="0.72"/>
<circle cx="118.0" cy="501.2" r="4.2" fill="#6670ee" opacity="0.72"/>
<circle cx="170.3" cy="503.3" r="4.2" fill="#6670ee" opacity="0.72"/>
<circle cx="145.3" cy="489.5" r="4.2" fill="#6670ee" opacity="0.72"/>
<circle cx="163.4" cy="492.5" r="4.2" fill="#6670ee" opacity="0.72"/>
<circle cx="210.7" cy="498.4" r="4.2" fill="#6670ee" opacity="0.72"/>
<circle cx="157.2" cy="503.0" r="4.2" fill="#6670ee" opacity="0.72"/>
<circle cx="281.9" cy="508.2" r="4.2" fill="#6670ee" opacity="0.72"/>
<circle cx="208.6" cy="506.5" r="4.2" fill="#6670ee" opacity="0.72"/>
<circle cx="119.6" cy="516.0" r="4.2" fill="#6670ee" opacity="0.72"/>
<circle cx="128.0" cy="480.3" r="4.2" fill="#6670ee" opacity="0.72"/>
<circle cx="150.4" cy="503.7" r="4.2" fill="#6670ee" opacity="0.72"/>
<circle cx="143.4" cy="521.7" r="4.2" fill="#6670ee" opacity="0.72"/>
<circle cx="172.1" cy="505.6" r="4.2" fill="#6670ee" opacity="0.72"/>
<circle cx="123.3" cy="519.9" r="4.2" fill="#6670ee" opacity="0.72"/>
<circle cx="150.9" cy="509.1" r="4.2" fill="#6670ee" opacity="0.72"/>
<circle cx="155.0" cy="512.4" r="4.2" fill="#6670ee" opacity="0.72"/>
<circle cx="204.8" cy="511.3" r="4.2" fill="#6670ee" opacity="0.72"/>
<circle cx="117.0" cy="484.0" r="4.2" fill="#6670ee" opacity="0.72"/>
<circle cx="234.6" cy="508.6" r="4.2" fill="#6670ee" opacity="0.72"/>
<circle cx="137.0" cy="515.0" r="4.2" fill="#6670ee" opacity="0.72"/>
<circle cx="142.7" cy="486.5" r="4.2" fill="#6670ee" opacity="0.72"/>
<circle cx="147.1" cy="463.5" r="4.2" fill="#6670ee" opacity="0.72"/>
<circle cx="128.5" cy="527.4" r="4.2" fill="#6670ee" opacity="0.72"/>
<circle cx="111.6" cy="528.4" r="4.2" fill="#6670ee" opacity="0.72"/>
<circle cx="138.1" cy="491.4" r="4.2" fill="#6670ee" opacity="0.72"/>
<circle cx="298.7" cy="509.1" r="4.2" fill="#6670ee" opacity="0.72"/>
<circle cx="120.5" cy="534.3" r="4.2" fill="#6670ee" opacity="0.72"/>
<circle cx="173.9" cy="487.3" r="4.2" fill="#6670ee" opacity="0.72"/>
<circle cx="168.5" cy="432.8" r="4.2" fill="#6670ee" opacity="0.72"/>
<circle cx="171.0" cy="487.8" r="4.2" fill="#6670ee" opacity="0.72"/>
<circle cx="208.0" cy="476.3" r="4.2" fill="#6670ee" opacity="0.72"/>
<circle cx="217.6" cy="521.2" r="4.2" fill="#6670ee" opacity="0.72"/>
<circle cx="203.3" cy="509.0" r="4.2" fill="#6670ee" opacity="0.72"/>
<circle cx="182.6" cy="511.6" r="4.2" fill="#6670ee" opacity="0.72"/>
<circle cx="211.1" cy="531.7" r="4.2" fill="#6670ee" opacity="0.72"/>
<circle cx="107.5" cy="472.3" r="4.2" fill="#6670ee" opacity="0.72"/>
<circle cx="155.6" cy="516.1" r="4.2" fill="#6670ee" opacity="0.72"/>
<circle cx="132.0" cy="524.2" r="4.2" fill="#6670ee" opacity="0.72"/>
<circle cx="136.1" cy="520.6" r="4.2" fill="#6670ee" opacity="0.72"/>
<circle cx="203.9" cy="529.2" r="4.2" fill="#6670ee" opacity="0.72"/>
<circle cx="228.1" cy="489.7" r="4.2" fill="#6670ee" opacity="0.72"/>
<circle cx="202.5" cy="497.8" r="4.2" fill="#6670ee" opacity="0.72"/>
<circle cx="128.0" cy="466.0" r="4.2" fill="#6670ee" opacity="0.72"/>
<circle cx="140.3" cy="510.3" r="4.2" fill="#6670ee" opacity="0.72"/>
<circle cx="193.8" cy="496.4" r="4.2" fill="#6670ee" opacity="0.72"/>
<circle cx="109.6" cy="530.5" r="4.2" fill="#6670ee" opacity="0.72"/>
<circle cx="160.5" cy="518.5" r="4.2" fill="#6670ee" opacity="0.72"/>
<circle cx="172.1" cy="498.6" r="4.2" fill="#6670ee" opacity="0.72"/>
<circle cx="152.6" cy="468.8" r="4.2" fill="#6670ee" opacity="0.72"/>
<circle cx="193.3" cy="393.2" r="4.2" fill="#6670ee" opacity="0.72"/>
<circle cx="184.7" cy="485.9" r="4.2" fill="#6670ee" opacity="0.72"/>
<circle cx="120.1" cy="526.6" r="4.2" fill="#6670ee" opacity="0.72"/>
<circle cx="111.6" cy="519.6" r="4.2" fill="#6670ee" opacity="0.72"/>
<circle cx="202.7" cy="482.8" r="4.2" fill="#6670ee" opacity="0.72"/>
<circle cx="145.2" cy="487.6" r="4.2" fill="#6670ee" opacity="0.72"/>
<circle cx="135.2" cy="507.7" r="4.2" fill="#6670ee" opacity="0.72"/>
<circle cx="131.0" cy="516.0" r="4.2" fill="#6670ee" opacity="0.72"/>
<circle cx="112.9" cy="512.1" r="4.2" fill="#6670ee" opacity="0.72"/>
<circle cx="191.2" cy="513.7" r="4.2" fill="#6670ee" opacity="0.72"/>
<circle cx="208.4" cy="521.1" r="4.2" fill="#6670ee" opacity="0.72"/>
<circle cx="195.0" cy="515.3" r="4.2" fill="#6670ee" opacity="0.72"/>
<circle cx="268.0" cy="510.0" r="4.2" fill="#6670ee" opacity="0.72"/>
<circle cx="158.4" cy="507.1" r="4.2" fill="#6670ee" opacity="0.72"/>
<circle cx="117.3" cy="520.6" r="4.2" fill="#6670ee" opacity="0.72"/>
<circle cx="274.1" cy="480.2" r="4.2" fill="#6670ee" opacity="0.72"/>
<circle cx="124.6" cy="528.4" r="4.2" fill="#6670ee" opacity="0.72"/>
<circle cx="141.4" cy="510.1" r="4.2" fill="#6670ee" opacity="0.72"/>
<circle cx="183.4" cy="521.1" r="4.2" fill="#6670ee" opacity="0.72"/>
<circle cx="182.4" cy="412.5" r="4.2" fill="#6670ee" opacity="0.72"/>
<circle cx="180.2" cy="497.4" r="4.2" fill="#6670ee" opacity="0.72"/>
<circle cx="129.0" cy="508.0" r="4.2" fill="#6670ee" opacity="0.72"/>
<circle cx="210.4" cy="474.8" r="4.2" fill="#6670ee" opacity="0.72"/>
<circle cx="182.3" cy="495.1" r="4.2" fill="#6670ee" opacity="0.72"/>
<circle cx="108.9" cy="511.9" r="4.2" fill="#6670ee" opacity="0.72"/>
<circle cx="124.3" cy="508.1" r="4.2" fill="#6670ee" opacity="0.72"/>
<circle cx="121.3" cy="519.2" r="4.2" fill="#6670ee" opacity="0.72"/>
<circle cx="118.7" cy="520.8" r="4.2" fill="#6670ee" opacity="0.72"/>
<circle cx="121.3" cy="513.1" r="4.2" fill="#6670ee" opacity="0.72"/>
<circle cx="139.5" cy="508.5" r="4.2" fill="#6670ee" opacity="0.72"/>
<circle cx="169.3" cy="391.6" r="4.2" fill="#6670ee" opacity="0.72"/>
<circle cx="202.2" cy="519.4" r="4.2" fill="#6670ee" opacity="0.72"/>
<circle cx="116.4" cy="473.1" r="4.2" fill="#6670ee" opacity="0.72"/>
<circle cx="118.3" cy="524.0" r="4.2" fill="#6670ee" opacity="0.72"/>
<circle cx="186.1" cy="483.6" r="4.2" fill="#6670ee" opacity="0.72"/>
<circle cx="170.5" cy="492.2" r="4.2" fill="#6670ee" opacity="0.72"/>
<circle cx="245.5" cy="516.8" r="4.2" fill="#6670ee" opacity="0.72"/>
<circle cx="161.7" cy="453.6" r="4.2" fill="#6670ee" opacity="0.72"/>
<circle cx="161.7" cy="454.8" r="4.2" fill="#6670ee" opacity="0.72"/>
<circle cx="150.6" cy="513.8" r="4.2" fill="#6670ee" opacity="0.72"/>
<circle cx="142.3" cy="499.7" r="4.2" fill="#6670ee" opacity="0.72"/>
<circle cx="160.1" cy="524.9" r="4.2" fill="#6670ee" opacity="0.72"/>
<circle cx="121.6" cy="483.3" r="4.2" fill="#6670ee" opacity="0.72"/>
<circle cx="118.2" cy="492.1" r="4.2" fill="#6670ee" opacity="0.72"/>
<circle cx="110.5" cy="529.9" r="4.2" fill="#6670ee" opacity="0.72"/>
<circle cx="225.1" cy="438.9" r="4.2" fill="#6670ee" opacity="0.72"/>
<circle cx="177.0" cy="499.1" r="4.2" fill="#6670ee" opacity="0.72"/>
<circle cx="181.2" cy="520.1" r="4.2" fill="#6670ee" opacity="0.72"/>
<circle cx="236.7" cy="509.5" r="4.2" fill="#6670ee" opacity="0.72"/>
<circle cx="128.3" cy="515.9" r="4.2" fill="#6670ee" opacity="0.72"/>
<circle cx="177.4" cy="455.7" r="4.2" fill="#6670ee" opacity="0.72"/>
<circle cx="170.0" cy="507.3" r="4.2" fill="#6670ee" opacity="0.72"/>
<circle cx="164.6" cy="510.1" r="4.2" fill="#6670ee" opacity="0.72"/>
<circle cx="131.4" cy="520.4" r="4.2" fill="#6670ee" opacity="0.72"/>
<circle cx="152.3" cy="489.6" r="4.2" fill="#6670ee" opacity="0.72"/>
<circle cx="153.4" cy="486.7" r="4.2" fill="#6670ee" opacity="0.72"/>
<circle cx="137.6" cy="495.8" r="4.2" fill="#6670ee" opacity="0.72"/>
<circle cx="179.6" cy="529.6" r="4.2" fill="#6670ee" opacity="0.72"/>
<circle cx="120.8" cy="484.5" r="4.2" fill="#6670ee" opacity="0.72"/>
<circle cx="113.6" cy="511.7" r="4.2" fill="#6670ee" opacity="0.72"/>
<circle cx="133.7" cy="490.6" r="4.2" fill="#6670ee" opacity="0.72"/>
<circle cx="242.0" cy="519.5" r="4.2" fill="#6670ee" opacity="0.72"/>
<circle cx="134.9" cy="521.0" r="4.2" fill="#6670ee" opacity="0.72"/>
<circle cx="375.2" cy="492.9" r="4.2" fill="#6670ee" opacity="0.72"/>
<circle cx="148.8" cy="505.9" r="4.2" fill="#6670ee" opacity="0.72"/>
<circle cx="194.2" cy="481.1" r="4.2" fill="#6670ee" opacity="0.72"/>
<circle cx="122.2" cy="530.6" r="4.2" fill="#6670ee" opacity="0.72"/>
<circle cx="164.6" cy="501.9" r="4.2" fill="#6670ee" opacity="0.72"/>
<circle cx="128.9" cy="506.8" r="4.2" fill="#6670ee" opacity="0.72"/>
<circle cx="123.0" cy="514.2" r="4.2" fill="#6670ee" opacity="0.72"/>
<circle cx="224.5" cy="477.5" r="4.2" fill="#6670ee" opacity="0.72"/>
<circle cx="190.3" cy="510.7" r="4.2" fill="#6670ee" opacity="0.72"/>
<circle cx="139.8" cy="471.8" r="4.2" fill="#6670ee" opacity="0.72"/>
<circle cx="160.5" cy="521.9" r="4.2" fill="#6670ee" opacity="0.72"/>
<circle cx="257.7" cy="402.9" r="4.2" fill="#6670ee" opacity="0.72"/>
<circle cx="229.0" cy="500.6" r="4.2" fill="#6670ee" opacity="0.72"/>
<circle cx="198.6" cy="466.3" r="4.2" fill="#6670ee" opacity="0.72"/>
<circle cx="227.5" cy="522.7" r="4.2" fill="#6670ee" opacity="0.72"/>
<circle cx="184.7" cy="441.5" r="4.2" fill="#6670ee" opacity="0.72"/>
<circle cx="222.1" cy="489.7" r="4.2" fill="#6670ee" opacity="0.72"/>
<circle cx="116.5" cy="511.2" r="4.2" fill="#6670ee" opacity="0.72"/>
<circle cx="194.3" cy="471.7" r="4.2" fill="#6670ee" opacity="0.72"/>
<circle cx="173.1" cy="502.9" r="4.2" fill="#6670ee" opacity="0.72"/>
<circle cx="221.6" cy="529.2" r="4.2" fill="#6670ee" opacity="0.72"/>
<circle cx="216.5" cy="510.6" r="4.2" fill="#6670ee" opacity="0.72"/>
<circle cx="146.0" cy="527.0" r="4.2" fill="#6670ee" opacity="0.72"/>
<circle cx="128.2" cy="488.1" r="4.2" fill="#6670ee" opacity="0.72"/>
<circle cx="205.7" cy="510.3" r="4.2" fill="#6670ee" opacity="0.72"/>
<circle cx="141.7" cy="468.4" r="4.2" fill="#6670ee" opacity="0.72"/>
<circle cx="143.6" cy="501.7" r="4.2" fill="#6670ee" opacity="0.72"/>
<circle cx="172.2" cy="492.7" r="4.2" fill="#6670ee" opacity="0.72"/>
<circle cx="185.8" cy="517.6" r="4.2" fill="#6670ee" opacity="0.72"/>
<circle cx="205.6" cy="518.6" r="4.2" fill="#6670ee" opacity="0.72"/>
<circle cx="199.5" cy="479.8" r="4.2" fill="#6670ee" opacity="0.72"/>
<circle cx="113.8" cy="522.8" r="4.2" fill="#6670ee" opacity="0.72"/>
<circle cx="167.6" cy="415.6" r="4.2" fill="#6670ee" opacity="0.72"/>
<circle cx="175.4" cy="509.9" r="4.2" fill="#6670ee" opacity="0.72"/>
<circle cx="111.6" cy="531.8" r="4.2" fill="#6670ee" opacity="0.72"/>
<circle cx="135.1" cy="499.9" r="4.2" fill="#6670ee" opacity="0.72"/>
<circle cx="179.1" cy="498.3" r="4.2" fill="#6670ee" opacity="0.72"/>
<circle cx="138.4" cy="531.3" r="4.2" fill="#6670ee" opacity="0.72"/>
<circle cx="162.8" cy="504.6" r="4.2" fill="#6670ee" opacity="0.72"/>
<circle cx="128.0" cy="506.5" r="4.2" fill="#6670ee" opacity="0.72"/>
<circle cx="206.3" cy="496.3" r="4.2" fill="#6670ee" opacity="0.72"/>
<circle cx="154.2" cy="525.5" r="4.2" fill="#6670ee" opacity="0.72"/>
<circle cx="152.7" cy="507.7" r="4.2" fill="#6670ee" opacity="0.72"/>
<circle cx="121.0" cy="441.3" r="4.2" fill="#6670ee" opacity="0.72"/>
<circle cx="126.6" cy="493.1" r="4.2" fill="#6670ee" opacity="0.72"/>
<circle cx="149.3" cy="462.6" r="4.2" fill="#6670ee" opacity="0.72"/>
<circle cx="169.3" cy="489.3" r="4.2" fill="#6670ee" opacity="0.72"/>
<circle cx="151.7" cy="485.3" r="4.2" fill="#6670ee" opacity="0.72"/>
<circle cx="126.2" cy="529.2" r="4.2" fill="#6670ee" opacity="0.72"/>
<circle cx="173.2" cy="523.2" r="4.2" fill="#6670ee" opacity="0.72"/>
<circle cx="132.8" cy="531.7" r="4.2" fill="#6670ee" opacity="0.72"/>
<circle cx="220.8" cy="428.8" r="4.2" fill="#6670ee" opacity="0.72"/>
<circle cx="206.7" cy="514.1" r="4.2" fill="#6670ee" opacity="0.72"/>
<circle cx="143.3" cy="523.9" r="4.2" fill="#6670ee" opacity="0.72"/>
<circle cx="126.7" cy="510.1" r="4.2" fill="#6670ee" opacity="0.72"/>
<circle cx="123.8" cy="511.2" r="4.2" fill="#6670ee" opacity="0.72"/>
<circle cx="183.5" cy="505.9" r="4.2" fill="#6670ee" opacity="0.72"/>
<circle cx="187.3" cy="517.3" r="4.2" fill="#6670ee" opacity="0.72"/>
<circle cx="133.8" cy="414.8" r="4.2" fill="#6670ee" opacity="0.72"/>
<circle cx="144.6" cy="496.1" r="4.2" fill="#6670ee" opacity="0.72"/>
<circle cx="127.3" cy="476.3" r="4.2" fill="#6670ee" opacity="0.72"/>
<circle cx="162.3" cy="479.9" r="4.2" fill="#6670ee" opacity="0.72"/>
<circle cx="159.8" cy="508.5" r="4.2" fill="#6670ee" opacity="0.72"/>
<circle cx="139.4" cy="467.4" r="4.2" fill="#6670ee" opacity="0.72"/>
<circle cx="201.9" cy="496.1" r="4.2" fill="#6670ee" opacity="0.72"/>
<circle cx="135.5" cy="506.9" r="4.2" fill="#6670ee" opacity="0.72"/>
<circle cx="193.7" cy="518.7" r="4.2" fill="#6670ee" opacity="0.72"/>
<circle cx="190.5" cy="510.7" r="4.2" fill="#6670ee" opacity="0.72"/>
<circle cx="189.6" cy="505.5" r="4.2" fill="#6670ee" opacity="0.72"/>
<circle cx="172.7" cy="485.7" r="4.2" fill="#6670ee" opacity="0.72"/>
<circle cx="139.0" cy="507.1" r="4.2" fill="#6670ee" opacity="0.72"/>
<circle cx="188.2" cy="513.5" r="4.2" fill="#6670ee" opacity="0.72"/>
<circle cx="155.7" cy="518.0" r="4.2" fill="#6670ee" opacity="0.72"/>
<circle cx="165.9" cy="519.3" r="4.2" fill="#6670ee" opacity="0.72"/>
<circle cx="120.2" cy="438.6" r="4.2" fill="#6670ee" opacity="0.72"/>
<circle cx="132.3" cy="456.6" r="4.2" fill="#6670ee" opacity="0.72"/>
<circle cx="150.3" cy="531.3" r="4.2" fill="#6670ee" opacity="0.72"/>
<circle cx="146.1" cy="512.8" r="4.2" fill="#6670ee" opacity="0.72"/>
<circle cx="121.6" cy="496.9" r="4.2" fill="#6670ee" opacity="0.72"/>
<circle cx="110.0" cy="518.0" r="4.2" fill="#6670ee" opacity="0.72"/>
<circle cx="133.5" cy="491.4" r="4.2" fill="#6670ee" opacity="0.72"/>
<circle cx="139.9" cy="501.9" r="4.2" fill="#6670ee" opacity="0.72"/>
<circle cx="123.3" cy="498.5" r="4.2" fill="#6670ee" opacity="0.72"/>
<circle cx="209.1" cy="491.0" r="4.2" fill="#6670ee" opacity="0.72"/>
<circle cx="218.9" cy="516.9" r="4.2" fill="#6670ee" opacity="0.72"/>
<circle cx="122.9" cy="518.0" r="4.2" fill="#6670ee" opacity="0.72"/>
<circle cx="132.0" cy="525.1" r="4.2" fill="#6670ee" opacity="0.72"/>
<circle cx="118.3" cy="531.2" r="4.2" fill="#6670ee" opacity="0.72"/>
<circle cx="210.4" cy="412.2" r="4.2" fill="#6670ee" opacity="0.72"/>
<circle cx="137.3" cy="515.3" r="4.2" fill="#6670ee" opacity="0.72"/>
<circle cx="131.1" cy="440.1" r="4.2" fill="#6670ee" opacity="0.72"/>
<circle cx="144.1" cy="533.8" r="4.2" fill="#6670ee" opacity="0.72"/>
<circle cx="137.2" cy="491.9" r="4.2" fill="#6670ee" opacity="0.72"/>
<circle cx="141.2" cy="501.0" r="4.2" fill="#6670ee" opacity="0.72"/>
<circle cx="132.3" cy="514.5" r="4.2" fill="#6670ee" opacity="0.72"/>
<circle cx="191.6" cy="523.2" r="4.2" fill="#6670ee" opacity="0.72"/>
<circle cx="112.5" cy="513.3" r="4.2" fill="#6670ee" opacity="0.72"/>
<circle cx="156.7" cy="502.9" r="4.2" fill="#6670ee" opacity="0.72"/>
<circle cx="122.8" cy="477.4" r="4.2" fill="#6670ee" opacity="0.72"/>
<circle cx="218.7" cy="511.7" r="4.2" fill="#6670ee" opacity="0.72"/>
<circle cx="239.0" cy="514.7" r="4.2" fill="#6670ee" opacity="0.72"/>
<circle cx="120.6" cy="501.4" r="4.2" fill="#6670ee" opacity="0.72"/>
<circle cx="166.2" cy="530.5" r="4.2" fill="#6670ee" opacity="0.72"/>
<circle cx="117.3" cy="480.5" r="4.2" fill="#6670ee" opacity="0.72"/>
<circle cx="184.4" cy="448.8" r="4.2" fill="#6670ee" opacity="0.72"/>
<circle cx="119.5" cy="530.3" r="4.2" fill="#6670ee" opacity="0.72"/>
<circle cx="380.3" cy="502.5" r="4.2" fill="#6670ee" opacity="0.72"/>
<circle cx="191.4" cy="481.7" r="4.2" fill="#6670ee" opacity="0.72"/>
<circle cx="173.2" cy="514.7" r="4.2" fill="#6670ee" opacity="0.72"/>
<circle cx="173.8" cy="508.1" r="4.2" fill="#6670ee" opacity="0.72"/>
<circle cx="115.5" cy="494.9" r="4.2" fill="#6670ee" opacity="0.72"/>
<circle cx="260.7" cy="526.7" r="4.2" fill="#6670ee" opacity="0.72"/>
<circle cx="126.5" cy="524.6" r="4.2" fill="#6670ee" opacity="0.72"/>
<circle cx="198.6" cy="487.0" r="4.2" fill="#6670ee" opacity="0.72"/>
<circle cx="121.8" cy="487.4" r="4.2" fill="#6670ee" opacity="0.72"/>
<circle cx="123.1" cy="527.2" r="4.2" fill="#6670ee" opacity="0.72"/>
<circle cx="114.4" cy="514.3" r="4.2" fill="#6670ee" opacity="0.72"/>
<circle cx="181.4" cy="447.8" r="4.2" fill="#6670ee" opacity="0.72"/>
<circle cx="117.4" cy="504.8" r="4.2" fill="#6670ee" opacity="0.72"/>
<circle cx="185.0" cy="521.9" r="4.2" fill="#6670ee" opacity="0.72"/>
<circle cx="194.9" cy="489.8" r="4.2" fill="#6670ee" opacity="0.72"/>
<circle cx="294.0" cy="530.7" r="4.2" fill="#6670ee" opacity="0.72"/>
<circle cx="116.4" cy="517.2" r="4.2" fill="#6670ee" opacity="0.72"/>
<circle cx="147.2" cy="504.6" r="4.2" fill="#6670ee" opacity="0.72"/>
<circle cx="229.5" cy="487.8" r="4.2" fill="#6670ee" opacity="0.72"/>
<circle cx="162.6" cy="498.7" r="4.2" fill="#6670ee" opacity="0.72"/>
<circle cx="146.0" cy="519.3" r="4.2" fill="#6670ee" opacity="0.72"/>
<circle cx="234.3" cy="482.5" r="4.2" fill="#6670ee" opacity="0.72"/>
<circle cx="135.4" cy="505.3" r="4.2" fill="#6670ee" opacity="0.72"/>
<circle cx="288.8" cy="478.2" r="4.2" fill="#6670ee" opacity="0.72"/>
<circle cx="150.1" cy="512.8" r="4.2" fill="#6670ee" opacity="0.72"/>
<circle cx="250.0" cy="511.2" r="4.2" fill="#6670ee" opacity="0.72"/>
<circle cx="149.4" cy="517.5" r="4.2" fill="#6670ee" opacity="0.72"/>
<circle cx="162.3" cy="526.5" r="4.2" fill="#6670ee" opacity="0.72"/>
<circle cx="161.0" cy="519.1" r="4.2" fill="#6670ee" opacity="0.72"/>
<circle cx="149.1" cy="510.8" r="4.2" fill="#6670ee" opacity="0.72"/>
<circle cx="187.7" cy="511.0" r="4.2" fill="#6670ee" opacity="0.72"/>
<circle cx="138.3" cy="521.7" r="4.2" fill="#6670ee" opacity="0.72"/>
<circle cx="123.2" cy="506.0" r="4.2" fill="#6670ee" opacity="0.72"/>
<circle cx="173.5" cy="494.0" r="4.2" fill="#6670ee" opacity="0.72"/>
<circle cx="175.6" cy="434.7" r="4.2" fill="#6670ee" opacity="0.72"/>
<circle cx="204.8" cy="516.0" r="4.2" fill="#6670ee" opacity="0.72"/>
<circle cx="190.4" cy="511.4" r="4.2" fill="#6670ee" opacity="0.72"/>
<circle cx="152.1" cy="496.3" r="4.2" fill="#6670ee" opacity="0.72"/>
<circle cx="142.0" cy="516.7" r="4.2" fill="#6670ee" opacity="0.72"/>
<circle cx="108.9" cy="526.9" r="4.2" fill="#6670ee" opacity="0.72"/>
<circle cx="147.8" cy="515.7" r="4.2" fill="#6670ee" opacity="0.72"/>
<circle cx="135.5" cy="485.0" r="4.2" fill="#6670ee" opacity="0.72"/>
<circle cx="266.0" cy="476.1" r="4.2" fill="#6670ee" opacity="0.72"/>
<circle cx="133.7" cy="521.5" r="4.2" fill="#6670ee" opacity="0.72"/>
<circle cx="264.8" cy="516.7" r="4.2" fill="#6670ee" opacity="0.72"/>
<circle cx="113.5" cy="484.9" r="4.2" fill="#6670ee" opacity="0.72"/>
<circle cx="125.1" cy="470.2" r="4.2" fill="#6670ee" opacity="0.72"/>
<circle cx="129.3" cy="516.7" r="4.2" fill="#6670ee" opacity="0.72"/>
<circle cx="194.7" cy="490.6" r="4.2" fill="#6670ee" opacity="0.72"/>
<circle cx="123.6" cy="501.4" r="4.2" fill="#6670ee" opacity="0.72"/>
<circle cx="120.6" cy="486.8" r="4.2" fill="#6670ee" opacity="0.72"/>
<circle cx="150.8" cy="527.9" r="4.2" fill="#6670ee" opacity="0.72"/>
<circle cx="145.6" cy="476.8" r="4.2" fill="#6670ee" opacity="0.72"/>
<circle cx="170.4" cy="487.3" r="4.2" fill="#6670ee" opacity="0.72"/>
<circle cx="181.9" cy="499.7" r="4.2" fill="#6670ee" opacity="0.72"/>
<circle cx="151.2" cy="467.7" r="4.2" fill="#6670ee" opacity="0.72"/>
<circle cx="178.7" cy="471.4" r="4.2" fill="#6670ee" opacity="0.72"/>
<circle cx="146.7" cy="506.8" r="4.2" fill="#6670ee" opacity="0.72"/>
<circle cx="185.1" cy="525.4" r="4.2" fill="#6670ee" opacity="0.72"/>
<circle cx="111.6" cy="524.6" r="4.2" fill="#6670ee" opacity="0.72"/>
<circle cx="175.8" cy="529.4" r="4.2" fill="#6670ee" opacity="0.72"/>
<circle cx="138.9" cy="510.2" r="4.2" fill="#6670ee" opacity="0.72"/>
<circle cx="182.4" cy="450.5" r="4.2" fill="#6670ee" opacity="0.72"/>
<circle cx="151.3" cy="452.6" r="4.2" fill="#6670ee" opacity="0.72"/>
<circle cx="159.9" cy="495.4" r="4.2" fill="#6670ee" opacity="0.72"/>
<circle cx="122.6" cy="533.2" r="4.2" fill="#6670ee" opacity="0.72"/>
<circle cx="130.7" cy="499.8" r="4.2" fill="#6670ee" opacity="0.72"/>
<circle cx="127.4" cy="509.0" r="4.2" fill="#6670ee" opacity="0.72"/>
<circle cx="121.7" cy="490.4" r="4.2" fill="#6670ee" opacity="0.72"/>
<circle cx="175.8" cy="482.3" r="4.2" fill="#6670ee" opacity="0.72"/>
<circle cx="151.6" cy="489.6" r="4.2" fill="#6670ee" opacity="0.72"/>
<circle cx="141.8" cy="526.7" r="4.2" fill="#6670ee" opacity="0.72"/>
<circle cx="182.8" cy="519.4" r="4.2" fill="#6670ee" opacity="0.72"/>
<circle cx="135.5" cy="460.3" r="4.2" fill="#6670ee" opacity="0.72"/>
<circle cx="110.1" cy="509.0" r="4.2" fill="#6670ee" opacity="0.72"/>
<circle cx="172.7" cy="65.0" r="4.2" fill="#6670ee" opacity="0.72"/>
<circle cx="145.6" cy="150.5" r="4.2" fill="#6670ee" opacity="0.72"/>
<circle cx="213.4" cy="270.1" r="4.2" fill="#6670ee" opacity="0.72"/>
<circle cx="443.6" cy="419.6" r="4.2" fill="#6670ee" opacity="0.72"/>
<circle cx="613.0" cy="423.9" r="4.2" fill="#6670ee" opacity="0.72"/>
<text x="477.5" y="610.0" text-anchor="middle" font-family="-apple-system,BlinkMacSystemFont,PingFang SC,Noto Sans CJK SC,sans-serif" font-size="21" font-weight="600" fill="#30332e">住户 A 给住户 B 的礼物数</text>
<text x="28.0" y="300.0" text-anchor="middle" font-family="-apple-system,BlinkMacSystemFont,PingFang SC,Noto Sans CJK SC,sans-serif" font-size="21" font-weight="600" fill="#30332e" transform="rotate(-90 28 300.0)">住户 B 给住户 A 的礼物数</text>
</svg>