<?xml version="1.0" encoding="UTF-8"?><svg xmlns="http://www.w3.org/2000/svg" width="1200" height="1020" viewBox="0 0 1200 1020" role="img" aria-labelledby="title desc"><title id="title">猞猁—雪兔模型的后验预测</title><desc id="desc">上图将实际毛皮数据与二十一条带独立测量误差的后验预测叠加，轨迹呈锯齿；下图是相应的隐藏种群轨迹，没有测量误差，因而平滑连续。</desc><rect width="100%" height="100%" fill="#fff"/><style>.axis{font:16px -apple-system, BlinkMacSystemFont, "PingFang SC", sans-serif;fill:#30332e}.label{font:20px -apple-system, BlinkMacSystemFont, "PingFang SC", sans-serif;fill:#30332e}.title{font:700 23px -apple-system, BlinkMacSystemFont, "PingFang SC", sans-serif;fill:#263f86}.panel{fill:#fff;stroke:#3c403b;stroke-width:1.4}.hare{fill:none;stroke:#202420;stroke-width:2;opacity:.22}.lynx{fill:none;stroke:#6874ef;stroke-width:2;opacity:.28}.hare-point{fill:#202420}.lynx-point{fill:#6874ef}</style><text class="title" x="615" y="31" text-anchor="middle">毛皮观测与隐藏种群的后验预测</text><rect class="panel" x="110" y="70" width="1010" height="345"/><rect class="panel" x="110" y="570" width="1010" height="345"/><path class="hare" d="M110,362.42 L160.5,240.15 L211,222.5 L261.5,219.78 L312,90.29 L362.5,286.49 L413,378.82 L463.5,388.02 L514,385.46 L564.5,387.8 L615,385.37 L665.5,387.9 L716,344.9 L766.5,356.51 L817,321.38 L867.5,298.19 L918,70 L968.5,144 L1019,263.37 L1069.5,298 L1120,374.66"/><path class="lynx" d="M110,396.84 L160.5,396.25 L211,381.61 L261.5,376.49 L312,342.15 L362.5,246.4 L413,291.87 L463.5,291.68 L514,339.59 L564.5,373.26 L615,384.19 L665.5,379.84 L716,400.43 L766.5,401.05 L817,403.68 L867.5,399.98 L918,390.22 L968.5,374.72 L1019,343.15 L1069.5,314.25 L1120,282.15"/><path class="hare" d="M110,340.51 L160.5,330.98 L211,193.41 L261.5,121.37 L312,217.16 L362.5,335.15 L413,378.1 L463.5,395.48 L514,399.65 L564.5,398.74 L615,395.43 L665.5,389.89 L716,354.96 L766.5,298.21 L817,197.25 L867.5,148.38 L918,154.27 L968.5,257 L1019,350.96 L1069.5,383.99 L1120,398.09"/><path class="lynx" d="M110,404.84 L160.5,406.42 L211,405.45 L261.5,375.08 L312,268.61 L362.5,282.11 L413,282.36 L463.5,312.79 L514,329.41 L564.5,369.78 L615,395.3 L665.5,404.33 L716,400.19 L766.5,400.08 L817,405.63 L867.5,394.25 L918,368.55 L968.5,301.08 L1019,313.79 L1069.5,278.43 L1120,370.61"/><path class="hare" d="M110,327.92 L160.5,300.56 L211,188.78 L261.5,114.18 L312,209.02 L362.5,333.06 L413,379.75 L463.5,390.09 L514,400.03 L564.5,400.06 L615,389.63 L665.5,393.64 L716,372.01 L766.5,354.9 L817,288.28 L867.5,288.42 L918,316.92 L968.5,256.12 L1019,305 L1069.5,357.25 L1120,384.21"/><path class="lynx" d="M110,408.04 L160.5,400.56 L211,402.71 L261.5,388.06 L312,372.67 L362.5,335.78 L413,317.19 L463.5,354.25 L514,361.3 L564.5,377.94 L615,389.18 L665.5,396.37 L716,403.54 L766.5,407.24 L817,401.42 L867.5,399.5 L918,383.51 L968.5,375.05 L1019,276.37 L1069.5,315.37 L1120,313.96"/><path class="hare" d="M110,323.48 L160.5,320.72 L211,262.26 L261.5,283.95 L312,343.99 L362.5,362.3 L413,390.59 L463.5,381.34 L514,397.25 L564.5,389.97 L615,387.39 L665.5,373.33 L716,365.18 L766.5,329.8 L817,313.32 L867.5,255.61 L918,324.47 L968.5,276.38 L1019,314.49 L1069.5,385.37 L1120,388.33"/><path class="lynx" d="M110,406.4 L160.5,400.99 L211,372.45 L261.5,369.05 L312,268.72 L362.5,264.56 L413,327.84 L463.5,347.46 L514,379.56 L564.5,387.81 L615,397.47 L665.5,405.73 L716,402.51 L766.5,396.58 L817,401.64 L867.5,394.91 L918,384.23 L968.5,331.3 L1019,280.49 L1069.5,343.01 L1120,370.45"/><path class="hare" d="M110,356.36 L160.5,347.37 L211,253.8 L261.5,265.05 L312,297.81 L362.5,372.68 L413,392.93 L463.5,397.74 L514,392.14 L564.5,394.08 L615,388.45 L665.5,369.61 L716,349.43 L766.5,308.15 L817,272.14 L867.5,268.92 L918,258.75 L968.5,316.76 L1019,360.93 L1069.5,368.39 L1120,384.94"/><path class="lynx" d="M110,395.68 L160.5,399.7 L211,382.41 L261.5,362.25 L312,342.69 L362.5,314.81 L413,355.58 L463.5,370.73 L514,378.82 L564.5,393.1 L615,403.49 L665.5,398.47 L716,399.37 L766.5,398.99 L817,393.16 L867.5,389.46 L918,374.29 L968.5,325.36 L1019,336.53 L1069.5,342.48 L1120,331.49"/><path class="hare" d="M110,306.16 L160.5,218.19 L211,235.84 L261.5,195.87 L312,265.62 L362.5,335.49 L413,386.84 L463.5,404.04 L514,403.05 L564.5,395.25 L615,394.32 L665.5,373.76 L716,360.51 L766.5,374.72 L817,339.1 L867.5,296.44 L918,288.56 L968.5,175.16 L1019,300 L1069.5,364.28 L1120,396.14"/><path class="lynx" d="M110,401.83 L160.5,394.86 L211,385.23 L261.5,316.7 L312,327.42 L362.5,280.88 L413,291.62 L463.5,315.3 L514,350.98 L564.5,375.66 L615,398 L665.5,392.8 L716,406.45 L766.5,405.39 L817,405.63 L867.5,402.21 L918,366.47 L968.5,360.1 L1019,322.81 L1069.5,285.08 L1120,312.65"/><path class="hare" d="M110,332.29 L160.5,237.88 L211,232.53 L261.5,231.47 L312,221.05 L362.5,359.93 L413,367.05 L463.5,397.11 L514,391.59 L564.5,387.32 L615,388.07 L665.5,379.55 L716,377.34 L766.5,374.78 L817,288.15 L867.5,243.78 L918,289.59 L968.5,200.59 L1019,315.92 L1069.5,369.83 L1120,384.12"/><path class="lynx" d="M110,401.63 L160.5,395.8 L211,396.88 L261.5,356.75 L312,319.38 L362.5,266.74 L413,215.95 L463.5,327.31 L514,377.43 L564.5,378.35 L615,378.26 L665.5,397.82 L716,399.33 L766.5,404.67 L817,400.1 L867.5,396.03 L918,384.55 L968.5,270.77 L1019,274.23 L1069.5,334.74 L1120,327.21"/><path class="hare" d="M110,322.34 L160.5,244.52 L211,270.46 L261.5,221.86 L312,252.6 L362.5,322.06 L413,381.72 L463.5,394.59 L514,385.63 L564.5,397.57 L615,373.24 L665.5,366.77 L716,377.09 L766.5,351.11 L817,320.25 L867.5,218.03 L918,229.86 L968.5,198.64 L1019,281.15 L1069.5,359.22 L1120,389.87"/><path class="lynx" d="M110,409.97 L160.5,399.79 L211,377.08 L261.5,368.22 L312,362.38 L362.5,262.66 L413,337.41 L463.5,358.85 L514,375.55 L564.5,393.87 L615,396.07 L665.5,396.31 L716,403.18 L766.5,402.66 L817,404.42 L867.5,399.82 L918,366.66 L968.5,341.14 L1019,299.18 L1069.5,319.13 L1120,329.27"/><path class="hare" d="M110,357.72 L160.5,291.02 L211,215.17 L261.5,203.48 L312,147.63 L362.5,233.64 L413,378.93 L463.5,385.68 L514,397.59 L564.5,395.63 L615,396.08 L665.5,384.38 L716,376.29 L766.5,366.23 L817,322.43 L867.5,313.04 L918,187.04 L968.5,96.63 L1019,301.07 L1069.5,372.18 L1120,376.79"/><path class="lynx" d="M110,406.26 L160.5,402.91 L211,397.51 L261.5,366.61 L312,301.07 L362.5,235.31 L413,173.38 L463.5,319.39 L514,353.48 L564.5,362.91 L615,381.8 L665.5,395.73 L716,407.16 L766.5,396.2 L817,406.6 L867.5,394.23 L918,398.22 L968.5,337.4 L1019,277.49 L1069.5,247.87 L1120,329.41"/><path class="hare" d="M110,338.88 L160.5,282.5 L211,252.99 L261.5,115.76 L312,204.66 L362.5,292.45 L413,359.8 L463.5,384.11 L514,398.07 L564.5,394.05 L615,376.16 L665.5,384.28 L716,366.7 L766.5,274.36 L817,315.88 L867.5,273.96 L918,160.36 L968.5,206.29 L1019,294.85 L1069.5,376.49 L1120,393.7"/><path class="lynx" d="M110,402.62 L160.5,401.12 L211,394.72 L261.5,399.45 L312,332.38 L362.5,342.96 L413,291.3 L463.5,357.1 L514,356.97 L564.5,386.95 L615,388.6 L665.5,400.11 L716,403.73 L766.5,395.52 L817,400.65 L867.5,396.7 L918,392.16 L968.5,343.86 L1019,311.7 L1069.5,322.51 L1120,345.35"/><path class="hare" d="M110,341.32 L160.5,311.08 L211,270.48 L261.5,169.93 L312,192.52 L362.5,247.1 L413,310.46 L463.5,391.63 L514,400.54 L564.5,391.22 L615,380.87 L665.5,383.18 L716,359.08 L766.5,365.11 L817,291.59 L867.5,303.32 L918,184.87 L968.5,72.06 L1019,243.24 L1069.5,323.36 L1120,367.36"/><path class="lynx" d="M110,397.36 L160.5,396.96 L211,399.91 L261.5,384.79 L312,340.92 L362.5,276.82 L413,290.08 L463.5,323.94 L514,322.05 L564.5,333.73 L615,354.56 L665.5,383.6 L716,397.89 L766.5,399.56 L817,397.35 L867.5,398.24 L918,387.72 L968.5,345.35 L1019,264.2 L1069.5,267.64 L1120,284.67"/><path class="hare" d="M110,359.75 L160.5,301.4 L211,284.09 L261.5,138.95 L312,117.18 L362.5,302.01 L413,358.27 L463.5,388.28 L514,397.59 L564.5,395.19 L615,388.83 L665.5,390.43 L716,367.38 L766.5,347.99 L817,287.62 L867.5,275.58 L918,99.67 L968.5,184.76 L1019,254.04 L1069.5,374.94 L1120,383.95"/><path class="lynx" d="M110,399.26 L160.5,404.18 L211,392.59 L261.5,361.96 L312,328.09 L362.5,303.84 L413,297.8 L463.5,292.21 L514,362.82 L564.5,375.29 L615,391.57 L665.5,386.34 L716,397.35 L766.5,403.53 L817,405.45 L867.5,398.57 L918,384.61 L968.5,314.08 L1019,298.62 L1069.5,332.14 L1120,305.48"/><path class="hare" d="M110,349.74 L160.5,332.61 L211,185.51 L261.5,148.33 L312,299.27 L362.5,335.06 L413,379.46 L463.5,386 L514,378.07 L564.5,369.35 L615,389.26 L665.5,384.61 L716,363.92 L766.5,375.36 L817,307.29 L867.5,305.37 L918,301.83 L968.5,73.13 L1019,287.97 L1069.5,345.68 L1120,391.43"/><path class="lynx" d="M110,391.75 L160.5,401.67 L211,391.94 L261.5,380.52 L312,271.62 L362.5,316.68 L413,285.02 L463.5,348.65 L514,334.26 L564.5,382.37 L615,358.58 L665.5,392.53 L716,401.47 L766.5,404 L817,398.48 L867.5,397.39 L918,392.58 L968.5,371.68 L1019,281.32 L1069.5,261.5 L1120,322.38"/><path class="hare" d="M110,359.7 L160.5,303.56 L211,182.72 L261.5,184.37 L312,293.26 L362.5,342.53 L413,396.05 L463.5,403.17 L514,400.07 L564.5,397.84 L615,387.16 L665.5,388.88 L716,381.01 L766.5,333.57 L817,283.56 L867.5,286.67 L918,135.71 L968.5,170.78 L1019,361.82 L1069.5,389.47 L1120,397.32"/><path class="lynx" d="M110,398.68 L160.5,401.84 L211,392.01 L261.5,313.4 L312,265.83 L362.5,292.99 L413,298.81 L463.5,344.69 L514,356.74 L564.5,383.13 L615,385.61 L665.5,381.54 L716,402.6 L766.5,395.97 L817,395.98 L867.5,393.7 L918,375.35 L968.5,306.71 L1019,254.3 L1069.5,311.81 L1120,355.63"/><path class="hare" d="M110,287.25 L160.5,329.61 L211,188.1 L261.5,297.86 L312,265.69 L362.5,355.19 L413,389.87 L463.5,392.26 L514,390.92 L564.5,394.57 L615,380.01 L665.5,383.65 L716,338.3 L766.5,318.74 L817,262.49 L867.5,222.92 L918,281.06 L968.5,270.56 L1019,301.43 L1069.5,368.37 L1120,393.81"/><path class="lynx" d="M110,397.58 L160.5,396.6 L211,356.58 L261.5,361.92 L312,285.43 L362.5,247.63 L413,269.85 L463.5,368.33 L514,343.69 L564.5,389.11 L615,389.86 L665.5,398.11 L716,404.35 L766.5,399.3 L817,404.31 L867.5,382.15 L918,363.39 L968.5,316.6 L1019,250.15 L1069.5,320.07 L1120,297.99"/><path class="hare" d="M110,375.9 L160.5,333.67 L211,220.54 L261.5,90.71 L312,195.77 L362.5,326.54 L413,378.76 L463.5,397.25 L514,403.85 L564.5,395.23 L615,401.89 L665.5,394.69 L716,391.24 L766.5,333.34 L817,341.93 L867.5,325.77 L918,72.43 L968.5,276.48 L1019,314.27 L1069.5,391.69 L1120,396.05"/><path class="lynx" d="M110,402.91 L160.5,400.53 L211,399.59 L261.5,378.57 L312,339.41 L362.5,243.54 L413,289.19 L463.5,300.18 L514,341.17 L564.5,387.73 L615,381.47 L665.5,398.04 L716,403.85 L766.5,405.74 L817,404.41 L867.5,398.43 L918,373.59 L968.5,346.87 L1019,301.9 L1069.5,273.4 L1120,316.15"/><path class="hare" d="M110,281.97 L160.5,253.86 L211,231.63 L261.5,215.95 L312,108.75 L362.5,348.13 L413,388.51 L463.5,391.39 L514,396.99 L564.5,404.43 L615,375.27 L665.5,389.16 L716,376.34 L766.5,326.12 L817,288.13 L867.5,240.38 L918,188.92 L968.5,132.24 L1019,358.23 L1069.5,351.5 L1120,394.92"/><path class="lynx" d="M110,406.49 L160.5,402.1 L211,387.88 L261.5,329.23 L312,276.76 L362.5,315.13 L413,284.6 L463.5,357.51 L514,315.95 L564.5,369.53 L615,384.34 L665.5,391.4 L716,401.9 L766.5,404.62 L817,398.34 L867.5,390.68 L918,388.71 L968.5,299.71 L1019,311.35 L1069.5,329.14 L1120,335.11"/><path class="hare" d="M110,324.08 L160.5,331.87 L211,237.55 L261.5,70 L312,141.59 L362.5,269.79 L413,377.3 L463.5,392.53 L514,393.36 L564.5,383.77 L615,397.61 L665.5,388.15 L716,364.31 L766.5,350.42 L817,321.81 L867.5,220.37 L918,280.89 L968.5,212.33 L1019,142.09 L1069.5,277.58 L1120,376.86"/><path class="lynx" d="M110,397.77 L160.5,407.83 L211,400.12 L261.5,382.36 L312,334.88 L362.5,256.86 L413,292.62 L463.5,310.89 L514,355.39 L564.5,357.08 L615,389.86 L665.5,394.27 L716,400.48 L766.5,402.07 L817,398.36 L867.5,400.18 L918,380.28 L968.5,366.14 L1019,304.08 L1069.5,284.98 L1120,319.81"/><path class="hare" d="M110,314.91 L160.5,290.68 L211,302.54 L261.5,111.33 L312,269.62 L362.5,297.42 L413,358.86 L463.5,398.57 L514,400.62 L564.5,404.48 L615,398.93 L665.5,376.82 L716,372.84 L766.5,369.07 L817,372.67 L867.5,257.98 L918,218.4 L968.5,184.23 L1019,244.33 L1069.5,317.19 L1120,382.45"/><path class="lynx" d="M110,399.07 L160.5,399.94 L211,391.74 L261.5,383.93 L312,332.75 L362.5,278.52 L413,265.58 L463.5,309.52 L514,344.63 L564.5,386.16 L615,377.4 L665.5,397.03 L716,400.79 L766.5,401.34 L817,406.24 L867.5,398.01 L918,396.89 L968.5,376.83 L1019,315.71 L1069.5,242.82 L1120,297.59"/><path class="hare" d="M110,323.49 L160.5,235.16 L211,231.12 L261.5,240.77 L312,195.34 L362.5,307.98 L413,360.27 L463.5,369.73 L514,386.44 L564.5,390.49 L615,380.69 L665.5,382.98 L716,372.09 L766.5,333.19 L817,312 L867.5,173.94 L918,160.08 L968.5,220.94 L1019,295.69 L1069.5,346.9 L1120,374.74"/><path class="lynx" d="M110,404.63 L160.5,403.38 L211,395.81 L261.5,371.69 L312,352.46 L362.5,294.84 L413,273.36 L463.5,273.44 L514,329.54 L564.5,371.54 L615,390.21 L665.5,390.03 L716,399.19 L766.5,403.93 L817,397.37 L867.5,397.75 L918,371.31 L968.5,347.36 L1019,319.84 L1069.5,327.52 L1120,296.47"/><path class="hare" d="M110,322.01 L160.5,299.71 L211,237.57 L261.5,249.99 L312,273.66 L362.5,375.83 L413,386.93 L463.5,382.31 L514,382.23 L564.5,381.11 L615,385.85 L665.5,375.24 L716,364.89 L766.5,348.14 L817,325.85 L867.5,326.46 L918,218.79 L968.5,249.35 L1019,333.69 L1069.5,372.16 L1120,397.27"/><path class="lynx" d="M110,399.25 L160.5,404.68 L211,391.69 L261.5,354.24 L312,366.39 L362.5,334.15 L413,356.88 L463.5,359.68 L514,376.5 L564.5,368.29 L615,398.2 L665.5,400.27 L716,401.28 L766.5,404.02 L817,390.74 L867.5,392.18 L918,382.2 L968.5,316.49 L1019,347.24 L1069.5,300.21 L1120,364.97"/><path class="hare" d="M110,816.41 L160.5,766.92 L211,698.61 L261.5,629.95 L312,638.4 L362.5,760.76 L413,848.89 L463.5,879.95 L514,889.35 L564.5,890.58 L615,887.01 L665.5,878.7 L716,864.09 L766.5,840.16 L817,802.5 L867.5,746.38 L918,673.24 L968.5,616.65 L1019,669.81 L1069.5,798.07 L1120,863.54"/><path class="lynx" d="M110,896.49 L160.5,895.46 L211,888.22 L261.5,864.63 L312,802.36 L362.5,731.83 L413,736.07 L463.5,778.67 L514,819.23 L564.5,849.14 L615,869.45 L665.5,882.67 L716,890.89 L766.5,895.44 L817,896.86 L867.5,894.34 L918,883.61 L968.5,849.99 L1019,774.44 L1069.5,723.56 L1120,747.72"/><path class="hare" d="M110,817.6 L160.5,760.35 L211,677.44 L261.5,598.85 L312,653.67 L362.5,808.42 L413,872.87 L463.5,890.04 L514,893.51 L564.5,891.02 L615,883.43 L665.5,869 L716,843.95 L766.5,802.17 L817,736.23 L867.5,646.91 L918,591.26 L968.5,705.61 L1019,838.74 L1069.5,881.49 L1120,892.45"/><path class="lynx" d="M110,899.68 L160.5,898.73 L211,890.86 L261.5,860.87 L312,778.04 L362.5,724.84 L413,760.47 L463.5,809.35 L514,845.84 L564.5,869.79 L615,884.74 L665.5,893.67 L716,898.51 L766.5,900.09 L817,897.62 L867.5,885.52 L918,841.02 L968.5,748.42 L1019,729.26 L1069.5,776.15 L1120,822.27"/><path class="hare" d="M110,830.65 L160.5,788.6 L211,730.02 L261.5,669.51 L312,671.19 L362.5,773.39 L413,852.39 L463.5,881.04 L514,889.59 L564.5,890.26 L615,886.08 L665.5,876.88 L716,860.88 L766.5,834.9 L817,794.69 L867.5,737.53 L918,674.26 L968.5,662.61 L1019,758.94 L1069.5,846.48 L1120,879.45"/><path class="lynx" d="M110,899.6 L160.5,899.25 L211,894.18 L261.5,877.25 L312,832.35 L362.5,779.3 L413,781.04 L463.5,813.07 L514,843.84 L564.5,866.36 L615,881.44 L665.5,891.06 L716,896.81 L766.5,899.65 L817,899.7 L867.5,895.47 L918,880.8 L968.5,839.71 L1019,782.59 L1069.5,777.34 L1120,808.44"/><path class="hare" d="M110,802.27 L160.5,763.26 L211,726.52 L261.5,722.76 L312,775.58 L362.5,836.73 L413,868.91 L463.5,881.45 L514,884.72 L564.5,882.71 L615,876.35 L665.5,865.09 L716,847.56 L766.5,821.95 L817,787.14 L867.5,746.47 L918,717.63 L968.5,737.34 L1019,802.75 L1069.5,853.28 L1120,875.89"/><path class="lynx" d="M110,896.13 L160.5,890.97 L211,876.67 L261.5,845.03 L312,804.32 L362.5,792.54 L413,811.42 L463.5,837.4 L514,859.27 L564.5,875.09 L615,885.72 L665.5,892.43 L716,896.12 L766.5,897.16 L817,894.96 L867.5,886.99 L918,866.58 L968.5,827.58 L1019,793.97 L1069.5,797.31 L1120,821.67"/><path class="hare" d="M110,813.15 L160.5,769.41 L211,725.44 L261.5,722.49 L312,788.67 L362.5,852.26 L413,880.23 L463.5,889.88 L514,891.81 L564.5,889.26 L615,882.55 L665.5,870.58 L716,851.16 L766.5,821.42 L817,779.66 L867.5,732.9 L918,715.32 L968.5,770.2 L1019,841.72 L1069.5,876.52 L1120,888.92"/><path class="lynx" d="M110,895.82 L160.5,890.84 L211,875.5 L261.5,839.19 L312,794.72 L362.5,788.18 L413,811.52 L463.5,838.58 L514,860.25 L564.5,875.69 L615,886.03 L665.5,892.5 L716,895.91 L766.5,896.4 L817,892.79 L867.5,880.62 L918,849.46 L968.5,802.03 L1019,785.12 L1069.5,804.9 L1120,832.7"/><path class="hare" d="M110,803.35 L160.5,746.43 L211,677 L261.5,645.49 L312,735.74 L362.5,840.48 L413,880.66 L463.5,892.81 L514,895.58 L564.5,893.86 L615,888.34 L665.5,878.01 L716,860.6 L766.5,832.38 L817,788.48 L867.5,725.76 L918,657.91 L968.5,656.99 L1019,773.03 L1069.5,857.91 L1120,886.28"/><path class="lynx" d="M110,898.01 L160.5,894 L211,879.21 L261.5,833.66 L312,753.26 L362.5,731.29 L413,768.27 L463.5,810.82 L514,843.47 L564.5,865.98 L615,880.8 L665.5,890.2 L716,895.75 L766.5,898.3 L817,897.69 L867.5,891.62 L918,870.73 L968.5,810.86 L1019,735.9 L1069.5,738.17 L1120,780.96"/><path class="hare" d="M110,815.51 L160.5,767.99 L211,707.36 L261.5,662.34 L312,705.69 L362.5,809.69 L413,865.99 L463.5,885.21 L514,890.59 L564.5,889.84 L615,884.65 L665.5,874.43 L716,857.22 L766.5,829.83 L817,788.32 L867.5,731.14 L918,672.54 L968.5,673.14 L1019,771.44 L1069.5,850.85 L1120,880.6"/><path class="lynx" d="M110,897.32 L160.5,895.04 L211,885.25 L261.5,855.77 L312,792.91 L362.5,750.82 L413,770.4 L463.5,808.4 L514,840.77 L564.5,863.84 L615,879.21 L665.5,888.97 L716,894.74 L766.5,897.36 L817,896.75 L867.5,890.75 L918,871.24 L968.5,820.09 L1019,758 L1069.5,757.16 L1120,793.22"/><path class="hare" d="M110,796.27 L160.5,743.5 L211,683.32 L261.5,658.77 L312,732.57 L362.5,827.87 L413,871.09 L463.5,885.58 L514,889.11 L564.5,887.14 L615,880.63 L665.5,868.7 L716,849.21 L766.5,818.93 L817,774.31 L867.5,715.46 L918,661.81 L968.5,678.18 L1019,780.67 L1069.5,853.16 L1120,880.06"/><path class="lynx" d="M110,899.67 L160.5,896.09 L211,883.97 L261.5,850.4 L312,794.76 L362.5,775.58 L413,800.11 L463.5,832 L514,857.44 L564.5,875.19 L615,886.89 L665.5,894.24 L716,898.45 L766.5,900.11 L817,898.91 L867.5,892.52 L918,872.9 L968.5,825.56 L1019,777.71 L1069.5,783 L1120,814.46"/><path class="hare" d="M110,824.53 L160.5,780.06 L211,718.88 L261.5,657.13 L312,664.36 L362.5,775.57 L413,855 L463.5,882.52 L514,890.55 L564.5,891.09 L615,887.03 L665.5,878.27 L716,863.17 L766.5,838.8 L817,801.08 L867.5,746.34 L918,679.57 L968.5,644.23 L1019,722.69 L1069.5,830.16 L1120,874.99"/><path class="lynx" d="M110,899.72 L160.5,898.92 L211,892.83 L261.5,872.61 L312,817.83 L362.5,755.26 L413,760.93 L463.5,800.02 L514,835.96 L564.5,861.72 L615,878.75 L665.5,889.53 L716,896 L766.5,899.35 L817,899.93 L867.5,896.66 L918,884.41 L968.5,846.61 L1019,775.22 L1069.5,749.68 L1120,782.01"/><path class="hare" d="M110,818.3 L160.5,770.04 L211,703.14 L261.5,635.58 L312,643.1 L362.5,761.76 L413,847.56 L463.5,877.85 L514,886.67 L564.5,886.98 L615,881.85 L665.5,870.96 L716,852.15 L766.5,821.72 L817,774.83 L867.5,708.8 L918,638.41 L968.5,634.92 L1019,750.72 L1069.5,843.52 L1120,876.91"/><path class="lynx" d="M110,899.45 L160.5,898.95 L211,893.44 L261.5,875.08 L312,826.71 L362.5,772.9 L413,777.88 L463.5,811.97 L514,843.62 L564.5,866.47 L615,881.62 L665.5,891.21 L716,896.87 L766.5,899.57 L817,899.36 L867.5,894.5 L918,877.86 L968.5,832.07 L1019,774.49 L1069.5,774.76 L1120,808.57"/><path class="hare" d="M110,833.12 L160.5,793.7 L211,737.17 L261.5,670.64 L312,640.72 L362.5,720.26 L413,823.64 L463.5,869.05 L514,883.71 L564.5,886.76 L615,883.75 L665.5,875.39 L716,860.31 L766.5,835.63 L817,797.25 L867.5,741.62 L918,674.23 L968.5,637.71 L1019,710.29 L1069.5,818.33 L1120,867.59"/><path class="lynx" d="M110,893.26 L160.5,894.13 L211,889.91 L261.5,874.4 L312,829.98 L362.5,754.75 L413,730.35 L463.5,764.99 L514,808.01 L564.5,841.55 L615,864.53 L665.5,879.39 L716,888.47 L766.5,893.33 L817,894.49 L867.5,890.81 L918,876.64 L968.5,835.02 L1019,758.95 L1069.5,728.17 L1120,761"/><path class="hare" d="M110,814.46 L160.5,759.28 L211,681.78 L261.5,608.88 L312,648.43 L362.5,793.21 L413,865.74 L463.5,887.21 L514,892.66 L564.5,891.71 L615,886.11 L665.5,874.99 L716,855.71 L766.5,823.85 L817,773.33 L867.5,699.63 L918,618.56 L968.5,621.81 L1019,764.6 L1069.5,856.75 L1120,884.97"/><path class="lynx" d="M110,897.82 L160.5,896.51 L211,888 L261.5,858.15 L312,778.84 L362.5,715.74 L413,742.13 L463.5,791.59 L514,831.64 L564.5,859.18 L615,877.06 L665.5,888.23 L716,894.77 L766.5,897.85 L817,897.5 L867.5,891.28 L918,868.5 L968.5,800.05 L1019,719.41 L1069.5,730.97 L1120,780.62"/><path class="hare" d="M110,811.12 L160.5,767.77 L211,715.49 L261.5,678.16 L312,707.84 L362.5,793.92 L413,852.82 L463.5,876.89 L514,884.98 L564.5,885.75 L615,881.72 L665.5,872.93 L716,858.09 L766.5,834.93 L817,800.63 L867.5,753.72 L918,701.17 L968.5,676.05 L1019,728.57 L1069.5,814.48 L1120,862.25"/><path class="lynx" d="M110,894.51 L160.5,891.89 L211,882.1 L261.5,855.95 L312,804.8 L362.5,764 L413,772 L463.5,803.19 L514,833.66 L564.5,856.97 L615,873.26 L665.5,884.05 L716,890.72 L766.5,894.16 L817,894.49 L867.5,890.46 L918,877.49 L968.5,844.47 L1019,789.36 L1069.5,760.83 L1120,778.99"/><path class="hare" d="M110,823.47 L160.5,773.07 L211,706.59 L261.5,663.54 L312,735.18 L362.5,840.11 L413,881.39 L463.5,893.35 L514,895.71 L564.5,893.34 L615,886.7 L665.5,874.31 L716,853.15 L766.5,818.54 L817,765.5 L867.5,697.64 L918,662.76 L968.5,749.09 L1019,848.28 L1069.5,884.14 L1120,894.32"/><path class="lynx" d="M110,898.38 L160.5,896 L211,884.89 L261.5,848.2 L312,773.92 L362.5,746.74 L413,780.31 L463.5,820.52 L514,851.03 L564.5,871.65 L615,884.9 L665.5,893 L716,897.39 L766.5,898.6 L817,895.6 L867.5,882.77 L918,841.02 L968.5,765.18 L1019,747.76 L1069.5,784.78 L1120,824.51"/><path class="hare" d="M110,799.75 L160.5,747.07 L211,687.83 L261.5,669.33 L312,749.9 L362.5,838.76 L413,875.98 L463.5,887.98 L514,890.42 L564.5,887.75 L615,880.52 L665.5,867.55 L716,846.37 L766.5,813.42 L817,765.31 L867.5,704.99 L918,663.99 L968.5,714.61 L1019,816.53 L1069.5,868.51 L1120,885.97"/><path class="lynx" d="M110,895.65 L160.5,890.86 L211,874.47 L261.5,829.12 L312,759.6 L362.5,743.44 L413,777.44 L463.5,816.84 L514,847.29 L564.5,868.24 L615,881.87 L665.5,890.3 L716,894.91 L766.5,896.26 L817,893.47 L867.5,882.16 L918,848.37 L968.5,779.45 L1019,739.34 L1069.5,763.73 L1120,804.64"/><path class="hare" d="M110,831.32 L160.5,784.23 L211,717.6 L261.5,655.42 L312,690.89 L362.5,812.89 L413,873.38 L463.5,891.38 L514,895.94 L564.5,895.04 L615,890.08 L665.5,880.18 L716,862.88 L766.5,834.04 L817,788.12 L867.5,722.09 L918,656.32 L968.5,681.61 L1019,805.77 L1069.5,871.52 L1120,891.1"/><path class="lynx" d="M110,897.82 L160.5,896.69 L211,888.66 L261.5,860.59 L312,788.17 L362.5,733.01 L413,757.09 L463.5,801.39 L514,837.5 L564.5,862.57 L615,878.98 L665.5,889.29 L716,895.31 L766.5,898.01 L817,897.21 L867.5,889.98 L918,864.21 L968.5,794 L1019,732.5 L1069.5,753.2 L1120,798.03"/><path class="hare" d="M110,810.17 L160.5,754.4 L211,680.64 L261.5,628.14 L312,700.41 L362.5,824.34 L413,875.38 L463.5,890.24 L514,893.49 L564.5,891.39 L615,884.8 L665.5,872.45 L716,851.53 L766.5,817.55 L817,764.98 L867.5,692.56 L918,629.12 L968.5,676.77 L1019,808.94 L1069.5,871.03 L1120,889.3"/><path class="lynx" d="M110,898.61 L160.5,896.15 L211,884.99 L261.5,847.48 L312,764.89 L362.5,727.04 L413,762.83 L463.5,808.71 L514,843.7 L564.5,867.27 L615,882.35 L665.5,891.61 L716,896.82 L766.5,898.85 L817,897.24 L867.5,888.31 L918,857.35 L968.5,778.9 L1019,724.95 L1069.5,754.11 L1120,801.32"/><path class="hare" d="M110,821.89 L160.5,773.5 L211,705.29 L261.5,633.77 L312,638.92 L362.5,765.63 L413,853.84 L463.5,883.14 L514,891.6 L564.5,892.42 L615,888.7 L665.5,880.35 L716,865.68 L766.5,841.54 L817,803.28 L867.5,745.82 L918,670.87 L968.5,617.01 L1019,685.79 L1069.5,814.58 L1120,871.39"/><path class="lynx" d="M110,898.78 L160.5,898.05 L211,891.77 L261.5,870.28 L312,809.81 L362.5,738.78 L413,744.87 L463.5,787.82 L514,827.18 L564.5,855.52 L615,874.43 L665.5,886.55 L716,893.97 L766.5,898.01 L817,899.16 L867.5,896.58 L918,885.75 L968.5,850.46 L1019,772.42 L1069.5,731 L1120,761.79"/><path class="hare" d="M110,823.18 L160.5,775.16 L211,708.67 L261.5,644.09 L312,667.2 L362.5,794.15 L413,867.13 L463.5,889.86 L514,896.35 L564.5,896.94 L615,893.98 L665.5,887.4 L716,875.86 L766.5,856.84 L817,826.47 L867.5,779.79 L918,714.1 L968.5,646.16 L1019,657.33 L1069.5,784.11 L1120,864.11"/><path class="lynx" d="M110,900.54 L160.5,899.1 L211,891.67 L261.5,866.55 L312,797.67 L362.5,730.28 L413,745.44 L463.5,790.19 L514,829 L564.5,856.69 L615,875.21 L665.5,887.2 L716,894.69 L766.5,898.99 L817,900.75 L867.5,899.64 L918,893.03 L968.5,870.36 L1019,805 L1069.5,731.31 L1120,741.11"/><path class="hare" d="M110,813.91 L160.5,769.37 L211,710.61 L261.5,654.76 L312,661.39 L362.5,759.07 L413,838.92 L463.5,870.68 L514,880.52 L564.5,880.93 L615,875.28 L665.5,863.46 L716,843.64 L766.5,812.8 L817,767.52 L867.5,707.92 L918,652.08 L968.5,661.79 L1019,762.29 L1069.5,841.03 L1120,871.71"/><path class="lynx" d="M110,895.89 L160.5,895.1 L211,888.42 L261.5,867.67 L312,817.08 L362.5,760.46 L413,762.01 L463.5,798.01 L514,833.4 L564.5,859.33 L615,876.53 L665.5,887.29 L716,893.49 L766.5,896.18 L817,895.26 L867.5,888.34 L918,866.88 L968.5,814.75 L1019,758.44 L1069.5,762.07 L1120,798.9"/><path class="hare" d="M110,823.65 L160.5,782.69 L211,735.19 L261.5,712.49 L312,762.84 L362.5,837.64 L413,875.08 L463.5,888.31 L514,891.71 L564.5,890.09 L615,884.33 L665.5,873.61 L716,855.99 L766.5,828.65 L817,789.18 L867.5,741.07 L918,710.67 L968.5,750.46 L1019,828.92 L1069.5,871.99 L1120,887.52"/><path class="lynx" d="M110,897.2 L160.5,894.08 L211,882.92 L261.5,853.07 L312,803.43 L362.5,782.32 L413,802.01 L463.5,831.26 L514,855.67 L564.5,873.14 L615,884.82 L665.5,892.18 L716,896.28 L766.5,897.5 L817,895.11 L867.5,885.65 L918,859.28 L968.5,809.93 L1019,781.33 L1069.5,797.38 L1120,826.93"/><circle class="hare-point" cx="110" cy="328.75" r="5"/><circle class="lynx-point" cx="110" cy="403.5" r="5"/><circle class="hare-point" cx="160.5" cy="279.3" r="5"/><circle class="lynx-point" cx="160.5" cy="397.46" r="5"/><circle class="hare-point" cx="211" cy="213.18" r="5"/><circle class="lynx-point" cx="211" cy="386.82" r="5"/><circle class="hare-point" cx="261.5" cy="192.47" r="5"/><circle class="lynx-point" cx="261.5" cy="313.8" r="5"/><circle class="hare-point" cx="312" cy="310.64" r="5"/><circle class="lynx-point" cx="312" cy="244.22" r="5"/><circle class="hare-point" cx="362.5" cy="355.77" r="5"/><circle class="lynx-point" cx="362.5" cy="295.11" r="5"/><circle class="hare-point" cx="413" cy="362.96" r="5"/><circle class="lynx-point" cx="413" cy="360.38" r="5"/><circle class="hare-point" cx="463.5" cy="353.48" r="5"/><circle class="lynx-point" cx="463.5" cy="377.62" r="5"/><circle class="hare-point" cx="514" cy="351.75" r="5"/><circle class="lynx-point" cx="514" cy="391.14" r="5"/><circle class="hare-point" cx="564.5" cy="341.98" r="5"/><circle class="lynx-point" cx="564.5" cy="388.84" r="5"/><circle class="hare-point" cx="615" cy="337.09" r="5"/><circle class="lynx-point" cx="615" cy="393.73" r="5"/><circle class="hare-point" cx="665.5" cy="299.14" r="5"/><circle class="lynx-point" cx="665.5" cy="392" r="5"/><circle class="hare-point" cx="716" cy="251.12" r="5"/><circle class="lynx-point" cx="716" cy="379.64" r="5"/><circle class="hare-point" cx="766.5" cy="194.78" r="5"/><circle class="lynx-point" cx="766.5" cy="358.94" r="5"/><circle class="hare-point" cx="817" cy="264.64" r="5"/><circle class="lynx-point" cx="817" cy="283.61" r="5"/><circle class="hare-point" cx="867.5" cy="358.94" r="5"/><circle class="lynx-point" cx="867.5" cy="268.09" r="5"/><circle class="hare-point" cx="918" cy="382.8" r="5"/><circle class="lynx-point" cx="918" cy="329.61" r="5"/><circle class="hare-point" cx="968.5" cy="393.15" r="5"/><circle class="lynx-point" cx="968.5" cy="369.57" r="5"/><circle class="hare-point" cx="1019" cy="373.02" r="5"/><circle class="lynx-point" cx="1019" cy="387.11" r="5"/><circle class="hare-point" cx="1069.5" cy="368.43" r="5"/><circle class="lynx-point" cx="1069.5" cy="385.96" r="5"/><circle class="hare-point" cx="1120" cy="343.99" r="5"/><circle class="lynx-point" cx="1120" cy="390.27" r="5"/><text class="axis" x="98" y="420" text-anchor="end">0</text><text class="axis" x="98" y="362.5" text-anchor="end">20</text><text class="axis" x="98" y="305" text-anchor="end">40</text><text class="axis" x="98" y="247.5" text-anchor="end">60</text><text class="axis" x="98" y="190" text-anchor="end">80</text><text class="axis" x="98" y="132.5" text-anchor="end">100</text><text class="axis" x="98" y="75" text-anchor="end">120</text><text class="axis" x="110" y="442" text-anchor="middle">1900</text><text class="axis" x="615" y="442" text-anchor="middle">1910</text><text class="axis" x="1120" y="442" text-anchor="middle">1920</text><text class="label" x="615.0" y="473" text-anchor="middle">年份</text><text class="axis" x="98" y="920" text-anchor="end">0</text><text class="axis" x="98" y="851" text-anchor="end">100</text><text class="axis" x="98" y="782" text-anchor="end">200</text><text class="axis" x="98" y="713" text-anchor="end">300</text><text class="axis" x="98" y="644" text-anchor="end">400</text><text class="axis" x="98" y="575" text-anchor="end">500</text><text class="axis" x="110" y="942" text-anchor="middle">1900</text><text class="axis" x="615" y="942" text-anchor="middle">1910</text><text class="axis" x="1120" y="942" text-anchor="middle">1920</text><text class="label" x="615.0" y="973" text-anchor="middle">年份</text><text class="label" x="31" y="242.5" text-anchor="middle" transform="rotate(-90 31 242.5)">毛皮数量（千张）</text><text class="label" x="31" y="742.5" text-anchor="middle" transform="rotate(-90 31 742.5)">动物数量（千只）</text><text class="label" x="817" y="139" fill="#202420">雪兔</text><text class="label" x="918" y="271.25" fill="#6874ef">猞猁</text><text class="label" x="817" y="632.1" fill="#202420">雪兔</text><text class="label" x="918" y="770.1" fill="#6874ef">猞猁</text></svg>