<?xml version="1.0" encoding="UTF-8"?>
<svg xmlns="http://www.w3.org/2000/svg" width="900" height="680" viewBox="0 0 900 680" role="img">
<title>未观测社区因素与三代教育成就中的碰撞点偏差</title>
<desc>好社区与差社区各形成正向点云，但在父母教育第45至60百分位内，祖父母与孙辈教育的斜率为 -0.33。</desc>
<rect width="100%" height="100%" fill="#fff"/>
<rect x="115" y="90" width="700" height="470" fill="#fff" stroke="#343732" stroke-width="1.5"/>
<circle cx="360.40" cy="226.63" r="4.7" fill="#fff" stroke="#6670ee" stroke-width="1.7"/>
<circle cx="705.31" cy="414.23" r="4.7" fill="#fff" stroke="#30332e" stroke-width="1.7"/>
<circle cx="496.76" cy="350.14" r="4.7" fill="#fff" stroke="#30332e" stroke-width="1.7"/>
<circle cx="462.99" cy="201.55" r="4.7" fill="#fff" stroke="#6670ee" stroke-width="1.7"/>
<circle cx="511.49" cy="234.56" r="4.7" fill="#fff" stroke="#6670ee" stroke-width="1.7"/>
<circle cx="584.62" cy="227.89" r="4.7" fill="#fff" stroke="#6670ee" stroke-width="1.7"/>
<circle cx="697.49" cy="424.97" r="4.7" fill="#fff" stroke="#30332e" stroke-width="1.7"/>
<circle cx="459.27" cy="381.42" r="4.7" fill="#fff" stroke="#30332e" stroke-width="1.7"/>
<circle cx="430.75" cy="221.38" r="4.7" fill="#fff" stroke="#6670ee" stroke-width="1.7"/>
<circle cx="551.42" cy="207.94" r="4.7" fill="#fff" stroke="#6670ee" stroke-width="1.7"/>
<circle cx="367.00" cy="402.00" r="4.7" fill="#fff" stroke="#30332e" stroke-width="1.7"/>
<circle cx="262.71" cy="287.03" r="6.2" fill="#6670ee" opacity="0.95"/>
<circle cx="582.96" cy="365.87" r="4.7" fill="#fff" stroke="#30332e" stroke-width="1.7"/>
<circle cx="429.25" cy="280.80" r="6.2" fill="#6670ee" opacity="0.95"/>
<circle cx="619.75" cy="207.13" r="4.7" fill="#fff" stroke="#6670ee" stroke-width="1.7"/>
<circle cx="347.38" cy="403.72" r="4.7" fill="#fff" stroke="#30332e" stroke-width="1.7"/>
<circle cx="110.93" cy="304.79" r="4.7" fill="#fff" stroke="#6670ee" stroke-width="1.7"/>
<circle cx="513.02" cy="419.10" r="4.7" fill="#fff" stroke="#30332e" stroke-width="1.7"/>
<circle cx="496.83" cy="371.30" r="6.2" fill="#30332e" opacity="0.95"/>
<circle cx="679.65" cy="237.94" r="4.7" fill="#fff" stroke="#6670ee" stroke-width="1.7"/>
<circle cx="543.70" cy="180.45" r="4.7" fill="#fff" stroke="#6670ee" stroke-width="1.7"/>
<circle cx="516.36" cy="366.26" r="4.7" fill="#fff" stroke="#30332e" stroke-width="1.7"/>
<circle cx="551.43" cy="392.20" r="4.7" fill="#fff" stroke="#30332e" stroke-width="1.7"/>
<circle cx="430.79" cy="204.05" r="4.7" fill="#fff" stroke="#6670ee" stroke-width="1.7"/>
<circle cx="487.04" cy="226.38" r="4.7" fill="#fff" stroke="#6670ee" stroke-width="1.7"/>
<circle cx="306.25" cy="205.64" r="4.7" fill="#fff" stroke="#6670ee" stroke-width="1.7"/>
<circle cx="542.89" cy="227.69" r="4.7" fill="#fff" stroke="#6670ee" stroke-width="1.7"/>
<circle cx="375.38" cy="272.84" r="6.2" fill="#6670ee" opacity="0.95"/>
<circle cx="420.85" cy="240.94" r="6.2" fill="#6670ee" opacity="0.95"/>
<circle cx="565.73" cy="237.14" r="4.7" fill="#fff" stroke="#6670ee" stroke-width="1.7"/>
<circle cx="593.03" cy="239.38" r="4.7" fill="#fff" stroke="#6670ee" stroke-width="1.7"/>
<circle cx="349.85" cy="234.84" r="4.7" fill="#fff" stroke="#6670ee" stroke-width="1.7"/>
<circle cx="730.67" cy="177.59" r="4.7" fill="#fff" stroke="#6670ee" stroke-width="1.7"/>
<circle cx="402.41" cy="213.32" r="4.7" fill="#fff" stroke="#6670ee" stroke-width="1.7"/>
<circle cx="582.84" cy="199.08" r="4.7" fill="#fff" stroke="#6670ee" stroke-width="1.7"/>
<circle cx="597.55" cy="225.91" r="4.7" fill="#fff" stroke="#6670ee" stroke-width="1.7"/>
<circle cx="505.57" cy="374.29" r="4.7" fill="#fff" stroke="#30332e" stroke-width="1.7"/>
<circle cx="499.01" cy="406.43" r="4.7" fill="#fff" stroke="#30332e" stroke-width="1.7"/>
<circle cx="704.54" cy="369.47" r="6.2" fill="#30332e" opacity="0.95"/>
<circle cx="589.82" cy="209.17" r="4.7" fill="#fff" stroke="#6670ee" stroke-width="1.7"/>
<circle cx="533.57" cy="344.57" r="4.7" fill="#fff" stroke="#30332e" stroke-width="1.7"/>
<circle cx="246.51" cy="433.25" r="4.7" fill="#fff" stroke="#30332e" stroke-width="1.7"/>
<circle cx="382.74" cy="263.47" r="4.7" fill="#fff" stroke="#6670ee" stroke-width="1.7"/>
<circle cx="624.28" cy="218.14" r="4.7" fill="#fff" stroke="#6670ee" stroke-width="1.7"/>
<circle cx="501.78" cy="379.86" r="4.7" fill="#fff" stroke="#30332e" stroke-width="1.7"/>
<circle cx="356.44" cy="413.08" r="4.7" fill="#fff" stroke="#30332e" stroke-width="1.7"/>
<circle cx="395.98" cy="426.97" r="4.7" fill="#fff" stroke="#30332e" stroke-width="1.7"/>
<circle cx="438.51" cy="214.85" r="4.7" fill="#fff" stroke="#6670ee" stroke-width="1.7"/>
<circle cx="564.00" cy="376.28" r="6.2" fill="#30332e" opacity="0.95"/>
<circle cx="526.18" cy="384.72" r="4.7" fill="#fff" stroke="#30332e" stroke-width="1.7"/>
<circle cx="603.38" cy="201.95" r="4.7" fill="#fff" stroke="#6670ee" stroke-width="1.7"/>
<circle cx="373.90" cy="412.39" r="4.7" fill="#fff" stroke="#30332e" stroke-width="1.7"/>
<circle cx="601.94" cy="352.38" r="4.7" fill="#fff" stroke="#30332e" stroke-width="1.7"/>
<circle cx="413.76" cy="403.80" r="4.7" fill="#fff" stroke="#30332e" stroke-width="1.7"/>
<circle cx="439.43" cy="377.18" r="4.7" fill="#fff" stroke="#30332e" stroke-width="1.7"/>
<circle cx="696.43" cy="332.15" r="4.7" fill="#fff" stroke="#30332e" stroke-width="1.7"/>
<circle cx="486.61" cy="227.71" r="4.7" fill="#fff" stroke="#6670ee" stroke-width="1.7"/>
<circle cx="459.60" cy="256.81" r="4.7" fill="#fff" stroke="#6670ee" stroke-width="1.7"/>
<circle cx="450.64" cy="444.64" r="4.7" fill="#fff" stroke="#30332e" stroke-width="1.7"/>
<circle cx="428.56" cy="277.43" r="6.2" fill="#6670ee" opacity="0.95"/>
<circle cx="674.46" cy="186.79" r="4.7" fill="#fff" stroke="#6670ee" stroke-width="1.7"/>
<circle cx="651.34" cy="352.06" r="6.2" fill="#30332e" opacity="0.95"/>
<circle cx="567.91" cy="363.96" r="4.7" fill="#fff" stroke="#30332e" stroke-width="1.7"/>
<circle cx="500.53" cy="390.13" r="6.2" fill="#30332e" opacity="0.95"/>
<circle cx="609.09" cy="210.15" r="4.7" fill="#fff" stroke="#6670ee" stroke-width="1.7"/>
<circle cx="467.40" cy="218.76" r="4.7" fill="#fff" stroke="#6670ee" stroke-width="1.7"/>
<circle cx="534.48" cy="422.24" r="4.7" fill="#fff" stroke="#30332e" stroke-width="1.7"/>
<circle cx="528.06" cy="401.04" r="4.7" fill="#fff" stroke="#30332e" stroke-width="1.7"/>
<circle cx="488.48" cy="438.18" r="4.7" fill="#fff" stroke="#30332e" stroke-width="1.7"/>
<circle cx="685.72" cy="198.46" r="4.7" fill="#fff" stroke="#6670ee" stroke-width="1.7"/>
<circle cx="699.23" cy="193.56" r="4.7" fill="#fff" stroke="#6670ee" stroke-width="1.7"/>
<circle cx="644.64" cy="231.60" r="4.7" fill="#fff" stroke="#6670ee" stroke-width="1.7"/>
<circle cx="235.27" cy="274.10" r="6.2" fill="#6670ee" opacity="0.95"/>
<circle cx="709.43" cy="332.06" r="6.2" fill="#30332e" opacity="0.95"/>
<circle cx="566.07" cy="362.05" r="4.7" fill="#fff" stroke="#30332e" stroke-width="1.7"/>
<circle cx="420.25" cy="350.11" r="4.7" fill="#fff" stroke="#30332e" stroke-width="1.7"/>
<circle cx="474.15" cy="217.75" r="4.7" fill="#fff" stroke="#6670ee" stroke-width="1.7"/>
<circle cx="621.20" cy="176.85" r="4.7" fill="#fff" stroke="#6670ee" stroke-width="1.7"/>
<circle cx="625.82" cy="342.95" r="6.2" fill="#30332e" opacity="0.95"/>
<circle cx="585.38" cy="391.13" r="4.7" fill="#fff" stroke="#30332e" stroke-width="1.7"/>
<circle cx="495.05" cy="340.21" r="4.7" fill="#fff" stroke="#30332e" stroke-width="1.7"/>
<circle cx="481.76" cy="428.18" r="4.7" fill="#fff" stroke="#30332e" stroke-width="1.7"/>
<circle cx="582.47" cy="404.58" r="4.7" fill="#fff" stroke="#30332e" stroke-width="1.7"/>
<circle cx="465.67" cy="232.85" r="4.7" fill="#fff" stroke="#6670ee" stroke-width="1.7"/>
<circle cx="363.65" cy="400.64" r="4.7" fill="#fff" stroke="#30332e" stroke-width="1.7"/>
<circle cx="398.39" cy="431.18" r="4.7" fill="#fff" stroke="#30332e" stroke-width="1.7"/>
<circle cx="459.57" cy="405.23" r="4.7" fill="#fff" stroke="#30332e" stroke-width="1.7"/>
<circle cx="519.29" cy="208.23" r="4.7" fill="#fff" stroke="#6670ee" stroke-width="1.7"/>
<circle cx="763.54" cy="159.91" r="4.7" fill="#fff" stroke="#6670ee" stroke-width="1.7"/>
<circle cx="303.99" cy="391.33" r="4.7" fill="#fff" stroke="#30332e" stroke-width="1.7"/>
<circle cx="537.59" cy="377.26" r="6.2" fill="#30332e" opacity="0.95"/>
<circle cx="465.64" cy="239.18" r="4.7" fill="#fff" stroke="#6670ee" stroke-width="1.7"/>
<circle cx="515.29" cy="446.03" r="4.7" fill="#fff" stroke="#30332e" stroke-width="1.7"/>
<circle cx="648.47" cy="411.70" r="4.7" fill="#fff" stroke="#30332e" stroke-width="1.7"/>
<circle cx="634.24" cy="371.75" r="4.7" fill="#fff" stroke="#30332e" stroke-width="1.7"/>
<circle cx="457.35" cy="460.77" r="4.7" fill="#fff" stroke="#30332e" stroke-width="1.7"/>
<circle cx="406.71" cy="419.98" r="4.7" fill="#fff" stroke="#30332e" stroke-width="1.7"/>
<circle cx="304.86" cy="435.95" r="4.7" fill="#fff" stroke="#30332e" stroke-width="1.7"/>
<circle cx="468.22" cy="414.81" r="4.7" fill="#fff" stroke="#30332e" stroke-width="1.7"/>
<circle cx="634.95" cy="229.24" r="4.7" fill="#fff" stroke="#6670ee" stroke-width="1.7"/>
<circle cx="443.71" cy="216.05" r="6.2" fill="#6670ee" opacity="0.95"/>
<circle cx="566.26" cy="359.43" r="4.7" fill="#fff" stroke="#30332e" stroke-width="1.7"/>
<circle cx="566.79" cy="391.58" r="4.7" fill="#fff" stroke="#30332e" stroke-width="1.7"/>
<circle cx="527.47" cy="236.90" r="4.7" fill="#fff" stroke="#6670ee" stroke-width="1.7"/>
<circle cx="614.34" cy="407.71" r="4.7" fill="#fff" stroke="#30332e" stroke-width="1.7"/>
<circle cx="462.86" cy="244.72" r="4.7" fill="#fff" stroke="#6670ee" stroke-width="1.7"/>
<circle cx="372.33" cy="264.18" r="6.2" fill="#6670ee" opacity="0.95"/>
<circle cx="328.94" cy="240.03" r="4.7" fill="#fff" stroke="#6670ee" stroke-width="1.7"/>
<circle cx="594.46" cy="377.46" r="4.7" fill="#fff" stroke="#30332e" stroke-width="1.7"/>
<circle cx="431.44" cy="409.16" r="4.7" fill="#fff" stroke="#30332e" stroke-width="1.7"/>
<circle cx="437.90" cy="410.81" r="4.7" fill="#fff" stroke="#30332e" stroke-width="1.7"/>
<circle cx="582.75" cy="179.51" r="4.7" fill="#fff" stroke="#6670ee" stroke-width="1.7"/>
<circle cx="377.43" cy="284.71" r="6.2" fill="#6670ee" opacity="0.95"/>
<circle cx="701.13" cy="178.43" r="4.7" fill="#fff" stroke="#6670ee" stroke-width="1.7"/>
<circle cx="561.49" cy="213.57" r="4.7" fill="#fff" stroke="#6670ee" stroke-width="1.7"/>
<circle cx="410.60" cy="430.21" r="4.7" fill="#fff" stroke="#30332e" stroke-width="1.7"/>
<circle cx="397.10" cy="440.01" r="4.7" fill="#fff" stroke="#30332e" stroke-width="1.7"/>
<circle cx="614.04" cy="423.31" r="4.7" fill="#fff" stroke="#30332e" stroke-width="1.7"/>
<circle cx="327.50" cy="401.72" r="4.7" fill="#fff" stroke="#30332e" stroke-width="1.7"/>
<circle cx="396.16" cy="369.16" r="4.7" fill="#fff" stroke="#30332e" stroke-width="1.7"/>
<circle cx="478.02" cy="188.01" r="4.7" fill="#fff" stroke="#6670ee" stroke-width="1.7"/>
<circle cx="502.88" cy="352.03" r="4.7" fill="#fff" stroke="#30332e" stroke-width="1.7"/>
<circle cx="479.15" cy="355.96" r="4.7" fill="#fff" stroke="#30332e" stroke-width="1.7"/>
<circle cx="526.20" cy="274.31" r="4.7" fill="#fff" stroke="#6670ee" stroke-width="1.7"/>
<circle cx="431.21" cy="235.76" r="4.7" fill="#fff" stroke="#6670ee" stroke-width="1.7"/>
<circle cx="461.89" cy="291.60" r="4.7" fill="#fff" stroke="#6670ee" stroke-width="1.7"/>
<circle cx="637.24" cy="360.56" r="4.7" fill="#fff" stroke="#30332e" stroke-width="1.7"/>
<circle cx="558.93" cy="231.27" r="4.7" fill="#fff" stroke="#6670ee" stroke-width="1.7"/>
<circle cx="420.36" cy="299.11" r="6.2" fill="#6670ee" opacity="0.95"/>
<circle cx="694.09" cy="331.86" r="4.7" fill="#fff" stroke="#30332e" stroke-width="1.7"/>
<circle cx="225.45" cy="251.24" r="6.2" fill="#6670ee" opacity="0.95"/>
<circle cx="487.90" cy="225.97" r="4.7" fill="#fff" stroke="#6670ee" stroke-width="1.7"/>
<circle cx="561.74" cy="246.98" r="4.7" fill="#fff" stroke="#6670ee" stroke-width="1.7"/>
<circle cx="600.22" cy="354.00" r="6.2" fill="#30332e" opacity="0.95"/>
<circle cx="491.36" cy="288.39" r="6.2" fill="#6670ee" opacity="0.95"/>
<circle cx="428.58" cy="202.14" r="4.7" fill="#fff" stroke="#6670ee" stroke-width="1.7"/>
<circle cx="551.31" cy="401.99" r="4.7" fill="#fff" stroke="#30332e" stroke-width="1.7"/>
<circle cx="452.77" cy="257.34" r="6.2" fill="#6670ee" opacity="0.95"/>
<circle cx="537.27" cy="208.19" r="4.7" fill="#fff" stroke="#6670ee" stroke-width="1.7"/>
<circle cx="115.94" cy="310.50" r="4.7" fill="#fff" stroke="#6670ee" stroke-width="1.7"/>
<circle cx="525.48" cy="256.81" r="6.2" fill="#6670ee" opacity="0.95"/>
<circle cx="377.23" cy="256.38" r="4.7" fill="#fff" stroke="#6670ee" stroke-width="1.7"/>
<circle cx="596.24" cy="215.78" r="4.7" fill="#fff" stroke="#6670ee" stroke-width="1.7"/>
<circle cx="571.81" cy="237.86" r="4.7" fill="#fff" stroke="#6670ee" stroke-width="1.7"/>
<circle cx="569.41" cy="236.08" r="4.7" fill="#fff" stroke="#6670ee" stroke-width="1.7"/>
<circle cx="426.07" cy="428.22" r="4.7" fill="#fff" stroke="#30332e" stroke-width="1.7"/>
<circle cx="532.14" cy="376.29" r="4.7" fill="#fff" stroke="#30332e" stroke-width="1.7"/>
<circle cx="433.95" cy="236.21" r="6.2" fill="#6670ee" opacity="0.95"/>
<circle cx="504.42" cy="340.76" r="6.2" fill="#30332e" opacity="0.95"/>
<circle cx="460.10" cy="440.61" r="4.7" fill="#fff" stroke="#30332e" stroke-width="1.7"/>
<circle cx="367.03" cy="239.59" r="4.7" fill="#fff" stroke="#6670ee" stroke-width="1.7"/>
<circle cx="727.28" cy="204.56" r="4.7" fill="#fff" stroke="#6670ee" stroke-width="1.7"/>
<circle cx="568.77" cy="209.57" r="4.7" fill="#fff" stroke="#6670ee" stroke-width="1.7"/>
<circle cx="217.12" cy="428.63" r="4.7" fill="#fff" stroke="#30332e" stroke-width="1.7"/>
<circle cx="590.25" cy="234.86" r="4.7" fill="#fff" stroke="#6670ee" stroke-width="1.7"/>
<circle cx="300.90" cy="388.64" r="4.7" fill="#fff" stroke="#30332e" stroke-width="1.7"/>
<circle cx="447.88" cy="393.98" r="4.7" fill="#fff" stroke="#30332e" stroke-width="1.7"/>
<circle cx="403.64" cy="485.86" r="4.7" fill="#fff" stroke="#30332e" stroke-width="1.7"/>
<circle cx="409.63" cy="263.64" r="6.2" fill="#6670ee" opacity="0.95"/>
<circle cx="507.69" cy="392.35" r="4.7" fill="#fff" stroke="#30332e" stroke-width="1.7"/>
<circle cx="436.07" cy="396.70" r="4.7" fill="#fff" stroke="#30332e" stroke-width="1.7"/>
<circle cx="294.04" cy="453.91" r="4.7" fill="#fff" stroke="#30332e" stroke-width="1.7"/>
<circle cx="476.48" cy="209.95" r="4.7" fill="#fff" stroke="#6670ee" stroke-width="1.7"/>
<circle cx="523.38" cy="383.43" r="4.7" fill="#fff" stroke="#30332e" stroke-width="1.7"/>
<circle cx="701.04" cy="217.20" r="4.7" fill="#fff" stroke="#6670ee" stroke-width="1.7"/>
<circle cx="424.82" cy="425.32" r="4.7" fill="#fff" stroke="#30332e" stroke-width="1.7"/>
<circle cx="326.82" cy="313.93" r="6.2" fill="#6670ee" opacity="0.95"/>
<circle cx="429.12" cy="397.41" r="4.7" fill="#fff" stroke="#30332e" stroke-width="1.7"/>
<circle cx="559.84" cy="216.43" r="4.7" fill="#fff" stroke="#6670ee" stroke-width="1.7"/>
<circle cx="365.45" cy="269.06" r="6.2" fill="#6670ee" opacity="0.95"/>
<circle cx="386.04" cy="439.72" r="4.7" fill="#fff" stroke="#30332e" stroke-width="1.7"/>
<circle cx="547.32" cy="365.26" r="4.7" fill="#fff" stroke="#30332e" stroke-width="1.7"/>
<circle cx="475.83" cy="250.83" r="4.7" fill="#fff" stroke="#6670ee" stroke-width="1.7"/>
<circle cx="505.32" cy="404.48" r="4.7" fill="#fff" stroke="#30332e" stroke-width="1.7"/>
<circle cx="397.69" cy="271.06" r="6.2" fill="#6670ee" opacity="0.95"/>
<circle cx="372.75" cy="408.89" r="4.7" fill="#fff" stroke="#30332e" stroke-width="1.7"/>
<circle cx="436.25" cy="358.09" r="4.7" fill="#fff" stroke="#30332e" stroke-width="1.7"/>
<circle cx="457.76" cy="215.42" r="4.7" fill="#fff" stroke="#6670ee" stroke-width="1.7"/>
<circle cx="434.96" cy="239.46" r="4.7" fill="#fff" stroke="#6670ee" stroke-width="1.7"/>
<circle cx="531.77" cy="250.13" r="4.7" fill="#fff" stroke="#6670ee" stroke-width="1.7"/>
<circle cx="546.44" cy="351.73" r="6.2" fill="#30332e" opacity="0.95"/>
<circle cx="546.55" cy="190.49" r="4.7" fill="#fff" stroke="#6670ee" stroke-width="1.7"/>
<circle cx="537.85" cy="413.06" r="4.7" fill="#fff" stroke="#30332e" stroke-width="1.7"/>
<circle cx="365.20" cy="380.60" r="4.7" fill="#fff" stroke="#30332e" stroke-width="1.7"/>
<circle cx="335.66" cy="466.11" r="4.7" fill="#fff" stroke="#30332e" stroke-width="1.7"/>
<circle cx="578.63" cy="221.73" r="4.7" fill="#fff" stroke="#6670ee" stroke-width="1.7"/>
<circle cx="478.83" cy="349.91" r="4.7" fill="#fff" stroke="#30332e" stroke-width="1.7"/>
<circle cx="492.65" cy="328.04" r="4.7" fill="#fff" stroke="#30332e" stroke-width="1.7"/>
<circle cx="330.54" cy="427.74" r="4.7" fill="#fff" stroke="#30332e" stroke-width="1.7"/>
<circle cx="450.49" cy="412.72" r="4.7" fill="#fff" stroke="#30332e" stroke-width="1.7"/>
<circle cx="396.59" cy="201.50" r="4.7" fill="#fff" stroke="#6670ee" stroke-width="1.7"/>
<circle cx="367.92" cy="202.61" r="4.7" fill="#fff" stroke="#6670ee" stroke-width="1.7"/>
<circle cx="397.58" cy="286.52" r="4.7" fill="#fff" stroke="#6670ee" stroke-width="1.7"/>
<circle cx="288.26" cy="388.18" r="4.7" fill="#fff" stroke="#30332e" stroke-width="1.7"/>
<circle cx="488.02" cy="171.23" r="4.7" fill="#fff" stroke="#6670ee" stroke-width="1.7"/>
<circle cx="624.70" cy="204.56" r="4.7" fill="#fff" stroke="#6670ee" stroke-width="1.7"/>
<circle cx="387.71" cy="219.25" r="4.7" fill="#fff" stroke="#6670ee" stroke-width="1.7"/>
<circle cx="489.21" cy="440.73" r="4.7" fill="#fff" stroke="#30332e" stroke-width="1.7"/>
<circle cx="339.11" cy="216.59" r="4.7" fill="#fff" stroke="#6670ee" stroke-width="1.7"/>
<circle cx="562.18" cy="189.08" r="4.7" fill="#fff" stroke="#6670ee" stroke-width="1.7"/>
<line x1="225.45" y1="243.33" x2="709.43" y2="363.98" stroke="#263f86" stroke-width="3"/>
<line x1="138.33" y1="560" x2="138.33" y2="567" stroke="#343732"/>
<text x="138.33" y="590" text-anchor="middle" font-family="PingFang SC, Noto Sans CJK SC, Microsoft YaHei, sans-serif" font-size="17">-3</text>
<line x1="255.00" y1="560" x2="255.00" y2="567" stroke="#343732"/>
<text x="255.00" y="590" text-anchor="middle" font-family="PingFang SC, Noto Sans CJK SC, Microsoft YaHei, sans-serif" font-size="17">-2</text>
<line x1="371.67" y1="560" x2="371.67" y2="567" stroke="#343732"/>
<text x="371.67" y="590" text-anchor="middle" font-family="PingFang SC, Noto Sans CJK SC, Microsoft YaHei, sans-serif" font-size="17">-1</text>
<line x1="488.33" y1="560" x2="488.33" y2="567" stroke="#343732"/>
<text x="488.33" y="590" text-anchor="middle" font-family="PingFang SC, Noto Sans CJK SC, Microsoft YaHei, sans-serif" font-size="17">0</text>
<line x1="605.00" y1="560" x2="605.00" y2="567" stroke="#343732"/>
<text x="605.00" y="590" text-anchor="middle" font-family="PingFang SC, Noto Sans CJK SC, Microsoft YaHei, sans-serif" font-size="17">1</text>
<line x1="721.67" y1="560" x2="721.67" y2="567" stroke="#343732"/>
<text x="721.67" y="590" text-anchor="middle" font-family="PingFang SC, Noto Sans CJK SC, Microsoft YaHei, sans-serif" font-size="17">2</text>
<line x1="108" y1="489.06" x2="115" y2="489.06" stroke="#343732"/>
<text x="99" y="495.06" text-anchor="end" font-family="PingFang SC, Noto Sans CJK SC, Microsoft YaHei, sans-serif" font-size="17">-2</text>
<line x1="108" y1="400.38" x2="115" y2="400.38" stroke="#343732"/>
<text x="99" y="406.38" text-anchor="end" font-family="PingFang SC, Noto Sans CJK SC, Microsoft YaHei, sans-serif" font-size="17">-1</text>
<line x1="108" y1="311.70" x2="115" y2="311.70" stroke="#343732"/>
<text x="99" y="317.70" text-anchor="end" font-family="PingFang SC, Noto Sans CJK SC, Microsoft YaHei, sans-serif" font-size="17">0</text>
<line x1="108" y1="223.02" x2="115" y2="223.02" stroke="#343732"/>
<text x="99" y="229.02" text-anchor="end" font-family="PingFang SC, Noto Sans CJK SC, Microsoft YaHei, sans-serif" font-size="17">1</text>
<line x1="108" y1="134.34" x2="115" y2="134.34" stroke="#343732"/>
<text x="99" y="140.34" text-anchor="end" font-family="PingFang SC, Noto Sans CJK SC, Microsoft YaHei, sans-serif" font-size="17">2</text>
<text x="465.0" y="635" text-anchor="middle" font-family="PingFang SC, Noto Sans CJK SC, Microsoft YaHei, sans-serif" font-size="21" font-weight="700" fill="#263f86">祖父母教育程度（G）</text>
<text x="43" y="325.0" transform="rotate(-90 43 325.0)" text-anchor="middle" font-family="PingFang SC, Noto Sans CJK SC, Microsoft YaHei, sans-serif" font-size="21" font-weight="700" fill="#263f86">孙辈教育程度（C）</text>
<text x="135" y="45" font-family="PingFang SC, Noto Sans CJK SC, Microsoft YaHei, sans-serif" font-size="19" font-weight="700" fill="#30332e">父母教育第 45–60 百分位</text>
<circle cx="555" cy="42" r="5" fill="#6670ee"/><text x="570" y="48" font-family="PingFang SC, Noto Sans CJK SC, Microsoft YaHei, sans-serif" font-size="17" fill="#6670ee">好社区</text>
<circle cx="690" cy="42" r="5" fill="#30332e"/><text x="705" y="48" font-family="PingFang SC, Noto Sans CJK SC, Microsoft YaHei, sans-serif" font-size="17" fill="#30332e">差社区</text>
</svg>
