<svg xmlns="http://www.w3.org/2000/svg" width="1200" height="620" viewBox="0 0 1200 620">
<title>图 15.1：各州离婚率的测量误差</title>
<desc>左图以结婚年龄中位数预测离婚率，右图以人口对数为横轴；每个空心点的竖线表示离婚率测量的一倍标准误，小州的不确定性更大。</desc>
<rect width="1200" height="620" fill="#fff"/>
<rect x="90.0" y="55.0" width="480.0" height="465.0" fill="#fff" stroke="#30332e" stroke-width="1.5"/>
<line x1="90.0" y1="520.0" x2="570.0" y2="520.0" stroke="#ddd9ce" stroke-width="1"/>
<line x1="83.0" y1="520.0" x2="90.0" y2="520.0" stroke="#30332e" stroke-width="1.4"/>
<text x="76.0" y="526.0" text-anchor="end" font-family="-apple-system,BlinkMacSystemFont,PingFang SC,Noto Sans CJK SC,sans-serif" font-size="16" font-weight="400" fill="#30332e">4</text>
<line x1="90.0" y1="439.1" x2="570.0" y2="439.1" stroke="#ddd9ce" stroke-width="1"/>
<line x1="83.0" y1="439.1" x2="90.0" y2="439.1" stroke="#30332e" stroke-width="1.4"/>
<text x="76.0" y="445.1" text-anchor="end" font-family="-apple-system,BlinkMacSystemFont,PingFang SC,Noto Sans CJK SC,sans-serif" font-size="16" font-weight="400" fill="#30332e">6</text>
<line x1="90.0" y1="358.3" x2="570.0" y2="358.3" stroke="#ddd9ce" stroke-width="1"/>
<line x1="83.0" y1="358.3" x2="90.0" y2="358.3" stroke="#30332e" stroke-width="1.4"/>
<text x="76.0" y="364.3" text-anchor="end" font-family="-apple-system,BlinkMacSystemFont,PingFang SC,Noto Sans CJK SC,sans-serif" font-size="16" font-weight="400" fill="#30332e">8</text>
<line x1="90.0" y1="277.4" x2="570.0" y2="277.4" stroke="#ddd9ce" stroke-width="1"/>
<line x1="83.0" y1="277.4" x2="90.0" y2="277.4" stroke="#30332e" stroke-width="1.4"/>
<text x="76.0" y="283.4" text-anchor="end" font-family="-apple-system,BlinkMacSystemFont,PingFang SC,Noto Sans CJK SC,sans-serif" font-size="16" font-weight="400" fill="#30332e">10</text>
<line x1="90.0" y1="196.5" x2="570.0" y2="196.5" stroke="#ddd9ce" stroke-width="1"/>
<line x1="83.0" y1="196.5" x2="90.0" y2="196.5" stroke="#30332e" stroke-width="1.4"/>
<text x="76.0" y="202.5" text-anchor="end" font-family="-apple-system,BlinkMacSystemFont,PingFang SC,Noto Sans CJK SC,sans-serif" font-size="16" font-weight="400" fill="#30332e">12</text>
<line x1="90.0" y1="115.7" x2="570.0" y2="115.7" stroke="#ddd9ce" stroke-width="1"/>
<line x1="83.0" y1="115.7" x2="90.0" y2="115.7" stroke="#30332e" stroke-width="1.4"/>
<text x="76.0" y="121.7" text-anchor="end" font-family="-apple-system,BlinkMacSystemFont,PingFang SC,Noto Sans CJK SC,sans-serif" font-size="16" font-weight="400" fill="#30332e">14</text>
<rect x="665.0" y="55.0" width="480.0" height="465.0" fill="#fff" stroke="#30332e" stroke-width="1.5"/>
<line x1="665.0" y1="520.0" x2="1145.0" y2="520.0" stroke="#ddd9ce" stroke-width="1"/>
<line x1="658.0" y1="520.0" x2="665.0" y2="520.0" stroke="#30332e" stroke-width="1.4"/>
<text x="651.0" y="526.0" text-anchor="end" font-family="-apple-system,BlinkMacSystemFont,PingFang SC,Noto Sans CJK SC,sans-serif" font-size="16" font-weight="400" fill="#30332e">4</text>
<line x1="665.0" y1="439.1" x2="1145.0" y2="439.1" stroke="#ddd9ce" stroke-width="1"/>
<line x1="658.0" y1="439.1" x2="665.0" y2="439.1" stroke="#30332e" stroke-width="1.4"/>
<text x="651.0" y="445.1" text-anchor="end" font-family="-apple-system,BlinkMacSystemFont,PingFang SC,Noto Sans CJK SC,sans-serif" font-size="16" font-weight="400" fill="#30332e">6</text>
<line x1="665.0" y1="358.3" x2="1145.0" y2="358.3" stroke="#ddd9ce" stroke-width="1"/>
<line x1="658.0" y1="358.3" x2="665.0" y2="358.3" stroke="#30332e" stroke-width="1.4"/>
<text x="651.0" y="364.3" text-anchor="end" font-family="-apple-system,BlinkMacSystemFont,PingFang SC,Noto Sans CJK SC,sans-serif" font-size="16" font-weight="400" fill="#30332e">8</text>
<line x1="665.0" y1="277.4" x2="1145.0" y2="277.4" stroke="#ddd9ce" stroke-width="1"/>
<line x1="658.0" y1="277.4" x2="665.0" y2="277.4" stroke="#30332e" stroke-width="1.4"/>
<text x="651.0" y="283.4" text-anchor="end" font-family="-apple-system,BlinkMacSystemFont,PingFang SC,Noto Sans CJK SC,sans-serif" font-size="16" font-weight="400" fill="#30332e">10</text>
<line x1="665.0" y1="196.5" x2="1145.0" y2="196.5" stroke="#ddd9ce" stroke-width="1"/>
<line x1="658.0" y1="196.5" x2="665.0" y2="196.5" stroke="#30332e" stroke-width="1.4"/>
<text x="651.0" y="202.5" text-anchor="end" font-family="-apple-system,BlinkMacSystemFont,PingFang SC,Noto Sans CJK SC,sans-serif" font-size="16" font-weight="400" fill="#30332e">12</text>
<line x1="665.0" y1="115.7" x2="1145.0" y2="115.7" stroke="#ddd9ce" stroke-width="1"/>
<line x1="658.0" y1="115.7" x2="665.0" y2="115.7" stroke="#30332e" stroke-width="1.4"/>
<text x="651.0" y="121.7" text-anchor="end" font-family="-apple-system,BlinkMacSystemFont,PingFang SC,Noto Sans CJK SC,sans-serif" font-size="16" font-weight="400" fill="#30332e">14</text>
<line x1="122.0" y1="520" x2="122.0" y2="527" stroke="#30332e"/>
<text x="122.0" y="552.0" text-anchor="middle" font-family="-apple-system,BlinkMacSystemFont,PingFang SC,Noto Sans CJK SC,sans-serif" font-size="16" font-weight="400" fill="#30332e">23</text>
<line x1="186.0" y1="520" x2="186.0" y2="527" stroke="#30332e"/>
<text x="186.0" y="552.0" text-anchor="middle" font-family="-apple-system,BlinkMacSystemFont,PingFang SC,Noto Sans CJK SC,sans-serif" font-size="16" font-weight="400" fill="#30332e">24</text>
<line x1="250.0" y1="520" x2="250.0" y2="527" stroke="#30332e"/>
<text x="250.0" y="552.0" text-anchor="middle" font-family="-apple-system,BlinkMacSystemFont,PingFang SC,Noto Sans CJK SC,sans-serif" font-size="16" font-weight="400" fill="#30332e">25</text>
<line x1="314.0" y1="520" x2="314.0" y2="527" stroke="#30332e"/>
<text x="314.0" y="552.0" text-anchor="middle" font-family="-apple-system,BlinkMacSystemFont,PingFang SC,Noto Sans CJK SC,sans-serif" font-size="16" font-weight="400" fill="#30332e">26</text>
<line x1="378.0" y1="520" x2="378.0" y2="527" stroke="#30332e"/>
<text x="378.0" y="552.0" text-anchor="middle" font-family="-apple-system,BlinkMacSystemFont,PingFang SC,Noto Sans CJK SC,sans-serif" font-size="16" font-weight="400" fill="#30332e">27</text>
<line x1="442.0" y1="520" x2="442.0" y2="527" stroke="#30332e"/>
<text x="442.0" y="552.0" text-anchor="middle" font-family="-apple-system,BlinkMacSystemFont,PingFang SC,Noto Sans CJK SC,sans-serif" font-size="16" font-weight="400" fill="#30332e">28</text>
<line x1="506.0" y1="520" x2="506.0" y2="527" stroke="#30332e"/>
<text x="506.0" y="552.0" text-anchor="middle" font-family="-apple-system,BlinkMacSystemFont,PingFang SC,Noto Sans CJK SC,sans-serif" font-size="16" font-weight="400" fill="#30332e">29</text>
<line x1="570.0" y1="520" x2="570.0" y2="527" stroke="#30332e"/>
<text x="570.0" y="552.0" text-anchor="middle" font-family="-apple-system,BlinkMacSystemFont,PingFang SC,Noto Sans CJK SC,sans-serif" font-size="16" font-weight="400" fill="#30332e">30</text>
<line x1="665.0" y1="520" x2="665.0" y2="527" stroke="#30332e"/>
<text x="665.0" y="552.0" text-anchor="middle" font-family="-apple-system,BlinkMacSystemFont,PingFang SC,Noto Sans CJK SC,sans-serif" font-size="16" font-weight="400" fill="#30332e">-1</text>
<line x1="761.0" y1="520" x2="761.0" y2="527" stroke="#30332e"/>
<text x="761.0" y="552.0" text-anchor="middle" font-family="-apple-system,BlinkMacSystemFont,PingFang SC,Noto Sans CJK SC,sans-serif" font-size="16" font-weight="400" fill="#30332e">0</text>
<line x1="857.0" y1="520" x2="857.0" y2="527" stroke="#30332e"/>
<text x="857.0" y="552.0" text-anchor="middle" font-family="-apple-system,BlinkMacSystemFont,PingFang SC,Noto Sans CJK SC,sans-serif" font-size="16" font-weight="400" fill="#30332e">1</text>
<line x1="953.0" y1="520" x2="953.0" y2="527" stroke="#30332e"/>
<text x="953.0" y="552.0" text-anchor="middle" font-family="-apple-system,BlinkMacSystemFont,PingFang SC,Noto Sans CJK SC,sans-serif" font-size="16" font-weight="400" fill="#30332e">2</text>
<line x1="1049.0" y1="520" x2="1049.0" y2="527" stroke="#30332e"/>
<text x="1049.0" y="552.0" text-anchor="middle" font-family="-apple-system,BlinkMacSystemFont,PingFang SC,Noto Sans CJK SC,sans-serif" font-size="16" font-weight="400" fill="#30332e">3</text>
<line x1="1145.0" y1="520" x2="1145.0" y2="527" stroke="#30332e"/>
<text x="1145.0" y="552.0" text-anchor="middle" font-family="-apple-system,BlinkMacSystemFont,PingFang SC,Noto Sans CJK SC,sans-serif" font-size="16" font-weight="400" fill="#30332e">4</text>
<line x1="269.2" y1="136.3" x2="269.2" y2="200.2" stroke="#30332e" stroke-width="1.25"/>
<circle cx="269.2" cy="168.2" r="5.2" fill="#fff" stroke="#30332e" stroke-width="1.6"/>
<line x1="911.2" y1="136.3" x2="911.2" y2="200.2" stroke="#30332e" stroke-width="1.25"/>
<circle cx="911.2" cy="168.2" r="5.2" fill="#fff" stroke="#30332e" stroke-width="1.6"/>
<line x1="262.8" y1="93.4" x2="262.8" y2="259.2" stroke="#30332e" stroke-width="1.25"/>
<circle cx="262.8" cy="176.3" r="5.2" fill="#fff" stroke="#30332e" stroke-width="1.6"/>
<line x1="728.1" y1="93.4" x2="728.1" y2="259.2" stroke="#30332e" stroke-width="1.25"/>
<circle cx="728.1" cy="176.3" r="5.2" fill="#fff" stroke="#30332e" stroke-width="1.6"/>
<line x1="301.2" y1="215.1" x2="301.2" y2="275.0" stroke="#30332e" stroke-width="1.25"/>
<circle cx="301.2" cy="245.0" r="5.2" fill="#fff" stroke="#30332e" stroke-width="1.6"/>
<line x1="938.1" y1="215.1" x2="938.1" y2="275.0" stroke="#30332e" stroke-width="1.25"/>
<circle cx="938.1" cy="245.0" r="5.2" fill="#fff" stroke="#30332e" stroke-width="1.6"/>
<line x1="205.2" y1="86.5" x2="205.2" y2="185.2" stroke="#30332e" stroke-width="1.25"/>
<circle cx="205.2" cy="135.9" r="5.2" fill="#fff" stroke="#30332e" stroke-width="1.6"/>
<line x1="863.9" y1="86.5" x2="863.9" y2="185.2" stroke="#30332e" stroke-width="1.25"/>
<circle cx="863.9" cy="135.9" r="5.2" fill="#fff" stroke="#30332e" stroke-width="1.6"/>
<line x1="365.2" y1="348.6" x2="365.2" y2="368.0" stroke="#30332e" stroke-width="1.25"/>
<circle cx="365.2" cy="358.3" r="5.2" fill="#fff" stroke="#30332e" stroke-width="1.6"/>
<line x1="1108.3" y1="348.6" x2="1108.3" y2="368.0" stroke="#30332e" stroke-width="1.25"/>
<circle cx="1108.3" cy="358.3" r="5.2" fill="#fff" stroke="#30332e" stroke-width="1.6"/>
<line x1="294.8" y1="174.7" x2="294.8" y2="250.7" stroke="#30332e" stroke-width="1.25"/>
<circle cx="294.8" cy="212.7" r="5.2" fill="#fff" stroke="#30332e" stroke-width="1.6"/>
<line x1="916.1" y1="174.7" x2="916.1" y2="250.7" stroke="#30332e" stroke-width="1.25"/>
<circle cx="916.1" cy="212.7" r="5.2" fill="#fff" stroke="#30332e" stroke-width="1.6"/>
<line x1="416.4" y1="379.7" x2="416.4" y2="442.0" stroke="#30332e" stroke-width="1.25"/>
<circle cx="416.4" cy="410.8" r="5.2" fill="#fff" stroke="#30332e" stroke-width="1.6"/>
<line x1="883.2" y1="379.7" x2="883.2" y2="442.0" stroke="#30332e" stroke-width="1.25"/>
<circle cx="883.2" cy="410.8" r="5.2" fill="#fff" stroke="#30332e" stroke-width="1.6"/>
<line x1="352.4" y1="265.7" x2="352.4" y2="378.1" stroke="#30332e" stroke-width="1.25"/>
<circle cx="352.4" cy="321.9" r="5.2" fill="#fff" stroke="#30332e" stroke-width="1.6"/>
<line x1="750.9" y1="265.7" x2="750.9" y2="378.1" stroke="#30332e" stroke-width="1.25"/>
<circle cx="750.9" cy="321.9" r="5.2" fill="#fff" stroke="#30332e" stroke-width="1.6"/>
<line x1="550.8" y1="350.6" x2="550.8" y2="503.4" stroke="#30332e" stroke-width="1.25"/>
<circle cx="550.8" cy="427.0" r="5.2" fill="#fff" stroke="#30332e" stroke-width="1.6"/>
<line x1="712.0" y1="350.6" x2="712.0" y2="503.4" stroke="#30332e" stroke-width="1.25"/>
<circle cx="712.0" cy="427.0" r="5.2" fill="#fff" stroke="#30332e" stroke-width="1.6"/>
<line x1="339.6" y1="325.1" x2="339.6" y2="351.0" stroke="#30332e" stroke-width="1.25"/>
<circle cx="339.6" cy="338.0" r="5.2" fill="#fff" stroke="#30332e" stroke-width="1.6"/>
<line x1="1042.7" y1="325.1" x2="1042.7" y2="351.0" stroke="#30332e" stroke-width="1.25"/>
<circle cx="1042.7" cy="338.0" r="5.2" fill="#fff" stroke="#30332e" stroke-width="1.6"/>
<line x1="307.6" y1="193.3" x2="307.6" y2="240.2" stroke="#30332e" stroke-width="1.25"/>
<circle cx="307.6" cy="216.7" r="5.2" fill="#fff" stroke="#30332e" stroke-width="1.6"/>
<line x1="979.0" y1="193.3" x2="979.0" y2="240.2" stroke="#30332e" stroke-width="1.25"/>
<circle cx="979.0" cy="216.7" r="5.2" fill="#fff" stroke="#30332e" stroke-width="1.6"/>
<line x1="371.6" y1="294.8" x2="371.6" y2="397.5" stroke="#30332e" stroke-width="1.25"/>
<circle cx="371.6" cy="346.1" r="5.2" fill="#fff" stroke="#30332e" stroke-width="1.6"/>
<line x1="790.5" y1="294.8" x2="790.5" y2="397.5" stroke="#30332e" stroke-width="1.25"/>
<circle cx="790.5" cy="346.1" r="5.2" fill="#fff" stroke="#30332e" stroke-width="1.6"/>
<line x1="134.8" y1="327.9" x2="134.8" y2="412.8" stroke="#30332e" stroke-width="1.25"/>
<circle cx="134.8" cy="370.4" r="5.2" fill="#fff" stroke="#30332e" stroke-width="1.6"/>
<line x1="804.3" y1="327.9" x2="804.3" y2="412.8" stroke="#30332e" stroke-width="1.25"/>
<circle cx="804.3" cy="370.4" r="5.2" fill="#fff" stroke="#30332e" stroke-width="1.6"/>
<line x1="378.0" y1="340.1" x2="378.0" y2="376.5" stroke="#30332e" stroke-width="1.25"/>
<circle cx="378.0" cy="358.3" r="5.2" fill="#fff" stroke="#30332e" stroke-width="1.6"/>
<line x1="1006.0" y1="340.1" x2="1006.0" y2="376.5" stroke="#30332e" stroke-width="1.25"/>
<circle cx="1006.0" cy="358.3" r="5.2" fill="#fff" stroke="#30332e" stroke-width="1.6"/>
<line x1="294.8" y1="211.5" x2="294.8" y2="262.4" stroke="#30332e" stroke-width="1.25"/>
<circle cx="294.8" cy="237.0" r="5.2" fill="#fff" stroke="#30332e" stroke-width="1.6"/>
<line x1="940.4" y1="211.5" x2="940.4" y2="262.4" stroke="#30332e" stroke-width="1.25"/>
<circle cx="940.4" cy="237.0" r="5.2" fill="#fff" stroke="#30332e" stroke-width="1.6"/>
<line x1="275.6" y1="232.5" x2="275.6" y2="306.1" stroke="#30332e" stroke-width="1.25"/>
<circle cx="275.6" cy="269.3" r="5.2" fill="#fff" stroke="#30332e" stroke-width="1.6"/>
<line x1="868.1" y1="232.5" x2="868.1" y2="306.1" stroke="#30332e" stroke-width="1.25"/>
<circle cx="868.1" cy="269.3" r="5.2" fill="#fff" stroke="#30332e" stroke-width="1.6"/>
<line x1="250.0" y1="209.1" x2="250.0" y2="297.2" stroke="#30332e" stroke-width="1.25"/>
<circle cx="250.0" cy="253.1" r="5.2" fill="#fff" stroke="#30332e" stroke-width="1.6"/>
<line x1="861.5" y1="209.1" x2="861.5" y2="297.2" stroke="#30332e" stroke-width="1.25"/>
<circle cx="861.5" cy="253.1" r="5.2" fill="#fff" stroke="#30332e" stroke-width="1.6"/>
<line x1="237.2" y1="141.9" x2="237.2" y2="202.6" stroke="#30332e" stroke-width="1.25"/>
<circle cx="237.2" cy="172.3" r="5.2" fill="#fff" stroke="#30332e" stroke-width="1.6"/>
<line x1="901.9" y1="141.9" x2="901.9" y2="202.6" stroke="#30332e" stroke-width="1.25"/>
<circle cx="901.9" cy="172.3" r="5.2" fill="#fff" stroke="#30332e" stroke-width="1.6"/>
<line x1="307.6" y1="201.0" x2="307.6" y2="272.9" stroke="#30332e" stroke-width="1.25"/>
<circle cx="307.6" cy="237.0" r="5.2" fill="#fff" stroke="#30332e" stroke-width="1.6"/>
<line x1="906.0" y1="201.0" x2="906.0" y2="272.9" stroke="#30332e" stroke-width="1.25"/>
<circle cx="906.0" cy="237.0" r="5.2" fill="#fff" stroke="#30332e" stroke-width="1.6"/>
<line x1="339.6" y1="96.2" x2="339.6" y2="215.9" stroke="#30332e" stroke-width="1.25"/>
<circle cx="339.6" cy="156.1" r="5.2" fill="#fff" stroke="#30332e" stroke-width="1.6"/>
<line x1="788.4" y1="96.2" x2="788.4" y2="215.9" stroke="#30332e" stroke-width="1.25"/>
<circle cx="788.4" cy="156.1" r="5.2" fill="#fff" stroke="#30332e" stroke-width="1.6"/>
<line x1="397.2" y1="298.0" x2="397.2" y2="353.8" stroke="#30332e" stroke-width="1.25"/>
<circle cx="397.2" cy="325.9" r="5.2" fill="#fff" stroke="#30332e" stroke-width="1.6"/>
<line x1="929.3" y1="298.0" x2="929.3" y2="353.8" stroke="#30332e" stroke-width="1.25"/>
<circle cx="929.3" cy="325.9" r="5.2" fill="#fff" stroke="#30332e" stroke-width="1.6"/>
<line x1="474.0" y1="345.3" x2="474.0" y2="387.4" stroke="#30332e" stroke-width="1.25"/>
<circle cx="474.0" cy="366.3" r="5.2" fill="#fff" stroke="#30332e" stroke-width="1.6"/>
<line x1="941.4" y1="345.3" x2="941.4" y2="387.4" stroke="#30332e" stroke-width="1.25"/>
<circle cx="941.4" cy="366.3" r="5.2" fill="#fff" stroke="#30332e" stroke-width="1.6"/>
<line x1="339.6" y1="288.3" x2="339.6" y2="331.2" stroke="#30332e" stroke-width="1.25"/>
<circle cx="339.6" cy="309.7" r="5.2" fill="#fff" stroke="#30332e" stroke-width="1.6"/>
<line x1="980.9" y1="288.3" x2="980.9" y2="331.2" stroke="#30332e" stroke-width="1.25"/>
<circle cx="980.9" cy="309.7" r="5.2" fill="#fff" stroke="#30332e" stroke-width="1.6"/>
<line x1="333.2" y1="358.3" x2="333.2" y2="406.8" stroke="#30332e" stroke-width="1.25"/>
<circle cx="333.2" cy="382.5" r="5.2" fill="#fff" stroke="#30332e" stroke-width="1.6"/>
<line x1="921.1" y1="358.3" x2="921.1" y2="406.8" stroke="#30332e" stroke-width="1.25"/>
<circle cx="921.1" cy="382.5" r="5.2" fill="#fff" stroke="#30332e" stroke-width="1.6"/>
<line x1="301.2" y1="192.1" x2="301.2" y2="273.8" stroke="#30332e" stroke-width="1.25"/>
<circle cx="301.2" cy="232.9" r="5.2" fill="#fff" stroke="#30332e" stroke-width="1.6"/>
<line x1="865.5" y1="192.1" x2="865.5" y2="273.8" stroke="#30332e" stroke-width="1.25"/>
<circle cx="865.5" cy="232.9" r="5.2" fill="#fff" stroke="#30332e" stroke-width="1.6"/>
<line x1="288.4" y1="270.5" x2="288.4" y2="324.7" stroke="#30332e" stroke-width="1.25"/>
<circle cx="288.4" cy="297.6" r="5.2" fill="#fff" stroke="#30332e" stroke-width="1.6"/>
<line x1="932.8" y1="270.5" x2="932.8" y2="324.7" stroke="#30332e" stroke-width="1.25"/>
<circle cx="932.8" cy="297.6" r="5.2" fill="#fff" stroke="#30332e" stroke-width="1.6"/>
<line x1="294.8" y1="244.6" x2="294.8" y2="382.9" stroke="#30332e" stroke-width="1.25"/>
<circle cx="294.8" cy="313.8" r="5.2" fill="#fff" stroke="#30332e" stroke-width="1.6"/>
<line x1="760.0" y1="244.6" x2="760.0" y2="382.9" stroke="#30332e" stroke-width="1.25"/>
<circle cx="760.0" cy="313.8" r="5.2" fill="#fff" stroke="#30332e" stroke-width="1.6"/>
<line x1="275.6" y1="287.9" x2="275.6" y2="363.9" stroke="#30332e" stroke-width="1.25"/>
<circle cx="275.6" cy="325.9" r="5.2" fill="#fff" stroke="#30332e" stroke-width="1.6"/>
<line x1="819.0" y1="287.9" x2="819.0" y2="363.9" stroke="#30332e" stroke-width="1.25"/>
<circle cx="819.0" cy="325.9" r="5.2" fill="#fff" stroke="#30332e" stroke-width="1.6"/>
<line x1="365.2" y1="208.2" x2="365.2" y2="338.4" stroke="#30332e" stroke-width="1.25"/>
<circle cx="365.2" cy="273.3" r="5.2" fill="#fff" stroke="#30332e" stroke-width="1.6"/>
<line x1="787.7" y1="208.2" x2="787.7" y2="338.4" stroke="#30332e" stroke-width="1.25"/>
<circle cx="787.7" cy="273.3" r="5.2" fill="#fff" stroke="#30332e" stroke-width="1.6"/>
<line x1="422.8" y1="416.5" x2="422.8" y2="453.7" stroke="#30332e" stroke-width="1.25"/>
<circle cx="422.8" cy="435.1" r="5.2" fill="#fff" stroke="#30332e" stroke-width="1.6"/>
<line x1="969.7" y1="416.5" x2="969.7" y2="453.7" stroke="#30332e" stroke-width="1.25"/>
<circle cx="969.7" cy="435.1" r="5.2" fill="#fff" stroke="#30332e" stroke-width="1.6"/>
<line x1="301.2" y1="224.4" x2="301.2" y2="314.2" stroke="#30332e" stroke-width="1.25"/>
<circle cx="301.2" cy="269.3" r="5.2" fill="#fff" stroke="#30332e" stroke-width="1.6"/>
<line x1="830.4" y1="224.4" x2="830.4" y2="314.2" stroke="#30332e" stroke-width="1.25"/>
<circle cx="830.4" cy="269.3" r="5.2" fill="#fff" stroke="#30332e" stroke-width="1.6"/>
<line x1="467.6" y1="402.3" x2="467.6" y2="427.4" stroke="#30332e" stroke-width="1.25"/>
<circle cx="467.6" cy="414.9" r="5.2" fill="#fff" stroke="#30332e" stroke-width="1.6"/>
<line x1="1045.6" y1="402.3" x2="1045.6" y2="427.4" stroke="#30332e" stroke-width="1.25"/>
<circle cx="1045.6" cy="414.9" r="5.2" fill="#fff" stroke="#30332e" stroke-width="1.6"/>
<line x1="294.8" y1="262.0" x2="294.8" y2="300.8" stroke="#30332e" stroke-width="1.25"/>
<circle cx="294.8" cy="281.4" r="5.2" fill="#fff" stroke="#30332e" stroke-width="1.6"/>
<line x1="977.5" y1="262.0" x2="977.5" y2="300.8" stroke="#30332e" stroke-width="1.25"/>
<circle cx="977.5" cy="281.4" r="5.2" fill="#fff" stroke="#30332e" stroke-width="1.6"/>
<line x1="269.2" y1="300.0" x2="269.2" y2="416.5" stroke="#30332e" stroke-width="1.25"/>
<circle cx="269.2" cy="358.3" r="5.2" fill="#fff" stroke="#30332e" stroke-width="1.6"/>
<line x1="722.6" y1="300.0" x2="722.6" y2="416.5" stroke="#30332e" stroke-width="1.25"/>
<circle cx="722.6" cy="358.3" r="5.2" fill="#fff" stroke="#30332e" stroke-width="1.6"/>
<line x1="333.2" y1="279.4" x2="333.2" y2="315.8" stroke="#30332e" stroke-width="1.25"/>
<circle cx="333.2" cy="297.6" r="5.2" fill="#fff" stroke="#30332e" stroke-width="1.6"/>
<line x1="995.8" y1="279.4" x2="995.8" y2="315.8" stroke="#30332e" stroke-width="1.25"/>
<circle cx="995.8" cy="297.6" r="5.2" fill="#fff" stroke="#30332e" stroke-width="1.6"/>
<line x1="211.6" y1="123.3" x2="211.6" y2="205.0" stroke="#30332e" stroke-width="1.25"/>
<circle cx="211.6" cy="164.2" r="5.2" fill="#fff" stroke="#30332e" stroke-width="1.6"/>
<line x1="887.9" y1="123.3" x2="887.9" y2="205.0" stroke="#30332e" stroke-width="1.25"/>
<circle cx="887.9" cy="164.2" r="5.2" fill="#fff" stroke="#30332e" stroke-width="1.6"/>
<line x1="314.0" y1="228.9" x2="314.0" y2="293.6" stroke="#30332e" stroke-width="1.25"/>
<circle cx="314.0" cy="261.2" r="5.2" fill="#fff" stroke="#30332e" stroke-width="1.6"/>
<line x1="889.9" y1="228.9" x2="889.9" y2="293.6" stroke="#30332e" stroke-width="1.25"/>
<circle cx="889.9" cy="261.2" r="5.2" fill="#fff" stroke="#30332e" stroke-width="1.6"/>
<line x1="384.4" y1="353.0" x2="384.4" y2="387.8" stroke="#30332e" stroke-width="1.25"/>
<circle cx="384.4" cy="370.4" r="5.2" fill="#fff" stroke="#30332e" stroke-width="1.6"/>
<line x1="1005.0" y1="353.0" x2="1005.0" y2="387.8" stroke="#30332e" stroke-width="1.25"/>
<circle cx="1005.0" cy="370.4" r="5.2" fill="#fff" stroke="#30332e" stroke-width="1.6"/>
<line x1="454.8" y1="229.3" x2="454.8" y2="374.0" stroke="#30332e" stroke-width="1.25"/>
<circle cx="454.8" cy="301.7" r="5.2" fill="#fff" stroke="#30332e" stroke-width="1.6"/>
<line x1="765.7" y1="229.3" x2="765.7" y2="374.0" stroke="#30332e" stroke-width="1.25"/>
<circle cx="765.7" cy="301.7" r="5.2" fill="#fff" stroke="#30332e" stroke-width="1.6"/>
<line x1="339.6" y1="325.9" x2="339.6" y2="382.5" stroke="#30332e" stroke-width="1.25"/>
<circle cx="339.6" cy="354.2" r="5.2" fill="#fff" stroke="#30332e" stroke-width="1.6"/>
<line x1="908.1" y1="325.9" x2="908.1" y2="382.5" stroke="#30332e" stroke-width="1.25"/>
<circle cx="908.1" cy="354.2" r="5.2" fill="#fff" stroke="#30332e" stroke-width="1.6"/>
<line x1="288.4" y1="139.9" x2="288.4" y2="342.1" stroke="#30332e" stroke-width="1.25"/>
<circle cx="288.4" cy="241.0" r="5.2" fill="#fff" stroke="#30332e" stroke-width="1.6"/>
<line x1="740.8" y1="139.9" x2="740.8" y2="342.1" stroke="#30332e" stroke-width="1.25"/>
<circle cx="740.8" cy="241.0" r="5.2" fill="#fff" stroke="#30332e" stroke-width="1.6"/>
<line x1="262.8" y1="190.5" x2="262.8" y2="251.1" stroke="#30332e" stroke-width="1.25"/>
<circle cx="262.8" cy="220.8" r="5.2" fill="#fff" stroke="#30332e" stroke-width="1.6"/>
<line x1="938.5" y1="190.5" x2="938.5" y2="251.1" stroke="#30332e" stroke-width="1.25"/>
<circle cx="938.5" cy="220.8" r="5.2" fill="#fff" stroke="#30332e" stroke-width="1.6"/>
<line x1="262.8" y1="263.2" x2="262.8" y2="291.5" stroke="#30332e" stroke-width="1.25"/>
<circle cx="262.8" cy="277.4" r="5.2" fill="#fff" stroke="#30332e" stroke-width="1.6"/>
<line x1="1070.6" y1="263.2" x2="1070.6" y2="291.5" stroke="#30332e" stroke-width="1.25"/>
<circle cx="1070.6" cy="277.4" r="5.2" fill="#fff" stroke="#30332e" stroke-width="1.6"/>
<line x1="141.2" y1="231.7" x2="141.2" y2="306.9" stroke="#30332e" stroke-width="1.25"/>
<circle cx="141.2" cy="269.3" r="5.2" fill="#fff" stroke="#30332e" stroke-width="1.6"/>
<line x1="858.5" y1="231.7" x2="858.5" y2="306.9" stroke="#30332e" stroke-width="1.25"/>
<circle cx="858.5" cy="269.3" r="5.2" fill="#fff" stroke="#30332e" stroke-width="1.6"/>
<line x1="371.6" y1="218.0" x2="371.6" y2="369.2" stroke="#30332e" stroke-width="1.25"/>
<circle cx="371.6" cy="293.6" r="5.2" fill="#fff" stroke="#30332e" stroke-width="1.6"/>
<line x1="716.6" y1="218.0" x2="716.6" y2="369.2" stroke="#30332e" stroke-width="1.25"/>
<circle cx="716.6" cy="293.6" r="5.2" fill="#fff" stroke="#30332e" stroke-width="1.6"/>
<line x1="339.6" y1="300.8" x2="339.6" y2="342.9" stroke="#30332e" stroke-width="1.25"/>
<circle cx="339.6" cy="321.9" r="5.2" fill="#fff" stroke="#30332e" stroke-width="1.6"/>
<line x1="960.6" y1="300.8" x2="960.6" y2="342.9" stroke="#30332e" stroke-width="1.25"/>
<circle cx="960.6" cy="321.9" r="5.2" fill="#fff" stroke="#30332e" stroke-width="1.6"/>
<line x1="307.6" y1="251.1" x2="307.6" y2="303.7" stroke="#30332e" stroke-width="1.25"/>
<circle cx="307.6" cy="277.4" r="5.2" fill="#fff" stroke="#30332e" stroke-width="1.6"/>
<line x1="943.9" y1="251.1" x2="943.9" y2="303.7" stroke="#30332e" stroke-width="1.25"/>
<circle cx="943.9" cy="277.4" r="5.2" fill="#fff" stroke="#30332e" stroke-width="1.6"/>
<line x1="250.0" y1="186.8" x2="250.0" y2="295.2" stroke="#30332e" stroke-width="1.25"/>
<circle cx="250.0" cy="241.0" r="5.2" fill="#fff" stroke="#30332e" stroke-width="1.6"/>
<line x1="820.1" y1="186.8" x2="820.1" y2="295.2" stroke="#30332e" stroke-width="1.25"/>
<circle cx="820.1" cy="241.0" r="5.2" fill="#fff" stroke="#30332e" stroke-width="1.6"/>
<line x1="333.2" y1="323.1" x2="333.2" y2="369.2" stroke="#30332e" stroke-width="1.25"/>
<circle cx="333.2" cy="346.1" r="5.2" fill="#fff" stroke="#30332e" stroke-width="1.6"/>
<line x1="927.9" y1="323.1" x2="927.9" y2="369.2" stroke="#30332e" stroke-width="1.25"/>
<circle cx="927.9" cy="346.1" r="5.2" fill="#fff" stroke="#30332e" stroke-width="1.6"/>
<line x1="198.8" y1="188.4" x2="198.8" y2="342.1" stroke="#30332e" stroke-width="1.25"/>
<circle cx="198.8" cy="265.3" r="5.2" fill="#fff" stroke="#30332e" stroke-width="1.6"/>
<line x1="705.3" y1="188.4" x2="705.3" y2="342.1" stroke="#30332e" stroke-width="1.25"/>
<circle cx="705.3" cy="265.3" r="5.2" fill="#fff" stroke="#30332e" stroke-width="1.6"/>
<text x="330.0" y="598.0" text-anchor="middle" font-family="-apple-system,BlinkMacSystemFont,PingFang SC,Noto Sans CJK SC,sans-serif" font-size="19" font-weight="600" fill="#30332e">结婚年龄中位数</text>
<text x="905.0" y="598.0" text-anchor="middle" font-family="-apple-system,BlinkMacSystemFont,PingFang SC,Noto Sans CJK SC,sans-serif" font-size="19" font-weight="600" fill="#30332e">人口对数</text>
<text x="28.0" y="287.0" text-anchor="middle" font-family="-apple-system,BlinkMacSystemFont,PingFang SC,Noto Sans CJK SC,sans-serif" font-size="19" font-weight="600" fill="#30332e" transform="rotate(-90 28 287)">离婚率</text>
<text x="603.0" y="287.0" text-anchor="middle" font-family="-apple-system,BlinkMacSystemFont,PingFang SC,Noto Sans CJK SC,sans-serif" font-size="19" font-weight="600" fill="#30332e" transform="rotate(-90 603 287)">离婚率</text>
</svg>