<svg xmlns="http://www.w3.org/2000/svg" width="1200" height="530" viewBox="0 0 1200 530" role="img" aria-labelledby="title desc"><title id="title">非洲与非非洲崎岖度交互模型后验预测</title><desc id="desc">非洲国家回归斜率为正，非非洲国家为负，阴影表示均值的百分之九十七后验区间。</desc><style>.title{font:700 21px -apple-system,BlinkMacSystemFont,"PingFang SC",sans-serif}.axis,.ann{font:14px -apple-system,BlinkMacSystemFont,"PingFang SC",sans-serif;fill:#30332e}.label{font:17px -apple-system,BlinkMacSystemFont,"PingFang SC",sans-serif}.plot{fill:#fff;stroke:#444}.grid{stroke:#e5e5e1}.band{fill:#cfd2d1;opacity:.85}.fit{stroke:#151715;stroke-width:2.8}.point{fill:#fff;stroke:#171917;stroke-width:1.2}.point.filled{fill:#6874ef;stroke:#6874ef}</style><text class="title" x="295.0" y="34" text-anchor="middle">非洲国家</text><rect class="plot" x="88" y="65" width="474" height="387"/><text class="axis" x="88.0" y="477" text-anchor="middle">0.0</text><text class="axis" x="178.3" y="477" text-anchor="middle">0.2</text><text class="axis" x="268.6" y="477" text-anchor="middle">0.4</text><text class="axis" x="358.9" y="477" text-anchor="middle">0.6</text><text class="axis" x="449.1" y="477" text-anchor="middle">0.8</text><text class="axis" x="539.4" y="477" text-anchor="middle">1.0</text><line class="grid" x1="88" y1="452.0" x2="562" y2="452.0"/><text class="axis" x="77" y="457.0" text-anchor="end">0.7</text><line class="grid" x1="88" y1="366.0" x2="562" y2="366.0"/><text class="axis" x="77" y="371.0" text-anchor="end">0.8</text><line class="grid" x1="88" y1="280.0" x2="562" y2="280.0"/><text class="axis" x="77" y="285.0" text-anchor="end">0.9</text><line class="grid" x1="88" y1="194.0" x2="562" y2="194.0"/><text class="axis" x="77" y="199.0" text-anchor="end">1.0</text><line class="grid" x1="88" y1="108.0" x2="562" y2="108.0"/><text class="axis" x="77" y="113.0" text-anchor="end">1.1</text><polygon class="band" points="88.0,281.4 93.9,281.1 99.8,280.6 105.8,280.1 111.7,279.6 117.6,278.9 123.5,278.2 129.5,277.4 135.4,276.5 141.3,275.5 147.2,274.4 153.2,273.2 159.1,271.9 165.0,270.5 170.9,268.9 176.9,267.3 182.8,265.5 188.7,263.6 194.7,261.6 200.6,259.4 206.5,257.2 212.4,254.9 218.4,252.5 224.3,250.1 230.2,247.5 236.1,244.9 242.1,242.2 248.0,239.5 253.9,236.7 259.8,233.9 265.8,231.0 271.7,228.1 277.6,225.1 283.5,222.1 289.4,219.1 295.4,216.1 301.3,213.0 307.2,209.9 313.1,206.8 319.1,203.7 325.0,200.6 330.9,197.4 336.9,194.3 342.8,191.1 348.7,187.9 354.6,184.7 360.5,181.5 366.5,178.2 372.4,175.0 378.3,171.8 384.2,168.5 390.2,165.2 396.1,162.0 402.0,158.7 408.0,155.4 413.9,152.2 419.8,148.9 425.7,145.6 431.6,142.3 437.6,139.0 443.5,135.7 449.4,132.4 455.4,129.1 461.3,125.7 467.2,122.4 473.1,119.1 479.0,115.8 485.0,112.5 490.9,109.1 496.8,105.8 502.8,102.5 508.7,99.1 514.6,95.8 520.5,92.4 526.5,89.1 532.4,85.8 538.3,82.4 544.2,79.1 550.1,75.7 556.1,72.4 562.0,69.0 562.0,319.2 556.1,319.0 550.1,318.8 544.2,318.6 538.3,318.3 532.4,318.1 526.5,317.9 520.5,317.7 514.6,317.5 508.7,317.3 502.8,317.1 496.8,316.9 490.9,316.7 485.0,316.5 479.0,316.3 473.1,316.1 467.2,315.9 461.3,315.7 455.4,315.6 449.4,315.4 443.5,315.2 437.6,315.0 431.6,314.9 425.7,314.7 419.8,314.5 413.9,314.4 408.0,314.2 402.0,314.1 396.1,313.9 390.2,313.8 384.2,313.7 378.3,313.6 372.4,313.5 366.5,313.4 360.5,313.3 354.6,313.2 348.7,313.1 342.8,313.1 336.9,313.0 330.9,313.0 325.0,312.9 319.1,312.9 313.1,312.9 307.2,313.0 301.3,313.0 295.4,313.1 289.4,313.2 283.5,313.3 277.6,313.5 271.7,313.6 265.8,313.9 259.8,314.1 253.9,314.4 248.0,314.8 242.1,315.2 236.1,315.6 230.2,316.1 224.3,316.7 218.4,317.4 212.4,318.1 206.5,318.9 200.6,319.8 194.7,320.9 188.7,322.0 182.8,323.2 176.9,324.6 170.9,326.0 165.0,327.6 159.1,329.3 153.2,331.1 147.2,333.1 141.3,335.1 135.4,337.2 129.5,339.5 123.5,341.8 117.6,344.2 111.7,346.7 105.8,349.3 99.8,351.9 93.9,354.6 88.0,357.4"/><line class="fit" x1="88.0" y1="319.4" x2="562.0" y2="194.1"/><circle class="point filled" cx="150.5" cy="297.4" r="3.8"/><circle class="point filled" cx="217.6" cy="404.5" r="3.8"/><circle class="point filled" cx="98.3" cy="360.7" r="3.8"/><circle class="point filled" cx="105.2" cy="356.7" r="3.8"/><circle class="point filled" cx="101.2" cy="150.4" r="3.8"/><circle class="point filled" cx="102.3" cy="342.6" r="3.8"/><circle class="point filled" cx="104.3" cy="310.6" r="3.8"/><circle class="point filled" cx="125.5" cy="292.6" r="3.8"/><circle class="point filled" cx="120.2" cy="397.1" r="3.8"/><circle class="point filled" cx="99.1" cy="360.9" r="3.8"/><circle class="point filled" cx="330.2" cy="298.8" r="3.8"/><circle class="point filled" cx="260.3" cy="196.9" r="3.8"/><circle class="point filled" cx="265.0" cy="292.7" r="3.8"/><circle class="point filled" cx="125.1" cy="185.9" r="3.8"/><circle class="point filled" cx="140.6" cy="227.2" r="3.8"/><circle class="point filled" cx="268.6" cy="365.8" r="3.8"/><circle class="point filled" cx="202.3" cy="402.2" r="3.8"/><circle class="point filled" cx="103.9" cy="173.6" r="3.8"/><circle class="point filled" cx="104.6" cy="292.1" r="3.8"/><circle class="point filled" cx="141.9" cy="287.7" r="3.8"/><circle class="point filled" cx="113.7" cy="301.3" r="3.8"/><circle class="point filled" cx="123.7" cy="381.3" r="3.8"/><circle class="point filled" cx="128.7" cy="81.8" r="3.8"/><circle class="point filled" cx="136.7" cy="354.6" r="3.8"/><circle class="point filled" cx="539.4" cy="280.5" r="3.8"/><circle class="point filled" cx="263.6" cy="229.6" r="3.8"/><circle class="point filled" cx="173.1" cy="375.9" r="3.8"/><circle class="point filled" cx="98.7" cy="381.6" r="3.8"/><circle class="point filled" cx="132.5" cy="369.8" r="3.8"/><circle class="point filled" cx="96.4" cy="301.2" r="3.8"/><circle class="point filled" cx="157.1" cy="127.9" r="3.8"/><circle class="point filled" cx="162.8" cy="410.4" r="3.8"/><circle class="point filled" cx="154.5" cy="174.6" r="3.8"/><circle class="point filled" cx="101.0" cy="392.1" r="3.8"/><circle class="point filled" cx="110.7" cy="369.1" r="3.8"/><circle class="point filled" cx="328.9" cy="352.6" r="3.8"/><circle class="point filled" cx="120.2" cy="304.0" r="3.8"/><circle class="point filled" cx="105.8" cy="320.0" r="3.8"/><circle class="point filled" cx="124.2" cy="433.5" r="3.8"/><circle class="point filled" cx="310.9" cy="200.6" r="3.8"/><circle class="point filled" cx="443.6" cy="64.9" r="3.8"/><circle class="point filled" cx="118.5" cy="376.4" r="3.8"/><circle class="point filled" cx="108.4" cy="319.9" r="3.8"/><circle class="point filled" cx="140.8" cy="171.4" r="3.8"/><circle class="point filled" cx="137.3" cy="422.2" r="3.8"/><circle class="point filled" cx="154.5" cy="334.5" r="3.8"/><circle class="point filled" cx="216.2" cy="130.0" r="3.8"/><circle class="point filled" cx="126.8" cy="382.4" r="3.8"/><circle class="point filled" cx="174.9" cy="264.0" r="3.8"/><text class="ann" x="209.6" y="420.5" text-anchor="end">布隆迪</text><text class="ann" x="120.7" y="99.8" text-anchor="end">赤道几内亚</text><text class="ann" x="531.4" y="272.5" text-anchor="end">莱索托</text><text class="ann" x="336.9" y="368.6" text-anchor="start">卢旺达</text><text class="ann" x="318.9" y="193.6" text-anchor="start">斯威士兰</text><text class="ann" x="435.6" y="81.9" text-anchor="end">塞舌尔</text><text class="ann" x="208.2" y="122.0" text-anchor="end">南非</text><text class="label" x="325.0" y="505" text-anchor="middle">崎岖度（标准化）</text><text class="label" transform="translate(30,258.5) rotate(-90)" text-anchor="middle">对数 GDP（占均值比例）</text><text class="title" x="895.0" y="34" text-anchor="middle">非非洲国家</text><rect class="plot" x="688" y="65" width="474" height="387"/><text class="axis" x="688.0" y="477" text-anchor="middle">0.0</text><text class="axis" x="778.3" y="477" text-anchor="middle">0.2</text><text class="axis" x="868.6" y="477" text-anchor="middle">0.4</text><text class="axis" x="958.9" y="477" text-anchor="middle">0.6</text><text class="axis" x="1049.1" y="477" text-anchor="middle">0.8</text><text class="axis" x="1139.4" y="477" text-anchor="middle">1.0</text><line class="grid" x1="688" y1="437.1" x2="1162" y2="437.1"/><text class="axis" x="677" y="442.1" text-anchor="end">0.8</text><line class="grid" x1="688" y1="362.7" x2="1162" y2="362.7"/><text class="axis" x="677" y="367.7" text-anchor="end">0.9</text><line class="grid" x1="688" y1="288.3" x2="1162" y2="288.3"/><text class="axis" x="677" y="293.3" text-anchor="end">1.0</text><line class="grid" x1="688" y1="213.8" x2="1162" y2="213.8"/><text class="axis" x="677" y="218.8" text-anchor="end">1.1</text><line class="grid" x1="688" y1="139.4" x2="1162" y2="139.4"/><text class="axis" x="677" y="144.4" text-anchor="end">1.2</text><line class="grid" x1="688" y1="65.0" x2="1162" y2="65.0"/><text class="axis" x="677" y="70.0" text-anchor="end">1.3</text><polygon class="band" points="688.0,199.7 693.9,202.1 699.9,204.5 705.8,206.8 711.7,209.1 717.6,211.4 723.5,213.7 729.5,215.9 735.4,218.0 741.3,220.1 747.2,222.2 753.2,224.2 759.1,226.1 765.0,228.0 771.0,229.8 776.9,231.5 782.8,233.1 788.7,234.6 794.6,236.0 800.6,237.4 806.5,238.7 812.4,239.9 818.4,241.0 824.3,242.0 830.2,242.9 836.1,243.8 842.0,244.7 848.0,245.4 853.9,246.2 859.8,246.8 865.8,247.5 871.7,248.1 877.6,248.7 883.5,249.2 889.5,249.7 895.4,250.2 901.3,250.7 907.2,251.2 913.1,251.6 919.1,252.0 925.0,252.4 930.9,252.8 936.9,253.2 942.8,253.6 948.7,254.0 954.6,254.4 960.5,254.7 966.5,255.1 972.4,255.4 978.3,255.7 984.2,256.1 990.2,256.4 996.1,256.7 1002.0,257.0 1008.0,257.3 1013.9,257.6 1019.8,257.9 1025.7,258.2 1031.7,258.5 1037.6,258.8 1043.5,259.1 1049.4,259.4 1055.3,259.7 1061.3,260.0 1067.2,260.3 1073.1,260.6 1079.0,260.8 1085.0,261.1 1090.9,261.4 1096.8,261.7 1102.8,261.9 1108.7,262.2 1114.6,262.5 1120.5,262.7 1126.5,263.0 1132.4,263.3 1138.3,263.5 1144.2,263.8 1150.1,264.1 1156.1,264.3 1162.0,264.6 1162.0,419.4 1156.1,416.8 1150.1,414.2 1144.2,411.5 1138.3,408.9 1132.4,406.3 1126.5,403.7 1120.5,401.1 1114.6,398.4 1108.7,395.8 1102.8,393.2 1096.8,390.6 1090.9,388.0 1085.0,385.4 1079.0,382.8 1073.1,380.2 1067.2,377.6 1061.3,375.0 1055.3,372.4 1049.4,369.8 1043.5,367.2 1037.6,364.6 1031.7,362.0 1025.7,359.4 1019.8,356.8 1013.9,354.2 1008.0,351.6 1002.0,349.1 996.1,346.5 990.2,343.9 984.2,341.4 978.3,338.8 972.4,336.3 966.5,333.7 960.5,331.2 954.6,328.6 948.7,326.1 942.8,323.6 936.9,321.1 930.9,318.6 925.0,316.1 919.1,313.7 913.1,311.2 907.2,308.7 901.3,306.3 895.4,303.9 889.5,301.5 883.5,299.2 877.6,296.8 871.7,294.5 865.8,292.2 859.8,290.0 853.9,287.8 848.0,285.6 842.0,283.5 836.1,281.5 830.2,279.5 824.3,277.5 818.4,275.7 812.4,273.9 806.5,272.2 800.6,270.6 794.6,269.0 788.7,267.6 782.8,266.2 776.9,265.0 771.0,263.8 765.0,262.7 759.1,261.7 753.2,260.7 747.2,259.8 741.3,259.0 735.4,258.2 729.5,257.5 723.5,256.8 717.6,256.1 711.7,255.5 705.8,255.0 699.9,254.4 693.9,253.9 688.0,253.4"/><line class="fit" x1="688.0" y1="226.6" x2="1162.0" y2="342.0"/><circle class="point " cx="937.4" cy="314.5" r="3.8"/><circle class="point " cx="744.0" cy="164.5" r="3.8"/><circle class="point " cx="744.4" cy="210.5" r="3.8"/><circle class="point " cx="883.7" cy="351.6" r="3.8"/><circle class="point " cx="688.4" cy="227.5" r="3.8"/><circle class="point " cx="698.4" cy="146.2" r="3.8"/><circle class="point " cx="943.7" cy="134.7" r="3.8"/><circle class="point " cx="809.7" cy="346.4" r="3.8"/><circle class="point " cx="716.2" cy="139.9" r="3.8"/><circle class="point " cx="701.5" cy="394.7" r="3.8"/><circle class="point " cx="795.7" cy="272.6" r="3.8"/><circle class="point " cx="704.8" cy="187.0" r="3.8"/><circle class="point " cx="692.0" cy="181.4" r="3.8"/><circle class="point " cx="856.2" cy="283.3" r="3.8"/><circle class="point " cx="699.9" cy="291.8" r="3.8"/><circle class="point " cx="732.2" cy="274.3" r="3.8"/><circle class="point " cx="750.1" cy="352.4" r="3.8"/><circle class="point " cx="705.5" cy="255.2" r="3.8"/><circle class="point " cx="758.1" cy="190.6" r="3.8"/><circle class="point " cx="744.4" cy="140.0" r="3.8"/><circle class="point " cx="1034.5" cy="131.2" r="3.8"/><circle class="point " cx="868.6" cy="235.8" r="3.8"/><circle class="point " cx="824.7" cy="309.3" r="3.8"/><circle class="point " cx="752.4" cy="268.9" r="3.8"/><circle class="point " cx="841.7" cy="240.7" r="3.8"/><circle class="point " cx="885.8" cy="165.7" r="3.8"/><circle class="point " cx="752.3" cy="190.1" r="3.8"/><circle class="point " cx="731.5" cy="146.0" r="3.8"/><circle class="point " cx="688.2" cy="273.3" r="3.8"/><circle class="point " cx="701.8" cy="135.4" r="3.8"/><circle class="point " cx="807.4" cy="266.5" r="3.8"/><circle class="point " cx="781.0" cy="322.6" r="3.8"/><circle class="point " cx="810.9" cy="159.7" r="3.8"/><circle class="point " cx="697.0" cy="229.8" r="3.8"/><circle class="point " cx="711.9" cy="145.7" r="3.8"/><circle class="point " cx="789.6" cy="289.1" r="3.8"/><circle class="point " cx="767.9" cy="145.2" r="3.8"/><circle class="point " cx="729.3" cy="143.1" r="3.8"/><circle class="point " cx="954.3" cy="373.7" r="3.8"/><circle class="point " cx="913.9" cy="179.3" r="3.8"/><circle class="point " cx="840.0" cy="252.4" r="3.8"/><circle class="point " cx="819.5" cy="308.3" r="3.8"/><circle class="point " cx="707.9" cy="306.2" r="3.8"/><circle class="point " cx="870.0" cy="144.9" r="3.8"/><circle class="point " cx="844.5" cy="348.6" r="3.8"/><circle class="point " cx="780.2" cy="231.8" r="3.8"/><circle class="point " cx="859.9" cy="377.6" r="3.8"/><circle class="point " cx="713.2" cy="203.3" r="3.8"/><circle class="point " cx="758.4" cy="332.1" r="3.8"/><circle class="point " cx="761.7" cy="351.8" r="3.8"/><circle class="point " cx="725.3" cy="130.2" r="3.8"/><circle class="point " cx="866.0" cy="274.9" r="3.8"/><circle class="point " cx="795.1" cy="134.9" r="3.8"/><circle class="point " cx="812.1" cy="151.7" r="3.8"/><circle class="point " cx="866.9" cy="147.6" r="3.8"/><circle class="point " cx="818.1" cy="315.8" r="3.8"/><circle class="point " cx="767.8" cy="311.2" r="3.8"/><circle class="point " cx="843.2" cy="143.5" r="3.8"/><circle class="point " cx="715.1" cy="295.7" r="3.8"/><circle class="point " cx="1000.0" cy="390.0" r="3.8"/><circle class="point " cx="727.3" cy="374.7" r="3.8"/><circle class="point " cx="688.4" cy="217.6" r="3.8"/><circle class="point " cx="830.7" cy="185.7" r="3.8"/><circle class="point " cx="705.8" cy="186.9" r="3.8"/><circle class="point " cx="873.8" cy="389.5" r="3.8"/><circle class="point " cx="993.5" cy="303.2" r="3.8"/><circle class="point " cx="844.3" cy="278.0" r="3.8"/><circle class="point " cx="735.3" cy="316.3" r="3.8"/><circle class="point " cx="700.7" cy="239.2" r="3.8"/><circle class="point " cx="752.1" cy="74.4" r="3.8"/><circle class="point " cx="699.2" cy="248.3" r="3.8"/><circle class="point " cx="741.3" cy="173.6" r="3.8"/><circle class="point " cx="746.2" cy="403.9" r="3.8"/><circle class="point " cx="814.1" cy="236.5" r="3.8"/><circle class="point " cx="882.0" cy="271.5" r="3.8"/><circle class="point " cx="799.1" cy="175.1" r="3.8"/><circle class="point " cx="764.9" cy="386.7" r="3.8"/><circle class="point " cx="761.4" cy="237.6" r="3.8"/><circle class="point " cx="803.4" cy="158.2" r="3.8"/><circle class="point " cx="760.2" cy="325.2" r="3.8"/><circle class="point " cx="690.7" cy="135.8" r="3.8"/><circle class="point " cx="863.3" cy="120.2" r="3.8"/><circle class="point " cx="1055.1" cy="404.4" r="3.8"/><circle class="point " cx="836.3" cy="168.8" r="3.8"/><circle class="point " cx="768.7" cy="206.6" r="3.8"/><circle class="point " cx="829.9" cy="371.7" r="3.8"/><circle class="point " cx="800.1" cy="270.0" r="3.8"/><circle class="point " cx="786.0" cy="293.3" r="3.8"/><circle class="point " cx="835.6" cy="307.2" r="3.8"/><circle class="point " cx="803.7" cy="355.1" r="3.8"/><circle class="point " cx="709.6" cy="224.3" r="3.8"/><circle class="point " cx="793.3" cy="157.8" r="3.8"/><circle class="point " cx="782.9" cy="175.1" r="3.8"/><circle class="point " cx="705.8" cy="296.4" r="3.8"/><circle class="point " cx="838.8" cy="149.3" r="3.8"/><circle class="point " cx="780.2" cy="274.0" r="3.8"/><circle class="point " cx="756.4" cy="257.7" r="3.8"/><circle class="point " cx="754.5" cy="209.1" r="3.8"/><circle class="point " cx="689.2" cy="152.6" r="3.8"/><circle class="point " cx="800.1" cy="374.6" r="3.8"/><circle class="point " cx="815.4" cy="295.7" r="3.8"/><circle class="point " cx="801.5" cy="217.0" r="3.8"/><circle class="point " cx="869.7" cy="182.0" r="3.8"/><circle class="point " cx="740.0" cy="144.5" r="3.8"/><circle class="point " cx="743.0" cy="326.1" r="3.8"/><circle class="point " cx="764.5" cy="268.4" r="3.8"/><circle class="point " cx="1073.8" cy="450.0" r="3.8"/><circle class="point " cx="708.7" cy="315.3" r="3.8"/><circle class="point " cx="744.3" cy="264.4" r="3.8"/><circle class="point " cx="731.9" cy="237.2" r="3.8"/><circle class="point " cx="878.7" cy="265.2" r="3.8"/><circle class="point " cx="718.3" cy="305.4" r="3.8"/><circle class="point " cx="719.7" cy="239.0" r="3.8"/><circle class="point " cx="766.1" cy="120.8" r="3.8"/><circle class="point " cx="726.3" cy="392.6" r="3.8"/><circle class="point " cx="911.5" cy="282.6" r="3.8"/><circle class="point " cx="734.1" cy="277.0" r="3.8"/><circle class="point " cx="837.5" cy="367.8" r="3.8"/><circle class="point " cx="813.8" cy="328.0" r="3.8"/><circle class="point " cx="810.1" cy="290.7" r="3.8"/><circle class="point " cx="857.1" cy="449.7" r="3.8"/><text class="ann" x="1042.5" y="135.2" text-anchor="start">瑞士</text><text class="ann" x="921.9" y="172.3" text-anchor="start">希腊</text><text class="ann" x="1001.5" y="318.2" text-anchor="start">黎巴嫩</text><text class="ann" x="760.1" y="92.4" text-anchor="start">卢森堡</text><text class="ann" x="1047.1" y="396.4" text-anchor="end">尼泊尔</text><text class="ann" x="1065.8" y="441.0" text-anchor="end">塔吉克斯坦</text><text class="ann" x="865.1" y="440.7" text-anchor="start">也门</text><text class="label" x="925.0" y="505" text-anchor="middle">崎岖度（标准化）</text><text class="label" transform="translate(630,258.5) rotate(-90)" text-anchor="middle">对数 GDP（占均值比例）</text></svg>