<svg xmlns="http://www.w3.org/2000/svg" width="920" height="650" viewBox="0 0 920 650">
<title>图 14.14：系统发育 Gaussian 过程的后验协方差函数</title>
<desc>灰色带和黑线表示先验区间与均值，靠近横轴的蓝色曲线表示三十条后验抽样；后验支持所有系统发育距离上都很小的协方差。</desc>
<rect width="920" height="650" fill="#fff"/>
<defs><clipPath id="phylo-cov-clip"><rect x="105" y="55" width="770" height="500"/></clipPath></defs>
<line x1="105.0" y1="555.0" x2="875.0" y2="555.0" stroke="#ddd9ce" stroke-width="1"/>
<line x1="98.0" y1="555.0" x2="105.0" y2="555.0" stroke="#30332e" stroke-width="1.5"/>
<text x="89.0" y="561.0" text-anchor="end" font-family="-apple-system,BlinkMacSystemFont,PingFang SC,Noto Sans CJK SC,sans-serif" font-size="17" font-weight="400" fill="#30332e">0.0</text>
<line x1="105.0" y1="388.3" x2="875.0" y2="388.3" stroke="#ddd9ce" stroke-width="1"/>
<line x1="98.0" y1="388.3" x2="105.0" y2="388.3" stroke="#30332e" stroke-width="1.5"/>
<text x="89.0" y="394.3" text-anchor="end" font-family="-apple-system,BlinkMacSystemFont,PingFang SC,Noto Sans CJK SC,sans-serif" font-size="17" font-weight="400" fill="#30332e">0.5</text>
<line x1="105.0" y1="221.7" x2="875.0" y2="221.7" stroke="#ddd9ce" stroke-width="1"/>
<line x1="98.0" y1="221.7" x2="105.0" y2="221.7" stroke="#30332e" stroke-width="1.5"/>
<text x="89.0" y="227.7" text-anchor="end" font-family="-apple-system,BlinkMacSystemFont,PingFang SC,Noto Sans CJK SC,sans-serif" font-size="17" font-weight="400" fill="#30332e">1.0</text>
<line x1="105.0" y1="55.0" x2="875.0" y2="55.0" stroke="#ddd9ce" stroke-width="1"/>
<line x1="98.0" y1="55.0" x2="105.0" y2="55.0" stroke="#30332e" stroke-width="1.5"/>
<text x="89.0" y="61.0" text-anchor="end" font-family="-apple-system,BlinkMacSystemFont,PingFang SC,Noto Sans CJK SC,sans-serif" font-size="17" font-weight="400" fill="#30332e">1.5</text>
<line x1="105.0" y1="555.0" x2="105.0" y2="562.0" stroke="#30332e" stroke-width="1.5"/>
<text x="105.0" y="586.0" text-anchor="middle" font-family="-apple-system,BlinkMacSystemFont,PingFang SC,Noto Sans CJK SC,sans-serif" font-size="17" font-weight="400" fill="#30332e">0.0</text>
<line x1="259.0" y1="555.0" x2="259.0" y2="562.0" stroke="#30332e" stroke-width="1.5"/>
<text x="259.0" y="586.0" text-anchor="middle" font-family="-apple-system,BlinkMacSystemFont,PingFang SC,Noto Sans CJK SC,sans-serif" font-size="17" font-weight="400" fill="#30332e">0.2</text>
<line x1="413.0" y1="555.0" x2="413.0" y2="562.0" stroke="#30332e" stroke-width="1.5"/>
<text x="413.0" y="586.0" text-anchor="middle" font-family="-apple-system,BlinkMacSystemFont,PingFang SC,Noto Sans CJK SC,sans-serif" font-size="17" font-weight="400" fill="#30332e">0.4</text>
<line x1="567.0" y1="555.0" x2="567.0" y2="562.0" stroke="#30332e" stroke-width="1.5"/>
<text x="567.0" y="586.0" text-anchor="middle" font-family="-apple-system,BlinkMacSystemFont,PingFang SC,Noto Sans CJK SC,sans-serif" font-size="17" font-weight="400" fill="#30332e">0.6</text>
<line x1="721.0" y1="555.0" x2="721.0" y2="562.0" stroke="#30332e" stroke-width="1.5"/>
<text x="721.0" y="586.0" text-anchor="middle" font-family="-apple-system,BlinkMacSystemFont,PingFang SC,Noto Sans CJK SC,sans-serif" font-size="17" font-weight="400" fill="#30332e">0.8</text>
<line x1="875.0" y1="555.0" x2="875.0" y2="562.0" stroke="#30332e" stroke-width="1.5"/>
<text x="875.0" y="586.0" text-anchor="middle" font-family="-apple-system,BlinkMacSystemFont,PingFang SC,Noto Sans CJK SC,sans-serif" font-size="17" font-weight="400" fill="#30332e">1.0</text>
<polygon points="105.0,88.3 114.6,102.1 124.2,115.5 133.9,128.5 143.5,141.1 153.1,153.3 162.8,165.2 172.4,176.7 182.0,187.9 191.6,198.8 201.2,209.3 210.9,219.5 220.5,229.4 230.1,239.0 239.8,248.4 249.4,257.4 259.0,266.2 268.6,274.8 278.2,283.1 287.9,291.1 297.5,298.9 307.1,306.5 316.8,313.8 326.4,320.9 336.0,327.8 345.6,334.6 355.2,341.1 364.9,347.4 374.5,353.5 384.1,359.5 393.8,365.3 403.4,370.9 413.0,376.3 422.6,381.6 432.2,386.7 441.9,391.7 451.5,396.5 461.1,401.2 470.8,405.8 480.4,410.2 490.0,414.4 499.6,418.6 509.2,422.6 518.9,426.5 528.5,430.3 538.1,434.0 547.8,437.6 557.4,441.1 567.0,444.4 576.6,447.7 586.2,450.9 595.9,454.0 605.5,456.9 615.1,459.8 624.8,462.6 634.4,465.4 644.0,468.0 653.6,470.6 663.2,473.1 672.9,475.5 682.5,477.9 692.1,480.1 701.8,482.4 711.4,484.5 721.0,486.6 730.6,488.6 740.2,490.6 749.9,492.5 759.5,494.3 769.1,496.1 778.8,497.9 788.4,499.5 798.0,501.2 807.6,502.8 817.2,504.3 826.9,505.8 836.5,507.3 846.1,508.7 855.8,510.0 865.4,511.4 875.0,512.7 875.0,550.5 865.4,550.3 855.8,550.1 846.1,549.8 836.5,549.6 826.9,549.3 817.2,549.1 807.6,548.8 798.0,548.5 788.4,548.1 778.8,547.8 769.1,547.5 759.5,547.1 749.9,546.7 740.2,546.3 730.6,545.9 721.0,545.4 711.4,545.0 701.8,544.5 692.1,544.0 682.5,543.4 672.9,542.9 663.2,542.3 653.6,541.7 644.0,541.0 634.4,540.3 624.8,539.6 615.1,538.9 605.5,538.1 595.9,537.3 586.2,536.4 576.6,535.5 567.0,534.5 557.4,533.5 547.8,532.5 538.1,531.4 528.5,530.3 518.9,529.1 509.2,527.8 499.6,526.5 490.0,525.1 480.4,523.6 470.8,522.1 461.1,520.5 451.5,518.8 441.9,517.1 432.2,515.2 422.6,513.3 413.0,511.3 403.4,509.1 393.8,506.9 384.1,504.6 374.5,502.1 364.9,499.5 355.2,496.8 345.6,494.0 336.0,491.0 326.4,487.9 316.8,484.7 307.1,481.2 297.5,477.7 287.9,473.9 278.2,469.9 268.6,465.8 259.0,461.5 249.4,456.9 239.8,452.1 230.1,447.1 220.5,441.9 210.9,436.4 201.2,430.6 191.6,424.6 182.0,418.2 172.4,411.6 162.8,404.6 153.1,397.3 143.5,389.6 133.9,381.6 124.2,373.1 114.6,364.3 105.0,355.0" fill="#d4d5d7" opacity="0.85" clip-path="url(#phylo-cov-clip)"/>
<polyline points="105.0,221.7 114.6,233.9 124.2,245.8 133.9,257.1 143.5,268.1 153.1,278.7 162.8,288.8 172.4,298.6 182.0,308.1 191.6,317.1 201.2,325.9 210.9,334.3 220.5,342.5 230.1,350.3 239.8,357.8 249.4,365.1 259.0,372.1 268.6,378.8 278.2,385.3 287.9,391.5 297.5,397.5 307.1,403.3 316.8,408.9 326.4,414.3 336.0,419.5 345.6,424.5 355.2,429.3 364.9,433.9 374.5,438.4 384.1,442.6 393.8,446.8 403.4,450.8 413.0,454.6 422.6,458.3 432.2,461.9 441.9,465.3 451.5,468.6 461.1,471.8 470.8,474.8 480.4,477.8 490.0,480.6 499.6,483.4 509.2,486.0 518.9,488.5 528.5,491.0 538.1,493.3 547.8,495.6 557.4,497.8 567.0,499.9 576.6,501.9 586.2,503.9 595.9,505.8 605.5,507.6 615.1,509.3 624.8,511.0 634.4,512.6 644.0,514.2 653.6,515.7 663.2,517.1 672.9,518.5 682.5,519.9 692.1,521.2 701.8,522.4 711.4,523.6 721.0,524.8 730.6,525.9 740.2,526.9 749.9,528.0 759.5,529.0 769.1,529.9 778.8,530.9 788.4,531.7 798.0,532.6 807.6,533.4 817.2,534.2 826.9,535.0 836.5,535.7 846.1,536.4 855.8,537.1 865.4,537.8 875.0,538.4" fill="none" stroke="#30332e" stroke-width="4" clip-path="url(#phylo-cov-clip)"/>
<polyline points="105.0,548.3 114.6,548.5 124.2,548.7 133.9,548.9 143.5,549.0 153.1,549.2 162.8,549.4 172.4,549.5 182.0,549.7 191.6,549.8 201.2,550.0 210.9,550.1 220.5,550.2 230.1,550.4 239.8,550.5 249.4,550.6 259.0,550.7 268.6,550.9 278.2,551.0 287.9,551.1 297.5,551.2 307.1,551.3 316.8,551.4 326.4,551.5 336.0,551.6 345.6,551.7 355.2,551.8 364.9,551.9 374.5,552.0 384.1,552.1 393.8,552.1 403.4,552.2 413.0,552.3 422.6,552.4 432.2,552.4 441.9,552.5 451.5,552.6 461.1,552.6 470.8,552.7 480.4,552.8 490.0,552.8 499.6,552.9 509.2,553.0 518.9,553.0 528.5,553.1 538.1,553.1 547.8,553.2 557.4,553.2 567.0,553.3 576.6,553.3 586.2,553.4 595.9,553.4 605.5,553.5 615.1,553.5 624.8,553.5 634.4,553.6 644.0,553.6 653.6,553.7 663.2,553.7 672.9,553.7 682.5,553.8 692.1,553.8 701.8,553.8 711.4,553.9 721.0,553.9 730.6,553.9 740.2,554.0 749.9,554.0 759.5,554.0 769.1,554.0 778.8,554.1 788.4,554.1 798.0,554.1 807.6,554.1 817.2,554.2 826.9,554.2 836.5,554.2 846.1,554.2 855.8,554.3 865.4,554.3 875.0,554.3" fill="none" stroke="#6670ee" stroke-width="2" opacity="0.34" clip-path="url(#phylo-cov-clip)"/>
<polyline points="105.0,548.0 114.6,548.2 124.2,548.4 133.9,548.5 143.5,548.7 153.1,548.9 162.8,549.1 172.4,549.2 182.0,549.4 191.6,549.6 201.2,549.7 210.9,549.9 220.5,550.0 230.1,550.2 239.8,550.3 249.4,550.4 259.0,550.6 268.6,550.7 278.2,550.8 287.9,550.9 297.5,551.0 307.1,551.1 316.8,551.3 326.4,551.4 336.0,551.5 345.6,551.6 355.2,551.7 364.9,551.8 374.5,551.8 384.1,551.9 393.8,552.0 403.4,552.1 413.0,552.2 422.6,552.3 432.2,552.3 441.9,552.4 451.5,552.5 461.1,552.6 470.8,552.6 480.4,552.7 490.0,552.8 499.6,552.8 509.2,552.9 518.9,552.9 528.5,553.0 538.1,553.1 547.8,553.1 557.4,553.2 567.0,553.2 576.6,553.3 586.2,553.3 595.9,553.4 605.5,553.4 615.1,553.5 624.8,553.5 634.4,553.5 644.0,553.6 653.6,553.6 663.2,553.7 672.9,553.7 682.5,553.7 692.1,553.8 701.8,553.8 711.4,553.8 721.0,553.9 730.6,553.9 740.2,553.9 749.9,554.0 759.5,554.0 769.1,554.0 778.8,554.1 788.4,554.1 798.0,554.1 807.6,554.1 817.2,554.2 826.9,554.2 836.5,554.2 846.1,554.2 855.8,554.2 865.4,554.3 875.0,554.3" fill="none" stroke="#6670ee" stroke-width="2" opacity="0.34" clip-path="url(#phylo-cov-clip)"/>
<polyline points="105.0,547.6 114.6,547.8 124.2,548.0 133.9,548.2 143.5,548.4 153.1,548.6 162.8,548.8 172.4,549.0 182.0,549.1 191.6,549.3 201.2,549.5 210.9,549.6 220.5,549.8 230.1,549.9 239.8,550.1 249.4,550.2 259.0,550.4 268.6,550.5 278.2,550.6 287.9,550.7 297.5,550.9 307.1,551.0 316.8,551.1 326.4,551.2 336.0,551.3 345.6,551.4 355.2,551.5 364.9,551.6 374.5,551.7 384.1,551.8 393.8,551.9 403.4,552.0 413.0,552.1 422.6,552.2 432.2,552.3 441.9,552.3 451.5,552.4 461.1,552.5 470.8,552.6 480.4,552.6 490.0,552.7 499.6,552.8 509.2,552.8 518.9,552.9 528.5,552.9 538.1,553.0 547.8,553.1 557.4,553.1 567.0,553.2 576.6,553.2 586.2,553.3 595.9,553.3 605.5,553.4 615.1,553.4 624.8,553.5 634.4,553.5 644.0,553.6 653.6,553.6 663.2,553.6 672.9,553.7 682.5,553.7 692.1,553.7 701.8,553.8 711.4,553.8 721.0,553.9 730.6,553.9 740.2,553.9 749.9,553.9 759.5,554.0 769.1,554.0 778.8,554.0 788.4,554.1 798.0,554.1 807.6,554.1 817.2,554.1 826.9,554.2 836.5,554.2 846.1,554.2 855.8,554.2 865.4,554.3 875.0,554.3" fill="none" stroke="#6670ee" stroke-width="2" opacity="0.34" clip-path="url(#phylo-cov-clip)"/>
<polyline points="105.0,547.2 114.6,547.5 124.2,547.7 133.9,547.9 143.5,548.1 153.1,548.3 162.8,548.5 172.4,548.7 182.0,548.9 191.6,549.1 201.2,549.2 210.9,549.4 220.5,549.6 230.1,549.7 239.8,549.9 249.4,550.0 259.0,550.2 268.6,550.3 278.2,550.4 287.9,550.6 297.5,550.7 307.1,550.8 316.8,551.0 326.4,551.1 336.0,551.2 345.6,551.3 355.2,551.4 364.9,551.5 374.5,551.6 384.1,551.7 393.8,551.8 403.4,551.9 413.0,552.0 422.6,552.1 432.2,552.2 441.9,552.2 451.5,552.3 461.1,552.4 470.8,552.5 480.4,552.6 490.0,552.6 499.6,552.7 509.2,552.8 518.9,552.8 528.5,552.9 538.1,553.0 547.8,553.0 557.4,553.1 567.0,553.1 576.6,553.2 586.2,553.2 595.9,553.3 605.5,553.3 615.1,553.4 624.8,553.4 634.4,553.5 644.0,553.5 653.6,553.6 663.2,553.6 672.9,553.6 682.5,553.7 692.1,553.7 701.8,553.8 711.4,553.8 721.0,553.8 730.6,553.9 740.2,553.9 749.9,553.9 759.5,554.0 769.1,554.0 778.8,554.0 788.4,554.1 798.0,554.1 807.6,554.1 817.2,554.1 826.9,554.2 836.5,554.2 846.1,554.2 855.8,554.2 865.4,554.3 875.0,554.3" fill="none" stroke="#6670ee" stroke-width="2" opacity="0.34" clip-path="url(#phylo-cov-clip)"/>
<polyline points="105.0,546.9 114.6,547.1 124.2,547.3 133.9,547.6 143.5,547.8 153.1,548.0 162.8,548.2 172.4,548.4 182.0,548.6 191.6,548.8 201.2,549.0 210.9,549.2 220.5,549.3 230.1,549.5 239.8,549.7 249.4,549.8 259.0,550.0 268.6,550.1 278.2,550.3 287.9,550.4 297.5,550.5 307.1,550.7 316.8,550.8 326.4,550.9 336.0,551.1 345.6,551.2 355.2,551.3 364.9,551.4 374.5,551.5 384.1,551.6 393.8,551.7 403.4,551.8 413.0,551.9 422.6,552.0 432.2,552.1 441.9,552.2 451.5,552.3 461.1,552.3 470.8,552.4 480.4,552.5 490.0,552.6 499.6,552.6 509.2,552.7 518.9,552.8 528.5,552.8 538.1,552.9 547.8,553.0 557.4,553.0 567.0,553.1 576.6,553.1 586.2,553.2 595.9,553.3 605.5,553.3 615.1,553.4 624.8,553.4 634.4,553.4 644.0,553.5 653.6,553.5 663.2,553.6 672.9,553.6 682.5,553.7 692.1,553.7 701.8,553.7 711.4,553.8 721.0,553.8 730.6,553.9 740.2,553.9 749.9,553.9 759.5,554.0 769.1,554.0 778.8,554.0 788.4,554.0 798.0,554.1 807.6,554.1 817.2,554.1 826.9,554.2 836.5,554.2 846.1,554.2 855.8,554.2 865.4,554.2 875.0,554.3" fill="none" stroke="#6670ee" stroke-width="2" opacity="0.34" clip-path="url(#phylo-cov-clip)"/>
<polyline points="105.0,546.5 114.6,546.8 124.2,547.0 133.9,547.2 143.5,547.5 153.1,547.7 162.8,547.9 172.4,548.1 182.0,548.3 191.6,548.5 201.2,548.7 210.9,548.9 220.5,549.1 230.1,549.3 239.8,549.5 249.4,549.6 259.0,549.8 268.6,549.9 278.2,550.1 287.9,550.2 297.5,550.4 307.1,550.5 316.8,550.7 326.4,550.8 336.0,550.9 345.6,551.0 355.2,551.2 364.9,551.3 374.5,551.4 384.1,551.5 393.8,551.6 403.4,551.7 413.0,551.8 422.6,551.9 432.2,552.0 441.9,552.1 451.5,552.2 461.1,552.3 470.8,552.3 480.4,552.4 490.0,552.5 499.6,552.6 509.2,552.7 518.9,552.7 528.5,552.8 538.1,552.9 547.8,552.9 557.4,553.0 567.0,553.0 576.6,553.1 586.2,553.2 595.9,553.2 605.5,553.3 615.1,553.3 624.8,553.4 634.4,553.4 644.0,553.5 653.6,553.5 663.2,553.6 672.9,553.6 682.5,553.6 692.1,553.7 701.8,553.7 711.4,553.8 721.0,553.8 730.6,553.8 740.2,553.9 749.9,553.9 759.5,553.9 769.1,554.0 778.8,554.0 788.4,554.0 798.0,554.1 807.6,554.1 817.2,554.1 826.9,554.1 836.5,554.2 846.1,554.2 855.8,554.2 865.4,554.2 875.0,554.3" fill="none" stroke="#6670ee" stroke-width="2" opacity="0.34" clip-path="url(#phylo-cov-clip)"/>
<polyline points="105.0,546.1 114.6,546.4 124.2,546.7 133.9,546.9 143.5,547.2 153.1,547.4 162.8,547.6 172.4,547.9 182.0,548.1 191.6,548.3 201.2,548.5 210.9,548.7 220.5,548.9 230.1,549.1 239.8,549.3 249.4,549.4 259.0,549.6 268.6,549.8 278.2,549.9 287.9,550.1 297.5,550.2 307.1,550.4 316.8,550.5 326.4,550.7 336.0,550.8 345.6,550.9 355.2,551.1 364.9,551.2 374.5,551.3 384.1,551.4 393.8,551.5 403.4,551.6 413.0,551.7 422.6,551.8 432.2,551.9 441.9,552.0 451.5,552.1 461.1,552.2 470.8,552.3 480.4,552.4 490.0,552.4 499.6,552.5 509.2,552.6 518.9,552.7 528.5,552.7 538.1,552.8 547.8,552.9 557.4,552.9 567.0,553.0 576.6,553.1 586.2,553.1 595.9,553.2 605.5,553.2 615.1,553.3 624.8,553.3 634.4,553.4 644.0,553.4 653.6,553.5 663.2,553.5 672.9,553.6 682.5,553.6 692.1,553.7 701.8,553.7 711.4,553.8 721.0,553.8 730.6,553.8 740.2,553.9 749.9,553.9 759.5,553.9 769.1,554.0 778.8,554.0 788.4,554.0 798.0,554.1 807.6,554.1 817.2,554.1 826.9,554.1 836.5,554.2 846.1,554.2 855.8,554.2 865.4,554.2 875.0,554.3" fill="none" stroke="#6670ee" stroke-width="2" opacity="0.34" clip-path="url(#phylo-cov-clip)"/>
<polyline points="105.0,545.8 114.6,546.1 124.2,546.3 133.9,546.6 143.5,546.9 153.1,547.1 162.8,547.4 172.4,547.6 182.0,547.8 191.6,548.1 201.2,548.3 210.9,548.5 220.5,548.7 230.1,548.9 239.8,549.1 249.4,549.3 259.0,549.4 268.6,549.6 278.2,549.8 287.9,549.9 297.5,550.1 307.1,550.2 316.8,550.4 326.4,550.5 336.0,550.7 345.6,550.8 355.2,550.9 364.9,551.1 374.5,551.2 384.1,551.3 393.8,551.4 403.4,551.5 413.0,551.6 422.6,551.7 432.2,551.8 441.9,551.9 451.5,552.0 461.1,552.1 470.8,552.2 480.4,552.3 490.0,552.4 499.6,552.5 509.2,552.6 518.9,552.6 528.5,552.7 538.1,552.8 547.8,552.8 557.4,552.9 567.0,553.0 576.6,553.0 586.2,553.1 595.9,553.2 605.5,553.2 615.1,553.3 624.8,553.3 634.4,553.4 644.0,553.4 653.6,553.5 663.2,553.5 672.9,553.6 682.5,553.6 692.1,553.7 701.8,553.7 711.4,553.7 721.0,553.8 730.6,553.8 740.2,553.9 749.9,553.9 759.5,553.9 769.1,554.0 778.8,554.0 788.4,554.0 798.0,554.1 807.6,554.1 817.2,554.1 826.9,554.1 836.5,554.2 846.1,554.2 855.8,554.2 865.4,554.2 875.0,554.3" fill="none" stroke="#6670ee" stroke-width="2" opacity="0.34" clip-path="url(#phylo-cov-clip)"/>
<polyline points="105.0,545.4 114.6,545.7 124.2,546.0 133.9,546.3 143.5,546.6 153.1,546.8 162.8,547.1 172.4,547.3 182.0,547.6 191.6,547.8 201.2,548.0 210.9,548.3 220.5,548.5 230.1,548.7 239.8,548.9 249.4,549.1 259.0,549.3 268.6,549.4 278.2,549.6 287.9,549.8 297.5,550.0 307.1,550.1 316.8,550.3 326.4,550.4 336.0,550.6 345.6,550.7 355.2,550.8 364.9,551.0 374.5,551.1 384.1,551.2 393.8,551.3 403.4,551.5 413.0,551.6 422.6,551.7 432.2,551.8 441.9,551.9 451.5,552.0 461.1,552.1 470.8,552.2 480.4,552.3 490.0,552.3 499.6,552.4 509.2,552.5 518.9,552.6 528.5,552.7 538.1,552.7 547.8,552.8 557.4,552.9 567.0,552.9 576.6,553.0 586.2,553.1 595.9,553.1 605.5,553.2 615.1,553.3 624.8,553.3 634.4,553.4 644.0,553.4 653.6,553.5 663.2,553.5 672.9,553.6 682.5,553.6 692.1,553.6 701.8,553.7 711.4,553.7 721.0,553.8 730.6,553.8 740.2,553.8 749.9,553.9 759.5,553.9 769.1,554.0 778.8,554.0 788.4,554.0 798.0,554.0 807.6,554.1 817.2,554.1 826.9,554.1 836.5,554.2 846.1,554.2 855.8,554.2 865.4,554.2 875.0,554.3" fill="none" stroke="#6670ee" stroke-width="2" opacity="0.34" clip-path="url(#phylo-cov-clip)"/>
<polyline points="105.0,545.0 114.6,545.4 124.2,545.7 133.9,546.0 143.5,546.3 153.1,546.5 162.8,546.8 172.4,547.1 182.0,547.3 191.6,547.6 201.2,547.8 210.9,548.0 220.5,548.3 230.1,548.5 239.8,548.7 249.4,548.9 259.0,549.1 268.6,549.3 278.2,549.5 287.9,549.6 297.5,549.8 307.1,550.0 316.8,550.1 326.4,550.3 336.0,550.4 345.6,550.6 355.2,550.7 364.9,550.9 374.5,551.0 384.1,551.1 393.8,551.3 403.4,551.4 413.0,551.5 422.6,551.6 432.2,551.7 441.9,551.8 451.5,551.9 461.1,552.0 470.8,552.1 480.4,552.2 490.0,552.3 499.6,552.4 509.2,552.5 518.9,552.5 528.5,552.6 538.1,552.7 547.8,552.8 557.4,552.8 567.0,552.9 576.6,553.0 586.2,553.0 595.9,553.1 605.5,553.2 615.1,553.2 624.8,553.3 634.4,553.3 644.0,553.4 653.6,553.4 663.2,553.5 672.9,553.5 682.5,553.6 692.1,553.6 701.8,553.7 711.4,553.7 721.0,553.8 730.6,553.8 740.2,553.8 749.9,553.9 759.5,553.9 769.1,554.0 778.8,554.0 788.4,554.0 798.0,554.0 807.6,554.1 817.2,554.1 826.9,554.1 836.5,554.2 846.1,554.2 855.8,554.2 865.4,554.2 875.0,554.3" fill="none" stroke="#6670ee" stroke-width="2" opacity="0.34" clip-path="url(#phylo-cov-clip)"/>
<polyline points="105.0,544.7 114.6,545.0 124.2,545.3 133.9,545.6 143.5,545.9 153.1,546.2 162.8,546.5 172.4,546.8 182.0,547.1 191.6,547.3 201.2,547.6 210.9,547.8 220.5,548.1 230.1,548.3 239.8,548.5 249.4,548.7 259.0,548.9 268.6,549.1 278.2,549.3 287.9,549.5 297.5,549.7 307.1,549.8 316.8,550.0 326.4,550.2 336.0,550.3 345.6,550.5 355.2,550.6 364.9,550.8 374.5,550.9 384.1,551.0 393.8,551.2 403.4,551.3 413.0,551.4 422.6,551.5 432.2,551.6 441.9,551.8 451.5,551.9 461.1,552.0 470.8,552.1 480.4,552.2 490.0,552.3 499.6,552.3 509.2,552.4 518.9,552.5 528.5,552.6 538.1,552.7 547.8,552.7 557.4,552.8 567.0,552.9 576.6,553.0 586.2,553.0 595.9,553.1 605.5,553.2 615.1,553.2 624.8,553.3 634.4,553.3 644.0,553.4 653.6,553.4 663.2,553.5 672.9,553.5 682.5,553.6 692.1,553.6 701.8,553.7 711.4,553.7 721.0,553.8 730.6,553.8 740.2,553.8 749.9,553.9 759.5,553.9 769.1,553.9 778.8,554.0 788.4,554.0 798.0,554.0 807.6,554.1 817.2,554.1 826.9,554.1 836.5,554.2 846.1,554.2 855.8,554.2 865.4,554.2 875.0,554.3" fill="none" stroke="#6670ee" stroke-width="2" opacity="0.34" clip-path="url(#phylo-cov-clip)"/>
<polyline points="105.0,544.3 114.6,544.7 124.2,545.0 133.9,545.3 143.5,545.6 153.1,546.0 162.8,546.3 172.4,546.5 182.0,546.8 191.6,547.1 201.2,547.4 210.9,547.6 220.5,547.9 230.1,548.1 239.8,548.3 249.4,548.5 259.0,548.8 268.6,549.0 278.2,549.2 287.9,549.4 297.5,549.5 307.1,549.7 316.8,549.9 326.4,550.1 336.0,550.2 345.6,550.4 355.2,550.5 364.9,550.7 374.5,550.8 384.1,551.0 393.8,551.1 403.4,551.2 413.0,551.4 422.6,551.5 432.2,551.6 441.9,551.7 451.5,551.8 461.1,551.9 470.8,552.0 480.4,552.1 490.0,552.2 499.6,552.3 509.2,552.4 518.9,552.5 528.5,552.6 538.1,552.6 547.8,552.7 557.4,552.8 567.0,552.9 576.6,552.9 586.2,553.0 595.9,553.1 605.5,553.1 615.1,553.2 624.8,553.3 634.4,553.3 644.0,553.4 653.6,553.4 663.2,553.5 672.9,553.5 682.5,553.6 692.1,553.6 701.8,553.7 711.4,553.7 721.0,553.8 730.6,553.8 740.2,553.8 749.9,553.9 759.5,553.9 769.1,553.9 778.8,554.0 788.4,554.0 798.0,554.0 807.6,554.1 817.2,554.1 826.9,554.1 836.5,554.2 846.1,554.2 855.8,554.2 865.4,554.2 875.0,554.3" fill="none" stroke="#6670ee" stroke-width="2" opacity="0.34" clip-path="url(#phylo-cov-clip)"/>
<polyline points="105.0,543.9 114.6,544.3 124.2,544.7 133.9,545.0 143.5,545.3 153.1,545.7 162.8,546.0 172.4,546.3 182.0,546.6 191.6,546.9 201.2,547.1 210.9,547.4 220.5,547.7 230.1,547.9 239.8,548.1 249.4,548.4 259.0,548.6 268.6,548.8 278.2,549.0 287.9,549.2 297.5,549.4 307.1,549.6 316.8,549.8 326.4,550.0 336.0,550.1 345.6,550.3 355.2,550.4 364.9,550.6 374.5,550.7 384.1,550.9 393.8,551.0 403.4,551.2 413.0,551.3 422.6,551.4 432.2,551.5 441.9,551.6 451.5,551.8 461.1,551.9 470.8,552.0 480.4,552.1 490.0,552.2 499.6,552.3 509.2,552.4 518.9,552.4 528.5,552.5 538.1,552.6 547.8,552.7 557.4,552.8 567.0,552.8 576.6,552.9 586.2,553.0 595.9,553.1 605.5,553.1 615.1,553.2 624.8,553.2 634.4,553.3 644.0,553.4 653.6,553.4 663.2,553.5 672.9,553.5 682.5,553.6 692.1,553.6 701.8,553.7 711.4,553.7 721.0,553.8 730.6,553.8 740.2,553.8 749.9,553.9 759.5,553.9 769.1,553.9 778.8,554.0 788.4,554.0 798.0,554.1 807.6,554.1 817.2,554.1 826.9,554.1 836.5,554.2 846.1,554.2 855.8,554.2 865.4,554.3 875.0,554.3" fill="none" stroke="#6670ee" stroke-width="2" opacity="0.34" clip-path="url(#phylo-cov-clip)"/>
<polyline points="105.0,543.6 114.6,544.0 124.2,544.3 133.9,544.7 143.5,545.0 153.1,545.4 162.8,545.7 172.4,546.0 182.0,546.3 191.6,546.6 201.2,546.9 210.9,547.2 220.5,547.5 230.1,547.7 239.8,548.0 249.4,548.2 259.0,548.4 268.6,548.7 278.2,548.9 287.9,549.1 297.5,549.3 307.1,549.5 316.8,549.7 326.4,549.8 336.0,550.0 345.6,550.2 355.2,550.4 364.9,550.5 374.5,550.7 384.1,550.8 393.8,551.0 403.4,551.1 413.0,551.2 422.6,551.4 432.2,551.5 441.9,551.6 451.5,551.7 461.1,551.8 470.8,551.9 480.4,552.0 490.0,552.1 499.6,552.2 509.2,552.3 518.9,552.4 528.5,552.5 538.1,552.6 547.8,552.7 557.4,552.8 567.0,552.8 576.6,552.9 586.2,553.0 595.9,553.0 605.5,553.1 615.1,553.2 624.8,553.2 634.4,553.3 644.0,553.4 653.6,553.4 663.2,553.5 672.9,553.5 682.5,553.6 692.1,553.6 701.8,553.7 711.4,553.7 721.0,553.8 730.6,553.8 740.2,553.8 749.9,553.9 759.5,553.9 769.1,554.0 778.8,554.0 788.4,554.0 798.0,554.1 807.6,554.1 817.2,554.1 826.9,554.1 836.5,554.2 846.1,554.2 855.8,554.2 865.4,554.3 875.0,554.3" fill="none" stroke="#6670ee" stroke-width="2" opacity="0.34" clip-path="url(#phylo-cov-clip)"/>
<polyline points="105.0,543.2 114.6,543.6 124.2,544.0 133.9,544.4 143.5,544.7 153.1,545.1 162.8,545.4 172.4,545.8 182.0,546.1 191.6,546.4 201.2,546.7 210.9,547.0 220.5,547.3 230.1,547.5 239.8,547.8 249.4,548.0 259.0,548.3 268.6,548.5 278.2,548.7 287.9,548.9 297.5,549.2 307.1,549.4 316.8,549.6 326.4,549.7 336.0,549.9 345.6,550.1 355.2,550.3 364.9,550.4 374.5,550.6 384.1,550.7 393.8,550.9 403.4,551.0 413.0,551.2 422.6,551.3 432.2,551.4 441.9,551.5 451.5,551.7 461.1,551.8 470.8,551.9 480.4,552.0 490.0,552.1 499.6,552.2 509.2,552.3 518.9,552.4 528.5,552.5 538.1,552.6 547.8,552.7 557.4,552.7 567.0,552.8 576.6,552.9 586.2,553.0 595.9,553.0 605.5,553.1 615.1,553.2 624.8,553.2 634.4,553.3 644.0,553.3 653.6,553.4 663.2,553.5 672.9,553.5 682.5,553.6 692.1,553.6 701.8,553.7 711.4,553.7 721.0,553.8 730.6,553.8 740.2,553.8 749.9,553.9 759.5,553.9 769.1,554.0 778.8,554.0 788.4,554.0 798.0,554.1 807.6,554.1 817.2,554.1 826.9,554.2 836.5,554.2 846.1,554.2 855.8,554.2 865.4,554.3 875.0,554.3" fill="none" stroke="#6670ee" stroke-width="2" opacity="0.34" clip-path="url(#phylo-cov-clip)"/>
<polyline points="105.0,542.8 114.6,543.3 124.2,543.7 133.9,544.1 143.5,544.4 153.1,544.8 162.8,545.2 172.4,545.5 182.0,545.9 191.6,546.2 201.2,546.5 210.9,546.8 220.5,547.1 230.1,547.3 239.8,547.6 249.4,547.9 259.0,548.1 268.6,548.4 278.2,548.6 287.9,548.8 297.5,549.0 307.1,549.2 316.8,549.4 326.4,549.6 336.0,549.8 345.6,550.0 355.2,550.2 364.9,550.4 374.5,550.5 384.1,550.7 393.8,550.8 403.4,551.0 413.0,551.1 422.6,551.2 432.2,551.4 441.9,551.5 451.5,551.6 461.1,551.7 470.8,551.9 480.4,552.0 490.0,552.1 499.6,552.2 509.2,552.3 518.9,552.4 528.5,552.5 538.1,552.6 547.8,552.6 557.4,552.7 567.0,552.8 576.6,552.9 586.2,553.0 595.9,553.0 605.5,553.1 615.1,553.2 624.8,553.2 634.4,553.3 644.0,553.3 653.6,553.4 663.2,553.5 672.9,553.5 682.5,553.6 692.1,553.6 701.8,553.7 711.4,553.7 721.0,553.8 730.6,553.8 740.2,553.8 749.9,553.9 759.5,553.9 769.1,554.0 778.8,554.0 788.4,554.0 798.0,554.1 807.6,554.1 817.2,554.1 826.9,554.2 836.5,554.2 846.1,554.2 855.8,554.2 865.4,554.3 875.0,554.3" fill="none" stroke="#6670ee" stroke-width="2" opacity="0.34" clip-path="url(#phylo-cov-clip)"/>
<polyline points="105.0,542.5 114.6,542.9 124.2,543.3 133.9,543.8 143.5,544.2 153.1,544.5 162.8,544.9 172.4,545.3 182.0,545.6 191.6,545.9 201.2,546.3 210.9,546.6 220.5,546.9 230.1,547.2 239.8,547.4 249.4,547.7 259.0,548.0 268.6,548.2 278.2,548.5 287.9,548.7 297.5,548.9 307.1,549.1 316.8,549.3 326.4,549.5 336.0,549.7 345.6,549.9 355.2,550.1 364.9,550.3 374.5,550.4 384.1,550.6 393.8,550.8 403.4,550.9 413.0,551.1 422.6,551.2 432.2,551.3 441.9,551.5 451.5,551.6 461.1,551.7 470.8,551.8 480.4,551.9 490.0,552.0 499.6,552.2 509.2,552.3 518.9,552.3 528.5,552.4 538.1,552.5 547.8,552.6 557.4,552.7 567.0,552.8 576.6,552.9 586.2,552.9 595.9,553.0 605.5,553.1 615.1,553.2 624.8,553.2 634.4,553.3 644.0,553.3 653.6,553.4 663.2,553.5 672.9,553.5 682.5,553.6 692.1,553.6 701.8,553.7 711.4,553.7 721.0,553.8 730.6,553.8 740.2,553.8 749.9,553.9 759.5,553.9 769.1,554.0 778.8,554.0 788.4,554.0 798.0,554.1 807.6,554.1 817.2,554.1 826.9,554.2 836.5,554.2 846.1,554.2 855.8,554.3 865.4,554.3 875.0,554.3" fill="none" stroke="#6670ee" stroke-width="2" opacity="0.34" clip-path="url(#phylo-cov-clip)"/>
<polyline points="105.0,542.1 114.6,542.6 124.2,543.0 133.9,543.4 143.5,543.9 153.1,544.3 162.8,544.6 172.4,545.0 182.0,545.4 191.6,545.7 201.2,546.1 210.9,546.4 220.5,546.7 230.1,547.0 239.8,547.3 249.4,547.6 259.0,547.8 268.6,548.1 278.2,548.3 287.9,548.6 297.5,548.8 307.1,549.0 316.8,549.2 326.4,549.4 336.0,549.6 345.6,549.8 355.2,550.0 364.9,550.2 374.5,550.4 384.1,550.5 393.8,550.7 403.4,550.9 413.0,551.0 422.6,551.1 432.2,551.3 441.9,551.4 451.5,551.5 461.1,551.7 470.8,551.8 480.4,551.9 490.0,552.0 499.6,552.1 509.2,552.2 518.9,552.3 528.5,552.4 538.1,552.5 547.8,552.6 557.4,552.7 567.0,552.8 576.6,552.9 586.2,552.9 595.9,553.0 605.5,553.1 615.1,553.1 624.8,553.2 634.4,553.3 644.0,553.3 653.6,553.4 663.2,553.5 672.9,553.5 682.5,553.6 692.1,553.6 701.8,553.7 711.4,553.7 721.0,553.8 730.6,553.8 740.2,553.8 749.9,553.9 759.5,553.9 769.1,554.0 778.8,554.0 788.4,554.0 798.0,554.1 807.6,554.1 817.2,554.1 826.9,554.2 836.5,554.2 846.1,554.2 855.8,554.3 865.4,554.3 875.0,554.3" fill="none" stroke="#6670ee" stroke-width="2" opacity="0.34" clip-path="url(#phylo-cov-clip)"/>
<polyline points="105.0,541.7 114.6,542.2 124.2,542.7 133.9,543.1 143.5,543.6 153.1,544.0 162.8,544.4 172.4,544.8 182.0,545.1 191.6,545.5 201.2,545.8 210.9,546.2 220.5,546.5 230.1,546.8 239.8,547.1 249.4,547.4 259.0,547.7 268.6,547.9 278.2,548.2 287.9,548.4 297.5,548.7 307.1,548.9 316.8,549.1 326.4,549.4 336.0,549.6 345.6,549.8 355.2,549.9 364.9,550.1 374.5,550.3 384.1,550.5 393.8,550.6 403.4,550.8 413.0,551.0 422.6,551.1 432.2,551.2 441.9,551.4 451.5,551.5 461.1,551.6 470.8,551.8 480.4,551.9 490.0,552.0 499.6,552.1 509.2,552.2 518.9,552.3 528.5,552.4 538.1,552.5 547.8,552.6 557.4,552.7 567.0,552.8 576.6,552.8 586.2,552.9 595.9,553.0 605.5,553.1 615.1,553.1 624.8,553.2 634.4,553.3 644.0,553.3 653.6,553.4 663.2,553.5 672.9,553.5 682.5,553.6 692.1,553.6 701.8,553.7 711.4,553.7 721.0,553.8 730.6,553.8 740.2,553.9 749.9,553.9 759.5,553.9 769.1,554.0 778.8,554.0 788.4,554.0 798.0,554.1 807.6,554.1 817.2,554.1 826.9,554.2 836.5,554.2 846.1,554.2 855.8,554.3 865.4,554.3 875.0,554.3" fill="none" stroke="#6670ee" stroke-width="2" opacity="0.34" clip-path="url(#phylo-cov-clip)"/>
<polyline points="105.0,541.4 114.6,541.9 124.2,542.4 133.9,542.8 143.5,543.3 153.1,543.7 162.8,544.1 172.4,544.5 182.0,544.9 191.6,545.3 201.2,545.6 210.9,546.0 220.5,546.3 230.1,546.6 239.8,546.9 249.4,547.2 259.0,547.5 268.6,547.8 278.2,548.1 287.9,548.3 297.5,548.6 307.1,548.8 316.8,549.0 326.4,549.3 336.0,549.5 345.6,549.7 355.2,549.9 364.9,550.1 374.5,550.2 384.1,550.4 393.8,550.6 403.4,550.8 413.0,550.9 422.6,551.1 432.2,551.2 441.9,551.3 451.5,551.5 461.1,551.6 470.8,551.7 480.4,551.9 490.0,552.0 499.6,552.1 509.2,552.2 518.9,552.3 528.5,552.4 538.1,552.5 547.8,552.6 557.4,552.7 567.0,552.8 576.6,552.8 586.2,552.9 595.9,553.0 605.5,553.1 615.1,553.1 624.8,553.2 634.4,553.3 644.0,553.3 653.6,553.4 663.2,553.5 672.9,553.5 682.5,553.6 692.1,553.6 701.8,553.7 711.4,553.7 721.0,553.8 730.6,553.8 740.2,553.9 749.9,553.9 759.5,553.9 769.1,554.0 778.8,554.0 788.4,554.1 798.0,554.1 807.6,554.1 817.2,554.2 826.9,554.2 836.5,554.2 846.1,554.2 855.8,554.3 865.4,554.3 875.0,554.3" fill="none" stroke="#6670ee" stroke-width="2" opacity="0.34" clip-path="url(#phylo-cov-clip)"/>
<polyline points="105.0,541.0 114.6,541.5 124.2,542.0 133.9,542.5 143.5,543.0 153.1,543.4 162.8,543.9 172.4,544.3 182.0,544.7 191.6,545.1 201.2,545.4 210.9,545.8 220.5,546.1 230.1,546.5 239.8,546.8 249.4,547.1 259.0,547.4 268.6,547.7 278.2,548.0 287.9,548.2 297.5,548.5 307.1,548.7 316.8,548.9 326.4,549.2 336.0,549.4 345.6,549.6 355.2,549.8 364.9,550.0 374.5,550.2 384.1,550.4 393.8,550.5 403.4,550.7 413.0,550.9 422.6,551.0 432.2,551.2 441.9,551.3 451.5,551.5 461.1,551.6 470.8,551.7 480.4,551.8 490.0,552.0 499.6,552.1 509.2,552.2 518.9,552.3 528.5,552.4 538.1,552.5 547.8,552.6 557.4,552.7 567.0,552.8 576.6,552.8 586.2,552.9 595.9,553.0 605.5,553.1 615.1,553.1 624.8,553.2 634.4,553.3 644.0,553.3 653.6,553.4 663.2,553.5 672.9,553.5 682.5,553.6 692.1,553.6 701.8,553.7 711.4,553.7 721.0,553.8 730.6,553.8 740.2,553.9 749.9,553.9 759.5,554.0 769.1,554.0 778.8,554.0 788.4,554.1 798.0,554.1 807.6,554.1 817.2,554.2 826.9,554.2 836.5,554.2 846.1,554.3 855.8,554.3 865.4,554.3 875.0,554.3" fill="none" stroke="#6670ee" stroke-width="2" opacity="0.34" clip-path="url(#phylo-cov-clip)"/>
<polyline points="105.0,540.6 114.6,541.2 124.2,541.7 133.9,542.2 143.5,542.7 153.1,543.2 162.8,543.6 172.4,544.0 182.0,544.5 191.6,544.9 201.2,545.2 210.9,545.6 220.5,546.0 230.1,546.3 239.8,546.6 249.4,547.0 259.0,547.3 268.6,547.5 278.2,547.8 287.9,548.1 297.5,548.4 307.1,548.6 316.8,548.9 326.4,549.1 336.0,549.3 345.6,549.5 355.2,549.7 364.9,549.9 374.5,550.1 384.1,550.3 393.8,550.5 403.4,550.7 413.0,550.8 422.6,551.0 432.2,551.1 441.9,551.3 451.5,551.4 461.1,551.6 470.8,551.7 480.4,551.8 490.0,551.9 499.6,552.1 509.2,552.2 518.9,552.3 528.5,552.4 538.1,552.5 547.8,552.6 557.4,552.7 567.0,552.8 576.6,552.8 586.2,552.9 595.9,553.0 605.5,553.1 615.1,553.1 624.8,553.2 634.4,553.3 644.0,553.3 653.6,553.4 663.2,553.5 672.9,553.5 682.5,553.6 692.1,553.6 701.8,553.7 711.4,553.7 721.0,553.8 730.6,553.8 740.2,553.9 749.9,553.9 759.5,554.0 769.1,554.0 778.8,554.0 788.4,554.1 798.0,554.1 807.6,554.1 817.2,554.2 826.9,554.2 836.5,554.2 846.1,554.3 855.8,554.3 865.4,554.3 875.0,554.3" fill="none" stroke="#6670ee" stroke-width="2" opacity="0.34" clip-path="url(#phylo-cov-clip)"/>
<polyline points="105.0,540.3 114.6,540.8 124.2,541.4 133.9,541.9 143.5,542.4 153.1,542.9 162.8,543.3 172.4,543.8 182.0,544.2 191.6,544.6 201.2,545.0 210.9,545.4 220.5,545.8 230.1,546.1 239.8,546.5 249.4,546.8 259.0,547.1 268.6,547.4 278.2,547.7 287.9,548.0 297.5,548.3 307.1,548.5 316.8,548.8 326.4,549.0 336.0,549.2 345.6,549.5 355.2,549.7 364.9,549.9 374.5,550.1 384.1,550.3 393.8,550.4 403.4,550.6 413.0,550.8 422.6,550.9 432.2,551.1 441.9,551.3 451.5,551.4 461.1,551.5 470.8,551.7 480.4,551.8 490.0,551.9 499.6,552.0 509.2,552.2 518.9,552.3 528.5,552.4 538.1,552.5 547.8,552.6 557.4,552.7 567.0,552.7 576.6,552.8 586.2,552.9 595.9,553.0 605.5,553.1 615.1,553.1 624.8,553.2 634.4,553.3 644.0,553.4 653.6,553.4 663.2,553.5 672.9,553.5 682.5,553.6 692.1,553.6 701.8,553.7 711.4,553.7 721.0,553.8 730.6,553.8 740.2,553.9 749.9,553.9 759.5,554.0 769.1,554.0 778.8,554.0 788.4,554.1 798.0,554.1 807.6,554.2 817.2,554.2 826.9,554.2 836.5,554.2 846.1,554.3 855.8,554.3 865.4,554.3 875.0,554.4" fill="none" stroke="#6670ee" stroke-width="2" opacity="0.34" clip-path="url(#phylo-cov-clip)"/>
<polyline points="105.0,539.9 114.6,540.5 124.2,541.1 133.9,541.6 143.5,542.1 153.1,542.6 162.8,543.1 172.4,543.6 182.0,544.0 191.6,544.4 201.2,544.8 210.9,545.2 220.5,545.6 230.1,546.0 239.8,546.3 249.4,546.7 259.0,547.0 268.6,547.3 278.2,547.6 287.9,547.9 297.5,548.2 307.1,548.4 316.8,548.7 326.4,548.9 336.0,549.2 345.6,549.4 355.2,549.6 364.9,549.8 374.5,550.0 384.1,550.2 393.8,550.4 403.4,550.6 413.0,550.8 422.6,550.9 432.2,551.1 441.9,551.2 451.5,551.4 461.1,551.5 470.8,551.7 480.4,551.8 490.0,551.9 499.6,552.0 509.2,552.1 518.9,552.3 528.5,552.4 538.1,552.5 547.8,552.6 557.4,552.7 567.0,552.7 576.6,552.8 586.2,552.9 595.9,553.0 605.5,553.1 615.1,553.2 624.8,553.2 634.4,553.3 644.0,553.4 653.6,553.4 663.2,553.5 672.9,553.5 682.5,553.6 692.1,553.7 701.8,553.7 711.4,553.8 721.0,553.8 730.6,553.9 740.2,553.9 749.9,553.9 759.5,554.0 769.1,554.0 778.8,554.1 788.4,554.1 798.0,554.1 807.6,554.2 817.2,554.2 826.9,554.2 836.5,554.3 846.1,554.3 855.8,554.3 865.4,554.3 875.0,554.4" fill="none" stroke="#6670ee" stroke-width="2" opacity="0.34" clip-path="url(#phylo-cov-clip)"/>
<polyline points="105.0,539.5 114.6,540.1 124.2,540.7 133.9,541.3 143.5,541.8 153.1,542.3 162.8,542.8 172.4,543.3 182.0,543.8 191.6,544.2 201.2,544.6 210.9,545.1 220.5,545.4 230.1,545.8 239.8,546.2 249.4,546.5 259.0,546.9 268.6,547.2 278.2,547.5 287.9,547.8 297.5,548.1 307.1,548.3 316.8,548.6 326.4,548.9 336.0,549.1 345.6,549.3 355.2,549.6 364.9,549.8 374.5,550.0 384.1,550.2 393.8,550.4 403.4,550.5 413.0,550.7 422.6,550.9 432.2,551.0 441.9,551.2 451.5,551.4 461.1,551.5 470.8,551.6 480.4,551.8 490.0,551.9 499.6,552.0 509.2,552.1 518.9,552.2 528.5,552.4 538.1,552.5 547.8,552.6 557.4,552.7 567.0,552.7 576.6,552.8 586.2,552.9 595.9,553.0 605.5,553.1 615.1,553.2 624.8,553.2 634.4,553.3 644.0,553.4 653.6,553.4 663.2,553.5 672.9,553.6 682.5,553.6 692.1,553.7 701.8,553.7 711.4,553.8 721.0,553.8 730.6,553.9 740.2,553.9 749.9,553.9 759.5,554.0 769.1,554.0 778.8,554.1 788.4,554.1 798.0,554.1 807.6,554.2 817.2,554.2 826.9,554.2 836.5,554.3 846.1,554.3 855.8,554.3 865.4,554.4 875.0,554.4" fill="none" stroke="#6670ee" stroke-width="2" opacity="0.34" clip-path="url(#phylo-cov-clip)"/>
<polyline points="105.0,539.2 114.6,539.8 124.2,540.4 133.9,541.0 143.5,541.5 153.1,542.1 162.8,542.6 172.4,543.1 182.0,543.6 191.6,544.0 201.2,544.5 210.9,544.9 220.5,545.3 230.1,545.7 239.8,546.0 249.4,546.4 259.0,546.7 268.6,547.1 278.2,547.4 287.9,547.7 297.5,548.0 307.1,548.3 316.8,548.5 326.4,548.8 336.0,549.0 345.6,549.3 355.2,549.5 364.9,549.7 374.5,549.9 384.1,550.1 393.8,550.3 403.4,550.5 413.0,550.7 422.6,550.9 432.2,551.0 441.9,551.2 451.5,551.3 461.1,551.5 470.8,551.6 480.4,551.8 490.0,551.9 499.6,552.0 509.2,552.1 518.9,552.2 528.5,552.3 538.1,552.5 547.8,552.6 557.4,552.7 567.0,552.7 576.6,552.8 586.2,552.9 595.9,553.0 605.5,553.1 615.1,553.2 624.8,553.2 634.4,553.3 644.0,553.4 653.6,553.4 663.2,553.5 672.9,553.6 682.5,553.6 692.1,553.7 701.8,553.7 711.4,553.8 721.0,553.8 730.6,553.9 740.2,553.9 749.9,554.0 759.5,554.0 769.1,554.0 778.8,554.1 788.4,554.1 798.0,554.2 807.6,554.2 817.2,554.2 826.9,554.2 836.5,554.3 846.1,554.3 855.8,554.3 865.4,554.4 875.0,554.4" fill="none" stroke="#6670ee" stroke-width="2" opacity="0.34" clip-path="url(#phylo-cov-clip)"/>
<polyline points="105.0,538.8 114.6,539.5 124.2,540.1 133.9,540.7 143.5,541.3 153.1,541.8 162.8,542.3 172.4,542.9 182.0,543.3 191.6,543.8 201.2,544.3 210.9,544.7 220.5,545.1 230.1,545.5 239.8,545.9 249.4,546.3 259.0,546.6 268.6,546.9 278.2,547.3 287.9,547.6 297.5,547.9 307.1,548.2 316.8,548.4 326.4,548.7 336.0,549.0 345.6,549.2 355.2,549.4 364.9,549.7 374.5,549.9 384.1,550.1 393.8,550.3 403.4,550.5 413.0,550.7 422.6,550.8 432.2,551.0 441.9,551.2 451.5,551.3 461.1,551.5 470.8,551.6 480.4,551.7 490.0,551.9 499.6,552.0 509.2,552.1 518.9,552.2 528.5,552.3 538.1,552.5 547.8,552.6 557.4,552.7 567.0,552.7 576.6,552.8 586.2,552.9 595.9,553.0 605.5,553.1 615.1,553.2 624.8,553.2 634.4,553.3 644.0,553.4 653.6,553.4 663.2,553.5 672.9,553.6 682.5,553.6 692.1,553.7 701.8,553.7 711.4,553.8 721.0,553.8 730.6,553.9 740.2,553.9 749.9,554.0 759.5,554.0 769.1,554.1 778.8,554.1 788.4,554.1 798.0,554.2 807.6,554.2 817.2,554.2 826.9,554.3 836.5,554.3 846.1,554.3 855.8,554.3 865.4,554.4 875.0,554.4" fill="none" stroke="#6670ee" stroke-width="2" opacity="0.34" clip-path="url(#phylo-cov-clip)"/>
<polyline points="105.0,538.4 114.6,539.1 124.2,539.8 133.9,540.4 143.5,541.0 153.1,541.5 162.8,542.1 172.4,542.6 182.0,543.1 191.6,543.6 201.2,544.1 210.9,544.5 220.5,544.9 230.1,545.4 239.8,545.7 249.4,546.1 259.0,546.5 268.6,546.8 278.2,547.2 287.9,547.5 297.5,547.8 307.1,548.1 316.8,548.4 326.4,548.6 336.0,548.9 345.6,549.1 355.2,549.4 364.9,549.6 374.5,549.8 384.1,550.0 393.8,550.2 403.4,550.4 413.0,550.6 422.6,550.8 432.2,551.0 441.9,551.1 451.5,551.3 461.1,551.4 470.8,551.6 480.4,551.7 490.0,551.9 499.6,552.0 509.2,552.1 518.9,552.2 528.5,552.3 538.1,552.5 547.8,552.6 557.4,552.7 567.0,552.8 576.6,552.8 586.2,552.9 595.9,553.0 605.5,553.1 615.1,553.2 624.8,553.2 634.4,553.3 644.0,553.4 653.6,553.5 663.2,553.5 672.9,553.6 682.5,553.6 692.1,553.7 701.8,553.7 711.4,553.8 721.0,553.8 730.6,553.9 740.2,553.9 749.9,554.0 759.5,554.0 769.1,554.1 778.8,554.1 788.4,554.1 798.0,554.2 807.6,554.2 817.2,554.2 826.9,554.3 836.5,554.3 846.1,554.3 855.8,554.4 865.4,554.4 875.0,554.4" fill="none" stroke="#6670ee" stroke-width="2" opacity="0.34" clip-path="url(#phylo-cov-clip)"/>
<polyline points="105.0,538.1 114.6,538.8 124.2,539.4 133.9,540.1 143.5,540.7 153.1,541.3 162.8,541.8 172.4,542.4 182.0,542.9 191.6,543.4 201.2,543.9 210.9,544.3 220.5,544.8 230.1,545.2 239.8,545.6 249.4,546.0 259.0,546.4 268.6,546.7 278.2,547.1 287.9,547.4 297.5,547.7 307.1,548.0 316.8,548.3 326.4,548.6 336.0,548.8 345.6,549.1 355.2,549.3 364.9,549.6 374.5,549.8 384.1,550.0 393.8,550.2 403.4,550.4 413.0,550.6 422.6,550.8 432.2,551.0 441.9,551.1 451.5,551.3 461.1,551.4 470.8,551.6 480.4,551.7 490.0,551.9 499.6,552.0 509.2,552.1 518.9,552.2 528.5,552.3 538.1,552.5 547.8,552.6 557.4,552.7 567.0,552.8 576.6,552.9 586.2,552.9 595.9,553.0 605.5,553.1 615.1,553.2 624.8,553.3 634.4,553.3 644.0,553.4 653.6,553.5 663.2,553.5 672.9,553.6 682.5,553.6 692.1,553.7 701.8,553.8 711.4,553.8 721.0,553.9 730.6,553.9 740.2,553.9 749.9,554.0 759.5,554.0 769.1,554.1 778.8,554.1 788.4,554.1 798.0,554.2 807.6,554.2 817.2,554.3 826.9,554.3 836.5,554.3 846.1,554.3 855.8,554.4 865.4,554.4 875.0,554.4" fill="none" stroke="#6670ee" stroke-width="2" opacity="0.34" clip-path="url(#phylo-cov-clip)"/>
<polyline points="105.0,537.7 114.6,538.4 124.2,539.1 133.9,539.8 143.5,540.4 153.1,541.0 162.8,541.6 172.4,542.2 182.0,542.7 191.6,543.2 201.2,543.7 210.9,544.2 220.5,544.6 230.1,545.1 239.8,545.5 249.4,545.9 259.0,546.3 268.6,546.6 278.2,547.0 287.9,547.3 297.5,547.6 307.1,547.9 316.8,548.2 326.4,548.5 336.0,548.8 345.6,549.0 355.2,549.3 364.9,549.5 374.5,549.8 384.1,550.0 393.8,550.2 403.4,550.4 413.0,550.6 422.6,550.8 432.2,550.9 441.9,551.1 451.5,551.3 461.1,551.4 470.8,551.6 480.4,551.7 490.0,551.9 499.6,552.0 509.2,552.1 518.9,552.2 528.5,552.3 538.1,552.5 547.8,552.6 557.4,552.7 567.0,552.8 576.6,552.9 586.2,552.9 595.9,553.0 605.5,553.1 615.1,553.2 624.8,553.3 634.4,553.3 644.0,553.4 653.6,553.5 663.2,553.5 672.9,553.6 682.5,553.7 692.1,553.7 701.8,553.8 711.4,553.8 721.0,553.9 730.6,553.9 740.2,554.0 749.9,554.0 759.5,554.0 769.1,554.1 778.8,554.1 788.4,554.2 798.0,554.2 807.6,554.2 817.2,554.3 826.9,554.3 836.5,554.3 846.1,554.4 855.8,554.4 865.4,554.4 875.0,554.4" fill="none" stroke="#6670ee" stroke-width="2" opacity="0.34" clip-path="url(#phylo-cov-clip)"/>
<line x1="105.0" y1="55.0" x2="105.0" y2="555.0" stroke="#30332e" stroke-width="1.8"/>
<line x1="105.0" y1="555.0" x2="875.0" y2="555.0" stroke="#30332e" stroke-width="1.8"/>
<text x="490.0" y="625.0" text-anchor="middle" font-family="-apple-system,BlinkMacSystemFont,PingFang SC,Noto Sans CJK SC,sans-serif" font-size="21" font-weight="600" fill="#30332e">标准化系统发育距离</text>
<text x="34.0" y="305.0" text-anchor="middle" font-family="-apple-system,BlinkMacSystemFont,PingFang SC,Noto Sans CJK SC,sans-serif" font-size="21" font-weight="600" fill="#30332e" transform="rotate(-90 34 305.0)">协方差</text>
<text x="459.2" y="405.0" text-anchor="start" font-family="-apple-system,BlinkMacSystemFont,PingFang SC,Noto Sans CJK SC,sans-serif" font-size="20" font-weight="600" fill="#30332e">先验</text>
<text x="182.0" y="521.7" text-anchor="start" font-family="-apple-system,BlinkMacSystemFont,PingFang SC,Noto Sans CJK SC,sans-serif" font-size="20" font-weight="600" fill="#6670ee">后验</text>
</svg>