<svg xmlns="http://www.w3.org/2000/svg" width="1200" height="900" viewBox="0 0 1200 900" role="img">
<title>健康链的秩直方图</title>
<desc>五个参数各有四条链的重叠秩直方图，形状近似均匀，没有某条链持续高于或低于其他链。</desc>
<rect width="100%" height="100%" fill="#fff"/>
<line x1="85" y1="260" x2="555" y2="260" stroke="#30332e"/>
<line x1="85" y1="70" x2="85" y2="260" stroke="#30332e"/>
<text x="85" y="56" font-family="-apple-system,BlinkMacSystemFont,PingFang SC,Noto Sans CJK SC,sans-serif" font-size="22" fill="#30332e">a[1]</text>
<text x="555" y="56" text-anchor="end" font-family="-apple-system,BlinkMacSystemFont,PingFang SC,Noto Sans CJK SC,sans-serif" font-size="18" fill="#30332e">n_eff = 2671</text>
<polyline points="85.0,260.0 85.0,135.2 104.6,135.2 104.6,158.2 124.2,158.2 124.2,130.7 143.8,130.7 143.8,154.5 163.3,154.5 163.3,124.0 182.9,124.0 182.9,148.7 202.5,148.7 202.5,174.7 222.1,174.7 222.1,126.8 241.7,126.8 241.7,169.9 261.2,169.9 261.2,142.3 280.8,142.3 280.8,150.1 300.4,150.1 300.4,168.6 320.0,168.6 320.0,142.9 339.6,142.9 339.6,183.9 359.2,183.9 359.2,169.0 378.7,169.0 378.8,194.9 398.3,194.9 398.3,159.7 417.9,159.7 417.9,171.4 437.5,171.4 437.5,143.9 457.1,143.9 457.1,162.0 476.7,162.0 476.7,124.6 496.2,124.6 496.2,188.5 515.8,188.5 515.8,140.3 535.4,140.3 535.4,156.4 555.0,156.4 555.0,260.0" fill="none" stroke="#30332e" stroke-width="2" opacity="0.95"/>
<polyline points="85.0,260.0 85.0,138.7 104.6,138.7 104.6,154.0 124.2,154.0 124.2,155.0 143.8,155.0 143.8,156.7 163.3,156.7 163.3,133.0 182.9,133.0 182.9,142.2 202.5,142.2 202.5,140.8 222.1,140.8 222.1,132.3 241.7,132.3 241.7,149.6 261.2,149.6 261.2,161.4 280.8,161.4 280.8,168.7 300.4,168.7 300.4,153.4 320.0,153.4 320.0,191.8 339.6,191.8 339.6,142.0 359.2,142.0 359.2,138.7 378.7,138.7 378.8,141.6 398.3,141.6 398.3,145.0 417.9,145.0 417.9,157.8 437.5,157.8 437.5,198.1 457.1,198.1 457.1,115.4 476.7,115.4 476.7,162.9 496.2,162.9 496.2,131.2 515.8,131.2 515.8,144.3 535.4,144.3 535.4,134.0 555.0,134.0 555.0,260.0" fill="none" stroke="#6670ee" stroke-width="2" opacity="0.95"/>
<polyline points="85.0,260.0 85.0,111.8 104.6,111.8 104.6,144.6 124.2,144.6 124.2,188.4 143.8,188.4 143.8,167.9 163.3,167.9 163.3,132.8 182.9,132.8 182.9,164.2 202.5,164.2 202.5,172.2 222.1,172.2 222.1,142.2 241.7,142.2 241.7,154.2 261.2,154.2 261.2,142.3 280.8,142.3 280.8,145.1 300.4,145.1 300.4,164.4 320.0,164.4 320.0,171.3 339.6,171.3 339.6,143.3 359.2,143.3 359.2,158.3 378.7,158.3 378.8,170.9 398.3,170.9 398.3,161.0 417.9,161.0 417.9,149.5 437.5,149.5 437.5,165.9 457.1,165.9 457.1,207.1 476.7,207.1 476.7,185.6 496.2,185.6 496.2,153.0 515.8,153.0 515.8,191.6 535.4,191.6 535.4,164.1 555.0,164.1 555.0,260.0" fill="none" stroke="#8c8e89" stroke-width="2" opacity="0.8"/>
<polyline points="85.0,260.0 85.0,156.2 104.6,156.2 104.6,179.8 124.2,179.8 124.2,148.0 143.8,148.0 143.8,118.7 163.3,118.7 163.3,143.1 182.9,143.1 182.9,168.4 202.5,168.4 202.5,125.7 222.1,125.7 222.1,165.7 241.7,165.7 241.7,176.3 261.2,176.3 261.2,158.3 280.8,158.3 280.8,143.2 300.4,143.2 300.4,197.3 320.0,197.3 320.0,140.5 339.6,140.5 339.6,145.0 359.2,145.0 359.2,131.2 378.7,131.2 378.8,146.8 398.3,146.8 398.3,150.5 417.9,150.5 417.9,143.7 437.5,143.7 437.5,138.7 457.1,138.7 457.1,201.4 476.7,201.4 476.7,151.1 496.2,151.1 496.2,159.6 515.8,159.6 515.8,129.0 535.4,129.0 535.4,149.1 555.0,149.1 555.0,260.0" fill="none" stroke="#c6c8c3" stroke-width="2" opacity="0.8"/>
<line x1="645" y1="260" x2="1115" y2="260" stroke="#30332e"/>
<line x1="645" y1="70" x2="645" y2="260" stroke="#30332e"/>
<text x="645" y="56" font-family="-apple-system,BlinkMacSystemFont,PingFang SC,Noto Sans CJK SC,sans-serif" font-size="22" fill="#30332e">a[2]</text>
<text x="1115" y="56" text-anchor="end" font-family="-apple-system,BlinkMacSystemFont,PingFang SC,Noto Sans CJK SC,sans-serif" font-size="18" fill="#30332e">n_eff = 3109</text>
<polyline points="645.0,260.0 645.0,139.1 664.6,139.1 664.6,177.4 684.2,177.4 684.2,137.5 703.8,137.5 703.8,162.4 723.3,162.4 723.3,169.1 742.9,169.1 742.9,154.6 762.5,154.6 762.5,161.3 782.1,161.3 782.1,186.4 801.7,186.4 801.7,200.1 821.2,200.1 821.2,147.1 840.8,147.1 840.8,134.0 860.4,134.0 860.4,147.4 880.0,147.4 880.0,126.1 899.6,126.1 899.6,161.3 919.2,161.3 919.2,143.7 938.8,143.7 938.8,151.9 958.3,151.9 958.3,145.4 977.9,145.4 977.9,146.1 997.5,146.1 997.5,156.8 1017.1,156.8 1017.1,149.3 1036.7,149.3 1036.7,154.5 1056.2,154.5 1056.2,136.0 1075.8,136.0 1075.8,189.9 1095.4,189.9 1095.4,156.2 1115.0,156.2 1115.0,260.0" fill="none" stroke="#30332e" stroke-width="2" opacity="0.95"/>
<polyline points="645.0,260.0 645.0,149.3 664.6,149.3 664.6,174.2 684.2,174.2 684.2,155.7 703.8,155.7 703.8,171.1 723.3,171.1 723.3,113.7 742.9,113.7 742.9,177.0 762.5,177.0 762.5,131.9 782.1,131.9 782.1,195.1 801.7,195.1 801.7,142.4 821.2,142.4 821.2,157.0 840.8,157.0 840.8,131.7 860.4,131.7 860.4,161.1 880.0,161.1 880.0,158.4 899.6,158.4 899.6,143.0 919.2,143.0 919.2,132.7 938.8,132.7 938.8,184.8 958.3,184.8 958.3,179.4 977.9,179.4 977.9,160.2 997.5,160.2 997.5,132.7 1017.1,132.7 1017.1,138.8 1036.7,138.8 1036.7,149.0 1056.2,149.0 1056.2,141.7 1075.8,141.7 1075.8,121.0 1095.4,121.0 1095.4,175.5 1115.0,175.5 1115.0,260.0" fill="none" stroke="#6670ee" stroke-width="2" opacity="0.95"/>
<polyline points="645.0,260.0 645.0,130.3 664.6,130.3 664.6,133.2 684.2,133.2 684.2,186.6 703.8,186.6 703.8,144.1 723.3,144.1 723.3,130.9 742.9,130.9 742.9,181.9 762.5,181.9 762.5,181.9 782.1,181.9 782.1,138.7 801.7,138.7 801.7,153.6 821.2,153.6 821.2,144.5 840.8,144.5 840.8,170.0 860.4,170.0 860.4,190.6 880.0,190.6 880.0,169.2 899.6,169.2 899.6,139.5 919.2,139.5 919.2,186.7 938.8,186.7 938.8,139.5 958.3,139.5 958.3,131.1 977.9,131.1 977.9,142.7 997.5,142.7 997.5,186.3 1017.1,186.3 1017.1,128.7 1036.7,128.7 1036.7,146.9 1056.2,146.9 1056.2,164.5 1075.8,164.5 1075.8,132.8 1095.4,132.8 1095.4,191.2 1115.0,191.2 1115.0,260.0" fill="none" stroke="#8c8e89" stroke-width="2" opacity="0.8"/>
<polyline points="645.0,260.0 645.0,144.1 664.6,144.1 664.6,131.7 684.2,131.7 684.2,156.6 703.8,156.6 703.8,160.2 723.3,160.2 723.3,128.6 742.9,128.6 742.9,143.2 762.5,143.2 762.5,176.0 782.1,176.0 782.1,172.9 801.7,172.9 801.7,157.1 821.2,157.1 821.2,168.1 840.8,168.1 840.8,166.0 860.4,166.0 860.4,157.7 880.0,157.7 880.0,165.0 899.6,165.0 899.6,168.7 919.2,168.7 919.2,142.0 938.8,142.0 938.8,189.2 958.3,189.2 958.3,156.2 977.9,156.2 977.9,146.8 997.5,146.8 997.5,152.8 1017.1,152.8 1017.1,141.3 1036.7,141.3 1036.7,182.3 1056.2,182.3 1056.2,157.1 1075.8,157.1 1075.8,150.6 1095.4,150.6 1095.4,165.5 1115.0,165.5 1115.0,260.0" fill="none" stroke="#c6c8c3" stroke-width="2" opacity="0.8"/>
<line x1="85" y1="535" x2="555" y2="535" stroke="#30332e"/>
<line x1="85" y1="345" x2="85" y2="535" stroke="#30332e"/>
<text x="85" y="331" font-family="-apple-system,BlinkMacSystemFont,PingFang SC,Noto Sans CJK SC,sans-serif" font-size="22" fill="#30332e">b[1]</text>
<text x="555" y="331" text-anchor="end" font-family="-apple-system,BlinkMacSystemFont,PingFang SC,Noto Sans CJK SC,sans-serif" font-size="18" fill="#30332e">n_eff = 2153</text>
<polyline points="85.0,535.0 85.0,439.2 104.6,439.2 104.6,427.5 124.2,427.5 124.2,409.5 143.8,409.5 143.8,416.5 163.3,416.5 163.3,409.8 182.9,409.8 182.9,407.6 202.5,407.6 202.5,413.3 222.1,413.3 222.1,463.4 241.7,463.4 241.7,419.4 261.2,419.4 261.2,425.8 280.8,425.8 280.8,427.1 300.4,427.1 300.4,463.5 320.0,463.5 320.0,384.3 339.6,384.3 339.6,420.4 359.2,420.4 359.2,406.0 378.7,406.0 378.8,422.3 398.3,422.3 398.3,436.6 417.9,436.6 417.9,434.7 437.5,434.7 437.5,430.0 457.1,430.0 457.1,448.1 476.7,448.1 476.7,438.5 496.2,438.5 496.2,410.6 515.8,410.6 515.8,419.7 535.4,419.7 535.4,466.7 555.0,466.7 555.0,535.0" fill="none" stroke="#30332e" stroke-width="2" opacity="0.95"/>
<polyline points="85.0,535.0 85.0,436.7 104.6,436.7 104.6,409.0 124.2,409.0 124.2,424.3 143.8,424.3 143.8,448.2 163.3,448.2 163.3,423.4 182.9,423.4 182.9,403.4 202.5,403.4 202.5,432.4 222.1,432.4 222.1,393.2 241.7,393.2 241.7,416.1 261.2,416.1 261.2,465.5 280.8,465.5 280.8,424.8 300.4,424.8 300.4,436.8 320.0,436.8 320.0,420.0 339.6,420.0 339.6,458.4 359.2,458.4 359.2,443.6 378.7,443.6 378.8,428.5 398.3,428.5 398.3,430.2 417.9,430.2 417.9,416.2 437.5,416.2 437.5,457.6 457.1,457.6 457.1,415.9 476.7,415.9 476.7,427.5 496.2,427.5 496.2,443.8 515.8,443.8 515.8,455.8 535.4,455.8 535.4,388.5 555.0,388.5 555.0,535.0" fill="none" stroke="#6670ee" stroke-width="2" opacity="0.95"/>
<polyline points="85.0,535.0 85.0,403.8 104.6,403.8 104.6,426.9 124.2,426.9 124.2,435.0 143.8,435.0 143.8,419.7 163.3,419.7 163.3,451.9 182.9,451.9 182.9,440.2 202.5,440.2 202.5,438.6 222.1,438.6 222.1,427.8 241.7,427.8 241.7,432.7 261.2,432.7 261.2,409.7 280.8,409.7 280.8,417.9 300.4,417.9 300.4,482.0 320.0,482.0 320.0,445.9 339.6,445.9 339.6,428.2 359.2,428.2 359.2,412.9 378.7,412.9 378.8,410.2 398.3,410.2 398.3,393.1 417.9,393.1 417.9,434.9 437.5,434.9 437.5,465.9 457.1,465.9 457.1,454.5 476.7,454.5 476.7,447.9 496.2,447.9 496.2,473.4 515.8,473.4 515.8,420.9 535.4,420.9 535.4,402.5 555.0,402.5 555.0,535.0" fill="none" stroke="#8c8e89" stroke-width="2" opacity="0.8"/>
<polyline points="85.0,535.0 85.0,470.4 104.6,470.4 104.6,438.1 124.2,438.1 124.2,418.7 143.8,418.7 143.8,408.9 163.3,408.9 163.3,453.8 182.9,453.8 182.9,466.6 202.5,466.6 202.5,436.1 222.1,436.1 222.1,440.7 241.7,440.7 241.7,430.3 261.2,430.3 261.2,450.3 280.8,450.3 280.8,418.4 300.4,418.4 300.4,452.0 320.0,452.0 320.0,417.4 339.6,417.4 339.6,410.5 359.2,410.5 359.2,431.9 378.7,431.9 378.8,417.4 398.3,417.4 398.3,442.2 417.9,442.2 417.9,425.5 437.5,425.5 437.5,437.6 457.1,437.6 457.1,422.1 476.7,422.1 476.7,429.1 496.2,429.1 496.2,445.3 515.8,445.3 515.8,425.2 535.4,425.2 535.4,432.4 555.0,432.4 555.0,535.0" fill="none" stroke="#c6c8c3" stroke-width="2" opacity="0.8"/>
<line x1="645" y1="535" x2="1115" y2="535" stroke="#30332e"/>
<line x1="645" y1="345" x2="645" y2="535" stroke="#30332e"/>
<text x="645" y="331" font-family="-apple-system,BlinkMacSystemFont,PingFang SC,Noto Sans CJK SC,sans-serif" font-size="22" fill="#30332e">b[2]</text>
<text x="1115" y="331" text-anchor="end" font-family="-apple-system,BlinkMacSystemFont,PingFang SC,Noto Sans CJK SC,sans-serif" font-size="18" fill="#30332e">n_eff = 2027</text>
<polyline points="645.0,535.0 645.0,387.3 664.6,387.3 664.6,478.1 684.2,478.1 684.2,453.7 703.8,453.7 703.8,425.0 723.3,425.0 723.3,444.9 742.9,444.9 742.9,444.9 762.5,444.9 762.5,448.0 782.1,448.0 782.1,428.4 801.7,428.4 801.7,445.9 821.2,445.9 821.2,394.5 840.8,394.5 840.8,428.1 860.4,428.1 860.4,389.4 880.0,389.4 880.0,452.0 899.6,452.0 899.6,399.7 919.2,399.7 919.2,410.4 938.8,410.4 938.8,416.3 958.3,416.3 958.3,410.8 977.9,410.8 977.9,402.5 997.5,402.5 997.5,426.1 1017.1,426.1 1017.1,439.5 1036.7,439.5 1036.7,408.6 1056.2,408.6 1056.2,462.7 1075.8,462.7 1075.8,427.2 1095.4,427.2 1095.4,471.2 1115.0,471.2 1115.0,535.0" fill="none" stroke="#30332e" stroke-width="2" opacity="0.95"/>
<polyline points="645.0,535.0 645.0,413.2 664.6,413.2 664.6,416.0 684.2,416.0 684.2,382.4 703.8,382.4 703.8,420.2 723.3,420.2 723.3,443.6 742.9,443.6 742.9,418.9 762.5,418.9 762.5,417.5 782.1,417.5 782.1,449.5 801.7,449.5 801.7,418.2 821.2,418.2 821.2,436.0 840.8,436.0 840.8,431.5 860.4,431.5 860.4,430.4 880.0,430.4 880.0,394.2 899.6,394.2 899.6,415.8 919.2,415.8 919.2,439.6 938.8,439.6 938.8,415.9 958.3,415.9 958.3,438.1 977.9,438.1 977.9,443.1 997.5,443.1 997.5,415.8 1017.1,415.8 1017.1,437.7 1036.7,437.7 1036.7,430.5 1056.2,430.5 1056.2,438.3 1075.8,438.3 1075.8,422.9 1095.4,422.9 1095.4,451.2 1115.0,451.2 1115.0,535.0" fill="none" stroke="#6670ee" stroke-width="2" opacity="0.95"/>
<polyline points="645.0,535.0 645.0,403.4 664.6,403.4 664.6,374.2 684.2,374.2 684.2,437.7 703.8,437.7 703.8,401.8 723.3,401.8 723.3,436.6 742.9,436.6 742.9,430.1 762.5,430.1 762.5,428.9 782.1,428.9 782.1,430.4 801.7,430.4 801.7,429.9 821.2,429.9 821.2,437.8 840.8,437.8 840.8,443.7 860.4,443.7 860.4,439.4 880.0,439.4 880.0,442.8 899.6,442.8 899.6,432.4 919.2,432.4 919.2,429.6 938.8,429.6 938.8,409.6 958.3,409.6 958.3,430.9 977.9,430.9 977.9,462.3 997.5,462.3 997.5,427.0 1017.1,427.0 1017.1,433.7 1036.7,433.7 1036.7,444.7 1056.2,444.7 1056.2,408.3 1075.8,408.3 1075.8,436.4 1095.4,436.4 1095.4,424.1 1115.0,424.1 1115.0,535.0" fill="none" stroke="#8c8e89" stroke-width="2" opacity="0.8"/>
<polyline points="645.0,535.0 645.0,435.5 664.6,435.5 664.6,463.7 684.2,463.7 684.2,435.8 703.8,435.8 703.8,421.1 723.3,421.1 723.3,455.6 742.9,455.6 742.9,441.2 762.5,441.2 762.5,438.4 782.1,438.4 782.1,410.1 801.7,410.1 801.7,420.8 821.2,420.8 821.2,435.5 840.8,435.5 840.8,400.7 860.4,400.7 860.4,426.0 880.0,426.0 880.0,445.3 899.6,445.3 899.6,432.3 919.2,432.3 919.2,443.4 938.8,443.4 938.8,434.9 958.3,434.9 958.3,416.0 977.9,416.0 977.9,431.7 997.5,431.7 997.5,470.8 1017.1,470.8 1017.1,407.9 1036.7,407.9 1036.7,414.5 1056.2,414.5 1056.2,414.7 1075.8,414.7 1075.8,429.6 1095.4,429.6 1095.4,437.2 1115.0,437.2 1115.0,535.0" fill="none" stroke="#c6c8c3" stroke-width="2" opacity="0.8"/>
<line x1="85" y1="810" x2="555" y2="810" stroke="#30332e"/>
<line x1="85" y1="620" x2="85" y2="810" stroke="#30332e"/>
<text x="85" y="606" font-family="-apple-system,BlinkMacSystemFont,PingFang SC,Noto Sans CJK SC,sans-serif" font-size="22" fill="#30332e">sigma</text>
<text x="555" y="606" text-anchor="end" font-family="-apple-system,BlinkMacSystemFont,PingFang SC,Noto Sans CJK SC,sans-serif" font-size="18" fill="#30332e">n_eff = 2885</text>
<polyline points="85.0,810.0 85.0,714.3 104.6,714.3 104.6,686.8 124.2,686.8 124.2,725.6 143.8,725.6 143.8,685.0 163.3,685.0 163.3,682.0 182.9,682.0 182.9,705.8 202.5,705.8 202.5,699.0 222.1,699.0 222.1,699.3 241.7,699.3 241.7,679.2 261.2,679.2 261.2,713.6 280.8,713.6 280.8,744.6 300.4,744.6 300.4,726.6 320.0,726.6 320.0,680.8 339.6,680.8 339.6,690.6 359.2,690.6 359.2,706.3 378.7,706.3 378.8,688.2 398.3,688.2 398.3,695.3 417.9,695.3 417.9,739.3 437.5,739.3 437.5,695.9 457.1,695.9 457.1,695.6 476.7,695.6 476.7,758.1 496.2,758.1 496.2,715.6 515.8,715.6 515.8,745.5 535.4,745.5 535.4,722.5 555.0,722.5 555.0,810.0" fill="none" stroke="#30332e" stroke-width="2" opacity="0.95"/>
<polyline points="85.0,810.0 85.0,704.9 104.6,704.9 104.6,708.2 124.2,708.2 124.2,719.9 143.8,719.9 143.8,711.7 163.3,711.7 163.3,685.3 182.9,685.3 182.9,716.3 202.5,716.3 202.5,693.9 222.1,693.9 222.1,692.6 241.7,692.6 241.7,705.6 261.2,705.6 261.2,735.2 280.8,735.2 280.8,725.3 300.4,725.3 300.4,736.4 320.0,736.4 320.0,737.0 339.6,737.0 339.6,718.3 359.2,718.3 359.2,695.1 378.7,695.1 378.8,642.7 398.3,642.7 398.3,697.7 417.9,697.7 417.9,694.5 437.5,694.5 437.5,685.0 457.1,685.0 457.1,692.2 476.7,692.2 476.7,737.8 496.2,737.8 496.2,705.2 515.8,705.2 515.8,699.1 535.4,699.1 535.4,704.1 555.0,704.1 555.0,810.0" fill="none" stroke="#6670ee" stroke-width="2" opacity="0.95"/>
<polyline points="85.0,810.0 85.0,711.5 104.6,711.5 104.6,682.2 124.2,682.2 124.2,706.8 143.8,706.8 143.8,715.4 163.3,715.4 163.3,695.0 182.9,695.0 182.9,732.7 202.5,732.7 202.5,753.4 222.1,753.4 222.1,707.3 241.7,707.3 241.7,679.5 261.2,679.5 261.2,712.8 280.8,712.8 280.8,753.2 300.4,753.2 300.4,713.2 320.0,713.2 320.0,681.5 339.6,681.5 339.6,712.2 359.2,712.2 359.2,706.2 378.7,706.2 378.8,691.9 398.3,691.9 398.3,684.0 417.9,684.0 417.9,732.5 437.5,732.5 437.5,658.9 457.1,658.9 457.1,694.8 476.7,694.8 476.7,703.8 496.2,703.8 496.2,736.7 515.8,736.7 515.8,698.3 535.4,698.3 535.4,720.3 555.0,720.3 555.0,810.0" fill="none" stroke="#8c8e89" stroke-width="2" opacity="0.8"/>
<polyline points="85.0,810.0 85.0,707.2 104.6,707.2 104.6,703.8 124.2,703.8 124.2,707.3 143.8,707.3 143.8,676.4 163.3,676.4 163.3,693.0 182.9,693.0 182.9,696.6 202.5,696.6 202.5,712.8 222.1,712.8 222.1,719.0 241.7,719.0 241.7,712.1 261.2,712.1 261.2,715.8 280.8,715.8 280.8,712.8 300.4,712.8 300.4,703.8 320.0,703.8 320.0,734.2 339.6,734.2 339.6,699.1 359.2,699.1 359.2,680.7 378.7,680.7 378.8,696.4 398.3,696.4 398.3,689.1 417.9,689.1 417.9,682.9 437.5,682.9 437.5,691.8 457.1,691.8 457.1,714.8 476.7,714.8 476.7,710.4 496.2,710.4 496.2,725.2 515.8,725.2 515.8,711.5 535.4,711.5 535.4,676.6 555.0,676.6 555.0,810.0" fill="none" stroke="#c6c8c3" stroke-width="2" opacity="0.8"/>
<text x="920" y="855" font-family="-apple-system,BlinkMacSystemFont,PingFang SC,Noto Sans CJK SC,sans-serif" font-size="17" fill="#30332e">四条链的秩直方图重叠</text>
</svg>
