<svg xmlns="http://www.w3.org/2000/svg" width="1200" height="600" viewBox="0 0 1200 600" role="img">
<title>弱信息先验与后验</title>
<desc>左图比较 alpha 的正态先验与后验，右图比较 sigma 的指数先验与后验。</desc>
<rect width="100%" height="100%" fill="#fff"/>
<rect x="90" y="65" width="470" height="410" fill="#fff" stroke="#30332e"/>
<line x1="104.7" y1="475" x2="104.7" y2="482" stroke="#30332e"/>
<text x="104.7" y="504" text-anchor="middle" font-family="-apple-system,BlinkMacSystemFont,PingFang SC,Noto Sans CJK SC,sans-serif" font-size="16">-15</text>
<line x1="178.1" y1="475" x2="178.1" y2="482" stroke="#30332e"/>
<text x="178.1" y="504" text-anchor="middle" font-family="-apple-system,BlinkMacSystemFont,PingFang SC,Noto Sans CJK SC,sans-serif" font-size="16">-10</text>
<line x1="251.6" y1="475" x2="251.6" y2="482" stroke="#30332e"/>
<text x="251.6" y="504" text-anchor="middle" font-family="-apple-system,BlinkMacSystemFont,PingFang SC,Noto Sans CJK SC,sans-serif" font-size="16">-5</text>
<line x1="325.0" y1="475" x2="325.0" y2="482" stroke="#30332e"/>
<text x="325.0" y="504" text-anchor="middle" font-family="-apple-system,BlinkMacSystemFont,PingFang SC,Noto Sans CJK SC,sans-serif" font-size="16">0</text>
<line x1="398.4" y1="475" x2="398.4" y2="482" stroke="#30332e"/>
<text x="398.4" y="504" text-anchor="middle" font-family="-apple-system,BlinkMacSystemFont,PingFang SC,Noto Sans CJK SC,sans-serif" font-size="16">5</text>
<line x1="471.9" y1="475" x2="471.9" y2="482" stroke="#30332e"/>
<text x="471.9" y="504" text-anchor="middle" font-family="-apple-system,BlinkMacSystemFont,PingFang SC,Noto Sans CJK SC,sans-serif" font-size="16">10</text>
<line x1="545.3" y1="475" x2="545.3" y2="482" stroke="#30332e"/>
<text x="545.3" y="504" text-anchor="middle" font-family="-apple-system,BlinkMacSystemFont,PingFang SC,Noto Sans CJK SC,sans-serif" font-size="16">15</text>
<line x1="83" y1="475.0" x2="90" y2="475.0" stroke="#30332e"/>
<text x="77" y="480.0" text-anchor="end" font-family="-apple-system,BlinkMacSystemFont,PingFang SC,Noto Sans CJK SC,sans-serif" font-size="16">0.0</text>
<line x1="83" y1="377.4" x2="90" y2="377.4" stroke="#30332e"/>
<text x="77" y="382.4" text-anchor="end" font-family="-apple-system,BlinkMacSystemFont,PingFang SC,Noto Sans CJK SC,sans-serif" font-size="16">0.1</text>
<line x1="83" y1="279.8" x2="90" y2="279.8" stroke="#30332e"/>
<text x="77" y="284.8" text-anchor="end" font-family="-apple-system,BlinkMacSystemFont,PingFang SC,Noto Sans CJK SC,sans-serif" font-size="16">0.2</text>
<line x1="83" y1="182.1" x2="90" y2="182.1" stroke="#30332e"/>
<text x="77" y="187.1" text-anchor="end" font-family="-apple-system,BlinkMacSystemFont,PingFang SC,Noto Sans CJK SC,sans-serif" font-size="16">0.3</text>
<line x1="83" y1="84.5" x2="90" y2="84.5" stroke="#30332e"/>
<text x="77" y="89.5" text-anchor="end" font-family="-apple-system,BlinkMacSystemFont,PingFang SC,Noto Sans CJK SC,sans-serif" font-size="16">0.4</text>
<polyline points="90.0,465.8 91.5,465.7 92.9,465.5 94.4,465.3 95.9,465.2 97.3,465.0 98.8,464.9 100.3,464.7 101.8,464.5 103.2,464.3 104.7,464.2 106.2,464.0 107.6,463.8 109.1,463.6 110.6,463.5 112.0,463.3 113.5,463.1 115.0,462.9 116.4,462.7 117.9,462.5 119.4,462.4 120.8,462.2 122.3,462.0 123.8,461.8 125.2,461.6 126.7,461.4 128.2,461.2 129.7,461.0 131.1,460.8 132.6,460.6 134.1,460.4 135.5,460.2 137.0,460.0 138.5,459.8 139.9,459.6 141.4,459.3 142.9,459.1 144.3,458.9 145.8,458.7 147.3,458.5 148.8,458.3 150.2,458.1 151.7,457.8 153.2,457.6 154.6,457.4 156.1,457.2 157.6,456.9 159.0,456.7 160.5,456.5 162.0,456.3 163.4,456.0 164.9,455.8 166.4,455.6 167.8,455.4 169.3,455.1 170.8,454.9 172.2,454.7 173.7,454.4 175.2,454.2 176.7,454.0 178.1,453.7 179.6,453.5 181.1,453.3 182.5,453.0 184.0,452.8 185.5,452.6 186.9,452.3 188.4,452.1 189.9,451.9 191.3,451.6 192.8,451.4 194.3,451.1 195.8,450.9 197.2,450.7 198.7,450.4 200.2,450.2 201.6,450.0 203.1,449.7 204.6,449.5 206.0,449.3 207.5,449.0 209.0,448.8 210.4,448.6 211.9,448.3 213.4,448.1 214.8,447.9 216.3,447.6 217.8,447.4 219.2,447.2 220.7,446.9 222.2,446.7 223.7,446.5 225.1,446.3 226.6,446.0 228.1,445.8 229.5,445.6 231.0,445.4 232.5,445.2 233.9,444.9 235.4,444.7 236.9,444.5 238.3,444.3 239.8,444.1 241.3,443.9 242.8,443.7 244.2,443.5 245.7,443.3 247.2,443.1 248.6,442.9 250.1,442.7 251.6,442.5 253.0,442.3 254.5,442.1 256.0,441.9 257.4,441.7 258.9,441.5 260.4,441.3 261.8,441.2 263.3,441.0 264.8,440.8 266.2,440.6 267.7,440.5 269.2,440.3 270.7,440.1 272.1,440.0 273.6,439.8 275.1,439.6 276.5,439.5 278.0,439.3 279.5,439.2 280.9,439.0 282.4,438.9 283.9,438.8 285.3,438.6 286.8,438.5 288.3,438.4 289.8,438.2 291.2,438.1 292.7,438.0 294.2,437.9 295.6,437.8 297.1,437.7 298.6,437.6 300.0,437.4 301.5,437.3 303.0,437.3 304.4,437.2 305.9,437.1 307.4,437.0 308.8,436.9 310.3,436.8 311.8,436.8 313.2,436.7 314.7,436.6 316.2,436.6 317.7,436.5 319.1,436.4 320.6,436.4 322.1,436.3 323.5,436.3 325.0,436.2 326.5,436.2 327.9,436.2 329.4,436.2 330.9,436.1 332.3,436.1 333.8,436.1 335.3,436.1 336.8,436.1 338.2,436.1 339.7,436.1 341.2,436.1 342.6,436.1 344.1,436.1 345.6,436.1 347.0,436.1 348.5,436.1 350.0,436.2 351.4,436.2 352.9,436.2 354.4,436.2 355.8,436.3 357.3,436.3 358.8,436.4 360.2,436.4 361.7,436.5 363.2,436.6 364.7,436.6 366.1,436.7 367.6,436.8 369.1,436.8 370.5,436.9 372.0,437.0 373.5,437.1 374.9,437.2 376.4,437.3 377.9,437.3 379.3,437.4 380.8,437.6 382.3,437.7 383.8,437.8 385.2,437.9 386.7,438.0 388.2,438.1 389.6,438.2 391.1,438.4 392.6,438.5 394.0,438.6 395.5,438.8 397.0,438.9 398.4,439.0 399.9,439.2 401.4,439.3 402.8,439.5 404.3,439.6 405.8,439.8 407.2,440.0 408.7,440.1 410.2,440.3 411.7,440.5 413.1,440.6 414.6,440.8 416.1,441.0 417.5,441.2 419.0,441.3 420.5,441.5 421.9,441.7 423.4,441.9 424.9,442.1 426.3,442.3 427.8,442.5 429.3,442.7 430.8,442.9 432.2,443.1 433.7,443.3 435.2,443.5 436.6,443.7 438.1,443.9 439.6,444.1 441.0,444.3 442.5,444.5 444.0,444.7 445.4,444.9 446.9,445.2 448.4,445.4 449.8,445.6 451.3,445.8 452.8,446.0 454.2,446.3 455.7,446.5 457.2,446.7 458.7,446.9 460.1,447.2 461.6,447.4 463.1,447.6 464.5,447.9 466.0,448.1 467.5,448.3 468.9,448.6 470.4,448.8 471.9,449.0 473.3,449.3 474.8,449.5 476.3,449.7 477.8,450.0 479.2,450.2 480.7,450.4 482.2,450.7 483.6,450.9 485.1,451.1 486.6,451.4 488.0,451.6 489.5,451.9 491.0,452.1 492.4,452.3 493.9,452.6 495.4,452.8 496.8,453.0 498.3,453.3 499.8,453.5 501.2,453.7 502.7,454.0 504.2,454.2 505.7,454.4 507.1,454.7 508.6,454.9 510.1,455.1 511.5,455.4 513.0,455.6 514.5,455.8 515.9,456.0 517.4,456.3 518.9,456.5 520.3,456.7 521.8,456.9 523.3,457.2 524.8,457.4 526.2,457.6 527.7,457.8 529.2,458.1 530.6,458.3 532.1,458.5 533.6,458.7 535.0,458.9 536.5,459.1 538.0,459.3 539.4,459.6 540.9,459.8 542.4,460.0 543.8,460.2 545.3,460.4 546.8,460.6 548.2,460.8 549.7,461.0 551.2,461.2 552.7,461.4 554.1,461.6 555.6,461.8 557.1,462.0 558.5,462.2 560.0,462.4" fill="none" stroke="#30332e" stroke-width="2.3" stroke-dasharray="9 8"/>
<polyline points="90.0,475.0 91.5,475.0 92.9,475.0 94.4,475.0 95.9,475.0 97.3,475.0 98.8,475.0 100.3,475.0 101.8,475.0 103.2,475.0 104.7,475.0 106.2,475.0 107.6,475.0 109.1,475.0 110.6,475.0 112.0,475.0 113.5,475.0 115.0,475.0 116.4,475.0 117.9,475.0 119.4,475.0 120.8,475.0 122.3,475.0 123.8,475.0 125.2,475.0 126.7,475.0 128.2,475.0 129.7,475.0 131.1,475.0 132.6,475.0 134.1,475.0 135.5,475.0 137.0,475.0 138.5,475.0 139.9,475.0 141.4,475.0 142.9,475.0 144.3,475.0 145.8,475.0 147.3,475.0 148.8,475.0 150.2,475.0 151.7,475.0 153.2,475.0 154.6,475.0 156.1,475.0 157.6,475.0 159.0,475.0 160.5,475.0 162.0,475.0 163.4,475.0 164.9,475.0 166.4,475.0 167.8,475.0 169.3,475.0 170.8,475.0 172.2,475.0 173.7,475.0 175.2,475.0 176.7,475.0 178.1,475.0 179.6,475.0 181.1,475.0 182.5,475.0 184.0,475.0 185.5,475.0 186.9,475.0 188.4,475.0 189.9,475.0 191.3,475.0 192.8,475.0 194.3,475.0 195.8,475.0 197.2,475.0 198.7,475.0 200.2,475.0 201.6,475.0 203.1,475.0 204.6,475.0 206.0,475.0 207.5,475.0 209.0,475.0 210.4,475.0 211.9,475.0 213.4,475.0 214.8,475.0 216.3,475.0 217.8,475.0 219.2,475.0 220.7,475.0 222.2,475.0 223.7,475.0 225.1,475.0 226.6,475.0 228.1,475.0 229.5,475.0 231.0,475.0 232.5,475.0 233.9,475.0 235.4,475.0 236.9,475.0 238.3,475.0 239.8,475.0 241.3,475.0 242.8,475.0 244.2,475.0 245.7,475.0 247.2,475.0 248.6,475.0 250.1,475.0 251.6,475.0 253.0,475.0 254.5,475.0 256.0,475.0 257.4,474.9 258.9,474.9 260.4,474.9 261.8,474.8 263.3,474.8 264.8,474.7 266.2,474.5 267.7,474.3 269.2,474.1 270.7,473.8 272.1,473.4 273.6,472.8 275.1,472.2 276.5,471.3 278.0,470.2 279.5,468.7 280.9,467.0 282.4,464.8 283.9,462.2 285.3,459.0 286.8,455.2 288.3,450.6 289.8,445.2 291.2,438.9 292.7,431.6 294.2,423.2 295.6,413.7 297.1,403.0 298.6,391.2 300.0,378.1 301.5,363.9 303.0,348.5 304.4,332.2 305.9,315.0 307.4,297.2 308.8,278.9 310.3,260.4 311.8,242.0 313.2,224.0 314.7,206.8 316.2,190.5 317.7,175.7 319.1,162.5 320.6,151.3 322.1,142.3 323.5,135.7 325.0,131.7 326.5,130.4 327.9,131.7 329.4,135.7 330.9,142.3 332.3,151.3 333.8,162.5 335.3,175.7 336.8,190.5 338.2,206.8 339.7,224.0 341.2,242.0 342.6,260.4 344.1,278.9 345.6,297.2 347.0,315.0 348.5,332.2 350.0,348.5 351.4,363.9 352.9,378.1 354.4,391.2 355.8,403.0 357.3,413.7 358.8,423.2 360.2,431.6 361.7,438.9 363.2,445.2 364.7,450.6 366.1,455.2 367.6,459.0 369.1,462.2 370.5,464.8 372.0,467.0 373.5,468.7 374.9,470.2 376.4,471.3 377.9,472.2 379.3,472.8 380.8,473.4 382.3,473.8 383.8,474.1 385.2,474.3 386.7,474.5 388.2,474.7 389.6,474.8 391.1,474.8 392.6,474.9 394.0,474.9 395.5,474.9 397.0,475.0 398.4,475.0 399.9,475.0 401.4,475.0 402.8,475.0 404.3,475.0 405.8,475.0 407.2,475.0 408.7,475.0 410.2,475.0 411.7,475.0 413.1,475.0 414.6,475.0 416.1,475.0 417.5,475.0 419.0,475.0 420.5,475.0 421.9,475.0 423.4,475.0 424.9,475.0 426.3,475.0 427.8,475.0 429.3,475.0 430.8,475.0 432.2,475.0 433.7,475.0 435.2,475.0 436.6,475.0 438.1,475.0 439.6,475.0 441.0,475.0 442.5,475.0 444.0,475.0 445.4,475.0 446.9,475.0 448.4,475.0 449.8,475.0 451.3,475.0 452.8,475.0 454.2,475.0 455.7,475.0 457.2,475.0 458.7,475.0 460.1,475.0 461.6,475.0 463.1,475.0 464.5,475.0 466.0,475.0 467.5,475.0 468.9,475.0 470.4,475.0 471.9,475.0 473.3,475.0 474.8,475.0 476.3,475.0 477.8,475.0 479.2,475.0 480.7,475.0 482.2,475.0 483.6,475.0 485.1,475.0 486.6,475.0 488.0,475.0 489.5,475.0 491.0,475.0 492.4,475.0 493.9,475.0 495.4,475.0 496.8,475.0 498.3,475.0 499.8,475.0 501.2,475.0 502.7,475.0 504.2,475.0 505.7,475.0 507.1,475.0 508.6,475.0 510.1,475.0 511.5,475.0 513.0,475.0 514.5,475.0 515.9,475.0 517.4,475.0 518.9,475.0 520.3,475.0 521.8,475.0 523.3,475.0 524.8,475.0 526.2,475.0 527.7,475.0 529.2,475.0 530.6,475.0 532.1,475.0 533.6,475.0 535.0,475.0 536.5,475.0 538.0,475.0 539.4,475.0 540.9,475.0 542.4,475.0 543.8,475.0 545.3,475.0 546.8,475.0 548.2,475.0 549.7,475.0 551.2,475.0 552.7,475.0 554.1,475.0 555.6,475.0 557.1,475.0 558.5,475.0 560.0,475.0" fill="none" stroke="#6670ee" stroke-width="3.4"/>
<text x="442.5" y="421.3" font-family="-apple-system,BlinkMacSystemFont,PingFang SC,Noto Sans CJK SC,sans-serif" font-size="19" fill="#30332e">先验</text>
<text x="361.7" y="250.5" font-family="-apple-system,BlinkMacSystemFont,PingFang SC,Noto Sans CJK SC,sans-serif" font-size="19" fill="#6670ee">后验</text>
<text x="325.0" y="555" text-anchor="middle" font-family="-apple-system,BlinkMacSystemFont,PingFang SC,Noto Sans CJK SC,sans-serif" font-size="21" fill="#263f86">alpha</text>
<text x="30" y="270.0" transform="rotate(-90 30 270.0)" text-anchor="middle" font-family="-apple-system,BlinkMacSystemFont,PingFang SC,Noto Sans CJK SC,sans-serif" font-size="21" fill="#263f86">密度</text>
<defs><clipPath id="weak-prior-sigma"><rect x="680" y="65" width="430" height="410"/></clipPath></defs>
<rect x="680" y="65" width="430" height="410" fill="#fff" stroke="#30332e"/>
<line x1="680.0" y1="475" x2="680.0" y2="482" stroke="#30332e"/>
<text x="680.0" y="504" text-anchor="middle" font-family="-apple-system,BlinkMacSystemFont,PingFang SC,Noto Sans CJK SC,sans-serif" font-size="16">0</text>
<line x1="761.9" y1="475" x2="761.9" y2="482" stroke="#30332e"/>
<text x="761.9" y="504" text-anchor="middle" font-family="-apple-system,BlinkMacSystemFont,PingFang SC,Noto Sans CJK SC,sans-serif" font-size="16">2</text>
<line x1="843.8" y1="475" x2="843.8" y2="482" stroke="#30332e"/>
<text x="843.8" y="504" text-anchor="middle" font-family="-apple-system,BlinkMacSystemFont,PingFang SC,Noto Sans CJK SC,sans-serif" font-size="16">4</text>
<line x1="925.7" y1="475" x2="925.7" y2="482" stroke="#30332e"/>
<text x="925.7" y="504" text-anchor="middle" font-family="-apple-system,BlinkMacSystemFont,PingFang SC,Noto Sans CJK SC,sans-serif" font-size="16">6</text>
<line x1="1007.6" y1="475" x2="1007.6" y2="482" stroke="#30332e"/>
<text x="1007.6" y="504" text-anchor="middle" font-family="-apple-system,BlinkMacSystemFont,PingFang SC,Noto Sans CJK SC,sans-serif" font-size="16">8</text>
<line x1="1089.5" y1="475" x2="1089.5" y2="482" stroke="#30332e"/>
<text x="1089.5" y="504" text-anchor="middle" font-family="-apple-system,BlinkMacSystemFont,PingFang SC,Noto Sans CJK SC,sans-serif" font-size="16">10</text>
<line x1="673" y1="475.0" x2="680" y2="475.0" stroke="#30332e"/>
<text x="667" y="480.0" text-anchor="end" font-family="-apple-system,BlinkMacSystemFont,PingFang SC,Noto Sans CJK SC,sans-serif" font-size="16">0.0</text>
<line x1="673" y1="375.0" x2="680" y2="375.0" stroke="#30332e"/>
<text x="667" y="380.0" text-anchor="end" font-family="-apple-system,BlinkMacSystemFont,PingFang SC,Noto Sans CJK SC,sans-serif" font-size="16">0.2</text>
<line x1="673" y1="275.0" x2="680" y2="275.0" stroke="#30332e"/>
<text x="667" y="280.0" text-anchor="end" font-family="-apple-system,BlinkMacSystemFont,PingFang SC,Noto Sans CJK SC,sans-serif" font-size="16">0.4</text>
<line x1="673" y1="175.0" x2="680" y2="175.0" stroke="#30332e"/>
<text x="667" y="180.0" text-anchor="end" font-family="-apple-system,BlinkMacSystemFont,PingFang SC,Noto Sans CJK SC,sans-serif" font-size="16">0.6</text>
<line x1="673" y1="75.0" x2="680" y2="75.0" stroke="#30332e"/>
<text x="667" y="80.0" text-anchor="end" font-family="-apple-system,BlinkMacSystemFont,PingFang SC,Noto Sans CJK SC,sans-serif" font-size="16">0.8</text>
<polyline points="681.3,-8.9 682.7,6.8 684.0,21.9 685.4,36.5 686.7,50.7 688.1,64.4 689.4,77.6 690.8,90.4 692.1,102.9 693.4,114.9 694.8,126.5 696.1,137.7 697.5,148.6 698.8,159.2 700.2,169.4 701.5,179.2 702.8,188.8 704.2,198.0 705.5,207.0 706.9,215.6 708.2,224.0 709.6,232.1 710.9,239.9 712.2,247.5 713.6,254.9 714.9,262.0 716.3,268.8 717.6,275.5 719.0,281.9 720.3,288.2 721.7,294.2 723.0,300.0 724.3,305.7 725.7,311.1 727.0,316.4 728.4,321.6 729.7,326.5 731.1,331.3 732.4,335.9 733.8,340.4 735.1,344.8 736.4,349.0 737.8,353.0 739.1,357.0 740.5,360.8 741.8,364.5 743.2,368.0 744.5,371.5 745.8,374.8 747.2,378.1 748.5,381.2 749.9,384.2 751.2,387.2 752.6,390.0 753.9,392.7 755.2,395.4 756.6,398.0 757.9,400.4 759.3,402.9 760.6,405.2 762.0,407.4 763.3,409.6 764.7,411.7 766.0,413.8 767.3,415.7 768.7,417.7 770.0,419.5 771.4,421.3 772.7,423.0 774.1,424.7 775.4,426.3 776.8,427.9 778.1,429.4 779.4,430.9 780.8,432.3 782.1,433.7 783.5,435.0 784.8,436.3 786.2,437.6 787.5,438.8 788.8,439.9 790.2,441.1 791.5,442.2 792.9,443.2 794.2,444.3 795.6,445.3 796.9,446.2 798.2,447.1 799.6,448.0 800.9,448.9 802.3,449.8 803.6,450.6 805.0,451.4 806.3,452.1 807.7,452.9 809.0,453.6 810.3,454.3 811.7,454.9 813.0,455.6 814.4,456.2 815.7,456.8 817.1,457.4 818.4,458.0 819.8,458.5 821.1,459.1 822.4,459.6 823.8,460.1 825.1,460.5 826.5,461.0 827.8,461.5 829.2,461.9 830.5,462.3 831.8,462.7 833.2,463.1 834.5,463.5 835.9,463.9 837.2,464.2 838.6,464.6 839.9,464.9 841.2,465.3 842.6,465.6 843.9,465.9 845.3,466.2 846.6,466.5 848.0,466.7 849.3,467.0 850.7,467.3 852.0,467.5 853.3,467.7 854.7,468.0 856.0,468.2 857.4,468.4 858.7,468.6 860.1,468.8 861.4,469.0 862.8,469.2 864.1,469.4 865.4,469.6 866.8,469.8 868.1,469.9 869.5,470.1 870.8,470.3 872.2,470.4 873.5,470.6 874.8,470.7 876.2,470.8 877.5,471.0 878.9,471.1 880.2,471.2 881.6,471.4 882.9,471.5 884.2,471.6 885.6,471.7 886.9,471.8 888.3,471.9 889.6,472.0 891.0,472.1 892.3,472.2 893.7,472.3 895.0,472.4 896.3,472.5 897.7,472.5 899.0,472.6 900.4,472.7 901.7,472.8 903.1,472.8 904.4,472.9 905.8,473.0 907.1,473.0 908.4,473.1 909.8,473.2 911.1,473.2 912.5,473.3 913.8,473.3 915.2,473.4 916.5,473.4 917.8,473.5 919.2,473.5 920.5,473.6 921.9,473.6 923.2,473.7 924.6,473.7 925.9,473.8 927.2,473.8 928.6,473.8 929.9,473.9 931.3,473.9 932.6,474.0 934.0,474.0 935.3,474.0 936.7,474.1 938.0,474.1 939.3,474.1 940.7,474.1 942.0,474.2 943.4,474.2 944.7,474.2 946.1,474.2 947.4,474.3 948.8,474.3 950.1,474.3 951.4,474.3 952.8,474.4 954.1,474.4 955.5,474.4 956.8,474.4 958.2,474.4 959.5,474.5 960.8,474.5 962.2,474.5 963.5,474.5 964.9,474.5 966.2,474.5 967.6,474.6 968.9,474.6 970.2,474.6 971.6,474.6 972.9,474.6 974.3,474.6 975.6,474.6 977.0,474.6 978.3,474.7 979.7,474.7 981.0,474.7 982.3,474.7 983.7,474.7 985.0,474.7 986.4,474.7 987.7,474.7 989.1,474.7 990.4,474.7 991.8,474.8 993.1,474.8 994.4,474.8 995.8,474.8 997.1,474.8 998.5,474.8 999.8,474.8 1001.2,474.8 1002.5,474.8 1003.8,474.8 1005.2,474.8 1006.5,474.8 1007.9,474.8 1009.2,474.8 1010.6,474.8 1011.9,474.8 1013.2,474.9 1014.6,474.9 1015.9,474.9 1017.3,474.9 1018.6,474.9 1020.0,474.9 1021.3,474.9 1022.7,474.9 1024.0,474.9 1025.3,474.9 1026.7,474.9 1028.0,474.9 1029.4,474.9 1030.7,474.9 1032.1,474.9 1033.4,474.9 1034.8,474.9 1036.1,474.9 1037.4,474.9 1038.8,474.9 1040.1,474.9 1041.5,474.9 1042.8,474.9 1044.2,474.9 1045.5,474.9 1046.8,474.9 1048.2,474.9 1049.5,474.9 1050.9,474.9 1052.2,474.9 1053.6,474.9 1054.9,474.9 1056.2,474.9 1057.6,475.0 1058.9,475.0 1060.3,475.0 1061.6,475.0 1063.0,475.0 1064.3,475.0 1065.7,475.0 1067.0,475.0 1068.3,475.0 1069.7,475.0 1071.0,475.0 1072.4,475.0 1073.7,475.0 1075.1,475.0 1076.4,475.0 1077.8,475.0 1079.1,475.0 1080.4,475.0 1081.8,475.0 1083.1,475.0 1084.5,475.0 1085.8,475.0 1087.2,475.0 1088.5,475.0 1089.8,475.0 1091.2,475.0 1092.5,475.0 1093.9,475.0 1095.2,475.0 1096.6,475.0 1097.9,475.0 1099.2,475.0 1100.6,475.0 1101.9,475.0 1103.3,475.0 1104.6,475.0 1106.0,475.0 1107.3,475.0 1108.7,475.0 1110.0,475.0" fill="none" stroke="#30332e" stroke-width="2.3" stroke-dasharray="9 8" clip-path="url(#weak-prior-sigma)"/>
<polyline points="681.3,475.0 682.7,474.9 684.0,474.6 685.4,474.0 686.7,472.8 688.1,470.8 689.4,467.9 690.8,464.1 692.1,459.1 693.4,453.1 694.8,445.9 696.1,437.7 697.5,428.4 698.8,418.2 700.2,407.1 701.5,395.4 702.8,383.0 704.2,370.3 705.5,357.2 706.9,343.9 708.2,330.6 709.6,317.3 710.9,304.3 712.2,291.6 713.6,279.3 714.9,267.6 716.3,256.4 717.6,245.8 719.0,236.0 720.3,227.0 721.7,218.7 723.0,211.3 724.3,204.7 725.7,199.0 727.0,194.1 728.4,190.1 729.7,186.9 731.1,184.5 732.4,182.9 733.8,182.1 735.1,182.0 736.4,182.6 737.8,183.9 739.1,185.7 740.5,188.2 741.8,191.2 743.2,194.7 744.5,198.7 745.8,203.0 747.2,207.8 748.5,212.9 749.9,218.3 751.2,223.9 752.6,229.8 753.9,235.8 755.2,242.1 756.6,248.4 757.9,254.9 759.3,261.4 760.6,267.9 762.0,274.5 763.3,281.1 764.7,287.7 766.0,294.2 767.3,300.7 768.7,307.1 770.0,313.4 771.4,319.6 772.7,325.7 774.1,331.7 775.4,337.5 776.8,343.2 778.1,348.8 779.4,354.3 780.8,359.5 782.1,364.7 783.5,369.6 784.8,374.5 786.2,379.1 787.5,383.6 788.8,388.0 790.2,392.2 791.5,396.2 792.9,400.1 794.2,403.8 795.6,407.4 796.9,410.8 798.2,414.1 799.6,417.3 800.9,420.3 802.3,423.2 803.6,426.0 805.0,428.6 806.3,431.1 807.7,433.5 809.0,435.8 810.3,438.0 811.7,440.0 813.0,442.0 814.4,443.9 815.7,445.6 817.1,447.3 818.4,448.9 819.8,450.4 821.1,451.9 822.4,453.2 823.8,454.5 825.1,455.7 826.5,456.9 827.8,458.0 829.2,459.0 830.5,460.0 831.8,460.9 833.2,461.7 834.5,462.6 835.9,463.3 837.2,464.0 838.6,464.7 839.9,465.4 841.2,466.0 842.6,466.6 843.9,467.1 845.3,467.6 846.6,468.1 848.0,468.5 849.3,468.9 850.7,469.3 852.0,469.7 853.3,470.0 854.7,470.4 856.0,470.7 857.4,470.9 858.7,471.2 860.1,471.5 861.4,471.7 862.8,471.9 864.1,472.1 865.4,472.3 866.8,472.5 868.1,472.7 869.5,472.8 870.8,473.0 872.2,473.1 873.5,473.2 874.8,473.4 876.2,473.5 877.5,473.6 878.9,473.7 880.2,473.8 881.6,473.9 882.9,473.9 884.2,474.0 885.6,474.1 886.9,474.1 888.3,474.2 889.6,474.3 891.0,474.3 892.3,474.4 893.7,474.4 895.0,474.4 896.3,474.5 897.7,474.5 899.0,474.6 900.4,474.6 901.7,474.6 903.1,474.6 904.4,474.7 905.8,474.7 907.1,474.7 908.4,474.7 909.8,474.8 911.1,474.8 912.5,474.8 913.8,474.8 915.2,474.8 916.5,474.8 917.8,474.8 919.2,474.9 920.5,474.9 921.9,474.9 923.2,474.9 924.6,474.9 925.9,474.9 927.2,474.9 928.6,474.9 929.9,474.9 931.3,474.9 932.6,474.9 934.0,474.9 935.3,474.9 936.7,474.9 938.0,475.0 939.3,475.0 940.7,475.0 942.0,475.0 943.4,475.0 944.7,475.0 946.1,475.0 947.4,475.0 948.8,475.0 950.1,475.0 951.4,475.0 952.8,475.0 954.1,475.0 955.5,475.0 956.8,475.0 958.2,475.0 959.5,475.0 960.8,475.0 962.2,475.0 963.5,475.0 964.9,475.0 966.2,475.0 967.6,475.0 968.9,475.0 970.2,475.0 971.6,475.0 972.9,475.0 974.3,475.0 975.6,475.0 977.0,475.0 978.3,475.0 979.7,475.0 981.0,475.0 982.3,475.0 983.7,475.0 985.0,475.0 986.4,475.0 987.7,475.0 989.1,475.0 990.4,475.0 991.8,475.0 993.1,475.0 994.4,475.0 995.8,475.0 997.1,475.0 998.5,475.0 999.8,475.0 1001.2,475.0 1002.5,475.0 1003.8,475.0 1005.2,475.0 1006.5,475.0 1007.9,475.0 1009.2,475.0 1010.6,475.0 1011.9,475.0 1013.2,475.0 1014.6,475.0 1015.9,475.0 1017.3,475.0 1018.6,475.0 1020.0,475.0 1021.3,475.0 1022.7,475.0 1024.0,475.0 1025.3,475.0 1026.7,475.0 1028.0,475.0 1029.4,475.0 1030.7,475.0 1032.1,475.0 1033.4,475.0 1034.8,475.0 1036.1,475.0 1037.4,475.0 1038.8,475.0 1040.1,475.0 1041.5,475.0 1042.8,475.0 1044.2,475.0 1045.5,475.0 1046.8,475.0 1048.2,475.0 1049.5,475.0 1050.9,475.0 1052.2,475.0 1053.6,475.0 1054.9,475.0 1056.2,475.0 1057.6,475.0 1058.9,475.0 1060.3,475.0 1061.6,475.0 1063.0,475.0 1064.3,475.0 1065.7,475.0 1067.0,475.0 1068.3,475.0 1069.7,475.0 1071.0,475.0 1072.4,475.0 1073.7,475.0 1075.1,475.0 1076.4,475.0 1077.8,475.0 1079.1,475.0 1080.4,475.0 1081.8,475.0 1083.1,475.0 1084.5,475.0 1085.8,475.0 1087.2,475.0 1088.5,475.0 1089.8,475.0 1091.2,475.0 1092.5,475.0 1093.9,475.0 1095.2,475.0 1096.6,475.0 1097.9,475.0 1099.2,475.0 1100.6,475.0 1101.9,475.0 1103.3,475.0 1104.6,475.0 1106.0,475.0 1107.3,475.0 1108.7,475.0 1110.0,475.0" fill="none" stroke="#6670ee" stroke-width="3.4" clip-path="url(#weak-prior-sigma)"/>
<text x="811.0" y="410.0" font-family="-apple-system,BlinkMacSystemFont,PingFang SC,Noto Sans CJK SC,sans-serif" font-size="19" fill="#30332e">先验</text>
<text x="770.1" y="245.0" font-family="-apple-system,BlinkMacSystemFont,PingFang SC,Noto Sans CJK SC,sans-serif" font-size="19" fill="#6670ee">后验</text>
<text x="895.0" y="555" text-anchor="middle" font-family="-apple-system,BlinkMacSystemFont,PingFang SC,Noto Sans CJK SC,sans-serif" font-size="21" fill="#263f86">sigma</text>
<text x="620" y="270.0" transform="rotate(-90 620 270.0)" text-anchor="middle" font-family="-apple-system,BlinkMacSystemFont,PingFang SC,Noto Sans CJK SC,sans-serif" font-size="21" fill="#263f86">密度</text>
</svg>
