<svg xmlns="http://www.w3.org/2000/svg" width="1200" height="650" viewBox="0 0 1200 650" role="img">
<title>log link 把线性模型变换为严格为正的测量值</title>
<desc>左图为 log 尺度上的线性模型，右图为指数变换后的正数尺度；等距水平线在原始尺度上逐渐拉开。</desc>
<rect width="100%" height="100%" fill="#fbfaf6"/>
<text x="312.5" y="38.0" text-anchor="middle" font-family="-apple-system,BlinkMacSystemFont,PingFang SC,Noto Sans CJK SC,sans-serif" font-size="22" font-weight="700" fill="#263f86">线性模型（log 尺度）</text>
<rect x="85" y="65" width="455" height="455" fill="#fff" stroke="#d9d5c8"/>
<line x1="85.0" y1="520" x2="85.0" y2="527" stroke="#30332e"/>
<text x="85.0" y="549.0" text-anchor="middle" font-family="-apple-system,BlinkMacSystemFont,PingFang SC,Noto Sans CJK SC,sans-serif" font-size="15" font-weight="400" fill="#30332e">-1.0</text>
<line x1="198.8" y1="520" x2="198.8" y2="527" stroke="#30332e"/>
<text x="198.8" y="549.0" text-anchor="middle" font-family="-apple-system,BlinkMacSystemFont,PingFang SC,Noto Sans CJK SC,sans-serif" font-size="15" font-weight="400" fill="#30332e">-0.5</text>
<line x1="312.5" y1="520" x2="312.5" y2="527" stroke="#30332e"/>
<text x="312.5" y="549.0" text-anchor="middle" font-family="-apple-system,BlinkMacSystemFont,PingFang SC,Noto Sans CJK SC,sans-serif" font-size="15" font-weight="400" fill="#30332e">0.0</text>
<line x1="426.2" y1="520" x2="426.2" y2="527" stroke="#30332e"/>
<text x="426.2" y="549.0" text-anchor="middle" font-family="-apple-system,BlinkMacSystemFont,PingFang SC,Noto Sans CJK SC,sans-serif" font-size="15" font-weight="400" fill="#30332e">0.5</text>
<line x1="540.0" y1="520" x2="540.0" y2="527" stroke="#30332e"/>
<text x="540.0" y="549.0" text-anchor="middle" font-family="-apple-system,BlinkMacSystemFont,PingFang SC,Noto Sans CJK SC,sans-serif" font-size="15" font-weight="400" fill="#30332e">1.0</text>
<line x1="85" y1="505.8" x2="540" y2="505.8" stroke="#b9bbb5" stroke-width="1.5"/>
<line x1="85" y1="434.7" x2="540" y2="434.7" stroke="#b9bbb5" stroke-width="1.5"/>
<line x1="85" y1="363.6" x2="540" y2="363.6" stroke="#b9bbb5" stroke-width="1.5"/>
<line x1="85" y1="292.5" x2="540" y2="292.5" stroke="#b9bbb5" stroke-width="1.5"/>
<line x1="85" y1="221.4" x2="540" y2="221.4" stroke="#b9bbb5" stroke-width="1.5"/>
<line x1="85" y1="150.3" x2="540" y2="150.3" stroke="#b9bbb5" stroke-width="1.5"/>
<line x1="78" y1="505.8" x2="85" y2="505.8" stroke="#30332e"/>
<text x="72.0" y="510.8" text-anchor="end" font-family="-apple-system,BlinkMacSystemFont,PingFang SC,Noto Sans CJK SC,sans-serif" font-size="15" font-weight="400" fill="#30332e">-3</text>
<line x1="78" y1="434.7" x2="85" y2="434.7" stroke="#30332e"/>
<text x="72.0" y="439.7" text-anchor="end" font-family="-apple-system,BlinkMacSystemFont,PingFang SC,Noto Sans CJK SC,sans-serif" font-size="15" font-weight="400" fill="#30332e">-2</text>
<line x1="78" y1="363.6" x2="85" y2="363.6" stroke="#30332e"/>
<text x="72.0" y="368.6" text-anchor="end" font-family="-apple-system,BlinkMacSystemFont,PingFang SC,Noto Sans CJK SC,sans-serif" font-size="15" font-weight="400" fill="#30332e">-1</text>
<line x1="78" y1="292.5" x2="85" y2="292.5" stroke="#30332e"/>
<text x="72.0" y="297.5" text-anchor="end" font-family="-apple-system,BlinkMacSystemFont,PingFang SC,Noto Sans CJK SC,sans-serif" font-size="15" font-weight="400" fill="#30332e">0</text>
<line x1="78" y1="221.4" x2="85" y2="221.4" stroke="#30332e"/>
<text x="72.0" y="226.4" text-anchor="end" font-family="-apple-system,BlinkMacSystemFont,PingFang SC,Noto Sans CJK SC,sans-serif" font-size="15" font-weight="400" fill="#30332e">1</text>
<line x1="78" y1="150.3" x2="85" y2="150.3" stroke="#30332e"/>
<text x="72.0" y="155.3" text-anchor="end" font-family="-apple-system,BlinkMacSystemFont,PingFang SC,Noto Sans CJK SC,sans-serif" font-size="15" font-weight="400" fill="#30332e">2</text>
<line x1="78" y1="79.2" x2="85" y2="79.2" stroke="#30332e"/>
<text x="72.0" y="84.2" text-anchor="end" font-family="-apple-system,BlinkMacSystemFont,PingFang SC,Noto Sans CJK SC,sans-serif" font-size="15" font-weight="400" fill="#30332e">3</text>
<polyline points="85.0,456.0 86.5,454.9 88.0,453.8 89.6,452.7 91.1,451.7 92.6,450.6 94.1,449.5 95.6,448.4 97.1,447.3 98.7,446.2 100.2,445.1 101.7,444.0 103.2,442.9 104.7,441.8 106.2,440.8 107.8,439.7 109.3,438.6 110.8,437.5 112.3,436.4 113.8,435.3 115.3,434.2 116.8,433.1 118.4,432.0 119.9,430.9 121.4,429.9 122.9,428.8 124.4,427.7 125.9,426.6 127.5,425.5 129.0,424.4 130.5,423.3 132.0,422.2 133.5,421.1 135.1,420.0 136.6,419.0 138.1,417.9 139.6,416.8 141.1,415.7 142.6,414.6 144.2,413.5 145.7,412.4 147.2,411.3 148.7,410.2 150.2,409.1 151.7,408.1 153.2,407.0 154.8,405.9 156.3,404.8 157.8,403.7 159.3,402.6 160.8,401.5 162.4,400.4 163.9,399.3 165.4,398.2 166.9,397.1 168.4,396.1 169.9,395.0 171.4,393.9 173.0,392.8 174.5,391.7 176.0,390.6 177.5,389.5 179.0,388.4 180.5,387.3 182.1,386.2 183.6,385.2 185.1,384.1 186.6,383.0 188.1,381.9 189.6,380.8 191.2,379.7 192.7,378.6 194.2,377.5 195.7,376.4 197.2,375.3 198.8,374.3 200.3,373.2 201.8,372.1 203.3,371.0 204.8,369.9 206.3,368.8 207.9,367.7 209.4,366.6 210.9,365.5 212.4,364.4 213.9,363.4 215.4,362.3 216.9,361.2 218.5,360.1 220.0,359.0 221.5,357.9 223.0,356.8 224.5,355.7 226.1,354.6 227.6,353.5 229.1,352.5 230.6,351.4 232.1,350.3 233.6,349.2 235.2,348.1 236.7,347.0 238.2,345.9 239.7,344.8 241.2,343.7 242.7,342.6 244.2,341.6 245.8,340.5 247.3,339.4 248.8,338.3 250.3,337.2 251.8,336.1 253.3,335.0 254.9,333.9 256.4,332.8 257.9,331.7 259.4,330.7 260.9,329.6 262.5,328.5 264.0,327.4 265.5,326.3 267.0,325.2 268.5,324.1 270.0,323.0 271.5,321.9 273.1,320.8 274.6,319.8 276.1,318.7 277.6,317.6 279.1,316.5 280.6,315.4 282.2,314.3 283.7,313.2 285.2,312.1 286.7,311.0 288.2,309.9 289.8,308.9 291.3,307.8 292.8,306.7 294.3,305.6 295.8,304.5 297.3,303.4 298.9,302.3 300.4,301.2 301.9,300.1 303.4,299.0 304.9,298.0 306.4,296.9 307.9,295.8 309.5,294.7 311.0,293.6 312.5,292.5 314.0,291.4 315.5,290.3 317.1,289.2 318.6,288.1 320.1,287.0 321.6,286.0 323.1,284.9 324.6,283.8 326.1,282.7 327.7,281.6 329.2,280.5 330.7,279.4 332.2,278.3 333.7,277.2 335.2,276.1 336.8,275.1 338.3,274.0 339.8,272.9 341.3,271.8 342.8,270.7 344.3,269.6 345.9,268.5 347.4,267.4 348.9,266.3 350.4,265.2 351.9,264.2 353.4,263.1 355.0,262.0 356.5,260.9 358.0,259.8 359.5,258.7 361.0,257.6 362.6,256.5 364.1,255.4 365.6,254.3 367.1,253.3 368.6,252.2 370.1,251.1 371.6,250.0 373.2,248.9 374.7,247.8 376.2,246.7 377.7,245.6 379.2,244.5 380.8,243.4 382.3,242.4 383.8,241.3 385.3,240.2 386.8,239.1 388.3,238.0 389.9,236.9 391.4,235.8 392.9,234.7 394.4,233.6 395.9,232.5 397.4,231.5 398.9,230.4 400.5,229.3 402.0,228.2 403.5,227.1 405.0,226.0 406.5,224.9 408.1,223.8 409.6,222.7 411.1,221.6 412.6,220.6 414.1,219.5 415.6,218.4 417.1,217.3 418.7,216.2 420.2,215.1 421.7,214.0 423.2,212.9 424.7,211.8 426.2,210.7 427.8,209.7 429.3,208.6 430.8,207.5 432.3,206.4 433.8,205.3 435.4,204.2 436.9,203.1 438.4,202.0 439.9,200.9 441.4,199.8 442.9,198.8 444.4,197.7 446.0,196.6 447.5,195.5 449.0,194.4 450.5,193.3 452.0,192.2 453.6,191.1 455.1,190.0 456.6,188.9 458.1,187.9 459.6,186.8 461.1,185.7 462.6,184.6 464.2,183.5 465.7,182.4 467.2,181.3 468.7,180.2 470.2,179.1 471.8,178.0 473.3,176.9 474.8,175.9 476.3,174.8 477.8,173.7 479.3,172.6 480.9,171.5 482.4,170.4 483.9,169.3 485.4,168.2 486.9,167.1 488.4,166.0 489.9,165.0 491.5,163.9 493.0,162.8 494.5,161.7 496.0,160.6 497.5,159.5 499.1,158.4 500.6,157.3 502.1,156.2 503.6,155.1 505.1,154.1 506.6,153.0 508.2,151.9 509.7,150.8 511.2,149.7 512.7,148.6 514.2,147.5 515.7,146.4 517.2,145.3 518.8,144.2 520.3,143.2 521.8,142.1 523.3,141.0 524.8,139.9 526.3,138.8 527.9,137.7 529.4,136.6 530.9,135.5 532.4,134.4 533.9,133.3 535.5,132.3 537.0,131.2 538.5,130.1 540.0,129.0" fill="none" stroke="#737cff" stroke-width="5"/>
<text x="312.5" y="592.0" text-anchor="middle" font-family="-apple-system,BlinkMacSystemFont,PingFang SC,Noto Sans CJK SC,sans-serif" font-size="19" font-weight="400" fill="#263f86">预测变量 x</text>
<text x="25.0" y="292.5" text-anchor="middle" font-family="-apple-system,BlinkMacSystemFont,PingFang SC,Noto Sans CJK SC,sans-serif" font-size="19" font-weight="400" fill="#263f86" transform="rotate(-90 25 292.5)">log 测量值</text>
<text x="882.5" y="38.0" text-anchor="middle" font-family="-apple-system,BlinkMacSystemFont,PingFang SC,Noto Sans CJK SC,sans-serif" font-size="22" font-weight="700" fill="#263f86">指数变换</text>
<rect x="655" y="65" width="455" height="455" fill="#fff" stroke="#d9d5c8"/>
<line x1="655.0" y1="520" x2="655.0" y2="527" stroke="#30332e"/>
<text x="655.0" y="549.0" text-anchor="middle" font-family="-apple-system,BlinkMacSystemFont,PingFang SC,Noto Sans CJK SC,sans-serif" font-size="15" font-weight="400" fill="#30332e">-1.0</text>
<line x1="768.8" y1="520" x2="768.8" y2="527" stroke="#30332e"/>
<text x="768.8" y="549.0" text-anchor="middle" font-family="-apple-system,BlinkMacSystemFont,PingFang SC,Noto Sans CJK SC,sans-serif" font-size="15" font-weight="400" fill="#30332e">-0.5</text>
<line x1="882.5" y1="520" x2="882.5" y2="527" stroke="#30332e"/>
<text x="882.5" y="549.0" text-anchor="middle" font-family="-apple-system,BlinkMacSystemFont,PingFang SC,Noto Sans CJK SC,sans-serif" font-size="15" font-weight="400" fill="#30332e">0.0</text>
<line x1="996.2" y1="520" x2="996.2" y2="527" stroke="#30332e"/>
<text x="996.2" y="549.0" text-anchor="middle" font-family="-apple-system,BlinkMacSystemFont,PingFang SC,Noto Sans CJK SC,sans-serif" font-size="15" font-weight="400" fill="#30332e">0.5</text>
<line x1="1110.0" y1="520" x2="1110.0" y2="527" stroke="#30332e"/>
<text x="1110.0" y="549.0" text-anchor="middle" font-family="-apple-system,BlinkMacSystemFont,PingFang SC,Noto Sans CJK SC,sans-serif" font-size="15" font-weight="400" fill="#30332e">1.0</text>
<line x1="655" y1="511.2" x2="1110" y2="511.2" stroke="#b9bbb5" stroke-width="1.5"/>
<line x1="655" y1="507.5" x2="1110" y2="507.5" stroke="#b9bbb5" stroke-width="1.5"/>
<line x1="655" y1="497.2" x2="1110" y2="497.2" stroke="#b9bbb5" stroke-width="1.5"/>
<line x1="655" y1="469.4" x2="1110" y2="469.4" stroke="#b9bbb5" stroke-width="1.5"/>
<line x1="655" y1="393.9" x2="1110" y2="393.9" stroke="#b9bbb5" stroke-width="1.5"/>
<line x1="655" y1="188.6" x2="1110" y2="188.6" stroke="#b9bbb5" stroke-width="1.5"/>
<line x1="648" y1="513.4" x2="655" y2="513.4" stroke="#30332e"/>
<text x="642.0" y="518.4" text-anchor="end" font-family="-apple-system,BlinkMacSystemFont,PingFang SC,Noto Sans CJK SC,sans-serif" font-size="15" font-weight="400" fill="#30332e">0</text>
<line x1="648" y1="425.5" x2="655" y2="425.5" stroke="#30332e"/>
<text x="642.0" y="430.5" text-anchor="end" font-family="-apple-system,BlinkMacSystemFont,PingFang SC,Noto Sans CJK SC,sans-serif" font-size="15" font-weight="400" fill="#30332e">2</text>
<line x1="648" y1="337.6" x2="655" y2="337.6" stroke="#30332e"/>
<text x="642.0" y="342.6" text-anchor="end" font-family="-apple-system,BlinkMacSystemFont,PingFang SC,Noto Sans CJK SC,sans-serif" font-size="15" font-weight="400" fill="#30332e">4</text>
<line x1="648" y1="249.6" x2="655" y2="249.6" stroke="#30332e"/>
<text x="642.0" y="254.6" text-anchor="end" font-family="-apple-system,BlinkMacSystemFont,PingFang SC,Noto Sans CJK SC,sans-serif" font-size="15" font-weight="400" fill="#30332e">6</text>
<line x1="648" y1="161.7" x2="655" y2="161.7" stroke="#30332e"/>
<text x="642.0" y="166.7" text-anchor="end" font-family="-apple-system,BlinkMacSystemFont,PingFang SC,Noto Sans CJK SC,sans-serif" font-size="15" font-weight="400" fill="#30332e">8</text>
<line x1="648" y1="73.8" x2="655" y2="73.8" stroke="#30332e"/>
<text x="642.0" y="78.8" text-anchor="end" font-family="-apple-system,BlinkMacSystemFont,PingFang SC,Noto Sans CJK SC,sans-serif" font-size="15" font-weight="400" fill="#30332e">10</text>
<polyline points="655.0,509.0 656.5,508.9 658.0,508.9 659.5,508.8 661.1,508.7 662.6,508.6 664.1,508.6 665.6,508.5 667.1,508.4 668.6,508.3 670.2,508.3 671.7,508.2 673.2,508.1 674.7,508.0 676.2,507.9 677.8,507.9 679.3,507.8 680.8,507.7 682.3,507.6 683.8,507.5 685.3,507.4 686.9,507.3 688.4,507.2 689.9,507.1 691.4,507.0 692.9,506.9 694.4,506.8 696.0,506.7 697.5,506.6 699.0,506.5 700.5,506.4 702.0,506.3 703.5,506.2 705.0,506.1 706.6,506.0 708.1,505.9 709.6,505.8 711.1,505.6 712.6,505.5 714.1,505.4 715.7,505.3 717.2,505.1 718.7,505.0 720.2,504.9 721.7,504.8 723.2,504.6 724.8,504.5 726.3,504.3 727.8,504.2 729.3,504.1 730.8,503.9 732.4,503.8 733.9,503.6 735.4,503.5 736.9,503.3 738.4,503.2 739.9,503.0 741.5,502.8 743.0,502.7 744.5,502.5 746.0,502.3 747.5,502.2 749.0,502.0 750.5,501.8 752.1,501.6 753.6,501.5 755.1,501.3 756.6,501.1 758.1,500.9 759.6,500.7 761.2,500.5 762.7,500.3 764.2,500.1 765.7,499.9 767.2,499.7 768.8,499.5 770.3,499.3 771.8,499.1 773.3,498.8 774.8,498.6 776.3,498.4 777.9,498.1 779.4,497.9 780.9,497.7 782.4,497.4 783.9,497.2 785.4,496.9 787.0,496.7 788.5,496.4 790.0,496.2 791.5,495.9 793.0,495.6 794.5,495.3 796.0,495.1 797.6,494.8 799.1,494.5 800.6,494.2 802.1,493.9 803.6,493.6 805.1,493.3 806.7,493.0 808.2,492.7 809.7,492.3 811.2,492.0 812.7,491.7 814.2,491.4 815.8,491.0 817.3,490.7 818.8,490.3 820.3,490.0 821.8,489.6 823.4,489.2 824.9,488.9 826.4,488.5 827.9,488.1 829.4,487.7 830.9,487.3 832.5,486.9 834.0,486.5 835.5,486.1 837.0,485.7 838.5,485.2 840.0,484.8 841.5,484.3 843.1,483.9 844.6,483.4 846.1,483.0 847.6,482.5 849.1,482.0 850.6,481.5 852.2,481.1 853.7,480.6 855.2,480.0 856.7,479.5 858.2,479.0 859.8,478.5 861.3,477.9 862.8,477.4 864.3,476.8 865.8,476.3 867.3,475.7 868.9,475.1 870.4,474.5 871.9,473.9 873.4,473.3 874.9,472.7 876.4,472.1 878.0,471.4 879.5,470.8 881.0,470.1 882.5,469.4 884.0,468.8 885.5,468.1 887.0,467.4 888.6,466.7 890.1,465.9 891.6,465.2 893.1,464.5 894.6,463.7 896.1,462.9 897.7,462.2 899.2,461.4 900.7,460.6 902.2,459.7 903.7,458.9 905.2,458.1 906.8,457.2 908.3,456.4 909.8,455.5 911.3,454.6 912.8,453.7 914.3,452.7 915.9,451.8 917.4,450.9 918.9,449.9 920.4,448.9 921.9,447.9 923.5,446.9 925.0,445.9 926.5,444.8 928.0,443.8 929.5,442.7 931.0,441.6 932.5,440.5 934.1,439.4 935.6,438.2 937.1,437.1 938.6,435.9 940.1,434.7 941.6,433.5 943.2,432.2 944.7,431.0 946.2,429.7 947.7,428.4 949.2,427.1 950.8,425.8 952.3,424.4 953.8,423.0 955.3,421.6 956.8,420.2 958.3,418.8 959.9,417.3 961.4,415.8 962.9,414.3 964.4,412.8 965.9,411.2 967.4,409.7 969.0,408.1 970.5,406.4 972.0,404.8 973.5,403.1 975.0,401.4 976.5,399.7 978.0,397.9 979.6,396.1 981.1,394.3 982.6,392.5 984.1,390.6 985.6,388.7 987.1,386.8 988.7,384.8 990.2,382.8 991.7,380.8 993.2,378.8 994.7,376.7 996.2,374.6 997.8,372.4 999.3,370.2 1000.8,368.0 1002.3,365.8 1003.8,363.5 1005.4,361.2 1006.9,358.8 1008.4,356.4 1009.9,354.0 1011.4,351.6 1012.9,349.1 1014.5,346.5 1016.0,343.9 1017.5,341.3 1019.0,338.7 1020.5,336.0 1022.0,333.2 1023.5,330.4 1025.1,327.6 1026.6,324.7 1028.1,321.8 1029.6,318.9 1031.1,315.9 1032.7,312.8 1034.2,309.7 1035.7,306.6 1037.2,303.4 1038.7,300.1 1040.2,296.8 1041.8,293.5 1043.3,290.1 1044.8,286.6 1046.3,283.1 1047.8,279.6 1049.3,276.0 1050.8,272.3 1052.4,268.6 1053.9,264.8 1055.4,260.9 1056.9,257.0 1058.4,253.1 1060.0,249.0 1061.5,245.0 1063.0,240.8 1064.5,236.6 1066.0,232.3 1067.5,228.0 1069.0,223.6 1070.6,219.1 1072.1,214.5 1073.6,209.9 1075.1,205.2 1076.6,200.5 1078.2,195.6 1079.7,190.7 1081.2,185.7 1082.7,180.7 1084.2,175.5 1085.7,170.3 1087.2,165.0 1088.8,159.6 1090.3,154.2 1091.8,148.6 1093.3,143.0 1094.8,137.3 1096.3,131.4 1097.9,125.5 1099.4,119.6 1100.9,113.5 1102.4,107.3 1103.9,101.0 1105.5,94.6 1107.0,88.2 1108.5,81.6 1110.0,74.9" fill="none" stroke="#737cff" stroke-width="5"/>
<text x="882.5" y="592.0" text-anchor="middle" font-family="-apple-system,BlinkMacSystemFont,PingFang SC,Noto Sans CJK SC,sans-serif" font-size="19" font-weight="400" fill="#263f86">预测变量 x</text>
<text x="595.0" y="292.5" text-anchor="middle" font-family="-apple-system,BlinkMacSystemFont,PingFang SC,Noto Sans CJK SC,sans-serif" font-size="19" font-weight="400" fill="#263f86" transform="rotate(-90 595 292.5)">原始测量值</text>
</svg>
