<?xml version="1.0" encoding="UTF-8"?>
<svg xmlns="http://www.w3.org/2000/svg" width="1200" height="620" viewBox="0 0 1200 620" role="img">
  <title>第一版灵长类乳汁模型的先验预测分布</title>
  <desc>左图的模糊先验产生大量不合理回归线；右图收紧截距和斜率先验后，回归线大多停留在可观测空间。</desc>
  <rect width="100%" height="100%" fill="#fff"/>
  <defs><clipPath id="milk-prior-left"><rect x="105" y="105" width="430" height="390"/></clipPath><clipPath id="milk-prior-right"><rect x="690" y="105" width="430" height="390"/></clipPath></defs>
  <text x="320.0" y="42" text-anchor="middle" font-family="PingFang SC, Noto Sans CJK SC, Microsoft YaHei, sans-serif" font-size="20" font-weight="700" fill="#263f86">a ∼ Normal(0, 1)</text>
  <text x="320.0" y="70" text-anchor="middle" font-family="PingFang SC, Noto Sans CJK SC, Microsoft YaHei, sans-serif" font-size="20" font-weight="700" fill="#263f86">bN ∼ Normal(0, 1)</text>
  <rect x="105" y="105" width="430" height="390" fill="#fff" stroke="#343732" stroke-width="1.5"/>
  <line x1="105" y1="422.83" x2="535" y2="467.22" stroke="#303330" stroke-width="1.8" opacity="0.38" clip-path="url(#milk-prior-left)"/>
  <line x1="105" y1="261.8" x2="535" y2="324.23" stroke="#303330" stroke-width="1.8" opacity="0.38" clip-path="url(#milk-prior-left)"/>
  <line x1="105" y1="947.81" x2="535" y2="-376.95" stroke="#303330" stroke-width="1.8" opacity="0.38" clip-path="url(#milk-prior-left)"/>
  <line x1="105" y1="627.89" x2="535" y2="236.51" stroke="#303330" stroke-width="1.8" opacity="0.38" clip-path="url(#milk-prior-left)"/>
  <line x1="105" y1="279.71" x2="535" y2="284.16" stroke="#303330" stroke-width="1.8" opacity="0.38" clip-path="url(#milk-prior-left)"/>
  <line x1="105" y1="132.46" x2="535" y2="392.37" stroke="#303330" stroke-width="1.8" opacity="0.38" clip-path="url(#milk-prior-left)"/>
  <line x1="105" y1="-1.09" x2="535" y2="796.75" stroke="#303330" stroke-width="1.8" opacity="0.38" clip-path="url(#milk-prior-left)"/>
  <line x1="105" y1="93.63" x2="535" y2="338.16" stroke="#303330" stroke-width="1.8" opacity="0.38" clip-path="url(#milk-prior-left)"/>
  <line x1="105" y1="445.69" x2="535" y2="386.51" stroke="#303330" stroke-width="1.8" opacity="0.38" clip-path="url(#milk-prior-left)"/>
  <line x1="105" y1="256.55" x2="535" y2="122.36" stroke="#303330" stroke-width="1.8" opacity="0.38" clip-path="url(#milk-prior-left)"/>
  <line x1="105" y1="799.96" x2="535" y2="-45.99" stroke="#303330" stroke-width="1.8" opacity="0.38" clip-path="url(#milk-prior-left)"/>
  <line x1="105" y1="136.56" x2="535" y2="323.7" stroke="#303330" stroke-width="1.8" opacity="0.38" clip-path="url(#milk-prior-left)"/>
  <line x1="105" y1="80.96" x2="535" y2="559.74" stroke="#303330" stroke-width="1.8" opacity="0.38" clip-path="url(#milk-prior-left)"/>
  <line x1="105" y1="394.68" x2="535" y2="347.82" stroke="#303330" stroke-width="1.8" opacity="0.38" clip-path="url(#milk-prior-left)"/>
  <line x1="105" y1="140.81" x2="535" y2="444.49" stroke="#303330" stroke-width="1.8" opacity="0.38" clip-path="url(#milk-prior-left)"/>
  <line x1="105" y1="299.33" x2="535" y2="388.64" stroke="#303330" stroke-width="1.8" opacity="0.38" clip-path="url(#milk-prior-left)"/>
  <line x1="105" y1="367.59" x2="535" y2="314.98" stroke="#303330" stroke-width="1.8" opacity="0.38" clip-path="url(#milk-prior-left)"/>
  <line x1="105" y1="293.54" x2="535" y2="316.63" stroke="#303330" stroke-width="1.8" opacity="0.38" clip-path="url(#milk-prior-left)"/>
  <line x1="105" y1="447.44" x2="535" y2="499.64" stroke="#303330" stroke-width="1.8" opacity="0.38" clip-path="url(#milk-prior-left)"/>
  <line x1="105" y1="249.85" x2="535" y2="285.38" stroke="#303330" stroke-width="1.8" opacity="0.38" clip-path="url(#milk-prior-left)"/>
  <line x1="105" y1="305.83" x2="535" y2="433.76" stroke="#303330" stroke-width="1.8" opacity="0.38" clip-path="url(#milk-prior-left)"/>
  <line x1="105" y1="251.4" x2="535" y2="131.8" stroke="#303330" stroke-width="1.8" opacity="0.38" clip-path="url(#milk-prior-left)"/>
  <line x1="105" y1="-16.63" x2="535" y2="466.1" stroke="#303330" stroke-width="1.8" opacity="0.38" clip-path="url(#milk-prior-left)"/>
  <line x1="105" y1="53.37" x2="535" y2="176.92" stroke="#303330" stroke-width="1.8" opacity="0.38" clip-path="url(#milk-prior-left)"/>
  <line x1="105" y1="206.7" x2="535" y2="103.77" stroke="#303330" stroke-width="1.8" opacity="0.38" clip-path="url(#milk-prior-left)"/>
  <line x1="105" y1="385.66" x2="535" y2="53.71" stroke="#303330" stroke-width="1.8" opacity="0.38" clip-path="url(#milk-prior-left)"/>
  <line x1="105" y1="318.32" x2="535" y2="351.41" stroke="#303330" stroke-width="1.8" opacity="0.38" clip-path="url(#milk-prior-left)"/>
  <line x1="105" y1="257.49" x2="535" y2="642.63" stroke="#303330" stroke-width="1.8" opacity="0.38" clip-path="url(#milk-prior-left)"/>
  <line x1="105" y1="117.08" x2="535" y2="397.41" stroke="#303330" stroke-width="1.8" opacity="0.38" clip-path="url(#milk-prior-left)"/>
  <line x1="105" y1="350.52" x2="535" y2="267.9" stroke="#303330" stroke-width="1.8" opacity="0.38" clip-path="url(#milk-prior-left)"/>
  <line x1="105" y1="372.51" x2="535" y2="560.82" stroke="#303330" stroke-width="1.8" opacity="0.38" clip-path="url(#milk-prior-left)"/>
  <line x1="105" y1="244.91" x2="535" y2="341.06" stroke="#303330" stroke-width="1.8" opacity="0.38" clip-path="url(#milk-prior-left)"/>
  <line x1="105" y1="444.3" x2="535" y2="279.73" stroke="#303330" stroke-width="1.8" opacity="0.38" clip-path="url(#milk-prior-left)"/>
  <line x1="105" y1="628.6" x2="535" y2="302.22" stroke="#303330" stroke-width="1.8" opacity="0.38" clip-path="url(#milk-prior-left)"/>
  <line x1="105" y1="377.1" x2="535" y2="275.89" stroke="#303330" stroke-width="1.8" opacity="0.38" clip-path="url(#milk-prior-left)"/>
  <line x1="105" y1="693.37" x2="535" y2="242.44" stroke="#303330" stroke-width="1.8" opacity="0.38" clip-path="url(#milk-prior-left)"/>
  <line x1="105" y1="138.82" x2="535" y2="619.65" stroke="#303330" stroke-width="1.8" opacity="0.38" clip-path="url(#milk-prior-left)"/>
  <line x1="105" y1="474.32" x2="535" y2="-146.59" stroke="#303330" stroke-width="1.8" opacity="0.38" clip-path="url(#milk-prior-left)"/>
  <line x1="105" y1="140.03" x2="535" y2="350.27" stroke="#303330" stroke-width="1.8" opacity="0.38" clip-path="url(#milk-prior-left)"/>
  <line x1="105" y1="324.38" x2="535" y2="-11.13" stroke="#303330" stroke-width="1.8" opacity="0.38" clip-path="url(#milk-prior-left)"/>
  <line x1="105" y1="42.49" x2="535" y2="343.11" stroke="#303330" stroke-width="1.8" opacity="0.38" clip-path="url(#milk-prior-left)"/>
  <line x1="105" y1="310.54" x2="535" y2="406.43" stroke="#303330" stroke-width="1.8" opacity="0.38" clip-path="url(#milk-prior-left)"/>
  <line x1="105" y1="506.56" x2="535" y2="-10.05" stroke="#303330" stroke-width="1.8" opacity="0.38" clip-path="url(#milk-prior-left)"/>
  <line x1="105" y1="298.04" x2="535" y2="449.05" stroke="#303330" stroke-width="1.8" opacity="0.38" clip-path="url(#milk-prior-left)"/>
  <line x1="105" y1="413.3" x2="535" y2="41.16" stroke="#303330" stroke-width="1.8" opacity="0.38" clip-path="url(#milk-prior-left)"/>
  <line x1="105" y1="113.04" x2="535" y2="525.35" stroke="#303330" stroke-width="1.8" opacity="0.38" clip-path="url(#milk-prior-left)"/>
  <line x1="105" y1="306.37" x2="535" y2="285.78" stroke="#303330" stroke-width="1.8" opacity="0.38" clip-path="url(#milk-prior-left)"/>
  <line x1="105" y1="80.67" x2="535" y2="405.8" stroke="#303330" stroke-width="1.8" opacity="0.38" clip-path="url(#milk-prior-left)"/>
  <line x1="105" y1="-138.29" x2="535" y2="424.71" stroke="#303330" stroke-width="1.8" opacity="0.38" clip-path="url(#milk-prior-left)"/>
  <line x1="105" y1="323.4" x2="535" y2="73.12" stroke="#303330" stroke-width="1.8" opacity="0.38" clip-path="url(#milk-prior-left)"/>
  <text x="105" y="523" text-anchor="middle" font-family="PingFang SC, Noto Sans CJK SC, Microsoft YaHei, sans-serif" font-size="15" fill="#30332e">-2</text>
  <text x="91" y="500" text-anchor="end" font-family="PingFang SC, Noto Sans CJK SC, Microsoft YaHei, sans-serif" font-size="15" fill="#30332e">-2</text>
  <text x="212.5" y="523" text-anchor="middle" font-family="PingFang SC, Noto Sans CJK SC, Microsoft YaHei, sans-serif" font-size="15" fill="#30332e">-1</text>
  <text x="91" y="402.5" text-anchor="end" font-family="PingFang SC, Noto Sans CJK SC, Microsoft YaHei, sans-serif" font-size="15" fill="#30332e">-1</text>
  <text x="320" y="523" text-anchor="middle" font-family="PingFang SC, Noto Sans CJK SC, Microsoft YaHei, sans-serif" font-size="15" fill="#30332e">0</text>
  <text x="91" y="305" text-anchor="end" font-family="PingFang SC, Noto Sans CJK SC, Microsoft YaHei, sans-serif" font-size="15" fill="#30332e">0</text>
  <text x="427.5" y="523" text-anchor="middle" font-family="PingFang SC, Noto Sans CJK SC, Microsoft YaHei, sans-serif" font-size="15" fill="#30332e">1</text>
  <text x="91" y="207.5" text-anchor="end" font-family="PingFang SC, Noto Sans CJK SC, Microsoft YaHei, sans-serif" font-size="15" fill="#30332e">1</text>
  <text x="535" y="523" text-anchor="middle" font-family="PingFang SC, Noto Sans CJK SC, Microsoft YaHei, sans-serif" font-size="15" fill="#30332e">2</text>
  <text x="91" y="110" text-anchor="end" font-family="PingFang SC, Noto Sans CJK SC, Microsoft YaHei, sans-serif" font-size="15" fill="#30332e">2</text>
  <text x="320.0" y="560" text-anchor="middle" font-family="PingFang SC, Noto Sans CJK SC, Microsoft YaHei, sans-serif" font-size="18" font-weight="700" fill="#263f86">新皮层百分比（标准化）</text>
  <text x="43" y="300.0" transform="rotate(-90 43 300.0)" text-anchor="middle" font-family="PingFang SC, Noto Sans CJK SC, Microsoft YaHei, sans-serif" font-size="18" font-weight="700" fill="#263f86">每克乳汁千卡（标准化）</text>
  <text x="905.0" y="42" text-anchor="middle" font-family="PingFang SC, Noto Sans CJK SC, Microsoft YaHei, sans-serif" font-size="20" font-weight="700" fill="#263f86">a ∼ Normal(0, 0.2)</text>
  <text x="905.0" y="70" text-anchor="middle" font-family="PingFang SC, Noto Sans CJK SC, Microsoft YaHei, sans-serif" font-size="20" font-weight="700" fill="#263f86">bN ∼ Normal(0, 0.5)</text>
  <rect x="690" y="105" width="430" height="390" fill="#fff" stroke="#343732" stroke-width="1.5"/>
  <line x1="690" y1="297.5" x2="1120" y2="287.28" stroke="#303330" stroke-width="1.8" opacity="0.38" clip-path="url(#milk-prior-right)"/>
  <line x1="690" y1="331.77" x2="1120" y2="333.28" stroke="#303330" stroke-width="1.8" opacity="0.38" clip-path="url(#milk-prior-right)"/>
  <line x1="690" y1="169.01" x2="1120" y2="452.47" stroke="#303330" stroke-width="1.8" opacity="0.38" clip-path="url(#milk-prior-right)"/>
  <line x1="690" y1="393.07" x2="1120" y2="202.87" stroke="#303330" stroke-width="1.8" opacity="0.38" clip-path="url(#milk-prior-right)"/>
  <line x1="690" y1="273.92" x2="1120" y2="366.42" stroke="#303330" stroke-width="1.8" opacity="0.38" clip-path="url(#milk-prior-right)"/>
  <line x1="690" y1="281.11" x2="1120" y2="300.73" stroke="#303330" stroke-width="1.8" opacity="0.38" clip-path="url(#milk-prior-right)"/>
  <line x1="690" y1="315.39" x2="1120" y2="337.44" stroke="#303330" stroke-width="1.8" opacity="0.38" clip-path="url(#milk-prior-right)"/>
  <line x1="690" y1="238.74" x2="1120" y2="329.12" stroke="#303330" stroke-width="1.8" opacity="0.38" clip-path="url(#milk-prior-right)"/>
  <line x1="690" y1="77.54" x2="1120" y2="556.12" stroke="#303330" stroke-width="1.8" opacity="0.38" clip-path="url(#milk-prior-right)"/>
  <line x1="690" y1="351.07" x2="1120" y2="220.03" stroke="#303330" stroke-width="1.8" opacity="0.38" clip-path="url(#milk-prior-right)"/>
  <line x1="690" y1="291.86" x2="1120" y2="306.41" stroke="#303330" stroke-width="1.8" opacity="0.38" clip-path="url(#milk-prior-right)"/>
  <line x1="690" y1="233.22" x2="1120" y2="325.44" stroke="#303330" stroke-width="1.8" opacity="0.38" clip-path="url(#milk-prior-right)"/>
  <line x1="690" y1="498.78" x2="1120" y2="140.59" stroke="#303330" stroke-width="1.8" opacity="0.38" clip-path="url(#milk-prior-right)"/>
  <line x1="690" y1="265.98" x2="1120" y2="293.02" stroke="#303330" stroke-width="1.8" opacity="0.38" clip-path="url(#milk-prior-right)"/>
  <line x1="690" y1="524.9" x2="1120" y2="54.41" stroke="#303330" stroke-width="1.8" opacity="0.38" clip-path="url(#milk-prior-right)"/>
  <line x1="690" y1="284.56" x2="1120" y2="260.27" stroke="#303330" stroke-width="1.8" opacity="0.38" clip-path="url(#milk-prior-right)"/>
  <line x1="690" y1="199.64" x2="1120" y2="392.35" stroke="#303330" stroke-width="1.8" opacity="0.38" clip-path="url(#milk-prior-right)"/>
  <line x1="690" y1="454.11" x2="1120" y2="192.94" stroke="#303330" stroke-width="1.8" opacity="0.38" clip-path="url(#milk-prior-right)"/>
  <line x1="690" y1="277.1" x2="1120" y2="310.61" stroke="#303330" stroke-width="1.8" opacity="0.38" clip-path="url(#milk-prior-right)"/>
  <line x1="690" y1="235.1" x2="1120" y2="358.73" stroke="#303330" stroke-width="1.8" opacity="0.38" clip-path="url(#milk-prior-right)"/>
  <line x1="690" y1="216.67" x2="1120" y2="386.72" stroke="#303330" stroke-width="1.8" opacity="0.38" clip-path="url(#milk-prior-right)"/>
  <line x1="690" y1="259.01" x2="1120" y2="385.07" stroke="#303330" stroke-width="1.8" opacity="0.38" clip-path="url(#milk-prior-right)"/>
  <line x1="690" y1="397.77" x2="1120" y2="193.97" stroke="#303330" stroke-width="1.8" opacity="0.38" clip-path="url(#milk-prior-right)"/>
  <line x1="690" y1="429.23" x2="1120" y2="214.42" stroke="#303330" stroke-width="1.8" opacity="0.38" clip-path="url(#milk-prior-right)"/>
  <line x1="690" y1="208.13" x2="1120" y2="417.3" stroke="#303330" stroke-width="1.8" opacity="0.38" clip-path="url(#milk-prior-right)"/>
  <line x1="690" y1="275.27" x2="1120" y2="294.27" stroke="#303330" stroke-width="1.8" opacity="0.38" clip-path="url(#milk-prior-right)"/>
  <line x1="690" y1="457.92" x2="1120" y2="175.34" stroke="#303330" stroke-width="1.8" opacity="0.38" clip-path="url(#milk-prior-right)"/>
  <line x1="690" y1="368.24" x2="1120" y2="211.46" stroke="#303330" stroke-width="1.8" opacity="0.38" clip-path="url(#milk-prior-right)"/>
  <line x1="690" y1="318.97" x2="1120" y2="260.79" stroke="#303330" stroke-width="1.8" opacity="0.38" clip-path="url(#milk-prior-right)"/>
  <line x1="690" y1="354.39" x2="1120" y2="283.04" stroke="#303330" stroke-width="1.8" opacity="0.38" clip-path="url(#milk-prior-right)"/>
  <line x1="690" y1="444.47" x2="1120" y2="167.35" stroke="#303330" stroke-width="1.8" opacity="0.38" clip-path="url(#milk-prior-right)"/>
  <line x1="690" y1="355.47" x2="1120" y2="269.4" stroke="#303330" stroke-width="1.8" opacity="0.38" clip-path="url(#milk-prior-right)"/>
  <line x1="690" y1="499.82" x2="1120" y2="87.54" stroke="#303330" stroke-width="1.8" opacity="0.38" clip-path="url(#milk-prior-right)"/>
  <line x1="690" y1="405.21" x2="1120" y2="194.73" stroke="#303330" stroke-width="1.8" opacity="0.38" clip-path="url(#milk-prior-right)"/>
  <line x1="690" y1="398.1" x2="1120" y2="221.98" stroke="#303330" stroke-width="1.8" opacity="0.38" clip-path="url(#milk-prior-right)"/>
  <line x1="690" y1="303.46" x2="1120" y2="385.86" stroke="#303330" stroke-width="1.8" opacity="0.38" clip-path="url(#milk-prior-right)"/>
  <line x1="690" y1="197.95" x2="1120" y2="370.37" stroke="#303330" stroke-width="1.8" opacity="0.38" clip-path="url(#milk-prior-right)"/>
  <line x1="690" y1="274.26" x2="1120" y2="333.65" stroke="#303330" stroke-width="1.8" opacity="0.38" clip-path="url(#milk-prior-right)"/>
  <line x1="690" y1="153.33" x2="1120" y2="477.8" stroke="#303330" stroke-width="1.8" opacity="0.38" clip-path="url(#milk-prior-right)"/>
  <line x1="690" y1="270.7" x2="1120" y2="345.89" stroke="#303330" stroke-width="1.8" opacity="0.38" clip-path="url(#milk-prior-right)"/>
  <line x1="690" y1="253.13" x2="1120" y2="368.9" stroke="#303330" stroke-width="1.8" opacity="0.38" clip-path="url(#milk-prior-right)"/>
  <line x1="690" y1="383.49" x2="1120" y2="211.66" stroke="#303330" stroke-width="1.8" opacity="0.38" clip-path="url(#milk-prior-right)"/>
  <line x1="690" y1="325.03" x2="1120" y2="267.45" stroke="#303330" stroke-width="1.8" opacity="0.38" clip-path="url(#milk-prior-right)"/>
  <line x1="690" y1="169.33" x2="1120" y2="425.69" stroke="#303330" stroke-width="1.8" opacity="0.38" clip-path="url(#milk-prior-right)"/>
  <line x1="690" y1="276.48" x2="1120" y2="299.69" stroke="#303330" stroke-width="1.8" opacity="0.38" clip-path="url(#milk-prior-right)"/>
  <line x1="690" y1="350.14" x2="1120" y2="234.33" stroke="#303330" stroke-width="1.8" opacity="0.38" clip-path="url(#milk-prior-right)"/>
  <line x1="690" y1="400.92" x2="1120" y2="188.46" stroke="#303330" stroke-width="1.8" opacity="0.38" clip-path="url(#milk-prior-right)"/>
  <line x1="690" y1="150.81" x2="1120" y2="454.23" stroke="#303330" stroke-width="1.8" opacity="0.38" clip-path="url(#milk-prior-right)"/>
  <line x1="690" y1="231.96" x2="1120" y2="331.49" stroke="#303330" stroke-width="1.8" opacity="0.38" clip-path="url(#milk-prior-right)"/>
  <line x1="690" y1="322.22" x2="1120" y2="266.38" stroke="#303330" stroke-width="1.8" opacity="0.38" clip-path="url(#milk-prior-right)"/>
  <text x="690" y="523" text-anchor="middle" font-family="PingFang SC, Noto Sans CJK SC, Microsoft YaHei, sans-serif" font-size="15" fill="#30332e">-2</text>
  <text x="676" y="500" text-anchor="end" font-family="PingFang SC, Noto Sans CJK SC, Microsoft YaHei, sans-serif" font-size="15" fill="#30332e">-2</text>
  <text x="797.5" y="523" text-anchor="middle" font-family="PingFang SC, Noto Sans CJK SC, Microsoft YaHei, sans-serif" font-size="15" fill="#30332e">-1</text>
  <text x="676" y="402.5" text-anchor="end" font-family="PingFang SC, Noto Sans CJK SC, Microsoft YaHei, sans-serif" font-size="15" fill="#30332e">-1</text>
  <text x="905" y="523" text-anchor="middle" font-family="PingFang SC, Noto Sans CJK SC, Microsoft YaHei, sans-serif" font-size="15" fill="#30332e">0</text>
  <text x="676" y="305" text-anchor="end" font-family="PingFang SC, Noto Sans CJK SC, Microsoft YaHei, sans-serif" font-size="15" fill="#30332e">0</text>
  <text x="1012.5" y="523" text-anchor="middle" font-family="PingFang SC, Noto Sans CJK SC, Microsoft YaHei, sans-serif" font-size="15" fill="#30332e">1</text>
  <text x="676" y="207.5" text-anchor="end" font-family="PingFang SC, Noto Sans CJK SC, Microsoft YaHei, sans-serif" font-size="15" fill="#30332e">1</text>
  <text x="1120" y="523" text-anchor="middle" font-family="PingFang SC, Noto Sans CJK SC, Microsoft YaHei, sans-serif" font-size="15" fill="#30332e">2</text>
  <text x="676" y="110" text-anchor="end" font-family="PingFang SC, Noto Sans CJK SC, Microsoft YaHei, sans-serif" font-size="15" fill="#30332e">2</text>
  <text x="905.0" y="560" text-anchor="middle" font-family="PingFang SC, Noto Sans CJK SC, Microsoft YaHei, sans-serif" font-size="18" font-weight="700" fill="#263f86">新皮层百分比（标准化）</text>
  <text x="628" y="300.0" transform="rotate(-90 628 300.0)" text-anchor="middle" font-family="PingFang SC, Noto Sans CJK SC, Microsoft YaHei, sans-serif" font-size="18" font-weight="700" fill="#263f86">每克乳汁千卡（标准化）</text>
</svg>
