<svg xmlns="http://www.w3.org/2000/svg" width="900" height="520" viewBox="0 0 900 520" role="img">
<title>大洋洲工具计数科学模型的后验预测</title>
<desc>高接触与低接触社会的工具数量预测都经过原点，高接触曲线始终位于低接触曲线上方。</desc>
<rect width="100%" height="100%" fill="#fbfaf6"/>
<rect x="105" y="65" width="755" height="370" fill="#fff" stroke="#d9d5c8"/>
<line x1="105.0" y1="435" x2="105.0" y2="442" stroke="#30332e"/>
<text x="105.0" y="463.0" text-anchor="middle" font-family="-apple-system,BlinkMacSystemFont,PingFang SC,Noto Sans CJK SC,sans-serif" font-size="15" font-weight="400" fill="#30332e">0</text>
<line x1="230.8" y1="435" x2="230.8" y2="442" stroke="#30332e"/>
<text x="230.8" y="463.0" text-anchor="middle" font-family="-apple-system,BlinkMacSystemFont,PingFang SC,Noto Sans CJK SC,sans-serif" font-size="15" font-weight="400" fill="#30332e">5万</text>
<line x1="482.5" y1="435" x2="482.5" y2="442" stroke="#30332e"/>
<text x="482.5" y="463.0" text-anchor="middle" font-family="-apple-system,BlinkMacSystemFont,PingFang SC,Noto Sans CJK SC,sans-serif" font-size="15" font-weight="400" fill="#30332e">15万</text>
<line x1="734.2" y1="435" x2="734.2" y2="442" stroke="#30332e"/>
<text x="734.2" y="463.0" text-anchor="middle" font-family="-apple-system,BlinkMacSystemFont,PingFang SC,Noto Sans CJK SC,sans-serif" font-size="15" font-weight="400" fill="#30332e">25万</text>
<line x1="98" y1="435.0" x2="105" y2="435.0" stroke="#30332e"/>
<text x="93.0" y="440.0" text-anchor="end" font-family="-apple-system,BlinkMacSystemFont,PingFang SC,Noto Sans CJK SC,sans-serif" font-size="15" font-weight="400" fill="#30332e">0</text>
<line x1="105" y1="435.0" x2="860" y2="435.0" stroke="#d9d5c8" stroke-dasharray="4 6"/>
<line x1="98" y1="342.5" x2="105" y2="342.5" stroke="#30332e"/>
<text x="93.0" y="347.5" text-anchor="end" font-family="-apple-system,BlinkMacSystemFont,PingFang SC,Noto Sans CJK SC,sans-serif" font-size="15" font-weight="400" fill="#30332e">20</text>
<line x1="105" y1="342.5" x2="860" y2="342.5" stroke="#d9d5c8" stroke-dasharray="4 6"/>
<line x1="98" y1="250.0" x2="105" y2="250.0" stroke="#30332e"/>
<text x="93.0" y="255.0" text-anchor="end" font-family="-apple-system,BlinkMacSystemFont,PingFang SC,Noto Sans CJK SC,sans-serif" font-size="15" font-weight="400" fill="#30332e">40</text>
<line x1="105" y1="250.0" x2="860" y2="250.0" stroke="#d9d5c8" stroke-dasharray="4 6"/>
<line x1="98" y1="157.5" x2="105" y2="157.5" stroke="#30332e"/>
<text x="93.0" y="162.5" text-anchor="end" font-family="-apple-system,BlinkMacSystemFont,PingFang SC,Noto Sans CJK SC,sans-serif" font-size="15" font-weight="400" fill="#30332e">60</text>
<line x1="105" y1="157.5" x2="860" y2="157.5" stroke="#d9d5c8" stroke-dasharray="4 6"/>
<line x1="98" y1="65.0" x2="105" y2="65.0" stroke="#30332e"/>
<text x="93.0" y="70.0" text-anchor="end" font-family="-apple-system,BlinkMacSystemFont,PingFang SC,Noto Sans CJK SC,sans-serif" font-size="15" font-weight="400" fill="#30332e">80</text>
<line x1="105" y1="65.0" x2="860" y2="65.0" stroke="#d9d5c8" stroke-dasharray="4 6"/>
<line x1="105" y1="435" x2="860" y2="435" stroke="#30332e" stroke-width="1.8"/>
<line x1="105" y1="435" x2="105" y2="65" stroke="#30332e" stroke-width="1.8"/>
<text x="482.5" y="498.0" text-anchor="middle" font-family="-apple-system,BlinkMacSystemFont,PingFang SC,Noto Sans CJK SC,sans-serif" font-size="19" font-weight="400" fill="#30332e">人口</text>
<text x="28.0" y="250.0" text-anchor="middle" font-family="-apple-system,BlinkMacSystemFont,PingFang SC,Noto Sans CJK SC,sans-serif" font-size="19" font-weight="400" fill="#30332e" transform="rotate(-90 28 250.0)">工具总数</text>
<polyline points="105.0,435.0 110.1,338.0 115.1,323.6 120.2,314.2 125.3,307.0 130.3,301.2 135.4,296.2 140.5,291.9 145.5,288.0 150.6,284.5 155.7,281.3 160.7,278.3 165.8,275.6 170.9,273.0 175.9,270.6 181.0,268.3 186.1,266.1 191.1,264.1 196.2,262.1 201.3,260.2 206.3,258.4 211.4,256.7 216.5,255.0 221.5,253.4 226.6,251.9 231.7,250.3 236.7,248.9 241.8,247.5 246.9,246.1 251.9,244.8 257.0,243.5 262.1,242.2 267.1,241.0 272.2,239.8 277.3,238.6 282.3,237.5 287.4,236.4 292.5,235.3 297.6,234.2 302.6,233.2 307.7,232.1 312.8,231.1 317.8,230.2 322.9,229.2 328.0,228.2 333.0,227.3 338.1,226.4 343.2,225.5 348.2,224.6 353.3,223.7 358.4,222.9 363.4,222.0 368.5,221.2 373.6,220.4 378.6,219.6 383.7,218.8 388.8,218.0 393.8,217.3 398.9,216.5 404.0,215.8 409.0,215.0 414.1,214.3 419.2,213.6 424.2,212.9 429.3,212.2 434.4,211.5 439.4,210.8 444.5,210.1 449.6,209.4 454.6,208.8 459.7,208.1 464.8,207.5 469.8,206.8 474.9,206.2 480.0,205.6 485.0,205.0 490.1,204.4 495.2,203.8 500.2,203.2 505.3,202.6 510.4,202.0 515.4,201.4 520.5,200.8 525.6,200.3 530.6,199.7 535.7,199.1 540.8,198.6 545.8,198.0 550.9,197.5 556.0,197.0 561.0,196.4 566.1,195.9 571.2,195.4 576.2,194.9 581.3,194.3 586.4,193.8 591.4,193.3 596.5,192.8 601.6,192.3 606.6,191.8 611.7,191.4 616.8,190.9 621.8,190.4 626.9,189.9 632.0,189.4 637.0,189.0 642.1,188.5 647.2,188.0 652.2,187.6 657.3,187.1 662.4,186.7 667.4,186.2 672.5,185.8 677.6,185.3 682.7,184.9 687.7,184.4 692.8,184.0 697.9,183.6 702.9,183.2 708.0,182.7 713.1,182.3 718.1,181.9 723.2,181.5 728.3,181.1 733.3,180.6 738.4,180.2 743.5,179.8 748.5,179.4 753.6,179.0 758.7,178.6 763.7,178.2 768.8,177.8 773.9,177.4 778.9,177.1 784.0,176.7 789.1,176.3 794.1,175.9 799.2,175.5 804.3,175.1 809.3,174.8 814.4,174.4 819.5,174.0 824.5,173.7 829.6,173.3 834.7,172.9 839.7,172.6 844.8,172.2 849.9,171.8 854.9,171.5 860.0,171.1" fill="none" stroke="#30332e" stroke-width="3" stroke-linejoin="round"/>
<polyline points="105.0,435.0 110.1,328.0 115.1,310.3 120.2,298.7 125.3,289.8 130.3,282.5 135.4,276.3 140.5,270.8 145.5,265.9 150.6,261.5 155.7,257.4 160.7,253.6 165.8,250.1 170.9,246.8 175.9,243.7 181.0,240.8 186.1,238.0 191.1,235.4 196.2,232.9 201.3,230.5 206.3,228.1 211.4,225.9 216.5,223.7 221.5,221.7 226.6,219.7 231.7,217.7 236.7,215.8 241.8,214.0 246.9,212.2 251.9,210.5 257.0,208.8 262.1,207.2 267.1,205.6 272.2,204.0 277.3,202.5 282.3,201.0 287.4,199.6 292.5,198.2 297.6,196.8 302.6,195.4 307.7,194.1 312.8,192.7 317.8,191.5 322.9,190.2 328.0,188.9 333.0,187.7 338.1,186.5 343.2,185.4 348.2,184.2 353.3,183.1 358.4,181.9 363.4,180.8 368.5,179.7 373.6,178.7 378.6,177.6 383.7,176.6 388.8,175.5 393.8,174.5 398.9,173.5 404.0,172.5 409.0,171.6 414.1,170.6 419.2,169.7 424.2,168.7 429.3,167.8 434.4,166.9 439.4,166.0 444.5,165.1 449.6,164.2 454.6,163.3 459.7,162.5 464.8,161.6 469.8,160.8 474.9,160.0 480.0,159.1 485.0,158.3 490.1,157.5 495.2,156.7 500.2,155.9 505.3,155.1 510.4,154.4 515.4,153.6 520.5,152.8 525.6,152.1 530.6,151.3 535.7,150.6 540.8,149.9 545.8,149.1 550.9,148.4 556.0,147.7 561.0,147.0 566.1,146.3 571.2,145.6 576.2,144.9 581.3,144.2 586.4,143.5 591.4,142.9 596.5,142.2 601.6,141.5 606.6,140.9 611.7,140.2 616.8,139.6 621.8,139.0 626.9,138.3 632.0,137.7 637.0,137.1 642.1,136.4 647.2,135.8 652.2,135.2 657.3,134.6 662.4,134.0 667.4,133.4 672.5,132.8 677.6,132.2 682.7,131.6 687.7,131.0 692.8,130.5 697.9,129.9 702.9,129.3 708.0,128.7 713.1,128.2 718.1,127.6 723.2,127.1 728.3,126.5 733.3,126.0 738.4,125.4 743.5,124.9 748.5,124.3 753.6,123.8 758.7,123.3 763.7,122.7 768.8,122.2 773.9,121.7 778.9,121.2 784.0,120.6 789.1,120.1 794.1,119.6 799.2,119.1 804.3,118.6 809.3,118.1 814.4,117.6 819.5,117.1 824.5,116.6 829.6,116.1 834.7,115.6 839.7,115.1 844.8,114.6 849.9,114.2 854.9,113.7 860.0,113.2" fill="none" stroke="#6670ee" stroke-width="4" stroke-linejoin="round"/>
<text x="444.8" y="139.0" text-anchor="start" font-family="-apple-system,BlinkMacSystemFont,PingFang SC,Noto Sans CJK SC,sans-serif" font-size="19" font-weight="700" fill="#6670ee">高接触率</text>
<text x="495.1" y="213.0" text-anchor="start" font-family="-apple-system,BlinkMacSystemFont,PingFang SC,Noto Sans CJK SC,sans-serif" font-size="19" font-weight="700" fill="#30332e">低接触率</text>
</svg>
