<svg xmlns="http://www.w3.org/2000/svg" width="1240" height="640" viewBox="0 0 1240 640">
<title>图 14.5：二维收缩</title>
<desc>左图比较截距斜率的原始无汇聚估计与部分汇聚后验均值；右图在晨午等待时间尺度上显示相同收缩。连线展示每家咖啡馆被拉向总体的位置。</desc>
<rect width="1240" height="640" fill="#fff"/>
<rect x="90.0" y="65.0" width="490.0" height="460.0" fill="#fff" stroke="#30332e" stroke-width="1.5"/>
<rect x="720.0" y="65.0" width="490.0" height="460.0" fill="#fff" stroke="#30332e" stroke-width="1.5"/>
<defs>
<clipPath id="left-panel"><rect x="90" y="65" width="490" height="460"/></clipPath>
<clipPath id="right-panel"><rect x="720" y="65" width="490" height="460"/></clipPath>
</defs>
<g clip-path="url(#left-panel)">
<polyline points="346.4,289.0 346.3,288.1 346.3,287.2 346.1,286.2 345.9,285.2 345.6,284.2 345.3,283.2 344.9,282.2 344.5,281.1 344.0,280.0 343.5,278.9 342.9,277.8 342.2,276.6 341.5,275.5 340.8,274.3 340.0,273.1 339.1,271.9 338.2,270.7 337.2,269.5 336.2,268.3 335.2,267.0 334.1,265.8 332.9,264.6 331.8,263.4 330.5,262.1 329.3,260.9 328.0,259.7 326.6,258.5 325.3,257.3 323.9,256.1 322.4,254.9 321.0,253.7 319.5,252.5 318.0,251.4 316.4,250.3 314.9,249.1 313.3,248.0 311.7,247.0 310.1,245.9 308.5,244.9 306.8,243.9 305.2,242.9 303.5,241.9 301.8,241.0 300.2,240.1 298.5,239.2 296.8,238.4 295.2,237.5 293.5,236.8 291.9,236.0 290.2,235.3 288.6,234.6 286.9,234.0 285.3,233.4 283.7,232.8 282.1,232.3 280.6,231.8 279.0,231.4 277.5,230.9 276.0,230.6 274.6,230.2 273.1,230.0 271.7,229.7 270.4,229.5 269.0,229.4 267.7,229.2 266.5,229.2 265.3,229.1 264.1,229.2 262.9,229.2 261.8,229.3 260.8,229.4 259.8,229.6 258.8,229.9 257.9,230.1 257.1,230.4 256.3,230.8 255.5,231.2 254.8,231.6 254.1,232.1 253.5,232.6 253.0,233.1 252.5,233.7 252.1,234.3 251.7,235.0 251.4,235.7 251.1,236.4 250.9,237.2 250.8,238.0 250.7,238.8 250.7,239.7 250.7,240.6 250.8,241.5 250.9,242.5 251.1,243.4 251.4,244.4 251.7,245.5 252.1,246.5 252.5,247.6 253.0,248.7 253.5,249.8 254.1,250.9 254.8,252.1 255.5,253.2 256.3,254.4 257.1,255.6 257.9,256.8 258.8,258.0 259.8,259.2 260.8,260.4 261.8,261.6 262.9,262.8 264.1,264.1 265.3,265.3 266.5,266.5 267.7,267.8 269.0,269.0 270.4,270.2 271.7,271.4 273.1,272.6 274.6,273.8 276.0,275.0 277.5,276.1 279.0,277.3 280.6,278.4 282.1,279.5 283.7,280.6 285.3,281.7 286.9,282.8 288.6,283.8 290.2,284.8 291.9,285.8 293.5,286.8 295.2,287.7 296.8,288.6 298.5,289.5 300.2,290.3 301.8,291.1 303.5,291.9 305.2,292.7 306.8,293.4 308.5,294.0 310.1,294.7 311.7,295.3 313.3,295.8 314.9,296.4 316.4,296.9 318.0,297.3 319.5,297.7 321.0,298.1 322.4,298.4 323.9,298.7 325.3,298.9 326.6,299.1 328.0,299.3 329.3,299.4 330.5,299.5 331.8,299.5 332.9,299.5 334.1,299.5 335.2,299.4 336.2,299.2 337.2,299.0 338.2,298.8 339.1,298.5 340.0,298.2 340.8,297.9 341.5,297.5 342.2,297.1 342.9,296.6 343.5,296.1 344.0,295.5 344.5,294.9 344.9,294.3 345.3,293.7 345.6,293.0 345.9,292.2 346.1,291.5 346.3,290.7 346.3,289.8 346.4,289.0" fill="none" stroke="#b8bbb5" stroke-width="2"/>
<polyline points="386.6,309.7 386.5,308.0 386.4,306.3 386.1,304.6 385.7,302.8 385.2,300.9 384.6,299.1 383.9,297.1 383.2,295.2 382.3,293.2 381.3,291.1 380.2,289.0 379.0,286.9 377.7,284.8 376.3,282.6 374.8,280.5 373.2,278.3 371.5,276.1 369.7,273.8 367.9,271.6 366.0,269.3 363.9,267.1 361.9,264.8 359.7,262.6 357.4,260.3 355.1,258.0 352.7,255.8 350.3,253.6 347.7,251.3 345.2,249.1 342.5,246.9 339.8,244.8 337.1,242.6 334.3,240.5 331.5,238.4 328.6,236.4 325.7,234.4 322.8,232.4 319.8,230.4 316.8,228.5 313.8,226.7 310.8,224.8 307.7,223.1 304.7,221.4 301.6,219.7 298.5,218.1 295.4,216.5 292.4,215.0 289.3,213.6 286.3,212.2 283.2,210.9 280.2,209.7 277.2,208.5 274.2,207.4 271.3,206.3 268.4,205.4 265.5,204.5 262.7,203.7 259.9,202.9 257.2,202.2 254.5,201.6 251.8,201.1 249.3,200.6 246.8,200.3 244.3,200.0 241.9,199.8 239.6,199.6 237.3,199.6 235.2,199.6 233.1,199.7 231.1,199.9 229.1,200.1 227.3,200.5 225.5,200.9 223.8,201.4 222.3,202.0 220.8,202.6 219.4,203.3 218.1,204.1 216.9,205.0 215.8,205.9 214.8,206.9 213.9,208.0 213.1,209.2 212.4,210.4 211.8,211.7 211.3,213.0 210.9,214.4 210.7,215.9 210.5,217.4 210.5,219.0 210.5,220.6 210.7,222.3 210.9,224.1 211.3,225.9 211.8,227.7 212.4,229.6 213.1,231.5 213.9,233.5 214.8,235.5 215.8,237.6 216.9,239.6 218.1,241.7 219.4,243.9 220.8,246.0 222.3,248.2 223.8,250.4 225.5,252.6 227.3,254.8 229.1,257.1 231.1,259.3 233.1,261.6 235.2,263.9 237.3,266.1 239.6,268.4 241.9,270.6 244.3,272.9 246.8,275.1 249.3,277.3 251.8,279.5 254.5,281.7 257.2,283.9 259.9,286.0 262.7,288.1 265.5,290.2 268.4,292.3 271.3,294.3 274.2,296.3 277.2,298.2 280.2,300.1 283.2,302.0 286.3,303.8 289.3,305.6 292.4,307.3 295.4,309.0 298.5,310.6 301.6,312.1 304.7,313.6 307.7,315.1 310.8,316.4 313.8,317.7 316.8,319.0 319.8,320.2 322.8,321.3 325.7,322.3 328.6,323.3 331.5,324.2 334.3,325.0 337.1,325.8 339.8,326.4 342.5,327.0 345.2,327.6 347.7,328.0 350.3,328.4 352.7,328.7 355.1,328.9 357.4,329.0 359.7,329.1 361.9,329.1 363.9,329.0 366.0,328.8 367.9,328.5 369.7,328.2 371.5,327.8 373.2,327.3 374.8,326.7 376.3,326.1 377.7,325.3 379.0,324.6 380.2,323.7 381.3,322.7 382.3,321.7 383.2,320.7 383.9,319.5 384.6,318.3 385.2,317.0 385.7,315.7 386.1,314.2 386.4,312.8 386.5,311.2 386.6,309.7" fill="none" stroke="#b8bbb5" stroke-width="2"/>
<polyline points="421.3,327.5 421.2,325.2 421.0,322.9 420.6,320.4 420.1,317.9 419.4,315.4 418.6,312.7 417.6,310.0 416.5,307.3 415.3,304.5 413.9,301.7 412.3,298.8 410.6,295.8 408.8,292.9 406.9,289.9 404.8,286.8 402.6,283.8 400.3,280.7 397.8,277.6 395.2,274.4 392.5,271.3 389.7,268.2 386.8,265.0 383.8,261.9 380.6,258.7 377.4,255.6 374.1,252.4 370.7,249.3 367.2,246.2 363.6,243.1 359.9,240.1 356.1,237.1 352.3,234.1 348.4,231.1 344.5,228.2 340.5,225.4 336.4,222.6 332.3,219.8 328.2,217.1 324.0,214.4 319.8,211.8 315.6,209.3 311.3,206.8 307.1,204.4 302.8,202.1 298.5,199.9 294.2,197.7 289.9,195.6 285.7,193.6 281.4,191.7 277.2,189.9 273.0,188.1 268.8,186.5 264.7,184.9 260.6,183.5 256.5,182.1 252.5,180.9 248.6,179.7 244.7,178.7 240.9,177.7 237.1,176.9 233.5,176.2 229.9,175.6 226.4,175.0 222.9,174.6 219.6,174.3 216.4,174.1 213.2,174.1 210.2,174.1 207.3,174.2 204.5,174.5 201.8,174.9 199.2,175.3 196.7,175.9 194.4,176.6 192.2,177.4 190.1,178.3 188.2,179.3 186.4,180.4 184.7,181.6 183.2,182.9 181.8,184.3 180.5,185.8 179.4,187.4 178.4,189.1 177.6,190.9 177.0,192.8 176.4,194.8 176.1,196.8 175.8,198.9 175.8,201.1 175.8,203.4 176.1,205.8 176.4,208.2 177.0,210.7 177.6,213.3 178.4,215.9 179.4,218.6 180.5,221.4 181.8,224.2 183.2,227.0 184.7,229.9 186.4,232.8 188.2,235.8 190.1,238.8 192.2,241.8 194.4,244.9 196.7,248.0 199.2,251.1 201.8,254.2 204.5,257.4 207.3,260.5 210.2,263.7 213.2,266.8 216.4,270.0 219.6,273.1 222.9,276.2 226.4,279.3 229.9,282.4 233.5,285.5 237.1,288.6 240.9,291.6 244.7,294.6 248.6,297.5 252.5,300.4 256.5,303.3 260.6,306.1 264.7,308.9 268.8,311.6 273.0,314.3 277.2,316.8 281.4,319.4 285.7,321.8 289.9,324.2 294.2,326.6 298.5,328.8 302.8,331.0 307.1,333.0 311.3,335.0 315.6,337.0 319.8,338.8 324.0,340.5 328.2,342.2 332.3,343.7 336.4,345.2 340.5,346.5 344.5,347.8 348.4,348.9 352.3,350.0 356.1,350.9 359.9,351.8 363.6,352.5 367.2,353.1 370.7,353.6 374.1,354.0 377.4,354.3 380.6,354.5 383.8,354.6 386.8,354.6 389.7,354.4 392.5,354.2 395.2,353.8 397.8,353.3 400.3,352.8 402.6,352.1 404.8,351.3 406.9,350.4 408.8,349.4 410.6,348.3 412.3,347.1 413.9,345.8 415.3,344.3 416.5,342.8 417.6,341.2 418.6,339.5 419.4,337.8 420.1,335.9 420.6,333.9 421.0,331.9 421.2,329.7 421.3,327.5" fill="none" stroke="#b8bbb5" stroke-width="2"/>
<polyline points="485.6,360.6 485.4,357.1 485.1,353.5 484.5,349.8 483.7,346.0 482.7,342.1 481.5,338.1 480.0,334.0 478.3,329.8 476.4,325.6 474.3,321.2 471.9,316.8 469.4,312.3 466.6,307.8 463.7,303.2 460.5,298.6 457.1,293.9 453.6,289.2 449.8,284.5 445.9,279.7 441.8,275.0 437.5,270.2 433.1,265.4 428.4,260.6 423.7,255.8 418.7,251.0 413.7,246.2 408.5,241.5 403.1,236.7 397.6,232.1 392.0,227.4 386.3,222.8 380.5,218.3 374.6,213.8 368.6,209.3 362.5,205.0 356.3,200.7 350.1,196.4 343.8,192.3 337.4,188.3 331.0,184.3 324.5,180.5 318.1,176.7 311.6,173.1 305.0,169.5 298.5,166.1 292.0,162.8 285.5,159.6 279.0,156.6 272.5,153.7 266.0,150.9 259.6,148.2 253.3,145.7 247.0,143.4 240.7,141.2 234.5,139.1 228.4,137.2 222.4,135.4 216.5,133.8 210.7,132.4 205.0,131.1 199.4,130.0 193.9,129.1 188.6,128.3 183.4,127.6 178.3,127.2 173.4,126.9 168.6,126.8 164.0,126.8 159.5,127.1 155.2,127.4 151.1,128.0 147.2,128.7 143.4,129.6 139.9,130.6 136.5,131.8 133.4,133.2 130.4,134.7 127.6,136.4 125.1,138.3 122.7,140.3 120.6,142.4 118.7,144.7 117.0,147.1 115.6,149.7 114.3,152.5 113.3,155.3 112.5,158.3 111.9,161.4 111.6,164.7 111.5,168.0 111.6,171.5 111.9,175.1 112.5,178.8 113.3,182.7 114.3,186.6 115.6,190.6 117.0,194.7 118.7,198.9 120.6,203.1 122.7,207.5 125.1,211.9 127.6,216.3 130.4,220.9 133.4,225.4 136.5,230.1 139.9,234.7 143.4,239.4 147.2,244.2 151.1,248.9 155.2,253.7 159.5,258.5 164.0,263.3 168.6,268.1 173.4,272.9 178.3,277.7 183.4,282.5 188.6,287.2 193.9,291.9 199.4,296.6 205.0,301.3 210.7,305.9 216.5,310.4 222.4,314.9 228.4,319.3 234.5,323.7 240.7,328.0 247.0,332.2 253.3,336.4 259.6,340.4 266.0,344.4 272.5,348.2 279.0,352.0 285.5,355.6 292.0,359.1 298.5,362.6 305.0,365.9 311.6,369.0 318.1,372.1 324.5,375.0 331.0,377.8 337.4,380.4 343.8,382.9 350.1,385.3 356.3,387.5 362.5,389.6 368.6,391.5 374.6,393.2 380.5,394.8 386.3,396.3 392.0,397.5 397.6,398.7 403.1,399.6 408.5,400.4 413.7,401.0 418.7,401.5 423.7,401.8 428.4,401.9 433.1,401.8 437.5,401.6 441.8,401.2 445.9,400.7 449.8,400.0 453.6,399.1 457.1,398.0 460.5,396.8 463.7,395.5 466.6,393.9 469.4,392.2 471.9,390.4 474.3,388.4 476.4,386.3 478.3,384.0 480.0,381.5 481.5,378.9 482.7,376.2 483.7,373.4 484.5,370.4 485.1,367.2 485.4,364.0 485.6,360.6" fill="none" stroke="#b8bbb5" stroke-width="2"/>
<polyline points="614.9,427.2 614.7,421.3 614.1,415.2 613.2,408.9 611.8,402.5 610.1,395.9 608.0,389.1 605.5,382.2 602.7,375.1 599.4,367.9 595.8,360.6 591.9,353.1 587.6,345.5 582.9,337.9 577.9,330.1 572.5,322.3 566.8,314.4 560.8,306.4 554.5,298.4 547.8,290.4 540.9,282.3 533.6,274.2 526.1,266.1 518.3,257.9 510.2,249.8 501.9,241.7 493.3,233.7 484.5,225.6 475.4,217.7 466.2,209.7 456.7,201.9 447.1,194.1 437.2,186.4 427.2,178.8 417.0,171.3 406.7,163.9 396.3,156.6 385.7,149.5 375.1,142.5 364.3,135.7 353.5,129.0 342.5,122.5 331.6,116.1 320.6,109.9 309.6,104.0 298.5,98.2 287.5,92.6 276.4,87.2 265.4,82.1 254.5,77.1 243.6,72.4 232.7,67.9 222.0,63.7 211.3,59.7 200.7,56.0 190.3,52.5 180.0,49.3 169.8,46.3 159.8,43.6 150.0,41.2 140.3,39.0 130.8,37.1 121.6,35.5 112.5,34.2 103.7,33.1 95.1,32.4 86.8,31.9 78.7,31.7 70.9,31.7 63.4,32.1 56.1,32.8 49.2,33.7 42.5,34.9 36.2,36.4 30.2,38.2 24.5,40.2 19.1,42.5 14.1,45.1 9.5,48.0 5.1,51.1 1.2,54.5 -2.4,58.1 -5.6,62.0 -8.5,66.1 -11.0,70.5 -13.1,75.1 -14.8,79.9 -16.2,85.0 -17.1,90.3 -17.7,95.8 -17.9,101.5 -17.7,107.4 -17.1,113.5 -16.2,119.7 -14.8,126.2 -13.1,132.8 -11.0,139.6 -8.5,146.5 -5.6,153.6 -2.4,160.8 1.2,168.1 5.1,175.6 9.5,183.1 14.1,190.8 19.1,198.5 24.5,206.4 30.2,214.3 36.2,222.2 42.5,230.2 49.2,238.3 56.1,246.4 63.4,254.5 70.9,262.6 78.7,270.7 86.8,278.8 95.1,286.9 103.7,295.0 112.5,303.0 121.6,311.0 130.8,318.9 140.3,326.8 150.0,334.6 159.8,342.3 169.8,349.9 180.0,357.4 190.3,364.8 200.7,372.0 211.3,379.2 222.0,386.2 232.7,393.0 243.6,399.7 254.5,406.2 265.4,412.6 276.4,418.7 287.5,424.7 298.5,430.5 309.6,436.1 320.6,441.5 331.6,446.6 342.5,451.5 353.5,456.3 364.3,460.7 375.1,465.0 385.7,469.0 396.3,472.7 406.7,476.2 417.0,479.4 427.2,482.4 437.2,485.1 447.1,487.5 456.7,489.7 466.2,491.6 475.4,493.2 484.5,494.5 493.3,495.5 501.9,496.3 510.2,496.8 518.3,497.0 526.1,496.9 533.6,496.6 540.9,495.9 547.8,495.0 554.5,493.8 560.8,492.3 566.8,490.5 572.5,488.5 577.9,486.1 582.9,483.6 587.6,480.7 591.9,477.6 595.8,474.2 599.4,470.6 602.7,466.7 605.5,462.6 608.0,458.2 610.1,453.6 611.8,448.7 613.2,443.7 614.1,438.4 614.7,432.9 614.9,427.2" fill="none" stroke="#b8bbb5" stroke-width="2"/>
</g>
<g clip-path="url(#right-panel)">
<polyline points="976.4,328.0 976.3,327.4 976.3,326.9 976.1,326.3 975.9,325.9 975.6,325.4 975.3,325.0 974.9,324.7 974.5,324.4 974.0,324.1 973.5,323.9 972.9,323.7 972.2,323.6 971.5,323.5 970.8,323.4 970.0,323.4 969.1,323.5 968.2,323.6 967.2,323.7 966.2,323.9 965.2,324.1 964.1,324.4 962.9,324.7 961.8,325.1 960.5,325.5 959.3,326.0 958.0,326.4 956.6,327.0 955.3,327.6 953.9,328.2 952.4,328.8 951.0,329.5 949.5,330.3 948.0,331.0 946.4,331.8 944.9,332.7 943.3,333.5 941.7,334.4 940.1,335.4 938.5,336.4 936.8,337.4 935.2,338.4 933.5,339.4 931.8,340.5 930.2,341.6 928.5,342.8 926.8,343.9 925.2,345.1 923.5,346.3 921.9,347.5 920.2,348.7 918.6,349.9 916.9,351.2 915.3,352.5 913.7,353.7 912.1,355.0 910.6,356.3 909.0,357.6 907.5,358.9 906.0,360.2 904.6,361.5 903.1,362.8 901.7,364.1 900.4,365.4 899.0,366.7 897.7,368.0 896.5,369.2 895.3,370.5 894.1,371.8 892.9,373.0 891.8,374.2 890.8,375.4 889.8,376.6 888.8,377.8 887.9,378.9 887.1,380.0 886.3,381.1 885.5,382.2 884.8,383.3 884.1,384.3 883.5,385.3 883.0,386.2 882.5,387.2 882.1,388.1 881.7,388.9 881.4,389.8 881.1,390.6 880.9,391.3 880.8,392.1 880.7,392.7 880.7,393.4 880.7,394.0 880.8,394.6 880.9,395.1 881.1,395.6 881.4,396.0 881.7,396.4 882.1,396.8 882.5,397.1 883.0,397.3 883.5,397.6 884.1,397.7 884.8,397.9 885.5,398.0 886.3,398.0 887.1,398.0 887.9,397.9 888.8,397.8 889.8,397.7 890.8,397.5 891.8,397.3 892.9,397.0 894.1,396.7 895.3,396.3 896.5,395.9 897.7,395.5 899.0,395.0 900.4,394.4 901.7,393.9 903.1,393.3 904.6,392.6 906.0,391.9 907.5,391.2 909.0,390.4 910.6,389.6 912.1,388.8 913.7,387.9 915.3,387.0 916.9,386.0 918.6,385.1 920.2,384.1 921.9,383.0 923.5,382.0 925.2,380.9 926.8,379.8 928.5,378.7 930.2,377.5 931.8,376.3 933.5,375.2 935.2,373.9 936.8,372.7 938.5,371.5 940.1,370.2 941.7,369.0 943.3,367.7 944.9,366.4 946.4,365.1 948.0,363.8 949.5,362.5 951.0,361.2 952.4,359.9 953.9,358.6 955.3,357.3 956.6,356.0 958.0,354.7 959.3,353.5 960.5,352.2 961.8,350.9 962.9,349.7 964.1,348.4 965.2,347.2 966.2,346.0 967.2,344.8 968.2,343.7 969.1,342.5 970.0,341.4 970.8,340.3 971.5,339.2 972.2,338.2 972.9,337.1 973.5,336.1 974.0,335.2 974.5,334.2 974.9,333.3 975.3,332.5 975.6,331.6 975.9,330.9 976.1,330.1 976.3,329.4 976.3,328.7 976.4,328.0" fill="none" stroke="#b8bbb5" stroke-width="2"/>
<polyline points="1016.6,300.6 1016.5,299.5 1016.4,298.4 1016.1,297.5 1015.7,296.6 1015.2,295.8 1014.6,295.0 1013.9,294.4 1013.2,293.8 1012.3,293.3 1011.3,292.9 1010.2,292.6 1009.0,292.4 1007.7,292.2 1006.3,292.1 1004.8,292.1 1003.2,292.2 1001.5,292.4 999.7,292.7 997.9,293.0 996.0,293.4 993.9,293.9 991.9,294.5 989.7,295.2 987.4,295.9 985.1,296.8 982.7,297.7 980.3,298.7 977.7,299.7 975.2,300.8 972.5,302.0 969.8,303.3 967.1,304.7 964.3,306.1 961.5,307.6 958.6,309.1 955.7,310.7 952.8,312.4 949.8,314.1 946.8,315.9 943.8,317.7 940.8,319.6 937.7,321.6 934.7,323.6 931.6,325.6 928.5,327.7 925.4,329.8 922.4,332.0 919.3,334.1 916.3,336.4 913.2,338.6 910.2,340.9 907.2,343.2 904.2,345.5 901.3,347.9 898.4,350.2 895.5,352.6 892.7,355.0 889.9,357.4 887.2,359.8 884.5,362.2 881.8,364.6 879.3,367.0 876.8,369.3 874.3,371.7 871.9,374.1 869.6,376.4 867.3,378.7 865.2,381.0 863.1,383.3 861.1,385.5 859.1,387.8 857.3,389.9 855.5,392.1 853.8,394.2 852.3,396.3 850.8,398.3 849.4,400.3 848.1,402.2 846.9,404.1 845.8,405.9 844.8,407.7 843.9,409.4 843.1,411.1 842.4,412.7 841.8,414.2 841.3,415.7 840.9,417.1 840.7,418.4 840.5,419.7 840.5,420.8 840.5,422.0 840.7,423.0 840.9,424.0 841.3,424.9 841.8,425.7 842.4,426.4 843.1,427.0 843.9,427.6 844.8,428.1 845.8,428.5 846.9,428.8 848.1,429.1 849.4,429.2 850.8,429.3 852.3,429.3 853.8,429.2 855.5,429.0 857.3,428.8 859.1,428.4 861.1,428.0 863.1,427.5 865.2,426.9 867.3,426.2 869.6,425.5 871.9,424.7 874.3,423.8 876.8,422.8 879.3,421.7 881.8,420.6 884.5,419.4 887.2,418.1 889.9,416.8 892.7,415.3 895.5,413.9 898.4,412.3 901.3,410.7 904.2,409.0 907.2,407.3 910.2,405.5 913.2,403.7 916.3,401.8 919.3,399.8 922.4,397.9 925.4,395.8 928.5,393.7 931.6,391.6 934.7,389.5 937.7,387.3 940.8,385.1 943.8,382.8 946.8,380.5 949.8,378.2 952.8,375.9 955.7,373.5 958.6,371.2 961.5,368.8 964.3,366.4 967.1,364.0 969.8,361.7 972.5,359.3 975.2,356.9 977.7,354.5 980.3,352.1 982.7,349.7 985.1,347.4 987.4,345.0 989.7,342.7 991.9,340.4 993.9,338.1 996.0,335.9 997.9,333.7 999.7,331.5 1001.5,329.3 1003.2,327.2 1004.8,325.2 1006.3,323.1 1007.7,321.2 1009.0,319.2 1010.2,317.3 1011.3,315.5 1012.3,313.7 1013.2,312.0 1013.9,310.4 1014.6,308.8 1015.2,307.2 1015.7,305.8 1016.1,304.4 1016.4,303.0 1016.5,301.8 1016.6,300.6" fill="none" stroke="#b8bbb5" stroke-width="2"/>
<polyline points="1051.3,276.9 1051.2,275.3 1051.0,273.9 1050.6,272.5 1050.1,271.3 1049.4,270.2 1048.6,269.2 1047.6,268.2 1046.5,267.4 1045.3,266.8 1043.9,266.2 1042.3,265.7 1040.6,265.4 1038.8,265.2 1036.9,265.1 1034.8,265.1 1032.6,265.2 1030.3,265.5 1027.8,265.8 1025.2,266.3 1022.5,266.9 1019.7,267.6 1016.8,268.4 1013.8,269.4 1010.6,270.4 1007.4,271.6 1004.1,272.8 1000.7,274.2 997.2,275.7 993.6,277.2 989.9,278.9 986.1,280.7 982.3,282.6 978.4,284.6 974.5,286.6 970.5,288.8 966.4,291.0 962.3,293.3 958.2,295.8 954.0,298.2 949.8,300.8 945.6,303.5 941.3,306.2 937.1,308.9 932.8,311.8 928.5,314.7 924.2,317.6 919.9,320.6 915.7,323.7 911.4,326.8 907.2,329.9 903.0,333.1 898.8,336.3 894.7,339.6 890.6,342.8 886.5,346.1 882.5,349.4 878.6,352.7 874.7,356.1 870.9,359.4 867.1,362.7 863.5,366.1 859.9,369.4 856.4,372.7 852.9,376.0 849.6,379.3 846.4,382.6 843.2,385.8 840.2,389.0 837.3,392.2 834.5,395.3 831.8,398.4 829.2,401.5 826.7,404.5 824.4,407.4 822.2,410.3 820.1,413.1 818.2,415.9 816.4,418.6 814.7,421.2 813.2,423.7 811.8,426.2 810.5,428.6 809.4,430.9 808.4,433.1 807.6,435.3 807.0,437.3 806.4,439.3 806.1,441.1 805.8,442.9 805.8,444.5 805.8,446.1 806.1,447.5 806.4,448.9 807.0,450.1 807.6,451.3 808.4,452.3 809.4,453.2 810.5,454.0 811.8,454.7 813.2,455.2 814.7,455.7 816.4,456.0 818.2,456.2 820.1,456.3 822.2,456.3 824.4,456.2 826.7,456.0 829.2,455.6 831.8,455.1 834.5,454.5 837.3,453.8 840.2,453.0 843.2,452.1 846.4,451.0 849.6,449.9 852.9,448.6 856.4,447.2 859.9,445.8 863.5,444.2 867.1,442.5 870.9,440.7 874.7,438.8 878.6,436.9 882.5,434.8 886.5,432.7 890.6,430.4 894.7,428.1 898.8,425.7 903.0,423.2 907.2,420.6 911.4,418.0 915.7,415.3 919.9,412.5 924.2,409.7 928.5,406.8 932.8,403.8 937.1,400.8 941.3,397.7 945.6,394.6 949.8,391.5 954.0,388.3 958.2,385.1 962.3,381.9 966.4,378.6 970.5,375.3 974.5,372.0 978.4,368.7 982.3,365.4 986.1,362.0 989.9,358.7 993.6,355.3 997.2,352.0 1000.7,348.7 1004.1,345.4 1007.4,342.1 1010.6,338.8 1013.8,335.6 1016.8,332.4 1019.7,329.2 1022.5,326.1 1025.2,323.0 1027.8,320.0 1030.3,317.0 1032.6,314.0 1034.8,311.1 1036.9,308.3 1038.8,305.6 1040.6,302.9 1042.3,300.2 1043.9,297.7 1045.3,295.2 1046.5,292.8 1047.6,290.5 1048.6,288.3 1049.4,286.2 1050.1,284.1 1050.6,282.2 1051.0,280.3 1051.2,278.6 1051.3,276.9" fill="none" stroke="#b8bbb5" stroke-width="2"/>
<polyline points="1115.6,233.0 1115.4,230.6 1115.1,228.4 1114.5,226.4 1113.7,224.5 1112.7,222.7 1111.5,221.2 1110.0,219.8 1108.3,218.6 1106.4,217.6 1104.3,216.7 1101.9,216.0 1099.4,215.5 1096.6,215.2 1093.7,215.0 1090.5,215.0 1087.1,215.2 1083.6,215.6 1079.8,216.1 1075.9,216.9 1071.8,217.8 1067.5,218.8 1063.1,220.1 1058.4,221.5 1053.7,223.1 1048.7,224.9 1043.7,226.8 1038.5,228.9 1033.1,231.1 1027.6,233.5 1022.0,236.1 1016.3,238.8 1010.5,241.7 1004.6,244.7 998.6,247.8 992.5,251.1 986.3,254.5 980.1,258.1 973.8,261.7 967.4,265.5 961.0,269.4 954.5,273.5 948.1,277.6 941.6,281.8 935.0,286.1 928.5,290.6 922.0,295.1 915.5,299.6 909.0,304.3 902.5,309.0 896.0,313.8 889.6,318.6 883.3,323.5 877.0,328.5 870.7,333.5 864.5,338.5 858.4,343.5 852.4,348.6 846.5,353.6 840.7,358.7 835.0,363.8 829.4,368.9 823.9,374.0 818.6,379.0 813.4,384.1 808.3,389.1 803.4,394.0 798.6,399.0 794.0,403.9 789.5,408.7 785.2,413.5 781.1,418.2 777.2,422.8 773.4,427.4 769.9,431.8 766.5,436.2 763.4,440.5 760.4,444.8 757.6,448.9 755.1,452.9 752.7,456.7 750.6,460.5 748.7,464.2 747.0,467.7 745.6,471.1 744.3,474.3 743.3,477.4 742.5,480.4 741.9,483.2 741.6,485.9 741.5,488.4 741.6,490.8 741.9,493.0 742.5,495.1 743.3,497.0 744.3,498.7 745.6,500.2 747.0,501.6 748.7,502.8 750.6,503.9 752.7,504.7 755.1,505.4 757.6,505.9 760.4,506.3 763.4,506.4 766.5,506.4 769.9,506.2 773.4,505.8 777.2,505.3 781.1,504.6 785.2,503.7 789.5,502.6 794.0,501.3 798.6,499.9 803.4,498.3 808.3,496.6 813.4,494.6 818.6,492.6 823.9,490.3 829.4,487.9 835.0,485.3 840.7,482.6 846.5,479.8 852.4,476.8 858.4,473.6 864.5,470.3 870.7,466.9 877.0,463.4 883.3,459.7 889.6,455.9 896.0,452.0 902.5,448.0 909.0,443.8 915.5,439.6 922.0,435.3 928.5,430.9 935.0,426.4 941.6,421.8 948.1,417.1 954.5,412.4 961.0,407.6 967.4,402.8 973.8,397.9 980.1,393.0 986.3,388.0 992.5,383.0 998.6,377.9 1004.6,372.9 1010.5,367.8 1016.3,362.7 1022.0,357.6 1027.6,352.5 1033.1,347.5 1038.5,342.4 1043.7,337.4 1048.7,332.4 1053.7,327.4 1058.4,322.5 1063.1,317.6 1067.5,312.7 1071.8,308.0 1075.9,303.3 1079.8,298.6 1083.6,294.1 1087.1,289.6 1090.5,285.2 1093.7,280.9 1096.6,276.7 1099.4,272.6 1101.9,268.6 1104.3,264.7 1106.4,260.9 1108.3,257.3 1110.0,253.8 1111.5,250.4 1112.7,247.1 1113.7,244.0 1114.5,241.0 1115.1,238.2 1115.4,235.5 1115.6,233.0" fill="none" stroke="#b8bbb5" stroke-width="2"/>
<polyline points="1244.9,144.7 1244.7,140.7 1244.1,136.9 1243.2,133.4 1241.8,130.2 1240.1,127.3 1238.0,124.7 1235.5,122.4 1232.7,120.3 1229.4,118.6 1225.8,117.1 1221.9,115.9 1217.6,115.1 1212.9,114.5 1207.9,114.2 1202.5,114.3 1196.8,114.6 1190.8,115.2 1184.5,116.2 1177.8,117.4 1170.9,118.9 1163.6,120.7 1156.1,122.9 1148.3,125.3 1140.2,127.9 1131.9,130.9 1123.3,134.2 1114.5,137.7 1105.4,141.5 1096.2,145.6 1086.7,149.9 1077.1,154.5 1067.2,159.3 1057.2,164.4 1047.0,169.7 1036.7,175.3 1026.3,181.1 1015.7,187.1 1005.1,193.3 994.3,199.7 983.5,206.3 972.5,213.1 961.6,220.1 950.6,227.2 939.6,234.6 928.5,242.0 917.5,249.6 906.4,257.4 895.4,265.3 884.5,273.3 873.6,281.3 862.7,289.5 852.0,297.8 841.3,306.2 830.7,314.6 820.3,323.1 810.0,331.6 799.8,340.2 789.8,348.8 780.0,357.4 770.3,366.0 760.8,374.6 751.6,383.1 742.5,391.7 733.7,400.2 725.1,408.7 716.8,417.1 708.7,425.4 700.9,433.7 693.4,441.9 686.1,449.9 679.2,457.9 672.5,465.7 666.2,473.5 660.2,481.0 654.5,488.5 649.1,495.8 644.1,502.9 639.5,509.8 635.1,516.6 631.2,523.1 627.6,529.5 624.4,535.7 621.5,541.6 619.0,547.4 616.9,552.9 615.2,558.1 613.8,563.2 612.9,568.0 612.3,572.5 612.1,576.8 612.3,580.8 612.9,584.5 613.8,588.0 615.2,591.2 616.9,594.1 619.0,596.7 621.5,599.1 624.4,601.1 627.6,602.9 631.2,604.3 635.1,605.5 639.5,606.4 644.1,606.9 649.1,607.2 654.5,607.2 660.2,606.8 666.2,606.2 672.5,605.3 679.2,604.0 686.1,602.5 693.4,600.7 700.9,598.6 708.7,596.2 716.8,593.5 725.1,590.5 733.7,587.3 742.5,583.7 751.6,579.9 760.8,575.9 770.3,571.5 780.0,566.9 789.8,562.1 799.8,557.0 810.0,551.7 820.3,546.1 830.7,540.4 841.3,534.4 852.0,528.1 862.7,521.7 873.6,515.1 884.5,508.3 895.4,501.3 906.4,494.2 917.5,486.9 928.5,479.4 939.6,471.8 950.6,464.0 961.6,456.2 972.5,448.2 983.5,440.1 994.3,431.9 1005.1,423.6 1015.7,415.3 1026.3,406.8 1036.7,398.3 1047.0,389.8 1057.2,381.3 1067.2,372.7 1077.1,364.1 1086.7,355.5 1096.2,346.9 1105.4,338.3 1114.5,329.7 1123.3,321.2 1131.9,312.8 1140.2,304.3 1148.3,296.0 1156.1,287.7 1163.6,279.6 1170.9,271.5 1177.8,263.5 1184.5,255.7 1190.8,248.0 1196.8,240.4 1202.5,233.0 1207.9,225.7 1212.9,218.6 1217.6,211.6 1221.9,204.9 1225.8,198.3 1229.4,191.9 1232.7,185.7 1235.5,179.8 1238.0,174.1 1240.1,168.6 1241.8,163.3 1243.2,158.3 1244.1,153.5 1244.7,148.9 1244.9,144.7" fill="none" stroke="#b8bbb5" stroke-width="2"/>
</g>
<line x1="374.2" y1="284.9" x2="372.9" y2="288.5" stroke="#30332e" stroke-width="1.6"/>
<circle cx="374.2" cy="284.9" r="5.5" fill="#6670ee"/>
<circle cx="372.9" cy="288.5" r="6" fill="#fff" stroke="#30332e" stroke-width="2"/>
<line x1="1004.2" y1="295.9" x2="1002.9" y2="299.8" stroke="#30332e" stroke-width="1.6"/>
<circle cx="1004.2" cy="295.9" r="5.5" fill="#6670ee"/>
<circle cx="1002.9" cy="299.8" r="6" fill="#fff" stroke="#30332e" stroke-width="2"/>
<line x1="153.5" y1="249.6" x2="153.3" y2="232.5" stroke="#30332e" stroke-width="1.6"/>
<circle cx="153.5" cy="249.6" r="5.5" fill="#6670ee"/>
<circle cx="153.3" cy="232.5" r="6" fill="#fff" stroke="#30332e" stroke-width="2"/>
<line x1="783.5" y1="502.5" x2="783.3" y2="490.5" stroke="#30332e" stroke-width="1.6"/>
<circle cx="783.5" cy="502.5" r="5.5" fill="#6670ee"/>
<circle cx="783.3" cy="490.5" r="6" fill="#fff" stroke="#30332e" stroke-width="2"/>
<line x1="402.1" y1="444.1" x2="384.3" y2="387.0" stroke="#30332e" stroke-width="1.6"/>
<circle cx="402.1" cy="444.1" r="5.5" fill="#6670ee"/>
<circle cx="384.3" cy="387.0" r="6" fill="#fff" stroke="#30332e" stroke-width="2"/>
<line x1="1032.1" y1="380.3" x2="1014.3" y2="358.3" stroke="#30332e" stroke-width="1.6"/>
<circle cx="1032.1" cy="380.3" r="5.5" fill="#6670ee"/>
<circle cx="1014.3" cy="358.3" r="6" fill="#fff" stroke="#30332e" stroke-width="2"/>
<line x1="272.7" y1="308.5" x2="267.7" y2="286.3" stroke="#30332e" stroke-width="1.6"/>
<circle cx="272.7" cy="308.5" r="5.5" fill="#6670ee"/>
<circle cx="267.7" cy="286.3" r="6" fill="#fff" stroke="#30332e" stroke-width="2"/>
<line x1="902.7" y1="419.3" x2="897.7" y2="408.8" stroke="#30332e" stroke-width="1.6"/>
<circle cx="902.7" cy="419.3" r="5.5" fill="#6670ee"/>
<circle cx="897.7" cy="408.8" r="6" fill="#fff" stroke="#30332e" stroke-width="2"/>
<line x1="112.9" y1="94.1" x2="128.8" y2="134.3" stroke="#30332e" stroke-width="1.6"/>
<circle cx="112.9" cy="94.1" r="5.5" fill="#6670ee"/>
<circle cx="128.8" cy="134.3" r="6" fill="#fff" stroke="#30332e" stroke-width="2"/>
<line x1="742.9" y1="434.1" x2="758.8" y2="446.1" stroke="#30332e" stroke-width="1.6"/>
<circle cx="742.9" cy="434.1" r="5.5" fill="#6670ee"/>
<circle cx="758.8" cy="446.1" r="6" fill="#fff" stroke="#30332e" stroke-width="2"/>
<line x1="381.2" y1="314.7" x2="376.8" y2="307.2" stroke="#30332e" stroke-width="1.6"/>
<circle cx="381.2" cy="314.7" r="5.5" fill="#6670ee"/>
<circle cx="376.8" cy="307.2" r="6" fill="#fff" stroke="#30332e" stroke-width="2"/>
<line x1="1011.2" y1="309.8" x2="1006.8" y2="309.1" stroke="#30332e" stroke-width="1.6"/>
<circle cx="1011.2" cy="309.8" r="5.5" fill="#6670ee"/>
<circle cx="1006.8" cy="309.1" r="6" fill="#fff" stroke="#30332e" stroke-width="2"/>
<line x1="308.7" y1="262.0" x2="309.1" y2="264.6" stroke="#30332e" stroke-width="1.6"/>
<circle cx="308.7" cy="262.0" r="5.5" fill="#6670ee"/>
<circle cx="309.1" cy="264.6" r="6" fill="#fff" stroke="#30332e" stroke-width="2"/>
<line x1="938.7" y1="348.3" x2="939.1" y2="349.8" stroke="#30332e" stroke-width="1.6"/>
<circle cx="938.7" cy="348.3" r="5.5" fill="#6670ee"/>
<circle cx="939.1" cy="349.8" r="6" fill="#fff" stroke="#30332e" stroke-width="2"/>
<line x1="352.5" y1="384.4" x2="340.4" y2="343.8" stroke="#30332e" stroke-width="1.6"/>
<circle cx="352.5" cy="384.4" r="5.5" fill="#6670ee"/>
<circle cx="340.4" cy="343.8" r="6" fill="#fff" stroke="#30332e" stroke-width="2"/>
<line x1="982.5" y1="389.7" x2="970.4" y2="373.5" stroke="#30332e" stroke-width="1.6"/>
<circle cx="982.5" cy="389.7" r="5.5" fill="#6670ee"/>
<circle cx="970.4" cy="373.5" r="6" fill="#fff" stroke="#30332e" stroke-width="2"/>
<line x1="351.7" y1="318.2" x2="346.6" y2="304.6" stroke="#30332e" stroke-width="1.6"/>
<circle cx="351.7" cy="318.2" r="5.5" fill="#6670ee"/>
<circle cx="346.6" cy="304.6" r="6" fill="#fff" stroke="#30332e" stroke-width="2"/>
<line x1="981.7" y1="343.3" x2="976.6" y2="338.9" stroke="#30332e" stroke-width="1.6"/>
<circle cx="981.7" cy="343.3" r="5.5" fill="#6670ee"/>
<circle cx="976.6" cy="338.9" r="6" fill="#fff" stroke="#30332e" stroke-width="2"/>
<line x1="301.9" y1="247.6" x2="303.7" y2="255.0" stroke="#30332e" stroke-width="1.6"/>
<circle cx="301.9" cy="247.6" r="5.5" fill="#6670ee"/>
<circle cx="303.7" cy="255.0" r="6" fill="#fff" stroke="#30332e" stroke-width="2"/>
<line x1="931.9" y1="345.2" x2="933.7" y2="348.6" stroke="#30332e" stroke-width="1.6"/>
<circle cx="931.9" cy="345.2" r="5.5" fill="#6670ee"/>
<circle cx="933.7" cy="348.6" r="6" fill="#fff" stroke="#30332e" stroke-width="2"/>
<line x1="122.9" y1="154.5" x2="132.5" y2="171.5" stroke="#30332e" stroke-width="1.6"/>
<circle cx="122.9" cy="154.5" r="5.5" fill="#6670ee"/>
<circle cx="132.5" cy="171.5" r="6" fill="#fff" stroke="#30332e" stroke-width="2"/>
<line x1="752.9" y1="466.8" x2="762.5" y2="468.8" stroke="#30332e" stroke-width="1.6"/>
<circle cx="752.9" cy="466.8" r="5.5" fill="#6670ee"/>
<circle cx="762.5" cy="468.8" r="6" fill="#fff" stroke="#30332e" stroke-width="2"/>
<line x1="335.0" y1="293.7" x2="332.3" y2="287.5" stroke="#30332e" stroke-width="1.6"/>
<circle cx="335.0" cy="293.7" r="5.5" fill="#6670ee"/>
<circle cx="332.3" cy="287.5" r="6" fill="#fff" stroke="#30332e" stroke-width="2"/>
<line x1="965.0" y1="343.4" x2="962.3" y2="341.8" stroke="#30332e" stroke-width="1.6"/>
<circle cx="965.0" cy="343.4" r="5.5" fill="#6670ee"/>
<circle cx="962.3" cy="341.8" r="6" fill="#fff" stroke="#30332e" stroke-width="2"/>
<line x1="348.7" y1="422.4" x2="332.4" y2="365.7" stroke="#30332e" stroke-width="1.6"/>
<circle cx="348.7" cy="422.4" r="5.5" fill="#6670ee"/>
<circle cx="332.4" cy="365.7" r="6" fill="#fff" stroke="#30332e" stroke-width="2"/>
<line x1="978.7" y1="421.0" x2="962.4" y2="397.5" stroke="#30332e" stroke-width="1.6"/>
<circle cx="978.7" cy="421.0" r="5.5" fill="#6670ee"/>
<circle cx="962.4" cy="397.5" r="6" fill="#fff" stroke="#30332e" stroke-width="2"/>
<line x1="261.3" y1="249.2" x2="262.4" y2="249.4" stroke="#30332e" stroke-width="1.6"/>
<circle cx="261.3" cy="249.2" r="5.5" fill="#6670ee"/>
<circle cx="262.4" cy="249.4" r="6" fill="#fff" stroke="#30332e" stroke-width="2"/>
<line x1="891.3" y1="389.0" x2="892.4" y2="388.0" stroke="#30332e" stroke-width="1.6"/>
<circle cx="891.3" cy="389.0" r="5.5" fill="#6670ee"/>
<circle cx="892.4" cy="388.0" r="6" fill="#fff" stroke="#30332e" stroke-width="2"/>
<line x1="413.9" y1="495.7" x2="390.6" y2="419.3" stroke="#30332e" stroke-width="1.6"/>
<circle cx="413.9" cy="495.7" r="5.5" fill="#6670ee"/>
<circle cx="390.6" cy="419.3" r="6" fill="#fff" stroke="#30332e" stroke-width="2"/>
<line x1="1043.9" y1="404.8" x2="1020.6" y2="374.6" stroke="#30332e" stroke-width="1.6"/>
<circle cx="1043.9" cy="404.8" r="5.5" fill="#6670ee"/>
<circle cx="1020.6" cy="374.6" r="6" fill="#fff" stroke="#30332e" stroke-width="2"/>
<line x1="285.3" y1="268.3" x2="284.7" y2="264.6" stroke="#30332e" stroke-width="1.6"/>
<circle cx="285.3" cy="268.3" r="5.5" fill="#6670ee"/>
<circle cx="284.7" cy="264.6" r="6" fill="#fff" stroke="#30332e" stroke-width="2"/>
<line x1="915.3" y1="377.4" x2="914.7" y2="375.3" stroke="#30332e" stroke-width="1.6"/>
<circle cx="915.3" cy="377.4" r="5.5" fill="#6670ee"/>
<circle cx="914.7" cy="375.3" r="6" fill="#fff" stroke="#30332e" stroke-width="2"/>
<line x1="375.3" y1="298.4" x2="372.6" y2="296.7" stroke="#30332e" stroke-width="1.6"/>
<circle cx="375.3" cy="298.4" r="5.5" fill="#6670ee"/>
<circle cx="372.6" cy="296.7" r="6" fill="#fff" stroke="#30332e" stroke-width="2"/>
<line x1="1005.3" y1="304.4" x2="1002.6" y2="306.0" stroke="#30332e" stroke-width="1.6"/>
<circle cx="1005.3" cy="304.4" r="5.5" fill="#6670ee"/>
<circle cx="1002.6" cy="306.0" r="6" fill="#fff" stroke="#30332e" stroke-width="2"/>
<line x1="533.7" y1="245.4" x2="538.6" y2="290.7" stroke="#30332e" stroke-width="1.6"/>
<circle cx="533.7" cy="245.4" r="5.5" fill="#6670ee"/>
<circle cx="538.6" cy="290.7" r="6" fill="#fff" stroke="#30332e" stroke-width="2"/>
<line x1="1163.7" y1="100.1" x2="1168.6" y2="127.3" stroke="#30332e" stroke-width="1.6"/>
<circle cx="1163.7" cy="100.1" r="5.5" fill="#6670ee"/>
<circle cx="1168.6" cy="127.3" r="6" fill="#fff" stroke="#30332e" stroke-width="2"/>
<line x1="259.0" y1="108.8" x2="275.1" y2="166.2" stroke="#30332e" stroke-width="1.6"/>
<circle cx="259.0" cy="108.8" r="5.5" fill="#6670ee"/>
<circle cx="275.1" cy="166.2" r="6" fill="#fff" stroke="#30332e" stroke-width="2"/>
<line x1="889.0" y1="291.1" x2="905.1" y2="315.2" stroke="#30332e" stroke-width="1.6"/>
<circle cx="889.0" cy="291.1" r="5.5" fill="#6670ee"/>
<circle cx="905.1" cy="315.2" r="6" fill="#fff" stroke="#30332e" stroke-width="2"/>
<line x1="322.3" y1="270.2" x2="322.0" y2="271.6" stroke="#30332e" stroke-width="1.6"/>
<circle cx="322.3" cy="270.2" r="5.5" fill="#6670ee"/>
<circle cx="322.0" cy="271.6" r="6" fill="#fff" stroke="#30332e" stroke-width="2"/>
<line x1="952.3" y1="339.9" x2="952.0" y2="341.2" stroke="#30332e" stroke-width="1.6"/>
<circle cx="952.3" cy="339.9" r="5.5" fill="#6670ee"/>
<circle cx="952.0" cy="341.2" r="6" fill="#fff" stroke="#30332e" stroke-width="2"/>
<line x1="720.0" y1="470.2" x2="1105.7" y2="65.0" stroke="#30332e" stroke-width="2" stroke-dasharray="10 8"/>
<line x1="142.1" y1="525.0" x2="142.1" y2="532.0" stroke="#30332e"/>
<text x="142.1" y="553.0" text-anchor="middle" font-family="-apple-system,BlinkMacSystemFont,PingFang SC,Noto Sans CJK SC,sans-serif" font-size="17" font-weight="400" fill="#30332e">2</text>
<line x1="246.4" y1="525.0" x2="246.4" y2="532.0" stroke="#30332e"/>
<text x="246.4" y="553.0" text-anchor="middle" font-family="-apple-system,BlinkMacSystemFont,PingFang SC,Noto Sans CJK SC,sans-serif" font-size="17" font-weight="400" fill="#30332e">3</text>
<line x1="350.6" y1="525.0" x2="350.6" y2="532.0" stroke="#30332e"/>
<text x="350.6" y="553.0" text-anchor="middle" font-family="-apple-system,BlinkMacSystemFont,PingFang SC,Noto Sans CJK SC,sans-serif" font-size="17" font-weight="400" fill="#30332e">4</text>
<line x1="454.9" y1="525.0" x2="454.9" y2="532.0" stroke="#30332e"/>
<text x="454.9" y="553.0" text-anchor="middle" font-family="-apple-system,BlinkMacSystemFont,PingFang SC,Noto Sans CJK SC,sans-serif" font-size="17" font-weight="400" fill="#30332e">5</text>
<line x1="559.1" y1="525.0" x2="559.1" y2="532.0" stroke="#30332e"/>
<text x="559.1" y="553.0" text-anchor="middle" font-family="-apple-system,BlinkMacSystemFont,PingFang SC,Noto Sans CJK SC,sans-serif" font-size="17" font-weight="400" fill="#30332e">6</text>
<line x1="83.0" y1="494.3" x2="90.0" y2="494.3" stroke="#30332e"/>
<text x="75.0" y="500.3" text-anchor="end" font-family="-apple-system,BlinkMacSystemFont,PingFang SC,Noto Sans CJK SC,sans-serif" font-size="17" font-weight="400" fill="#30332e">-2.5</text>
<line x1="83.0" y1="417.7" x2="90.0" y2="417.7" stroke="#30332e"/>
<text x="75.0" y="423.7" text-anchor="end" font-family="-apple-system,BlinkMacSystemFont,PingFang SC,Noto Sans CJK SC,sans-serif" font-size="17" font-weight="400" fill="#30332e">-2</text>
<line x1="83.0" y1="341.0" x2="90.0" y2="341.0" stroke="#30332e"/>
<text x="75.0" y="347.0" text-anchor="end" font-family="-apple-system,BlinkMacSystemFont,PingFang SC,Noto Sans CJK SC,sans-serif" font-size="17" font-weight="400" fill="#30332e">-1.5</text>
<line x1="83.0" y1="264.3" x2="90.0" y2="264.3" stroke="#30332e"/>
<text x="75.0" y="270.3" text-anchor="end" font-family="-apple-system,BlinkMacSystemFont,PingFang SC,Noto Sans CJK SC,sans-serif" font-size="17" font-weight="400" fill="#30332e">-1</text>
<line x1="83.0" y1="187.7" x2="90.0" y2="187.7" stroke="#30332e"/>
<text x="75.0" y="193.7" text-anchor="end" font-family="-apple-system,BlinkMacSystemFont,PingFang SC,Noto Sans CJK SC,sans-serif" font-size="17" font-weight="400" fill="#30332e">-0.5</text>
<line x1="83.0" y1="111.0" x2="90.0" y2="111.0" stroke="#30332e"/>
<text x="75.0" y="117.0" text-anchor="end" font-family="-apple-system,BlinkMacSystemFont,PingFang SC,Noto Sans CJK SC,sans-serif" font-size="17" font-weight="400" fill="#30332e">0</text>
<line x1="772.1" y1="525.0" x2="772.1" y2="532.0" stroke="#30332e"/>
<text x="772.1" y="553.0" text-anchor="middle" font-family="-apple-system,BlinkMacSystemFont,PingFang SC,Noto Sans CJK SC,sans-serif" font-size="17" font-weight="400" fill="#30332e">2</text>
<line x1="876.4" y1="525.0" x2="876.4" y2="532.0" stroke="#30332e"/>
<text x="876.4" y="553.0" text-anchor="middle" font-family="-apple-system,BlinkMacSystemFont,PingFang SC,Noto Sans CJK SC,sans-serif" font-size="17" font-weight="400" fill="#30332e">3</text>
<line x1="980.6" y1="525.0" x2="980.6" y2="532.0" stroke="#30332e"/>
<text x="980.6" y="553.0" text-anchor="middle" font-family="-apple-system,BlinkMacSystemFont,PingFang SC,Noto Sans CJK SC,sans-serif" font-size="17" font-weight="400" fill="#30332e">4</text>
<line x1="1084.9" y1="525.0" x2="1084.9" y2="532.0" stroke="#30332e"/>
<text x="1084.9" y="553.0" text-anchor="middle" font-family="-apple-system,BlinkMacSystemFont,PingFang SC,Noto Sans CJK SC,sans-serif" font-size="17" font-weight="400" fill="#30332e">5</text>
<line x1="1189.1" y1="525.0" x2="1189.1" y2="532.0" stroke="#30332e"/>
<text x="1189.1" y="553.0" text-anchor="middle" font-family="-apple-system,BlinkMacSystemFont,PingFang SC,Noto Sans CJK SC,sans-serif" font-size="17" font-weight="400" fill="#30332e">6</text>
<line x1="713.0" y1="525.0" x2="720.0" y2="525.0" stroke="#30332e"/>
<text x="705.0" y="531.0" text-anchor="end" font-family="-apple-system,BlinkMacSystemFont,PingFang SC,Noto Sans CJK SC,sans-serif" font-size="17" font-weight="400" fill="#30332e">1</text>
<line x1="713.0" y1="415.5" x2="720.0" y2="415.5" stroke="#30332e"/>
<text x="705.0" y="421.5" text-anchor="end" font-family="-apple-system,BlinkMacSystemFont,PingFang SC,Noto Sans CJK SC,sans-serif" font-size="17" font-weight="400" fill="#30332e">2</text>
<line x1="713.0" y1="306.0" x2="720.0" y2="306.0" stroke="#30332e"/>
<text x="705.0" y="312.0" text-anchor="end" font-family="-apple-system,BlinkMacSystemFont,PingFang SC,Noto Sans CJK SC,sans-serif" font-size="17" font-weight="400" fill="#30332e">3</text>
<line x1="713.0" y1="196.4" x2="720.0" y2="196.4" stroke="#30332e"/>
<text x="705.0" y="202.4" text-anchor="end" font-family="-apple-system,BlinkMacSystemFont,PingFang SC,Noto Sans CJK SC,sans-serif" font-size="17" font-weight="400" fill="#30332e">4</text>
<line x1="713.0" y1="86.9" x2="720.0" y2="86.9" stroke="#30332e"/>
<text x="705.0" y="92.9" text-anchor="end" font-family="-apple-system,BlinkMacSystemFont,PingFang SC,Noto Sans CJK SC,sans-serif" font-size="17" font-weight="400" fill="#30332e">5</text>
<text x="335.0" y="600.0" text-anchor="middle" font-family="-apple-system,BlinkMacSystemFont,PingFang SC,Noto Sans CJK SC,sans-serif" font-size="21" font-weight="600" fill="#30332e">截距</text>
<text x="35.0" y="295.0" text-anchor="middle" font-family="-apple-system,BlinkMacSystemFont,PingFang SC,Noto Sans CJK SC,sans-serif" font-size="21" font-weight="600" fill="#30332e" transform="rotate(-90 35 295)">斜率</text>
<text x="965.0" y="600.0" text-anchor="middle" font-family="-apple-system,BlinkMacSystemFont,PingFang SC,Noto Sans CJK SC,sans-serif" font-size="21" font-weight="600" fill="#30332e">上午等待时间</text>
<text x="665.0" y="295.0" text-anchor="middle" font-family="-apple-system,BlinkMacSystemFont,PingFang SC,Noto Sans CJK SC,sans-serif" font-size="21" font-weight="600" fill="#30332e" transform="rotate(-90 665 295)">下午等待时间</text>
</svg>