<?xml version="1.0" encoding="UTF-8"?>
<svg xmlns="http://www.w3.org/2000/svg" width="1200" height="790" viewBox="0 0 1200 790" role="img">
  <title>两类后验区间</title>
  <desc>四个面板展示边界已知的后验区间和概率质量已知的后验区间。</desc>
  <rect width="100%" height="100%" fill="#ffffff"/>
  <g aria-label="低于 p = 0.5">
    <text x="315" y="37" text-anchor="middle" font-family="-apple-system,BlinkMacSystemFont,PingFang SC,Noto Sans CJK SC,sans-serif" font-size="19" font-weight="700" fill="#263f86">低于 p = 0.5</text>
    <rect x="100" y="55" width="430" height="245" fill="#fff" stroke="#363934" stroke-width="1.3"/>
    <path d="M100 300 L100 300 L101.08 300 L102.15 300 L103.22 300 L104.3 300 L105.38 300 L106.45 300 L107.53 300 L108.6 300 L109.67 300 L110.75 300 L111.83 300 L112.9 300 L113.97 300 L115.05 300 L116.12 300 L117.2 300 L118.28 300 L119.35 300 L120.42 300 L121.5 300 L122.58 300 L123.65 300 L124.72 300 L125.8 300 L126.88 300 L127.95 300 L129.03 299.99 L130.1 299.99 L131.18 299.99 L132.25 299.99 L133.32 299.99 L134.4 299.99 L135.47 299.98 L136.55 299.98 L137.62 299.98 L138.7 299.97 L139.78 299.97 L140.85 299.96 L141.93 299.96 L143 299.95 L144.07 299.94 L145.15 299.93 L146.22 299.92 L147.3 299.91 L148.38 299.9 L149.45 299.89 L150.53 299.88 L151.6 299.86 L152.68 299.84 L153.75 299.82 L154.82 299.8 L155.9 299.78 L156.97 299.76 L158.05 299.73 L159.12 299.7 L160.2 299.67 L161.27 299.64 L162.35 299.6 L163.43 299.56 L164.5 299.52 L165.57 299.47 L166.65 299.43 L167.72 299.37 L168.8 299.32 L169.88 299.26 L170.95 299.19 L172.03 299.13 L173.1 299.05 L174.18 298.98 L175.25 298.89 L176.32 298.81 L177.4 298.71 L178.47 298.62 L179.55 298.51 L180.62 298.4 L181.7 298.28 L182.78 298.16 L183.85 298.03 L184.93 297.9 L186 297.75 L187.07 297.6 L188.15 297.44 L189.22 297.27 L190.3 297.1 L191.38 296.92 L192.45 296.72 L193.53 296.52 L194.6 296.31 L195.68 296.09 L196.75 295.86 L197.82 295.62 L198.9 295.36 L199.98 295.1 L201.05 294.83 L202.12 294.54 L203.2 294.25 L204.27 293.94 L205.35 293.61 L206.43 293.28 L207.5 292.93 L208.57 292.57 L209.65 292.2 L210.73 291.81 L211.8 291.41 L212.88 291 L213.95 290.57 L215.03 290.12 L216.1 289.66 L217.18 289.19 L218.25 288.69 L219.33 288.19 L220.4 287.66 L221.47 287.12 L222.55 286.56 L223.62 285.99 L224.7 285.4 L225.77 284.79 L226.85 284.16 L227.93 283.51 L229 282.85 L230.07 282.16 L231.15 281.46 L232.22 280.74 L233.3 280 L234.38 279.24 L235.45 278.46 L236.53 277.66 L237.6 276.84 L238.68 276 L239.75 275.14 L240.83 274.26 L241.9 273.35 L242.97 272.43 L244.05 271.49 L245.12 270.52 L246.2 269.53 L247.28 268.52 L248.35 267.49 L249.42 266.44 L250.5 265.37 L251.57 264.27 L252.65 263.16 L253.72 262.02 L254.8 260.85 L255.88 259.67 L256.95 258.47 L258.02 257.24 L259.1 255.99 L260.18 254.72 L261.25 253.43 L262.32 252.11 L263.4 250.77 L264.48 249.41 L265.55 248.03 L266.62 246.63 L267.7 245.21 L268.77 243.77 L269.85 242.3 L270.93 240.81 L272 239.31 L273.08 237.78 L274.15 236.23 L275.23 234.66 L276.3 233.08 L277.38 231.47 L278.45 229.84 L279.52 228.2 L280.6 226.53 L281.67 224.85 L282.75 223.15 L283.82 221.43 L284.9 219.69 L285.98 217.94 L287.05 216.17 L288.12 214.38 L289.2 212.58 L290.27 210.76 L291.35 208.93 L292.43 207.09 L293.5 205.23 L294.58 203.35 L295.65 201.47 L296.73 199.57 L297.8 197.66 L298.88 195.74 L299.95 193.81 L301.02 191.86 L302.1 189.91 L303.17 187.95 L304.25 185.98 L305.32 184.01 L306.4 182.03 L307.48 180.04 L308.55 178.05 L309.62 176.05 L310.7 174.05 L311.77 172.04 L312.85 170.03 L313.93 168.03 L315 166.02 L315 300 Z" fill="#6670ee" opacity="0.82"/>
    <path d="M100 300 L101.08 300 L102.15 300 L103.22 300 L104.3 300 L105.38 300 L106.45 300 L107.53 300 L108.6 300 L109.67 300 L110.75 300 L111.83 300 L112.9 300 L113.97 300 L115.05 300 L116.12 300 L117.2 300 L118.28 300 L119.35 300 L120.42 300 L121.5 300 L122.58 300 L123.65 300 L124.72 300 L125.8 300 L126.88 300 L127.95 300 L129.03 299.99 L130.1 299.99 L131.18 299.99 L132.25 299.99 L133.32 299.99 L134.4 299.99 L135.47 299.98 L136.55 299.98 L137.62 299.98 L138.7 299.97 L139.78 299.97 L140.85 299.96 L141.93 299.96 L143 299.95 L144.07 299.94 L145.15 299.93 L146.22 299.92 L147.3 299.91 L148.38 299.9 L149.45 299.89 L150.53 299.88 L151.6 299.86 L152.68 299.84 L153.75 299.82 L154.82 299.8 L155.9 299.78 L156.97 299.76 L158.05 299.73 L159.12 299.7 L160.2 299.67 L161.28 299.64 L162.35 299.6 L163.43 299.56 L164.5 299.52 L165.57 299.47 L166.65 299.43 L167.72 299.37 L168.8 299.32 L169.88 299.26 L170.95 299.19 L172.03 299.13 L173.1 299.05 L174.18 298.98 L175.25 298.89 L176.32 298.81 L177.4 298.71 L178.47 298.62 L179.55 298.51 L180.62 298.4 L181.7 298.28 L182.78 298.16 L183.85 298.03 L184.93 297.9 L186 297.75 L187.07 297.6 L188.15 297.44 L189.22 297.27 L190.3 297.1 L191.38 296.92 L192.45 296.72 L193.53 296.52 L194.6 296.31 L195.68 296.09 L196.75 295.86 L197.82 295.62 L198.9 295.36 L199.97 295.1 L201.05 294.83 L202.12 294.54 L203.2 294.25 L204.28 293.94 L205.35 293.61 L206.43 293.28 L207.5 292.93 L208.57 292.57 L209.65 292.2 L210.72 291.81 L211.8 291.41 L212.88 291 L213.95 290.57 L215.03 290.12 L216.1 289.66 L217.18 289.19 L218.25 288.69 L219.32 288.19 L220.4 287.66 L221.47 287.12 L222.55 286.56 L223.62 285.99 L224.7 285.4 L225.78 284.79 L226.85 284.16 L227.93 283.51 L229 282.85 L230.07 282.16 L231.15 281.46 L232.22 280.74 L233.3 280 L234.38 279.24 L235.45 278.46 L236.53 277.66 L237.6 276.84 L238.68 276 L239.75 275.14 L240.82 274.26 L241.9 273.35 L242.97 272.43 L244.05 271.49 L245.12 270.52 L246.2 269.53 L247.28 268.52 L248.35 267.49 L249.43 266.44 L250.5 265.37 L251.57 264.27 L252.65 263.16 L253.72 262.02 L254.8 260.85 L255.88 259.67 L256.95 258.47 L258.02 257.24 L259.1 255.99 L260.18 254.72 L261.25 253.43 L262.32 252.11 L263.4 250.77 L264.48 249.41 L265.55 248.03 L266.62 246.63 L267.7 245.21 L268.77 243.77 L269.85 242.3 L270.93 240.81 L272 239.31 L273.07 237.78 L274.15 236.23 L275.23 234.66 L276.3 233.08 L277.38 231.47 L278.45 229.84 L279.52 228.2 L280.6 226.53 L281.68 224.85 L282.75 223.15 L283.82 221.43 L284.9 219.69 L285.98 217.94 L287.05 216.17 L288.12 214.38 L289.2 212.58 L290.27 210.76 L291.35 208.93 L292.43 207.09 L293.5 205.23 L294.57 203.35 L295.65 201.47 L296.73 199.57 L297.8 197.66 L298.88 195.74 L299.95 193.81 L301.02 191.86 L302.1 189.91 L303.18 187.95 L304.25 185.98 L305.32 184.01 L306.4 182.03 L307.48 180.04 L308.55 178.05 L309.62 176.05 L310.7 174.05 L311.77 172.04 L312.85 170.03 L313.93 168.03 L315 166.02 L316.07 164.01 L317.15 162 L318.23 159.99 L319.3 157.99 L320.38 155.98 L321.45 153.99 L322.52 151.99 L323.6 150.01 L324.68 148.03 L325.75 146.06 L326.82 144.09 L327.9 142.14 L328.98 140.2 L330.05 138.26 L331.12 136.34 L332.2 134.44 L333.27 132.55 L334.35 130.67 L335.43 128.81 L336.5 126.96 L337.57 125.14 L338.65 123.33 L339.73 121.54 L340.8 119.78 L341.88 118.03 L342.95 116.31 L344.02 114.61 L345.1 112.94 L346.18 111.29 L347.25 109.67 L348.32 108.08 L349.4 106.52 L350.48 104.98 L351.55 103.48 L352.62 102.01 L353.7 100.57 L354.77 99.17 L355.85 97.8 L356.93 96.46 L358 95.16 L359.07 93.9 L360.15 92.68 L361.23 91.49 L362.3 90.35 L363.38 89.25 L364.45 88.18 L365.52 87.17 L366.6 86.19 L367.68 85.26 L368.75 84.38 L369.82 83.54 L370.9 82.74 L371.98 82 L373.05 81.3 L374.12 80.65 L375.2 80.06 L376.27 79.51 L377.35 79.01 L378.43 78.57 L379.5 78.18 L380.57 77.84 L381.65 77.55 L382.73 77.32 L383.8 77.14 L384.88 77.02 L385.95 76.96 L387.02 76.95 L388.1 76.99 L389.18 77.1 L390.25 77.26 L391.32 77.48 L392.4 77.76 L393.48 78.09 L394.55 78.49 L395.62 78.94 L396.7 79.45 L397.77 80.02 L398.85 80.65 L399.93 81.34 L401 82.09 L402.07 82.9 L403.15 83.77 L404.23 84.69 L405.3 85.68 L406.38 86.72 L407.45 87.82 L408.52 88.99 L409.6 90.21 L410.68 91.48 L411.75 92.82 L412.82 94.21 L413.9 95.66 L414.98 97.17 L416.05 98.73 L417.12 100.34 L418.2 102.01 L419.27 103.74 L420.35 105.52 L421.43 107.35 L422.5 109.23 L423.57 111.16 L424.65 113.15 L425.73 115.18 L426.8 117.26 L427.88 119.38 L428.95 121.56 L430.02 123.78 L431.1 126.04 L432.18 128.34 L433.25 130.69 L434.32 133.08 L435.4 135.5 L436.48 137.97 L437.55 140.46 L438.62 143 L439.7 145.57 L440.77 148.16 L441.85 150.79 L442.93 153.45 L444 156.14 L445.07 158.85 L446.15 161.58 L447.23 164.33 L448.3 167.11 L449.38 169.9 L450.45 172.71 L451.52 175.54 L452.6 178.37 L453.68 181.22 L454.75 184.08 L455.82 186.94 L456.9 189.81 L457.98 192.68 L459.05 195.55 L460.12 198.42 L461.2 201.29 L462.27 204.15 L463.35 207.01 L464.43 209.85 L465.5 212.68 L466.57 215.5 L467.65 218.3 L468.73 221.08 L469.8 223.84 L470.88 226.58 L471.95 229.3 L473.02 231.99 L474.1 234.65 L475.18 237.27 L476.25 239.87 L477.32 242.43 L478.4 244.95 L479.48 247.43 L480.55 249.87 L481.62 252.27 L482.7 254.62 L483.77 256.93 L484.85 259.18 L485.93 261.39 L487 263.54 L488.07 265.64 L489.15 267.69 L490.23 269.67 L491.3 271.6 L492.38 273.47 L493.45 275.28 L494.52 277.02 L495.6 278.7 L496.68 280.32 L497.75 281.87 L498.82 283.36 L499.9 284.78 L500.98 286.13 L502.05 287.41 L503.12 288.63 L504.2 289.78 L505.27 290.86 L506.35 291.87 L507.43 292.82 L508.5 293.7 L509.57 294.51 L510.65 295.26 L511.73 295.94 L512.8 296.56 L513.88 297.12 L514.95 297.62 L516.02 298.07 L517.1 298.46 L518.17 298.79 L519.25 299.08 L520.33 299.32 L521.4 299.51 L522.48 299.67 L523.55 299.79 L524.62 299.88 L525.7 299.94 L526.77 299.97 L527.85 299.99 L528.92 300 L530 300" fill="none" stroke="#292b27" stroke-width="2"/>
    <line x1="100" y1="300" x2="100" y2="307" stroke="#363934"/>
    <text x="100" y="326" text-anchor="middle" font-family="-apple-system,BlinkMacSystemFont,PingFang SC,Noto Sans CJK SC,sans-serif" font-size="13" fill="#30332e">0</text>
    <line x1="207.5" y1="300" x2="207.5" y2="307" stroke="#363934"/>
    <text x="207.5" y="326" text-anchor="middle" font-family="-apple-system,BlinkMacSystemFont,PingFang SC,Noto Sans CJK SC,sans-serif" font-size="13" fill="#30332e">0.25</text>
    <line x1="315" y1="300" x2="315" y2="307" stroke="#363934"/>
    <text x="315" y="326" text-anchor="middle" font-family="-apple-system,BlinkMacSystemFont,PingFang SC,Noto Sans CJK SC,sans-serif" font-size="13" fill="#30332e">0.5</text>
    <line x1="422.5" y1="300" x2="422.5" y2="307" stroke="#363934"/>
    <text x="422.5" y="326" text-anchor="middle" font-family="-apple-system,BlinkMacSystemFont,PingFang SC,Noto Sans CJK SC,sans-serif" font-size="13" fill="#30332e">0.75</text>
    <line x1="530" y1="300" x2="530" y2="307" stroke="#363934"/>
    <text x="530" y="326" text-anchor="middle" font-family="-apple-system,BlinkMacSystemFont,PingFang SC,Noto Sans CJK SC,sans-serif" font-size="13" fill="#30332e">1</text>
    <text x="315" y="352" text-anchor="middle" font-family="-apple-system,BlinkMacSystemFont,PingFang SC,Noto Sans CJK SC,sans-serif" font-size="16" fill="#30332e">水域比例（p）</text>
    <text x="57" y="177.5" transform="rotate(-90 57 177.5)" text-anchor="middle" font-family="-apple-system,BlinkMacSystemFont,PingFang SC,Noto Sans CJK SC,sans-serif" font-size="16" fill="#30332e">概率密度</text>
  </g>
  <g aria-label="p = 0.5 至 0.75">
    <text x="905" y="37" text-anchor="middle" font-family="-apple-system,BlinkMacSystemFont,PingFang SC,Noto Sans CJK SC,sans-serif" font-size="19" font-weight="700" fill="#263f86">p = 0.5 至 0.75</text>
    <rect x="690" y="55" width="430" height="245" fill="#fff" stroke="#363934" stroke-width="1.3"/>
    <path d="M905 300 L905 166.02 L906.08 164.01 L907.15 162 L908.22 159.99 L909.3 157.99 L910.38 155.98 L911.45 153.99 L912.52 151.99 L913.6 150.01 L914.67 148.03 L915.75 146.06 L916.83 144.09 L917.9 142.14 L918.98 140.2 L920.05 138.26 L921.12 136.34 L922.2 134.44 L923.27 132.55 L924.35 130.67 L925.42 128.81 L926.5 126.96 L927.58 125.14 L928.65 123.33 L929.73 121.54 L930.8 119.78 L931.88 118.03 L932.95 116.31 L934.02 114.61 L935.1 112.94 L936.17 111.29 L937.25 109.67 L938.33 108.08 L939.4 106.52 L940.48 104.98 L941.55 103.48 L942.62 102.01 L943.7 100.57 L944.77 99.17 L945.85 97.8 L946.92 96.46 L948 95.16 L949.08 93.9 L950.15 92.68 L951.23 91.49 L952.3 90.35 L953.38 89.25 L954.45 88.18 L955.53 87.17 L956.6 86.19 L957.67 85.26 L958.75 84.38 L959.83 83.54 L960.9 82.74 L961.97 82 L963.05 81.3 L964.12 80.65 L965.2 80.06 L966.27 79.51 L967.35 79.01 L968.42 78.57 L969.5 78.18 L970.58 77.84 L971.65 77.55 L972.72 77.32 L973.8 77.14 L974.88 77.02 L975.95 76.96 L977.02 76.95 L978.1 76.99 L979.17 77.1 L980.25 77.26 L981.33 77.48 L982.4 77.76 L983.48 78.09 L984.55 78.49 L985.62 78.94 L986.7 79.45 L987.77 80.02 L988.85 80.65 L989.92 81.34 L991 82.09 L992.08 82.9 L993.15 83.77 L994.23 84.69 L995.3 85.68 L996.38 86.72 L997.45 87.82 L998.53 88.99 L999.6 90.21 L1000.67 91.48 L1001.75 92.82 L1002.83 94.21 L1003.9 95.66 L1004.98 97.17 L1006.05 98.73 L1007.12 100.34 L1008.2 102.01 L1009.28 103.74 L1010.35 105.52 L1011.42 107.35 L1012.5 109.23 L1012.5 300 Z" fill="#6670ee" opacity="0.82"/>
    <path d="M690 300 L691.08 300 L692.15 300 L693.23 300 L694.3 300 L695.38 300 L696.45 300 L697.52 300 L698.6 300 L699.67 300 L700.75 300 L701.83 300 L702.9 300 L703.98 300 L705.05 300 L706.12 300 L707.2 300 L708.27 300 L709.35 300 L710.42 300 L711.5 300 L712.58 300 L713.65 300 L714.73 300 L715.8 300 L716.88 300 L717.95 300 L719.02 299.99 L720.1 299.99 L721.17 299.99 L722.25 299.99 L723.33 299.99 L724.4 299.99 L725.48 299.98 L726.55 299.98 L727.62 299.98 L728.7 299.97 L729.77 299.97 L730.85 299.96 L731.92 299.96 L733 299.95 L734.08 299.94 L735.15 299.93 L736.23 299.92 L737.3 299.91 L738.38 299.9 L739.45 299.89 L740.52 299.88 L741.6 299.86 L742.67 299.84 L743.75 299.82 L744.83 299.8 L745.9 299.78 L746.98 299.76 L748.05 299.73 L749.12 299.7 L750.2 299.67 L751.27 299.64 L752.35 299.6 L753.42 299.56 L754.5 299.52 L755.58 299.47 L756.65 299.43 L757.73 299.37 L758.8 299.32 L759.88 299.26 L760.95 299.19 L762.02 299.13 L763.1 299.05 L764.17 298.98 L765.25 298.89 L766.33 298.81 L767.4 298.71 L768.48 298.62 L769.55 298.51 L770.62 298.4 L771.7 298.28 L772.77 298.16 L773.85 298.03 L774.92 297.9 L776 297.75 L777.08 297.6 L778.15 297.44 L779.23 297.27 L780.3 297.1 L781.38 296.92 L782.45 296.72 L783.52 296.52 L784.6 296.31 L785.67 296.09 L786.75 295.86 L787.83 295.62 L788.9 295.36 L789.98 295.1 L791.05 294.83 L792.12 294.54 L793.2 294.25 L794.27 293.94 L795.35 293.61 L796.42 293.28 L797.5 292.93 L798.58 292.57 L799.65 292.2 L800.73 291.81 L801.8 291.41 L802.88 291 L803.95 290.57 L805.02 290.12 L806.1 289.66 L807.17 289.19 L808.25 288.69 L809.33 288.19 L810.4 287.66 L811.48 287.12 L812.55 286.56 L813.62 285.99 L814.7 285.4 L815.77 284.79 L816.85 284.16 L817.92 283.51 L819 282.85 L820.08 282.16 L821.15 281.46 L822.23 280.74 L823.3 280 L824.38 279.24 L825.45 278.46 L826.52 277.66 L827.6 276.84 L828.67 276 L829.75 275.14 L830.83 274.26 L831.9 273.35 L832.98 272.43 L834.05 271.49 L835.12 270.52 L836.2 269.53 L837.27 268.52 L838.35 267.49 L839.42 266.44 L840.5 265.37 L841.58 264.27 L842.65 263.16 L843.73 262.02 L844.8 260.85 L845.88 259.67 L846.95 258.47 L848.02 257.24 L849.1 255.99 L850.17 254.72 L851.25 253.43 L852.33 252.11 L853.4 250.77 L854.48 249.41 L855.55 248.03 L856.62 246.63 L857.7 245.21 L858.77 243.77 L859.85 242.3 L860.92 240.81 L862 239.31 L863.08 237.78 L864.15 236.23 L865.23 234.66 L866.3 233.08 L867.38 231.47 L868.45 229.84 L869.52 228.2 L870.6 226.53 L871.67 224.85 L872.75 223.15 L873.83 221.43 L874.9 219.69 L875.98 217.94 L877.05 216.17 L878.12 214.38 L879.2 212.58 L880.27 210.76 L881.35 208.93 L882.42 207.09 L883.5 205.23 L884.58 203.35 L885.65 201.47 L886.73 199.57 L887.8 197.66 L888.88 195.74 L889.95 193.81 L891.02 191.86 L892.1 189.91 L893.17 187.95 L894.25 185.98 L895.33 184.01 L896.4 182.03 L897.48 180.04 L898.55 178.05 L899.62 176.05 L900.7 174.05 L901.77 172.04 L902.85 170.03 L903.92 168.03 L905 166.02 L906.08 164.01 L907.15 162 L908.23 159.99 L909.3 157.99 L910.38 155.98 L911.45 153.99 L912.52 151.99 L913.6 150.01 L914.67 148.03 L915.75 146.06 L916.83 144.09 L917.9 142.14 L918.98 140.2 L920.05 138.26 L921.12 136.34 L922.2 134.44 L923.27 132.55 L924.35 130.67 L925.42 128.81 L926.5 126.96 L927.58 125.14 L928.65 123.33 L929.73 121.54 L930.8 119.78 L931.88 118.03 L932.95 116.31 L934.02 114.61 L935.1 112.94 L936.17 111.29 L937.25 109.67 L938.33 108.08 L939.4 106.52 L940.48 104.98 L941.55 103.48 L942.62 102.01 L943.7 100.57 L944.77 99.17 L945.85 97.8 L946.92 96.46 L948 95.16 L949.08 93.9 L950.15 92.68 L951.23 91.49 L952.3 90.35 L953.38 89.25 L954.45 88.18 L955.52 87.17 L956.6 86.19 L957.67 85.26 L958.75 84.38 L959.83 83.54 L960.9 82.74 L961.98 82 L963.05 81.3 L964.12 80.65 L965.2 80.06 L966.27 79.51 L967.35 79.01 L968.42 78.57 L969.5 78.18 L970.58 77.84 L971.65 77.55 L972.73 77.32 L973.8 77.14 L974.88 77.02 L975.95 76.96 L977.02 76.95 L978.1 76.99 L979.17 77.1 L980.25 77.26 L981.33 77.48 L982.4 77.76 L983.48 78.09 L984.55 78.49 L985.62 78.94 L986.7 79.45 L987.77 80.02 L988.85 80.65 L989.92 81.34 L991 82.09 L992.08 82.9 L993.15 83.77 L994.23 84.69 L995.3 85.68 L996.38 86.72 L997.45 87.82 L998.52 88.99 L999.6 90.21 L1000.67 91.48 L1001.75 92.82 L1002.83 94.21 L1003.9 95.66 L1004.98 97.17 L1006.05 98.73 L1007.12 100.34 L1008.2 102.01 L1009.27 103.74 L1010.35 105.52 L1011.42 107.35 L1012.5 109.23 L1013.58 111.16 L1014.65 113.15 L1015.73 115.18 L1016.8 117.26 L1017.88 119.38 L1018.95 121.56 L1020.02 123.78 L1021.1 126.04 L1022.17 128.34 L1023.25 130.69 L1024.33 133.08 L1025.4 135.5 L1026.47 137.97 L1027.55 140.46 L1028.62 143 L1029.7 145.57 L1030.78 148.16 L1031.85 150.79 L1032.92 153.45 L1034 156.14 L1035.08 158.85 L1036.15 161.58 L1037.22 164.33 L1038.3 167.11 L1039.38 169.9 L1040.45 172.71 L1041.53 175.54 L1042.6 178.37 L1043.67 181.22 L1044.75 184.08 L1045.83 186.94 L1046.9 189.81 L1047.97 192.68 L1049.05 195.55 L1050.12 198.42 L1051.2 201.29 L1052.28 204.15 L1053.35 207.01 L1054.42 209.85 L1055.5 212.68 L1056.58 215.5 L1057.65 218.3 L1058.72 221.08 L1059.8 223.84 L1060.88 226.58 L1061.95 229.3 L1063.03 231.99 L1064.1 234.65 L1065.17 237.27 L1066.25 239.87 L1067.33 242.43 L1068.4 244.95 L1069.47 247.43 L1070.55 249.87 L1071.62 252.27 L1072.7 254.62 L1073.78 256.93 L1074.85 259.18 L1075.92 261.39 L1077 263.54 L1078.08 265.64 L1079.15 267.69 L1080.22 269.67 L1081.3 271.6 L1082.38 273.47 L1083.45 275.28 L1084.53 277.02 L1085.6 278.7 L1086.67 280.32 L1087.75 281.87 L1088.83 283.36 L1089.9 284.78 L1090.97 286.13 L1092.05 287.41 L1093.12 288.63 L1094.2 289.78 L1095.28 290.86 L1096.35 291.87 L1097.42 292.82 L1098.5 293.7 L1099.58 294.51 L1100.65 295.26 L1101.72 295.94 L1102.8 296.56 L1103.88 297.12 L1104.95 297.62 L1106.03 298.07 L1107.1 298.46 L1108.17 298.79 L1109.25 299.08 L1110.33 299.32 L1111.4 299.51 L1112.47 299.67 L1113.55 299.79 L1114.62 299.88 L1115.7 299.94 L1116.78 299.97 L1117.85 299.99 L1118.92 300 L1120 300" fill="none" stroke="#292b27" stroke-width="2"/>
    <line x1="690" y1="300" x2="690" y2="307" stroke="#363934"/>
    <text x="690" y="326" text-anchor="middle" font-family="-apple-system,BlinkMacSystemFont,PingFang SC,Noto Sans CJK SC,sans-serif" font-size="13" fill="#30332e">0</text>
    <line x1="797.5" y1="300" x2="797.5" y2="307" stroke="#363934"/>
    <text x="797.5" y="326" text-anchor="middle" font-family="-apple-system,BlinkMacSystemFont,PingFang SC,Noto Sans CJK SC,sans-serif" font-size="13" fill="#30332e">0.25</text>
    <line x1="905" y1="300" x2="905" y2="307" stroke="#363934"/>
    <text x="905" y="326" text-anchor="middle" font-family="-apple-system,BlinkMacSystemFont,PingFang SC,Noto Sans CJK SC,sans-serif" font-size="13" fill="#30332e">0.5</text>
    <line x1="1012.5" y1="300" x2="1012.5" y2="307" stroke="#363934"/>
    <text x="1012.5" y="326" text-anchor="middle" font-family="-apple-system,BlinkMacSystemFont,PingFang SC,Noto Sans CJK SC,sans-serif" font-size="13" fill="#30332e">0.75</text>
    <line x1="1120" y1="300" x2="1120" y2="307" stroke="#363934"/>
    <text x="1120" y="326" text-anchor="middle" font-family="-apple-system,BlinkMacSystemFont,PingFang SC,Noto Sans CJK SC,sans-serif" font-size="13" fill="#30332e">1</text>
    <text x="905" y="352" text-anchor="middle" font-family="-apple-system,BlinkMacSystemFont,PingFang SC,Noto Sans CJK SC,sans-serif" font-size="16" fill="#30332e">水域比例（p）</text>
    <text x="647" y="177.5" transform="rotate(-90 647 177.5)" text-anchor="middle" font-family="-apple-system,BlinkMacSystemFont,PingFang SC,Noto Sans CJK SC,sans-serif" font-size="16" fill="#30332e">概率密度</text>
  </g>
  <g aria-label="较低的 80%">
    <text x="315" y="417" text-anchor="middle" font-family="-apple-system,BlinkMacSystemFont,PingFang SC,Noto Sans CJK SC,sans-serif" font-size="19" font-weight="700" fill="#263f86">较低的 80%</text>
    <rect x="100" y="435" width="430" height="245" fill="#fff" stroke="#363934" stroke-width="1.3"/>
    <path d="M100 680 L100 680 L101.08 680 L102.15 680 L103.22 680 L104.3 680 L105.38 680 L106.45 680 L107.53 680 L108.6 680 L109.67 680 L110.75 680 L111.83 680 L112.9 680 L113.97 680 L115.05 680 L116.12 680 L117.2 680 L118.28 680 L119.35 680 L120.42 680 L121.5 680 L122.58 680 L123.65 680 L124.72 680 L125.8 680 L126.88 680 L127.95 680 L129.03 679.99 L130.1 679.99 L131.18 679.99 L132.25 679.99 L133.32 679.99 L134.4 679.99 L135.47 679.98 L136.55 679.98 L137.62 679.98 L138.7 679.97 L139.78 679.97 L140.85 679.96 L141.93 679.96 L143 679.95 L144.07 679.94 L145.15 679.93 L146.22 679.92 L147.3 679.91 L148.38 679.9 L149.45 679.89 L150.53 679.88 L151.6 679.86 L152.68 679.84 L153.75 679.82 L154.82 679.8 L155.9 679.78 L156.97 679.76 L158.05 679.73 L159.12 679.7 L160.2 679.67 L161.27 679.64 L162.35 679.6 L163.43 679.56 L164.5 679.52 L165.57 679.47 L166.65 679.43 L167.72 679.37 L168.8 679.32 L169.88 679.26 L170.95 679.19 L172.03 679.13 L173.1 679.05 L174.18 678.98 L175.25 678.89 L176.32 678.81 L177.4 678.71 L178.47 678.62 L179.55 678.51 L180.62 678.4 L181.7 678.28 L182.78 678.16 L183.85 678.03 L184.93 677.9 L186 677.75 L187.07 677.6 L188.15 677.44 L189.22 677.27 L190.3 677.1 L191.38 676.92 L192.45 676.72 L193.53 676.52 L194.6 676.31 L195.68 676.09 L196.75 675.86 L197.82 675.62 L198.9 675.36 L199.98 675.1 L201.05 674.83 L202.12 674.54 L203.2 674.25 L204.27 673.94 L205.35 673.61 L206.43 673.28 L207.5 672.93 L208.57 672.57 L209.65 672.2 L210.73 671.81 L211.8 671.41 L212.88 671 L213.95 670.57 L215.03 670.12 L216.1 669.66 L217.18 669.19 L218.25 668.69 L219.33 668.19 L220.4 667.66 L221.47 667.12 L222.55 666.56 L223.62 665.99 L224.7 665.4 L225.77 664.79 L226.85 664.16 L227.93 663.51 L229 662.85 L230.07 662.16 L231.15 661.46 L232.22 660.74 L233.3 660 L234.38 659.24 L235.45 658.46 L236.53 657.66 L237.6 656.84 L238.68 656 L239.75 655.14 L240.83 654.26 L241.9 653.35 L242.97 652.43 L244.05 651.49 L245.12 650.52 L246.2 649.53 L247.28 648.52 L248.35 647.49 L249.42 646.44 L250.5 645.37 L251.57 644.27 L252.65 643.16 L253.72 642.02 L254.8 640.85 L255.88 639.67 L256.95 638.47 L258.02 637.24 L259.1 635.99 L260.18 634.72 L261.25 633.43 L262.32 632.11 L263.4 630.77 L264.48 629.41 L265.55 628.03 L266.62 626.63 L267.7 625.21 L268.77 623.77 L269.85 622.3 L270.93 620.81 L272 619.31 L273.08 617.78 L274.15 616.23 L275.23 614.66 L276.3 613.08 L277.38 611.47 L278.45 609.84 L279.52 608.2 L280.6 606.53 L281.67 604.85 L282.75 603.15 L283.82 601.43 L284.9 599.69 L285.98 597.94 L287.05 596.17 L288.12 594.38 L289.2 592.58 L290.27 590.76 L291.35 588.93 L292.43 587.09 L293.5 585.23 L294.58 583.35 L295.65 581.47 L296.73 579.57 L297.8 577.66 L298.88 575.74 L299.95 573.81 L301.02 571.86 L302.1 569.91 L303.17 567.95 L304.25 565.98 L305.32 564.01 L306.4 562.03 L307.48 560.04 L308.55 558.05 L309.62 556.05 L310.7 554.05 L311.77 552.04 L312.85 550.03 L313.93 548.03 L315 546.02 L316.07 544.01 L317.15 542 L318.22 539.99 L319.3 537.99 L320.38 535.98 L321.45 533.99 L322.52 531.99 L323.6 530.01 L324.67 528.03 L325.75 526.06 L326.82 524.09 L327.9 522.14 L328.98 520.2 L330.05 518.26 L331.12 516.34 L332.2 514.44 L333.27 512.55 L334.35 510.67 L335.42 508.81 L336.5 506.96 L337.57 505.14 L338.65 503.33 L339.73 501.54 L340.8 499.78 L341.88 498.03 L342.95 496.31 L344.02 494.61 L345.1 492.94 L346.18 491.29 L347.25 489.67 L348.33 488.08 L349.4 486.52 L350.48 484.98 L351.55 483.48 L352.62 482.01 L353.7 480.57 L354.77 479.17 L355.85 477.8 L356.93 476.46 L358 475.16 L359.07 473.9 L360.15 472.68 L361.23 471.49 L362.3 470.35 L363.38 469.25 L364.45 468.18 L365.53 467.17 L366.6 466.19 L367.68 465.26 L368.75 464.38 L369.82 463.54 L370.9 462.74 L371.97 462 L373.05 461.3 L374.12 460.65 L375.2 460.06 L376.27 459.51 L377.35 459.01 L378.43 458.57 L379.5 458.18 L380.57 457.84 L381.65 457.55 L382.72 457.32 L383.8 457.14 L384.88 457.02 L385.95 456.96 L387.02 456.95 L388.1 456.99 L389.18 457.1 L390.25 457.26 L391.32 457.48 L392.4 457.76 L393.48 458.09 L394.55 458.49 L395.62 458.94 L396.7 459.45 L397.77 460.02 L398.85 460.65 L399.93 461.34 L401 462.09 L402.07 462.9 L403.15 463.77 L404.23 464.69 L405.3 465.68 L406.38 466.72 L407.45 467.82 L408.53 468.99 L409.6 470.21 L410.68 471.48 L411.75 472.82 L412.82 474.21 L413.9 475.66 L414.98 477.17 L416.05 478.73 L417.12 480.34 L418.2 482.01 L419.28 483.74 L420.35 485.52 L421.43 487.35 L422.5 489.23 L423.57 491.16 L424.65 493.15 L425.72 495.18 L426.8 497.26 L427.13 680 Z" fill="#6670ee" opacity="0.82"/>
    <path d="M100 680 L101.08 680 L102.15 680 L103.22 680 L104.3 680 L105.38 680 L106.45 680 L107.53 680 L108.6 680 L109.67 680 L110.75 680 L111.83 680 L112.9 680 L113.97 680 L115.05 680 L116.12 680 L117.2 680 L118.28 680 L119.35 680 L120.42 680 L121.5 680 L122.58 680 L123.65 680 L124.72 680 L125.8 680 L126.88 680 L127.95 680 L129.03 679.99 L130.1 679.99 L131.18 679.99 L132.25 679.99 L133.32 679.99 L134.4 679.99 L135.47 679.98 L136.55 679.98 L137.62 679.98 L138.7 679.97 L139.78 679.97 L140.85 679.96 L141.93 679.96 L143 679.95 L144.07 679.94 L145.15 679.93 L146.22 679.92 L147.3 679.91 L148.38 679.9 L149.45 679.89 L150.53 679.88 L151.6 679.86 L152.68 679.84 L153.75 679.82 L154.82 679.8 L155.9 679.78 L156.97 679.76 L158.05 679.73 L159.12 679.7 L160.2 679.67 L161.28 679.64 L162.35 679.6 L163.43 679.56 L164.5 679.52 L165.57 679.47 L166.65 679.43 L167.72 679.37 L168.8 679.32 L169.88 679.26 L170.95 679.19 L172.03 679.13 L173.1 679.05 L174.18 678.98 L175.25 678.89 L176.32 678.81 L177.4 678.71 L178.47 678.62 L179.55 678.51 L180.62 678.4 L181.7 678.28 L182.78 678.16 L183.85 678.03 L184.93 677.9 L186 677.75 L187.07 677.6 L188.15 677.44 L189.22 677.27 L190.3 677.1 L191.38 676.92 L192.45 676.72 L193.53 676.52 L194.6 676.31 L195.68 676.09 L196.75 675.86 L197.82 675.62 L198.9 675.36 L199.97 675.1 L201.05 674.83 L202.12 674.54 L203.2 674.25 L204.28 673.94 L205.35 673.61 L206.43 673.28 L207.5 672.93 L208.57 672.57 L209.65 672.2 L210.72 671.81 L211.8 671.41 L212.88 671 L213.95 670.57 L215.03 670.12 L216.1 669.66 L217.18 669.19 L218.25 668.69 L219.32 668.19 L220.4 667.66 L221.47 667.12 L222.55 666.56 L223.62 665.99 L224.7 665.4 L225.78 664.79 L226.85 664.16 L227.93 663.51 L229 662.85 L230.07 662.16 L231.15 661.46 L232.22 660.74 L233.3 660 L234.38 659.24 L235.45 658.46 L236.53 657.66 L237.6 656.84 L238.68 656 L239.75 655.14 L240.82 654.26 L241.9 653.35 L242.97 652.43 L244.05 651.49 L245.12 650.52 L246.2 649.53 L247.28 648.52 L248.35 647.49 L249.43 646.44 L250.5 645.37 L251.57 644.27 L252.65 643.16 L253.72 642.02 L254.8 640.85 L255.88 639.67 L256.95 638.47 L258.02 637.24 L259.1 635.99 L260.18 634.72 L261.25 633.43 L262.32 632.11 L263.4 630.77 L264.48 629.41 L265.55 628.03 L266.62 626.63 L267.7 625.21 L268.77 623.77 L269.85 622.3 L270.93 620.81 L272 619.31 L273.07 617.78 L274.15 616.23 L275.23 614.66 L276.3 613.08 L277.38 611.47 L278.45 609.84 L279.52 608.2 L280.6 606.53 L281.68 604.85 L282.75 603.15 L283.82 601.43 L284.9 599.69 L285.98 597.94 L287.05 596.17 L288.12 594.38 L289.2 592.58 L290.27 590.76 L291.35 588.93 L292.43 587.09 L293.5 585.23 L294.57 583.35 L295.65 581.47 L296.73 579.57 L297.8 577.66 L298.88 575.74 L299.95 573.81 L301.02 571.86 L302.1 569.91 L303.18 567.95 L304.25 565.98 L305.32 564.01 L306.4 562.03 L307.48 560.04 L308.55 558.05 L309.62 556.05 L310.7 554.05 L311.77 552.04 L312.85 550.03 L313.93 548.03 L315 546.02 L316.07 544.01 L317.15 542 L318.23 539.99 L319.3 537.99 L320.38 535.98 L321.45 533.99 L322.52 531.99 L323.6 530.01 L324.68 528.03 L325.75 526.06 L326.82 524.09 L327.9 522.14 L328.98 520.2 L330.05 518.26 L331.12 516.34 L332.2 514.44 L333.27 512.55 L334.35 510.67 L335.43 508.81 L336.5 506.96 L337.57 505.14 L338.65 503.33 L339.73 501.54 L340.8 499.78 L341.88 498.03 L342.95 496.31 L344.02 494.61 L345.1 492.94 L346.18 491.29 L347.25 489.67 L348.32 488.08 L349.4 486.52 L350.48 484.98 L351.55 483.48 L352.62 482.01 L353.7 480.57 L354.77 479.17 L355.85 477.8 L356.93 476.46 L358 475.16 L359.07 473.9 L360.15 472.68 L361.23 471.49 L362.3 470.35 L363.38 469.25 L364.45 468.18 L365.52 467.17 L366.6 466.19 L367.68 465.26 L368.75 464.38 L369.82 463.54 L370.9 462.74 L371.98 462 L373.05 461.3 L374.12 460.65 L375.2 460.06 L376.27 459.51 L377.35 459.01 L378.43 458.57 L379.5 458.18 L380.57 457.84 L381.65 457.55 L382.73 457.32 L383.8 457.14 L384.88 457.02 L385.95 456.96 L387.02 456.95 L388.1 456.99 L389.18 457.1 L390.25 457.26 L391.32 457.48 L392.4 457.76 L393.48 458.09 L394.55 458.49 L395.62 458.94 L396.7 459.45 L397.77 460.02 L398.85 460.65 L399.93 461.34 L401 462.09 L402.07 462.9 L403.15 463.77 L404.23 464.69 L405.3 465.68 L406.38 466.72 L407.45 467.82 L408.52 468.99 L409.6 470.21 L410.68 471.48 L411.75 472.82 L412.82 474.21 L413.9 475.66 L414.98 477.17 L416.05 478.73 L417.12 480.34 L418.2 482.01 L419.27 483.74 L420.35 485.52 L421.43 487.35 L422.5 489.23 L423.57 491.16 L424.65 493.15 L425.73 495.18 L426.8 497.26 L427.88 499.38 L428.95 501.56 L430.02 503.78 L431.1 506.04 L432.18 508.34 L433.25 510.69 L434.32 513.08 L435.4 515.5 L436.48 517.97 L437.55 520.46 L438.62 523 L439.7 525.57 L440.77 528.16 L441.85 530.79 L442.93 533.45 L444 536.14 L445.07 538.85 L446.15 541.58 L447.23 544.33 L448.3 547.11 L449.38 549.9 L450.45 552.71 L451.52 555.54 L452.6 558.37 L453.68 561.22 L454.75 564.08 L455.82 566.94 L456.9 569.81 L457.98 572.68 L459.05 575.55 L460.12 578.42 L461.2 581.29 L462.27 584.15 L463.35 587.01 L464.43 589.85 L465.5 592.68 L466.57 595.5 L467.65 598.3 L468.73 601.08 L469.8 603.84 L470.88 606.58 L471.95 609.3 L473.02 611.99 L474.1 614.65 L475.18 617.27 L476.25 619.87 L477.32 622.43 L478.4 624.95 L479.48 627.43 L480.55 629.87 L481.62 632.27 L482.7 634.62 L483.77 636.93 L484.85 639.18 L485.93 641.39 L487 643.54 L488.07 645.64 L489.15 647.69 L490.23 649.67 L491.3 651.6 L492.38 653.47 L493.45 655.28 L494.52 657.02 L495.6 658.7 L496.68 660.32 L497.75 661.87 L498.82 663.36 L499.9 664.78 L500.98 666.13 L502.05 667.41 L503.12 668.63 L504.2 669.78 L505.27 670.86 L506.35 671.87 L507.43 672.82 L508.5 673.7 L509.57 674.51 L510.65 675.26 L511.73 675.94 L512.8 676.56 L513.88 677.12 L514.95 677.62 L516.02 678.07 L517.1 678.46 L518.17 678.79 L519.25 679.08 L520.33 679.32 L521.4 679.51 L522.48 679.67 L523.55 679.79 L524.62 679.88 L525.7 679.94 L526.77 679.97 L527.85 679.99 L528.92 680 L530 680" fill="none" stroke="#292b27" stroke-width="2"/>
    <line x1="100" y1="680" x2="100" y2="687" stroke="#363934"/>
    <text x="100" y="706" text-anchor="middle" font-family="-apple-system,BlinkMacSystemFont,PingFang SC,Noto Sans CJK SC,sans-serif" font-size="13" fill="#30332e">0</text>
    <line x1="207.5" y1="680" x2="207.5" y2="687" stroke="#363934"/>
    <text x="207.5" y="706" text-anchor="middle" font-family="-apple-system,BlinkMacSystemFont,PingFang SC,Noto Sans CJK SC,sans-serif" font-size="13" fill="#30332e">0.25</text>
    <line x1="315" y1="680" x2="315" y2="687" stroke="#363934"/>
    <text x="315" y="706" text-anchor="middle" font-family="-apple-system,BlinkMacSystemFont,PingFang SC,Noto Sans CJK SC,sans-serif" font-size="13" fill="#30332e">0.5</text>
    <line x1="422.5" y1="680" x2="422.5" y2="687" stroke="#363934"/>
    <text x="422.5" y="706" text-anchor="middle" font-family="-apple-system,BlinkMacSystemFont,PingFang SC,Noto Sans CJK SC,sans-serif" font-size="13" fill="#30332e">0.75</text>
    <line x1="530" y1="680" x2="530" y2="687" stroke="#363934"/>
    <text x="530" y="706" text-anchor="middle" font-family="-apple-system,BlinkMacSystemFont,PingFang SC,Noto Sans CJK SC,sans-serif" font-size="13" fill="#30332e">1</text>
    <text x="315" y="732" text-anchor="middle" font-family="-apple-system,BlinkMacSystemFont,PingFang SC,Noto Sans CJK SC,sans-serif" font-size="16" fill="#30332e">水域比例（p）</text>
    <text x="57" y="557.5" transform="rotate(-90 57 557.5)" text-anchor="middle" font-family="-apple-system,BlinkMacSystemFont,PingFang SC,Noto Sans CJK SC,sans-serif" font-size="16" fill="#30332e">概率密度</text>
  </g>
  <g aria-label="中间的 80%">
    <text x="905" y="417" text-anchor="middle" font-family="-apple-system,BlinkMacSystemFont,PingFang SC,Noto Sans CJK SC,sans-serif" font-size="19" font-weight="700" fill="#263f86">中间的 80%</text>
    <rect x="690" y="435" width="430" height="245" fill="#fff" stroke="#363934" stroke-width="1.3"/>
    <path d="M881.97 680 L882.42 587.09 L883.5 585.23 L884.58 583.35 L885.65 581.47 L886.73 579.57 L887.8 577.66 L888.88 575.74 L889.95 573.81 L891.02 571.86 L892.1 569.91 L893.17 567.95 L894.25 565.98 L895.33 564.01 L896.4 562.03 L897.48 560.04 L898.55 558.05 L899.62 556.05 L900.7 554.05 L901.77 552.04 L902.85 550.03 L903.92 548.03 L905 546.02 L906.08 544.01 L907.15 542 L908.22 539.99 L909.3 537.99 L910.38 535.98 L911.45 533.99 L912.52 531.99 L913.6 530.01 L914.67 528.03 L915.75 526.06 L916.83 524.09 L917.9 522.14 L918.98 520.2 L920.05 518.26 L921.12 516.34 L922.2 514.44 L923.27 512.55 L924.35 510.67 L925.42 508.81 L926.5 506.96 L927.58 505.14 L928.65 503.33 L929.73 501.54 L930.8 499.78 L931.88 498.03 L932.95 496.31 L934.02 494.61 L935.1 492.94 L936.17 491.29 L937.25 489.67 L938.33 488.08 L939.4 486.52 L940.48 484.98 L941.55 483.48 L942.62 482.01 L943.7 480.57 L944.77 479.17 L945.85 477.8 L946.92 476.46 L948 475.16 L949.08 473.9 L950.15 472.68 L951.23 471.49 L952.3 470.35 L953.38 469.25 L954.45 468.18 L955.53 467.17 L956.6 466.19 L957.67 465.26 L958.75 464.38 L959.83 463.54 L960.9 462.74 L961.97 462 L963.05 461.3 L964.12 460.65 L965.2 460.06 L966.27 459.51 L967.35 459.01 L968.42 458.57 L969.5 458.18 L970.58 457.84 L971.65 457.55 L972.72 457.32 L973.8 457.14 L974.88 457.02 L975.95 456.96 L977.02 456.95 L978.1 456.99 L979.17 457.1 L980.25 457.26 L981.33 457.48 L982.4 457.76 L983.48 458.09 L984.55 458.49 L985.62 458.94 L986.7 459.45 L987.77 460.02 L988.85 460.65 L989.92 461.34 L991 462.09 L992.08 462.9 L993.15 463.77 L994.23 464.69 L995.3 465.68 L996.38 466.72 L997.45 467.82 L998.53 468.99 L999.6 470.21 L1000.67 471.48 L1001.75 472.82 L1002.83 474.21 L1003.9 475.66 L1004.98 477.17 L1006.05 478.73 L1007.12 480.34 L1008.2 482.01 L1009.28 483.74 L1010.35 485.52 L1011.42 487.35 L1012.5 489.23 L1013.58 491.16 L1014.65 493.15 L1015.72 495.18 L1016.8 497.26 L1017.88 499.38 L1018.95 501.56 L1020.02 503.78 L1021.1 506.04 L1022.17 508.34 L1023.25 510.69 L1024.33 513.08 L1025.4 515.5 L1026.47 517.97 L1027.55 520.46 L1028.62 523 L1029.7 525.57 L1030.78 528.16 L1031.85 530.79 L1032.92 533.45 L1034 536.14 L1035.08 538.85 L1036.15 541.58 L1037.22 544.33 L1038.3 547.11 L1039.08 680 Z" fill="#6670ee" opacity="0.82"/>
    <path d="M690 680 L691.08 680 L692.15 680 L693.23 680 L694.3 680 L695.38 680 L696.45 680 L697.52 680 L698.6 680 L699.67 680 L700.75 680 L701.83 680 L702.9 680 L703.98 680 L705.05 680 L706.12 680 L707.2 680 L708.27 680 L709.35 680 L710.42 680 L711.5 680 L712.58 680 L713.65 680 L714.73 680 L715.8 680 L716.88 680 L717.95 680 L719.02 679.99 L720.1 679.99 L721.17 679.99 L722.25 679.99 L723.33 679.99 L724.4 679.99 L725.48 679.98 L726.55 679.98 L727.62 679.98 L728.7 679.97 L729.77 679.97 L730.85 679.96 L731.92 679.96 L733 679.95 L734.08 679.94 L735.15 679.93 L736.23 679.92 L737.3 679.91 L738.38 679.9 L739.45 679.89 L740.52 679.88 L741.6 679.86 L742.67 679.84 L743.75 679.82 L744.83 679.8 L745.9 679.78 L746.98 679.76 L748.05 679.73 L749.12 679.7 L750.2 679.67 L751.27 679.64 L752.35 679.6 L753.42 679.56 L754.5 679.52 L755.58 679.47 L756.65 679.43 L757.73 679.37 L758.8 679.32 L759.88 679.26 L760.95 679.19 L762.02 679.13 L763.1 679.05 L764.17 678.98 L765.25 678.89 L766.33 678.81 L767.4 678.71 L768.48 678.62 L769.55 678.51 L770.62 678.4 L771.7 678.28 L772.77 678.16 L773.85 678.03 L774.92 677.9 L776 677.75 L777.08 677.6 L778.15 677.44 L779.23 677.27 L780.3 677.1 L781.38 676.92 L782.45 676.72 L783.52 676.52 L784.6 676.31 L785.67 676.09 L786.75 675.86 L787.83 675.62 L788.9 675.36 L789.98 675.1 L791.05 674.83 L792.12 674.54 L793.2 674.25 L794.27 673.94 L795.35 673.61 L796.42 673.28 L797.5 672.93 L798.58 672.57 L799.65 672.2 L800.73 671.81 L801.8 671.41 L802.88 671 L803.95 670.57 L805.02 670.12 L806.1 669.66 L807.17 669.19 L808.25 668.69 L809.33 668.19 L810.4 667.66 L811.48 667.12 L812.55 666.56 L813.62 665.99 L814.7 665.4 L815.77 664.79 L816.85 664.16 L817.92 663.51 L819 662.85 L820.08 662.16 L821.15 661.46 L822.23 660.74 L823.3 660 L824.38 659.24 L825.45 658.46 L826.52 657.66 L827.6 656.84 L828.67 656 L829.75 655.14 L830.83 654.26 L831.9 653.35 L832.98 652.43 L834.05 651.49 L835.12 650.52 L836.2 649.53 L837.27 648.52 L838.35 647.49 L839.42 646.44 L840.5 645.37 L841.58 644.27 L842.65 643.16 L843.73 642.02 L844.8 640.85 L845.88 639.67 L846.95 638.47 L848.02 637.24 L849.1 635.99 L850.17 634.72 L851.25 633.43 L852.33 632.11 L853.4 630.77 L854.48 629.41 L855.55 628.03 L856.62 626.63 L857.7 625.21 L858.77 623.77 L859.85 622.3 L860.92 620.81 L862 619.31 L863.08 617.78 L864.15 616.23 L865.23 614.66 L866.3 613.08 L867.38 611.47 L868.45 609.84 L869.52 608.2 L870.6 606.53 L871.67 604.85 L872.75 603.15 L873.83 601.43 L874.9 599.69 L875.98 597.94 L877.05 596.17 L878.12 594.38 L879.2 592.58 L880.27 590.76 L881.35 588.93 L882.42 587.09 L883.5 585.23 L884.58 583.35 L885.65 581.47 L886.73 579.57 L887.8 577.66 L888.88 575.74 L889.95 573.81 L891.02 571.86 L892.1 569.91 L893.17 567.95 L894.25 565.98 L895.33 564.01 L896.4 562.03 L897.48 560.04 L898.55 558.05 L899.62 556.05 L900.7 554.05 L901.77 552.04 L902.85 550.03 L903.92 548.03 L905 546.02 L906.08 544.01 L907.15 542 L908.23 539.99 L909.3 537.99 L910.38 535.98 L911.45 533.99 L912.52 531.99 L913.6 530.01 L914.67 528.03 L915.75 526.06 L916.83 524.09 L917.9 522.14 L918.98 520.2 L920.05 518.26 L921.12 516.34 L922.2 514.44 L923.27 512.55 L924.35 510.67 L925.42 508.81 L926.5 506.96 L927.58 505.14 L928.65 503.33 L929.73 501.54 L930.8 499.78 L931.88 498.03 L932.95 496.31 L934.02 494.61 L935.1 492.94 L936.17 491.29 L937.25 489.67 L938.33 488.08 L939.4 486.52 L940.48 484.98 L941.55 483.48 L942.62 482.01 L943.7 480.57 L944.77 479.17 L945.85 477.8 L946.92 476.46 L948 475.16 L949.08 473.9 L950.15 472.68 L951.23 471.49 L952.3 470.35 L953.38 469.25 L954.45 468.18 L955.52 467.17 L956.6 466.19 L957.67 465.26 L958.75 464.38 L959.83 463.54 L960.9 462.74 L961.98 462 L963.05 461.3 L964.12 460.65 L965.2 460.06 L966.27 459.51 L967.35 459.01 L968.42 458.57 L969.5 458.18 L970.58 457.84 L971.65 457.55 L972.73 457.32 L973.8 457.14 L974.88 457.02 L975.95 456.96 L977.02 456.95 L978.1 456.99 L979.17 457.1 L980.25 457.26 L981.33 457.48 L982.4 457.76 L983.48 458.09 L984.55 458.49 L985.62 458.94 L986.7 459.45 L987.77 460.02 L988.85 460.65 L989.92 461.34 L991 462.09 L992.08 462.9 L993.15 463.77 L994.23 464.69 L995.3 465.68 L996.38 466.72 L997.45 467.82 L998.52 468.99 L999.6 470.21 L1000.67 471.48 L1001.75 472.82 L1002.83 474.21 L1003.9 475.66 L1004.98 477.17 L1006.05 478.73 L1007.12 480.34 L1008.2 482.01 L1009.27 483.74 L1010.35 485.52 L1011.42 487.35 L1012.5 489.23 L1013.58 491.16 L1014.65 493.15 L1015.73 495.18 L1016.8 497.26 L1017.88 499.38 L1018.95 501.56 L1020.02 503.78 L1021.1 506.04 L1022.17 508.34 L1023.25 510.69 L1024.33 513.08 L1025.4 515.5 L1026.47 517.97 L1027.55 520.46 L1028.62 523 L1029.7 525.57 L1030.78 528.16 L1031.85 530.79 L1032.92 533.45 L1034 536.14 L1035.08 538.85 L1036.15 541.58 L1037.22 544.33 L1038.3 547.11 L1039.38 549.9 L1040.45 552.71 L1041.53 555.54 L1042.6 558.37 L1043.67 561.22 L1044.75 564.08 L1045.83 566.94 L1046.9 569.81 L1047.97 572.68 L1049.05 575.55 L1050.12 578.42 L1051.2 581.29 L1052.28 584.15 L1053.35 587.01 L1054.42 589.85 L1055.5 592.68 L1056.58 595.5 L1057.65 598.3 L1058.72 601.08 L1059.8 603.84 L1060.88 606.58 L1061.95 609.3 L1063.03 611.99 L1064.1 614.65 L1065.17 617.27 L1066.25 619.87 L1067.33 622.43 L1068.4 624.95 L1069.47 627.43 L1070.55 629.87 L1071.62 632.27 L1072.7 634.62 L1073.78 636.93 L1074.85 639.18 L1075.92 641.39 L1077 643.54 L1078.08 645.64 L1079.15 647.69 L1080.22 649.67 L1081.3 651.6 L1082.38 653.47 L1083.45 655.28 L1084.53 657.02 L1085.6 658.7 L1086.67 660.32 L1087.75 661.87 L1088.83 663.36 L1089.9 664.78 L1090.97 666.13 L1092.05 667.41 L1093.12 668.63 L1094.2 669.78 L1095.28 670.86 L1096.35 671.87 L1097.42 672.82 L1098.5 673.7 L1099.58 674.51 L1100.65 675.26 L1101.72 675.94 L1102.8 676.56 L1103.88 677.12 L1104.95 677.62 L1106.03 678.07 L1107.1 678.46 L1108.17 678.79 L1109.25 679.08 L1110.33 679.32 L1111.4 679.51 L1112.47 679.67 L1113.55 679.79 L1114.62 679.88 L1115.7 679.94 L1116.78 679.97 L1117.85 679.99 L1118.92 680 L1120 680" fill="none" stroke="#292b27" stroke-width="2"/>
    <line x1="690" y1="680" x2="690" y2="687" stroke="#363934"/>
    <text x="690" y="706" text-anchor="middle" font-family="-apple-system,BlinkMacSystemFont,PingFang SC,Noto Sans CJK SC,sans-serif" font-size="13" fill="#30332e">0</text>
    <line x1="797.5" y1="680" x2="797.5" y2="687" stroke="#363934"/>
    <text x="797.5" y="706" text-anchor="middle" font-family="-apple-system,BlinkMacSystemFont,PingFang SC,Noto Sans CJK SC,sans-serif" font-size="13" fill="#30332e">0.25</text>
    <line x1="905" y1="680" x2="905" y2="687" stroke="#363934"/>
    <text x="905" y="706" text-anchor="middle" font-family="-apple-system,BlinkMacSystemFont,PingFang SC,Noto Sans CJK SC,sans-serif" font-size="13" fill="#30332e">0.5</text>
    <line x1="1012.5" y1="680" x2="1012.5" y2="687" stroke="#363934"/>
    <text x="1012.5" y="706" text-anchor="middle" font-family="-apple-system,BlinkMacSystemFont,PingFang SC,Noto Sans CJK SC,sans-serif" font-size="13" fill="#30332e">0.75</text>
    <line x1="1120" y1="680" x2="1120" y2="687" stroke="#363934"/>
    <text x="1120" y="706" text-anchor="middle" font-family="-apple-system,BlinkMacSystemFont,PingFang SC,Noto Sans CJK SC,sans-serif" font-size="13" fill="#30332e">1</text>
    <text x="905" y="732" text-anchor="middle" font-family="-apple-system,BlinkMacSystemFont,PingFang SC,Noto Sans CJK SC,sans-serif" font-size="16" fill="#30332e">水域比例（p）</text>
    <text x="647" y="557.5" transform="rotate(-90 647 557.5)" text-anchor="middle" font-family="-apple-system,BlinkMacSystemFont,PingFang SC,Noto Sans CJK SC,sans-serif" font-size="16" fill="#30332e">概率密度</text>
  </g>
</svg>
