<?xml version="1.0" encoding="UTF-8"?>
<svg xmlns="http://www.w3.org/2000/svg" width="1200" height="650" viewBox="0 0 1200 650" role="img">
  <title>身高和体重模型的先验预测模拟</title>
  <desc>左图使用正态斜率先验，产生大量荒谬的正负关系；右图使用对数正态斜率先验，绝大多数关系落在人类合理范围内。</desc>
  <rect width="100%" height="100%" fill="#ffffff"/>
  <text x="345.0" y="42" text-anchor="middle" font-family="PingFang SC, Noto Sans CJK SC, Microsoft YaHei, sans-serif" font-size="22" font-weight="700" fill="#263f86">β ∼ Normal(0, 10)</text>
  <defs><clipPath id="clip-130"><rect x="130" y="90" width="430" height="390"/></clipPath></defs>
  <rect x="130" y="90" width="430" height="390" fill="#ffffff" stroke="#333630" stroke-width="2"/>
  <line x1="130" y1="369.07" x2="560" y2="199.65" stroke="#20231f" stroke-width="1.15" opacity="0.18" clip-path="url(#clip-130)"/>
  <line x1="130" y1="422.33" x2="560" y2="115.66" stroke="#20231f" stroke-width="1.15" opacity="0.18" clip-path="url(#clip-130)"/>
  <line x1="130" y1="262.13" x2="560" y2="253.03" stroke="#20231f" stroke-width="1.15" opacity="0.18" clip-path="url(#clip-130)"/>
  <line x1="130" y1="209.66" x2="560" y2="318.23" stroke="#20231f" stroke-width="1.15" opacity="0.18" clip-path="url(#clip-130)"/>
  <line x1="130" y1="184.25" x2="560" y2="391.82" stroke="#20231f" stroke-width="1.15" opacity="0.18" clip-path="url(#clip-130)"/>
  <line x1="130" y1="101.74" x2="560" y2="439.14" stroke="#20231f" stroke-width="1.15" opacity="0.18" clip-path="url(#clip-130)"/>
  <line x1="130" y1="134.15" x2="560" y2="441.84" stroke="#20231f" stroke-width="1.15" opacity="0.18" clip-path="url(#clip-130)"/>
  <line x1="130" y1="311.88" x2="560" y2="210.4" stroke="#20231f" stroke-width="1.15" opacity="0.18" clip-path="url(#clip-130)"/>
  <line x1="130" y1="190.46" x2="560" y2="325.21" stroke="#20231f" stroke-width="1.15" opacity="0.18" clip-path="url(#clip-130)"/>
  <line x1="130" y1="457.64" x2="560" y2="63.91" stroke="#20231f" stroke-width="1.15" opacity="0.18" clip-path="url(#clip-130)"/>
  <line x1="130" y1="422.71" x2="560" y2="150.02" stroke="#20231f" stroke-width="1.15" opacity="0.18" clip-path="url(#clip-130)"/>
  <line x1="130" y1="305.05" x2="560" y2="185.58" stroke="#20231f" stroke-width="1.15" opacity="0.18" clip-path="url(#clip-130)"/>
  <line x1="130" y1="278.21" x2="560" y2="237.27" stroke="#20231f" stroke-width="1.15" opacity="0.18" clip-path="url(#clip-130)"/>
  <line x1="130" y1="199.88" x2="560" y2="340.32" stroke="#20231f" stroke-width="1.15" opacity="0.18" clip-path="url(#clip-130)"/>
  <line x1="130" y1="201.62" x2="560" y2="406.16" stroke="#20231f" stroke-width="1.15" opacity="0.18" clip-path="url(#clip-130)"/>
  <line x1="130" y1="407.79" x2="560" y2="141.38" stroke="#20231f" stroke-width="1.15" opacity="0.18" clip-path="url(#clip-130)"/>
  <line x1="130" y1="384.33" x2="560" y2="177.5" stroke="#20231f" stroke-width="1.15" opacity="0.18" clip-path="url(#clip-130)"/>
  <line x1="130" y1="242.11" x2="560" y2="229.52" stroke="#20231f" stroke-width="1.15" opacity="0.18" clip-path="url(#clip-130)"/>
  <line x1="130" y1="148.23" x2="560" y2="384.76" stroke="#20231f" stroke-width="1.15" opacity="0.18" clip-path="url(#clip-130)"/>
  <line x1="130" y1="262.1" x2="560" y2="255.02" stroke="#20231f" stroke-width="1.15" opacity="0.18" clip-path="url(#clip-130)"/>
  <line x1="130" y1="402.2" x2="560" y2="150.22" stroke="#20231f" stroke-width="1.15" opacity="0.18" clip-path="url(#clip-130)"/>
  <line x1="130" y1="289.48" x2="560" y2="231.22" stroke="#20231f" stroke-width="1.15" opacity="0.18" clip-path="url(#clip-130)"/>
  <line x1="130" y1="194.34" x2="560" y2="329.13" stroke="#20231f" stroke-width="1.15" opacity="0.18" clip-path="url(#clip-130)"/>
  <line x1="130" y1="181.8" x2="560" y2="316.42" stroke="#20231f" stroke-width="1.15" opacity="0.18" clip-path="url(#clip-130)"/>
  <line x1="130" y1="178.05" x2="560" y2="351.78" stroke="#20231f" stroke-width="1.15" opacity="0.18" clip-path="url(#clip-130)"/>
  <line x1="130" y1="251.26" x2="560" y2="244.35" stroke="#20231f" stroke-width="1.15" opacity="0.18" clip-path="url(#clip-130)"/>
  <line x1="130" y1="194.59" x2="560" y2="313.67" stroke="#20231f" stroke-width="1.15" opacity="0.18" clip-path="url(#clip-130)"/>
  <line x1="130" y1="364.95" x2="560" y2="160.75" stroke="#20231f" stroke-width="1.15" opacity="0.18" clip-path="url(#clip-130)"/>
  <line x1="130" y1="248.62" x2="560" y2="258.99" stroke="#20231f" stroke-width="1.15" opacity="0.18" clip-path="url(#clip-130)"/>
  <line x1="130" y1="287.38" x2="560" y2="246.12" stroke="#20231f" stroke-width="1.15" opacity="0.18" clip-path="url(#clip-130)"/>
  <line x1="130" y1="232.81" x2="560" y2="309.59" stroke="#20231f" stroke-width="1.15" opacity="0.18" clip-path="url(#clip-130)"/>
  <line x1="130" y1="413.02" x2="560" y2="82.54" stroke="#20231f" stroke-width="1.15" opacity="0.18" clip-path="url(#clip-130)"/>
  <line x1="130" y1="156" x2="560" y2="352.04" stroke="#20231f" stroke-width="1.15" opacity="0.18" clip-path="url(#clip-130)"/>
  <line x1="130" y1="307.59" x2="560" y2="276.53" stroke="#20231f" stroke-width="1.15" opacity="0.18" clip-path="url(#clip-130)"/>
  <line x1="130" y1="142.93" x2="560" y2="387.69" stroke="#20231f" stroke-width="1.15" opacity="0.18" clip-path="url(#clip-130)"/>
  <line x1="130" y1="169.97" x2="560" y2="312.81" stroke="#20231f" stroke-width="1.15" opacity="0.18" clip-path="url(#clip-130)"/>
  <line x1="130" y1="377.16" x2="560" y2="123.89" stroke="#20231f" stroke-width="1.15" opacity="0.18" clip-path="url(#clip-130)"/>
  <line x1="130" y1="324.62" x2="560" y2="209.83" stroke="#20231f" stroke-width="1.15" opacity="0.18" clip-path="url(#clip-130)"/>
  <line x1="130" y1="243.65" x2="560" y2="310.72" stroke="#20231f" stroke-width="1.15" opacity="0.18" clip-path="url(#clip-130)"/>
  <line x1="130" y1="474.72" x2="560" y2="85.61" stroke="#20231f" stroke-width="1.15" opacity="0.18" clip-path="url(#clip-130)"/>
  <line x1="130" y1="394.44" x2="560" y2="134.65" stroke="#20231f" stroke-width="1.15" opacity="0.18" clip-path="url(#clip-130)"/>
  <line x1="130" y1="183.97" x2="560" y2="366.63" stroke="#20231f" stroke-width="1.15" opacity="0.18" clip-path="url(#clip-130)"/>
  <line x1="130" y1="112.62" x2="560" y2="448.63" stroke="#20231f" stroke-width="1.15" opacity="0.18" clip-path="url(#clip-130)"/>
  <line x1="130" y1="243.77" x2="560" y2="293.47" stroke="#20231f" stroke-width="1.15" opacity="0.18" clip-path="url(#clip-130)"/>
  <line x1="130" y1="250.43" x2="560" y2="307.56" stroke="#20231f" stroke-width="1.15" opacity="0.18" clip-path="url(#clip-130)"/>
  <line x1="130" y1="-18.67" x2="560" y2="598.57" stroke="#20231f" stroke-width="1.15" opacity="0.18" clip-path="url(#clip-130)"/>
  <line x1="130" y1="294.45" x2="560" y2="208.97" stroke="#20231f" stroke-width="1.15" opacity="0.18" clip-path="url(#clip-130)"/>
  <line x1="130" y1="220.97" x2="560" y2="318.26" stroke="#20231f" stroke-width="1.15" opacity="0.18" clip-path="url(#clip-130)"/>
  <line x1="130" y1="63.42" x2="560" y2="461.39" stroke="#20231f" stroke-width="1.15" opacity="0.18" clip-path="url(#clip-130)"/>
  <line x1="130" y1="285.59" x2="560" y2="254.17" stroke="#20231f" stroke-width="1.15" opacity="0.18" clip-path="url(#clip-130)"/>
  <line x1="130" y1="337.96" x2="560" y2="161.88" stroke="#20231f" stroke-width="1.15" opacity="0.18" clip-path="url(#clip-130)"/>
  <line x1="130" y1="374.42" x2="560" y2="191.41" stroke="#20231f" stroke-width="1.15" opacity="0.18" clip-path="url(#clip-130)"/>
  <line x1="130" y1="401.05" x2="560" y2="154.47" stroke="#20231f" stroke-width="1.15" opacity="0.18" clip-path="url(#clip-130)"/>
  <line x1="130" y1="240.17" x2="560" y2="265.97" stroke="#20231f" stroke-width="1.15" opacity="0.18" clip-path="url(#clip-130)"/>
  <line x1="130" y1="301.55" x2="560" y2="265.75" stroke="#20231f" stroke-width="1.15" opacity="0.18" clip-path="url(#clip-130)"/>
  <line x1="130" y1="79.99" x2="560" y2="449.74" stroke="#20231f" stroke-width="1.15" opacity="0.18" clip-path="url(#clip-130)"/>
  <line x1="130" y1="145.67" x2="560" y2="388.72" stroke="#20231f" stroke-width="1.15" opacity="0.18" clip-path="url(#clip-130)"/>
  <line x1="130" y1="144.51" x2="560" y2="435.13" stroke="#20231f" stroke-width="1.15" opacity="0.18" clip-path="url(#clip-130)"/>
  <line x1="130" y1="226.65" x2="560" y2="256.2" stroke="#20231f" stroke-width="1.15" opacity="0.18" clip-path="url(#clip-130)"/>
  <line x1="130" y1="442.93" x2="560" y2="37.76" stroke="#20231f" stroke-width="1.15" opacity="0.18" clip-path="url(#clip-130)"/>
  <line x1="130" y1="470.42" x2="560" y2="98.25" stroke="#20231f" stroke-width="1.15" opacity="0.18" clip-path="url(#clip-130)"/>
  <line x1="130" y1="149.31" x2="560" y2="380.43" stroke="#20231f" stroke-width="1.15" opacity="0.18" clip-path="url(#clip-130)"/>
  <line x1="130" y1="251.61" x2="560" y2="277.32" stroke="#20231f" stroke-width="1.15" opacity="0.18" clip-path="url(#clip-130)"/>
  <line x1="130" y1="94.62" x2="560" y2="444.38" stroke="#20231f" stroke-width="1.15" opacity="0.18" clip-path="url(#clip-130)"/>
  <line x1="130" y1="112.02" x2="560" y2="409.09" stroke="#20231f" stroke-width="1.15" opacity="0.18" clip-path="url(#clip-130)"/>
  <line x1="130" y1="347.21" x2="560" y2="190.39" stroke="#20231f" stroke-width="1.15" opacity="0.18" clip-path="url(#clip-130)"/>
  <line x1="130" y1="277.29" x2="560" y2="274.19" stroke="#20231f" stroke-width="1.15" opacity="0.18" clip-path="url(#clip-130)"/>
  <line x1="130" y1="430.64" x2="560" y2="81.88" stroke="#20231f" stroke-width="1.15" opacity="0.18" clip-path="url(#clip-130)"/>
  <line x1="130" y1="222.31" x2="560" y2="343.66" stroke="#20231f" stroke-width="1.15" opacity="0.18" clip-path="url(#clip-130)"/>
  <line x1="130" y1="293.53" x2="560" y2="176.99" stroke="#20231f" stroke-width="1.15" opacity="0.18" clip-path="url(#clip-130)"/>
  <line x1="130" y1="213.66" x2="560" y2="295.02" stroke="#20231f" stroke-width="1.15" opacity="0.18" clip-path="url(#clip-130)"/>
  <line x1="130" y1="88.29" x2="560" y2="453.02" stroke="#20231f" stroke-width="1.15" opacity="0.18" clip-path="url(#clip-130)"/>
  <line x1="130" y1="150.55" x2="560" y2="341.99" stroke="#20231f" stroke-width="1.15" opacity="0.18" clip-path="url(#clip-130)"/>
  <line x1="130" y1="182.91" x2="560" y2="333.17" stroke="#20231f" stroke-width="1.15" opacity="0.18" clip-path="url(#clip-130)"/>
  <line x1="130" y1="137.78" x2="560" y2="426.19" stroke="#20231f" stroke-width="1.15" opacity="0.18" clip-path="url(#clip-130)"/>
  <line x1="130" y1="51.39" x2="560" y2="462.57" stroke="#20231f" stroke-width="1.15" opacity="0.18" clip-path="url(#clip-130)"/>
  <line x1="130" y1="217.18" x2="560" y2="373.28" stroke="#20231f" stroke-width="1.15" opacity="0.18" clip-path="url(#clip-130)"/>
  <line x1="130" y1="275.7" x2="560" y2="221.7" stroke="#20231f" stroke-width="1.15" opacity="0.18" clip-path="url(#clip-130)"/>
  <line x1="130" y1="310.09" x2="560" y2="288.32" stroke="#20231f" stroke-width="1.15" opacity="0.18" clip-path="url(#clip-130)"/>
  <line x1="130" y1="277.97" x2="560" y2="272.18" stroke="#20231f" stroke-width="1.15" opacity="0.18" clip-path="url(#clip-130)"/>
  <line x1="130" y1="505.01" x2="560" y2="-41.95" stroke="#20231f" stroke-width="1.15" opacity="0.18" clip-path="url(#clip-130)"/>
  <line x1="130" y1="268.38" x2="560" y2="243.21" stroke="#20231f" stroke-width="1.15" opacity="0.18" clip-path="url(#clip-130)"/>
  <line x1="130" y1="134.72" x2="560" y2="418.63" stroke="#20231f" stroke-width="1.15" opacity="0.18" clip-path="url(#clip-130)"/>
  <line x1="130" y1="211.2" x2="560" y2="326.83" stroke="#20231f" stroke-width="1.15" opacity="0.18" clip-path="url(#clip-130)"/>
  <line x1="130" y1="487" x2="560" y2="-7.78" stroke="#20231f" stroke-width="1.15" opacity="0.18" clip-path="url(#clip-130)"/>
  <line x1="130" y1="324.79" x2="560" y2="172.16" stroke="#20231f" stroke-width="1.15" opacity="0.18" clip-path="url(#clip-130)"/>
  <line x1="130" y1="112.86" x2="560" y2="466.65" stroke="#20231f" stroke-width="1.15" opacity="0.18" clip-path="url(#clip-130)"/>
  <line x1="130" y1="210.74" x2="560" y2="378.51" stroke="#20231f" stroke-width="1.15" opacity="0.18" clip-path="url(#clip-130)"/>
  <line x1="130" y1="205.03" x2="560" y2="333.66" stroke="#20231f" stroke-width="1.15" opacity="0.18" clip-path="url(#clip-130)"/>
  <line x1="130" y1="381.74" x2="560" y2="191.63" stroke="#20231f" stroke-width="1.15" opacity="0.18" clip-path="url(#clip-130)"/>
  <line x1="130" y1="345.52" x2="560" y2="227.39" stroke="#20231f" stroke-width="1.15" opacity="0.18" clip-path="url(#clip-130)"/>
  <line x1="130" y1="211.43" x2="560" y2="318.57" stroke="#20231f" stroke-width="1.15" opacity="0.18" clip-path="url(#clip-130)"/>
  <line x1="130" y1="146.94" x2="560" y2="423.8" stroke="#20231f" stroke-width="1.15" opacity="0.18" clip-path="url(#clip-130)"/>
  <line x1="130" y1="338.84" x2="560" y2="221.84" stroke="#20231f" stroke-width="1.15" opacity="0.18" clip-path="url(#clip-130)"/>
  <line x1="130" y1="160.3" x2="560" y2="365.68" stroke="#20231f" stroke-width="1.15" opacity="0.18" clip-path="url(#clip-130)"/>
  <line x1="130" y1="59.65" x2="560" y2="507.3" stroke="#20231f" stroke-width="1.15" opacity="0.18" clip-path="url(#clip-130)"/>
  <line x1="130" y1="65.18" x2="560" y2="452.81" stroke="#20231f" stroke-width="1.15" opacity="0.18" clip-path="url(#clip-130)"/>
  <line x1="130" y1="158.98" x2="560" y2="342.84" stroke="#20231f" stroke-width="1.15" opacity="0.18" clip-path="url(#clip-130)"/>
  <line x1="130" y1="375.72" x2="560" y2="144.79" stroke="#20231f" stroke-width="1.15" opacity="0.18" clip-path="url(#clip-130)"/>
  <line x1="130" y1="281.66" x2="560" y2="243.02" stroke="#20231f" stroke-width="1.15" opacity="0.18" clip-path="url(#clip-130)"/>
  <line x1="130" y1="402" x2="560" y2="402" stroke="#333630" stroke-width="1.6" stroke-dasharray="7 6"/>
  <line x1="130" y1="189.84" x2="560" y2="189.84" stroke="#333630" stroke-width="1.4"/>
  <line x1="130" y1="480" x2="130" y2="487" stroke="#333630"/>
  <text x="130" y="507" text-anchor="middle" font-family="PingFang SC, Noto Sans CJK SC, Microsoft YaHei, sans-serif" font-size="15" fill="#30332e">30</text>
  <line x1="197.19" y1="480" x2="197.19" y2="487" stroke="#333630"/>
  <text x="197.19" y="507" text-anchor="middle" font-family="PingFang SC, Noto Sans CJK SC, Microsoft YaHei, sans-serif" font-size="15" fill="#30332e">35</text>
  <line x1="264.38" y1="480" x2="264.38" y2="487" stroke="#333630"/>
  <text x="264.38" y="507" text-anchor="middle" font-family="PingFang SC, Noto Sans CJK SC, Microsoft YaHei, sans-serif" font-size="15" fill="#30332e">40</text>
  <line x1="331.56" y1="480" x2="331.56" y2="487" stroke="#333630"/>
  <text x="331.56" y="507" text-anchor="middle" font-family="PingFang SC, Noto Sans CJK SC, Microsoft YaHei, sans-serif" font-size="15" fill="#30332e">45</text>
  <line x1="398.75" y1="480" x2="398.75" y2="487" stroke="#333630"/>
  <text x="398.75" y="507" text-anchor="middle" font-family="PingFang SC, Noto Sans CJK SC, Microsoft YaHei, sans-serif" font-size="15" fill="#30332e">50</text>
  <line x1="465.94" y1="480" x2="465.94" y2="487" stroke="#333630"/>
  <text x="465.94" y="507" text-anchor="middle" font-family="PingFang SC, Noto Sans CJK SC, Microsoft YaHei, sans-serif" font-size="15" fill="#30332e">55</text>
  <line x1="533.12" y1="480" x2="533.12" y2="487" stroke="#333630"/>
  <text x="533.12" y="507" text-anchor="middle" font-family="PingFang SC, Noto Sans CJK SC, Microsoft YaHei, sans-serif" font-size="15" fill="#30332e">60</text>
  <line x1="123" y1="480" x2="130" y2="480" stroke="#333630"/>
  <text x="116" y="485" text-anchor="end" font-family="PingFang SC, Noto Sans CJK SC, Microsoft YaHei, sans-serif" font-size="15" fill="#30332e">-100</text>
  <line x1="123" y1="402" x2="130" y2="402" stroke="#333630"/>
  <text x="116" y="407" text-anchor="end" font-family="PingFang SC, Noto Sans CJK SC, Microsoft YaHei, sans-serif" font-size="15" fill="#30332e">0</text>
  <line x1="123" y1="324" x2="130" y2="324" stroke="#333630"/>
  <text x="116" y="329" text-anchor="end" font-family="PingFang SC, Noto Sans CJK SC, Microsoft YaHei, sans-serif" font-size="15" fill="#30332e">100</text>
  <line x1="123" y1="246" x2="130" y2="246" stroke="#333630"/>
  <text x="116" y="251" text-anchor="end" font-family="PingFang SC, Noto Sans CJK SC, Microsoft YaHei, sans-serif" font-size="15" fill="#30332e">200</text>
  <line x1="123" y1="168" x2="130" y2="168" stroke="#333630"/>
  <text x="116" y="173" text-anchor="end" font-family="PingFang SC, Noto Sans CJK SC, Microsoft YaHei, sans-serif" font-size="15" fill="#30332e">300</text>
  <line x1="123" y1="90" x2="130" y2="90" stroke="#333630"/>
  <text x="116" y="95" text-anchor="end" font-family="PingFang SC, Noto Sans CJK SC, Microsoft YaHei, sans-serif" font-size="15" fill="#30332e">400</text>
  <text x="345.0" y="542" text-anchor="middle" font-family="PingFang SC, Noto Sans CJK SC, Microsoft YaHei, sans-serif" font-size="18" fill="#30332e">体重（千克）</text>
  <text x="68" y="285.0" transform="rotate(-90 68 285.0)" text-anchor="middle" font-family="PingFang SC, Noto Sans CJK SC, Microsoft YaHei, sans-serif" font-size="18" fill="#30332e">身高（厘米）</text>
  <text x="915.0" y="42" text-anchor="middle" font-family="PingFang SC, Noto Sans CJK SC, Microsoft YaHei, sans-serif" font-size="22" font-weight="700" fill="#263f86">log(β) ∼ Normal(0, 1)</text>
  <defs><clipPath id="clip-700"><rect x="700" y="90" width="430" height="390"/></clipPath></defs>
  <rect x="700" y="90" width="430" height="390" fill="#ffffff" stroke="#333630" stroke-width="2"/>
  <line x1="700" y1="312.72" x2="1130" y2="263.51" stroke="#20231f" stroke-width="1.15" opacity="0.18" clip-path="url(#clip-700)"/>
  <line x1="700" y1="318.55" x2="1130" y2="233.27" stroke="#20231f" stroke-width="1.15" opacity="0.18" clip-path="url(#clip-700)"/>
  <line x1="700" y1="270" x2="1130" y2="244.11" stroke="#20231f" stroke-width="1.15" opacity="0.18" clip-path="url(#clip-700)"/>
  <line x1="700" y1="268.13" x2="1130" y2="251.97" stroke="#20231f" stroke-width="1.15" opacity="0.18" clip-path="url(#clip-700)"/>
  <line x1="700" y1="286.64" x2="1130" y2="275.78" stroke="#20231f" stroke-width="1.15" opacity="0.18" clip-path="url(#clip-700)"/>
  <line x1="700" y1="262.92" x2="1130" y2="256.46" stroke="#20231f" stroke-width="1.15" opacity="0.18" clip-path="url(#clip-700)"/>
  <line x1="700" y1="281.79" x2="1130" y2="274.52" stroke="#20231f" stroke-width="1.15" opacity="0.18" clip-path="url(#clip-700)"/>
  <line x1="700" y1="281.88" x2="1130" y2="244.4" stroke="#20231f" stroke-width="1.15" opacity="0.18" clip-path="url(#clip-700)"/>
  <line x1="700" y1="260.44" x2="1130" y2="245.89" stroke="#20231f" stroke-width="1.15" opacity="0.18" clip-path="url(#clip-700)"/>
  <line x1="700" y1="329.74" x2="1130" y2="208.87" stroke="#20231f" stroke-width="1.15" opacity="0.18" clip-path="url(#clip-700)"/>
  <line x1="700" y1="329.77" x2="1130" y2="255.35" stroke="#20231f" stroke-width="1.15" opacity="0.18" clip-path="url(#clip-700)"/>
  <line x1="700" y1="267.93" x2="1130" y2="227.65" stroke="#20231f" stroke-width="1.15" opacity="0.18" clip-path="url(#clip-700)"/>
  <line x1="700" y1="272.8" x2="1130" y2="243.39" stroke="#20231f" stroke-width="1.15" opacity="0.18" clip-path="url(#clip-700)"/>
  <line x1="700" y1="272.38" x2="1130" y2="258.16" stroke="#20231f" stroke-width="1.15" opacity="0.18" clip-path="url(#clip-700)"/>
  <line x1="700" y1="302.66" x2="1130" y2="291.66" stroke="#20231f" stroke-width="1.15" opacity="0.18" clip-path="url(#clip-700)"/>
  <line x1="700" y1="316.93" x2="1130" y2="244.36" stroke="#20231f" stroke-width="1.15" opacity="0.18" clip-path="url(#clip-700)"/>
  <line x1="700" y1="314.17" x2="1130" y2="257.01" stroke="#20231f" stroke-width="1.15" opacity="0.18" clip-path="url(#clip-700)"/>
  <line x1="700" y1="248.52" x2="1130" y2="222.26" stroke="#20231f" stroke-width="1.15" opacity="0.18" clip-path="url(#clip-700)"/>
  <line x1="700" y1="263.64" x2="1130" y2="253.96" stroke="#20231f" stroke-width="1.15" opacity="0.18" clip-path="url(#clip-700)"/>
  <line x1="700" y1="270.82" x2="1130" y2="245.14" stroke="#20231f" stroke-width="1.15" opacity="0.18" clip-path="url(#clip-700)"/>
  <line x1="700" y1="316.19" x2="1130" y2="247.69" stroke="#20231f" stroke-width="1.15" opacity="0.18" clip-path="url(#clip-700)"/>
  <line x1="700" y1="276.95" x2="1130" y2="245.43" stroke="#20231f" stroke-width="1.15" opacity="0.18" clip-path="url(#clip-700)"/>
  <line x1="700" y1="264.34" x2="1130" y2="249.8" stroke="#20231f" stroke-width="1.15" opacity="0.18" clip-path="url(#clip-700)"/>
  <line x1="700" y1="251.73" x2="1130" y2="237.17" stroke="#20231f" stroke-width="1.15" opacity="0.18" clip-path="url(#clip-700)"/>
  <line x1="700" y1="265.32" x2="1130" y2="252.87" stroke="#20231f" stroke-width="1.15" opacity="0.18" clip-path="url(#clip-700)"/>
  <line x1="700" y1="260.05" x2="1130" y2="234.39" stroke="#20231f" stroke-width="1.15" opacity="0.18" clip-path="url(#clip-700)"/>
  <line x1="700" y1="257.67" x2="1130" y2="242.18" stroke="#20231f" stroke-width="1.15" opacity="0.18" clip-path="url(#clip-700)"/>
  <line x1="700" y1="295.74" x2="1130" y2="239.18" stroke="#20231f" stroke-width="1.15" opacity="0.18" clip-path="url(#clip-700)"/>
  <line x1="700" y1="264.7" x2="1130" y2="240.76" stroke="#20231f" stroke-width="1.15" opacity="0.18" clip-path="url(#clip-700)"/>
  <line x1="700" y1="281.84" x2="1130" y2="252.4" stroke="#20231f" stroke-width="1.15" opacity="0.18" clip-path="url(#clip-700)"/>
  <line x1="700" y1="277.4" x2="1130" y2="259.05" stroke="#20231f" stroke-width="1.15" opacity="0.18" clip-path="url(#clip-700)"/>
  <line x1="700" y1="302.09" x2="1130" y2="208.27" stroke="#20231f" stroke-width="1.15" opacity="0.18" clip-path="url(#clip-700)"/>
  <line x1="700" y1="253.23" x2="1130" y2="241.85" stroke="#20231f" stroke-width="1.15" opacity="0.18" clip-path="url(#clip-700)"/>
  <line x1="700" y1="306.28" x2="1130" y2="278.01" stroke="#20231f" stroke-width="1.15" opacity="0.18" clip-path="url(#clip-700)"/>
  <line x1="700" y1="262.05" x2="1130" y2="252.69" stroke="#20231f" stroke-width="1.15" opacity="0.18" clip-path="url(#clip-700)"/>
  <line x1="700" y1="243.53" x2="1130" y2="229.44" stroke="#20231f" stroke-width="1.15" opacity="0.18" clip-path="url(#clip-700)"/>
  <line x1="700" y1="290.71" x2="1130" y2="221.86" stroke="#20231f" stroke-width="1.15" opacity="0.18" clip-path="url(#clip-700)"/>
  <line x1="700" y1="289.34" x2="1130" y2="249.81" stroke="#20231f" stroke-width="1.15" opacity="0.18" clip-path="url(#clip-700)"/>
  <line x1="700" y1="284.03" x2="1130" y2="264.95" stroke="#20231f" stroke-width="1.15" opacity="0.18" clip-path="url(#clip-700)"/>
  <line x1="700" y1="347.94" x2="1130" y2="229.29" stroke="#20231f" stroke-width="1.15" opacity="0.18" clip-path="url(#clip-700)"/>
  <line x1="700" y1="305.79" x2="1130" y2="235.12" stroke="#20231f" stroke-width="1.15" opacity="0.18" clip-path="url(#clip-700)"/>
  <line x1="700" y1="275.22" x2="1130" y2="263.22" stroke="#20231f" stroke-width="1.15" opacity="0.18" clip-path="url(#clip-700)"/>
  <line x1="700" y1="273.17" x2="1130" y2="266.68" stroke="#20231f" stroke-width="1.15" opacity="0.18" clip-path="url(#clip-700)"/>
  <line x1="700" y1="276.65" x2="1130" y2="256.2" stroke="#20231f" stroke-width="1.15" opacity="0.18" clip-path="url(#clip-700)"/>
  <line x1="700" y1="286.52" x2="1130" y2="266.66" stroke="#20231f" stroke-width="1.15" opacity="0.18" clip-path="url(#clip-700)"/>
  <line x1="700" y1="271.65" x2="1130" y2="269.54" stroke="#20231f" stroke-width="1.15" opacity="0.18" clip-path="url(#clip-700)"/>
  <line x1="700" y1="270.86" x2="1130" y2="235.71" stroke="#20231f" stroke-width="1.15" opacity="0.18" clip-path="url(#clip-700)"/>
  <line x1="700" y1="274.5" x2="1130" y2="257.6" stroke="#20231f" stroke-width="1.15" opacity="0.18" clip-path="url(#clip-700)"/>
  <line x1="700" y1="252.34" x2="1130" y2="247.27" stroke="#20231f" stroke-width="1.15" opacity="0.18" clip-path="url(#clip-700)"/>
  <line x1="700" y1="284.13" x2="1130" y2="255.83" stroke="#20231f" stroke-width="1.15" opacity="0.18" clip-path="url(#clip-700)"/>
  <line x1="700" y1="279.11" x2="1130" y2="228.57" stroke="#20231f" stroke-width="1.15" opacity="0.18" clip-path="url(#clip-700)"/>
  <line x1="700" y1="312.99" x2="1130" y2="261.03" stroke="#20231f" stroke-width="1.15" opacity="0.18" clip-path="url(#clip-700)"/>
  <line x1="700" y1="316.89" x2="1130" y2="249.86" stroke="#20231f" stroke-width="1.15" opacity="0.18" clip-path="url(#clip-700)"/>
  <line x1="700" y1="262.82" x2="1130" y2="240.31" stroke="#20231f" stroke-width="1.15" opacity="0.18" clip-path="url(#clip-700)"/>
  <line x1="700" y1="298.27" x2="1130" y2="269.46" stroke="#20231f" stroke-width="1.15" opacity="0.18" clip-path="url(#clip-700)"/>
  <line x1="700" y1="255.97" x2="1130" y2="250.3" stroke="#20231f" stroke-width="1.15" opacity="0.18" clip-path="url(#clip-700)"/>
  <line x1="700" y1="264.01" x2="1130" y2="254.59" stroke="#20231f" stroke-width="1.15" opacity="0.18" clip-path="url(#clip-700)"/>
  <line x1="700" y1="284.39" x2="1130" y2="276.6" stroke="#20231f" stroke-width="1.15" opacity="0.18" clip-path="url(#clip-700)"/>
  <line x1="700" y1="250.89" x2="1130" y2="228.72" stroke="#20231f" stroke-width="1.15" opacity="0.18" clip-path="url(#clip-700)"/>
  <line x1="700" y1="312.33" x2="1130" y2="185.78" stroke="#20231f" stroke-width="1.15" opacity="0.18" clip-path="url(#clip-700)"/>
  <line x1="700" y1="347.94" x2="1130" y2="237.07" stroke="#20231f" stroke-width="1.15" opacity="0.18" clip-path="url(#clip-700)"/>
  <line x1="700" y1="262.28" x2="1130" y2="252.39" stroke="#20231f" stroke-width="1.15" opacity="0.18" clip-path="url(#clip-700)"/>
  <line x1="700" y1="274.21" x2="1130" y2="251.7" stroke="#20231f" stroke-width="1.15" opacity="0.18" clip-path="url(#clip-700)"/>
  <line x1="700" y1="261.45" x2="1130" y2="255.3" stroke="#20231f" stroke-width="1.15" opacity="0.18" clip-path="url(#clip-700)"/>
  <line x1="700" y1="254.83" x2="1130" y2="247.24" stroke="#20231f" stroke-width="1.15" opacity="0.18" clip-path="url(#clip-700)"/>
  <line x1="700" y1="295.63" x2="1130" y2="248.85" stroke="#20231f" stroke-width="1.15" opacity="0.18" clip-path="url(#clip-700)"/>
  <line x1="700" y1="287.68" x2="1130" y2="262.41" stroke="#20231f" stroke-width="1.15" opacity="0.18" clip-path="url(#clip-700)"/>
  <line x1="700" y1="314.48" x2="1130" y2="213.53" stroke="#20231f" stroke-width="1.15" opacity="0.18" clip-path="url(#clip-700)"/>
  <line x1="700" y1="286.39" x2="1130" y2="271.04" stroke="#20231f" stroke-width="1.15" opacity="0.18" clip-path="url(#clip-700)"/>
  <line x1="700" y1="257.56" x2="1130" y2="217.75" stroke="#20231f" stroke-width="1.15" opacity="0.18" clip-path="url(#clip-700)"/>
  <line x1="700" y1="260.25" x2="1130" y2="242.23" stroke="#20231f" stroke-width="1.15" opacity="0.18" clip-path="url(#clip-700)"/>
  <line x1="700" y1="261.97" x2="1130" y2="256.18" stroke="#20231f" stroke-width="1.15" opacity="0.18" clip-path="url(#clip-700)"/>
  <line x1="700" y1="245.72" x2="1130" y2="234.13" stroke="#20231f" stroke-width="1.15" opacity="0.18" clip-path="url(#clip-700)"/>
  <line x1="700" y1="259.75" x2="1130" y2="246.08" stroke="#20231f" stroke-width="1.15" opacity="0.18" clip-path="url(#clip-700)"/>
  <line x1="700" y1="276.66" x2="1130" y2="268.8" stroke="#20231f" stroke-width="1.15" opacity="0.18" clip-path="url(#clip-700)"/>
  <line x1="700" y1="246.38" x2="1130" y2="241.58" stroke="#20231f" stroke-width="1.15" opacity="0.18" clip-path="url(#clip-700)"/>
  <line x1="700" y1="296.61" x2="1130" y2="283.26" stroke="#20231f" stroke-width="1.15" opacity="0.18" clip-path="url(#clip-700)"/>
  <line x1="700" y1="264.92" x2="1130" y2="233.93" stroke="#20231f" stroke-width="1.15" opacity="0.18" clip-path="url(#clip-700)"/>
  <line x1="700" y1="312.65" x2="1130" y2="285.42" stroke="#20231f" stroke-width="1.15" opacity="0.18" clip-path="url(#clip-700)"/>
  <line x1="700" y1="287.23" x2="1130" y2="261.68" stroke="#20231f" stroke-width="1.15" opacity="0.18" clip-path="url(#clip-700)"/>
  <line x1="700" y1="353.3" x2="1130" y2="129.99" stroke="#20231f" stroke-width="1.15" opacity="0.18" clip-path="url(#clip-700)"/>
  <line x1="700" y1="269.52" x2="1130" y2="241.91" stroke="#20231f" stroke-width="1.15" opacity="0.18" clip-path="url(#clip-700)"/>
  <line x1="700" y1="271.55" x2="1130" y2="263.55" stroke="#20231f" stroke-width="1.15" opacity="0.18" clip-path="url(#clip-700)"/>
  <line x1="700" y1="272.76" x2="1130" y2="257.05" stroke="#20231f" stroke-width="1.15" opacity="0.18" clip-path="url(#clip-700)"/>
  <line x1="700" y1="340" x2="1130" y2="158.82" stroke="#20231f" stroke-width="1.15" opacity="0.18" clip-path="url(#clip-700)"/>
  <line x1="700" y1="274.81" x2="1130" y2="228.8" stroke="#20231f" stroke-width="1.15" opacity="0.18" clip-path="url(#clip-700)"/>
  <line x1="700" y1="281.53" x2="1130" y2="275.48" stroke="#20231f" stroke-width="1.15" opacity="0.18" clip-path="url(#clip-700)"/>
  <line x1="700" y1="295.35" x2="1130" y2="282.61" stroke="#20231f" stroke-width="1.15" opacity="0.18" clip-path="url(#clip-700)"/>
  <line x1="700" y1="272.31" x2="1130" y2="257.4" stroke="#20231f" stroke-width="1.15" opacity="0.18" clip-path="url(#clip-700)"/>
  <line x1="700" y1="317.69" x2="1130" y2="264.23" stroke="#20231f" stroke-width="1.15" opacity="0.18" clip-path="url(#clip-700)"/>
  <line x1="700" y1="308.93" x2="1130" y2="268.86" stroke="#20231f" stroke-width="1.15" opacity="0.18" clip-path="url(#clip-700)"/>
  <line x1="700" y1="269.27" x2="1130" y2="253.02" stroke="#20231f" stroke-width="1.15" opacity="0.18" clip-path="url(#clip-700)"/>
  <line x1="700" y1="280.57" x2="1130" y2="272.34" stroke="#20231f" stroke-width="1.15" opacity="0.18" clip-path="url(#clip-700)"/>
  <line x1="700" y1="302.69" x2="1130" y2="262.81" stroke="#20231f" stroke-width="1.15" opacity="0.18" clip-path="url(#clip-700)"/>
  <line x1="700" y1="261.71" x2="1130" y2="250.75" stroke="#20231f" stroke-width="1.15" opacity="0.18" clip-path="url(#clip-700)"/>
  <line x1="700" y1="271.43" x2="1130" y2="267.28" stroke="#20231f" stroke-width="1.15" opacity="0.18" clip-path="url(#clip-700)"/>
  <line x1="700" y1="249.35" x2="1130" y2="244.07" stroke="#20231f" stroke-width="1.15" opacity="0.18" clip-path="url(#clip-700)"/>
  <line x1="700" y1="250.77" x2="1130" y2="238.82" stroke="#20231f" stroke-width="1.15" opacity="0.18" clip-path="url(#clip-700)"/>
  <line x1="700" y1="296.98" x2="1130" y2="234.03" stroke="#20231f" stroke-width="1.15" opacity="0.18" clip-path="url(#clip-700)"/>
  <line x1="700" y1="277.2" x2="1130" y2="248.07" stroke="#20231f" stroke-width="1.15" opacity="0.18" clip-path="url(#clip-700)"/>
  <line x1="700" y1="402" x2="1130" y2="402" stroke="#333630" stroke-width="1.6" stroke-dasharray="7 6"/>
  <line x1="700" y1="189.84" x2="1130" y2="189.84" stroke="#333630" stroke-width="1.4"/>
  <line x1="700" y1="480" x2="700" y2="487" stroke="#333630"/>
  <text x="700" y="507" text-anchor="middle" font-family="PingFang SC, Noto Sans CJK SC, Microsoft YaHei, sans-serif" font-size="15" fill="#30332e">30</text>
  <line x1="767.19" y1="480" x2="767.19" y2="487" stroke="#333630"/>
  <text x="767.19" y="507" text-anchor="middle" font-family="PingFang SC, Noto Sans CJK SC, Microsoft YaHei, sans-serif" font-size="15" fill="#30332e">35</text>
  <line x1="834.38" y1="480" x2="834.38" y2="487" stroke="#333630"/>
  <text x="834.38" y="507" text-anchor="middle" font-family="PingFang SC, Noto Sans CJK SC, Microsoft YaHei, sans-serif" font-size="15" fill="#30332e">40</text>
  <line x1="901.56" y1="480" x2="901.56" y2="487" stroke="#333630"/>
  <text x="901.56" y="507" text-anchor="middle" font-family="PingFang SC, Noto Sans CJK SC, Microsoft YaHei, sans-serif" font-size="15" fill="#30332e">45</text>
  <line x1="968.75" y1="480" x2="968.75" y2="487" stroke="#333630"/>
  <text x="968.75" y="507" text-anchor="middle" font-family="PingFang SC, Noto Sans CJK SC, Microsoft YaHei, sans-serif" font-size="15" fill="#30332e">50</text>
  <line x1="1035.94" y1="480" x2="1035.94" y2="487" stroke="#333630"/>
  <text x="1035.94" y="507" text-anchor="middle" font-family="PingFang SC, Noto Sans CJK SC, Microsoft YaHei, sans-serif" font-size="15" fill="#30332e">55</text>
  <line x1="1103.12" y1="480" x2="1103.12" y2="487" stroke="#333630"/>
  <text x="1103.12" y="507" text-anchor="middle" font-family="PingFang SC, Noto Sans CJK SC, Microsoft YaHei, sans-serif" font-size="15" fill="#30332e">60</text>
  <line x1="693" y1="480" x2="700" y2="480" stroke="#333630"/>
  <text x="686" y="485" text-anchor="end" font-family="PingFang SC, Noto Sans CJK SC, Microsoft YaHei, sans-serif" font-size="15" fill="#30332e">-100</text>
  <line x1="693" y1="402" x2="700" y2="402" stroke="#333630"/>
  <text x="686" y="407" text-anchor="end" font-family="PingFang SC, Noto Sans CJK SC, Microsoft YaHei, sans-serif" font-size="15" fill="#30332e">0</text>
  <line x1="693" y1="324" x2="700" y2="324" stroke="#333630"/>
  <text x="686" y="329" text-anchor="end" font-family="PingFang SC, Noto Sans CJK SC, Microsoft YaHei, sans-serif" font-size="15" fill="#30332e">100</text>
  <line x1="693" y1="246" x2="700" y2="246" stroke="#333630"/>
  <text x="686" y="251" text-anchor="end" font-family="PingFang SC, Noto Sans CJK SC, Microsoft YaHei, sans-serif" font-size="15" fill="#30332e">200</text>
  <line x1="693" y1="168" x2="700" y2="168" stroke="#333630"/>
  <text x="686" y="173" text-anchor="end" font-family="PingFang SC, Noto Sans CJK SC, Microsoft YaHei, sans-serif" font-size="15" fill="#30332e">300</text>
  <line x1="693" y1="90" x2="700" y2="90" stroke="#333630"/>
  <text x="686" y="95" text-anchor="end" font-family="PingFang SC, Noto Sans CJK SC, Microsoft YaHei, sans-serif" font-size="15" fill="#30332e">400</text>
  <text x="915.0" y="542" text-anchor="middle" font-family="PingFang SC, Noto Sans CJK SC, Microsoft YaHei, sans-serif" font-size="18" fill="#30332e">体重（千克）</text>
  <text x="638" y="285.0" transform="rotate(-90 638 285.0)" text-anchor="middle" font-family="PingFang SC, Noto Sans CJK SC, Microsoft YaHei, sans-serif" font-size="18" fill="#30332e">身高（厘米）</text>
  <text x="714" y="180.84" font-family="PingFang SC, Noto Sans CJK SC, Microsoft YaHei, sans-serif" font-size="14" fill="#30332e">最高个体（272 厘米）</text>
  <text x="714" y="422" font-family="PingFang SC, Noto Sans CJK SC, Microsoft YaHei, sans-serif" font-size="14" fill="#30332e">胚胎</text>
  <text x="600.0" y="632" text-anchor="middle" font-family="PingFang SC, Noto Sans CJK SC, Microsoft YaHei, sans-serif" font-size="16" fill="#656963">每个面板绘制由 α 与 β 先验共同产生的 100 条身高-体重关系线</text>
</svg>
