<?xml version="1.0" encoding="UTF-8"?>
<svg xmlns="http://www.w3.org/2000/svg" width="900" height="500" viewBox="0 0 900 500" role="img">
  <title>九次地球仪投掷的模拟水域次数</title>
  <desc>十万次模拟中，水域次数集中在六次和七次，假设真实水域比例为零点七。</desc>
  <rect width="100%" height="100%" fill="#ffffff"/>
  <rect x="105" y="55" width="720" height="335" fill="#fff" stroke="#363934" stroke-width="1.3"/>
  <rect x="117.96" y="389.98" width="46.08" height="0.02" fill="#6670ee" opacity="0.88"/>
  <line x1="141" y1="390" x2="141" y2="397" stroke="#363934"/>
  <text x="141" y="418" text-anchor="middle" font-family="-apple-system,BlinkMacSystemFont,PingFang SC,Noto Sans CJK SC,sans-serif" font-size="14" fill="#30332e">0</text>
  <rect x="189.96" y="389.54" width="46.08" height="0.46" fill="#6670ee" opacity="0.88"/>
  <line x1="213" y1="390" x2="213" y2="397" stroke="#363934"/>
  <text x="213" y="418" text-anchor="middle" font-family="-apple-system,BlinkMacSystemFont,PingFang SC,Noto Sans CJK SC,sans-serif" font-size="14" fill="#30332e">1</text>
  <rect x="261.96" y="385.69" width="46.08" height="4.31" fill="#6670ee" opacity="0.88"/>
  <line x1="285" y1="390" x2="285" y2="397" stroke="#363934"/>
  <text x="285" y="418" text-anchor="middle" font-family="-apple-system,BlinkMacSystemFont,PingFang SC,Noto Sans CJK SC,sans-serif" font-size="14" fill="#30332e">2</text>
  <rect x="333.96" y="366.55" width="46.08" height="23.45" fill="#6670ee" opacity="0.88"/>
  <line x1="357" y1="390" x2="357" y2="397" stroke="#363934"/>
  <text x="357" y="418" text-anchor="middle" font-family="-apple-system,BlinkMacSystemFont,PingFang SC,Noto Sans CJK SC,sans-serif" font-size="14" fill="#30332e">3</text>
  <rect x="405.96" y="307.91" width="46.08" height="82.09" fill="#6670ee" opacity="0.88"/>
  <line x1="429" y1="390" x2="429" y2="397" stroke="#363934"/>
  <text x="429" y="418" text-anchor="middle" font-family="-apple-system,BlinkMacSystemFont,PingFang SC,Noto Sans CJK SC,sans-serif" font-size="14" fill="#30332e">4</text>
  <rect x="477.96" y="198.46" width="46.08" height="191.54" fill="#6670ee" opacity="0.88"/>
  <line x1="501" y1="390" x2="501" y2="397" stroke="#363934"/>
  <text x="501" y="418" text-anchor="middle" font-family="-apple-system,BlinkMacSystemFont,PingFang SC,Noto Sans CJK SC,sans-serif" font-size="14" fill="#30332e">5</text>
  <rect x="549.96" y="92.04" width="46.08" height="297.96" fill="#6670ee" opacity="0.88"/>
  <line x1="573" y1="390" x2="573" y2="397" stroke="#363934"/>
  <text x="573" y="418" text-anchor="middle" font-family="-apple-system,BlinkMacSystemFont,PingFang SC,Noto Sans CJK SC,sans-serif" font-size="14" fill="#30332e">6</text>
  <rect x="621.96" y="92.04" width="46.08" height="297.96" fill="#6670ee" opacity="0.88"/>
  <line x1="645" y1="390" x2="645" y2="397" stroke="#363934"/>
  <text x="645" y="418" text-anchor="middle" font-family="-apple-system,BlinkMacSystemFont,PingFang SC,Noto Sans CJK SC,sans-serif" font-size="14" fill="#30332e">7</text>
  <rect x="693.96" y="216.19" width="46.08" height="173.81" fill="#6670ee" opacity="0.88"/>
  <line x1="717" y1="390" x2="717" y2="397" stroke="#363934"/>
  <text x="717" y="418" text-anchor="middle" font-family="-apple-system,BlinkMacSystemFont,PingFang SC,Noto Sans CJK SC,sans-serif" font-size="14" fill="#30332e">8</text>
  <rect x="765.96" y="344.94" width="46.08" height="45.06" fill="#6670ee" opacity="0.88"/>
  <line x1="789" y1="390" x2="789" y2="397" stroke="#363934"/>
  <text x="789" y="418" text-anchor="middle" font-family="-apple-system,BlinkMacSystemFont,PingFang SC,Noto Sans CJK SC,sans-serif" font-size="14" fill="#30332e">9</text>
  <line x1="98" y1="390" x2="105" y2="390" stroke="#363934"/>
  <text x="92" y="395" text-anchor="end" font-family="-apple-system,BlinkMacSystemFont,PingFang SC,Noto Sans CJK SC,sans-serif" font-size="14" fill="#30332e">0</text>
  <line x1="98" y1="334.17" x2="105" y2="334.17" stroke="#363934"/>
  <text x="92" y="339.17" text-anchor="end" font-family="-apple-system,BlinkMacSystemFont,PingFang SC,Noto Sans CJK SC,sans-serif" font-size="14" fill="#30332e">5,000</text>
  <line x1="98" y1="278.33" x2="105" y2="278.33" stroke="#363934"/>
  <text x="92" y="283.33" text-anchor="end" font-family="-apple-system,BlinkMacSystemFont,PingFang SC,Noto Sans CJK SC,sans-serif" font-size="14" fill="#30332e">10,000</text>
  <line x1="98" y1="222.5" x2="105" y2="222.5" stroke="#363934"/>
  <text x="92" y="227.5" text-anchor="end" font-family="-apple-system,BlinkMacSystemFont,PingFang SC,Noto Sans CJK SC,sans-serif" font-size="14" fill="#30332e">15,000</text>
  <line x1="98" y1="166.67" x2="105" y2="166.67" stroke="#363934"/>
  <text x="92" y="171.67" text-anchor="end" font-family="-apple-system,BlinkMacSystemFont,PingFang SC,Noto Sans CJK SC,sans-serif" font-size="14" fill="#30332e">20,000</text>
  <line x1="98" y1="110.83" x2="105" y2="110.83" stroke="#363934"/>
  <text x="92" y="115.83" text-anchor="end" font-family="-apple-system,BlinkMacSystemFont,PingFang SC,Noto Sans CJK SC,sans-serif" font-size="14" fill="#30332e">25,000</text>
  <line x1="98" y1="55" x2="105" y2="55" stroke="#363934"/>
  <text x="92" y="60" text-anchor="end" font-family="-apple-system,BlinkMacSystemFont,PingFang SC,Noto Sans CJK SC,sans-serif" font-size="14" fill="#30332e">30,000</text>
  <text x="465" y="455" text-anchor="middle" font-family="-apple-system,BlinkMacSystemFont,PingFang SC,Noto Sans CJK SC,sans-serif" font-size="18" fill="#30332e">模拟水域次数</text>
  <text x="34" y="222.5" transform="rotate(-90 34 222.5)" text-anchor="middle" font-family="-apple-system,BlinkMacSystemFont,PingFang SC,Noto Sans CJK SC,sans-serif" font-size="18" fill="#30332e">频数</text>
</svg>
