<svg xmlns="http://www.w3.org/2000/svg" width="1200" height="650" viewBox="0 0 1200 650" role="img">
<title>图 12.2：纯 Poisson 与 gamma-Poisson 的大洋洲工具模型比较</title>
<desc>两个面板都显示人口与工具总数的关系。左侧纯 Poisson 模型受 Hawaii 强烈影响，右侧 gamma-Poisson 模型的预测区间更宽，两种接触率趋势也更接近。</desc>
<rect width="100%" height="100%" fill="#fbfaf6"/>
<defs>
<clipPath id="chapter12-panel-0"><rect x="113" y="78" width="467" height="457"/></clipPath>
<clipPath id="chapter12-panel-1"><rect x="703" y="78" width="467" height="457"/></clipPath>
</defs>
<text x="346.5" y="40.0" text-anchor="middle" font-family="-apple-system,BlinkMacSystemFont,PingFang SC,Noto Sans CJK SC,sans-serif" font-size="24" font-weight="650" fill="#30332e">纯 Poisson 模型</text>
<rect x="35" y="55" width="545" height="520" rx="8" fill="#fff" stroke="#d9d5c8"/>
<line x1="113.0" y1="535" x2="113.0" y2="542" stroke="#30332e"/>
<text x="113.0" y="563.0" text-anchor="middle" font-family="-apple-system,BlinkMacSystemFont,PingFang SC,Noto Sans CJK SC,sans-serif" font-size="15" font-weight="400" fill="#30332e">0</text>
<line x1="190.8" y1="535" x2="190.8" y2="542" stroke="#30332e"/>
<text x="190.8" y="563.0" text-anchor="middle" font-family="-apple-system,BlinkMacSystemFont,PingFang SC,Noto Sans CJK SC,sans-serif" font-size="15" font-weight="400" fill="#30332e">5万</text>
<line x1="346.5" y1="535" x2="346.5" y2="542" stroke="#30332e"/>
<text x="346.5" y="563.0" text-anchor="middle" font-family="-apple-system,BlinkMacSystemFont,PingFang SC,Noto Sans CJK SC,sans-serif" font-size="15" font-weight="400" fill="#30332e">15万</text>
<line x1="502.2" y1="535" x2="502.2" y2="542" stroke="#30332e"/>
<text x="502.2" y="563.0" text-anchor="middle" font-family="-apple-system,BlinkMacSystemFont,PingFang SC,Noto Sans CJK SC,sans-serif" font-size="15" font-weight="400" fill="#30332e">25万</text>
<line x1="106" y1="535.0" x2="113" y2="535.0" stroke="#30332e"/>
<text x="101.0" y="540.0" text-anchor="end" font-family="-apple-system,BlinkMacSystemFont,PingFang SC,Noto Sans CJK SC,sans-serif" font-size="15" font-weight="400" fill="#30332e">10</text>
<line x1="113" y1="535.0" x2="580" y2="535.0" stroke="#d9d5c8" stroke-dasharray="4 7"/>
<line x1="106" y1="464.7" x2="113" y2="464.7" stroke="#30332e"/>
<text x="101.0" y="469.7" text-anchor="end" font-family="-apple-system,BlinkMacSystemFont,PingFang SC,Noto Sans CJK SC,sans-serif" font-size="15" font-weight="400" fill="#30332e">20</text>
<line x1="113" y1="464.7" x2="580" y2="464.7" stroke="#d9d5c8" stroke-dasharray="4 7"/>
<line x1="106" y1="394.4" x2="113" y2="394.4" stroke="#30332e"/>
<text x="101.0" y="399.4" text-anchor="end" font-family="-apple-system,BlinkMacSystemFont,PingFang SC,Noto Sans CJK SC,sans-serif" font-size="15" font-weight="400" fill="#30332e">30</text>
<line x1="113" y1="394.4" x2="580" y2="394.4" stroke="#d9d5c8" stroke-dasharray="4 7"/>
<line x1="106" y1="324.1" x2="113" y2="324.1" stroke="#30332e"/>
<text x="101.0" y="329.1" text-anchor="end" font-family="-apple-system,BlinkMacSystemFont,PingFang SC,Noto Sans CJK SC,sans-serif" font-size="15" font-weight="400" fill="#30332e">40</text>
<line x1="113" y1="324.1" x2="580" y2="324.1" stroke="#d9d5c8" stroke-dasharray="4 7"/>
<line x1="106" y1="253.8" x2="113" y2="253.8" stroke="#30332e"/>
<text x="101.0" y="258.8" text-anchor="end" font-family="-apple-system,BlinkMacSystemFont,PingFang SC,Noto Sans CJK SC,sans-serif" font-size="15" font-weight="400" fill="#30332e">50</text>
<line x1="113" y1="253.8" x2="580" y2="253.8" stroke="#d9d5c8" stroke-dasharray="4 7"/>
<line x1="106" y1="183.5" x2="113" y2="183.5" stroke="#30332e"/>
<text x="101.0" y="188.5" text-anchor="end" font-family="-apple-system,BlinkMacSystemFont,PingFang SC,Noto Sans CJK SC,sans-serif" font-size="15" font-weight="400" fill="#30332e">60</text>
<line x1="113" y1="183.5" x2="580" y2="183.5" stroke="#d9d5c8" stroke-dasharray="4 7"/>
<line x1="106" y1="113.2" x2="113" y2="113.2" stroke="#30332e"/>
<text x="101.0" y="118.2" text-anchor="end" font-family="-apple-system,BlinkMacSystemFont,PingFang SC,Noto Sans CJK SC,sans-serif" font-size="15" font-weight="400" fill="#30332e">70</text>
<line x1="113" y1="113.2" x2="580" y2="113.2" stroke="#d9d5c8" stroke-dasharray="4 7"/>
<line x1="113" y1="535" x2="580" y2="535" stroke="#30332e" stroke-width="1.7"/>
<line x1="113" y1="535" x2="113" y2="78" stroke="#30332e" stroke-width="1.7"/>
<text x="346.5" y="610.0" text-anchor="middle" font-family="-apple-system,BlinkMacSystemFont,PingFang SC,Noto Sans CJK SC,sans-serif" font-size="19" font-weight="400" fill="#30332e">人口</text>
<text x="57.0" y="306.5" text-anchor="middle" font-family="-apple-system,BlinkMacSystemFont,PingFang SC,Noto Sans CJK SC,sans-serif" font-size="19" font-weight="400" fill="#30332e" transform="rotate(-90 57 306.5)">工具总数</text>
<g clip-path="url(#chapter12-panel-0)">
<polygon points="114.6,386.6 117.5,303.2 120.4,248.7 123.3,205.6 126.3,169.2 129.2,137.2 132.1,108.4 135.0,82.0 138.0,57.7 140.9,34.9 143.8,13.5 146.8,-6.8 149.7,-26.1 152.6,-44.5 155.5,-62.1 158.5,-79.1 161.4,-95.4 164.3,-111.1 167.2,-126.4 170.2,-141.2 173.1,-155.5 176.0,-169.4 179.0,-183.0 181.9,-196.2 184.8,-209.1 187.7,-221.7 190.7,-234.1 193.6,-246.1 196.5,-257.9 199.4,-269.5 202.4,-280.8 205.3,-291.9 208.2,-302.9 211.2,-313.6 214.1,-324.1 217.0,-334.5 219.9,-344.7 222.9,-354.8 225.8,-364.6 228.7,-374.4 231.6,-384.0 234.6,-393.4 237.5,-402.8 240.4,-412.0 243.4,-421.1 246.3,-430.0 249.2,-438.9 252.1,-447.6 255.1,-456.3 258.0,-464.8 260.9,-473.2 263.8,-481.6 266.8,-489.8 269.7,-498.0 272.6,-506.0 275.6,-514.0 278.5,-521.9 281.4,-529.7 284.3,-537.4 287.3,-545.1 290.2,-552.7 293.1,-560.2 296.1,-567.7 299.0,-575.0 301.9,-582.3 304.8,-589.6 307.8,-596.8 310.7,-603.9 313.6,-610.9 316.5,-617.9 319.5,-624.9 322.4,-631.8 325.3,-638.6 328.3,-645.4 331.2,-652.1 334.1,-658.7 337.0,-665.4 340.0,-671.9 342.9,-678.4 345.8,-684.9 348.7,-691.3 351.7,-697.7 354.6,-704.0 357.5,-710.3 360.5,-716.6 363.4,-722.8 366.3,-728.9 369.2,-735.0 372.2,-741.1 375.1,-747.2 378.0,-753.2 380.9,-759.1 383.9,-765.0 386.8,-770.9 389.7,-776.8 392.7,-782.6 395.6,-788.4 398.5,-794.1 401.4,-799.8 404.4,-805.5 407.3,-811.1 410.2,-816.7 413.1,-822.3 416.1,-827.9 419.0,-833.4 421.9,-838.9 424.9,-844.3 427.8,-849.7 430.7,-855.1 433.6,-860.5 436.6,-865.8 439.5,-871.2 442.4,-876.4 445.3,-881.7 448.3,-886.9 451.2,-892.1 454.1,-897.3 457.1,-902.5 460.0,-907.6 462.9,-912.7 465.8,-917.8 468.8,-922.8 471.7,-927.8 474.6,-932.8 477.5,-937.8 480.5,-942.8 483.4,-947.7 486.3,-952.6 489.3,-957.5 492.2,-962.4 495.1,-967.2 498.0,-972.1 501.0,-976.9 503.9,-981.6 506.8,-986.4 509.7,-991.2 512.7,-995.9 515.6,-1000.6 518.5,-1005.3 521.5,-1009.9 524.4,-1014.6 527.3,-1019.2 530.2,-1023.8 533.2,-1028.4 536.1,-1032.9 539.0,-1037.5 541.9,-1042.0 544.9,-1046.5 547.8,-1051.0 550.7,-1055.5 553.7,-1060.0 556.6,-1064.4 559.5,-1068.8 562.4,-1073.2 565.4,-1077.6 568.3,-1082.0 571.2,-1086.4 574.1,-1090.7 577.1,-1095.0 580.0,-1099.4 580.0,-127.6 577.1,-125.8 574.1,-123.9 571.2,-121.9 568.3,-120.0 565.4,-118.1 562.4,-116.2 559.5,-114.2 556.6,-112.3 553.7,-110.4 550.7,-108.4 547.8,-106.4 544.9,-104.5 541.9,-102.5 539.0,-100.5 536.1,-98.5 533.2,-96.5 530.2,-94.5 527.3,-92.4 524.4,-90.4 521.5,-88.4 518.5,-86.3 515.6,-84.3 512.7,-82.2 509.7,-80.1 506.8,-78.1 503.9,-76.0 501.0,-73.9 498.0,-71.8 495.1,-69.6 492.2,-67.5 489.3,-65.4 486.3,-63.2 483.4,-61.1 480.5,-58.9 477.5,-56.7 474.6,-54.5 471.7,-52.3 468.8,-50.1 465.8,-47.9 462.9,-45.7 460.0,-43.5 457.1,-41.2 454.1,-38.9 451.2,-36.7 448.3,-34.4 445.3,-32.1 442.4,-29.8 439.5,-27.5 436.6,-25.1 433.6,-22.8 430.7,-20.4 427.8,-18.1 424.9,-15.7 421.9,-13.3 419.0,-10.9 416.1,-8.5 413.1,-6.0 410.2,-3.6 407.3,-1.1 404.4,1.4 401.4,3.9 398.5,6.4 395.6,8.9 392.7,11.4 389.7,14.0 386.8,16.5 383.9,19.1 380.9,21.7 378.0,24.3 375.1,27.0 372.2,29.6 369.2,32.3 366.3,35.0 363.4,37.7 360.5,40.4 357.5,43.1 354.6,45.9 351.7,48.7 348.7,51.5 345.8,54.3 342.9,57.1 340.0,60.0 337.0,62.9 334.1,65.8 331.2,68.7 328.3,71.7 325.3,74.6 322.4,77.6 319.5,80.7 316.5,83.7 313.6,86.8 310.7,89.9 307.8,93.0 304.8,96.2 301.9,99.3 299.0,102.5 296.1,105.8 293.1,109.0 290.2,112.3 287.3,115.7 284.3,119.0 281.4,122.4 278.5,125.9 275.6,129.3 272.6,132.8 269.7,136.4 266.8,140.0 263.8,143.6 260.9,147.2 258.0,150.9 255.1,154.7 252.1,158.5 249.2,162.3 246.3,166.2 243.4,170.1 240.4,174.1 237.5,178.2 234.6,182.3 231.6,186.4 228.7,190.6 225.8,194.9 222.9,199.2 219.9,203.7 217.0,208.1 214.1,212.7 211.2,217.3 208.2,222.0 205.3,226.8 202.4,231.7 199.4,236.7 196.5,241.8 193.6,246.9 190.7,252.2 187.7,257.6 184.8,263.2 181.9,268.8 179.0,274.6 176.0,280.6 173.1,286.7 170.2,293.0 167.2,299.5 164.3,306.2 161.4,313.1 158.5,320.3 155.5,327.7 152.6,335.5 149.7,343.5 146.8,352.0 143.8,360.9 140.9,370.3 138.0,380.3 135.0,391.0 132.1,402.6 129.2,415.2 126.3,429.3 123.3,445.3 120.4,464.2 117.5,488.1 114.6,524.7" fill="#d8d8d6"/>
<polygon points="114.6,416.6 117.5,371.7 120.4,346.6 123.3,328.3 126.3,313.8 129.2,301.6 132.1,291.0 135.0,281.6 138.0,273.1 140.9,265.4 143.8,258.3 146.8,251.7 149.7,245.6 152.6,239.8 155.5,234.4 158.5,229.2 161.4,224.3 164.3,219.6 167.2,215.1 170.2,210.8 173.1,206.7 176.0,202.7 179.0,198.9 181.9,195.2 184.8,191.6 187.7,188.2 190.7,184.8 193.6,181.5 196.5,178.4 199.4,175.3 202.4,172.3 205.3,169.4 208.2,166.5 211.2,163.7 214.1,161.0 217.0,158.3 219.9,155.7 222.9,153.2 225.8,150.7 228.7,148.2 231.6,145.8 234.6,143.5 237.5,141.2 240.4,138.9 243.4,136.7 246.3,134.5 249.2,132.4 252.1,130.2 255.1,128.2 258.0,126.1 260.9,124.1 263.8,122.1 266.8,120.2 269.7,118.3 272.6,116.4 275.6,114.5 278.5,112.7 281.4,110.8 284.3,109.0 287.3,107.3 290.2,105.5 293.1,103.8 296.1,102.1 299.0,100.4 301.9,98.8 304.8,97.1 307.8,95.5 310.7,93.9 313.6,92.3 316.5,90.8 319.5,89.2 322.4,87.7 325.3,86.2 328.3,84.7 331.2,83.2 334.1,81.7 337.0,80.3 340.0,78.9 342.9,77.4 345.8,76.0 348.7,74.6 351.7,73.3 354.6,71.9 357.5,70.5 360.5,69.2 363.4,67.9 366.3,66.6 369.2,65.3 372.2,64.0 375.1,62.7 378.0,61.4 380.9,60.2 383.9,58.9 386.8,57.7 389.7,56.4 392.7,55.2 395.6,54.0 398.5,52.8 401.4,51.6 404.4,50.5 407.3,49.3 410.2,48.1 413.1,47.0 416.1,45.8 419.0,44.7 421.9,43.6 424.9,42.5 427.8,41.3 430.7,40.2 433.6,39.2 436.6,38.1 439.5,37.0 442.4,35.9 445.3,34.9 448.3,33.8 451.2,32.8 454.1,31.7 457.1,30.7 460.0,29.7 462.9,28.6 465.8,27.6 468.8,26.6 471.7,25.6 474.6,24.6 477.5,23.6 480.5,22.7 483.4,21.7 486.3,20.7 489.3,19.7 492.2,18.8 495.1,17.8 498.0,16.9 501.0,15.9 503.9,15.0 506.8,14.1 509.7,13.2 512.7,12.2 515.6,11.3 518.5,10.4 521.5,9.5 524.4,8.6 527.3,7.7 530.2,6.8 533.2,6.0 536.1,5.1 539.0,4.2 541.9,3.3 544.9,2.5 547.8,1.6 550.7,0.8 553.7,-0.1 556.6,-0.9 559.5,-1.8 562.4,-2.6 565.4,-3.5 568.3,-4.3 571.2,-5.1 574.1,-5.9 577.1,-6.7 580.0,-7.6 580.0,212.6 577.1,213.2 574.1,213.7 571.2,214.3 568.3,214.8 565.4,215.3 562.4,215.9 559.5,216.4 556.6,217.0 553.7,217.5 550.7,218.1 547.8,218.7 544.9,219.2 541.9,219.8 539.0,220.4 536.1,220.9 533.2,221.5 530.2,222.1 527.3,222.7 524.4,223.3 521.5,223.8 518.5,224.4 515.6,225.0 512.7,225.6 509.7,226.2 506.8,226.8 503.9,227.5 501.0,228.1 498.0,228.7 495.1,229.3 492.2,229.9 489.3,230.6 486.3,231.2 483.4,231.8 480.5,232.5 477.5,233.1 474.6,233.8 471.7,234.4 468.8,235.1 465.8,235.7 462.9,236.4 460.0,237.1 457.1,237.7 454.1,238.4 451.2,239.1 448.3,239.8 445.3,240.5 442.4,241.2 439.5,241.9 436.6,242.6 433.6,243.3 430.7,244.0 427.8,244.7 424.9,245.4 421.9,246.2 419.0,246.9 416.1,247.7 413.1,248.4 410.2,249.2 407.3,249.9 404.4,250.7 401.4,251.5 398.5,252.2 395.6,253.0 392.7,253.8 389.7,254.6 386.8,255.4 383.9,256.2 380.9,257.0 378.0,257.9 375.1,258.7 372.2,259.5 369.2,260.4 366.3,261.2 363.4,262.1 360.5,263.0 357.5,263.9 354.6,264.7 351.7,265.6 348.7,266.5 345.8,267.5 342.9,268.4 340.0,269.3 337.0,270.3 334.1,271.2 331.2,272.2 328.3,273.1 325.3,274.1 322.4,275.1 319.5,276.1 316.5,277.1 313.6,278.2 310.7,279.2 307.8,280.2 304.8,281.3 301.9,282.4 299.0,283.5 296.1,284.6 293.1,285.7 290.2,286.8 287.3,288.0 284.3,289.1 281.4,290.3 278.5,291.5 275.6,292.7 272.6,293.9 269.7,295.2 266.8,296.4 263.8,297.7 260.9,299.0 258.0,300.3 255.1,301.7 252.1,303.0 249.2,304.4 246.3,305.8 243.4,307.2 240.4,308.7 237.5,310.2 234.6,311.7 231.6,313.2 228.7,314.8 225.8,316.4 222.9,318.0 219.9,319.7 217.0,321.4 214.1,323.2 211.2,325.0 208.2,326.8 205.3,328.7 202.4,330.6 199.4,332.5 196.5,334.6 193.6,336.6 190.7,338.8 187.7,341.0 184.8,343.3 181.9,345.6 179.0,348.0 176.0,350.5 173.1,353.1 170.2,355.8 167.2,358.7 164.3,361.6 161.4,364.7 158.5,367.9 155.5,371.3 152.6,374.9 149.7,378.6 146.8,382.7 143.8,387.0 140.9,391.7 138.0,396.7 135.0,402.3 132.1,408.4 129.2,415.3 126.3,423.4 123.3,432.9 120.4,444.9 117.5,461.4 114.6,490.8" fill="#b8b8b5"/>
<polyline points="114.6,493.4 117.5,442.6 120.4,409.3 123.3,383.0 126.3,360.8 129.2,341.3 132.1,323.7 135.0,307.7 138.0,292.8 140.9,278.9 143.8,265.9 146.8,253.5 149.7,241.7 152.6,230.5 155.5,219.8 158.5,209.4 161.4,199.5 164.3,189.9 167.2,180.6 170.2,171.6 173.1,162.8 176.0,154.3 179.0,146.1 181.9,138.0 184.8,130.1 187.7,122.4 190.7,114.9 193.6,107.6 196.5,100.4 199.4,93.3 202.4,86.4 205.3,79.6 208.2,73.0 211.2,66.4 214.1,60.0 217.0,53.7 219.9,47.5 222.9,41.3 225.8,35.3 228.7,29.4 231.6,23.5 234.6,17.7 237.5,12.1 240.4,6.4 243.4,0.9 246.3,-4.6 249.2,-10.0 252.1,-15.3 255.1,-20.6 258.0,-25.8 260.9,-30.9 263.8,-36.0 266.8,-41.0 269.7,-46.0 272.6,-50.9 275.6,-55.8 278.5,-60.6 281.4,-65.3 284.3,-70.1 287.3,-74.7 290.2,-79.4 293.1,-83.9 296.1,-88.5 299.0,-93.0 301.9,-97.4 304.8,-101.9 307.8,-106.2 310.7,-110.6 313.6,-114.9 316.5,-119.1 319.5,-123.4 322.4,-127.6 325.3,-131.7 328.3,-135.9 331.2,-140.0 334.1,-144.0 337.0,-148.1 340.0,-152.1 342.9,-156.0 345.8,-160.0 348.7,-163.9 351.7,-167.8 354.6,-171.6 357.5,-175.5 360.5,-179.3 363.4,-183.1 366.3,-186.8 369.2,-190.5 372.2,-194.2 375.1,-197.9 378.0,-201.6 380.9,-205.2 383.9,-208.8 386.8,-212.4 389.7,-216.0 392.7,-219.5 395.6,-223.1 398.5,-226.6 401.4,-230.0 404.4,-233.5 407.3,-236.9 410.2,-240.4 413.1,-243.8 416.1,-247.1 419.0,-250.5 421.9,-253.8 424.9,-257.2 427.8,-260.5 430.7,-263.8 433.6,-267.0 436.6,-270.3 439.5,-273.5 442.4,-276.8 445.3,-280.0 448.3,-283.2 451.2,-286.3 454.1,-289.5 457.1,-292.6 460.0,-295.8 462.9,-298.9 465.8,-302.0 468.8,-305.0 471.7,-308.1 474.6,-311.2 477.5,-314.2 480.5,-317.2 483.4,-320.2 486.3,-323.2 489.3,-326.2 492.2,-329.2 495.1,-332.1 498.0,-335.1 501.0,-338.0 503.9,-340.9 506.8,-343.8 509.7,-346.7 512.7,-349.6 515.6,-352.5 518.5,-355.3 521.5,-358.1 524.4,-361.0 527.3,-363.8 530.2,-366.6 533.2,-369.4 536.1,-372.2 539.0,-375.0 541.9,-377.7 544.9,-380.5 547.8,-383.2 550.7,-385.9 553.7,-388.7 556.6,-391.4 559.5,-394.1 562.4,-396.8 565.4,-399.4 568.3,-402.1 571.2,-404.8 574.1,-407.4 577.1,-410.1 580.0,-412.7" fill="none" stroke="#30332e" stroke-width="3.2"/>
<polyline points="114.6,462.1 117.5,425.4 120.4,404.7 123.3,389.8 126.3,377.9 129.2,367.9 132.1,359.2 135.0,351.5 138.0,344.6 140.9,338.2 143.8,332.4 146.8,327.0 149.7,322.0 152.6,317.2 155.5,312.8 158.5,308.5 161.4,304.5 164.3,300.7 167.2,297.0 170.2,293.5 173.1,290.1 176.0,286.8 179.0,283.7 181.9,280.7 184.8,277.7 187.7,274.9 190.7,272.2 193.6,269.5 196.5,266.9 199.4,264.4 202.4,261.9 205.3,259.5 208.2,257.2 211.2,254.9 214.1,252.6 217.0,250.5 219.9,248.3 222.9,246.2 225.8,244.2 228.7,242.2 231.6,240.2 234.6,238.3 237.5,236.4 240.4,234.5 243.4,232.7 246.3,230.9 249.2,229.2 252.1,227.4 255.1,225.7 258.0,224.1 260.9,222.4 263.8,220.8 266.8,219.2 269.7,217.6 272.6,216.1 275.6,214.5 278.5,213.0 281.4,211.5 284.3,210.1 287.3,208.6 290.2,207.2 293.1,205.8 296.1,204.4 299.0,203.0 301.9,201.6 304.8,200.3 307.8,199.0 310.7,197.7 313.6,196.4 316.5,195.1 319.5,193.8 322.4,192.6 325.3,191.3 328.3,190.1 331.2,188.9 334.1,187.7 337.0,186.5 340.0,185.3 342.9,184.2 345.8,183.0 348.7,181.9 351.7,180.7 354.6,179.6 357.5,178.5 360.5,177.4 363.4,176.3 366.3,175.2 369.2,174.2 372.2,173.1 375.1,172.1 378.0,171.0 380.9,170.0 383.9,169.0 386.8,167.9 389.7,166.9 392.7,165.9 395.6,165.0 398.5,164.0 401.4,163.0 404.4,162.0 407.3,161.1 410.2,160.1 413.1,159.2 416.1,158.2 419.0,157.3 421.9,156.4 424.9,155.5 427.8,154.6 430.7,153.7 433.6,152.8 436.6,151.9 439.5,151.0 442.4,150.1 445.3,149.3 448.3,148.4 451.2,147.5 454.1,146.7 457.1,145.8 460.0,145.0 462.9,144.2 465.8,143.3 468.8,142.5 471.7,141.7 474.6,140.9 477.5,140.1 480.5,139.2 483.4,138.4 486.3,137.7 489.3,136.9 492.2,136.1 495.1,135.3 498.0,134.5 501.0,133.8 503.9,133.0 506.8,132.2 509.7,131.5 512.7,130.7 515.6,130.0 518.5,129.2 521.5,128.5 524.4,127.7 527.3,127.0 530.2,126.3 533.2,125.6 536.1,124.8 539.0,124.1 541.9,123.4 544.9,122.7 547.8,122.0 550.7,121.3 553.7,120.6 556.6,119.9 559.5,119.2 562.4,118.5 565.4,117.8 568.3,117.2 571.2,116.5 574.1,115.8 577.1,115.1 580.0,114.5" fill="none" stroke="#30332e" stroke-width="3.2" stroke-dasharray="11 8"/>
<circle cx="114.7" cy="513.9" r="8" fill="#fff" stroke="#6670ee" stroke-width="3"/>
<circle cx="115.3" cy="450.6" r="8" fill="#fff" stroke="#6670ee" stroke-width="3"/>
<circle cx="118.6" cy="436.6" r="8" fill="#fff" stroke="#6670ee" stroke-width="3"/>
<circle cx="120.5" cy="303.0" r="8" fill="#6670ee" stroke="#6670ee" stroke-width="3"/>
<circle cx="124.5" cy="373.3" r="8" fill="#6670ee" stroke="#6670ee" stroke-width="3"/>
<circle cx="125.5" cy="471.7" r="8" fill="#6670ee" stroke="#6670ee" stroke-width="3"/>
<circle cx="127.3" cy="324.1" r="8" fill="#6670ee" stroke="#6670ee" stroke-width="3"/>
<circle cx="133.2" cy="408.4" r="8" fill="#fff" stroke="#6670ee" stroke-width="3"/>
<circle cx="140.2" cy="218.6" r="8" fill="#6670ee" stroke="#6670ee" stroke-width="3"/>
<circle cx="541.1" cy="106.1" r="8" fill="#fff" stroke="#6670ee" stroke-width="3"/>
</g>
<text x="936.5" y="40.0" text-anchor="middle" font-family="-apple-system,BlinkMacSystemFont,PingFang SC,Noto Sans CJK SC,sans-serif" font-size="24" font-weight="650" fill="#30332e">gamma-Poisson 模型</text>
<rect x="625" y="55" width="545" height="520" rx="8" fill="#fff" stroke="#d9d5c8"/>
<line x1="703.0" y1="535" x2="703.0" y2="542" stroke="#30332e"/>
<text x="703.0" y="563.0" text-anchor="middle" font-family="-apple-system,BlinkMacSystemFont,PingFang SC,Noto Sans CJK SC,sans-serif" font-size="15" font-weight="400" fill="#30332e">0</text>
<line x1="780.8" y1="535" x2="780.8" y2="542" stroke="#30332e"/>
<text x="780.8" y="563.0" text-anchor="middle" font-family="-apple-system,BlinkMacSystemFont,PingFang SC,Noto Sans CJK SC,sans-serif" font-size="15" font-weight="400" fill="#30332e">5万</text>
<line x1="936.5" y1="535" x2="936.5" y2="542" stroke="#30332e"/>
<text x="936.5" y="563.0" text-anchor="middle" font-family="-apple-system,BlinkMacSystemFont,PingFang SC,Noto Sans CJK SC,sans-serif" font-size="15" font-weight="400" fill="#30332e">15万</text>
<line x1="1092.2" y1="535" x2="1092.2" y2="542" stroke="#30332e"/>
<text x="1092.2" y="563.0" text-anchor="middle" font-family="-apple-system,BlinkMacSystemFont,PingFang SC,Noto Sans CJK SC,sans-serif" font-size="15" font-weight="400" fill="#30332e">25万</text>
<line x1="696" y1="535.0" x2="703" y2="535.0" stroke="#30332e"/>
<text x="691.0" y="540.0" text-anchor="end" font-family="-apple-system,BlinkMacSystemFont,PingFang SC,Noto Sans CJK SC,sans-serif" font-size="15" font-weight="400" fill="#30332e">10</text>
<line x1="703" y1="535.0" x2="1170" y2="535.0" stroke="#d9d5c8" stroke-dasharray="4 7"/>
<line x1="696" y1="464.7" x2="703" y2="464.7" stroke="#30332e"/>
<text x="691.0" y="469.7" text-anchor="end" font-family="-apple-system,BlinkMacSystemFont,PingFang SC,Noto Sans CJK SC,sans-serif" font-size="15" font-weight="400" fill="#30332e">20</text>
<line x1="703" y1="464.7" x2="1170" y2="464.7" stroke="#d9d5c8" stroke-dasharray="4 7"/>
<line x1="696" y1="394.4" x2="703" y2="394.4" stroke="#30332e"/>
<text x="691.0" y="399.4" text-anchor="end" font-family="-apple-system,BlinkMacSystemFont,PingFang SC,Noto Sans CJK SC,sans-serif" font-size="15" font-weight="400" fill="#30332e">30</text>
<line x1="703" y1="394.4" x2="1170" y2="394.4" stroke="#d9d5c8" stroke-dasharray="4 7"/>
<line x1="696" y1="324.1" x2="703" y2="324.1" stroke="#30332e"/>
<text x="691.0" y="329.1" text-anchor="end" font-family="-apple-system,BlinkMacSystemFont,PingFang SC,Noto Sans CJK SC,sans-serif" font-size="15" font-weight="400" fill="#30332e">40</text>
<line x1="703" y1="324.1" x2="1170" y2="324.1" stroke="#d9d5c8" stroke-dasharray="4 7"/>
<line x1="696" y1="253.8" x2="703" y2="253.8" stroke="#30332e"/>
<text x="691.0" y="258.8" text-anchor="end" font-family="-apple-system,BlinkMacSystemFont,PingFang SC,Noto Sans CJK SC,sans-serif" font-size="15" font-weight="400" fill="#30332e">50</text>
<line x1="703" y1="253.8" x2="1170" y2="253.8" stroke="#d9d5c8" stroke-dasharray="4 7"/>
<line x1="696" y1="183.5" x2="703" y2="183.5" stroke="#30332e"/>
<text x="691.0" y="188.5" text-anchor="end" font-family="-apple-system,BlinkMacSystemFont,PingFang SC,Noto Sans CJK SC,sans-serif" font-size="15" font-weight="400" fill="#30332e">60</text>
<line x1="703" y1="183.5" x2="1170" y2="183.5" stroke="#d9d5c8" stroke-dasharray="4 7"/>
<line x1="696" y1="113.2" x2="703" y2="113.2" stroke="#30332e"/>
<text x="691.0" y="118.2" text-anchor="end" font-family="-apple-system,BlinkMacSystemFont,PingFang SC,Noto Sans CJK SC,sans-serif" font-size="15" font-weight="400" fill="#30332e">70</text>
<line x1="703" y1="113.2" x2="1170" y2="113.2" stroke="#d9d5c8" stroke-dasharray="4 7"/>
<line x1="703" y1="535" x2="1170" y2="535" stroke="#30332e" stroke-width="1.7"/>
<line x1="703" y1="535" x2="703" y2="78" stroke="#30332e" stroke-width="1.7"/>
<text x="936.5" y="610.0" text-anchor="middle" font-family="-apple-system,BlinkMacSystemFont,PingFang SC,Noto Sans CJK SC,sans-serif" font-size="19" font-weight="400" fill="#30332e">人口</text>
<text x="647.0" y="306.5" text-anchor="middle" font-family="-apple-system,BlinkMacSystemFont,PingFang SC,Noto Sans CJK SC,sans-serif" font-size="19" font-weight="400" fill="#30332e" transform="rotate(-90 647 306.5)">工具总数</text>
<g clip-path="url(#chapter12-panel-1)">
<polygon points="704.6,356.5 707.5,269.1 710.4,211.9 713.3,166.7 716.3,128.5 719.2,95.0 722.1,64.8 725.0,37.1 728.0,11.6 730.9,-12.3 733.8,-34.8 736.8,-56.0 739.7,-76.3 742.6,-95.6 745.5,-114.1 748.5,-131.8 751.4,-148.9 754.3,-165.5 757.2,-181.5 760.2,-197.0 763.1,-212.0 766.0,-226.6 769.0,-240.8 771.9,-254.7 774.8,-268.3 777.7,-281.5 780.7,-294.4 783.6,-307.0 786.5,-319.4 789.4,-331.5 792.4,-343.4 795.3,-355.1 798.2,-366.6 801.2,-377.8 804.1,-388.9 807.0,-399.7 809.9,-410.4 812.9,-421.0 815.8,-431.3 818.7,-441.6 821.6,-451.6 824.6,-461.5 827.5,-471.3 830.4,-481.0 833.4,-490.5 836.3,-499.9 839.2,-509.2 842.1,-518.4 845.1,-527.4 848.0,-536.4 850.9,-545.2 853.8,-554.0 856.8,-562.6 859.7,-571.1 862.6,-579.6 865.6,-588.0 868.5,-596.3 871.4,-604.5 874.3,-612.6 877.3,-620.6 880.2,-628.6 883.1,-636.4 886.1,-644.3 889.0,-652.0 891.9,-659.7 894.8,-667.3 897.8,-674.8 900.7,-682.2 903.6,-689.6 906.5,-697.0 909.5,-704.3 912.4,-711.5 915.3,-718.6 918.3,-725.7 921.2,-732.8 924.1,-739.8 927.0,-746.7 930.0,-753.6 932.9,-760.4 935.8,-767.2 938.7,-774.0 941.7,-780.6 944.6,-787.3 947.5,-793.9 950.5,-800.4 953.4,-806.9 956.3,-813.4 959.2,-819.8 962.2,-826.2 965.1,-832.5 968.0,-838.8 970.9,-845.0 973.9,-851.3 976.8,-857.4 979.7,-863.6 982.7,-869.7 985.6,-875.7 988.5,-881.7 991.4,-887.7 994.4,-893.7 997.3,-899.6 1000.2,-905.5 1003.1,-911.3 1006.1,-917.2 1009.0,-922.9 1011.9,-928.7 1014.9,-934.4 1017.8,-940.1 1020.7,-945.8 1023.6,-951.4 1026.6,-957.0 1029.5,-962.6 1032.4,-968.1 1035.3,-973.6 1038.3,-979.1 1041.2,-984.6 1044.1,-990.0 1047.1,-995.4 1050.0,-1000.8 1052.9,-1006.1 1055.8,-1011.4 1058.8,-1016.7 1061.7,-1022.0 1064.6,-1027.3 1067.5,-1032.5 1070.5,-1037.7 1073.4,-1042.9 1076.3,-1048.0 1079.3,-1053.1 1082.2,-1058.2 1085.1,-1063.3 1088.0,-1068.4 1091.0,-1073.4 1093.9,-1078.4 1096.8,-1083.4 1099.7,-1088.4 1102.7,-1093.4 1105.6,-1098.3 1108.5,-1103.2 1111.5,-1108.1 1114.4,-1113.0 1117.3,-1117.8 1120.2,-1122.6 1123.2,-1127.4 1126.1,-1132.2 1129.0,-1137.0 1131.9,-1141.8 1134.9,-1146.5 1137.8,-1151.2 1140.7,-1155.9 1143.7,-1160.6 1146.6,-1165.2 1149.5,-1169.9 1152.4,-1174.5 1155.4,-1179.1 1158.3,-1183.7 1161.2,-1188.3 1164.1,-1192.8 1167.1,-1197.4 1170.0,-1201.9 1170.0,96.3 1167.1,97.6 1164.1,98.9 1161.2,100.3 1158.3,101.6 1155.4,102.9 1152.4,104.3 1149.5,105.6 1146.6,107.0 1143.7,108.3 1140.7,109.7 1137.8,111.0 1134.9,112.4 1131.9,113.8 1129.0,115.2 1126.1,116.6 1123.2,118.0 1120.2,119.4 1117.3,120.8 1114.4,122.2 1111.5,123.6 1108.5,125.0 1105.6,126.4 1102.7,127.9 1099.7,129.3 1096.8,130.7 1093.9,132.2 1091.0,133.7 1088.0,135.1 1085.1,136.6 1082.2,138.1 1079.3,139.6 1076.3,141.0 1073.4,142.5 1070.5,144.0 1067.5,145.6 1064.6,147.1 1061.7,148.6 1058.8,150.1 1055.8,151.7 1052.9,153.2 1050.0,154.8 1047.1,156.3 1044.1,157.9 1041.2,159.5 1038.3,161.1 1035.3,162.7 1032.4,164.3 1029.5,165.9 1026.6,167.5 1023.6,169.1 1020.7,170.8 1017.8,172.4 1014.9,174.1 1011.9,175.7 1009.0,177.4 1006.1,179.1 1003.1,180.8 1000.2,182.5 997.3,184.2 994.4,185.9 991.4,187.6 988.5,189.4 985.6,191.1 982.7,192.9 979.7,194.7 976.8,196.4 973.9,198.2 970.9,200.0 968.0,201.9 965.1,203.7 962.2,205.5 959.2,207.4 956.3,209.2 953.4,211.1 950.5,213.0 947.5,214.9 944.6,216.8 941.7,218.8 938.7,220.7 935.8,222.7 932.9,224.6 930.0,226.6 927.0,228.6 924.1,230.6 921.2,232.7 918.3,234.7 915.3,236.8 912.4,238.9 909.5,241.0 906.5,243.1 903.6,245.2 900.7,247.4 897.8,249.5 894.8,251.7 891.9,253.9 889.0,256.2 886.1,258.4 883.1,260.7 880.2,263.0 877.3,265.3 874.3,267.6 871.4,270.0 868.5,272.4 865.6,274.8 862.6,277.2 859.7,279.7 856.8,282.2 853.8,284.7 850.9,287.2 848.0,289.8 845.1,292.4 842.1,295.0 839.2,297.7 836.3,300.4 833.4,303.1 830.4,305.9 827.5,308.7 824.6,311.5 821.6,314.4 818.7,317.3 815.8,320.3 812.9,323.3 809.9,326.4 807.0,329.5 804.1,332.7 801.2,335.9 798.2,339.1 795.3,342.5 792.4,345.9 789.4,349.3 786.5,352.8 783.6,356.4 780.7,360.1 777.7,363.9 774.8,367.7 771.9,371.7 769.0,375.7 766.0,379.8 763.1,384.1 760.2,388.4 757.2,392.9 754.3,397.6 751.4,402.4 748.5,407.4 745.5,412.5 742.6,417.9 739.7,423.5 736.8,429.4 733.8,435.6 730.9,442.1 728.0,449.1 725.0,456.5 722.1,464.5 719.2,473.3 716.3,483.1 713.3,494.2 710.4,507.3 707.5,523.9 704.6,535.0" fill="#d8d8d6"/>
<polygon points="704.6,346.6 707.5,285.9 710.4,250.2 713.3,223.5 716.3,201.9 719.2,183.4 722.1,167.2 725.0,152.7 728.0,139.5 730.9,127.4 733.8,116.2 736.8,105.7 739.7,95.9 742.6,86.6 745.5,77.7 748.5,69.3 751.4,61.3 754.3,53.6 757.2,46.3 760.2,39.2 763.1,32.4 766.0,25.8 769.0,19.4 771.9,13.2 774.8,7.2 777.7,1.4 780.7,-4.3 783.6,-9.8 786.5,-15.2 789.4,-20.4 792.4,-25.5 795.3,-30.5 798.2,-35.4 801.2,-40.1 804.1,-44.8 807.0,-49.4 809.9,-53.9 812.9,-58.2 815.8,-62.6 818.7,-66.8 821.6,-70.9 824.6,-75.0 827.5,-79.0 830.4,-83.0 833.4,-86.9 836.3,-90.7 839.2,-94.4 842.1,-98.1 845.1,-101.8 848.0,-105.4 850.9,-108.9 853.8,-112.4 856.8,-115.8 859.7,-119.2 862.6,-122.6 865.6,-125.9 868.5,-129.2 871.4,-132.4 874.3,-135.6 877.3,-138.7 880.2,-141.8 883.1,-144.9 886.1,-147.9 889.0,-150.9 891.9,-153.9 894.8,-156.8 897.8,-159.7 900.7,-162.6 903.6,-165.4 906.5,-168.2 909.5,-171.0 912.4,-173.8 915.3,-176.5 918.3,-179.2 921.2,-181.9 924.1,-184.5 927.0,-187.1 930.0,-189.7 932.9,-192.3 935.8,-194.9 938.7,-197.4 941.7,-199.9 944.6,-202.4 947.5,-204.8 950.5,-207.3 953.4,-209.7 956.3,-212.1 959.2,-214.5 962.2,-216.8 965.1,-219.2 968.0,-221.5 970.9,-223.8 973.9,-226.1 976.8,-228.3 979.7,-230.6 982.7,-232.8 985.6,-235.0 988.5,-237.2 991.4,-239.4 994.4,-241.6 997.3,-243.8 1000.2,-245.9 1003.1,-248.0 1006.1,-250.1 1009.0,-252.2 1011.9,-254.3 1014.9,-256.4 1017.8,-258.4 1020.7,-260.4 1023.6,-262.5 1026.6,-264.5 1029.5,-266.5 1032.4,-268.5 1035.3,-270.4 1038.3,-272.4 1041.2,-274.3 1044.1,-276.3 1047.1,-278.2 1050.0,-280.1 1052.9,-282.0 1055.8,-283.9 1058.8,-285.8 1061.7,-287.6 1064.6,-289.5 1067.5,-291.3 1070.5,-293.2 1073.4,-295.0 1076.3,-296.8 1079.3,-298.6 1082.2,-300.4 1085.1,-302.2 1088.0,-304.0 1091.0,-305.7 1093.9,-307.5 1096.8,-309.2 1099.7,-311.0 1102.7,-312.7 1105.6,-314.4 1108.5,-316.1 1111.5,-317.8 1114.4,-319.5 1117.3,-321.2 1120.2,-322.9 1123.2,-324.5 1126.1,-326.2 1129.0,-327.8 1131.9,-329.5 1134.9,-331.1 1137.8,-332.7 1140.7,-334.3 1143.7,-336.0 1146.6,-337.6 1149.5,-339.2 1152.4,-340.7 1155.4,-342.3 1158.3,-343.9 1161.2,-345.5 1164.1,-347.0 1167.1,-348.6 1170.0,-350.1 1170.0,316.7 1167.1,317.2 1164.1,317.7 1161.2,318.3 1158.3,318.8 1155.4,319.3 1152.4,319.8 1149.5,320.3 1146.6,320.9 1143.7,321.4 1140.7,321.9 1137.8,322.5 1134.9,323.0 1131.9,323.5 1129.0,324.1 1126.1,324.6 1123.2,325.2 1120.2,325.7 1117.3,326.3 1114.4,326.8 1111.5,327.4 1108.5,328.0 1105.6,328.5 1102.7,329.1 1099.7,329.7 1096.8,330.3 1093.9,330.8 1091.0,331.4 1088.0,332.0 1085.1,332.6 1082.2,333.2 1079.3,333.8 1076.3,334.4 1073.4,335.0 1070.5,335.6 1067.5,336.2 1064.6,336.8 1061.7,337.4 1058.8,338.0 1055.8,338.6 1052.9,339.3 1050.0,339.9 1047.1,340.5 1044.1,341.2 1041.2,341.8 1038.3,342.5 1035.3,343.1 1032.4,343.8 1029.5,344.4 1026.6,345.1 1023.6,345.7 1020.7,346.4 1017.8,347.1 1014.9,347.8 1011.9,348.5 1009.0,349.1 1006.1,349.8 1003.1,350.5 1000.2,351.2 997.3,351.9 994.4,352.7 991.4,353.4 988.5,354.1 985.6,354.8 982.7,355.6 979.7,356.3 976.8,357.1 973.9,357.8 970.9,358.6 968.0,359.3 965.1,360.1 962.2,360.9 959.2,361.6 956.3,362.4 953.4,363.2 950.5,364.0 947.5,364.8 944.6,365.7 941.7,366.5 938.7,367.3 935.8,368.1 932.9,369.0 930.0,369.8 927.0,370.7 924.1,371.6 921.2,372.4 918.3,373.3 915.3,374.2 912.4,375.1 909.5,376.0 906.5,377.0 903.6,377.9 900.7,378.8 897.8,379.8 894.8,380.7 891.9,381.7 889.0,382.7 886.1,383.7 883.1,384.7 880.2,385.7 877.3,386.7 874.3,387.8 871.4,388.8 868.5,389.9 865.6,391.0 862.6,392.1 859.7,393.2 856.8,394.3 853.8,395.5 850.9,396.6 848.0,397.8 845.1,399.0 842.1,400.2 839.2,401.4 836.3,402.7 833.4,403.9 830.4,405.2 827.5,406.5 824.6,407.9 821.6,409.2 818.7,410.6 815.8,412.0 812.9,413.4 809.9,414.9 807.0,416.4 804.1,417.9 801.2,419.4 798.2,421.0 795.3,422.6 792.4,424.3 789.4,426.0 786.5,427.7 783.6,429.5 780.7,431.3 777.7,433.2 774.8,435.1 771.9,437.1 769.0,439.1 766.0,441.2 763.1,443.4 760.2,445.7 757.2,448.0 754.3,450.5 751.4,453.0 748.5,455.7 745.5,458.5 742.6,461.4 739.7,464.5 736.8,467.7 733.8,471.2 730.9,474.9 728.0,478.9 725.0,483.3 722.1,488.1 719.2,493.5 716.3,499.6 713.3,506.8 710.4,515.6 707.5,527.4 704.6,535.0" fill="#b8b8b5"/>
<polyline points="704.6,493.4 707.5,442.6 710.4,409.3 713.3,383.0 716.3,360.8 719.2,341.3 722.1,323.7 725.0,307.7 728.0,292.8 730.9,278.9 733.8,265.9 736.8,253.5 739.7,241.7 742.6,230.5 745.5,219.8 748.5,209.4 751.4,199.5 754.3,189.9 757.2,180.6 760.2,171.6 763.1,162.8 766.0,154.3 769.0,146.1 771.9,138.0 774.8,130.1 777.7,122.4 780.7,114.9 783.6,107.6 786.5,100.4 789.4,93.3 792.4,86.4 795.3,79.6 798.2,73.0 801.2,66.4 804.1,60.0 807.0,53.7 809.9,47.5 812.9,41.3 815.8,35.3 818.7,29.4 821.6,23.5 824.6,17.7 827.5,12.1 830.4,6.4 833.4,0.9 836.3,-4.6 839.2,-10.0 842.1,-15.3 845.1,-20.6 848.0,-25.8 850.9,-30.9 853.8,-36.0 856.8,-41.0 859.7,-46.0 862.6,-50.9 865.6,-55.8 868.5,-60.6 871.4,-65.3 874.3,-70.1 877.3,-74.7 880.2,-79.4 883.1,-83.9 886.1,-88.5 889.0,-93.0 891.9,-97.4 894.8,-101.9 897.8,-106.2 900.7,-110.6 903.6,-114.9 906.5,-119.1 909.5,-123.4 912.4,-127.6 915.3,-131.7 918.3,-135.9 921.2,-140.0 924.1,-144.0 927.0,-148.1 930.0,-152.1 932.9,-156.0 935.8,-160.0 938.7,-163.9 941.7,-167.8 944.6,-171.6 947.5,-175.5 950.5,-179.3 953.4,-183.1 956.3,-186.8 959.2,-190.5 962.2,-194.2 965.1,-197.9 968.0,-201.6 970.9,-205.2 973.9,-208.8 976.8,-212.4 979.7,-216.0 982.7,-219.5 985.6,-223.1 988.5,-226.6 991.4,-230.0 994.4,-233.5 997.3,-236.9 1000.2,-240.4 1003.1,-243.8 1006.1,-247.1 1009.0,-250.5 1011.9,-253.8 1014.9,-257.2 1017.8,-260.5 1020.7,-263.8 1023.6,-267.0 1026.6,-270.3 1029.5,-273.5 1032.4,-276.8 1035.3,-280.0 1038.3,-283.2 1041.2,-286.3 1044.1,-289.5 1047.1,-292.6 1050.0,-295.8 1052.9,-298.9 1055.8,-302.0 1058.8,-305.0 1061.7,-308.1 1064.6,-311.2 1067.5,-314.2 1070.5,-317.2 1073.4,-320.2 1076.3,-323.2 1079.3,-326.2 1082.2,-329.2 1085.1,-332.1 1088.0,-335.1 1091.0,-338.0 1093.9,-340.9 1096.8,-343.8 1099.7,-346.7 1102.7,-349.6 1105.6,-352.5 1108.5,-355.3 1111.5,-358.1 1114.4,-361.0 1117.3,-363.8 1120.2,-366.6 1123.2,-369.4 1126.1,-372.2 1129.0,-375.0 1131.9,-377.7 1134.9,-380.5 1137.8,-383.2 1140.7,-385.9 1143.7,-388.7 1146.6,-391.4 1149.5,-394.1 1152.4,-396.8 1155.4,-399.4 1158.3,-402.1 1161.2,-404.8 1164.1,-407.4 1167.1,-410.1 1170.0,-412.7" fill="none" stroke="#30332e" stroke-width="3.2"/>
<polyline points="704.6,500.3 707.5,463.7 710.4,442.2 713.3,426.1 716.3,413.1 719.2,402.0 722.1,392.2 725.0,383.5 728.0,375.5 730.9,368.2 733.8,361.5 736.8,355.2 739.7,349.2 742.6,343.6 745.5,338.3 748.5,333.3 751.4,328.4 754.3,323.8 757.2,319.4 760.2,315.1 763.1,311.0 766.0,307.0 769.0,303.2 771.9,299.4 774.8,295.8 777.7,292.3 780.7,288.9 783.6,285.6 786.5,282.4 789.4,279.2 792.4,276.1 795.3,273.1 798.2,270.2 801.2,267.3 804.1,264.5 807.0,261.7 809.9,259.0 812.9,256.4 815.8,253.8 818.7,251.3 821.6,248.8 824.6,246.3 827.5,243.9 830.4,241.5 833.4,239.2 836.3,236.9 839.2,234.6 842.1,232.4 845.1,230.2 848.0,228.0 850.9,225.9 853.8,223.8 856.8,221.7 859.7,219.7 862.6,217.6 865.6,215.6 868.5,213.7 871.4,211.7 874.3,209.8 877.3,207.9 880.2,206.1 883.1,204.2 886.1,202.4 889.0,200.6 891.9,198.8 894.8,197.0 897.8,195.3 900.7,193.5 903.6,191.8 906.5,190.1 909.5,188.5 912.4,186.8 915.3,185.2 918.3,183.5 921.2,181.9 924.1,180.3 927.0,178.8 930.0,177.2 932.9,175.6 935.8,174.1 938.7,172.6 941.7,171.1 944.6,169.6 947.5,168.1 950.5,166.6 953.4,165.2 956.3,163.7 959.2,162.3 962.2,160.9 965.1,159.5 968.0,158.1 970.9,156.7 973.9,155.3 976.8,153.9 979.7,152.6 982.7,151.2 985.6,149.9 988.5,148.6 991.4,147.3 994.4,145.9 997.3,144.7 1000.2,143.4 1003.1,142.1 1006.1,140.8 1009.0,139.6 1011.9,138.3 1014.9,137.1 1017.8,135.8 1020.7,134.6 1023.6,133.4 1026.6,132.2 1029.5,131.0 1032.4,129.8 1035.3,128.6 1038.3,127.4 1041.2,126.2 1044.1,125.1 1047.1,123.9 1050.0,122.8 1052.9,121.6 1055.8,120.5 1058.8,119.3 1061.7,118.2 1064.6,117.1 1067.5,116.0 1070.5,114.9 1073.4,113.8 1076.3,112.7 1079.3,111.6 1082.2,110.5 1085.1,109.4 1088.0,108.4 1091.0,107.3 1093.9,106.3 1096.8,105.2 1099.7,104.2 1102.7,103.1 1105.6,102.1 1108.5,101.1 1111.5,100.0 1114.4,99.0 1117.3,98.0 1120.2,97.0 1123.2,96.0 1126.1,95.0 1129.0,94.0 1131.9,93.0 1134.9,92.0 1137.8,91.1 1140.7,90.1 1143.7,89.1 1146.6,88.1 1149.5,87.2 1152.4,86.2 1155.4,85.3 1158.3,84.3 1161.2,83.4 1164.1,82.4 1167.1,81.5 1170.0,80.6" fill="none" stroke="#30332e" stroke-width="3.2" stroke-dasharray="11 8"/>
<circle cx="704.7" cy="513.9" r="8" fill="#fff" stroke="#6670ee" stroke-width="3"/>
<circle cx="705.3" cy="450.6" r="8" fill="#fff" stroke="#6670ee" stroke-width="3"/>
<circle cx="708.6" cy="436.6" r="8" fill="#fff" stroke="#6670ee" stroke-width="3"/>
<circle cx="710.5" cy="303.0" r="8" fill="#6670ee" stroke="#6670ee" stroke-width="3"/>
<circle cx="714.5" cy="373.3" r="8" fill="#6670ee" stroke="#6670ee" stroke-width="3"/>
<circle cx="715.5" cy="471.7" r="8" fill="#6670ee" stroke="#6670ee" stroke-width="3"/>
<circle cx="717.3" cy="324.1" r="8" fill="#6670ee" stroke="#6670ee" stroke-width="3"/>
<circle cx="723.2" cy="408.4" r="8" fill="#fff" stroke="#6670ee" stroke-width="3"/>
<circle cx="730.2" cy="218.6" r="8" fill="#6670ee" stroke="#6670ee" stroke-width="3"/>
<circle cx="1131.1" cy="106.1" r="8" fill="#fff" stroke="#6670ee" stroke-width="3"/>
</g>
<text x="799.5" y="127.2" text-anchor="start" font-family="-apple-system,BlinkMacSystemFont,PingFang SC,Noto Sans CJK SC,sans-serif" font-size="17" font-weight="400" fill="#30332e">高接触率</text>
<text x="835.3" y="253.8" text-anchor="start" font-family="-apple-system,BlinkMacSystemFont,PingFang SC,Noto Sans CJK SC,sans-serif" font-size="17" font-weight="400" fill="#30332e">低接触率</text>
<circle cx="315" cy="636" r="6" fill="#6670ee" stroke="#6670ee" stroke-width="2"/>
<text x="330.0" y="642.0" text-anchor="start" font-family="-apple-system,BlinkMacSystemFont,PingFang SC,Noto Sans CJK SC,sans-serif" font-size="15" font-weight="400" fill="#30332e">高接触社会</text>
<circle cx="490" cy="636" r="6" fill="#fff" stroke="#6670ee" stroke-width="2"/>
<text x="505.0" y="642.0" text-anchor="start" font-family="-apple-system,BlinkMacSystemFont,PingFang SC,Noto Sans CJK SC,sans-serif" font-size="15" font-weight="400" fill="#30332e">低接触社会</text>
</svg>
