<?xml version="1.0" encoding="UTF-8"?>
<svg xmlns="http://www.w3.org/2000/svg" width="900" height="650" viewBox="0 0 900 650" role="img">
  <title>多变量离婚模型的后验预测图</title>
  <desc>横轴是各州观测离婚率，纵轴是后验预测离婚率；蓝色线段表示均值的百分之八十九区间。</desc>
  <rect width="100%" height="100%" fill="#fff"/>
  <rect x="125" y="55" width="690" height="475" fill="#fff" stroke="#343732" stroke-width="1.5"/>
  <line x1="125" y1="530" x2="815" y2="55" stroke="#555852" stroke-width="2.5" stroke-dasharray="8 7"/>
  <line x1="698.28" y1="279.8" x2="698.28" y2="235.23" stroke="#6670ee" stroke-width="2.5" opacity="0.75"/>
  <circle cx="698.28" cy="257.52" r="5.2" fill="#6670ee" stroke="#263f86" stroke-width="1.5"/>
  <line x1="683.12" y1="293.7" x2="683.12" y2="232.33" stroke="#6670ee" stroke-width="2.5" opacity="0.75"/>
  <circle cx="683.12" cy="263.01" r="5.2" fill="#6670ee" stroke="#263f86" stroke-width="1.5"/>
  <line x1="554.28" y1="301.31" x2="554.28" y2="260.67" stroke="#6670ee" stroke-width="2.5" opacity="0.75"/>
  <circle cx="554.28" cy="280.99" r="5.2" fill="#6670ee" stroke="#263f86" stroke-width="1.5"/>
  <line x1="758.91" y1="256.79" x2="758.91" y2="186.76" stroke="#6670ee" stroke-width="2.5" opacity="0.75"/>
  <circle cx="758.91" cy="221.77" r="5.2" fill="#6670ee" stroke="#263f86" stroke-width="1.5"/>
  <line x1="342.07" y1="349.02" x2="342.07" y2="301.96" stroke="#6670ee" stroke-width="2.5" opacity="0.75"/>
  <circle cx="342.07" cy="325.49" r="5.2" fill="#6670ee" stroke="#263f86" stroke-width="1.5"/>
  <line x1="614.91" y1="307.08" x2="614.91" y2="256.79" stroke="#6670ee" stroke-width="2.5" opacity="0.75"/>
  <circle cx="614.91" cy="281.93" r="5.2" fill="#6670ee" stroke="#263f86" stroke-width="1.5"/>
  <line x1="243.54" y1="388.9" x2="243.54" y2="329.62" stroke="#6670ee" stroke-width="2.5" opacity="0.75"/>
  <circle cx="243.54" cy="359.26" r="5.2" fill="#6670ee" stroke="#263f86" stroke-width="1.5"/>
  <line x1="410.28" y1="348.57" x2="410.28" y2="297.77" stroke="#6670ee" stroke-width="2.5" opacity="0.75"/>
  <circle cx="410.28" cy="323.17" r="5.2" fill="#6670ee" stroke="#263f86" stroke-width="1.5"/>
  <line x1="213.22" y1="495.81" x2="213.22" y2="420.53" stroke="#6670ee" stroke-width="2.5" opacity="0.75"/>
  <circle cx="213.22" cy="458.17" r="5.2" fill="#6670ee" stroke="#263f86" stroke-width="1.5"/>
  <line x1="379.96" y1="327.91" x2="379.96" y2="278.43" stroke="#6670ee" stroke-width="2.5" opacity="0.75"/>
  <circle cx="379.96" cy="303.17" r="5.2" fill="#6670ee" stroke="#263f86" stroke-width="1.5"/>
  <line x1="607.33" y1="311.18" x2="607.33" y2="266.42" stroke="#6670ee" stroke-width="2.5" opacity="0.75"/>
  <circle cx="607.33" cy="288.8" r="5.2" fill="#6670ee" stroke="#263f86" stroke-width="1.5"/>
  <line x1="364.8" y1="369.44" x2="364.8" y2="311.16" stroke="#6670ee" stroke-width="2.5" opacity="0.75"/>
  <circle cx="364.8" cy="340.3" r="5.2" fill="#6670ee" stroke="#263f86" stroke-width="1.5"/>
  <line x1="319.33" y1="208.28" x2="319.33" y2="130.65" stroke="#6670ee" stroke-width="2.5" opacity="0.75"/>
  <circle cx="319.33" cy="169.47" r="5.2" fill="#6670ee" stroke="#263f86" stroke-width="1.5"/>
  <text x="310.33" y="159.47" text-anchor="end" font-family="PingFang SC, Noto Sans CJK SC, Microsoft YaHei, sans-serif" font-size="18" font-weight="700" fill="#30332e">ID</text>
  <line x1="342.07" y1="358.73" x2="342.07" y2="306.68" stroke="#6670ee" stroke-width="2.5" opacity="0.75"/>
  <circle cx="342.07" cy="332.7" r="5.2" fill="#6670ee" stroke="#263f86" stroke-width="1.5"/>
  <line x1="569.44" y1="296.37" x2="569.44" y2="254.54" stroke="#6670ee" stroke-width="2.5" opacity="0.75"/>
  <circle cx="569.44" cy="275.45" r="5.2" fill="#6670ee" stroke="#263f86" stroke-width="1.5"/>
  <line x1="508.8" y1="288.11" x2="508.8" y2="240.8" stroke="#6670ee" stroke-width="2.5" opacity="0.75"/>
  <circle cx="508.8" cy="264.45" r="5.2" fill="#6670ee" stroke="#263f86" stroke-width="1.5"/>
  <line x1="539.12" y1="273.02" x2="539.12" y2="220.7" stroke="#6670ee" stroke-width="2.5" opacity="0.75"/>
  <circle cx="539.12" cy="246.86" r="5.2" fill="#6670ee" stroke="#263f86" stroke-width="1.5"/>
  <line x1="690.7" y1="264.86" x2="690.7" y2="210.58" stroke="#6670ee" stroke-width="2.5" opacity="0.75"/>
  <circle cx="690.7" cy="237.72" r="5.2" fill="#6670ee" stroke="#263f86" stroke-width="1.5"/>
  <line x1="569.44" y1="306.49" x2="569.44" y2="265.86" stroke="#6670ee" stroke-width="2.5" opacity="0.75"/>
  <circle cx="569.44" cy="286.17" r="5.2" fill="#6670ee" stroke="#263f86" stroke-width="1.5"/>
  <line x1="721.02" y1="326.59" x2="721.02" y2="267.49" stroke="#6670ee" stroke-width="2.5" opacity="0.75"/>
  <circle cx="721.02" cy="297.04" r="5.2" fill="#6670ee" stroke="#263f86" stroke-width="1.5"/>
  <text x="730.02" y="287.04" text-anchor="start" font-family="PingFang SC, Noto Sans CJK SC, Microsoft YaHei, sans-serif" font-size="18" font-weight="700" fill="#30332e">ME</text>
  <line x1="402.7" y1="374.11" x2="402.7" y2="320.65" stroke="#6670ee" stroke-width="2.5" opacity="0.75"/>
  <circle cx="402.7" cy="347.38" r="5.2" fill="#6670ee" stroke="#263f86" stroke-width="1.5"/>
  <line x1="326.91" y1="434.14" x2="326.91" y2="363.71" stroke="#6670ee" stroke-width="2.5" opacity="0.75"/>
  <circle cx="326.91" cy="398.92" r="5.2" fill="#6670ee" stroke="#263f86" stroke-width="1.5"/>
  <line x1="433.01" y1="327.72" x2="433.01" y2="276.87" stroke="#6670ee" stroke-width="2.5" opacity="0.75"/>
  <circle cx="433.01" cy="302.29" r="5.2" fill="#6670ee" stroke="#263f86" stroke-width="1.5"/>
  <line x1="296.59" y1="322.19" x2="296.59" y2="268.88" stroke="#6670ee" stroke-width="2.5" opacity="0.75"/>
  <circle cx="296.59" cy="295.53" r="5.2" fill="#6670ee" stroke="#263f86" stroke-width="1.5"/>
  <line x1="577.02" y1="300.43" x2="577.02" y2="258.05" stroke="#6670ee" stroke-width="2.5" opacity="0.75"/>
  <circle cx="577.02" cy="279.24" r="5.2" fill="#6670ee" stroke="#263f86" stroke-width="1.5"/>
  <line x1="455.75" y1="291.68" x2="455.75" y2="245.7" stroke="#6670ee" stroke-width="2.5" opacity="0.75"/>
  <circle cx="455.75" cy="268.69" r="5.2" fill="#6670ee" stroke="#263f86" stroke-width="1.5"/>
  <line x1="425.44" y1="295.89" x2="425.44" y2="250.47" stroke="#6670ee" stroke-width="2.5" opacity="0.75"/>
  <circle cx="425.44" cy="273.18" r="5.2" fill="#6670ee" stroke="#263f86" stroke-width="1.5"/>
  <line x1="402.7" y1="283.58" x2="402.7" y2="238.67" stroke="#6670ee" stroke-width="2.5" opacity="0.75"/>
  <circle cx="402.7" cy="261.13" r="5.2" fill="#6670ee" stroke="#263f86" stroke-width="1.5"/>
  <line x1="501.23" y1="348.11" x2="501.23" y2="294.45" stroke="#6670ee" stroke-width="2.5" opacity="0.75"/>
  <circle cx="501.23" cy="321.28" r="5.2" fill="#6670ee" stroke="#263f86" stroke-width="1.5"/>
  <line x1="198.06" y1="393.12" x2="198.06" y2="326.67" stroke="#6670ee" stroke-width="2.5" opacity="0.75"/>
  <circle cx="198.06" cy="359.89" r="5.2" fill="#6670ee" stroke="#263f86" stroke-width="1.5"/>
  <line x1="508.8" y1="301.63" x2="508.8" y2="260.7" stroke="#6670ee" stroke-width="2.5" opacity="0.75"/>
  <circle cx="508.8" cy="281.17" r="5.2" fill="#6670ee" stroke="#263f86" stroke-width="1.5"/>
  <line x1="235.96" y1="429.43" x2="235.96" y2="362.6" stroke="#6670ee" stroke-width="2.5" opacity="0.75"/>
  <circle cx="235.96" cy="396.01" r="5.2" fill="#6670ee" stroke="#263f86" stroke-width="1.5"/>
  <line x1="486.07" y1="297.39" x2="486.07" y2="255.62" stroke="#6670ee" stroke-width="2.5" opacity="0.75"/>
  <circle cx="486.07" cy="276.51" r="5.2" fill="#6670ee" stroke="#263f86" stroke-width="1.5"/>
  <line x1="342.07" y1="300.13" x2="342.07" y2="237.67" stroke="#6670ee" stroke-width="2.5" opacity="0.75"/>
  <circle cx="342.07" cy="268.9" r="5.2" fill="#6670ee" stroke="#263f86" stroke-width="1.5"/>
  <line x1="455.75" y1="322.79" x2="455.75" y2="273.88" stroke="#6670ee" stroke-width="2.5" opacity="0.75"/>
  <circle cx="455.75" cy="298.34" r="5.2" fill="#6670ee" stroke="#263f86" stroke-width="1.5"/>
  <line x1="705.86" y1="252.9" x2="705.86" y2="190.86" stroke="#6670ee" stroke-width="2.5" opacity="0.75"/>
  <circle cx="705.86" cy="221.88" r="5.2" fill="#6670ee" stroke="#263f86" stroke-width="1.5"/>
  <line x1="523.96" y1="308.76" x2="523.96" y2="266.96" stroke="#6670ee" stroke-width="2.5" opacity="0.75"/>
  <circle cx="523.96" cy="287.86" r="5.2" fill="#6670ee" stroke="#263f86" stroke-width="1.5"/>
  <line x1="319.33" y1="362.9" x2="319.33" y2="303.42" stroke="#6670ee" stroke-width="2.5" opacity="0.75"/>
  <circle cx="319.33" cy="333.16" r="5.2" fill="#6670ee" stroke="#263f86" stroke-width="1.5"/>
  <line x1="448.17" y1="418.6" x2="448.17" y2="348.49" stroke="#6670ee" stroke-width="2.5" opacity="0.75"/>
  <circle cx="448.17" cy="383.54" r="5.2" fill="#6670ee" stroke="#263f86" stroke-width="1.5"/>
  <text x="439.17" y="373.54" text-anchor="end" font-family="PingFang SC, Noto Sans CJK SC, Microsoft YaHei, sans-serif" font-size="18" font-weight="700" fill="#30332e">RI</text>
  <line x1="349.65" y1="328.32" x2="349.65" y2="281.87" stroke="#6670ee" stroke-width="2.5" opacity="0.75"/>
  <circle cx="349.65" cy="305.1" r="5.2" fill="#6670ee" stroke="#263f86" stroke-width="1.5"/>
  <line x1="561.86" y1="292.25" x2="561.86" y2="250.39" stroke="#6670ee" stroke-width="2.5" opacity="0.75"/>
  <circle cx="561.86" cy="271.32" r="5.2" fill="#6670ee" stroke="#263f86" stroke-width="1.5"/>
  <line x1="599.75" y1="275.03" x2="599.75" y2="227.89" stroke="#6670ee" stroke-width="2.5" opacity="0.75"/>
  <circle cx="599.75" cy="251.46" r="5.2" fill="#6670ee" stroke="#263f86" stroke-width="1.5"/>
  <line x1="493.65" y1="279.63" x2="493.65" y2="230.64" stroke="#6670ee" stroke-width="2.5" opacity="0.75"/>
  <circle cx="493.65" cy="255.13" r="5.2" fill="#6670ee" stroke="#263f86" stroke-width="1.5"/>
  <line x1="508.8" y1="224.4" x2="508.8" y2="137.16" stroke="#6670ee" stroke-width="2.5" opacity="0.75"/>
  <circle cx="508.8" cy="180.78" r="5.2" fill="#6670ee" stroke="#263f86" stroke-width="1.5"/>
  <text x="517.8" y="170.78" text-anchor="start" font-family="PingFang SC, Noto Sans CJK SC, Microsoft YaHei, sans-serif" font-size="18" font-weight="700" fill="#30332e">UT</text>
  <line x1="463.33" y1="353.08" x2="463.33" y2="297.75" stroke="#6670ee" stroke-width="2.5" opacity="0.75"/>
  <circle cx="463.33" cy="325.42" r="5.2" fill="#6670ee" stroke="#263f86" stroke-width="1.5"/>
  <line x1="410.28" y1="330.28" x2="410.28" y2="288.31" stroke="#6670ee" stroke-width="2.5" opacity="0.75"/>
  <circle cx="410.28" cy="309.3" r="5.2" fill="#6670ee" stroke="#263f86" stroke-width="1.5"/>
  <line x1="493.65" y1="308.99" x2="493.65" y2="266.16" stroke="#6670ee" stroke-width="2.5" opacity="0.75"/>
  <circle cx="493.65" cy="287.58" r="5.2" fill="#6670ee" stroke="#263f86" stroke-width="1.5"/>
  <line x1="561.86" y1="273.34" x2="561.86" y2="220.74" stroke="#6670ee" stroke-width="2.5" opacity="0.75"/>
  <circle cx="561.86" cy="247.04" r="5.2" fill="#6670ee" stroke="#263f86" stroke-width="1.5"/>
  <line x1="364.8" y1="322.9" x2="364.8" y2="274.82" stroke="#6670ee" stroke-width="2.5" opacity="0.75"/>
  <circle cx="364.8" cy="298.86" r="5.2" fill="#6670ee" stroke="#263f86" stroke-width="1.5"/>
  <line x1="516.38" y1="266" x2="516.38" y2="183.29" stroke="#6670ee" stroke-width="2.5" opacity="0.75"/>
  <circle cx="516.38" cy="224.64" r="5.2" fill="#6670ee" stroke="#263f86" stroke-width="1.5"/>
  <text x="194" y="561" text-anchor="middle" font-family="PingFang SC, Noto Sans CJK SC, Microsoft YaHei, sans-serif" font-size="16" fill="#30332e">-2</text>
  <text x="110" y="488.5" text-anchor="end" font-family="PingFang SC, Noto Sans CJK SC, Microsoft YaHei, sans-serif" font-size="16" fill="#30332e">-2</text>
  <text x="332" y="561" text-anchor="middle" font-family="PingFang SC, Noto Sans CJK SC, Microsoft YaHei, sans-serif" font-size="16" fill="#30332e">-1</text>
  <text x="110" y="393.5" text-anchor="end" font-family="PingFang SC, Noto Sans CJK SC, Microsoft YaHei, sans-serif" font-size="16" fill="#30332e">-1</text>
  <text x="470" y="561" text-anchor="middle" font-family="PingFang SC, Noto Sans CJK SC, Microsoft YaHei, sans-serif" font-size="16" fill="#30332e">0</text>
  <text x="110" y="298.5" text-anchor="end" font-family="PingFang SC, Noto Sans CJK SC, Microsoft YaHei, sans-serif" font-size="16" fill="#30332e">0</text>
  <text x="608" y="561" text-anchor="middle" font-family="PingFang SC, Noto Sans CJK SC, Microsoft YaHei, sans-serif" font-size="16" fill="#30332e">1</text>
  <text x="110" y="203.5" text-anchor="end" font-family="PingFang SC, Noto Sans CJK SC, Microsoft YaHei, sans-serif" font-size="16" fill="#30332e">1</text>
  <text x="746" y="561" text-anchor="middle" font-family="PingFang SC, Noto Sans CJK SC, Microsoft YaHei, sans-serif" font-size="16" fill="#30332e">2</text>
  <text x="110" y="108.5" text-anchor="end" font-family="PingFang SC, Noto Sans CJK SC, Microsoft YaHei, sans-serif" font-size="16" fill="#30332e">2</text>
  <text x="470.0" y="602" text-anchor="middle" font-family="PingFang SC, Noto Sans CJK SC, Microsoft YaHei, sans-serif" font-size="20" font-weight="700" fill="#263f86">观测离婚率</text>
  <text x="45" y="292.5" transform="rotate(-90 45 292.5)" text-anchor="middle" font-family="PingFang SC, Noto Sans CJK SC, Microsoft YaHei, sans-serif" font-size="20" font-weight="700" fill="#263f86">预测离婚率</text>
</svg>
