<?xml version="1.0" encoding="UTF-8"?><svg xmlns="http://www.w3.org/2000/svg" width="900" height="600" viewBox="0 0 900 600" role="img" aria-labelledby="title desc"><title id="title">黑猩猩开坚果技能的后验发展曲线</title><desc id="desc">蓝色圆点为每次活动每秒打开的坚果数，圆点大小随活动持续时间变化；三十条黑色曲线来自后验分布。</desc><rect width="100%" height="100%" fill="#fff"/><style>.axis{font:16px -apple-system, BlinkMacSystemFont, "PingFang SC", sans-serif;fill:#30332e}.label{font:20px -apple-system, BlinkMacSystemFont, "PingFang SC", sans-serif;fill:#30332e}.title{font:700 23px -apple-system, BlinkMacSystemFont, "PingFang SC", sans-serif;fill:#263f86}.panel{fill:#fff;stroke:#3c403b;stroke-width:1.4}.curve{fill:none;stroke:#202420;stroke-width:2;opacity:.5}.point{fill:none;stroke:#6874ef;stroke-width:2.4;opacity:.88}</style><text class="title" x="450" y="32" text-anchor="middle">开坚果技能的后验发展曲线</text><rect class="panel" x="100" y="65" width="735" height="430"/><path class="curve" d="M100,495 L106.12,495 L112.25,495 L118.38,495 L124.5,495 L130.62,495 L136.75,495 L142.88,495 L149,495 L155.12,495 L161.25,494.99 L167.38,494.98 L173.5,494.95 L179.62,494.91 L185.75,494.83 L191.88,494.72 L198,494.54 L204.12,494.29 L210.25,493.95 L216.38,493.48 L222.5,492.88 L228.62,492.11 L234.75,491.16 L240.88,490 L247,488.61 L253.12,486.99 L259.25,485.11 L265.38,482.98 L271.5,480.57 L277.62,477.89 L283.75,474.94 L289.88,471.73 L296,468.27 L302.12,464.56 L308.25,460.61 L314.38,456.46 L320.5,452.11 L326.62,447.57 L332.75,442.88 L338.88,438.06 L345,433.11 L351.12,428.07 L357.25,422.96 L363.38,417.79 L369.5,412.58 L375.62,407.36 L381.75,402.14 L387.88,396.93 L394,391.76 L400.12,386.64 L406.25,381.57 L412.38,376.57 L418.5,371.66 L424.62,366.84 L430.75,362.11 L436.88,357.49 L443,352.98 L449.12,348.58 L455.25,344.31 L461.38,340.16 L467.5,336.13 L473.62,332.23 L479.75,328.45 L485.88,324.8 L492,321.28 L498.12,317.89 L504.25,314.62 L510.38,311.47 L516.5,308.44 L522.62,305.54 L528.75,302.75 L534.88,300.07 L541,297.5 L547.12,295.05 L553.25,292.69 L559.38,290.44 L565.5,288.29 L571.62,286.23 L577.75,284.27 L583.88,282.39 L590,280.6 L596.12,278.9 L602.25,277.27 L608.38,275.71 L614.5,274.24 L620.62,272.83 L626.75,271.49 L632.88,270.21 L639,268.99 L645.12,267.84 L651.25,266.74 L657.38,265.69 L663.5,264.7 L669.62,263.76 L675.75,262.86 L681.88,262.01 L688,261.2 L694.12,260.43 L700.25,259.7 L706.38,259 L712.5,258.34 L718.62,257.72 L724.75,257.13 L730.88,256.56 L737,256.03 L743.12,255.52 L749.25,255.04 L755.38,254.59 L761.5,254.15 L767.62,253.74 L773.75,253.35 L779.88,252.99 L786,252.64 L792.12,252.3 L798.25,251.99 L804.38,251.69 L810.5,251.41 L816.62,251.14 L822.75,250.89 L828.88,250.65 L835,250.42"/><path class="curve" d="M100,495 L106.12,495 L112.25,495 L118.38,495 L124.5,495 L130.62,495 L136.75,495 L142.88,495 L149,494.99 L155.12,494.99 L161.25,494.97 L167.38,494.95 L173.5,494.9 L179.62,494.83 L185.75,494.73 L191.88,494.57 L198,494.36 L204.12,494.07 L210.25,493.69 L216.38,493.21 L222.5,492.6 L228.62,491.86 L234.75,490.97 L240.88,489.92 L247,488.7 L253.12,487.29 L259.25,485.69 L265.38,483.9 L271.5,481.91 L277.62,479.72 L283.75,477.33 L289.88,474.75 L296,471.98 L302.12,469.02 L308.25,465.89 L314.38,462.6 L320.5,459.15 L326.62,455.55 L332.75,451.83 L338.88,447.98 L345,444.04 L351.12,440 L357.25,435.88 L363.38,431.7 L369.5,427.46 L375.62,423.19 L381.75,418.89 L387.88,414.57 L394,410.25 L400.12,405.94 L406.25,401.65 L412.38,397.38 L418.5,393.14 L424.62,388.95 L430.75,384.81 L436.88,380.73 L443,376.71 L449.12,372.75 L455.25,368.87 L461.38,365.06 L467.5,361.34 L473.62,357.69 L479.75,354.13 L485.88,350.66 L492,347.28 L498.12,343.99 L504.25,340.78 L510.38,337.67 L516.5,334.65 L522.62,331.72 L528.75,328.88 L534.88,326.13 L541,323.47 L547.12,320.9 L553.25,318.41 L559.38,316.01 L565.5,313.69 L571.62,311.45 L577.75,309.29 L583.88,307.21 L590,305.21 L596.12,303.28 L602.25,301.42 L608.38,299.64 L614.5,297.92 L620.62,296.27 L626.75,294.68 L632.88,293.16 L639,291.69 L645.12,290.29 L651.25,288.94 L657.38,287.64 L663.5,286.4 L669.62,285.21 L675.75,284.07 L681.88,282.98 L688,281.93 L694.12,280.92 L700.25,279.96 L706.38,279.04 L712.5,278.16 L718.62,277.31 L724.75,276.5 L730.88,275.73 L737,274.99 L743.12,274.28 L749.25,273.6 L755.38,272.95 L761.5,272.33 L767.62,271.73 L773.75,271.17 L779.88,270.62 L786,270.1 L792.12,269.61 L798.25,269.13 L804.38,268.68 L810.5,268.25 L816.62,267.83 L822.75,267.44 L828.88,267.06 L835,266.7"/><path class="curve" d="M100,495 L106.12,495 L112.25,495 L118.38,495 L124.5,495 L130.62,495 L136.75,495 L142.88,495 L149,494.99 L155.12,494.98 L161.25,494.96 L167.38,494.93 L173.5,494.86 L179.62,494.77 L185.75,494.62 L191.88,494.42 L198,494.14 L204.12,493.76 L210.25,493.26 L216.38,492.64 L222.5,491.87 L228.62,490.93 L234.75,489.81 L240.88,488.5 L247,486.98 L253.12,485.24 L259.25,483.29 L265.38,481.1 L271.5,478.7 L277.62,476.06 L283.75,473.2 L289.88,470.13 L296,466.84 L302.12,463.36 L308.25,459.68 L314.38,455.83 L320.5,451.82 L326.62,447.66 L332.75,443.37 L338.88,438.95 L345,434.44 L351.12,429.84 L357.25,425.17 L363.38,420.44 L369.5,415.67 L375.62,410.88 L381.75,406.07 L387.88,401.26 L394,396.46 L400.12,391.69 L406.25,386.94 L412.38,382.25 L418.5,377.6 L424.62,373.01 L430.75,368.49 L436.88,364.05 L443,359.68 L449.12,355.4 L455.25,351.21 L461.38,347.11 L467.5,343.11 L473.62,339.21 L479.75,335.41 L485.88,331.7 L492,328.1 L498.12,324.61 L504.25,321.22 L510.38,317.93 L516.5,314.74 L522.62,311.66 L528.75,308.68 L534.88,305.79 L541,303.01 L547.12,300.32 L553.25,297.73 L559.38,295.23 L565.5,292.82 L571.62,290.5 L577.75,288.27 L583.88,286.12 L590,284.06 L596.12,282.07 L602.25,280.16 L608.38,278.33 L614.5,276.57 L620.62,274.89 L626.75,273.27 L632.88,271.71 L639,270.22 L645.12,268.79 L651.25,267.43 L657.38,266.11 L663.5,264.86 L669.62,263.66 L675.75,262.5 L681.88,261.4 L688,260.35 L694.12,259.34 L700.25,258.37 L706.38,257.45 L712.5,256.57 L718.62,255.72 L724.75,254.92 L730.88,254.14 L737,253.41 L743.12,252.7 L749.25,252.03 L755.38,251.39 L761.5,250.77 L767.62,250.19 L773.75,249.62 L779.88,249.09 L786,248.58 L792.12,248.09 L798.25,247.63 L804.38,247.18 L810.5,246.76 L816.62,246.35 L822.75,245.96 L828.88,245.6 L835,245.24"/><path class="curve" d="M100,495 L106.12,495 L112.25,495 L118.38,495 L124.5,495 L130.62,495 L136.75,495 L142.88,495 L149,495 L155.12,495 L161.25,495 L167.38,495 L173.5,494.99 L179.62,494.98 L185.75,494.97 L191.88,494.93 L198,494.87 L204.12,494.77 L210.25,494.61 L216.38,494.38 L222.5,494.04 L228.62,493.58 L234.75,492.96 L240.88,492.16 L247,491.14 L253.12,489.87 L259.25,488.34 L265.38,486.53 L271.5,484.4 L277.62,481.96 L283.75,479.19 L289.88,476.1 L296,472.68 L302.12,468.95 L308.25,464.93 L314.38,460.62 L320.5,456.05 L326.62,451.24 L332.75,446.23 L338.88,441.03 L345,435.68 L351.12,430.2 L357.25,424.63 L363.38,418.99 L369.5,413.31 L375.62,407.61 L381.75,401.92 L387.88,396.26 L394,390.66 L400.12,385.12 L406.25,379.67 L412.38,374.32 L418.5,369.09 L424.62,363.97 L430.75,359 L436.88,354.16 L443,349.48 L449.12,344.94 L455.25,340.56 L461.38,336.34 L467.5,332.27 L473.62,328.36 L479.75,324.62 L485.88,321.02 L492,317.58 L498.12,314.3 L504.25,311.15 L510.38,308.16 L516.5,305.3 L522.62,302.58 L528.75,300 L534.88,297.54 L541,295.2 L547.12,292.98 L553.25,290.88 L559.38,288.89 L565.5,287 L571.62,285.21 L577.75,283.51 L583.88,281.91 L590,280.39 L596.12,278.96 L602.25,277.61 L608.38,276.33 L614.5,275.12 L620.62,273.98 L626.75,272.9 L632.88,271.89 L639,270.93 L645.12,270.03 L651.25,269.18 L657.38,268.38 L663.5,267.62 L669.62,266.91 L675.75,266.24 L681.88,265.61 L688,265.02 L694.12,264.46 L700.25,263.93 L706.38,263.44 L712.5,262.97 L718.62,262.53 L724.75,262.12 L730.88,261.73 L737,261.37 L743.12,261.02 L749.25,260.7 L755.38,260.4 L761.5,260.11 L767.62,259.84 L773.75,259.59 L779.88,259.35 L786,259.13 L792.12,258.92 L798.25,258.72 L804.38,258.54 L810.5,258.36 L816.62,258.2 L822.75,258.05 L828.88,257.9 L835,257.77"/><path class="curve" d="M100,495 L106.12,495 L112.25,495 L118.38,495 L124.5,495 L130.62,495 L136.75,495 L142.88,494.99 L149,494.97 L155.12,494.94 L161.25,494.89 L167.38,494.8 L173.5,494.67 L179.62,494.49 L185.75,494.23 L191.88,493.88 L198,493.44 L204.12,492.87 L210.25,492.16 L216.38,491.31 L222.5,490.29 L228.62,489.1 L234.75,487.73 L240.88,486.16 L247,484.39 L253.12,482.42 L259.25,480.24 L265.38,477.86 L271.5,475.28 L277.62,472.5 L283.75,469.53 L289.88,466.37 L296,463.04 L302.12,459.54 L308.25,455.89 L314.38,452.09 L320.5,448.17 L326.62,444.12 L332.75,439.97 L338.88,435.72 L345,431.39 L351.12,427 L357.25,422.56 L363.38,418.07 L369.5,413.55 L375.62,409.01 L381.75,404.46 L387.88,399.92 L394,395.39 L400.12,390.88 L406.25,386.4 L412.38,381.96 L418.5,377.56 L424.62,373.22 L430.75,368.93 L436.88,364.7 L443,360.55 L449.12,356.46 L455.25,352.45 L461.38,348.52 L467.5,344.68 L473.62,340.91 L479.75,337.24 L485.88,333.65 L492,330.14 L498.12,326.73 L504.25,323.41 L510.38,320.18 L516.5,317.04 L522.62,313.99 L528.75,311.03 L534.88,308.15 L541,305.37 L547.12,302.67 L553.25,300.05 L559.38,297.52 L565.5,295.07 L571.62,292.71 L577.75,290.42 L583.88,288.21 L590,286.08 L596.12,284.02 L602.25,282.03 L608.38,280.11 L614.5,278.27 L620.62,276.48 L626.75,274.77 L632.88,273.12 L639,271.52 L645.12,269.99 L651.25,268.52 L657.38,267.1 L663.5,265.73 L669.62,264.42 L675.75,263.16 L681.88,261.94 L688,260.78 L694.12,259.66 L700.25,258.58 L706.38,257.55 L712.5,256.55 L718.62,255.6 L724.75,254.68 L730.88,253.8 L737,252.96 L743.12,252.15 L749.25,251.37 L755.38,250.63 L761.5,249.91 L767.62,249.23 L773.75,248.57 L779.88,247.94 L786,247.33 L792.12,246.75 L798.25,246.2 L804.38,245.66 L810.5,245.15 L816.62,244.66 L822.75,244.19 L828.88,243.74 L835,243.31"/><path class="curve" d="M100,495 L106.12,495 L112.25,495 L118.38,495 L124.5,495 L130.62,495 L136.75,495 L142.88,495 L149,495 L155.12,495 L161.25,494.99 L167.38,494.99 L173.5,494.97 L179.62,494.94 L185.75,494.9 L191.88,494.82 L198,494.71 L204.12,494.55 L210.25,494.31 L216.38,494 L222.5,493.57 L228.62,493.03 L234.75,492.34 L240.88,491.49 L247,490.46 L253.12,489.24 L259.25,487.8 L265.38,486.14 L271.5,484.25 L277.62,482.12 L283.75,479.74 L289.88,477.12 L296,474.26 L302.12,471.17 L308.25,467.84 L314.38,464.3 L320.5,460.55 L326.62,456.61 L332.75,452.49 L338.88,448.21 L345,443.79 L351.12,439.23 L357.25,434.58 L363.38,429.83 L369.5,425 L375.62,420.13 L381.75,415.21 L387.88,410.28 L394,405.33 L400.12,400.4 L406.25,395.49 L412.38,390.61 L418.5,385.78 L424.62,381.01 L430.75,376.3 L436.88,371.67 L443,367.12 L449.12,362.66 L455.25,358.29 L461.38,354.03 L467.5,349.87 L473.62,345.82 L479.75,341.88 L485.88,338.05 L492,334.34 L498.12,330.74 L504.25,327.25 L510.38,323.88 L516.5,320.62 L522.62,317.48 L528.75,314.45 L534.88,311.53 L541,308.71 L547.12,306.01 L553.25,303.41 L559.38,300.91 L565.5,298.51 L571.62,296.2 L577.75,293.99 L583.88,291.87 L590,289.85 L596.12,287.9 L602.25,286.04 L608.38,284.26 L614.5,282.56 L620.62,280.93 L626.75,279.38 L632.88,277.89 L639,276.48 L645.12,275.12 L651.25,273.83 L657.38,272.6 L663.5,271.42 L669.62,270.3 L675.75,269.23 L681.88,268.21 L688,267.24 L694.12,266.31 L700.25,265.43 L706.38,264.59 L712.5,263.79 L718.62,263.03 L724.75,262.31 L730.88,261.62 L737,260.96 L743.12,260.33 L749.25,259.74 L755.38,259.17 L761.5,258.64 L767.62,258.12 L773.75,257.64 L779.88,257.18 L786,256.74 L792.12,256.32 L798.25,255.92 L804.38,255.54 L810.5,255.18 L816.62,254.84 L822.75,254.52 L828.88,254.21 L835,253.92"/><path class="curve" d="M100,495 L106.12,495 L112.25,495 L118.38,495 L124.5,495 L130.62,495 L136.75,495 L142.88,495 L149,495 L155.12,494.99 L161.25,494.99 L167.38,494.97 L173.5,494.94 L179.62,494.89 L185.75,494.81 L191.88,494.68 L198,494.49 L204.12,494.22 L210.25,493.86 L216.38,493.38 L222.5,492.76 L228.62,491.98 L234.75,491.02 L240.88,489.86 L247,488.49 L253.12,486.9 L259.25,485.06 L265.38,482.99 L271.5,480.66 L277.62,478.08 L283.75,475.25 L289.88,472.19 L296,468.88 L302.12,465.36 L308.25,461.62 L314.38,457.69 L320.5,453.58 L326.62,449.3 L332.75,444.89 L338.88,440.34 L345,435.7 L351.12,430.96 L357.25,426.16 L363.38,421.31 L369.5,416.42 L375.62,411.52 L381.75,406.63 L387.88,401.74 L394,396.89 L400.12,392.08 L406.25,387.32 L412.38,382.63 L418.5,378.01 L424.62,373.47 L430.75,369.02 L436.88,364.67 L443,360.41 L449.12,356.27 L455.25,352.23 L461.38,348.31 L467.5,344.5 L473.62,340.8 L479.75,337.23 L485.88,333.77 L492,330.42 L498.12,327.19 L504.25,324.08 L510.38,321.08 L516.5,318.2 L522.62,315.42 L528.75,312.76 L534.88,310.2 L541,307.74 L547.12,305.38 L553.25,303.12 L559.38,300.96 L565.5,298.89 L571.62,296.91 L577.75,295.01 L583.88,293.2 L590,291.47 L596.12,289.81 L602.25,288.24 L608.38,286.73 L614.5,285.29 L620.62,283.92 L626.75,282.62 L632.88,281.37 L639,280.19 L645.12,279.06 L651.25,277.98 L657.38,276.96 L663.5,275.98 L669.62,275.06 L675.75,274.17 L681.88,273.33 L688,272.54 L694.12,271.78 L700.25,271.06 L706.38,270.37 L712.5,269.72 L718.62,269.1 L724.75,268.51 L730.88,267.95 L737,267.42 L743.12,266.91 L749.25,266.44 L755.38,265.98 L761.5,265.55 L767.62,265.14 L773.75,264.75 L779.88,264.38 L786,264.03 L792.12,263.7 L798.25,263.38 L804.38,263.08 L810.5,262.8 L816.62,262.53 L822.75,262.27 L828.88,262.03 L835,261.8"/><path class="curve" d="M100,495 L106.12,495 L112.25,495 L118.38,495 L124.5,495 L130.62,495 L136.75,494.99 L142.88,494.98 L149,494.95 L155.12,494.91 L161.25,494.84 L167.38,494.73 L173.5,494.57 L179.62,494.34 L185.75,494.04 L191.88,493.64 L198,493.14 L204.12,492.52 L210.25,491.76 L216.38,490.85 L222.5,489.78 L228.62,488.54 L234.75,487.13 L240.88,485.54 L247,483.76 L253.12,481.78 L259.25,479.62 L265.38,477.27 L271.5,474.73 L277.62,472.01 L283.75,469.11 L289.88,466.04 L296,462.81 L302.12,459.43 L308.25,455.9 L314.38,452.24 L320.5,448.46 L326.62,444.56 L332.75,440.56 L338.88,436.48 L345,432.31 L351.12,428.08 L357.25,423.8 L363.38,419.47 L369.5,415.11 L375.62,410.72 L381.75,406.32 L387.88,401.92 L394,397.52 L400.12,393.13 L406.25,388.76 L412.38,384.42 L418.5,380.12 L424.62,375.85 L430.75,371.64 L436.88,367.47 L443,363.36 L449.12,359.31 L455.25,355.33 L461.38,351.42 L467.5,347.57 L473.62,343.8 L479.75,340.11 L485.88,336.49 L492,332.95 L498.12,329.5 L504.25,326.12 L510.38,322.83 L516.5,319.61 L522.62,316.48 L528.75,313.44 L534.88,310.47 L541,307.59 L547.12,304.78 L553.25,302.06 L559.38,299.42 L565.5,296.85 L571.62,294.36 L577.75,291.95 L583.88,289.61 L590,287.35 L596.12,285.16 L602.25,283.03 L608.38,280.98 L614.5,278.99 L620.62,277.07 L626.75,275.22 L632.88,273.42 L639,271.69 L645.12,270.02 L651.25,268.4 L657.38,266.84 L663.5,265.34 L669.62,263.89 L675.75,262.49 L681.88,261.14 L688,259.84 L694.12,258.58 L700.25,257.37 L706.38,256.21 L712.5,255.09 L718.62,254.01 L724.75,252.96 L730.88,251.96 L737,251 L743.12,250.07 L749.25,249.17 L755.38,248.31 L761.5,247.49 L767.62,246.69 L773.75,245.92 L779.88,245.19 L786,244.48 L792.12,243.8 L798.25,243.14 L804.38,242.51 L810.5,241.9 L816.62,241.32 L822.75,240.76 L828.88,240.22 L835,239.7"/><path class="curve" d="M100,495 L106.12,495 L112.25,495 L118.38,495 L124.5,495 L130.62,495 L136.75,495 L142.88,495 L149,494.99 L155.12,494.99 L161.25,494.97 L167.38,494.94 L173.5,494.89 L179.62,494.81 L185.75,494.69 L191.88,494.52 L198,494.27 L204.12,493.94 L210.25,493.51 L216.38,492.96 L222.5,492.26 L228.62,491.41 L234.75,490.39 L240.88,489.19 L247,487.78 L253.12,486.17 L259.25,484.34 L265.38,482.29 L271.5,480.01 L277.62,477.51 L283.75,474.78 L289.88,471.83 L296,468.68 L302.12,465.31 L308.25,461.76 L314.38,458.02 L320.5,454.11 L326.62,450.05 L332.75,445.84 L338.88,441.51 L345,437.07 L351.12,432.53 L357.25,427.91 L363.38,423.23 L369.5,418.5 L375.62,413.73 L381.75,408.95 L387.88,404.15 L394,399.36 L400.12,394.58 L406.25,389.83 L412.38,385.12 L418.5,380.46 L424.62,375.85 L430.75,371.31 L436.88,366.83 L443,362.43 L449.12,358.11 L455.25,353.88 L461.38,349.74 L467.5,345.69 L473.62,341.74 L479.75,337.89 L485.88,334.14 L492,330.49 L498.12,326.94 L504.25,323.5 L510.38,320.16 L516.5,316.92 L522.62,313.79 L528.75,310.76 L534.88,307.82 L541,304.99 L547.12,302.25 L553.25,299.61 L559.38,297.07 L565.5,294.61 L571.62,292.25 L577.75,289.97 L583.88,287.78 L590,285.67 L596.12,283.65 L602.25,281.7 L608.38,279.83 L614.5,278.04 L620.62,276.31 L626.75,274.66 L632.88,273.07 L639,271.55 L645.12,270.09 L651.25,268.69 L657.38,267.35 L663.5,266.07 L669.62,264.84 L675.75,263.66 L681.88,262.53 L688,261.46 L694.12,260.42 L700.25,259.44 L706.38,258.49 L712.5,257.59 L718.62,256.73 L724.75,255.9 L730.88,255.11 L737,254.36 L743.12,253.64 L749.25,252.95 L755.38,252.29 L761.5,251.66 L767.62,251.06 L773.75,250.49 L779.88,249.94 L786,249.42 L792.12,248.92 L798.25,248.44 L804.38,247.99 L810.5,247.55 L816.62,247.14 L822.75,246.74 L828.88,246.36 L835,246"/><path class="curve" d="M100,495 L106.12,495 L112.25,495 L118.38,495 L124.5,495 L130.62,495 L136.75,495 L142.88,495 L149,494.99 L155.12,494.98 L161.25,494.96 L167.38,494.93 L173.5,494.87 L179.62,494.78 L185.75,494.64 L191.88,494.45 L198,494.19 L204.12,493.84 L210.25,493.39 L216.38,492.82 L222.5,492.12 L228.62,491.26 L234.75,490.25 L240.88,489.05 L247,487.67 L253.12,486.09 L259.25,484.31 L265.38,482.33 L271.5,480.13 L277.62,477.72 L283.75,475.11 L289.88,472.28 L296,469.26 L302.12,466.05 L308.25,462.66 L314.38,459.09 L320.5,455.37 L326.62,451.49 L332.75,447.48 L338.88,443.35 L345,439.1 L351.12,434.76 L357.25,430.34 L363.38,425.86 L369.5,421.32 L375.62,416.73 L381.75,412.12 L387.88,407.5 L394,402.86 L400.12,398.24 L406.25,393.63 L412.38,389.05 L418.5,384.5 L424.62,379.99 L430.75,375.54 L436.88,371.15 L443,366.82 L449.12,362.55 L455.25,358.37 L461.38,354.26 L467.5,350.23 L473.62,346.3 L479.75,342.44 L485.88,338.68 L492,335.02 L498.12,331.44 L504.25,327.96 L510.38,324.58 L516.5,321.29 L522.62,318.09 L528.75,314.99 L534.88,311.99 L541,309.08 L547.12,306.26 L553.25,303.53 L559.38,300.89 L565.5,298.34 L571.62,295.88 L577.75,293.5 L583.88,291.21 L590,288.99 L596.12,286.86 L602.25,284.81 L608.38,282.83 L614.5,280.92 L620.62,279.08 L626.75,277.32 L632.88,275.62 L639,273.99 L645.12,272.42 L651.25,270.91 L657.38,269.46 L663.5,268.06 L669.62,266.73 L675.75,265.44 L681.88,264.21 L688,263.03 L694.12,261.9 L700.25,260.81 L706.38,259.77 L712.5,258.77 L718.62,257.81 L724.75,256.89 L730.88,256.01 L737,255.17 L743.12,254.36 L749.25,253.59 L755.38,252.84 L761.5,252.13 L767.62,251.45 L773.75,250.8 L779.88,250.18 L786,249.58 L792.12,249.01 L798.25,248.47 L804.38,247.94 L810.5,247.44 L816.62,246.97 L822.75,246.51 L828.88,246.07 L835,245.65"/><path class="curve" d="M100,495 L106.12,495 L112.25,495 L118.38,495 L124.5,495 L130.62,495 L136.75,495 L142.88,494.99 L149,494.98 L155.12,494.96 L161.25,494.93 L167.38,494.87 L173.5,494.77 L179.62,494.62 L185.75,494.4 L191.88,494.11 L198,493.71 L204.12,493.2 L210.25,492.54 L216.38,491.74 L222.5,490.77 L228.62,489.61 L234.75,488.26 L240.88,486.71 L247,484.94 L253.12,482.95 L259.25,480.75 L265.38,478.33 L271.5,475.69 L277.62,472.84 L283.75,469.79 L289.88,466.54 L296,463.12 L302.12,459.52 L308.25,455.76 L314.38,451.87 L320.5,447.84 L326.62,443.7 L332.75,439.46 L338.88,435.15 L345,430.76 L351.12,426.32 L357.25,421.84 L363.38,417.34 L369.5,412.83 L375.62,408.32 L381.75,403.82 L387.88,399.34 L394,394.9 L400.12,390.5 L406.25,386.16 L412.38,381.87 L418.5,377.65 L424.62,373.5 L430.75,369.43 L436.88,365.44 L443,361.54 L449.12,357.72 L455.25,354 L461.38,350.38 L467.5,346.85 L473.62,343.42 L479.75,340.08 L485.88,336.85 L492,333.71 L498.12,330.67 L504.25,327.73 L510.38,324.89 L516.5,322.14 L522.62,319.49 L528.75,316.93 L534.88,314.46 L541,312.08 L547.12,309.79 L553.25,307.58 L559.38,305.46 L565.5,303.41 L571.62,301.45 L577.75,299.56 L583.88,297.75 L590,296.01 L596.12,294.35 L602.25,292.74 L608.38,291.21 L614.5,289.74 L620.62,288.33 L626.75,286.98 L632.88,285.68 L639,284.44 L645.12,283.26 L651.25,282.12 L657.38,281.04 L663.5,280 L669.62,279 L675.75,278.05 L681.88,277.14 L688,276.28 L694.12,275.45 L700.25,274.65 L706.38,273.9 L712.5,273.17 L718.62,272.48 L724.75,271.82 L730.88,271.19 L737,270.59 L743.12,270.02 L749.25,269.47 L755.38,268.94 L761.5,268.44 L767.62,267.97 L773.75,267.51 L779.88,267.08 L786,266.67 L792.12,266.27 L798.25,265.89 L804.38,265.53 L810.5,265.19 L816.62,264.87 L822.75,264.55 L828.88,264.26 L835,263.97"/><path class="curve" d="M100,495 L106.12,495 L112.25,495 L118.38,495 L124.5,495 L130.62,495 L136.75,495 L142.88,495 L149,495 L155.12,495 L161.25,494.99 L167.38,494.98 L173.5,494.96 L179.62,494.92 L185.75,494.85 L191.88,494.75 L198,494.59 L204.12,494.35 L210.25,494.03 L216.38,493.6 L222.5,493.02 L228.62,492.29 L234.75,491.38 L240.88,490.27 L247,488.94 L253.12,487.37 L259.25,485.55 L265.38,483.47 L271.5,481.12 L277.62,478.5 L283.75,475.61 L289.88,472.46 L296,469.05 L302.12,465.4 L308.25,461.51 L314.38,457.4 L320.5,453.1 L326.62,448.62 L332.75,443.97 L338.88,439.18 L345,434.28 L351.12,429.28 L357.25,424.2 L363.38,419.07 L369.5,413.89 L375.62,408.7 L381.75,403.51 L387.88,398.34 L394,393.2 L400.12,388.1 L406.25,383.07 L412.38,378.1 L418.5,373.21 L424.62,368.42 L430.75,363.72 L436.88,359.13 L443,354.65 L449.12,350.29 L455.25,346.04 L461.38,341.92 L467.5,337.92 L473.62,334.05 L479.75,330.31 L485.88,326.69 L492,323.2 L498.12,319.84 L504.25,316.6 L510.38,313.49 L516.5,310.5 L522.62,307.62 L528.75,304.86 L534.88,302.22 L541,299.68 L547.12,297.26 L553.25,294.94 L559.38,292.71 L565.5,290.59 L571.62,288.57 L577.75,286.63 L583.88,284.78 L590,283.02 L596.12,281.34 L602.25,279.74 L608.38,278.22 L614.5,276.76 L620.62,275.38 L626.75,274.07 L632.88,272.81 L639,271.62 L645.12,270.49 L651.25,269.41 L657.38,268.39 L663.5,267.42 L669.62,266.49 L675.75,265.62 L681.88,264.78 L688,263.99 L694.12,263.24 L700.25,262.53 L706.38,261.85 L712.5,261.21 L718.62,260.6 L724.75,260.02 L730.88,259.47 L737,258.95 L743.12,258.46 L749.25,257.99 L755.38,257.55 L761.5,257.13 L767.62,256.73 L773.75,256.36 L779.88,256 L786,255.66 L792.12,255.34 L798.25,255.04 L804.38,254.75 L810.5,254.47 L816.62,254.22 L822.75,253.97 L828.88,253.74 L835,253.52"/><path class="curve" d="M100,495 L106.12,495 L112.25,495 L118.38,495 L124.5,495 L130.62,495 L136.75,495 L142.88,495 L149,494.99 L155.12,494.98 L161.25,494.96 L167.38,494.92 L173.5,494.86 L179.62,494.77 L185.75,494.63 L191.88,494.42 L198,494.15 L204.12,493.78 L210.25,493.3 L216.38,492.69 L222.5,491.95 L228.62,491.04 L234.75,489.97 L240.88,488.71 L247,487.25 L253.12,485.59 L259.25,483.71 L265.38,481.62 L271.5,479.32 L277.62,476.8 L283.75,474.06 L289.88,471.12 L296,467.98 L302.12,464.65 L308.25,461.13 L314.38,457.45 L320.5,453.6 L326.62,449.62 L332.75,445.5 L338.88,441.27 L345,436.94 L351.12,432.52 L357.25,428.03 L363.38,423.48 L369.5,418.88 L375.62,414.26 L381.75,409.62 L387.88,404.98 L394,400.34 L400.12,395.72 L406.25,391.13 L412.38,386.57 L418.5,382.06 L424.62,377.61 L430.75,373.21 L436.88,368.89 L443,364.63 L449.12,360.46 L455.25,356.37 L461.38,352.36 L467.5,348.44 L473.62,344.62 L479.75,340.89 L485.88,337.25 L492,333.72 L498.12,330.28 L504.25,326.93 L510.38,323.69 L516.5,320.55 L522.62,317.5 L528.75,314.55 L534.88,311.7 L541,308.94 L547.12,306.27 L553.25,303.69 L559.38,301.21 L565.5,298.81 L571.62,296.5 L577.75,294.27 L583.88,292.13 L590,290.06 L596.12,288.08 L602.25,286.17 L608.38,284.33 L614.5,282.57 L620.62,280.87 L626.75,279.24 L632.88,277.68 L639,276.18 L645.12,274.73 L651.25,273.35 L657.38,272.03 L663.5,270.76 L669.62,269.54 L675.75,268.37 L681.88,267.26 L688,266.18 L694.12,265.16 L700.25,264.18 L706.38,263.24 L712.5,262.34 L718.62,261.48 L724.75,260.65 L730.88,259.86 L737,259.11 L743.12,258.39 L749.25,257.7 L755.38,257.04 L761.5,256.41 L767.62,255.81 L773.75,255.23 L779.88,254.68 L786,254.15 L792.12,253.65 L798.25,253.17 L804.38,252.71 L810.5,252.27 L816.62,251.85 L822.75,251.45 L828.88,251.07 L835,250.7"/><path class="curve" d="M100,495 L106.12,495 L112.25,495 L118.38,495 L124.5,495 L130.62,495 L136.75,495 L142.88,495 L149,495 L155.12,494.99 L161.25,494.98 L167.38,494.96 L173.5,494.92 L179.62,494.85 L185.75,494.74 L191.88,494.59 L198,494.36 L204.12,494.05 L210.25,493.62 L216.38,493.08 L222.5,492.38 L228.62,491.52 L234.75,490.48 L240.88,489.24 L247,487.78 L253.12,486.1 L259.25,484.18 L265.38,482.03 L271.5,479.63 L277.62,477 L283.75,474.13 L289.88,471.04 L296,467.73 L302.12,464.21 L308.25,460.49 L314.38,456.6 L320.5,452.55 L326.62,448.35 L332.75,444.03 L338.88,439.59 L345,435.07 L351.12,430.47 L357.25,425.82 L363.38,421.13 L369.5,416.42 L375.62,411.7 L381.75,406.99 L387.88,402.3 L394,397.64 L400.12,393.03 L406.25,388.48 L412.38,383.99 L418.5,379.57 L424.62,375.24 L430.75,371 L436.88,366.84 L443,362.79 L449.12,358.84 L455.25,354.99 L461.38,351.26 L467.5,347.63 L473.62,344.11 L479.75,340.7 L485.88,337.41 L492,334.23 L498.12,331.15 L504.25,328.19 L510.38,325.33 L516.5,322.58 L522.62,319.94 L528.75,317.4 L534.88,314.96 L541,312.61 L547.12,310.36 L553.25,308.21 L559.38,306.14 L565.5,304.17 L571.62,302.27 L577.75,300.46 L583.88,298.73 L590,297.07 L596.12,295.49 L602.25,293.98 L608.38,292.54 L614.5,291.16 L620.62,289.85 L626.75,288.59 L632.88,287.4 L639,286.26 L645.12,285.17 L651.25,284.14 L657.38,283.15 L663.5,282.22 L669.62,281.32 L675.75,280.47 L681.88,279.66 L688,278.89 L694.12,278.16 L700.25,277.46 L706.38,276.8 L712.5,276.17 L718.62,275.57 L724.75,275 L730.88,274.46 L737,273.94 L743.12,273.45 L749.25,272.99 L755.38,272.55 L761.5,272.13 L767.62,271.73 L773.75,271.35 L779.88,270.99 L786,270.65 L792.12,270.32 L798.25,270.01 L804.38,269.72 L810.5,269.44 L816.62,269.18 L822.75,268.93 L828.88,268.69 L835,268.46"/><path class="curve" d="M100,495 L106.12,495 L112.25,495 L118.38,495 L124.5,495 L130.62,495 L136.75,495 L142.88,495 L149,494.99 L155.12,494.98 L161.25,494.95 L167.38,494.91 L173.5,494.84 L179.62,494.74 L185.75,494.58 L191.88,494.36 L198,494.06 L204.12,493.67 L210.25,493.17 L216.38,492.53 L222.5,491.76 L228.62,490.82 L234.75,489.71 L240.88,488.42 L247,486.94 L253.12,485.25 L259.25,483.36 L265.38,481.26 L271.5,478.95 L277.62,476.44 L283.75,473.72 L289.88,470.8 L296,467.69 L302.12,464.4 L308.25,460.94 L314.38,457.31 L320.5,453.55 L326.62,449.64 L332.75,445.62 L338.88,441.49 L345,437.27 L351.12,432.97 L357.25,428.6 L363.38,424.19 L369.5,419.74 L375.62,415.26 L381.75,410.77 L387.88,406.28 L394,401.8 L400.12,397.34 L406.25,392.91 L412.38,388.52 L418.5,384.18 L424.62,379.89 L430.75,375.66 L436.88,371.5 L443,367.41 L449.12,363.39 L455.25,359.46 L461.38,355.61 L467.5,351.85 L473.62,348.18 L479.75,344.59 L485.88,341.11 L492,337.71 L498.12,334.41 L504.25,331.21 L510.38,328.1 L516.5,325.08 L522.62,322.16 L528.75,319.33 L534.88,316.59 L541,313.94 L547.12,311.38 L553.25,308.91 L559.38,306.53 L565.5,304.23 L571.62,302.01 L577.75,299.88 L583.88,297.82 L590,295.84 L596.12,293.93 L602.25,292.1 L608.38,290.34 L614.5,288.64 L620.62,287.01 L626.75,285.45 L632.88,283.95 L639,282.51 L645.12,281.12 L651.25,279.8 L657.38,278.52 L663.5,277.3 L669.62,276.13 L675.75,275.01 L681.88,273.93 L688,272.9 L694.12,271.92 L700.25,270.97 L706.38,270.07 L712.5,269.2 L718.62,268.37 L724.75,267.58 L730.88,266.82 L737,266.1 L743.12,265.4 L749.25,264.74 L755.38,264.1 L761.5,263.49 L767.62,262.91 L773.75,262.35 L779.88,261.82 L786,261.32 L792.12,260.83 L798.25,260.37 L804.38,259.92 L810.5,259.5 L816.62,259.09 L822.75,258.71 L828.88,258.34 L835,257.98"/><path class="curve" d="M100,495 L106.12,495 L112.25,495 L118.38,495 L124.5,495 L130.62,495 L136.75,495 L142.88,495 L149,494.99 L155.12,494.99 L161.25,494.97 L167.38,494.95 L173.5,494.9 L179.62,494.83 L185.75,494.72 L191.88,494.57 L198,494.35 L204.12,494.06 L210.25,493.67 L216.38,493.17 L222.5,492.55 L228.62,491.79 L234.75,490.87 L240.88,489.78 L247,488.5 L253.12,487.03 L259.25,485.35 L265.38,483.46 L271.5,481.35 L277.62,479.03 L283.75,476.48 L289.88,473.72 L296,470.74 L302.12,467.55 L308.25,464.16 L314.38,460.57 L320.5,456.81 L326.62,452.87 L332.75,448.78 L338.88,444.53 L345,440.16 L351.12,435.67 L357.25,431.07 L363.38,426.39 L369.5,421.63 L375.62,416.81 L381.75,411.94 L387.88,407.04 L394,402.11 L400.12,397.18 L406.25,392.25 L412.38,387.34 L418.5,382.44 L424.62,377.58 L430.75,372.77 L436.88,368 L443,363.29 L449.12,358.65 L455.25,354.07 L461.38,349.58 L467.5,345.16 L473.62,340.83 L479.75,336.59 L485.88,332.44 L492,328.38 L498.12,324.42 L504.25,320.56 L510.38,316.79 L516.5,313.13 L522.62,309.57 L528.75,306.1 L534.88,302.74 L541,299.48 L547.12,296.31 L553.25,293.25 L559.38,290.28 L565.5,287.41 L571.62,284.63 L577.75,281.94 L583.88,279.35 L590,276.84 L596.12,274.42 L602.25,272.09 L608.38,269.84 L614.5,267.67 L620.62,265.58 L626.75,263.56 L632.88,261.62 L639,259.76 L645.12,257.96 L651.25,256.24 L657.38,254.58 L663.5,252.98 L669.62,251.44 L675.75,249.97 L681.88,248.55 L688,247.19 L694.12,245.89 L700.25,244.64 L706.38,243.43 L712.5,242.28 L718.62,241.17 L724.75,240.11 L730.88,239.09 L737,238.11 L743.12,237.18 L749.25,236.28 L755.38,235.42 L761.5,234.59 L767.62,233.8 L773.75,233.05 L779.88,232.32 L786,231.63 L792.12,230.96 L798.25,230.33 L804.38,229.72 L810.5,229.13 L816.62,228.57 L822.75,228.04 L828.88,227.53 L835,227.04"/><path class="curve" d="M100,495 L106.12,495 L112.25,495 L118.38,495 L124.5,495 L130.62,495 L136.75,495 L142.88,495 L149,494.99 L155.12,494.99 L161.25,494.97 L167.38,494.94 L173.5,494.89 L179.62,494.81 L185.75,494.69 L191.88,494.52 L198,494.28 L204.12,493.96 L210.25,493.53 L216.38,492.99 L222.5,492.31 L228.62,491.49 L234.75,490.49 L240.88,489.32 L247,487.96 L253.12,486.39 L259.25,484.62 L265.38,482.63 L271.5,480.42 L277.62,478 L283.75,475.35 L289.88,472.5 L296,469.44 L302.12,466.18 L308.25,462.74 L314.38,459.11 L320.5,455.32 L326.62,451.38 L332.75,447.3 L338.88,443.09 L345,438.77 L351.12,434.36 L357.25,429.87 L363.38,425.32 L369.5,420.71 L375.62,416.06 L381.75,411.39 L387.88,406.71 L394,402.04 L400.12,397.37 L406.25,392.73 L412.38,388.12 L418.5,383.55 L424.62,379.03 L430.75,374.57 L436.88,370.18 L443,365.86 L449.12,361.61 L455.25,357.45 L461.38,353.37 L467.5,349.38 L473.62,345.49 L479.75,341.69 L485.88,337.98 L492,334.38 L498.12,330.87 L504.25,327.46 L510.38,324.15 L516.5,320.94 L522.62,317.83 L528.75,314.82 L534.88,311.9 L541,309.08 L547.12,306.36 L553.25,303.73 L559.38,301.19 L565.5,298.74 L571.62,296.38 L577.75,294.11 L583.88,291.92 L590,289.81 L596.12,287.78 L602.25,285.83 L608.38,283.96 L614.5,282.15 L620.62,280.42 L626.75,278.76 L632.88,277.16 L639,275.63 L645.12,274.16 L651.25,272.75 L657.38,271.4 L663.5,270.11 L669.62,268.86 L675.75,267.67 L681.88,266.54 L688,265.44 L694.12,264.4 L700.25,263.4 L706.38,262.44 L712.5,261.52 L718.62,260.65 L724.75,259.81 L730.88,259.01 L737,258.24 L743.12,257.51 L749.25,256.8 L755.38,256.13 L761.5,255.49 L767.62,254.88 L773.75,254.29 L779.88,253.74 L786,253.2 L792.12,252.69 L798.25,252.2 L804.38,251.74 L810.5,251.29 L816.62,250.87 L822.75,250.46 L828.88,250.07 L835,249.7"/><path class="curve" d="M100,495 L106.12,495 L112.25,495 L118.38,495 L124.5,495 L130.62,495 L136.75,495 L142.88,495 L149,494.99 L155.12,494.98 L161.25,494.95 L167.38,494.9 L173.5,494.82 L179.62,494.71 L185.75,494.53 L191.88,494.28 L198,493.95 L204.12,493.51 L210.25,492.94 L216.38,492.23 L222.5,491.36 L228.62,490.31 L234.75,489.07 L240.88,487.64 L247,485.99 L253.12,484.12 L259.25,482.04 L265.38,479.73 L271.5,477.19 L277.62,474.44 L283.75,471.48 L289.88,468.32 L296,464.96 L302.12,461.42 L308.25,457.7 L314.38,453.84 L320.5,449.83 L326.62,445.69 L332.75,441.44 L338.88,437.1 L345,432.68 L351.12,428.2 L357.25,423.67 L363.38,419.1 L369.5,414.51 L375.62,409.92 L381.75,405.33 L387.88,400.75 L394,396.21 L400.12,391.7 L406.25,387.25 L412.38,382.84 L418.5,378.51 L424.62,374.24 L430.75,370.04 L436.88,365.93 L443,361.91 L449.12,357.97 L455.25,354.13 L461.38,350.38 L467.5,346.74 L473.62,343.19 L479.75,339.74 L485.88,336.39 L492,333.14 L498.12,330 L504.25,326.95 L510.38,324.01 L516.5,321.16 L522.62,318.41 L528.75,315.76 L534.88,313.2 L541,310.73 L547.12,308.36 L553.25,306.07 L559.38,303.87 L565.5,301.75 L571.62,299.72 L577.75,297.77 L583.88,295.89 L590,294.09 L596.12,292.36 L602.25,290.7 L608.38,289.12 L614.5,287.59 L620.62,286.13 L626.75,284.74 L632.88,283.4 L639,282.12 L645.12,280.89 L651.25,279.72 L657.38,278.59 L663.5,277.52 L669.62,276.5 L675.75,275.51 L681.88,274.58 L688,273.68 L694.12,272.83 L700.25,272.01 L706.38,271.23 L712.5,270.48 L718.62,269.77 L724.75,269.09 L730.88,268.44 L737,267.82 L743.12,267.23 L749.25,266.67 L755.38,266.13 L761.5,265.62 L767.62,265.13 L773.75,264.66 L779.88,264.22 L786,263.79 L792.12,263.39 L798.25,263 L804.38,262.63 L810.5,262.28 L816.62,261.95 L822.75,261.63 L828.88,261.32 L835,261.03"/><path class="curve" d="M100,495 L106.12,495 L112.25,495 L118.38,495 L124.5,495 L130.62,495 L136.75,494.99 L142.88,494.98 L149,494.96 L155.12,494.92 L161.25,494.86 L167.38,494.75 L173.5,494.6 L179.62,494.39 L185.75,494.09 L191.88,493.71 L198,493.21 L204.12,492.59 L210.25,491.84 L216.38,490.93 L222.5,489.87 L228.62,488.63 L234.75,487.22 L240.88,485.62 L247,483.83 L253.12,481.85 L259.25,479.67 L265.38,477.32 L271.5,474.77 L277.62,472.05 L283.75,469.15 L289.88,466.09 L296,462.88 L302.12,459.52 L308.25,456.02 L314.38,452.4 L320.5,448.67 L326.62,444.85 L332.75,440.93 L338.88,436.94 L345,432.88 L351.12,428.78 L357.25,424.63 L363.38,420.46 L369.5,416.26 L375.62,412.06 L381.75,407.86 L387.88,403.67 L394,399.5 L400.12,395.36 L406.25,391.25 L412.38,387.18 L418.5,383.16 L424.62,379.2 L430.75,375.29 L436.88,371.44 L443,367.66 L449.12,363.95 L455.25,360.31 L461.38,356.75 L467.5,353.26 L473.62,349.86 L479.75,346.53 L485.88,343.29 L492,340.13 L498.12,337.05 L504.25,334.06 L510.38,331.15 L516.5,328.32 L522.62,325.57 L528.75,322.91 L534.88,320.33 L541,317.83 L547.12,315.4 L553.25,313.06 L559.38,310.79 L565.5,308.59 L571.62,306.47 L577.75,304.42 L583.88,302.44 L590,300.53 L596.12,298.69 L602.25,296.91 L608.38,295.19 L614.5,293.54 L620.62,291.95 L626.75,290.41 L632.88,288.93 L639,287.51 L645.12,286.14 L651.25,284.82 L657.38,283.56 L663.5,282.34 L669.62,281.16 L675.75,280.04 L681.88,278.95 L688,277.91 L694.12,276.91 L700.25,275.95 L706.38,275.03 L712.5,274.14 L718.62,273.29 L724.75,272.47 L730.88,271.69 L737,270.93 L743.12,270.21 L749.25,269.52 L755.38,268.85 L761.5,268.21 L767.62,267.6 L773.75,267.01 L779.88,266.45 L786,265.91 L792.12,265.39 L798.25,264.89 L804.38,264.42 L810.5,263.96 L816.62,263.52 L822.75,263.1 L828.88,262.7 L835,262.32"/><path class="curve" d="M100,495 L106.12,495 L112.25,495 L118.38,495 L124.5,495 L130.62,495 L136.75,495 L142.88,494.99 L149,494.97 L155.12,494.94 L161.25,494.88 L167.38,494.79 L173.5,494.66 L179.62,494.46 L185.75,494.19 L191.88,493.83 L198,493.37 L204.12,492.78 L210.25,492.05 L216.38,491.16 L222.5,490.11 L228.62,488.88 L234.75,487.47 L240.88,485.85 L247,484.04 L253.12,482.02 L259.25,479.79 L265.38,477.36 L271.5,474.72 L277.62,471.89 L283.75,468.87 L289.88,465.66 L296,462.28 L302.12,458.74 L308.25,455.05 L314.38,451.21 L320.5,447.25 L326.62,443.18 L332.75,439 L338.88,434.74 L345,430.4 L351.12,426 L357.25,421.56 L363.38,417.07 L369.5,412.57 L375.62,408.05 L381.75,403.52 L387.88,399.01 L394,394.51 L400.12,390.04 L406.25,385.61 L412.38,381.22 L418.5,376.87 L424.62,372.59 L430.75,368.36 L436.88,364.2 L443,360.12 L449.12,356.11 L455.25,352.17 L461.38,348.32 L467.5,344.56 L473.62,340.88 L479.75,337.28 L485.88,333.78 L492,330.37 L498.12,327.04 L504.25,323.81 L510.38,320.67 L516.5,317.62 L522.62,314.66 L528.75,311.79 L534.88,309.01 L541,306.31 L547.12,303.7 L553.25,301.18 L559.38,298.74 L565.5,296.38 L571.62,294.1 L577.75,291.9 L583.88,289.77 L590,287.72 L596.12,285.75 L602.25,283.84 L608.38,282 L614.5,280.23 L620.62,278.53 L626.75,276.89 L632.88,275.31 L639,273.79 L645.12,272.33 L651.25,270.92 L657.38,269.57 L663.5,268.27 L669.62,267.03 L675.75,265.83 L681.88,264.67 L688,263.57 L694.12,262.51 L700.25,261.49 L706.38,260.51 L712.5,259.57 L718.62,258.67 L724.75,257.8 L730.88,256.97 L737,256.18 L743.12,255.41 L749.25,254.68 L755.38,253.98 L761.5,253.31 L767.62,252.66 L773.75,252.04 L779.88,251.45 L786,250.88 L792.12,250.34 L798.25,249.82 L804.38,249.32 L810.5,248.84 L816.62,248.38 L822.75,247.94 L828.88,247.52 L835,247.12"/><path class="curve" d="M100,495 L106.12,495 L112.25,495 L118.38,495 L124.5,495 L130.62,495 L136.75,495 L142.88,495 L149,495 L155.12,495 L161.25,494.99 L167.38,494.98 L173.5,494.96 L179.62,494.92 L185.75,494.86 L191.88,494.75 L198,494.59 L204.12,494.35 L210.25,494.03 L216.38,493.58 L222.5,493 L228.62,492.25 L234.75,491.31 L240.88,490.17 L247,488.79 L253.12,487.17 L259.25,485.29 L265.38,483.14 L271.5,480.72 L277.62,478.01 L283.75,475.03 L289.88,471.78 L296,468.27 L302.12,464.5 L308.25,460.51 L314.38,456.29 L320.5,451.88 L326.62,447.29 L332.75,442.54 L338.88,437.66 L345,432.66 L351.12,427.58 L357.25,422.42 L363.38,417.22 L369.5,411.99 L375.62,406.76 L381.75,401.53 L387.88,396.33 L394,391.18 L400.12,386.07 L406.25,381.04 L412.38,376.09 L418.5,371.23 L424.62,366.47 L430.75,361.82 L436.88,357.28 L443,352.86 L449.12,348.56 L455.25,344.39 L461.38,340.35 L467.5,336.43 L473.62,332.65 L479.75,329 L485.88,325.49 L492,322.1 L498.12,318.84 L504.25,315.71 L510.38,312.7 L516.5,309.81 L522.62,307.05 L528.75,304.4 L534.88,301.87 L541,299.44 L547.12,297.13 L553.25,294.91 L559.38,292.8 L565.5,290.79 L571.62,288.87 L577.75,287.03 L583.88,285.29 L590,283.63 L596.12,282.05 L602.25,280.54 L608.38,279.11 L614.5,277.75 L620.62,276.46 L626.75,275.23 L632.88,274.06 L639,272.96 L645.12,271.9 L651.25,270.91 L657.38,269.96 L663.5,269.06 L669.62,268.21 L675.75,267.4 L681.88,266.63 L688,265.9 L694.12,265.22 L700.25,264.56 L706.38,263.94 L712.5,263.36 L718.62,262.8 L724.75,262.28 L730.88,261.78 L737,261.31 L743.12,260.86 L749.25,260.44 L755.38,260.04 L761.5,259.66 L767.62,259.3 L773.75,258.96 L779.88,258.64 L786,258.34 L792.12,258.05 L798.25,257.78 L804.38,257.52 L810.5,257.28 L816.62,257.05 L822.75,256.83 L828.88,256.62 L835,256.43"/><path class="curve" d="M100,495 L106.12,495 L112.25,495 L118.38,495 L124.5,495 L130.62,495 L136.75,495 L142.88,495 L149,495 L155.12,494.99 L161.25,494.98 L167.38,494.95 L173.5,494.9 L179.62,494.83 L185.75,494.71 L191.88,494.54 L198,494.3 L204.12,493.97 L210.25,493.53 L216.38,492.97 L222.5,492.26 L228.62,491.39 L234.75,490.34 L240.88,489.09 L247,487.64 L253.12,485.97 L259.25,484.07 L265.38,481.95 L271.5,479.59 L277.62,477 L283.75,474.18 L289.88,471.15 L296,467.9 L302.12,464.45 L308.25,460.81 L314.38,457 L320.5,453.03 L326.62,448.91 L332.75,444.67 L338.88,440.31 L345,435.86 L351.12,431.34 L357.25,426.75 L363.38,422.12 L369.5,417.46 L375.62,412.79 L381.75,408.12 L387.88,403.45 L394,398.82 L400.12,394.22 L406.25,389.67 L412.38,385.17 L418.5,380.74 L424.62,376.39 L430.75,372.11 L436.88,367.92 L443,363.82 L449.12,359.81 L455.25,355.9 L461.38,352.09 L467.5,348.39 L473.62,344.79 L479.75,341.29 L485.88,337.91 L492,334.63 L498.12,331.45 L504.25,328.39 L510.38,325.43 L516.5,322.57 L522.62,319.81 L528.75,317.16 L534.88,314.6 L541,312.14 L547.12,309.78 L553.25,307.51 L559.38,305.33 L565.5,303.23 L571.62,301.23 L577.75,299.3 L583.88,297.45 L590,295.69 L596.12,293.99 L602.25,292.37 L608.38,290.82 L614.5,289.34 L620.62,287.92 L626.75,286.57 L632.88,285.27 L639,284.04 L645.12,282.85 L651.25,281.73 L657.38,280.65 L663.5,279.62 L669.62,278.64 L675.75,277.71 L681.88,276.82 L688,275.96 L694.12,275.15 L700.25,274.38 L706.38,273.64 L712.5,272.94 L718.62,272.27 L724.75,271.64 L730.88,271.03 L737,270.45 L743.12,269.9 L749.25,269.38 L755.38,268.88 L761.5,268.41 L767.62,267.95 L773.75,267.52 L779.88,267.11 L786,266.72 L792.12,266.35 L798.25,266 L804.38,265.67 L810.5,265.35 L816.62,265.04 L822.75,264.75 L828.88,264.48 L835,264.22"/><path class="curve" d="M100,495 L106.12,495 L112.25,495 L118.38,495 L124.5,495 L130.62,495 L136.75,495 L142.88,495 L149,494.99 L155.12,494.98 L161.25,494.95 L167.38,494.9 L173.5,494.83 L179.62,494.72 L185.75,494.56 L191.88,494.33 L198,494.03 L204.12,493.63 L210.25,493.11 L216.38,492.47 L222.5,491.69 L228.62,490.74 L234.75,489.63 L240.88,488.33 L247,486.84 L253.12,485.16 L259.25,483.26 L265.38,481.16 L271.5,478.85 L277.62,476.33 L283.75,473.6 L289.88,470.68 L296,467.56 L302.12,464.26 L308.25,460.78 L314.38,457.14 L320.5,453.35 L326.62,449.42 L332.75,445.37 L338.88,441.2 L345,436.93 L351.12,432.57 L357.25,428.15 L363.38,423.67 L369.5,419.14 L375.62,414.58 L381.75,410 L387.88,405.41 L394,400.83 L400.12,396.25 L406.25,391.71 L412.38,387.19 L418.5,382.71 L424.62,378.28 L430.75,373.91 L436.88,369.6 L443,365.35 L449.12,361.18 L455.25,357.09 L461.38,353.07 L467.5,349.14 L473.62,345.29 L479.75,341.54 L485.88,337.87 L492,334.3 L498.12,330.82 L504.25,327.44 L510.38,324.14 L516.5,320.95 L522.62,317.84 L528.75,314.83 L534.88,311.92 L541,309.09 L547.12,306.36 L553.25,303.71 L559.38,301.16 L565.5,298.68 L571.62,296.3 L577.75,294 L583.88,291.77 L590,289.63 L596.12,287.57 L602.25,285.58 L608.38,283.66 L614.5,281.81 L620.62,280.04 L626.75,278.33 L632.88,276.69 L639,275.11 L645.12,273.59 L651.25,272.13 L657.38,270.73 L663.5,269.38 L669.62,268.09 L675.75,266.85 L681.88,265.66 L688,264.52 L694.12,263.42 L700.25,262.37 L706.38,261.36 L712.5,260.4 L718.62,259.47 L724.75,258.58 L730.88,257.73 L737,256.92 L743.12,256.13 L749.25,255.39 L755.38,254.67 L761.5,253.98 L767.62,253.33 L773.75,252.7 L779.88,252.09 L786,251.52 L792.12,250.96 L798.25,250.44 L804.38,249.93 L810.5,249.45 L816.62,248.98 L822.75,248.54 L828.88,248.12 L835,247.71"/><path class="curve" d="M100,495 L106.12,495 L112.25,495 L118.38,495 L124.5,495 L130.62,495 L136.75,495 L142.88,495 L149,495 L155.12,495 L161.25,495 L167.38,494.99 L173.5,494.98 L179.62,494.95 L185.75,494.9 L191.88,494.83 L198,494.7 L204.12,494.51 L210.25,494.24 L216.38,493.85 L222.5,493.33 L228.62,492.65 L234.75,491.78 L240.88,490.69 L247,489.36 L253.12,487.77 L259.25,485.9 L265.38,483.74 L271.5,481.28 L277.62,478.51 L283.75,475.43 L289.88,472.05 L296,468.38 L302.12,464.42 L308.25,460.2 L314.38,455.74 L320.5,451.05 L326.62,446.17 L332.75,441.11 L338.88,435.89 L345,430.56 L351.12,425.13 L357.25,419.62 L363.38,414.07 L369.5,408.49 L375.62,402.9 L381.75,397.34 L387.88,391.81 L394,386.34 L400.12,380.93 L406.25,375.61 L412.38,370.39 L418.5,365.27 L424.62,360.27 L430.75,355.4 L436.88,350.66 L443,346.05 L449.12,341.59 L455.25,337.27 L461.38,333.09 L467.5,329.06 L473.62,325.18 L479.75,321.45 L485.88,317.86 L492,314.41 L498.12,311.11 L504.25,307.95 L510.38,304.92 L516.5,302.02 L522.62,299.26 L528.75,296.62 L534.88,294.1 L541,291.7 L547.12,289.41 L553.25,287.24 L559.38,285.17 L565.5,283.2 L571.62,281.33 L577.75,279.55 L583.88,277.86 L590,276.26 L596.12,274.74 L602.25,273.3 L608.38,271.93 L614.5,270.64 L620.62,269.41 L626.75,268.25 L632.88,267.15 L639,266.11 L645.12,265.13 L651.25,264.19 L657.38,263.31 L663.5,262.48 L669.62,261.69 L675.75,260.95 L681.88,260.24 L688,259.58 L694.12,258.95 L700.25,258.36 L706.38,257.8 L712.5,257.27 L718.62,256.77 L724.75,256.29 L730.88,255.85 L737,255.43 L743.12,255.03 L749.25,254.66 L755.38,254.3 L761.5,253.97 L767.62,253.65 L773.75,253.36 L779.88,253.07 L786,252.81 L792.12,252.56 L798.25,252.33 L804.38,252.1 L810.5,251.89 L816.62,251.7 L822.75,251.51 L828.88,251.33 L835,251.17"/><path class="curve" d="M100,495 L106.12,495 L112.25,495 L118.38,495 L124.5,495 L130.62,495 L136.75,495 L142.88,495 L149,495 L155.12,495 L161.25,495 L167.38,495 L173.5,494.99 L179.62,494.98 L185.75,494.96 L191.88,494.92 L198,494.85 L204.12,494.74 L210.25,494.58 L216.38,494.34 L222.5,494.01 L228.62,493.55 L234.75,492.96 L240.88,492.19 L247,491.22 L253.12,490.04 L259.25,488.62 L265.38,486.94 L271.5,484.99 L277.62,482.75 L283.75,480.23 L289.88,477.41 L296,474.3 L302.12,470.91 L308.25,467.24 L314.38,463.32 L320.5,459.16 L326.62,454.78 L332.75,450.19 L338.88,445.43 L345,440.51 L351.12,435.47 L357.25,430.32 L363.38,425.09 L369.5,419.81 L375.62,414.49 L381.75,409.15 L387.88,403.83 L394,398.53 L400.12,393.28 L406.25,388.09 L412.38,382.97 L418.5,377.94 L424.62,373.01 L430.75,368.19 L436.88,363.49 L443,358.9 L449.12,354.45 L455.25,350.13 L461.38,345.94 L467.5,341.9 L473.62,337.99 L479.75,334.23 L485.88,330.6 L492,327.12 L498.12,323.77 L504.25,320.56 L510.38,317.49 L516.5,314.55 L522.62,311.73 L528.75,309.04 L534.88,306.47 L541,304.02 L547.12,301.69 L553.25,299.46 L559.38,297.35 L565.5,295.33 L571.62,293.41 L577.75,291.59 L583.88,289.86 L590,288.22 L596.12,286.66 L602.25,285.18 L608.38,283.78 L614.5,282.45 L620.62,281.19 L626.75,280 L632.88,278.87 L639,277.8 L645.12,276.79 L651.25,275.83 L657.38,274.92 L663.5,274.07 L669.62,273.26 L675.75,272.49 L681.88,271.77 L688,271.08 L694.12,270.44 L700.25,269.83 L706.38,269.25 L712.5,268.71 L718.62,268.19 L724.75,267.71 L730.88,267.25 L737,266.81 L743.12,266.41 L749.25,266.02 L755.38,265.66 L761.5,265.31 L767.62,264.99 L773.75,264.69 L779.88,264.4 L786,264.13 L792.12,263.87 L798.25,263.63 L804.38,263.4 L810.5,263.18 L816.62,262.98 L822.75,262.79 L828.88,262.61 L835,262.44"/><path class="curve" d="M100,495 L106.12,495 L112.25,495 L118.38,495 L124.5,495 L130.62,495 L136.75,495 L142.88,495 L149,495 L155.12,494.99 L161.25,494.99 L167.38,494.97 L173.5,494.94 L179.62,494.88 L185.75,494.8 L191.88,494.67 L198,494.47 L204.12,494.2 L210.25,493.82 L216.38,493.32 L222.5,492.69 L228.62,491.89 L234.75,490.91 L240.88,489.72 L247,488.32 L253.12,486.7 L259.25,484.83 L265.38,482.71 L271.5,480.34 L277.62,477.72 L283.75,474.85 L289.88,471.74 L296,468.4 L302.12,464.83 L308.25,461.05 L314.38,457.08 L320.5,452.93 L326.62,448.63 L332.75,444.18 L338.88,439.61 L345,434.94 L351.12,430.19 L357.25,425.37 L363.38,420.5 L369.5,415.61 L375.62,410.71 L381.75,405.81 L387.88,400.93 L394,396.09 L400.12,391.29 L406.25,386.54 L412.38,381.87 L418.5,377.27 L424.62,372.75 L430.75,368.33 L436.88,364.01 L443,359.79 L449.12,355.67 L455.25,351.67 L461.38,347.78 L467.5,344.01 L473.62,340.35 L479.75,336.82 L485.88,333.39 L492,330.09 L498.12,326.91 L504.25,323.83 L510.38,320.88 L516.5,318.03 L522.62,315.3 L528.75,312.67 L534.88,310.15 L541,307.73 L547.12,305.42 L553.25,303.2 L559.38,301.07 L565.5,299.04 L571.62,297.09 L577.75,295.23 L583.88,293.46 L590,291.76 L596.12,290.14 L602.25,288.6 L608.38,287.12 L614.5,285.72 L620.62,284.38 L626.75,283.1 L632.88,281.89 L639,280.73 L645.12,279.62 L651.25,278.57 L657.38,277.58 L663.5,276.63 L669.62,275.72 L675.75,274.86 L681.88,274.04 L688,273.27 L694.12,272.53 L700.25,271.83 L706.38,271.16 L712.5,270.53 L718.62,269.92 L724.75,269.35 L730.88,268.81 L737,268.29 L743.12,267.8 L749.25,267.34 L755.38,266.9 L761.5,266.48 L767.62,266.08 L773.75,265.7 L779.88,265.35 L786,265.01 L792.12,264.68 L798.25,264.38 L804.38,264.09 L810.5,263.81 L816.62,263.55 L822.75,263.31 L828.88,263.07 L835,262.85"/><path class="curve" d="M100,495 L106.12,495 L112.25,495 L118.38,495 L124.5,495 L130.62,495 L136.75,495 L142.88,495 L149,495 L155.12,495 L161.25,495 L167.38,494.99 L173.5,494.99 L179.62,494.97 L185.75,494.94 L191.88,494.88 L198,494.79 L204.12,494.64 L210.25,494.43 L216.38,494.12 L222.5,493.7 L228.62,493.14 L234.75,492.4 L240.88,491.48 L247,490.33 L253.12,488.95 L259.25,487.3 L265.38,485.38 L271.5,483.16 L277.62,480.66 L283.75,477.86 L289.88,474.76 L296,471.37 L302.12,467.71 L308.25,463.79 L314.38,459.62 L320.5,455.22 L326.62,450.63 L332.75,445.86 L338.88,440.93 L345,435.87 L351.12,430.72 L357.25,425.48 L363.38,420.19 L369.5,414.87 L375.62,409.55 L381.75,404.23 L387.88,398.95 L394,393.71 L400.12,388.55 L406.25,383.46 L412.38,378.46 L418.5,373.56 L424.62,368.78 L430.75,364.12 L436.88,359.59 L443,355.19 L449.12,350.92 L455.25,346.8 L461.38,342.81 L467.5,338.97 L473.62,335.27 L479.75,331.72 L485.88,328.3 L492,325.03 L498.12,321.89 L504.25,318.89 L510.38,316.01 L516.5,313.27 L522.62,310.65 L528.75,308.16 L534.88,305.78 L541,303.51 L547.12,301.36 L553.25,299.31 L559.38,297.36 L565.5,295.51 L571.62,293.75 L577.75,292.09 L583.88,290.5 L590,289.01 L596.12,287.59 L602.25,286.24 L608.38,284.97 L614.5,283.76 L620.62,282.62 L626.75,281.54 L632.88,280.52 L639,279.55 L645.12,278.64 L651.25,277.78 L657.38,276.97 L663.5,276.2 L669.62,275.47 L675.75,274.78 L681.88,274.14 L688,273.53 L694.12,272.95 L700.25,272.41 L706.38,271.89 L712.5,271.41 L718.62,270.95 L724.75,270.52 L730.88,270.11 L737,269.73 L743.12,269.37 L749.25,269.03 L755.38,268.71 L761.5,268.4 L767.62,268.12 L773.75,267.85 L779.88,267.6 L786,267.36 L792.12,267.13 L798.25,266.92 L804.38,266.72 L810.5,266.53 L816.62,266.36 L822.75,266.19 L828.88,266.03 L835,265.88"/><path class="curve" d="M100,495 L106.12,495 L112.25,495 L118.38,495 L124.5,495 L130.62,495 L136.75,495 L142.88,495 L149,494.99 L155.12,494.98 L161.25,494.96 L167.38,494.92 L173.5,494.85 L179.62,494.75 L185.75,494.59 L191.88,494.37 L198,494.06 L204.12,493.65 L210.25,493.11 L216.38,492.43 L222.5,491.59 L228.62,490.57 L234.75,489.35 L240.88,487.93 L247,486.28 L253.12,484.4 L259.25,482.29 L265.38,479.94 L271.5,477.35 L277.62,474.53 L283.75,471.47 L289.88,468.19 L296,464.7 L302.12,461.01 L308.25,457.12 L314.38,453.06 L320.5,448.84 L326.62,444.48 L332.75,439.99 L338.88,435.4 L345,430.71 L351.12,425.94 L357.25,421.11 L363.38,416.25 L369.5,411.35 L375.62,406.44 L381.75,401.53 L387.88,396.64 L394,391.77 L400.12,386.94 L406.25,382.15 L412.38,377.43 L418.5,372.77 L424.62,368.18 L430.75,363.67 L436.88,359.25 L443,354.92 L449.12,350.69 L455.25,346.56 L461.38,342.53 L467.5,338.6 L473.62,334.78 L479.75,331.07 L485.88,327.47 L492,323.97 L498.12,320.59 L504.25,317.31 L510.38,314.15 L516.5,311.09 L522.62,308.13 L528.75,305.28 L534.88,302.53 L541,299.88 L547.12,297.33 L553.25,294.88 L559.38,292.52 L565.5,290.25 L571.62,288.07 L577.75,285.97 L583.88,283.96 L590,282.03 L596.12,280.18 L602.25,278.41 L608.38,276.71 L614.5,275.08 L620.62,273.52 L626.75,272.03 L632.88,270.6 L639,269.23 L645.12,267.93 L651.25,266.68 L657.38,265.48 L663.5,264.34 L669.62,263.24 L675.75,262.2 L681.88,261.2 L688,260.25 L694.12,259.34 L700.25,258.47 L706.38,257.65 L712.5,256.86 L718.62,256.1 L724.75,255.38 L730.88,254.69 L737,254.04 L743.12,253.41 L749.25,252.82 L755.38,252.25 L761.5,251.71 L767.62,251.19 L773.75,250.7 L779.88,250.23 L786,249.78 L792.12,249.35 L798.25,248.95 L804.38,248.56 L810.5,248.19 L816.62,247.84 L822.75,247.5 L828.88,247.19 L835,246.88"/><path class="curve" d="M100,495 L106.12,495 L112.25,495 L118.38,495 L124.5,495 L130.62,495 L136.75,495 L142.88,495 L149,495 L155.12,495 L161.25,494.99 L167.38,494.98 L173.5,494.96 L179.62,494.92 L185.75,494.85 L191.88,494.75 L198,494.59 L204.12,494.36 L210.25,494.04 L216.38,493.62 L222.5,493.06 L228.62,492.35 L234.75,491.46 L240.88,490.38 L247,489.08 L253.12,487.55 L259.25,485.78 L265.38,483.75 L271.5,481.46 L277.62,478.9 L283.75,476.08 L289.88,472.99 L296,469.65 L302.12,466.06 L308.25,462.24 L314.38,458.19 L320.5,453.94 L326.62,449.5 L332.75,444.9 L338.88,440.14 L345,435.26 L351.12,430.26 L357.25,425.18 L363.38,420.04 L369.5,414.84 L375.62,409.61 L381.75,404.38 L387.88,399.14 L394,393.93 L400.12,388.75 L406.25,383.62 L412.38,378.54 L418.5,373.55 L424.62,368.63 L430.75,363.8 L436.88,359.07 L443,354.44 L449.12,349.92 L455.25,345.52 L461.38,341.23 L467.5,337.07 L473.62,333.03 L479.75,329.11 L485.88,325.32 L492,321.65 L498.12,318.11 L504.25,314.69 L510.38,311.4 L516.5,308.23 L522.62,305.17 L528.75,302.24 L534.88,299.42 L541,296.71 L547.12,294.12 L553.25,291.63 L559.38,289.24 L565.5,286.96 L571.62,284.77 L577.75,282.68 L583.88,280.68 L590,278.77 L596.12,276.94 L602.25,275.2 L608.38,273.54 L614.5,271.95 L620.62,270.44 L626.75,269 L632.88,267.62 L639,266.31 L645.12,265.06 L651.25,263.87 L657.38,262.74 L663.5,261.67 L669.62,260.64 L675.75,259.67 L681.88,258.74 L688,257.86 L694.12,257.02 L700.25,256.22 L706.38,255.46 L712.5,254.74 L718.62,254.06 L724.75,253.41 L730.88,252.79 L737,252.2 L743.12,251.64 L749.25,251.12 L755.38,250.61 L761.5,250.14 L767.62,249.68 L773.75,249.25 L779.88,248.85 L786,248.46 L792.12,248.09 L798.25,247.74 L804.38,247.41 L810.5,247.1 L816.62,246.8 L822.75,246.52 L828.88,246.25 L835,245.99"/><path class="curve" d="M100,495 L106.12,495 L112.25,495 L118.38,495 L124.5,495 L130.62,495 L136.75,494.99 L142.88,494.98 L149,494.96 L155.12,494.92 L161.25,494.85 L167.38,494.73 L173.5,494.56 L179.62,494.32 L185.75,493.99 L191.88,493.55 L198,492.98 L204.12,492.27 L210.25,491.41 L216.38,490.37 L222.5,489.15 L228.62,487.73 L234.75,486.1 L240.88,484.27 L247,482.23 L253.12,479.97 L259.25,477.5 L265.38,474.82 L271.5,471.94 L277.62,468.87 L283.75,465.62 L289.88,462.19 L296,458.6 L302.12,454.87 L308.25,451 L314.38,447.01 L320.5,442.91 L326.62,438.72 L332.75,434.46 L338.88,430.13 L345,425.75 L351.12,421.33 L357.25,416.9 L363.38,412.45 L369.5,408 L375.62,403.56 L381.75,399.15 L387.88,394.76 L394,390.42 L400.12,386.12 L406.25,381.88 L412.38,377.7 L418.5,373.58 L424.62,369.54 L430.75,365.58 L436.88,361.69 L443,357.89 L449.12,354.18 L455.25,350.55 L461.38,347.02 L467.5,343.58 L473.62,340.23 L479.75,336.97 L485.88,333.81 L492,330.74 L498.12,327.77 L504.25,324.89 L510.38,322.1 L516.5,319.4 L522.62,316.79 L528.75,314.26 L534.88,311.83 L541,309.48 L547.12,307.21 L553.25,305.03 L559.38,302.92 L565.5,300.89 L571.62,298.94 L577.75,297.06 L583.88,295.25 L590,293.51 L596.12,291.84 L602.25,290.23 L608.38,288.69 L614.5,287.21 L620.62,285.78 L626.75,284.42 L632.88,283.11 L639,281.85 L645.12,280.65 L651.25,279.49 L657.38,278.38 L663.5,277.32 L669.62,276.3 L675.75,275.33 L681.88,274.39 L688,273.5 L694.12,272.64 L700.25,271.82 L706.38,271.04 L712.5,270.29 L718.62,269.57 L724.75,268.88 L730.88,268.22 L737,267.59 L743.12,266.99 L749.25,266.42 L755.38,265.87 L761.5,265.34 L767.62,264.84 L773.75,264.35 L779.88,263.89 L786,263.45 L792.12,263.03 L798.25,262.63 L804.38,262.25 L810.5,261.88 L816.62,261.53 L822.75,261.2 L828.88,260.88 L835,260.57"/><circle class="point" cx="236.2" cy="495" r="6.53"/><circle class="point" cx="240.46" cy="495" r="5.08"/><circle class="point" cx="283.91" cy="495" r="4.06"/><circle class="point" cx="281.19" cy="495" r="3.69"/><circle class="point" cx="278.5" cy="495" r="3.63"/><circle class="point" cx="287.6" cy="495" r="4.3"/><circle class="point" cx="285.98" cy="495" r="4.69"/><circle class="point" cx="329.93" cy="495" r="11"/><circle class="point" cx="325.98" cy="459.17" r="4.3"/><circle class="point" cx="328.44" cy="495" r="3.63"/><circle class="point" cx="326.39" cy="495" r="4.9"/><circle class="point" cx="372.07" cy="244.97" r="6.86"/><circle class="point" cx="379.24" cy="265.67" r="3.15"/><circle class="point" cx="371.14" cy="244.17" r="4.3"/><circle class="point" cx="374.97" cy="366" r="4.06"/><circle class="point" cx="381.1" cy="399.44" r="3.21"/><circle class="point" cx="376.24" cy="290.24" r="5.38"/><circle class="point" cx="380.98" cy="368.33" r="5.45"/><circle class="point" cx="378.53" cy="354.37" r="4.45"/><circle class="point" cx="378.03" cy="372.14" r="3.69"/><circle class="point" cx="377.54" cy="378.21" r="4.48"/><circle class="point" cx="374.47" cy="471.11" r="3.57"/><circle class="point" cx="370.16" cy="461.27" r="3.88"/><circle class="point" cx="378.95" cy="495" r="3.09"/><circle class="point" cx="380.85" cy="478.14" r="3.88"/><circle class="point" cx="379.02" cy="495" r="3.88"/><circle class="point" cx="372.57" cy="495" r="3.75"/><circle class="point" cx="370.82" cy="495" r="3.57"/><circle class="point" cx="372.41" cy="495" r="4.24"/><circle class="point" cx="376.45" cy="495" r="5.69"/><circle class="point" cx="423.51" cy="445.14" r="4.24"/><circle class="point" cx="424.54" cy="495" r="3.82"/><circle class="point" cx="421.37" cy="495" r="3.66"/><circle class="point" cx="417.32" cy="351.67" r="3.82"/><circle class="point" cx="417.17" cy="373.01" r="4.27"/><circle class="point" cx="421.59" cy="399.44" r="4.84"/><circle class="point" cx="424.59" cy="399.44" r="3.03"/><circle class="point" cx="469.45" cy="399.44" r="3.57"/><circle class="point" cx="466.38" cy="440.4" r="3.48"/><circle class="point" cx="471.38" cy="471.11" r="3.57"/><circle class="point" cx="464.38" cy="495" r="3.3"/><circle class="point" cx="466.57" cy="495" r="4.78"/><circle class="point" cx="462.11" cy="223.42" r="5.14"/><circle class="point" cx="464.9" cy="367.59" r="3.39"/><circle class="point" cx="463.59" cy="142.18" r="3.63"/><circle class="point" cx="465.13" cy="120.88" r="6.41"/><circle class="point" cx="466.72" cy="201.17" r="5.26"/><circle class="point" cx="472.67" cy="319.81" r="5.02"/><circle class="point" cx="466.82" cy="219.58" r="5.93"/><circle class="point" cx="471.03" cy="318.22" r="6.47"/><circle class="point" cx="466.75" cy="369.84" r="7.14"/><circle class="point" cx="469.87" cy="269.76" r="3.69"/><circle class="point" cx="464.55" cy="351.67" r="3.45"/><circle class="point" cx="464.69" cy="425.51" r="4.84"/><circle class="point" cx="471.56" cy="495" r="3.51"/><circle class="point" cx="512.69" cy="431.3" r="3.12"/><circle class="point" cx="517.92" cy="495" r="3.88"/><circle class="point" cx="517.24" cy="312.02" r="5.69"/><circle class="point" cx="517.5" cy="339.72" r="4.3"/><circle class="point" cx="518.66" cy="370.36" r="4.93"/><circle class="point" cx="559.6" cy="495" r="3"/><circle class="point" cx="600.07" cy="406.79" r="3.63"/><circle class="point" cx="653.63" cy="208.33" r="3.45"/><circle class="point" cx="692.41" cy="384.74" r="3.63"/><circle class="point" cx="694.34" cy="155" r="5.45"/><circle class="point" cx="697.28" cy="351.67" r="3.21"/><circle class="point" cx="695.63" cy="318.59" r="3.24"/><circle class="point" cx="740.5" cy="208.33" r="5.87"/><circle class="point" cx="744.19" cy="280" r="5.75"/><circle class="point" cx="741.78" cy="376.38" r="3.72"/><circle class="point" cx="738.88" cy="393.82" r="3.36"/><circle class="point" cx="738.82" cy="418.56" r="3.75"/><circle class="point" cx="742.3" cy="376.96" r="3.88"/><circle class="point" cx="783.69" cy="286.98" r="6.26"/><circle class="point" cx="794.25" cy="260.45" r="4.84"/><circle class="point" cx="791.13" cy="256.11" r="5.02"/><circle class="point" cx="790.55" cy="378.97" r="5.38"/><circle class="point" cx="783.75" cy="320.51" r="4.24"/><circle class="point" cx="790.57" cy="265.67" r="4.06"/><circle class="point" cx="788.36" cy="327.78" r="3.57"/><circle class="point" cx="794.55" cy="380.33" r="3.6"/><circle class="point" cx="793.81" cy="318.59" r="3.63"/><circle class="point" cx="836.16" cy="151" r="4.06"/><circle class="point" cx="831.25" cy="295.93" r="5.02"/><text class="axis" x="100" y="523" text-anchor="middle">0</text><text class="axis" x="283.75" y="523" text-anchor="middle">4</text><text class="axis" x="467.5" y="523" text-anchor="middle">8</text><text class="axis" x="651.25" y="523" text-anchor="middle">12</text><text class="axis" x="835" y="523" text-anchor="middle">16</text><text class="axis" x="88" y="500" text-anchor="end">0.0</text><text class="axis" x="88" y="356.67" text-anchor="end">0.5</text><text class="axis" x="88" y="213.33" text-anchor="end">1.0</text><text class="axis" x="88" y="70" text-anchor="end">1.5</text><text class="label" x="467.5" y="558" text-anchor="middle">年龄</text><text class="label" x="35" y="280.0" text-anchor="middle" transform="rotate(-90 35 280.0)">每秒坚果数</text></svg>