<?xml version="1.0" encoding="UTF-8"?>
<svg xmlns="http://www.w3.org/2000/svg" width="1200" height="1240" viewBox="0 0 1200 1240" role="img">
<title>次数递增的人族脑容量多项式模型</title>
<desc>六个面板依次展示一次到六次多项式；次数越高，样本内拟合越好，但曲线在观测间隙内越来越荒谬。</desc>
<rect width="100%" height="100%" fill="#fff"/>
<defs>
<clipPath id="poly7-0"><rect x="125" y="70" width="420" height="270"/></clipPath>
<clipPath id="poly7-1"><rect x="665" y="70" width="420" height="270"/></clipPath>
<clipPath id="poly7-2"><rect x="125" y="445" width="420" height="270"/></clipPath>
<clipPath id="poly7-3"><rect x="665" y="445" width="420" height="270"/></clipPath>
<clipPath id="poly7-4"><rect x="125" y="820" width="420" height="270"/></clipPath>
<clipPath id="poly7-5"><rect x="665" y="820" width="420" height="270"/></clipPath>
</defs>
<text x="125" y="48" font-family="PingFang SC, Noto Sans CJK SC, Microsoft YaHei, sans-serif" font-size="20" font-weight="700" fill="#30332e">m7.1：R² = 0.51</text>
<rect x="125" y="70" width="420" height="270" fill="#fff" stroke="#343732" stroke-width="1.4"/>
<polygon points="125,241.24 127.33,240.9 129.67,240.55 132,240.2 134.33,239.85 136.67,239.49 139,239.13 141.33,238.77 143.67,238.41 146,238.05 148.33,237.68 150.67,237.31 153,236.93 155.33,236.55 157.67,236.17 160,235.79 162.33,235.4 164.67,235.01 167,234.62 169.33,234.22 171.67,233.82 174,233.41 176.33,233 178.67,232.59 181,232.17 183.33,231.75 185.67,231.32 188,230.89 190.33,230.45 192.67,230.01 195,229.57 197.33,229.12 199.67,228.66 202,228.2 204.33,227.74 206.67,227.26 209,226.79 211.33,226.3 213.67,225.81 216,225.32 218.33,224.82 220.67,224.31 223,223.8 225.33,223.27 227.67,222.75 230,222.21 232.33,221.67 234.67,221.12 237,220.56 239.33,220 241.67,219.42 244,218.84 246.33,218.25 248.67,217.66 251,217.05 253.33,216.44 255.67,215.81 258,215.18 260.33,214.54 262.67,213.89 265,213.23 267.33,212.56 269.67,211.88 272,211.2 274.33,210.5 276.67,209.79 279,209.07 281.33,208.34 283.67,207.6 286,206.85 288.33,206.09 290.67,205.32 293,204.54 295.33,203.75 297.67,202.95 300,202.14 302.33,201.32 304.67,200.48 307,199.64 309.33,198.78 311.67,197.92 314,197.04 316.33,196.16 318.67,195.26 321,194.35 323.33,193.43 325.67,192.51 328,191.57 330.33,190.62 332.67,189.66 335,188.69 337.33,187.72 339.67,186.73 342,185.73 344.33,184.73 346.67,183.71 349,182.69 351.33,181.65 353.67,180.61 356,179.56 358.33,178.5 360.67,177.44 363,176.36 365.33,175.28 367.67,174.19 370,173.09 372.33,171.98 374.67,170.87 377,169.75 379.33,168.62 381.67,167.48 384,166.34 386.33,165.19 388.67,164.04 391,162.88 393.33,161.71 395.67,160.54 398,159.36 400.33,158.18 402.67,156.99 405,155.79 407.33,154.59 409.67,153.39 412,152.17 414.33,150.96 416.67,149.74 419,148.51 421.33,147.29 423.67,146.05 426,144.81 428.33,143.57 430.67,142.33 433,141.08 435.33,139.82 437.67,138.57 440,137.3 442.33,136.04 444.67,134.77 447,133.5 449.33,132.23 451.67,130.95 454,129.67 456.33,128.38 458.67,127.1 461,125.81 463.33,124.51 465.67,123.22 468,121.92 470.33,120.62 472.67,119.32 475,118.01 477.33,116.7 479.67,115.39 482,114.08 484.33,112.76 486.67,111.45 489,110.13 491.33,108.81 493.67,107.48 496,106.16 498.33,104.83 500.67,103.5 503,102.17 505.33,100.84 507.67,99.51 510,98.17 512.33,96.83 514.67,95.49 517,94.15 519.33,92.81 521.67,91.47 524,90.12 526.33,88.77 528.67,87.43 531,86.08 533.33,84.73 535.67,83.37 538,82.02 540.33,80.66 542.67,79.31 545,77.95 545,221.14 542.67,221.44 540.33,221.74 538,222.04 535.67,222.34 533.33,222.64 531,222.95 528.67,223.25 526.33,223.56 524,223.87 521.67,224.18 519.33,224.49 517,224.8 514.67,225.12 512.33,225.43 510,225.75 507.67,226.07 505.33,226.39 503,226.71 500.67,227.04 498.33,227.36 496,227.69 493.67,228.02 491.33,228.35 489,228.69 486.67,229.02 484.33,229.36 482,229.7 479.67,230.05 477.33,230.39 475,230.74 472.67,231.09 470.33,231.44 468,231.79 465.67,232.15 463.33,232.51 461,232.87 458.67,233.24 456.33,233.61 454,233.98 451.67,234.35 449.33,234.73 447,235.11 444.67,235.49 442.33,235.88 440,236.27 437.67,236.66 435.33,237.06 433,237.46 430.67,237.87 428.33,238.28 426,238.69 423.67,239.11 421.33,239.53 419,239.96 416.67,240.39 414.33,240.82 412,241.26 409.67,241.71 407.33,242.15 405,242.61 402.67,243.07 400.33,243.53 398,244.01 395.67,244.48 393.33,244.96 391,245.45 388.67,245.95 386.33,246.45 384,246.96 381.67,247.47 379.33,247.99 377,248.52 374.67,249.05 372.33,249.59 370,250.14 367.67,250.7 365.33,251.26 363,251.83 360.67,252.41 358.33,253 356,253.6 353.67,254.2 351.33,254.81 349,255.44 346.67,256.07 344.33,256.71 342,257.36 339.67,258.01 337.33,258.68 335,259.36 332.67,260.05 330.33,260.74 328,261.45 325.67,262.17 323.33,262.9 321,263.63 318.67,264.38 316.33,265.14 314,265.91 311.67,266.69 309.33,267.48 307,268.28 304.67,269.09 302.33,269.91 300,270.74 297.67,271.58 295.33,272.44 293,273.3 290.67,274.18 288.33,275.06 286,275.96 283.67,276.86 281.33,277.78 279,278.71 276.67,279.64 274.33,280.59 272,281.55 269.67,282.51 267.33,283.49 265,284.48 262.67,285.47 260.33,286.48 258,287.49 255.67,288.51 253.33,289.54 251,290.59 248.67,291.63 246.33,292.69 244,293.76 241.67,294.83 239.33,295.92 237,297.01 234.67,298.1 232.33,299.21 230,300.32 227.67,301.44 225.33,302.57 223,303.7 220.67,304.84 218.33,305.99 216,307.15 213.67,308.31 211.33,309.47 209,310.64 206.67,311.82 204.33,313 202,314.19 199.67,315.39 197.33,316.59 195,317.79 192.67,319 190.33,320.22 188,321.44 185.67,322.66 183.33,323.89 181,325.12 178.67,326.36 176.33,327.6 174,328.85 171.67,330.1 169.33,331.35 167,332.61 164.67,333.87 162.33,335.13 160,336.4 157.67,337.67 155.33,338.94 153,340.22 150.67,341.5 148.33,342.79 146,344.07 143.67,345.36 141.33,346.65 139,347.95 136.67,349.25 134.33,350.55 132,351.85 129.67,353.16 127.33,354.46 125,355.77" fill="#d8d9dc" clip-path="url(#poly7-0)"/>
<polyline points="125,298.51 127.33,297.68 129.67,296.85 132,296.02 134.33,295.2 136.67,294.37 139,293.54 141.33,292.71 143.67,291.89 146,291.06 148.33,290.23 150.67,289.4 153,288.58 155.33,287.75 157.67,286.92 160,286.09 162.33,285.27 164.67,284.44 167,283.61 169.33,282.78 171.67,281.96 174,281.13 176.33,280.3 178.67,279.47 181,278.65 183.33,277.82 185.67,276.99 188,276.16 190.33,275.34 192.67,274.51 195,273.68 197.33,272.85 199.67,272.02 202,271.2 204.33,270.37 206.67,269.54 209,268.71 211.33,267.89 213.67,267.06 216,266.23 218.33,265.4 220.67,264.58 223,263.75 225.33,262.92 227.67,262.09 230,261.27 232.33,260.44 234.67,259.61 237,258.78 239.33,257.96 241.67,257.13 244,256.3 246.33,255.47 248.67,254.65 251,253.82 253.33,252.99 255.67,252.16 258,251.34 260.33,250.51 262.67,249.68 265,248.85 267.33,248.03 269.67,247.2 272,246.37 274.33,245.54 276.67,244.72 279,243.89 281.33,243.06 283.67,242.23 286,241.41 288.33,240.58 290.67,239.75 293,238.92 295.33,238.1 297.67,237.27 300,236.44 302.33,235.61 304.67,234.79 307,233.96 309.33,233.13 311.67,232.3 314,231.47 316.33,230.65 318.67,229.82 321,228.99 323.33,228.16 325.67,227.34 328,226.51 330.33,225.68 332.67,224.85 335,224.03 337.33,223.2 339.67,222.37 342,221.54 344.33,220.72 346.67,219.89 349,219.06 351.33,218.23 353.67,217.41 356,216.58 358.33,215.75 360.67,214.92 363,214.1 365.33,213.27 367.67,212.44 370,211.61 372.33,210.79 374.67,209.96 377,209.13 379.33,208.3 381.67,207.48 384,206.65 386.33,205.82 388.67,204.99 391,204.17 393.33,203.34 395.67,202.51 398,201.68 400.33,200.86 402.67,200.03 405,199.2 407.33,198.37 409.67,197.55 412,196.72 414.33,195.89 416.67,195.06 419,194.23 421.33,193.41 423.67,192.58 426,191.75 428.33,190.92 430.67,190.1 433,189.27 435.33,188.44 437.67,187.61 440,186.79 442.33,185.96 444.67,185.13 447,184.3 449.33,183.48 451.67,182.65 454,181.82 456.33,180.99 458.67,180.17 461,179.34 463.33,178.51 465.67,177.68 468,176.86 470.33,176.03 472.67,175.2 475,174.37 477.33,173.55 479.67,172.72 482,171.89 484.33,171.06 486.67,170.24 489,169.41 491.33,168.58 493.67,167.75 496,166.93 498.33,166.1 500.67,165.27 503,164.44 505.33,163.62 507.67,162.79 510,161.96 512.33,161.13 514.67,160.31 517,159.48 519.33,158.65 521.67,157.82 524,156.99 526.33,156.17 528.67,155.34 531,154.51 533.33,153.68 535.67,152.86 538,152.03 540.33,151.2 542.67,150.37 545,149.55" fill="none" stroke="#171915" stroke-width="3" clip-path="url(#poly7-0)"/>
<circle cx="190.62" cy="297.7" r="5.3" fill="#6670ee" stroke="#fff" stroke-width="1.3"/>
<circle cx="170.94" cy="294.55" r="5.3" fill="#6670ee" stroke="#fff" stroke-width="1.3"/>
<circle cx="157.81" cy="258.55" r="5.3" fill="#6670ee" stroke="#fff" stroke-width="1.3"/>
<circle cx="249.69" cy="279.02" r="5.3" fill="#6670ee" stroke="#fff" stroke-width="1.3"/>
<circle cx="433.44" cy="227.05" r="5.3" fill="#6670ee" stroke="#fff" stroke-width="1.3"/>
<circle cx="505.62" cy="200.28" r="5.3" fill="#6670ee" stroke="#fff" stroke-width="1.3"/>
<circle cx="407.19" cy="92.5" r="5.3" fill="#6670ee" stroke="#fff" stroke-width="1.3"/>
<line x1="164.38" y1="340" x2="164.38" y2="346" stroke="#343732"/>
<text x="164.38" y="365" text-anchor="middle" font-family="PingFang SC, Noto Sans CJK SC, Microsoft YaHei, sans-serif" font-size="15">35</text>
<line x1="321.88" y1="340" x2="321.88" y2="346" stroke="#343732"/>
<text x="321.88" y="365" text-anchor="middle" font-family="PingFang SC, Noto Sans CJK SC, Microsoft YaHei, sans-serif" font-size="15">47</text>
<line x1="492.5" y1="340" x2="492.5" y2="346" stroke="#343732"/>
<text x="492.5" y="365" text-anchor="middle" font-family="PingFang SC, Noto Sans CJK SC, Microsoft YaHei, sans-serif" font-size="15">60</text>
<line x1="119" y1="295" x2="125" y2="295" stroke="#343732"/>
<text x="112" y="300" text-anchor="end" font-family="PingFang SC, Noto Sans CJK SC, Microsoft YaHei, sans-serif" font-size="15">450</text>
<line x1="119" y1="193.75" x2="125" y2="193.75" stroke="#343732"/>
<text x="112" y="198.75" text-anchor="end" font-family="PingFang SC, Noto Sans CJK SC, Microsoft YaHei, sans-serif" font-size="15">900</text>
<line x1="119" y1="103.75" x2="125" y2="103.75" stroke="#343732"/>
<text x="112" y="108.75" text-anchor="end" font-family="PingFang SC, Noto Sans CJK SC, Microsoft YaHei, sans-serif" font-size="15">1300</text>
<text x="335.0" y="391" text-anchor="middle" font-family="PingFang SC, Noto Sans CJK SC, Microsoft YaHei, sans-serif" font-size="17" font-weight="700" fill="#263f86">体重（千克）</text>
<text x="56" y="205.0" transform="rotate(-90 56 205.0)" text-anchor="middle" font-family="PingFang SC, Noto Sans CJK SC, Microsoft YaHei, sans-serif" font-size="17" font-weight="700" fill="#263f86">脑容量（立方厘米）</text>
<text x="665" y="48" font-family="PingFang SC, Noto Sans CJK SC, Microsoft YaHei, sans-serif" font-size="20" font-weight="700" fill="#30332e">m7.2：R² = 0.54</text>
<rect x="665" y="70" width="420" height="270" fill="#fff" stroke="#343732" stroke-width="1.4"/>
<polygon points="665,229.51 667.33,230.36 669.67,231.17 672,231.92 674.33,232.62 676.67,233.27 679,233.86 681.33,234.39 683.67,234.86 686,235.27 688.33,235.61 690.67,235.88 693,236.08 695.33,236.2 697.67,236.24 700,236.2 702.33,236.07 704.67,235.85 707,235.54 709.33,235.14 711.67,234.63 714,234.02 716.33,233.3 718.67,232.48 721,231.55 723.33,230.51 725.67,229.36 728,228.1 730.33,226.74 732.67,225.28 735,223.72 737.33,222.07 739.67,220.33 742,218.51 744.33,216.61 746.67,214.65 749,212.62 751.33,210.54 753.67,208.42 756,206.25 758.33,204.04 760.67,201.81 763,199.56 765.33,197.29 767.67,195.01 770,192.73 772.33,190.44 774.67,188.16 777,185.88 779.33,183.62 781.67,181.37 784,179.13 786.33,176.92 788.67,174.72 791,172.56 793.33,170.42 795.67,168.3 798,166.22 800.33,164.17 802.67,162.16 805,160.18 807.33,158.24 809.67,156.33 812,154.46 814.33,152.64 816.67,150.85 819,149.1 821.33,147.4 823.67,145.74 826,144.12 828.33,142.54 830.67,141.01 833,139.53 835.33,138.09 837.67,136.69 840,135.34 842.33,134.04 844.67,132.78 847,131.57 849.33,130.4 851.67,129.28 854,128.21 856.33,127.19 858.67,126.21 861,125.28 863.33,124.39 865.67,123.55 868,122.76 870.33,122.02 872.67,121.32 875,120.67 877.33,120.06 879.67,119.5 882,118.99 884.33,118.52 886.67,118.09 889,117.71 891.33,117.38 893.67,117.08 896,116.83 898.33,116.63 900.67,116.46 903,116.34 905.33,116.26 907.67,116.21 910,116.21 912.33,116.24 914.67,116.32 917,116.42 919.33,116.57 921.67,116.74 924,116.95 926.33,117.19 928.67,117.46 931,117.76 933.33,118.08 935.67,118.43 938,118.79 940.33,119.18 942.67,119.58 945,120 947.33,120.43 949.67,120.86 952,121.31 954.33,121.75 956.67,122.19 959,122.62 961.33,123.04 963.67,123.45 966,123.83 968.33,124.2 970.67,124.53 973,124.82 975.33,125.08 977.67,125.29 980,125.45 982.33,125.55 984.67,125.59 987,125.56 989.33,125.47 991.67,125.3 994,125.04 996.33,124.71 998.67,124.29 1001,123.79 1003.33,123.19 1005.67,122.51 1008,121.73 1010.33,120.86 1012.67,119.9 1015,118.85 1017.33,117.71 1019.67,116.48 1022,115.17 1024.33,113.78 1026.67,112.3 1029,110.74 1031.33,109.11 1033.67,107.4 1036,105.62 1038.33,103.77 1040.67,101.86 1043,99.88 1045.33,97.83 1047.67,95.73 1050,93.56 1052.33,91.34 1054.67,89.07 1057,86.74 1059.33,84.36 1061.67,81.93 1064,79.45 1066.33,76.92 1068.67,74.35 1071,71.73 1073.33,69.07 1075.67,66.37 1078,63.63 1080.33,60.84 1082.67,58.02 1085,55.15 1085,337.01 1082.67,332.75 1080.33,328.56 1078,324.44 1075.67,320.39 1073.33,316.42 1071,312.52 1068.67,308.7 1066.33,304.95 1064,301.29 1061.67,297.7 1059.33,294.19 1057,290.77 1054.67,287.43 1052.33,284.17 1050,281 1047.67,277.92 1045.33,274.93 1043,272.04 1040.67,269.24 1038.33,266.53 1036,263.93 1033.67,261.43 1031.33,259.03 1029,256.74 1026.67,254.56 1024.33,252.49 1022,250.53 1019.67,248.69 1017.33,246.97 1015,245.36 1012.67,243.88 1010.33,242.52 1008,241.29 1005.67,240.17 1003.33,239.18 1001,238.32 998.67,237.57 996.33,236.95 994,236.44 991.67,236.04 989.33,235.76 987,235.59 984.67,235.52 982.33,235.54 980,235.67 977.67,235.87 975.33,236.17 973,236.54 970.67,236.98 968.33,237.49 966,238.07 963.67,238.7 961.33,239.38 959,240.11 956.67,240.88 954.33,241.7 952,242.54 949.67,243.42 947.33,244.33 945,245.26 942.67,246.21 940.33,247.18 938,248.17 935.67,249.17 933.33,250.17 931,251.19 928.67,252.22 926.33,253.24 924,254.28 921.67,255.31 919.33,256.34 917,257.37 914.67,258.4 912.33,259.43 910,260.45 907.67,261.46 905.33,262.47 903,263.47 900.67,264.46 898.33,265.44 896,266.41 893.67,267.37 891.33,268.33 889,269.26 886.67,270.19 884.33,271.11 882,272.01 879.67,272.9 877.33,273.77 875,274.64 872.67,275.49 870.33,276.32 868,277.14 865.67,277.95 863.33,278.74 861,279.52 858.67,280.28 856.33,281.03 854,281.76 851.67,282.48 849.33,283.18 847,283.87 844.67,284.55 842.33,285.21 840,285.86 837.67,286.49 835.33,287.12 833,287.72 830.67,288.32 828.33,288.9 826,289.47 823.67,290.03 821.33,290.58 819,291.12 816.67,291.65 814.33,292.16 812,292.68 809.67,293.18 807.33,293.68 805,294.17 802.67,294.66 800.33,295.14 798,295.62 795.67,296.11 793.33,296.59 791,297.08 788.67,297.57 786.33,298.07 784,298.59 781.67,299.11 779.33,299.65 777,300.2 774.67,300.78 772.33,301.38 770,302.02 767.67,302.68 765.33,303.39 763,304.13 760.67,304.93 758.33,305.78 756,306.69 753.67,307.66 751.33,308.71 749,309.84 746.67,311.05 744.33,312.36 742,313.77 739.67,315.29 737.33,316.92 735,318.67 732.67,320.54 730.33,322.55 728,324.69 725.67,326.96 723.33,329.38 721,331.93 718.67,334.63 716.33,337.47 714,340.44 711.67,343.56 709.33,346.8 707,350.18 704.67,353.69 702.33,357.33 700,361.09 697.67,364.97 695.33,368.96 693,373.06 690.67,377.27 688.33,381.59 686,386.01 683.67,390.53 681.33,395.14 679,399.85 676.67,404.64 674.33,409.53 672,414.5 669.67,419.56 667.33,424.7 665,429.92" fill="#d8d9dc" clip-path="url(#poly7-1)"/>
<polyline points="665,329.72 667.33,327.53 669.67,325.36 672,323.21 674.33,321.08 676.67,318.96 679,316.85 681.33,314.76 683.67,312.69 686,310.64 688.33,308.6 690.67,306.58 693,304.57 695.33,302.58 697.67,300.6 700,298.64 702.33,296.7 704.67,294.77 707,292.86 709.33,290.97 711.67,289.09 714,287.23 716.33,285.38 718.67,283.55 721,281.74 723.33,279.94 725.67,278.16 728,276.4 730.33,274.65 732.67,272.91 735,271.2 737.33,269.49 739.67,267.81 742,266.14 744.33,264.49 746.67,262.85 749,261.23 751.33,259.63 753.67,258.04 756,256.47 758.33,254.91 760.67,253.37 763,251.85 765.33,250.34 767.67,248.85 770,247.37 772.33,245.91 774.67,244.47 777,243.04 779.33,241.63 781.67,240.24 784,238.86 786.33,237.5 788.67,236.15 791,234.82 793.33,233.5 795.67,232.21 798,230.92 800.33,229.66 802.67,228.41 805,227.17 807.33,225.96 809.67,224.76 812,223.57 814.33,222.4 816.67,221.25 819,220.11 821.33,218.99 823.67,217.88 826,216.8 828.33,215.72 830.67,214.67 833,213.63 835.33,212.6 837.67,211.59 840,210.6 842.33,209.62 844.67,208.66 847,207.72 849.33,206.79 851.67,205.88 854,204.99 856.33,204.11 858.67,203.24 861,202.4 863.33,201.57 865.67,200.75 868,199.95 870.33,199.17 872.67,198.4 875,197.65 877.33,196.92 879.67,196.2 882,195.5 884.33,194.81 886.67,194.14 889,193.49 891.33,192.85 893.67,192.23 896,191.62 898.33,191.03 900.67,190.46 903,189.9 905.33,189.36 907.67,188.84 910,188.33 912.33,187.84 914.67,187.36 917,186.9 919.33,186.45 921.67,186.03 924,185.61 926.33,185.22 928.67,184.84 931,184.47 933.33,184.13 935.67,183.8 938,183.48 940.33,183.18 942.67,182.9 945,182.63 947.33,182.38 949.67,182.14 952,181.92 954.33,181.72 956.67,181.54 959,181.37 961.33,181.21 963.67,181.07 966,180.95 968.33,180.84 970.67,180.75 973,180.68 975.33,180.62 977.67,180.58 980,180.56 982.33,180.55 984.67,180.55 987,180.58 989.33,180.61 991.67,180.67 994,180.74 996.33,180.83 998.67,180.93 1001,181.05 1003.33,181.19 1005.67,181.34 1008,181.51 1010.33,181.69 1012.67,181.89 1015,182.11 1017.33,182.34 1019.67,182.59 1022,182.85 1024.33,183.13 1026.67,183.43 1029,183.74 1031.33,184.07 1033.67,184.42 1036,184.78 1038.33,185.15 1040.67,185.55 1043,185.96 1045.33,186.38 1047.67,186.82 1050,187.28 1052.33,187.76 1054.67,188.25 1057,188.75 1059.33,189.27 1061.67,189.81 1064,190.37 1066.33,190.94 1068.67,191.52 1071,192.13 1073.33,192.75 1075.67,193.38 1078,194.03 1080.33,194.7 1082.67,195.38 1085,196.08" fill="none" stroke="#171915" stroke-width="3" clip-path="url(#poly7-1)"/>
<circle cx="730.62" cy="297.7" r="5.3" fill="#6670ee" stroke="#fff" stroke-width="1.3"/>
<circle cx="710.94" cy="294.55" r="5.3" fill="#6670ee" stroke="#fff" stroke-width="1.3"/>
<circle cx="697.81" cy="258.55" r="5.3" fill="#6670ee" stroke="#fff" stroke-width="1.3"/>
<circle cx="789.69" cy="279.02" r="5.3" fill="#6670ee" stroke="#fff" stroke-width="1.3"/>
<circle cx="973.44" cy="227.05" r="5.3" fill="#6670ee" stroke="#fff" stroke-width="1.3"/>
<circle cx="1045.62" cy="200.28" r="5.3" fill="#6670ee" stroke="#fff" stroke-width="1.3"/>
<circle cx="947.19" cy="92.5" r="5.3" fill="#6670ee" stroke="#fff" stroke-width="1.3"/>
<line x1="704.38" y1="340" x2="704.38" y2="346" stroke="#343732"/>
<text x="704.38" y="365" text-anchor="middle" font-family="PingFang SC, Noto Sans CJK SC, Microsoft YaHei, sans-serif" font-size="15">35</text>
<line x1="861.88" y1="340" x2="861.88" y2="346" stroke="#343732"/>
<text x="861.88" y="365" text-anchor="middle" font-family="PingFang SC, Noto Sans CJK SC, Microsoft YaHei, sans-serif" font-size="15">47</text>
<line x1="1032.5" y1="340" x2="1032.5" y2="346" stroke="#343732"/>
<text x="1032.5" y="365" text-anchor="middle" font-family="PingFang SC, Noto Sans CJK SC, Microsoft YaHei, sans-serif" font-size="15">60</text>
<line x1="659" y1="295" x2="665" y2="295" stroke="#343732"/>
<text x="652" y="300" text-anchor="end" font-family="PingFang SC, Noto Sans CJK SC, Microsoft YaHei, sans-serif" font-size="15">450</text>
<line x1="659" y1="193.75" x2="665" y2="193.75" stroke="#343732"/>
<text x="652" y="198.75" text-anchor="end" font-family="PingFang SC, Noto Sans CJK SC, Microsoft YaHei, sans-serif" font-size="15">900</text>
<line x1="659" y1="103.75" x2="665" y2="103.75" stroke="#343732"/>
<text x="652" y="108.75" text-anchor="end" font-family="PingFang SC, Noto Sans CJK SC, Microsoft YaHei, sans-serif" font-size="15">1300</text>
<text x="875.0" y="391" text-anchor="middle" font-family="PingFang SC, Noto Sans CJK SC, Microsoft YaHei, sans-serif" font-size="17" font-weight="700" fill="#263f86">体重（千克）</text>
<text x="596" y="205.0" transform="rotate(-90 596 205.0)" text-anchor="middle" font-family="PingFang SC, Noto Sans CJK SC, Microsoft YaHei, sans-serif" font-size="17" font-weight="700" fill="#263f86">脑容量（立方厘米）</text>
<text x="125" y="423" font-family="PingFang SC, Noto Sans CJK SC, Microsoft YaHei, sans-serif" font-size="20" font-weight="700" fill="#30332e">m7.3：R² = 0.69</text>
<rect x="125" y="445" width="420" height="270" fill="#fff" stroke="#343732" stroke-width="1.4"/>
<polygon points="125,444.88 127.33,456.99 129.67,468.69 132,480 134.33,490.91 136.67,501.41 139,511.51 141.33,521.21 143.67,530.49 146,539.35 148.33,547.79 150.67,555.79 153,563.35 155.33,570.45 157.67,577.07 160,583.21 162.33,588.83 164.67,593.94 167,598.49 169.33,602.49 171.67,605.92 174,608.78 176.33,611.08 178.67,612.83 181,614.06 183.33,614.82 185.67,615.14 188,615.07 190.33,614.66 192.67,613.96 195,613 197.33,611.84 199.67,610.5 202,609.01 204.33,607.4 206.67,605.7 209,603.92 211.33,602.07 213.67,600.18 216,598.25 218.33,596.28 220.67,594.3 223,592.3 225.33,590.3 227.67,588.29 230,586.28 232.33,584.27 234.67,582.27 237,580.28 239.33,578.3 241.67,576.32 244,574.36 246.33,572.42 248.67,570.49 251,568.57 253.33,566.67 255.67,564.78 258,562.91 260.33,561.05 262.67,559.2 265,557.38 267.33,555.56 269.67,553.76 272,551.97 274.33,550.2 276.67,548.43 279,546.68 281.33,544.94 283.67,543.21 286,541.49 288.33,539.77 290.67,538.07 293,536.37 295.33,534.68 297.67,532.99 300,531.31 302.33,529.63 304.67,527.95 307,526.28 309.33,524.61 311.67,522.94 314,521.27 316.33,519.6 318.67,517.94 321,516.27 323.33,514.6 325.67,512.94 328,511.27 330.33,509.6 332.67,507.94 335,506.27 337.33,504.61 339.67,502.95 342,501.29 344.33,499.64 346.67,498 349,496.36 351.33,494.73 353.67,493.11 356,491.51 358.33,489.92 360.67,488.35 363,486.8 365.33,485.27 367.67,483.77 370,482.3 372.33,480.86 374.67,479.45 377,478.09 379.33,476.76 381.67,475.49 384,474.26 386.33,473.08 388.67,471.96 391,470.9 393.33,469.91 395.67,468.98 398,468.12 400.33,467.34 402.67,466.63 405,466.01 407.33,465.47 409.67,465.02 412,464.65 414.33,464.38 416.67,464.21 419,464.13 421.33,464.15 423.67,464.27 426,464.5 428.33,464.82 430.67,465.24 433,465.77 435.33,466.4 437.67,467.12 440,467.94 442.33,468.86 444.67,469.86 447,470.94 449.33,472.1 451.67,473.34 454,474.63 456.33,475.97 458.67,477.36 461,478.77 463.33,480.2 465.67,481.63 468,483.05 470.33,484.44 472.67,485.8 475,487.1 477.33,488.33 479.67,489.48 482,490.53 484.33,491.49 486.67,492.33 489,493.06 491.33,493.66 493.67,494.15 496,494.5 498.33,494.74 500.67,494.85 503,494.84 505.33,494.71 507.67,494.47 510,494.12 512.33,493.66 514.67,493.1 517,492.44 519.33,491.69 521.67,490.85 524,489.92 526.33,488.9 528.67,487.8 531,486.63 533.33,485.37 535.67,484.04 538,482.64 540.33,481.17 542.67,479.63 545,478.02 545,868.05 542.67,853.61 540.33,839.59 538,825.98 535.67,812.78 533.33,799.99 531,787.61 528.67,775.63 526.33,764.06 524,752.89 521.67,742.13 519.33,731.77 517,721.81 514.67,712.25 512.33,703.09 510,694.34 507.67,685.99 505.33,678.05 503,670.51 500.67,663.37 498.33,656.63 496,650.3 493.67,644.37 491.33,638.83 489,633.69 486.67,628.93 484.33,624.55 482,620.53 479.67,616.88 477.33,613.56 475,610.58 472.67,607.91 470.33,605.53 468,603.43 465.67,601.59 463.33,599.99 461,598.61 458.67,597.44 456.33,596.45 454,595.65 451.67,595 449.33,594.5 447,594.13 444.67,593.89 442.33,593.76 440,593.73 437.67,593.81 435.33,593.97 433,594.22 430.67,594.55 428.33,594.95 426,595.43 423.67,595.97 421.33,596.57 419,597.23 416.67,597.96 414.33,598.74 412,599.58 409.67,600.47 407.33,601.42 405,602.42 402.67,603.47 400.33,604.57 398,605.72 395.67,606.93 393.33,608.19 391,609.5 388.67,610.86 386.33,612.27 384,613.73 381.67,615.25 379.33,616.81 377,618.43 374.67,620.1 372.33,621.82 370,623.59 367.67,625.41 365.33,627.29 363,629.21 360.67,631.18 358.33,633.2 356,635.27 353.67,637.38 351.33,639.54 349,641.74 346.67,643.99 344.33,646.27 342,648.59 339.67,650.95 337.33,653.34 335,655.76 332.67,658.21 330.33,660.68 328,663.17 325.67,665.68 323.33,668.21 321,670.75 318.67,673.3 316.33,675.85 314,678.4 311.67,680.95 309.33,683.5 307,686.03 304.67,688.54 302.33,691.04 300,693.51 297.67,695.96 295.33,698.37 293,700.74 290.67,703.08 288.33,705.37 286,707.61 283.67,709.79 281.33,711.92 279,713.99 276.67,715.99 274.33,717.92 272,719.77 269.67,721.54 267.33,723.23 265,724.84 262.67,726.35 260.33,727.76 258,729.08 255.67,730.29 253.33,731.4 251,732.4 248.67,733.28 246.33,734.04 244,734.69 241.67,735.21 239.33,735.61 237,735.88 234.67,736.02 232.33,736.03 230,735.9 227.67,735.64 225.33,735.25 223,734.72 220.67,734.06 218.33,733.27 216,732.35 213.67,731.3 211.33,730.14 209,728.87 206.67,727.5 204.33,726.04 202,724.51 199.67,722.93 197.33,721.31 195,719.69 192.67,718.09 190.33,716.56 188,715.13 185.67,713.84 183.33,712.75 181,711.88 178.67,711.3 176.33,711.02 174,711.07 171.67,711.46 169.33,712.21 167,713.3 164.67,714.73 162.33,716.46 160,718.49 157.67,720.79 155.33,723.34 153,726.12 150.67,729.1 148.33,732.28 146,735.64 143.67,739.16 141.33,742.84 139,746.67 136.67,750.63 134.33,754.73 132,758.94 129.67,763.28 127.33,767.74 125,772.3" fill="#d8d9dc" clip-path="url(#poly7-2)"/>
<polyline points="125,608.59 127.33,612.36 129.67,615.99 132,619.47 134.33,622.82 136.67,626.02 139,629.09 141.33,632.03 143.67,634.83 146,637.5 148.33,640.04 150.67,642.45 153,644.73 155.33,646.89 157.67,648.93 160,650.85 162.33,652.65 164.67,654.33 167,655.9 169.33,657.35 171.67,658.69 174,659.92 176.33,661.05 178.67,662.06 181,662.97 183.33,663.78 185.67,664.49 188,665.1 190.33,665.61 192.67,666.02 195,666.34 197.33,666.57 199.67,666.71 202,666.76 204.33,666.72 206.67,666.6 209,666.4 211.33,666.11 213.67,665.74 216,665.3 218.33,664.78 220.67,664.18 223,663.51 225.33,662.77 227.67,661.97 230,661.09 232.33,660.15 234.67,659.15 237,658.08 239.33,656.95 241.67,655.77 244,654.53 246.33,653.23 248.67,651.88 251,650.48 253.33,649.03 255.67,647.54 258,645.99 260.33,644.4 262.67,642.78 265,641.11 267.33,639.4 269.67,637.65 272,635.87 274.33,634.06 276.67,632.21 279,630.34 281.33,628.43 283.67,626.5 286,624.55 288.33,622.57 290.67,620.57 293,618.56 295.33,616.52 297.67,614.47 300,612.41 302.33,610.33 304.67,608.25 307,606.15 309.33,604.05 311.67,601.95 314,599.84 316.33,597.73 318.67,595.62 321,593.51 323.33,591.41 325.67,589.31 328,587.22 330.33,585.14 332.67,583.07 335,581.02 337.33,578.97 339.67,576.95 342,574.94 344.33,572.96 346.67,570.99 349,569.05 351.33,567.14 353.67,565.25 356,563.39 358.33,561.56 360.67,559.77 363,558 365.33,556.28 367.67,554.59 370,552.94 372.33,551.34 374.67,549.78 377,548.26 379.33,546.79 381.67,545.37 384,543.99 386.33,542.67 388.67,541.41 391,540.2 393.33,539.05 395.67,537.95 398,536.92 400.33,535.95 402.67,535.05 405,534.21 407.33,533.44 409.67,532.74 412,532.12 414.33,531.56 416.67,531.08 419,530.68 421.33,530.36 423.67,530.12 426,529.96 428.33,529.89 430.67,529.9 433,530 435.33,530.18 437.67,530.47 440,530.84 442.33,531.31 444.67,531.87 447,532.54 449.33,533.3 451.67,534.17 454,535.14 456.33,536.21 458.67,537.4 461,538.69 463.33,540.09 465.67,541.61 468,543.24 470.33,544.99 472.67,546.85 475,548.84 477.33,550.95 479.67,553.18 482,555.53 484.33,558.02 486.67,560.63 489,563.37 491.33,566.25 493.67,569.26 496,572.4 498.33,575.69 500.67,579.11 503,582.67 505.33,586.38 507.67,590.23 510,594.23 512.33,598.38 514.67,602.68 517,607.13 519.33,611.73 521.67,616.49 524,621.41 526.33,626.48 528.67,631.72 531,637.12 533.33,642.68 535.67,648.41 538,654.31 540.33,660.38 542.67,666.62 545,673.03" fill="none" stroke="#171915" stroke-width="3" clip-path="url(#poly7-2)"/>
<circle cx="190.62" cy="672.7" r="5.3" fill="#6670ee" stroke="#fff" stroke-width="1.3"/>
<circle cx="170.94" cy="669.55" r="5.3" fill="#6670ee" stroke="#fff" stroke-width="1.3"/>
<circle cx="157.81" cy="633.55" r="5.3" fill="#6670ee" stroke="#fff" stroke-width="1.3"/>
<circle cx="249.69" cy="654.02" r="5.3" fill="#6670ee" stroke="#fff" stroke-width="1.3"/>
<circle cx="433.44" cy="602.05" r="5.3" fill="#6670ee" stroke="#fff" stroke-width="1.3"/>
<circle cx="505.62" cy="575.27" r="5.3" fill="#6670ee" stroke="#fff" stroke-width="1.3"/>
<circle cx="407.19" cy="467.5" r="5.3" fill="#6670ee" stroke="#fff" stroke-width="1.3"/>
<line x1="164.38" y1="715" x2="164.38" y2="721" stroke="#343732"/>
<text x="164.38" y="740" text-anchor="middle" font-family="PingFang SC, Noto Sans CJK SC, Microsoft YaHei, sans-serif" font-size="15">35</text>
<line x1="321.88" y1="715" x2="321.88" y2="721" stroke="#343732"/>
<text x="321.88" y="740" text-anchor="middle" font-family="PingFang SC, Noto Sans CJK SC, Microsoft YaHei, sans-serif" font-size="15">47</text>
<line x1="492.5" y1="715" x2="492.5" y2="721" stroke="#343732"/>
<text x="492.5" y="740" text-anchor="middle" font-family="PingFang SC, Noto Sans CJK SC, Microsoft YaHei, sans-serif" font-size="15">60</text>
<line x1="119" y1="670" x2="125" y2="670" stroke="#343732"/>
<text x="112" y="675" text-anchor="end" font-family="PingFang SC, Noto Sans CJK SC, Microsoft YaHei, sans-serif" font-size="15">450</text>
<line x1="119" y1="568.75" x2="125" y2="568.75" stroke="#343732"/>
<text x="112" y="573.75" text-anchor="end" font-family="PingFang SC, Noto Sans CJK SC, Microsoft YaHei, sans-serif" font-size="15">900</text>
<line x1="119" y1="478.75" x2="125" y2="478.75" stroke="#343732"/>
<text x="112" y="483.75" text-anchor="end" font-family="PingFang SC, Noto Sans CJK SC, Microsoft YaHei, sans-serif" font-size="15">1300</text>
<text x="335.0" y="766" text-anchor="middle" font-family="PingFang SC, Noto Sans CJK SC, Microsoft YaHei, sans-serif" font-size="17" font-weight="700" fill="#263f86">体重（千克）</text>
<text x="56" y="580.0" transform="rotate(-90 56 580.0)" text-anchor="middle" font-family="PingFang SC, Noto Sans CJK SC, Microsoft YaHei, sans-serif" font-size="17" font-weight="700" fill="#263f86">脑容量（立方厘米）</text>
<text x="665" y="423" font-family="PingFang SC, Noto Sans CJK SC, Microsoft YaHei, sans-serif" font-size="20" font-weight="700" fill="#30332e">m7.4：R² = 0.82</text>
<rect x="665" y="445" width="420" height="270" fill="#fff" stroke="#343732" stroke-width="1.4"/>
<polygon points="665,-4.3 667.33,51.54 669.67,104.57 672,154.87 674.33,202.48 676.67,247.47 679,289.9 681.33,329.8 683.67,367.22 686,402.19 688.33,434.74 690.67,464.86 693,492.54 695.33,517.75 697.67,540.41 700,560.43 702.33,577.7 704.67,592.16 707,603.84 709.33,612.93 711.67,619.76 714,624.73 716.33,628.28 718.67,630.75 721,632.41 723.33,633.48 725.67,634.09 728,634.34 730.33,634.31 732.67,634.04 735,633.56 737.33,632.9 739.67,632.05 742,631.04 744.33,629.84 746.67,628.46 749,626.89 751.33,625.1 753.67,623.08 756,620.81 758.33,618.26 760.67,615.42 763,612.24 765.33,608.72 767.67,604.81 770,600.5 772.33,595.77 774.67,590.6 777,585 779.33,578.95 781.67,572.46 784,565.56 786.33,558.27 788.67,550.61 791,542.61 793.33,534.33 795.67,525.79 798,517.03 800.33,508.1 802.67,499.04 805,489.89 807.33,480.68 809.67,471.46 812,462.25 814.33,453.09 816.67,444.01 819,435.03 821.33,426.2 823.67,417.53 826,409.05 828.33,400.78 830.67,392.75 833,384.97 835.33,377.46 837.67,370.24 840,363.33 842.33,356.75 844.67,350.5 847,344.6 849.33,339.07 851.67,333.91 854,329.14 856.33,324.76 858.67,320.79 861,317.22 863.33,314.07 865.67,311.35 868,309.05 870.33,307.18 872.67,305.74 875,304.74 877.33,304.17 879.67,304.04 882,304.34 884.33,305.08 886.67,306.24 889,307.82 891.33,309.82 893.67,312.24 896,315.06 898.33,318.28 900.67,321.88 903,325.86 905.33,330.21 907.67,334.9 910,339.93 912.33,345.28 914.67,350.93 917,356.86 919.33,363.04 921.67,369.46 924,376.09 926.33,382.9 928.67,389.84 931,396.9 933.33,404.02 935.67,411.16 938,418.27 940.33,425.3 942.67,432.19 945,438.87 947.33,445.29 949.67,451.36 952,457.05 954.33,462.29 956.67,467.05 959,471.31 961.33,475.07 963.67,478.35 966,481.18 968.33,483.6 970.67,485.68 973,487.46 975.33,489 977.67,490.36 980,491.57 982.33,492.68 984.67,493.72 987,494.74 989.33,495.74 991.67,496.77 994,497.83 996.33,498.95 998.67,500.13 1001,501.39 1003.33,502.73 1005.67,504.15 1008,505.66 1010.33,507.24 1012.67,508.89 1015,510.59 1017.33,512.31 1019.67,514.01 1022,515.65 1024.33,517.15 1026.67,518.41 1029,519.32 1031.33,519.69 1033.67,519.32 1036,517.93 1038.33,515.18 1040.67,510.73 1043,504.2 1045.33,495.29 1047.67,483.78 1050,469.54 1052.33,452.57 1054.67,432.88 1057,410.55 1059.33,385.63 1061.67,358.18 1064,328.22 1066.33,295.76 1068.67,260.82 1071,223.36 1073.33,183.37 1075.67,140.81 1078,95.65 1080.33,47.82 1082.67,-2.72 1085,-56.02 1085,810.15 1082.67,795.4 1080.33,781.3 1078,767.88 1075.67,755.14 1073.33,743.07 1071,731.71 1068.67,721.07 1066.33,711.18 1064,702.08 1061.67,693.82 1059.33,686.47 1057,680.12 1054.67,674.86 1052.33,670.8 1050,668.06 1047.67,666.72 1045.33,666.81 1043,668.25 1040.67,670.89 1038.33,674.44 1036,678.61 1033.67,683.06 1031.33,687.52 1029,691.77 1026.67,695.61 1024.33,698.93 1022,701.65 1019.67,703.7 1017.33,705.06 1015,705.72 1012.67,705.68 1010.33,704.94 1008,703.54 1005.67,701.49 1003.33,698.83 1001,695.6 998.67,691.82 996.33,687.54 994,682.81 991.67,677.67 989.33,672.16 987,666.35 984.67,660.27 982.33,654 980,647.59 977.67,641.11 975.33,634.63 973,628.21 970.67,621.95 968.33,615.92 966,610.2 963.67,604.86 961.33,599.99 959,595.63 956.67,591.83 954.33,588.6 952,585.96 949.67,583.88 947.33,582.34 945,581.29 942.67,580.69 940.33,580.48 938,580.64 935.67,581.11 933.33,581.85 931,582.83 928.67,584.02 926.33,585.4 924,586.93 921.67,588.6 919.33,590.39 917,592.29 914.67,594.27 912.33,596.33 910,598.46 907.67,600.65 905.33,602.88 903,605.14 900.67,607.44 898.33,609.77 896,612.11 893.67,614.47 891.33,616.84 889,619.2 886.67,621.57 884.33,623.94 882,626.29 879.67,628.64 877.33,630.97 875,633.28 872.67,635.57 870.33,637.84 868,640.09 865.67,642.32 863.33,644.52 861,646.69 858.67,648.83 856.33,650.95 854,653.03 851.67,655.09 849.33,657.12 847,659.12 844.67,661.1 842.33,663.05 840,664.97 837.67,666.88 835.33,668.76 833,670.63 830.67,672.48 828.33,674.33 826,676.17 823.67,678.02 821.33,679.87 819,681.73 816.67,683.62 814.33,685.53 812,687.48 809.67,689.49 807.33,691.55 805,693.69 802.67,695.92 800.33,698.24 798,700.69 795.67,703.27 793.33,705.99 791,708.88 788.67,711.95 786.33,715.2 784,718.64 781.67,722.27 779.33,726.09 777,730.07 774.67,734.21 772.33,738.46 770,742.78 767.67,747.14 765.33,751.47 763,755.72 760.67,759.83 758.33,763.74 756,767.38 753.67,770.69 751.33,773.6 749,776.07 746.67,778.03 744.33,779.42 742,780.2 739.67,780.31 737.33,779.71 735,778.36 732.67,776.22 730.33,773.28 728,769.52 725.67,764.93 723.33,759.55 721,753.43 718.67,746.66 716.33,739.39 714,731.86 711.67,724.37 709.33,717.28 707,710.96 704.67,705.69 702.33,701.6 700,698.67 697.67,696.77 695.33,695.76 693,695.47 690.67,695.8 688.33,696.63 686,697.9 683.67,699.56 681.33,701.56 679,703.88 676.67,706.5 674.33,709.41 672,712.59 669.67,716.05 667.33,719.78 665,723.78" fill="#d8d9dc" clip-path="url(#poly7-3)"/>
<polyline points="665,359.74 667.33,385.66 669.67,410.31 672,433.73 674.33,455.94 676.67,476.99 679,496.89 681.33,515.68 683.67,533.39 686,550.05 688.33,565.68 690.67,580.33 693,594.01 695.33,606.75 697.67,618.59 700,629.55 702.33,639.65 704.67,648.93 707,657.4 709.33,665.11 711.67,672.06 714,678.3 716.33,683.84 718.67,688.7 721,692.92 723.33,696.52 725.67,699.51 728,701.93 730.33,703.8 732.67,705.13 735,705.96 737.33,706.3 739.67,706.18 742,705.62 744.33,704.63 746.67,703.24 749,701.48 751.33,699.35 753.67,696.88 756,694.09 758.33,691 760.67,687.62 763,683.98 765.33,680.09 767.67,675.97 770,671.64 772.33,667.11 774.67,662.41 777,657.53 779.33,652.52 781.67,647.37 784,642.1 786.33,636.73 788.67,631.28 791,625.75 793.33,620.16 795.67,614.53 798,608.86 800.33,603.17 802.67,597.48 805,591.79 807.33,586.12 809.67,580.47 812,574.87 814.33,569.31 816.67,563.81 819,558.38 821.33,553.03 823.67,547.77 826,542.61 828.33,537.56 830.67,532.62 833,527.8 835.33,523.11 837.67,518.56 840,514.15 842.33,509.9 844.67,505.8 847,501.86 849.33,498.09 851.67,494.5 854,491.09 856.33,487.85 858.67,484.81 861,481.95 863.33,479.3 865.67,476.83 868,474.57 870.33,472.51 872.67,470.66 875,469.01 877.33,467.57 879.67,466.34 882,465.32 884.33,464.51 886.67,463.9 889,463.51 891.33,463.33 893.67,463.36 896,463.59 898.33,464.02 900.67,464.66 903,465.5 905.33,466.54 907.67,467.77 910,469.2 912.33,470.81 914.67,472.6 917,474.57 919.33,476.72 921.67,479.03 924,481.51 926.33,484.15 928.67,486.93 931,489.87 933.33,492.93 935.67,496.13 938,499.46 940.33,502.89 942.67,506.44 945,510.08 947.33,513.81 949.67,517.62 952,521.51 954.33,525.45 956.67,529.44 959,533.47 961.33,537.53 963.67,541.61 966,545.69 968.33,549.76 970.67,553.82 973,557.84 975.33,561.82 977.67,565.73 980,569.58 982.33,573.34 984.67,577 987,580.54 989.33,583.95 991.67,587.22 994,590.32 996.33,593.25 998.67,595.98 1001,598.49 1003.33,600.78 1005.67,602.82 1008,604.6 1010.33,606.09 1012.67,607.28 1015,608.15 1017.33,608.68 1019.67,608.86 1022,608.65 1024.33,608.04 1026.67,607.01 1029,605.54 1031.33,603.61 1033.67,601.19 1036,598.27 1038.33,594.81 1040.67,590.81 1043,586.23 1045.33,581.05 1047.67,575.25 1050,568.8 1052.33,561.68 1054.67,553.87 1057,545.33 1059.33,536.05 1061.67,526 1064,515.15 1066.33,503.47 1068.67,490.94 1071,477.54 1073.33,463.22 1075.67,447.98 1078,431.76 1080.33,414.56 1082.67,396.34 1085,377.07" fill="none" stroke="#171915" stroke-width="3" clip-path="url(#poly7-3)"/>
<circle cx="730.62" cy="672.7" r="5.3" fill="#6670ee" stroke="#fff" stroke-width="1.3"/>
<circle cx="710.94" cy="669.55" r="5.3" fill="#6670ee" stroke="#fff" stroke-width="1.3"/>
<circle cx="697.81" cy="633.55" r="5.3" fill="#6670ee" stroke="#fff" stroke-width="1.3"/>
<circle cx="789.69" cy="654.02" r="5.3" fill="#6670ee" stroke="#fff" stroke-width="1.3"/>
<circle cx="973.44" cy="602.05" r="5.3" fill="#6670ee" stroke="#fff" stroke-width="1.3"/>
<circle cx="1045.62" cy="575.27" r="5.3" fill="#6670ee" stroke="#fff" stroke-width="1.3"/>
<circle cx="947.19" cy="467.5" r="5.3" fill="#6670ee" stroke="#fff" stroke-width="1.3"/>
<line x1="704.38" y1="715" x2="704.38" y2="721" stroke="#343732"/>
<text x="704.38" y="740" text-anchor="middle" font-family="PingFang SC, Noto Sans CJK SC, Microsoft YaHei, sans-serif" font-size="15">35</text>
<line x1="861.88" y1="715" x2="861.88" y2="721" stroke="#343732"/>
<text x="861.88" y="740" text-anchor="middle" font-family="PingFang SC, Noto Sans CJK SC, Microsoft YaHei, sans-serif" font-size="15">47</text>
<line x1="1032.5" y1="715" x2="1032.5" y2="721" stroke="#343732"/>
<text x="1032.5" y="740" text-anchor="middle" font-family="PingFang SC, Noto Sans CJK SC, Microsoft YaHei, sans-serif" font-size="15">60</text>
<line x1="659" y1="670" x2="665" y2="670" stroke="#343732"/>
<text x="652" y="675" text-anchor="end" font-family="PingFang SC, Noto Sans CJK SC, Microsoft YaHei, sans-serif" font-size="15">450</text>
<line x1="659" y1="568.75" x2="665" y2="568.75" stroke="#343732"/>
<text x="652" y="573.75" text-anchor="end" font-family="PingFang SC, Noto Sans CJK SC, Microsoft YaHei, sans-serif" font-size="15">900</text>
<line x1="659" y1="478.75" x2="665" y2="478.75" stroke="#343732"/>
<text x="652" y="483.75" text-anchor="end" font-family="PingFang SC, Noto Sans CJK SC, Microsoft YaHei, sans-serif" font-size="15">1300</text>
<text x="875.0" y="766" text-anchor="middle" font-family="PingFang SC, Noto Sans CJK SC, Microsoft YaHei, sans-serif" font-size="17" font-weight="700" fill="#263f86">体重（千克）</text>
<text x="596" y="580.0" transform="rotate(-90 596 580.0)" text-anchor="middle" font-family="PingFang SC, Noto Sans CJK SC, Microsoft YaHei, sans-serif" font-size="17" font-weight="700" fill="#263f86">脑容量（立方厘米）</text>
<text x="125" y="798" font-family="PingFang SC, Noto Sans CJK SC, Microsoft YaHei, sans-serif" font-size="20" font-weight="700" fill="#30332e">m7.5：R² = 0.99</text>
<rect x="125" y="820" width="420" height="270" fill="#fff" stroke="#343732" stroke-width="1.4"/>
<polygon points="125,879.6 127.33,886.89 129.67,894.43 132,902.18 134.33,910.07 136.67,918.07 139,926.13 141.33,934.2 143.67,942.24 146,950.19 148.33,958 150.67,965.61 153,972.96 155.33,979.94 157.67,986.47 160,992.42 162.33,997.69 164.67,1002.2 167,1005.96 169.33,1009.11 171.67,1011.84 174,1014.33 176.33,1016.73 178.67,1019.12 181,1021.53 183.33,1023.99 185.67,1026.46 188,1028.94 190.33,1031.39 192.67,1033.77 195,1036.06 197.33,1038.21 199.67,1040.19 202,1041.97 204.33,1043.5 206.67,1044.77 209,1045.74 211.33,1046.37 213.67,1046.65 216,1046.56 218.33,1046.07 220.67,1045.17 223,1043.84 225.33,1042.07 227.67,1039.85 230,1037.18 232.33,1034.06 234.67,1030.5 237,1026.48 239.33,1022.03 241.67,1017.14 244,1011.84 246.33,1006.13 248.67,1000.04 251,993.57 253.33,986.73 255.67,979.56 258,972.07 260.33,964.26 262.67,956.18 265,947.82 267.33,939.22 269.67,930.39 272,921.35 274.33,912.14 276.67,902.76 279,893.23 281.33,883.6 283.67,873.86 286,864.06 288.33,854.21 290.67,844.34 293,834.47 295.33,824.63 297.67,814.85 300,805.14 302.33,795.54 304.67,786.08 307,776.77 309.33,767.64 311.67,758.72 314,750.05 316.33,741.63 318.67,733.5 321,725.69 323.33,718.22 325.67,711.11 328,704.39 330.33,698.08 332.67,692.21 335,686.8 337.33,681.87 339.67,677.44 342,673.54 344.33,670.17 346.67,667.36 349,665.13 351.33,663.5 353.67,662.47 356,662.06 358.33,662.28 360.67,663.15 363,664.67 365.33,666.85 367.67,669.7 370,673.22 372.33,677.4 374.67,682.27 377,687.8 379.33,693.99 381.67,700.85 384,708.36 386.33,716.5 388.67,725.27 391,734.64 393.33,744.59 395.67,755.1 398,766.13 400.33,777.63 402.67,789.58 405,801.9 407.33,814.53 409.67,827.39 412,840.36 414.33,853.32 416.67,866.13 419,878.64 421.33,890.74 423.67,902.35 426,913.46 428.33,924.12 430.67,934.37 433,944.27 435.33,953.87 437.67,963.2 440,972.25 442.33,981.04 444.67,989.53 447,997.72 449.33,1005.56 451.67,1013.03 454,1020.08 456.33,1026.67 458.67,1032.74 461,1038.26 463.33,1043.15 465.67,1047.38 468,1050.86 470.33,1053.55 472.67,1055.37 475,1056.26 477.33,1056.13 479.67,1054.91 482,1052.51 484.33,1048.83 486.67,1043.79 489,1037.24 491.33,1029.05 493.67,1019.02 496,1006.89 498.33,992.25 500.67,974.41 503,952.26 505.33,924.33 507.67,889.53 510,847.84 512.33,799.78 514.67,745.8 517,686.07 519.33,620.61 521.67,549.32 524,472.03 526.33,388.55 528.67,298.66 531,202.11 533.33,98.67 535.67,-11.95 538,-130 540.33,-255.77 542.67,-389.54 545,-531.62 545,250.41 542.67,319.12 540.33,383.83 538,444.69 535.67,501.84 533.33,555.42 531,605.58 528.67,652.46 526.33,696.2 524,736.96 521.67,774.88 519.33,810.15 517,842.97 514.67,873.58 512.33,902.34 510,929.77 507.67,956.64 505.33,983.8 503,1011.52 500.67,1039.04 498.33,1065.16 496,1089.08 493.67,1110.38 491.33,1128.93 489,1144.73 486.67,1157.83 484.33,1168.36 482,1176.42 479.67,1182.15 477.33,1185.69 475,1187.17 472.67,1186.72 470.33,1184.49 468,1180.6 465.67,1175.18 463.33,1168.35 461,1160.24 458.67,1150.96 456.33,1140.63 454,1129.36 451.67,1117.26 449.33,1104.43 447,1090.99 444.67,1077.03 442.33,1062.66 440,1047.98 437.67,1033.11 435.33,1018.14 433,1003.22 430.67,988.46 428.33,974.01 426,960.03 423.67,946.66 421.33,934.03 419,922.22 416.67,911.22 414.33,900.98 412,891.44 409.67,882.51 407.33,874.13 405,866.24 402.67,858.81 400.33,851.82 398,845.25 395.67,839.1 393.33,833.35 391,828.02 388.67,823.09 386.33,818.57 384,814.46 381.67,810.77 379.33,807.49 377,804.63 374.67,802.18 372.33,800.15 370,798.54 367.67,797.35 365.33,796.56 363,796.19 360.67,796.23 358.33,796.67 356,797.51 353.67,798.74 351.33,800.36 349,802.36 346.67,804.73 344.33,807.46 342,810.55 339.67,813.98 337.33,817.74 335,821.82 332.67,826.22 330.33,830.92 328,835.9 325.67,841.15 323.33,846.66 321,852.41 318.67,858.39 316.33,864.58 314,870.97 311.67,877.55 309.33,884.28 307,891.17 304.67,898.18 302.33,905.31 300,912.53 297.67,919.83 295.33,927.18 293,934.58 290.67,942 288.33,949.42 286,956.83 283.67,964.2 281.33,971.52 279,978.76 276.67,985.92 274.33,992.98 272,999.91 269.67,1006.69 267.33,1013.33 265,1019.78 262.67,1026.06 260.33,1032.13 258,1037.98 255.67,1043.61 253.33,1049.01 251,1054.15 248.67,1059.04 246.33,1063.66 244,1068.02 241.67,1072.1 239.33,1075.89 237,1079.4 234.67,1082.62 232.33,1085.55 230,1088.18 227.67,1090.5 225.33,1092.52 223,1094.23 220.67,1095.62 218.33,1096.68 216,1097.42 213.67,1097.82 211.33,1097.87 209,1097.59 206.67,1096.95 204.33,1095.96 202,1094.62 199.67,1092.92 197.33,1090.87 195,1088.47 192.67,1085.74 190.33,1082.67 188,1079.29 185.67,1075.63 183.33,1071.7 181,1067.55 178.67,1063.23 176.33,1058.84 174,1054.48 171.67,1050.33 169.33,1046.61 167,1043.59 164.67,1041.58 162.33,1040.8 160,1041.37 157.67,1043.34 155.33,1046.72 153,1051.5 150.67,1057.72 148.33,1065.43 146,1074.7 143.67,1085.61 141.33,1098.27 139,1112.77 136.67,1129.25 134.33,1147.82 132,1168.61 129.67,1191.76 127.33,1217.41 125,1245.72" fill="#d8d9dc" clip-path="url(#poly7-4)"/>
<polyline points="125,1062.66 127.33,1052.15 129.67,1043.1 132,1035.39 134.33,1028.94 136.67,1023.66 139,1019.45 141.33,1016.23 143.67,1013.92 146,1012.44 148.33,1011.72 150.67,1011.67 153,1012.23 155.33,1013.33 157.67,1014.91 160,1016.9 162.33,1019.24 164.67,1021.89 167,1024.78 169.33,1027.86 171.67,1031.08 174,1034.41 176.33,1037.79 178.67,1041.18 181,1044.54 183.33,1047.84 185.67,1051.04 188,1054.12 190.33,1057.03 192.67,1059.76 195,1062.27 197.33,1064.54 199.67,1066.56 202,1068.29 204.33,1069.73 206.67,1070.86 209,1071.66 211.33,1072.12 213.67,1072.24 216,1071.99 218.33,1071.38 220.67,1070.39 223,1069.03 225.33,1067.29 227.67,1065.18 230,1062.68 232.33,1059.81 234.67,1056.56 237,1052.94 239.33,1048.96 241.67,1044.62 244,1039.93 246.33,1034.9 248.67,1029.54 251,1023.86 253.33,1017.87 255.67,1011.59 258,1005.02 260.33,998.2 262.67,991.12 265,983.8 267.33,976.27 269.67,968.54 272,960.63 274.33,952.56 276.67,944.34 279,936 281.33,927.56 283.67,919.03 286,910.44 288.33,901.82 290.67,893.17 293,884.53 295.33,875.91 297.67,867.34 300,858.84 302.33,850.43 304.67,842.13 307,833.97 309.33,825.96 311.67,818.14 314,810.51 316.33,803.11 318.67,795.95 321,789.05 323.33,782.44 325.67,776.13 328,770.14 330.33,764.5 332.67,759.22 335,754.31 337.33,749.81 339.67,745.71 342,742.04 344.33,738.81 346.67,736.04 349,733.74 351.33,731.93 353.67,730.6 356,729.78 358.33,729.48 360.67,729.69 363,730.43 365.33,731.71 367.67,733.52 370,735.88 372.33,738.78 374.67,742.22 377,746.21 379.33,750.74 381.67,755.81 384,761.41 386.33,767.54 388.67,774.18 391,781.33 393.33,788.97 395.67,797.1 398,805.69 400.33,814.73 402.67,824.2 405,834.07 407.33,844.33 409.67,854.95 412,865.9 414.33,877.15 416.67,888.67 419,900.43 421.33,912.39 423.67,924.51 426,936.75 428.33,949.06 430.67,961.41 433,973.74 435.33,986.01 437.67,998.15 440,1010.12 442.33,1021.85 444.67,1033.28 447,1044.35 449.33,1055 451.67,1065.14 454,1074.72 456.33,1083.65 458.67,1091.85 461,1099.25 463.33,1105.75 465.67,1111.28 468,1115.73 470.33,1119.02 472.67,1121.05 475,1121.71 477.33,1120.91 479.67,1118.53 482,1114.46 484.33,1108.6 486.67,1100.81 489,1090.98 491.33,1078.99 493.67,1064.7 496,1047.99 498.33,1028.71 500.67,1006.72 503,981.89 505.33,954.06 507.67,923.09 510,888.81 512.33,851.06 514.67,809.69 517,764.52 519.33,715.38 521.67,662.1 524,604.49 526.33,542.38 528.67,475.56 531,403.85 533.33,327.04 535.67,244.94 538,157.34 540.33,64.03 542.67,-35.21 545,-140.61" fill="none" stroke="#171915" stroke-width="3" clip-path="url(#poly7-4)"/>
<circle cx="190.62" cy="1047.7" r="5.3" fill="#6670ee" stroke="#fff" stroke-width="1.3"/>
<circle cx="170.94" cy="1044.55" r="5.3" fill="#6670ee" stroke="#fff" stroke-width="1.3"/>
<circle cx="157.81" cy="1008.55" r="5.3" fill="#6670ee" stroke="#fff" stroke-width="1.3"/>
<circle cx="249.69" cy="1029.03" r="5.3" fill="#6670ee" stroke="#fff" stroke-width="1.3"/>
<circle cx="433.44" cy="977.05" r="5.3" fill="#6670ee" stroke="#fff" stroke-width="1.3"/>
<circle cx="505.62" cy="950.27" r="5.3" fill="#6670ee" stroke="#fff" stroke-width="1.3"/>
<circle cx="407.19" cy="842.5" r="5.3" fill="#6670ee" stroke="#fff" stroke-width="1.3"/>
<line x1="164.38" y1="1090" x2="164.38" y2="1096" stroke="#343732"/>
<text x="164.38" y="1115" text-anchor="middle" font-family="PingFang SC, Noto Sans CJK SC, Microsoft YaHei, sans-serif" font-size="15">35</text>
<line x1="321.88" y1="1090" x2="321.88" y2="1096" stroke="#343732"/>
<text x="321.88" y="1115" text-anchor="middle" font-family="PingFang SC, Noto Sans CJK SC, Microsoft YaHei, sans-serif" font-size="15">47</text>
<line x1="492.5" y1="1090" x2="492.5" y2="1096" stroke="#343732"/>
<text x="492.5" y="1115" text-anchor="middle" font-family="PingFang SC, Noto Sans CJK SC, Microsoft YaHei, sans-serif" font-size="15">60</text>
<line x1="119" y1="1045" x2="125" y2="1045" stroke="#343732"/>
<text x="112" y="1050" text-anchor="end" font-family="PingFang SC, Noto Sans CJK SC, Microsoft YaHei, sans-serif" font-size="15">450</text>
<line x1="119" y1="943.75" x2="125" y2="943.75" stroke="#343732"/>
<text x="112" y="948.75" text-anchor="end" font-family="PingFang SC, Noto Sans CJK SC, Microsoft YaHei, sans-serif" font-size="15">900</text>
<line x1="119" y1="853.75" x2="125" y2="853.75" stroke="#343732"/>
<text x="112" y="858.75" text-anchor="end" font-family="PingFang SC, Noto Sans CJK SC, Microsoft YaHei, sans-serif" font-size="15">1300</text>
<text x="335.0" y="1141" text-anchor="middle" font-family="PingFang SC, Noto Sans CJK SC, Microsoft YaHei, sans-serif" font-size="17" font-weight="700" fill="#263f86">体重（千克）</text>
<text x="56" y="955.0" transform="rotate(-90 56 955.0)" text-anchor="middle" font-family="PingFang SC, Noto Sans CJK SC, Microsoft YaHei, sans-serif" font-size="17" font-weight="700" fill="#263f86">脑容量（立方厘米）</text>
<text x="665" y="798" font-family="PingFang SC, Noto Sans CJK SC, Microsoft YaHei, sans-serif" font-size="20" font-weight="700" fill="#30332e">m7.6：R² = 1</text>
<rect x="665" y="820" width="420" height="270" fill="#fff" stroke="#343732" stroke-width="1.4"/>
<line x1="665" y1="1012" x2="1085" y2="1012" stroke="#666" stroke-width="1.4" stroke-dasharray="7 6"/>
<polyline points="665,707.06 667.33,737.8 669.67,765.66 672,790.84 674.33,813.51 676.67,833.87 679,852.08 681.33,868.3 683.67,882.69 686,895.4 688.33,906.56 690.67,916.3 693,924.74 695.33,932.01 697.67,938.21 700,943.44 702.33,947.8 704.67,951.37 707,954.26 709.33,956.52 711.67,958.24 714,959.49 716.33,960.32 718.67,960.79 721,960.96 723.33,960.87 725.67,960.58 728,960.12 730.33,959.52 732.67,958.83 735,958.06 737.33,957.25 739.67,956.42 742,955.59 744.33,954.77 746.67,953.99 749,953.24 751.33,952.55 753.67,951.92 756,951.35 758.33,950.85 760.67,950.41 763,950.05 765.33,949.76 767.67,949.53 770,949.37 772.33,949.26 774.67,949.2 777,949.18 779.33,949.2 781.67,949.24 784,949.31 786.33,949.38 788.67,949.45 791,949.51 793.33,949.55 795.67,949.56 798,949.52 800.33,949.44 802.67,949.29 805,949.07 807.33,948.77 809.67,948.38 812,947.88 814.33,947.29 816.67,946.58 819,945.74 821.33,944.78 823.67,943.69 826,942.46 828.33,941.09 830.67,939.57 833,937.9 835.33,936.09 837.67,934.12 840,932 842.33,929.74 844.67,927.33 847,924.78 849.33,922.09 851.67,919.26 854,916.31 856.33,913.23 858.67,910.04 861,906.75 863.33,903.37 865.67,899.9 868,896.35 870.33,892.75 872.67,889.1 875,885.42 877.33,881.72 879.67,878.02 882,874.33 884.33,870.67 886.67,867.06 889,863.51 891.33,860.05 893.67,856.69 896,853.46 898.33,850.36 900.67,847.42 903,844.67 905.33,842.11 907.67,839.77 910,837.67 912.33,835.83 914.67,834.26 917,832.99 919.33,832.04 921.67,831.41 924,831.13 926.33,831.21 928.67,831.67 931,832.51 933.33,833.77 935.67,835.43 938,837.52 940.33,840.04 942.67,843 945,846.41 947.33,850.25 949.67,854.55 952,859.28 954.33,864.46 956.67,870.07 959,876.1 961.33,882.54 963.67,889.37 966,896.58 968.33,904.14 970.67,912.02 973,920.2 975.33,928.63 977.67,937.3 980,946.14 982.33,955.11 984.67,964.16 987,973.23 989.33,982.27 991.67,991.19 994,999.94 996.33,1008.42 998.67,1016.56 1001,1024.26 1003.33,1031.43 1005.67,1037.95 1008,1043.72 1010.33,1048.62 1012.67,1052.52 1015,1055.29 1017.33,1056.78 1019.67,1056.85 1022,1055.32 1024.33,1052.05 1026.67,1046.85 1029,1039.52 1031.33,1029.89 1033.67,1017.74 1036,1002.85 1038.33,985 1040.67,963.96 1043,939.47 1045.33,911.28 1047.67,879.11 1050,842.69 1052.33,801.71 1054.67,755.88 1057,704.86 1059.33,648.34 1061.67,585.96 1064,517.35 1066.33,442.16 1068.67,359.98 1071,270.42 1073.33,173.06 1075.67,67.46 1078,-46.83 1080.33,-170.27 1082.67,-303.34 1085,-446.55" fill="none" stroke="#171915" stroke-width="3" clip-path="url(#poly7-5)"/>
<circle cx="730.62" cy="959.44" r="5.3" fill="#6670ee" stroke="#fff" stroke-width="1.3"/>
<circle cx="710.94" cy="957.76" r="5.3" fill="#6670ee" stroke="#fff" stroke-width="1.3"/>
<circle cx="697.81" cy="938.56" r="5.3" fill="#6670ee" stroke="#fff" stroke-width="1.3"/>
<circle cx="789.69" cy="949.48" r="5.3" fill="#6670ee" stroke="#fff" stroke-width="1.3"/>
<circle cx="973.44" cy="921.76" r="5.3" fill="#6670ee" stroke="#fff" stroke-width="1.3"/>
<circle cx="1045.62" cy="907.48" r="5.3" fill="#6670ee" stroke="#fff" stroke-width="1.3"/>
<circle cx="947.19" cy="850" r="5.3" fill="#6670ee" stroke="#fff" stroke-width="1.3"/>
<line x1="704.38" y1="1090" x2="704.38" y2="1096" stroke="#343732"/>
<text x="704.38" y="1115" text-anchor="middle" font-family="PingFang SC, Noto Sans CJK SC, Microsoft YaHei, sans-serif" font-size="15">35</text>
<line x1="861.88" y1="1090" x2="861.88" y2="1096" stroke="#343732"/>
<text x="861.88" y="1115" text-anchor="middle" font-family="PingFang SC, Noto Sans CJK SC, Microsoft YaHei, sans-serif" font-size="15">47</text>
<line x1="1032.5" y1="1090" x2="1032.5" y2="1096" stroke="#343732"/>
<text x="1032.5" y="1115" text-anchor="middle" font-family="PingFang SC, Noto Sans CJK SC, Microsoft YaHei, sans-serif" font-size="15">60</text>
<line x1="659" y1="1012" x2="665" y2="1012" stroke="#343732"/>
<text x="652" y="1017" text-anchor="end" font-family="PingFang SC, Noto Sans CJK SC, Microsoft YaHei, sans-serif" font-size="15">0</text>
<line x1="659" y1="958" x2="665" y2="958" stroke="#343732"/>
<text x="652" y="963" text-anchor="end" font-family="PingFang SC, Noto Sans CJK SC, Microsoft YaHei, sans-serif" font-size="15">450</text>
<line x1="659" y1="856" x2="665" y2="856" stroke="#343732"/>
<text x="652" y="861" text-anchor="end" font-family="PingFang SC, Noto Sans CJK SC, Microsoft YaHei, sans-serif" font-size="15">1300</text>
<text x="875.0" y="1141" text-anchor="middle" font-family="PingFang SC, Noto Sans CJK SC, Microsoft YaHei, sans-serif" font-size="17" font-weight="700" fill="#263f86">体重（千克）</text>
<text x="596" y="955.0" transform="rotate(-90 596 955.0)" text-anchor="middle" font-family="PingFang SC, Noto Sans CJK SC, Microsoft YaHei, sans-serif" font-size="17" font-weight="700" fill="#263f86">脑容量（立方厘米）</text>
<text x="600.0" y="1210" text-anchor="middle" font-family="PingFang SC, Noto Sans CJK SC, Microsoft YaHei, sans-serif" font-size="17" fill="#656963">黑线为后验均值；灰色区域为均值的 89% 区间</text>
</svg>
