<?xml version="1.0" encoding="UTF-8"?>
<svg xmlns="http://www.w3.org/2000/svg" width="1200" height="650" viewBox="0 0 1200 650" role="img">
<title>正则化先验与样本外离差</title>
<desc>两个样本量下，点表示平坦先验的训练与测试离差；虚线、细实线和粗实线分别表示标准差一、零点五和零点二的正则化先验。</desc>
<rect width="100%" height="100%" fill="#fff"/>
<text x="340.0" y="43" text-anchor="middle" font-family="PingFang SC, Noto Sans CJK SC, Microsoft YaHei, sans-serif" font-size="24" font-weight="700" fill="#263f86">N = 20</text>
<rect x="125" y="75" width="430" height="400" fill="#fff" stroke="#343732" stroke-width="1.5"/>
<line x1="118" y1="459.96" x2="125" y2="459.96" stroke="#343732"/>
<text x="109" y="465.96" text-anchor="end" font-family="PingFang SC, Noto Sans CJK SC, Microsoft YaHei, sans-serif" font-size="17" fill="#30332e">48</text>
<line x1="118" y1="399.81" x2="125" y2="399.81" stroke="#343732"/>
<text x="109" y="405.81" text-anchor="end" font-family="PingFang SC, Noto Sans CJK SC, Microsoft YaHei, sans-serif" font-size="17" fill="#30332e">50</text>
<line x1="118" y1="339.66" x2="125" y2="339.66" stroke="#343732"/>
<text x="109" y="345.66" text-anchor="end" font-family="PingFang SC, Noto Sans CJK SC, Microsoft YaHei, sans-serif" font-size="17" fill="#30332e">52</text>
<line x1="118" y1="279.51" x2="125" y2="279.51" stroke="#343732"/>
<text x="109" y="285.51" text-anchor="end" font-family="PingFang SC, Noto Sans CJK SC, Microsoft YaHei, sans-serif" font-size="17" fill="#30332e">54</text>
<line x1="118" y1="219.36" x2="125" y2="219.36" stroke="#343732"/>
<text x="109" y="225.36" text-anchor="end" font-family="PingFang SC, Noto Sans CJK SC, Microsoft YaHei, sans-serif" font-size="17" fill="#30332e">56</text>
<line x1="118" y1="159.21" x2="125" y2="159.21" stroke="#343732"/>
<text x="109" y="165.21" text-anchor="end" font-family="PingFang SC, Noto Sans CJK SC, Microsoft YaHei, sans-serif" font-size="17" fill="#30332e">58</text>
<line x1="118" y1="99.06" x2="125" y2="99.06" stroke="#343732"/>
<text x="109" y="105.06" text-anchor="end" font-family="PingFang SC, Noto Sans CJK SC, Microsoft YaHei, sans-serif" font-size="17" fill="#30332e">60</text>
<circle cx="160" cy="231.39" r="5.2" fill="#6670ee"/>
<circle cx="160" cy="168.23" r="5.2" fill="#fff" stroke="#30332e" stroke-width="2"/>
<line x1="160" y1="475" x2="160" y2="482" stroke="#343732"/>
<text x="160" y="506" text-anchor="middle" font-family="PingFang SC, Noto Sans CJK SC, Microsoft YaHei, sans-serif" font-size="17" fill="#30332e">1</text>
<circle cx="250" cy="270.49" r="5.2" fill="#6670ee"/>
<circle cx="250" cy="147.18" r="5.2" fill="#fff" stroke="#30332e" stroke-width="2"/>
<line x1="250" y1="475" x2="250" y2="482" stroke="#343732"/>
<text x="250" y="506" text-anchor="middle" font-family="PingFang SC, Noto Sans CJK SC, Microsoft YaHei, sans-serif" font-size="17" fill="#30332e">2</text>
<circle cx="340" cy="381.77" r="5.2" fill="#6670ee"/>
<circle cx="340" cy="219.36" r="5.2" fill="#fff" stroke="#30332e" stroke-width="2"/>
<line x1="340" y1="475" x2="340" y2="482" stroke="#343732"/>
<text x="340" y="506" text-anchor="middle" font-family="PingFang SC, Noto Sans CJK SC, Microsoft YaHei, sans-serif" font-size="17" fill="#30332e">3</text>
<circle cx="430" cy="405.83" r="5.2" fill="#6670ee"/>
<circle cx="430" cy="177.26" r="5.2" fill="#fff" stroke="#30332e" stroke-width="2"/>
<line x1="430" y1="475" x2="430" y2="482" stroke="#343732"/>
<text x="430" y="506" text-anchor="middle" font-family="PingFang SC, Noto Sans CJK SC, Microsoft YaHei, sans-serif" font-size="17" fill="#30332e">4</text>
<circle cx="520" cy="429.89" r="5.2" fill="#6670ee"/>
<circle cx="520" cy="138.16" r="5.2" fill="#fff" stroke="#30332e" stroke-width="2"/>
<line x1="520" y1="475" x2="520" y2="482" stroke="#343732"/>
<text x="520" y="506" text-anchor="middle" font-family="PingFang SC, Noto Sans CJK SC, Microsoft YaHei, sans-serif" font-size="17" fill="#30332e">5</text>
<polyline points="160,231.39 250,279.51 340,384.77 430,405.83 520,429.89" fill="none" stroke="#6670ee" stroke-width="2.2" stroke-dasharray="8 7"/>
<polyline points="160,231.39 250,264.47 340,372.74 430,390.79 520,405.83" fill="none" stroke="#6670ee" stroke-width="2.2"/>
<polyline points="160,228.38 250,249.44 340,333.65 430,345.68 520,360.71" fill="none" stroke="#6670ee" stroke-width="4.2"/>
<polyline points="160,171.24 250,156.2 340,237.41 430,225.38 520,219.36" fill="none" stroke="#30332e" stroke-width="2.2" stroke-dasharray="8 7"/>
<polyline points="160,171.24 250,162.22 340,237.41 430,225.38 520,225.38" fill="none" stroke="#30332e" stroke-width="2.2"/>
<polyline points="160,168.23 250,171.24 340,240.41 430,216.35 520,198.31" fill="none" stroke="#30332e" stroke-width="4.2"/>
<text x="340.0" y="550" text-anchor="middle" font-family="PingFang SC, Noto Sans CJK SC, Microsoft YaHei, sans-serif" font-size="20" font-weight="700" fill="#263f86">参数个数</text>
<text x="57" y="275.0" transform="rotate(-90 57 275.0)" text-anchor="middle" font-family="PingFang SC, Noto Sans CJK SC, Microsoft YaHei, sans-serif" font-size="20" font-weight="700" fill="#263f86">离差</text>
<text x="875.0" y="43" text-anchor="middle" font-family="PingFang SC, Noto Sans CJK SC, Microsoft YaHei, sans-serif" font-size="24" font-weight="700" fill="#263f86">N = 100</text>
<rect x="660" y="75" width="430" height="400" fill="#fff" stroke="#343732" stroke-width="1.5"/>
<line x1="653" y1="460.45" x2="660" y2="460.45" stroke="#343732"/>
<text x="644" y="466.45" text-anchor="end" font-family="PingFang SC, Noto Sans CJK SC, Microsoft YaHei, sans-serif" font-size="17" fill="#30332e">260</text>
<line x1="653" y1="387.73" x2="660" y2="387.73" stroke="#343732"/>
<text x="644" y="393.73" text-anchor="end" font-family="PingFang SC, Noto Sans CJK SC, Microsoft YaHei, sans-serif" font-size="17" fill="#30332e">265</text>
<line x1="653" y1="315" x2="660" y2="315" stroke="#343732"/>
<text x="644" y="321" text-anchor="end" font-family="PingFang SC, Noto Sans CJK SC, Microsoft YaHei, sans-serif" font-size="17" fill="#30332e">270</text>
<line x1="653" y1="242.27" x2="660" y2="242.27" stroke="#343732"/>
<text x="644" y="248.27" text-anchor="end" font-family="PingFang SC, Noto Sans CJK SC, Microsoft YaHei, sans-serif" font-size="17" fill="#30332e">275</text>
<line x1="653" y1="169.55" x2="660" y2="169.55" stroke="#343732"/>
<text x="644" y="175.55" text-anchor="end" font-family="PingFang SC, Noto Sans CJK SC, Microsoft YaHei, sans-serif" font-size="17" fill="#30332e">280</text>
<line x1="653" y1="96.82" x2="660" y2="96.82" stroke="#343732"/>
<text x="644" y="102.82" text-anchor="end" font-family="PingFang SC, Noto Sans CJK SC, Microsoft YaHei, sans-serif" font-size="17" fill="#30332e">285</text>
<circle cx="695" cy="133.18" r="5.2" fill="#6670ee"/>
<circle cx="695" cy="104.09" r="5.2" fill="#fff" stroke="#30332e" stroke-width="2"/>
<line x1="695" y1="475" x2="695" y2="482" stroke="#343732"/>
<text x="695" y="506" text-anchor="middle" font-family="PingFang SC, Noto Sans CJK SC, Microsoft YaHei, sans-serif" font-size="17" fill="#30332e">1</text>
<circle cx="785" cy="176.82" r="5.2" fill="#6670ee"/>
<circle cx="785" cy="127.36" r="5.2" fill="#fff" stroke="#30332e" stroke-width="2"/>
<line x1="785" y1="475" x2="785" y2="482" stroke="#343732"/>
<text x="785" y="506" text-anchor="middle" font-family="PingFang SC, Noto Sans CJK SC, Microsoft YaHei, sans-serif" font-size="17" fill="#30332e">2</text>
<circle cx="875" cy="416.82" r="5.2" fill="#6670ee"/>
<circle cx="875" cy="338.27" r="5.2" fill="#fff" stroke="#30332e" stroke-width="2"/>
<line x1="875" y1="475" x2="875" y2="482" stroke="#343732"/>
<text x="875" y="506" text-anchor="middle" font-family="PingFang SC, Noto Sans CJK SC, Microsoft YaHei, sans-serif" font-size="17" fill="#30332e">3</text>
<circle cx="965" cy="431.36" r="5.2" fill="#6670ee"/>
<circle cx="965" cy="329.55" r="5.2" fill="#fff" stroke="#30332e" stroke-width="2"/>
<line x1="965" y1="475" x2="965" y2="482" stroke="#343732"/>
<text x="965" y="506" text-anchor="middle" font-family="PingFang SC, Noto Sans CJK SC, Microsoft YaHei, sans-serif" font-size="17" fill="#30332e">4</text>
<circle cx="1055" cy="441.55" r="5.2" fill="#6670ee"/>
<circle cx="1055" cy="320.82" r="5.2" fill="#fff" stroke="#30332e" stroke-width="2"/>
<line x1="1055" y1="475" x2="1055" y2="482" stroke="#343732"/>
<text x="1055" y="506" text-anchor="middle" font-family="PingFang SC, Noto Sans CJK SC, Microsoft YaHei, sans-serif" font-size="17" fill="#30332e">5</text>
<polyline points="695,133.18 785,175.36 875,416.82 965,431.36 1055,441.55" fill="none" stroke="#6670ee" stroke-width="2.2" stroke-dasharray="8 7"/>
<polyline points="695,133.18 785,173.91 875,409.55 965,418.27 1055,431.36" fill="none" stroke="#6670ee" stroke-width="2.2"/>
<polyline points="695,133.18 785,172.45 875,402.27 965,412.45 1055,419.73" fill="none" stroke="#6670ee" stroke-width="4.2"/>
<polyline points="695,104.09 785,128.82 875,338.27 965,329.55 1055,319.36" fill="none" stroke="#30332e" stroke-width="2.2" stroke-dasharray="8 7"/>
<polyline points="695,104.09 785,128.82 875,339.73 965,332.45 1055,323.73" fill="none" stroke="#30332e" stroke-width="2.2"/>
<polyline points="695,104.09 785,130.27 875,341.18 965,333.91 1055,326.64" fill="none" stroke="#30332e" stroke-width="4.2"/>
<text x="875.0" y="550" text-anchor="middle" font-family="PingFang SC, Noto Sans CJK SC, Microsoft YaHei, sans-serif" font-size="20" font-weight="700" fill="#263f86">参数个数</text>
<text x="592" y="275.0" transform="rotate(-90 592 275.0)" text-anchor="middle" font-family="PingFang SC, Noto Sans CJK SC, Microsoft YaHei, sans-serif" font-size="20" font-weight="700" fill="#263f86">离差</text>
<line x1="370" y1="598" x2="426" y2="598" stroke="#30332e" stroke-width="2.2" stroke-dasharray="8 7"/>
<text x="438" y="604" font-family="PingFang SC, Noto Sans CJK SC, Microsoft YaHei, sans-serif" font-size="18" fill="#30332e">Normal(0, 1)</text>
<line x1="590" y1="598" x2="646" y2="598" stroke="#30332e" stroke-width="2.2"/>
<text x="658" y="604" font-family="PingFang SC, Noto Sans CJK SC, Microsoft YaHei, sans-serif" font-size="18" fill="#30332e">Normal(0, 0.5)</text>
<line x1="835" y1="598" x2="891" y2="598" stroke="#30332e" stroke-width="4.2"/>
<text x="903" y="604" font-family="PingFang SC, Noto Sans CJK SC, Microsoft YaHei, sans-serif" font-size="18" fill="#30332e">Normal(0, 0.2)</text>
</svg>
