<?xml version="1.0" encoding="UTF-8"?>
<svg xmlns="http://www.w3.org/2000/svg" width="1200" height="650" viewBox="0 0 1200 650" role="img">
  <title>结婚年龄干预的反事实效应</title>
  <desc>左图显示操纵结婚年龄对离婚率的总因果效应，右图显示操纵结婚年龄对结婚率的效应。</desc>
  <rect width="100%" height="100%" fill="#fff"/>
  <text x="320.0" y="68" text-anchor="middle" font-family="PingFang SC, Noto Sans CJK SC, Microsoft YaHei, sans-serif" font-size="21" font-weight="700" fill="#263f86">A 对 D 的总反事实效应</text>
  <rect x="105" y="90" width="430" height="420" fill="#fff" stroke="#343732" stroke-width="1.5"/>
  <polygon points="105,159.4 108.58,161.36 112.17,163.32 115.75,165.28 119.33,167.23 122.92,169.19 126.5,171.15 130.08,173.11 133.67,175.07 137.25,177.03 140.83,178.98 144.42,180.94 148,182.9 151.58,184.86 155.17,186.82 158.75,188.78 162.33,190.73 165.92,192.69 169.5,194.65 173.08,196.61 176.67,198.57 180.25,200.53 183.83,202.48 187.42,204.44 191,206.4 194.58,208.36 198.17,210.32 201.75,212.28 205.33,214.23 208.92,216.19 212.5,218.15 216.08,220.11 219.67,222.07 223.25,224.03 226.83,225.98 230.42,227.94 234,229.9 237.58,231.86 241.17,233.82 244.75,235.78 248.33,237.73 251.92,239.69 255.5,241.65 259.08,243.61 262.67,245.57 266.25,247.53 269.83,249.48 273.42,251.44 277,253.4 280.58,255.36 284.17,257.32 287.75,259.28 291.33,261.23 294.92,263.19 298.5,265.15 302.08,267.11 305.67,269.07 309.25,271.03 312.83,272.98 316.42,274.94 320,276.9 323.58,278.86 327.17,280.82 330.75,282.77 334.33,284.73 337.92,286.69 341.5,288.65 345.08,290.61 348.67,292.57 352.25,294.52 355.83,296.48 359.42,298.44 363,300.4 366.58,302.36 370.17,304.32 373.75,306.27 377.33,308.23 380.92,310.19 384.5,312.15 388.08,314.11 391.67,316.07 395.25,318.02 398.83,319.98 402.42,321.94 406,323.9 409.58,325.86 413.17,327.82 416.75,329.77 420.33,331.73 423.92,333.69 427.5,335.65 431.08,337.61 434.67,339.57 438.25,341.52 441.83,343.48 445.42,345.44 449,347.4 452.58,349.36 456.17,351.32 459.75,353.27 463.33,355.23 466.92,357.19 470.5,359.15 474.08,361.11 477.67,363.07 481.25,365.02 484.83,366.98 488.42,368.94 492,370.9 495.58,372.86 499.17,374.82 502.75,376.77 506.33,378.73 509.92,380.69 513.5,382.65 517.08,384.61 520.67,386.57 524.25,388.52 527.83,390.48 531.42,392.44 535,394.4 535,440.6 531.42,438.64 527.83,436.68 524.25,434.72 520.67,432.77 517.08,430.81 513.5,428.85 509.92,426.89 506.33,424.93 502.75,422.97 499.17,421.02 495.58,419.06 492,417.1 488.42,415.14 484.83,413.18 481.25,411.22 477.67,409.27 474.08,407.31 470.5,405.35 466.92,403.39 463.33,401.43 459.75,399.47 456.17,397.52 452.58,395.56 449,393.6 445.42,391.64 441.83,389.68 438.25,387.72 434.67,385.77 431.08,383.81 427.5,381.85 423.92,379.89 420.33,377.93 416.75,375.97 413.17,374.02 409.58,372.06 406,370.1 402.42,368.14 398.83,366.18 395.25,364.22 391.67,362.27 388.08,360.31 384.5,358.35 380.92,356.39 377.33,354.43 373.75,352.47 370.17,350.52 366.58,348.56 363,346.6 359.42,344.64 355.83,342.68 352.25,340.72 348.67,338.77 345.08,336.81 341.5,334.85 337.92,332.89 334.33,330.93 330.75,328.97 327.17,327.02 323.58,325.06 320,323.1 316.42,321.14 312.83,319.18 309.25,317.23 305.67,315.27 302.08,313.31 298.5,311.35 294.92,309.39 291.33,307.43 287.75,305.48 284.17,303.52 280.58,301.56 277,299.6 273.42,297.64 269.83,295.68 266.25,293.73 262.67,291.77 259.08,289.81 255.5,287.85 251.92,285.89 248.33,283.93 244.75,281.98 241.17,280.02 237.58,278.06 234,276.1 230.42,274.14 226.83,272.18 223.25,270.23 219.67,268.27 216.08,266.31 212.5,264.35 208.92,262.39 205.33,260.43 201.75,258.48 198.17,256.52 194.58,254.56 191,252.6 187.42,250.64 183.83,248.68 180.25,246.73 176.67,244.77 173.08,242.81 169.5,240.85 165.92,238.89 162.33,236.93 158.75,234.98 155.17,233.02 151.58,231.06 148,229.1 144.42,227.14 140.83,225.18 137.25,223.23 133.67,221.27 130.08,219.31 126.5,217.35 122.92,215.39 119.33,213.43 115.75,211.48 112.17,209.52 108.58,207.56 105,205.6" fill="#cfd2d5" opacity="0.82"/>
  <line x1="105" y1="182.5" x2="535" y2="417.5" stroke="#242724" stroke-width="3"/>
  <text x="105" y="539" text-anchor="middle" font-family="PingFang SC, Noto Sans CJK SC, Microsoft YaHei, sans-serif" font-size="15" fill="#30332e">-2</text>
  <text x="92" y="515" text-anchor="end" font-family="PingFang SC, Noto Sans CJK SC, Microsoft YaHei, sans-serif" font-size="15" fill="#30332e">-2</text>
  <text x="212.5" y="539" text-anchor="middle" font-family="PingFang SC, Noto Sans CJK SC, Microsoft YaHei, sans-serif" font-size="15" fill="#30332e">-1</text>
  <text x="92" y="410" text-anchor="end" font-family="PingFang SC, Noto Sans CJK SC, Microsoft YaHei, sans-serif" font-size="15" fill="#30332e">-1</text>
  <text x="320" y="539" text-anchor="middle" font-family="PingFang SC, Noto Sans CJK SC, Microsoft YaHei, sans-serif" font-size="15" fill="#30332e">0</text>
  <text x="92" y="305" text-anchor="end" font-family="PingFang SC, Noto Sans CJK SC, Microsoft YaHei, sans-serif" font-size="15" fill="#30332e">0</text>
  <text x="427.5" y="539" text-anchor="middle" font-family="PingFang SC, Noto Sans CJK SC, Microsoft YaHei, sans-serif" font-size="15" fill="#30332e">1</text>
  <text x="92" y="200" text-anchor="end" font-family="PingFang SC, Noto Sans CJK SC, Microsoft YaHei, sans-serif" font-size="15" fill="#30332e">1</text>
  <text x="535" y="539" text-anchor="middle" font-family="PingFang SC, Noto Sans CJK SC, Microsoft YaHei, sans-serif" font-size="15" fill="#30332e">2</text>
  <text x="92" y="95" text-anchor="end" font-family="PingFang SC, Noto Sans CJK SC, Microsoft YaHei, sans-serif" font-size="15" fill="#30332e">2</text>
  <text x="320.0" y="575" text-anchor="middle" font-family="PingFang SC, Noto Sans CJK SC, Microsoft YaHei, sans-serif" font-size="19" font-weight="700" fill="#263f86">操纵后的 A</text>
  <text x="47" y="300.0" transform="rotate(-90 47 300.0)" text-anchor="middle" font-family="PingFang SC, Noto Sans CJK SC, Microsoft YaHei, sans-serif" font-size="19" font-weight="700" fill="#263f86">反事实 D</text>
  <text x="905.0" y="68" text-anchor="middle" font-family="PingFang SC, Noto Sans CJK SC, Microsoft YaHei, sans-serif" font-size="21" font-weight="700" fill="#263f86">反事实效应 A → M</text>
  <rect x="690" y="90" width="430" height="420" fill="#fff" stroke="#343732" stroke-width="1.5"/>
  <polygon points="690,127.57 693.58,130.09 697.17,132.62 700.75,135.14 704.33,137.67 707.92,140.19 711.5,142.71 715.08,145.24 718.67,147.76 722.25,150.28 725.83,152.81 729.42,155.33 733,157.86 736.58,160.38 740.17,162.9 743.75,165.43 747.33,167.95 750.92,170.48 754.5,173 758.08,175.52 761.67,178.05 765.25,180.57 768.83,183.09 772.42,185.62 776,188.14 779.58,190.67 783.17,193.19 786.75,195.71 790.33,198.24 793.92,200.76 797.5,203.28 801.08,205.81 804.67,208.33 808.25,210.86 811.83,213.38 815.42,215.9 819,218.43 822.58,220.95 826.17,223.48 829.75,226 833.33,228.52 836.92,231.05 840.5,233.57 844.08,236.09 847.67,238.62 851.25,241.14 854.83,243.67 858.42,246.19 862,248.71 865.58,251.24 869.17,253.76 872.75,256.29 876.33,258.81 879.92,261.33 883.5,263.86 887.08,266.38 890.67,268.9 894.25,271.43 897.83,273.95 901.42,276.48 905,279 908.58,281.52 912.17,284.05 915.75,286.57 919.33,289.1 922.92,291.62 926.5,294.14 930.08,296.67 933.67,299.19 937.25,301.71 940.83,304.24 944.42,306.76 948,309.29 951.58,311.81 955.17,314.33 958.75,316.86 962.33,319.38 965.92,321.91 969.5,324.43 973.08,326.95 976.67,329.48 980.25,332 983.83,334.52 987.42,337.05 991,339.57 994.58,342.1 998.17,344.62 1001.75,347.14 1005.33,349.67 1008.92,352.19 1012.5,354.72 1016.08,357.24 1019.67,359.76 1023.25,362.29 1026.83,364.81 1030.42,367.33 1034,369.86 1037.58,372.38 1041.17,374.91 1044.75,377.43 1048.33,379.95 1051.92,382.48 1055.5,385 1059.08,387.52 1062.67,390.05 1066.25,392.57 1069.83,395.1 1073.42,397.62 1077,400.14 1080.58,402.67 1084.17,405.19 1087.75,407.72 1091.33,410.24 1094.92,412.76 1098.5,415.29 1102.08,417.81 1105.67,420.33 1109.25,422.86 1112.83,425.38 1116.42,427.91 1120,430.43 1120,472.43 1116.42,469.91 1112.83,467.38 1109.25,464.86 1105.67,462.33 1102.08,459.81 1098.5,457.29 1094.92,454.76 1091.33,452.24 1087.75,449.72 1084.17,447.19 1080.58,444.67 1077,442.14 1073.42,439.62 1069.83,437.1 1066.25,434.57 1062.67,432.05 1059.08,429.52 1055.5,427 1051.92,424.48 1048.33,421.95 1044.75,419.43 1041.17,416.91 1037.58,414.38 1034,411.86 1030.42,409.33 1026.83,406.81 1023.25,404.29 1019.67,401.76 1016.08,399.24 1012.5,396.72 1008.92,394.19 1005.33,391.67 1001.75,389.14 998.17,386.62 994.58,384.1 991,381.57 987.42,379.05 983.83,376.52 980.25,374 976.67,371.48 973.08,368.95 969.5,366.43 965.92,363.91 962.33,361.38 958.75,358.86 955.17,356.33 951.58,353.81 948,351.29 944.42,348.76 940.83,346.24 937.25,343.71 933.67,341.19 930.08,338.67 926.5,336.14 922.92,333.62 919.33,331.1 915.75,328.57 912.17,326.05 908.58,323.52 905,321 901.42,318.48 897.83,315.95 894.25,313.43 890.67,310.9 887.08,308.38 883.5,305.86 879.92,303.33 876.33,300.81 872.75,298.29 869.17,295.76 865.58,293.24 862,290.71 858.42,288.19 854.83,285.67 851.25,283.14 847.67,280.62 844.08,278.09 840.5,275.57 836.92,273.05 833.33,270.52 829.75,268 826.17,265.48 822.58,262.95 819,260.43 815.42,257.9 811.83,255.38 808.25,252.86 804.67,250.33 801.08,247.81 797.5,245.28 793.92,242.76 790.33,240.24 786.75,237.71 783.17,235.19 779.58,232.67 776,230.14 772.42,227.62 768.83,225.09 765.25,222.57 761.67,220.05 758.08,217.52 754.5,215 750.92,212.48 747.33,209.95 743.75,207.43 740.17,204.9 736.58,202.38 733,199.86 729.42,197.33 725.83,194.81 722.25,192.28 718.67,189.76 715.08,187.24 711.5,184.71 707.92,182.19 704.33,179.67 700.75,177.14 697.17,174.62 693.58,172.09 690,169.57" fill="#cfd2d5" opacity="0.82"/>
  <line x1="690" y1="148.57" x2="1120" y2="451.43" stroke="#242724" stroke-width="3"/>
  <text x="690" y="539" text-anchor="middle" font-family="PingFang SC, Noto Sans CJK SC, Microsoft YaHei, sans-serif" font-size="15" fill="#30332e">-2</text>
  <text x="677" y="515" text-anchor="end" font-family="PingFang SC, Noto Sans CJK SC, Microsoft YaHei, sans-serif" font-size="15" fill="#30332e">-2</text>
  <text x="797.5" y="539" text-anchor="middle" font-family="PingFang SC, Noto Sans CJK SC, Microsoft YaHei, sans-serif" font-size="15" fill="#30332e">-1</text>
  <text x="677" y="410" text-anchor="end" font-family="PingFang SC, Noto Sans CJK SC, Microsoft YaHei, sans-serif" font-size="15" fill="#30332e">-1</text>
  <text x="905" y="539" text-anchor="middle" font-family="PingFang SC, Noto Sans CJK SC, Microsoft YaHei, sans-serif" font-size="15" fill="#30332e">0</text>
  <text x="677" y="305" text-anchor="end" font-family="PingFang SC, Noto Sans CJK SC, Microsoft YaHei, sans-serif" font-size="15" fill="#30332e">0</text>
  <text x="1012.5" y="539" text-anchor="middle" font-family="PingFang SC, Noto Sans CJK SC, Microsoft YaHei, sans-serif" font-size="15" fill="#30332e">1</text>
  <text x="677" y="200" text-anchor="end" font-family="PingFang SC, Noto Sans CJK SC, Microsoft YaHei, sans-serif" font-size="15" fill="#30332e">1</text>
  <text x="1120" y="539" text-anchor="middle" font-family="PingFang SC, Noto Sans CJK SC, Microsoft YaHei, sans-serif" font-size="15" fill="#30332e">2</text>
  <text x="677" y="95" text-anchor="end" font-family="PingFang SC, Noto Sans CJK SC, Microsoft YaHei, sans-serif" font-size="15" fill="#30332e">2</text>
  <text x="905.0" y="575" text-anchor="middle" font-family="PingFang SC, Noto Sans CJK SC, Microsoft YaHei, sans-serif" font-size="19" font-weight="700" fill="#263f86">操纵后的 A</text>
  <text x="632" y="300.0" transform="rotate(-90 632 300.0)" text-anchor="middle" font-family="PingFang SC, Noto Sans CJK SC, Microsoft YaHei, sans-serif" font-size="19" font-weight="700" fill="#263f86">反事实 M</text>
</svg>
