<?xml version="1.0" encoding="UTF-8"?>
<svg xmlns="http://www.w3.org/2000/svg" width="900" height="560" viewBox="0 0 900 560" role="img">
<title>强弱不同的三个正则化高斯先验</title>
<desc>均值都为零，标准差分别为一、零点五和零点二。先验越强，密度越集中在零附近。</desc>
<rect width="100%" height="100%" fill="#fff"/>
<rect x="125" y="65" width="690" height="390" fill="#fff" stroke="#343732" stroke-width="1.5"/>
<polyline points="130.31,454.57 132.43,454.54 134.55,454.51 136.68,454.48 138.8,454.44 140.92,454.41 143.05,454.37 145.17,454.33 147.29,454.29 149.42,454.24 151.54,454.2 153.66,454.15 155.78,454.09 157.91,454.04 160.03,453.98 162.15,453.92 164.28,453.86 166.4,453.79 168.52,453.72 170.65,453.64 172.77,453.56 174.89,453.48 177.02,453.4 179.14,453.3 181.26,453.21 183.38,453.11 185.51,453.01 187.63,452.9 189.75,452.78 191.88,452.66 194,452.54 196.12,452.41 198.25,452.27 200.37,452.13 202.49,451.98 204.62,451.82 206.74,451.66 208.86,451.49 210.98,451.31 213.11,451.13 215.23,450.94 217.35,450.74 219.48,450.53 221.6,450.32 223.72,450.09 225.85,449.86 227.97,449.62 230.09,449.37 232.22,449.11 234.34,448.84 236.46,448.57 238.58,448.28 240.71,447.98 242.83,447.67 244.95,447.35 247.08,447.02 249.2,446.68 251.32,446.33 253.45,445.97 255.57,445.59 257.69,445.21 259.82,444.81 261.94,444.4 264.06,443.98 266.18,443.54 268.31,443.1 270.43,442.64 272.55,442.17 274.68,441.68 276.8,441.19 278.92,440.68 281.05,440.16 283.17,439.62 285.29,439.07 287.42,438.51 289.54,437.94 291.66,437.35 293.78,436.75 295.91,436.14 298.03,435.52 300.15,434.88 302.28,434.23 304.4,433.57 306.52,432.89 308.65,432.21 310.77,431.51 312.89,430.8 315.02,430.07 317.14,429.34 319.26,428.6 321.38,427.84 323.51,427.07 325.63,426.3 327.75,425.51 329.88,424.72 332,423.91 334.12,423.1 336.25,422.28 338.37,421.45 340.49,420.62 342.62,419.78 344.74,418.93 346.86,418.07 348.98,417.21 351.11,416.35 353.23,415.48 355.35,414.61 357.48,413.74 359.6,412.86 361.72,411.99 363.85,411.11 365.97,410.23 368.09,409.35 370.22,408.48 372.34,407.6 374.46,406.73 376.58,405.87 378.71,405 380.83,404.15 382.95,403.3 385.08,402.45 387.2,401.61 389.32,400.79 391.45,399.97 393.57,399.16 395.69,398.36 397.82,397.57 399.94,396.8 402.06,396.04 404.18,395.29 406.31,394.55 408.43,393.84 410.55,393.14 412.68,392.45 414.8,391.79 416.92,391.14 419.05,390.51 421.17,389.9 423.29,389.31 425.42,388.74 427.54,388.2 429.66,387.67 431.78,387.17 433.91,386.7 436.03,386.25 438.15,385.82 440.28,385.42 442.4,385.04 444.52,384.69 446.65,384.36 448.77,384.07 450.89,383.8 453.02,383.55 455.14,383.34 457.26,383.15 459.38,382.99 461.51,382.86 463.63,382.76 465.75,382.69 467.88,382.65 470,382.63 472.12,382.65 474.25,382.69 476.37,382.76 478.49,382.86 480.62,382.99 482.74,383.15 484.86,383.34 486.98,383.55 489.11,383.8 491.23,384.07 493.35,384.36 495.48,384.69 497.6,385.04 499.72,385.42 501.85,385.82 503.97,386.25 506.09,386.7 508.22,387.17 510.34,387.67 512.46,388.2 514.58,388.74 516.71,389.31 518.83,389.9 520.95,390.51 523.08,391.14 525.2,391.79 527.32,392.45 529.45,393.14 531.57,393.84 533.69,394.55 535.82,395.29 537.94,396.04 540.06,396.8 542.18,397.57 544.31,398.36 546.43,399.16 548.55,399.97 550.68,400.79 552.8,401.61 554.92,402.45 557.05,403.3 559.17,404.15 561.29,405 563.42,405.87 565.54,406.73 567.66,407.6 569.78,408.48 571.91,409.35 574.03,410.23 576.15,411.11 578.28,411.99 580.4,412.86 582.52,413.74 584.65,414.61 586.77,415.48 588.89,416.35 591.02,417.21 593.14,418.07 595.26,418.93 597.38,419.78 599.51,420.62 601.63,421.45 603.75,422.28 605.88,423.1 608,423.91 610.12,424.72 612.25,425.51 614.37,426.3 616.49,427.07 618.62,427.84 620.74,428.6 622.86,429.34 624.98,430.07 627.11,430.8 629.23,431.51 631.35,432.21 633.48,432.89 635.6,433.57 637.72,434.23 639.85,434.88 641.97,435.52 644.09,436.14 646.22,436.75 648.34,437.35 650.46,437.94 652.58,438.51 654.71,439.07 656.83,439.62 658.95,440.16 661.08,440.68 663.2,441.19 665.32,441.68 667.45,442.17 669.57,442.64 671.69,443.1 673.82,443.54 675.94,443.98 678.06,444.4 680.18,444.81 682.31,445.21 684.43,445.59 686.55,445.97 688.68,446.33 690.8,446.68 692.92,447.02 695.05,447.35 697.17,447.67 699.29,447.98 701.42,448.28 703.54,448.57 705.66,448.84 707.78,449.11 709.91,449.37 712.03,449.62 714.15,449.86 716.28,450.09 718.4,450.32 720.52,450.53 722.65,450.74 724.77,450.94 726.89,451.13 729.02,451.31 731.14,451.49 733.26,451.66 735.38,451.82 737.51,451.98 739.63,452.13 741.75,452.27 743.88,452.41 746,452.54 748.12,452.66 750.25,452.78 752.37,452.9 754.49,453.01 756.62,453.11 758.74,453.21 760.86,453.3 762.98,453.4 765.11,453.48 767.23,453.56 769.35,453.64 771.48,453.72 773.6,453.79 775.72,453.86 777.85,453.92 779.97,453.98 782.09,454.04 784.22,454.09 786.34,454.15 788.46,454.2 790.58,454.24 792.71,454.29 794.83,454.33 796.95,454.37 799.08,454.41 801.2,454.44 803.32,454.48 805.45,454.51 807.57,454.54 809.69,454.57" fill="none" stroke="#30332e" stroke-width="2.2" stroke-dasharray="7 7"/>
<polyline points="130.31,455 132.43,455 134.55,455 136.68,455 138.8,455 140.92,455 143.05,455 145.17,455 147.29,455 149.42,455 151.54,455 153.66,455 155.78,455 157.91,455 160.03,455 162.15,455 164.28,455 166.4,455 168.52,455 170.65,455 172.77,455 174.89,455 177.02,455 179.14,455 181.26,455 183.38,455 185.51,455 187.63,455 189.75,455 191.88,455 194,455 196.12,455 198.25,455 200.37,455 202.49,455 204.62,455 206.74,455 208.86,455 210.98,455 213.11,455 215.23,455 217.35,455 219.48,455 221.6,455 223.72,455 225.85,455 227.97,455 230.09,454.99 232.22,454.99 234.34,454.99 236.46,454.99 238.58,454.99 240.71,454.99 242.83,454.98 244.95,454.98 247.08,454.98 249.2,454.97 251.32,454.97 253.45,454.96 255.57,454.96 257.69,454.95 259.82,454.94 261.94,454.93 264.06,454.92 266.18,454.91 268.31,454.89 270.43,454.88 272.55,454.86 274.68,454.83 276.8,454.81 278.92,454.78 281.05,454.74 283.17,454.7 285.29,454.66 287.42,454.61 289.54,454.55 291.66,454.49 293.78,454.42 295.91,454.33 298.03,454.24 300.15,454.14 302.28,454.02 304.4,453.89 306.52,453.74 308.65,453.58 310.77,453.39 312.89,453.19 315.02,452.96 317.14,452.71 319.26,452.43 321.38,452.13 323.51,451.79 325.63,451.42 327.75,451.01 329.88,450.56 332,450.07 334.12,449.54 336.25,448.95 338.37,448.32 340.49,447.63 342.62,446.88 344.74,446.06 346.86,445.19 348.98,444.24 351.11,443.22 353.23,442.13 355.35,440.96 357.48,439.7 359.6,438.36 361.72,436.93 363.85,435.41 365.97,433.8 368.09,432.09 370.22,430.28 372.34,428.37 374.46,426.36 376.58,424.24 378.71,422.03 380.83,419.71 382.95,417.28 385.08,414.76 387.2,412.13 389.32,409.41 391.45,406.59 393.57,403.68 395.69,400.68 397.82,397.6 399.94,394.44 402.06,391.2 404.18,387.91 406.31,384.55 408.43,381.15 410.55,377.7 412.68,374.22 414.8,370.72 416.92,367.22 419.05,363.71 421.17,360.21 423.29,356.73 425.42,353.29 427.54,349.9 429.66,346.57 431.78,343.31 433.91,340.14 436.03,337.07 438.15,334.11 440.28,331.27 442.4,328.57 444.52,326.02 446.65,323.62 448.77,321.4 450.89,319.35 453.02,317.49 455.14,315.83 457.26,314.38 459.38,313.13 461.51,312.11 463.63,311.31 465.75,310.73 467.88,310.38 470,310.27 472.12,310.38 474.25,310.73 476.37,311.31 478.49,312.11 480.62,313.13 482.74,314.38 484.86,315.83 486.98,317.49 489.11,319.35 491.23,321.4 493.35,323.62 495.48,326.02 497.6,328.57 499.72,331.27 501.85,334.11 503.97,337.07 506.09,340.14 508.22,343.31 510.34,346.57 512.46,349.9 514.58,353.29 516.71,356.73 518.83,360.21 520.95,363.71 523.08,367.22 525.2,370.72 527.32,374.22 529.45,377.7 531.57,381.15 533.69,384.55 535.82,387.91 537.94,391.2 540.06,394.44 542.18,397.6 544.31,400.68 546.43,403.68 548.55,406.59 550.68,409.41 552.8,412.13 554.92,414.76 557.05,417.28 559.17,419.71 561.29,422.03 563.42,424.24 565.54,426.36 567.66,428.37 569.78,430.28 571.91,432.09 574.03,433.8 576.15,435.41 578.28,436.93 580.4,438.36 582.52,439.7 584.65,440.96 586.77,442.13 588.89,443.22 591.02,444.24 593.14,445.19 595.26,446.06 597.38,446.88 599.51,447.63 601.63,448.32 603.75,448.95 605.88,449.54 608,450.07 610.12,450.56 612.25,451.01 614.37,451.42 616.49,451.79 618.62,452.13 620.74,452.43 622.86,452.71 624.98,452.96 627.11,453.19 629.23,453.39 631.35,453.58 633.48,453.74 635.6,453.89 637.72,454.02 639.85,454.14 641.97,454.24 644.09,454.33 646.22,454.42 648.34,454.49 650.46,454.55 652.58,454.61 654.71,454.66 656.83,454.7 658.95,454.74 661.08,454.78 663.2,454.81 665.32,454.83 667.45,454.86 669.57,454.88 671.69,454.89 673.82,454.91 675.94,454.92 678.06,454.93 680.18,454.94 682.31,454.95 684.43,454.96 686.55,454.96 688.68,454.97 690.8,454.97 692.92,454.98 695.05,454.98 697.17,454.98 699.29,454.99 701.42,454.99 703.54,454.99 705.66,454.99 707.78,454.99 709.91,454.99 712.03,455 714.15,455 716.28,455 718.4,455 720.52,455 722.65,455 724.77,455 726.89,455 729.02,455 731.14,455 733.26,455 735.38,455 737.51,455 739.63,455 741.75,455 743.88,455 746,455 748.12,455 750.25,455 752.37,455 754.49,455 756.62,455 758.74,455 760.86,455 762.98,455 765.11,455 767.23,455 769.35,455 771.48,455 773.6,455 775.72,455 777.85,455 779.97,455 782.09,455 784.22,455 786.34,455 788.46,455 790.58,455 792.71,455 794.83,455 796.95,455 799.08,455 801.2,455 803.32,455 805.45,455 807.57,455 809.69,455" fill="none" stroke="#30332e" stroke-width="2.2"/>
<polyline points="130.31,455 132.43,455 134.55,455 136.68,455 138.8,455 140.92,455 143.05,455 145.17,455 147.29,455 149.42,455 151.54,455 153.66,455 155.78,455 157.91,455 160.03,455 162.15,455 164.28,455 166.4,455 168.52,455 170.65,455 172.77,455 174.89,455 177.02,455 179.14,455 181.26,455 183.38,455 185.51,455 187.63,455 189.75,455 191.88,455 194,455 196.12,455 198.25,455 200.37,455 202.49,455 204.62,455 206.74,455 208.86,455 210.98,455 213.11,455 215.23,455 217.35,455 219.48,455 221.6,455 223.72,455 225.85,455 227.97,455 230.09,455 232.22,455 234.34,455 236.46,455 238.58,455 240.71,455 242.83,455 244.95,455 247.08,455 249.2,455 251.32,455 253.45,455 255.57,455 257.69,455 259.82,455 261.94,455 264.06,455 266.18,455 268.31,455 270.43,455 272.55,455 274.68,455 276.8,455 278.92,455 281.05,455 283.17,455 285.29,455 287.42,455 289.54,455 291.66,455 293.78,455 295.91,455 298.03,455 300.15,455 302.28,455 304.4,455 306.52,455 308.65,455 310.77,455 312.89,455 315.02,455 317.14,455 319.26,455 321.38,455 323.51,455 325.63,455 327.75,455 329.88,455 332,455 334.12,455 336.25,455 338.37,455 340.49,455 342.62,455 344.74,455 346.86,455 348.98,455 351.11,455 353.23,455 355.35,455 357.48,455 359.6,455 361.72,455 363.85,455 365.97,455 368.09,455 370.22,454.99 372.34,454.99 374.46,454.99 376.58,454.98 378.71,454.97 380.83,454.95 382.95,454.92 385.08,454.88 387.2,454.82 389.32,454.74 391.45,454.61 393.57,454.45 395.69,454.21 397.82,453.88 399.94,453.44 402.06,452.84 404.18,452.04 406.31,450.98 408.43,449.6 410.55,447.82 412.68,445.55 414.8,442.68 416.92,439.1 419.05,434.69 421.17,429.31 423.29,422.83 425.42,415.11 427.54,406.03 429.66,395.49 431.78,383.39 433.91,369.7 436.03,354.4 438.15,337.53 440.28,319.2 442.4,299.57 444.52,278.88 446.65,257.41 448.77,235.54 450.89,213.67 453.02,192.26 455.14,171.79 457.26,152.77 459.38,135.68 461.51,120.99 463.63,109.09 465.75,100.33 467.88,94.97 470,93.17 472.12,94.97 474.25,100.33 476.37,109.09 478.49,120.99 480.62,135.68 482.74,152.77 484.86,171.79 486.98,192.26 489.11,213.67 491.23,235.54 493.35,257.41 495.48,278.88 497.6,299.57 499.72,319.2 501.85,337.53 503.97,354.4 506.09,369.7 508.22,383.39 510.34,395.49 512.46,406.03 514.58,415.11 516.71,422.83 518.83,429.31 520.95,434.69 523.08,439.1 525.2,442.68 527.32,445.55 529.45,447.82 531.57,449.6 533.69,450.98 535.82,452.04 537.94,452.84 540.06,453.44 542.18,453.88 544.31,454.21 546.43,454.45 548.55,454.61 550.68,454.74 552.8,454.82 554.92,454.88 557.05,454.92 559.17,454.95 561.29,454.97 563.42,454.98 565.54,454.99 567.66,454.99 569.78,454.99 571.91,455 574.03,455 576.15,455 578.28,455 580.4,455 582.52,455 584.65,455 586.77,455 588.89,455 591.02,455 593.14,455 595.26,455 597.38,455 599.51,455 601.63,455 603.75,455 605.88,455 608,455 610.12,455 612.25,455 614.37,455 616.49,455 618.62,455 620.74,455 622.86,455 624.98,455 627.11,455 629.23,455 631.35,455 633.48,455 635.6,455 637.72,455 639.85,455 641.97,455 644.09,455 646.22,455 648.34,455 650.46,455 652.58,455 654.71,455 656.83,455 658.95,455 661.08,455 663.2,455 665.32,455 667.45,455 669.57,455 671.69,455 673.82,455 675.94,455 678.06,455 680.18,455 682.31,455 684.43,455 686.55,455 688.68,455 690.8,455 692.92,455 695.05,455 697.17,455 699.29,455 701.42,455 703.54,455 705.66,455 707.78,455 709.91,455 712.03,455 714.15,455 716.28,455 718.4,455 720.52,455 722.65,455 724.77,455 726.89,455 729.02,455 731.14,455 733.26,455 735.38,455 737.51,455 739.63,455 741.75,455 743.88,455 746,455 748.12,455 750.25,455 752.37,455 754.49,455 756.62,455 758.74,455 760.86,455 762.98,455 765.11,455 767.23,455 769.35,455 771.48,455 773.6,455 775.72,455 777.85,455 779.97,455 782.09,455 784.22,455 786.34,455 788.46,455 790.58,455 792.71,455 794.83,455 796.95,455 799.08,455 801.2,455 803.32,455 805.45,455 807.57,455 809.69,455" fill="none" stroke="#30332e" stroke-width="4.5"/>
<line x1="151.54" y1="455" x2="151.54" y2="462" stroke="#343732"/>
<text x="151.54" y="486" text-anchor="middle" font-family="PingFang SC, Noto Sans CJK SC, Microsoft YaHei, sans-serif" font-size="17" fill="#30332e">-3</text>
<line x1="257.69" y1="455" x2="257.69" y2="462" stroke="#343732"/>
<text x="257.69" y="486" text-anchor="middle" font-family="PingFang SC, Noto Sans CJK SC, Microsoft YaHei, sans-serif" font-size="17" fill="#30332e">-2</text>
<line x1="363.85" y1="455" x2="363.85" y2="462" stroke="#343732"/>
<text x="363.85" y="486" text-anchor="middle" font-family="PingFang SC, Noto Sans CJK SC, Microsoft YaHei, sans-serif" font-size="17" fill="#30332e">-1</text>
<line x1="470" y1="455" x2="470" y2="462" stroke="#343732"/>
<text x="470" y="486" text-anchor="middle" font-family="PingFang SC, Noto Sans CJK SC, Microsoft YaHei, sans-serif" font-size="17" fill="#30332e">0</text>
<line x1="576.15" y1="455" x2="576.15" y2="462" stroke="#343732"/>
<text x="576.15" y="486" text-anchor="middle" font-family="PingFang SC, Noto Sans CJK SC, Microsoft YaHei, sans-serif" font-size="17" fill="#30332e">1</text>
<line x1="682.31" y1="455" x2="682.31" y2="462" stroke="#343732"/>
<text x="682.31" y="486" text-anchor="middle" font-family="PingFang SC, Noto Sans CJK SC, Microsoft YaHei, sans-serif" font-size="17" fill="#30332e">2</text>
<line x1="788.46" y1="455" x2="788.46" y2="462" stroke="#343732"/>
<text x="788.46" y="486" text-anchor="middle" font-family="PingFang SC, Noto Sans CJK SC, Microsoft YaHei, sans-serif" font-size="17" fill="#30332e">3</text>
<line x1="118" y1="455" x2="125" y2="455" stroke="#343732"/>
<text x="109" y="461" text-anchor="end" font-family="PingFang SC, Noto Sans CJK SC, Microsoft YaHei, sans-serif" font-size="17" fill="#30332e">0.0</text>
<line x1="118" y1="364.3" x2="125" y2="364.3" stroke="#343732"/>
<text x="109" y="370.3" text-anchor="end" font-family="PingFang SC, Noto Sans CJK SC, Microsoft YaHei, sans-serif" font-size="17" fill="#30332e">0.5</text>
<line x1="118" y1="273.6" x2="125" y2="273.6" stroke="#343732"/>
<text x="109" y="279.6" text-anchor="end" font-family="PingFang SC, Noto Sans CJK SC, Microsoft YaHei, sans-serif" font-size="17" fill="#30332e">1.0</text>
<line x1="118" y1="182.91" x2="125" y2="182.91" stroke="#343732"/>
<text x="109" y="188.91" text-anchor="end" font-family="PingFang SC, Noto Sans CJK SC, Microsoft YaHei, sans-serif" font-size="17" fill="#30332e">1.5</text>
<line x1="118" y1="92.21" x2="125" y2="92.21" stroke="#343732"/>
<text x="109" y="98.21" text-anchor="end" font-family="PingFang SC, Noto Sans CJK SC, Microsoft YaHei, sans-serif" font-size="17" fill="#30332e">2.0</text>
<text x="470.0" y="525" text-anchor="middle" font-family="PingFang SC, Noto Sans CJK SC, Microsoft YaHei, sans-serif" font-size="21" font-weight="700" fill="#263f86">参数值</text>
<text x="43" y="260.0" transform="rotate(-90 43 260.0)" text-anchor="middle" font-family="PingFang SC, Noto Sans CJK SC, Microsoft YaHei, sans-serif" font-size="21" font-weight="700" fill="#263f86">密度</text>
</svg>
