<svg xmlns="http://www.w3.org/2000/svg" width="1400" height="780" viewBox="0 0 1400 780" role="img" aria-labelledby="title desc"><title id="title">郁金香花朵的先验预测三联图</title><desc id="desc">上排无交互作用，下排有水量与遮阴交互作用；三列分别固定遮阴为负一、零和一。</desc><style>.title,.axis{font:15px -apple-system,BlinkMacSystemFont,"PingFang SC",sans-serif;fill:#30332e}.title{font-weight:700;font-size:16px}.plot{fill:#fff;stroke:#555}.grid{stroke:#e7e7e3}.point{fill:#6874ef}.line{stroke:#20231f;stroke-width:1.3;opacity:.22}.bold{stroke:#171917;stroke-width:3;opacity:.9}.label{font:17px -apple-system,BlinkMacSystemFont,"PingFang SC",sans-serif}</style><text class="title" x="280.0" y="41" text-anchor="middle">m8.4 先验：遮阴 = -1</text><rect class="plot" x="65" y="58" width="430" height="300"/><line class="grid" x1="65" y1="358.0" x2="495" y2="358.0"/><line class="grid" x1="65" y1="283.0" x2="495" y2="283.0"/><line class="grid" x1="65" y1="208.0" x2="495" y2="208.0"/><line class="grid" x1="65" y1="133.0" x2="495" y2="133.0"/><line class="grid" x1="65" y1="58.0" x2="495" y2="58.0"/><polyline class="bold" points="65.0,228.3 280.0,209.1 495.0,189.9"/><polyline class="line" points="65.0,176.9 280.0,211.8 495.0,246.7"/><polyline class="line" points="65.0,221.1 280.0,205.2 495.0,189.3"/><polyline class="line" points="65.0,220.4 280.0,205.6 495.0,190.8"/><polyline class="line" points="65.0,321.5 280.0,289.5 495.0,257.4"/><polyline class="line" points="65.0,60.5 280.0,123.9 495.0,187.3"/><polyline class="line" points="65.0,235.3 280.0,252.8 495.0,270.4"/><polyline class="line" points="65.0,205.2 280.0,185.6 495.0,166.1"/><polyline class="line" points="65.0,186.4 280.0,171.6 495.0,156.9"/><polyline class="line" points="65.0,209.4 280.0,188.5 495.0,167.6"/><polyline class="line" points="65.0,190.6 280.0,218.4 495.0,246.1"/><polyline class="line" points="65.0,245.0 280.0,221.3 495.0,197.6"/><polyline class="line" points="65.0,169.4 280.0,205.3 495.0,241.1"/><polyline class="line" points="65.0,141.1 280.0,171.4 495.0,201.7"/><polyline class="line" points="65.0,138.0 280.0,193.8 495.0,249.7"/><polyline class="line" points="65.0,71.4 280.0,147.0 495.0,222.5"/><polyline class="line" points="65.0,200.0 280.0,230.6 495.0,261.3"/><polyline class="line" points="65.0,186.5 280.0,241.4 495.0,296.3"/><polyline class="line" points="65.0,272.4 280.0,236.9 495.0,201.5"/><polyline class="line" points="65.0,150.2 280.0,145.7 495.0,141.2"/><text class="axis" x="65.0" y="381" text-anchor="middle">-1</text><text class="axis" x="280.0" y="381" text-anchor="middle">0</text><text class="axis" x="495.0" y="381" text-anchor="middle">1</text><text class="label" x="280.0" y="408" text-anchor="middle">水量</text><text class="label" transform="translate(30,208.0) rotate(-90)" text-anchor="middle">花朵</text><text class="title" x="738.0" y="41" text-anchor="middle">m8.4 先验：遮阴 = 0</text><rect class="plot" x="523" y="58" width="430" height="300"/><line class="grid" x1="523" y1="358.0" x2="953" y2="358.0"/><line class="grid" x1="523" y1="283.0" x2="953" y2="283.0"/><line class="grid" x1="523" y1="208.0" x2="953" y2="208.0"/><line class="grid" x1="523" y1="133.0" x2="953" y2="133.0"/><line class="grid" x1="523" y1="58.0" x2="953" y2="58.0"/><polyline class="bold" points="523.0,236.8 738.0,217.6 953.0,198.4"/><polyline class="line" points="523.0,184.9 738.0,219.8 953.0,254.7"/><polyline class="line" points="523.0,182.2 738.0,166.3 953.0,150.4"/><polyline class="line" points="523.0,213.5 738.0,198.7 953.0,183.9"/><polyline class="line" points="523.0,302.5 738.0,270.5 953.0,238.4"/><polyline class="line" points="523.0,125.9 738.0,189.3 953.0,252.7"/><polyline class="line" points="523.0,223.8 738.0,241.4 953.0,258.9"/><polyline class="line" points="523.0,229.3 738.0,209.7 953.0,190.2"/><polyline class="line" points="523.0,211.2 738.0,196.4 953.0,181.6"/><polyline class="line" points="523.0,164.5 738.0,143.6 953.0,122.7"/><polyline class="line" points="523.0,203.5 738.0,231.3 953.0,259.0"/><polyline class="line" points="523.0,235.7 738.0,212.0 953.0,188.3"/><polyline class="line" points="523.0,188.9 738.0,224.8 953.0,260.7"/><polyline class="line" points="523.0,131.9 738.0,162.2 953.0,192.5"/><polyline class="line" points="523.0,136.1 738.0,192.0 953.0,247.9"/><polyline class="line" points="523.0,83.5 738.0,159.0 953.0,234.6"/><polyline class="line" points="523.0,181.3 738.0,212.0 953.0,242.6"/><polyline class="line" points="523.0,155.4 738.0,210.3 953.0,265.3"/><polyline class="line" points="523.0,218.4 738.0,182.9 953.0,147.4"/><polyline class="line" points="523.0,198.9 738.0,194.4 953.0,189.9"/><text class="axis" x="523.0" y="381" text-anchor="middle">-1</text><text class="axis" x="738.0" y="381" text-anchor="middle">0</text><text class="axis" x="953.0" y="381" text-anchor="middle">1</text><text class="label" x="738.0" y="408" text-anchor="middle">水量</text><text class="label" transform="translate(488,208.0) rotate(-90)" text-anchor="middle">花朵</text><text class="title" x="1196.0" y="41" text-anchor="middle">m8.4 先验：遮阴 = 1</text><rect class="plot" x="981" y="58" width="430" height="300"/><line class="grid" x1="981" y1="358.0" x2="1411" y2="358.0"/><line class="grid" x1="981" y1="283.0" x2="1411" y2="283.0"/><line class="grid" x1="981" y1="208.0" x2="1411" y2="208.0"/><line class="grid" x1="981" y1="133.0" x2="1411" y2="133.0"/><line class="grid" x1="981" y1="58.0" x2="1411" y2="58.0"/><polyline class="bold" points="981.0,245.3 1196.0,226.1 1411.0,206.9"/><polyline class="line" points="981.0,192.9 1196.0,227.8 1411.0,262.7"/><polyline class="line" points="981.0,143.3 1196.0,127.4 1411.0,111.5"/><polyline class="line" points="981.0,206.5 1196.0,191.7 1411.0,176.9"/><polyline class="line" points="981.0,283.6 1196.0,251.5 1411.0,219.4"/><polyline class="line" points="981.0,191.3 1196.0,254.7 1411.0,318.1"/><polyline class="line" points="981.0,212.3 1196.0,229.9 1411.0,247.5"/><polyline class="line" points="981.0,253.3 1196.0,233.8 1411.0,214.3"/><polyline class="line" points="981.0,236.0 1196.0,221.2 1411.0,206.4"/><polyline class="line" points="981.0,119.6 1196.0,98.7 1411.0,77.8"/><polyline class="line" points="981.0,216.4 1196.0,244.2 1411.0,271.9"/><polyline class="line" points="981.0,226.4 1196.0,202.7 1411.0,179.0"/><polyline class="line" points="981.0,208.4 1196.0,244.3 1411.0,280.2"/><polyline class="line" points="981.0,122.7 1196.0,153.0 1411.0,183.3"/><polyline class="line" points="981.0,134.3 1196.0,190.2 1411.0,246.1"/><polyline class="line" points="981.0,95.5 1196.0,171.1 1411.0,246.6"/><polyline class="line" points="981.0,162.7 1196.0,193.3 1411.0,224.0"/><polyline class="line" points="981.0,124.4 1196.0,179.3 1411.0,234.2"/><polyline class="line" points="981.0,164.3 1196.0,128.9 1411.0,93.4"/><polyline class="line" points="981.0,247.6 1196.0,243.1 1411.0,238.7"/><text class="axis" x="981.0" y="381" text-anchor="middle">-1</text><text class="axis" x="1196.0" y="381" text-anchor="middle">0</text><text class="axis" x="1411.0" y="381" text-anchor="middle">1</text><text class="label" x="1196.0" y="408" text-anchor="middle">水量</text><text class="label" transform="translate(946,208.0) rotate(-90)" text-anchor="middle">花朵</text><text class="title" x="280.0" y="426" text-anchor="middle">m8.5 先验：遮阴 = -1</text><rect class="plot" x="65" y="443" width="430" height="300"/><line class="grid" x1="65" y1="743.0" x2="495" y2="743.0"/><line class="grid" x1="65" y1="668.0" x2="495" y2="668.0"/><line class="grid" x1="65" y1="593.0" x2="495" y2="593.0"/><line class="grid" x1="65" y1="518.0" x2="495" y2="518.0"/><line class="grid" x1="65" y1="443.0" x2="495" y2="443.0"/><polyline class="bold" points="65.0,673.3 280.0,620.1 495.0,566.8"/><polyline class="line" points="65.0,608.9 280.0,594.4 495.0,579.8"/><polyline class="line" points="65.0,532.1 280.0,577.2 495.0,622.2"/><polyline class="line" points="65.0,642.5 280.0,591.1 495.0,539.6"/><polyline class="line" points="65.0,455.5 280.0,496.1 495.0,536.7"/><polyline class="line" points="65.0,497.2 280.0,600.3 495.0,703.4"/><polyline class="line" points="65.0,487.0 280.0,505.3 495.0,523.6"/><polyline class="line" points="65.0,617.0 280.0,569.0 495.0,521.0"/><polyline class="line" points="65.0,521.9 280.0,561.3 495.0,600.7"/><polyline class="line" points="65.0,483.9 280.0,583.3 495.0,682.8"/><polyline class="line" points="65.0,660.9 280.0,668.8 495.0,676.8"/><polyline class="line" points="65.0,695.4 280.0,683.0 495.0,670.5"/><polyline class="line" points="65.0,639.6 280.0,518.9 495.0,398.2"/><polyline class="line" points="65.0,518.1 280.0,575.3 495.0,632.5"/><polyline class="line" points="65.0,666.9 280.0,710.1 495.0,753.3"/><polyline class="line" points="65.0,626.2 280.0,656.5 495.0,686.8"/><polyline class="line" points="65.0,518.0 280.0,554.6 495.0,591.1"/><polyline class="line" points="65.0,726.3 280.0,662.0 495.0,597.6"/><polyline class="line" points="65.0,658.9 280.0,558.2 495.0,457.5"/><polyline class="line" points="65.0,627.3 280.0,572.0 495.0,516.8"/><text class="axis" x="65.0" y="766" text-anchor="middle">-1</text><text class="axis" x="280.0" y="766" text-anchor="middle">0</text><text class="axis" x="495.0" y="766" text-anchor="middle">1</text><text class="label" x="280.0" y="793" text-anchor="middle">水量</text><text class="label" transform="translate(30,593.0) rotate(-90)" text-anchor="middle">花朵</text><text class="title" x="738.0" y="426" text-anchor="middle">m8.5 先验：遮阴 = 0</text><rect class="plot" x="523" y="443" width="430" height="300"/><line class="grid" x1="523" y1="743.0" x2="953" y2="743.0"/><line class="grid" x1="523" y1="668.0" x2="953" y2="668.0"/><line class="grid" x1="523" y1="593.0" x2="953" y2="593.0"/><line class="grid" x1="523" y1="518.0" x2="953" y2="518.0"/><line class="grid" x1="523" y1="443.0" x2="953" y2="443.0"/><polyline class="bold" points="523.0,674.0 738.0,579.0 953.0,484.0"/><polyline class="line" points="523.0,583.1 738.0,568.7 953.0,554.3"/><polyline class="line" points="523.0,586.8 738.0,619.1 953.0,651.5"/><polyline class="line" points="523.0,634.0 738.0,567.9 953.0,501.9"/><polyline class="line" points="523.0,567.4 738.0,563.7 953.0,560.0"/><polyline class="line" points="523.0,619.1 738.0,606.4 953.0,593.7"/><polyline class="line" points="523.0,565.0 738.0,544.9 953.0,524.7"/><polyline class="line" points="523.0,672.2 738.0,623.3 953.0,574.5"/><polyline class="line" points="523.0,524.0 738.0,552.7 953.0,581.5"/><polyline class="line" points="523.0,537.6 738.0,552.0 953.0,566.5"/><polyline class="line" points="523.0,617.4 738.0,646.3 953.0,675.1"/><polyline class="line" points="523.0,701.1 738.0,640.8 953.0,580.5"/><polyline class="line" points="523.0,579.1 738.0,546.1 953.0,513.0"/><polyline class="line" points="523.0,531.5 738.0,568.4 953.0,605.3"/><polyline class="line" points="523.0,629.0 738.0,637.1 953.0,645.1"/><polyline class="line" points="523.0,648.5 738.0,651.2 953.0,653.9"/><polyline class="line" points="523.0,561.3 738.0,558.7 953.0,556.1"/><polyline class="line" points="523.0,693.6 738.0,643.9 953.0,594.2"/><polyline class="line" points="523.0,624.7 738.0,611.0 953.0,597.3"/><polyline class="line" points="523.0,635.0 738.0,573.9 953.0,512.9"/><text class="axis" x="523.0" y="766" text-anchor="middle">-1</text><text class="axis" x="738.0" y="766" text-anchor="middle">0</text><text class="axis" x="953.0" y="766" text-anchor="middle">1</text><text class="label" x="738.0" y="793" text-anchor="middle">水量</text><text class="label" transform="translate(488,593.0) rotate(-90)" text-anchor="middle">花朵</text><text class="title" x="1196.0" y="426" text-anchor="middle">m8.5 先验：遮阴 = 1</text><rect class="plot" x="981" y="443" width="430" height="300"/><line class="grid" x1="981" y1="743.0" x2="1411" y2="743.0"/><line class="grid" x1="981" y1="668.0" x2="1411" y2="668.0"/><line class="grid" x1="981" y1="593.0" x2="1411" y2="593.0"/><line class="grid" x1="981" y1="518.0" x2="1411" y2="518.0"/><line class="grid" x1="981" y1="443.0" x2="1411" y2="443.0"/><polyline class="bold" points="981.0,674.7 1196.0,537.9 1411.0,401.2"/><polyline class="line" points="981.0,557.3 1196.0,543.0 1411.0,528.7"/><polyline class="line" points="981.0,641.4 1196.0,661.1 1411.0,680.7"/><polyline class="line" points="981.0,625.4 1196.0,544.7 1411.0,464.1"/><polyline class="line" points="981.0,679.3 1196.0,631.3 1411.0,583.3"/><polyline class="line" points="981.0,740.9 1196.0,612.4 1411.0,484.0"/><polyline class="line" points="981.0,643.0 1196.0,584.4 1411.0,525.8"/><polyline class="line" points="981.0,727.3 1196.0,677.6 1411.0,628.0"/><polyline class="line" points="981.0,526.0 1196.0,544.1 1411.0,562.2"/><polyline class="line" points="981.0,591.3 1196.0,520.7 1411.0,450.1"/><polyline class="line" points="981.0,574.0 1196.0,623.7 1411.0,673.5"/><polyline class="line" points="981.0,706.7 1196.0,598.6 1411.0,490.5"/><polyline class="line" points="981.0,518.6 1196.0,573.2 1411.0,627.9"/><polyline class="line" points="981.0,544.8 1196.0,561.5 1411.0,578.2"/><polyline class="line" points="981.0,591.2 1196.0,564.0 1411.0,536.9"/><polyline class="line" points="981.0,670.8 1196.0,646.0 1411.0,621.1"/><polyline class="line" points="981.0,604.6 1196.0,562.9 1411.0,521.2"/><polyline class="line" points="981.0,660.8 1196.0,625.8 1411.0,590.8"/><polyline class="line" points="981.0,590.5 1196.0,663.8 1411.0,737.1"/><polyline class="line" points="981.0,642.7 1196.0,575.8 1411.0,509.0"/><text class="axis" x="981.0" y="766" text-anchor="middle">-1</text><text class="axis" x="1196.0" y="766" text-anchor="middle">0</text><text class="axis" x="1411.0" y="766" text-anchor="middle">1</text><text class="label" x="1196.0" y="793" text-anchor="middle">水量</text><text class="label" transform="translate(946,593.0) rotate(-90)" text-anchor="middle">花朵</text></svg>