<svg xmlns="http://www.w3.org/2000/svg" width="1200" height="620" viewBox="0 0 1200 620">
<title>图 15.6：灵长类乳汁数据的缺失新皮层值插补</title>
<desc>左图是乳汁能量与新皮层比例，右图是体重对数与新皮层比例；双变量模型使插补值保留两个预测变量之间的正相关。</desc>
<rect width="1200" height="620" fill="#fff"/>
<rect x="90.0" y="55.0" width="480.0" height="465.0" fill="#fff" stroke="#30332e" stroke-width="1.5"/>
<rect x="665.0" y="55.0" width="480.0" height="465.0" fill="#fff" stroke="#30332e" stroke-width="1.5"/>
<line x1="115.3" y1="520" x2="115.3" y2="527" stroke="#30332e"/>
<text x="115.3" y="551.0" text-anchor="middle" font-family="-apple-system,BlinkMacSystemFont,PingFang SC,Noto Sans CJK SC,sans-serif" font-size="15" font-weight="400" fill="#30332e">-2</text>
<line x1="178.4" y1="520" x2="178.4" y2="527" stroke="#30332e"/>
<text x="178.4" y="551.0" text-anchor="middle" font-family="-apple-system,BlinkMacSystemFont,PingFang SC,Noto Sans CJK SC,sans-serif" font-size="15" font-weight="400" fill="#30332e">-1.5</text>
<line x1="241.6" y1="520" x2="241.6" y2="527" stroke="#30332e"/>
<text x="241.6" y="551.0" text-anchor="middle" font-family="-apple-system,BlinkMacSystemFont,PingFang SC,Noto Sans CJK SC,sans-serif" font-size="15" font-weight="400" fill="#30332e">-1</text>
<line x1="304.7" y1="520" x2="304.7" y2="527" stroke="#30332e"/>
<text x="304.7" y="551.0" text-anchor="middle" font-family="-apple-system,BlinkMacSystemFont,PingFang SC,Noto Sans CJK SC,sans-serif" font-size="15" font-weight="400" fill="#30332e">-0.5</text>
<line x1="367.9" y1="520" x2="367.9" y2="527" stroke="#30332e"/>
<text x="367.9" y="551.0" text-anchor="middle" font-family="-apple-system,BlinkMacSystemFont,PingFang SC,Noto Sans CJK SC,sans-serif" font-size="15" font-weight="400" fill="#30332e">0</text>
<line x1="431.1" y1="520" x2="431.1" y2="527" stroke="#30332e"/>
<text x="431.1" y="551.0" text-anchor="middle" font-family="-apple-system,BlinkMacSystemFont,PingFang SC,Noto Sans CJK SC,sans-serif" font-size="15" font-weight="400" fill="#30332e">0.5</text>
<line x1="494.2" y1="520" x2="494.2" y2="527" stroke="#30332e"/>
<text x="494.2" y="551.0" text-anchor="middle" font-family="-apple-system,BlinkMacSystemFont,PingFang SC,Noto Sans CJK SC,sans-serif" font-size="15" font-weight="400" fill="#30332e">1</text>
<line x1="557.4" y1="520" x2="557.4" y2="527" stroke="#30332e"/>
<text x="557.4" y="551.0" text-anchor="middle" font-family="-apple-system,BlinkMacSystemFont,PingFang SC,Noto Sans CJK SC,sans-serif" font-size="15" font-weight="400" fill="#30332e">1.5</text>
<line x1="83" y1="485.8" x2="90" y2="485.8" stroke="#30332e"/>
<text x="76.0" y="490.8" text-anchor="end" font-family="-apple-system,BlinkMacSystemFont,PingFang SC,Noto Sans CJK SC,sans-serif" font-size="15" font-weight="400" fill="#30332e">-1</text>
<line x1="83" y1="417.4" x2="90" y2="417.4" stroke="#30332e"/>
<text x="76.0" y="422.4" text-anchor="end" font-family="-apple-system,BlinkMacSystemFont,PingFang SC,Noto Sans CJK SC,sans-serif" font-size="15" font-weight="400" fill="#30332e">-0.5</text>
<line x1="83" y1="349.0" x2="90" y2="349.0" stroke="#30332e"/>
<text x="76.0" y="354.0" text-anchor="end" font-family="-apple-system,BlinkMacSystemFont,PingFang SC,Noto Sans CJK SC,sans-serif" font-size="15" font-weight="400" fill="#30332e">0</text>
<line x1="83" y1="280.7" x2="90" y2="280.7" stroke="#30332e"/>
<text x="76.0" y="285.7" text-anchor="end" font-family="-apple-system,BlinkMacSystemFont,PingFang SC,Noto Sans CJK SC,sans-serif" font-size="15" font-weight="400" fill="#30332e">0.5</text>
<line x1="83" y1="212.3" x2="90" y2="212.3" stroke="#30332e"/>
<text x="76.0" y="217.3" text-anchor="end" font-family="-apple-system,BlinkMacSystemFont,PingFang SC,Noto Sans CJK SC,sans-serif" font-size="15" font-weight="400" fill="#30332e">1</text>
<line x1="83" y1="143.9" x2="90" y2="143.9" stroke="#30332e"/>
<text x="76.0" y="148.9" text-anchor="end" font-family="-apple-system,BlinkMacSystemFont,PingFang SC,Noto Sans CJK SC,sans-serif" font-size="15" font-weight="400" fill="#30332e">1.5</text>
<line x1="83" y1="75.5" x2="90" y2="75.5" stroke="#30332e"/>
<text x="76.0" y="80.5" text-anchor="end" font-family="-apple-system,BlinkMacSystemFont,PingFang SC,Noto Sans CJK SC,sans-serif" font-size="15" font-weight="400" fill="#30332e">2</text>
<line x1="692.3" y1="520" x2="692.3" y2="527" stroke="#30332e"/>
<text x="692.3" y="551.0" text-anchor="middle" font-family="-apple-system,BlinkMacSystemFont,PingFang SC,Noto Sans CJK SC,sans-serif" font-size="15" font-weight="400" fill="#30332e">-2</text>
<line x1="801.4" y1="520" x2="801.4" y2="527" stroke="#30332e"/>
<text x="801.4" y="551.0" text-anchor="middle" font-family="-apple-system,BlinkMacSystemFont,PingFang SC,Noto Sans CJK SC,sans-serif" font-size="15" font-weight="400" fill="#30332e">-1</text>
<line x1="910.5" y1="520" x2="910.5" y2="527" stroke="#30332e"/>
<text x="910.5" y="551.0" text-anchor="middle" font-family="-apple-system,BlinkMacSystemFont,PingFang SC,Noto Sans CJK SC,sans-serif" font-size="15" font-weight="400" fill="#30332e">0</text>
<line x1="1019.5" y1="520" x2="1019.5" y2="527" stroke="#30332e"/>
<text x="1019.5" y="551.0" text-anchor="middle" font-family="-apple-system,BlinkMacSystemFont,PingFang SC,Noto Sans CJK SC,sans-serif" font-size="15" font-weight="400" fill="#30332e">1</text>
<line x1="1128.6" y1="520" x2="1128.6" y2="527" stroke="#30332e"/>
<text x="1128.6" y="551.0" text-anchor="middle" font-family="-apple-system,BlinkMacSystemFont,PingFang SC,Noto Sans CJK SC,sans-serif" font-size="15" font-weight="400" fill="#30332e">2</text>
<line x1="658" y1="490.2" x2="665" y2="490.2" stroke="#30332e"/>
<text x="651.0" y="495.2" text-anchor="end" font-family="-apple-system,BlinkMacSystemFont,PingFang SC,Noto Sans CJK SC,sans-serif" font-size="15" font-weight="400" fill="#30332e">-2</text>
<line x1="658" y1="371.0" x2="665" y2="371.0" stroke="#30332e"/>
<text x="651.0" y="376.0" text-anchor="end" font-family="-apple-system,BlinkMacSystemFont,PingFang SC,Noto Sans CJK SC,sans-serif" font-size="15" font-weight="400" fill="#30332e">-1</text>
<line x1="658" y1="251.7" x2="665" y2="251.7" stroke="#30332e"/>
<text x="651.0" y="256.7" text-anchor="end" font-family="-apple-system,BlinkMacSystemFont,PingFang SC,Noto Sans CJK SC,sans-serif" font-size="15" font-weight="400" fill="#30332e">0</text>
<line x1="658" y1="192.1" x2="665" y2="192.1" stroke="#30332e"/>
<text x="651.0" y="197.1" text-anchor="end" font-family="-apple-system,BlinkMacSystemFont,PingFang SC,Noto Sans CJK SC,sans-serif" font-size="15" font-weight="400" fill="#30332e">0.5</text>
<line x1="658" y1="132.5" x2="665" y2="132.5" stroke="#30332e"/>
<text x="651.0" y="137.5" text-anchor="end" font-family="-apple-system,BlinkMacSystemFont,PingFang SC,Noto Sans CJK SC,sans-serif" font-size="15" font-weight="400" fill="#30332e">1</text>
<line x1="658" y1="72.9" x2="665" y2="72.9" stroke="#30332e"/>
<text x="651.0" y="77.9" text-anchor="end" font-family="-apple-system,BlinkMacSystemFont,PingFang SC,Noto Sans CJK SC,sans-serif" font-size="15" font-weight="400" fill="#30332e">1.5</text>
<line x1="145.6" y1="460.7" x2="428.3" y2="460.7" stroke="#30332e" stroke-width="1.5"/>
<line x1="865.2" y1="194.7" x2="865.2" y2="461.5" stroke="#30332e" stroke-width="1.5"/>
<line x1="139.7" y1="503.0" x2="422.4" y2="503.0" stroke="#30332e" stroke-width="1.5"/>
<line x1="876.9" y1="200.3" x2="876.9" y2="467.1" stroke="#30332e" stroke-width="1.5"/>
<line x1="122.5" y1="486.1" x2="405.2" y2="486.1" stroke="#30332e" stroke-width="1.5"/>
<line x1="848.8" y1="216.5" x2="848.8" y2="483.4" stroke="#30332e" stroke-width="1.5"/>
<line x1="176.5" y1="384.4" x2="459.2" y2="384.4" stroke="#30332e" stroke-width="1.5"/>
<line x1="868.2" y1="165.5" x2="868.2" y2="432.4" stroke="#30332e" stroke-width="1.5"/>
<line x1="213.8" y1="121.7" x2="496.5" y2="121.7" stroke="#30332e" stroke-width="1.5"/>
<line x1="795.8" y1="130.3" x2="795.8" y2="397.1" stroke="#30332e" stroke-width="1.5"/>
<line x1="141.7" y1="291.2" x2="424.4" y2="291.2" stroke="#30332e" stroke-width="1.5"/>
<line x1="785.0" y1="198.4" x2="785.0" y2="465.2" stroke="#30332e" stroke-width="1.5"/>
<line x1="242.3" y1="274.2" x2="525.0" y2="274.2" stroke="#30332e" stroke-width="1.5"/>
<line x1="897.8" y1="103.5" x2="897.8" y2="370.3" stroke="#30332e" stroke-width="1.5"/>
<line x1="277.4" y1="282.7" x2="560.1" y2="282.7" stroke="#30332e" stroke-width="1.5"/>
<line x1="943.6" y1="70.3" x2="943.6" y2="337.2" stroke="#30332e" stroke-width="1.5"/>
<line x1="305.6" y1="223.4" x2="570.0" y2="223.4" stroke="#30332e" stroke-width="1.5"/>
<line x1="950.9" y1="55.0" x2="950.9" y2="310.5" stroke="#30332e" stroke-width="1.5"/>
<line x1="205.4" y1="486.1" x2="488.1" y2="486.1" stroke="#30332e" stroke-width="1.5"/>
<line x1="948.0" y1="138.3" x2="948.0" y2="405.1" stroke="#30332e" stroke-width="1.5"/>
<line x1="233.4" y1="460.7" x2="516.1" y2="460.7" stroke="#30332e" stroke-width="1.5"/>
<line x1="970.2" y1="111.8" x2="970.2" y2="378.7" stroke="#30332e" stroke-width="1.5"/>
<line x1="358.4" y1="443.7" x2="570.0" y2="443.7" stroke="#30332e" stroke-width="1.5"/>
<line x1="1112.2" y1="55.0" x2="1112.2" y2="260.7" stroke="#30332e" stroke-width="1.5"/>
<circle cx="105.1" cy="477.6" r="5" fill="#6670ee" fill-opacity="0.86"/>
<circle cx="860.7" cy="499.8" r="5" fill="#6670ee" fill-opacity="0.86"/>
<circle cx="303.6" cy="494.6" r="5" fill="#6670ee" fill-opacity="0.86"/>
<circle cx="924.4" cy="312.4" r="5" fill="#6670ee" fill-opacity="0.86"/>
<circle cx="303.6" cy="418.3" r="5" fill="#6670ee" fill-opacity="0.86"/>
<circle cx="925.8" cy="312.4" r="5" fill="#6670ee" fill-opacity="0.86"/>
<circle cx="369.3" cy="138.7" r="5" fill="#6670ee" fill-opacity="0.86"/>
<circle cx="876.9" cy="250.4" r="5" fill="#6670ee" fill-opacity="0.86"/>
<circle cx="394.9" cy="113.2" r="5" fill="#6670ee" fill-opacity="0.86"/>
<circle cx="793.0" cy="226.3" r="5" fill="#6670ee" fill-opacity="0.86"/>
<circle cx="183.2" cy="214.9" r="5" fill="#6670ee" fill-opacity="0.86"/>
<circle cx="681.6" cy="426.0" r="5" fill="#6670ee" fill-opacity="0.86"/>
<circle cx="243.3" cy="503.0" r="5" fill="#6670ee" fill-opacity="0.86"/>
<circle cx="769.3" cy="369.3" r="5" fill="#6670ee" fill-opacity="0.86"/>
<circle cx="214.3" cy="291.2" r="5" fill="#6670ee" fill-opacity="0.86"/>
<circle cx="744.6" cy="396.7" r="5" fill="#6670ee" fill-opacity="0.86"/>
<circle cx="418.6" cy="316.6" r="5" fill="#6670ee" fill-opacity="0.86"/>
<circle cx="846.0" cy="203.9" r="5" fill="#6670ee" fill-opacity="0.86"/>
<circle cx="427.9" cy="70.9" r="5" fill="#6670ee" fill-opacity="0.86"/>
<circle cx="893.3" cy="195.1" r="5" fill="#6670ee" fill-opacity="0.86"/>
<circle cx="491.2" cy="181.0" r="5" fill="#6670ee" fill-opacity="0.86"/>
<circle cx="979.1" cy="135.4" r="5" fill="#6670ee" fill-opacity="0.86"/>
<circle cx="366.9" cy="367.5" r="5" fill="#6670ee" fill-opacity="0.86"/>
<circle cx="925.8" cy="252.6" r="5" fill="#6670ee" fill-opacity="0.86"/>
<circle cx="445.9" cy="435.2" r="5" fill="#6670ee" fill-opacity="0.86"/>
<circle cx="1047.1" cy="178.1" r="5" fill="#6670ee" fill-opacity="0.86"/>
<circle cx="474.2" cy="477.6" r="5" fill="#6670ee" fill-opacity="0.86"/>
<circle cx="1098.9" cy="151.4" r="5" fill="#6670ee" fill-opacity="0.86"/>
<circle cx="424.3" cy="486.1" r="5" fill="#6670ee" fill-opacity="0.86"/>
<circle cx="1056.0" cy="198.5" r="5" fill="#6670ee" fill-opacity="0.86"/>
<circle cx="552.5" cy="426.8" r="5" fill="#6670ee" fill-opacity="0.86"/>
<circle cx="1042.7" cy="77.5" r="5" fill="#6670ee" fill-opacity="0.86"/>
<circle cx="535.4" cy="291.2" r="5" fill="#6670ee" fill-opacity="0.86"/>
<circle cx="1075.2" cy="93.6" r="5" fill="#6670ee" fill-opacity="0.86"/>
<circle cx="287.0" cy="460.7" r="5.5" fill="#fff" stroke="#30332e" stroke-width="1.7"/>
<circle cx="865.2" cy="328.1" r="5.5" fill="#fff" stroke="#30332e" stroke-width="1.7"/>
<circle cx="281.0" cy="503.0" r="5.5" fill="#fff" stroke="#30332e" stroke-width="1.7"/>
<circle cx="876.9" cy="333.7" r="5.5" fill="#fff" stroke="#30332e" stroke-width="1.7"/>
<circle cx="263.8" cy="486.1" r="5.5" fill="#fff" stroke="#30332e" stroke-width="1.7"/>
<circle cx="848.8" cy="350.0" r="5.5" fill="#fff" stroke="#30332e" stroke-width="1.7"/>
<circle cx="317.9" cy="384.4" r="5.5" fill="#fff" stroke="#30332e" stroke-width="1.7"/>
<circle cx="868.2" cy="298.9" r="5.5" fill="#fff" stroke="#30332e" stroke-width="1.7"/>
<circle cx="355.2" cy="121.7" r="5.5" fill="#fff" stroke="#30332e" stroke-width="1.7"/>
<circle cx="795.8" cy="263.7" r="5.5" fill="#fff" stroke="#30332e" stroke-width="1.7"/>
<circle cx="283.1" cy="291.2" r="5.5" fill="#fff" stroke="#30332e" stroke-width="1.7"/>
<circle cx="785.0" cy="331.8" r="5.5" fill="#fff" stroke="#30332e" stroke-width="1.7"/>
<circle cx="383.6" cy="274.2" r="5.5" fill="#fff" stroke="#30332e" stroke-width="1.7"/>
<circle cx="897.8" cy="236.9" r="5.5" fill="#fff" stroke="#30332e" stroke-width="1.7"/>
<circle cx="418.7" cy="282.7" r="5.5" fill="#fff" stroke="#30332e" stroke-width="1.7"/>
<circle cx="943.6" cy="203.7" r="5.5" fill="#fff" stroke="#30332e" stroke-width="1.7"/>
<circle cx="447.0" cy="223.4" r="5.5" fill="#fff" stroke="#30332e" stroke-width="1.7"/>
<circle cx="950.9" cy="177.1" r="5.5" fill="#fff" stroke="#30332e" stroke-width="1.7"/>
<circle cx="346.8" cy="486.1" r="5.5" fill="#fff" stroke="#30332e" stroke-width="1.7"/>
<circle cx="948.0" cy="271.7" r="5.5" fill="#fff" stroke="#30332e" stroke-width="1.7"/>
<circle cx="374.8" cy="460.7" r="5.5" fill="#fff" stroke="#30332e" stroke-width="1.7"/>
<circle cx="970.2" cy="245.3" r="5.5" fill="#fff" stroke="#30332e" stroke-width="1.7"/>
<circle cx="499.7" cy="443.7" r="5.5" fill="#fff" stroke="#30332e" stroke-width="1.7"/>
<circle cx="1112.2" cy="127.3" r="5.5" fill="#fff" stroke="#30332e" stroke-width="1.7"/>
<text x="330.0" y="598.0" text-anchor="middle" font-family="-apple-system,BlinkMacSystemFont,PingFang SC,Noto Sans CJK SC,sans-serif" font-size="19" font-weight="600" fill="#30332e">新皮层百分比（标准化）</text>
<text x="905.0" y="598.0" text-anchor="middle" font-family="-apple-system,BlinkMacSystemFont,PingFang SC,Noto Sans CJK SC,sans-serif" font-size="19" font-weight="600" fill="#30332e">体重对数（标准化）</text>
<text x="28.0" y="287.0" text-anchor="middle" font-family="-apple-system,BlinkMacSystemFont,PingFang SC,Noto Sans CJK SC,sans-serif" font-size="19" font-weight="600" fill="#30332e" transform="rotate(-90 28 287)">乳汁能量（标准化）</text>
<text x="603.0" y="287.0" text-anchor="middle" font-family="-apple-system,BlinkMacSystemFont,PingFang SC,Noto Sans CJK SC,sans-serif" font-size="19" font-weight="600" fill="#30332e" transform="rotate(-90 603 287)">新皮层百分比（标准化）</text>
</svg>