<svg xmlns="http://www.w3.org/2000/svg" width="900" height="535" viewBox="0 0 900 535" role="img">
<title>七只黑猩猩拉左侧杠杆的后验概率</title>
<desc>每行给出一只黑猩猩拉左侧杠杆概率的后验均值与百分之八十九相容区间。</desc>
<rect width="100%" height="100%" fill="#fbfaf6"/>
<rect x="145" y="11" width="705" height="458" fill="#fff" stroke="#d9d5c8"/>
<line x1="145" y1="35.0" x2="850" y2="35.0" stroke="#d9d5c8" stroke-dasharray="4 5"/>
<text x="127.0" y="41.0" text-anchor="end" font-family="-apple-system,BlinkMacSystemFont,PingFang SC,Noto Sans CJK SC,sans-serif" font-size="19" font-weight="400" fill="#30332e">个体 1</text>
<line x1="341.6" y1="35.0" x2="504.5" y2="35.0" stroke="#30332e" stroke-width="4"/>
<circle cx="419.5" cy="35.0" r="7" fill="#fff" stroke="#30332e" stroke-width="3"/>
<line x1="145" y1="103.3" x2="850" y2="103.3" stroke="#d9d5c8" stroke-dasharray="4 5"/>
<text x="127.0" y="109.3" text-anchor="end" font-family="-apple-system,BlinkMacSystemFont,PingFang SC,Noto Sans CJK SC,sans-serif" font-size="19" font-weight="400" fill="#30332e">个体 2</text>
<line x1="808.8" y1="103.3" x2="845.7" y2="103.3" stroke="#30332e" stroke-width="4"/>
<circle cx="835.5" cy="103.3" r="7" fill="#fff" stroke="#30332e" stroke-width="3"/>
<line x1="145" y1="171.7" x2="850" y2="171.7" stroke="#d9d5c8" stroke-dasharray="4 5"/>
<text x="127.0" y="177.7" text-anchor="end" font-family="-apple-system,BlinkMacSystemFont,PingFang SC,Noto Sans CJK SC,sans-serif" font-size="19" font-weight="400" fill="#30332e">个体 3</text>
<line x1="298.4" y1="171.7" x2="457.1" y2="171.7" stroke="#30332e" stroke-width="4"/>
<circle cx="371.2" cy="171.7" r="7" fill="#fff" stroke="#30332e" stroke-width="3"/>
<line x1="145" y1="240.0" x2="850" y2="240.0" stroke="#d9d5c8" stroke-dasharray="4 5"/>
<text x="127.0" y="246.0" text-anchor="end" font-family="-apple-system,BlinkMacSystemFont,PingFang SC,Noto Sans CJK SC,sans-serif" font-size="19" font-weight="400" fill="#30332e">个体 4</text>
<line x1="300.8" y1="240.0" x2="460.6" y2="240.0" stroke="#30332e" stroke-width="4"/>
<circle cx="372.7" cy="240.0" r="7" fill="#fff" stroke="#30332e" stroke-width="3"/>
<line x1="145" y1="308.3" x2="850" y2="308.3" stroke="#d9d5c8" stroke-dasharray="4 5"/>
<text x="127.0" y="314.3" text-anchor="end" font-family="-apple-system,BlinkMacSystemFont,PingFang SC,Noto Sans CJK SC,sans-serif" font-size="19" font-weight="400" fill="#30332e">个体 5</text>
<line x1="343.0" y1="308.3" x2="515.1" y2="308.3" stroke="#30332e" stroke-width="4"/>
<circle cx="421.2" cy="308.3" r="7" fill="#fff" stroke="#30332e" stroke-width="3"/>
<line x1="145" y1="376.7" x2="850" y2="376.7" stroke="#d9d5c8" stroke-dasharray="4 5"/>
<text x="127.0" y="382.7" text-anchor="end" font-family="-apple-system,BlinkMacSystemFont,PingFang SC,Noto Sans CJK SC,sans-serif" font-size="19" font-weight="400" fill="#30332e">个体 6</text>
<line x1="494.0" y1="376.7" x2="660.4" y2="376.7" stroke="#30332e" stroke-width="4"/>
<circle cx="580.5" cy="376.7" r="7" fill="#fff" stroke="#30332e" stroke-width="3"/>
<line x1="145" y1="445.0" x2="850" y2="445.0" stroke="#d9d5c8" stroke-dasharray="4 5"/>
<text x="127.0" y="451.0" text-anchor="end" font-family="-apple-system,BlinkMacSystemFont,PingFang SC,Noto Sans CJK SC,sans-serif" font-size="19" font-weight="400" fill="#30332e">个体 7</text>
<line x1="701.4" y1="445.0" x2="802.6" y2="445.0" stroke="#30332e" stroke-width="4"/>
<circle cx="762.2" cy="445.0" r="7" fill="#fff" stroke="#30332e" stroke-width="3"/>
<line x1="145.0" y1="469" x2="145.0" y2="477" stroke="#30332e"/>
<text x="145.0" y="493.0" text-anchor="middle" font-family="-apple-system,BlinkMacSystemFont,PingFang SC,Noto Sans CJK SC,sans-serif" font-size="17" font-weight="400" fill="#30332e">0</text>
<line x1="286.0" y1="469" x2="286.0" y2="477" stroke="#30332e"/>
<text x="286.0" y="493.0" text-anchor="middle" font-family="-apple-system,BlinkMacSystemFont,PingFang SC,Noto Sans CJK SC,sans-serif" font-size="17" font-weight="400" fill="#30332e">0.2</text>
<line x1="427.0" y1="469" x2="427.0" y2="477" stroke="#30332e"/>
<text x="427.0" y="493.0" text-anchor="middle" font-family="-apple-system,BlinkMacSystemFont,PingFang SC,Noto Sans CJK SC,sans-serif" font-size="17" font-weight="400" fill="#30332e">0.4</text>
<line x1="568.0" y1="469" x2="568.0" y2="477" stroke="#30332e"/>
<text x="568.0" y="493.0" text-anchor="middle" font-family="-apple-system,BlinkMacSystemFont,PingFang SC,Noto Sans CJK SC,sans-serif" font-size="17" font-weight="400" fill="#30332e">0.6</text>
<line x1="709.0" y1="469" x2="709.0" y2="477" stroke="#30332e"/>
<text x="709.0" y="493.0" text-anchor="middle" font-family="-apple-system,BlinkMacSystemFont,PingFang SC,Noto Sans CJK SC,sans-serif" font-size="17" font-weight="400" fill="#30332e">0.8</text>
<line x1="850.0" y1="469" x2="850.0" y2="477" stroke="#30332e"/>
<text x="850.0" y="493.0" text-anchor="middle" font-family="-apple-system,BlinkMacSystemFont,PingFang SC,Noto Sans CJK SC,sans-serif" font-size="17" font-weight="400" fill="#30332e">1</text>
<text x="497.5" y="523.0" text-anchor="middle" font-family="-apple-system,BlinkMacSystemFont,PingFang SC,Noto Sans CJK SC,sans-serif" font-size="19" font-weight="400" fill="#30332e">拉左侧杠杆的概率</text>
</svg>
