<svg xmlns="http://www.w3.org/2000/svg" width="1200" height="620" viewBox="0 0 1200 620">
<title>图 15.2：为离婚率测量误差建模产生的收缩</title>
<desc>左图显示观测标准误越大，后验离婚率相对观测值的改变量通常越大；右图比较忽略测量误差的灰色回归与纳入误差的蓝色回归，并显示各州后验离婚率及其标准差。</desc>
<rect width="1200" height="620" fill="#fff"/>
<rect x="90.0" y="55.0" width="480.0" height="465.0" fill="#fff" stroke="#30332e" stroke-width="1.5"/>
<rect x="665.0" y="55.0" width="480.0" height="465.0" fill="#fff" stroke="#30332e" stroke-width="1.5"/>
<line x1="125.6" y1="520" x2="125.6" y2="527" stroke="#30332e"/>
<text x="125.6" y="552.0" text-anchor="middle" font-family="-apple-system,BlinkMacSystemFont,PingFang SC,Noto Sans CJK SC,sans-serif" font-size="16" font-weight="400" fill="#30332e">0.2</text>
<line x1="196.7" y1="520" x2="196.7" y2="527" stroke="#30332e"/>
<text x="196.7" y="552.0" text-anchor="middle" font-family="-apple-system,BlinkMacSystemFont,PingFang SC,Noto Sans CJK SC,sans-serif" font-size="16" font-weight="400" fill="#30332e">0.4</text>
<line x1="267.8" y1="520" x2="267.8" y2="527" stroke="#30332e"/>
<text x="267.8" y="552.0" text-anchor="middle" font-family="-apple-system,BlinkMacSystemFont,PingFang SC,Noto Sans CJK SC,sans-serif" font-size="16" font-weight="400" fill="#30332e">0.6</text>
<line x1="338.9" y1="520" x2="338.9" y2="527" stroke="#30332e"/>
<text x="338.9" y="552.0" text-anchor="middle" font-family="-apple-system,BlinkMacSystemFont,PingFang SC,Noto Sans CJK SC,sans-serif" font-size="16" font-weight="400" fill="#30332e">0.8</text>
<line x1="410.0" y1="520" x2="410.0" y2="527" stroke="#30332e"/>
<text x="410.0" y="552.0" text-anchor="middle" font-family="-apple-system,BlinkMacSystemFont,PingFang SC,Noto Sans CJK SC,sans-serif" font-size="16" font-weight="400" fill="#30332e">1.0</text>
<line x1="481.1" y1="520" x2="481.1" y2="527" stroke="#30332e"/>
<text x="481.1" y="552.0" text-anchor="middle" font-family="-apple-system,BlinkMacSystemFont,PingFang SC,Noto Sans CJK SC,sans-serif" font-size="16" font-weight="400" fill="#30332e">1.2</text>
<line x1="552.2" y1="520" x2="552.2" y2="527" stroke="#30332e"/>
<text x="552.2" y="552.0" text-anchor="middle" font-family="-apple-system,BlinkMacSystemFont,PingFang SC,Noto Sans CJK SC,sans-serif" font-size="16" font-weight="400" fill="#30332e">1.4</text>
<line x1="83" y1="478.5" x2="90" y2="478.5" stroke="#30332e"/>
<text x="76.0" y="484.5" text-anchor="end" font-family="-apple-system,BlinkMacSystemFont,PingFang SC,Noto Sans CJK SC,sans-serif" font-size="16" font-weight="400" fill="#30332e">-1.0</text>
<line x1="83" y1="395.4" x2="90" y2="395.4" stroke="#30332e"/>
<text x="76.0" y="401.4" text-anchor="end" font-family="-apple-system,BlinkMacSystemFont,PingFang SC,Noto Sans CJK SC,sans-serif" font-size="16" font-weight="400" fill="#30332e">-0.5</text>
<line x1="83" y1="312.4" x2="90" y2="312.4" stroke="#30332e"/>
<text x="76.0" y="318.4" text-anchor="end" font-family="-apple-system,BlinkMacSystemFont,PingFang SC,Noto Sans CJK SC,sans-serif" font-size="16" font-weight="400" fill="#30332e">0.0</text>
<line x1="83" y1="229.4" x2="90" y2="229.4" stroke="#30332e"/>
<text x="76.0" y="235.4" text-anchor="end" font-family="-apple-system,BlinkMacSystemFont,PingFang SC,Noto Sans CJK SC,sans-serif" font-size="16" font-weight="400" fill="#30332e">0.5</text>
<line x1="83" y1="146.3" x2="90" y2="146.3" stroke="#30332e"/>
<text x="76.0" y="152.3" text-anchor="end" font-family="-apple-system,BlinkMacSystemFont,PingFang SC,Noto Sans CJK SC,sans-serif" font-size="16" font-weight="400" fill="#30332e">1.0</text>
<line x1="83" y1="63.3" x2="90" y2="63.3" stroke="#30332e"/>
<text x="76.0" y="69.3" text-anchor="end" font-family="-apple-system,BlinkMacSystemFont,PingFang SC,Noto Sans CJK SC,sans-serif" font-size="16" font-weight="400" fill="#30332e">1.5</text>
<line x1="90" y1="312.4" x2="570" y2="312.4" stroke="#777" stroke-width="1.5" stroke-dasharray="8 7"/>
<circle cx="208.7" cy="235.8" r="4.5" fill="#fff" stroke="#30332e" stroke-width="1.5"/>
<text x="198.7" y="223.8" text-anchor="middle" font-family="-apple-system,BlinkMacSystemFont,PingFang SC,Noto Sans CJK SC,sans-serif" font-size="14" font-weight="600" fill="#30332e">AL</text>
<circle cx="454.8" cy="169.1" r="4.5" fill="#fff" stroke="#30332e" stroke-width="1.5"/>
<text x="461.8" y="158.1" text-anchor="middle" font-family="-apple-system,BlinkMacSystemFont,PingFang SC,Noto Sans CJK SC,sans-serif" font-size="14" font-weight="600" fill="#30332e">AK</text>
<circle cx="198.9" cy="284.0" r="4.5" fill="#fff" stroke="#30332e" stroke-width="1.5"/>
<circle cx="292.7" cy="200.8" r="4.5" fill="#fff" stroke="#30332e" stroke-width="1.5"/>
<text x="284.7" y="188.8" text-anchor="middle" font-family="-apple-system,BlinkMacSystemFont,PingFang SC,Noto Sans CJK SC,sans-serif" font-size="14" font-weight="600" fill="#30332e">AR</text>
<circle cx="101.3" cy="316.1" r="4.5" fill="#fff" stroke="#30332e" stroke-width="1.5"/>
<circle cx="238.0" cy="249.4" r="4.5" fill="#fff" stroke="#30332e" stroke-width="1.5"/>
<circle cx="204.8" cy="355.6" r="4.5" fill="#fff" stroke="#30332e" stroke-width="1.5"/>
<circle cx="325.9" cy="327.2" r="4.5" fill="#fff" stroke="#30332e" stroke-width="1.5"/>
<circle cx="423.5" cy="310.0" r="4.5" fill="#fff" stroke="#30332e" stroke-width="1.5"/>
<text x="430.5" y="302.0" text-anchor="middle" font-family="-apple-system,BlinkMacSystemFont,PingFang SC,Noto Sans CJK SC,sans-serif" font-size="14" font-weight="600" fill="#30332e">DC</text>
<circle cx="116.9" cy="317.4" r="4.5" fill="#fff" stroke="#30332e" stroke-width="1.5"/>
<circle cx="167.7" cy="277.6" r="4.5" fill="#fff" stroke="#30332e" stroke-width="1.5"/>
<circle cx="302.4" cy="345.8" r="4.5" fill="#fff" stroke="#30332e" stroke-width="1.5"/>
<circle cx="259.5" cy="512.3" r="4.5" fill="#fff" stroke="#30332e" stroke-width="1.5"/>
<text x="251.5" y="533.3" text-anchor="middle" font-family="-apple-system,BlinkMacSystemFont,PingFang SC,Noto Sans CJK SC,sans-serif" font-size="14" font-weight="600" fill="#30332e">ID</text>
<circle cx="142.3" cy="321.4" r="4.5" fill="#fff" stroke="#30332e" stroke-width="1.5"/>
<circle cx="177.5" cy="287.1" r="4.5" fill="#fff" stroke="#30332e" stroke-width="1.5"/>
<circle cx="232.1" cy="312.3" r="4.5" fill="#fff" stroke="#30332e" stroke-width="1.5"/>
<circle cx="267.3" cy="310.9" r="4.5" fill="#fff" stroke="#30332e" stroke-width="1.5"/>
<circle cx="200.9" cy="258.3" r="4.5" fill="#fff" stroke="#30332e" stroke-width="1.5"/>
<circle cx="228.2" cy="266.1" r="4.5" fill="#fff" stroke="#30332e" stroke-width="1.5"/>
<circle cx="343.4" cy="82.8" r="4.5" fill="#fff" stroke="#30332e" stroke-width="1.5"/>
<text x="335.4" y="70.8" text-anchor="middle" font-family="-apple-system,BlinkMacSystemFont,PingFang SC,Noto Sans CJK SC,sans-serif" font-size="14" font-weight="600" fill="#30332e">ME</text>
<circle cx="189.2" cy="302.6" r="4.5" fill="#fff" stroke="#30332e" stroke-width="1.5"/>
<circle cx="156.0" cy="303.8" r="4.5" fill="#fff" stroke="#30332e" stroke-width="1.5"/>
<circle cx="157.9" cy="312.1" r="4.5" fill="#fff" stroke="#30332e" stroke-width="1.5"/>
<circle cx="171.6" cy="351.4" r="4.5" fill="#fff" stroke="#30332e" stroke-width="1.5"/>
<circle cx="251.7" cy="257.2" r="4.5" fill="#fff" stroke="#30332e" stroke-width="1.5"/>
<circle cx="185.3" cy="323.6" r="4.5" fill="#fff" stroke="#30332e" stroke-width="1.5"/>
<circle cx="388.4" cy="361.4" r="4.5" fill="#fff" stroke="#30332e" stroke-width="1.5"/>
<circle cx="238.0" cy="364.8" r="4.5" fill="#fff" stroke="#30332e" stroke-width="1.5"/>
<circle cx="368.8" cy="233.1" r="4.5" fill="#fff" stroke="#30332e" stroke-width="1.5"/>
<text x="360.8" y="221.1" text-anchor="middle" font-family="-apple-system,BlinkMacSystemFont,PingFang SC,Noto Sans CJK SC,sans-serif" font-size="14" font-weight="600" fill="#30332e">NH</text>
<circle cx="144.3" cy="338.3" r="4.5" fill="#fff" stroke="#30332e" stroke-width="1.5"/>
<circle cx="271.2" cy="294.5" r="4.5" fill="#fff" stroke="#30332e" stroke-width="1.5"/>
<circle cx="115.0" cy="317.9" r="4.5" fill="#fff" stroke="#30332e" stroke-width="1.5"/>
<circle cx="148.2" cy="312.4" r="4.5" fill="#fff" stroke="#30332e" stroke-width="1.5"/>
<circle cx="335.6" cy="451.9" r="4.5" fill="#fff" stroke="#30332e" stroke-width="1.5"/>
<text x="327.6" y="472.9" text-anchor="middle" font-family="-apple-system,BlinkMacSystemFont,PingFang SC,Noto Sans CJK SC,sans-serif" font-size="14" font-weight="600" fill="#30332e">ND</text>
<circle cx="142.3" cy="309.5" r="4.5" fill="#fff" stroke="#30332e" stroke-width="1.5"/>
<circle cx="251.7" cy="242.8" r="4.5" fill="#fff" stroke="#30332e" stroke-width="1.5"/>
<circle cx="210.7" cy="286.9" r="4.5" fill="#fff" stroke="#30332e" stroke-width="1.5"/>
<circle cx="138.4" cy="322.6" r="4.5" fill="#fff" stroke="#30332e" stroke-width="1.5"/>
<circle cx="404.0" cy="188.8" r="4.5" fill="#fff" stroke="#30332e" stroke-width="1.5"/>
<text x="411.0" y="181.8" text-anchor="middle" font-family="-apple-system,BlinkMacSystemFont,PingFang SC,Noto Sans CJK SC,sans-serif" font-size="14" font-weight="600" fill="#30332e">RI</text>
<circle cx="191.1" cy="342.2" r="4.5" fill="#fff" stroke="#30332e" stroke-width="1.5"/>
<circle cx="542.6" cy="242.3" r="4.5" fill="#fff" stroke="#30332e" stroke-width="1.5"/>
<text x="549.6" y="235.3" text-anchor="middle" font-family="-apple-system,BlinkMacSystemFont,PingFang SC,Noto Sans CJK SC,sans-serif" font-size="14" font-weight="600" fill="#30332e">SD</text>
<circle cx="200.9" cy="281.0" r="4.5" fill="#fff" stroke="#30332e" stroke-width="1.5"/>
<circle cx="122.8" cy="315.6" r="4.5" fill="#fff" stroke="#30332e" stroke-width="1.5"/>
<circle cx="236.0" cy="391.6" r="4.5" fill="#fff" stroke="#30332e" stroke-width="1.5"/>
<text x="228.0" y="412.6" text-anchor="middle" font-family="-apple-system,BlinkMacSystemFont,PingFang SC,Noto Sans CJK SC,sans-serif" font-size="14" font-weight="600" fill="#30332e">UT</text>
<circle cx="419.6" cy="253.5" r="4.5" fill="#fff" stroke="#30332e" stroke-width="1.5"/>
<text x="426.6" y="245.5" text-anchor="middle" font-family="-apple-system,BlinkMacSystemFont,PingFang SC,Noto Sans CJK SC,sans-serif" font-size="14" font-weight="600" fill="#30332e">VT</text>
<circle cx="156.0" cy="318.8" r="4.5" fill="#fff" stroke="#30332e" stroke-width="1.5"/>
<circle cx="181.4" cy="306.4" r="4.5" fill="#fff" stroke="#30332e" stroke-width="1.5"/>
<circle cx="316.1" cy="294.3" r="4.5" fill="#fff" stroke="#30332e" stroke-width="1.5"/>
<circle cx="165.7" cy="331.7" r="4.5" fill="#fff" stroke="#30332e" stroke-width="1.5"/>
<circle cx="425.5" cy="393.9" r="4.5" fill="#fff" stroke="#30332e" stroke-width="1.5"/>
<text x="432.5" y="413.9" text-anchor="middle" font-family="-apple-system,BlinkMacSystemFont,PingFang SC,Noto Sans CJK SC,sans-serif" font-size="14" font-weight="600" fill="#30332e">WY</text>
<line x1="711.3" y1="520" x2="711.3" y2="527" stroke="#30332e"/>
<text x="711.3" y="552.0" text-anchor="middle" font-family="-apple-system,BlinkMacSystemFont,PingFang SC,Noto Sans CJK SC,sans-serif" font-size="16" font-weight="400" fill="#30332e">-2</text>
<line x1="795.5" y1="520" x2="795.5" y2="527" stroke="#30332e"/>
<text x="795.5" y="552.0" text-anchor="middle" font-family="-apple-system,BlinkMacSystemFont,PingFang SC,Noto Sans CJK SC,sans-serif" font-size="16" font-weight="400" fill="#30332e">-1</text>
<line x1="879.7" y1="520" x2="879.7" y2="527" stroke="#30332e"/>
<text x="879.7" y="552.0" text-anchor="middle" font-family="-apple-system,BlinkMacSystemFont,PingFang SC,Noto Sans CJK SC,sans-serif" font-size="16" font-weight="400" fill="#30332e">0</text>
<line x1="963.9" y1="520" x2="963.9" y2="527" stroke="#30332e"/>
<text x="963.9" y="552.0" text-anchor="middle" font-family="-apple-system,BlinkMacSystemFont,PingFang SC,Noto Sans CJK SC,sans-serif" font-size="16" font-weight="400" fill="#30332e">1</text>
<line x1="1048.2" y1="520" x2="1048.2" y2="527" stroke="#30332e"/>
<text x="1048.2" y="552.0" text-anchor="middle" font-family="-apple-system,BlinkMacSystemFont,PingFang SC,Noto Sans CJK SC,sans-serif" font-size="16" font-weight="400" fill="#30332e">2</text>
<line x1="1132.4" y1="520" x2="1132.4" y2="527" stroke="#30332e"/>
<text x="1132.4" y="552.0" text-anchor="middle" font-family="-apple-system,BlinkMacSystemFont,PingFang SC,Noto Sans CJK SC,sans-serif" font-size="16" font-weight="400" fill="#30332e">3</text>
<line x1="658" y1="477.3" x2="665" y2="477.3" stroke="#30332e"/>
<text x="651.0" y="483.3" text-anchor="end" font-family="-apple-system,BlinkMacSystemFont,PingFang SC,Noto Sans CJK SC,sans-serif" font-size="16" font-weight="400" fill="#30332e">-2</text>
<line x1="658" y1="382.4" x2="665" y2="382.4" stroke="#30332e"/>
<text x="651.0" y="388.4" text-anchor="end" font-family="-apple-system,BlinkMacSystemFont,PingFang SC,Noto Sans CJK SC,sans-serif" font-size="16" font-weight="400" fill="#30332e">-1</text>
<line x1="658" y1="287.5" x2="665" y2="287.5" stroke="#30332e"/>
<text x="651.0" y="293.5" text-anchor="end" font-family="-apple-system,BlinkMacSystemFont,PingFang SC,Noto Sans CJK SC,sans-serif" font-size="16" font-weight="400" fill="#30332e">0</text>
<line x1="658" y1="192.6" x2="665" y2="192.6" stroke="#30332e"/>
<text x="651.0" y="198.6" text-anchor="end" font-family="-apple-system,BlinkMacSystemFont,PingFang SC,Noto Sans CJK SC,sans-serif" font-size="16" font-weight="400" fill="#30332e">1</text>
<line x1="658" y1="97.7" x2="665" y2="97.7" stroke="#30332e"/>
<text x="651.0" y="103.7" text-anchor="end" font-family="-apple-system,BlinkMacSystemFont,PingFang SC,Noto Sans CJK SC,sans-serif" font-size="16" font-weight="400" fill="#30332e">2</text>
<polygon points="665.0,39.3 669.8,44.5 674.6,49.6 679.4,54.8 684.2,60.0 689.0,65.1 693.8,70.3 698.6,75.5 703.4,80.6 708.2,85.8 713.0,91.0 717.8,96.1 722.6,101.3 727.4,106.5 732.2,111.6 737.0,116.8 741.8,122.0 746.6,127.1 751.4,132.3 756.2,137.5 761.0,142.6 765.8,147.8 770.6,153.0 775.4,158.1 780.2,163.3 785.0,168.5 789.8,173.6 794.6,178.8 799.4,184.0 804.2,189.1 809.0,194.3 813.8,199.5 818.6,204.6 823.4,209.8 828.2,215.0 833.0,220.1 837.8,225.3 842.6,230.5 847.4,235.6 852.2,240.8 857.0,245.9 861.8,251.1 866.6,256.3 871.4,261.4 876.2,266.6 881.0,271.6 885.8,276.2 890.6,280.8 895.4,285.3 900.2,289.9 905.0,294.5 909.8,299.0 914.6,303.6 919.4,308.2 924.2,312.8 929.0,317.3 933.8,321.9 938.6,326.5 943.4,331.0 948.2,335.6 953.0,340.2 957.8,344.8 962.6,349.3 967.4,353.9 972.2,358.5 977.0,363.0 981.8,367.6 986.6,372.2 991.4,376.7 996.2,381.3 1001.0,385.9 1005.8,390.5 1010.6,395.0 1015.4,399.6 1020.2,404.2 1025.0,408.7 1029.8,413.3 1034.6,417.9 1039.4,422.5 1044.2,427.0 1049.0,431.6 1053.8,436.2 1058.6,440.7 1063.4,445.3 1068.2,449.9 1073.0,454.5 1077.8,459.0 1082.6,463.6 1087.4,468.2 1092.2,472.7 1097.0,477.3 1101.8,481.9 1106.6,486.4 1111.4,491.0 1116.2,495.6 1121.0,500.2 1125.8,504.7 1130.6,509.3 1135.4,513.9 1140.2,518.4 1145.0,523.0 1145.0,590.1 1140.2,584.9 1135.4,579.7 1130.6,574.6 1125.8,569.4 1121.0,564.2 1116.2,559.1 1111.4,553.9 1106.6,548.7 1101.8,543.6 1097.0,538.4 1092.2,533.2 1087.4,528.1 1082.6,522.9 1077.8,517.7 1073.0,512.6 1068.2,507.4 1063.4,502.2 1058.6,497.1 1053.8,491.9 1049.0,486.7 1044.2,481.6 1039.4,476.4 1034.6,471.2 1029.8,466.1 1025.0,460.9 1020.2,455.7 1015.4,450.6 1010.6,445.4 1005.8,440.3 1001.0,435.1 996.2,429.9 991.4,424.8 986.6,419.6 981.8,414.4 977.0,409.3 972.2,404.1 967.4,398.9 962.6,393.8 957.8,388.6 953.0,383.4 948.2,378.3 943.4,373.1 938.6,367.9 933.8,362.8 929.0,357.6 924.2,352.4 919.4,347.3 914.6,342.1 909.8,336.9 905.0,331.8 900.2,326.6 895.4,321.4 890.6,316.3 885.8,311.1 881.0,305.9 876.2,301.2 871.4,296.6 866.6,292.1 861.8,287.5 857.0,282.9 852.2,278.4 847.4,273.8 842.6,269.2 837.8,264.6 833.0,260.1 828.2,255.5 823.4,250.9 818.6,246.4 813.8,241.8 809.0,237.2 804.2,232.7 799.4,228.1 794.6,223.5 789.8,218.9 785.0,214.4 780.2,209.8 775.4,205.2 770.6,200.7 765.8,196.1 761.0,191.5 756.2,186.9 751.4,182.4 746.6,177.8 741.8,173.2 737.0,168.7 732.2,164.1 727.4,159.5 722.6,154.9 717.8,150.4 713.0,145.8 708.2,141.2 703.4,136.7 698.6,132.1 693.8,127.5 689.0,123.0 684.2,118.4 679.4,113.8 674.6,109.2 669.8,104.7 665.0,100.1" fill="#777" fill-opacity="0.18"/>
<polygon points="665.0,119.5 669.8,123.0 674.6,126.6 679.4,130.1 684.2,133.7 689.0,137.2 693.8,140.8 698.6,144.3 703.4,147.9 708.2,151.4 713.0,154.9 717.8,158.5 722.6,162.0 727.4,165.6 732.2,169.1 737.0,172.7 741.8,176.2 746.6,179.7 751.4,183.3 756.2,186.8 761.0,190.4 765.8,193.9 770.6,197.5 775.4,201.0 780.2,204.5 785.0,208.1 789.8,211.6 794.6,215.2 799.4,218.7 804.2,222.3 809.0,225.8 813.8,229.3 818.6,232.9 823.4,236.4 828.2,240.0 833.0,243.5 837.8,247.1 842.6,250.6 847.4,254.1 852.2,257.7 857.0,261.2 861.8,264.8 866.6,268.3 871.4,271.9 876.2,275.4 881.0,278.8 885.8,281.9 890.6,284.9 895.4,288.0 900.2,291.0 905.0,294.1 909.8,297.2 914.6,300.2 919.4,303.3 924.2,306.3 929.0,309.4 933.8,312.4 938.6,315.5 943.4,318.5 948.2,321.6 953.0,324.7 957.8,327.7 962.6,330.8 967.4,333.8 972.2,336.9 977.0,339.9 981.8,343.0 986.6,346.1 991.4,349.1 996.2,352.2 1001.0,355.2 1005.8,358.3 1010.6,361.3 1015.4,364.4 1020.2,367.4 1025.0,370.5 1029.8,373.6 1034.6,376.6 1039.4,379.7 1044.2,382.7 1049.0,385.8 1053.8,388.8 1058.6,391.9 1063.4,394.9 1068.2,398.0 1073.0,401.1 1077.8,404.1 1082.6,407.2 1087.4,410.2 1092.2,413.3 1097.0,416.3 1101.8,419.4 1106.6,422.5 1111.4,425.5 1116.2,428.6 1121.0,431.6 1125.8,434.7 1130.6,437.7 1135.4,440.8 1140.2,443.8 1145.0,446.9 1145.0,504.2 1140.2,500.6 1135.4,497.1 1130.6,493.5 1125.8,490.0 1121.0,486.5 1116.2,482.9 1111.4,479.4 1106.6,475.8 1101.8,472.3 1097.0,468.7 1092.2,465.2 1087.4,461.7 1082.6,458.1 1077.8,454.6 1073.0,451.0 1068.2,447.5 1063.4,443.9 1058.6,440.4 1053.8,436.9 1049.0,433.3 1044.2,429.8 1039.4,426.2 1034.6,422.7 1029.8,419.1 1025.0,415.6 1020.2,412.1 1015.4,408.5 1010.6,405.0 1005.8,401.4 1001.0,397.9 996.2,394.3 991.4,390.8 986.6,387.3 981.8,383.7 977.0,380.2 972.2,376.6 967.4,373.1 962.6,369.5 957.8,366.0 953.0,362.5 948.2,358.9 943.4,355.4 938.6,351.8 933.8,348.3 929.0,344.7 924.2,341.2 919.4,337.7 914.6,334.1 909.8,330.6 905.0,327.0 900.2,323.5 895.4,319.9 890.6,316.4 885.8,312.9 881.0,309.3 876.2,306.1 871.4,303.1 866.6,300.0 861.8,297.0 857.0,293.9 852.2,290.8 847.4,287.8 842.6,284.7 837.8,281.7 833.0,278.6 828.2,275.6 823.4,272.5 818.6,269.5 813.8,266.4 809.0,263.3 804.2,260.3 799.4,257.2 794.6,254.2 789.8,251.1 785.0,248.1 780.2,245.0 775.4,241.9 770.6,238.9 765.8,235.8 761.0,232.8 756.2,229.7 751.4,226.7 746.6,223.6 741.8,220.6 737.0,217.5 732.2,214.4 727.4,211.4 722.6,208.3 717.8,205.3 713.0,202.2 708.2,199.2 703.4,196.1 698.6,193.0 693.8,190.0 689.0,186.9 684.2,183.9 679.4,180.8 674.6,177.8 669.8,174.7 665.0,171.7" fill="#6670ee" fill-opacity="0.22"/>
<polyline points="665.0,69.7 669.8,74.6 674.6,79.4 679.4,84.3 684.2,89.2 689.0,94.1 693.8,98.9 698.6,103.8 703.4,108.7 708.2,113.5 713.0,118.4 717.8,123.3 722.6,128.1 727.4,133.0 732.2,137.9 737.0,142.7 741.8,147.6 746.6,152.5 751.4,157.3 756.2,162.2 761.0,167.1 765.8,171.9 770.6,176.8 775.4,181.7 780.2,186.5 785.0,191.4 789.8,196.3 794.6,201.2 799.4,206.0 804.2,210.9 809.0,215.8 813.8,220.6 818.6,225.5 823.4,230.4 828.2,235.2 833.0,240.1 837.8,245.0 842.6,249.8 847.4,254.7 852.2,259.6 857.0,264.4 861.8,269.3 866.6,274.2 871.4,279.0 876.2,283.9 881.0,288.8 885.8,293.6 890.6,298.5 895.4,303.4 900.2,308.3 905.0,313.1 909.8,318.0 914.6,322.9 919.4,327.7 924.2,332.6 929.0,337.5 933.8,342.3 938.6,347.2 943.4,352.1 948.2,356.9 953.0,361.8 957.8,366.7 962.6,371.5 967.4,376.4 972.2,381.3 977.0,386.1 981.8,391.0 986.6,395.9 991.4,400.8 996.2,405.6 1001.0,410.5 1005.8,415.4 1010.6,420.2 1015.4,425.1 1020.2,430.0 1025.0,434.8 1029.8,439.7 1034.6,444.6 1039.4,449.4 1044.2,454.3 1049.0,459.2 1053.8,464.0 1058.6,468.9 1063.4,473.8 1068.2,478.6 1073.0,483.5 1077.8,488.4 1082.6,493.2 1087.4,498.1 1092.2,503.0 1097.0,507.9 1101.8,512.7 1106.6,517.6 1111.4,522.5 1116.2,527.3 1121.0,532.2 1125.8,537.1 1130.6,541.9 1135.4,546.8 1140.2,551.7 1145.0,556.5" fill="none" stroke="#6f716d" stroke-width="2.2" stroke-dasharray="9 7"/>
<polyline points="665.0,145.6 669.8,148.9 674.6,152.2 679.4,155.5 684.2,158.8 689.0,162.1 693.8,165.4 698.6,168.7 703.4,172.0 708.2,175.3 713.0,178.6 717.8,181.9 722.6,185.2 727.4,188.5 732.2,191.8 737.0,195.1 741.8,198.4 746.6,201.7 751.4,205.0 756.2,208.3 761.0,211.6 765.8,214.9 770.6,218.2 775.4,221.5 780.2,224.8 785.0,228.1 789.8,231.4 794.6,234.7 799.4,238.0 804.2,241.3 809.0,244.6 813.8,247.9 818.6,251.2 823.4,254.5 828.2,257.8 833.0,261.1 837.8,264.4 842.6,267.7 847.4,271.0 852.2,274.3 857.0,277.6 861.8,280.9 866.6,284.2 871.4,287.5 876.2,290.8 881.0,294.1 885.8,297.4 890.6,300.7 895.4,304.0 900.2,307.3 905.0,310.6 909.8,313.9 914.6,317.2 919.4,320.5 924.2,323.8 929.0,327.1 933.8,330.4 938.6,333.7 943.4,337.0 948.2,340.3 953.0,343.6 957.8,346.9 962.6,350.2 967.4,353.5 972.2,356.8 977.0,360.1 981.8,363.4 986.6,366.7 991.4,370.0 996.2,373.3 1001.0,376.6 1005.8,379.9 1010.6,383.2 1015.4,386.5 1020.2,389.8 1025.0,393.1 1029.8,396.3 1034.6,399.6 1039.4,402.9 1044.2,406.2 1049.0,409.5 1053.8,412.8 1058.6,416.1 1063.4,419.4 1068.2,422.7 1073.0,426.0 1077.8,429.3 1082.6,432.6 1087.4,435.9 1092.2,439.2 1097.0,442.5 1101.8,445.8 1106.6,449.1 1111.4,452.4 1116.2,455.7 1121.0,459.0 1125.8,462.3 1130.6,465.6 1135.4,468.9 1140.2,472.2 1145.0,475.5" fill="none" stroke="#6670ee" stroke-width="3"/>
<line x1="828.7" y1="140.9" x2="828.7" y2="207.7" stroke="#30332e" stroke-width="1.25"/>
<circle cx="828.7" cy="174.3" r="4.5" fill="#fff" stroke="#30332e" stroke-width="1.5"/>
<line x1="821.9" y1="172.6" x2="821.9" y2="273.1" stroke="#30332e" stroke-width="1.25"/>
<circle cx="821.9" cy="222.8" r="4.5" fill="#fff" stroke="#30332e" stroke-width="1.5"/>
<line x1="862.5" y1="213.8" x2="862.5" y2="277.7" stroke="#30332e" stroke-width="1.25"/>
<circle cx="862.5" cy="245.8" r="4.5" fill="#fff" stroke="#30332e" stroke-width="1.5"/>
<line x1="761.0" y1="110.2" x2="761.0" y2="195.0" stroke="#30332e" stroke-width="1.25"/>
<circle cx="761.0" cy="152.6" r="4.5" fill="#fff" stroke="#30332e" stroke-width="1.5"/>
<line x1="930.3" y1="361.1" x2="930.3" y2="385.6" stroke="#30332e" stroke-width="1.25"/>
<circle cx="930.3" cy="373.3" r="4.5" fill="#fff" stroke="#30332e" stroke-width="1.5"/>
<line x1="855.8" y1="186.7" x2="855.8" y2="261.0" stroke="#30332e" stroke-width="1.25"/>
<circle cx="855.8" cy="223.9" r="4.5" fill="#fff" stroke="#30332e" stroke-width="1.5"/>
<line x1="984.4" y1="385.8" x2="984.4" y2="451.4" stroke="#30332e" stroke-width="1.25"/>
<circle cx="984.4" cy="418.6" r="4.5" fill="#fff" stroke="#30332e" stroke-width="1.5"/>
<line x1="916.7" y1="275.3" x2="916.7" y2="364.9" stroke="#30332e" stroke-width="1.25"/>
<circle cx="916.7" cy="320.1" r="4.5" fill="#fff" stroke="#30332e" stroke-width="1.5"/>
<line x1="1126.6" y1="416.2" x2="1126.6" y2="514.8" stroke="#30332e" stroke-width="1.25"/>
<circle cx="1126.6" cy="465.5" r="4.5" fill="#fff" stroke="#30332e" stroke-width="1.5"/>
<line x1="903.2" y1="330.5" x2="903.2" y2="362.6" stroke="#30332e" stroke-width="1.25"/>
<circle cx="903.2" cy="346.6" r="4.5" fill="#fff" stroke="#30332e" stroke-width="1.5"/>
<line x1="869.3" y1="186.3" x2="869.3" y2="239.7" stroke="#30332e" stroke-width="1.25"/>
<circle cx="869.3" cy="213.0" r="4.5" fill="#fff" stroke="#30332e" stroke-width="1.5"/>
<line x1="937.0" y1="297.6" x2="937.0" y2="383.9" stroke="#30332e" stroke-width="1.25"/>
<circle cx="937.0" cy="340.7" r="4.5" fill="#fff" stroke="#30332e" stroke-width="1.5"/>
<line x1="686.5" y1="237.4" x2="686.5" y2="316.3" stroke="#30332e" stroke-width="1.25"/>
<circle cx="686.5" cy="276.9" r="4.5" fill="#fff" stroke="#30332e" stroke-width="1.5"/>
<text x="676.5" y="297.9" text-anchor="middle" font-family="-apple-system,BlinkMacSystemFont,PingFang SC,Noto Sans CJK SC,sans-serif" font-size="14" font-weight="600" fill="#30332e">ID</text>
<line x1="943.8" y1="348.6" x2="943.8" y2="392.0" stroke="#30332e" stroke-width="1.25"/>
<circle cx="943.8" cy="370.3" r="4.5" fill="#fff" stroke="#30332e" stroke-width="1.5"/>
<line x1="855.8" y1="205.1" x2="855.8" y2="262.0" stroke="#30332e" stroke-width="1.25"/>
<circle cx="855.8" cy="233.6" r="4.5" fill="#fff" stroke="#30332e" stroke-width="1.5"/>
<line x1="835.5" y1="224.5" x2="835.5" y2="297.3" stroke="#30332e" stroke-width="1.25"/>
<circle cx="835.5" cy="260.9" r="4.5" fill="#fff" stroke="#30332e" stroke-width="1.5"/>
<line x1="808.4" y1="200.6" x2="808.4" y2="281.0" stroke="#30332e" stroke-width="1.25"/>
<circle cx="808.4" cy="240.8" r="4.5" fill="#fff" stroke="#30332e" stroke-width="1.5"/>
<line x1="794.8" y1="134.4" x2="794.8" y2="198.9" stroke="#30332e" stroke-width="1.25"/>
<circle cx="794.8" cy="166.6" r="4.5" fill="#fff" stroke="#30332e" stroke-width="1.5"/>
<line x1="869.3" y1="209.6" x2="869.3" y2="281.5" stroke="#30332e" stroke-width="1.25"/>
<circle cx="869.3" cy="245.6" r="4.5" fill="#fff" stroke="#30332e" stroke-width="1.5"/>
<line x1="903.2" y1="200.3" x2="903.2" y2="291.9" stroke="#30332e" stroke-width="1.25"/>
<circle cx="903.2" cy="246.1" r="4.5" fill="#fff" stroke="#30332e" stroke-width="1.5"/>
<text x="911.2" y="234.1" text-anchor="middle" font-family="-apple-system,BlinkMacSystemFont,PingFang SC,Noto Sans CJK SC,sans-serif" font-size="14" font-weight="600" fill="#30332e">ME</text>
<line x1="964.1" y1="309.0" x2="964.1" y2="369.8" stroke="#30332e" stroke-width="1.25"/>
<circle cx="964.1" cy="339.4" r="4.5" fill="#fff" stroke="#30332e" stroke-width="1.5"/>
<line x1="1045.4" y1="366.3" x2="1045.4" y2="415.3" stroke="#30332e" stroke-width="1.25"/>
<circle cx="1045.4" cy="390.8" r="4.5" fill="#fff" stroke="#30332e" stroke-width="1.5"/>
<line x1="903.2" y1="288.2" x2="903.2" y2="338.0" stroke="#30332e" stroke-width="1.25"/>
<circle cx="903.2" cy="313.1" r="4.5" fill="#fff" stroke="#30332e" stroke-width="1.5"/>
<line x1="896.4" y1="357.1" x2="896.4" y2="411.9" stroke="#30332e" stroke-width="1.25"/>
<circle cx="896.4" cy="384.5" r="4.5" fill="#fff" stroke="#30332e" stroke-width="1.5"/>
<text x="904.4" y="404.5" text-anchor="middle" font-family="-apple-system,BlinkMacSystemFont,PingFang SC,Noto Sans CJK SC,sans-serif" font-size="14" font-weight="600" fill="#30332e">MN</text>
<line x1="862.5" y1="206.8" x2="862.5" y2="284.1" stroke="#30332e" stroke-width="1.25"/>
<circle cx="862.5" cy="245.5" r="4.5" fill="#fff" stroke="#30332e" stroke-width="1.5"/>
<line x1="849.0" y1="261.2" x2="849.0" y2="320.7" stroke="#30332e" stroke-width="1.25"/>
<circle cx="849.0" cy="290.9" r="4.5" fill="#fff" stroke="#30332e" stroke-width="1.5"/>
<line x1="855.8" y1="242.2" x2="855.8" y2="338.1" stroke="#30332e" stroke-width="1.25"/>
<circle cx="855.8" cy="290.2" r="4.5" fill="#fff" stroke="#30332e" stroke-width="1.5"/>
<line x1="835.5" y1="266.7" x2="835.5" y2="341.0" stroke="#30332e" stroke-width="1.25"/>
<circle cx="835.5" cy="303.8" r="4.5" fill="#fff" stroke="#30332e" stroke-width="1.5"/>
<line x1="930.3" y1="264.2" x2="930.3" y2="358.4" stroke="#30332e" stroke-width="1.25"/>
<circle cx="930.3" cy="311.3" r="4.5" fill="#fff" stroke="#30332e" stroke-width="1.5"/>
<line x1="991.2" y1="437.6" x2="991.2" y2="481.8" stroke="#30332e" stroke-width="1.25"/>
<circle cx="991.2" cy="459.7" r="4.5" fill="#fff" stroke="#30332e" stroke-width="1.5"/>
<line x1="862.5" y1="230.5" x2="862.5" y2="311.7" stroke="#30332e" stroke-width="1.25"/>
<circle cx="862.5" cy="271.1" r="4.5" fill="#fff" stroke="#30332e" stroke-width="1.5"/>
<line x1="1038.6" y1="429.8" x2="1038.6" y2="460.9" stroke="#30332e" stroke-width="1.25"/>
<circle cx="1038.6" cy="445.3" r="4.5" fill="#fff" stroke="#30332e" stroke-width="1.5"/>
<line x1="855.8" y1="253.5" x2="855.8" y2="299.3" stroke="#30332e" stroke-width="1.25"/>
<circle cx="855.8" cy="276.4" r="4.5" fill="#fff" stroke="#30332e" stroke-width="1.5"/>
<line x1="828.7" y1="250.4" x2="828.7" y2="341.1" stroke="#30332e" stroke-width="1.25"/>
<circle cx="828.7" cy="295.8" r="4.5" fill="#fff" stroke="#30332e" stroke-width="1.5"/>
<text x="836.7" y="315.8" text-anchor="middle" font-family="-apple-system,BlinkMacSystemFont,PingFang SC,Noto Sans CJK SC,sans-serif" font-size="14" font-weight="600" fill="#30332e">ND</text>
<line x1="896.4" y1="277.3" x2="896.4" y2="320.6" stroke="#30332e" stroke-width="1.25"/>
<circle cx="896.4" cy="298.9" r="4.5" fill="#fff" stroke="#30332e" stroke-width="1.5"/>
<line x1="767.7" y1="126.4" x2="767.7" y2="203.7" stroke="#30332e" stroke-width="1.25"/>
<circle cx="767.7" cy="165.1" r="4.5" fill="#fff" stroke="#30332e" stroke-width="1.5"/>
<line x1="876.1" y1="231.3" x2="876.1" y2="298.6" stroke="#30332e" stroke-width="1.25"/>
<circle cx="876.1" cy="265.0" r="4.5" fill="#fff" stroke="#30332e" stroke-width="1.5"/>
<line x1="950.6" y1="364.4" x2="950.6" y2="406.1" stroke="#30332e" stroke-width="1.25"/>
<circle cx="950.6" cy="385.3" r="4.5" fill="#fff" stroke="#30332e" stroke-width="1.5"/>
<line x1="1025.0" y1="324.6" x2="1025.0" y2="421.8" stroke="#30332e" stroke-width="1.25"/>
<circle cx="1025.0" cy="373.2" r="4.5" fill="#fff" stroke="#30332e" stroke-width="1.5"/>
<text x="1033.0" y="364.2" text-anchor="middle" font-family="-apple-system,BlinkMacSystemFont,PingFang SC,Noto Sans CJK SC,sans-serif" font-size="14" font-weight="600" fill="#30332e">RI</text>
<line x1="903.2" y1="322.5" x2="903.2" y2="384.0" stroke="#30332e" stroke-width="1.25"/>
<circle cx="903.2" cy="353.3" r="4.5" fill="#fff" stroke="#30332e" stroke-width="1.5"/>
<line x1="849.0" y1="212.2" x2="849.0" y2="316.6" stroke="#30332e" stroke-width="1.25"/>
<circle cx="849.0" cy="264.4" r="4.5" fill="#fff" stroke="#30332e" stroke-width="1.5"/>
<line x1="821.9" y1="184.0" x2="821.9" y2="248.5" stroke="#30332e" stroke-width="1.25"/>
<circle cx="821.9" cy="216.2" r="4.5" fill="#fff" stroke="#30332e" stroke-width="1.5"/>
<line x1="821.9" y1="252.0" x2="821.9" y2="286.8" stroke="#30332e" stroke-width="1.25"/>
<circle cx="821.9" cy="269.4" r="4.5" fill="#fff" stroke="#30332e" stroke-width="1.5"/>
<line x1="693.3" y1="178.7" x2="693.3" y2="252.5" stroke="#30332e" stroke-width="1.25"/>
<circle cx="693.3" cy="215.6" r="4.5" fill="#fff" stroke="#30332e" stroke-width="1.5"/>
<line x1="937.0" y1="276.6" x2="937.0" y2="374.9" stroke="#30332e" stroke-width="1.25"/>
<circle cx="937.0" cy="325.7" r="4.5" fill="#fff" stroke="#30332e" stroke-width="1.5"/>
<line x1="903.2" y1="300.4" x2="903.2" y2="349.4" stroke="#30332e" stroke-width="1.25"/>
<circle cx="903.2" cy="324.9" r="4.5" fill="#fff" stroke="#30332e" stroke-width="1.5"/>
<line x1="869.3" y1="245.6" x2="869.3" y2="303.8" stroke="#30332e" stroke-width="1.25"/>
<circle cx="869.3" cy="274.7" r="4.5" fill="#fff" stroke="#30332e" stroke-width="1.5"/>
<line x1="808.4" y1="190.5" x2="808.4" y2="278.8" stroke="#30332e" stroke-width="1.25"/>
<circle cx="808.4" cy="234.7" r="4.5" fill="#fff" stroke="#30332e" stroke-width="1.5"/>
<line x1="896.4" y1="322.5" x2="896.4" y2="375.1" stroke="#30332e" stroke-width="1.25"/>
<circle cx="896.4" cy="348.8" r="4.5" fill="#fff" stroke="#30332e" stroke-width="1.5"/>
<line x1="754.2" y1="159.7" x2="754.2" y2="258.4" stroke="#30332e" stroke-width="1.25"/>
<circle cx="754.2" cy="209.1" r="4.5" fill="#fff" stroke="#30332e" stroke-width="1.5"/>
<text x="762.2" y="200.1" text-anchor="middle" font-family="-apple-system,BlinkMacSystemFont,PingFang SC,Noto Sans CJK SC,sans-serif" font-size="14" font-weight="600" fill="#30332e">WY</text>
<text x="330.0" y="598.0" text-anchor="middle" font-family="-apple-system,BlinkMacSystemFont,PingFang SC,Noto Sans CJK SC,sans-serif" font-size="19" font-weight="600" fill="#30332e">D_sd</text>
<text x="905.0" y="598.0" text-anchor="middle" font-family="-apple-system,BlinkMacSystemFont,PingFang SC,Noto Sans CJK SC,sans-serif" font-size="19" font-weight="600" fill="#30332e">结婚年龄中位数（标准化）</text>
<text x="28.0" y="287.0" text-anchor="middle" font-family="-apple-system,BlinkMacSystemFont,PingFang SC,Noto Sans CJK SC,sans-serif" font-size="19" font-weight="600" fill="#30332e" transform="rotate(-90 28 287)">D_est − D_obs</text>
<text x="603.0" y="287.0" text-anchor="middle" font-family="-apple-system,BlinkMacSystemFont,PingFang SC,Noto Sans CJK SC,sans-serif" font-size="19" font-weight="600" fill="#30332e" transform="rotate(-90 603 287)">离婚率（标准化）</text>
</svg>