<svg xmlns="http://www.w3.org/2000/svg" width="920" height="650" viewBox="0 0 920 650">
<title>图 14.6：中心化与非中心化模型的有效样本量</title>
<desc>横轴是中心化模型每个参数的有效样本量，纵轴是非中心化模型的有效样本量。绝大多数点远高于等值虚线，说明非中心化模型的抽样效率高得多。</desc>
<rect width="920" height="650" fill="#fff"/>
<rect x="105.0" y="65.0" width="745.0" height="470.0" fill="#fff" stroke="#30332e" stroke-width="1.5"/>
<line x1="680.7" y1="535.0" x2="850.0" y2="451.1" stroke="#30332e" stroke-width="2" stroke-dasharray="10 8"/>
<line x1="105.0" y1="535.0" x2="105.0" y2="542.0" stroke="#30332e" stroke-width="1.4"/>
<text x="105.0" y="565.0" text-anchor="middle" font-family="-apple-system,BlinkMacSystemFont,PingFang SC,Noto Sans CJK SC,sans-serif" font-size="17" font-weight="400" fill="#30332e">0</text>
<line x1="240.5" y1="535.0" x2="240.5" y2="542.0" stroke="#30332e" stroke-width="1.4"/>
<text x="240.5" y="565.0" text-anchor="middle" font-family="-apple-system,BlinkMacSystemFont,PingFang SC,Noto Sans CJK SC,sans-serif" font-size="17" font-weight="400" fill="#30332e">200</text>
<line x1="375.9" y1="535.0" x2="375.9" y2="542.0" stroke="#30332e" stroke-width="1.4"/>
<text x="375.9" y="565.0" text-anchor="middle" font-family="-apple-system,BlinkMacSystemFont,PingFang SC,Noto Sans CJK SC,sans-serif" font-size="17" font-weight="400" fill="#30332e">400</text>
<line x1="511.4" y1="535.0" x2="511.4" y2="542.0" stroke="#30332e" stroke-width="1.4"/>
<text x="511.4" y="565.0" text-anchor="middle" font-family="-apple-system,BlinkMacSystemFont,PingFang SC,Noto Sans CJK SC,sans-serif" font-size="17" font-weight="400" fill="#30332e">600</text>
<line x1="646.8" y1="535.0" x2="646.8" y2="542.0" stroke="#30332e" stroke-width="1.4"/>
<text x="646.8" y="565.0" text-anchor="middle" font-family="-apple-system,BlinkMacSystemFont,PingFang SC,Noto Sans CJK SC,sans-serif" font-size="17" font-weight="400" fill="#30332e">800</text>
<line x1="782.3" y1="535.0" x2="782.3" y2="542.0" stroke="#30332e" stroke-width="1.4"/>
<text x="782.3" y="565.0" text-anchor="middle" font-family="-apple-system,BlinkMacSystemFont,PingFang SC,Noto Sans CJK SC,sans-serif" font-size="17" font-weight="400" fill="#30332e">1000</text>
<line x1="98.0" y1="484.6" x2="105.0" y2="484.6" stroke="#30332e" stroke-width="1.4"/>
<text x="90.0" y="490.6" text-anchor="end" font-family="-apple-system,BlinkMacSystemFont,PingFang SC,Noto Sans CJK SC,sans-serif" font-size="17" font-weight="400" fill="#30332e">1000</text>
<line x1="98.0" y1="417.5" x2="105.0" y2="417.5" stroke="#30332e" stroke-width="1.4"/>
<text x="90.0" y="423.5" text-anchor="end" font-family="-apple-system,BlinkMacSystemFont,PingFang SC,Noto Sans CJK SC,sans-serif" font-size="17" font-weight="400" fill="#30332e">1200</text>
<line x1="98.0" y1="350.4" x2="105.0" y2="350.4" stroke="#30332e" stroke-width="1.4"/>
<text x="90.0" y="356.4" text-anchor="end" font-family="-apple-system,BlinkMacSystemFont,PingFang SC,Noto Sans CJK SC,sans-serif" font-size="17" font-weight="400" fill="#30332e">1400</text>
<line x1="98.0" y1="283.2" x2="105.0" y2="283.2" stroke="#30332e" stroke-width="1.4"/>
<text x="90.0" y="289.2" text-anchor="end" font-family="-apple-system,BlinkMacSystemFont,PingFang SC,Noto Sans CJK SC,sans-serif" font-size="17" font-weight="400" fill="#30332e">1600</text>
<line x1="98.0" y1="216.1" x2="105.0" y2="216.1" stroke="#30332e" stroke-width="1.4"/>
<text x="90.0" y="222.1" text-anchor="end" font-family="-apple-system,BlinkMacSystemFont,PingFang SC,Noto Sans CJK SC,sans-serif" font-size="17" font-weight="400" fill="#30332e">1800</text>
<line x1="98.0" y1="148.9" x2="105.0" y2="148.9" stroke="#30332e" stroke-width="1.4"/>
<text x="90.0" y="154.9" text-anchor="end" font-family="-apple-system,BlinkMacSystemFont,PingFang SC,Noto Sans CJK SC,sans-serif" font-size="17" font-weight="400" fill="#30332e">2000</text>
<line x1="98.0" y1="81.8" x2="105.0" y2="81.8" stroke="#30332e" stroke-width="1.4"/>
<text x="90.0" y="87.8" text-anchor="end" font-family="-apple-system,BlinkMacSystemFont,PingFang SC,Noto Sans CJK SC,sans-serif" font-size="17" font-weight="400" fill="#30332e">2200</text>
<circle cx="128.0" cy="148.9" r="6" fill="#fff" stroke="#30332e" stroke-width="2.2"/>
<circle cx="149.7" cy="283.2" r="6" fill="#fff" stroke="#30332e" stroke-width="2.2"/>
<circle cx="157.2" cy="419.2" r="6" fill="#fff" stroke="#30332e" stroke-width="2.2"/>
<circle cx="166.6" cy="293.3" r="6" fill="#fff" stroke="#30332e" stroke-width="2.2"/>
<circle cx="178.1" cy="486.3" r="6" fill="#fff" stroke="#30332e" stroke-width="2.2"/>
<circle cx="190.3" cy="98.6" r="6" fill="#fff" stroke="#30332e" stroke-width="2.2"/>
<circle cx="213.4" cy="320.1" r="6" fill="#fff" stroke="#30332e" stroke-width="2.2"/>
<circle cx="233.7" cy="125.4" r="6" fill="#fff" stroke="#30332e" stroke-width="2.2"/>
<circle cx="254.0" cy="184.2" r="6" fill="#fff" stroke="#30332e" stroke-width="2.2"/>
<circle cx="270.3" cy="268.1" r="6" fill="#fff" stroke="#30332e" stroke-width="2.2"/>
<circle cx="285.8" cy="397.4" r="6" fill="#fff" stroke="#30332e" stroke-width="2.2"/>
<circle cx="291.9" cy="338.6" r="6" fill="#fff" stroke="#30332e" stroke-width="2.2"/>
<circle cx="305.5" cy="373.9" r="6" fill="#fff" stroke="#30332e" stroke-width="2.2"/>
<circle cx="321.0" cy="394.0" r="6" fill="#fff" stroke="#30332e" stroke-width="2.2"/>
<circle cx="337.3" cy="340.3" r="6" fill="#fff" stroke="#30332e" stroke-width="2.2"/>
<circle cx="348.8" cy="370.5" r="6" fill="#fff" stroke="#30332e" stroke-width="2.2"/>
<circle cx="360.3" cy="409.1" r="6" fill="#fff" stroke="#30332e" stroke-width="2.2"/>
<circle cx="390.1" cy="415.8" r="6" fill="#fff" stroke="#30332e" stroke-width="2.2"/>
<circle cx="407.7" cy="397.4" r="6" fill="#fff" stroke="#30332e" stroke-width="2.2"/>
<circle cx="418.6" cy="382.2" r="6" fill="#fff" stroke="#30332e" stroke-width="2.2"/>
<circle cx="436.2" cy="357.1" r="6" fill="#fff" stroke="#30332e" stroke-width="2.2"/>
<circle cx="448.4" cy="234.5" r="6" fill="#fff" stroke="#30332e" stroke-width="2.2"/>
<circle cx="457.2" cy="182.5" r="6" fill="#fff" stroke="#30332e" stroke-width="2.2"/>
<circle cx="466.7" cy="375.5" r="6" fill="#fff" stroke="#30332e" stroke-width="2.2"/>
<circle cx="472.1" cy="427.6" r="6" fill="#fff" stroke="#30332e" stroke-width="2.2"/>
<circle cx="482.9" cy="410.8" r="6" fill="#fff" stroke="#30332e" stroke-width="2.2"/>
<circle cx="499.9" cy="454.4" r="6" fill="#fff" stroke="#30332e" stroke-width="2.2"/>
<circle cx="516.1" cy="137.2" r="6" fill="#fff" stroke="#30332e" stroke-width="2.2"/>
<circle cx="531.0" cy="368.8" r="6" fill="#fff" stroke="#30332e" stroke-width="2.2"/>
<circle cx="537.1" cy="199.3" r="6" fill="#fff" stroke="#30332e" stroke-width="2.2"/>
<circle cx="544.5" cy="212.7" r="6" fill="#fff" stroke="#30332e" stroke-width="2.2"/>
<circle cx="548.6" cy="375.5" r="6" fill="#fff" stroke="#30332e" stroke-width="2.2"/>
<circle cx="562.8" cy="266.4" r="6" fill="#fff" stroke="#30332e" stroke-width="2.2"/>
<circle cx="573.7" cy="414.1" r="6" fill="#fff" stroke="#30332e" stroke-width="2.2"/>
<circle cx="583.2" cy="236.2" r="6" fill="#fff" stroke="#30332e" stroke-width="2.2"/>
<circle cx="592.0" cy="179.1" r="6" fill="#fff" stroke="#30332e" stroke-width="2.2"/>
<circle cx="600.1" cy="192.6" r="6" fill="#fff" stroke="#30332e" stroke-width="2.2"/>
<circle cx="610.2" cy="437.6" r="6" fill="#fff" stroke="#30332e" stroke-width="2.2"/>
<circle cx="618.4" cy="363.8" r="6" fill="#fff" stroke="#30332e" stroke-width="2.2"/>
<circle cx="623.1" cy="459.5" r="6" fill="#fff" stroke="#30332e" stroke-width="2.2"/>
<circle cx="630.6" cy="289.9" r="6" fill="#fff" stroke="#30332e" stroke-width="2.2"/>
<circle cx="642.1" cy="373.9" r="6" fill="#fff" stroke="#30332e" stroke-width="2.2"/>
<circle cx="650.9" cy="159.0" r="6" fill="#fff" stroke="#30332e" stroke-width="2.2"/>
<circle cx="660.4" cy="383.9" r="6" fill="#fff" stroke="#30332e" stroke-width="2.2"/>
<circle cx="666.5" cy="338.6" r="6" fill="#fff" stroke="#30332e" stroke-width="2.2"/>
<circle cx="673.9" cy="516.5" r="6" fill="#fff" stroke="#30332e" stroke-width="2.2"/>
<circle cx="681.4" cy="390.6" r="6" fill="#fff" stroke="#30332e" stroke-width="2.2"/>
<circle cx="691.5" cy="370.5" r="6" fill="#fff" stroke="#30332e" stroke-width="2.2"/>
<circle cx="704.4" cy="385.6" r="6" fill="#fff" stroke="#30332e" stroke-width="2.2"/>
<circle cx="732.2" cy="417.5" r="6" fill="#fff" stroke="#30332e" stroke-width="2.2"/>
<circle cx="748.4" cy="390.6" r="6" fill="#fff" stroke="#30332e" stroke-width="2.2"/>
<circle cx="802.6" cy="236.2" r="6" fill="#fff" stroke="#30332e" stroke-width="2.2"/>
<text x="477.5" y="610.0" text-anchor="middle" font-family="-apple-system,BlinkMacSystemFont,PingFang SC,Noto Sans CJK SC,sans-serif" font-size="21" font-weight="600" fill="#30332e">中心化（默认）</text>
<text x="28.0" y="300.0" text-anchor="middle" font-family="-apple-system,BlinkMacSystemFont,PingFang SC,Noto Sans CJK SC,sans-serif" font-size="21" font-weight="600" fill="#30332e" transform="rotate(-90 28 300.0)">非中心化（Cholesky）</text>
</svg>