<svg xmlns="http://www.w3.org/2000/svg" width="1240" height="530" viewBox="0 0 1240 530">
<title>图 14.7：七位行动者的观测比例与后验预测</title>
<desc>蓝色点和线是原始数据，黑色点、线和百分之八十九相容区间是交叉分类变化效应模型的后验预测。行动者二的极端观测被部分汇聚向内收缩。</desc>
<rect width="1240" height="530" fill="#fff"/>
<line x1="95.0" y1="430.0" x2="1195.0" y2="430.0" stroke="#30332e" stroke-width="1.5"/>
<line x1="95.0" y1="250.0" x2="1195.0" y2="250.0" stroke="#30332e" stroke-width="1.5" stroke-dasharray="10 8"/>
<line x1="88.0" y1="430.0" x2="95.0" y2="430.0" stroke="#30332e"/>
<text x="80.0" y="436.0" text-anchor="end" font-family="-apple-system,BlinkMacSystemFont,PingFang SC,Noto Sans CJK SC,sans-serif" font-size="17" font-weight="400" fill="#30332e">0</text>
<line x1="88.0" y1="250.0" x2="95.0" y2="250.0" stroke="#30332e"/>
<text x="80.0" y="256.0" text-anchor="end" font-family="-apple-system,BlinkMacSystemFont,PingFang SC,Noto Sans CJK SC,sans-serif" font-size="17" font-weight="400" fill="#30332e">0.5</text>
<line x1="88.0" y1="70.0" x2="95.0" y2="70.0" stroke="#30332e"/>
<text x="80.0" y="76.0" text-anchor="end" font-family="-apple-system,BlinkMacSystemFont,PingFang SC,Noto Sans CJK SC,sans-serif" font-size="17" font-weight="400" fill="#30332e">1</text>
<text x="173.6" y="46.0" text-anchor="middle" font-family="-apple-system,BlinkMacSystemFont,PingFang SC,Noto Sans CJK SC,sans-serif" font-size="18" font-weight="400" fill="#30332e">行动者 1</text>
<polyline points="109.6,310.0 188.2,330.0" fill="none" stroke="#6670ee" stroke-width="2.7"/>
<polyline points="119.6,318.4 198.2,325.6" fill="none" stroke="#30332e" stroke-width="2.7"/>
<polyline points="148.9,250.0 227.5,230.0" fill="none" stroke="#6670ee" stroke-width="2.7"/>
<polyline points="158.9,239.2 237.5,246.4" fill="none" stroke="#30332e" stroke-width="2.7"/>
<line x1="119.6" y1="379.6" x2="119.6" y2="232.0" stroke="#30332e" stroke-width="1.5"/>
<circle cx="109.6" cy="310.0" r="5.5" fill="#fff" stroke="#6670ee" stroke-width="2.4"/>
<circle cx="119.6" cy="318.4" r="5.5" fill="#fff" stroke="#30332e" stroke-width="2"/>
<line x1="158.9" y1="314.8" x2="158.9" y2="160.0" stroke="#30332e" stroke-width="1.5"/>
<circle cx="148.9" cy="250.0" r="5.5" fill="#fff" stroke="#6670ee" stroke-width="2.4"/>
<circle cx="158.9" cy="239.2" r="5.5" fill="#fff" stroke="#30332e" stroke-width="2"/>
<line x1="198.2" y1="383.2" x2="198.2" y2="239.2" stroke="#30332e" stroke-width="1.5"/>
<circle cx="188.2" cy="330.0" r="5.5" fill="#6670ee" stroke="#6670ee" stroke-width="2.4"/>
<circle cx="198.2" cy="325.6" r="5.5" fill="#30332e" stroke="#30332e" stroke-width="2"/>
<line x1="237.5" y1="325.6" x2="237.5" y2="167.2" stroke="#30332e" stroke-width="1.5"/>
<circle cx="227.5" cy="230.0" r="5.5" fill="#6670ee" stroke="#6670ee" stroke-width="2.4"/>
<circle cx="237.5" cy="246.4" r="5.5" fill="#30332e" stroke="#30332e" stroke-width="2"/>
<line x1="252.1" y1="58.0" x2="252.1" y2="430.0" stroke="#30332e" stroke-width="1.4"/>
<text x="330.7" y="46.0" text-anchor="middle" font-family="-apple-system,BlinkMacSystemFont,PingFang SC,Noto Sans CJK SC,sans-serif" font-size="18" font-weight="400" fill="#30332e">行动者 2</text>
<polyline points="266.8,70.0 345.4,70.0" fill="none" stroke="#6670ee" stroke-width="2.7"/>
<polyline points="276.8,91.6 355.4,88.0" fill="none" stroke="#30332e" stroke-width="2.7"/>
<polyline points="306.1,70.0 384.6,70.0" fill="none" stroke="#6670ee" stroke-width="2.7"/>
<polyline points="316.1,80.8 394.6,77.2" fill="none" stroke="#30332e" stroke-width="2.7"/>
<line x1="276.8" y1="185.2" x2="276.8" y2="71.8" stroke="#30332e" stroke-width="1.5"/>
<circle cx="266.8" cy="70.0" r="5.5" fill="#fff" stroke="#6670ee" stroke-width="2.4"/>
<circle cx="276.8" cy="91.6" r="5.5" fill="#fff" stroke="#30332e" stroke-width="2"/>
<line x1="316.1" y1="152.8" x2="316.1" y2="71.1" stroke="#30332e" stroke-width="1.5"/>
<circle cx="306.1" cy="70.0" r="5.5" fill="#fff" stroke="#6670ee" stroke-width="2.4"/>
<circle cx="316.1" cy="80.8" r="5.5" fill="#fff" stroke="#30332e" stroke-width="2"/>
<line x1="355.4" y1="178.0" x2="355.4" y2="71.8" stroke="#30332e" stroke-width="1.5"/>
<circle cx="345.4" cy="70.0" r="5.5" fill="#6670ee" stroke="#6670ee" stroke-width="2.4"/>
<circle cx="355.4" cy="88.0" r="5.5" fill="#30332e" stroke="#30332e" stroke-width="2"/>
<line x1="394.6" y1="134.8" x2="394.6" y2="70.4" stroke="#30332e" stroke-width="1.5"/>
<circle cx="384.6" cy="70.0" r="5.5" fill="#6670ee" stroke="#6670ee" stroke-width="2.4"/>
<circle cx="394.6" cy="77.2" r="5.5" fill="#30332e" stroke="#30332e" stroke-width="2"/>
<line x1="409.3" y1="58.0" x2="409.3" y2="430.0" stroke="#30332e" stroke-width="1.4"/>
<text x="487.9" y="46.0" text-anchor="middle" font-family="-apple-system,BlinkMacSystemFont,PingFang SC,Noto Sans CJK SC,sans-serif" font-size="18" font-weight="400" fill="#30332e">行动者 3</text>
<polyline points="423.9,330.0 502.5,370.0" fill="none" stroke="#6670ee" stroke-width="2.7"/>
<polyline points="433.9,340.0 512.5,358.0" fill="none" stroke="#30332e" stroke-width="2.7"/>
<polyline points="463.2,210.0 541.8,310.0" fill="none" stroke="#6670ee" stroke-width="2.7"/>
<polyline points="473.2,221.2 551.8,304.0" fill="none" stroke="#30332e" stroke-width="2.7"/>
<line x1="433.9" y1="394.0" x2="433.9" y2="257.2" stroke="#30332e" stroke-width="1.5"/>
<circle cx="423.9" cy="330.0" r="5.5" fill="#fff" stroke="#6670ee" stroke-width="2.4"/>
<circle cx="433.9" cy="340.0" r="5.5" fill="#fff" stroke="#30332e" stroke-width="2"/>
<line x1="473.2" y1="307.6" x2="473.2" y2="145.6" stroke="#30332e" stroke-width="1.5"/>
<circle cx="463.2" cy="210.0" r="5.5" fill="#fff" stroke="#6670ee" stroke-width="2.4"/>
<circle cx="473.2" cy="221.2" r="5.5" fill="#fff" stroke="#30332e" stroke-width="2"/>
<line x1="512.5" y1="404.8" x2="512.5" y2="275.2" stroke="#30332e" stroke-width="1.5"/>
<circle cx="502.5" cy="370.0" r="5.5" fill="#6670ee" stroke="#6670ee" stroke-width="2.4"/>
<circle cx="512.5" cy="358.0" r="5.5" fill="#30332e" stroke="#30332e" stroke-width="2"/>
<line x1="551.8" y1="376.0" x2="551.8" y2="214.0" stroke="#30332e" stroke-width="1.5"/>
<circle cx="541.8" cy="310.0" r="5.5" fill="#6670ee" stroke="#6670ee" stroke-width="2.4"/>
<circle cx="551.8" cy="304.0" r="5.5" fill="#30332e" stroke="#30332e" stroke-width="2"/>
<line x1="566.4" y1="58.0" x2="566.4" y2="430.0" stroke="#30332e" stroke-width="1.4"/>
<text x="645.0" y="46.0" text-anchor="middle" font-family="-apple-system,BlinkMacSystemFont,PingFang SC,Noto Sans CJK SC,sans-serif" font-size="18" font-weight="400" fill="#30332e">行动者 4</text>
<polyline points="581.1,310.0 659.6,390.0" fill="none" stroke="#6670ee" stroke-width="2.7"/>
<polyline points="591.1,322.0 669.6,368.8" fill="none" stroke="#30332e" stroke-width="2.7"/>
<polyline points="620.4,250.0 698.9,270.0" fill="none" stroke="#6670ee" stroke-width="2.7"/>
<polyline points="630.4,250.0 708.9,278.8" fill="none" stroke="#30332e" stroke-width="2.7"/>
<line x1="591.1" y1="383.2" x2="591.1" y2="232.0" stroke="#30332e" stroke-width="1.5"/>
<circle cx="581.1" cy="310.0" r="5.5" fill="#fff" stroke="#6670ee" stroke-width="2.4"/>
<circle cx="591.1" cy="322.0" r="5.5" fill="#fff" stroke="#30332e" stroke-width="2"/>
<line x1="630.4" y1="336.4" x2="630.4" y2="167.2" stroke="#30332e" stroke-width="1.5"/>
<circle cx="620.4" cy="250.0" r="5.5" fill="#fff" stroke="#6670ee" stroke-width="2.4"/>
<circle cx="630.4" cy="250.0" r="5.5" fill="#fff" stroke="#30332e" stroke-width="2"/>
<line x1="669.6" y1="412.0" x2="669.6" y2="289.6" stroke="#30332e" stroke-width="1.5"/>
<circle cx="659.6" cy="390.0" r="5.5" fill="#6670ee" stroke="#6670ee" stroke-width="2.4"/>
<circle cx="669.6" cy="368.8" r="5.5" fill="#30332e" stroke="#30332e" stroke-width="2"/>
<line x1="708.9" y1="358.0" x2="708.9" y2="192.4" stroke="#30332e" stroke-width="1.5"/>
<circle cx="698.9" cy="270.0" r="5.5" fill="#6670ee" stroke="#6670ee" stroke-width="2.4"/>
<circle cx="708.9" cy="278.8" r="5.5" fill="#30332e" stroke="#30332e" stroke-width="2"/>
<line x1="723.6" y1="58.0" x2="723.6" y2="430.0" stroke="#30332e" stroke-width="1.4"/>
<text x="802.1" y="46.0" text-anchor="middle" font-family="-apple-system,BlinkMacSystemFont,PingFang SC,Noto Sans CJK SC,sans-serif" font-size="18" font-weight="400" fill="#30332e">行动者 5</text>
<polyline points="738.2,310.0 816.8,330.0" fill="none" stroke="#6670ee" stroke-width="2.7"/>
<polyline points="748.2,314.8 826.8,325.6" fill="none" stroke="#30332e" stroke-width="2.7"/>
<polyline points="777.5,230.0 856.1,250.0" fill="none" stroke="#6670ee" stroke-width="2.7"/>
<polyline points="787.5,228.4 866.1,257.2" fill="none" stroke="#30332e" stroke-width="2.7"/>
<line x1="748.2" y1="376.0" x2="748.2" y2="224.8" stroke="#30332e" stroke-width="1.5"/>
<circle cx="738.2" cy="310.0" r="5.5" fill="#fff" stroke="#6670ee" stroke-width="2.4"/>
<circle cx="748.2" cy="314.8" r="5.5" fill="#fff" stroke="#30332e" stroke-width="2"/>
<line x1="787.5" y1="314.8" x2="787.5" y2="152.8" stroke="#30332e" stroke-width="1.5"/>
<circle cx="777.5" cy="230.0" r="5.5" fill="#fff" stroke="#6670ee" stroke-width="2.4"/>
<circle cx="787.5" cy="228.4" r="5.5" fill="#fff" stroke="#30332e" stroke-width="2"/>
<line x1="826.8" y1="383.2" x2="826.8" y2="235.6" stroke="#30332e" stroke-width="1.5"/>
<circle cx="816.8" cy="330.0" r="5.5" fill="#6670ee" stroke="#6670ee" stroke-width="2.4"/>
<circle cx="826.8" cy="325.6" r="5.5" fill="#30332e" stroke="#30332e" stroke-width="2"/>
<line x1="866.1" y1="340.0" x2="866.1" y2="174.4" stroke="#30332e" stroke-width="1.5"/>
<circle cx="856.1" cy="250.0" r="5.5" fill="#6670ee" stroke="#6670ee" stroke-width="2.4"/>
<circle cx="866.1" cy="257.2" r="5.5" fill="#30332e" stroke="#30332e" stroke-width="2"/>
<line x1="880.7" y1="58.0" x2="880.7" y2="430.0" stroke="#30332e" stroke-width="1.4"/>
<text x="959.3" y="46.0" text-anchor="middle" font-family="-apple-system,BlinkMacSystemFont,PingFang SC,Noto Sans CJK SC,sans-serif" font-size="18" font-weight="400" fill="#30332e">行动者 6</text>
<polyline points="895.4,150.0 973.9,230.0" fill="none" stroke="#6670ee" stroke-width="2.7"/>
<polyline points="905.4,188.8 983.9,224.8" fill="none" stroke="#30332e" stroke-width="2.7"/>
<polyline points="934.6,210.0 1013.2,210.0" fill="none" stroke="#6670ee" stroke-width="2.7"/>
<polyline points="944.6,206.8 1023.2,206.8" fill="none" stroke="#30332e" stroke-width="2.7"/>
<line x1="905.4" y1="275.2" x2="905.4" y2="127.6" stroke="#30332e" stroke-width="1.5"/>
<circle cx="895.4" cy="150.0" r="5.5" fill="#fff" stroke="#6670ee" stroke-width="2.4"/>
<circle cx="905.4" cy="188.8" r="5.5" fill="#fff" stroke="#30332e" stroke-width="2"/>
<line x1="944.6" y1="293.2" x2="944.6" y2="138.4" stroke="#30332e" stroke-width="1.5"/>
<circle cx="934.6" cy="210.0" r="5.5" fill="#fff" stroke="#6670ee" stroke-width="2.4"/>
<circle cx="944.6" cy="206.8" r="5.5" fill="#fff" stroke="#30332e" stroke-width="2"/>
<line x1="983.9" y1="307.6" x2="983.9" y2="152.8" stroke="#30332e" stroke-width="1.5"/>
<circle cx="973.9" cy="230.0" r="5.5" fill="#6670ee" stroke="#6670ee" stroke-width="2.4"/>
<circle cx="983.9" cy="224.8" r="5.5" fill="#30332e" stroke="#30332e" stroke-width="2"/>
<line x1="1023.2" y1="286.0" x2="1023.2" y2="138.4" stroke="#30332e" stroke-width="1.5"/>
<circle cx="1013.2" cy="210.0" r="5.5" fill="#6670ee" stroke="#6670ee" stroke-width="2.4"/>
<circle cx="1023.2" cy="206.8" r="5.5" fill="#30332e" stroke="#30332e" stroke-width="2"/>
<line x1="1037.9" y1="58.0" x2="1037.9" y2="430.0" stroke="#30332e" stroke-width="1.4"/>
<text x="1116.4" y="46.0" text-anchor="middle" font-family="-apple-system,BlinkMacSystemFont,PingFang SC,Noto Sans CJK SC,sans-serif" font-size="18" font-weight="400" fill="#30332e">行动者 7</text>
<polyline points="1052.5,150.0 1131.1,90.0" fill="none" stroke="#6670ee" stroke-width="2.7"/>
<polyline points="1062.5,160.0 1141.1,109.6" fill="none" stroke="#30332e" stroke-width="2.7"/>
<polyline points="1091.8,130.0 1170.4,70.0" fill="none" stroke="#6670ee" stroke-width="2.7"/>
<polyline points="1101.8,138.4 1180.4,91.6" fill="none" stroke="#30332e" stroke-width="2.7"/>
<line x1="1062.5" y1="246.4" x2="1062.5" y2="109.6" stroke="#30332e" stroke-width="1.5"/>
<circle cx="1052.5" cy="150.0" r="5.5" fill="#fff" stroke="#6670ee" stroke-width="2.4"/>
<circle cx="1062.5" cy="160.0" r="5.5" fill="#fff" stroke="#30332e" stroke-width="2"/>
<line x1="1101.8" y1="221.2" x2="1101.8" y2="98.8" stroke="#30332e" stroke-width="1.5"/>
<circle cx="1091.8" cy="130.0" r="5.5" fill="#fff" stroke="#6670ee" stroke-width="2.4"/>
<circle cx="1101.8" cy="138.4" r="5.5" fill="#fff" stroke="#30332e" stroke-width="2"/>
<line x1="1141.1" y1="181.6" x2="1141.1" y2="84.4" stroke="#30332e" stroke-width="1.5"/>
<circle cx="1131.1" cy="90.0" r="5.5" fill="#6670ee" stroke="#6670ee" stroke-width="2.4"/>
<circle cx="1141.1" cy="109.6" r="5.5" fill="#30332e" stroke="#30332e" stroke-width="2"/>
<line x1="1180.4" y1="152.8" x2="1180.4" y2="77.2" stroke="#30332e" stroke-width="1.5"/>
<circle cx="1170.4" cy="70.0" r="5.5" fill="#6670ee" stroke="#6670ee" stroke-width="2.4"/>
<circle cx="1180.4" cy="91.6" r="5.5" fill="#30332e" stroke="#30332e" stroke-width="2"/>
<text x="109.6" y="342.0" text-anchor="middle" font-family="-apple-system,BlinkMacSystemFont,PingFang SC,Noto Sans CJK SC,sans-serif" font-size="16" font-weight="400" fill="#30332e">R/N</text>
<text x="148.9" y="208.0" text-anchor="middle" font-family="-apple-system,BlinkMacSystemFont,PingFang SC,Noto Sans CJK SC,sans-serif" font-size="16" font-weight="400" fill="#30332e">L/N</text>
<text x="188.2" y="364.0" text-anchor="middle" font-family="-apple-system,BlinkMacSystemFont,PingFang SC,Noto Sans CJK SC,sans-serif" font-size="16" font-weight="400" fill="#30332e">R/P</text>
<text x="227.5" y="188.0" text-anchor="middle" font-family="-apple-system,BlinkMacSystemFont,PingFang SC,Noto Sans CJK SC,sans-serif" font-size="16" font-weight="400" fill="#30332e">L/P</text>
<text x="28.0" y="250.0" text-anchor="middle" font-family="-apple-system,BlinkMacSystemFont,PingFang SC,Noto Sans CJK SC,sans-serif" font-size="20" font-weight="600" fill="#30332e" transform="rotate(-90 28 250.0)">拉左侧杠杆的比例</text>
</svg>