<?xml version="1.0" encoding="UTF-8"?>
<svg xmlns="http://www.w3.org/2000/svg" width="900" height="650" viewBox="0 0 900 650" role="img">
  <title>华夫饼屋密度与离婚率</title>
  <desc>美国五十州散点图。每百万人华夫饼屋数量越多的州往往离婚率越高；南方州以蓝色表示。</desc>
  <rect width="100%" height="100%" fill="#fff"/>
  <rect x="125" y="55" width="690" height="470" fill="#fff" stroke="#343732" stroke-width="1.5"/>
  <polygon points="125,307.28 129.31,306.44 133.62,305.58 137.94,304.71 142.25,303.83 146.56,302.92 150.88,302 155.19,301.06 159.5,300.09 163.81,299.11 168.12,298.1 172.44,297.06 176.75,296.01 181.06,294.92 185.38,293.82 189.69,292.68 194,291.52 198.31,290.33 202.62,289.1 206.94,287.85 211.25,286.58 215.56,285.27 219.88,283.93 224.19,282.56 228.5,281.16 232.81,279.74 237.12,278.28 241.44,276.8 245.75,275.29 250.06,273.75 254.38,272.19 258.69,270.6 263,268.99 267.31,267.36 271.62,265.7 275.94,264.03 280.25,262.33 284.56,260.62 288.88,258.88 293.19,257.13 297.5,255.36 301.81,253.58 306.12,251.79 310.44,249.97 314.75,248.15 319.06,246.31 323.38,244.47 327.69,242.61 332,240.74 336.31,238.86 340.62,236.97 344.94,235.07 349.25,233.17 353.56,231.26 357.88,229.33 362.19,227.41 366.5,225.47 370.81,223.53 375.12,221.59 379.44,219.63 383.75,217.68 388.06,215.71 392.38,213.75 396.69,211.77 401,209.8 405.31,207.82 409.62,205.83 413.94,203.84 418.25,201.85 422.56,199.86 426.88,197.86 431.19,195.86 435.5,193.85 439.81,191.85 444.12,189.84 448.44,187.83 452.75,185.81 457.06,183.79 461.38,181.77 465.69,179.75 470,177.73 474.31,175.7 478.63,173.68 482.94,171.65 487.25,169.62 491.56,167.58 495.88,165.55 500.19,163.51 504.5,161.48 508.81,159.44 513.12,157.4 517.44,155.36 521.75,153.32 526.06,151.27 530.38,149.23 534.69,147.18 539,145.13 543.31,143.09 547.62,141.04 551.94,138.99 556.25,136.94 560.56,134.88 564.88,132.83 569.19,130.78 573.5,128.72 577.81,126.67 582.12,124.61 586.44,122.55 590.75,120.5 595.06,118.44 599.38,116.38 603.69,114.32 608,112.26 612.31,110.2 616.62,108.14 620.94,106.07 625.25,104.01 629.56,101.95 633.88,99.88 638.19,97.82 642.5,95.75 646.81,93.69 651.12,91.62 655.44,89.56 659.75,87.49 664.06,85.42 668.38,83.35 672.69,81.29 677,79.22 681.31,77.15 685.62,75.08 689.94,73.01 694.25,70.94 698.56,68.87 702.88,66.8 707.19,64.73 711.5,62.66 715.81,60.59 720.12,58.51 724.44,56.44 728.75,54.37 733.06,52.29 737.38,50.22 741.69,48.15 746,46.07 750.31,44 754.62,41.93 758.94,39.85 763.25,37.78 767.56,35.7 771.88,33.63 776.19,31.55 780.5,29.47 784.81,27.4 789.12,25.32 793.44,23.25 797.75,21.17 802.06,19.09 806.38,17.02 810.69,14.94 815,12.86 815,234.02 810.69,234.56 806.38,235.11 802.06,235.65 797.75,236.2 793.44,236.75 789.12,237.29 784.81,237.84 780.5,238.39 776.19,238.94 771.88,239.48 767.56,240.03 763.25,240.58 758.94,241.13 754.62,241.68 750.31,242.22 746,242.77 741.69,243.32 737.38,243.87 733.06,244.42 728.75,244.97 724.44,245.52 720.12,246.07 715.81,246.63 711.5,247.18 707.19,247.73 702.88,248.28 698.56,248.83 694.25,249.39 689.94,249.94 685.62,250.49 681.31,251.05 677,251.6 672.69,252.16 668.38,252.71 664.06,253.27 659.75,253.82 655.44,254.38 651.12,254.94 646.81,255.49 642.5,256.05 638.19,256.61 633.88,257.17 629.56,257.73 625.25,258.29 620.94,258.85 616.62,259.41 612.31,259.97 608,260.53 603.69,261.09 599.38,261.66 595.06,262.22 590.75,262.79 586.44,263.35 582.12,263.92 577.81,264.49 573.5,265.05 569.19,265.62 564.88,266.19 560.56,266.76 556.25,267.33 551.94,267.91 547.62,268.48 543.31,269.05 539,269.63 534.69,270.2 530.38,270.78 526.06,271.36 521.75,271.94 517.44,272.52 513.12,273.1 508.81,273.68 504.5,274.27 500.19,274.86 495.88,275.44 491.56,276.03 487.25,276.62 482.94,277.22 478.63,277.81 474.31,278.41 470,279 465.69,279.6 461.38,280.2 457.06,280.81 452.75,281.41 448.44,282.02 444.12,282.63 439.81,283.25 435.5,283.86 431.19,284.48 426.88,285.1 422.56,285.73 418.25,286.36 413.94,286.99 409.62,287.62 405.31,288.26 401,288.91 396.69,289.55 392.38,290.2 388.06,290.86 383.75,291.52 379.44,292.19 375.12,292.86 370.81,293.53 366.5,294.22 362.19,294.91 357.88,295.6 353.56,296.3 349.25,297.01 344.94,297.73 340.62,298.46 336.31,299.19 332,299.94 327.69,300.69 323.38,301.45 319.06,302.23 314.75,303.02 310.44,303.82 306.12,304.63 301.81,305.45 297.5,306.3 293.19,307.15 288.88,308.02 284.56,308.91 280.25,309.82 275.94,310.75 271.62,311.7 267.31,312.66 263,313.65 258.69,314.67 254.38,315.7 250.06,316.76 245.75,317.85 241.44,318.96 237.12,320.1 232.81,321.27 228.5,322.47 224.19,323.7 219.88,324.95 215.56,326.24 211.25,327.55 206.94,328.89 202.62,330.27 198.31,331.67 194,333.1 189.69,334.56 185.38,336.05 181.06,337.56 176.75,339.1 172.44,340.67 168.12,342.26 163.81,343.87 159.5,345.51 155.19,347.17 150.88,348.85 146.56,350.55 142.25,352.27 137.94,354 133.62,355.76 129.31,357.53 125,359.31" fill="#cfd2d5" opacity="0.8"/>
  <polyline points="125,333.29 129.31,331.98 133.62,330.67 137.94,329.36 142.25,328.05 146.56,326.74 150.88,325.42 155.19,324.11 159.5,322.8 163.81,321.49 168.12,320.18 172.44,318.87 176.75,317.55 181.06,316.24 185.38,314.93 189.69,313.62 194,312.31 198.31,311 202.62,309.69 206.94,308.37 211.25,307.06 215.56,305.75 219.88,304.44 224.19,303.13 228.5,301.82 232.81,300.5 237.12,299.19 241.44,297.88 245.75,296.57 250.06,295.26 254.38,293.95 258.69,292.63 263,291.32 267.31,290.01 271.62,288.7 275.94,287.39 280.25,286.08 284.56,284.77 288.88,283.45 293.19,282.14 297.5,280.83 301.81,279.52 306.12,278.21 310.44,276.9 314.75,275.58 319.06,274.27 323.38,272.96 327.69,271.65 332,270.34 336.31,269.03 340.62,267.71 344.94,266.4 349.25,265.09 353.56,263.78 357.88,262.47 362.19,261.16 366.5,259.84 370.81,258.53 375.12,257.22 379.44,255.91 383.75,254.6 388.06,253.29 392.38,251.98 396.69,250.66 401,249.35 405.31,248.04 409.62,246.73 413.94,245.42 418.25,244.11 422.56,242.79 426.88,241.48 431.19,240.17 435.5,238.86 439.81,237.55 444.12,236.24 448.44,234.92 452.75,233.61 457.06,232.3 461.38,230.99 465.69,229.68 470,228.37 474.31,227.05 478.63,225.74 482.94,224.43 487.25,223.12 491.56,221.81 495.88,220.5 500.19,219.19 504.5,217.87 508.81,216.56 513.12,215.25 517.44,213.94 521.75,212.63 526.06,211.32 530.38,210 534.69,208.69 539,207.38 543.31,206.07 547.62,204.76 551.94,203.45 556.25,202.13 560.56,200.82 564.88,199.51 569.19,198.2 573.5,196.89 577.81,195.58 582.12,194.26 586.44,192.95 590.75,191.64 595.06,190.33 599.38,189.02 603.69,187.71 608,186.4 612.31,185.08 616.62,183.77 620.94,182.46 625.25,181.15 629.56,179.84 633.88,178.53 638.19,177.21 642.5,175.9 646.81,174.59 651.12,173.28 655.44,171.97 659.75,170.66 664.06,169.34 668.38,168.03 672.69,166.72 677,165.41 681.31,164.1 685.62,162.79 689.94,161.47 694.25,160.16 698.56,158.85 702.88,157.54 707.19,156.23 711.5,154.92 715.81,153.61 720.12,152.29 724.44,150.98 728.75,149.67 733.06,148.36 737.38,147.05 741.69,145.74 746,144.42 750.31,143.11 754.62,141.8 758.94,140.49 763.25,139.18 767.56,137.87 771.88,136.55 776.19,135.24 780.5,133.93 784.81,132.62 789.12,131.31 793.44,130 797.75,128.69 802.06,127.37 806.38,126.06 810.69,124.75 815,123.44" fill="none" stroke="#242724" stroke-width="3"/>
  <circle cx="492.72" cy="149" r="5.2" fill="#6670ee" stroke="#6670ee" stroke-width="2"/>
  <text x="501.72" y="141" text-anchor="start" font-family="PingFang SC, Noto Sans CJK SC, Microsoft YaHei, sans-serif" font-size="17" font-weight="700" fill="#30332e">AL</text>
  <circle cx="150.56" cy="159.44" r="5.2" fill="#ffffff" stroke="#343732" stroke-width="2"/>
  <circle cx="186.89" cy="248.22" r="5.2" fill="#ffffff" stroke="#343732" stroke-width="2"/>
  <circle cx="329.97" cy="107.22" r="5.2" fill="#6670ee" stroke="#6670ee" stroke-width="2"/>
  <text x="338.97" y="99.22" text-anchor="start" font-family="PingFang SC, Noto Sans CJK SC, Microsoft YaHei, sans-serif" font-size="17" font-weight="700" fill="#30332e">AR</text>
  <circle cx="150.56" cy="394.44" r="5.2" fill="#ffffff" stroke="#343732" stroke-width="2"/>
  <circle cx="178.5" cy="206.44" r="5.2" fill="#ffffff" stroke="#343732" stroke-width="2"/>
  <circle cx="150.56" cy="462.33" r="5.2" fill="#ffffff" stroke="#343732" stroke-width="2"/>
  <circle cx="193.15" cy="347.44" r="5.2" fill="#ffffff" stroke="#343732" stroke-width="2"/>
  <circle cx="150.56" cy="483.22" r="5.2" fill="#ffffff" stroke="#343732" stroke-width="2"/>
  <circle cx="240.95" cy="368.33" r="5.2" fill="#6670ee" stroke="#6670ee" stroke-width="2"/>
  <circle cx="652.96" cy="211.67" r="5.2" fill="#6670ee" stroke="#6670ee" stroke-width="2"/>
  <text x="661.96" y="203.67" text-anchor="start" font-family="PingFang SC, Noto Sans CJK SC, Microsoft YaHei, sans-serif" font-size="17" font-weight="700" fill="#30332e">GA</text>
  <circle cx="150.56" cy="378.78" r="5.2" fill="#ffffff" stroke="#343732" stroke-width="2"/>
  <circle cx="150.56" cy="410.11" r="5.2" fill="#ffffff" stroke="#343732" stroke-width="2"/>
  <circle cx="152.55" cy="394.44" r="5.2" fill="#ffffff" stroke="#343732" stroke-width="2"/>
  <circle cx="184.08" cy="237.78" r="5.2" fill="#ffffff" stroke="#343732" stroke-width="2"/>
  <circle cx="150.56" cy="279.56" r="5.2" fill="#ffffff" stroke="#343732" stroke-width="2"/>
  <circle cx="177.46" cy="258.67" r="5.2" fill="#ffffff" stroke="#343732" stroke-width="2"/>
  <circle cx="338.98" cy="154.22" r="5.2" fill="#6670ee" stroke="#6670ee" stroke-width="2"/>
  <circle cx="336.72" cy="237.78" r="5.2" fill="#6670ee" stroke="#6670ee" stroke-width="2"/>
  <circle cx="150.56" cy="133.33" r="5.2" fill="#ffffff" stroke="#343732" stroke-width="2"/>
  <text x="159.56" y="125.33" text-anchor="start" font-family="PingFang SC, Noto Sans CJK SC, Microsoft YaHei, sans-serif" font-size="17" font-weight="700" fill="#30332e">ME</text>
  <circle cx="174.92" cy="352.67" r="5.2" fill="#ffffff" stroke="#343732" stroke-width="2"/>
  <circle cx="150.56" cy="404.89" r="5.2" fill="#ffffff" stroke="#343732" stroke-width="2"/>
  <circle cx="150.56" cy="331.78" r="5.2" fill="#ffffff" stroke="#343732" stroke-width="2"/>
  <circle cx="150.56" cy="425.78" r="5.2" fill="#ffffff" stroke="#343732" stroke-width="2"/>
  <circle cx="460.32" cy="232.56" r="5.2" fill="#6670ee" stroke="#6670ee" stroke-width="2"/>
  <circle cx="233.75" cy="316.11" r="5.2" fill="#6670ee" stroke="#6670ee" stroke-width="2"/>
  <circle cx="150.56" cy="337" r="5.2" fill="#ffffff" stroke="#343732" stroke-width="2"/>
  <circle cx="150.56" cy="352.67" r="5.2" fill="#ffffff" stroke="#343732" stroke-width="2"/>
  <circle cx="150.56" cy="284.78" r="5.2" fill="#ffffff" stroke="#343732" stroke-width="2"/>
  <circle cx="150.56" cy="493.67" r="5.2" fill="#ffffff" stroke="#343732" stroke-width="2"/>
  <text x="159.56" y="485.67" text-anchor="start" font-family="PingFang SC, Noto Sans CJK SC, Microsoft YaHei, sans-serif" font-size="17" font-weight="700" fill="#30332e">NJ</text>
  <circle cx="162.96" cy="279.56" r="5.2" fill="#ffffff" stroke="#343732" stroke-width="2"/>
  <circle cx="150.56" cy="467.56" r="5.2" fill="#ffffff" stroke="#343732" stroke-width="2"/>
  <circle cx="340.75" cy="295.22" r="5.2" fill="#6670ee" stroke="#6670ee" stroke-width="2"/>
  <circle cx="150.56" cy="394.44" r="5.2" fill="#ffffff" stroke="#343732" stroke-width="2"/>
  <circle cx="221.42" cy="316.11" r="5.2" fill="#ffffff" stroke="#343732" stroke-width="2"/>
  <circle cx="205.07" cy="143.78" r="5.2" fill="#ffffff" stroke="#343732" stroke-width="2"/>
  <text x="214.07" y="135.78" text-anchor="start" font-family="PingFang SC, Noto Sans CJK SC, Microsoft YaHei, sans-serif" font-size="17" font-weight="700" fill="#30332e">OK</text>
  <circle cx="150.56" cy="269.11" r="5.2" fill="#ffffff" stroke="#343732" stroke-width="2"/>
  <circle cx="161.62" cy="410.11" r="5.2" fill="#ffffff" stroke="#343732" stroke-width="2"/>
  <circle cx="150.56" cy="321.33" r="5.2" fill="#ffffff" stroke="#343732" stroke-width="2"/>
  <circle cx="547.96" cy="389.22" r="5.2" fill="#6670ee" stroke="#6670ee" stroke-width="2"/>
  <text x="538.96" y="381.22" text-anchor="end" font-family="PingFang SC, Noto Sans CJK SC, Microsoft YaHei, sans-serif" font-size="17" font-weight="700" fill="#30332e">SC</text>
  <circle cx="150.56" cy="243" r="5.2" fill="#ffffff" stroke="#343732" stroke-width="2"/>
  <circle cx="357.82" cy="216.89" r="5.2" fill="#6670ee" stroke="#6670ee" stroke-width="2"/>
  <circle cx="200.85" cy="290" r="5.2" fill="#6670ee" stroke="#6670ee" stroke-width="2"/>
  <circle cx="150.56" cy="279.56" r="5.2" fill="#ffffff" stroke="#343732" stroke-width="2"/>
  <circle cx="150.56" cy="310.89" r="5.2" fill="#ffffff" stroke="#343732" stroke-width="2"/>
  <circle cx="214.44" cy="347.44" r="5.2" fill="#6670ee" stroke="#6670ee" stroke-width="2"/>
  <circle cx="150.56" cy="290" r="5.2" fill="#ffffff" stroke="#343732" stroke-width="2"/>
  <circle cx="178.18" cy="243" r="5.2" fill="#6670ee" stroke="#6670ee" stroke-width="2"/>
  <circle cx="150.56" cy="378.78" r="5.2" fill="#ffffff" stroke="#343732" stroke-width="2"/>
  <circle cx="150.56" cy="274.33" r="5.2" fill="#ffffff" stroke="#343732" stroke-width="2"/>
  <line x1="150.56" y1="525" x2="150.56" y2="533" stroke="#343732"/>
  <text x="150.56" y="556" text-anchor="middle" font-family="PingFang SC, Noto Sans CJK SC, Microsoft YaHei, sans-serif" font-size="16" fill="#30332e">0</text>
  <line x1="278.33" y1="525" x2="278.33" y2="533" stroke="#343732"/>
  <text x="278.33" y="556" text-anchor="middle" font-family="PingFang SC, Noto Sans CJK SC, Microsoft YaHei, sans-serif" font-size="16" fill="#30332e">10</text>
  <line x1="406.11" y1="525" x2="406.11" y2="533" stroke="#343732"/>
  <text x="406.11" y="556" text-anchor="middle" font-family="PingFang SC, Noto Sans CJK SC, Microsoft YaHei, sans-serif" font-size="16" fill="#30332e">20</text>
  <line x1="533.89" y1="525" x2="533.89" y2="533" stroke="#343732"/>
  <text x="533.89" y="556" text-anchor="middle" font-family="PingFang SC, Noto Sans CJK SC, Microsoft YaHei, sans-serif" font-size="16" fill="#30332e">30</text>
  <line x1="661.67" y1="525" x2="661.67" y2="533" stroke="#343732"/>
  <text x="661.67" y="556" text-anchor="middle" font-family="PingFang SC, Noto Sans CJK SC, Microsoft YaHei, sans-serif" font-size="16" fill="#30332e">40</text>
  <line x1="789.44" y1="525" x2="789.44" y2="533" stroke="#343732"/>
  <text x="789.44" y="556" text-anchor="middle" font-family="PingFang SC, Noto Sans CJK SC, Microsoft YaHei, sans-serif" font-size="16" fill="#30332e">50</text>
  <line x1="117" y1="498.89" x2="125" y2="498.89" stroke="#343732"/>
  <text x="111" y="504.89" text-anchor="end" font-family="PingFang SC, Noto Sans CJK SC, Microsoft YaHei, sans-serif" font-size="16" fill="#30332e">6</text>
  <line x1="117" y1="394.44" x2="125" y2="394.44" stroke="#343732"/>
  <text x="111" y="400.44" text-anchor="end" font-family="PingFang SC, Noto Sans CJK SC, Microsoft YaHei, sans-serif" font-size="16" fill="#30332e">8</text>
  <line x1="117" y1="290" x2="125" y2="290" stroke="#343732"/>
  <text x="111" y="296" text-anchor="end" font-family="PingFang SC, Noto Sans CJK SC, Microsoft YaHei, sans-serif" font-size="16" fill="#30332e">10</text>
  <line x1="117" y1="185.56" x2="125" y2="185.56" stroke="#343732"/>
  <text x="111" y="191.56" text-anchor="end" font-family="PingFang SC, Noto Sans CJK SC, Microsoft YaHei, sans-serif" font-size="16" fill="#30332e">12</text>
  <line x1="117" y1="81.11" x2="125" y2="81.11" stroke="#343732"/>
  <text x="111" y="87.11" text-anchor="end" font-family="PingFang SC, Noto Sans CJK SC, Microsoft YaHei, sans-serif" font-size="16" fill="#30332e">14</text>
  <text x="470" y="592" text-anchor="middle" font-family="PingFang SC, Noto Sans CJK SC, Microsoft YaHei, sans-serif" font-size="19" font-weight="700" fill="#263f86">每百万人拥有的华夫饼屋数量</text>
  <text x="58" y="290" transform="rotate(-90 58 290)" text-anchor="middle" font-family="PingFang SC, Noto Sans CJK SC, Microsoft YaHei, sans-serif" font-size="19" font-weight="700" fill="#263f86">离婚率</text>
  <circle cx="265" cy="620" r="5" fill="#6670ee" stroke="#6670ee"/><text x="279" y="626" font-family="PingFang SC, Noto Sans CJK SC, Microsoft YaHei, sans-serif" font-size="16" fill="#30332e">南方州</text>
  <circle cx="390" cy="620" r="5" fill="#fff" stroke="#343732" stroke-width="2"/><text x="404" y="626" font-family="PingFang SC, Noto Sans CJK SC, Microsoft YaHei, sans-serif" font-size="16" fill="#30332e">其他州</text>
  <rect x="515" y="614" width="34" height="12" fill="#cfd2d5"/><text x="559" y="626" font-family="PingFang SC, Noto Sans CJK SC, Microsoft YaHei, sans-serif" font-size="16" fill="#30332e">均值的 89% 区间</text>
</svg>
