<svg xmlns="http://www.w3.org/2000/svg" width="1000" height="560" viewBox="0 0 1000 560" role="img">
<title>简单 Poisson GLM 截距的先验预测分布</title>
<desc>黑色曲线是截距服从均值零标准差十的宽先验，蓝色曲线是均值三标准差零点五的正则化先验。</desc>
<rect width="100%" height="100%" fill="#fbfaf6"/>
<rect x="105" y="70" width="850" height="405" fill="#fff" stroke="#d9d5c8"/>
<line x1="105.0" y1="475" x2="105.0" y2="482" stroke="#30332e"/>
<text x="105.0" y="505.0" text-anchor="middle" font-family="-apple-system,BlinkMacSystemFont,PingFang SC,Noto Sans CJK SC,sans-serif" font-size="16" font-weight="400" fill="#30332e">0</text>
<line x1="275.0" y1="475" x2="275.0" y2="482" stroke="#30332e"/>
<text x="275.0" y="505.0" text-anchor="middle" font-family="-apple-system,BlinkMacSystemFont,PingFang SC,Noto Sans CJK SC,sans-serif" font-size="16" font-weight="400" fill="#30332e">20</text>
<line x1="445.0" y1="475" x2="445.0" y2="482" stroke="#30332e"/>
<text x="445.0" y="505.0" text-anchor="middle" font-family="-apple-system,BlinkMacSystemFont,PingFang SC,Noto Sans CJK SC,sans-serif" font-size="16" font-weight="400" fill="#30332e">40</text>
<line x1="615.0" y1="475" x2="615.0" y2="482" stroke="#30332e"/>
<text x="615.0" y="505.0" text-anchor="middle" font-family="-apple-system,BlinkMacSystemFont,PingFang SC,Noto Sans CJK SC,sans-serif" font-size="16" font-weight="400" fill="#30332e">60</text>
<line x1="785.0" y1="475" x2="785.0" y2="482" stroke="#30332e"/>
<text x="785.0" y="505.0" text-anchor="middle" font-family="-apple-system,BlinkMacSystemFont,PingFang SC,Noto Sans CJK SC,sans-serif" font-size="16" font-weight="400" fill="#30332e">80</text>
<line x1="955.0" y1="475" x2="955.0" y2="482" stroke="#30332e"/>
<text x="955.0" y="505.0" text-anchor="middle" font-family="-apple-system,BlinkMacSystemFont,PingFang SC,Noto Sans CJK SC,sans-serif" font-size="16" font-weight="400" fill="#30332e">100</text>
<line x1="98" y1="475.0" x2="105" y2="475.0" stroke="#30332e"/>
<text x="93.0" y="480.0" text-anchor="end" font-family="-apple-system,BlinkMacSystemFont,PingFang SC,Noto Sans CJK SC,sans-serif" font-size="16" font-weight="400" fill="#30332e">0.00</text>
<line x1="105" y1="475.0" x2="955" y2="475.0" stroke="#d9d5c8" stroke-dasharray="4 6"/>
<line x1="98" y1="373.8" x2="105" y2="373.8" stroke="#30332e"/>
<text x="93.0" y="378.8" text-anchor="end" font-family="-apple-system,BlinkMacSystemFont,PingFang SC,Noto Sans CJK SC,sans-serif" font-size="16" font-weight="400" fill="#30332e">0.02</text>
<line x1="105" y1="373.8" x2="955" y2="373.8" stroke="#d9d5c8" stroke-dasharray="4 6"/>
<line x1="98" y1="272.5" x2="105" y2="272.5" stroke="#30332e"/>
<text x="93.0" y="277.5" text-anchor="end" font-family="-apple-system,BlinkMacSystemFont,PingFang SC,Noto Sans CJK SC,sans-serif" font-size="16" font-weight="400" fill="#30332e">0.04</text>
<line x1="105" y1="272.5" x2="955" y2="272.5" stroke="#d9d5c8" stroke-dasharray="4 6"/>
<line x1="98" y1="171.2" x2="105" y2="171.2" stroke="#30332e"/>
<text x="93.0" y="176.2" text-anchor="end" font-family="-apple-system,BlinkMacSystemFont,PingFang SC,Noto Sans CJK SC,sans-serif" font-size="16" font-weight="400" fill="#30332e">0.06</text>
<line x1="105" y1="171.2" x2="955" y2="171.2" stroke="#d9d5c8" stroke-dasharray="4 6"/>
<line x1="98" y1="70.0" x2="105" y2="70.0" stroke="#30332e"/>
<text x="93.0" y="75.0" text-anchor="end" font-family="-apple-system,BlinkMacSystemFont,PingFang SC,Noto Sans CJK SC,sans-serif" font-size="16" font-weight="400" fill="#30332e">0.08</text>
<line x1="105" y1="70.0" x2="955" y2="70.0" stroke="#d9d5c8" stroke-dasharray="4 6"/>
<line x1="105" y1="475" x2="955" y2="475" stroke="#30332e" stroke-width="2"/>
<line x1="105" y1="475" x2="105" y2="70" stroke="#30332e" stroke-width="2"/>
<text x="530.0" y="536.0" text-anchor="middle" font-family="-apple-system,BlinkMacSystemFont,PingFang SC,Noto Sans CJK SC,sans-serif" font-size="19" font-weight="400" fill="#30332e">工具数量的先验均值</text>
<text x="28.0" y="272.5" text-anchor="middle" font-family="-apple-system,BlinkMacSystemFont,PingFang SC,Noto Sans CJK SC,sans-serif" font-size="19" font-weight="400" fill="#30332e" transform="rotate(-90 28 272.5)">密度</text>
<polyline points="105.8,70.0 106.7,70.0 107.5,70.0 108.4,70.0 109.2,72.0 110.1,138.8 111.0,186.7 111.8,222.6 112.7,250.6 113.5,273.0 114.3,291.4 115.2,306.7 116.0,319.7 116.9,330.8 117.8,340.5 118.6,348.9 119.5,356.4 120.3,363.0 121.2,368.9 122.0,374.3 122.8,379.1 123.7,383.5 124.5,387.5 125.4,391.2 126.2,394.6 127.1,397.7 128.0,400.6 128.8,403.3 129.7,405.8 130.5,408.1 131.3,410.3 132.2,412.3 133.1,414.2 133.9,416.0 134.8,417.7 135.6,419.4 136.4,420.9 137.3,422.3 138.2,423.7 139.0,425.0 139.8,426.2 140.7,427.4 141.6,428.5 142.4,429.6 143.2,430.6 144.1,431.6 144.9,432.5 145.8,433.4 146.7,434.3 147.5,435.1 148.3,435.9 149.2,436.7 150.1,437.4 150.9,438.1 151.8,438.8 152.6,439.5 153.4,440.1 154.3,440.7 155.2,441.3 156.0,441.9 156.8,442.4 157.7,443.0 158.6,443.5 159.4,444.0 160.2,444.5 161.1,444.9 161.9,445.4 162.8,445.8 163.7,446.3 164.5,446.7 165.3,447.1 166.2,447.5 167.1,447.9 167.9,448.2 168.8,448.6 169.6,449.0 170.4,449.3 171.3,449.6 172.2,450.0 173.0,450.3 173.9,450.6 174.7,450.9 175.6,451.2 176.4,451.5 177.2,451.8 178.1,452.1 178.9,452.3 179.8,452.6 180.7,452.8 181.5,453.1 182.3,453.3 183.2,453.6 184.1,453.8 184.9,454.0 185.8,454.3 186.6,454.5 187.4,454.7 188.3,454.9 189.2,455.1 190.0,455.3 190.8,455.5 191.7,455.7 192.6,455.9 193.4,456.1 194.2,456.3 195.1,456.5 195.9,456.6 196.8,456.8 197.7,457.0 198.5,457.2 199.3,457.3 200.2,457.5 201.1,457.6 201.9,457.8 202.8,458.0 203.6,458.1 204.4,458.3 205.3,458.4 206.2,458.5 207.0,458.7 207.8,458.8 208.7,459.0 209.6,459.1 210.4,459.2 211.2,459.4 212.1,459.5 212.9,459.6 213.8,459.7 214.7,459.8 215.5,460.0 216.4,460.1 217.2,460.2 218.1,460.3 218.9,460.4 219.8,460.5 220.6,460.6 221.4,460.8 222.3,460.9 223.2,461.0 224.0,461.1 224.8,461.2 225.7,461.3 226.6,461.4 227.4,461.5 228.2,461.6 229.1,461.7 229.9,461.7 230.8,461.8 231.6,461.9 232.5,462.0 233.3,462.1 234.2,462.2 235.1,462.3 235.9,462.4 236.8,462.5 237.6,462.5 238.4,462.6 239.3,462.7 240.2,462.8 241.0,462.9 241.8,462.9 242.7,463.0 243.6,463.1 244.4,463.2 245.2,463.2 246.1,463.3 246.9,463.4 247.8,463.4 248.6,463.5 249.5,463.6 250.4,463.7 251.2,463.7 252.1,463.8 252.9,463.9 253.8,463.9 254.6,464.0 255.4,464.1 256.3,464.1 257.1,464.2 258.0,464.2 258.9,464.3 259.7,464.4 260.5,464.4 261.4,464.5 262.2,464.5 263.1,464.6 263.9,464.7 264.8,464.7 265.6,464.8 266.5,464.8 267.4,464.9 268.2,464.9 269.1,465.0 269.9,465.0 270.8,465.1 271.6,465.1 272.4,465.2 273.3,465.2 274.1,465.3 275.0,465.3 275.9,465.4 276.7,465.4 277.6,465.5 278.4,465.5 279.2,465.6 280.1,465.6 280.9,465.7 281.8,465.7 282.6,465.8 283.5,465.8 284.4,465.9 285.2,465.9 286.0,466.0 286.9,466.0 287.8,466.0 288.6,466.1 289.4,466.1 290.3,466.2 291.1,466.2 292.0,466.2 292.9,466.3 293.7,466.3 294.6,466.4 295.4,466.4 296.2,466.4 297.1,466.5 297.9,466.5 298.8,466.6 299.6,466.6 300.5,466.6 301.4,466.7 302.2,466.7 303.1,466.8 303.9,466.8 304.8,466.8 305.6,466.9 306.4,466.9 307.3,466.9 308.1,467.0 309.0,467.0 309.9,467.0 310.7,467.1 311.5,467.1 312.4,467.1 313.2,467.2 314.1,467.2 314.9,467.2 315.8,467.3 316.6,467.3 317.5,467.3 318.4,467.4 319.2,467.4 320.1,467.4 320.9,467.5 321.8,467.5 322.6,467.5 323.5,467.5 324.3,467.6 325.1,467.6 326.0,467.6 326.9,467.7 327.7,467.7 328.6,467.7 329.4,467.7 330.2,467.8 331.1,467.8 332.0,467.8 332.8,467.9 333.6,467.9 334.5,467.9 335.4,467.9 336.2,468.0 337.1,468.0 337.9,468.0 338.8,468.0 339.6,468.1 340.4,468.1 341.3,468.1 342.1,468.2 343.0,468.2 343.9,468.2 344.7,468.2 345.6,468.3 346.4,468.3 347.2,468.3 348.1,468.3 348.9,468.3 349.8,468.4 350.6,468.4 351.5,468.4 352.4,468.4 353.2,468.5 354.0,468.5 354.9,468.5 355.8,468.5 356.6,468.6 357.4,468.6 358.3,468.6 359.1,468.6 360.0,468.6 360.9,468.7 361.7,468.7 362.6,468.7 363.4,468.7 364.2,468.8 365.1,468.8 365.9,468.8 366.8,468.8 367.6,468.8 368.5,468.9 369.4,468.9 370.2,468.9 371.1,468.9 371.9,468.9 372.8,469.0 373.6,469.0 374.4,469.0 375.3,469.0 376.1,469.0 377.0,469.1 377.9,469.1 378.7,469.1 379.5,469.1 380.4,469.1 381.2,469.2 382.1,469.2 382.9,469.2 383.8,469.2 384.6,469.2 385.5,469.2 386.4,469.3 387.2,469.3 388.0,469.3 388.9,469.3 389.8,469.3 390.6,469.3 391.5,469.4 392.3,469.4 393.1,469.4 394.0,469.4 394.9,469.4 395.7,469.5 396.5,469.5 397.4,469.5 398.2,469.5 399.1,469.5 400.0,469.5 400.8,469.6 401.6,469.6 402.5,469.6 403.4,469.6 404.2,469.6 405.1,469.6 405.9,469.6 406.8,469.7 407.6,469.7 408.5,469.7 409.3,469.7 410.1,469.7 411.0,469.7 411.8,469.8 412.7,469.8 413.6,469.8 414.4,469.8 415.2,469.8 416.1,469.8 417.0,469.8 417.8,469.9 418.6,469.9 419.5,469.9 420.4,469.9 421.2,469.9 422.1,469.9 422.9,469.9 423.8,470.0 424.6,470.0 425.4,470.0 426.3,470.0 427.1,470.0 428.0,470.0 428.9,470.0 429.7,470.1 430.5,470.1 431.4,470.1 432.2,470.1 433.1,470.1 433.9,470.1 434.8,470.1 435.7,470.1 436.5,470.2 437.4,470.2 438.2,470.2 439.0,470.2 439.9,470.2 440.8,470.2 441.6,470.2 442.4,470.2 443.3,470.3 444.1,470.3 445.0,470.3 445.9,470.3 446.7,470.3 447.5,470.3 448.4,470.3 449.2,470.3 450.1,470.4 451.0,470.4 451.8,470.4 452.6,470.4 453.5,470.4 454.4,470.4 455.2,470.4 456.0,470.4 456.9,470.4 457.8,470.5 458.6,470.5 459.5,470.5 460.3,470.5 461.1,470.5 462.0,470.5 462.9,470.5 463.7,470.5 464.6,470.5 465.4,470.6 466.2,470.6 467.1,470.6 468.0,470.6 468.8,470.6 469.6,470.6 470.5,470.6 471.4,470.6 472.2,470.6 473.1,470.7 473.9,470.7 474.8,470.7 475.6,470.7 476.5,470.7 477.3,470.7 478.1,470.7 479.0,470.7 479.9,470.7 480.7,470.7 481.5,470.8 482.4,470.8 483.2,470.8 484.1,470.8 484.9,470.8 485.8,470.8 486.7,470.8 487.5,470.8 488.4,470.8 489.2,470.8 490.0,470.9 490.9,470.9 491.8,470.9 492.6,470.9 493.4,470.9 494.3,470.9 495.1,470.9 496.0,470.9 496.9,470.9 497.7,470.9 498.5,470.9 499.4,471.0 500.2,471.0 501.1,471.0 502.0,471.0 502.8,471.0 503.6,471.0 504.5,471.0 505.4,471.0 506.2,471.0 507.0,471.0 507.9,471.0 508.8,471.1 509.6,471.1 510.5,471.1 511.3,471.1 512.1,471.1 513.0,471.1 513.9,471.1 514.7,471.1 515.5,471.1 516.4,471.1 517.2,471.1 518.1,471.1 519.0,471.2 519.8,471.2 520.6,471.2 521.5,471.2 522.3,471.2 523.2,471.2 524.0,471.2 524.9,471.2 525.8,471.2 526.6,471.2 527.5,471.2 528.3,471.2 529.1,471.3 530.0,471.3 530.9,471.3 531.7,471.3 532.5,471.3 533.4,471.3 534.2,471.3 535.1,471.3 536.0,471.3 536.8,471.3 537.7,471.3 538.5,471.3 539.4,471.3 540.2,471.3 541.0,471.4 541.9,471.4 542.8,471.4 543.6,471.4 544.5,471.4 545.3,471.4 546.2,471.4 547.0,471.4 547.9,471.4 548.7,471.4 549.5,471.4 550.4,471.4 551.2,471.4 552.1,471.5 553.0,471.5 553.8,471.5 554.7,471.5 555.5,471.5 556.4,471.5 557.2,471.5 558.0,471.5 558.9,471.5 559.8,471.5 560.6,471.5 561.5,471.5 562.3,471.5 563.2,471.5 564.0,471.5 564.9,471.6 565.7,471.6 566.5,471.6 567.4,471.6 568.2,471.6 569.1,471.6 570.0,471.6 570.8,471.6 571.6,471.6 572.5,471.6 573.4,471.6 574.2,471.6 575.0,471.6 575.9,471.6 576.8,471.6 577.6,471.6 578.5,471.7 579.3,471.7 580.1,471.7 581.0,471.7 581.9,471.7 582.7,471.7 583.5,471.7 584.4,471.7 585.2,471.7 586.1,471.7 587.0,471.7 587.8,471.7 588.6,471.7 589.5,471.7 590.4,471.7 591.2,471.7 592.0,471.8 592.9,471.8 593.8,471.8 594.6,471.8 595.5,471.8 596.3,471.8 597.1,471.8 598.0,471.8 598.8,471.8 599.7,471.8 600.5,471.8 601.4,471.8 602.2,471.8 603.1,471.8 604.0,471.8 604.8,471.8 605.6,471.8 606.5,471.8 607.3,471.9 608.2,471.9 609.0,471.9 609.9,471.9 610.8,471.9 611.6,471.9 612.5,471.9 613.3,471.9 614.1,471.9 615.0,471.9 615.8,471.9 616.7,471.9 617.5,471.9 618.4,471.9 619.2,471.9 620.1,471.9 620.9,471.9 621.8,471.9 622.6,472.0 623.5,472.0 624.4,472.0 625.2,472.0 626.0,472.0 626.9,472.0 627.8,472.0 628.6,472.0 629.5,472.0 630.3,472.0 631.1,472.0 632.0,472.0 632.9,472.0 633.7,472.0 634.5,472.0 635.4,472.0 636.2,472.0 637.1,472.0 638.0,472.0 638.8,472.0 639.6,472.1 640.5,472.1 641.4,472.1 642.2,472.1 643.0,472.1 643.9,472.1 644.8,472.1 645.6,472.1 646.5,472.1 647.3,472.1 648.1,472.1 649.0,472.1 649.8,472.1 650.7,472.1 651.6,472.1 652.4,472.1 653.2,472.1 654.1,472.1 655.0,472.1 655.8,472.1 656.6,472.1 657.5,472.2 658.3,472.2 659.2,472.2 660.1,472.2 660.9,472.2 661.8,472.2 662.6,472.2 663.5,472.2 664.3,472.2 665.1,472.2 666.0,472.2 666.8,472.2 667.7,472.2 668.5,472.2 669.4,472.2 670.2,472.2 671.1,472.2 672.0,472.2 672.8,472.2 673.6,472.2 674.5,472.2 675.3,472.2 676.2,472.2 677.0,472.3 677.9,472.3 678.8,472.3 679.6,472.3 680.5,472.3 681.3,472.3 682.2,472.3 683.0,472.3 683.8,472.3 684.7,472.3 685.5,472.3 686.4,472.3 687.2,472.3 688.1,472.3 689.0,472.3 689.8,472.3 690.7,472.3 691.5,472.3 692.3,472.3 693.2,472.3 694.0,472.3 694.9,472.3 695.8,472.3 696.6,472.3 697.5,472.4 698.3,472.4 699.2,472.4 700.0,472.4 700.8,472.4 701.7,472.4 702.5,472.4 703.4,472.4 704.2,472.4 705.1,472.4 706.0,472.4 706.8,472.4 707.7,472.4 708.5,472.4 709.4,472.4 710.2,472.4 711.0,472.4 711.9,472.4 712.8,472.4 713.6,472.4 714.5,472.4 715.3,472.4 716.2,472.4 717.0,472.4 717.9,472.4 718.7,472.4 719.5,472.5 720.4,472.5 721.2,472.5 722.1,472.5 722.9,472.5 723.8,472.5 724.7,472.5 725.5,472.5 726.4,472.5 727.2,472.5 728.0,472.5 728.9,472.5 729.8,472.5 730.6,472.5 731.5,472.5 732.3,472.5 733.2,472.5 734.0,472.5 734.9,472.5 735.7,472.5 736.5,472.5 737.4,472.5 738.2,472.5 739.1,472.5 740.0,472.5 740.8,472.5 741.7,472.5 742.5,472.5 743.3,472.6 744.2,472.6 745.0,472.6 745.9,472.6 746.8,472.6 747.6,472.6 748.5,472.6 749.3,472.6 750.1,472.6 751.0,472.6 751.8,472.6 752.7,472.6 753.5,472.6 754.4,472.6 755.2,472.6 756.1,472.6 757.0,472.6 757.8,472.6 758.6,472.6 759.5,472.6 760.3,472.6 761.2,472.6 762.1,472.6 762.9,472.6 763.8,472.6 764.6,472.6 765.5,472.6 766.3,472.6 767.1,472.6 768.0,472.6 768.8,472.6 769.7,472.7 770.5,472.7 771.4,472.7 772.2,472.7 773.1,472.7 774.0,472.7 774.8,472.7 775.6,472.7 776.5,472.7 777.3,472.7 778.2,472.7 779.0,472.7 779.9,472.7 780.8,472.7 781.6,472.7 782.5,472.7 783.3,472.7 784.2,472.7 785.0,472.7 785.8,472.7 786.7,472.7 787.5,472.7 788.4,472.7 789.2,472.7 790.1,472.7 791.0,472.7 791.8,472.7 792.7,472.7 793.5,472.7 794.3,472.7 795.2,472.7 796.0,472.7 796.9,472.7 797.8,472.8 798.6,472.8 799.5,472.8 800.3,472.8 801.2,472.8 802.0,472.8 802.8,472.8 803.7,472.8 804.5,472.8 805.4,472.8 806.2,472.8 807.1,472.8 808.0,472.8 808.8,472.8 809.7,472.8 810.5,472.8 811.4,472.8 812.2,472.8 813.0,472.8 813.9,472.8 814.8,472.8 815.6,472.8 816.5,472.8 817.3,472.8 818.2,472.8 819.0,472.8 819.9,472.8 820.7,472.8 821.5,472.8 822.4,472.8 823.2,472.8 824.1,472.8 824.9,472.8 825.8,472.8 826.7,472.8 827.5,472.8 828.4,472.8 829.2,472.9 830.0,472.9 830.9,472.9 831.8,472.9 832.6,472.9 833.4,472.9 834.3,472.9 835.2,472.9 836.0,472.9 836.9,472.9 837.7,472.9 838.5,472.9 839.4,472.9 840.2,472.9 841.1,472.9 842.0,472.9 842.8,472.9 843.7,472.9 844.5,472.9 845.4,472.9 846.2,472.9 847.0,472.9 847.9,472.9 848.8,472.9 849.6,472.9 850.5,472.9 851.3,472.9 852.1,472.9 853.0,472.9 853.8,472.9 854.7,472.9 855.5,472.9 856.4,472.9 857.2,472.9 858.1,472.9 859.0,472.9 859.8,472.9 860.6,472.9 861.5,472.9 862.3,473.0 863.2,473.0 864.1,473.0 864.9,473.0 865.8,473.0 866.6,473.0 867.5,473.0 868.3,473.0 869.1,473.0 870.0,473.0 870.8,473.0 871.7,473.0 872.6,473.0 873.4,473.0 874.2,473.0 875.1,473.0 876.0,473.0 876.8,473.0 877.6,473.0 878.5,473.0 879.3,473.0 880.2,473.0 881.0,473.0 881.9,473.0 882.8,473.0 883.6,473.0 884.5,473.0 885.3,473.0 886.1,473.0 887.0,473.0 887.8,473.0 888.7,473.0 889.5,473.0 890.4,473.0 891.2,473.0 892.1,473.0 893.0,473.0 893.8,473.0 894.7,473.0 895.5,473.0 896.3,473.0 897.2,473.0 898.0,473.0 898.9,473.0 899.8,473.1 900.6,473.1 901.5,473.1 902.3,473.1 903.2,473.1 904.0,473.1 904.8,473.1 905.7,473.1 906.5,473.1 907.4,473.1 908.2,473.1 909.1,473.1 910.0,473.1 910.8,473.1 911.7,473.1 912.5,473.1 913.3,473.1 914.2,473.1 915.0,473.1 915.9,473.1 916.8,473.1 917.6,473.1 918.5,473.1 919.3,473.1 920.2,473.1 921.0,473.1 921.9,473.1 922.7,473.1 923.5,473.1 924.4,473.1 925.2,473.1 926.1,473.1 927.0,473.1 927.8,473.1 928.7,473.1 929.5,473.1 930.4,473.1 931.2,473.1 932.0,473.1 932.9,473.1 933.8,473.1 934.6,473.1 935.4,473.1 936.3,473.1 937.2,473.1 938.0,473.1 938.9,473.1 939.7,473.1 940.5,473.2 941.4,473.2 942.2,473.2 943.1,473.2 944.0,473.2 944.8,473.2 945.7,473.2 946.5,473.2 947.4,473.2 948.2,473.2 949.0,473.2 949.9,473.2 950.8,473.2 951.6,473.2 952.5,473.2 953.3,473.2 954.2,473.2 955.0,473.2" fill="none" stroke="#30332e" stroke-width="3" stroke-linejoin="round"/>
<polyline points="105.8,475.0 106.7,475.0 107.5,475.0 108.4,475.0 109.2,475.0 110.1,475.0 111.0,475.0 111.8,475.0 112.7,475.0 113.5,475.0 114.3,475.0 115.2,475.0 116.0,475.0 116.9,475.0 117.8,475.0 118.6,475.0 119.5,475.0 120.3,475.0 121.2,475.0 122.0,475.0 122.8,474.9 123.7,474.9 124.5,474.9 125.4,474.8 126.2,474.7 127.1,474.6 128.0,474.5 128.8,474.4 129.7,474.2 130.5,474.0 131.3,473.8 132.2,473.5 133.1,473.2 133.9,472.8 134.8,472.4 135.6,472.0 136.4,471.4 137.3,470.8 138.2,470.2 139.0,469.5 139.8,468.7 140.7,467.8 141.6,466.9 142.4,465.9 143.2,464.8 144.1,463.6 144.9,462.4 145.8,461.0 146.7,459.6 147.5,458.1 148.3,456.5 149.2,454.9 150.1,453.1 150.9,451.3 151.8,449.4 152.6,447.4 153.4,445.3 154.3,443.2 155.2,441.0 156.0,438.7 156.8,436.3 157.7,433.9 158.6,431.4 159.4,428.9 160.2,426.3 161.1,423.6 161.9,420.9 162.8,418.1 163.7,415.3 164.5,412.5 165.3,409.6 166.2,406.6 167.1,403.7 167.9,400.7 168.8,397.7 169.6,394.6 170.4,391.6 171.3,388.5 172.2,385.4 173.0,382.3 173.9,379.2 174.7,376.1 175.6,372.9 176.4,369.8 177.2,366.7 178.1,363.6 178.9,360.5 179.8,357.4 180.7,354.4 181.5,351.3 182.3,348.3 183.2,345.3 184.1,342.3 184.9,339.4 185.8,336.4 186.6,333.5 187.4,330.7 188.3,327.8 189.2,325.1 190.0,322.3 190.8,319.6 191.7,316.9 192.6,314.3 193.4,311.7 194.2,309.2 195.1,306.7 195.9,304.2 196.8,301.8 197.7,299.5 198.5,297.2 199.3,294.9 200.2,292.7 201.1,290.6 201.9,288.5 202.8,286.4 203.6,284.4 204.4,282.5 205.3,280.6 206.2,278.8 207.0,277.0 207.8,275.3 208.7,273.6 209.6,272.0 210.4,270.4 211.2,268.9 212.1,267.5 212.9,266.1 213.8,264.7 214.7,263.4 215.5,262.2 216.4,261.0 217.2,259.9 218.1,258.8 218.9,257.8 219.8,256.8 220.6,255.9 221.4,255.0 222.3,254.2 223.2,253.4 224.0,252.7 224.8,252.0 225.7,251.3 226.6,250.8 227.4,250.2 228.2,249.7 229.1,249.3 229.9,248.9 230.8,248.5 231.6,248.2 232.5,247.9 233.3,247.7 234.2,247.5 235.1,247.3 235.9,247.2 236.8,247.2 237.6,247.1 238.4,247.1 239.3,247.2 240.2,247.2 241.0,247.4 241.8,247.5 242.7,247.7 243.6,247.9 244.4,248.1 245.2,248.4 246.1,248.7 246.9,249.1 247.8,249.4 248.6,249.8 249.5,250.3 250.4,250.7 251.2,251.2 252.1,251.7 252.9,252.2 253.8,252.8 254.6,253.4 255.4,254.0 256.3,254.6 257.1,255.3 258.0,255.9 258.9,256.6 259.7,257.3 260.5,258.1 261.4,258.8 262.2,259.6 263.1,260.4 263.9,261.2 264.8,262.0 265.6,262.9 266.5,263.7 267.4,264.6 268.2,265.5 269.1,266.4 269.9,267.3 270.8,268.2 271.6,269.2 272.4,270.1 273.3,271.1 274.1,272.1 275.0,273.0 275.9,274.0 276.7,275.0 277.6,276.1 278.4,277.1 279.2,278.1 280.1,279.2 280.9,280.2 281.8,281.3 282.6,282.3 283.5,283.4 284.4,284.5 285.2,285.6 286.0,286.7 286.9,287.8 287.8,288.9 288.6,290.0 289.4,291.1 290.3,292.2 291.1,293.3 292.0,294.4 292.9,295.5 293.7,296.7 294.6,297.8 295.4,298.9 296.2,300.0 297.1,301.2 297.9,302.3 298.8,303.4 299.6,304.6 300.5,305.7 301.4,306.8 302.2,308.0 303.1,309.1 303.9,310.2 304.8,311.4 305.6,312.5 306.4,313.6 307.3,314.8 308.1,315.9 309.0,317.0 309.9,318.2 310.7,319.3 311.5,320.4 312.4,321.5 313.2,322.6 314.1,323.8 314.9,324.9 315.8,326.0 316.6,327.1 317.5,328.2 318.4,329.3 319.2,330.4 320.1,331.5 320.9,332.6 321.8,333.7 322.6,334.7 323.5,335.8 324.3,336.9 325.1,338.0 326.0,339.0 326.9,340.1 327.7,341.1 328.6,342.2 329.4,343.2 330.2,344.3 331.1,345.3 332.0,346.4 332.8,347.4 333.6,348.4 334.5,349.4 335.4,350.4 336.2,351.4 337.1,352.4 337.9,353.4 338.8,354.4 339.6,355.4 340.4,356.4 341.3,357.4 342.1,358.3 343.0,359.3 343.9,360.3 344.7,361.2 345.6,362.2 346.4,363.1 347.2,364.1 348.1,365.0 348.9,365.9 349.8,366.8 350.6,367.7 351.5,368.7 352.4,369.6 353.2,370.5 354.0,371.3 354.9,372.2 355.8,373.1 356.6,374.0 357.4,374.8 358.3,375.7 359.1,376.6 360.0,377.4 360.9,378.3 361.7,379.1 362.6,379.9 363.4,380.8 364.2,381.6 365.1,382.4 365.9,383.2 366.8,384.0 367.6,384.8 368.5,385.6 369.4,386.4 370.2,387.2 371.1,387.9 371.9,388.7 372.8,389.5 373.6,390.2 374.4,391.0 375.3,391.7 376.1,392.5 377.0,393.2 377.9,393.9 378.7,394.7 379.5,395.4 380.4,396.1 381.2,396.8 382.1,397.5 382.9,398.2 383.8,398.9 384.6,399.6 385.5,400.2 386.4,400.9 387.2,401.6 388.0,402.2 388.9,402.9 389.8,403.6 390.6,404.2 391.5,404.8 392.3,405.5 393.1,406.1 394.0,406.7 394.9,407.4 395.7,408.0 396.5,408.6 397.4,409.2 398.2,409.8 399.1,410.4 400.0,411.0 400.8,411.6 401.6,412.1 402.5,412.7 403.4,413.3 404.2,413.9 405.1,414.4 405.9,415.0 406.8,415.5 407.6,416.1 408.5,416.6 409.3,417.2 410.1,417.7 411.0,418.2 411.8,418.7 412.7,419.3 413.6,419.8 414.4,420.3 415.2,420.8 416.1,421.3 417.0,421.8 417.8,422.3 418.6,422.8 419.5,423.2 420.4,423.7 421.2,424.2 422.1,424.7 422.9,425.1 423.8,425.6 424.6,426.1 425.4,426.5 426.3,427.0 427.1,427.4 428.0,427.9 428.9,428.3 429.7,428.7 430.5,429.2 431.4,429.6 432.2,430.0 433.1,430.4 433.9,430.8 434.8,431.3 435.7,431.7 436.5,432.1 437.4,432.5 438.2,432.9 439.0,433.3 439.9,433.6 440.8,434.0 441.6,434.4 442.4,434.8 443.3,435.2 444.1,435.5 445.0,435.9 445.9,436.3 446.7,436.6 447.5,437.0 448.4,437.4 449.2,437.7 450.1,438.1 451.0,438.4 451.8,438.7 452.6,439.1 453.5,439.4 454.4,439.7 455.2,440.1 456.0,440.4 456.9,440.7 457.8,441.1 458.6,441.4 459.5,441.7 460.3,442.0 461.1,442.3 462.0,442.6 462.9,442.9 463.7,443.2 464.6,443.5 465.4,443.8 466.2,444.1 467.1,444.4 468.0,444.7 468.8,445.0 469.6,445.2 470.5,445.5 471.4,445.8 472.2,446.1 473.1,446.3 473.9,446.6 474.8,446.9 475.6,447.1 476.5,447.4 477.3,447.7 478.1,447.9 479.0,448.2 479.9,448.4 480.7,448.7 481.5,448.9 482.4,449.2 483.2,449.4 484.1,449.6 484.9,449.9 485.8,450.1 486.7,450.3 487.5,450.6 488.4,450.8 489.2,451.0 490.0,451.3 490.9,451.5 491.8,451.7 492.6,451.9 493.4,452.1 494.3,452.3 495.1,452.6 496.0,452.8 496.9,453.0 497.7,453.2 498.5,453.4 499.4,453.6 500.2,453.8 501.1,454.0 502.0,454.2 502.8,454.4 503.6,454.6 504.5,454.7 505.4,454.9 506.2,455.1 507.0,455.3 507.9,455.5 508.8,455.7 509.6,455.9 510.5,456.0 511.3,456.2 512.1,456.4 513.0,456.6 513.9,456.7 514.7,456.9 515.5,457.1 516.4,457.2 517.2,457.4 518.1,457.6 519.0,457.7 519.8,457.9 520.6,458.0 521.5,458.2 522.3,458.4 523.2,458.5 524.0,458.7 524.9,458.8 525.8,459.0 526.6,459.1 527.5,459.3 528.3,459.4 529.1,459.6 530.0,459.7 530.9,459.8 531.7,460.0 532.5,460.1 533.4,460.3 534.2,460.4 535.1,460.5 536.0,460.7 536.8,460.8 537.7,460.9 538.5,461.1 539.4,461.2 540.2,461.3 541.0,461.4 541.9,461.6 542.8,461.7 543.6,461.8 544.5,461.9 545.3,462.0 546.2,462.2 547.0,462.3 547.9,462.4 548.7,462.5 549.5,462.6 550.4,462.7 551.2,462.9 552.1,463.0 553.0,463.1 553.8,463.2 554.7,463.3 555.5,463.4 556.4,463.5 557.2,463.6 558.0,463.7 558.9,463.8 559.8,463.9 560.6,464.0 561.5,464.1 562.3,464.2 563.2,464.3 564.0,464.4 564.9,464.5 565.7,464.6 566.5,464.7 567.4,464.8 568.2,464.9 569.1,465.0 570.0,465.1 570.8,465.2 571.6,465.3 572.5,465.3 573.4,465.4 574.2,465.5 575.0,465.6 575.9,465.7 576.8,465.8 577.6,465.9 578.5,465.9 579.3,466.0 580.1,466.1 581.0,466.2 581.9,466.3 582.7,466.3 583.5,466.4 584.4,466.5 585.2,466.6 586.1,466.7 587.0,466.7 587.8,466.8 588.6,466.9 589.5,467.0 590.4,467.0 591.2,467.1 592.0,467.2 592.9,467.2 593.8,467.3 594.6,467.4 595.5,467.5 596.3,467.5 597.1,467.6 598.0,467.7 598.8,467.7 599.7,467.8 600.5,467.8 601.4,467.9 602.2,468.0 603.1,468.0 604.0,468.1 604.8,468.2 605.6,468.2 606.5,468.3 607.3,468.3 608.2,468.4 609.0,468.5 609.9,468.5 610.8,468.6 611.6,468.6 612.5,468.7 613.3,468.8 614.1,468.8 615.0,468.9 615.8,468.9 616.7,469.0 617.5,469.0 618.4,469.1 619.2,469.1 620.1,469.2 620.9,469.2 621.8,469.3 622.6,469.3 623.5,469.4 624.4,469.4 625.2,469.5 626.0,469.5 626.9,469.6 627.8,469.6 628.6,469.7 629.5,469.7 630.3,469.8 631.1,469.8 632.0,469.9 632.9,469.9 633.7,470.0 634.5,470.0 635.4,470.0 636.2,470.1 637.1,470.1 638.0,470.2 638.8,470.2 639.6,470.3 640.5,470.3 641.4,470.3 642.2,470.4 643.0,470.4 643.9,470.5 644.8,470.5 645.6,470.5 646.5,470.6 647.3,470.6 648.1,470.7 649.0,470.7 649.8,470.7 650.7,470.8 651.6,470.8 652.4,470.8 653.2,470.9 654.1,470.9 655.0,471.0 655.8,471.0 656.6,471.0 657.5,471.1 658.3,471.1 659.2,471.1 660.1,471.2 660.9,471.2 661.8,471.2 662.6,471.3 663.5,471.3 664.3,471.3 665.1,471.4 666.0,471.4 666.8,471.4 667.7,471.5 668.5,471.5 669.4,471.5 670.2,471.5 671.1,471.6 672.0,471.6 672.8,471.6 673.6,471.7 674.5,471.7 675.3,471.7 676.2,471.7 677.0,471.8 677.9,471.8 678.8,471.8 679.6,471.9 680.5,471.9 681.3,471.9 682.2,471.9 683.0,472.0 683.8,472.0 684.7,472.0 685.5,472.0 686.4,472.1 687.2,472.1 688.1,472.1 689.0,472.1 689.8,472.2 690.7,472.2 691.5,472.2 692.3,472.2 693.2,472.3 694.0,472.3 694.9,472.3 695.8,472.3 696.6,472.4 697.5,472.4 698.3,472.4 699.2,472.4 700.0,472.4 700.8,472.5 701.7,472.5 702.5,472.5 703.4,472.5 704.2,472.6 705.1,472.6 706.0,472.6 706.8,472.6 707.7,472.6 708.5,472.7 709.4,472.7 710.2,472.7 711.0,472.7 711.9,472.7 712.8,472.8 713.6,472.8 714.5,472.8 715.3,472.8 716.2,472.8 717.0,472.8 717.9,472.9 718.7,472.9 719.5,472.9 720.4,472.9 721.2,472.9 722.1,473.0 722.9,473.0 723.8,473.0 724.7,473.0 725.5,473.0 726.4,473.0 727.2,473.1 728.0,473.1 728.9,473.1 729.8,473.1 730.6,473.1 731.5,473.1 732.3,473.1 733.2,473.2 734.0,473.2 734.9,473.2 735.7,473.2 736.5,473.2 737.4,473.2 738.2,473.3 739.1,473.3 740.0,473.3 740.8,473.3 741.7,473.3 742.5,473.3 743.3,473.3 744.2,473.4 745.0,473.4 745.9,473.4 746.8,473.4 747.6,473.4 748.5,473.4 749.3,473.4 750.1,473.4 751.0,473.5 751.8,473.5 752.7,473.5 753.5,473.5 754.4,473.5 755.2,473.5 756.1,473.5 757.0,473.5 757.8,473.6 758.6,473.6 759.5,473.6 760.3,473.6 761.2,473.6 762.1,473.6 762.9,473.6 763.8,473.6 764.6,473.7 765.5,473.7 766.3,473.7 767.1,473.7 768.0,473.7 768.8,473.7 769.7,473.7 770.5,473.7 771.4,473.7 772.2,473.7 773.1,473.8 774.0,473.8 774.8,473.8 775.6,473.8 776.5,473.8 777.3,473.8 778.2,473.8 779.0,473.8 779.9,473.8 780.8,473.8 781.6,473.9 782.5,473.9 783.3,473.9 784.2,473.9 785.0,473.9 785.8,473.9 786.7,473.9 787.5,473.9 788.4,473.9 789.2,473.9 790.1,473.9 791.0,474.0 791.8,474.0 792.7,474.0 793.5,474.0 794.3,474.0 795.2,474.0 796.0,474.0 796.9,474.0 797.8,474.0 798.6,474.0 799.5,474.0 800.3,474.0 801.2,474.1 802.0,474.1 802.8,474.1 803.7,474.1 804.5,474.1 805.4,474.1 806.2,474.1 807.1,474.1 808.0,474.1 808.8,474.1 809.7,474.1 810.5,474.1 811.4,474.1 812.2,474.1 813.0,474.2 813.9,474.2 814.8,474.2 815.6,474.2 816.5,474.2 817.3,474.2 818.2,474.2 819.0,474.2 819.9,474.2 820.7,474.2 821.5,474.2 822.4,474.2 823.2,474.2 824.1,474.2 824.9,474.2 825.8,474.2 826.7,474.3 827.5,474.3 828.4,474.3 829.2,474.3 830.0,474.3 830.9,474.3 831.8,474.3 832.6,474.3 833.4,474.3 834.3,474.3 835.2,474.3 836.0,474.3 836.9,474.3 837.7,474.3 838.5,474.3 839.4,474.3 840.2,474.3 841.1,474.3 842.0,474.4 842.8,474.4 843.7,474.4 844.5,474.4 845.4,474.4 846.2,474.4 847.0,474.4 847.9,474.4 848.8,474.4 849.6,474.4 850.5,474.4 851.3,474.4 852.1,474.4 853.0,474.4 853.8,474.4 854.7,474.4 855.5,474.4 856.4,474.4 857.2,474.4 858.1,474.4 859.0,474.4 859.8,474.5 860.6,474.5 861.5,474.5 862.3,474.5 863.2,474.5 864.1,474.5 864.9,474.5 865.8,474.5 866.6,474.5 867.5,474.5 868.3,474.5 869.1,474.5 870.0,474.5 870.8,474.5 871.7,474.5 872.6,474.5 873.4,474.5 874.2,474.5 875.1,474.5 876.0,474.5 876.8,474.5 877.6,474.5 878.5,474.5 879.3,474.5 880.2,474.5 881.0,474.5 881.9,474.6 882.8,474.6 883.6,474.6 884.5,474.6 885.3,474.6 886.1,474.6 887.0,474.6 887.8,474.6 888.7,474.6 889.5,474.6 890.4,474.6 891.2,474.6 892.1,474.6 893.0,474.6 893.8,474.6 894.7,474.6 895.5,474.6 896.3,474.6 897.2,474.6 898.0,474.6 898.9,474.6 899.8,474.6 900.6,474.6 901.5,474.6 902.3,474.6 903.2,474.6 904.0,474.6 904.8,474.6 905.7,474.6 906.5,474.6 907.4,474.6 908.2,474.6 909.1,474.6 910.0,474.7 910.8,474.7 911.7,474.7 912.5,474.7 913.3,474.7 914.2,474.7 915.0,474.7 915.9,474.7 916.8,474.7 917.6,474.7 918.5,474.7 919.3,474.7 920.2,474.7 921.0,474.7 921.9,474.7 922.7,474.7 923.5,474.7 924.4,474.7 925.2,474.7 926.1,474.7 927.0,474.7 927.8,474.7 928.7,474.7 929.5,474.7 930.4,474.7 931.2,474.7 932.0,474.7 932.9,474.7 933.8,474.7 934.6,474.7 935.4,474.7 936.3,474.7 937.2,474.7 938.0,474.7 938.9,474.7 939.7,474.7 940.5,474.7 941.4,474.7 942.2,474.7 943.1,474.7 944.0,474.7 944.8,474.7 945.7,474.7 946.5,474.7 947.4,474.8 948.2,474.8 949.0,474.8 949.9,474.8 950.8,474.8 951.6,474.8 952.5,474.8 953.3,474.8 954.2,474.8 955.0,474.8" fill="none" stroke="#6670ee" stroke-width="4" stroke-linejoin="round"/>
<text x="173.0" y="171.2" text-anchor="start" font-family="-apple-system,BlinkMacSystemFont,PingFang SC,Noto Sans CJK SC,sans-serif" font-size="20" font-weight="700" fill="#30332e">α ∼ Normal(0, 10)</text>
<text x="360.0" y="297.8" text-anchor="start" font-family="-apple-system,BlinkMacSystemFont,PingFang SC,Noto Sans CJK SC,sans-serif" font-size="20" font-weight="700" fill="#6670ee">α ∼ Normal(3, 0.5)</text>
</svg>
