<svg xmlns="http://www.w3.org/2000/svg" width="1200" height="620" viewBox="0 0 1200 620" role="img">
<title>大洋洲工具模型的后验预测</title>
<desc>左图以标准化人口对数为横轴，右图以原始人口为横轴；实心点表示高接触社会，空心点表示低接触社会，曲线和阴影表示后验均值与百分之八十九相容区间。</desc>
<rect width="100%" height="100%" fill="#fbfaf6"/>
<defs>
<clipPath id="oceania-panel-0"><rect x="113" y="83" width="450" height="390"/></clipPath>
<clipPath id="oceania-panel-1"><rect x="693" y="83" width="450" height="390"/></clipPath>
</defs>
<rect x="35" y="45" width="550" height="500" rx="8" fill="#fff" stroke="#d9d5c8"/>
<line x1="113" y1="473" x2="563" y2="473" stroke="#30332e" stroke-width="1.5"/>
<line x1="113" y1="473" x2="113" y2="83" stroke="#30332e" stroke-width="1.5"/>
<text x="338.0" y="525.0" text-anchor="middle" font-family="-apple-system,BlinkMacSystemFont,PingFang SC,Noto Sans CJK SC,sans-serif" font-size="18" font-weight="400" fill="#30332e">人口对数（标准化）</text>
<text x="58.0" y="278.0" text-anchor="middle" font-family="-apple-system,BlinkMacSystemFont,PingFang SC,Noto Sans CJK SC,sans-serif" font-size="18" font-weight="400" fill="#30332e" transform="rotate(-90 58 278.0)">工具总数</text>
<line x1="165.3" y1="473" x2="165.3" y2="479" stroke="#30332e"/>
<text x="165.3" y="498.0" text-anchor="middle" font-family="-apple-system,BlinkMacSystemFont,PingFang SC,Noto Sans CJK SC,sans-serif" font-size="14" font-weight="400" fill="#30332e">-1</text>
<line x1="270.0" y1="473" x2="270.0" y2="479" stroke="#30332e"/>
<text x="270.0" y="498.0" text-anchor="middle" font-family="-apple-system,BlinkMacSystemFont,PingFang SC,Noto Sans CJK SC,sans-serif" font-size="14" font-weight="400" fill="#30332e">0</text>
<line x1="374.6" y1="473" x2="374.6" y2="479" stroke="#30332e"/>
<text x="374.6" y="498.0" text-anchor="middle" font-family="-apple-system,BlinkMacSystemFont,PingFang SC,Noto Sans CJK SC,sans-serif" font-size="14" font-weight="400" fill="#30332e">1</text>
<line x1="479.3" y1="473" x2="479.3" y2="479" stroke="#30332e"/>
<text x="479.3" y="498.0" text-anchor="middle" font-family="-apple-system,BlinkMacSystemFont,PingFang SC,Noto Sans CJK SC,sans-serif" font-size="14" font-weight="400" fill="#30332e">2</text>
<line x1="107" y1="473.0" x2="113" y2="473.0" stroke="#30332e"/>
<text x="103.0" y="478.0" text-anchor="end" font-family="-apple-system,BlinkMacSystemFont,PingFang SC,Noto Sans CJK SC,sans-serif" font-size="14" font-weight="400" fill="#30332e">0</text>
<line x1="113" y1="473.0" x2="563" y2="473.0" stroke="#d9d5c8" stroke-dasharray="4 6"/>
<line x1="107" y1="369.0" x2="113" y2="369.0" stroke="#30332e"/>
<text x="103.0" y="374.0" text-anchor="end" font-family="-apple-system,BlinkMacSystemFont,PingFang SC,Noto Sans CJK SC,sans-serif" font-size="14" font-weight="400" fill="#30332e">20</text>
<line x1="113" y1="369.0" x2="563" y2="369.0" stroke="#d9d5c8" stroke-dasharray="4 6"/>
<line x1="107" y1="265.0" x2="113" y2="265.0" stroke="#30332e"/>
<text x="103.0" y="270.0" text-anchor="end" font-family="-apple-system,BlinkMacSystemFont,PingFang SC,Noto Sans CJK SC,sans-serif" font-size="14" font-weight="400" fill="#30332e">40</text>
<line x1="113" y1="265.0" x2="563" y2="265.0" stroke="#d9d5c8" stroke-dasharray="4 6"/>
<line x1="107" y1="161.0" x2="113" y2="161.0" stroke="#30332e"/>
<text x="103.0" y="166.0" text-anchor="end" font-family="-apple-system,BlinkMacSystemFont,PingFang SC,Noto Sans CJK SC,sans-serif" font-size="14" font-weight="400" fill="#30332e">60</text>
<line x1="113" y1="161.0" x2="563" y2="161.0" stroke="#d9d5c8" stroke-dasharray="4 6"/>
<g clip-path="url(#oceania-panel-0)">
<polygon points="113.0,370.5 117.0,369.3 120.9,368.0 124.9,366.8 128.8,365.5 132.8,364.3 136.7,363.0 140.7,361.7 144.7,360.4 148.6,359.0 152.6,357.7 156.5,356.3 160.5,354.9 164.4,353.5 168.4,352.0 172.4,350.6 176.3,349.1 180.3,347.6 184.2,346.1 188.2,344.6 192.1,343.0 196.1,341.4 200.1,339.8 204.0,338.2 208.0,336.5 211.9,334.8 215.9,333.1 219.8,331.4 223.8,329.6 227.8,327.8 231.7,326.0 235.7,324.2 239.6,322.3 243.6,320.4 247.6,318.4 251.5,316.5 255.5,314.5 259.4,312.4 263.4,310.3 267.3,308.2 271.3,306.1 275.3,303.9 279.2,301.7 283.2,299.4 287.1,297.1 291.1,294.8 295.0,292.4 299.0,289.9 303.0,287.4 306.9,284.9 310.9,282.3 314.8,279.7 318.8,277.0 322.7,274.3 326.7,271.5 330.7,268.7 334.6,265.8 338.6,262.8 342.5,259.8 346.5,256.7 350.4,253.6 354.4,250.4 358.4,247.1 362.3,243.8 366.3,240.4 370.2,236.9 374.2,233.4 378.1,229.8 382.1,226.1 386.1,222.4 390.0,218.6 394.0,214.7 397.9,210.7 401.9,206.6 405.8,202.5 409.8,198.3 413.8,194.0 417.7,189.6 421.7,185.1 425.6,180.5 429.6,175.9 433.5,171.2 437.5,166.3 441.5,161.4 445.4,156.4 449.4,151.3 453.3,146.1 457.3,140.8 461.3,135.3 465.2,129.8 469.2,124.2 473.1,118.5 477.1,112.7 481.0,106.7 485.0,100.7 489.0,94.5 492.9,88.3 496.9,81.9 500.8,75.4 504.8,68.8 508.7,62.0 512.7,55.2 516.7,48.2 520.6,41.0 524.6,33.8 528.5,26.4 532.5,18.9 536.4,11.3 540.4,3.5 544.4,-4.5 548.3,-12.5 552.3,-20.7 556.2,-29.1 560.2,-37.6 564.1,-46.3 568.1,-55.1 572.1,-64.1 576.0,-73.2 580.0,-82.5 583.9,-92.0 583.9,116.3 580.0,120.4 576.0,124.5 572.1,128.5 568.1,132.5 564.1,136.5 560.2,140.4 556.2,144.3 552.3,148.1 548.3,151.9 544.4,155.7 540.4,159.4 536.4,163.1 532.5,166.8 528.5,170.4 524.6,173.9 520.6,177.5 516.7,181.0 512.7,184.5 508.7,187.9 504.8,191.3 500.8,194.7 496.9,198.0 492.9,201.3 489.0,204.6 485.0,207.8 481.0,211.0 477.1,214.2 473.1,217.4 469.2,220.5 465.2,223.6 461.3,226.6 457.3,229.7 453.3,232.7 449.4,235.7 445.4,238.6 441.5,241.6 437.5,244.5 433.5,247.3 429.6,250.2 425.6,253.0 421.7,255.8 417.7,258.6 413.8,261.4 409.8,264.1 405.8,266.8 401.9,269.5 397.9,272.2 394.0,274.8 390.0,277.4 386.1,280.0 382.1,282.6 378.1,285.2 374.2,287.7 370.2,290.3 366.3,292.7 362.3,295.2 358.4,297.7 354.4,300.1 350.4,302.5 346.5,304.9 342.5,307.3 338.6,309.7 334.6,312.0 330.7,314.3 326.7,316.6 322.7,318.9 318.8,321.1 314.8,323.4 310.9,325.6 306.9,327.7 303.0,329.9 299.0,332.0 295.0,334.2 291.1,336.3 287.1,338.3 283.2,340.4 279.2,342.4 275.3,344.4 271.3,346.4 267.3,348.4 263.4,350.3 259.4,352.2 255.5,354.1 251.5,356.0 247.6,357.8 243.6,359.6 239.6,361.4 235.7,363.2 231.7,364.9 227.8,366.7 223.8,368.4 219.8,370.1 215.9,371.7 211.9,373.3 208.0,375.0 204.0,376.5 200.1,378.1 196.1,379.7 192.1,381.2 188.2,382.7 184.2,384.1 180.3,385.6 176.3,387.0 172.4,388.5 168.4,389.8 164.4,391.2 160.5,392.6 156.5,393.9 152.6,395.2 148.6,396.5 144.7,397.8 140.7,399.0 136.7,400.2 132.8,401.4 128.8,402.6 124.9,403.8 120.9,405.0 117.0,406.1 113.0,407.2" fill="#7b7b78" fill-opacity="0.18"/>
<polygon points="113.0,254.6 117.0,255.0 120.9,255.4 124.9,255.8 128.8,256.2 132.8,256.6 136.7,257.0 140.7,257.4 144.7,257.8 148.6,258.1 152.6,258.5 156.5,258.9 160.5,259.2 164.4,259.5 168.4,259.9 172.4,260.2 176.3,260.5 180.3,260.8 184.2,261.0 188.2,261.3 192.1,261.5 196.1,261.8 200.1,262.0 204.0,262.1 208.0,262.3 211.9,262.4 215.9,262.5 219.8,262.5 223.8,262.5 227.8,262.4 231.7,262.3 235.7,262.1 239.6,261.9 243.6,261.5 247.6,261.1 251.5,260.6 255.5,259.9 259.4,259.1 263.4,258.2 267.3,257.1 271.3,255.8 275.3,254.4 279.2,252.7 283.2,250.9 287.1,248.9 291.1,246.7 295.0,244.3 299.0,241.8 303.0,239.1 306.9,236.2 310.9,233.2 314.8,230.0 318.8,226.7 322.7,223.2 326.7,219.7 330.7,216.0 334.6,212.2 338.6,208.3 342.5,204.3 346.5,200.2 350.4,196.0 354.4,191.7 358.4,187.3 362.3,182.7 366.3,178.1 370.2,173.4 374.2,168.6 378.1,163.7 382.1,158.7 386.1,153.6 390.0,148.4 394.0,143.1 397.9,137.7 401.9,132.2 405.8,126.6 409.8,120.9 413.8,115.1 417.7,109.1 421.7,103.1 425.6,97.0 429.6,90.7 433.5,84.4 437.5,77.9 441.5,71.3 445.4,64.6 449.4,57.8 453.3,50.8 457.3,43.7 461.3,36.6 465.2,29.2 469.2,21.8 473.1,14.2 477.1,6.5 481.0,-1.3 485.0,-9.3 489.0,-17.4 492.9,-25.7 496.9,-34.1 500.8,-42.6 504.8,-51.3 508.7,-60.2 512.7,-69.2 516.7,-78.3 520.6,-87.6 524.6,-97.1 528.5,-106.7 532.5,-116.5 536.4,-126.5 540.4,-136.6 544.4,-146.9 548.3,-157.4 552.3,-168.1 556.2,-179.0 560.2,-190.0 564.1,-201.2 568.1,-212.6 572.1,-224.3 576.0,-236.1 580.0,-248.1 583.9,-260.3 583.9,311.3 580.0,310.9 576.0,310.6 572.1,310.2 568.1,309.8 564.1,309.5 560.2,309.1 556.2,308.8 552.3,308.4 548.3,308.1 544.4,307.7 540.4,307.3 536.4,307.0 532.5,306.6 528.5,306.3 524.6,305.9 520.6,305.6 516.7,305.2 512.7,304.8 508.7,304.5 504.8,304.1 500.8,303.8 496.9,303.4 492.9,303.1 489.0,302.7 485.0,302.3 481.0,302.0 477.1,301.6 473.1,301.3 469.2,300.9 465.2,300.6 461.3,300.2 457.3,299.9 453.3,299.6 449.4,299.2 445.4,298.9 441.5,298.5 437.5,298.2 433.5,297.9 429.6,297.5 425.6,297.2 421.7,296.9 417.7,296.6 413.8,296.2 409.8,295.9 405.8,295.6 401.9,295.3 397.9,295.0 394.0,294.7 390.0,294.4 386.1,294.2 382.1,293.9 378.1,293.6 374.2,293.4 370.2,293.2 366.3,292.9 362.3,292.7 358.4,292.5 354.4,292.4 350.4,292.2 346.5,292.1 342.5,292.0 338.6,291.9 334.6,291.9 330.7,291.9 326.7,291.9 322.7,292.0 318.8,292.1 314.8,292.3 310.9,292.6 306.9,292.9 303.0,293.3 299.0,293.9 295.0,294.5 291.1,295.2 287.1,296.1 283.2,297.1 279.2,298.2 275.3,299.5 271.3,300.8 267.3,302.3 263.4,304.0 259.4,305.7 255.5,307.5 251.5,309.4 247.6,311.4 243.6,313.4 239.6,315.4 235.7,317.5 231.7,319.7 227.8,321.8 223.8,324.0 219.8,326.1 215.9,328.3 211.9,330.4 208.0,332.6 204.0,334.7 200.1,336.8 196.1,338.9 192.1,341.0 188.2,343.0 184.2,345.1 180.3,347.1 176.3,349.1 172.4,351.1 168.4,353.0 164.4,354.9 160.5,356.8 156.5,358.7 152.6,360.5 148.6,362.4 144.7,364.2 140.7,365.9 136.7,367.7 132.8,369.4 128.8,371.1 124.9,372.7 120.9,374.4 117.0,376.0 113.0,377.6" fill="#7b7b78" fill-opacity="0.28"/>
<polyline points="113.0,390.1 117.0,388.9 120.9,387.7 124.9,386.5 128.8,385.3 132.8,384.0 136.7,382.8 140.7,381.5 144.7,380.2 148.6,378.9 152.6,377.5 156.5,376.2 160.5,374.8 164.4,373.4 168.4,372.0 172.4,370.6 176.3,369.1 180.3,367.6 184.2,366.1 188.2,364.6 192.1,363.1 196.1,361.5 200.1,359.9 204.0,358.3 208.0,356.7 211.9,355.0 215.9,353.4 219.8,351.7 223.8,349.9 227.8,348.2 231.7,346.4 235.7,344.6 239.6,342.7 243.6,340.9 247.6,339.0 251.5,337.1 255.5,335.1 259.4,333.2 263.4,331.2 267.3,329.1 271.3,327.1 275.3,325.0 279.2,322.9 283.2,320.7 287.1,318.6 291.1,316.3 295.0,314.1 299.0,311.8 303.0,309.5 306.9,307.2 310.9,304.8 314.8,302.4 318.8,299.9 322.7,297.4 326.7,294.9 330.7,292.4 334.6,289.8 338.6,287.1 342.5,284.5 346.5,281.8 350.4,279.0 354.4,276.2 358.4,273.4 362.3,270.5 366.3,267.6 370.2,264.6 374.2,261.6 378.1,258.6 382.1,255.5 386.1,252.4 390.0,249.2 394.0,245.9 397.9,242.7 401.9,239.3 405.8,236.0 409.8,232.5 413.8,229.1 417.7,225.6 421.7,222.0 425.6,218.3 429.6,214.7 433.5,210.9 437.5,207.1 441.5,203.3 445.4,199.4 449.4,195.4 453.3,191.4 457.3,187.3 461.3,183.2 465.2,179.0 469.2,174.7 473.1,170.4 477.1,166.0 481.0,161.5 485.0,157.0 489.0,152.4 492.9,147.8 496.9,143.0 500.8,138.3 504.8,133.4 508.7,128.4 512.7,123.4 516.7,118.4 520.6,113.2 524.6,108.0 528.5,102.6 532.5,97.2 536.4,91.8 540.4,86.2 544.4,80.6 548.3,74.9 552.3,69.0 556.2,63.2 560.2,57.2 564.1,51.1 568.1,44.9 572.1,38.7 576.0,32.4 580.0,25.9 583.9,19.4" fill="none" stroke="#30332e" stroke-width="3" stroke-dasharray="9 7"/>
<polyline points="113.0,323.7 117.0,322.8 120.9,321.9 124.9,321.1 128.8,320.2 132.8,319.2 136.7,318.3 140.7,317.4 144.7,316.4 148.6,315.5 152.6,314.5 156.5,313.5 160.5,312.5 164.4,311.5 168.4,310.5 172.4,309.4 176.3,308.4 180.3,307.3 184.2,306.3 188.2,305.2 192.1,304.1 196.1,303.0 200.1,301.9 204.0,300.7 208.0,299.6 211.9,298.4 215.9,297.2 219.8,296.0 223.8,294.8 227.8,293.6 231.7,292.4 235.7,291.1 239.6,289.8 243.6,288.6 247.6,287.3 251.5,285.9 255.5,284.6 259.4,283.3 263.4,281.9 267.3,280.5 271.3,279.1 275.3,277.7 279.2,276.3 283.2,274.8 287.1,273.4 291.1,271.9 295.0,270.4 299.0,268.8 303.0,267.3 306.9,265.7 310.9,264.2 314.8,262.5 318.8,260.9 322.7,259.3 326.7,257.6 330.7,255.9 334.6,254.2 338.6,252.5 342.5,250.8 346.5,249.0 350.4,247.2 354.4,245.4 358.4,243.6 362.3,241.7 366.3,239.8 370.2,237.9 374.2,236.0 378.1,234.0 382.1,232.0 386.1,230.0 390.0,228.0 394.0,225.9 397.9,223.9 401.9,221.8 405.8,219.6 409.8,217.4 413.8,215.3 417.7,213.0 421.7,210.8 425.6,208.5 429.6,206.2 433.5,203.9 437.5,201.5 441.5,199.1 445.4,196.7 449.4,194.2 453.3,191.7 457.3,189.2 461.3,186.6 465.2,184.0 469.2,181.4 473.1,178.7 477.1,176.0 481.0,173.3 485.0,170.5 489.0,167.7 492.9,164.9 496.9,162.0 500.8,159.1 504.8,156.1 508.7,153.1 512.7,150.1 516.7,147.0 520.6,143.9 524.6,140.7 528.5,137.5 532.5,134.3 536.4,131.0 540.4,127.7 544.4,124.3 548.3,120.9 552.3,117.4 556.2,113.9 560.2,110.3 564.1,106.7 568.1,103.0 572.1,99.3 576.0,95.5 580.0,91.7 583.9,87.9" fill="none" stroke="#30332e" stroke-width="3"/>
<circle cx="134.8" cy="405.4" r="7.2" fill="#fff" stroke="#6670ee" stroke-width="3"/>
<circle cx="156.1" cy="358.6" r="7.1" fill="#fff" stroke="#6670ee" stroke-width="3"/>
<circle cx="216.0" cy="348.2" r="7.4" fill="#fff" stroke="#6670ee" stroke-width="3"/>
<circle cx="235.6" cy="249.4" r="9.0" fill="#6670ee" stroke="#6670ee" stroke-width="3"/>
<circle cx="265.3" cy="301.4" r="7.5" fill="#6670ee" stroke="#6670ee" stroke-width="3"/>
<circle cx="270.7" cy="374.2" r="8.8" fill="#6670ee" stroke="#6670ee" stroke-width="3"/>
<circle cx="280.2" cy="265.0" r="7.7" fill="#6670ee" stroke="#6670ee" stroke-width="3"/>
<circle cx="303.9" cy="327.4" r="7.3" fill="#fff" stroke="#6670ee" stroke-width="3"/>
<circle cx="324.3" cy="187.0" r="9.4" fill="#6670ee" stroke="#6670ee" stroke-width="3"/>
<circle cx="512.9" cy="103.8" r="11.1" fill="#fff" stroke="#6670ee" stroke-width="3"/>
</g>
<text x="223.6" y="231.4" text-anchor="end" font-family="-apple-system,BlinkMacSystemFont,PingFang SC,Noto Sans CJK SC,sans-serif" font-size="15" font-weight="400" fill="#30332e">Yap (.60)</text>
<text x="284.7" y="396.2" text-anchor="start" font-family="-apple-system,BlinkMacSystemFont,PingFang SC,Noto Sans CJK SC,sans-serif" font-size="15" font-weight="400" fill="#30332e">Trobriand (.56)</text>
<text x="312.3" y="169.0" text-anchor="end" font-family="-apple-system,BlinkMacSystemFont,PingFang SC,Noto Sans CJK SC,sans-serif" font-size="15" font-weight="400" fill="#30332e">Tonga (.69)</text>
<text x="500.9" y="85.8" text-anchor="end" font-family="-apple-system,BlinkMacSystemFont,PingFang SC,Noto Sans CJK SC,sans-serif" font-size="15" font-weight="400" fill="#30332e">Hawaii (1.01)</text>
<rect x="615" y="45" width="550" height="500" rx="8" fill="#fff" stroke="#d9d5c8"/>
<line x1="693" y1="473" x2="1143" y2="473" stroke="#30332e" stroke-width="1.5"/>
<line x1="693" y1="473" x2="693" y2="83" stroke="#30332e" stroke-width="1.5"/>
<text x="918.0" y="525.0" text-anchor="middle" font-family="-apple-system,BlinkMacSystemFont,PingFang SC,Noto Sans CJK SC,sans-serif" font-size="18" font-weight="400" fill="#30332e">人口</text>
<text x="638.0" y="278.0" text-anchor="middle" font-family="-apple-system,BlinkMacSystemFont,PingFang SC,Noto Sans CJK SC,sans-serif" font-size="18" font-weight="400" fill="#30332e" transform="rotate(-90 638 278.0)">工具总数</text>
<line x1="693.0" y1="473" x2="693.0" y2="479" stroke="#30332e"/>
<text x="693.0" y="498.0" text-anchor="middle" font-family="-apple-system,BlinkMacSystemFont,PingFang SC,Noto Sans CJK SC,sans-serif" font-size="14" font-weight="400" fill="#30332e">0</text>
<line x1="768.0" y1="473" x2="768.0" y2="479" stroke="#30332e"/>
<text x="768.0" y="498.0" text-anchor="middle" font-family="-apple-system,BlinkMacSystemFont,PingFang SC,Noto Sans CJK SC,sans-serif" font-size="14" font-weight="400" fill="#30332e">5万</text>
<line x1="918.0" y1="473" x2="918.0" y2="479" stroke="#30332e"/>
<text x="918.0" y="498.0" text-anchor="middle" font-family="-apple-system,BlinkMacSystemFont,PingFang SC,Noto Sans CJK SC,sans-serif" font-size="14" font-weight="400" fill="#30332e">15万</text>
<line x1="1068.0" y1="473" x2="1068.0" y2="479" stroke="#30332e"/>
<text x="1068.0" y="498.0" text-anchor="middle" font-family="-apple-system,BlinkMacSystemFont,PingFang SC,Noto Sans CJK SC,sans-serif" font-size="14" font-weight="400" fill="#30332e">25万</text>
<line x1="687" y1="473.0" x2="693" y2="473.0" stroke="#30332e"/>
<text x="683.0" y="478.0" text-anchor="end" font-family="-apple-system,BlinkMacSystemFont,PingFang SC,Noto Sans CJK SC,sans-serif" font-size="14" font-weight="400" fill="#30332e">0</text>
<line x1="693" y1="473.0" x2="1143" y2="473.0" stroke="#d9d5c8" stroke-dasharray="4 6"/>
<line x1="687" y1="369.0" x2="693" y2="369.0" stroke="#30332e"/>
<text x="683.0" y="374.0" text-anchor="end" font-family="-apple-system,BlinkMacSystemFont,PingFang SC,Noto Sans CJK SC,sans-serif" font-size="14" font-weight="400" fill="#30332e">20</text>
<line x1="693" y1="369.0" x2="1143" y2="369.0" stroke="#d9d5c8" stroke-dasharray="4 6"/>
<line x1="687" y1="265.0" x2="693" y2="265.0" stroke="#30332e"/>
<text x="683.0" y="270.0" text-anchor="end" font-family="-apple-system,BlinkMacSystemFont,PingFang SC,Noto Sans CJK SC,sans-serif" font-size="14" font-weight="400" fill="#30332e">40</text>
<line x1="693" y1="265.0" x2="1143" y2="265.0" stroke="#d9d5c8" stroke-dasharray="4 6"/>
<line x1="687" y1="161.0" x2="693" y2="161.0" stroke="#30332e"/>
<text x="683.0" y="166.0" text-anchor="end" font-family="-apple-system,BlinkMacSystemFont,PingFang SC,Noto Sans CJK SC,sans-serif" font-size="14" font-weight="400" fill="#30332e">60</text>
<line x1="693" y1="161.0" x2="1143" y2="161.0" stroke="#d9d5c8" stroke-dasharray="4 6"/>
<g clip-path="url(#oceania-panel-1)">
<polygon points="693.0,437.2 693.0,436.5 693.0,435.7 693.0,435.0 693.0,434.2 693.0,433.4 693.0,432.6 693.0,431.8 693.0,431.0 693.0,430.1 693.0,429.3 693.0,428.4 693.0,427.5 693.0,426.6 693.0,425.6 693.0,424.7 693.0,423.7 693.0,422.7 693.0,421.7 693.0,420.6 693.0,419.6 693.0,418.5 693.1,417.4 693.1,416.3 693.1,415.1 693.1,413.9 693.1,412.7 693.1,411.5 693.1,410.2 693.1,409.0 693.1,407.7 693.1,406.3 693.2,405.0 693.2,403.6 693.2,402.1 693.2,400.7 693.2,399.2 693.3,397.7 693.3,396.2 693.3,394.6 693.3,393.0 693.4,391.3 693.4,389.6 693.5,387.9 693.5,386.2 693.6,384.4 693.6,382.5 693.7,380.6 693.8,378.7 693.9,376.8 694.0,374.7 694.1,372.7 694.2,370.6 694.3,368.4 694.5,366.2 694.6,364.0 694.8,361.7 695.0,359.3 695.2,356.9 695.4,354.4 695.7,351.9 696.0,349.3 696.3,346.6 696.7,343.9 697.1,341.0 697.5,338.2 698.0,335.2 698.6,332.2 699.2,329.0 699.8,325.8 700.6,322.5 701.4,319.1 702.3,315.6 703.3,312.0 704.4,308.2 705.7,304.4 707.0,300.4 708.6,296.3 710.2,292.1 712.1,287.7 714.2,283.2 716.5,278.5 719.0,273.7 721.8,268.7 724.9,263.5 728.4,258.1 732.2,252.5 736.5,246.8 741.2,240.8 746.4,234.6 752.2,228.2 758.6,221.5 765.7,214.7 773.5,207.5 782.2,200.1 791.9,192.5 802.6,184.6 814.4,176.4 827.6,167.9 842.2,159.2 858.3,150.1 876.2,140.8 896.0,131.1 918.0,121.1 942.3,110.7 969.3,100.0 999.2,89.0 1032.3,77.6 1069.1,65.8 1109.8,53.6 1154.9,41.0 1204.8,28.1 1260.2,14.7 1321.6,0.8 1389.6,-13.4 1465.0,-28.2 1548.6,-43.4 1641.2,-59.1 1743.8,-75.3 1857.5,-92.0 1857.5,116.3 1743.8,123.6 1641.2,130.8 1548.6,137.8 1465.0,144.7 1389.6,151.5 1321.6,158.2 1260.2,164.7 1204.8,171.2 1154.9,177.5 1109.8,183.7 1069.1,189.8 1032.3,195.8 999.2,201.7 969.3,207.5 942.3,213.2 918.0,218.7 896.0,224.3 876.2,229.7 858.3,235.0 842.2,240.3 827.6,245.4 814.4,250.5 802.6,255.5 791.9,260.4 782.2,265.3 773.5,270.1 765.7,274.8 758.6,279.5 752.2,284.1 746.4,288.6 741.2,293.0 736.5,297.4 732.2,301.7 728.4,306.0 724.9,310.2 721.8,314.3 719.0,318.4 716.5,322.4 714.2,326.3 712.1,330.1 710.2,333.9 708.6,337.6 707.0,341.3 705.7,344.9 704.4,348.4 703.3,351.8 702.3,355.1 701.4,358.4 700.6,361.6 699.8,364.8 699.2,367.8 698.6,370.8 698.0,373.7 697.5,376.5 697.1,379.3 696.7,382.0 696.3,384.6 696.0,387.2 695.7,389.7 695.4,392.1 695.2,394.5 695.0,396.8 694.8,399.0 694.6,401.2 694.5,403.3 694.3,405.3 694.2,407.3 694.1,409.3 694.0,411.2 693.9,413.0 693.8,414.8 693.7,416.5 693.6,418.2 693.6,419.8 693.5,421.4 693.5,423.0 693.4,424.5 693.4,425.9 693.3,427.3 693.3,428.7 693.3,430.0 693.3,431.3 693.2,432.5 693.2,433.8 693.2,434.9 693.2,436.1 693.2,437.2 693.1,438.3 693.1,439.3 693.1,440.3 693.1,441.3 693.1,442.3 693.1,443.2 693.1,444.1 693.1,445.0 693.1,445.8 693.1,446.6 693.0,447.4 693.0,448.2 693.0,448.9 693.0,449.7 693.0,450.4 693.0,451.1 693.0,451.7 693.0,452.4 693.0,453.0 693.0,453.6 693.0,454.2 693.0,454.8 693.0,455.3 693.0,455.8 693.0,456.4 693.0,456.9 693.0,457.4 693.0,457.8 693.0,458.3 693.0,458.7 693.0,459.2 693.0,459.6" fill="#7b7b78" fill-opacity="0.18"/>
<polygon points="693.0,205.5 693.0,206.5 693.0,207.6 693.0,208.7 693.0,209.7 693.0,210.8 693.0,211.9 693.0,212.9 693.0,214.0 693.0,215.0 693.0,216.0 693.0,217.1 693.0,218.1 693.0,219.1 693.0,220.1 693.0,221.1 693.0,222.1 693.0,223.1 693.0,224.1 693.0,225.1 693.0,226.1 693.0,227.1 693.1,228.1 693.1,229.0 693.1,230.0 693.1,231.0 693.1,231.9 693.1,232.9 693.1,233.8 693.1,234.8 693.1,235.7 693.1,236.6 693.2,237.6 693.2,238.5 693.2,239.4 693.2,240.3 693.2,241.2 693.3,242.1 693.3,243.0 693.3,243.8 693.3,244.7 693.4,245.6 693.4,246.4 693.5,247.3 693.5,248.1 693.6,249.0 693.6,249.8 693.7,250.6 693.8,251.4 693.9,252.2 694.0,253.0 694.1,253.8 694.2,254.5 694.3,255.3 694.5,256.0 694.6,256.7 694.8,257.4 695.0,258.1 695.2,258.7 695.4,259.3 695.7,259.9 696.0,260.5 696.3,261.0 696.7,261.4 697.1,261.8 697.5,262.1 698.0,262.4 698.6,262.5 699.2,262.5 699.8,262.3 700.6,261.9 701.4,261.3 702.3,260.3 703.3,258.9 704.4,257.1 705.7,254.7 707.0,251.7 708.6,248.2 710.2,244.1 712.1,239.4 714.2,234.2 716.5,228.5 719.0,222.5 721.8,216.0 724.9,209.2 728.4,202.0 732.2,194.6 736.5,186.8 741.2,178.6 746.4,170.2 752.2,161.5 758.6,152.5 765.7,143.1 773.5,133.4 782.2,123.4 791.9,113.1 802.6,102.4 814.4,91.4 827.6,80.1 842.2,68.3 858.3,56.2 876.2,43.7 896.0,30.9 918.0,17.6 942.3,3.9 969.3,-10.2 999.2,-24.8 1032.3,-39.8 1069.1,-55.2 1109.8,-71.2 1154.9,-87.6 1204.8,-104.6 1260.2,-122.0 1321.6,-140.0 1389.6,-158.6 1465.0,-177.7 1548.6,-197.5 1641.2,-217.8 1743.8,-238.7 1857.5,-260.3 1857.5,311.3 1743.8,310.6 1641.2,310.0 1548.6,309.4 1465.0,308.7 1389.6,308.1 1321.6,307.5 1260.2,306.8 1204.8,306.2 1154.9,305.6 1109.8,304.9 1069.1,304.3 1032.3,303.7 999.2,303.0 969.3,302.4 942.3,301.8 918.0,301.1 896.0,300.5 876.2,299.9 858.3,299.3 842.2,298.7 827.6,298.1 814.4,297.5 802.6,296.9 791.9,296.3 782.2,295.8 773.5,295.2 765.7,294.7 758.6,294.2 752.2,293.8 746.4,293.3 741.2,292.9 736.5,292.6 732.2,292.3 728.4,292.0 724.9,291.9 721.8,291.9 719.0,292.0 716.5,292.2 714.2,292.7 712.1,293.4 710.2,294.4 708.6,295.8 707.0,297.6 705.7,299.8 704.4,302.3 703.3,305.3 702.3,308.5 701.4,312.0 700.6,315.7 699.8,319.4 699.2,323.2 698.6,327.1 698.0,330.9 697.5,334.7 697.1,338.4 696.7,342.1 696.3,345.8 696.0,349.3 695.7,352.8 695.4,356.2 695.2,359.5 695.0,362.8 694.8,365.9 694.6,369.0 694.5,372.0 694.3,374.9 694.2,377.8 694.1,380.5 694.0,383.2 693.9,385.8 693.8,388.4 693.7,390.8 693.6,393.2 693.6,395.6 693.5,397.8 693.5,400.0 693.4,402.2 693.4,404.2 693.3,406.3 693.3,408.2 693.3,410.1 693.3,412.0 693.2,413.8 693.2,415.5 693.2,417.2 693.2,418.8 693.2,420.4 693.1,422.0 693.1,423.5 693.1,424.9 693.1,426.4 693.1,427.7 693.1,429.1 693.1,430.4 693.1,431.6 693.1,432.8 693.1,434.0 693.0,435.2 693.0,436.3 693.0,437.4 693.0,438.4 693.0,439.5 693.0,440.4 693.0,441.4 693.0,442.3 693.0,443.2 693.0,444.1 693.0,445.0 693.0,445.8 693.0,446.6 693.0,447.4 693.0,448.1 693.0,448.9 693.0,449.6 693.0,450.3 693.0,451.0 693.0,451.6 693.0,452.2 693.0,452.9" fill="#7b7b78" fill-opacity="0.28"/>
<polyline points="693.0,450.0 693.0,449.5 693.0,448.9 693.0,448.3 693.0,447.7 693.0,447.1 693.0,446.4 693.0,445.8 693.0,445.1 693.0,444.4 693.0,443.7 693.0,443.0 693.0,442.2 693.0,441.4 693.0,440.7 693.0,439.9 693.0,439.0 693.0,438.2 693.0,437.3 693.0,436.4 693.0,435.5 693.0,434.6 693.1,433.6 693.1,432.7 693.1,431.7 693.1,430.6 693.1,429.6 693.1,428.5 693.1,427.4 693.1,426.2 693.1,425.1 693.1,423.9 693.2,422.6 693.2,421.4 693.2,420.1 693.2,418.8 693.2,417.4 693.3,416.0 693.3,414.6 693.3,413.1 693.3,411.6 693.4,410.0 693.4,408.5 693.5,406.8 693.5,405.2 693.6,403.5 693.6,401.7 693.7,399.9 693.8,398.1 693.9,396.2 694.0,394.2 694.1,392.2 694.2,390.2 694.3,388.1 694.5,386.0 694.6,383.8 694.8,381.5 695.0,379.2 695.2,376.8 695.4,374.4 695.7,371.9 696.0,369.3 696.3,366.7 696.7,363.9 697.1,361.2 697.5,358.3 698.0,355.4 698.6,352.4 699.2,349.3 699.8,346.2 700.6,343.0 701.4,339.6 702.3,336.2 703.3,332.7 704.4,329.1 705.7,325.5 707.0,321.7 708.6,317.8 710.2,313.8 712.1,309.8 714.2,305.6 716.5,301.3 719.0,296.9 721.8,292.4 724.9,287.7 728.4,283.0 732.2,278.1 736.5,273.1 741.2,267.9 746.4,262.6 752.2,257.2 758.6,251.7 765.7,245.9 773.5,240.1 782.2,234.1 791.9,227.9 802.6,221.6 814.4,215.1 827.6,208.4 842.2,201.6 858.3,194.5 876.2,187.3 896.0,179.9 918.0,172.3 942.3,164.5 969.3,156.5 999.2,148.3 1032.3,139.9 1069.1,131.2 1109.8,122.3 1154.9,113.2 1204.8,103.8 1260.2,94.2 1321.6,84.3 1389.6,74.2 1465.0,63.8 1548.6,53.1 1641.2,42.2 1743.8,30.9 1857.5,19.4" fill="none" stroke="#30332e" stroke-width="3" stroke-dasharray="9 7"/>
<polyline points="693.0,371.1 693.0,370.7 693.0,370.2 693.0,369.7 693.0,369.3 693.0,368.7 693.0,368.2 693.0,367.7 693.0,367.1 693.0,366.6 693.0,366.0 693.0,365.4 693.0,364.8 693.0,364.1 693.0,363.5 693.0,362.8 693.0,362.2 693.0,361.5 693.0,360.8 693.0,360.0 693.0,359.3 693.0,358.5 693.1,357.7 693.1,356.9 693.1,356.1 693.1,355.3 693.1,354.4 693.1,353.5 693.1,352.6 693.1,351.7 693.1,350.8 693.1,349.8 693.2,348.8 693.2,347.8 693.2,346.8 693.2,345.7 693.2,344.6 693.3,343.5 693.3,342.4 693.3,341.3 693.3,340.1 693.4,338.9 693.4,337.7 693.5,336.4 693.5,335.1 693.6,333.8 693.6,332.5 693.7,331.1 693.8,329.7 693.9,328.3 694.0,326.8 694.1,325.3 694.2,323.8 694.3,322.2 694.5,320.7 694.6,319.0 694.8,317.4 695.0,315.7 695.2,313.9 695.4,312.2 695.7,310.4 696.0,308.5 696.3,306.6 696.7,304.7 697.1,302.7 697.5,300.7 698.0,298.7 698.6,296.6 699.2,294.4 699.8,292.2 700.6,290.0 701.4,287.7 702.3,285.4 703.3,283.0 704.4,280.5 705.7,278.0 707.0,275.5 708.6,272.9 710.2,270.2 712.1,267.5 714.2,264.7 716.5,261.8 719.0,258.9 721.8,255.9 724.9,252.9 728.4,249.8 732.2,246.6 736.5,243.4 741.2,240.0 746.4,236.6 752.2,233.1 758.6,229.6 765.7,225.9 773.5,222.2 782.2,218.4 791.9,214.5 802.6,210.5 814.4,206.5 827.6,202.3 842.2,198.0 858.3,193.7 876.2,189.2 896.0,184.6 918.0,179.9 942.3,175.1 969.3,170.2 999.2,165.2 1032.3,160.1 1069.1,154.8 1109.8,149.4 1154.9,143.9 1204.8,138.3 1260.2,132.5 1321.6,126.6 1389.6,120.5 1465.0,114.3 1548.6,107.9 1641.2,101.4 1743.8,94.7 1857.5,87.9" fill="none" stroke="#30332e" stroke-width="3"/>
<circle cx="694.6" cy="405.4" r="7.2" fill="#fff" stroke="#6670ee" stroke-width="3"/>
<circle cx="695.2" cy="358.6" r="7.1" fill="#fff" stroke="#6670ee" stroke-width="3"/>
<circle cx="698.4" cy="348.2" r="7.4" fill="#fff" stroke="#6670ee" stroke-width="3"/>
<circle cx="700.2" cy="249.4" r="9.0" fill="#6670ee" stroke="#6670ee" stroke-width="3"/>
<circle cx="704.1" cy="301.4" r="7.5" fill="#6670ee" stroke="#6670ee" stroke-width="3"/>
<circle cx="705.0" cy="374.2" r="8.8" fill="#6670ee" stroke="#6670ee" stroke-width="3"/>
<circle cx="706.8" cy="265.0" r="7.7" fill="#6670ee" stroke="#6670ee" stroke-width="3"/>
<circle cx="712.5" cy="327.4" r="7.3" fill="#fff" stroke="#6670ee" stroke-width="3"/>
<circle cx="719.2" cy="187.0" r="9.4" fill="#6670ee" stroke="#6670ee" stroke-width="3"/>
<circle cx="1105.5" cy="103.8" r="11.1" fill="#fff" stroke="#6670ee" stroke-width="3"/>
</g>
</svg>
