<svg xmlns="http://www.w3.org/2000/svg" width="1200" height="560" viewBox="0 0 1200 560" role="img">
<title>测度集中与高维诅咒</title>
<desc>一维、十维、一百维和一千维标准高斯分布中，样本到后验众数的径向距离密度随维度增加而远离零。</desc>
<rect width="100%" height="100%" fill="#fff"/>
<rect x="100" y="65" width="1060" height="405" fill="#fff" stroke="#30332e"/>
<line x1="100.0" y1="470" x2="100.0" y2="477" stroke="#30332e"/>
<text x="100.0" y="501" text-anchor="middle" font-family="-apple-system,BlinkMacSystemFont,PingFang SC,Noto Sans CJK SC,sans-serif" font-size="17">0</text>
<line x1="251.4" y1="470" x2="251.4" y2="477" stroke="#30332e"/>
<text x="251.4" y="501" text-anchor="middle" font-family="-apple-system,BlinkMacSystemFont,PingFang SC,Noto Sans CJK SC,sans-serif" font-size="17">5</text>
<line x1="402.9" y1="470" x2="402.9" y2="477" stroke="#30332e"/>
<text x="402.9" y="501" text-anchor="middle" font-family="-apple-system,BlinkMacSystemFont,PingFang SC,Noto Sans CJK SC,sans-serif" font-size="17">10</text>
<line x1="554.3" y1="470" x2="554.3" y2="477" stroke="#30332e"/>
<text x="554.3" y="501" text-anchor="middle" font-family="-apple-system,BlinkMacSystemFont,PingFang SC,Noto Sans CJK SC,sans-serif" font-size="17">15</text>
<line x1="705.7" y1="470" x2="705.7" y2="477" stroke="#30332e"/>
<text x="705.7" y="501" text-anchor="middle" font-family="-apple-system,BlinkMacSystemFont,PingFang SC,Noto Sans CJK SC,sans-serif" font-size="17">20</text>
<line x1="857.1" y1="470" x2="857.1" y2="477" stroke="#30332e"/>
<text x="857.1" y="501" text-anchor="middle" font-family="-apple-system,BlinkMacSystemFont,PingFang SC,Noto Sans CJK SC,sans-serif" font-size="17">25</text>
<line x1="1008.6" y1="470" x2="1008.6" y2="477" stroke="#30332e"/>
<text x="1008.6" y="501" text-anchor="middle" font-family="-apple-system,BlinkMacSystemFont,PingFang SC,Noto Sans CJK SC,sans-serif" font-size="17">30</text>
<line x1="1160.0" y1="470" x2="1160.0" y2="477" stroke="#30332e"/>
<text x="1160.0" y="501" text-anchor="middle" font-family="-apple-system,BlinkMacSystemFont,PingFang SC,Noto Sans CJK SC,sans-serif" font-size="17">35</text>
<line x1="93" y1="470.0" x2="100" y2="470.0" stroke="#30332e"/>
<text x="86" y="476.0" text-anchor="end" font-family="-apple-system,BlinkMacSystemFont,PingFang SC,Noto Sans CJK SC,sans-serif" font-size="17">0.0</text>
<line x1="93" y1="373.6" x2="100" y2="373.6" stroke="#30332e"/>
<text x="86" y="379.6" text-anchor="end" font-family="-apple-system,BlinkMacSystemFont,PingFang SC,Noto Sans CJK SC,sans-serif" font-size="17">0.2</text>
<line x1="93" y1="277.1" x2="100" y2="277.1" stroke="#30332e"/>
<text x="86" y="283.1" text-anchor="end" font-family="-apple-system,BlinkMacSystemFont,PingFang SC,Noto Sans CJK SC,sans-serif" font-size="17">0.4</text>
<line x1="93" y1="180.7" x2="100" y2="180.7" stroke="#30332e"/>
<text x="86" y="186.7" text-anchor="end" font-family="-apple-system,BlinkMacSystemFont,PingFang SC,Noto Sans CJK SC,sans-serif" font-size="17">0.6</text>
<line x1="93" y1="84.3" x2="100" y2="84.3" stroke="#30332e"/>
<text x="86" y="90.3" text-anchor="end" font-family="-apple-system,BlinkMacSystemFont,PingFang SC,Noto Sans CJK SC,sans-serif" font-size="17">0.8</text>
<polyline points="100.0,85.3 101.5,85.8 103.0,87.2 104.5,89.6 106.1,92.9 107.6,97.1 109.1,102.2 110.6,108.2 112.1,114.9 113.6,122.3 115.1,130.5 116.7,139.3 118.2,148.7 119.7,158.6 121.2,168.9 122.7,179.6 124.2,190.7 125.7,201.9 127.3,213.4 128.8,225.0 130.3,236.7 131.8,248.3 133.3,259.9 134.8,271.4 136.3,282.7 137.9,293.9 139.4,304.8 140.9,315.3 142.4,325.6 143.9,335.5 145.4,345.1 146.9,354.3 148.5,363.0 150.0,371.4 151.5,379.3 153.0,386.8 154.5,393.9 156.0,400.5 157.5,406.7 159.1,412.5 160.6,417.9 162.1,423.0 163.6,427.6 165.1,431.9 166.6,435.8 168.1,439.4 169.7,442.7 171.2,445.7 172.7,448.4 174.2,450.9 175.7,453.1 177.2,455.1 178.7,456.9 180.3,458.5 181.8,460.0 183.3,461.2 184.8,462.4 186.3,463.4 187.8,464.3 189.3,465.0 190.9,465.7 192.4,466.3 193.9,466.8 195.4,467.3 196.9,467.7 198.4,468.0 199.9,468.3 201.5,468.6 203.0,468.8 204.5,469.0 206.0,469.2 207.5,469.3 209.0,469.4 210.5,469.5 212.1,469.6 213.6,469.7 215.1,469.7 216.6,469.8 218.1,469.8 219.6,469.8 221.1,469.9 222.7,469.9 224.2,469.9 225.7,469.9 227.2,469.9 228.7,470.0 230.2,470.0 231.7,470.0 233.3,470.0 234.8,470.0 236.3,470.0 237.8,470.0 239.3,470.0 240.8,470.0 242.3,470.0 243.9,470.0 245.4,470.0 246.9,470.0 248.4,470.0 249.9,470.0 251.4,470.0 252.9,470.0 254.5,470.0 256.0,470.0 257.5,470.0 259.0,470.0 260.5,470.0 262.0,470.0 263.5,470.0 265.1,470.0 266.6,470.0 268.1,470.0 269.6,470.0 271.1,470.0 272.6,470.0 274.1,470.0 275.7,470.0 277.2,470.0 278.7,470.0 280.2,470.0 281.7,470.0 283.2,470.0 284.7,470.0 286.3,470.0 287.8,470.0 289.3,470.0 290.8,470.0 292.3,470.0 293.8,470.0 295.3,470.0 296.9,470.0 298.4,470.0 299.9,470.0 301.4,470.0 302.9,470.0 304.4,470.0 305.9,470.0 307.5,470.0 309.0,470.0 310.5,470.0 312.0,470.0 313.5,470.0 315.0,470.0 316.5,470.0 318.1,470.0 319.6,470.0 321.1,470.0 322.6,470.0 324.1,470.0 325.6,470.0 327.1,470.0 328.7,470.0 330.2,470.0 331.7,470.0 333.2,470.0 334.7,470.0 336.2,470.0 337.7,470.0 339.3,470.0 340.8,470.0 342.3,470.0 343.8,470.0 345.3,470.0 346.8,470.0 348.3,470.0 349.9,470.0 351.4,470.0 352.9,470.0 354.4,470.0 355.9,470.0 357.4,470.0 358.9,470.0 360.5,470.0 362.0,470.0 363.5,470.0 365.0,470.0 366.5,470.0 368.0,470.0 369.5,470.0 371.1,470.0 372.6,470.0 374.1,470.0 375.6,470.0 377.1,470.0 378.6,470.0 380.1,470.0 381.7,470.0 383.2,470.0 384.7,470.0 386.2,470.0 387.7,470.0 389.2,470.0 390.7,470.0 392.3,470.0 393.8,470.0 395.3,470.0 396.8,470.0 398.3,470.0 399.8,470.0 401.3,470.0 402.9,470.0 404.4,470.0 405.9,470.0 407.4,470.0 408.9,470.0 410.4,470.0 411.9,470.0 413.5,470.0 415.0,470.0 416.5,470.0 418.0,470.0 419.5,470.0 421.0,470.0 422.5,470.0 424.1,470.0 425.6,470.0 427.1,470.0 428.6,470.0 430.1,470.0 431.6,470.0 433.1,470.0 434.7,470.0 436.2,470.0 437.7,470.0 439.2,470.0 440.7,470.0 442.2,470.0 443.7,470.0 445.3,470.0 446.8,470.0 448.3,470.0 449.8,470.0 451.3,470.0 452.8,470.0 454.3,470.0 455.9,470.0 457.4,470.0 458.9,470.0 460.4,470.0 461.9,470.0 463.4,470.0 464.9,470.0 466.5,470.0 468.0,470.0 469.5,470.0 471.0,470.0 472.5,470.0 474.0,470.0 475.5,470.0 477.1,470.0 478.6,470.0 480.1,470.0 481.6,470.0 483.1,470.0 484.6,470.0 486.1,470.0 487.7,470.0 489.2,470.0 490.7,470.0 492.2,470.0 493.7,470.0 495.2,470.0 496.7,470.0 498.3,470.0 499.8,470.0 501.3,470.0 502.8,470.0 504.3,470.0 505.8,470.0 507.3,470.0 508.9,470.0 510.4,470.0 511.9,470.0 513.4,470.0 514.9,470.0 516.4,470.0 517.9,470.0 519.5,470.0 521.0,470.0 522.5,470.0 524.0,470.0 525.5,470.0 527.0,470.0 528.5,470.0 530.1,470.0 531.6,470.0 533.1,470.0 534.6,470.0 536.1,470.0 537.6,470.0 539.1,470.0 540.7,470.0 542.2,470.0 543.7,470.0 545.2,470.0 546.7,470.0 548.2,470.0 549.7,470.0 551.3,470.0 552.8,470.0 554.3,470.0 555.8,470.0 557.3,470.0 558.8,470.0 560.3,470.0 561.9,470.0 563.4,470.0 564.9,470.0 566.4,470.0 567.9,470.0 569.4,470.0 570.9,470.0 572.5,470.0 574.0,470.0 575.5,470.0 577.0,470.0 578.5,470.0 580.0,470.0 581.5,470.0 583.1,470.0 584.6,470.0 586.1,470.0 587.6,470.0 589.1,470.0 590.6,470.0 592.1,470.0 593.7,470.0 595.2,470.0 596.7,470.0 598.2,470.0 599.7,470.0 601.2,470.0 602.7,470.0 604.3,470.0 605.8,470.0 607.3,470.0 608.8,470.0 610.3,470.0 611.8,470.0 613.3,470.0 614.9,470.0 616.4,470.0 617.9,470.0 619.4,470.0 620.9,470.0 622.4,470.0 623.9,470.0 625.5,470.0 627.0,470.0 628.5,470.0 630.0,470.0 631.5,470.0 633.0,470.0 634.5,470.0 636.1,470.0 637.6,470.0 639.1,470.0 640.6,470.0 642.1,470.0 643.6,470.0 645.1,470.0 646.7,470.0 648.2,470.0 649.7,470.0 651.2,470.0 652.7,470.0 654.2,470.0 655.7,470.0 657.3,470.0 658.8,470.0 660.3,470.0 661.8,470.0 663.3,470.0 664.8,470.0 666.3,470.0 667.9,470.0 669.4,470.0 670.9,470.0 672.4,470.0 673.9,470.0 675.4,470.0 676.9,470.0 678.5,470.0 680.0,470.0 681.5,470.0 683.0,470.0 684.5,470.0 686.0,470.0 687.5,470.0 689.1,470.0 690.6,470.0 692.1,470.0 693.6,470.0 695.1,470.0 696.6,470.0 698.1,470.0 699.7,470.0 701.2,470.0 702.7,470.0 704.2,470.0 705.7,470.0 707.2,470.0 708.7,470.0 710.3,470.0 711.8,470.0 713.3,470.0 714.8,470.0 716.3,470.0 717.8,470.0 719.3,470.0 720.9,470.0 722.4,470.0 723.9,470.0 725.4,470.0 726.9,470.0 728.4,470.0 729.9,470.0 731.5,470.0 733.0,470.0 734.5,470.0 736.0,470.0 737.5,470.0 739.0,470.0 740.5,470.0 742.1,470.0 743.6,470.0 745.1,470.0 746.6,470.0 748.1,470.0 749.6,470.0 751.1,470.0 752.7,470.0 754.2,470.0 755.7,470.0 757.2,470.0 758.7,470.0 760.2,470.0 761.7,470.0 763.3,470.0 764.8,470.0 766.3,470.0 767.8,470.0 769.3,470.0 770.8,470.0 772.3,470.0 773.9,470.0 775.4,470.0 776.9,470.0 778.4,470.0 779.9,470.0 781.4,470.0 782.9,470.0 784.5,470.0 786.0,470.0 787.5,470.0 789.0,470.0 790.5,470.0 792.0,470.0 793.5,470.0 795.1,470.0 796.6,470.0 798.1,470.0 799.6,470.0 801.1,470.0 802.6,470.0 804.1,470.0 805.7,470.0 807.2,470.0 808.7,470.0 810.2,470.0 811.7,470.0 813.2,470.0 814.7,470.0 816.3,470.0 817.8,470.0 819.3,470.0 820.8,470.0 822.3,470.0 823.8,470.0 825.3,470.0 826.9,470.0 828.4,470.0 829.9,470.0 831.4,470.0 832.9,470.0 834.4,470.0 835.9,470.0 837.5,470.0 839.0,470.0 840.5,470.0 842.0,470.0 843.5,470.0 845.0,470.0 846.5,470.0 848.1,470.0 849.6,470.0 851.1,470.0 852.6,470.0 854.1,470.0 855.6,470.0 857.1,470.0 858.7,470.0 860.2,470.0 861.7,470.0 863.2,470.0 864.7,470.0 866.2,470.0 867.7,470.0 869.3,470.0 870.8,470.0 872.3,470.0 873.8,470.0 875.3,470.0 876.8,470.0 878.3,470.0 879.9,470.0 881.4,470.0 882.9,470.0 884.4,470.0 885.9,470.0 887.4,470.0 888.9,470.0 890.5,470.0 892.0,470.0 893.5,470.0 895.0,470.0 896.5,470.0 898.0,470.0 899.5,470.0 901.1,470.0 902.6,470.0 904.1,470.0 905.6,470.0 907.1,470.0 908.6,470.0 910.1,470.0 911.7,470.0 913.2,470.0 914.7,470.0 916.2,470.0 917.7,470.0 919.2,470.0 920.7,470.0 922.3,470.0 923.8,470.0 925.3,470.0 926.8,470.0 928.3,470.0 929.8,470.0 931.3,470.0 932.9,470.0 934.4,470.0 935.9,470.0 937.4,470.0 938.9,470.0 940.4,470.0 941.9,470.0 943.5,470.0 945.0,470.0 946.5,470.0 948.0,470.0 949.5,470.0 951.0,470.0 952.5,470.0 954.1,470.0 955.6,470.0 957.1,470.0 958.6,470.0 960.1,470.0 961.6,470.0 963.1,470.0 964.7,470.0 966.2,470.0 967.7,470.0 969.2,470.0 970.7,470.0 972.2,470.0 973.7,470.0 975.3,470.0 976.8,470.0 978.3,470.0 979.8,470.0 981.3,470.0 982.8,470.0 984.3,470.0 985.9,470.0 987.4,470.0 988.9,470.0 990.4,470.0 991.9,470.0 993.4,470.0 994.9,470.0 996.5,470.0 998.0,470.0 999.5,470.0 1001.0,470.0 1002.5,470.0 1004.0,470.0 1005.5,470.0 1007.1,470.0 1008.6,470.0 1010.1,470.0 1011.6,470.0 1013.1,470.0 1014.6,470.0 1016.1,470.0 1017.7,470.0 1019.2,470.0 1020.7,470.0 1022.2,470.0 1023.7,470.0 1025.2,470.0 1026.7,470.0 1028.3,470.0 1029.8,470.0 1031.3,470.0 1032.8,470.0 1034.3,470.0 1035.8,470.0 1037.3,470.0 1038.9,470.0 1040.4,470.0 1041.9,470.0 1043.4,470.0 1044.9,470.0 1046.4,470.0 1047.9,470.0 1049.5,470.0 1051.0,470.0 1052.5,470.0 1054.0,470.0 1055.5,470.0 1057.0,470.0 1058.5,470.0 1060.1,470.0 1061.6,470.0 1063.1,470.0 1064.6,470.0 1066.1,470.0 1067.6,470.0 1069.1,470.0 1070.7,470.0 1072.2,470.0 1073.7,470.0 1075.2,470.0 1076.7,470.0 1078.2,470.0 1079.7,470.0 1081.3,470.0 1082.8,470.0 1084.3,470.0 1085.8,470.0 1087.3,470.0 1088.8,470.0 1090.3,470.0 1091.9,470.0 1093.4,470.0 1094.9,470.0 1096.4,470.0 1097.9,470.0 1099.4,470.0 1100.9,470.0 1102.5,470.0 1104.0,470.0 1105.5,470.0 1107.0,470.0 1108.5,470.0 1110.0,470.0 1111.5,470.0 1113.1,470.0 1114.6,470.0 1116.1,470.0 1117.6,470.0 1119.1,470.0 1120.6,470.0 1122.1,470.0 1123.7,470.0 1125.2,470.0 1126.7,470.0 1128.2,470.0 1129.7,470.0 1131.2,470.0 1132.7,470.0 1134.3,470.0 1135.8,470.0 1137.3,470.0 1138.8,470.0 1140.3,470.0 1141.8,470.0 1143.3,470.0 1144.9,470.0 1146.4,470.0 1147.9,470.0 1149.4,470.0 1150.9,470.0 1152.4,470.0 1153.9,470.0 1155.5,470.0 1157.0,470.0 1158.5,470.0 1160.0,470.0" fill="none" stroke="#263f86" stroke-width="3"/>
<text x="124.2" y="142.4" text-anchor="middle" font-family="-apple-system,BlinkMacSystemFont,PingFang SC,Noto Sans CJK SC,sans-serif" font-size="19" font-weight="700" fill="#263f86">1</text>
<polyline points="100.0,470.0 101.5,470.0 103.0,470.0 104.5,470.0 106.1,470.0 107.6,470.0 109.1,470.0 110.6,470.0 112.1,470.0 113.6,470.0 115.1,470.0 116.7,470.0 118.2,470.0 119.7,470.0 121.2,470.0 122.7,469.9 124.2,469.9 125.7,469.8 127.3,469.7 128.8,469.5 130.3,469.2 131.8,468.9 133.3,468.4 134.8,467.7 136.3,466.8 137.9,465.7 139.4,464.3 140.9,462.5 142.4,460.3 143.9,457.6 145.4,454.3 146.9,450.5 148.5,446.0 150.0,440.8 151.5,434.9 153.0,428.2 154.5,420.7 156.0,412.4 157.5,403.4 159.1,393.5 160.6,383.0 162.1,371.8 163.6,360.0 165.1,347.8 166.6,335.2 168.1,322.4 169.7,309.4 171.2,296.5 172.7,283.8 174.2,271.4 175.7,259.6 177.2,248.3 178.7,237.9 180.3,228.4 181.8,219.9 183.3,212.6 184.8,206.5 186.3,201.7 187.8,198.2 189.3,196.1 190.9,195.5 192.4,196.1 193.9,198.2 195.4,201.5 196.9,206.0 198.4,211.7 199.9,218.4 201.5,226.0 203.0,234.5 204.5,243.7 206.0,253.5 207.5,263.8 209.0,274.4 210.5,285.3 212.1,296.3 213.6,307.3 215.1,318.2 216.6,329.0 218.1,339.5 219.6,349.7 221.1,359.6 222.7,369.0 224.2,378.0 225.7,386.5 227.2,394.6 228.7,402.1 230.2,409.0 231.7,415.5 233.3,421.5 234.8,426.9 236.3,431.9 237.8,436.5 239.3,440.6 240.8,444.3 242.3,447.6 243.9,450.5 245.4,453.1 246.9,455.5 248.4,457.5 249.9,459.3 251.4,460.9 252.9,462.2 254.5,463.4 256.0,464.4 257.5,465.3 259.0,466.1 260.5,466.7 262.0,467.3 263.5,467.7 265.1,468.1 266.6,468.4 268.1,468.7 269.6,468.9 271.1,469.1 272.6,469.3 274.1,469.4 275.7,469.5 277.2,469.6 278.7,469.7 280.2,469.8 281.7,469.8 283.2,469.8 284.7,469.9 286.3,469.9 287.8,469.9 289.3,469.9 290.8,470.0 292.3,470.0 293.8,470.0 295.3,470.0 296.9,470.0 298.4,470.0 299.9,470.0 301.4,470.0 302.9,470.0 304.4,470.0 305.9,470.0 307.5,470.0 309.0,470.0 310.5,470.0 312.0,470.0 313.5,470.0 315.0,470.0 316.5,470.0 318.1,470.0 319.6,470.0 321.1,470.0 322.6,470.0 324.1,470.0 325.6,470.0 327.1,470.0 328.7,470.0 330.2,470.0 331.7,470.0 333.2,470.0 334.7,470.0 336.2,470.0 337.7,470.0 339.3,470.0 340.8,470.0 342.3,470.0 343.8,470.0 345.3,470.0 346.8,470.0 348.3,470.0 349.9,470.0 351.4,470.0 352.9,470.0 354.4,470.0 355.9,470.0 357.4,470.0 358.9,470.0 360.5,470.0 362.0,470.0 363.5,470.0 365.0,470.0 366.5,470.0 368.0,470.0 369.5,470.0 371.1,470.0 372.6,470.0 374.1,470.0 375.6,470.0 377.1,470.0 378.6,470.0 380.1,470.0 381.7,470.0 383.2,470.0 384.7,470.0 386.2,470.0 387.7,470.0 389.2,470.0 390.7,470.0 392.3,470.0 393.8,470.0 395.3,470.0 396.8,470.0 398.3,470.0 399.8,470.0 401.3,470.0 402.9,470.0 404.4,470.0 405.9,470.0 407.4,470.0 408.9,470.0 410.4,470.0 411.9,470.0 413.5,470.0 415.0,470.0 416.5,470.0 418.0,470.0 419.5,470.0 421.0,470.0 422.5,470.0 424.1,470.0 425.6,470.0 427.1,470.0 428.6,470.0 430.1,470.0 431.6,470.0 433.1,470.0 434.7,470.0 436.2,470.0 437.7,470.0 439.2,470.0 440.7,470.0 442.2,470.0 443.7,470.0 445.3,470.0 446.8,470.0 448.3,470.0 449.8,470.0 451.3,470.0 452.8,470.0 454.3,470.0 455.9,470.0 457.4,470.0 458.9,470.0 460.4,470.0 461.9,470.0 463.4,470.0 464.9,470.0 466.5,470.0 468.0,470.0 469.5,470.0 471.0,470.0 472.5,470.0 474.0,470.0 475.5,470.0 477.1,470.0 478.6,470.0 480.1,470.0 481.6,470.0 483.1,470.0 484.6,470.0 486.1,470.0 487.7,470.0 489.2,470.0 490.7,470.0 492.2,470.0 493.7,470.0 495.2,470.0 496.7,470.0 498.3,470.0 499.8,470.0 501.3,470.0 502.8,470.0 504.3,470.0 505.8,470.0 507.3,470.0 508.9,470.0 510.4,470.0 511.9,470.0 513.4,470.0 514.9,470.0 516.4,470.0 517.9,470.0 519.5,470.0 521.0,470.0 522.5,470.0 524.0,470.0 525.5,470.0 527.0,470.0 528.5,470.0 530.1,470.0 531.6,470.0 533.1,470.0 534.6,470.0 536.1,470.0 537.6,470.0 539.1,470.0 540.7,470.0 542.2,470.0 543.7,470.0 545.2,470.0 546.7,470.0 548.2,470.0 549.7,470.0 551.3,470.0 552.8,470.0 554.3,470.0 555.8,470.0 557.3,470.0 558.8,470.0 560.3,470.0 561.9,470.0 563.4,470.0 564.9,470.0 566.4,470.0 567.9,470.0 569.4,470.0 570.9,470.0 572.5,470.0 574.0,470.0 575.5,470.0 577.0,470.0 578.5,470.0 580.0,470.0 581.5,470.0 583.1,470.0 584.6,470.0 586.1,470.0 587.6,470.0 589.1,470.0 590.6,470.0 592.1,470.0 593.7,470.0 595.2,470.0 596.7,470.0 598.2,470.0 599.7,470.0 601.2,470.0 602.7,470.0 604.3,470.0 605.8,470.0 607.3,470.0 608.8,470.0 610.3,470.0 611.8,470.0 613.3,470.0 614.9,470.0 616.4,470.0 617.9,470.0 619.4,470.0 620.9,470.0 622.4,470.0 623.9,470.0 625.5,470.0 627.0,470.0 628.5,470.0 630.0,470.0 631.5,470.0 633.0,470.0 634.5,470.0 636.1,470.0 637.6,470.0 639.1,470.0 640.6,470.0 642.1,470.0 643.6,470.0 645.1,470.0 646.7,470.0 648.2,470.0 649.7,470.0 651.2,470.0 652.7,470.0 654.2,470.0 655.7,470.0 657.3,470.0 658.8,470.0 660.3,470.0 661.8,470.0 663.3,470.0 664.8,470.0 666.3,470.0 667.9,470.0 669.4,470.0 670.9,470.0 672.4,470.0 673.9,470.0 675.4,470.0 676.9,470.0 678.5,470.0 680.0,470.0 681.5,470.0 683.0,470.0 684.5,470.0 686.0,470.0 687.5,470.0 689.1,470.0 690.6,470.0 692.1,470.0 693.6,470.0 695.1,470.0 696.6,470.0 698.1,470.0 699.7,470.0 701.2,470.0 702.7,470.0 704.2,470.0 705.7,470.0 707.2,470.0 708.7,470.0 710.3,470.0 711.8,470.0 713.3,470.0 714.8,470.0 716.3,470.0 717.8,470.0 719.3,470.0 720.9,470.0 722.4,470.0 723.9,470.0 725.4,470.0 726.9,470.0 728.4,470.0 729.9,470.0 731.5,470.0 733.0,470.0 734.5,470.0 736.0,470.0 737.5,470.0 739.0,470.0 740.5,470.0 742.1,470.0 743.6,470.0 745.1,470.0 746.6,470.0 748.1,470.0 749.6,470.0 751.1,470.0 752.7,470.0 754.2,470.0 755.7,470.0 757.2,470.0 758.7,470.0 760.2,470.0 761.7,470.0 763.3,470.0 764.8,470.0 766.3,470.0 767.8,470.0 769.3,470.0 770.8,470.0 772.3,470.0 773.9,470.0 775.4,470.0 776.9,470.0 778.4,470.0 779.9,470.0 781.4,470.0 782.9,470.0 784.5,470.0 786.0,470.0 787.5,470.0 789.0,470.0 790.5,470.0 792.0,470.0 793.5,470.0 795.1,470.0 796.6,470.0 798.1,470.0 799.6,470.0 801.1,470.0 802.6,470.0 804.1,470.0 805.7,470.0 807.2,470.0 808.7,470.0 810.2,470.0 811.7,470.0 813.2,470.0 814.7,470.0 816.3,470.0 817.8,470.0 819.3,470.0 820.8,470.0 822.3,470.0 823.8,470.0 825.3,470.0 826.9,470.0 828.4,470.0 829.9,470.0 831.4,470.0 832.9,470.0 834.4,470.0 835.9,470.0 837.5,470.0 839.0,470.0 840.5,470.0 842.0,470.0 843.5,470.0 845.0,470.0 846.5,470.0 848.1,470.0 849.6,470.0 851.1,470.0 852.6,470.0 854.1,470.0 855.6,470.0 857.1,470.0 858.7,470.0 860.2,470.0 861.7,470.0 863.2,470.0 864.7,470.0 866.2,470.0 867.7,470.0 869.3,470.0 870.8,470.0 872.3,470.0 873.8,470.0 875.3,470.0 876.8,470.0 878.3,470.0 879.9,470.0 881.4,470.0 882.9,470.0 884.4,470.0 885.9,470.0 887.4,470.0 888.9,470.0 890.5,470.0 892.0,470.0 893.5,470.0 895.0,470.0 896.5,470.0 898.0,470.0 899.5,470.0 901.1,470.0 902.6,470.0 904.1,470.0 905.6,470.0 907.1,470.0 908.6,470.0 910.1,470.0 911.7,470.0 913.2,470.0 914.7,470.0 916.2,470.0 917.7,470.0 919.2,470.0 920.7,470.0 922.3,470.0 923.8,470.0 925.3,470.0 926.8,470.0 928.3,470.0 929.8,470.0 931.3,470.0 932.9,470.0 934.4,470.0 935.9,470.0 937.4,470.0 938.9,470.0 940.4,470.0 941.9,470.0 943.5,470.0 945.0,470.0 946.5,470.0 948.0,470.0 949.5,470.0 951.0,470.0 952.5,470.0 954.1,470.0 955.6,470.0 957.1,470.0 958.6,470.0 960.1,470.0 961.6,470.0 963.1,470.0 964.7,470.0 966.2,470.0 967.7,470.0 969.2,470.0 970.7,470.0 972.2,470.0 973.7,470.0 975.3,470.0 976.8,470.0 978.3,470.0 979.8,470.0 981.3,470.0 982.8,470.0 984.3,470.0 985.9,470.0 987.4,470.0 988.9,470.0 990.4,470.0 991.9,470.0 993.4,470.0 994.9,470.0 996.5,470.0 998.0,470.0 999.5,470.0 1001.0,470.0 1002.5,470.0 1004.0,470.0 1005.5,470.0 1007.1,470.0 1008.6,470.0 1010.1,470.0 1011.6,470.0 1013.1,470.0 1014.6,470.0 1016.1,470.0 1017.7,470.0 1019.2,470.0 1020.7,470.0 1022.2,470.0 1023.7,470.0 1025.2,470.0 1026.7,470.0 1028.3,470.0 1029.8,470.0 1031.3,470.0 1032.8,470.0 1034.3,470.0 1035.8,470.0 1037.3,470.0 1038.9,470.0 1040.4,470.0 1041.9,470.0 1043.4,470.0 1044.9,470.0 1046.4,470.0 1047.9,470.0 1049.5,470.0 1051.0,470.0 1052.5,470.0 1054.0,470.0 1055.5,470.0 1057.0,470.0 1058.5,470.0 1060.1,470.0 1061.6,470.0 1063.1,470.0 1064.6,470.0 1066.1,470.0 1067.6,470.0 1069.1,470.0 1070.7,470.0 1072.2,470.0 1073.7,470.0 1075.2,470.0 1076.7,470.0 1078.2,470.0 1079.7,470.0 1081.3,470.0 1082.8,470.0 1084.3,470.0 1085.8,470.0 1087.3,470.0 1088.8,470.0 1090.3,470.0 1091.9,470.0 1093.4,470.0 1094.9,470.0 1096.4,470.0 1097.9,470.0 1099.4,470.0 1100.9,470.0 1102.5,470.0 1104.0,470.0 1105.5,470.0 1107.0,470.0 1108.5,470.0 1110.0,470.0 1111.5,470.0 1113.1,470.0 1114.6,470.0 1116.1,470.0 1117.6,470.0 1119.1,470.0 1120.6,470.0 1122.1,470.0 1123.7,470.0 1125.2,470.0 1126.7,470.0 1128.2,470.0 1129.7,470.0 1131.2,470.0 1132.7,470.0 1134.3,470.0 1135.8,470.0 1137.3,470.0 1138.8,470.0 1140.3,470.0 1141.8,470.0 1143.3,470.0 1144.9,470.0 1146.4,470.0 1147.9,470.0 1149.4,470.0 1150.9,470.0 1152.4,470.0 1153.9,470.0 1155.5,470.0 1157.0,470.0 1158.5,470.0 1160.0,470.0" fill="none" stroke="#6670ee" stroke-width="3"/>
<text x="190.9" y="147.2" text-anchor="middle" font-family="-apple-system,BlinkMacSystemFont,PingFang SC,Noto Sans CJK SC,sans-serif" font-size="19" font-weight="700" fill="#6670ee">10</text>
<polyline points="100.0,470.0 101.5,470.0 103.0,470.0 104.5,470.0 106.1,470.0 107.6,470.0 109.1,470.0 110.6,470.0 112.1,470.0 113.6,470.0 115.1,470.0 116.7,470.0 118.2,470.0 119.7,470.0 121.2,470.0 122.7,470.0 124.2,470.0 125.7,470.0 127.3,470.0 128.8,470.0 130.3,470.0 131.8,470.0 133.3,470.0 134.8,470.0 136.3,470.0 137.9,470.0 139.4,470.0 140.9,470.0 142.4,470.0 143.9,470.0 145.4,470.0 146.9,470.0 148.5,470.0 150.0,470.0 151.5,470.0 153.0,470.0 154.5,470.0 156.0,470.0 157.5,470.0 159.1,470.0 160.6,470.0 162.1,470.0 163.6,470.0 165.1,470.0 166.6,470.0 168.1,470.0 169.7,470.0 171.2,470.0 172.7,470.0 174.2,470.0 175.7,470.0 177.2,470.0 178.7,470.0 180.3,470.0 181.8,470.0 183.3,470.0 184.8,470.0 186.3,470.0 187.8,470.0 189.3,470.0 190.9,470.0 192.4,470.0 193.9,470.0 195.4,470.0 196.9,470.0 198.4,470.0 199.9,470.0 201.5,470.0 203.0,470.0 204.5,470.0 206.0,470.0 207.5,470.0 209.0,470.0 210.5,470.0 212.1,470.0 213.6,470.0 215.1,470.0 216.6,470.0 218.1,470.0 219.6,470.0 221.1,470.0 222.7,470.0 224.2,470.0 225.7,470.0 227.2,470.0 228.7,470.0 230.2,470.0 231.7,470.0 233.3,470.0 234.8,470.0 236.3,470.0 237.8,470.0 239.3,470.0 240.8,470.0 242.3,470.0 243.9,470.0 245.4,470.0 246.9,470.0 248.4,470.0 249.9,470.0 251.4,470.0 252.9,470.0 254.5,470.0 256.0,470.0 257.5,470.0 259.0,470.0 260.5,470.0 262.0,470.0 263.5,470.0 265.1,470.0 266.6,470.0 268.1,470.0 269.6,470.0 271.1,470.0 272.6,470.0 274.1,470.0 275.7,470.0 277.2,470.0 278.7,470.0 280.2,470.0 281.7,470.0 283.2,470.0 284.7,470.0 286.3,470.0 287.8,470.0 289.3,470.0 290.8,470.0 292.3,470.0 293.8,470.0 295.3,470.0 296.9,470.0 298.4,470.0 299.9,470.0 301.4,470.0 302.9,470.0 304.4,470.0 305.9,470.0 307.5,470.0 309.0,470.0 310.5,470.0 312.0,470.0 313.5,470.0 315.0,470.0 316.5,470.0 318.1,469.9 319.6,469.9 321.1,469.9 322.6,469.8 324.1,469.8 325.6,469.7 327.1,469.6 328.7,469.5 330.2,469.4 331.7,469.2 333.2,468.9 334.7,468.6 336.2,468.2 337.7,467.7 339.3,467.1 340.8,466.4 342.3,465.5 343.8,464.4 345.3,463.1 346.8,461.5 348.3,459.6 349.9,457.5 351.4,454.9 352.9,452.0 354.4,448.6 355.9,444.7 357.4,440.3 358.9,435.4 360.5,429.8 362.0,423.7 363.5,416.9 365.0,409.5 366.5,401.4 368.0,392.6 369.5,383.3 371.1,373.4 372.6,362.9 374.1,352.0 375.6,340.7 377.1,329.0 378.6,317.2 380.1,305.2 381.7,293.3 383.2,281.5 384.7,270.0 386.2,258.9 387.7,248.3 389.2,238.5 390.7,229.5 392.3,221.4 393.8,214.4 395.3,208.5 396.8,203.8 398.3,200.5 399.8,198.4 401.3,197.8 402.9,198.4 404.4,200.5 405.9,203.8 407.4,208.4 408.9,214.1 410.4,221.0 411.9,228.8 413.5,237.5 415.0,247.0 416.5,257.1 418.0,267.8 419.5,278.8 421.0,290.0 422.5,301.4 424.1,312.8 425.6,324.1 427.1,335.3 428.6,346.1 430.1,356.6 431.6,366.7 433.1,376.3 434.7,385.4 436.2,394.0 437.7,402.0 439.2,409.4 440.7,416.3 442.2,422.6 443.7,428.3 445.3,433.5 446.8,438.2 448.3,442.5 449.8,446.2 451.3,449.6 452.8,452.5 454.3,455.1 455.9,457.3 457.4,459.3 458.9,461.0 460.4,462.5 461.9,463.7 463.4,464.8 464.9,465.7 466.5,466.4 468.0,467.1 469.5,467.6 471.0,468.1 472.5,468.4 474.0,468.7 475.5,469.0 477.1,469.2 478.6,469.3 480.1,469.5 481.6,469.6 483.1,469.7 484.6,469.7 486.1,469.8 487.7,469.8 489.2,469.9 490.7,469.9 492.2,469.9 493.7,469.9 495.2,470.0 496.7,470.0 498.3,470.0 499.8,470.0 501.3,470.0 502.8,470.0 504.3,470.0 505.8,470.0 507.3,470.0 508.9,470.0 510.4,470.0 511.9,470.0 513.4,470.0 514.9,470.0 516.4,470.0 517.9,470.0 519.5,470.0 521.0,470.0 522.5,470.0 524.0,470.0 525.5,470.0 527.0,470.0 528.5,470.0 530.1,470.0 531.6,470.0 533.1,470.0 534.6,470.0 536.1,470.0 537.6,470.0 539.1,470.0 540.7,470.0 542.2,470.0 543.7,470.0 545.2,470.0 546.7,470.0 548.2,470.0 549.7,470.0 551.3,470.0 552.8,470.0 554.3,470.0 555.8,470.0 557.3,470.0 558.8,470.0 560.3,470.0 561.9,470.0 563.4,470.0 564.9,470.0 566.4,470.0 567.9,470.0 569.4,470.0 570.9,470.0 572.5,470.0 574.0,470.0 575.5,470.0 577.0,470.0 578.5,470.0 580.0,470.0 581.5,470.0 583.1,470.0 584.6,470.0 586.1,470.0 587.6,470.0 589.1,470.0 590.6,470.0 592.1,470.0 593.7,470.0 595.2,470.0 596.7,470.0 598.2,470.0 599.7,470.0 601.2,470.0 602.7,470.0 604.3,470.0 605.8,470.0 607.3,470.0 608.8,470.0 610.3,470.0 611.8,470.0 613.3,470.0 614.9,470.0 616.4,470.0 617.9,470.0 619.4,470.0 620.9,470.0 622.4,470.0 623.9,470.0 625.5,470.0 627.0,470.0 628.5,470.0 630.0,470.0 631.5,470.0 633.0,470.0 634.5,470.0 636.1,470.0 637.6,470.0 639.1,470.0 640.6,470.0 642.1,470.0 643.6,470.0 645.1,470.0 646.7,470.0 648.2,470.0 649.7,470.0 651.2,470.0 652.7,470.0 654.2,470.0 655.7,470.0 657.3,470.0 658.8,470.0 660.3,470.0 661.8,470.0 663.3,470.0 664.8,470.0 666.3,470.0 667.9,470.0 669.4,470.0 670.9,470.0 672.4,470.0 673.9,470.0 675.4,470.0 676.9,470.0 678.5,470.0 680.0,470.0 681.5,470.0 683.0,470.0 684.5,470.0 686.0,470.0 687.5,470.0 689.1,470.0 690.6,470.0 692.1,470.0 693.6,470.0 695.1,470.0 696.6,470.0 698.1,470.0 699.7,470.0 701.2,470.0 702.7,470.0 704.2,470.0 705.7,470.0 707.2,470.0 708.7,470.0 710.3,470.0 711.8,470.0 713.3,470.0 714.8,470.0 716.3,470.0 717.8,470.0 719.3,470.0 720.9,470.0 722.4,470.0 723.9,470.0 725.4,470.0 726.9,470.0 728.4,470.0 729.9,470.0 731.5,470.0 733.0,470.0 734.5,470.0 736.0,470.0 737.5,470.0 739.0,470.0 740.5,470.0 742.1,470.0 743.6,470.0 745.1,470.0 746.6,470.0 748.1,470.0 749.6,470.0 751.1,470.0 752.7,470.0 754.2,470.0 755.7,470.0 757.2,470.0 758.7,470.0 760.2,470.0 761.7,470.0 763.3,470.0 764.8,470.0 766.3,470.0 767.8,470.0 769.3,470.0 770.8,470.0 772.3,470.0 773.9,470.0 775.4,470.0 776.9,470.0 778.4,470.0 779.9,470.0 781.4,470.0 782.9,470.0 784.5,470.0 786.0,470.0 787.5,470.0 789.0,470.0 790.5,470.0 792.0,470.0 793.5,470.0 795.1,470.0 796.6,470.0 798.1,470.0 799.6,470.0 801.1,470.0 802.6,470.0 804.1,470.0 805.7,470.0 807.2,470.0 808.7,470.0 810.2,470.0 811.7,470.0 813.2,470.0 814.7,470.0 816.3,470.0 817.8,470.0 819.3,470.0 820.8,470.0 822.3,470.0 823.8,470.0 825.3,470.0 826.9,470.0 828.4,470.0 829.9,470.0 831.4,470.0 832.9,470.0 834.4,470.0 835.9,470.0 837.5,470.0 839.0,470.0 840.5,470.0 842.0,470.0 843.5,470.0 845.0,470.0 846.5,470.0 848.1,470.0 849.6,470.0 851.1,470.0 852.6,470.0 854.1,470.0 855.6,470.0 857.1,470.0 858.7,470.0 860.2,470.0 861.7,470.0 863.2,470.0 864.7,470.0 866.2,470.0 867.7,470.0 869.3,470.0 870.8,470.0 872.3,470.0 873.8,470.0 875.3,470.0 876.8,470.0 878.3,470.0 879.9,470.0 881.4,470.0 882.9,470.0 884.4,470.0 885.9,470.0 887.4,470.0 888.9,470.0 890.5,470.0 892.0,470.0 893.5,470.0 895.0,470.0 896.5,470.0 898.0,470.0 899.5,470.0 901.1,470.0 902.6,470.0 904.1,470.0 905.6,470.0 907.1,470.0 908.6,470.0 910.1,470.0 911.7,470.0 913.2,470.0 914.7,470.0 916.2,470.0 917.7,470.0 919.2,470.0 920.7,470.0 922.3,470.0 923.8,470.0 925.3,470.0 926.8,470.0 928.3,470.0 929.8,470.0 931.3,470.0 932.9,470.0 934.4,470.0 935.9,470.0 937.4,470.0 938.9,470.0 940.4,470.0 941.9,470.0 943.5,470.0 945.0,470.0 946.5,470.0 948.0,470.0 949.5,470.0 951.0,470.0 952.5,470.0 954.1,470.0 955.6,470.0 957.1,470.0 958.6,470.0 960.1,470.0 961.6,470.0 963.1,470.0 964.7,470.0 966.2,470.0 967.7,470.0 969.2,470.0 970.7,470.0 972.2,470.0 973.7,470.0 975.3,470.0 976.8,470.0 978.3,470.0 979.8,470.0 981.3,470.0 982.8,470.0 984.3,470.0 985.9,470.0 987.4,470.0 988.9,470.0 990.4,470.0 991.9,470.0 993.4,470.0 994.9,470.0 996.5,470.0 998.0,470.0 999.5,470.0 1001.0,470.0 1002.5,470.0 1004.0,470.0 1005.5,470.0 1007.1,470.0 1008.6,470.0 1010.1,470.0 1011.6,470.0 1013.1,470.0 1014.6,470.0 1016.1,470.0 1017.7,470.0 1019.2,470.0 1020.7,470.0 1022.2,470.0 1023.7,470.0 1025.2,470.0 1026.7,470.0 1028.3,470.0 1029.8,470.0 1031.3,470.0 1032.8,470.0 1034.3,470.0 1035.8,470.0 1037.3,470.0 1038.9,470.0 1040.4,470.0 1041.9,470.0 1043.4,470.0 1044.9,470.0 1046.4,470.0 1047.9,470.0 1049.5,470.0 1051.0,470.0 1052.5,470.0 1054.0,470.0 1055.5,470.0 1057.0,470.0 1058.5,470.0 1060.1,470.0 1061.6,470.0 1063.1,470.0 1064.6,470.0 1066.1,470.0 1067.6,470.0 1069.1,470.0 1070.7,470.0 1072.2,470.0 1073.7,470.0 1075.2,470.0 1076.7,470.0 1078.2,470.0 1079.7,470.0 1081.3,470.0 1082.8,470.0 1084.3,470.0 1085.8,470.0 1087.3,470.0 1088.8,470.0 1090.3,470.0 1091.9,470.0 1093.4,470.0 1094.9,470.0 1096.4,470.0 1097.9,470.0 1099.4,470.0 1100.9,470.0 1102.5,470.0 1104.0,470.0 1105.5,470.0 1107.0,470.0 1108.5,470.0 1110.0,470.0 1111.5,470.0 1113.1,470.0 1114.6,470.0 1116.1,470.0 1117.6,470.0 1119.1,470.0 1120.6,470.0 1122.1,470.0 1123.7,470.0 1125.2,470.0 1126.7,470.0 1128.2,470.0 1129.7,470.0 1131.2,470.0 1132.7,470.0 1134.3,470.0 1135.8,470.0 1137.3,470.0 1138.8,470.0 1140.3,470.0 1141.8,470.0 1143.3,470.0 1144.9,470.0 1146.4,470.0 1147.9,470.0 1149.4,470.0 1150.9,470.0 1152.4,470.0 1153.9,470.0 1155.5,470.0 1157.0,470.0 1158.5,470.0 1160.0,470.0" fill="none" stroke="#8f63a4" stroke-width="3"/>
<text x="401.3" y="149.5" text-anchor="middle" font-family="-apple-system,BlinkMacSystemFont,PingFang SC,Noto Sans CJK SC,sans-serif" font-size="19" font-weight="700" fill="#8f63a4">100</text>
<polyline points="100.0,470.0 101.5,470.0 103.0,470.0 104.5,470.0 106.1,470.0 107.6,470.0 109.1,470.0 110.6,470.0 112.1,470.0 113.6,470.0 115.1,470.0 116.7,470.0 118.2,470.0 119.7,470.0 121.2,470.0 122.7,470.0 124.2,470.0 125.7,470.0 127.3,470.0 128.8,470.0 130.3,470.0 131.8,470.0 133.3,470.0 134.8,470.0 136.3,470.0 137.9,470.0 139.4,470.0 140.9,470.0 142.4,470.0 143.9,470.0 145.4,470.0 146.9,470.0 148.5,470.0 150.0,470.0 151.5,470.0 153.0,470.0 154.5,470.0 156.0,470.0 157.5,470.0 159.1,470.0 160.6,470.0 162.1,470.0 163.6,470.0 165.1,470.0 166.6,470.0 168.1,470.0 169.7,470.0 171.2,470.0 172.7,470.0 174.2,470.0 175.7,470.0 177.2,470.0 178.7,470.0 180.3,470.0 181.8,470.0 183.3,470.0 184.8,470.0 186.3,470.0 187.8,470.0 189.3,470.0 190.9,470.0 192.4,470.0 193.9,470.0 195.4,470.0 196.9,470.0 198.4,470.0 199.9,470.0 201.5,470.0 203.0,470.0 204.5,470.0 206.0,470.0 207.5,470.0 209.0,470.0 210.5,470.0 212.1,470.0 213.6,470.0 215.1,470.0 216.6,470.0 218.1,470.0 219.6,470.0 221.1,470.0 222.7,470.0 224.2,470.0 225.7,470.0 227.2,470.0 228.7,470.0 230.2,470.0 231.7,470.0 233.3,470.0 234.8,470.0 236.3,470.0 237.8,470.0 239.3,470.0 240.8,470.0 242.3,470.0 243.9,470.0 245.4,470.0 246.9,470.0 248.4,470.0 249.9,470.0 251.4,470.0 252.9,470.0 254.5,470.0 256.0,470.0 257.5,470.0 259.0,470.0 260.5,470.0 262.0,470.0 263.5,470.0 265.1,470.0 266.6,470.0 268.1,470.0 269.6,470.0 271.1,470.0 272.6,470.0 274.1,470.0 275.7,470.0 277.2,470.0 278.7,470.0 280.2,470.0 281.7,470.0 283.2,470.0 284.7,470.0 286.3,470.0 287.8,470.0 289.3,470.0 290.8,470.0 292.3,470.0 293.8,470.0 295.3,470.0 296.9,470.0 298.4,470.0 299.9,470.0 301.4,470.0 302.9,470.0 304.4,470.0 305.9,470.0 307.5,470.0 309.0,470.0 310.5,470.0 312.0,470.0 313.5,470.0 315.0,470.0 316.5,470.0 318.1,470.0 319.6,470.0 321.1,470.0 322.6,470.0 324.1,470.0 325.6,470.0 327.1,470.0 328.7,470.0 330.2,470.0 331.7,470.0 333.2,470.0 334.7,470.0 336.2,470.0 337.7,470.0 339.3,470.0 340.8,470.0 342.3,470.0 343.8,470.0 345.3,470.0 346.8,470.0 348.3,470.0 349.9,470.0 351.4,470.0 352.9,470.0 354.4,470.0 355.9,470.0 357.4,470.0 358.9,470.0 360.5,470.0 362.0,470.0 363.5,470.0 365.0,470.0 366.5,470.0 368.0,470.0 369.5,470.0 371.1,470.0 372.6,470.0 374.1,470.0 375.6,470.0 377.1,470.0 378.6,470.0 380.1,470.0 381.7,470.0 383.2,470.0 384.7,470.0 386.2,470.0 387.7,470.0 389.2,470.0 390.7,470.0 392.3,470.0 393.8,470.0 395.3,470.0 396.8,470.0 398.3,470.0 399.8,470.0 401.3,470.0 402.9,470.0 404.4,470.0 405.9,470.0 407.4,470.0 408.9,470.0 410.4,470.0 411.9,470.0 413.5,470.0 415.0,470.0 416.5,470.0 418.0,470.0 419.5,470.0 421.0,470.0 422.5,470.0 424.1,470.0 425.6,470.0 427.1,470.0 428.6,470.0 430.1,470.0 431.6,470.0 433.1,470.0 434.7,470.0 436.2,470.0 437.7,470.0 439.2,470.0 440.7,470.0 442.2,470.0 443.7,470.0 445.3,470.0 446.8,470.0 448.3,470.0 449.8,470.0 451.3,470.0 452.8,470.0 454.3,470.0 455.9,470.0 457.4,470.0 458.9,470.0 460.4,470.0 461.9,470.0 463.4,470.0 464.9,470.0 466.5,470.0 468.0,470.0 469.5,470.0 471.0,470.0 472.5,470.0 474.0,470.0 475.5,470.0 477.1,470.0 478.6,470.0 480.1,470.0 481.6,470.0 483.1,470.0 484.6,470.0 486.1,470.0 487.7,470.0 489.2,470.0 490.7,470.0 492.2,470.0 493.7,470.0 495.2,470.0 496.7,470.0 498.3,470.0 499.8,470.0 501.3,470.0 502.8,470.0 504.3,470.0 505.8,470.0 507.3,470.0 508.9,470.0 510.4,470.0 511.9,470.0 513.4,470.0 514.9,470.0 516.4,470.0 517.9,470.0 519.5,470.0 521.0,470.0 522.5,470.0 524.0,470.0 525.5,470.0 527.0,470.0 528.5,470.0 530.1,470.0 531.6,470.0 533.1,470.0 534.6,470.0 536.1,470.0 537.6,470.0 539.1,470.0 540.7,470.0 542.2,470.0 543.7,470.0 545.2,470.0 546.7,470.0 548.2,470.0 549.7,470.0 551.3,470.0 552.8,470.0 554.3,470.0 555.8,470.0 557.3,470.0 558.8,470.0 560.3,470.0 561.9,470.0 563.4,470.0 564.9,470.0 566.4,470.0 567.9,470.0 569.4,470.0 570.9,470.0 572.5,470.0 574.0,470.0 575.5,470.0 577.0,470.0 578.5,470.0 580.0,470.0 581.5,470.0 583.1,470.0 584.6,470.0 586.1,470.0 587.6,470.0 589.1,470.0 590.6,470.0 592.1,470.0 593.7,470.0 595.2,470.0 596.7,470.0 598.2,470.0 599.7,470.0 601.2,470.0 602.7,470.0 604.3,470.0 605.8,470.0 607.3,470.0 608.8,470.0 610.3,470.0 611.8,470.0 613.3,470.0 614.9,470.0 616.4,470.0 617.9,470.0 619.4,470.0 620.9,470.0 622.4,470.0 623.9,470.0 625.5,470.0 627.0,470.0 628.5,470.0 630.0,470.0 631.5,470.0 633.0,470.0 634.5,470.0 636.1,470.0 637.6,470.0 639.1,470.0 640.6,470.0 642.1,470.0 643.6,470.0 645.1,470.0 646.7,470.0 648.2,470.0 649.7,470.0 651.2,470.0 652.7,470.0 654.2,470.0 655.7,470.0 657.3,470.0 658.8,470.0 660.3,470.0 661.8,470.0 663.3,470.0 664.8,470.0 666.3,470.0 667.9,470.0 669.4,470.0 670.9,470.0 672.4,470.0 673.9,470.0 675.4,470.0 676.9,470.0 678.5,470.0 680.0,470.0 681.5,470.0 683.0,470.0 684.5,470.0 686.0,470.0 687.5,470.0 689.1,470.0 690.6,470.0 692.1,470.0 693.6,470.0 695.1,470.0 696.6,470.0 698.1,470.0 699.7,470.0 701.2,470.0 702.7,470.0 704.2,470.0 705.7,470.0 707.2,470.0 708.7,470.0 710.3,470.0 711.8,470.0 713.3,470.0 714.8,470.0 716.3,470.0 717.8,470.0 719.3,470.0 720.9,470.0 722.4,470.0 723.9,470.0 725.4,470.0 726.9,470.0 728.4,470.0 729.9,470.0 731.5,470.0 733.0,470.0 734.5,470.0 736.0,470.0 737.5,470.0 739.0,470.0 740.5,470.0 742.1,470.0 743.6,470.0 745.1,470.0 746.6,470.0 748.1,470.0 749.6,470.0 751.1,470.0 752.7,470.0 754.2,470.0 755.7,470.0 757.2,470.0 758.7,470.0 760.2,470.0 761.7,470.0 763.3,470.0 764.8,470.0 766.3,470.0 767.8,470.0 769.3,470.0 770.8,470.0 772.3,470.0 773.9,470.0 775.4,470.0 776.9,470.0 778.4,470.0 779.9,470.0 781.4,470.0 782.9,470.0 784.5,470.0 786.0,470.0 787.5,470.0 789.0,470.0 790.5,470.0 792.0,470.0 793.5,470.0 795.1,470.0 796.6,470.0 798.1,470.0 799.6,470.0 801.1,470.0 802.6,470.0 804.1,470.0 805.7,470.0 807.2,470.0 808.7,470.0 810.2,470.0 811.7,470.0 813.2,470.0 814.7,470.0 816.3,470.0 817.8,470.0 819.3,470.0 820.8,470.0 822.3,470.0 823.8,470.0 825.3,470.0 826.9,470.0 828.4,470.0 829.9,470.0 831.4,470.0 832.9,470.0 834.4,470.0 835.9,470.0 837.5,470.0 839.0,470.0 840.5,470.0 842.0,470.0 843.5,470.0 845.0,470.0 846.5,470.0 848.1,470.0 849.6,470.0 851.1,470.0 852.6,470.0 854.1,470.0 855.6,470.0 857.1,470.0 858.7,470.0 860.2,470.0 861.7,470.0 863.2,470.0 864.7,470.0 866.2,470.0 867.7,470.0 869.3,470.0 870.8,470.0 872.3,470.0 873.8,470.0 875.3,470.0 876.8,470.0 878.3,470.0 879.9,470.0 881.4,470.0 882.9,470.0 884.4,470.0 885.9,470.0 887.4,470.0 888.9,470.0 890.5,470.0 892.0,470.0 893.5,470.0 895.0,470.0 896.5,470.0 898.0,470.0 899.5,470.0 901.1,470.0 902.6,470.0 904.1,470.0 905.6,470.0 907.1,470.0 908.6,470.0 910.1,470.0 911.7,470.0 913.2,470.0 914.7,470.0 916.2,470.0 917.7,470.0 919.2,470.0 920.7,470.0 922.3,470.0 923.8,470.0 925.3,470.0 926.8,470.0 928.3,470.0 929.8,470.0 931.3,470.0 932.9,470.0 934.4,470.0 935.9,470.0 937.4,470.0 938.9,470.0 940.4,470.0 941.9,470.0 943.5,470.0 945.0,470.0 946.5,470.0 948.0,470.0 949.5,470.0 951.0,470.0 952.5,470.0 954.1,470.0 955.6,470.0 957.1,470.0 958.6,470.0 960.1,470.0 961.6,470.0 963.1,470.0 964.7,470.0 966.2,470.0 967.7,470.0 969.2,470.0 970.7,469.9 972.2,469.9 973.7,469.9 975.3,469.9 976.8,469.8 978.3,469.8 979.8,469.7 981.3,469.6 982.8,469.4 984.3,469.3 985.9,469.1 987.4,468.8 988.9,468.5 990.4,468.1 991.9,467.7 993.4,467.1 994.9,466.4 996.5,465.6 998.0,464.6 999.5,463.4 1001.0,461.9 1002.5,460.3 1004.0,458.3 1005.5,456.0 1007.1,453.4 1008.6,450.3 1010.1,446.9 1011.6,443.0 1013.1,438.5 1014.6,433.5 1016.1,428.0 1017.7,421.9 1019.2,415.2 1020.7,407.8 1022.2,399.9 1023.7,391.3 1025.2,382.1 1026.7,372.4 1028.3,362.2 1029.8,351.4 1031.3,340.4 1032.8,328.9 1034.3,317.3 1035.8,305.6 1037.3,293.9 1038.9,282.2 1040.4,270.9 1041.9,259.9 1043.4,249.4 1044.9,239.6 1046.4,230.6 1047.9,222.5 1049.5,215.4 1051.0,209.4 1052.5,204.6 1054.0,201.1 1055.5,198.8 1057.0,198.0 1058.5,198.5 1060.1,200.3 1061.6,203.5 1063.1,207.9 1064.6,213.5 1066.1,220.3 1067.6,228.1 1069.1,236.7 1070.7,246.2 1072.2,256.4 1073.7,267.1 1075.2,278.2 1076.7,289.6 1078.2,301.1 1079.7,312.7 1081.3,324.2 1082.8,335.5 1084.3,346.6 1085.8,357.2 1087.3,367.5 1088.8,377.3 1090.3,386.5 1091.9,395.2 1093.4,403.3 1094.9,410.8 1096.4,417.7 1097.9,424.1 1099.4,429.8 1100.9,435.0 1102.5,439.7 1104.0,443.9 1105.5,447.6 1107.0,450.9 1108.5,453.7 1110.0,456.2 1111.5,458.4 1113.1,460.3 1114.6,461.9 1116.1,463.3 1117.6,464.5 1119.1,465.4 1120.6,466.3 1122.1,467.0 1123.7,467.5 1125.2,468.0 1126.7,468.4 1128.2,468.7 1129.7,469.0 1131.2,469.2 1132.7,469.4 1134.3,469.5 1135.8,469.6 1137.3,469.7 1138.8,469.8 1140.3,469.8 1141.8,469.9 1143.3,469.9 1144.9,469.9 1146.4,469.9 1147.9,470.0 1149.4,470.0 1150.9,470.0 1152.4,470.0 1153.9,470.0 1155.5,470.0 1157.0,470.0 1158.5,470.0 1160.0,470.0" fill="none" stroke="#b06b63" stroke-width="3"/>
<text x="1057.2" y="149.7" text-anchor="middle" font-family="-apple-system,BlinkMacSystemFont,PingFang SC,Noto Sans CJK SC,sans-serif" font-size="19" font-weight="700" fill="#b06b63">1000</text>
<text x="630.0" y="536" text-anchor="middle" font-family="-apple-system,BlinkMacSystemFont,PingFang SC,Noto Sans CJK SC,sans-serif" font-size="21" fill="#263f86">到众数的径向距离</text>
<text x="30" y="267.5" transform="rotate(-90 30 267.5)" text-anchor="middle" font-family="-apple-system,BlinkMacSystemFont,PingFang SC,Noto Sans CJK SC,sans-serif" font-size="21" fill="#263f86">密度</text>
</svg>
