<svg xmlns="http://www.w3.org/2000/svg" width="1200" height="600" viewBox="0 0 1200 600">
<title>图 14.9：住户给予接受率与二元组效应</title>
<desc>左图显示二十五户一般给予与接受的负关系以及百分之五十相容椭圆；右图显示三百个二元组两个方向效应的强正相关。</desc>
<rect width="1200" height="600" fill="#fff"/>
<rect x="80.0" y="70.0" width="480.0" height="430.0" fill="#fff" stroke="#30332e" stroke-width="1.5"/>
<rect x="700.0" y="70.0" width="480.0" height="430.0" fill="#fff" stroke="#30332e" stroke-width="1.5"/>
<line x1="80.0" y1="500.0" x2="560.0" y2="70.0" stroke="#30332e" stroke-width="2" stroke-dasharray="10 8"/>
<ellipse cx="99.5" cy="220.0" rx="12" ry="22" fill="none" stroke="#777b75" stroke-width="1.5" opacity="0.65"/>
<circle cx="99.5" cy="220.0" r="5" fill="#fff" stroke="#30332e" stroke-width="2"/>
<ellipse cx="110.7" cy="265.0" rx="15" ry="20" fill="none" stroke="#777b75" stroke-width="1.5" opacity="0.65"/>
<circle cx="110.7" cy="265.0" r="5" fill="#fff" stroke="#30332e" stroke-width="2"/>
<ellipse cx="119.1" cy="295.0" rx="18" ry="18" fill="none" stroke="#777b75" stroke-width="1.5" opacity="0.65"/>
<circle cx="119.1" cy="295.0" r="5" fill="#fff" stroke="#30332e" stroke-width="2"/>
<ellipse cx="130.2" cy="310.0" rx="12" ry="16" fill="none" stroke="#777b75" stroke-width="1.5" opacity="0.65"/>
<circle cx="130.2" cy="310.0" r="5" fill="#fff" stroke="#30332e" stroke-width="2"/>
<ellipse cx="138.6" cy="335.0" rx="15" ry="22" fill="none" stroke="#777b75" stroke-width="1.5" opacity="0.65"/>
<circle cx="138.6" cy="335.0" r="5" fill="#fff" stroke="#30332e" stroke-width="2"/>
<ellipse cx="147.0" cy="350.0" rx="18" ry="20" fill="none" stroke="#777b75" stroke-width="1.5" opacity="0.65"/>
<circle cx="147.0" cy="350.0" r="5" fill="#fff" stroke="#30332e" stroke-width="2"/>
<ellipse cx="155.3" cy="330.0" rx="12" ry="18" fill="none" stroke="#777b75" stroke-width="1.5" opacity="0.65"/>
<circle cx="155.3" cy="330.0" r="5" fill="#fff" stroke="#30332e" stroke-width="2"/>
<ellipse cx="163.7" cy="360.0" rx="15" ry="16" fill="none" stroke="#777b75" stroke-width="1.5" opacity="0.65"/>
<circle cx="163.7" cy="360.0" r="5" fill="#fff" stroke="#30332e" stroke-width="2"/>
<ellipse cx="174.9" cy="370.0" rx="18" ry="22" fill="none" stroke="#777b75" stroke-width="1.5" opacity="0.65"/>
<circle cx="174.9" cy="370.0" r="5" fill="#fff" stroke="#30332e" stroke-width="2"/>
<ellipse cx="186.0" cy="385.0" rx="12" ry="20" fill="none" stroke="#777b75" stroke-width="1.5" opacity="0.65"/>
<circle cx="186.0" cy="385.0" r="5" fill="#fff" stroke="#30332e" stroke-width="2"/>
<ellipse cx="197.2" cy="375.0" rx="15" ry="18" fill="none" stroke="#777b75" stroke-width="1.5" opacity="0.65"/>
<circle cx="197.2" cy="375.0" r="5" fill="#fff" stroke="#30332e" stroke-width="2"/>
<ellipse cx="208.4" cy="395.0" rx="18" ry="16" fill="none" stroke="#777b75" stroke-width="1.5" opacity="0.65"/>
<circle cx="208.4" cy="395.0" r="5" fill="#fff" stroke="#30332e" stroke-width="2"/>
<ellipse cx="219.5" cy="400.0" rx="12" ry="22" fill="none" stroke="#777b75" stroke-width="1.5" opacity="0.65"/>
<circle cx="219.5" cy="400.0" r="5" fill="#fff" stroke="#30332e" stroke-width="2"/>
<ellipse cx="236.3" cy="405.0" rx="15" ry="20" fill="none" stroke="#777b75" stroke-width="1.5" opacity="0.65"/>
<circle cx="236.3" cy="405.0" r="5" fill="#fff" stroke="#30332e" stroke-width="2"/>
<ellipse cx="253.0" cy="415.0" rx="18" ry="18" fill="none" stroke="#777b75" stroke-width="1.5" opacity="0.65"/>
<circle cx="253.0" cy="415.0" r="5" fill="#fff" stroke="#30332e" stroke-width="2"/>
<ellipse cx="269.8" cy="410.0" rx="12" ry="16" fill="none" stroke="#777b75" stroke-width="1.5" opacity="0.65"/>
<circle cx="269.8" cy="410.0" r="5" fill="#fff" stroke="#30332e" stroke-width="2"/>
<ellipse cx="286.5" cy="425.0" rx="15" ry="22" fill="none" stroke="#777b75" stroke-width="1.5" opacity="0.65"/>
<circle cx="286.5" cy="425.0" r="5" fill="#fff" stroke="#30332e" stroke-width="2"/>
<ellipse cx="303.3" cy="430.0" rx="18" ry="20" fill="none" stroke="#777b75" stroke-width="1.5" opacity="0.65"/>
<circle cx="303.3" cy="430.0" r="5" fill="#fff" stroke="#30332e" stroke-width="2"/>
<ellipse cx="325.6" cy="432.5" rx="12" ry="18" fill="none" stroke="#777b75" stroke-width="1.5" opacity="0.65"/>
<circle cx="325.6" cy="432.5" r="5" fill="#fff" stroke="#30332e" stroke-width="2"/>
<ellipse cx="347.9" cy="437.5" rx="15" ry="16" fill="none" stroke="#777b75" stroke-width="1.5" opacity="0.65"/>
<circle cx="347.9" cy="437.5" r="5" fill="#fff" stroke="#30332e" stroke-width="2"/>
<ellipse cx="370.2" cy="440.0" rx="18" ry="22" fill="none" stroke="#777b75" stroke-width="1.5" opacity="0.65"/>
<circle cx="370.2" cy="440.0" r="5" fill="#fff" stroke="#30332e" stroke-width="2"/>
<ellipse cx="403.7" cy="447.5" rx="12" ry="20" fill="none" stroke="#777b75" stroke-width="1.5" opacity="0.65"/>
<circle cx="403.7" cy="447.5" r="5" fill="#fff" stroke="#30332e" stroke-width="2"/>
<ellipse cx="442.8" cy="452.5" rx="15" ry="18" fill="none" stroke="#777b75" stroke-width="1.5" opacity="0.65"/>
<circle cx="442.8" cy="452.5" r="5" fill="#fff" stroke="#30332e" stroke-width="2"/>
<ellipse cx="487.4" cy="455.0" rx="18" ry="16" fill="none" stroke="#777b75" stroke-width="1.5" opacity="0.65"/>
<circle cx="487.4" cy="455.0" r="5" fill="#fff" stroke="#30332e" stroke-width="2"/>
<ellipse cx="526.5" cy="460.0" rx="12" ry="22" fill="none" stroke="#777b75" stroke-width="1.5" opacity="0.65"/>
<circle cx="526.5" cy="460.0" r="5" fill="#fff" stroke="#30332e" stroke-width="2"/>
<circle cx="669.3" cy="514.0" r="3.3" fill="#6670ee" opacity="0.58"/>
<circle cx="965.9" cy="303.9" r="3.3" fill="#6670ee" opacity="0.58"/>
<circle cx="698.1" cy="529.9" r="3.3" fill="#6670ee" opacity="0.58"/>
<circle cx="954.4" cy="284.3" r="3.3" fill="#6670ee" opacity="0.58"/>
<circle cx="917.1" cy="302.5" r="3.3" fill="#6670ee" opacity="0.58"/>
<circle cx="915.1" cy="283.6" r="3.3" fill="#6670ee" opacity="0.58"/>
<circle cx="901.3" cy="315.7" r="3.3" fill="#6670ee" opacity="0.58"/>
<circle cx="754.9" cy="487.1" r="3.3" fill="#6670ee" opacity="0.58"/>
<circle cx="826.1" cy="404.9" r="3.3" fill="#6670ee" opacity="0.58"/>
<circle cx="795.8" cy="418.9" r="3.3" fill="#6670ee" opacity="0.58"/>
<circle cx="875.5" cy="418.3" r="3.3" fill="#6670ee" opacity="0.58"/>
<circle cx="956.9" cy="261.1" r="3.3" fill="#6670ee" opacity="0.58"/>
<circle cx="1017.1" cy="161.3" r="3.3" fill="#6670ee" opacity="0.58"/>
<circle cx="828.0" cy="330.1" r="3.3" fill="#6670ee" opacity="0.58"/>
<circle cx="912.8" cy="324.3" r="3.3" fill="#6670ee" opacity="0.58"/>
<circle cx="942.0" cy="240.9" r="3.3" fill="#6670ee" opacity="0.58"/>
<circle cx="812.3" cy="410.0" r="3.3" fill="#6670ee" opacity="0.58"/>
<circle cx="770.3" cy="449.1" r="3.3" fill="#6670ee" opacity="0.58"/>
<circle cx="887.5" cy="345.2" r="3.3" fill="#6670ee" opacity="0.58"/>
<circle cx="882.1" cy="372.5" r="3.3" fill="#6670ee" opacity="0.58"/>
<circle cx="1031.5" cy="206.0" r="3.3" fill="#6670ee" opacity="0.58"/>
<circle cx="831.7" cy="403.8" r="3.3" fill="#6670ee" opacity="0.58"/>
<circle cx="1062.1" cy="188.7" r="3.3" fill="#6670ee" opacity="0.58"/>
<circle cx="1041.2" cy="231.3" r="3.3" fill="#6670ee" opacity="0.58"/>
<circle cx="869.3" cy="297.6" r="3.3" fill="#6670ee" opacity="0.58"/>
<circle cx="847.0" cy="359.6" r="3.3" fill="#6670ee" opacity="0.58"/>
<circle cx="939.5" cy="272.7" r="3.3" fill="#6670ee" opacity="0.58"/>
<circle cx="953.9" cy="259.1" r="3.3" fill="#6670ee" opacity="0.58"/>
<circle cx="837.7" cy="344.3" r="3.3" fill="#6670ee" opacity="0.58"/>
<circle cx="1027.0" cy="251.0" r="3.3" fill="#6670ee" opacity="0.58"/>
<circle cx="896.4" cy="328.6" r="3.3" fill="#6670ee" opacity="0.58"/>
<circle cx="853.8" cy="350.6" r="3.3" fill="#6670ee" opacity="0.58"/>
<circle cx="856.9" cy="326.0" r="3.3" fill="#6670ee" opacity="0.58"/>
<circle cx="926.4" cy="319.7" r="3.3" fill="#6670ee" opacity="0.58"/>
<circle cx="1065.9" cy="140.2" r="3.3" fill="#6670ee" opacity="0.58"/>
<circle cx="916.4" cy="318.0" r="3.3" fill="#6670ee" opacity="0.58"/>
<circle cx="1119.2" cy="119.1" r="3.3" fill="#6670ee" opacity="0.58"/>
<circle cx="976.8" cy="248.5" r="3.3" fill="#6670ee" opacity="0.58"/>
<circle cx="971.0" cy="272.4" r="3.3" fill="#6670ee" opacity="0.58"/>
<circle cx="967.5" cy="259.9" r="3.3" fill="#6670ee" opacity="0.58"/>
<circle cx="843.1" cy="423.1" r="3.3" fill="#6670ee" opacity="0.58"/>
<circle cx="739.2" cy="462.8" r="3.3" fill="#6670ee" opacity="0.58"/>
<circle cx="871.0" cy="315.8" r="3.3" fill="#6670ee" opacity="0.58"/>
<circle cx="889.5" cy="311.3" r="3.3" fill="#6670ee" opacity="0.58"/>
<circle cx="988.2" cy="284.9" r="3.3" fill="#6670ee" opacity="0.58"/>
<circle cx="914.3" cy="290.2" r="3.3" fill="#6670ee" opacity="0.58"/>
<circle cx="965.8" cy="229.7" r="3.3" fill="#6670ee" opacity="0.58"/>
<circle cx="932.5" cy="371.3" r="3.3" fill="#6670ee" opacity="0.58"/>
<circle cx="795.7" cy="428.1" r="3.3" fill="#6670ee" opacity="0.58"/>
<circle cx="969.6" cy="291.7" r="3.3" fill="#6670ee" opacity="0.58"/>
<circle cx="940.1" cy="325.3" r="3.3" fill="#6670ee" opacity="0.58"/>
<circle cx="944.0" cy="286.4" r="3.3" fill="#6670ee" opacity="0.58"/>
<circle cx="1041.2" cy="238.9" r="3.3" fill="#6670ee" opacity="0.58"/>
<circle cx="884.9" cy="307.0" r="3.3" fill="#6670ee" opacity="0.58"/>
<circle cx="920.5" cy="283.9" r="3.3" fill="#6670ee" opacity="0.58"/>
<circle cx="881.2" cy="339.9" r="3.3" fill="#6670ee" opacity="0.58"/>
<circle cx="911.5" cy="318.3" r="3.3" fill="#6670ee" opacity="0.58"/>
<circle cx="1006.5" cy="198.9" r="3.3" fill="#6670ee" opacity="0.58"/>
<circle cx="906.6" cy="268.6" r="3.3" fill="#6670ee" opacity="0.58"/>
<circle cx="915.9" cy="319.7" r="3.3" fill="#6670ee" opacity="0.58"/>
<circle cx="907.2" cy="302.5" r="3.3" fill="#6670ee" opacity="0.58"/>
<circle cx="849.8" cy="345.1" r="3.3" fill="#6670ee" opacity="0.58"/>
<circle cx="1118.4" cy="140.5" r="3.3" fill="#6670ee" opacity="0.58"/>
<circle cx="942.1" cy="296.3" r="3.3" fill="#6670ee" opacity="0.58"/>
<circle cx="780.6" cy="409.5" r="3.3" fill="#6670ee" opacity="0.58"/>
<circle cx="1019.3" cy="228.6" r="3.3" fill="#6670ee" opacity="0.58"/>
<circle cx="1039.1" cy="180.9" r="3.3" fill="#6670ee" opacity="0.58"/>
<circle cx="871.9" cy="360.0" r="3.3" fill="#6670ee" opacity="0.58"/>
<circle cx="850.9" cy="353.5" r="3.3" fill="#6670ee" opacity="0.58"/>
<circle cx="955.8" cy="239.2" r="3.3" fill="#6670ee" opacity="0.58"/>
<circle cx="890.4" cy="301.0" r="3.3" fill="#6670ee" opacity="0.58"/>
<circle cx="982.4" cy="299.6" r="3.3" fill="#6670ee" opacity="0.58"/>
<circle cx="811.7" cy="383.2" r="3.3" fill="#6670ee" opacity="0.58"/>
<circle cx="963.7" cy="308.7" r="3.3" fill="#6670ee" opacity="0.58"/>
<circle cx="866.3" cy="335.0" r="3.3" fill="#6670ee" opacity="0.58"/>
<circle cx="723.4" cy="409.5" r="3.3" fill="#6670ee" opacity="0.58"/>
<circle cx="844.2" cy="369.2" r="3.3" fill="#6670ee" opacity="0.58"/>
<circle cx="871.3" cy="319.9" r="3.3" fill="#6670ee" opacity="0.58"/>
<circle cx="939.7" cy="298.5" r="3.3" fill="#6670ee" opacity="0.58"/>
<circle cx="943.4" cy="299.6" r="3.3" fill="#6670ee" opacity="0.58"/>
<circle cx="769.0" cy="435.0" r="3.3" fill="#6670ee" opacity="0.58"/>
<circle cx="1064.4" cy="161.9" r="3.3" fill="#6670ee" opacity="0.58"/>
<circle cx="844.7" cy="350.1" r="3.3" fill="#6670ee" opacity="0.58"/>
<circle cx="956.3" cy="266.7" r="3.3" fill="#6670ee" opacity="0.58"/>
<circle cx="911.0" cy="304.0" r="3.3" fill="#6670ee" opacity="0.58"/>
<circle cx="862.3" cy="396.0" r="3.3" fill="#6670ee" opacity="0.58"/>
<circle cx="975.7" cy="277.2" r="3.3" fill="#6670ee" opacity="0.58"/>
<circle cx="974.5" cy="251.5" r="3.3" fill="#6670ee" opacity="0.58"/>
<circle cx="857.6" cy="329.6" r="3.3" fill="#6670ee" opacity="0.58"/>
<circle cx="964.6" cy="271.0" r="3.3" fill="#6670ee" opacity="0.58"/>
<circle cx="988.4" cy="306.2" r="3.3" fill="#6670ee" opacity="0.58"/>
<circle cx="1003.1" cy="228.7" r="3.3" fill="#6670ee" opacity="0.58"/>
<circle cx="1032.2" cy="165.9" r="3.3" fill="#6670ee" opacity="0.58"/>
<circle cx="766.7" cy="435.1" r="3.3" fill="#6670ee" opacity="0.58"/>
<circle cx="876.3" cy="314.1" r="3.3" fill="#6670ee" opacity="0.58"/>
<circle cx="928.7" cy="318.1" r="3.3" fill="#6670ee" opacity="0.58"/>
<circle cx="854.8" cy="384.7" r="3.3" fill="#6670ee" opacity="0.58"/>
<circle cx="872.8" cy="339.1" r="3.3" fill="#6670ee" opacity="0.58"/>
<circle cx="969.5" cy="261.7" r="3.3" fill="#6670ee" opacity="0.58"/>
<circle cx="995.6" cy="215.6" r="3.3" fill="#6670ee" opacity="0.58"/>
<circle cx="897.7" cy="316.8" r="3.3" fill="#6670ee" opacity="0.58"/>
<circle cx="937.6" cy="288.7" r="3.3" fill="#6670ee" opacity="0.58"/>
<circle cx="957.9" cy="218.5" r="3.3" fill="#6670ee" opacity="0.58"/>
<circle cx="974.5" cy="254.3" r="3.3" fill="#6670ee" opacity="0.58"/>
<circle cx="925.9" cy="280.7" r="3.3" fill="#6670ee" opacity="0.58"/>
<circle cx="980.9" cy="264.1" r="3.3" fill="#6670ee" opacity="0.58"/>
<circle cx="642.7" cy="484.8" r="3.3" fill="#6670ee" opacity="0.58"/>
<circle cx="1000.6" cy="293.6" r="3.3" fill="#6670ee" opacity="0.58"/>
<circle cx="939.9" cy="297.8" r="3.3" fill="#6670ee" opacity="0.58"/>
<circle cx="879.2" cy="370.0" r="3.3" fill="#6670ee" opacity="0.58"/>
<circle cx="815.3" cy="418.6" r="3.3" fill="#6670ee" opacity="0.58"/>
<circle cx="887.6" cy="299.8" r="3.3" fill="#6670ee" opacity="0.58"/>
<circle cx="832.8" cy="359.3" r="3.3" fill="#6670ee" opacity="0.58"/>
<circle cx="958.0" cy="293.3" r="3.3" fill="#6670ee" opacity="0.58"/>
<circle cx="951.9" cy="295.2" r="3.3" fill="#6670ee" opacity="0.58"/>
<circle cx="806.1" cy="409.0" r="3.3" fill="#6670ee" opacity="0.58"/>
<circle cx="931.9" cy="300.3" r="3.3" fill="#6670ee" opacity="0.58"/>
<circle cx="891.4" cy="331.1" r="3.3" fill="#6670ee" opacity="0.58"/>
<circle cx="908.5" cy="302.4" r="3.3" fill="#6670ee" opacity="0.58"/>
<circle cx="879.8" cy="325.7" r="3.3" fill="#6670ee" opacity="0.58"/>
<circle cx="812.2" cy="385.4" r="3.3" fill="#6670ee" opacity="0.58"/>
<circle cx="1127.2" cy="183.1" r="3.3" fill="#6670ee" opacity="0.58"/>
<circle cx="879.9" cy="330.9" r="3.3" fill="#6670ee" opacity="0.58"/>
<circle cx="961.8" cy="317.6" r="3.3" fill="#6670ee" opacity="0.58"/>
<circle cx="926.4" cy="321.2" r="3.3" fill="#6670ee" opacity="0.58"/>
<circle cx="949.5" cy="253.7" r="3.3" fill="#6670ee" opacity="0.58"/>
<circle cx="962.9" cy="271.0" r="3.3" fill="#6670ee" opacity="0.58"/>
<circle cx="754.1" cy="356.6" r="3.3" fill="#6670ee" opacity="0.58"/>
<circle cx="755.8" cy="442.1" r="3.3" fill="#6670ee" opacity="0.58"/>
<circle cx="827.1" cy="372.4" r="3.3" fill="#6670ee" opacity="0.58"/>
<circle cx="988.0" cy="265.2" r="3.3" fill="#6670ee" opacity="0.58"/>
<circle cx="945.5" cy="229.4" r="3.3" fill="#6670ee" opacity="0.58"/>
<circle cx="973.0" cy="276.1" r="3.3" fill="#6670ee" opacity="0.58"/>
<circle cx="996.9" cy="276.0" r="3.3" fill="#6670ee" opacity="0.58"/>
<circle cx="967.7" cy="270.9" r="3.3" fill="#6670ee" opacity="0.58"/>
<circle cx="934.1" cy="300.7" r="3.3" fill="#6670ee" opacity="0.58"/>
<circle cx="885.4" cy="298.7" r="3.3" fill="#6670ee" opacity="0.58"/>
<circle cx="1103.3" cy="142.5" r="3.3" fill="#6670ee" opacity="0.58"/>
<circle cx="838.6" cy="380.4" r="3.3" fill="#6670ee" opacity="0.58"/>
<circle cx="1024.6" cy="262.1" r="3.3" fill="#6670ee" opacity="0.58"/>
<circle cx="989.3" cy="251.9" r="3.3" fill="#6670ee" opacity="0.58"/>
<circle cx="944.6" cy="290.6" r="3.3" fill="#6670ee" opacity="0.58"/>
<circle cx="784.0" cy="443.8" r="3.3" fill="#6670ee" opacity="0.58"/>
<circle cx="1012.0" cy="217.5" r="3.3" fill="#6670ee" opacity="0.58"/>
<circle cx="906.0" cy="286.1" r="3.3" fill="#6670ee" opacity="0.58"/>
<circle cx="778.9" cy="393.7" r="3.3" fill="#6670ee" opacity="0.58"/>
<circle cx="920.8" cy="277.1" r="3.3" fill="#6670ee" opacity="0.58"/>
<circle cx="861.9" cy="410.1" r="3.3" fill="#6670ee" opacity="0.58"/>
<circle cx="898.8" cy="323.2" r="3.3" fill="#6670ee" opacity="0.58"/>
<circle cx="878.3" cy="362.3" r="3.3" fill="#6670ee" opacity="0.58"/>
<circle cx="903.1" cy="323.0" r="3.3" fill="#6670ee" opacity="0.58"/>
<circle cx="872.7" cy="330.2" r="3.3" fill="#6670ee" opacity="0.58"/>
<circle cx="988.3" cy="301.5" r="3.3" fill="#6670ee" opacity="0.58"/>
<circle cx="995.8" cy="262.1" r="3.3" fill="#6670ee" opacity="0.58"/>
<circle cx="851.5" cy="379.9" r="3.3" fill="#6670ee" opacity="0.58"/>
<circle cx="941.9" cy="296.9" r="3.3" fill="#6670ee" opacity="0.58"/>
<circle cx="867.4" cy="367.9" r="3.3" fill="#6670ee" opacity="0.58"/>
<circle cx="918.4" cy="302.3" r="3.3" fill="#6670ee" opacity="0.58"/>
<circle cx="937.6" cy="254.0" r="3.3" fill="#6670ee" opacity="0.58"/>
<circle cx="1059.1" cy="226.6" r="3.3" fill="#6670ee" opacity="0.58"/>
<circle cx="946.3" cy="292.7" r="3.3" fill="#6670ee" opacity="0.58"/>
<circle cx="997.6" cy="230.7" r="3.3" fill="#6670ee" opacity="0.58"/>
<circle cx="924.4" cy="319.7" r="3.3" fill="#6670ee" opacity="0.58"/>
<circle cx="1025.0" cy="236.9" r="3.3" fill="#6670ee" opacity="0.58"/>
<circle cx="807.2" cy="376.8" r="3.3" fill="#6670ee" opacity="0.58"/>
<circle cx="857.0" cy="348.5" r="3.3" fill="#6670ee" opacity="0.58"/>
<circle cx="941.6" cy="301.4" r="3.3" fill="#6670ee" opacity="0.58"/>
<circle cx="871.8" cy="362.2" r="3.3" fill="#6670ee" opacity="0.58"/>
<circle cx="946.8" cy="314.6" r="3.3" fill="#6670ee" opacity="0.58"/>
<circle cx="874.1" cy="353.8" r="3.3" fill="#6670ee" opacity="0.58"/>
<circle cx="866.9" cy="325.0" r="3.3" fill="#6670ee" opacity="0.58"/>
<circle cx="1001.9" cy="235.0" r="3.3" fill="#6670ee" opacity="0.58"/>
<circle cx="974.9" cy="270.0" r="3.3" fill="#6670ee" opacity="0.58"/>
<circle cx="918.3" cy="291.6" r="3.3" fill="#6670ee" opacity="0.58"/>
<circle cx="934.2" cy="282.4" r="3.3" fill="#6670ee" opacity="0.58"/>
<circle cx="1038.6" cy="234.0" r="3.3" fill="#6670ee" opacity="0.58"/>
<circle cx="877.3" cy="363.6" r="3.3" fill="#6670ee" opacity="0.58"/>
<circle cx="968.6" cy="208.5" r="3.3" fill="#6670ee" opacity="0.58"/>
<circle cx="762.8" cy="441.9" r="3.3" fill="#6670ee" opacity="0.58"/>
<circle cx="910.8" cy="277.0" r="3.3" fill="#6670ee" opacity="0.58"/>
<circle cx="709.8" cy="474.0" r="3.3" fill="#6670ee" opacity="0.58"/>
<circle cx="859.8" cy="323.6" r="3.3" fill="#6670ee" opacity="0.58"/>
<circle cx="791.4" cy="403.1" r="3.3" fill="#6670ee" opacity="0.58"/>
<circle cx="840.6" cy="390.3" r="3.3" fill="#6670ee" opacity="0.58"/>
<circle cx="903.9" cy="367.9" r="3.3" fill="#6670ee" opacity="0.58"/>
<circle cx="1010.1" cy="232.2" r="3.3" fill="#6670ee" opacity="0.58"/>
<circle cx="925.7" cy="304.9" r="3.3" fill="#6670ee" opacity="0.58"/>
<circle cx="868.6" cy="338.6" r="3.3" fill="#6670ee" opacity="0.58"/>
<circle cx="817.0" cy="395.5" r="3.3" fill="#6670ee" opacity="0.58"/>
<circle cx="939.2" cy="337.1" r="3.3" fill="#6670ee" opacity="0.58"/>
<circle cx="956.2" cy="254.3" r="3.3" fill="#6670ee" opacity="0.58"/>
<circle cx="928.4" cy="333.0" r="3.3" fill="#6670ee" opacity="0.58"/>
<circle cx="1022.7" cy="172.1" r="3.3" fill="#6670ee" opacity="0.58"/>
<circle cx="1093.7" cy="217.0" r="3.3" fill="#6670ee" opacity="0.58"/>
<circle cx="1003.3" cy="308.6" r="3.3" fill="#6670ee" opacity="0.58"/>
<circle cx="846.8" cy="367.1" r="3.3" fill="#6670ee" opacity="0.58"/>
<circle cx="948.2" cy="254.1" r="3.3" fill="#6670ee" opacity="0.58"/>
<circle cx="980.6" cy="263.4" r="3.3" fill="#6670ee" opacity="0.58"/>
<circle cx="787.1" cy="389.6" r="3.3" fill="#6670ee" opacity="0.58"/>
<circle cx="962.2" cy="316.8" r="3.3" fill="#6670ee" opacity="0.58"/>
<circle cx="1084.3" cy="182.5" r="3.3" fill="#6670ee" opacity="0.58"/>
<circle cx="913.5" cy="242.9" r="3.3" fill="#6670ee" opacity="0.58"/>
<circle cx="1002.3" cy="182.0" r="3.3" fill="#6670ee" opacity="0.58"/>
<circle cx="908.7" cy="309.5" r="3.3" fill="#6670ee" opacity="0.58"/>
<circle cx="853.6" cy="342.9" r="3.3" fill="#6670ee" opacity="0.58"/>
<circle cx="839.2" cy="335.2" r="3.3" fill="#6670ee" opacity="0.58"/>
<circle cx="995.0" cy="234.8" r="3.3" fill="#6670ee" opacity="0.58"/>
<circle cx="888.8" cy="380.4" r="3.3" fill="#6670ee" opacity="0.58"/>
<circle cx="959.7" cy="318.5" r="3.3" fill="#6670ee" opacity="0.58"/>
<circle cx="921.2" cy="306.5" r="3.3" fill="#6670ee" opacity="0.58"/>
<circle cx="1012.3" cy="239.0" r="3.3" fill="#6670ee" opacity="0.58"/>
<circle cx="873.2" cy="319.6" r="3.3" fill="#6670ee" opacity="0.58"/>
<circle cx="885.4" cy="383.1" r="3.3" fill="#6670ee" opacity="0.58"/>
<circle cx="966.7" cy="315.3" r="3.3" fill="#6670ee" opacity="0.58"/>
<circle cx="984.4" cy="291.0" r="3.3" fill="#6670ee" opacity="0.58"/>
<circle cx="1051.2" cy="188.2" r="3.3" fill="#6670ee" opacity="0.58"/>
<circle cx="1087.9" cy="169.8" r="3.3" fill="#6670ee" opacity="0.58"/>
<circle cx="931.4" cy="289.9" r="3.3" fill="#6670ee" opacity="0.58"/>
<circle cx="934.1" cy="270.3" r="3.3" fill="#6670ee" opacity="0.58"/>
<circle cx="989.7" cy="258.7" r="3.3" fill="#6670ee" opacity="0.58"/>
<circle cx="854.3" cy="363.1" r="3.3" fill="#6670ee" opacity="0.58"/>
<circle cx="855.4" cy="369.1" r="3.3" fill="#6670ee" opacity="0.58"/>
<circle cx="702.2" cy="492.9" r="3.3" fill="#6670ee" opacity="0.58"/>
<circle cx="794.2" cy="376.2" r="3.3" fill="#6670ee" opacity="0.58"/>
<circle cx="1084.0" cy="210.2" r="3.3" fill="#6670ee" opacity="0.58"/>
<circle cx="956.2" cy="301.0" r="3.3" fill="#6670ee" opacity="0.58"/>
<circle cx="840.0" cy="394.2" r="3.3" fill="#6670ee" opacity="0.58"/>
<circle cx="928.8" cy="236.8" r="3.3" fill="#6670ee" opacity="0.58"/>
<circle cx="934.8" cy="268.7" r="3.3" fill="#6670ee" opacity="0.58"/>
<circle cx="831.5" cy="338.8" r="3.3" fill="#6670ee" opacity="0.58"/>
<circle cx="920.8" cy="278.4" r="3.3" fill="#6670ee" opacity="0.58"/>
<circle cx="1014.7" cy="191.8" r="3.3" fill="#6670ee" opacity="0.58"/>
<circle cx="973.6" cy="242.0" r="3.3" fill="#6670ee" opacity="0.58"/>
<circle cx="999.0" cy="247.3" r="3.3" fill="#6670ee" opacity="0.58"/>
<circle cx="995.1" cy="198.6" r="3.3" fill="#6670ee" opacity="0.58"/>
<circle cx="974.4" cy="245.9" r="3.3" fill="#6670ee" opacity="0.58"/>
<circle cx="913.8" cy="378.5" r="3.3" fill="#6670ee" opacity="0.58"/>
<circle cx="1000.6" cy="221.1" r="3.3" fill="#6670ee" opacity="0.58"/>
<circle cx="1023.6" cy="257.6" r="3.3" fill="#6670ee" opacity="0.58"/>
<circle cx="789.0" cy="397.3" r="3.3" fill="#6670ee" opacity="0.58"/>
<circle cx="967.7" cy="270.9" r="3.3" fill="#6670ee" opacity="0.58"/>
<circle cx="954.9" cy="257.8" r="3.3" fill="#6670ee" opacity="0.58"/>
<circle cx="1008.2" cy="281.4" r="3.3" fill="#6670ee" opacity="0.58"/>
<circle cx="941.6" cy="312.3" r="3.3" fill="#6670ee" opacity="0.58"/>
<circle cx="871.8" cy="337.4" r="3.3" fill="#6670ee" opacity="0.58"/>
<circle cx="882.5" cy="326.8" r="3.3" fill="#6670ee" opacity="0.58"/>
<circle cx="848.1" cy="416.6" r="3.3" fill="#6670ee" opacity="0.58"/>
<circle cx="795.7" cy="438.4" r="3.3" fill="#6670ee" opacity="0.58"/>
<circle cx="888.0" cy="330.2" r="3.3" fill="#6670ee" opacity="0.58"/>
<circle cx="795.2" cy="454.8" r="3.3" fill="#6670ee" opacity="0.58"/>
<circle cx="743.0" cy="405.6" r="3.3" fill="#6670ee" opacity="0.58"/>
<circle cx="967.4" cy="272.6" r="3.3" fill="#6670ee" opacity="0.58"/>
<circle cx="968.2" cy="286.0" r="3.3" fill="#6670ee" opacity="0.58"/>
<circle cx="981.5" cy="276.2" r="3.3" fill="#6670ee" opacity="0.58"/>
<circle cx="929.3" cy="320.1" r="3.3" fill="#6670ee" opacity="0.58"/>
<circle cx="774.2" cy="378.6" r="3.3" fill="#6670ee" opacity="0.58"/>
<circle cx="901.6" cy="362.3" r="3.3" fill="#6670ee" opacity="0.58"/>
<circle cx="883.4" cy="329.4" r="3.3" fill="#6670ee" opacity="0.58"/>
<circle cx="940.5" cy="318.9" r="3.3" fill="#6670ee" opacity="0.58"/>
<circle cx="867.1" cy="403.1" r="3.3" fill="#6670ee" opacity="0.58"/>
<circle cx="967.5" cy="275.8" r="3.3" fill="#6670ee" opacity="0.58"/>
<circle cx="853.7" cy="387.0" r="3.3" fill="#6670ee" opacity="0.58"/>
<circle cx="844.3" cy="365.2" r="3.3" fill="#6670ee" opacity="0.58"/>
<circle cx="950.7" cy="298.3" r="3.3" fill="#6670ee" opacity="0.58"/>
<circle cx="1039.8" cy="217.5" r="3.3" fill="#6670ee" opacity="0.58"/>
<circle cx="932.8" cy="297.7" r="3.3" fill="#6670ee" opacity="0.58"/>
<circle cx="755.6" cy="418.5" r="3.3" fill="#6670ee" opacity="0.58"/>
<circle cx="865.2" cy="303.4" r="3.3" fill="#6670ee" opacity="0.58"/>
<circle cx="853.2" cy="335.6" r="3.3" fill="#6670ee" opacity="0.58"/>
<circle cx="845.4" cy="408.4" r="3.3" fill="#6670ee" opacity="0.58"/>
<circle cx="892.0" cy="348.9" r="3.3" fill="#6670ee" opacity="0.58"/>
<circle cx="752.8" cy="445.5" r="3.3" fill="#6670ee" opacity="0.58"/>
<circle cx="1123.5" cy="139.0" r="3.3" fill="#6670ee" opacity="0.58"/>
<circle cx="921.0" cy="389.1" r="3.3" fill="#6670ee" opacity="0.58"/>
<circle cx="873.9" cy="370.0" r="3.3" fill="#6670ee" opacity="0.58"/>
<circle cx="910.3" cy="363.4" r="3.3" fill="#6670ee" opacity="0.58"/>
<circle cx="900.3" cy="306.8" r="3.3" fill="#6670ee" opacity="0.58"/>
<circle cx="914.8" cy="292.6" r="3.3" fill="#6670ee" opacity="0.58"/>
<circle cx="939.8" cy="330.4" r="3.3" fill="#6670ee" opacity="0.58"/>
<circle cx="880.8" cy="315.6" r="3.3" fill="#6670ee" opacity="0.58"/>
<circle cx="909.6" cy="342.6" r="3.3" fill="#6670ee" opacity="0.58"/>
<circle cx="924.3" cy="314.3" r="3.3" fill="#6670ee" opacity="0.58"/>
<circle cx="882.3" cy="362.7" r="3.3" fill="#6670ee" opacity="0.58"/>
<circle cx="828.8" cy="371.9" r="3.3" fill="#6670ee" opacity="0.58"/>
<circle cx="848.6" cy="337.6" r="3.3" fill="#6670ee" opacity="0.58"/>
<circle cx="843.4" cy="381.0" r="3.3" fill="#6670ee" opacity="0.58"/>
<circle cx="1000.2" cy="223.2" r="3.3" fill="#6670ee" opacity="0.58"/>
<circle cx="1019.4" cy="258.1" r="3.3" fill="#6670ee" opacity="0.58"/>
<circle cx="892.6" cy="383.7" r="3.3" fill="#6670ee" opacity="0.58"/>
<circle cx="1082.9" cy="172.3" r="3.3" fill="#6670ee" opacity="0.58"/>
<circle cx="793.5" cy="399.7" r="3.3" fill="#6670ee" opacity="0.58"/>
<circle cx="901.0" cy="334.5" r="3.3" fill="#6670ee" opacity="0.58"/>
<circle cx="904.5" cy="314.5" r="3.3" fill="#6670ee" opacity="0.58"/>
<circle cx="852.0" cy="376.4" r="3.3" fill="#6670ee" opacity="0.58"/>
<circle cx="1007.3" cy="248.4" r="3.3" fill="#6670ee" opacity="0.58"/>
<circle cx="1079.6" cy="246.9" r="3.3" fill="#6670ee" opacity="0.58"/>
<circle cx="1005.3" cy="227.3" r="3.3" fill="#6670ee" opacity="0.58"/>
<circle cx="830.2" cy="374.5" r="3.3" fill="#6670ee" opacity="0.58"/>
<circle cx="857.3" cy="349.5" r="3.3" fill="#6670ee" opacity="0.58"/>
<circle cx="858.7" cy="402.5" r="3.3" fill="#6670ee" opacity="0.58"/>
<line x1="80.0" y1="500.0" x2="80.0" y2="506.0" stroke="#30332e"/>
<text x="80.0" y="528.0" text-anchor="middle" font-family="-apple-system,BlinkMacSystemFont,PingFang SC,Noto Sans CJK SC,sans-serif" font-size="16" font-weight="400" fill="#30332e">0</text>
<line x1="74.0" y1="500.0" x2="80.0" y2="500.0" stroke="#30332e"/>
<text x="68.0" y="505.0" text-anchor="end" font-family="-apple-system,BlinkMacSystemFont,PingFang SC,Noto Sans CJK SC,sans-serif" font-size="16" font-weight="400" fill="#30332e">0</text>
<line x1="191.6" y1="500.0" x2="191.6" y2="506.0" stroke="#30332e"/>
<text x="191.6" y="528.0" text-anchor="middle" font-family="-apple-system,BlinkMacSystemFont,PingFang SC,Noto Sans CJK SC,sans-serif" font-size="16" font-weight="400" fill="#30332e">2</text>
<line x1="74.0" y1="400.0" x2="80.0" y2="400.0" stroke="#30332e"/>
<text x="68.0" y="405.0" text-anchor="end" font-family="-apple-system,BlinkMacSystemFont,PingFang SC,Noto Sans CJK SC,sans-serif" font-size="16" font-weight="400" fill="#30332e">2</text>
<line x1="303.3" y1="500.0" x2="303.3" y2="506.0" stroke="#30332e"/>
<text x="303.3" y="528.0" text-anchor="middle" font-family="-apple-system,BlinkMacSystemFont,PingFang SC,Noto Sans CJK SC,sans-serif" font-size="16" font-weight="400" fill="#30332e">4</text>
<line x1="74.0" y1="300.0" x2="80.0" y2="300.0" stroke="#30332e"/>
<text x="68.0" y="305.0" text-anchor="end" font-family="-apple-system,BlinkMacSystemFont,PingFang SC,Noto Sans CJK SC,sans-serif" font-size="16" font-weight="400" fill="#30332e">4</text>
<line x1="414.9" y1="500.0" x2="414.9" y2="506.0" stroke="#30332e"/>
<text x="414.9" y="528.0" text-anchor="middle" font-family="-apple-system,BlinkMacSystemFont,PingFang SC,Noto Sans CJK SC,sans-serif" font-size="16" font-weight="400" fill="#30332e">6</text>
<line x1="74.0" y1="200.0" x2="80.0" y2="200.0" stroke="#30332e"/>
<text x="68.0" y="205.0" text-anchor="end" font-family="-apple-system,BlinkMacSystemFont,PingFang SC,Noto Sans CJK SC,sans-serif" font-size="16" font-weight="400" fill="#30332e">6</text>
<line x1="526.5" y1="500.0" x2="526.5" y2="506.0" stroke="#30332e"/>
<text x="526.5" y="528.0" text-anchor="middle" font-family="-apple-system,BlinkMacSystemFont,PingFang SC,Noto Sans CJK SC,sans-serif" font-size="16" font-weight="400" fill="#30332e">8</text>
<line x1="74.0" y1="100.0" x2="80.0" y2="100.0" stroke="#30332e"/>
<text x="68.0" y="105.0" text-anchor="end" font-family="-apple-system,BlinkMacSystemFont,PingFang SC,Noto Sans CJK SC,sans-serif" font-size="16" font-weight="400" fill="#30332e">8</text>
<line x1="717.8" y1="500.0" x2="717.8" y2="506.0" stroke="#30332e"/>
<text x="717.8" y="528.0" text-anchor="middle" font-family="-apple-system,BlinkMacSystemFont,PingFang SC,Noto Sans CJK SC,sans-serif" font-size="16" font-weight="400" fill="#30332e">-2</text>
<line x1="694.0" y1="484.1" x2="700.0" y2="484.1" stroke="#30332e"/>
<text x="688.0" y="489.1" text-anchor="end" font-family="-apple-system,BlinkMacSystemFont,PingFang SC,Noto Sans CJK SC,sans-serif" font-size="16" font-weight="400" fill="#30332e">-2</text>
<line x1="806.7" y1="500.0" x2="806.7" y2="506.0" stroke="#30332e"/>
<text x="806.7" y="528.0" text-anchor="middle" font-family="-apple-system,BlinkMacSystemFont,PingFang SC,Noto Sans CJK SC,sans-serif" font-size="16" font-weight="400" fill="#30332e">-1</text>
<line x1="694.0" y1="404.4" x2="700.0" y2="404.4" stroke="#30332e"/>
<text x="688.0" y="409.4" text-anchor="end" font-family="-apple-system,BlinkMacSystemFont,PingFang SC,Noto Sans CJK SC,sans-serif" font-size="16" font-weight="400" fill="#30332e">-1</text>
<line x1="895.6" y1="500.0" x2="895.6" y2="506.0" stroke="#30332e"/>
<text x="895.6" y="528.0" text-anchor="middle" font-family="-apple-system,BlinkMacSystemFont,PingFang SC,Noto Sans CJK SC,sans-serif" font-size="16" font-weight="400" fill="#30332e">0</text>
<line x1="694.0" y1="324.8" x2="700.0" y2="324.8" stroke="#30332e"/>
<text x="688.0" y="329.8" text-anchor="end" font-family="-apple-system,BlinkMacSystemFont,PingFang SC,Noto Sans CJK SC,sans-serif" font-size="16" font-weight="400" fill="#30332e">0</text>
<line x1="984.4" y1="500.0" x2="984.4" y2="506.0" stroke="#30332e"/>
<text x="984.4" y="528.0" text-anchor="middle" font-family="-apple-system,BlinkMacSystemFont,PingFang SC,Noto Sans CJK SC,sans-serif" font-size="16" font-weight="400" fill="#30332e">1</text>
<line x1="694.0" y1="245.2" x2="700.0" y2="245.2" stroke="#30332e"/>
<text x="688.0" y="250.2" text-anchor="end" font-family="-apple-system,BlinkMacSystemFont,PingFang SC,Noto Sans CJK SC,sans-serif" font-size="16" font-weight="400" fill="#30332e">1</text>
<line x1="1073.3" y1="500.0" x2="1073.3" y2="506.0" stroke="#30332e"/>
<text x="1073.3" y="528.0" text-anchor="middle" font-family="-apple-system,BlinkMacSystemFont,PingFang SC,Noto Sans CJK SC,sans-serif" font-size="16" font-weight="400" fill="#30332e">2</text>
<line x1="694.0" y1="165.6" x2="700.0" y2="165.6" stroke="#30332e"/>
<text x="688.0" y="170.6" text-anchor="end" font-family="-apple-system,BlinkMacSystemFont,PingFang SC,Noto Sans CJK SC,sans-serif" font-size="16" font-weight="400" fill="#30332e">2</text>
<line x1="1162.2" y1="500.0" x2="1162.2" y2="506.0" stroke="#30332e"/>
<text x="1162.2" y="528.0" text-anchor="middle" font-family="-apple-system,BlinkMacSystemFont,PingFang SC,Noto Sans CJK SC,sans-serif" font-size="16" font-weight="400" fill="#30332e">3</text>
<line x1="694.0" y1="85.9" x2="700.0" y2="85.9" stroke="#30332e"/>
<text x="688.0" y="90.9" text-anchor="end" font-family="-apple-system,BlinkMacSystemFont,PingFang SC,Noto Sans CJK SC,sans-serif" font-size="16" font-weight="400" fill="#30332e">3</text>
<text x="320.0" y="565.0" text-anchor="middle" font-family="-apple-system,BlinkMacSystemFont,PingFang SC,Noto Sans CJK SC,sans-serif" font-size="20" font-weight="600" fill="#30332e">一般给予</text>
<text x="26.0" y="285.0" text-anchor="middle" font-family="-apple-system,BlinkMacSystemFont,PingFang SC,Noto Sans CJK SC,sans-serif" font-size="20" font-weight="600" fill="#30332e" transform="rotate(-90 26 285)">一般接受</text>
<text x="940.0" y="565.0" text-anchor="middle" font-family="-apple-system,BlinkMacSystemFont,PingFang SC,Noto Sans CJK SC,sans-serif" font-size="20" font-weight="600" fill="#30332e">二元组中的住户 A</text>
<text x="645.0" y="285.0" text-anchor="middle" font-family="-apple-system,BlinkMacSystemFont,PingFang SC,Noto Sans CJK SC,sans-serif" font-size="20" font-weight="600" fill="#30332e" transform="rotate(-90 645 285)">二元组中的住户 B</text>
</svg>