<?xml version="1.0" encoding="UTF-8"?>
<svg xmlns="http://www.w3.org/2000/svg" width="1200" height="1040" viewBox="0 0 1200 1040" role="img">
  <title>贝叶斯模型随九次地球仪投掷逐步学习</title>
  <desc>九个面板依次加入水域或陆地观测。虚线表示更新前的可信程度，实线表示纳入最新观测后的可信程度。</desc>
  <rect width="100%" height="100%" fill="#ffffff"/>
  <g id="step-1">
    <text x="163" y="79" font-family="-apple-system,BlinkMacSystemFont,PingFang SC,Noto Sans CJK SC,sans-serif" font-size="18" font-weight="700" fill="#20231f">W</text>
    <text x="187" y="79" font-family="-apple-system,BlinkMacSystemFont,PingFang SC,Noto Sans CJK SC,sans-serif" font-size="18" font-weight="400" fill="#b7b8b3">L</text>
    <text x="211" y="79" font-family="-apple-system,BlinkMacSystemFont,PingFang SC,Noto Sans CJK SC,sans-serif" font-size="18" font-weight="400" fill="#b7b8b3">W</text>
    <text x="235" y="79" font-family="-apple-system,BlinkMacSystemFont,PingFang SC,Noto Sans CJK SC,sans-serif" font-size="18" font-weight="400" fill="#b7b8b3">W</text>
    <text x="259" y="79" font-family="-apple-system,BlinkMacSystemFont,PingFang SC,Noto Sans CJK SC,sans-serif" font-size="18" font-weight="400" fill="#b7b8b3">W</text>
    <text x="283" y="79" font-family="-apple-system,BlinkMacSystemFont,PingFang SC,Noto Sans CJK SC,sans-serif" font-size="18" font-weight="400" fill="#b7b8b3">L</text>
    <text x="307" y="79" font-family="-apple-system,BlinkMacSystemFont,PingFang SC,Noto Sans CJK SC,sans-serif" font-size="18" font-weight="400" fill="#b7b8b3">W</text>
    <text x="331" y="79" font-family="-apple-system,BlinkMacSystemFont,PingFang SC,Noto Sans CJK SC,sans-serif" font-size="18" font-weight="400" fill="#b7b8b3">L</text>
    <text x="355" y="79" font-family="-apple-system,BlinkMacSystemFont,PingFang SC,Noto Sans CJK SC,sans-serif" font-size="18" font-weight="400" fill="#b7b8b3">W</text>
    <rect x="163" y="107" width="238" height="172" fill="none" stroke="#353832" stroke-width="1.2"/>
    <text x="175" y="135" font-family="-apple-system,BlinkMacSystemFont,PingFang SC,Noto Sans CJK SC,sans-serif" font-size="17" fill="#20231f">n = 1</text>
    <line x1="163" y1="279" x2="163" y2="289" stroke="#353832"/>
    <text x="163" y="310" text-anchor="middle" font-family="-apple-system,BlinkMacSystemFont,PingFang SC,Noto Sans CJK SC,sans-serif" font-size="15" fill="#30332e">0</text>
    <line x1="282" y1="279" x2="282" y2="289" stroke="#353832"/>
    <text x="282" y="310" text-anchor="middle" font-family="-apple-system,BlinkMacSystemFont,PingFang SC,Noto Sans CJK SC,sans-serif" font-size="15" fill="#30332e">0.5</text>
    <line x1="401" y1="279" x2="401" y2="289" stroke="#353832"/>
    <text x="401" y="310" text-anchor="middle" font-family="-apple-system,BlinkMacSystemFont,PingFang SC,Noto Sans CJK SC,sans-serif" font-size="15" fill="#30332e">1</text>
    <path d="M163 197.42 L164.98 197.42 L166.97 197.42 L168.95 197.42 L170.93 197.42 L172.92 197.42 L174.9 197.42 L176.88 197.42 L178.87 197.42 L180.85 197.42 L182.83 197.42 L184.82 197.42 L186.8 197.42 L188.78 197.42 L190.77 197.42 L192.75 197.42 L194.73 197.42 L196.72 197.42 L198.7 197.42 L200.68 197.42 L202.67 197.42 L204.65 197.42 L206.63 197.42 L208.62 197.42 L210.6 197.42 L212.58 197.42 L214.57 197.42 L216.55 197.42 L218.53 197.42 L220.52 197.42 L222.5 197.42 L224.48 197.42 L226.47 197.42 L228.45 197.42 L230.43 197.42 L232.42 197.42 L234.4 197.42 L236.38 197.42 L238.37 197.42 L240.35 197.42 L242.33 197.42 L244.32 197.42 L246.3 197.42 L248.28 197.42 L250.27 197.42 L252.25 197.42 L254.23 197.42 L256.22 197.42 L258.2 197.42 L260.18 197.42 L262.17 197.42 L264.15 197.42 L266.13 197.42 L268.12 197.42 L270.1 197.42 L272.08 197.42 L274.07 197.42 L276.05 197.42 L278.03 197.42 L280.02 197.42 L282 197.42 L283.98 197.42 L285.97 197.42 L287.95 197.42 L289.93 197.42 L291.92 197.42 L293.9 197.42 L295.88 197.42 L297.87 197.42 L299.85 197.42 L301.83 197.42 L303.82 197.42 L305.8 197.42 L307.78 197.42 L309.77 197.42 L311.75 197.42 L313.73 197.42 L315.72 197.42 L317.7 197.42 L319.68 197.42 L321.67 197.42 L323.65 197.42 L325.63 197.42 L327.62 197.42 L329.6 197.42 L331.58 197.42 L333.57 197.42 L335.55 197.42 L337.53 197.42 L339.52 197.42 L341.5 197.42 L343.48 197.42 L345.47 197.42 L347.45 197.42 L349.43 197.42 L351.42 197.42 L353.4 197.42 L355.38 197.42 L357.37 197.42 L359.35 197.42 L361.33 197.42 L363.32 197.42 L365.3 197.42 L367.28 197.42 L369.27 197.42 L371.25 197.42 L373.23 197.42 L375.22 197.42 L377.2 197.42 L379.18 197.42 L381.17 197.42 L383.15 197.42 L385.13 197.42 L387.12 197.42 L389.1 197.42 L391.08 197.42 L393.07 197.42 L395.05 197.42 L397.03 197.42 L399.02 197.42 L401 197.42" fill="none" stroke="#666962" stroke-width="1.6" stroke-dasharray="7 6"/>
    <path d="M163 271 L164.98 269.77 L166.97 268.55 L168.95 267.32 L170.93 266.09 L172.92 264.87 L174.9 263.64 L176.88 262.42 L178.87 261.19 L180.85 259.96 L182.83 258.74 L184.82 257.51 L186.8 256.28 L188.78 255.06 L190.77 253.83 L192.75 252.6 L194.73 251.38 L196.72 250.15 L198.7 248.92 L200.68 247.7 L202.67 246.47 L204.65 245.25 L206.63 244.02 L208.62 242.79 L210.6 241.57 L212.58 240.34 L214.57 239.11 L216.55 237.89 L218.53 236.66 L220.52 235.43 L222.5 234.21 L224.48 232.98 L226.47 231.75 L228.45 230.53 L230.43 229.3 L232.42 228.08 L234.4 226.85 L236.38 225.62 L238.37 224.4 L240.35 223.17 L242.33 221.94 L244.32 220.72 L246.3 219.49 L248.28 218.26 L250.27 217.04 L252.25 215.81 L254.23 214.58 L256.22 213.36 L258.2 212.13 L260.18 210.91 L262.17 209.68 L264.15 208.45 L266.13 207.23 L268.12 206 L270.1 204.77 L272.08 203.55 L274.07 202.32 L276.05 201.09 L278.03 199.87 L280.02 198.64 L282 197.42 L283.98 196.19 L285.97 194.96 L287.95 193.74 L289.93 192.51 L291.92 191.28 L293.9 190.06 L295.88 188.83 L297.87 187.6 L299.85 186.38 L301.83 185.15 L303.82 183.92 L305.8 182.7 L307.78 181.47 L309.77 180.25 L311.75 179.02 L313.73 177.79 L315.72 176.57 L317.7 175.34 L319.68 174.11 L321.67 172.89 L323.65 171.66 L325.63 170.43 L327.62 169.21 L329.6 167.98 L331.58 166.75 L333.57 165.53 L335.55 164.3 L337.53 163.08 L339.52 161.85 L341.5 160.62 L343.48 159.4 L345.47 158.17 L347.45 156.94 L349.43 155.72 L351.42 154.49 L353.4 153.26 L355.38 152.04 L357.37 150.81 L359.35 149.58 L361.33 148.36 L363.32 147.13 L365.3 145.91 L367.28 144.68 L369.27 143.45 L371.25 142.23 L373.23 141 L375.22 139.77 L377.2 138.55 L379.18 137.32 L381.17 136.09 L383.15 134.87 L385.13 133.64 L387.12 132.42 L389.1 131.19 L391.08 129.96 L393.07 128.74 L395.05 127.51 L397.03 126.28 L399.02 125.06 L401 123.83" fill="none" stroke="#172860" stroke-width="2.6"/>
    <text x="123" y="193" transform="rotate(-90 123 193)" text-anchor="middle" font-family="-apple-system,BlinkMacSystemFont,PingFang SC,Noto Sans CJK SC,sans-serif" font-size="17" fill="#30332e">可信程度</text>
  </g>
  <g id="step-2">
    <text x="519" y="79" font-family="-apple-system,BlinkMacSystemFont,PingFang SC,Noto Sans CJK SC,sans-serif" font-size="18" font-weight="400" fill="#20231f">W</text>
    <text x="543" y="79" font-family="-apple-system,BlinkMacSystemFont,PingFang SC,Noto Sans CJK SC,sans-serif" font-size="18" font-weight="700" fill="#20231f">L</text>
    <text x="567" y="79" font-family="-apple-system,BlinkMacSystemFont,PingFang SC,Noto Sans CJK SC,sans-serif" font-size="18" font-weight="400" fill="#b7b8b3">W</text>
    <text x="591" y="79" font-family="-apple-system,BlinkMacSystemFont,PingFang SC,Noto Sans CJK SC,sans-serif" font-size="18" font-weight="400" fill="#b7b8b3">W</text>
    <text x="615" y="79" font-family="-apple-system,BlinkMacSystemFont,PingFang SC,Noto Sans CJK SC,sans-serif" font-size="18" font-weight="400" fill="#b7b8b3">W</text>
    <text x="639" y="79" font-family="-apple-system,BlinkMacSystemFont,PingFang SC,Noto Sans CJK SC,sans-serif" font-size="18" font-weight="400" fill="#b7b8b3">L</text>
    <text x="663" y="79" font-family="-apple-system,BlinkMacSystemFont,PingFang SC,Noto Sans CJK SC,sans-serif" font-size="18" font-weight="400" fill="#b7b8b3">W</text>
    <text x="687" y="79" font-family="-apple-system,BlinkMacSystemFont,PingFang SC,Noto Sans CJK SC,sans-serif" font-size="18" font-weight="400" fill="#b7b8b3">L</text>
    <text x="711" y="79" font-family="-apple-system,BlinkMacSystemFont,PingFang SC,Noto Sans CJK SC,sans-serif" font-size="18" font-weight="400" fill="#b7b8b3">W</text>
    <rect x="519" y="107" width="238" height="172" fill="none" stroke="#353832" stroke-width="1.2"/>
    <text x="531" y="135" font-family="-apple-system,BlinkMacSystemFont,PingFang SC,Noto Sans CJK SC,sans-serif" font-size="17" fill="#20231f">n = 2</text>
    <line x1="519" y1="279" x2="519" y2="289" stroke="#353832"/>
    <text x="519" y="310" text-anchor="middle" font-family="-apple-system,BlinkMacSystemFont,PingFang SC,Noto Sans CJK SC,sans-serif" font-size="15" fill="#30332e">0</text>
    <line x1="638" y1="279" x2="638" y2="289" stroke="#353832"/>
    <text x="638" y="310" text-anchor="middle" font-family="-apple-system,BlinkMacSystemFont,PingFang SC,Noto Sans CJK SC,sans-serif" font-size="15" fill="#30332e">0.5</text>
    <line x1="757" y1="279" x2="757" y2="289" stroke="#353832"/>
    <text x="757" y="310" text-anchor="middle" font-family="-apple-system,BlinkMacSystemFont,PingFang SC,Noto Sans CJK SC,sans-serif" font-size="15" fill="#30332e">1</text>
    <path d="M519 271 L520.98 269.77 L522.97 268.55 L524.95 267.32 L526.93 266.09 L528.92 264.87 L530.9 263.64 L532.88 262.42 L534.87 261.19 L536.85 259.96 L538.83 258.74 L540.82 257.51 L542.8 256.28 L544.78 255.06 L546.77 253.83 L548.75 252.6 L550.73 251.38 L552.72 250.15 L554.7 248.92 L556.68 247.7 L558.67 246.47 L560.65 245.25 L562.63 244.02 L564.62 242.79 L566.6 241.57 L568.58 240.34 L570.57 239.11 L572.55 237.89 L574.53 236.66 L576.52 235.43 L578.5 234.21 L580.48 232.98 L582.47 231.75 L584.45 230.53 L586.43 229.3 L588.42 228.08 L590.4 226.85 L592.38 225.62 L594.37 224.4 L596.35 223.17 L598.33 221.94 L600.32 220.72 L602.3 219.49 L604.28 218.26 L606.27 217.04 L608.25 215.81 L610.23 214.58 L612.22 213.36 L614.2 212.13 L616.18 210.91 L618.17 209.68 L620.15 208.45 L622.13 207.23 L624.12 206 L626.1 204.77 L628.08 203.55 L630.07 202.32 L632.05 201.09 L634.03 199.87 L636.02 198.64 L638 197.42 L639.98 196.19 L641.97 194.96 L643.95 193.74 L645.93 192.51 L647.92 191.28 L649.9 190.06 L651.88 188.83 L653.87 187.6 L655.85 186.38 L657.83 185.15 L659.82 183.92 L661.8 182.7 L663.78 181.47 L665.77 180.25 L667.75 179.02 L669.73 177.79 L671.72 176.57 L673.7 175.34 L675.68 174.11 L677.67 172.89 L679.65 171.66 L681.63 170.43 L683.62 169.21 L685.6 167.98 L687.58 166.75 L689.57 165.53 L691.55 164.3 L693.53 163.08 L695.52 161.85 L697.5 160.62 L699.48 159.4 L701.47 158.17 L703.45 156.94 L705.43 155.72 L707.42 154.49 L709.4 153.26 L711.38 152.04 L713.37 150.81 L715.35 149.58 L717.33 148.36 L719.32 147.13 L721.3 145.91 L723.28 144.68 L725.27 143.45 L727.25 142.23 L729.23 141 L731.22 139.77 L733.2 138.55 L735.18 137.32 L737.17 136.09 L739.15 134.87 L741.13 133.64 L743.12 132.42 L745.1 131.19 L747.08 129.96 L749.07 128.74 L751.05 127.51 L753.03 126.28 L755.02 125.06 L757 123.83" fill="none" stroke="#666962" stroke-width="1.6" stroke-dasharray="7 6"/>
    <path d="M519 271 L520.98 267.35 L522.97 263.76 L524.95 260.24 L526.93 256.77 L528.92 253.37 L530.9 250.03 L532.88 246.75 L534.87 243.53 L536.85 240.37 L538.83 237.27 L540.82 234.24 L542.8 231.26 L544.78 228.35 L546.77 225.5 L548.75 222.71 L550.73 219.98 L552.72 217.31 L554.7 214.71 L556.68 212.16 L558.67 209.68 L560.65 207.26 L562.63 204.9 L564.62 202.6 L566.6 200.36 L568.58 198.18 L570.57 196.07 L572.55 194.01 L574.53 192.02 L576.52 190.09 L578.5 188.22 L580.48 186.41 L582.47 184.66 L584.45 182.97 L586.43 181.35 L588.42 179.79 L590.4 178.28 L592.38 176.84 L594.37 175.46 L596.35 174.14 L598.33 172.89 L600.32 171.69 L602.3 170.56 L604.28 169.48 L606.27 168.47 L608.25 167.52 L610.23 166.63 L612.22 165.8 L614.2 165.04 L616.18 164.33 L618.17 163.69 L620.15 163.11 L622.13 162.58 L624.12 162.12 L626.1 161.73 L628.08 161.39 L630.07 161.11 L632.05 160.9 L634.03 160.75 L636.02 160.65 L638 160.62 L639.98 160.65 L641.97 160.75 L643.95 160.9 L645.93 161.11 L647.92 161.39 L649.9 161.73 L651.88 162.12 L653.87 162.58 L655.85 163.11 L657.83 163.69 L659.82 164.33 L661.8 165.04 L663.78 165.8 L665.77 166.63 L667.75 167.52 L669.73 168.47 L671.72 169.48 L673.7 170.56 L675.68 171.69 L677.67 172.89 L679.65 174.14 L681.63 175.46 L683.62 176.84 L685.6 178.28 L687.58 179.79 L689.57 181.35 L691.55 182.97 L693.53 184.66 L695.52 186.41 L697.5 188.22 L699.48 190.09 L701.47 192.02 L703.45 194.01 L705.43 196.07 L707.42 198.18 L709.4 200.36 L711.38 202.6 L713.37 204.9 L715.35 207.26 L717.33 209.68 L719.32 212.16 L721.3 214.71 L723.28 217.31 L725.27 219.98 L727.25 222.71 L729.23 225.5 L731.22 228.35 L733.2 231.26 L735.18 234.24 L737.17 237.27 L739.15 240.37 L741.13 243.53 L743.12 246.75 L745.1 250.03 L747.08 253.37 L749.07 256.77 L751.05 260.24 L753.03 263.76 L755.02 267.35 L757 271" fill="none" stroke="#172860" stroke-width="2.6"/>
  </g>
  <g id="step-3">
    <text x="875" y="79" font-family="-apple-system,BlinkMacSystemFont,PingFang SC,Noto Sans CJK SC,sans-serif" font-size="18" font-weight="400" fill="#20231f">W</text>
    <text x="899" y="79" font-family="-apple-system,BlinkMacSystemFont,PingFang SC,Noto Sans CJK SC,sans-serif" font-size="18" font-weight="400" fill="#20231f">L</text>
    <text x="923" y="79" font-family="-apple-system,BlinkMacSystemFont,PingFang SC,Noto Sans CJK SC,sans-serif" font-size="18" font-weight="700" fill="#20231f">W</text>
    <text x="947" y="79" font-family="-apple-system,BlinkMacSystemFont,PingFang SC,Noto Sans CJK SC,sans-serif" font-size="18" font-weight="400" fill="#b7b8b3">W</text>
    <text x="971" y="79" font-family="-apple-system,BlinkMacSystemFont,PingFang SC,Noto Sans CJK SC,sans-serif" font-size="18" font-weight="400" fill="#b7b8b3">W</text>
    <text x="995" y="79" font-family="-apple-system,BlinkMacSystemFont,PingFang SC,Noto Sans CJK SC,sans-serif" font-size="18" font-weight="400" fill="#b7b8b3">L</text>
    <text x="1019" y="79" font-family="-apple-system,BlinkMacSystemFont,PingFang SC,Noto Sans CJK SC,sans-serif" font-size="18" font-weight="400" fill="#b7b8b3">W</text>
    <text x="1043" y="79" font-family="-apple-system,BlinkMacSystemFont,PingFang SC,Noto Sans CJK SC,sans-serif" font-size="18" font-weight="400" fill="#b7b8b3">L</text>
    <text x="1067" y="79" font-family="-apple-system,BlinkMacSystemFont,PingFang SC,Noto Sans CJK SC,sans-serif" font-size="18" font-weight="400" fill="#b7b8b3">W</text>
    <rect x="875" y="107" width="238" height="172" fill="none" stroke="#353832" stroke-width="1.2"/>
    <text x="887" y="135" font-family="-apple-system,BlinkMacSystemFont,PingFang SC,Noto Sans CJK SC,sans-serif" font-size="17" fill="#20231f">n = 3</text>
    <line x1="875" y1="279" x2="875" y2="289" stroke="#353832"/>
    <text x="875" y="310" text-anchor="middle" font-family="-apple-system,BlinkMacSystemFont,PingFang SC,Noto Sans CJK SC,sans-serif" font-size="15" fill="#30332e">0</text>
    <line x1="994" y1="279" x2="994" y2="289" stroke="#353832"/>
    <text x="994" y="310" text-anchor="middle" font-family="-apple-system,BlinkMacSystemFont,PingFang SC,Noto Sans CJK SC,sans-serif" font-size="15" fill="#30332e">0.5</text>
    <line x1="1113" y1="279" x2="1113" y2="289" stroke="#353832"/>
    <text x="1113" y="310" text-anchor="middle" font-family="-apple-system,BlinkMacSystemFont,PingFang SC,Noto Sans CJK SC,sans-serif" font-size="15" fill="#30332e">1</text>
    <path d="M875 271 L876.98 266.9 L878.97 262.86 L880.95 258.89 L882.93 255 L884.92 251.17 L886.9 247.41 L888.88 243.72 L890.87 240.09 L892.85 236.54 L894.83 233.06 L896.82 229.64 L898.8 226.3 L900.78 223.02 L902.77 219.81 L904.75 216.67 L906.73 213.6 L908.72 210.6 L910.7 207.67 L912.68 204.81 L914.67 202.01 L916.65 199.29 L918.63 196.63 L920.62 194.05 L922.6 191.53 L924.58 189.08 L926.57 186.7 L928.55 184.39 L930.53 182.15 L932.52 179.97 L934.5 177.87 L936.48 175.83 L938.47 173.87 L940.45 171.97 L942.43 170.14 L944.42 168.38 L946.4 166.69 L948.38 165.07 L950.37 163.52 L952.35 162.04 L954.33 160.62 L956.32 159.28 L958.3 158 L960.28 156.79 L962.27 155.66 L964.25 154.59 L966.23 153.59 L968.22 152.65 L970.2 151.79 L972.18 151 L974.17 150.27 L976.15 149.62 L978.13 149.03 L980.12 148.52 L982.1 148.07 L984.08 147.69 L986.07 147.38 L988.05 147.14 L990.03 146.96 L992.02 146.86 L994 146.83 L995.98 146.86 L997.97 146.96 L999.95 147.14 L1001.93 147.38 L1003.92 147.69 L1005.9 148.07 L1007.88 148.52 L1009.87 149.03 L1011.85 149.62 L1013.83 150.27 L1015.82 151 L1017.8 151.79 L1019.78 152.65 L1021.77 153.59 L1023.75 154.59 L1025.73 155.66 L1027.72 156.79 L1029.7 158 L1031.68 159.28 L1033.67 160.62 L1035.65 162.04 L1037.63 163.52 L1039.62 165.07 L1041.6 166.69 L1043.58 168.38 L1045.57 170.14 L1047.55 171.97 L1049.53 173.87 L1051.52 175.83 L1053.5 177.87 L1055.48 179.97 L1057.47 182.15 L1059.45 184.39 L1061.43 186.7 L1063.42 189.08 L1065.4 191.53 L1067.38 194.05 L1069.37 196.63 L1071.35 199.29 L1073.33 202.01 L1075.32 204.81 L1077.3 207.67 L1079.28 210.6 L1081.27 213.6 L1083.25 216.67 L1085.23 219.81 L1087.22 223.02 L1089.2 226.3 L1091.18 229.64 L1093.17 233.06 L1095.15 236.54 L1097.13 240.09 L1099.12 243.72 L1101.1 247.41 L1103.08 251.17 L1105.07 255 L1107.05 258.89 L1109.03 262.86 L1111.02 266.9 L1113 271" fill="none" stroke="#666962" stroke-width="1.6" stroke-dasharray="7 6"/>
    <path d="M875 271 L876.98 270.93 L878.97 270.73 L880.95 270.39 L882.93 269.93 L884.92 269.35 L886.9 268.64 L888.88 267.82 L890.87 266.88 L892.85 265.83 L894.83 264.68 L896.82 263.42 L898.8 262.06 L900.78 260.6 L902.77 259.06 L904.75 257.42 L906.73 255.69 L908.72 253.89 L910.7 252 L912.68 250.04 L914.67 248 L916.65 245.9 L918.63 243.73 L920.62 241.5 L922.6 239.21 L924.58 236.87 L926.57 234.47 L928.55 232.02 L930.53 229.53 L932.52 227 L934.5 224.43 L936.48 221.83 L938.47 219.2 L940.45 216.53 L942.43 213.85 L944.42 211.14 L946.4 208.42 L948.38 205.68 L950.37 202.93 L952.35 200.17 L954.33 197.42 L956.32 194.66 L958.3 191.9 L960.28 189.15 L962.27 186.41 L964.25 183.69 L966.23 180.98 L968.22 178.3 L970.2 175.63 L972.18 173 L974.17 170.4 L976.15 167.83 L978.13 165.3 L980.12 162.81 L982.1 160.36 L984.08 157.96 L986.07 155.62 L988.05 153.33 L990.03 151.1 L992.02 148.93 L994 146.83 L995.98 144.79 L997.97 142.83 L999.95 140.94 L1001.93 139.14 L1003.92 137.41 L1005.9 135.77 L1007.88 134.23 L1009.87 132.77 L1011.85 131.41 L1013.83 130.15 L1015.82 129 L1017.8 127.95 L1019.78 127.01 L1021.77 126.19 L1023.75 125.48 L1025.73 124.9 L1027.72 124.44 L1029.7 124.1 L1031.68 123.9 L1033.67 123.83 L1035.65 123.9 L1037.63 124.11 L1039.62 124.47 L1041.6 124.97 L1043.58 125.63 L1045.57 126.44 L1047.55 127.41 L1049.53 128.54 L1051.52 129.84 L1053.5 131.3 L1055.48 132.94 L1057.47 134.76 L1059.45 136.75 L1061.43 138.93 L1063.42 141.29 L1065.4 143.85 L1067.38 146.59 L1069.37 149.53 L1071.35 152.68 L1073.33 156.02 L1075.32 159.58 L1077.3 163.34 L1079.28 167.32 L1081.27 171.51 L1083.25 175.93 L1085.23 180.57 L1087.22 185.44 L1089.2 190.53 L1091.18 195.87 L1093.17 201.44 L1095.15 207.25 L1097.13 213.31 L1099.12 219.62 L1101.1 226.17 L1103.08 232.99 L1105.07 240.06 L1107.05 247.39 L1109.03 254.99 L1111.02 262.86 L1113 271" fill="none" stroke="#172860" stroke-width="2.6"/>
  </g>
  <g id="step-4">
    <text x="163" y="400" font-family="-apple-system,BlinkMacSystemFont,PingFang SC,Noto Sans CJK SC,sans-serif" font-size="18" font-weight="400" fill="#20231f">W</text>
    <text x="187" y="400" font-family="-apple-system,BlinkMacSystemFont,PingFang SC,Noto Sans CJK SC,sans-serif" font-size="18" font-weight="400" fill="#20231f">L</text>
    <text x="211" y="400" font-family="-apple-system,BlinkMacSystemFont,PingFang SC,Noto Sans CJK SC,sans-serif" font-size="18" font-weight="400" fill="#20231f">W</text>
    <text x="235" y="400" font-family="-apple-system,BlinkMacSystemFont,PingFang SC,Noto Sans CJK SC,sans-serif" font-size="18" font-weight="700" fill="#20231f">W</text>
    <text x="259" y="400" font-family="-apple-system,BlinkMacSystemFont,PingFang SC,Noto Sans CJK SC,sans-serif" font-size="18" font-weight="400" fill="#b7b8b3">W</text>
    <text x="283" y="400" font-family="-apple-system,BlinkMacSystemFont,PingFang SC,Noto Sans CJK SC,sans-serif" font-size="18" font-weight="400" fill="#b7b8b3">L</text>
    <text x="307" y="400" font-family="-apple-system,BlinkMacSystemFont,PingFang SC,Noto Sans CJK SC,sans-serif" font-size="18" font-weight="400" fill="#b7b8b3">W</text>
    <text x="331" y="400" font-family="-apple-system,BlinkMacSystemFont,PingFang SC,Noto Sans CJK SC,sans-serif" font-size="18" font-weight="400" fill="#b7b8b3">L</text>
    <text x="355" y="400" font-family="-apple-system,BlinkMacSystemFont,PingFang SC,Noto Sans CJK SC,sans-serif" font-size="18" font-weight="400" fill="#b7b8b3">W</text>
    <rect x="163" y="428" width="238" height="172" fill="none" stroke="#353832" stroke-width="1.2"/>
    <text x="175" y="456" font-family="-apple-system,BlinkMacSystemFont,PingFang SC,Noto Sans CJK SC,sans-serif" font-size="17" fill="#20231f">n = 4</text>
    <line x1="163" y1="600" x2="163" y2="610" stroke="#353832"/>
    <text x="163" y="631" text-anchor="middle" font-family="-apple-system,BlinkMacSystemFont,PingFang SC,Noto Sans CJK SC,sans-serif" font-size="15" fill="#30332e">0</text>
    <line x1="282" y1="600" x2="282" y2="610" stroke="#353832"/>
    <text x="282" y="631" text-anchor="middle" font-family="-apple-system,BlinkMacSystemFont,PingFang SC,Noto Sans CJK SC,sans-serif" font-size="15" fill="#30332e">0.5</text>
    <line x1="401" y1="600" x2="401" y2="610" stroke="#353832"/>
    <text x="401" y="631" text-anchor="middle" font-family="-apple-system,BlinkMacSystemFont,PingFang SC,Noto Sans CJK SC,sans-serif" font-size="15" fill="#30332e">1</text>
    <path d="M163 592 L164.98 591.94 L166.97 591.77 L168.95 591.49 L170.93 591.1 L172.92 590.61 L174.9 590.01 L176.88 589.32 L178.87 588.53 L180.85 587.64 L182.83 586.67 L184.82 585.61 L186.8 584.46 L188.78 583.24 L190.77 581.93 L192.75 580.55 L194.73 579.1 L196.72 577.58 L198.7 575.99 L200.68 574.33 L202.67 572.62 L204.65 570.85 L206.63 569.02 L208.62 567.14 L210.6 565.21 L212.58 563.23 L214.57 561.21 L216.55 559.15 L218.53 557.05 L220.52 554.92 L222.5 552.75 L224.48 550.56 L226.47 548.34 L228.45 546.1 L230.43 543.83 L232.42 541.55 L234.4 539.25 L236.38 536.95 L238.37 534.63 L240.35 532.31 L242.33 529.98 L244.32 527.66 L246.3 525.34 L248.28 523.02 L250.27 520.71 L252.25 518.42 L254.23 516.13 L256.22 513.87 L258.2 511.63 L260.18 509.41 L262.17 507.21 L264.15 505.05 L266.13 502.91 L268.12 500.81 L270.1 498.75 L272.08 496.73 L274.07 494.76 L276.05 492.83 L278.03 490.95 L280.02 489.12 L282 487.35 L283.98 485.63 L285.97 483.98 L287.95 482.39 L289.93 480.87 L291.92 479.41 L293.9 478.03 L295.88 476.73 L297.87 475.5 L299.85 474.36 L301.83 473.3 L303.82 472.32 L305.8 471.44 L307.78 470.65 L309.77 469.95 L311.75 469.36 L313.73 468.86 L315.72 468.48 L317.7 468.19 L319.68 468.02 L321.67 467.97 L323.65 468.02 L325.63 468.2 L327.62 468.5 L329.6 468.93 L331.58 469.48 L333.57 470.16 L335.55 470.98 L337.53 471.93 L339.52 473.03 L341.5 474.26 L343.48 475.65 L345.47 477.18 L347.45 478.86 L349.43 480.69 L351.42 482.68 L353.4 484.83 L355.38 487.15 L357.37 489.63 L359.35 492.28 L361.33 495.1 L363.32 498.09 L365.3 501.26 L367.28 504.62 L369.27 508.15 L371.25 511.87 L373.23 515.78 L375.22 519.89 L377.2 524.18 L379.18 528.68 L381.17 533.37 L383.15 538.27 L385.13 543.38 L387.12 548.69 L389.1 554.22 L391.08 559.96 L393.07 565.92 L395.05 572.1 L397.03 578.51 L399.02 585.14 L401 592" fill="none" stroke="#666962" stroke-width="1.6" stroke-dasharray="7 6"/>
    <path d="M163 592 L164.98 592 L166.97 591.99 L168.95 591.98 L170.93 591.95 L172.92 591.9 L174.9 591.83 L176.88 591.74 L178.87 591.61 L180.85 591.46 L182.83 591.26 L184.82 591.02 L186.8 590.74 L188.78 590.42 L190.77 590.04 L192.75 589.62 L194.73 589.13 L196.72 588.59 L198.7 588 L200.68 587.34 L202.67 586.62 L204.65 585.83 L206.63 584.98 L208.62 584.06 L210.6 583.07 L212.58 582.01 L214.57 580.88 L216.55 579.68 L218.53 578.41 L220.52 577.06 L222.5 575.65 L224.48 574.16 L226.47 572.6 L228.45 570.96 L230.43 569.25 L232.42 567.48 L234.4 565.63 L236.38 563.71 L238.37 561.72 L240.35 559.67 L242.33 557.55 L244.32 555.36 L246.3 553.11 L248.28 550.8 L250.27 548.43 L252.25 546.01 L254.23 543.53 L256.22 541 L258.2 538.42 L260.18 535.79 L262.17 533.12 L264.15 530.41 L266.13 527.66 L268.12 524.88 L270.1 522.06 L272.08 519.23 L274.07 516.37 L276.05 513.49 L278.03 510.6 L280.02 507.69 L282 504.79 L283.98 501.88 L285.97 498.98 L287.95 496.09 L289.93 493.21 L291.92 490.36 L293.9 487.53 L295.88 484.73 L297.87 481.97 L299.85 479.26 L301.83 476.59 L303.82 473.98 L305.8 471.44 L307.78 468.96 L309.77 466.56 L311.75 464.25 L313.73 462.02 L315.72 459.9 L317.7 457.88 L319.68 455.97 L321.67 454.18 L323.65 452.53 L325.63 451.01 L327.62 449.63 L329.6 448.41 L331.58 447.36 L333.57 446.47 L335.55 445.77 L337.53 445.25 L339.52 444.94 L341.5 444.83 L343.48 444.94 L345.47 445.28 L347.45 445.86 L349.43 446.68 L351.42 447.76 L353.4 449.11 L355.38 450.74 L357.37 452.66 L359.35 454.88 L361.33 457.41 L363.32 460.27 L365.3 463.46 L367.28 466.99 L369.27 470.89 L371.25 475.15 L373.23 479.79 L375.22 484.83 L377.2 490.28 L379.18 496.14 L381.17 502.43 L383.15 509.17 L385.13 516.37 L387.12 524.03 L389.1 532.18 L391.08 540.83 L393.07 549.99 L395.05 559.67 L397.03 569.89 L399.02 580.66 L401 592" fill="none" stroke="#172860" stroke-width="2.6"/>
    <text x="123" y="514" transform="rotate(-90 123 514)" text-anchor="middle" font-family="-apple-system,BlinkMacSystemFont,PingFang SC,Noto Sans CJK SC,sans-serif" font-size="17" fill="#30332e">可信程度</text>
  </g>
  <g id="step-5">
    <text x="519" y="400" font-family="-apple-system,BlinkMacSystemFont,PingFang SC,Noto Sans CJK SC,sans-serif" font-size="18" font-weight="400" fill="#20231f">W</text>
    <text x="543" y="400" font-family="-apple-system,BlinkMacSystemFont,PingFang SC,Noto Sans CJK SC,sans-serif" font-size="18" font-weight="400" fill="#20231f">L</text>
    <text x="567" y="400" font-family="-apple-system,BlinkMacSystemFont,PingFang SC,Noto Sans CJK SC,sans-serif" font-size="18" font-weight="400" fill="#20231f">W</text>
    <text x="591" y="400" font-family="-apple-system,BlinkMacSystemFont,PingFang SC,Noto Sans CJK SC,sans-serif" font-size="18" font-weight="400" fill="#20231f">W</text>
    <text x="615" y="400" font-family="-apple-system,BlinkMacSystemFont,PingFang SC,Noto Sans CJK SC,sans-serif" font-size="18" font-weight="700" fill="#20231f">W</text>
    <text x="639" y="400" font-family="-apple-system,BlinkMacSystemFont,PingFang SC,Noto Sans CJK SC,sans-serif" font-size="18" font-weight="400" fill="#b7b8b3">L</text>
    <text x="663" y="400" font-family="-apple-system,BlinkMacSystemFont,PingFang SC,Noto Sans CJK SC,sans-serif" font-size="18" font-weight="400" fill="#b7b8b3">W</text>
    <text x="687" y="400" font-family="-apple-system,BlinkMacSystemFont,PingFang SC,Noto Sans CJK SC,sans-serif" font-size="18" font-weight="400" fill="#b7b8b3">L</text>
    <text x="711" y="400" font-family="-apple-system,BlinkMacSystemFont,PingFang SC,Noto Sans CJK SC,sans-serif" font-size="18" font-weight="400" fill="#b7b8b3">W</text>
    <rect x="519" y="428" width="238" height="172" fill="none" stroke="#353832" stroke-width="1.2"/>
    <text x="531" y="456" font-family="-apple-system,BlinkMacSystemFont,PingFang SC,Noto Sans CJK SC,sans-serif" font-size="17" fill="#20231f">n = 5</text>
    <line x1="519" y1="600" x2="519" y2="610" stroke="#353832"/>
    <text x="519" y="631" text-anchor="middle" font-family="-apple-system,BlinkMacSystemFont,PingFang SC,Noto Sans CJK SC,sans-serif" font-size="15" fill="#30332e">0</text>
    <line x1="638" y1="600" x2="638" y2="610" stroke="#353832"/>
    <text x="638" y="631" text-anchor="middle" font-family="-apple-system,BlinkMacSystemFont,PingFang SC,Noto Sans CJK SC,sans-serif" font-size="15" fill="#30332e">0.5</text>
    <line x1="757" y1="600" x2="757" y2="610" stroke="#353832"/>
    <text x="757" y="631" text-anchor="middle" font-family="-apple-system,BlinkMacSystemFont,PingFang SC,Noto Sans CJK SC,sans-serif" font-size="15" fill="#30332e">1</text>
    <path d="M519 592 L520.98 592 L522.97 591.99 L524.95 591.98 L526.93 591.96 L528.92 591.92 L530.9 591.86 L532.88 591.78 L534.87 591.67 L536.85 591.53 L538.83 591.36 L540.82 591.16 L542.8 590.92 L544.78 590.64 L546.77 590.32 L548.75 589.95 L550.73 589.54 L552.72 589.08 L554.7 588.56 L556.68 588 L558.67 587.38 L560.65 586.7 L562.63 585.97 L564.62 585.18 L566.6 584.33 L568.58 583.43 L570.57 582.46 L572.55 581.43 L574.53 580.34 L576.52 579.18 L578.5 577.96 L580.48 576.69 L582.47 575.34 L584.45 573.94 L586.43 572.48 L588.42 570.95 L590.4 569.36 L592.38 567.72 L594.37 566.01 L596.35 564.25 L598.33 562.43 L600.32 560.55 L602.3 558.62 L604.28 556.64 L606.27 554.61 L608.25 552.53 L610.23 550.4 L612.22 548.22 L614.2 546.01 L616.18 543.75 L618.17 541.46 L620.15 539.13 L622.13 536.78 L624.12 534.39 L626.1 531.97 L628.08 529.54 L630.07 527.08 L632.05 524.61 L634.03 522.13 L636.02 519.64 L638 517.15 L639.98 514.65 L641.97 512.16 L643.95 509.68 L645.93 507.21 L647.92 504.76 L649.9 502.33 L651.88 499.93 L653.87 497.56 L655.85 495.23 L657.83 492.94 L659.82 490.71 L661.8 488.52 L663.78 486.4 L665.77 484.34 L667.75 482.35 L669.73 480.44 L671.72 478.62 L673.7 476.88 L675.68 475.24 L677.67 473.71 L679.65 472.29 L681.63 470.99 L683.62 469.81 L685.6 468.76 L687.58 467.85 L689.57 467.09 L691.55 466.49 L693.53 466.05 L695.52 465.78 L697.5 465.68 L699.48 465.78 L701.47 466.07 L703.45 466.56 L705.43 467.27 L707.42 468.2 L709.4 469.36 L711.38 470.76 L713.37 472.4 L715.35 474.31 L717.33 476.48 L719.32 478.93 L721.3 481.67 L723.28 484.71 L725.27 488.05 L727.25 491.71 L729.23 495.69 L731.22 500.02 L733.2 504.69 L735.18 509.72 L737.17 515.12 L739.15 520.91 L741.13 527.08 L743.12 533.66 L745.1 540.66 L747.08 548.08 L749.07 555.94 L751.05 564.25 L753.03 573.02 L755.02 582.27 L757 592" fill="none" stroke="#666962" stroke-width="1.6" stroke-dasharray="7 6"/>
    <path d="M519 592 L520.98 592 L522.97 592 L524.95 592 L526.93 592 L528.92 591.99 L530.9 591.99 L532.88 591.98 L534.87 591.97 L536.85 591.95 L538.83 591.92 L540.82 591.88 L542.8 591.84 L544.78 591.78 L546.77 591.71 L548.75 591.62 L550.73 591.51 L552.72 591.38 L554.7 591.23 L556.68 591.05 L558.67 590.84 L560.65 590.61 L562.63 590.34 L564.62 590.04 L566.6 589.7 L568.58 589.32 L570.57 588.9 L572.55 588.43 L574.53 587.92 L576.52 587.35 L578.5 586.74 L580.48 586.07 L582.47 585.34 L584.45 584.55 L586.43 583.7 L588.42 582.79 L590.4 581.81 L592.38 580.77 L594.37 579.66 L596.35 578.47 L598.33 577.21 L600.32 575.88 L602.3 574.48 L604.28 572.99 L606.27 571.43 L608.25 569.8 L610.23 568.08 L612.22 566.28 L614.2 564.41 L616.18 562.45 L618.17 560.41 L620.15 558.3 L622.13 556.1 L624.12 553.83 L626.1 551.48 L628.08 549.06 L630.07 546.56 L632.05 543.99 L634.03 541.34 L636.02 538.63 L638 535.86 L639.98 533.02 L641.97 530.12 L643.95 527.17 L645.93 524.17 L647.92 521.12 L649.9 518.02 L651.88 514.89 L653.87 511.73 L655.85 508.54 L657.83 505.33 L659.82 502.1 L661.8 498.87 L663.78 495.64 L665.77 492.41 L667.75 489.2 L669.73 486.02 L671.72 482.87 L673.7 479.76 L675.68 476.7 L677.67 473.71 L679.65 470.79 L681.63 467.96 L683.62 465.22 L685.6 462.6 L687.58 460.09 L689.57 457.72 L691.55 455.51 L693.53 453.45 L695.52 451.58 L697.5 449.89 L699.48 448.42 L701.47 447.18 L703.45 446.18 L705.43 445.44 L707.42 444.99 L709.4 444.83 L711.38 444.99 L713.37 445.5 L715.35 446.36 L717.33 447.6 L719.32 449.25 L721.3 451.33 L723.28 453.86 L725.27 456.86 L727.25 460.37 L729.23 464.39 L731.22 468.97 L733.2 474.13 L735.18 479.9 L737.17 486.3 L739.15 493.36 L741.13 501.12 L743.12 509.6 L745.1 518.84 L747.08 528.86 L749.07 539.71 L751.05 551.41 L753.03 564 L755.02 577.52 L757 592" fill="none" stroke="#172860" stroke-width="2.6"/>
  </g>
  <g id="step-6">
    <text x="875" y="400" font-family="-apple-system,BlinkMacSystemFont,PingFang SC,Noto Sans CJK SC,sans-serif" font-size="18" font-weight="400" fill="#20231f">W</text>
    <text x="899" y="400" font-family="-apple-system,BlinkMacSystemFont,PingFang SC,Noto Sans CJK SC,sans-serif" font-size="18" font-weight="400" fill="#20231f">L</text>
    <text x="923" y="400" font-family="-apple-system,BlinkMacSystemFont,PingFang SC,Noto Sans CJK SC,sans-serif" font-size="18" font-weight="400" fill="#20231f">W</text>
    <text x="947" y="400" font-family="-apple-system,BlinkMacSystemFont,PingFang SC,Noto Sans CJK SC,sans-serif" font-size="18" font-weight="400" fill="#20231f">W</text>
    <text x="971" y="400" font-family="-apple-system,BlinkMacSystemFont,PingFang SC,Noto Sans CJK SC,sans-serif" font-size="18" font-weight="400" fill="#20231f">W</text>
    <text x="995" y="400" font-family="-apple-system,BlinkMacSystemFont,PingFang SC,Noto Sans CJK SC,sans-serif" font-size="18" font-weight="700" fill="#20231f">L</text>
    <text x="1019" y="400" font-family="-apple-system,BlinkMacSystemFont,PingFang SC,Noto Sans CJK SC,sans-serif" font-size="18" font-weight="400" fill="#b7b8b3">W</text>
    <text x="1043" y="400" font-family="-apple-system,BlinkMacSystemFont,PingFang SC,Noto Sans CJK SC,sans-serif" font-size="18" font-weight="400" fill="#b7b8b3">L</text>
    <text x="1067" y="400" font-family="-apple-system,BlinkMacSystemFont,PingFang SC,Noto Sans CJK SC,sans-serif" font-size="18" font-weight="400" fill="#b7b8b3">W</text>
    <rect x="875" y="428" width="238" height="172" fill="none" stroke="#353832" stroke-width="1.2"/>
    <text x="887" y="456" font-family="-apple-system,BlinkMacSystemFont,PingFang SC,Noto Sans CJK SC,sans-serif" font-size="17" fill="#20231f">n = 6</text>
    <line x1="875" y1="600" x2="875" y2="610" stroke="#353832"/>
    <text x="875" y="631" text-anchor="middle" font-family="-apple-system,BlinkMacSystemFont,PingFang SC,Noto Sans CJK SC,sans-serif" font-size="15" fill="#30332e">0</text>
    <line x1="994" y1="600" x2="994" y2="610" stroke="#353832"/>
    <text x="994" y="631" text-anchor="middle" font-family="-apple-system,BlinkMacSystemFont,PingFang SC,Noto Sans CJK SC,sans-serif" font-size="15" fill="#30332e">0.5</text>
    <line x1="1113" y1="600" x2="1113" y2="610" stroke="#353832"/>
    <text x="1113" y="631" text-anchor="middle" font-family="-apple-system,BlinkMacSystemFont,PingFang SC,Noto Sans CJK SC,sans-serif" font-size="15" fill="#30332e">1</text>
    <path d="M875 592 L876.98 592 L878.97 592 L880.95 592 L882.93 592 L884.92 591.99 L886.9 591.99 L888.88 591.98 L890.87 591.97 L892.85 591.95 L894.83 591.92 L896.82 591.88 L898.8 591.84 L900.78 591.78 L902.77 591.71 L904.75 591.62 L906.73 591.51 L908.72 591.38 L910.7 591.23 L912.68 591.05 L914.67 590.84 L916.65 590.61 L918.63 590.34 L920.62 590.04 L922.6 589.7 L924.58 589.32 L926.57 588.9 L928.55 588.43 L930.53 587.92 L932.52 587.35 L934.5 586.74 L936.48 586.07 L938.47 585.34 L940.45 584.55 L942.43 583.7 L944.42 582.79 L946.4 581.81 L948.38 580.77 L950.37 579.66 L952.35 578.47 L954.33 577.21 L956.32 575.88 L958.3 574.48 L960.28 572.99 L962.27 571.43 L964.25 569.8 L966.23 568.08 L968.22 566.28 L970.2 564.41 L972.18 562.45 L974.17 560.41 L976.15 558.3 L978.13 556.1 L980.12 553.83 L982.1 551.48 L984.08 549.06 L986.07 546.56 L988.05 543.99 L990.03 541.34 L992.02 538.63 L994 535.86 L995.98 533.02 L997.97 530.12 L999.95 527.17 L1001.93 524.17 L1003.92 521.12 L1005.9 518.02 L1007.88 514.89 L1009.87 511.73 L1011.85 508.54 L1013.83 505.33 L1015.82 502.1 L1017.8 498.87 L1019.78 495.64 L1021.77 492.41 L1023.75 489.2 L1025.73 486.02 L1027.72 482.87 L1029.7 479.76 L1031.68 476.7 L1033.67 473.71 L1035.65 470.79 L1037.63 467.96 L1039.62 465.22 L1041.6 462.6 L1043.58 460.09 L1045.57 457.72 L1047.55 455.51 L1049.53 453.45 L1051.52 451.58 L1053.5 449.89 L1055.48 448.42 L1057.47 447.18 L1059.45 446.18 L1061.43 445.44 L1063.42 444.99 L1065.4 444.83 L1067.38 444.99 L1069.37 445.5 L1071.35 446.36 L1073.33 447.6 L1075.32 449.25 L1077.3 451.33 L1079.28 453.86 L1081.27 456.86 L1083.25 460.37 L1085.23 464.39 L1087.22 468.97 L1089.2 474.13 L1091.18 479.9 L1093.17 486.3 L1095.15 493.36 L1097.13 501.12 L1099.12 509.6 L1101.1 518.84 L1103.08 528.86 L1105.07 539.71 L1107.05 551.41 L1109.03 564 L1111.02 577.52 L1113 592" fill="none" stroke="#666962" stroke-width="1.6" stroke-dasharray="7 6"/>
    <path d="M875 592 L876.98 592 L878.97 592 L880.95 592 L882.93 591.99 L884.92 591.98 L886.9 591.96 L888.88 591.94 L890.87 591.89 L892.85 591.83 L894.83 591.75 L896.82 591.63 L898.8 591.49 L900.78 591.31 L902.77 591.09 L904.75 590.82 L906.73 590.51 L908.72 590.13 L910.7 589.7 L912.68 589.2 L914.67 588.63 L916.65 587.99 L918.63 587.26 L920.62 586.46 L922.6 585.56 L924.58 584.58 L926.57 583.5 L928.55 582.32 L930.53 581.04 L932.52 579.67 L934.5 578.18 L936.48 576.6 L938.47 574.9 L940.45 573.1 L942.43 571.19 L944.42 569.17 L946.4 567.04 L948.38 564.81 L950.37 562.48 L952.35 560.04 L954.33 557.5 L956.32 554.86 L958.3 552.13 L960.28 549.32 L962.27 546.41 L964.25 543.43 L966.23 540.37 L968.22 537.24 L970.2 534.05 L972.18 530.81 L974.17 527.51 L976.15 524.18 L978.13 520.81 L980.12 517.41 L982.1 514 L984.08 510.59 L986.07 507.18 L988.05 503.78 L990.03 500.4 L992.02 497.05 L994 493.75 L995.98 490.51 L997.97 487.33 L999.95 484.22 L1001.93 481.21 L1003.92 478.29 L1005.9 475.49 L1007.88 472.8 L1009.87 470.25 L1011.85 467.85 L1013.83 465.6 L1015.82 463.52 L1017.8 461.62 L1019.78 459.9 L1021.77 458.39 L1023.75 457.08 L1025.73 455.99 L1027.72 455.13 L1029.7 454.51 L1031.68 454.13 L1033.67 454 L1035.65 454.13 L1037.63 454.52 L1039.62 455.19 L1041.6 456.13 L1043.58 457.35 L1045.57 458.84 L1047.55 460.62 L1049.53 462.69 L1051.52 465.03 L1053.5 467.66 L1055.48 470.56 L1057.47 473.73 L1059.45 477.17 L1061.43 480.86 L1063.42 484.8 L1065.4 488.98 L1067.38 493.38 L1069.37 497.99 L1071.35 502.8 L1073.33 507.77 L1075.32 512.9 L1077.3 518.15 L1079.28 523.51 L1081.27 528.94 L1083.25 534.41 L1085.23 539.89 L1087.22 545.35 L1089.2 550.75 L1091.18 556.03 L1093.17 561.17 L1095.15 566.11 L1097.13 570.79 L1099.12 575.18 L1101.1 579.2 L1103.08 582.79 L1105.07 585.9 L1107.05 588.45 L1109.03 590.37 L1111.02 591.58 L1113 592" fill="none" stroke="#172860" stroke-width="2.6"/>
  </g>
  <g id="step-7">
    <text x="163" y="721" font-family="-apple-system,BlinkMacSystemFont,PingFang SC,Noto Sans CJK SC,sans-serif" font-size="18" font-weight="400" fill="#20231f">W</text>
    <text x="187" y="721" font-family="-apple-system,BlinkMacSystemFont,PingFang SC,Noto Sans CJK SC,sans-serif" font-size="18" font-weight="400" fill="#20231f">L</text>
    <text x="211" y="721" font-family="-apple-system,BlinkMacSystemFont,PingFang SC,Noto Sans CJK SC,sans-serif" font-size="18" font-weight="400" fill="#20231f">W</text>
    <text x="235" y="721" font-family="-apple-system,BlinkMacSystemFont,PingFang SC,Noto Sans CJK SC,sans-serif" font-size="18" font-weight="400" fill="#20231f">W</text>
    <text x="259" y="721" font-family="-apple-system,BlinkMacSystemFont,PingFang SC,Noto Sans CJK SC,sans-serif" font-size="18" font-weight="400" fill="#20231f">W</text>
    <text x="283" y="721" font-family="-apple-system,BlinkMacSystemFont,PingFang SC,Noto Sans CJK SC,sans-serif" font-size="18" font-weight="400" fill="#20231f">L</text>
    <text x="307" y="721" font-family="-apple-system,BlinkMacSystemFont,PingFang SC,Noto Sans CJK SC,sans-serif" font-size="18" font-weight="700" fill="#20231f">W</text>
    <text x="331" y="721" font-family="-apple-system,BlinkMacSystemFont,PingFang SC,Noto Sans CJK SC,sans-serif" font-size="18" font-weight="400" fill="#b7b8b3">L</text>
    <text x="355" y="721" font-family="-apple-system,BlinkMacSystemFont,PingFang SC,Noto Sans CJK SC,sans-serif" font-size="18" font-weight="400" fill="#b7b8b3">W</text>
    <rect x="163" y="749" width="238" height="172" fill="none" stroke="#353832" stroke-width="1.2"/>
    <text x="175" y="777" font-family="-apple-system,BlinkMacSystemFont,PingFang SC,Noto Sans CJK SC,sans-serif" font-size="17" fill="#20231f">n = 7</text>
    <line x1="163" y1="921" x2="163" y2="931" stroke="#353832"/>
    <text x="163" y="952" text-anchor="middle" font-family="-apple-system,BlinkMacSystemFont,PingFang SC,Noto Sans CJK SC,sans-serif" font-size="15" fill="#30332e">0</text>
    <line x1="282" y1="921" x2="282" y2="931" stroke="#353832"/>
    <text x="282" y="952" text-anchor="middle" font-family="-apple-system,BlinkMacSystemFont,PingFang SC,Noto Sans CJK SC,sans-serif" font-size="15" fill="#30332e">0.5</text>
    <line x1="401" y1="921" x2="401" y2="931" stroke="#353832"/>
    <text x="401" y="952" text-anchor="middle" font-family="-apple-system,BlinkMacSystemFont,PingFang SC,Noto Sans CJK SC,sans-serif" font-size="15" fill="#30332e">1</text>
    <path d="M163 913 L164.98 913 L166.97 913 L168.95 913 L170.93 912.99 L172.92 912.98 L174.9 912.97 L176.88 912.94 L178.87 912.9 L180.85 912.84 L182.83 912.75 L184.82 912.65 L186.8 912.51 L188.78 912.34 L190.77 912.12 L192.75 911.87 L194.73 911.56 L196.72 911.2 L198.7 910.78 L200.68 910.3 L202.67 909.75 L204.65 909.13 L206.63 908.43 L208.62 907.66 L210.6 906.79 L212.58 905.84 L214.57 904.8 L216.55 903.67 L218.53 902.44 L220.52 901.11 L222.5 899.68 L224.48 898.15 L226.47 896.52 L228.45 894.78 L230.43 892.94 L232.42 890.99 L234.4 888.95 L236.38 886.79 L238.37 884.54 L240.35 882.19 L242.33 879.75 L244.32 877.21 L246.3 874.57 L248.28 871.86 L250.27 869.06 L252.25 866.18 L254.23 863.23 L256.22 860.22 L258.2 857.15 L260.18 854.02 L262.17 850.84 L264.15 847.63 L266.13 844.38 L268.12 841.11 L270.1 837.82 L272.08 834.53 L274.07 831.24 L276.05 827.96 L278.03 824.71 L280.02 821.48 L282 818.3 L283.98 815.17 L285.97 812.11 L287.95 809.12 L289.93 806.21 L291.92 803.4 L293.9 800.7 L295.88 798.11 L297.87 795.65 L299.85 793.34 L301.83 791.17 L303.82 789.16 L305.8 787.33 L307.78 785.67 L309.77 784.21 L311.75 782.95 L313.73 781.9 L315.72 781.07 L317.7 780.47 L319.68 780.11 L321.67 779.98 L323.65 780.11 L325.63 780.49 L327.62 781.13 L329.6 782.04 L331.58 783.21 L333.57 784.65 L335.55 786.37 L337.53 788.36 L339.52 790.62 L341.5 793.15 L343.48 795.94 L345.47 799 L347.45 802.31 L349.43 805.88 L351.42 809.68 L353.4 813.7 L355.38 817.95 L357.37 822.39 L359.35 827.02 L361.33 831.81 L363.32 836.75 L365.3 841.82 L367.28 846.98 L369.27 852.21 L371.25 857.49 L373.23 862.78 L375.22 868.04 L377.2 873.24 L379.18 878.33 L381.17 883.28 L383.15 888.04 L385.13 892.56 L387.12 896.78 L389.1 900.66 L391.08 904.13 L393.07 907.12 L395.05 909.58 L397.03 911.43 L399.02 912.59 L401 913" fill="none" stroke="#666962" stroke-width="1.6" stroke-dasharray="7 6"/>
    <path d="M163 913 L164.98 913 L166.97 913 L168.95 913 L170.93 913 L172.92 913 L174.9 913 L176.88 912.99 L178.87 912.99 L180.85 912.98 L182.83 912.97 L184.82 912.95 L186.8 912.92 L188.78 912.88 L190.77 912.84 L192.75 912.77 L194.73 912.69 L196.72 912.59 L198.7 912.47 L200.68 912.32 L202.67 912.13 L204.65 911.92 L206.63 911.66 L208.62 911.36 L210.6 911.01 L212.58 910.61 L214.57 910.16 L216.55 909.64 L218.53 909.06 L220.52 908.4 L222.5 907.67 L224.48 906.86 L226.47 905.97 L228.45 904.98 L230.43 903.91 L232.42 902.73 L234.4 901.45 L236.38 900.07 L238.37 898.58 L240.35 896.98 L242.33 895.26 L244.32 893.43 L246.3 891.48 L248.28 889.41 L250.27 887.22 L252.25 884.91 L254.23 882.48 L256.22 879.92 L258.2 877.25 L260.18 874.46 L262.17 871.56 L264.15 868.55 L266.13 865.42 L268.12 862.2 L270.1 858.87 L272.08 855.45 L274.07 851.95 L276.05 848.37 L278.03 844.72 L280.02 841.01 L282 837.24 L283.98 833.44 L285.97 829.6 L287.95 825.74 L289.93 821.87 L291.92 818.01 L293.9 814.17 L295.88 810.37 L297.87 806.61 L299.85 802.91 L301.83 799.29 L303.82 795.77 L305.8 792.35 L307.78 789.07 L309.77 785.93 L311.75 782.95 L313.73 780.16 L315.72 777.56 L317.7 775.17 L319.68 773.02 L321.67 771.11 L323.65 769.48 L325.63 768.12 L327.62 767.06 L329.6 766.32 L331.58 765.9 L333.57 765.83 L335.55 766.11 L337.53 766.75 L339.52 767.77 L341.5 769.18 L343.48 770.97 L345.47 773.16 L347.45 775.75 L349.43 778.74 L351.42 782.12 L353.4 785.9 L355.38 790.06 L357.37 794.6 L359.35 799.5 L361.33 804.75 L363.32 810.32 L365.3 816.19 L367.28 822.33 L369.27 828.71 L371.25 835.29 L373.23 842.02 L375.22 848.85 L377.2 855.74 L379.18 862.62 L381.17 869.42 L383.15 876.06 L385.13 882.48 L387.12 888.57 L389.1 894.24 L391.08 899.39 L393.07 903.91 L395.05 907.66 L397.03 910.52 L399.02 912.35 L401 913" fill="none" stroke="#172860" stroke-width="2.6"/>
    <text x="123" y="835" transform="rotate(-90 123 835)" text-anchor="middle" font-family="-apple-system,BlinkMacSystemFont,PingFang SC,Noto Sans CJK SC,sans-serif" font-size="17" fill="#30332e">可信程度</text>
    <text x="282" y="981" text-anchor="middle" font-family="-apple-system,BlinkMacSystemFont,PingFang SC,Noto Sans CJK SC,sans-serif" font-size="17" fill="#30332e">水域比例</text>
  </g>
  <g id="step-8">
    <text x="519" y="721" font-family="-apple-system,BlinkMacSystemFont,PingFang SC,Noto Sans CJK SC,sans-serif" font-size="18" font-weight="400" fill="#20231f">W</text>
    <text x="543" y="721" font-family="-apple-system,BlinkMacSystemFont,PingFang SC,Noto Sans CJK SC,sans-serif" font-size="18" font-weight="400" fill="#20231f">L</text>
    <text x="567" y="721" font-family="-apple-system,BlinkMacSystemFont,PingFang SC,Noto Sans CJK SC,sans-serif" font-size="18" font-weight="400" fill="#20231f">W</text>
    <text x="591" y="721" font-family="-apple-system,BlinkMacSystemFont,PingFang SC,Noto Sans CJK SC,sans-serif" font-size="18" font-weight="400" fill="#20231f">W</text>
    <text x="615" y="721" font-family="-apple-system,BlinkMacSystemFont,PingFang SC,Noto Sans CJK SC,sans-serif" font-size="18" font-weight="400" fill="#20231f">W</text>
    <text x="639" y="721" font-family="-apple-system,BlinkMacSystemFont,PingFang SC,Noto Sans CJK SC,sans-serif" font-size="18" font-weight="400" fill="#20231f">L</text>
    <text x="663" y="721" font-family="-apple-system,BlinkMacSystemFont,PingFang SC,Noto Sans CJK SC,sans-serif" font-size="18" font-weight="400" fill="#20231f">W</text>
    <text x="687" y="721" font-family="-apple-system,BlinkMacSystemFont,PingFang SC,Noto Sans CJK SC,sans-serif" font-size="18" font-weight="700" fill="#20231f">L</text>
    <text x="711" y="721" font-family="-apple-system,BlinkMacSystemFont,PingFang SC,Noto Sans CJK SC,sans-serif" font-size="18" font-weight="400" fill="#b7b8b3">W</text>
    <rect x="519" y="749" width="238" height="172" fill="none" stroke="#353832" stroke-width="1.2"/>
    <text x="531" y="777" font-family="-apple-system,BlinkMacSystemFont,PingFang SC,Noto Sans CJK SC,sans-serif" font-size="17" fill="#20231f">n = 8</text>
    <line x1="519" y1="921" x2="519" y2="931" stroke="#353832"/>
    <text x="519" y="952" text-anchor="middle" font-family="-apple-system,BlinkMacSystemFont,PingFang SC,Noto Sans CJK SC,sans-serif" font-size="15" fill="#30332e">0</text>
    <line x1="638" y1="921" x2="638" y2="931" stroke="#353832"/>
    <text x="638" y="952" text-anchor="middle" font-family="-apple-system,BlinkMacSystemFont,PingFang SC,Noto Sans CJK SC,sans-serif" font-size="15" fill="#30332e">0.5</text>
    <line x1="757" y1="921" x2="757" y2="931" stroke="#353832"/>
    <text x="757" y="952" text-anchor="middle" font-family="-apple-system,BlinkMacSystemFont,PingFang SC,Noto Sans CJK SC,sans-serif" font-size="15" fill="#30332e">1</text>
    <path d="M519 913 L520.98 913 L522.97 913 L524.95 913 L526.93 913 L528.92 913 L530.9 913 L532.88 912.99 L534.87 912.99 L536.85 912.98 L538.83 912.97 L540.82 912.95 L542.8 912.92 L544.78 912.88 L546.77 912.84 L548.75 912.77 L550.73 912.69 L552.72 912.59 L554.7 912.47 L556.68 912.32 L558.67 912.13 L560.65 911.92 L562.63 911.66 L564.62 911.36 L566.6 911.01 L568.58 910.61 L570.57 910.16 L572.55 909.64 L574.53 909.06 L576.52 908.4 L578.5 907.67 L580.48 906.86 L582.47 905.97 L584.45 904.98 L586.43 903.91 L588.42 902.73 L590.4 901.45 L592.38 900.07 L594.37 898.58 L596.35 896.98 L598.33 895.26 L600.32 893.43 L602.3 891.48 L604.28 889.41 L606.27 887.22 L608.25 884.91 L610.23 882.48 L612.22 879.92 L614.2 877.25 L616.18 874.46 L618.17 871.56 L620.15 868.55 L622.13 865.42 L624.12 862.2 L626.1 858.87 L628.08 855.45 L630.07 851.95 L632.05 848.37 L634.03 844.72 L636.02 841.01 L638 837.24 L639.98 833.44 L641.97 829.6 L643.95 825.74 L645.93 821.87 L647.92 818.01 L649.9 814.17 L651.88 810.37 L653.87 806.61 L655.85 802.91 L657.83 799.29 L659.82 795.77 L661.8 792.35 L663.78 789.07 L665.77 785.93 L667.75 782.95 L669.73 780.16 L671.72 777.56 L673.7 775.17 L675.68 773.02 L677.67 771.11 L679.65 769.48 L681.63 768.12 L683.62 767.06 L685.6 766.32 L687.58 765.9 L689.57 765.83 L691.55 766.11 L693.53 766.75 L695.52 767.77 L697.5 769.18 L699.48 770.97 L701.47 773.16 L703.45 775.75 L705.43 778.74 L707.42 782.12 L709.4 785.9 L711.38 790.06 L713.37 794.6 L715.35 799.5 L717.33 804.75 L719.32 810.32 L721.3 816.19 L723.28 822.33 L725.27 828.71 L727.25 835.29 L729.23 842.02 L731.22 848.85 L733.2 855.74 L735.18 862.62 L737.17 869.42 L739.15 876.06 L741.13 882.48 L743.12 888.57 L745.1 894.24 L747.08 899.39 L749.07 903.91 L751.05 907.66 L753.03 910.52 L755.02 912.35 L757 913" fill="none" stroke="#666962" stroke-width="1.6" stroke-dasharray="7 6"/>
    <path d="M519 913 L520.98 913 L522.97 913 L524.95 913 L526.93 913 L528.92 913 L530.9 912.99 L532.88 912.98 L534.87 912.97 L536.85 912.95 L538.83 912.91 L540.82 912.86 L542.8 912.79 L544.78 912.69 L546.77 912.57 L548.75 912.41 L550.73 912.2 L552.72 911.95 L554.7 911.64 L556.68 911.27 L558.67 910.83 L560.65 910.32 L562.63 909.72 L564.62 909.03 L566.6 908.23 L568.58 907.34 L570.57 906.32 L572.55 905.19 L574.53 903.93 L576.52 902.54 L578.5 901.01 L580.48 899.35 L582.47 897.53 L584.45 895.56 L586.43 893.45 L588.42 891.18 L590.4 888.75 L592.38 886.17 L594.37 883.44 L596.35 880.56 L598.33 877.53 L600.32 874.35 L602.3 871.04 L604.28 867.59 L606.27 864.02 L608.25 860.33 L610.23 856.53 L612.22 852.64 L614.2 848.66 L616.18 844.6 L618.17 840.48 L620.15 836.32 L622.13 832.12 L624.12 827.9 L626.1 823.69 L628.08 819.49 L630.07 815.32 L632.05 811.21 L634.03 807.17 L636.02 803.21 L638 799.36 L639.98 795.64 L641.97 792.07 L643.95 788.65 L645.93 785.42 L647.92 782.39 L649.9 779.58 L651.88 777.01 L653.87 774.69 L655.85 772.63 L657.83 770.86 L659.82 769.39 L661.8 768.22 L663.78 767.38 L665.77 766.87 L667.75 766.7 L669.73 766.87 L671.72 767.4 L673.7 768.28 L675.68 769.52 L677.67 771.11 L679.65 773.06 L681.63 775.37 L683.62 778.01 L685.6 780.99 L687.58 784.29 L689.57 787.91 L691.55 791.82 L693.53 796 L695.52 800.45 L697.5 805.13 L699.48 810.03 L701.47 815.11 L703.45 820.36 L705.43 825.73 L707.42 831.2 L709.4 836.74 L711.38 842.31 L713.37 847.88 L715.35 853.41 L717.33 858.87 L719.32 864.23 L721.3 869.44 L723.28 874.47 L725.27 879.28 L727.25 883.86 L729.23 888.16 L731.22 892.15 L733.2 895.82 L735.18 899.14 L737.17 902.1 L739.15 904.69 L741.13 906.9 L743.12 908.72 L745.1 910.19 L747.08 911.3 L749.07 912.09 L751.05 912.6 L753.03 912.88 L755.02 912.98 L757 913" fill="none" stroke="#172860" stroke-width="2.6"/>
    <text x="638" y="981" text-anchor="middle" font-family="-apple-system,BlinkMacSystemFont,PingFang SC,Noto Sans CJK SC,sans-serif" font-size="17" fill="#30332e">水域比例</text>
  </g>
  <g id="step-9">
    <text x="875" y="721" font-family="-apple-system,BlinkMacSystemFont,PingFang SC,Noto Sans CJK SC,sans-serif" font-size="18" font-weight="400" fill="#20231f">W</text>
    <text x="899" y="721" font-family="-apple-system,BlinkMacSystemFont,PingFang SC,Noto Sans CJK SC,sans-serif" font-size="18" font-weight="400" fill="#20231f">L</text>
    <text x="923" y="721" font-family="-apple-system,BlinkMacSystemFont,PingFang SC,Noto Sans CJK SC,sans-serif" font-size="18" font-weight="400" fill="#20231f">W</text>
    <text x="947" y="721" font-family="-apple-system,BlinkMacSystemFont,PingFang SC,Noto Sans CJK SC,sans-serif" font-size="18" font-weight="400" fill="#20231f">W</text>
    <text x="971" y="721" font-family="-apple-system,BlinkMacSystemFont,PingFang SC,Noto Sans CJK SC,sans-serif" font-size="18" font-weight="400" fill="#20231f">W</text>
    <text x="995" y="721" font-family="-apple-system,BlinkMacSystemFont,PingFang SC,Noto Sans CJK SC,sans-serif" font-size="18" font-weight="400" fill="#20231f">L</text>
    <text x="1019" y="721" font-family="-apple-system,BlinkMacSystemFont,PingFang SC,Noto Sans CJK SC,sans-serif" font-size="18" font-weight="400" fill="#20231f">W</text>
    <text x="1043" y="721" font-family="-apple-system,BlinkMacSystemFont,PingFang SC,Noto Sans CJK SC,sans-serif" font-size="18" font-weight="400" fill="#20231f">L</text>
    <text x="1067" y="721" font-family="-apple-system,BlinkMacSystemFont,PingFang SC,Noto Sans CJK SC,sans-serif" font-size="18" font-weight="700" fill="#20231f">W</text>
    <rect x="875" y="749" width="238" height="172" fill="none" stroke="#353832" stroke-width="1.2"/>
    <text x="887" y="777" font-family="-apple-system,BlinkMacSystemFont,PingFang SC,Noto Sans CJK SC,sans-serif" font-size="17" fill="#20231f">n = 9</text>
    <line x1="875" y1="921" x2="875" y2="931" stroke="#353832"/>
    <text x="875" y="952" text-anchor="middle" font-family="-apple-system,BlinkMacSystemFont,PingFang SC,Noto Sans CJK SC,sans-serif" font-size="15" fill="#30332e">0</text>
    <line x1="994" y1="921" x2="994" y2="931" stroke="#353832"/>
    <text x="994" y="952" text-anchor="middle" font-family="-apple-system,BlinkMacSystemFont,PingFang SC,Noto Sans CJK SC,sans-serif" font-size="15" fill="#30332e">0.5</text>
    <line x1="1113" y1="921" x2="1113" y2="931" stroke="#353832"/>
    <text x="1113" y="952" text-anchor="middle" font-family="-apple-system,BlinkMacSystemFont,PingFang SC,Noto Sans CJK SC,sans-serif" font-size="15" fill="#30332e">1</text>
    <path d="M875 913 L876.98 913 L878.97 913 L880.95 913 L882.93 913 L884.92 913 L886.9 912.99 L888.88 912.98 L890.87 912.97 L892.85 912.95 L894.83 912.92 L896.82 912.87 L898.8 912.8 L900.78 912.71 L902.77 912.6 L904.75 912.44 L906.73 912.26 L908.72 912.02 L910.7 911.73 L912.68 911.39 L914.67 910.98 L916.65 910.5 L918.63 909.94 L920.62 909.29 L922.6 908.55 L924.58 907.71 L926.57 906.77 L928.55 905.71 L930.53 904.54 L932.52 903.24 L934.5 901.81 L936.48 900.25 L938.47 898.56 L940.45 896.72 L942.43 894.75 L944.42 892.63 L946.4 890.36 L948.38 887.96 L950.37 885.41 L952.35 882.72 L954.33 879.89 L956.32 876.92 L958.3 873.83 L960.28 870.61 L962.27 867.28 L964.25 863.83 L966.23 860.29 L968.22 856.65 L970.2 852.93 L972.18 849.15 L974.17 845.3 L976.15 841.41 L978.13 837.5 L980.12 833.56 L982.1 829.63 L984.08 825.71 L986.07 821.82 L988.05 817.98 L990.03 814.2 L992.02 810.51 L994 806.92 L995.98 803.44 L997.97 800.11 L999.95 796.92 L1001.93 793.9 L1003.92 791.08 L1005.9 788.45 L1007.88 786.05 L1009.87 783.88 L1011.85 781.96 L1013.83 780.31 L1015.82 778.94 L1017.8 777.85 L1019.78 777.06 L1021.77 776.58 L1023.75 776.42 L1025.73 776.59 L1027.72 777.08 L1029.7 777.9 L1031.68 779.06 L1033.67 780.55 L1035.65 782.37 L1037.63 784.52 L1039.62 786.98 L1041.6 789.76 L1043.58 792.85 L1045.57 796.22 L1047.55 799.87 L1049.53 803.78 L1051.52 807.93 L1053.5 812.31 L1055.48 816.88 L1057.47 821.62 L1059.45 826.52 L1061.43 831.53 L1063.42 836.64 L1065.4 841.81 L1067.38 847.01 L1069.37 852.21 L1071.35 857.38 L1073.33 862.47 L1075.32 867.47 L1077.3 872.33 L1079.28 877.03 L1081.27 881.53 L1083.25 885.79 L1085.23 889.81 L1087.22 893.54 L1089.2 896.96 L1091.18 900.07 L1093.17 902.83 L1095.15 905.24 L1097.13 907.3 L1099.12 909.01 L1101.1 910.37 L1103.08 911.41 L1105.07 912.15 L1107.05 912.63 L1109.03 912.88 L1111.02 912.98 L1113 913" fill="none" stroke="#666962" stroke-width="1.6" stroke-dasharray="7 6"/>
    <path d="M875 913 L876.98 913 L878.97 913 L880.95 913 L882.93 913 L884.92 913 L886.9 913 L888.88 913 L890.87 913 L892.85 912.99 L894.83 912.99 L896.82 912.98 L898.8 912.97 L900.78 912.95 L902.77 912.92 L904.75 912.88 L906.73 912.83 L908.72 912.77 L910.7 912.68 L912.68 912.57 L914.67 912.44 L916.65 912.27 L918.63 912.06 L920.62 911.81 L922.6 911.52 L924.58 911.16 L926.57 910.75 L928.55 910.27 L930.53 909.71 L932.52 909.07 L934.5 908.34 L936.48 907.51 L938.47 906.58 L940.45 905.54 L942.43 904.38 L944.42 903.1 L946.4 901.68 L948.38 900.13 L950.37 898.44 L952.35 896.6 L954.33 894.6 L956.32 892.46 L958.3 890.15 L960.28 887.68 L962.27 885.06 L964.25 882.27 L966.23 879.32 L968.22 876.22 L970.2 872.96 L972.18 869.54 L974.17 865.99 L976.15 862.29 L978.13 858.47 L980.12 854.52 L982.1 850.47 L984.08 846.32 L986.07 842.08 L988.05 837.77 L990.03 833.41 L992.02 829.02 L994 824.6 L995.98 820.18 L997.97 815.79 L999.95 811.43 L1001.93 807.14 L1003.92 802.93 L1005.9 798.83 L1007.88 794.87 L1009.87 791.06 L1011.85 787.42 L1013.83 784 L1015.82 780.8 L1017.8 777.85 L1019.78 775.17 L1021.77 772.8 L1023.75 770.73 L1025.73 769.01 L1027.72 767.64 L1029.7 766.64 L1031.68 766.04 L1033.67 765.83 L1035.65 766.04 L1037.63 766.67 L1039.62 767.73 L1041.6 769.23 L1043.58 771.15 L1045.57 773.52 L1047.55 776.3 L1049.53 779.51 L1051.52 783.13 L1053.5 787.13 L1055.48 791.51 L1057.47 796.24 L1059.45 801.29 L1061.43 806.64 L1063.42 812.25 L1065.4 818.08 L1067.38 824.1 L1069.37 830.26 L1071.35 836.52 L1073.33 842.82 L1075.32 849.13 L1077.3 855.39 L1079.28 861.54 L1081.27 867.54 L1083.25 873.33 L1085.23 878.86 L1087.22 884.08 L1089.2 888.95 L1091.18 893.42 L1093.17 897.46 L1095.15 901.04 L1097.13 904.14 L1099.12 906.74 L1101.1 908.84 L1103.08 910.46 L1105.07 911.63 L1107.05 912.39 L1109.03 912.81 L1111.02 912.98 L1113 913" fill="none" stroke="#172860" stroke-width="2.6"/>
    <text x="994" y="981" text-anchor="middle" font-family="-apple-system,BlinkMacSystemFont,PingFang SC,Noto Sans CJK SC,sans-serif" font-size="17" fill="#30332e">水域比例</text>
  </g>
  <line x1="390" y1="1010" x2="455" y2="1010" stroke="#666962" stroke-width="1.6" stroke-dasharray="7 6"/>
  <text x="468" y="1016" font-family="-apple-system,BlinkMacSystemFont,PingFang SC,Noto Sans CJK SC,sans-serif" font-size="16" fill="#30332e">更新前</text>
  <line x1="610" y1="1010" x2="675" y2="1010" stroke="#172860" stroke-width="2.6"/>
  <text x="688" y="1016" font-family="-apple-system,BlinkMacSystemFont,PingFang SC,Noto Sans CJK SC,sans-serif" font-size="16" fill="#30332e">更新后</text>
</svg>
