<svg xmlns="http://www.w3.org/2000/svg" width="820" height="500" viewBox="0 0 820 500" role="img" aria-labelledby="title desc"><title id="title">非洲与非非洲预期对数 GDP 差值</title><desc id="desc">低崎岖度时非洲国家预期 GDP 较低，高崎岖度时差值接近或略高于零。</desc><style>.axis,.ann{font:16px -apple-system,BlinkMacSystemFont,"PingFang SC",sans-serif;fill:#30332e}.label{font:19px -apple-system,BlinkMacSystemFont,"PingFang SC",sans-serif}.plot{fill:#fff;stroke:#444}.grid{stroke:#e5e5e1}.zero{stroke:#444;stroke-width:1.5;stroke-dasharray:8 7}.band{fill:#cfd2d1}.fit{fill:none;stroke:#171917;stroke-width:3}</style><rect class="plot" x="95" y="45" width="680" height="380"/><text class="axis" x="192.1" y="457" text-anchor="middle">0.0</text><text class="axis" x="289.3" y="457" text-anchor="middle">0.2</text><text class="axis" x="386.4" y="457" text-anchor="middle">0.4</text><text class="axis" x="483.6" y="457" text-anchor="middle">0.6</text><text class="axis" x="580.7" y="457" text-anchor="middle">0.8</text><text class="axis" x="677.9" y="457" text-anchor="middle">1.0</text><line class="grid" x1="95" y1="392.2" x2="775" y2="392.2"/><text class="axis" x="83" y="397.2" text-anchor="end">-0.3</text><line class="grid" x1="95" y1="326.7" x2="775" y2="326.7"/><text class="axis" x="83" y="331.7" text-anchor="end">-0.2</text><line class="grid" x1="95" y1="261.2" x2="775" y2="261.2"/><text class="axis" x="83" y="266.2" text-anchor="end">-0.1</text><line class="grid" x1="95" y1="195.7" x2="775" y2="195.7"/><text class="axis" x="83" y="200.7" text-anchor="end">0.0</text><line class="grid" x1="95" y1="130.2" x2="775" y2="130.2"/><text class="axis" x="83" y="135.2" text-anchor="end">0.1</text><line class="grid" x1="95" y1="64.7" x2="775" y2="64.7"/><text class="axis" x="83" y="69.7" text-anchor="end">0.2</text><polygon class="band" points="95.0,322.0 101.8,320.8 108.6,319.6 115.4,318.3 122.2,317.1 129.0,315.8 135.8,314.5 142.6,313.2 149.4,311.8 156.2,310.5 163.0,309.1 169.8,307.7 176.6,306.2 183.4,304.7 190.2,303.2 197.0,301.7 203.8,300.1 210.6,298.5 217.4,296.8 224.2,295.1 231.0,293.4 237.8,291.5 244.6,289.7 251.4,287.7 258.2,285.7 265.0,283.6 271.8,281.5 278.6,279.2 285.4,276.9 292.2,274.6 299.0,272.1 305.8,269.5 312.6,266.9 319.4,264.2 326.2,261.4 333.0,258.6 339.8,255.7 346.6,252.7 353.4,249.6 360.2,246.5 367.0,243.3 373.8,240.1 380.6,236.8 387.4,233.5 394.2,230.1 401.0,226.7 407.8,223.3 414.6,219.8 421.4,216.3 428.2,212.8 435.0,209.2 441.8,205.6 448.6,202.0 455.4,198.4 462.2,194.8 469.0,191.1 475.8,187.4 482.6,183.7 489.4,180.0 496.2,176.3 503.0,172.5 509.8,168.8 516.6,165.0 523.4,161.3 530.2,157.5 537.0,153.7 543.8,149.9 550.6,146.1 557.4,142.3 564.2,138.5 571.0,134.7 577.8,130.8 584.6,127.0 591.4,123.2 598.2,119.3 605.0,115.5 611.8,111.6 618.6,107.8 625.4,103.9 632.2,100.1 639.0,96.2 645.8,92.3 652.6,88.4 659.4,84.6 666.2,80.7 673.0,76.8 679.8,72.9 686.6,69.0 693.4,65.2 700.2,61.3 707.0,57.4 713.8,53.5 720.6,49.6 727.4,45.7 734.2,41.8 741.0,37.9 747.8,34.0 754.6,30.1 761.4,26.2 768.2,22.2 775.0,18.3 775.0,234.2 768.2,235.3 761.4,236.3 754.6,237.3 747.8,238.4 741.0,239.4 734.2,240.5 727.4,241.5 720.6,242.6 713.8,243.7 707.0,244.7 700.2,245.8 693.4,246.8 686.6,247.9 679.8,249.0 673.0,250.0 666.2,251.1 659.4,252.2 652.6,253.3 645.8,254.3 639.0,255.4 632.2,256.5 625.4,257.6 618.6,258.7 611.8,259.8 605.0,260.9 598.2,262.0 591.4,263.1 584.6,264.2 577.8,265.3 571.0,266.5 564.2,267.6 557.4,268.7 550.6,269.9 543.8,271.0 537.0,272.2 530.2,273.4 523.4,274.5 516.6,275.7 509.8,276.9 503.0,278.1 496.2,279.3 489.4,280.6 482.6,281.8 475.8,283.1 469.0,284.3 462.2,285.6 455.4,286.9 448.6,288.3 441.8,289.6 435.0,291.0 428.2,292.4 421.4,293.8 414.6,295.2 407.8,296.7 401.0,298.2 394.2,299.8 387.4,301.4 380.6,303.0 373.8,304.7 367.0,306.4 360.2,308.2 353.4,310.0 346.6,311.9 339.8,313.9 333.0,315.9 326.2,318.0 319.4,320.2 312.6,322.4 305.8,324.8 299.0,327.2 292.2,329.7 285.4,332.2 278.6,334.9 271.8,337.6 265.0,340.4 258.2,343.3 251.4,346.2 244.6,349.2 237.8,352.3 231.0,355.4 224.2,358.6 217.4,361.9 210.6,365.1 203.8,368.5 197.0,371.9 190.2,375.3 183.4,378.7 176.6,382.2 169.8,385.7 163.0,389.3 156.2,392.8 149.4,396.4 142.6,400.0 135.8,403.7 129.0,407.3 122.2,411.0 115.4,414.7 108.6,418.4 101.8,422.1 95.0,425.8"/><line class="zero" x1="95" y1="195.7" x2="775" y2="195.7"/><polyline class="fit" points="95.0,373.9 101.8,371.5 108.6,369.0 115.4,366.5 122.2,364.0 129.0,361.5 135.8,359.1 142.6,356.6 149.4,354.1 156.2,351.6 163.0,349.2 169.8,346.7 176.6,344.2 183.4,341.7 190.2,339.3 197.0,336.8 203.8,334.3 210.6,331.8 217.4,329.4 224.2,326.9 231.0,324.4 237.8,321.9 244.6,319.4 251.4,317.0 258.2,314.5 265.0,312.0 271.8,309.5 278.6,307.1 285.4,304.6 292.2,302.1 299.0,299.6 305.8,297.2 312.6,294.7 319.4,292.2 326.2,289.7 333.0,287.2 339.8,284.8 346.6,282.3 353.4,279.8 360.2,277.3 367.0,274.9 373.8,272.4 380.6,269.9 387.4,267.4 394.2,265.0 401.0,262.5 407.8,260.0 414.6,257.5 421.4,255.1 428.2,252.6 435.0,250.1 441.8,247.6 448.6,245.1 455.4,242.7 462.2,240.2 469.0,237.7 475.8,235.2 482.6,232.8 489.4,230.3 496.2,227.8 503.0,225.3 509.8,222.9 516.6,220.4 523.4,217.9 530.2,215.4 537.0,213.0 543.8,210.5 550.6,208.0 557.4,205.5 564.2,203.0 571.0,200.6 577.8,198.1 584.6,195.6 591.4,193.1 598.2,190.7 605.0,188.2 611.8,185.7 618.6,183.2 625.4,180.8 632.2,178.3 639.0,175.8 645.8,173.3 652.6,170.9 659.4,168.4 666.2,165.9 673.0,163.4 679.8,160.9 686.6,158.5 693.4,156.0 700.2,153.5 707.0,151.0 713.8,148.6 720.6,146.1 727.4,143.6 734.2,141.1 741.0,138.7 747.8,136.2 754.6,133.7 761.4,131.2 768.2,128.8 775.0,126.3"/><text class="ann" x="115" y="183.7">非洲 GDP 较高</text><text class="ann" x="115" y="219.7">非洲 GDP 较低</text><text class="label" x="435.0" y="492" text-anchor="middle">崎岖度</text><text class="label" transform="translate(24,235.0) rotate(-90)" text-anchor="middle">预期对数 GDP 差值</text></svg>