<?xml version="1.0" encoding="UTF-8"?>
<svg xmlns="http://www.w3.org/2000/svg" width="900" height="600" viewBox="0 0 900 600" role="img">
  <title>m5.1 先验隐含的可信回归线</title>
  <desc>五十条从截距和斜率先验模拟出的标准化结婚年龄与标准化离婚率回归线。</desc>
  <rect width="100%" height="100%" fill="#fff"/>
  <rect x="125" y="55" width="690" height="430" fill="#fff" stroke="#343732" stroke-width="1.5"/>
  <defs><clipPath id="clip"><rect x="125" y="55" width="690" height="430"/></clipPath></defs>
  <line x1="470" y1="55" x2="470" y2="485" stroke="#b9bcb8" stroke-width="1"/>
  <line x1="125" y1="270" x2="815" y2="270" stroke="#b9bcb8" stroke-width="1"/>
  <line x1="125" y1="241.15" x2="815" y2="339.86" stroke="#313431" stroke-width="2" opacity="0.38" clip-path="url(#clip)"/>
  <line x1="125" y1="248.47" x2="815" y2="317.3" stroke="#313431" stroke-width="2" opacity="0.38" clip-path="url(#clip)"/>
  <line x1="125" y1="69.88" x2="815" y2="439.09" stroke="#313431" stroke-width="2" opacity="0.38" clip-path="url(#clip)"/>
  <line x1="125" y1="225.04" x2="815" y2="329.44" stroke="#313431" stroke-width="2" opacity="0.38" clip-path="url(#clip)"/>
  <line x1="125" y1="276.59" x2="815" y2="301.41" stroke="#313431" stroke-width="2" opacity="0.38" clip-path="url(#clip)"/>
  <line x1="125" y1="535.67" x2="815" y2="4.33" stroke="#313431" stroke-width="2" opacity="0.38" clip-path="url(#clip)"/>
  <line x1="125" y1="262.81" x2="815" y2="264.21" stroke="#313431" stroke-width="2" opacity="0.38" clip-path="url(#clip)"/>
  <line x1="125" y1="138.82" x2="815" y2="363.87" stroke="#313431" stroke-width="2" opacity="0.38" clip-path="url(#clip)"/>
  <line x1="125" y1="342.38" x2="815" y2="223.47" stroke="#313431" stroke-width="2" opacity="0.38" clip-path="url(#clip)"/>
  <line x1="125" y1="174.98" x2="815" y2="386.6" stroke="#313431" stroke-width="2" opacity="0.38" clip-path="url(#clip)"/>
  <line x1="125" y1="136.79" x2="815" y2="428.04" stroke="#313431" stroke-width="2" opacity="0.38" clip-path="url(#clip)"/>
  <line x1="125" y1="381.61" x2="815" y2="109.1" stroke="#313431" stroke-width="2" opacity="0.38" clip-path="url(#clip)"/>
  <line x1="125" y1="182.27" x2="815" y2="244.88" stroke="#313431" stroke-width="2" opacity="0.38" clip-path="url(#clip)"/>
  <line x1="125" y1="253.76" x2="815" y2="296.03" stroke="#313431" stroke-width="2" opacity="0.38" clip-path="url(#clip)"/>
  <line x1="125" y1="259.94" x2="815" y2="257" stroke="#313431" stroke-width="2" opacity="0.38" clip-path="url(#clip)"/>
  <line x1="125" y1="219.9" x2="815" y2="286.06" stroke="#313431" stroke-width="2" opacity="0.38" clip-path="url(#clip)"/>
  <line x1="125" y1="471.91" x2="815" y2="129.37" stroke="#313431" stroke-width="2" opacity="0.38" clip-path="url(#clip)"/>
  <line x1="125" y1="405.39" x2="815" y2="155.96" stroke="#313431" stroke-width="2" opacity="0.38" clip-path="url(#clip)"/>
  <line x1="125" y1="292.67" x2="815" y2="261.84" stroke="#313431" stroke-width="2" opacity="0.38" clip-path="url(#clip)"/>
  <line x1="125" y1="200.75" x2="815" y2="410.72" stroke="#313431" stroke-width="2" opacity="0.38" clip-path="url(#clip)"/>
  <line x1="125" y1="325.25" x2="815" y2="197.75" stroke="#313431" stroke-width="2" opacity="0.38" clip-path="url(#clip)"/>
  <line x1="125" y1="290.39" x2="815" y2="259.69" stroke="#313431" stroke-width="2" opacity="0.38" clip-path="url(#clip)"/>
  <line x1="125" y1="313.91" x2="815" y2="305.44" stroke="#313431" stroke-width="2" opacity="0.38" clip-path="url(#clip)"/>
  <line x1="125" y1="173.39" x2="815" y2="395.65" stroke="#313431" stroke-width="2" opacity="0.38" clip-path="url(#clip)"/>
  <line x1="125" y1="214.15" x2="815" y2="310.83" stroke="#313431" stroke-width="2" opacity="0.38" clip-path="url(#clip)"/>
  <line x1="125" y1="246.31" x2="815" y2="331.66" stroke="#313431" stroke-width="2" opacity="0.38" clip-path="url(#clip)"/>
  <line x1="125" y1="247.18" x2="815" y2="309.74" stroke="#313431" stroke-width="2" opacity="0.38" clip-path="url(#clip)"/>
  <line x1="125" y1="220.62" x2="815" y2="316.29" stroke="#313431" stroke-width="2" opacity="0.38" clip-path="url(#clip)"/>
  <line x1="125" y1="419.22" x2="815" y2="81.62" stroke="#313431" stroke-width="2" opacity="0.38" clip-path="url(#clip)"/>
  <line x1="125" y1="211.34" x2="815" y2="285.29" stroke="#313431" stroke-width="2" opacity="0.38" clip-path="url(#clip)"/>
  <line x1="125" y1="325.32" x2="815" y2="242.37" stroke="#313431" stroke-width="2" opacity="0.38" clip-path="url(#clip)"/>
  <line x1="125" y1="421.8" x2="815" y2="127.41" stroke="#313431" stroke-width="2" opacity="0.38" clip-path="url(#clip)"/>
  <line x1="125" y1="314.13" x2="815" y2="216.44" stroke="#313431" stroke-width="2" opacity="0.38" clip-path="url(#clip)"/>
  <line x1="125" y1="300.13" x2="815" y2="264.69" stroke="#313431" stroke-width="2" opacity="0.38" clip-path="url(#clip)"/>
  <line x1="125" y1="133.31" x2="815" y2="454.09" stroke="#313431" stroke-width="2" opacity="0.38" clip-path="url(#clip)"/>
  <line x1="125" y1="144.64" x2="815" y2="386.9" stroke="#313431" stroke-width="2" opacity="0.38" clip-path="url(#clip)"/>
  <line x1="125" y1="377.12" x2="815" y2="189.3" stroke="#313431" stroke-width="2" opacity="0.38" clip-path="url(#clip)"/>
  <line x1="125" y1="241.41" x2="815" y2="230.72" stroke="#313431" stroke-width="2" opacity="0.38" clip-path="url(#clip)"/>
  <line x1="125" y1="361.42" x2="815" y2="197.09" stroke="#313431" stroke-width="2" opacity="0.38" clip-path="url(#clip)"/>
  <line x1="125" y1="305.87" x2="815" y2="193.04" stroke="#313431" stroke-width="2" opacity="0.38" clip-path="url(#clip)"/>
  <line x1="125" y1="235.35" x2="815" y2="341.78" stroke="#313431" stroke-width="2" opacity="0.38" clip-path="url(#clip)"/>
  <line x1="125" y1="130.51" x2="815" y2="365.59" stroke="#313431" stroke-width="2" opacity="0.38" clip-path="url(#clip)"/>
  <line x1="125" y1="399.63" x2="815" y2="137.54" stroke="#313431" stroke-width="2" opacity="0.38" clip-path="url(#clip)"/>
  <line x1="125" y1="178.53" x2="815" y2="317.39" stroke="#313431" stroke-width="2" opacity="0.38" clip-path="url(#clip)"/>
  <line x1="125" y1="253.04" x2="815" y2="299.37" stroke="#313431" stroke-width="2" opacity="0.38" clip-path="url(#clip)"/>
  <line x1="125" y1="301.84" x2="815" y2="285.9" stroke="#313431" stroke-width="2" opacity="0.38" clip-path="url(#clip)"/>
  <line x1="125" y1="353.61" x2="815" y2="222.91" stroke="#313431" stroke-width="2" opacity="0.38" clip-path="url(#clip)"/>
  <line x1="125" y1="225" x2="815" y2="361.05" stroke="#313431" stroke-width="2" opacity="0.38" clip-path="url(#clip)"/>
  <line x1="125" y1="287.03" x2="815" y2="278.81" stroke="#313431" stroke-width="2" opacity="0.38" clip-path="url(#clip)"/>
  <line x1="125" y1="424.71" x2="815" y2="220.86" stroke="#313431" stroke-width="2" opacity="0.38" clip-path="url(#clip)"/>
  <line x1="125" y1="485" x2="125" y2="493" stroke="#343732"/>
  <text x="125" y="517" text-anchor="middle" font-family="PingFang SC, Noto Sans CJK SC, Microsoft YaHei, sans-serif" font-size="17" fill="#30332e">-2</text>
  <line x1="117" y1="485" x2="125" y2="485" stroke="#343732"/>
  <text x="110" y="491" text-anchor="end" font-family="PingFang SC, Noto Sans CJK SC, Microsoft YaHei, sans-serif" font-size="17" fill="#30332e">-2</text>
  <line x1="297.5" y1="485" x2="297.5" y2="493" stroke="#343732"/>
  <text x="297.5" y="517" text-anchor="middle" font-family="PingFang SC, Noto Sans CJK SC, Microsoft YaHei, sans-serif" font-size="17" fill="#30332e">-1</text>
  <line x1="117" y1="377.5" x2="125" y2="377.5" stroke="#343732"/>
  <text x="110" y="383.5" text-anchor="end" font-family="PingFang SC, Noto Sans CJK SC, Microsoft YaHei, sans-serif" font-size="17" fill="#30332e">-1</text>
  <line x1="470" y1="485" x2="470" y2="493" stroke="#343732"/>
  <text x="470" y="517" text-anchor="middle" font-family="PingFang SC, Noto Sans CJK SC, Microsoft YaHei, sans-serif" font-size="17" fill="#30332e">0</text>
  <line x1="117" y1="270" x2="125" y2="270" stroke="#343732"/>
  <text x="110" y="276" text-anchor="end" font-family="PingFang SC, Noto Sans CJK SC, Microsoft YaHei, sans-serif" font-size="17" fill="#30332e">0</text>
  <line x1="642.5" y1="485" x2="642.5" y2="493" stroke="#343732"/>
  <text x="642.5" y="517" text-anchor="middle" font-family="PingFang SC, Noto Sans CJK SC, Microsoft YaHei, sans-serif" font-size="17" fill="#30332e">1</text>
  <line x1="117" y1="162.5" x2="125" y2="162.5" stroke="#343732"/>
  <text x="110" y="168.5" text-anchor="end" font-family="PingFang SC, Noto Sans CJK SC, Microsoft YaHei, sans-serif" font-size="17" fill="#30332e">1</text>
  <line x1="815" y1="485" x2="815" y2="493" stroke="#343732"/>
  <text x="815" y="517" text-anchor="middle" font-family="PingFang SC, Noto Sans CJK SC, Microsoft YaHei, sans-serif" font-size="17" fill="#30332e">2</text>
  <line x1="117" y1="55" x2="125" y2="55" stroke="#343732"/>
  <text x="110" y="61" text-anchor="end" font-family="PingFang SC, Noto Sans CJK SC, Microsoft YaHei, sans-serif" font-size="17" fill="#30332e">2</text>
  <text x="470" y="557" text-anchor="middle" font-family="PingFang SC, Noto Sans CJK SC, Microsoft YaHei, sans-serif" font-size="20" font-weight="700" fill="#263f86">结婚年龄中位数（标准化）</text>
  <text x="45" y="270" transform="rotate(-90 45 270)" text-anchor="middle" font-family="PingFang SC, Noto Sans CJK SC, Microsoft YaHei, sans-serif" font-size="20" font-weight="700" fill="#263f86">离婚率（标准化）</text>
</svg>
