<svg xmlns="http://www.w3.org/2000/svg" width="1200" height="620" viewBox="0 0 1200 620" role="img">
<title>基础逻辑斯蒂回归的先验预测模拟</title>
<desc>左图比较截距标准差为十与一点五时拉左侧杠杆概率的先验；右图比较处理效应标准差为十与零点五时处理间绝对差异的先验。</desc>
<rect width="100%" height="100%" fill="#fbfaf6"/>
<rect x="30" y="35" width="555" height="530" rx="8" fill="#fff" stroke="#d9d5c8"/>
<line x1="98.0" y1="497" x2="98.0" y2="504" stroke="#30332e"/>
<text x="98.0" y="526.0" text-anchor="middle" font-family="-apple-system,BlinkMacSystemFont,PingFang SC,Noto Sans CJK SC,sans-serif" font-size="15" font-weight="400" fill="#30332e">0.0</text>
<line x1="191.0" y1="497" x2="191.0" y2="504" stroke="#30332e"/>
<text x="191.0" y="526.0" text-anchor="middle" font-family="-apple-system,BlinkMacSystemFont,PingFang SC,Noto Sans CJK SC,sans-serif" font-size="15" font-weight="400" fill="#30332e">0.2</text>
<line x1="284.0" y1="497" x2="284.0" y2="504" stroke="#30332e"/>
<text x="284.0" y="526.0" text-anchor="middle" font-family="-apple-system,BlinkMacSystemFont,PingFang SC,Noto Sans CJK SC,sans-serif" font-size="15" font-weight="400" fill="#30332e">0.4</text>
<line x1="377.0" y1="497" x2="377.0" y2="504" stroke="#30332e"/>
<text x="377.0" y="526.0" text-anchor="middle" font-family="-apple-system,BlinkMacSystemFont,PingFang SC,Noto Sans CJK SC,sans-serif" font-size="15" font-weight="400" fill="#30332e">0.6</text>
<line x1="470.0" y1="497" x2="470.0" y2="504" stroke="#30332e"/>
<text x="470.0" y="526.0" text-anchor="middle" font-family="-apple-system,BlinkMacSystemFont,PingFang SC,Noto Sans CJK SC,sans-serif" font-size="15" font-weight="400" fill="#30332e">0.8</text>
<line x1="563.0" y1="497" x2="563.0" y2="504" stroke="#30332e"/>
<text x="563.0" y="526.0" text-anchor="middle" font-family="-apple-system,BlinkMacSystemFont,PingFang SC,Noto Sans CJK SC,sans-serif" font-size="15" font-weight="400" fill="#30332e">1.0</text>
<line x1="91" y1="497.0" x2="98" y2="497.0" stroke="#30332e"/>
<text x="86.0" y="502.0" text-anchor="end" font-family="-apple-system,BlinkMacSystemFont,PingFang SC,Noto Sans CJK SC,sans-serif" font-size="15" font-weight="400" fill="#30332e">0</text>
<line x1="91" y1="387.8" x2="98" y2="387.8" stroke="#30332e"/>
<text x="86.0" y="392.8" text-anchor="end" font-family="-apple-system,BlinkMacSystemFont,PingFang SC,Noto Sans CJK SC,sans-serif" font-size="15" font-weight="400" fill="#30332e">4.5</text>
<line x1="91" y1="278.5" x2="98" y2="278.5" stroke="#30332e"/>
<text x="86.0" y="283.5" text-anchor="end" font-family="-apple-system,BlinkMacSystemFont,PingFang SC,Noto Sans CJK SC,sans-serif" font-size="15" font-weight="400" fill="#30332e">9</text>
<line x1="91" y1="169.2" x2="98" y2="169.2" stroke="#30332e"/>
<text x="86.0" y="174.2" text-anchor="end" font-family="-apple-system,BlinkMacSystemFont,PingFang SC,Noto Sans CJK SC,sans-serif" font-size="15" font-weight="400" fill="#30332e">13.5</text>
<line x1="91" y1="60.0" x2="98" y2="60.0" stroke="#30332e"/>
<text x="86.0" y="65.0" text-anchor="end" font-family="-apple-system,BlinkMacSystemFont,PingFang SC,Noto Sans CJK SC,sans-serif" font-size="15" font-weight="400" fill="#30332e">18</text>
<line x1="98" y1="497" x2="563" y2="497" stroke="#30332e" stroke-width="1.5"/>
<line x1="98" y1="497" x2="98" y2="60" stroke="#30332e" stroke-width="1.5"/>
<text x="330.5" y="549.0" text-anchor="middle" font-family="-apple-system,BlinkMacSystemFont,PingFang SC,Noto Sans CJK SC,sans-serif" font-size="18" font-weight="400" fill="#30332e">拉左侧杠杆的先验概率</text>
<text x="50.0" y="278.5" text-anchor="middle" font-family="-apple-system,BlinkMacSystemFont,PingFang SC,Noto Sans CJK SC,sans-serif" font-size="18" font-weight="400" fill="#30332e" transform="rotate(-90 50 278.5)">概率密度</text>
<polyline points="98.6,60.0 99.2,172.4 99.7,275.2 100.3,327.8 100.9,359.9 101.5,381.5 102.1,397.2 102.7,409.0 103.2,418.2 103.8,425.7 104.4,431.8 105.0,436.9 105.6,441.3 106.1,445.1 106.7,448.3 107.3,451.2 107.9,453.7 108.5,456.0 109.0,458.0 109.6,459.8 110.2,461.5 110.8,463.0 111.4,464.4 112.0,465.7 112.5,466.8 113.1,467.9 113.7,468.9 114.3,469.9 114.9,470.7 115.4,471.5 116.0,472.3 116.6,473.0 117.2,473.7 117.8,474.3 118.3,474.9 118.9,475.5 119.5,476.0 120.1,476.5 120.7,477.0 121.2,477.5 121.8,477.9 122.4,478.3 123.0,478.7 123.6,479.1 124.2,479.5 124.7,479.8 125.3,480.1 125.9,480.5 126.5,480.8 127.1,481.1 127.6,481.3 128.2,481.6 128.8,481.9 129.4,482.1 130.0,482.4 130.6,482.6 131.1,482.8 131.7,483.1 132.3,483.3 132.9,483.5 133.5,483.7 134.0,483.9 134.6,484.0 135.2,484.2 135.8,484.4 136.4,484.6 136.9,484.7 137.5,484.9 138.1,485.0 138.7,485.2 139.3,485.3 139.8,485.5 140.4,485.6 141.0,485.8 141.6,485.9 142.2,486.0 142.8,486.1 143.3,486.3 143.9,486.4 144.5,486.5 145.1,486.6 145.7,486.7 146.2,486.8 146.8,486.9 147.4,487.0 148.0,487.1 148.6,487.2 149.2,487.3 149.7,487.4 150.3,487.5 150.9,487.6 151.5,487.7 152.1,487.8 152.6,487.8 153.2,487.9 153.8,488.0 154.4,488.1 155.0,488.2 155.5,488.2 156.1,488.3 156.7,488.4 157.3,488.5 157.9,488.5 158.4,488.6 159.0,488.7 159.6,488.7 160.2,488.8 160.8,488.8 161.4,488.9 161.9,489.0 162.5,489.0 163.1,489.1 163.7,489.1 164.3,489.2 164.8,489.3 165.4,489.3 166.0,489.4 166.6,489.4 167.2,489.5 167.8,489.5 168.3,489.6 168.9,489.6 169.5,489.7 170.1,489.7 170.7,489.8 171.2,489.8 171.8,489.8 172.4,489.9 173.0,489.9 173.6,490.0 174.1,490.0 174.7,490.1 175.3,490.1 175.9,490.1 176.5,490.2 177.1,490.2 177.6,490.3 178.2,490.3 178.8,490.3 179.4,490.4 180.0,490.4 180.5,490.4 181.1,490.5 181.7,490.5 182.3,490.5 182.9,490.6 183.4,490.6 184.0,490.6 184.6,490.7 185.2,490.7 185.8,490.7 186.3,490.8 186.9,490.8 187.5,490.8 188.1,490.9 188.7,490.9 189.3,490.9 189.8,490.9 190.4,491.0 191.0,491.0 191.6,491.0 192.2,491.1 192.7,491.1 193.3,491.1 193.9,491.1 194.5,491.2 195.1,491.2 195.6,491.2 196.2,491.2 196.8,491.3 197.4,491.3 198.0,491.3 198.6,491.3 199.1,491.4 199.7,491.4 200.3,491.4 200.9,491.4 201.5,491.4 202.0,491.5 202.6,491.5 203.2,491.5 203.8,491.5 204.4,491.6 204.9,491.6 205.5,491.6 206.1,491.6 206.7,491.6 207.3,491.6 207.9,491.7 208.4,491.7 209.0,491.7 209.6,491.7 210.2,491.7 210.8,491.8 211.3,491.8 211.9,491.8 212.5,491.8 213.1,491.8 213.7,491.8 214.2,491.9 214.8,491.9 215.4,491.9 216.0,491.9 216.6,491.9 217.2,491.9 217.7,492.0 218.3,492.0 218.9,492.0 219.5,492.0 220.1,492.0 220.6,492.0 221.2,492.1 221.8,492.1 222.4,492.1 223.0,492.1 223.6,492.1 224.1,492.1 224.7,492.1 225.3,492.2 225.9,492.2 226.5,492.2 227.0,492.2 227.6,492.2 228.2,492.2 228.8,492.2 229.4,492.2 229.9,492.3 230.5,492.3 231.1,492.3 231.7,492.3 232.3,492.3 232.8,492.3 233.4,492.3 234.0,492.3 234.6,492.3 235.2,492.4 235.8,492.4 236.3,492.4 236.9,492.4 237.5,492.4 238.1,492.4 238.7,492.4 239.2,492.4 239.8,492.4 240.4,492.5 241.0,492.5 241.6,492.5 242.2,492.5 242.7,492.5 243.3,492.5 243.9,492.5 244.5,492.5 245.1,492.5 245.6,492.5 246.2,492.6 246.8,492.6 247.4,492.6 248.0,492.6 248.5,492.6 249.1,492.6 249.7,492.6 250.3,492.6 250.9,492.6 251.5,492.6 252.0,492.6 252.6,492.6 253.2,492.7 253.8,492.7 254.4,492.7 254.9,492.7 255.5,492.7 256.1,492.7 256.7,492.7 257.3,492.7 257.8,492.7 258.4,492.7 259.0,492.7 259.6,492.7 260.2,492.7 260.8,492.8 261.3,492.8 261.9,492.8 262.5,492.8 263.1,492.8 263.7,492.8 264.2,492.8 264.8,492.8 265.4,492.8 266.0,492.8 266.6,492.8 267.1,492.8 267.7,492.8 268.3,492.8 268.9,492.8 269.5,492.8 270.1,492.9 270.6,492.9 271.2,492.9 271.8,492.9 272.4,492.9 273.0,492.9 273.5,492.9 274.1,492.9 274.7,492.9 275.3,492.9 275.9,492.9 276.4,492.9 277.0,492.9 277.6,492.9 278.2,492.9 278.8,492.9 279.4,492.9 279.9,492.9 280.5,492.9 281.1,492.9 281.7,493.0 282.3,493.0 282.8,493.0 283.4,493.0 284.0,493.0 284.6,493.0 285.2,493.0 285.7,493.0 286.3,493.0 286.9,493.0 287.5,493.0 288.1,493.0 288.6,493.0 289.2,493.0 289.8,493.0 290.4,493.0 291.0,493.0 291.6,493.0 292.1,493.0 292.7,493.0 293.3,493.0 293.9,493.0 294.5,493.0 295.0,493.0 295.6,493.0 296.2,493.0 296.8,493.0 297.4,493.0 297.9,493.0 298.5,493.1 299.1,493.1 299.7,493.1 300.3,493.1 300.9,493.1 301.4,493.1 302.0,493.1 302.6,493.1 303.2,493.1 303.8,493.1 304.3,493.1 304.9,493.1 305.5,493.1 306.1,493.1 306.7,493.1 307.2,493.1 307.8,493.1 308.4,493.1 309.0,493.1 309.6,493.1 310.2,493.1 310.7,493.1 311.3,493.1 311.9,493.1 312.5,493.1 313.1,493.1 313.6,493.1 314.2,493.1 314.8,493.1 315.4,493.1 316.0,493.1 316.5,493.1 317.1,493.1 317.7,493.1 318.3,493.1 318.9,493.1 319.5,493.1 320.0,493.1 320.6,493.1 321.2,493.1 321.8,493.1 322.4,493.1 322.9,493.1 323.5,493.1 324.1,493.1 324.7,493.1 325.3,493.1 325.9,493.1 326.4,493.1 327.0,493.1 327.6,493.1 328.2,493.1 328.8,493.1 329.3,493.1 329.9,493.1 330.5,493.1 331.1,493.1 331.7,493.1 332.2,493.1 332.8,493.1 333.4,493.1 334.0,493.1 334.6,493.1 335.1,493.1 335.7,493.1 336.3,493.1 336.9,493.1 337.5,493.1 338.1,493.1 338.6,493.1 339.2,493.1 339.8,493.1 340.4,493.1 341.0,493.1 341.5,493.1 342.1,493.1 342.7,493.1 343.3,493.1 343.9,493.1 344.5,493.1 345.0,493.1 345.6,493.1 346.2,493.1 346.8,493.1 347.4,493.1 347.9,493.1 348.5,493.1 349.1,493.1 349.7,493.1 350.3,493.1 350.8,493.1 351.4,493.1 352.0,493.1 352.6,493.1 353.2,493.1 353.8,493.1 354.3,493.1 354.9,493.1 355.5,493.1 356.1,493.1 356.7,493.1 357.2,493.1 357.8,493.1 358.4,493.1 359.0,493.1 359.6,493.1 360.1,493.1 360.7,493.1 361.3,493.1 361.9,493.1 362.5,493.1 363.0,493.0 363.6,493.0 364.2,493.0 364.8,493.0 365.4,493.0 366.0,493.0 366.5,493.0 367.1,493.0 367.7,493.0 368.3,493.0 368.9,493.0 369.4,493.0 370.0,493.0 370.6,493.0 371.2,493.0 371.8,493.0 372.3,493.0 372.9,493.0 373.5,493.0 374.1,493.0 374.7,493.0 375.3,493.0 375.8,493.0 376.4,493.0 377.0,493.0 377.6,493.0 378.2,493.0 378.7,493.0 379.3,493.0 379.9,492.9 380.5,492.9 381.1,492.9 381.6,492.9 382.2,492.9 382.8,492.9 383.4,492.9 384.0,492.9 384.6,492.9 385.1,492.9 385.7,492.9 386.3,492.9 386.9,492.9 387.5,492.9 388.0,492.9 388.6,492.9 389.2,492.9 389.8,492.9 390.4,492.9 390.9,492.9 391.5,492.8 392.1,492.8 392.7,492.8 393.3,492.8 393.9,492.8 394.4,492.8 395.0,492.8 395.6,492.8 396.2,492.8 396.8,492.8 397.3,492.8 397.9,492.8 398.5,492.8 399.1,492.8 399.7,492.8 400.2,492.8 400.8,492.7 401.4,492.7 402.0,492.7 402.6,492.7 403.2,492.7 403.7,492.7 404.3,492.7 404.9,492.7 405.5,492.7 406.1,492.7 406.6,492.7 407.2,492.7 407.8,492.7 408.4,492.6 409.0,492.6 409.6,492.6 410.1,492.6 410.7,492.6 411.3,492.6 411.9,492.6 412.5,492.6 413.0,492.6 413.6,492.6 414.2,492.6 414.8,492.6 415.4,492.5 415.9,492.5 416.5,492.5 417.1,492.5 417.7,492.5 418.3,492.5 418.8,492.5 419.4,492.5 420.0,492.5 420.6,492.5 421.2,492.4 421.8,492.4 422.3,492.4 422.9,492.4 423.5,492.4 424.1,492.4 424.7,492.4 425.2,492.4 425.8,492.4 426.4,492.3 427.0,492.3 427.6,492.3 428.1,492.3 428.7,492.3 429.3,492.3 429.9,492.3 430.5,492.3 431.1,492.3 431.6,492.2 432.2,492.2 432.8,492.2 433.4,492.2 434.0,492.2 434.5,492.2 435.1,492.2 435.7,492.2 436.3,492.1 436.9,492.1 437.4,492.1 438.0,492.1 438.6,492.1 439.2,492.1 439.8,492.1 440.4,492.0 440.9,492.0 441.5,492.0 442.1,492.0 442.7,492.0 443.3,492.0 443.8,491.9 444.4,491.9 445.0,491.9 445.6,491.9 446.2,491.9 446.8,491.9 447.3,491.8 447.9,491.8 448.5,491.8 449.1,491.8 449.7,491.8 450.2,491.8 450.8,491.7 451.4,491.7 452.0,491.7 452.6,491.7 453.1,491.7 453.7,491.6 454.3,491.6 454.9,491.6 455.5,491.6 456.1,491.6 456.6,491.6 457.2,491.5 457.8,491.5 458.4,491.5 459.0,491.5 459.5,491.4 460.1,491.4 460.7,491.4 461.3,491.4 461.9,491.4 462.4,491.3 463.0,491.3 463.6,491.3 464.2,491.3 464.8,491.2 465.4,491.2 465.9,491.2 466.5,491.2 467.1,491.1 467.7,491.1 468.3,491.1 468.8,491.1 469.4,491.0 470.0,491.0 470.6,491.0 471.2,490.9 471.7,490.9 472.3,490.9 472.9,490.9 473.5,490.8 474.1,490.8 474.7,490.8 475.2,490.7 475.8,490.7 476.4,490.7 477.0,490.6 477.6,490.6 478.1,490.6 478.7,490.5 479.3,490.5 479.9,490.5 480.5,490.4 481.0,490.4 481.6,490.4 482.2,490.3 482.8,490.3 483.4,490.3 483.9,490.2 484.5,490.2 485.1,490.1 485.7,490.1 486.3,490.1 486.9,490.0 487.4,490.0 488.0,489.9 488.6,489.9 489.2,489.8 489.8,489.8 490.3,489.8 490.9,489.7 491.5,489.7 492.1,489.6 492.7,489.6 493.2,489.5 493.8,489.5 494.4,489.4 495.0,489.4 495.6,489.3 496.2,489.3 496.7,489.2 497.3,489.1 497.9,489.1 498.5,489.0 499.1,489.0 499.6,488.9 500.2,488.8 500.8,488.8 501.4,488.7 502.0,488.7 502.6,488.6 503.1,488.5 503.7,488.5 504.3,488.4 504.9,488.3 505.5,488.2 506.0,488.2 506.6,488.1 507.2,488.0 507.8,487.9 508.4,487.8 508.9,487.8 509.5,487.7 510.1,487.6 510.7,487.5 511.3,487.4 511.9,487.3 512.4,487.2 513.0,487.1 513.6,487.0 514.2,486.9 514.8,486.8 515.3,486.7 515.9,486.6 516.5,486.5 517.1,486.4 517.7,486.3 518.2,486.1 518.8,486.0 519.4,485.9 520.0,485.8 520.6,485.6 521.2,485.5 521.7,485.3 522.3,485.2 522.9,485.0 523.5,484.9 524.1,484.7 524.6,484.6 525.2,484.4 525.8,484.2 526.4,484.0 527.0,483.9 527.5,483.7 528.1,483.5 528.7,483.3 529.3,483.1 529.9,482.8 530.5,482.6 531.0,482.4 531.6,482.1 532.2,481.9 532.8,481.6 533.4,481.3 533.9,481.1 534.5,480.8 535.1,480.5 535.7,480.1 536.3,479.8 536.8,479.5 537.4,479.1 538.0,478.7 538.6,478.3 539.2,477.9 539.8,477.5 540.3,477.0 540.9,476.5 541.5,476.0 542.1,475.5 542.7,474.9 543.2,474.3 543.8,473.7 544.4,473.0 545.0,472.3 545.6,471.5 546.1,470.7 546.7,469.9 547.3,468.9 547.9,467.9 548.5,466.8 549.0,465.7 549.6,464.4 550.2,463.0 550.8,461.5 551.4,459.8 552.0,458.0 552.5,456.0 553.1,453.7 553.7,451.2 554.3,448.3 554.9,445.1 555.4,441.3 556.0,436.9 556.6,431.8 557.2,425.7 557.8,418.2 558.4,409.0 558.9,397.2 559.5,381.5 560.1,359.9 560.7,327.8 561.3,275.2 561.8,172.4 562.4,60.0" fill="none" stroke="#111" stroke-width="3" stroke-linejoin="round"/>
<polyline points="98.6,496.7 99.2,496.1 99.7,495.3 100.3,494.4 100.9,493.6 101.5,492.7 102.1,491.8 102.7,491.0 103.2,490.2 103.8,489.5 104.4,488.8 105.0,488.1 105.6,487.4 106.1,486.8 106.7,486.2 107.3,485.6 107.9,485.1 108.5,484.6 109.0,484.1 109.6,483.6 110.2,483.1 110.8,482.7 111.4,482.3 112.0,481.9 112.5,481.5 113.1,481.1 113.7,480.8 114.3,480.4 114.9,480.1 115.4,479.8 116.0,479.5 116.6,479.2 117.2,478.9 117.8,478.6 118.3,478.4 118.9,478.1 119.5,477.9 120.1,477.6 120.7,477.4 121.2,477.2 121.8,477.0 122.4,476.8 123.0,476.6 123.6,476.4 124.2,476.2 124.7,476.0 125.3,475.9 125.9,475.7 126.5,475.6 127.1,475.4 127.6,475.3 128.2,475.1 128.8,475.0 129.4,474.8 130.0,474.7 130.6,474.6 131.1,474.5 131.7,474.3 132.3,474.2 132.9,474.1 133.5,474.0 134.0,473.9 134.6,473.8 135.2,473.7 135.8,473.6 136.4,473.5 136.9,473.4 137.5,473.3 138.1,473.2 138.7,473.2 139.3,473.1 139.8,473.0 140.4,472.9 141.0,472.9 141.6,472.8 142.2,472.7 142.8,472.6 143.3,472.6 143.9,472.5 144.5,472.5 145.1,472.4 145.7,472.3 146.2,472.3 146.8,472.2 147.4,472.2 148.0,472.1 148.6,472.1 149.2,472.0 149.7,472.0 150.3,471.9 150.9,471.9 151.5,471.9 152.1,471.8 152.6,471.8 153.2,471.7 153.8,471.7 154.4,471.7 155.0,471.6 155.5,471.6 156.1,471.6 156.7,471.5 157.3,471.5 157.9,471.5 158.4,471.4 159.0,471.4 159.6,471.4 160.2,471.3 160.8,471.3 161.4,471.3 161.9,471.3 162.5,471.2 163.1,471.2 163.7,471.2 164.3,471.2 164.8,471.1 165.4,471.1 166.0,471.1 166.6,471.1 167.2,471.1 167.8,471.1 168.3,471.0 168.9,471.0 169.5,471.0 170.1,471.0 170.7,471.0 171.2,471.0 171.8,470.9 172.4,470.9 173.0,470.9 173.6,470.9 174.1,470.9 174.7,470.9 175.3,470.9 175.9,470.8 176.5,470.8 177.1,470.8 177.6,470.8 178.2,470.8 178.8,470.8 179.4,470.8 180.0,470.8 180.5,470.8 181.1,470.8 181.7,470.8 182.3,470.7 182.9,470.7 183.4,470.7 184.0,470.7 184.6,470.7 185.2,470.7 185.8,470.7 186.3,470.7 186.9,470.7 187.5,470.7 188.1,470.7 188.7,470.7 189.3,470.7 189.8,470.7 190.4,470.7 191.0,470.7 191.6,470.7 192.2,470.7 192.7,470.7 193.3,470.7 193.9,470.7 194.5,470.7 195.1,470.7 195.6,470.7 196.2,470.6 196.8,470.6 197.4,470.6 198.0,470.6 198.6,470.6 199.1,470.6 199.7,470.6 200.3,470.6 200.9,470.6 201.5,470.6 202.0,470.6 202.6,470.6 203.2,470.6 203.8,470.6 204.4,470.6 204.9,470.6 205.5,470.6 206.1,470.6 206.7,470.6 207.3,470.6 207.9,470.6 208.4,470.6 209.0,470.6 209.6,470.7 210.2,470.7 210.8,470.7 211.3,470.7 211.9,470.7 212.5,470.7 213.1,470.7 213.7,470.7 214.2,470.7 214.8,470.7 215.4,470.7 216.0,470.7 216.6,470.7 217.2,470.7 217.7,470.7 218.3,470.7 218.9,470.7 219.5,470.7 220.1,470.7 220.6,470.7 221.2,470.7 221.8,470.7 222.4,470.7 223.0,470.7 223.6,470.7 224.1,470.7 224.7,470.7 225.3,470.7 225.9,470.7 226.5,470.7 227.0,470.7 227.6,470.7 228.2,470.7 228.8,470.7 229.4,470.7 229.9,470.7 230.5,470.7 231.1,470.7 231.7,470.8 232.3,470.8 232.8,470.8 233.4,470.8 234.0,470.8 234.6,470.8 235.2,470.8 235.8,470.8 236.3,470.8 236.9,470.8 237.5,470.8 238.1,470.8 238.7,470.8 239.2,470.8 239.8,470.8 240.4,470.8 241.0,470.8 241.6,470.8 242.2,470.8 242.7,470.8 243.3,470.8 243.9,470.8 244.5,470.8 245.1,470.8 245.6,470.8 246.2,470.8 246.8,470.8 247.4,470.8 248.0,470.9 248.5,470.9 249.1,470.9 249.7,470.9 250.3,470.9 250.9,470.9 251.5,470.9 252.0,470.9 252.6,470.9 253.2,470.9 253.8,470.9 254.4,470.9 254.9,470.9 255.5,470.9 256.1,470.9 256.7,470.9 257.3,470.9 257.8,470.9 258.4,470.9 259.0,470.9 259.6,470.9 260.2,470.9 260.8,470.9 261.3,470.9 261.9,470.9 262.5,470.9 263.1,470.9 263.7,471.0 264.2,471.0 264.8,471.0 265.4,471.0 266.0,471.0 266.6,471.0 267.1,471.0 267.7,471.0 268.3,471.0 268.9,471.0 269.5,471.0 270.1,471.0 270.6,471.0 271.2,471.0 271.8,471.0 272.4,471.0 273.0,471.0 273.5,471.0 274.1,471.0 274.7,471.0 275.3,471.0 275.9,471.0 276.4,471.0 277.0,471.0 277.6,471.0 278.2,471.0 278.8,471.0 279.4,471.0 279.9,471.0 280.5,471.0 281.1,471.0 281.7,471.1 282.3,471.1 282.8,471.1 283.4,471.1 284.0,471.1 284.6,471.1 285.2,471.1 285.7,471.1 286.3,471.1 286.9,471.1 287.5,471.1 288.1,471.1 288.6,471.1 289.2,471.1 289.8,471.1 290.4,471.1 291.0,471.1 291.6,471.1 292.1,471.1 292.7,471.1 293.3,471.1 293.9,471.1 294.5,471.1 295.0,471.1 295.6,471.1 296.2,471.1 296.8,471.1 297.4,471.1 297.9,471.1 298.5,471.1 299.1,471.1 299.7,471.1 300.3,471.1 300.9,471.1 301.4,471.1 302.0,471.1 302.6,471.1 303.2,471.1 303.8,471.1 304.3,471.1 304.9,471.1 305.5,471.1 306.1,471.1 306.7,471.1 307.2,471.1 307.8,471.1 308.4,471.1 309.0,471.1 309.6,471.1 310.2,471.2 310.7,471.2 311.3,471.2 311.9,471.2 312.5,471.2 313.1,471.2 313.6,471.2 314.2,471.2 314.8,471.2 315.4,471.2 316.0,471.2 316.5,471.2 317.1,471.2 317.7,471.2 318.3,471.2 318.9,471.2 319.5,471.2 320.0,471.2 320.6,471.2 321.2,471.2 321.8,471.2 322.4,471.2 322.9,471.2 323.5,471.2 324.1,471.2 324.7,471.2 325.3,471.2 325.9,471.2 326.4,471.2 327.0,471.2 327.6,471.2 328.2,471.2 328.8,471.2 329.3,471.2 329.9,471.2 330.5,471.2 331.1,471.2 331.7,471.2 332.2,471.2 332.8,471.2 333.4,471.2 334.0,471.2 334.6,471.2 335.1,471.2 335.7,471.2 336.3,471.2 336.9,471.2 337.5,471.2 338.1,471.2 338.6,471.2 339.2,471.2 339.8,471.2 340.4,471.2 341.0,471.2 341.5,471.2 342.1,471.2 342.7,471.2 343.3,471.2 343.9,471.2 344.5,471.2 345.0,471.2 345.6,471.2 346.2,471.2 346.8,471.2 347.4,471.2 347.9,471.2 348.5,471.2 349.1,471.2 349.7,471.2 350.3,471.2 350.8,471.2 351.4,471.1 352.0,471.1 352.6,471.1 353.2,471.1 353.8,471.1 354.3,471.1 354.9,471.1 355.5,471.1 356.1,471.1 356.7,471.1 357.2,471.1 357.8,471.1 358.4,471.1 359.0,471.1 359.6,471.1 360.1,471.1 360.7,471.1 361.3,471.1 361.9,471.1 362.5,471.1 363.0,471.1 363.6,471.1 364.2,471.1 364.8,471.1 365.4,471.1 366.0,471.1 366.5,471.1 367.1,471.1 367.7,471.1 368.3,471.1 368.9,471.1 369.4,471.1 370.0,471.1 370.6,471.1 371.2,471.1 371.8,471.1 372.3,471.1 372.9,471.1 373.5,471.1 374.1,471.1 374.7,471.1 375.3,471.1 375.8,471.1 376.4,471.1 377.0,471.1 377.6,471.1 378.2,471.1 378.7,471.1 379.3,471.1 379.9,471.0 380.5,471.0 381.1,471.0 381.6,471.0 382.2,471.0 382.8,471.0 383.4,471.0 384.0,471.0 384.6,471.0 385.1,471.0 385.7,471.0 386.3,471.0 386.9,471.0 387.5,471.0 388.0,471.0 388.6,471.0 389.2,471.0 389.8,471.0 390.4,471.0 390.9,471.0 391.5,471.0 392.1,471.0 392.7,471.0 393.3,471.0 393.9,471.0 394.4,471.0 395.0,471.0 395.6,471.0 396.2,471.0 396.8,471.0 397.3,471.0 397.9,470.9 398.5,470.9 399.1,470.9 399.7,470.9 400.2,470.9 400.8,470.9 401.4,470.9 402.0,470.9 402.6,470.9 403.2,470.9 403.7,470.9 404.3,470.9 404.9,470.9 405.5,470.9 406.1,470.9 406.6,470.9 407.2,470.9 407.8,470.9 408.4,470.9 409.0,470.9 409.6,470.9 410.1,470.9 410.7,470.9 411.3,470.9 411.9,470.9 412.5,470.9 413.0,470.9 413.6,470.8 414.2,470.8 414.8,470.8 415.4,470.8 415.9,470.8 416.5,470.8 417.1,470.8 417.7,470.8 418.3,470.8 418.8,470.8 419.4,470.8 420.0,470.8 420.6,470.8 421.2,470.8 421.8,470.8 422.3,470.8 422.9,470.8 423.5,470.8 424.1,470.8 424.7,470.8 425.2,470.8 425.8,470.8 426.4,470.8 427.0,470.8 427.6,470.8 428.1,470.8 428.7,470.8 429.3,470.8 429.9,470.7 430.5,470.7 431.1,470.7 431.6,470.7 432.2,470.7 432.8,470.7 433.4,470.7 434.0,470.7 434.5,470.7 435.1,470.7 435.7,470.7 436.3,470.7 436.9,470.7 437.4,470.7 438.0,470.7 438.6,470.7 439.2,470.7 439.8,470.7 440.4,470.7 440.9,470.7 441.5,470.7 442.1,470.7 442.7,470.7 443.3,470.7 443.8,470.7 444.4,470.7 445.0,470.7 445.6,470.7 446.2,470.7 446.8,470.7 447.3,470.7 447.9,470.7 448.5,470.7 449.1,470.7 449.7,470.7 450.2,470.7 450.8,470.7 451.4,470.7 452.0,470.6 452.6,470.6 453.1,470.6 453.7,470.6 454.3,470.6 454.9,470.6 455.5,470.6 456.1,470.6 456.6,470.6 457.2,470.6 457.8,470.6 458.4,470.6 459.0,470.6 459.5,470.6 460.1,470.6 460.7,470.6 461.3,470.6 461.9,470.6 462.4,470.6 463.0,470.6 463.6,470.6 464.2,470.6 464.8,470.6 465.4,470.7 465.9,470.7 466.5,470.7 467.1,470.7 467.7,470.7 468.3,470.7 468.8,470.7 469.4,470.7 470.0,470.7 470.6,470.7 471.2,470.7 471.7,470.7 472.3,470.7 472.9,470.7 473.5,470.7 474.1,470.7 474.7,470.7 475.2,470.7 475.8,470.7 476.4,470.7 477.0,470.7 477.6,470.7 478.1,470.7 478.7,470.7 479.3,470.8 479.9,470.8 480.5,470.8 481.0,470.8 481.6,470.8 482.2,470.8 482.8,470.8 483.4,470.8 483.9,470.8 484.5,470.8 485.1,470.8 485.7,470.9 486.3,470.9 486.9,470.9 487.4,470.9 488.0,470.9 488.6,470.9 489.2,470.9 489.8,471.0 490.3,471.0 490.9,471.0 491.5,471.0 492.1,471.0 492.7,471.0 493.2,471.1 493.8,471.1 494.4,471.1 495.0,471.1 495.6,471.1 496.2,471.1 496.7,471.2 497.3,471.2 497.9,471.2 498.5,471.2 499.1,471.3 499.6,471.3 500.2,471.3 500.8,471.3 501.4,471.4 502.0,471.4 502.6,471.4 503.1,471.5 503.7,471.5 504.3,471.5 504.9,471.6 505.5,471.6 506.0,471.6 506.6,471.7 507.2,471.7 507.8,471.7 508.4,471.8 508.9,471.8 509.5,471.9 510.1,471.9 510.7,471.9 511.3,472.0 511.9,472.0 512.4,472.1 513.0,472.1 513.6,472.2 514.2,472.2 514.8,472.3 515.3,472.3 515.9,472.4 516.5,472.5 517.1,472.5 517.7,472.6 518.2,472.6 518.8,472.7 519.4,472.8 520.0,472.9 520.6,472.9 521.2,473.0 521.7,473.1 522.3,473.2 522.9,473.2 523.5,473.3 524.1,473.4 524.6,473.5 525.2,473.6 525.8,473.7 526.4,473.8 527.0,473.9 527.5,474.0 528.1,474.1 528.7,474.2 529.3,474.3 529.9,474.5 530.5,474.6 531.0,474.7 531.6,474.8 532.2,475.0 532.8,475.1 533.4,475.3 533.9,475.4 534.5,475.6 535.1,475.7 535.7,475.9 536.3,476.0 536.8,476.2 537.4,476.4 538.0,476.6 538.6,476.8 539.2,477.0 539.8,477.2 540.3,477.4 540.9,477.6 541.5,477.9 542.1,478.1 542.7,478.4 543.2,478.6 543.8,478.9 544.4,479.2 545.0,479.5 545.6,479.8 546.1,480.1 546.7,480.4 547.3,480.8 547.9,481.1 548.5,481.5 549.0,481.9 549.6,482.3 550.2,482.7 550.8,483.1 551.4,483.6 552.0,484.1 552.5,484.6 553.1,485.1 553.7,485.6 554.3,486.2 554.9,486.8 555.4,487.4 556.0,488.1 556.6,488.8 557.2,489.5 557.8,490.2 558.4,491.0 558.9,491.8 559.5,492.7 560.1,493.6 560.7,494.4 561.3,495.3 561.8,496.1 562.4,496.7" fill="none" stroke="#6670ee" stroke-width="4" stroke-linejoin="round"/>
<text x="172.4" y="336.8" text-anchor="start" font-family="-apple-system,BlinkMacSystemFont,PingFang SC,Noto Sans CJK SC,sans-serif" font-size="18" font-weight="400" fill="#111">α ∼ Normal(0, 10)</text>
<text x="270.1" y="446.0" text-anchor="start" font-family="-apple-system,BlinkMacSystemFont,PingFang SC,Noto Sans CJK SC,sans-serif" font-size="18" font-weight="400" fill="#6670ee">α ∼ Normal(0, 1.5)</text>
<rect x="615" y="35" width="555" height="530" rx="8" fill="#fff" stroke="#d9d5c8"/>
<line x1="683.0" y1="497" x2="683.0" y2="504" stroke="#30332e"/>
<text x="683.0" y="526.0" text-anchor="middle" font-family="-apple-system,BlinkMacSystemFont,PingFang SC,Noto Sans CJK SC,sans-serif" font-size="15" font-weight="400" fill="#30332e">0.0</text>
<line x1="776.0" y1="497" x2="776.0" y2="504" stroke="#30332e"/>
<text x="776.0" y="526.0" text-anchor="middle" font-family="-apple-system,BlinkMacSystemFont,PingFang SC,Noto Sans CJK SC,sans-serif" font-size="15" font-weight="400" fill="#30332e">0.2</text>
<line x1="869.0" y1="497" x2="869.0" y2="504" stroke="#30332e"/>
<text x="869.0" y="526.0" text-anchor="middle" font-family="-apple-system,BlinkMacSystemFont,PingFang SC,Noto Sans CJK SC,sans-serif" font-size="15" font-weight="400" fill="#30332e">0.4</text>
<line x1="962.0" y1="497" x2="962.0" y2="504" stroke="#30332e"/>
<text x="962.0" y="526.0" text-anchor="middle" font-family="-apple-system,BlinkMacSystemFont,PingFang SC,Noto Sans CJK SC,sans-serif" font-size="15" font-weight="400" fill="#30332e">0.6</text>
<line x1="1055.0" y1="497" x2="1055.0" y2="504" stroke="#30332e"/>
<text x="1055.0" y="526.0" text-anchor="middle" font-family="-apple-system,BlinkMacSystemFont,PingFang SC,Noto Sans CJK SC,sans-serif" font-size="15" font-weight="400" fill="#30332e">0.8</text>
<line x1="1148.0" y1="497" x2="1148.0" y2="504" stroke="#30332e"/>
<text x="1148.0" y="526.0" text-anchor="middle" font-family="-apple-system,BlinkMacSystemFont,PingFang SC,Noto Sans CJK SC,sans-serif" font-size="15" font-weight="400" fill="#30332e">1.0</text>
<line x1="676" y1="497.0" x2="683" y2="497.0" stroke="#30332e"/>
<text x="671.0" y="502.0" text-anchor="end" font-family="-apple-system,BlinkMacSystemFont,PingFang SC,Noto Sans CJK SC,sans-serif" font-size="15" font-weight="400" fill="#30332e">0</text>
<line x1="676" y1="387.8" x2="683" y2="387.8" stroke="#30332e"/>
<text x="671.0" y="392.8" text-anchor="end" font-family="-apple-system,BlinkMacSystemFont,PingFang SC,Noto Sans CJK SC,sans-serif" font-size="15" font-weight="400" fill="#30332e">3.5</text>
<line x1="676" y1="278.5" x2="683" y2="278.5" stroke="#30332e"/>
<text x="671.0" y="283.5" text-anchor="end" font-family="-apple-system,BlinkMacSystemFont,PingFang SC,Noto Sans CJK SC,sans-serif" font-size="15" font-weight="400" fill="#30332e">7</text>
<line x1="676" y1="169.2" x2="683" y2="169.2" stroke="#30332e"/>
<text x="671.0" y="174.2" text-anchor="end" font-family="-apple-system,BlinkMacSystemFont,PingFang SC,Noto Sans CJK SC,sans-serif" font-size="15" font-weight="400" fill="#30332e">10.5</text>
<line x1="676" y1="60.0" x2="683" y2="60.0" stroke="#30332e"/>
<text x="671.0" y="65.0" text-anchor="end" font-family="-apple-system,BlinkMacSystemFont,PingFang SC,Noto Sans CJK SC,sans-serif" font-size="15" font-weight="400" fill="#30332e">14</text>
<line x1="683" y1="497" x2="1148" y2="497" stroke="#30332e" stroke-width="1.5"/>
<line x1="683" y1="497" x2="683" y2="60" stroke="#30332e" stroke-width="1.5"/>
<text x="915.5" y="549.0" text-anchor="middle" font-family="-apple-system,BlinkMacSystemFont,PingFang SC,Noto Sans CJK SC,sans-serif" font-size="18" font-weight="400" fill="#30332e">处理之间的先验绝对差异</text>
<text x="635.0" y="278.5" text-anchor="middle" font-family="-apple-system,BlinkMacSystemFont,PingFang SC,Noto Sans CJK SC,sans-serif" font-size="18" font-weight="400" fill="#30332e" transform="rotate(-90 635 278.5)">概率密度</text>
<polyline points="684.3,60.0 686.9,138.6 689.5,251.2 692.0,338.4 694.6,418.0 697.2,433.8 699.8,442.8 702.4,449.1 705.0,453.8 707.5,457.7 710.1,461.2 712.7,463.9 715.3,466.4 717.9,468.4 720.5,470.0 723.0,471.5 725.6,472.8 728.2,473.8 730.8,474.8 733.4,475.8 736.0,476.7 738.5,477.6 741.1,478.3 743.7,478.9 746.3,479.4 748.9,479.8 751.5,480.1 754.0,480.5 756.6,480.9 759.2,481.4 761.8,482.0 764.4,482.4 767.0,482.6 769.5,482.8 772.1,482.8 774.7,483.1 777.3,483.3 779.9,483.5 782.5,483.7 785.0,483.7 787.6,483.9 790.2,484.2 792.8,484.4 795.4,484.7 798.0,485.0 800.5,485.2 803.1,485.4 805.7,485.6 808.3,485.7 810.9,485.7 813.5,485.8 816.0,485.9 818.6,486.1 821.2,486.3 823.8,486.4 826.4,486.4 829.0,486.4 831.5,486.4 834.1,486.3 836.7,486.4 839.3,486.4 841.9,486.5 844.5,486.7 847.0,486.9 849.6,487.1 852.2,487.2 854.8,487.3 857.4,487.3 860.0,487.4 862.5,487.4 865.1,487.4 867.7,487.4 870.3,487.3 872.9,487.3 875.5,487.3 878.0,487.3 880.6,487.3 883.2,487.3 885.8,487.3 888.4,487.4 891.0,487.5 893.5,487.6 896.1,487.7 898.7,487.7 901.3,487.7 903.9,487.8 906.5,487.8 909.0,487.9 911.6,487.8 914.2,487.7 916.8,487.7 919.4,487.7 922.0,487.7 924.5,487.7 927.1,487.6 929.7,487.5 932.3,487.6 934.9,487.7 937.5,487.8 940.0,487.9 942.6,487.9 945.2,488.0 947.8,487.8 950.4,487.6 953.0,487.4 955.5,487.1 958.1,487.1 960.7,487.1 963.3,487.2 965.9,487.3 968.5,487.4 971.0,487.6 973.6,487.6 976.2,487.7 978.8,487.6 981.4,487.4 984.0,487.3 986.5,487.1 989.1,486.9 991.7,486.8 994.3,486.7 996.9,486.6 999.5,486.6 1002.0,486.5 1004.6,486.4 1007.2,486.4 1009.8,486.3 1012.4,486.2 1015.0,486.2 1017.5,486.1 1020.1,485.9 1022.7,485.8 1025.3,485.7 1027.9,485.5 1030.5,485.2 1033.0,485.0 1035.6,484.6 1038.2,484.4 1040.8,484.4 1043.4,484.5 1046.0,484.5 1048.5,484.4 1051.1,484.1 1053.7,483.7 1056.3,483.3 1058.9,483.0 1061.5,483.0 1064.0,483.0 1066.6,483.0 1069.2,482.8 1071.8,482.5 1074.4,482.0 1077.0,481.4 1079.5,480.9 1082.1,480.1 1084.7,479.4 1087.3,478.9 1089.9,478.2 1092.5,477.8 1095.0,477.4 1097.6,476.7 1100.2,476.0 1102.8,475.0 1105.4,473.8 1108.0,472.6 1110.5,471.2 1113.1,469.5 1115.7,467.5 1118.3,465.3 1120.9,462.7 1123.5,459.8 1126.0,456.2 1128.6,451.4 1131.2,445.1 1133.8,435.9 1136.4,420.8 1139.0,350.1 1141.5,273.1 1144.1,174.2 1146.7,60.0" fill="none" stroke="#111" stroke-width="3" stroke-linejoin="round"/>
<polyline points="684.3,221.9 686.9,230.5 689.5,240.8 692.0,252.0 694.6,265.6 697.2,278.2 699.8,289.9 702.4,300.8 705.0,310.7 707.5,319.4 710.1,326.7 712.7,334.0 715.3,340.7 717.9,347.4 720.5,354.3 723.0,360.4 725.6,366.7 728.2,372.6 730.8,378.1 733.4,383.6 736.0,388.8 738.5,393.9 741.1,399.0 743.7,403.8 746.3,408.3 748.9,412.6 751.5,416.4 754.0,420.1 756.6,423.8 759.2,427.1 761.8,430.6 764.4,434.1 767.0,437.5 769.5,441.2 772.1,444.5 774.7,447.5 777.3,450.1 779.9,452.4 782.5,454.6 785.0,457.0 787.6,459.5 790.2,462.0 792.8,464.1 795.4,465.7 798.0,467.2 800.5,468.6 803.1,470.2 805.7,472.0 808.3,473.8 810.9,475.4 813.5,476.9 816.0,478.2 818.6,479.4 821.2,480.6 823.8,481.9 826.4,482.9 829.0,484.0 831.5,484.9 834.1,485.7 836.7,486.5 839.3,487.3 841.9,488.1 844.5,488.9 847.0,489.5 849.6,490.2 852.2,490.7 854.8,491.2 857.4,491.7 860.0,492.2 862.5,492.5 865.1,492.9 867.7,493.2 870.3,493.4 872.9,493.8 875.5,494.1 878.0,494.5 880.6,494.9 883.2,495.2 885.8,495.4 888.4,495.4 891.0,495.5 893.5,495.6 896.1,495.7 898.7,495.9 901.3,496.0 903.9,496.1 906.5,496.3 909.0,496.3 911.6,496.4 914.2,496.5 916.8,496.5 919.4,496.6 922.0,496.7 924.5,496.7 927.1,496.7 929.7,496.8 932.3,496.8 934.9,496.8 937.5,496.8 940.0,496.9 942.6,496.9 945.2,496.9 947.8,496.9 950.4,496.9 953.0,496.9 955.5,496.9 958.1,496.9 960.7,497.0 963.3,497.0 965.9,497.0 968.5,497.0 971.0,497.0 973.6,497.0 976.2,497.0 978.8,497.0 981.4,497.0 984.0,497.0 986.5,497.0 989.1,497.0 991.7,497.0 994.3,497.0 996.9,497.0 999.5,497.0 1002.0,497.0 1004.6,497.0 1007.2,497.0 1009.8,497.0 1012.4,497.0 1015.0,497.0 1017.5,497.0 1020.1,497.0 1022.7,497.0 1025.3,497.0 1027.9,497.0 1030.5,497.0 1033.0,497.0 1035.6,497.0 1038.2,497.0 1040.8,497.0 1043.4,497.0 1046.0,497.0 1048.5,497.0 1051.1,497.0 1053.7,497.0 1056.3,497.0 1058.9,497.0 1061.5,497.0 1064.0,497.0 1066.6,497.0 1069.2,497.0 1071.8,497.0 1074.4,497.0 1077.0,497.0 1079.5,497.0 1082.1,497.0 1084.7,497.0 1087.3,497.0 1089.9,497.0 1092.5,497.0 1095.0,497.0 1097.6,497.0 1100.2,497.0 1102.8,497.0 1105.4,497.0 1108.0,497.0 1110.5,497.0 1113.1,497.0 1115.7,497.0 1118.3,497.0 1120.9,497.0 1123.5,497.0 1126.0,497.0 1128.6,497.0 1131.2,497.0 1133.8,497.0 1136.4,497.0 1139.0,497.0 1141.5,497.0 1144.1,497.0 1146.7,497.0" fill="none" stroke="#6670ee" stroke-width="4" stroke-linejoin="round"/>
<text x="883.0" y="206.7" text-anchor="start" font-family="-apple-system,BlinkMacSystemFont,PingFang SC,Noto Sans CJK SC,sans-serif" font-size="18" font-weight="400" fill="#111">β ∼ Normal(0, 10)</text>
<text x="762.0" y="316.0" text-anchor="start" font-family="-apple-system,BlinkMacSystemFont,PingFang SC,Noto Sans CJK SC,sans-serif" font-size="18" font-weight="400" fill="#6670ee">β ∼ Normal(0, 0.5)</text>
</svg>
