<?xml version="1.0" encoding="UTF-8"?>
<svg xmlns="http://www.w3.org/2000/svg" width="900" height="620" viewBox="0 0 900 620" role="img">
<title>近似分布 q 相对于真实分布 p 的信息散度</title>
<desc>当 q 的第一个概率等于 p 的 0.3 时散度为零；向两侧偏离时散度均增大。</desc>
<rect width="100%" height="100%" fill="#fff"/>
<rect x="120" y="70" width="690" height="430" fill="#fff" stroke="#343732" stroke-width="1.5"/>
<polyline points="126.9,373.8 129.72,390 132.53,401.92 135.35,411.32 138.17,419.05 140.99,425.59 143.81,431.24 146.62,436.2 149.44,440.62 152.26,444.58 155.07,448.17 157.89,451.44 160.71,454.44 163.53,457.2 166.34,459.76 169.16,462.14 171.98,464.35 174.8,466.42 177.62,468.35 180.43,470.17 183.25,471.88 186.07,473.49 188.88,475.01 191.7,476.44 194.52,477.8 197.34,479.08 200.16,480.3 202.97,481.46 205.79,482.55 208.61,483.6 211.43,484.59 214.24,485.53 217.06,486.42 219.88,487.28 222.69,488.09 225.51,488.86 228.33,489.59 231.15,490.29 233.97,490.96 236.78,491.59 239.6,492.19 242.42,492.76 245.24,493.3 248.05,493.82 250.87,494.3 253.69,494.77 256.5,495.21 259.32,495.62 262.14,496.01 264.96,496.38 267.77,496.73 270.59,497.06 273.41,497.37 276.23,497.65 279.05,497.92 281.86,498.17 284.68,498.41 287.5,498.62 290.31,498.82 293.13,499 295.95,499.17 298.77,499.31 301.59,499.45 304.4,499.57 307.22,499.67 310.04,499.76 312.86,499.83 315.67,499.89 318.49,499.94 321.31,499.97 324.12,499.99 326.94,500 329.76,499.99 332.58,499.98 335.39,499.94 338.21,499.9 341.03,499.84 343.85,499.78 346.67,499.7 349.48,499.61 352.3,499.5 355.12,499.39 357.94,499.26 360.75,499.12 363.57,498.98 366.39,498.82 369.21,498.65 372.02,498.47 374.84,498.27 377.66,498.07 380.48,497.86 383.29,497.63 386.11,497.4 388.93,497.16 391.75,496.9 394.56,496.63 397.38,496.36 400.2,496.07 403.01,495.78 405.83,495.47 408.65,495.15 411.47,494.82 414.28,494.49 417.1,494.14 419.92,493.78 422.74,493.41 425.55,493.03 428.37,492.65 431.19,492.25 434.01,491.84 436.82,491.42 439.64,490.99 442.46,490.55 445.28,490.1 448.09,489.64 450.91,489.16 453.73,488.68 456.55,488.19 459.37,487.69 462.18,487.17 465,486.65 467.82,486.11 470.63,485.57 473.45,485.01 476.27,484.44 479.09,483.86 481.91,483.27 484.72,482.67 487.54,482.05 490.36,481.43 493.17,480.79 495.99,480.14 498.81,479.48 501.63,478.81 504.45,478.13 507.26,477.43 510.08,476.72 512.9,476 515.72,475.27 518.53,474.52 521.35,473.76 524.17,472.98 526.99,472.2 529.8,471.4 532.62,470.58 535.44,469.75 538.25,468.91 541.07,468.05 543.89,467.18 546.71,466.3 549.53,465.39 552.34,464.48 555.16,463.54 557.98,462.6 560.79,461.63 563.61,460.65 566.43,459.65 569.25,458.64 572.07,457.6 574.88,456.55 577.7,455.48 580.52,454.4 583.34,453.29 586.15,452.16 588.97,451.02 591.79,449.85 594.61,448.67 597.42,447.46 600.24,446.23 603.06,444.98 605.88,443.71 608.69,442.41 611.51,441.09 614.33,439.74 617.14,438.37 619.96,436.97 622.78,435.55 625.6,434.1 628.41,432.62 631.23,431.12 634.05,429.58 636.87,428.01 639.68,426.41 642.5,424.78 645.32,423.12 648.14,421.42 650.95,419.68 653.77,417.91 656.59,416.1 659.41,414.25 662.22,412.35 665.04,410.42 667.86,408.44 670.68,406.42 673.5,404.35 676.31,402.22 679.13,400.05 681.95,397.82 684.76,395.54 687.58,393.2 690.4,390.79 693.22,388.33 696.04,385.79 698.85,383.18 701.67,380.5 704.49,377.75 707.3,374.91 710.12,371.98 712.94,368.96 715.76,365.85 718.57,362.63 721.39,359.3 724.21,355.86 727.03,352.29 729.85,348.59 732.66,344.75 735.48,340.76 738.3,336.61 741.12,332.27 743.93,327.75 746.75,323.02 749.57,318.06 752.38,312.86 755.2,307.38 758.02,301.6 760.84,295.48 763.65,288.99 766.47,282.08 769.29,274.69 772.11,266.76 774.93,258.19 777.74,248.89 780.56,238.71 783.38,227.49 786.2,215 789.01,200.89 791.83,184.72 794.65,165.79 797.47,142.96 800.28,114.25 803.1,75.55" fill="none" stroke="#6670ee" stroke-width="4"/>
<line x1="327" y1="70" x2="327" y2="500" stroke="#454842" stroke-width="1.7" stroke-dasharray="7 6"/>
<text x="340" y="180" font-family="PingFang SC, Noto Sans CJK SC, Microsoft YaHei, sans-serif" font-size="20" fill="#30332e">q = p</text>
<line x1="120" y1="500" x2="120" y2="507" stroke="#343732"/>
<text x="120" y="531" text-anchor="middle" font-family="PingFang SC, Noto Sans CJK SC, Microsoft YaHei, sans-serif" font-size="17">0.0</text>
<line x1="258" y1="500" x2="258" y2="507" stroke="#343732"/>
<text x="258" y="531" text-anchor="middle" font-family="PingFang SC, Noto Sans CJK SC, Microsoft YaHei, sans-serif" font-size="17">0.2</text>
<line x1="396" y1="500" x2="396" y2="507" stroke="#343732"/>
<text x="396" y="531" text-anchor="middle" font-family="PingFang SC, Noto Sans CJK SC, Microsoft YaHei, sans-serif" font-size="17">0.4</text>
<line x1="534" y1="500" x2="534" y2="507" stroke="#343732"/>
<text x="534" y="531" text-anchor="middle" font-family="PingFang SC, Noto Sans CJK SC, Microsoft YaHei, sans-serif" font-size="17">0.6</text>
<line x1="672" y1="500" x2="672" y2="507" stroke="#343732"/>
<text x="672" y="531" text-anchor="middle" font-family="PingFang SC, Noto Sans CJK SC, Microsoft YaHei, sans-serif" font-size="17">0.8</text>
<line x1="810" y1="500" x2="810" y2="507" stroke="#343732"/>
<text x="810" y="531" text-anchor="middle" font-family="PingFang SC, Noto Sans CJK SC, Microsoft YaHei, sans-serif" font-size="17">1.0</text>
<line x1="113" y1="500" x2="120" y2="500" stroke="#343732"/>
<text x="104" y="506" text-anchor="end" font-family="PingFang SC, Noto Sans CJK SC, Microsoft YaHei, sans-serif" font-size="17">0.0</text>
<line x1="113" y1="418.87" x2="120" y2="418.87" stroke="#343732"/>
<text x="104" y="424.87" text-anchor="end" font-family="PingFang SC, Noto Sans CJK SC, Microsoft YaHei, sans-serif" font-size="17">0.5</text>
<line x1="113" y1="337.74" x2="120" y2="337.74" stroke="#343732"/>
<text x="104" y="343.74" text-anchor="end" font-family="PingFang SC, Noto Sans CJK SC, Microsoft YaHei, sans-serif" font-size="17">1.0</text>
<line x1="113" y1="256.6" x2="120" y2="256.6" stroke="#343732"/>
<text x="104" y="262.6" text-anchor="end" font-family="PingFang SC, Noto Sans CJK SC, Microsoft YaHei, sans-serif" font-size="17">1.5</text>
<line x1="113" y1="175.47" x2="120" y2="175.47" stroke="#343732"/>
<text x="104" y="181.47" text-anchor="end" font-family="PingFang SC, Noto Sans CJK SC, Microsoft YaHei, sans-serif" font-size="17">2.0</text>
<line x1="113" y1="94.34" x2="120" y2="94.34" stroke="#343732"/>
<text x="104" y="100.34" text-anchor="end" font-family="PingFang SC, Noto Sans CJK SC, Microsoft YaHei, sans-serif" font-size="17">2.5</text>
<text x="465.0" y="570" text-anchor="middle" font-family="PingFang SC, Noto Sans CJK SC, Microsoft YaHei, sans-serif" font-size="21" font-weight="700" fill="#263f86">q[1]</text>
<text x="38" y="285.0" transform="rotate(-90 38 285.0)" text-anchor="middle" font-family="PingFang SC, Noto Sans CJK SC, Microsoft YaHei, sans-serif" font-size="21" font-weight="700" fill="#263f86">q 相对于 p 的散度</text>
</svg>
