<?xml version="1.0" encoding="UTF-8"?>
<svg xmlns="http://www.w3.org/2000/svg" width="900" height="650" viewBox="0 0 900 650" role="img">
  <title>身高、体重与后验均值回归线</title>
  <desc>成人身高对体重的散点图，以及由后验均值斜率和截距定义的黑色直线。</desc>
  <rect width="100%" height="100%" fill="#ffffff"/>
  <rect x="125" y="55" width="660" height="465" fill="#ffffff" stroke="#333630" stroke-width="2"/>
  <circle cx="400.24" cy="329.6" r="3.4" fill="#ffffff" stroke="#5669ef" stroke-width="1.35" opacity="0.82"/>
  <circle cx="432.86" cy="292.06" r="3.4" fill="#ffffff" stroke="#5669ef" stroke-width="1.35" opacity="0.82"/>
  <circle cx="337.57" cy="323.54" r="3.4" fill="#ffffff" stroke="#5669ef" stroke-width="1.35" opacity="0.82"/>
  <circle cx="427.78" cy="254.04" r="3.4" fill="#ffffff" stroke="#5669ef" stroke-width="1.35" opacity="0.82"/>
  <circle cx="226.58" cy="486.92" r="3.4" fill="#ffffff" stroke="#5669ef" stroke-width="1.35" opacity="0.82"/>
  <circle cx="317.13" cy="329.35" r="3.4" fill="#ffffff" stroke="#5669ef" stroke-width="1.35" opacity="0.82"/>
  <circle cx="598.51" cy="230.42" r="3.4" fill="#ffffff" stroke="#5669ef" stroke-width="1.35" opacity="0.82"/>
  <circle cx="425.67" cy="327.69" r="3.4" fill="#ffffff" stroke="#5669ef" stroke-width="1.35" opacity="0.82"/>
  <circle cx="690.75" cy="230.63" r="3.4" fill="#ffffff" stroke="#5669ef" stroke-width="1.35" opacity="0.82"/>
  <circle cx="666.35" cy="142.68" r="3.4" fill="#ffffff" stroke="#5669ef" stroke-width="1.35" opacity="0.82"/>
  <circle cx="167.81" cy="446.4" r="3.4" fill="#ffffff" stroke="#5669ef" stroke-width="1.35" opacity="0.82"/>
  <circle cx="196.67" cy="385.21" r="3.4" fill="#ffffff" stroke="#5669ef" stroke-width="1.35" opacity="0.82"/>
  <circle cx="284.79" cy="313.33" r="3.4" fill="#ffffff" stroke="#5669ef" stroke-width="1.35" opacity="0.82"/>
  <circle cx="483.38" cy="236.87" r="3.4" fill="#ffffff" stroke="#5669ef" stroke-width="1.35" opacity="0.82"/>
  <circle cx="588.22" cy="215.62" r="3.4" fill="#ffffff" stroke="#5669ef" stroke-width="1.35" opacity="0.82"/>
  <circle cx="415.62" cy="345.59" r="3.4" fill="#ffffff" stroke="#5669ef" stroke-width="1.35" opacity="0.82"/>
  <circle cx="275.89" cy="382.38" r="3.4" fill="#ffffff" stroke="#5669ef" stroke-width="1.35" opacity="0.82"/>
  <circle cx="458.44" cy="337.01" r="3.4" fill="#ffffff" stroke="#5669ef" stroke-width="1.35" opacity="0.82"/>
  <circle cx="383.02" cy="295.69" r="3.4" fill="#ffffff" stroke="#5669ef" stroke-width="1.35" opacity="0.82"/>
  <circle cx="271.47" cy="335.31" r="3.4" fill="#ffffff" stroke="#5669ef" stroke-width="1.35" opacity="0.82"/>
  <circle cx="460.64" cy="290.87" r="3.4" fill="#ffffff" stroke="#5669ef" stroke-width="1.35" opacity="0.82"/>
  <circle cx="536.04" cy="315.77" r="3.4" fill="#ffffff" stroke="#5669ef" stroke-width="1.35" opacity="0.82"/>
  <circle cx="603.2" cy="303.32" r="3.4" fill="#ffffff" stroke="#5669ef" stroke-width="1.35" opacity="0.82"/>
  <circle cx="321.04" cy="375.26" r="3.4" fill="#ffffff" stroke="#5669ef" stroke-width="1.35" opacity="0.82"/>
  <circle cx="313.71" cy="378.9" r="3.4" fill="#ffffff" stroke="#5669ef" stroke-width="1.35" opacity="0.82"/>
  <circle cx="475.24" cy="255.79" r="3.4" fill="#ffffff" stroke="#5669ef" stroke-width="1.35" opacity="0.82"/>
  <circle cx="476.04" cy="315.59" r="3.4" fill="#ffffff" stroke="#5669ef" stroke-width="1.35" opacity="0.82"/>
  <circle cx="559.77" cy="191.88" r="3.4" fill="#ffffff" stroke="#5669ef" stroke-width="1.35" opacity="0.82"/>
  <circle cx="258.09" cy="312.64" r="3.4" fill="#ffffff" stroke="#5669ef" stroke-width="1.35" opacity="0.82"/>
  <circle cx="406.63" cy="260.02" r="3.4" fill="#ffffff" stroke="#5669ef" stroke-width="1.35" opacity="0.82"/>
  <circle cx="534.46" cy="268.38" r="3.4" fill="#ffffff" stroke="#5669ef" stroke-width="1.35" opacity="0.82"/>
  <circle cx="410.72" cy="303.71" r="3.4" fill="#ffffff" stroke="#5669ef" stroke-width="1.35" opacity="0.82"/>
  <circle cx="574.26" cy="299.71" r="3.4" fill="#ffffff" stroke="#5669ef" stroke-width="1.35" opacity="0.82"/>
  <circle cx="298.13" cy="341.66" r="3.4" fill="#ffffff" stroke="#5669ef" stroke-width="1.35" opacity="0.82"/>
  <circle cx="375.91" cy="414.78" r="3.4" fill="#ffffff" stroke="#5669ef" stroke-width="1.35" opacity="0.82"/>
  <circle cx="331.45" cy="326.83" r="3.4" fill="#ffffff" stroke="#5669ef" stroke-width="1.35" opacity="0.82"/>
  <circle cx="416.85" cy="385.38" r="3.4" fill="#ffffff" stroke="#5669ef" stroke-width="1.35" opacity="0.82"/>
  <circle cx="387.45" cy="320.83" r="3.4" fill="#ffffff" stroke="#5669ef" stroke-width="1.35" opacity="0.82"/>
  <circle cx="606.26" cy="220.45" r="3.4" fill="#ffffff" stroke="#5669ef" stroke-width="1.35" opacity="0.82"/>
  <circle cx="534.71" cy="320.35" r="3.4" fill="#ffffff" stroke="#5669ef" stroke-width="1.35" opacity="0.82"/>
  <circle cx="413.4" cy="304.08" r="3.4" fill="#ffffff" stroke="#5669ef" stroke-width="1.35" opacity="0.82"/>
  <circle cx="590.45" cy="327.68" r="3.4" fill="#ffffff" stroke="#5669ef" stroke-width="1.35" opacity="0.82"/>
  <circle cx="308.78" cy="380.67" r="3.4" fill="#ffffff" stroke="#5669ef" stroke-width="1.35" opacity="0.82"/>
  <circle cx="346.8" cy="235.21" r="3.4" fill="#ffffff" stroke="#5669ef" stroke-width="1.35" opacity="0.82"/>
  <circle cx="370.96" cy="330.77" r="3.4" fill="#ffffff" stroke="#5669ef" stroke-width="1.35" opacity="0.82"/>
  <circle cx="472.14" cy="330.96" r="3.4" fill="#ffffff" stroke="#5669ef" stroke-width="1.35" opacity="0.82"/>
  <circle cx="576.32" cy="341.01" r="3.4" fill="#ffffff" stroke="#5669ef" stroke-width="1.35" opacity="0.82"/>
  <circle cx="236.89" cy="387.74" r="3.4" fill="#ffffff" stroke="#5669ef" stroke-width="1.35" opacity="0.82"/>
  <circle cx="428.25" cy="238.31" r="3.4" fill="#ffffff" stroke="#5669ef" stroke-width="1.35" opacity="0.82"/>
  <circle cx="176.2" cy="383.92" r="3.4" fill="#ffffff" stroke="#5669ef" stroke-width="1.35" opacity="0.82"/>
  <circle cx="363.87" cy="311.34" r="3.4" fill="#ffffff" stroke="#5669ef" stroke-width="1.35" opacity="0.82"/>
  <circle cx="433.58" cy="274.02" r="3.4" fill="#ffffff" stroke="#5669ef" stroke-width="1.35" opacity="0.82"/>
  <circle cx="381.32" cy="231.02" r="3.4" fill="#ffffff" stroke="#5669ef" stroke-width="1.35" opacity="0.82"/>
  <circle cx="310.02" cy="299.37" r="3.4" fill="#ffffff" stroke="#5669ef" stroke-width="1.35" opacity="0.82"/>
  <circle cx="585.78" cy="188.75" r="3.4" fill="#ffffff" stroke="#5669ef" stroke-width="1.35" opacity="0.82"/>
  <circle cx="334.11" cy="469.41" r="3.4" fill="#ffffff" stroke="#5669ef" stroke-width="1.35" opacity="0.82"/>
  <circle cx="413.19" cy="408.3" r="3.4" fill="#ffffff" stroke="#5669ef" stroke-width="1.35" opacity="0.82"/>
  <circle cx="338.32" cy="397.77" r="3.4" fill="#ffffff" stroke="#5669ef" stroke-width="1.35" opacity="0.82"/>
  <circle cx="669.52" cy="188.77" r="3.4" fill="#ffffff" stroke="#5669ef" stroke-width="1.35" opacity="0.82"/>
  <circle cx="572.01" cy="214.99" r="3.4" fill="#ffffff" stroke="#5669ef" stroke-width="1.35" opacity="0.82"/>
  <circle cx="409.85" cy="378.92" r="3.4" fill="#ffffff" stroke="#5669ef" stroke-width="1.35" opacity="0.82"/>
  <circle cx="502.22" cy="296.69" r="3.4" fill="#ffffff" stroke="#5669ef" stroke-width="1.35" opacity="0.82"/>
  <circle cx="451.1" cy="323.55" r="3.4" fill="#ffffff" stroke="#5669ef" stroke-width="1.35" opacity="0.82"/>
  <circle cx="518.83" cy="248.2" r="3.4" fill="#ffffff" stroke="#5669ef" stroke-width="1.35" opacity="0.82"/>
  <circle cx="489.19" cy="269.95" r="3.4" fill="#ffffff" stroke="#5669ef" stroke-width="1.35" opacity="0.82"/>
  <circle cx="771.74" cy="132.78" r="3.4" fill="#ffffff" stroke="#5669ef" stroke-width="1.35" opacity="0.82"/>
  <circle cx="451.94" cy="300.39" r="3.4" fill="#ffffff" stroke="#5669ef" stroke-width="1.35" opacity="0.82"/>
  <circle cx="440.46" cy="281.59" r="3.4" fill="#ffffff" stroke="#5669ef" stroke-width="1.35" opacity="0.82"/>
  <circle cx="430.19" cy="413.48" r="3.4" fill="#ffffff" stroke="#5669ef" stroke-width="1.35" opacity="0.82"/>
  <circle cx="531.89" cy="247.18" r="3.4" fill="#ffffff" stroke="#5669ef" stroke-width="1.35" opacity="0.82"/>
  <circle cx="331.13" cy="343.02" r="3.4" fill="#ffffff" stroke="#5669ef" stroke-width="1.35" opacity="0.82"/>
  <circle cx="600.69" cy="138.99" r="3.4" fill="#ffffff" stroke="#5669ef" stroke-width="1.35" opacity="0.82"/>
  <circle cx="635.18" cy="245.19" r="3.4" fill="#ffffff" stroke="#5669ef" stroke-width="1.35" opacity="0.82"/>
  <circle cx="620.52" cy="229.56" r="3.4" fill="#ffffff" stroke="#5669ef" stroke-width="1.35" opacity="0.82"/>
  <circle cx="587.42" cy="270.25" r="3.4" fill="#ffffff" stroke="#5669ef" stroke-width="1.35" opacity="0.82"/>
  <circle cx="336.59" cy="340.4" r="3.4" fill="#ffffff" stroke="#5669ef" stroke-width="1.35" opacity="0.82"/>
  <circle cx="514.09" cy="342.61" r="3.4" fill="#ffffff" stroke="#5669ef" stroke-width="1.35" opacity="0.82"/>
  <circle cx="493.76" cy="240.77" r="3.4" fill="#ffffff" stroke="#5669ef" stroke-width="1.35" opacity="0.82"/>
  <circle cx="484.06" cy="233.2" r="3.4" fill="#ffffff" stroke="#5669ef" stroke-width="1.35" opacity="0.82"/>
  <circle cx="488.54" cy="214.55" r="3.4" fill="#ffffff" stroke="#5669ef" stroke-width="1.35" opacity="0.82"/>
  <circle cx="485.58" cy="339.92" r="3.4" fill="#ffffff" stroke="#5669ef" stroke-width="1.35" opacity="0.82"/>
  <circle cx="489.01" cy="360.06" r="3.4" fill="#ffffff" stroke="#5669ef" stroke-width="1.35" opacity="0.82"/>
  <circle cx="415.86" cy="381.56" r="3.4" fill="#ffffff" stroke="#5669ef" stroke-width="1.35" opacity="0.82"/>
  <circle cx="377.13" cy="356.54" r="3.4" fill="#ffffff" stroke="#5669ef" stroke-width="1.35" opacity="0.82"/>
  <circle cx="268.47" cy="343.6" r="3.4" fill="#ffffff" stroke="#5669ef" stroke-width="1.35" opacity="0.82"/>
  <circle cx="191.76" cy="423.32" r="3.4" fill="#ffffff" stroke="#5669ef" stroke-width="1.35" opacity="0.82"/>
  <circle cx="700.09" cy="132.83" r="3.4" fill="#ffffff" stroke="#5669ef" stroke-width="1.35" opacity="0.82"/>
  <circle cx="674.24" cy="195.3" r="3.4" fill="#ffffff" stroke="#5669ef" stroke-width="1.35" opacity="0.82"/>
  <circle cx="448.32" cy="375.22" r="3.4" fill="#ffffff" stroke="#5669ef" stroke-width="1.35" opacity="0.82"/>
  <circle cx="293.38" cy="384.46" r="3.4" fill="#ffffff" stroke="#5669ef" stroke-width="1.35" opacity="0.82"/>
  <circle cx="283.34" cy="317.85" r="3.4" fill="#ffffff" stroke="#5669ef" stroke-width="1.35" opacity="0.82"/>
  <circle cx="432.26" cy="306.1" r="3.4" fill="#ffffff" stroke="#5669ef" stroke-width="1.35" opacity="0.82"/>
  <circle cx="274.99" cy="338.55" r="3.4" fill="#ffffff" stroke="#5669ef" stroke-width="1.35" opacity="0.82"/>
  <circle cx="433.31" cy="328" r="3.4" fill="#ffffff" stroke="#5669ef" stroke-width="1.35" opacity="0.82"/>
  <circle cx="576.68" cy="232.48" r="3.4" fill="#ffffff" stroke="#5669ef" stroke-width="1.35" opacity="0.82"/>
  <circle cx="410.68" cy="389.25" r="3.4" fill="#ffffff" stroke="#5669ef" stroke-width="1.35" opacity="0.82"/>
  <circle cx="578.79" cy="212.92" r="3.4" fill="#ffffff" stroke="#5669ef" stroke-width="1.35" opacity="0.82"/>
  <circle cx="429.85" cy="281.2" r="3.4" fill="#ffffff" stroke="#5669ef" stroke-width="1.35" opacity="0.82"/>
  <circle cx="513.77" cy="273.99" r="3.4" fill="#ffffff" stroke="#5669ef" stroke-width="1.35" opacity="0.82"/>
  <circle cx="155.8" cy="396.68" r="3.4" fill="#ffffff" stroke="#5669ef" stroke-width="1.35" opacity="0.82"/>
  <circle cx="297.54" cy="357.69" r="3.4" fill="#ffffff" stroke="#5669ef" stroke-width="1.35" opacity="0.82"/>
  <circle cx="462.1" cy="346.95" r="3.4" fill="#ffffff" stroke="#5669ef" stroke-width="1.35" opacity="0.82"/>
  <circle cx="145.94" cy="492.94" r="3.4" fill="#ffffff" stroke="#5669ef" stroke-width="1.35" opacity="0.82"/>
  <circle cx="391.84" cy="353.38" r="3.4" fill="#ffffff" stroke="#5669ef" stroke-width="1.35" opacity="0.82"/>
  <circle cx="548.6" cy="249.69" r="3.4" fill="#ffffff" stroke="#5669ef" stroke-width="1.35" opacity="0.82"/>
  <circle cx="566.66" cy="277.27" r="3.4" fill="#ffffff" stroke="#5669ef" stroke-width="1.35" opacity="0.82"/>
  <circle cx="372.01" cy="353.72" r="3.4" fill="#ffffff" stroke="#5669ef" stroke-width="1.35" opacity="0.82"/>
  <circle cx="427.75" cy="251.13" r="3.4" fill="#ffffff" stroke="#5669ef" stroke-width="1.35" opacity="0.82"/>
  <circle cx="495.93" cy="267.69" r="3.4" fill="#ffffff" stroke="#5669ef" stroke-width="1.35" opacity="0.82"/>
  <circle cx="372.85" cy="310.82" r="3.4" fill="#ffffff" stroke="#5669ef" stroke-width="1.35" opacity="0.82"/>
  <circle cx="461.28" cy="242.66" r="3.4" fill="#ffffff" stroke="#5669ef" stroke-width="1.35" opacity="0.82"/>
  <circle cx="286.27" cy="367.87" r="3.4" fill="#ffffff" stroke="#5669ef" stroke-width="1.35" opacity="0.82"/>
  <circle cx="609.91" cy="205.3" r="3.4" fill="#ffffff" stroke="#5669ef" stroke-width="1.35" opacity="0.82"/>
  <circle cx="516.58" cy="265.67" r="3.4" fill="#ffffff" stroke="#5669ef" stroke-width="1.35" opacity="0.82"/>
  <circle cx="372.89" cy="331.8" r="3.4" fill="#ffffff" stroke="#5669ef" stroke-width="1.35" opacity="0.82"/>
  <circle cx="431.23" cy="283.94" r="3.4" fill="#ffffff" stroke="#5669ef" stroke-width="1.35" opacity="0.82"/>
  <circle cx="412.52" cy="220.91" r="3.4" fill="#ffffff" stroke="#5669ef" stroke-width="1.35" opacity="0.82"/>
  <circle cx="411.85" cy="368.37" r="3.4" fill="#ffffff" stroke="#5669ef" stroke-width="1.35" opacity="0.82"/>
  <circle cx="446.79" cy="347.05" r="3.4" fill="#ffffff" stroke="#5669ef" stroke-width="1.35" opacity="0.82"/>
  <circle cx="594.06" cy="271" r="3.4" fill="#ffffff" stroke="#5669ef" stroke-width="1.35" opacity="0.82"/>
  <circle cx="511.92" cy="320.45" r="3.4" fill="#ffffff" stroke="#5669ef" stroke-width="1.35" opacity="0.82"/>
  <circle cx="223.94" cy="416.4" r="3.4" fill="#ffffff" stroke="#5669ef" stroke-width="1.35" opacity="0.82"/>
  <circle cx="507.09" cy="302.28" r="3.4" fill="#ffffff" stroke="#5669ef" stroke-width="1.35" opacity="0.82"/>
  <circle cx="476.52" cy="298.36" r="3.4" fill="#ffffff" stroke="#5669ef" stroke-width="1.35" opacity="0.82"/>
  <circle cx="303.14" cy="382.95" r="3.4" fill="#ffffff" stroke="#5669ef" stroke-width="1.35" opacity="0.82"/>
  <circle cx="477.08" cy="300.99" r="3.4" fill="#ffffff" stroke="#5669ef" stroke-width="1.35" opacity="0.82"/>
  <circle cx="369" cy="339.43" r="3.4" fill="#ffffff" stroke="#5669ef" stroke-width="1.35" opacity="0.82"/>
  <circle cx="147.98" cy="391.54" r="3.4" fill="#ffffff" stroke="#5669ef" stroke-width="1.35" opacity="0.82"/>
  <circle cx="436.15" cy="297.63" r="3.4" fill="#ffffff" stroke="#5669ef" stroke-width="1.35" opacity="0.82"/>
  <circle cx="521.74" cy="305.79" r="3.4" fill="#ffffff" stroke="#5669ef" stroke-width="1.35" opacity="0.82"/>
  <circle cx="442.62" cy="356.45" r="3.4" fill="#ffffff" stroke="#5669ef" stroke-width="1.35" opacity="0.82"/>
  <circle cx="372.28" cy="422.05" r="3.4" fill="#ffffff" stroke="#5669ef" stroke-width="1.35" opacity="0.82"/>
  <circle cx="422.44" cy="324.29" r="3.4" fill="#ffffff" stroke="#5669ef" stroke-width="1.35" opacity="0.82"/>
  <circle cx="593.1" cy="323.79" r="3.4" fill="#ffffff" stroke="#5669ef" stroke-width="1.35" opacity="0.82"/>
  <circle cx="194.39" cy="424.48" r="3.4" fill="#ffffff" stroke="#5669ef" stroke-width="1.35" opacity="0.82"/>
  <circle cx="225.88" cy="380.04" r="3.4" fill="#ffffff" stroke="#5669ef" stroke-width="1.35" opacity="0.82"/>
  <circle cx="408.77" cy="256.9" r="3.4" fill="#ffffff" stroke="#5669ef" stroke-width="1.35" opacity="0.82"/>
  <circle cx="557.53" cy="259.51" r="3.4" fill="#ffffff" stroke="#5669ef" stroke-width="1.35" opacity="0.82"/>
  <circle cx="613.27" cy="237.16" r="3.4" fill="#ffffff" stroke="#5669ef" stroke-width="1.35" opacity="0.82"/>
  <circle cx="475.64" cy="294.95" r="3.4" fill="#ffffff" stroke="#5669ef" stroke-width="1.35" opacity="0.82"/>
  <circle cx="371.87" cy="372.5" r="3.4" fill="#ffffff" stroke="#5669ef" stroke-width="1.35" opacity="0.82"/>
  <circle cx="441.82" cy="375.93" r="3.4" fill="#ffffff" stroke="#5669ef" stroke-width="1.35" opacity="0.82"/>
  <circle cx="258.33" cy="386.54" r="3.4" fill="#ffffff" stroke="#5669ef" stroke-width="1.35" opacity="0.82"/>
  <circle cx="618.67" cy="176.07" r="3.4" fill="#ffffff" stroke="#5669ef" stroke-width="1.35" opacity="0.82"/>
  <circle cx="527.88" cy="294.02" r="3.4" fill="#ffffff" stroke="#5669ef" stroke-width="1.35" opacity="0.82"/>
  <circle cx="402.12" cy="301.88" r="3.4" fill="#ffffff" stroke="#5669ef" stroke-width="1.35" opacity="0.82"/>
  <circle cx="360.88" cy="313.39" r="3.4" fill="#ffffff" stroke="#5669ef" stroke-width="1.35" opacity="0.82"/>
  <circle cx="479.07" cy="367.97" r="3.4" fill="#ffffff" stroke="#5669ef" stroke-width="1.35" opacity="0.82"/>
  <circle cx="639.79" cy="178.07" r="3.4" fill="#ffffff" stroke="#5669ef" stroke-width="1.35" opacity="0.82"/>
  <circle cx="336.96" cy="394.87" r="3.4" fill="#ffffff" stroke="#5669ef" stroke-width="1.35" opacity="0.82"/>
  <circle cx="598.12" cy="291.49" r="3.4" fill="#ffffff" stroke="#5669ef" stroke-width="1.35" opacity="0.82"/>
  <circle cx="338.19" cy="389.36" r="3.4" fill="#ffffff" stroke="#5669ef" stroke-width="1.35" opacity="0.82"/>
  <circle cx="407.31" cy="322.45" r="3.4" fill="#ffffff" stroke="#5669ef" stroke-width="1.35" opacity="0.82"/>
  <circle cx="560.83" cy="214.55" r="3.4" fill="#ffffff" stroke="#5669ef" stroke-width="1.35" opacity="0.82"/>
  <circle cx="327.8" cy="373.71" r="3.4" fill="#ffffff" stroke="#5669ef" stroke-width="1.35" opacity="0.82"/>
  <circle cx="573.53" cy="291.08" r="3.4" fill="#ffffff" stroke="#5669ef" stroke-width="1.35" opacity="0.82"/>
  <circle cx="466.25" cy="382.96" r="3.4" fill="#ffffff" stroke="#5669ef" stroke-width="1.35" opacity="0.82"/>
  <circle cx="625.62" cy="133.37" r="3.4" fill="#ffffff" stroke="#5669ef" stroke-width="1.35" opacity="0.82"/>
  <circle cx="289.63" cy="380.99" r="3.4" fill="#ffffff" stroke="#5669ef" stroke-width="1.35" opacity="0.82"/>
  <circle cx="294.84" cy="401.91" r="3.4" fill="#ffffff" stroke="#5669ef" stroke-width="1.35" opacity="0.82"/>
  <circle cx="472.84" cy="297.33" r="3.4" fill="#ffffff" stroke="#5669ef" stroke-width="1.35" opacity="0.82"/>
  <circle cx="656.84" cy="299.25" r="3.4" fill="#ffffff" stroke="#5669ef" stroke-width="1.35" opacity="0.82"/>
  <circle cx="273.17" cy="302.54" r="3.4" fill="#ffffff" stroke="#5669ef" stroke-width="1.35" opacity="0.82"/>
  <circle cx="540.01" cy="303.35" r="3.4" fill="#ffffff" stroke="#5669ef" stroke-width="1.35" opacity="0.82"/>
  <circle cx="463.29" cy="347.71" r="3.4" fill="#ffffff" stroke="#5669ef" stroke-width="1.35" opacity="0.82"/>
  <circle cx="557.44" cy="313.09" r="3.4" fill="#ffffff" stroke="#5669ef" stroke-width="1.35" opacity="0.82"/>
  <circle cx="424.03" cy="313.89" r="3.4" fill="#ffffff" stroke="#5669ef" stroke-width="1.35" opacity="0.82"/>
  <circle cx="461.86" cy="241.35" r="3.4" fill="#ffffff" stroke="#5669ef" stroke-width="1.35" opacity="0.82"/>
  <circle cx="445.28" cy="294.71" r="3.4" fill="#ffffff" stroke="#5669ef" stroke-width="1.35" opacity="0.82"/>
  <circle cx="420.14" cy="283.18" r="3.4" fill="#ffffff" stroke="#5669ef" stroke-width="1.35" opacity="0.82"/>
  <circle cx="313.76" cy="401.73" r="3.4" fill="#ffffff" stroke="#5669ef" stroke-width="1.35" opacity="0.82"/>
  <circle cx="324.88" cy="361.88" r="3.4" fill="#ffffff" stroke="#5669ef" stroke-width="1.35" opacity="0.82"/>
  <circle cx="406.34" cy="324.35" r="3.4" fill="#ffffff" stroke="#5669ef" stroke-width="1.35" opacity="0.82"/>
  <circle cx="538.39" cy="235.01" r="3.4" fill="#ffffff" stroke="#5669ef" stroke-width="1.35" opacity="0.82"/>
  <circle cx="468.42" cy="335.02" r="3.4" fill="#ffffff" stroke="#5669ef" stroke-width="1.35" opacity="0.82"/>
  <circle cx="553.44" cy="334.59" r="3.4" fill="#ffffff" stroke="#5669ef" stroke-width="1.35" opacity="0.82"/>
  <circle cx="525.17" cy="301.6" r="3.4" fill="#ffffff" stroke="#5669ef" stroke-width="1.35" opacity="0.82"/>
  <circle cx="513.79" cy="400.82" r="3.4" fill="#ffffff" stroke="#5669ef" stroke-width="1.35" opacity="0.82"/>
  <circle cx="663.14" cy="201.59" r="3.4" fill="#ffffff" stroke="#5669ef" stroke-width="1.35" opacity="0.82"/>
  <circle cx="438.04" cy="285.87" r="3.4" fill="#ffffff" stroke="#5669ef" stroke-width="1.35" opacity="0.82"/>
  <circle cx="599.07" cy="273.63" r="3.4" fill="#ffffff" stroke="#5669ef" stroke-width="1.35" opacity="0.82"/>
  <circle cx="434.94" cy="325.36" r="3.4" fill="#ffffff" stroke="#5669ef" stroke-width="1.35" opacity="0.82"/>
  <circle cx="524.01" cy="285.53" r="3.4" fill="#ffffff" stroke="#5669ef" stroke-width="1.35" opacity="0.82"/>
  <circle cx="362" cy="354.31" r="3.4" fill="#ffffff" stroke="#5669ef" stroke-width="1.35" opacity="0.82"/>
  <circle cx="187.42" cy="459.21" r="3.4" fill="#ffffff" stroke="#5669ef" stroke-width="1.35" opacity="0.82"/>
  <circle cx="149.37" cy="409.41" r="3.4" fill="#ffffff" stroke="#5669ef" stroke-width="1.35" opacity="0.82"/>
  <circle cx="455.79" cy="248.4" r="3.4" fill="#ffffff" stroke="#5669ef" stroke-width="1.35" opacity="0.82"/>
  <circle cx="487.86" cy="261.03" r="3.4" fill="#ffffff" stroke="#5669ef" stroke-width="1.35" opacity="0.82"/>
  <circle cx="360.76" cy="398.21" r="3.4" fill="#ffffff" stroke="#5669ef" stroke-width="1.35" opacity="0.82"/>
  <circle cx="376.16" cy="226.03" r="3.4" fill="#ffffff" stroke="#5669ef" stroke-width="1.35" opacity="0.82"/>
  <circle cx="620" cy="211.74" r="3.4" fill="#ffffff" stroke="#5669ef" stroke-width="1.35" opacity="0.82"/>
  <circle cx="312.27" cy="379.12" r="3.4" fill="#ffffff" stroke="#5669ef" stroke-width="1.35" opacity="0.82"/>
  <circle cx="354.42" cy="369.61" r="3.4" fill="#ffffff" stroke="#5669ef" stroke-width="1.35" opacity="0.82"/>
  <circle cx="447.58" cy="351.65" r="3.4" fill="#ffffff" stroke="#5669ef" stroke-width="1.35" opacity="0.82"/>
  <circle cx="341.16" cy="295.81" r="3.4" fill="#ffffff" stroke="#5669ef" stroke-width="1.35" opacity="0.82"/>
  <circle cx="182.39" cy="494.73" r="3.4" fill="#ffffff" stroke="#5669ef" stroke-width="1.35" opacity="0.82"/>
  <circle cx="487.35" cy="252.21" r="3.4" fill="#ffffff" stroke="#5669ef" stroke-width="1.35" opacity="0.82"/>
  <circle cx="438.16" cy="208.41" r="3.4" fill="#ffffff" stroke="#5669ef" stroke-width="1.35" opacity="0.82"/>
  <circle cx="468.02" cy="329.24" r="3.4" fill="#ffffff" stroke="#5669ef" stroke-width="1.35" opacity="0.82"/>
  <circle cx="526.36" cy="319.22" r="3.4" fill="#ffffff" stroke="#5669ef" stroke-width="1.35" opacity="0.82"/>
  <circle cx="601.1" cy="179.91" r="3.4" fill="#ffffff" stroke="#5669ef" stroke-width="1.35" opacity="0.82"/>
  <circle cx="421.59" cy="325.72" r="3.4" fill="#ffffff" stroke="#5669ef" stroke-width="1.35" opacity="0.82"/>
  <circle cx="497" cy="333.39" r="3.4" fill="#ffffff" stroke="#5669ef" stroke-width="1.35" opacity="0.82"/>
  <circle cx="462.73" cy="304.13" r="3.4" fill="#ffffff" stroke="#5669ef" stroke-width="1.35" opacity="0.82"/>
  <circle cx="375.91" cy="351.58" r="3.4" fill="#ffffff" stroke="#5669ef" stroke-width="1.35" opacity="0.82"/>
  <circle cx="539.6" cy="311.37" r="3.4" fill="#ffffff" stroke="#5669ef" stroke-width="1.35" opacity="0.82"/>
  <circle cx="301.4" cy="293.47" r="3.4" fill="#ffffff" stroke="#5669ef" stroke-width="1.35" opacity="0.82"/>
  <circle cx="597.82" cy="194.91" r="3.4" fill="#ffffff" stroke="#5669ef" stroke-width="1.35" opacity="0.82"/>
  <circle cx="520.72" cy="277.14" r="3.4" fill="#ffffff" stroke="#5669ef" stroke-width="1.35" opacity="0.82"/>
  <circle cx="546.16" cy="287.95" r="3.4" fill="#ffffff" stroke="#5669ef" stroke-width="1.35" opacity="0.82"/>
  <circle cx="359.61" cy="304.51" r="3.4" fill="#ffffff" stroke="#5669ef" stroke-width="1.35" opacity="0.82"/>
  <circle cx="618.15" cy="228.49" r="3.4" fill="#ffffff" stroke="#5669ef" stroke-width="1.35" opacity="0.82"/>
  <circle cx="279.85" cy="338.44" r="3.4" fill="#ffffff" stroke="#5669ef" stroke-width="1.35" opacity="0.82"/>
  <circle cx="394.72" cy="343.06" r="3.4" fill="#ffffff" stroke="#5669ef" stroke-width="1.35" opacity="0.82"/>
  <circle cx="431.49" cy="241.89" r="3.4" fill="#ffffff" stroke="#5669ef" stroke-width="1.35" opacity="0.82"/>
  <circle cx="413.7" cy="348.74" r="3.4" fill="#ffffff" stroke="#5669ef" stroke-width="1.35" opacity="0.82"/>
  <circle cx="722.12" cy="188.97" r="3.4" fill="#ffffff" stroke="#5669ef" stroke-width="1.35" opacity="0.82"/>
  <circle cx="675.46" cy="246.24" r="3.4" fill="#ffffff" stroke="#5669ef" stroke-width="1.35" opacity="0.82"/>
  <circle cx="275.27" cy="444.32" r="3.4" fill="#ffffff" stroke="#5669ef" stroke-width="1.35" opacity="0.82"/>
  <circle cx="232.65" cy="472.31" r="3.4" fill="#ffffff" stroke="#5669ef" stroke-width="1.35" opacity="0.82"/>
  <circle cx="455.77" cy="303.23" r="3.4" fill="#ffffff" stroke="#5669ef" stroke-width="1.35" opacity="0.82"/>
  <circle cx="346.32" cy="469.83" r="3.4" fill="#ffffff" stroke="#5669ef" stroke-width="1.35" opacity="0.82"/>
  <circle cx="331.8" cy="401.31" r="3.4" fill="#ffffff" stroke="#5669ef" stroke-width="1.35" opacity="0.82"/>
  <circle cx="220.38" cy="404.99" r="3.4" fill="#ffffff" stroke="#5669ef" stroke-width="1.35" opacity="0.82"/>
  <circle cx="496.24" cy="299.54" r="3.4" fill="#ffffff" stroke="#5669ef" stroke-width="1.35" opacity="0.82"/>
  <circle cx="281.01" cy="392.02" r="3.4" fill="#ffffff" stroke="#5669ef" stroke-width="1.35" opacity="0.82"/>
  <circle cx="277.36" cy="351.68" r="3.4" fill="#ffffff" stroke="#5669ef" stroke-width="1.35" opacity="0.82"/>
  <circle cx="494.94" cy="379.35" r="3.4" fill="#ffffff" stroke="#5669ef" stroke-width="1.35" opacity="0.82"/>
  <circle cx="514.08" cy="294.26" r="3.4" fill="#ffffff" stroke="#5669ef" stroke-width="1.35" opacity="0.82"/>
  <circle cx="759.76" cy="259.52" r="3.4" fill="#ffffff" stroke="#5669ef" stroke-width="1.35" opacity="0.82"/>
  <circle cx="694.68" cy="207.73" r="3.4" fill="#ffffff" stroke="#5669ef" stroke-width="1.35" opacity="0.82"/>
  <circle cx="333.5" cy="319.46" r="3.4" fill="#ffffff" stroke="#5669ef" stroke-width="1.35" opacity="0.82"/>
  <circle cx="183.11" cy="468.12" r="3.4" fill="#ffffff" stroke="#5669ef" stroke-width="1.35" opacity="0.82"/>
  <circle cx="445.15" cy="273.25" r="3.4" fill="#ffffff" stroke="#5669ef" stroke-width="1.35" opacity="0.82"/>
  <circle cx="629.58" cy="216.23" r="3.4" fill="#ffffff" stroke="#5669ef" stroke-width="1.35" opacity="0.82"/>
  <circle cx="549.69" cy="258.6" r="3.4" fill="#ffffff" stroke="#5669ef" stroke-width="1.35" opacity="0.82"/>
  <circle cx="277.17" cy="337.59" r="3.4" fill="#ffffff" stroke="#5669ef" stroke-width="1.35" opacity="0.82"/>
  <circle cx="533.94" cy="279.81" r="3.4" fill="#ffffff" stroke="#5669ef" stroke-width="1.35" opacity="0.82"/>
  <circle cx="389.02" cy="260.06" r="3.4" fill="#ffffff" stroke="#5669ef" stroke-width="1.35" opacity="0.82"/>
  <circle cx="512.16" cy="229.71" r="3.4" fill="#ffffff" stroke="#5669ef" stroke-width="1.35" opacity="0.82"/>
  <circle cx="701.81" cy="264.92" r="3.4" fill="#ffffff" stroke="#5669ef" stroke-width="1.35" opacity="0.82"/>
  <circle cx="568.49" cy="228.5" r="3.4" fill="#ffffff" stroke="#5669ef" stroke-width="1.35" opacity="0.82"/>
  <circle cx="661.95" cy="203.41" r="3.4" fill="#ffffff" stroke="#5669ef" stroke-width="1.35" opacity="0.82"/>
  <circle cx="559.07" cy="238.14" r="3.4" fill="#ffffff" stroke="#5669ef" stroke-width="1.35" opacity="0.82"/>
  <circle cx="408.62" cy="265.74" r="3.4" fill="#ffffff" stroke="#5669ef" stroke-width="1.35" opacity="0.82"/>
  <circle cx="332.22" cy="395.76" r="3.4" fill="#ffffff" stroke="#5669ef" stroke-width="1.35" opacity="0.82"/>
  <circle cx="394.8" cy="401.27" r="3.4" fill="#ffffff" stroke="#5669ef" stroke-width="1.35" opacity="0.82"/>
  <circle cx="597.62" cy="209.49" r="3.4" fill="#ffffff" stroke="#5669ef" stroke-width="1.35" opacity="0.82"/>
  <circle cx="388.49" cy="306.79" r="3.4" fill="#ffffff" stroke="#5669ef" stroke-width="1.35" opacity="0.82"/>
  <circle cx="367.76" cy="291.59" r="3.4" fill="#ffffff" stroke="#5669ef" stroke-width="1.35" opacity="0.82"/>
  <circle cx="194.84" cy="416.85" r="3.4" fill="#ffffff" stroke="#5669ef" stroke-width="1.35" opacity="0.82"/>
  <circle cx="615.51" cy="227.3" r="3.4" fill="#ffffff" stroke="#5669ef" stroke-width="1.35" opacity="0.82"/>
  <circle cx="357.47" cy="313.68" r="3.4" fill="#ffffff" stroke="#5669ef" stroke-width="1.35" opacity="0.82"/>
  <circle cx="635.92" cy="182.27" r="3.4" fill="#ffffff" stroke="#5669ef" stroke-width="1.35" opacity="0.82"/>
  <circle cx="453.2" cy="291.72" r="3.4" fill="#ffffff" stroke="#5669ef" stroke-width="1.35" opacity="0.82"/>
  <circle cx="542.78" cy="309.63" r="3.4" fill="#ffffff" stroke="#5669ef" stroke-width="1.35" opacity="0.82"/>
  <circle cx="500.91" cy="260.59" r="3.4" fill="#ffffff" stroke="#5669ef" stroke-width="1.35" opacity="0.82"/>
  <circle cx="701.27" cy="185.23" r="3.4" fill="#ffffff" stroke="#5669ef" stroke-width="1.35" opacity="0.82"/>
  <circle cx="583" cy="339.02" r="3.4" fill="#ffffff" stroke="#5669ef" stroke-width="1.35" opacity="0.82"/>
  <circle cx="423.77" cy="270.54" r="3.4" fill="#ffffff" stroke="#5669ef" stroke-width="1.35" opacity="0.82"/>
  <circle cx="391.55" cy="409.33" r="3.4" fill="#ffffff" stroke="#5669ef" stroke-width="1.35" opacity="0.82"/>
  <circle cx="468.59" cy="241.66" r="3.4" fill="#ffffff" stroke="#5669ef" stroke-width="1.35" opacity="0.82"/>
  <circle cx="418.52" cy="264.77" r="3.4" fill="#ffffff" stroke="#5669ef" stroke-width="1.35" opacity="0.82"/>
  <circle cx="582.14" cy="271.12" r="3.4" fill="#ffffff" stroke="#5669ef" stroke-width="1.35" opacity="0.82"/>
  <circle cx="193.4" cy="476.16" r="3.4" fill="#ffffff" stroke="#5669ef" stroke-width="1.35" opacity="0.82"/>
  <circle cx="671.08" cy="298.35" r="3.4" fill="#ffffff" stroke="#5669ef" stroke-width="1.35" opacity="0.82"/>
  <circle cx="152.31" cy="468.38" r="3.4" fill="#ffffff" stroke="#5669ef" stroke-width="1.35" opacity="0.82"/>
  <circle cx="479.25" cy="246.33" r="3.4" fill="#ffffff" stroke="#5669ef" stroke-width="1.35" opacity="0.82"/>
  <circle cx="296.41" cy="425.56" r="3.4" fill="#ffffff" stroke="#5669ef" stroke-width="1.35" opacity="0.82"/>
  <circle cx="628.08" cy="165.26" r="3.4" fill="#ffffff" stroke="#5669ef" stroke-width="1.35" opacity="0.82"/>
  <circle cx="343.98" cy="339.48" r="3.4" fill="#ffffff" stroke="#5669ef" stroke-width="1.35" opacity="0.82"/>
  <circle cx="349.41" cy="308.37" r="3.4" fill="#ffffff" stroke="#5669ef" stroke-width="1.35" opacity="0.82"/>
  <circle cx="553.29" cy="237.23" r="3.4" fill="#ffffff" stroke="#5669ef" stroke-width="1.35" opacity="0.82"/>
  <circle cx="500.92" cy="235.68" r="3.4" fill="#ffffff" stroke="#5669ef" stroke-width="1.35" opacity="0.82"/>
  <circle cx="330.16" cy="385.22" r="3.4" fill="#ffffff" stroke="#5669ef" stroke-width="1.35" opacity="0.82"/>
  <circle cx="337" cy="342.66" r="3.4" fill="#ffffff" stroke="#5669ef" stroke-width="1.35" opacity="0.82"/>
  <circle cx="346.39" cy="351.21" r="3.4" fill="#ffffff" stroke="#5669ef" stroke-width="1.35" opacity="0.82"/>
  <circle cx="299.37" cy="363.4" r="3.4" fill="#ffffff" stroke="#5669ef" stroke-width="1.35" opacity="0.82"/>
  <circle cx="671.48" cy="309.88" r="3.4" fill="#ffffff" stroke="#5669ef" stroke-width="1.35" opacity="0.82"/>
  <circle cx="383.51" cy="314.6" r="3.4" fill="#ffffff" stroke="#5669ef" stroke-width="1.35" opacity="0.82"/>
  <circle cx="333.59" cy="314.56" r="3.4" fill="#ffffff" stroke="#5669ef" stroke-width="1.35" opacity="0.82"/>
  <circle cx="255.34" cy="377.22" r="3.4" fill="#ffffff" stroke="#5669ef" stroke-width="1.35" opacity="0.82"/>
  <circle cx="527.58" cy="294.42" r="3.4" fill="#ffffff" stroke="#5669ef" stroke-width="1.35" opacity="0.82"/>
  <circle cx="377.83" cy="389.02" r="3.4" fill="#ffffff" stroke="#5669ef" stroke-width="1.35" opacity="0.82"/>
  <circle cx="436.27" cy="277.81" r="3.4" fill="#ffffff" stroke="#5669ef" stroke-width="1.35" opacity="0.82"/>
  <circle cx="617.03" cy="203.37" r="3.4" fill="#ffffff" stroke="#5669ef" stroke-width="1.35" opacity="0.82"/>
  <circle cx="627.93" cy="243.97" r="3.4" fill="#ffffff" stroke="#5669ef" stroke-width="1.35" opacity="0.82"/>
  <circle cx="586.6" cy="311.62" r="3.4" fill="#ffffff" stroke="#5669ef" stroke-width="1.35" opacity="0.82"/>
  <circle cx="484.86" cy="280.49" r="3.4" fill="#ffffff" stroke="#5669ef" stroke-width="1.35" opacity="0.82"/>
  <circle cx="449.13" cy="308.38" r="3.4" fill="#ffffff" stroke="#5669ef" stroke-width="1.35" opacity="0.82"/>
  <circle cx="300.63" cy="320.1" r="3.4" fill="#ffffff" stroke="#5669ef" stroke-width="1.35" opacity="0.82"/>
  <circle cx="554.81" cy="276.4" r="3.4" fill="#ffffff" stroke="#5669ef" stroke-width="1.35" opacity="0.82"/>
  <circle cx="200.11" cy="497.49" r="3.4" fill="#ffffff" stroke="#5669ef" stroke-width="1.35" opacity="0.82"/>
  <circle cx="447.54" cy="309.79" r="3.4" fill="#ffffff" stroke="#5669ef" stroke-width="1.35" opacity="0.82"/>
  <circle cx="366.47" cy="296.29" r="3.4" fill="#ffffff" stroke="#5669ef" stroke-width="1.35" opacity="0.82"/>
  <circle cx="166.79" cy="383.7" r="3.4" fill="#ffffff" stroke="#5669ef" stroke-width="1.35" opacity="0.82"/>
  <circle cx="156.53" cy="400.47" r="3.4" fill="#ffffff" stroke="#5669ef" stroke-width="1.35" opacity="0.82"/>
  <circle cx="149.12" cy="412.78" r="3.4" fill="#ffffff" stroke="#5669ef" stroke-width="1.35" opacity="0.82"/>
  <circle cx="608.52" cy="283.14" r="3.4" fill="#ffffff" stroke="#5669ef" stroke-width="1.35" opacity="0.82"/>
  <circle cx="453.11" cy="263.61" r="3.4" fill="#ffffff" stroke="#5669ef" stroke-width="1.35" opacity="0.82"/>
  <circle cx="401.69" cy="356.39" r="3.4" fill="#ffffff" stroke="#5669ef" stroke-width="1.35" opacity="0.82"/>
  <circle cx="320.07" cy="458.38" r="3.4" fill="#ffffff" stroke="#5669ef" stroke-width="1.35" opacity="0.82"/>
  <circle cx="636.08" cy="196.14" r="3.4" fill="#ffffff" stroke="#5669ef" stroke-width="1.35" opacity="0.82"/>
  <circle cx="406.71" cy="375.48" r="3.4" fill="#ffffff" stroke="#5669ef" stroke-width="1.35" opacity="0.82"/>
  <circle cx="761.76" cy="80.11" r="3.4" fill="#ffffff" stroke="#5669ef" stroke-width="1.35" opacity="0.82"/>
  <circle cx="302.17" cy="456.46" r="3.4" fill="#ffffff" stroke="#5669ef" stroke-width="1.35" opacity="0.82"/>
  <circle cx="669.59" cy="173.67" r="3.4" fill="#ffffff" stroke="#5669ef" stroke-width="1.35" opacity="0.82"/>
  <circle cx="251.48" cy="360.56" r="3.4" fill="#ffffff" stroke="#5669ef" stroke-width="1.35" opacity="0.82"/>
  <circle cx="736.6" cy="178.33" r="3.4" fill="#ffffff" stroke="#5669ef" stroke-width="1.35" opacity="0.82"/>
  <circle cx="402.51" cy="328.7" r="3.4" fill="#ffffff" stroke="#5669ef" stroke-width="1.35" opacity="0.82"/>
  <circle cx="240.48" cy="422.89" r="3.4" fill="#ffffff" stroke="#5669ef" stroke-width="1.35" opacity="0.82"/>
  <circle cx="704.37" cy="168.57" r="3.4" fill="#ffffff" stroke="#5669ef" stroke-width="1.35" opacity="0.82"/>
  <circle cx="280.07" cy="381.2" r="3.4" fill="#ffffff" stroke="#5669ef" stroke-width="1.35" opacity="0.82"/>
  <circle cx="420.17" cy="360.93" r="3.4" fill="#ffffff" stroke="#5669ef" stroke-width="1.35" opacity="0.82"/>
  <circle cx="163.39" cy="404.52" r="3.4" fill="#ffffff" stroke="#5669ef" stroke-width="1.35" opacity="0.82"/>
  <circle cx="545.73" cy="206.13" r="3.4" fill="#ffffff" stroke="#5669ef" stroke-width="1.35" opacity="0.82"/>
  <circle cx="769.65" cy="130.24" r="3.4" fill="#ffffff" stroke="#5669ef" stroke-width="1.35" opacity="0.82"/>
  <circle cx="464.37" cy="308.26" r="3.4" fill="#ffffff" stroke="#5669ef" stroke-width="1.35" opacity="0.82"/>
  <circle cx="290.13" cy="355.34" r="3.4" fill="#ffffff" stroke="#5669ef" stroke-width="1.35" opacity="0.82"/>
  <circle cx="678.27" cy="197.52" r="3.4" fill="#ffffff" stroke="#5669ef" stroke-width="1.35" opacity="0.82"/>
  <circle cx="218.88" cy="423.31" r="3.4" fill="#ffffff" stroke="#5669ef" stroke-width="1.35" opacity="0.82"/>
  <circle cx="454.11" cy="341.22" r="3.4" fill="#ffffff" stroke="#5669ef" stroke-width="1.35" opacity="0.82"/>
  <circle cx="469.41" cy="219.22" r="3.4" fill="#ffffff" stroke="#5669ef" stroke-width="1.35" opacity="0.82"/>
  <circle cx="599.39" cy="213.58" r="3.4" fill="#ffffff" stroke="#5669ef" stroke-width="1.35" opacity="0.82"/>
  <circle cx="613.2" cy="168.25" r="3.4" fill="#ffffff" stroke="#5669ef" stroke-width="1.35" opacity="0.82"/>
  <circle cx="390.87" cy="406.09" r="3.4" fill="#ffffff" stroke="#5669ef" stroke-width="1.35" opacity="0.82"/>
  <circle cx="488.44" cy="280.2" r="3.4" fill="#ffffff" stroke="#5669ef" stroke-width="1.35" opacity="0.82"/>
  <circle cx="249.03" cy="415.03" r="3.4" fill="#ffffff" stroke="#5669ef" stroke-width="1.35" opacity="0.82"/>
  <circle cx="573.12" cy="263.7" r="3.4" fill="#ffffff" stroke="#5669ef" stroke-width="1.35" opacity="0.82"/>
  <circle cx="338.96" cy="316.18" r="3.4" fill="#ffffff" stroke="#5669ef" stroke-width="1.35" opacity="0.82"/>
  <circle cx="373.87" cy="318.98" r="3.4" fill="#ffffff" stroke="#5669ef" stroke-width="1.35" opacity="0.82"/>
  <circle cx="590.11" cy="280.18" r="3.4" fill="#ffffff" stroke="#5669ef" stroke-width="1.35" opacity="0.82"/>
  <circle cx="478.71" cy="227.32" r="3.4" fill="#ffffff" stroke="#5669ef" stroke-width="1.35" opacity="0.82"/>
  <circle cx="275.96" cy="420.04" r="3.4" fill="#ffffff" stroke="#5669ef" stroke-width="1.35" opacity="0.82"/>
  <circle cx="501.95" cy="299.46" r="3.4" fill="#ffffff" stroke="#5669ef" stroke-width="1.35" opacity="0.82"/>
  <circle cx="172.7" cy="402.23" r="3.4" fill="#ffffff" stroke="#5669ef" stroke-width="1.35" opacity="0.82"/>
  <circle cx="492.77" cy="263.4" r="3.4" fill="#ffffff" stroke="#5669ef" stroke-width="1.35" opacity="0.82"/>
  <circle cx="609.32" cy="284.19" r="3.4" fill="#ffffff" stroke="#5669ef" stroke-width="1.35" opacity="0.82"/>
  <circle cx="559.22" cy="231.39" r="3.4" fill="#ffffff" stroke="#5669ef" stroke-width="1.35" opacity="0.82"/>
  <circle cx="602.34" cy="187.2" r="3.4" fill="#ffffff" stroke="#5669ef" stroke-width="1.35" opacity="0.82"/>
  <circle cx="390.59" cy="380.33" r="3.4" fill="#ffffff" stroke="#5669ef" stroke-width="1.35" opacity="0.82"/>
  <circle cx="276.43" cy="326.55" r="3.4" fill="#ffffff" stroke="#5669ef" stroke-width="1.35" opacity="0.82"/>
  <circle cx="504.39" cy="268.33" r="3.4" fill="#ffffff" stroke="#5669ef" stroke-width="1.35" opacity="0.82"/>
  <circle cx="380.28" cy="328.42" r="3.4" fill="#ffffff" stroke="#5669ef" stroke-width="1.35" opacity="0.82"/>
  <circle cx="407.95" cy="256.96" r="3.4" fill="#ffffff" stroke="#5669ef" stroke-width="1.35" opacity="0.82"/>
  <circle cx="149.62" cy="436.96" r="3.4" fill="#ffffff" stroke="#5669ef" stroke-width="1.35" opacity="0.82"/>
  <circle cx="343.6" cy="379.8" r="3.4" fill="#ffffff" stroke="#5669ef" stroke-width="1.35" opacity="0.82"/>
  <circle cx="600.88" cy="184.87" r="3.4" fill="#ffffff" stroke="#5669ef" stroke-width="1.35" opacity="0.82"/>
  <circle cx="443.65" cy="357.13" r="3.4" fill="#ffffff" stroke="#5669ef" stroke-width="1.35" opacity="0.82"/>
  <circle cx="584.84" cy="272.06" r="3.4" fill="#ffffff" stroke="#5669ef" stroke-width="1.35" opacity="0.82"/>
  <circle cx="450.6" cy="304.87" r="3.4" fill="#ffffff" stroke="#5669ef" stroke-width="1.35" opacity="0.82"/>
  <circle cx="406.97" cy="279.29" r="3.4" fill="#ffffff" stroke="#5669ef" stroke-width="1.35" opacity="0.82"/>
  <line x1="125" y1="449.76" x2="785" y2="155.91" stroke="#1f211d" stroke-width="3"/>
  <line x1="125" y1="520" x2="125" y2="528" stroke="#333630"/>
  <text x="125" y="551" text-anchor="middle" font-family="PingFang SC, Noto Sans CJK SC, Microsoft YaHei, sans-serif" font-size="17" fill="#30332e">30</text>
  <line x1="225" y1="520" x2="225" y2="528" stroke="#333630"/>
  <text x="225" y="551" text-anchor="middle" font-family="PingFang SC, Noto Sans CJK SC, Microsoft YaHei, sans-serif" font-size="17" fill="#30332e">35</text>
  <line x1="325" y1="520" x2="325" y2="528" stroke="#333630"/>
  <text x="325" y="551" text-anchor="middle" font-family="PingFang SC, Noto Sans CJK SC, Microsoft YaHei, sans-serif" font-size="17" fill="#30332e">40</text>
  <line x1="425" y1="520" x2="425" y2="528" stroke="#333630"/>
  <text x="425" y="551" text-anchor="middle" font-family="PingFang SC, Noto Sans CJK SC, Microsoft YaHei, sans-serif" font-size="17" fill="#30332e">45</text>
  <line x1="525" y1="520" x2="525" y2="528" stroke="#333630"/>
  <text x="525" y="551" text-anchor="middle" font-family="PingFang SC, Noto Sans CJK SC, Microsoft YaHei, sans-serif" font-size="17" fill="#30332e">50</text>
  <line x1="625" y1="520" x2="625" y2="528" stroke="#333630"/>
  <text x="625" y="551" text-anchor="middle" font-family="PingFang SC, Noto Sans CJK SC, Microsoft YaHei, sans-serif" font-size="17" fill="#30332e">55</text>
  <line x1="725" y1="520" x2="725" y2="528" stroke="#333630"/>
  <text x="725" y="551" text-anchor="middle" font-family="PingFang SC, Noto Sans CJK SC, Microsoft YaHei, sans-serif" font-size="17" fill="#30332e">60</text>
  <line x1="117" y1="460.64" x2="125" y2="460.64" stroke="#333630"/>
  <text x="109" y="466.64" text-anchor="end" font-family="PingFang SC, Noto Sans CJK SC, Microsoft YaHei, sans-serif" font-size="17" fill="#30332e">140</text>
  <line x1="117" y1="361.7" x2="125" y2="361.7" stroke="#333630"/>
  <text x="109" y="367.7" text-anchor="end" font-family="PingFang SC, Noto Sans CJK SC, Microsoft YaHei, sans-serif" font-size="17" fill="#30332e">150</text>
  <line x1="117" y1="262.77" x2="125" y2="262.77" stroke="#333630"/>
  <text x="109" y="268.77" text-anchor="end" font-family="PingFang SC, Noto Sans CJK SC, Microsoft YaHei, sans-serif" font-size="17" fill="#30332e">160</text>
  <line x1="117" y1="163.83" x2="125" y2="163.83" stroke="#333630"/>
  <text x="109" y="169.83" text-anchor="end" font-family="PingFang SC, Noto Sans CJK SC, Microsoft YaHei, sans-serif" font-size="17" fill="#30332e">170</text>
  <line x1="117" y1="64.89" x2="125" y2="64.89" stroke="#333630"/>
  <text x="109" y="70.89" text-anchor="end" font-family="PingFang SC, Noto Sans CJK SC, Microsoft YaHei, sans-serif" font-size="17" fill="#30332e">180</text>
  <text x="455.0" y="596" text-anchor="middle" font-family="PingFang SC, Noto Sans CJK SC, Microsoft YaHei, sans-serif" font-size="21" font-weight="700" fill="#263f86">体重（千克）</text>
  <text x="38" y="287.5" transform="rotate(-90 38 287.5)" text-anchor="middle" font-family="PingFang SC, Noto Sans CJK SC, Microsoft YaHei, sans-serif" font-size="21" font-weight="700" fill="#263f86">身高（厘米）</text>
  <text x="450.0" y="632" text-anchor="middle" font-family="PingFang SC, Noto Sans CJK SC, Microsoft YaHei, sans-serif" font-size="16" fill="#656963">蓝色圆点为个体；黑线由后验均值 α = 154.6、β = 0.90 定义</text>
</svg>
