<svg xmlns="http://www.w3.org/2000/svg" width="920" height="650" viewBox="0 0 920 650">
<title>图 14.10：距离与协方差函数的形状</title>
<desc>虚线是随距离指数衰减的线性距离函数，实线是随距离平方呈半高斯衰减的平方距离函数。</desc>
<rect width="920" height="650" fill="#fff"/>
<rect x="115.0" y="55.0" width="735.0" height="480.0" fill="#fff" stroke="#30332e" stroke-width="1.5"/>
<line x1="115.0" y1="535.0" x2="115.0" y2="542.0" stroke="#30332e"/>
<text x="115.0" y="566.0" text-anchor="middle" font-family="-apple-system,BlinkMacSystemFont,PingFang SC,Noto Sans CJK SC,sans-serif" font-size="17" font-weight="400" fill="#30332e">0</text>
<line x1="298.8" y1="535.0" x2="298.8" y2="542.0" stroke="#30332e"/>
<text x="298.8" y="566.0" text-anchor="middle" font-family="-apple-system,BlinkMacSystemFont,PingFang SC,Noto Sans CJK SC,sans-serif" font-size="17" font-weight="400" fill="#30332e">1</text>
<line x1="482.5" y1="535.0" x2="482.5" y2="542.0" stroke="#30332e"/>
<text x="482.5" y="566.0" text-anchor="middle" font-family="-apple-system,BlinkMacSystemFont,PingFang SC,Noto Sans CJK SC,sans-serif" font-size="17" font-weight="400" fill="#30332e">2</text>
<line x1="666.2" y1="535.0" x2="666.2" y2="542.0" stroke="#30332e"/>
<text x="666.2" y="566.0" text-anchor="middle" font-family="-apple-system,BlinkMacSystemFont,PingFang SC,Noto Sans CJK SC,sans-serif" font-size="17" font-weight="400" fill="#30332e">3</text>
<line x1="850.0" y1="535.0" x2="850.0" y2="542.0" stroke="#30332e"/>
<text x="850.0" y="566.0" text-anchor="middle" font-family="-apple-system,BlinkMacSystemFont,PingFang SC,Noto Sans CJK SC,sans-serif" font-size="17" font-weight="400" fill="#30332e">4</text>
<line x1="108.0" y1="535.0" x2="115.0" y2="535.0" stroke="#30332e"/>
<text x="100.0" y="541.0" text-anchor="end" font-family="-apple-system,BlinkMacSystemFont,PingFang SC,Noto Sans CJK SC,sans-serif" font-size="17" font-weight="400" fill="#30332e">0.0</text>
<line x1="108.0" y1="439.0" x2="115.0" y2="439.0" stroke="#30332e"/>
<text x="100.0" y="445.0" text-anchor="end" font-family="-apple-system,BlinkMacSystemFont,PingFang SC,Noto Sans CJK SC,sans-serif" font-size="17" font-weight="400" fill="#30332e">0.2</text>
<line x1="108.0" y1="343.0" x2="115.0" y2="343.0" stroke="#30332e"/>
<text x="100.0" y="349.0" text-anchor="end" font-family="-apple-system,BlinkMacSystemFont,PingFang SC,Noto Sans CJK SC,sans-serif" font-size="17" font-weight="400" fill="#30332e">0.4</text>
<line x1="108.0" y1="247.0" x2="115.0" y2="247.0" stroke="#30332e"/>
<text x="100.0" y="253.0" text-anchor="end" font-family="-apple-system,BlinkMacSystemFont,PingFang SC,Noto Sans CJK SC,sans-serif" font-size="17" font-weight="400" fill="#30332e">0.6</text>
<line x1="108.0" y1="151.0" x2="115.0" y2="151.0" stroke="#30332e"/>
<text x="100.0" y="157.0" text-anchor="end" font-family="-apple-system,BlinkMacSystemFont,PingFang SC,Noto Sans CJK SC,sans-serif" font-size="17" font-weight="400" fill="#30332e">0.8</text>
<line x1="108.0" y1="55.0" x2="115.0" y2="55.0" stroke="#30332e"/>
<text x="100.0" y="61.0" text-anchor="end" font-family="-apple-system,BlinkMacSystemFont,PingFang SC,Noto Sans CJK SC,sans-serif" font-size="17" font-weight="400" fill="#30332e">1.0</text>
<polyline points="115.0,55.0 119.6,66.9 124.2,78.4 128.8,89.7 133.4,100.7 138.0,111.4 142.6,121.9 147.2,132.1 151.8,142.0 156.3,151.7 160.9,161.2 165.5,170.4 170.1,179.4 174.7,188.2 179.3,196.7 183.9,205.1 188.5,213.2 193.1,221.2 197.7,228.9 202.3,236.5 206.9,243.9 211.5,251.1 216.1,258.1 220.7,264.9 225.2,271.6 229.8,278.1 234.4,284.4 239.0,290.6 243.6,296.6 248.2,302.5 252.8,308.3 257.4,313.9 262.0,319.3 266.6,324.6 271.2,329.8 275.8,334.9 280.4,339.8 285.0,344.7 289.6,349.4 294.2,353.9 298.8,358.4 303.3,362.8 307.9,367.0 312.5,371.2 317.1,375.2 321.7,379.2 326.3,383.0 330.9,386.8 335.5,390.4 340.1,394.0 344.7,397.5 349.3,400.9 353.9,404.2 358.5,407.4 363.1,410.6 367.7,413.6 372.2,416.6 376.8,419.6 381.4,422.4 386.0,425.2 390.6,427.9 395.2,430.5 399.8,433.1 404.4,435.6 409.0,438.1 413.6,440.5 418.2,442.8 422.8,445.1 427.4,447.3 432.0,449.5 436.6,451.6 441.2,453.6 445.8,455.7 450.3,457.6 454.9,459.5 459.5,461.4 464.1,463.2 468.7,465.0 473.3,466.7 477.9,468.4 482.5,470.0 487.1,471.6 491.7,473.2 496.3,474.7 500.9,476.2 505.5,477.7 510.1,479.1 514.7,480.5 519.2,481.8 523.8,483.1 528.4,484.4 533.0,485.7 537.6,486.9 542.2,488.1 546.8,489.2 551.4,490.4 556.0,491.5 560.6,492.5 565.2,493.6 569.8,494.6 574.4,495.6 579.0,496.6 583.6,497.5 588.2,498.4 592.8,499.3 597.3,500.2 601.9,501.1 606.5,501.9 611.1,502.7 615.7,503.5 620.3,504.3 624.9,505.1 629.5,505.8 634.1,506.5 638.7,507.2 643.3,507.9 647.9,508.6 652.5,509.2 657.1,509.9 661.7,510.5 666.2,511.1 670.8,511.7 675.4,512.3 680.0,512.8 684.6,513.4 689.2,513.9 693.8,514.4 698.4,514.9 703.0,515.4 707.6,515.9 712.2,516.4 716.8,516.8 721.4,517.3 726.0,517.7 730.6,518.2 735.2,518.6 739.8,519.0 744.3,519.4 748.9,519.8 753.5,520.1 758.1,520.5 762.7,520.9 767.3,521.2 771.9,521.6 776.5,521.9 781.1,522.2 785.7,522.5 790.3,522.8 794.9,523.1 799.5,523.4 804.1,523.7 808.7,524.0 813.2,524.3 817.8,524.5 822.4,524.8 827.0,525.0 831.6,525.3 836.2,525.5 840.8,525.8 845.4,526.0 850.0,526.2" fill="none" stroke="#30332e" stroke-width="2.5" stroke-dasharray="11 8"/>
<polyline points="115.0,55.0 119.6,55.3 124.2,56.2 128.8,57.7 133.4,59.8 138.0,62.4 142.6,65.7 147.2,69.5 151.8,73.8 156.3,78.7 160.9,84.1 165.5,90.0 170.1,96.3 174.7,103.1 179.3,110.3 183.9,118.0 188.5,126.0 193.1,134.3 197.7,143.0 202.3,152.0 206.9,161.2 211.5,170.6 216.1,180.3 220.7,190.1 225.2,200.1 229.8,210.2 234.4,220.4 239.0,230.7 243.6,240.9 248.2,251.2 252.8,261.5 257.4,271.7 262.0,281.9 266.6,292.0 271.2,301.9 275.8,311.8 280.4,321.5 285.0,331.0 289.6,340.3 294.2,349.5 298.8,358.4 303.3,367.1 307.9,375.6 312.5,383.9 317.1,391.9 321.7,399.6 326.3,407.1 330.9,414.3 335.5,421.3 340.1,428.0 344.7,434.4 349.3,440.5 353.9,446.4 358.5,452.1 363.1,457.4 367.7,462.5 372.2,467.4 376.8,472.0 381.4,476.4 386.0,480.5 390.6,484.4 395.2,488.1 399.8,491.6 404.4,494.8 409.0,497.9 413.6,500.8 418.2,503.5 422.8,506.0 427.4,508.3 432.0,510.5 436.6,512.6 441.2,514.4 445.8,516.2 450.3,517.8 454.9,519.3 459.5,520.7 464.1,522.0 468.7,523.2 473.3,524.3 477.9,525.3 482.5,526.2 487.1,527.1 491.7,527.8 496.3,528.5 500.9,529.2 505.5,529.8 510.1,530.3 514.7,530.8 519.2,531.2 523.8,531.6 528.4,532.0 533.0,532.3 537.6,532.6 542.2,532.8 546.8,533.1 551.4,533.3 556.0,533.5 560.6,533.7 565.2,533.8 569.8,534.0 574.4,534.1 579.0,534.2 583.6,534.3 588.2,534.4 592.8,534.4 597.3,534.5 601.9,534.6 606.5,534.6 611.1,534.7 615.7,534.7 620.3,534.8 624.9,534.8 629.5,534.8 634.1,534.8 638.7,534.9 643.3,534.9 647.9,534.9 652.5,534.9 657.1,534.9 661.7,534.9 666.2,534.9 670.8,534.9 675.4,535.0 680.0,535.0 684.6,535.0 689.2,535.0 693.8,535.0 698.4,535.0 703.0,535.0 707.6,535.0 712.2,535.0 716.8,535.0 721.4,535.0 726.0,535.0 730.6,535.0 735.2,535.0 739.8,535.0 744.3,535.0 748.9,535.0 753.5,535.0 758.1,535.0 762.7,535.0 767.3,535.0 771.9,535.0 776.5,535.0 781.1,535.0 785.7,535.0 790.3,535.0 794.9,535.0 799.5,535.0 804.1,535.0 808.7,535.0 813.2,535.0 817.8,535.0 822.4,535.0 827.0,535.0 831.6,535.0 836.2,535.0 840.8,535.0 845.4,535.0 850.0,535.0" fill="none" stroke="#30332e" stroke-width="2.8"/>
<text x="482.5" y="610.0" text-anchor="middle" font-family="-apple-system,BlinkMacSystemFont,PingFang SC,Noto Sans CJK SC,sans-serif" font-size="21" font-weight="600" fill="#30332e">距离</text>
<text x="30.0" y="295.0" text-anchor="middle" font-family="-apple-system,BlinkMacSystemFont,PingFang SC,Noto Sans CJK SC,sans-serif" font-size="21" font-weight="600" fill="#30332e" transform="rotate(-90 30 295.0)">相关</text>
</svg>