<svg xmlns="http://www.w3.org/2000/svg" width="1200" height="520" viewBox="0 0 1200 520" role="img" aria-labelledby="title desc">
<title id="title">非洲内外地形崎岖度与对数 GDP 的回归</title>
<desc id="desc">左图非洲国家斜率为正，右图非非洲国家斜率为负；灰带表示回归均值的不确定性。</desc>
<style>.title{font:700 22px -apple-system,BlinkMacSystemFont,"PingFang SC",sans-serif;fill:#29302d}.axis,.annotation{font:16px -apple-system,BlinkMacSystemFont,"PingFang SC",sans-serif;fill:#30332e}.label{font:18px -apple-system,BlinkMacSystemFont,"PingFang SC",sans-serif;fill:#30332e}.plot{fill:#fff;stroke:#4b4e49;stroke-width:1.2}.grid{stroke:#e3e3df;stroke-width:1}.tick{stroke:#4b4e49;stroke-width:1.2}.band{fill:#d7d9d8;opacity:.95}.fit{stroke:#141613;stroke-width:3}.point{fill:#fff;stroke:#171915;stroke-width:1.4}.point.filled{fill:#777df4;stroke:#777df4}</style>
<text class="title" x="300.0" y="40" text-anchor="middle">非洲国家</text><rect class="plot" x="92" y="63" width="470" height="366"/><line class="tick" x1="92.0" y1="429" x2="92.0" y2="435"/><text class="axis" x="92.0" y="453" text-anchor="middle">0.0</text><line class="tick" x1="181.5" y1="429" x2="181.5" y2="435"/><text class="axis" x="181.5" y="453" text-anchor="middle">0.2</text><line class="tick" x1="271.0" y1="429" x2="271.0" y2="435"/><text class="axis" x="271.0" y="453" text-anchor="middle">0.4</text><line class="tick" x1="360.6" y1="429" x2="360.6" y2="435"/><text class="axis" x="360.6" y="453" text-anchor="middle">0.6</text><line class="tick" x1="450.1" y1="429" x2="450.1" y2="435"/><text class="axis" x="450.1" y="453" text-anchor="middle">0.8</text><line class="tick" x1="539.6" y1="429" x2="539.6" y2="435"/><text class="axis" x="539.6" y="453" text-anchor="middle">1.0</text><line class="grid" x1="92" y1="429.0" x2="562" y2="429.0"/><text class="axis" x="81" y="434.0" text-anchor="end">0.7</text><line class="grid" x1="92" y1="347.7" x2="562" y2="347.7"/><text class="axis" x="81" y="352.7" text-anchor="end">0.8</text><line class="grid" x1="92" y1="266.3" x2="562" y2="266.3"/><text class="axis" x="81" y="271.3" text-anchor="end">0.9</text><line class="grid" x1="92" y1="185.0" x2="562" y2="185.0"/><text class="axis" x="81" y="190.0" text-anchor="end">1.0</text><line class="grid" x1="92" y1="103.7" x2="562" y2="103.7"/><text class="axis" x="81" y="108.7" text-anchor="end">1.1</text><text class="label" x="327.0" y="483" text-anchor="middle">崎岖度（标准化）</text><text class="label" transform="translate(38,246.0) rotate(-90)" text-anchor="middle">对数 GDP（占均值比例）</text><polygon class="band" points="92.0,277.1 97.9,276.5 103.8,275.8 109.6,275.0 115.5,274.3 121.4,273.4 127.2,272.5 133.1,271.6 139.0,270.6 144.9,269.5 150.8,268.3 156.6,267.1 162.5,265.8 168.4,264.4 174.2,262.9 180.1,261.4 186.0,259.8 191.9,258.0 197.8,256.3 203.6,254.4 209.5,252.5 215.4,250.5 221.2,248.4 227.1,246.3 233.0,244.1 238.9,241.9 244.8,239.7 250.6,237.4 256.5,235.0 262.4,232.7 268.2,230.3 274.1,227.8 280.0,225.4 285.9,222.9 291.8,220.4 297.6,217.9 303.5,215.4 309.4,212.9 315.2,210.3 321.1,207.8 327.0,205.2 332.9,202.6 338.8,200.0 344.6,197.4 350.5,194.8 356.4,192.1 362.2,189.5 368.1,186.9 374.0,184.2 379.9,181.6 385.8,178.9 391.6,176.3 397.5,173.6 403.4,170.9 409.2,168.3 415.1,165.6 421.0,162.9 426.9,160.2 432.8,157.5 438.6,154.8 444.5,152.1 450.4,149.4 456.2,146.7 462.1,144.0 468.0,141.3 473.9,138.6 479.8,135.9 485.6,133.2 491.5,130.5 497.4,127.8 503.2,125.1 509.1,122.4 515.0,119.7 520.9,116.9 526.8,114.2 532.6,111.5 538.5,108.8 544.4,106.0 550.2,103.3 556.1,100.6 562.0,97.9 562.0,272.3 556.1,272.6 550.2,272.8 544.4,273.1 538.5,273.3 532.6,273.5 526.8,273.8 520.9,274.0 515.0,274.3 509.1,274.5 503.2,274.8 497.4,275.0 491.5,275.3 485.6,275.5 479.8,275.8 473.9,276.0 468.0,276.3 462.1,276.5 456.2,276.8 450.4,277.1 444.5,277.3 438.6,277.6 432.8,277.9 426.9,278.1 421.0,278.4 415.1,278.7 409.2,279.0 403.4,279.3 397.5,279.6 391.6,279.9 385.8,280.2 379.9,280.5 374.0,280.8 368.1,281.1 362.2,281.4 356.4,281.8 350.5,282.1 344.6,282.4 338.8,282.8 332.9,283.2 327.0,283.5 321.1,283.9 315.2,284.3 309.4,284.7 303.5,285.1 297.6,285.6 291.8,286.0 285.9,286.5 280.0,287.0 274.1,287.5 268.2,288.1 262.4,288.6 256.5,289.2 250.6,289.9 244.8,290.5 238.9,291.2 233.0,292.0 227.1,292.8 221.2,293.6 215.4,294.5 209.5,295.5 203.6,296.5 197.8,297.6 191.9,298.8 186.0,300.0 180.1,301.4 174.2,302.8 168.4,304.3 162.5,305.8 156.6,307.5 150.8,309.2 144.9,311.0 139.0,312.9 133.1,314.9 127.2,316.9 121.4,319.0 115.5,321.1 109.6,323.3 103.8,325.5 97.9,327.8 92.0,330.1"/><line class="fit" x1="92.0" y1="303.6" x2="562.0" y2="185.1"/><circle class="point filled" cx="153.9" cy="282.8" r="4.2"/><circle class="point filled" cx="220.5" cy="384.1" r="4.2"/><circle class="point filled" cx="102.2" cy="342.7" r="4.2"/><circle class="point filled" cx="109.0" cy="338.8" r="4.2"/><circle class="point filled" cx="105.1" cy="143.7" r="4.2"/><circle class="point filled" cx="106.2" cy="325.5" r="4.2"/><circle class="point filled" cx="108.2" cy="295.3" r="4.2"/><circle class="point filled" cx="129.2" cy="278.3" r="4.2"/><circle class="point filled" cx="124.0" cy="377.1" r="4.2"/><circle class="point filled" cx="103.0" cy="342.8" r="4.2"/><circle class="point filled" cx="332.2" cy="284.1" r="4.2"/><circle class="point filled" cx="262.8" cy="187.7" r="4.2"/><circle class="point filled" cx="267.5" cy="278.3" r="4.2"/><circle class="point filled" cx="128.8" cy="177.3" r="4.2"/><circle class="point filled" cx="144.2" cy="216.4" r="4.2"/><circle class="point filled" cx="271.1" cy="347.5" r="4.2"/><circle class="point filled" cx="205.3" cy="381.9" r="4.2"/><circle class="point filled" cx="107.7" cy="165.7" r="4.2"/><circle class="point filled" cx="108.5" cy="277.8" r="4.2"/><circle class="point filled" cx="145.4" cy="273.7" r="4.2"/><circle class="point filled" cx="117.5" cy="286.4" r="4.2"/><circle class="point filled" cx="127.4" cy="362.1" r="4.2"/><circle class="point filled" cx="132.3" cy="78.9" r="4.2"/><circle class="point filled" cx="140.3" cy="336.9" r="4.2"/><circle class="point filled" cx="539.6" cy="266.8" r="4.2"/><circle class="point filled" cx="266.2" cy="218.7" r="4.2"/><circle class="point filled" cx="176.4" cy="357.0" r="4.2"/><circle class="point filled" cx="102.6" cy="362.5" r="4.2"/><circle class="point filled" cx="136.2" cy="351.2" r="4.2"/><circle class="point filled" cx="100.3" cy="286.4" r="4.2"/><circle class="point filled" cx="160.5" cy="122.5" r="4.2"/><circle class="point filled" cx="166.1" cy="389.7" r="4.2"/><circle class="point filled" cx="157.9" cy="166.7" r="4.2"/><circle class="point filled" cx="104.8" cy="372.3" r="4.2"/><circle class="point filled" cx="114.5" cy="350.6" r="4.2"/><circle class="point filled" cx="330.8" cy="335.0" r="4.2"/><circle class="point filled" cx="123.9" cy="289.0" r="4.2"/><circle class="point filled" cx="109.6" cy="304.2" r="4.2"/><circle class="point filled" cx="127.9" cy="411.5" r="4.2"/><circle class="point filled" cx="313.1" cy="191.3" r="4.2"/><circle class="point filled" cx="444.6" cy="62.9" r="4.2"/><circle class="point filled" cx="122.2" cy="357.5" r="4.2"/><circle class="point filled" cx="112.2" cy="304.1" r="4.2"/><circle class="point filled" cx="144.4" cy="163.7" r="4.2"/><circle class="point filled" cx="140.9" cy="400.8" r="4.2"/><circle class="point filled" cx="157.9" cy="317.9" r="4.2"/><circle class="point filled" cx="219.1" cy="124.5" r="4.2"/><circle class="point filled" cx="130.5" cy="363.1" r="4.2"/><circle class="point filled" cx="178.2" cy="251.2" r="4.2"/><text class="annotation" x="531.6" y="257.8" text-anchor="end">莱索托</text><text class="annotation" x="437.6" y="80.9" text-anchor="middle">塞舌尔</text>
<text class="title" x="900.0" y="40" text-anchor="middle">非非洲国家</text><rect class="plot" x="692" y="63" width="470" height="366"/><line class="tick" x1="692.0" y1="429" x2="692.0" y2="435"/><text class="axis" x="692.0" y="453" text-anchor="middle">0.0</text><line class="tick" x1="781.5" y1="429" x2="781.5" y2="435"/><text class="axis" x="781.5" y="453" text-anchor="middle">0.2</text><line class="tick" x1="871.0" y1="429" x2="871.0" y2="435"/><text class="axis" x="871.0" y="453" text-anchor="middle">0.4</text><line class="tick" x1="960.6" y1="429" x2="960.6" y2="435"/><text class="axis" x="960.6" y="453" text-anchor="middle">0.6</text><line class="tick" x1="1050.1" y1="429" x2="1050.1" y2="435"/><text class="axis" x="1050.1" y="453" text-anchor="middle">0.8</text><line class="tick" x1="1139.6" y1="429" x2="1139.6" y2="435"/><text class="axis" x="1139.6" y="453" text-anchor="middle">1.0</text><line class="grid" x1="692" y1="414.9" x2="1162" y2="414.9"/><text class="axis" x="681" y="419.9" text-anchor="end">0.8</text><line class="grid" x1="692" y1="344.5" x2="1162" y2="344.5"/><text class="axis" x="681" y="349.5" text-anchor="end">0.9</text><line class="grid" x1="692" y1="274.2" x2="1162" y2="274.2"/><text class="axis" x="681" y="279.2" text-anchor="end">1.0</text><line class="grid" x1="692" y1="203.8" x2="1162" y2="203.8"/><text class="axis" x="681" y="208.8" text-anchor="end">1.1</text><line class="grid" x1="692" y1="133.4" x2="1162" y2="133.4"/><text class="axis" x="681" y="138.4" text-anchor="end">1.2</text><line class="grid" x1="692" y1="63.0" x2="1162" y2="63.0"/><text class="axis" x="681" y="68.0" text-anchor="end">1.3</text><text class="label" x="927.0" y="483" text-anchor="middle">崎岖度（标准化）</text><text class="label" transform="translate(638,246.0) rotate(-90)" text-anchor="middle">对数 GDP（占均值比例）</text><polygon class="band" points="692.0,197.1 697.9,199.1 703.8,201.1 709.6,203.1 715.5,205.1 721.4,207.0 727.2,209.0 733.1,210.8 739.0,212.7 744.9,214.5 750.8,216.3 756.6,218.1 762.5,219.8 768.4,221.4 774.2,223.0 780.1,224.6 786.0,226.1 791.9,227.5 797.8,228.9 803.6,230.2 809.5,231.4 815.4,232.6 821.2,233.7 827.1,234.8 833.0,235.8 838.9,236.8 844.8,237.7 850.6,238.6 856.5,239.5 862.4,240.3 868.2,241.1 874.1,241.9 880.0,242.7 885.9,243.4 891.8,244.1 897.6,244.8 903.5,245.5 909.4,246.2 915.2,246.9 921.1,247.5 927.0,248.2 932.9,248.8 938.8,249.5 944.6,250.1 950.5,250.7 956.4,251.3 962.2,251.9 968.1,252.5 974.0,253.1 979.9,253.7 985.8,254.3 991.6,254.9 997.5,255.5 1003.4,256.0 1009.2,256.6 1015.1,257.2 1021.0,257.8 1026.9,258.3 1032.8,258.9 1038.6,259.4 1044.5,260.0 1050.4,260.6 1056.2,261.1 1062.1,261.7 1068.0,262.2 1073.9,262.8 1079.8,263.3 1085.6,263.9 1091.5,264.5 1097.4,265.0 1103.2,265.5 1109.1,266.1 1115.0,266.6 1120.9,267.2 1126.8,267.7 1132.6,268.3 1138.5,268.8 1144.4,269.4 1150.2,269.9 1156.1,270.4 1162.0,271.0 1162.0,379.0 1156.1,376.8 1150.2,374.6 1144.4,372.4 1138.5,370.2 1132.6,368.0 1126.8,365.8 1120.9,363.6 1115.0,361.5 1109.1,359.3 1103.2,357.1 1097.4,354.9 1091.5,352.7 1085.6,350.6 1079.8,348.4 1073.9,346.2 1068.0,344.0 1062.1,341.9 1056.2,339.7 1050.4,337.5 1044.5,335.3 1038.6,333.2 1032.8,331.0 1026.9,328.8 1021.0,326.7 1015.1,324.5 1009.2,322.4 1003.4,320.2 997.5,318.1 991.6,315.9 985.8,313.8 979.9,311.6 974.0,309.5 968.1,307.4 962.2,305.2 956.4,303.1 950.5,301.0 944.6,298.9 938.8,296.8 932.9,294.7 927.0,292.6 921.1,290.5 915.2,288.4 909.4,286.4 903.5,284.3 897.6,282.3 891.8,280.3 885.9,278.3 880.0,276.3 874.1,274.3 868.2,272.3 862.4,270.4 856.5,268.5 850.6,266.7 844.8,264.8 838.9,263.0 833.0,261.3 827.1,259.6 821.2,257.9 815.4,256.3 809.5,254.8 803.6,253.3 797.8,251.9 791.9,250.5 786.0,249.2 780.1,248.0 774.2,246.8 768.4,245.6 762.5,244.6 756.6,243.5 750.8,242.6 744.9,241.6 739.0,240.7 733.1,239.9 727.2,239.0 721.4,238.2 715.5,237.4 709.6,236.7 703.8,235.9 697.9,235.2 692.0,234.5"/><line class="fit" x1="692.0" y1="215.8" x2="1162.0" y2="325.0"/><circle class="point" cx="939.3" cy="299.0" r="4.2"/><circle class="point" cx="747.5" cy="157.1" r="4.2"/><circle class="point" cx="747.9" cy="200.6" r="4.2"/><circle class="point" cx="886.0" cy="334.0" r="4.2"/><circle class="point" cx="692.4" cy="216.7" r="4.2"/><circle class="point" cx="702.3" cy="139.8" r="4.2"/><circle class="point" cx="945.5" cy="128.9" r="4.2"/><circle class="point" cx="812.7" cy="329.1" r="4.2"/><circle class="point" cx="720.0" cy="133.9" r="4.2"/><circle class="point" cx="705.4" cy="374.8" r="4.2"/><circle class="point" cx="798.7" cy="259.4" r="4.2"/><circle class="point" cx="708.7" cy="178.4" r="4.2"/><circle class="point" cx="696.0" cy="173.1" r="4.2"/><circle class="point" cx="858.8" cy="269.4" r="4.2"/><circle class="point" cx="703.8" cy="277.5" r="4.2"/><circle class="point" cx="735.8" cy="260.9" r="4.2"/><circle class="point" cx="753.6" cy="334.8" r="4.2"/><circle class="point" cx="709.3" cy="242.9" r="4.2"/><circle class="point" cx="761.5" cy="181.8" r="4.2"/><circle class="point" cx="747.9" cy="133.9" r="4.2"/><circle class="point" cx="1035.6" cy="125.6" r="4.2"/><circle class="point" cx="871.1" cy="224.5" r="4.2"/><circle class="point" cx="827.5" cy="294.1" r="4.2"/><circle class="point" cx="755.9" cy="255.8" r="4.2"/><circle class="point" cx="844.4" cy="229.1" r="4.2"/><circle class="point" cx="888.2" cy="158.3" r="4.2"/><circle class="point" cx="755.8" cy="181.3" r="4.2"/><circle class="point" cx="735.1" cy="139.6" r="4.2"/><circle class="point" cx="692.2" cy="260.0" r="4.2"/><circle class="point" cx="705.6" cy="129.6" r="4.2"/><circle class="point" cx="810.4" cy="253.6" r="4.2"/><circle class="point" cx="784.2" cy="306.7" r="4.2"/><circle class="point" cx="813.9" cy="152.6" r="4.2"/><circle class="point" cx="700.9" cy="218.9" r="4.2"/><circle class="point" cx="715.7" cy="139.3" r="4.2"/><circle class="point" cx="792.8" cy="275.0" r="4.2"/><circle class="point" cx="771.2" cy="138.9" r="4.2"/><circle class="point" cx="733.0" cy="136.9" r="4.2"/><circle class="point" cx="956.1" cy="355.0" r="4.2"/><circle class="point" cx="916.0" cy="171.1" r="4.2"/><circle class="point" cx="842.7" cy="240.2" r="4.2"/><circle class="point" cx="822.4" cy="293.1" r="4.2"/><circle class="point" cx="711.7" cy="291.1" r="4.2"/><circle class="point" cx="872.5" cy="138.6" r="4.2"/><circle class="point" cx="847.2" cy="331.2" r="4.2"/><circle class="point" cx="783.4" cy="220.7" r="4.2"/><circle class="point" cx="862.5" cy="358.6" r="4.2"/><circle class="point" cx="717.0" cy="193.8" r="4.2"/><circle class="point" cx="761.8" cy="315.6" r="4.2"/><circle class="point" cx="765.1" cy="334.3" r="4.2"/><circle class="point" cx="729.0" cy="124.6" r="4.2"/><circle class="point" cx="868.5" cy="261.5" r="4.2"/><circle class="point" cx="798.2" cy="129.1" r="4.2"/><circle class="point" cx="815.1" cy="145.0" r="4.2"/><circle class="point" cx="869.4" cy="141.2" r="4.2"/><circle class="point" cx="821.0" cy="300.1" r="4.2"/><circle class="point" cx="771.2" cy="295.8" r="4.2"/><circle class="point" cx="845.9" cy="137.2" r="4.2"/><circle class="point" cx="718.8" cy="281.1" r="4.2"/><circle class="point" cx="1001.4" cy="370.4" r="4.2"/><circle class="point" cx="731.0" cy="355.9" r="4.2"/><circle class="point" cx="692.4" cy="207.3" r="4.2"/><circle class="point" cx="833.5" cy="177.1" r="4.2"/><circle class="point" cx="709.7" cy="178.2" r="4.2"/><circle class="point" cx="876.3" cy="369.9" r="4.2"/><circle class="point" cx="994.9" cy="288.2" r="4.2"/><circle class="point" cx="847.0" cy="264.5" r="4.2"/><circle class="point" cx="738.9" cy="300.7" r="4.2"/><circle class="point" cx="704.6" cy="227.7" r="4.2"/><circle class="point" cx="755.6" cy="71.9" r="4.2"/><circle class="point" cx="703.1" cy="236.3" r="4.2"/><circle class="point" cx="744.8" cy="165.7" r="4.2"/><circle class="point" cx="749.7" cy="383.5" r="4.2"/><circle class="point" cx="817.0" cy="225.1" r="4.2"/><circle class="point" cx="884.3" cy="258.3" r="4.2"/><circle class="point" cx="802.2" cy="167.1" r="4.2"/><circle class="point" cx="768.3" cy="367.3" r="4.2"/><circle class="point" cx="764.8" cy="226.3" r="4.2"/><circle class="point" cx="806.5" cy="151.2" r="4.2"/><circle class="point" cx="763.6" cy="309.0" r="4.2"/><circle class="point" cx="694.7" cy="130.0" r="4.2"/><circle class="point" cx="865.9" cy="115.2" r="4.2"/><circle class="point" cx="1056.0" cy="384.0" r="4.2"/><circle class="point" cx="839.1" cy="161.2" r="4.2"/><circle class="point" cx="772.0" cy="196.9" r="4.2"/><circle class="point" cx="832.7" cy="353.0" r="4.2"/><circle class="point" cx="803.1" cy="256.8" r="4.2"/><circle class="point" cx="789.2" cy="278.9" r="4.2"/><circle class="point" cx="838.4" cy="292.0" r="4.2"/><circle class="point" cx="806.7" cy="337.4" r="4.2"/><circle class="point" cx="713.4" cy="213.6" r="4.2"/><circle class="point" cx="796.4" cy="150.8" r="4.2"/><circle class="point" cx="786.1" cy="167.1" r="4.2"/><circle class="point" cx="709.7" cy="281.9" r="4.2"/><circle class="point" cx="841.5" cy="142.7" r="4.2"/><circle class="point" cx="783.4" cy="260.6" r="4.2"/><circle class="point" cx="759.8" cy="245.2" r="4.2"/><circle class="point" cx="758.0" cy="199.3" r="4.2"/><circle class="point" cx="693.2" cy="145.9" r="4.2"/><circle class="point" cx="803.1" cy="355.8" r="4.2"/><circle class="point" cx="818.3" cy="281.1" r="4.2"/><circle class="point" cx="804.6" cy="206.7" r="4.2"/><circle class="point" cx="872.1" cy="173.6" r="4.2"/><circle class="point" cx="743.6" cy="138.2" r="4.2"/><circle class="point" cx="746.6" cy="309.9" r="4.2"/><circle class="point" cx="767.9" cy="255.3" r="4.2"/><circle class="point" cx="1074.6" cy="427.1" r="4.2"/><circle class="point" cx="712.5" cy="299.8" r="4.2"/><circle class="point" cx="747.8" cy="251.6" r="4.2"/><circle class="point" cx="735.5" cy="225.9" r="4.2"/><circle class="point" cx="881.1" cy="252.3" r="4.2"/><circle class="point" cx="722.0" cy="290.4" r="4.2"/><circle class="point" cx="723.4" cy="227.6" r="4.2"/><circle class="point" cx="769.4" cy="115.8" r="4.2"/><circle class="point" cx="730.0" cy="372.8" r="4.2"/><circle class="point" cx="913.6" cy="268.8" r="4.2"/><circle class="point" cx="737.8" cy="263.5" r="4.2"/><circle class="point" cx="840.2" cy="349.4" r="4.2"/><circle class="point" cx="816.8" cy="311.8" r="4.2"/><circle class="point" cx="813.0" cy="276.5" r="4.2"/><circle class="point" cx="859.7" cy="426.9" r="4.2"/><text class="annotation" x="1048.6" y="130.6" text-anchor="start">瑞士</text><text class="annotation" x="1066.6" y="417.1" text-anchor="end">塔吉克斯坦</text>
</svg>