<svg xmlns="http://www.w3.org/2000/svg" width="840" height="650" viewBox="0 0 840 650">
<title>图 15.3：离婚率与结婚率同时收缩</title>
<desc>蓝色实心点是各州观测到的标准化结婚率与离婚率，黑色空心圆是后验真实值均值；每条线连接同一州的观测与后验估计，二者都向推断出的回归关系收缩。</desc>
<rect width="840" height="650" fill="#fff"/>
<rect x="105.0" y="45.0" width="690.0" height="510.0" fill="#fff" stroke="#30332e" stroke-width="1.5"/>
<line x1="215.4" y1="555.0" x2="215.4" y2="562.0" stroke="#30332e"/>
<text x="215.4" y="588.0" text-anchor="middle" font-family="-apple-system,BlinkMacSystemFont,PingFang SC,Noto Sans CJK SC,sans-serif" font-size="17" font-weight="400" fill="#30332e">-1</text>
<line x1="353.4" y1="555.0" x2="353.4" y2="562.0" stroke="#30332e"/>
<text x="353.4" y="588.0" text-anchor="middle" font-family="-apple-system,BlinkMacSystemFont,PingFang SC,Noto Sans CJK SC,sans-serif" font-size="17" font-weight="400" fill="#30332e">0</text>
<line x1="491.4" y1="555.0" x2="491.4" y2="562.0" stroke="#30332e"/>
<text x="491.4" y="588.0" text-anchor="middle" font-family="-apple-system,BlinkMacSystemFont,PingFang SC,Noto Sans CJK SC,sans-serif" font-size="17" font-weight="400" fill="#30332e">1</text>
<line x1="629.4" y1="555.0" x2="629.4" y2="562.0" stroke="#30332e"/>
<text x="629.4" y="588.0" text-anchor="middle" font-family="-apple-system,BlinkMacSystemFont,PingFang SC,Noto Sans CJK SC,sans-serif" font-size="17" font-weight="400" fill="#30332e">2</text>
<line x1="767.4" y1="555.0" x2="767.4" y2="562.0" stroke="#30332e"/>
<text x="767.4" y="588.0" text-anchor="middle" font-family="-apple-system,BlinkMacSystemFont,PingFang SC,Noto Sans CJK SC,sans-serif" font-size="17" font-weight="400" fill="#30332e">3</text>
<line x1="98.0" y1="531.8" x2="105.0" y2="531.8" stroke="#30332e"/>
<text x="91.0" y="537.8" text-anchor="end" font-family="-apple-system,BlinkMacSystemFont,PingFang SC,Noto Sans CJK SC,sans-serif" font-size="17" font-weight="400" fill="#30332e">-2</text>
<line x1="98.0" y1="415.9" x2="105.0" y2="415.9" stroke="#30332e"/>
<text x="91.0" y="421.9" text-anchor="end" font-family="-apple-system,BlinkMacSystemFont,PingFang SC,Noto Sans CJK SC,sans-serif" font-size="17" font-weight="400" fill="#30332e">-1</text>
<line x1="98.0" y1="300.0" x2="105.0" y2="300.0" stroke="#30332e"/>
<text x="91.0" y="306.0" text-anchor="end" font-family="-apple-system,BlinkMacSystemFont,PingFang SC,Noto Sans CJK SC,sans-serif" font-size="17" font-weight="400" fill="#30332e">0</text>
<line x1="98.0" y1="184.1" x2="105.0" y2="184.1" stroke="#30332e"/>
<text x="91.0" y="190.1" text-anchor="end" font-family="-apple-system,BlinkMacSystemFont,PingFang SC,Noto Sans CJK SC,sans-serif" font-size="17" font-weight="400" fill="#30332e">1</text>
<line x1="98.0" y1="68.2" x2="105.0" y2="68.2" stroke="#30332e"/>
<text x="91.0" y="74.2" text-anchor="end" font-family="-apple-system,BlinkMacSystemFont,PingFang SC,Noto Sans CJK SC,sans-serif" font-size="17" font-weight="400" fill="#30332e">2</text>
<line x1="356.5" y1="108.3" x2="357.9" y2="161.7" stroke="#3f4752" stroke-width="1.5"/>
<line x1="567.3" y1="121.0" x2="489.3" y2="223.6" stroke="#3f4752" stroke-width="1.5"/>
<line x1="360.2" y1="229.2" x2="360.2" y2="249.0" stroke="#3f4752" stroke-width="1.5"/>
<line x1="581.8" y1="57.3" x2="545.4" y2="136.0" stroke="#3f4752" stroke-width="1.5"/>
<line x1="316.6" y1="407.5" x2="316.8" y2="404.9" stroke="#3f4752" stroke-width="1.5"/>
<line x1="476.4" y1="178.3" x2="465.5" y2="222.5" stroke="#3f4752" stroke-width="1.5"/>
<line x1="243.9" y1="490.2" x2="251.1" y2="460.0" stroke="#3f4752" stroke-width="1.5"/>
<line x1="461.9" y1="350.2" x2="421.8" y2="340.9" stroke="#3f4752" stroke-width="1.5"/>
<line x1="265.7" y1="515.7" x2="292.7" y2="516.5" stroke="#3f4752" stroke-width="1.5"/>
<line x1="240.3" y1="375.6" x2="242.7" y2="372.1" stroke="#3f4752" stroke-width="1.5"/>
<line x1="425.6" y1="184.7" x2="423.0" y2="209.0" stroke="#3f4752" stroke-width="1.5"/>
<line x1="527.3" y1="388.4" x2="472.7" y2="366.3" stroke="#3f4752" stroke-width="1.5"/>
<line x1="560.0" y1="426.6" x2="516.0" y2="287.9" stroke="#3f4752" stroke-width="1.5"/>
<line x1="273.0" y1="407.5" x2="274.6" y2="401.2" stroke="#3f4752" stroke-width="1.5"/>
<line x1="342.0" y1="216.5" x2="342.9" y2="234.1" stroke="#3f4752" stroke-width="1.5"/>
<line x1="403.8" y1="267.4" x2="397.3" y2="267.6" stroke="#3f4752" stroke-width="1.5"/>
<line x1="425.6" y1="241.9" x2="416.1" y2="243.2" stroke="#3f4752" stroke-width="1.5"/>
<line x1="429.2" y1="114.6" x2="424.3" y2="152.4" stroke="#3f4752" stroke-width="1.5"/>
<line x1="371.1" y1="216.5" x2="370.2" y2="248.8" stroke="#3f4752" stroke-width="1.5"/>
<line x1="113.1" y1="89.2" x2="143.5" y2="248.6" stroke="#3f4752" stroke-width="1.5"/>
<line x1="287.5" y1="356.5" x2="292.1" y2="363.3" stroke="#3f4752" stroke-width="1.5"/>
<line x1="196.6" y1="420.2" x2="201.9" y2="426.1" stroke="#3f4752" stroke-width="1.5"/>
<line x1="222.1" y1="331.1" x2="226.3" y2="331.2" stroke="#3f4752" stroke-width="1.5"/>
<line x1="178.5" y1="445.6" x2="184.8" y2="418.4" stroke="#3f4752" stroke-width="1.5"/>
<line x1="323.8" y1="210.1" x2="329.0" y2="248.6" stroke="#3f4752" stroke-width="1.5"/>
<line x1="298.4" y1="312.0" x2="300.6" y2="304.1" stroke="#3f4752" stroke-width="1.5"/>
<line x1="294.8" y1="337.4" x2="310.0" y2="302.8" stroke="#3f4752" stroke-width="1.5"/>
<line x1="334.7" y1="356.5" x2="336.0" y2="319.9" stroke="#3f4752" stroke-width="1.5"/>
<line x1="229.3" y1="273.8" x2="252.0" y2="328.4" stroke="#3f4752" stroke-width="1.5"/>
<line x1="160.3" y1="528.4" x2="164.5" y2="510.3" stroke="#3f4752" stroke-width="1.5"/>
<line x1="363.8" y1="267.4" x2="362.1" y2="280.0" stroke="#3f4752" stroke-width="1.5"/>
<line x1="233.0" y1="496.6" x2="234.7" y2="492.8" stroke="#3f4752" stroke-width="1.5"/>
<line x1="363.8" y1="286.5" x2="363.1" y2="286.5" stroke="#3f4752" stroke-width="1.5"/>
<line x1="592.7" y1="407.5" x2="500.0" y2="312.6" stroke="#3f4752" stroke-width="1.5"/>
<line x1="236.6" y1="312.0" x2="239.6" y2="314.0" stroke="#3f4752" stroke-width="1.5"/>
<line x1="487.3" y1="101.9" x2="474.5" y2="150.7" stroke="#3f4752" stroke-width="1.5"/>
<line x1="309.3" y1="254.7" x2="313.1" y2="272.4" stroke="#3f4752" stroke-width="1.5"/>
<line x1="185.7" y1="426.6" x2="188.3" y2="419.4" stroke="#3f4752" stroke-width="1.5"/>
<line x1="167.6" y1="318.3" x2="212.6" y2="403.2" stroke="#3f4752" stroke-width="1.5"/>
<line x1="280.2" y1="401.1" x2="285.9" y2="380.2" stroke="#3f4752" stroke-width="1.5"/>
<line x1="352.9" y1="222.8" x2="353.6" y2="271.8" stroke="#3f4752" stroke-width="1.5"/>
<line x1="327.5" y1="191.0" x2="329.1" y2="212.9" stroke="#3f4752" stroke-width="1.5"/>
<line x1="403.8" y1="280.1" x2="402.4" y2="277.9" stroke="#3f4752" stroke-width="1.5"/>
<line x1="698.1" y1="267.4" x2="634.4" y2="213.3" stroke="#3f4752" stroke-width="1.5"/>
<line x1="218.4" y1="305.6" x2="257.6" y2="345.5" stroke="#3f4752" stroke-width="1.5"/>
<line x1="367.4" y1="350.2" x2="366.6" y2="345.7" stroke="#3f4752" stroke-width="1.5"/>
<line x1="400.1" y1="280.1" x2="397.2" y2="284.4" stroke="#3f4752" stroke-width="1.5"/>
<line x1="429.2" y1="222.8" x2="416.9" y2="235.8" stroke="#3f4752" stroke-width="1.5"/>
<line x1="247.5" y1="388.4" x2="251.6" y2="374.8" stroke="#3f4752" stroke-width="1.5"/>
<line x1="738.1" y1="261.0" x2="538.2" y2="210.5" stroke="#3f4752" stroke-width="1.5"/>
<circle cx="356.5" cy="108.3" r="5" fill="#6670ee" fill-opacity="0.82"/>
<circle cx="567.3" cy="121.0" r="5" fill="#6670ee" fill-opacity="0.82"/>
<circle cx="360.2" cy="229.2" r="5" fill="#6670ee" fill-opacity="0.82"/>
<circle cx="581.8" cy="57.3" r="5" fill="#6670ee" fill-opacity="0.82"/>
<circle cx="316.6" cy="407.5" r="5" fill="#6670ee" fill-opacity="0.82"/>
<circle cx="476.4" cy="178.3" r="5" fill="#6670ee" fill-opacity="0.82"/>
<circle cx="243.9" cy="490.2" r="5" fill="#6670ee" fill-opacity="0.82"/>
<circle cx="461.9" cy="350.2" r="5" fill="#6670ee" fill-opacity="0.82"/>
<circle cx="265.7" cy="515.7" r="5" fill="#6670ee" fill-opacity="0.82"/>
<circle cx="240.3" cy="375.6" r="5" fill="#6670ee" fill-opacity="0.82"/>
<circle cx="425.6" cy="184.7" r="5" fill="#6670ee" fill-opacity="0.82"/>
<circle cx="527.3" cy="388.4" r="5" fill="#6670ee" fill-opacity="0.82"/>
<circle cx="560.0" cy="426.6" r="5" fill="#6670ee" fill-opacity="0.82"/>
<circle cx="273.0" cy="407.5" r="5" fill="#6670ee" fill-opacity="0.82"/>
<circle cx="342.0" cy="216.5" r="5" fill="#6670ee" fill-opacity="0.82"/>
<circle cx="403.8" cy="267.4" r="5" fill="#6670ee" fill-opacity="0.82"/>
<circle cx="425.6" cy="241.9" r="5" fill="#6670ee" fill-opacity="0.82"/>
<circle cx="429.2" cy="114.6" r="5" fill="#6670ee" fill-opacity="0.82"/>
<circle cx="371.1" cy="216.5" r="5" fill="#6670ee" fill-opacity="0.82"/>
<circle cx="113.1" cy="89.2" r="5" fill="#6670ee" fill-opacity="0.82"/>
<circle cx="287.5" cy="356.5" r="5" fill="#6670ee" fill-opacity="0.82"/>
<circle cx="196.6" cy="420.2" r="5" fill="#6670ee" fill-opacity="0.82"/>
<circle cx="222.1" cy="331.1" r="5" fill="#6670ee" fill-opacity="0.82"/>
<circle cx="178.5" cy="445.6" r="5" fill="#6670ee" fill-opacity="0.82"/>
<circle cx="323.8" cy="210.1" r="5" fill="#6670ee" fill-opacity="0.82"/>
<circle cx="298.4" cy="312.0" r="5" fill="#6670ee" fill-opacity="0.82"/>
<circle cx="294.8" cy="337.4" r="5" fill="#6670ee" fill-opacity="0.82"/>
<circle cx="334.7" cy="356.5" r="5" fill="#6670ee" fill-opacity="0.82"/>
<circle cx="229.3" cy="273.8" r="5" fill="#6670ee" fill-opacity="0.82"/>
<circle cx="160.3" cy="528.4" r="5" fill="#6670ee" fill-opacity="0.82"/>
<circle cx="363.8" cy="267.4" r="5" fill="#6670ee" fill-opacity="0.82"/>
<circle cx="233.0" cy="496.6" r="5" fill="#6670ee" fill-opacity="0.82"/>
<circle cx="363.8" cy="286.5" r="5" fill="#6670ee" fill-opacity="0.82"/>
<circle cx="592.7" cy="407.5" r="5" fill="#6670ee" fill-opacity="0.82"/>
<circle cx="236.6" cy="312.0" r="5" fill="#6670ee" fill-opacity="0.82"/>
<circle cx="487.3" cy="101.9" r="5" fill="#6670ee" fill-opacity="0.82"/>
<circle cx="309.3" cy="254.7" r="5" fill="#6670ee" fill-opacity="0.82"/>
<circle cx="185.7" cy="426.6" r="5" fill="#6670ee" fill-opacity="0.82"/>
<circle cx="167.6" cy="318.3" r="5" fill="#6670ee" fill-opacity="0.82"/>
<circle cx="280.2" cy="401.1" r="5" fill="#6670ee" fill-opacity="0.82"/>
<circle cx="352.9" cy="222.8" r="5" fill="#6670ee" fill-opacity="0.82"/>
<circle cx="327.5" cy="191.0" r="5" fill="#6670ee" fill-opacity="0.82"/>
<circle cx="403.8" cy="280.1" r="5" fill="#6670ee" fill-opacity="0.82"/>
<circle cx="698.1" cy="267.4" r="5" fill="#6670ee" fill-opacity="0.82"/>
<circle cx="218.4" cy="305.6" r="5" fill="#6670ee" fill-opacity="0.82"/>
<circle cx="367.4" cy="350.2" r="5" fill="#6670ee" fill-opacity="0.82"/>
<circle cx="400.1" cy="280.1" r="5" fill="#6670ee" fill-opacity="0.82"/>
<circle cx="429.2" cy="222.8" r="5" fill="#6670ee" fill-opacity="0.82"/>
<circle cx="247.5" cy="388.4" r="5" fill="#6670ee" fill-opacity="0.82"/>
<circle cx="738.1" cy="261.0" r="5" fill="#6670ee" fill-opacity="0.82"/>
<circle cx="357.9" cy="161.7" r="5.5" fill="#fff" stroke="#30332e" stroke-width="1.6"/>
<circle cx="489.3" cy="223.6" r="5.5" fill="#fff" stroke="#30332e" stroke-width="1.6"/>
<circle cx="360.2" cy="249.0" r="5.5" fill="#fff" stroke="#30332e" stroke-width="1.6"/>
<circle cx="545.4" cy="136.0" r="5.5" fill="#fff" stroke="#30332e" stroke-width="1.6"/>
<circle cx="316.8" cy="404.9" r="5.5" fill="#fff" stroke="#30332e" stroke-width="1.6"/>
<circle cx="465.5" cy="222.5" r="5.5" fill="#fff" stroke="#30332e" stroke-width="1.6"/>
<circle cx="251.1" cy="460.0" r="5.5" fill="#fff" stroke="#30332e" stroke-width="1.6"/>
<circle cx="421.8" cy="340.9" r="5.5" fill="#fff" stroke="#30332e" stroke-width="1.6"/>
<circle cx="292.7" cy="516.5" r="5.5" fill="#fff" stroke="#30332e" stroke-width="1.6"/>
<circle cx="242.7" cy="372.1" r="5.5" fill="#fff" stroke="#30332e" stroke-width="1.6"/>
<circle cx="423.0" cy="209.0" r="5.5" fill="#fff" stroke="#30332e" stroke-width="1.6"/>
<circle cx="472.7" cy="366.3" r="5.5" fill="#fff" stroke="#30332e" stroke-width="1.6"/>
<circle cx="516.0" cy="287.9" r="5.5" fill="#fff" stroke="#30332e" stroke-width="1.6"/>
<circle cx="274.6" cy="401.2" r="5.5" fill="#fff" stroke="#30332e" stroke-width="1.6"/>
<circle cx="342.9" cy="234.1" r="5.5" fill="#fff" stroke="#30332e" stroke-width="1.6"/>
<circle cx="397.3" cy="267.6" r="5.5" fill="#fff" stroke="#30332e" stroke-width="1.6"/>
<circle cx="416.1" cy="243.2" r="5.5" fill="#fff" stroke="#30332e" stroke-width="1.6"/>
<circle cx="424.3" cy="152.4" r="5.5" fill="#fff" stroke="#30332e" stroke-width="1.6"/>
<circle cx="370.2" cy="248.8" r="5.5" fill="#fff" stroke="#30332e" stroke-width="1.6"/>
<circle cx="143.5" cy="248.6" r="5.5" fill="#fff" stroke="#30332e" stroke-width="1.6"/>
<circle cx="292.1" cy="363.3" r="5.5" fill="#fff" stroke="#30332e" stroke-width="1.6"/>
<circle cx="201.9" cy="426.1" r="5.5" fill="#fff" stroke="#30332e" stroke-width="1.6"/>
<circle cx="226.3" cy="331.2" r="5.5" fill="#fff" stroke="#30332e" stroke-width="1.6"/>
<circle cx="184.8" cy="418.4" r="5.5" fill="#fff" stroke="#30332e" stroke-width="1.6"/>
<circle cx="329.0" cy="248.6" r="5.5" fill="#fff" stroke="#30332e" stroke-width="1.6"/>
<circle cx="300.6" cy="304.1" r="5.5" fill="#fff" stroke="#30332e" stroke-width="1.6"/>
<circle cx="310.0" cy="302.8" r="5.5" fill="#fff" stroke="#30332e" stroke-width="1.6"/>
<circle cx="336.0" cy="319.9" r="5.5" fill="#fff" stroke="#30332e" stroke-width="1.6"/>
<circle cx="252.0" cy="328.4" r="5.5" fill="#fff" stroke="#30332e" stroke-width="1.6"/>
<circle cx="164.5" cy="510.3" r="5.5" fill="#fff" stroke="#30332e" stroke-width="1.6"/>
<circle cx="362.1" cy="280.0" r="5.5" fill="#fff" stroke="#30332e" stroke-width="1.6"/>
<circle cx="234.7" cy="492.8" r="5.5" fill="#fff" stroke="#30332e" stroke-width="1.6"/>
<circle cx="363.1" cy="286.5" r="5.5" fill="#fff" stroke="#30332e" stroke-width="1.6"/>
<circle cx="500.0" cy="312.6" r="5.5" fill="#fff" stroke="#30332e" stroke-width="1.6"/>
<circle cx="239.6" cy="314.0" r="5.5" fill="#fff" stroke="#30332e" stroke-width="1.6"/>
<circle cx="474.5" cy="150.7" r="5.5" fill="#fff" stroke="#30332e" stroke-width="1.6"/>
<circle cx="313.1" cy="272.4" r="5.5" fill="#fff" stroke="#30332e" stroke-width="1.6"/>
<circle cx="188.3" cy="419.4" r="5.5" fill="#fff" stroke="#30332e" stroke-width="1.6"/>
<circle cx="212.6" cy="403.2" r="5.5" fill="#fff" stroke="#30332e" stroke-width="1.6"/>
<circle cx="285.9" cy="380.2" r="5.5" fill="#fff" stroke="#30332e" stroke-width="1.6"/>
<circle cx="353.6" cy="271.8" r="5.5" fill="#fff" stroke="#30332e" stroke-width="1.6"/>
<circle cx="329.1" cy="212.9" r="5.5" fill="#fff" stroke="#30332e" stroke-width="1.6"/>
<circle cx="402.4" cy="277.9" r="5.5" fill="#fff" stroke="#30332e" stroke-width="1.6"/>
<circle cx="634.4" cy="213.3" r="5.5" fill="#fff" stroke="#30332e" stroke-width="1.6"/>
<circle cx="257.6" cy="345.5" r="5.5" fill="#fff" stroke="#30332e" stroke-width="1.6"/>
<circle cx="366.6" cy="345.7" r="5.5" fill="#fff" stroke="#30332e" stroke-width="1.6"/>
<circle cx="397.2" cy="284.4" r="5.5" fill="#fff" stroke="#30332e" stroke-width="1.6"/>
<circle cx="416.9" cy="235.8" r="5.5" fill="#fff" stroke="#30332e" stroke-width="1.6"/>
<circle cx="251.6" cy="374.8" r="5.5" fill="#fff" stroke="#30332e" stroke-width="1.6"/>
<circle cx="538.2" cy="210.5" r="5.5" fill="#fff" stroke="#30332e" stroke-width="1.6"/>
<text x="450.0" y="625.0" text-anchor="middle" font-family="-apple-system,BlinkMacSystemFont,PingFang SC,Noto Sans CJK SC,sans-serif" font-size="20" font-weight="600" fill="#30332e">结婚率（标准化）</text>
<text x="28.0" y="300.0" text-anchor="middle" font-family="-apple-system,BlinkMacSystemFont,PingFang SC,Noto Sans CJK SC,sans-serif" font-size="20" font-weight="600" fill="#30332e" transform="rotate(-90 28 300.0)">离婚率（标准化）</text>
</svg>