<?xml version="1.0" encoding="UTF-8"?>
<svg xmlns="http://www.w3.org/2000/svg" width="1200" height="620" viewBox="0 0 1200 620" role="img">
  <title>离婚率与结婚率及结婚年龄</title>
  <desc>左图显示结婚率越高离婚率往往越高，右图显示结婚年龄中位数越高离婚率往往越低。</desc>
  <rect width="100%" height="100%" fill="#fff"/>
  <rect x="100" y="65" width="440" height="430" fill="#fff" stroke="#343732" stroke-width="1.5"/>
  <polygon points="100,315.83 102.75,315.36 105.5,314.89 108.25,314.42 111,313.94 113.75,313.47 116.5,312.99 119.25,312.51 122,312.02 124.75,311.54 127.5,311.05 130.25,310.56 133,310.06 135.75,309.57 138.5,309.07 141.25,308.56 144,308.06 146.75,307.55 149.5,307.04 152.25,306.52 155,306 157.75,305.48 160.5,304.95 163.25,304.42 166,303.89 168.75,303.35 171.5,302.8 174.25,302.25 177,301.7 179.75,301.14 182.5,300.57 185.25,300 188,299.42 190.75,298.84 193.5,298.25 196.25,297.65 199,297.04 201.75,296.43 204.5,295.81 207.25,295.17 210,294.54 212.75,293.89 215.5,293.23 218.25,292.56 221,291.88 223.75,291.19 226.5,290.49 229.25,289.78 232,289.05 234.75,288.31 237.5,287.56 240.25,286.8 243,286.02 245.75,285.23 248.5,284.42 251.25,283.6 254,282.76 256.75,281.91 259.5,281.04 262.25,280.16 265,279.26 267.75,278.34 270.5,277.41 273.25,276.46 276,275.49 278.75,274.5 281.5,273.5 284.25,272.49 287,271.45 289.75,270.4 292.5,269.34 295.25,268.25 298,267.16 300.75,266.04 303.5,264.92 306.25,263.78 309,262.62 311.75,261.45 314.5,260.27 317.25,259.07 320,257.86 322.75,256.65 325.5,255.41 328.25,254.17 331,252.92 333.75,251.66 336.5,250.38 339.25,249.1 342,247.81 344.75,246.51 347.5,245.2 350.25,243.88 353,242.56 355.75,241.23 358.5,239.89 361.25,238.55 364,237.2 366.75,235.84 369.5,234.47 372.25,233.11 375,231.73 377.75,230.35 380.5,228.97 383.25,227.58 386,226.19 388.75,224.79 391.5,223.39 394.25,221.98 397,220.57 399.75,219.16 402.5,217.74 405.25,216.33 408,214.9 410.75,213.48 413.5,212.05 416.25,210.62 419,209.18 421.75,207.75 424.5,206.31 427.25,204.87 430,203.42 432.75,201.98 435.5,200.53 438.25,199.08 441,197.63 443.75,196.17 446.5,194.72 449.25,193.26 452,191.8 454.75,190.34 457.5,188.88 460.25,187.42 463,185.95 465.75,184.48 468.5,183.02 471.25,181.55 474,180.08 476.75,178.61 479.5,177.13 482.25,175.66 485,174.18 487.75,172.71 490.5,171.23 493.25,169.75 496,168.27 498.75,166.79 501.5,165.31 504.25,163.83 507,162.35 509.75,160.87 512.5,159.38 515.25,157.9 518,156.41 520.75,154.92 523.5,153.44 526.25,151.95 529,150.46 531.75,148.97 534.5,147.48 537.25,145.99 540,144.5 540,258.93 537.25,259.37 534.5,259.8 531.75,260.24 529,260.67 526.25,261.11 523.5,261.55 520.75,261.99 518,262.43 515.25,262.87 512.5,263.31 509.75,263.75 507,264.2 504.25,264.64 501.5,265.08 498.75,265.53 496,265.97 493.25,266.42 490.5,266.87 487.75,267.32 485,267.77 482.25,268.22 479.5,268.67 476.75,269.13 474,269.58 471.25,270.04 468.5,270.49 465.75,270.95 463,271.41 460.25,271.87 457.5,272.34 454.75,272.8 452,273.26 449.25,273.73 446.5,274.2 443.75,274.67 441,275.14 438.25,275.62 435.5,276.09 432.75,276.57 430,277.05 427.25,277.54 424.5,278.02 421.75,278.51 419,279 416.25,279.49 413.5,279.98 410.75,280.48 408,280.98 405.25,281.49 402.5,281.99 399.75,282.5 397,283.02 394.25,283.53 391.5,284.05 388.75,284.58 386,285.11 383.25,285.64 380.5,286.18 377.75,286.72 375,287.27 372.25,287.82 369.5,288.38 366.75,288.94 364,289.51 361.25,290.08 358.5,290.67 355.75,291.25 353,291.85 350.25,292.45 347.5,293.06 344.75,293.68 342,294.3 339.25,294.94 336.5,295.58 333.75,296.24 331,296.9 328.25,297.57 325.5,298.26 322.75,298.95 320,299.66 317.25,300.38 314.5,301.11 311.75,301.85 309,302.61 306.25,303.38 303.5,304.16 300.75,304.96 298,305.78 295.25,306.6 292.5,307.45 289.75,308.31 287,309.19 284.25,310.08 281.5,310.99 278.75,311.91 276,312.85 273.25,313.81 270.5,314.79 267.75,315.78 265,316.79 262.25,317.81 259.5,318.85 256.75,319.91 254,320.99 251.25,322.07 248.5,323.18 245.75,324.3 243,325.43 240.25,326.58 237.5,327.74 234.75,328.92 232,330.11 229.25,331.31 226.5,332.52 223.75,333.75 221,334.98 218.25,336.23 215.5,337.49 212.75,338.76 210,340.03 207.25,341.32 204.5,342.62 201.75,343.92 199,345.23 196.25,346.55 193.5,347.88 190.75,349.21 188,350.55 185.25,351.9 182.5,353.26 179.75,354.62 177,355.98 174.25,357.35 171.5,358.73 168.75,360.11 166,361.5 163.25,362.89 160.5,364.28 157.75,365.68 155,367.09 152.25,368.49 149.5,369.9 146.75,371.32 144,372.74 141.25,374.16 138.5,375.58 135.75,377.01 133,378.44 130.25,379.87 127.5,381.31 124.75,382.74 122,384.18 119.25,385.63 116.5,387.07 113.75,388.52 111,389.97 108.25,391.42 105.5,392.87 102.75,394.32 100,395.78" fill="#cfd2d5" opacity="0.8"/>
  <polyline points="100,355.81 102.75,354.84 105.5,353.88 108.25,352.92 111,351.95 113.75,350.99 116.5,350.03 119.25,349.07 122,348.1 124.75,347.14 127.5,346.18 130.25,345.21 133,344.25 135.75,343.29 138.5,342.32 141.25,341.36 144,340.4 146.75,339.43 149.5,338.47 152.25,337.51 155,336.55 157.75,335.58 160.5,334.62 163.25,333.66 166,332.69 168.75,331.73 171.5,330.77 174.25,329.8 177,328.84 179.75,327.88 182.5,326.91 185.25,325.95 188,324.99 190.75,324.03 193.5,323.06 196.25,322.1 199,321.14 201.75,320.17 204.5,319.21 207.25,318.25 210,317.28 212.75,316.32 215.5,315.36 218.25,314.39 221,313.43 223.75,312.47 226.5,311.51 229.25,310.54 232,309.58 234.75,308.62 237.5,307.65 240.25,306.69 243,305.73 245.75,304.76 248.5,303.8 251.25,302.84 254,301.88 256.75,300.91 259.5,299.95 262.25,298.99 265,298.02 267.75,297.06 270.5,296.1 273.25,295.13 276,294.17 278.75,293.21 281.5,292.24 284.25,291.28 287,290.32 289.75,289.36 292.5,288.39 295.25,287.43 298,286.47 300.75,285.5 303.5,284.54 306.25,283.58 309,282.61 311.75,281.65 314.5,280.69 317.25,279.72 320,278.76 322.75,277.8 325.5,276.84 328.25,275.87 331,274.91 333.75,273.95 336.5,272.98 339.25,272.02 342,271.06 344.75,270.09 347.5,269.13 350.25,268.17 353,267.2 355.75,266.24 358.5,265.28 361.25,264.32 364,263.35 366.75,262.39 369.5,261.43 372.25,260.46 375,259.5 377.75,258.54 380.5,257.57 383.25,256.61 386,255.65 388.75,254.68 391.5,253.72 394.25,252.76 397,251.8 399.75,250.83 402.5,249.87 405.25,248.91 408,247.94 410.75,246.98 413.5,246.02 416.25,245.05 419,244.09 421.75,243.13 424.5,242.16 427.25,241.2 430,240.24 432.75,239.28 435.5,238.31 438.25,237.35 441,236.39 443.75,235.42 446.5,234.46 449.25,233.5 452,232.53 454.75,231.57 457.5,230.61 460.25,229.64 463,228.68 465.75,227.72 468.5,226.76 471.25,225.79 474,224.83 476.75,223.87 479.5,222.9 482.25,221.94 485,220.98 487.75,220.01 490.5,219.05 493.25,218.09 496,217.12 498.75,216.16 501.5,215.2 504.25,214.24 507,213.27 509.75,212.31 512.5,211.35 515.25,210.38 518,209.42 520.75,208.46 523.5,207.49 526.25,206.53 529,205.57 531.75,204.6 534.5,203.64 537.25,202.68 540,201.72" fill="none" stroke="#242724" stroke-width="3"/>
  <circle cx="276" cy="151" r="5.2" fill="#ffffff" stroke="#343732" stroke-width="2"/>
  <circle cx="417.78" cy="160.56" r="5.2" fill="#ffffff" stroke="#343732" stroke-width="2"/>
  <circle cx="278.44" cy="241.78" r="5.2" fill="#ffffff" stroke="#343732" stroke-width="2"/>
  <circle cx="427.56" cy="112.78" r="5.2" fill="#ffffff" stroke="#343732" stroke-width="2"/>
  <circle cx="249.11" cy="375.56" r="5.2" fill="#ffffff" stroke="#343732" stroke-width="2"/>
  <circle cx="356.67" cy="203.56" r="5.2" fill="#ffffff" stroke="#343732" stroke-width="2"/>
  <circle cx="200.22" cy="437.67" r="5.2" fill="#ffffff" stroke="#343732" stroke-width="2"/>
  <circle cx="346.89" cy="332.56" r="5.2" fill="#ffffff" stroke="#343732" stroke-width="2"/>
  <circle cx="214.89" cy="456.78" r="5.2" fill="#ffffff" stroke="#343732" stroke-width="2"/>
  <circle cx="197.78" cy="351.67" r="5.2" fill="#ffffff" stroke="#343732" stroke-width="2"/>
  <circle cx="322.44" cy="208.33" r="5.2" fill="#ffffff" stroke="#343732" stroke-width="2"/>
  <circle cx="390.89" cy="361.22" r="5.2" fill="#ffffff" stroke="#343732" stroke-width="2"/>
  <circle cx="412.89" cy="389.89" r="5.2" fill="#ffffff" stroke="#343732" stroke-width="2"/>
  <circle cx="219.78" cy="375.56" r="5.2" fill="#ffffff" stroke="#343732" stroke-width="2"/>
  <circle cx="266.22" cy="232.22" r="5.2" fill="#ffffff" stroke="#343732" stroke-width="2"/>
  <circle cx="307.78" cy="270.44" r="5.2" fill="#ffffff" stroke="#343732" stroke-width="2"/>
  <circle cx="322.44" cy="251.33" r="5.2" fill="#ffffff" stroke="#343732" stroke-width="2"/>
  <circle cx="324.89" cy="155.78" r="5.2" fill="#ffffff" stroke="#343732" stroke-width="2"/>
  <circle cx="285.78" cy="232.22" r="5.2" fill="#ffffff" stroke="#343732" stroke-width="2"/>
  <circle cx="112.22" cy="136.67" r="5.2" fill="#ffffff" stroke="#343732" stroke-width="2"/>
  <circle cx="229.56" cy="337.33" r="5.2" fill="#ffffff" stroke="#343732" stroke-width="2"/>
  <circle cx="168.44" cy="385.11" r="5.2" fill="#ffffff" stroke="#343732" stroke-width="2"/>
  <circle cx="185.56" cy="318.22" r="5.2" fill="#ffffff" stroke="#343732" stroke-width="2"/>
  <circle cx="156.22" cy="404.22" r="5.2" fill="#ffffff" stroke="#343732" stroke-width="2"/>
  <circle cx="254" cy="227.44" r="5.2" fill="#ffffff" stroke="#343732" stroke-width="2"/>
  <circle cx="236.89" cy="303.89" r="5.2" fill="#ffffff" stroke="#343732" stroke-width="2"/>
  <circle cx="234.44" cy="323" r="5.2" fill="#ffffff" stroke="#343732" stroke-width="2"/>
  <circle cx="261.33" cy="337.33" r="5.2" fill="#ffffff" stroke="#343732" stroke-width="2"/>
  <circle cx="190.44" cy="275.22" r="5.2" fill="#ffffff" stroke="#343732" stroke-width="2"/>
  <circle cx="144" cy="466.33" r="5.2" fill="#ffffff" stroke="#343732" stroke-width="2"/>
  <circle cx="280.89" cy="270.44" r="5.2" fill="#ffffff" stroke="#343732" stroke-width="2"/>
  <circle cx="192.89" cy="442.44" r="5.2" fill="#ffffff" stroke="#343732" stroke-width="2"/>
  <circle cx="280.89" cy="284.78" r="5.2" fill="#ffffff" stroke="#343732" stroke-width="2"/>
  <circle cx="434.89" cy="375.56" r="5.2" fill="#ffffff" stroke="#343732" stroke-width="2"/>
  <circle cx="195.33" cy="303.89" r="5.2" fill="#ffffff" stroke="#343732" stroke-width="2"/>
  <circle cx="364" cy="146.22" r="5.2" fill="#ffffff" stroke="#343732" stroke-width="2"/>
  <circle cx="244.22" cy="260.89" r="5.2" fill="#ffffff" stroke="#343732" stroke-width="2"/>
  <circle cx="161.11" cy="389.89" r="5.2" fill="#ffffff" stroke="#343732" stroke-width="2"/>
  <circle cx="148.89" cy="308.67" r="5.2" fill="#ffffff" stroke="#343732" stroke-width="2"/>
  <circle cx="224.67" cy="370.78" r="5.2" fill="#ffffff" stroke="#343732" stroke-width="2"/>
  <circle cx="273.56" cy="237" r="5.2" fill="#ffffff" stroke="#343732" stroke-width="2"/>
  <circle cx="256.44" cy="213.11" r="5.2" fill="#ffffff" stroke="#343732" stroke-width="2"/>
  <circle cx="307.78" cy="280" r="5.2" fill="#ffffff" stroke="#343732" stroke-width="2"/>
  <circle cx="505.78" cy="270.44" r="5.2" fill="#ffffff" stroke="#343732" stroke-width="2"/>
  <circle cx="183.11" cy="299.11" r="5.2" fill="#ffffff" stroke="#343732" stroke-width="2"/>
  <circle cx="283.33" cy="332.56" r="5.2" fill="#ffffff" stroke="#343732" stroke-width="2"/>
  <circle cx="305.33" cy="280" r="5.2" fill="#ffffff" stroke="#343732" stroke-width="2"/>
  <circle cx="324.89" cy="237" r="5.2" fill="#ffffff" stroke="#343732" stroke-width="2"/>
  <circle cx="202.67" cy="361.22" r="5.2" fill="#ffffff" stroke="#343732" stroke-width="2"/>
  <circle cx="532.67" cy="265.67" r="5.2" fill="#ffffff" stroke="#343732" stroke-width="2"/>
  <line x1="100" y1="495" x2="100" y2="503" stroke="#343732"/>
  <text x="100" y="526" text-anchor="middle" font-family="PingFang SC, Noto Sans CJK SC, Microsoft YaHei, sans-serif" font-size="16" fill="#30332e">13</text>
  <line x1="271.11" y1="495" x2="271.11" y2="503" stroke="#343732"/>
  <text x="271.11" y="526" text-anchor="middle" font-family="PingFang SC, Noto Sans CJK SC, Microsoft YaHei, sans-serif" font-size="16" fill="#30332e">20</text>
  <line x1="515.56" y1="495" x2="515.56" y2="503" stroke="#343732"/>
  <text x="515.56" y="526" text-anchor="middle" font-family="PingFang SC, Noto Sans CJK SC, Microsoft YaHei, sans-serif" font-size="16" fill="#30332e">30</text>
  <line x1="92" y1="471.11" x2="100" y2="471.11" stroke="#343732"/>
  <text x="86" y="477.11" text-anchor="end" font-family="PingFang SC, Noto Sans CJK SC, Microsoft YaHei, sans-serif" font-size="16" fill="#30332e">6</text>
  <line x1="92" y1="375.56" x2="100" y2="375.56" stroke="#343732"/>
  <text x="86" y="381.56" text-anchor="end" font-family="PingFang SC, Noto Sans CJK SC, Microsoft YaHei, sans-serif" font-size="16" fill="#30332e">8</text>
  <line x1="92" y1="280" x2="100" y2="280" stroke="#343732"/>
  <text x="86" y="286" text-anchor="end" font-family="PingFang SC, Noto Sans CJK SC, Microsoft YaHei, sans-serif" font-size="16" fill="#30332e">10</text>
  <line x1="92" y1="184.44" x2="100" y2="184.44" stroke="#343732"/>
  <text x="86" y="190.44" text-anchor="end" font-family="PingFang SC, Noto Sans CJK SC, Microsoft YaHei, sans-serif" font-size="16" fill="#30332e">12</text>
  <line x1="92" y1="88.89" x2="100" y2="88.89" stroke="#343732"/>
  <text x="86" y="94.89" text-anchor="end" font-family="PingFang SC, Noto Sans CJK SC, Microsoft YaHei, sans-serif" font-size="16" fill="#30332e">14</text>
  <text x="320" y="562" text-anchor="middle" font-family="PingFang SC, Noto Sans CJK SC, Microsoft YaHei, sans-serif" font-size="19" font-weight="700" fill="#263f86">结婚率</text>
  <text x="33" y="280" transform="rotate(-90 33 280)" text-anchor="middle" font-family="PingFang SC, Noto Sans CJK SC, Microsoft YaHei, sans-serif" font-size="19" font-weight="700" fill="#263f86">离婚率</text>
  <rect x="700" y="65" width="440" height="430" fill="#fff" stroke="#343732" stroke-width="1.5"/>
  <polygon points="700,124.12 702.75,126.48 705.5,128.84 708.25,131.19 711,133.55 713.75,135.9 716.5,138.26 719.25,140.61 722,142.96 724.75,145.31 727.5,147.66 730.25,150 733,152.35 735.75,154.69 738.5,157.03 741.25,159.37 744,161.71 746.75,164.05 749.5,166.38 752.25,168.71 755,171.04 757.75,173.36 760.5,175.69 763.25,178.01 766,180.33 768.75,182.64 771.5,184.96 774.25,187.26 777,189.57 779.75,191.87 782.5,194.17 785.25,196.47 788,198.76 790.75,201.04 793.5,203.32 796.25,205.6 799,207.87 801.75,210.14 804.5,212.4 807.25,214.65 810,216.9 812.75,219.14 815.5,221.38 818.25,223.61 821,225.82 823.75,228.04 826.5,230.24 829.25,232.43 832,234.62 834.75,236.79 837.5,238.96 840.25,241.11 843,243.25 845.75,245.38 848.5,247.49 851.25,249.59 854,251.68 856.75,253.76 859.5,255.81 862.25,257.85 865,259.88 867.75,261.89 870.5,263.88 873.25,265.85 876,267.8 878.75,269.74 881.5,271.65 884.25,273.55 887,275.42 889.75,277.28 892.5,279.11 895.25,280.92 898,282.72 900.75,284.49 903.5,286.24 906.25,287.98 909,289.69 911.75,291.39 914.5,293.06 917.25,294.72 920,296.36 922.75,297.99 925.5,299.59 928.25,301.18 931,302.76 933.75,304.32 936.5,305.87 939.25,307.41 942,308.93 944.75,310.44 947.5,311.94 950.25,313.43 953,314.9 955.75,316.37 958.5,317.83 961.25,319.28 964,320.72 966.75,322.15 969.5,323.58 972.25,324.99 975,326.41 977.75,327.81 980.5,329.21 983.25,330.6 986,331.99 988.75,333.37 991.5,334.75 994.25,336.12 997,337.49 999.75,338.85 1002.5,340.21 1005.25,341.57 1008,342.92 1010.75,344.27 1013.5,345.61 1016.25,346.96 1019,348.29 1021.75,349.63 1024.5,350.96 1027.25,352.29 1030,353.62 1032.75,354.95 1035.5,356.27 1038.25,357.59 1041,358.91 1043.75,360.23 1046.5,361.55 1049.25,362.86 1052,364.17 1054.75,365.48 1057.5,366.79 1060.25,368.1 1063,369.4 1065.75,370.71 1068.5,372.01 1071.25,373.31 1074,374.61 1076.75,375.91 1079.5,377.21 1082.25,378.51 1085,379.8 1087.75,381.1 1090.5,382.39 1093.25,383.68 1096,384.97 1098.75,386.26 1101.5,387.55 1104.25,388.84 1107,390.13 1109.75,391.42 1112.5,392.71 1115.25,393.99 1118,395.28 1120.75,396.56 1123.5,397.84 1126.25,399.13 1129,400.41 1131.75,401.69 1134.5,402.97 1137.25,404.25 1140,405.53 1140,513.99 1137.25,511.62 1134.5,509.24 1131.75,506.87 1129,504.49 1126.25,502.12 1123.5,499.75 1120.75,497.38 1118,495.01 1115.25,492.63 1112.5,490.26 1109.75,487.9 1107,485.53 1104.25,483.16 1101.5,480.79 1098.75,478.43 1096,476.06 1093.25,473.7 1090.5,471.34 1087.75,468.97 1085,466.61 1082.25,464.25 1079.5,461.89 1076.75,459.54 1074,457.18 1071.25,454.82 1068.5,452.47 1065.75,450.12 1063,447.77 1060.25,445.42 1057.5,443.07 1054.75,440.72 1052,438.37 1049.25,436.03 1046.5,433.69 1043.75,431.35 1041,429.01 1038.25,426.67 1035.5,424.34 1032.75,422.01 1030,419.68 1027.25,417.35 1024.5,415.03 1021.75,412.71 1019,410.39 1016.25,408.07 1013.5,405.76 1010.75,403.45 1008,401.14 1005.25,398.84 1002.5,396.54 999.75,394.24 997,391.95 994.25,389.66 991.5,387.38 988.75,385.1 986,382.82 983.25,380.56 980.5,378.29 977.75,376.04 975,373.79 972.25,371.54 969.5,369.3 966.75,367.07 964,364.85 961.25,362.64 958.5,360.43 955.75,358.23 953,356.04 950.25,353.87 947.5,351.7 944.75,349.54 942,347.4 939.25,345.26 936.5,343.14 933.75,341.03 931,338.94 928.25,336.86 925.5,334.8 922.75,332.75 920,330.72 917.25,328.7 914.5,326.71 911.75,324.73 909,322.77 906.25,320.82 903.5,318.9 900.75,317 898,315.12 895.25,313.26 892.5,311.41 889.75,309.59 887,307.79 884.25,306.01 881.5,304.25 878.75,302.51 876,300.79 873.25,299.08 870.5,297.4 867.75,295.74 865,294.09 862.25,292.46 859.5,290.84 856.75,289.25 854,287.66 851.25,286.1 848.5,284.54 845.75,283 843,281.47 840.25,279.96 837.5,278.46 834.75,276.96 832,275.48 829.25,274.01 826.5,272.55 823.75,271.1 821,269.65 818.25,268.22 815.5,266.79 812.75,265.37 810,263.96 807.25,262.55 804.5,261.15 801.75,259.75 799,258.36 796.25,256.98 793.5,255.6 790.75,254.23 788,252.86 785.25,251.49 782.5,250.13 779.75,248.77 777,247.42 774.25,246.07 771.5,244.72 768.75,243.38 766,242.04 763.25,240.7 760.5,239.37 757.75,238.04 755,236.71 752.25,235.38 749.5,234.05 746.75,232.73 744,231.41 741.25,230.09 738.5,228.78 735.75,227.46 733,226.15 730.25,224.84 727.5,223.53 724.75,222.22 722,220.92 719.25,219.61 716.5,218.31 713.75,217.01 711,215.71 708.25,214.41 705.5,213.11 702.75,211.81 700,210.52" fill="#cfd2d5" opacity="0.8"/>
  <polyline points="700,167.32 702.75,169.14 705.5,170.97 708.25,172.8 711,174.63 713.75,176.46 716.5,178.28 719.25,180.11 722,181.94 724.75,183.77 727.5,185.59 730.25,187.42 733,189.25 735.75,191.08 738.5,192.91 741.25,194.73 744,196.56 746.75,198.39 749.5,200.22 752.25,202.04 755,203.87 757.75,205.7 760.5,207.53 763.25,209.36 766,211.18 768.75,213.01 771.5,214.84 774.25,216.67 777,218.49 779.75,220.32 782.5,222.15 785.25,223.98 788,225.81 790.75,227.63 793.5,229.46 796.25,231.29 799,233.12 801.75,234.94 804.5,236.77 807.25,238.6 810,240.43 812.75,242.26 815.5,244.08 818.25,245.91 821,247.74 823.75,249.57 826.5,251.39 829.25,253.22 832,255.05 834.75,256.88 837.5,258.71 840.25,260.53 843,262.36 845.75,264.19 848.5,266.02 851.25,267.84 854,269.67 856.75,271.5 859.5,273.33 862.25,275.16 865,276.98 867.75,278.81 870.5,280.64 873.25,282.47 876,284.3 878.75,286.12 881.5,287.95 884.25,289.78 887,291.61 889.75,293.43 892.5,295.26 895.25,297.09 898,298.92 900.75,300.75 903.5,302.57 906.25,304.4 909,306.23 911.75,308.06 914.5,309.88 917.25,311.71 920,313.54 922.75,315.37 925.5,317.2 928.25,319.02 931,320.85 933.75,322.68 936.5,324.51 939.25,326.33 942,328.16 944.75,329.99 947.5,331.82 950.25,333.65 953,335.47 955.75,337.3 958.5,339.13 961.25,340.96 964,342.78 966.75,344.61 969.5,346.44 972.25,348.27 975,350.1 977.75,351.92 980.5,353.75 983.25,355.58 986,357.41 988.75,359.23 991.5,361.06 994.25,362.89 997,364.72 999.75,366.55 1002.5,368.37 1005.25,370.2 1008,372.03 1010.75,373.86 1013.5,375.68 1016.25,377.51 1019,379.34 1021.75,381.17 1024.5,383 1027.25,384.82 1030,386.65 1032.75,388.48 1035.5,390.31 1038.25,392.13 1041,393.96 1043.75,395.79 1046.5,397.62 1049.25,399.45 1052,401.27 1054.75,403.1 1057.5,404.93 1060.25,406.76 1063,408.58 1065.75,410.41 1068.5,412.24 1071.25,414.07 1074,415.9 1076.75,417.72 1079.5,419.55 1082.25,421.38 1085,423.21 1087.75,425.03 1090.5,426.86 1093.25,428.69 1096,430.52 1098.75,432.35 1101.5,434.17 1104.25,436 1107,437.83 1109.75,439.66 1112.5,441.49 1115.25,443.31 1118,445.14 1120.75,446.97 1123.5,448.8 1126.25,450.62 1129,452.45 1131.75,454.28 1134.5,456.11 1137.25,457.94 1140,459.76" fill="none" stroke="#242724" stroke-width="3"/>
  <circle cx="844.57" cy="151" r="5.2" fill="#ffffff" stroke="#343732" stroke-width="2"/>
  <circle cx="838.29" cy="160.56" r="5.2" fill="#ffffff" stroke="#343732" stroke-width="2"/>
  <circle cx="876" cy="241.78" r="5.2" fill="#ffffff" stroke="#343732" stroke-width="2"/>
  <circle cx="781.71" cy="112.78" r="5.2" fill="#ffffff" stroke="#343732" stroke-width="2"/>
  <circle cx="938.86" cy="375.56" r="5.2" fill="#ffffff" stroke="#343732" stroke-width="2"/>
  <circle cx="869.71" cy="203.56" r="5.2" fill="#ffffff" stroke="#343732" stroke-width="2"/>
  <circle cx="989.14" cy="437.67" r="5.2" fill="#ffffff" stroke="#343732" stroke-width="2"/>
  <circle cx="926.29" cy="332.56" r="5.2" fill="#ffffff" stroke="#343732" stroke-width="2"/>
  <circle cx="1121.14" cy="456.78" r="5.2" fill="#ffffff" stroke="#343732" stroke-width="2"/>
  <circle cx="913.71" cy="351.67" r="5.2" fill="#ffffff" stroke="#343732" stroke-width="2"/>
  <circle cx="882.29" cy="208.33" r="5.2" fill="#ffffff" stroke="#343732" stroke-width="2"/>
  <circle cx="945.14" cy="361.22" r="5.2" fill="#ffffff" stroke="#343732" stroke-width="2"/>
  <circle cx="712.57" cy="389.89" r="5.2" fill="#ffffff" stroke="#343732" stroke-width="2"/>
  <circle cx="951.43" cy="375.56" r="5.2" fill="#ffffff" stroke="#343732" stroke-width="2"/>
  <circle cx="869.71" cy="232.22" r="5.2" fill="#ffffff" stroke="#343732" stroke-width="2"/>
  <circle cx="850.86" cy="270.44" r="5.2" fill="#ffffff" stroke="#343732" stroke-width="2"/>
  <circle cx="825.71" cy="251.33" r="5.2" fill="#ffffff" stroke="#343732" stroke-width="2"/>
  <circle cx="813.14" cy="155.78" r="5.2" fill="#ffffff" stroke="#343732" stroke-width="2"/>
  <circle cx="882.29" cy="232.22" r="5.2" fill="#ffffff" stroke="#343732" stroke-width="2"/>
  <circle cx="913.71" cy="136.67" r="5.2" fill="#ffffff" stroke="#343732" stroke-width="2"/>
  <circle cx="970.29" cy="337.33" r="5.2" fill="#ffffff" stroke="#343732" stroke-width="2"/>
  <circle cx="1045.71" cy="385.11" r="5.2" fill="#ffffff" stroke="#343732" stroke-width="2"/>
  <circle cx="913.71" cy="318.22" r="5.2" fill="#ffffff" stroke="#343732" stroke-width="2"/>
  <circle cx="907.43" cy="404.22" r="5.2" fill="#ffffff" stroke="#343732" stroke-width="2"/>
  <circle cx="876" cy="227.44" r="5.2" fill="#ffffff" stroke="#343732" stroke-width="2"/>
  <circle cx="863.43" cy="303.89" r="5.2" fill="#ffffff" stroke="#343732" stroke-width="2"/>
  <circle cx="869.71" cy="323" r="5.2" fill="#ffffff" stroke="#343732" stroke-width="2"/>
  <circle cx="850.86" cy="337.33" r="5.2" fill="#ffffff" stroke="#343732" stroke-width="2"/>
  <circle cx="938.86" cy="275.22" r="5.2" fill="#ffffff" stroke="#343732" stroke-width="2"/>
  <circle cx="995.43" cy="466.33" r="5.2" fill="#ffffff" stroke="#343732" stroke-width="2"/>
  <circle cx="876" cy="270.44" r="5.2" fill="#ffffff" stroke="#343732" stroke-width="2"/>
  <circle cx="1039.43" cy="442.44" r="5.2" fill="#ffffff" stroke="#343732" stroke-width="2"/>
  <circle cx="869.71" cy="284.78" r="5.2" fill="#ffffff" stroke="#343732" stroke-width="2"/>
  <circle cx="844.57" cy="375.56" r="5.2" fill="#ffffff" stroke="#343732" stroke-width="2"/>
  <circle cx="907.43" cy="303.89" r="5.2" fill="#ffffff" stroke="#343732" stroke-width="2"/>
  <circle cx="788" cy="146.22" r="5.2" fill="#ffffff" stroke="#343732" stroke-width="2"/>
  <circle cx="888.57" cy="260.89" r="5.2" fill="#ffffff" stroke="#343732" stroke-width="2"/>
  <circle cx="957.71" cy="389.89" r="5.2" fill="#ffffff" stroke="#343732" stroke-width="2"/>
  <circle cx="1026.86" cy="308.67" r="5.2" fill="#ffffff" stroke="#343732" stroke-width="2"/>
  <circle cx="913.71" cy="370.78" r="5.2" fill="#ffffff" stroke="#343732" stroke-width="2"/>
  <circle cx="863.43" cy="237" r="5.2" fill="#ffffff" stroke="#343732" stroke-width="2"/>
  <circle cx="838.29" cy="213.11" r="5.2" fill="#ffffff" stroke="#343732" stroke-width="2"/>
  <circle cx="838.29" cy="280" r="5.2" fill="#ffffff" stroke="#343732" stroke-width="2"/>
  <circle cx="718.86" cy="270.44" r="5.2" fill="#ffffff" stroke="#343732" stroke-width="2"/>
  <circle cx="945.14" cy="299.11" r="5.2" fill="#ffffff" stroke="#343732" stroke-width="2"/>
  <circle cx="913.71" cy="332.56" r="5.2" fill="#ffffff" stroke="#343732" stroke-width="2"/>
  <circle cx="882.29" cy="280" r="5.2" fill="#ffffff" stroke="#343732" stroke-width="2"/>
  <circle cx="825.71" cy="237" r="5.2" fill="#ffffff" stroke="#343732" stroke-width="2"/>
  <circle cx="907.43" cy="361.22" r="5.2" fill="#ffffff" stroke="#343732" stroke-width="2"/>
  <circle cx="775.43" cy="265.67" r="5.2" fill="#ffffff" stroke="#343732" stroke-width="2"/>
  <line x1="700" y1="495" x2="700" y2="503" stroke="#343732"/>
  <text x="700" y="526" text-anchor="middle" font-family="PingFang SC, Noto Sans CJK SC, Microsoft YaHei, sans-serif" font-size="16" fill="#30332e">23</text>
  <line x1="888.57" y1="495" x2="888.57" y2="503" stroke="#343732"/>
  <text x="888.57" y="526" text-anchor="middle" font-family="PingFang SC, Noto Sans CJK SC, Microsoft YaHei, sans-serif" font-size="16" fill="#30332e">26</text>
  <line x1="1077.14" y1="495" x2="1077.14" y2="503" stroke="#343732"/>
  <text x="1077.14" y="526" text-anchor="middle" font-family="PingFang SC, Noto Sans CJK SC, Microsoft YaHei, sans-serif" font-size="16" fill="#30332e">29</text>
  <line x1="692" y1="471.11" x2="700" y2="471.11" stroke="#343732"/>
  <text x="686" y="477.11" text-anchor="end" font-family="PingFang SC, Noto Sans CJK SC, Microsoft YaHei, sans-serif" font-size="16" fill="#30332e">6</text>
  <line x1="692" y1="375.56" x2="700" y2="375.56" stroke="#343732"/>
  <text x="686" y="381.56" text-anchor="end" font-family="PingFang SC, Noto Sans CJK SC, Microsoft YaHei, sans-serif" font-size="16" fill="#30332e">8</text>
  <line x1="692" y1="280" x2="700" y2="280" stroke="#343732"/>
  <text x="686" y="286" text-anchor="end" font-family="PingFang SC, Noto Sans CJK SC, Microsoft YaHei, sans-serif" font-size="16" fill="#30332e">10</text>
  <line x1="692" y1="184.44" x2="700" y2="184.44" stroke="#343732"/>
  <text x="686" y="190.44" text-anchor="end" font-family="PingFang SC, Noto Sans CJK SC, Microsoft YaHei, sans-serif" font-size="16" fill="#30332e">12</text>
  <line x1="692" y1="88.89" x2="700" y2="88.89" stroke="#343732"/>
  <text x="686" y="94.89" text-anchor="end" font-family="PingFang SC, Noto Sans CJK SC, Microsoft YaHei, sans-serif" font-size="16" fill="#30332e">14</text>
  <text x="920" y="562" text-anchor="middle" font-family="PingFang SC, Noto Sans CJK SC, Microsoft YaHei, sans-serif" font-size="19" font-weight="700" fill="#263f86">结婚年龄中位数</text>
  <text x="633" y="280" transform="rotate(-90 633 280)" text-anchor="middle" font-family="PingFang SC, Noto Sans CJK SC, Microsoft YaHei, sans-serif" font-size="19" font-weight="700" fill="#263f86">离婚率</text>
</svg>
