<?xml version="1.0" encoding="UTF-8"?>
<svg xmlns="http://www.w3.org/2000/svg" width="1200" height="580" viewBox="0 0 1200 580" role="img">
<title>薄尾分布与高影响力观测</title>
<desc>左图比较高斯与自由度二的 Student-t 密度，右图比较负对数密度；Student-t 尾部下降更慢。</desc>
<rect width="100%" height="100%" fill="#fff"/>
<rect x="110" y="70" width="430" height="390" fill="#fff" stroke="#343732" stroke-width="1.5"/>
<polyline points="110,460 111.34,460 112.69,460 114.03,460 115.38,460 116.72,460 118.06,460 119.41,460 120.75,460 122.09,460 123.44,460 124.78,460 126.12,460 127.47,459.99 128.81,459.99 130.16,459.99 131.5,459.99 132.84,459.99 134.19,459.99 135.53,459.99 136.88,459.98 138.22,459.98 139.56,459.98 140.91,459.98 142.25,459.97 143.59,459.97 144.94,459.97 146.28,459.96 147.62,459.96 148.97,459.95 150.31,459.94 151.66,459.94 153,459.93 154.34,459.92 155.69,459.91 157.03,459.89 158.38,459.88 159.72,459.87 161.06,459.85 162.41,459.83 163.75,459.81 165.09,459.79 166.44,459.76 167.78,459.73 169.12,459.7 170.47,459.66 171.81,459.62 173.16,459.58 174.5,459.53 175.84,459.47 177.19,459.41 178.53,459.35 179.88,459.27 181.22,459.19 182.56,459.1 183.91,459.01 185.25,458.9 186.59,458.78 187.94,458.66 189.28,458.52 190.62,458.36 191.97,458.2 193.31,458.01 194.66,457.82 196,457.6 197.34,457.36 198.69,457.11 200.03,456.83 201.38,456.53 202.72,456.21 204.06,455.86 205.41,455.48 206.75,455.07 208.09,454.63 209.44,454.16 210.78,453.65 212.12,453.11 213.47,452.52 214.81,451.89 216.16,451.22 217.5,450.51 218.84,449.74 220.19,448.92 221.53,448.05 222.88,447.12 224.22,446.14 225.56,445.09 226.91,443.98 228.25,442.81 229.59,441.56 230.94,440.25 232.28,438.86 233.62,437.4 234.97,435.86 236.31,434.24 237.66,432.54 239,430.75 240.34,428.88 241.69,426.93 243.03,424.88 244.38,422.74 245.72,420.51 247.06,418.19 248.41,415.78 249.75,413.27 251.09,410.66 252.44,407.97 253.78,405.18 255.12,402.29 256.47,399.32 257.81,396.25 259.16,393.09 260.5,389.84 261.84,386.51 263.19,383.1 264.53,379.61 265.88,376.04 267.22,372.39 268.56,368.68 269.91,364.9 271.25,361.07 272.59,357.17 273.94,353.23 275.28,349.25 276.62,345.23 277.97,341.18 279.31,337.11 280.66,333.03 282,328.93 283.34,324.84 284.69,320.75 286.03,316.68 287.38,312.64 288.72,308.63 290.06,304.66 291.41,300.74 292.75,296.88 294.09,293.1 295.44,289.39 296.78,285.77 298.12,282.25 299.47,278.83 300.81,275.53 302.16,272.35 303.5,269.3 304.84,266.39 306.19,263.63 307.53,261.02 308.88,258.58 310.22,256.3 311.56,254.2 312.91,252.29 314.25,250.55 315.59,249.02 316.94,247.67 318.28,246.53 319.62,245.59 320.97,244.85 322.31,244.33 323.66,244.01 325,243.91 326.34,244.01 327.69,244.33 329.03,244.85 330.38,245.59 331.72,246.53 333.06,247.67 334.41,249.02 335.75,250.55 337.09,252.29 338.44,254.2 339.78,256.3 341.12,258.58 342.47,261.02 343.81,263.63 345.16,266.39 346.5,269.3 347.84,272.35 349.19,275.53 350.53,278.83 351.88,282.25 353.22,285.77 354.56,289.39 355.91,293.1 357.25,296.88 358.59,300.74 359.94,304.66 361.28,308.63 362.62,312.64 363.97,316.68 365.31,320.75 366.66,324.84 368,328.93 369.34,333.03 370.69,337.11 372.03,341.18 373.38,345.23 374.72,349.25 376.06,353.23 377.41,357.17 378.75,361.07 380.09,364.9 381.44,368.68 382.78,372.39 384.12,376.04 385.47,379.61 386.81,383.1 388.16,386.51 389.5,389.84 390.84,393.09 392.19,396.25 393.53,399.32 394.88,402.29 396.22,405.18 397.56,407.97 398.91,410.66 400.25,413.27 401.59,415.78 402.94,418.19 404.28,420.51 405.62,422.74 406.97,424.88 408.31,426.93 409.66,428.88 411,430.75 412.34,432.54 413.69,434.24 415.03,435.86 416.38,437.4 417.72,438.86 419.06,440.25 420.41,441.56 421.75,442.81 423.09,443.98 424.44,445.09 425.78,446.14 427.12,447.12 428.47,448.05 429.81,448.92 431.16,449.74 432.5,450.51 433.84,451.22 435.19,451.89 436.53,452.52 437.88,453.11 439.22,453.65 440.56,454.16 441.91,454.63 443.25,455.07 444.59,455.48 445.94,455.86 447.28,456.21 448.62,456.53 449.97,456.83 451.31,457.11 452.66,457.36 454,457.6 455.34,457.82 456.69,458.01 458.03,458.2 459.38,458.36 460.72,458.52 462.06,458.66 463.41,458.78 464.75,458.9 466.09,459.01 467.44,459.1 468.78,459.19 470.12,459.27 471.47,459.35 472.81,459.41 474.16,459.47 475.5,459.53 476.84,459.58 478.19,459.62 479.53,459.66 480.88,459.7 482.22,459.73 483.56,459.76 484.91,459.79 486.25,459.81 487.59,459.83 488.94,459.85 490.28,459.87 491.62,459.88 492.97,459.89 494.31,459.91 495.66,459.92 497,459.93 498.34,459.94 499.69,459.94 501.03,459.95 502.38,459.96 503.72,459.96 505.06,459.97 506.41,459.97 507.75,459.97 509.09,459.98 510.44,459.98 511.78,459.98 513.12,459.98 514.47,459.99 515.81,459.99 517.16,459.99 518.5,459.99 519.84,459.99 521.19,459.99 522.53,459.99 523.88,460 525.22,460 526.56,460 527.91,460 529.25,460 530.59,460 531.94,460 533.28,460 534.62,460 535.97,460 537.31,460 538.66,460 540,460" fill="none" stroke="#6670ee" stroke-width="3"/>
<polyline points="110,456.14 111.34,456.07 112.69,456 114.03,455.93 115.38,455.86 116.72,455.78 118.06,455.71 119.41,455.63 120.75,455.55 122.09,455.47 123.44,455.39 124.78,455.3 126.12,455.21 127.47,455.12 128.81,455.03 130.16,454.94 131.5,454.84 132.84,454.74 134.19,454.64 135.53,454.53 136.88,454.43 138.22,454.32 139.56,454.21 140.91,454.09 142.25,453.97 143.59,453.85 144.94,453.73 146.28,453.6 147.62,453.47 148.97,453.33 150.31,453.19 151.66,453.05 153,452.91 154.34,452.76 155.69,452.6 157.03,452.45 158.38,452.28 159.72,452.12 161.06,451.94 162.41,451.77 163.75,451.59 165.09,451.4 166.44,451.21 167.78,451.01 169.12,450.81 170.47,450.6 171.81,450.38 173.16,450.16 174.5,449.93 175.84,449.7 177.19,449.45 178.53,449.2 179.88,448.95 181.22,448.68 182.56,448.41 183.91,448.13 185.25,447.83 186.59,447.54 187.94,447.23 189.28,446.91 190.62,446.58 191.97,446.24 193.31,445.89 194.66,445.53 196,445.15 197.34,444.77 198.69,444.37 200.03,443.96 201.38,443.53 202.72,443.09 204.06,442.64 205.41,442.17 206.75,441.68 208.09,441.18 209.44,440.66 210.78,440.12 212.12,439.57 213.47,438.99 214.81,438.4 216.16,437.78 217.5,437.14 218.84,436.48 220.19,435.8 221.53,435.09 222.88,434.35 224.22,433.59 225.56,432.8 226.91,431.99 228.25,431.14 229.59,430.26 230.94,429.35 232.28,428.41 233.62,427.43 234.97,426.42 236.31,425.37 237.66,424.28 239,423.14 240.34,421.97 241.69,420.75 243.03,419.49 244.38,418.18 245.72,416.83 247.06,415.42 248.41,413.96 249.75,412.45 251.09,410.88 252.44,409.25 253.78,407.56 255.12,405.82 256.47,404.01 257.81,402.13 259.16,400.19 260.5,398.18 261.84,396.1 263.19,393.94 264.53,391.72 265.88,389.42 267.22,387.04 268.56,384.59 269.91,382.05 271.25,379.44 272.59,376.75 273.94,373.99 275.28,371.14 276.62,368.21 277.97,365.21 279.31,362.13 280.66,358.98 282,355.76 283.34,352.47 284.69,349.11 286.03,345.7 287.38,342.23 288.72,338.71 290.06,335.15 291.41,331.56 292.75,327.95 294.09,324.32 295.44,320.69 296.78,317.06 298.12,313.46 299.47,309.88 300.81,306.36 302.16,302.89 303.5,299.51 304.84,296.21 306.19,293.03 307.53,289.97 308.88,287.05 310.22,284.29 311.56,281.71 312.91,279.32 314.25,277.13 315.59,275.16 316.94,273.43 318.28,271.95 319.62,270.71 320.97,269.75 322.31,269.05 323.66,268.63 325,268.49 326.34,268.63 327.69,269.05 329.03,269.75 330.38,270.71 331.72,271.95 333.06,273.43 334.41,275.16 335.75,277.13 337.09,279.32 338.44,281.71 339.78,284.29 341.12,287.05 342.47,289.97 343.81,293.03 345.16,296.21 346.5,299.51 347.84,302.89 349.19,306.36 350.53,309.88 351.88,313.46 353.22,317.06 354.56,320.69 355.91,324.32 357.25,327.95 358.59,331.56 359.94,335.15 361.28,338.71 362.62,342.23 363.97,345.7 365.31,349.11 366.66,352.47 368,355.76 369.34,358.98 370.69,362.13 372.03,365.21 373.38,368.21 374.72,371.14 376.06,373.99 377.41,376.75 378.75,379.44 380.09,382.05 381.44,384.59 382.78,387.04 384.12,389.42 385.47,391.72 386.81,393.94 388.16,396.1 389.5,398.18 390.84,400.19 392.19,402.13 393.53,404.01 394.88,405.82 396.22,407.56 397.56,409.25 398.91,410.88 400.25,412.45 401.59,413.96 402.94,415.42 404.28,416.83 405.62,418.18 406.97,419.49 408.31,420.75 409.66,421.97 411,423.14 412.34,424.28 413.69,425.37 415.03,426.42 416.38,427.43 417.72,428.41 419.06,429.35 420.41,430.26 421.75,431.14 423.09,431.99 424.44,432.8 425.78,433.59 427.12,434.35 428.47,435.09 429.81,435.8 431.16,436.48 432.5,437.14 433.84,437.78 435.19,438.4 436.53,438.99 437.88,439.57 439.22,440.12 440.56,440.66 441.91,441.18 443.25,441.68 444.59,442.17 445.94,442.64 447.28,443.09 448.62,443.53 449.97,443.96 451.31,444.37 452.66,444.77 454,445.15 455.34,445.53 456.69,445.89 458.03,446.24 459.38,446.58 460.72,446.91 462.06,447.23 463.41,447.54 464.75,447.83 466.09,448.13 467.44,448.41 468.78,448.68 470.12,448.95 471.47,449.2 472.81,449.45 474.16,449.7 475.5,449.93 476.84,450.16 478.19,450.38 479.53,450.6 480.88,450.81 482.22,451.01 483.56,451.21 484.91,451.4 486.25,451.59 487.59,451.77 488.94,451.94 490.28,452.12 491.62,452.28 492.97,452.45 494.31,452.6 495.66,452.76 497,452.91 498.34,453.05 499.69,453.19 501.03,453.33 502.38,453.47 503.72,453.6 505.06,453.73 506.41,453.85 507.75,453.97 509.09,454.09 510.44,454.21 511.78,454.32 513.12,454.43 514.47,454.53 515.81,454.64 517.16,454.74 518.5,454.84 519.84,454.94 521.19,455.03 522.53,455.12 523.88,455.21 525.22,455.3 526.56,455.39 527.91,455.47 529.25,455.55 530.59,455.63 531.94,455.71 533.28,455.78 534.62,455.86 535.97,455.93 537.31,456 538.66,456.07 540,456.14" fill="none" stroke="#30332e" stroke-width="3"/>
<line x1="110" y1="460" x2="110" y2="467" stroke="#333"/>
<text x="110" y="489" text-anchor="middle" font-family="PingFang SC, Noto Sans CJK SC, Microsoft YaHei, sans-serif" font-size="16">-5</text>
<line x1="196" y1="460" x2="196" y2="467" stroke="#333"/>
<text x="196" y="489" text-anchor="middle" font-family="PingFang SC, Noto Sans CJK SC, Microsoft YaHei, sans-serif" font-size="16">-3</text>
<line x1="282" y1="460" x2="282" y2="467" stroke="#333"/>
<text x="282" y="489" text-anchor="middle" font-family="PingFang SC, Noto Sans CJK SC, Microsoft YaHei, sans-serif" font-size="16">-1</text>
<line x1="368" y1="460" x2="368" y2="467" stroke="#333"/>
<text x="368" y="489" text-anchor="middle" font-family="PingFang SC, Noto Sans CJK SC, Microsoft YaHei, sans-serif" font-size="16">1</text>
<line x1="454" y1="460" x2="454" y2="467" stroke="#333"/>
<text x="454" y="489" text-anchor="middle" font-family="PingFang SC, Noto Sans CJK SC, Microsoft YaHei, sans-serif" font-size="16">3</text>
<line x1="540" y1="460" x2="540" y2="467" stroke="#333"/>
<text x="540" y="489" text-anchor="middle" font-family="PingFang SC, Noto Sans CJK SC, Microsoft YaHei, sans-serif" font-size="16">5</text>
<text x="325.0" y="525" text-anchor="middle" font-family="PingFang SC, Noto Sans CJK SC, Microsoft YaHei, sans-serif" font-size="20" font-weight="700" fill="#263f86">数值</text>
<text x="48" y="265.0" transform="rotate(-90 48 265.0)" text-anchor="middle" font-family="PingFang SC, Noto Sans CJK SC, Microsoft YaHei, sans-serif" font-size="20" font-weight="700" fill="#263f86">密度</text>
<rect x="665" y="70" width="430" height="390" fill="#fff" stroke="#343732" stroke-width="1.5"/>
<polyline points="665,150.21 666.34,153.93 667.69,157.62 669.03,161.3 670.38,164.95 671.72,168.58 673.06,172.18 674.41,175.76 675.75,179.32 677.09,182.85 678.44,186.36 679.78,189.85 681.12,193.32 682.47,196.76 683.81,200.17 685.16,203.57 686.5,206.94 687.84,210.29 689.19,213.61 690.53,216.91 691.88,220.19 693.22,223.44 694.56,226.67 695.91,229.88 697.25,233.07 698.59,236.23 699.94,239.36 701.28,242.48 702.62,245.57 703.97,248.64 705.31,251.68 706.66,254.7 708,257.7 709.34,260.67 710.69,263.63 712.03,266.55 713.38,269.46 714.72,272.34 716.06,275.2 717.41,278.03 718.75,280.84 720.09,283.63 721.44,286.39 722.78,289.13 724.12,291.85 725.47,294.55 726.81,297.22 728.16,299.87 729.5,302.49 730.84,305.09 732.19,307.67 733.53,310.22 734.88,312.75 736.22,315.26 737.56,317.75 738.91,320.21 740.25,322.64 741.59,325.06 742.94,327.45 744.28,329.82 745.62,332.16 746.97,334.48 748.31,336.78 749.66,339.06 751,341.31 752.34,343.53 753.69,345.74 755.03,347.92 756.38,350.08 757.72,352.21 759.06,354.32 760.41,356.41 761.75,358.48 763.09,360.52 764.44,362.53 765.78,364.53 767.12,366.5 768.47,368.45 769.81,370.37 771.16,372.27 772.5,374.15 773.84,376.01 775.19,377.84 776.53,379.65 777.88,381.43 779.22,383.19 780.56,384.93 781.91,386.64 783.25,388.34 784.59,390 785.94,391.65 787.28,393.27 788.62,394.87 789.97,396.44 791.31,397.99 792.66,399.52 794,401.03 795.34,402.51 796.69,403.96 798.03,405.4 799.38,406.81 800.72,408.2 802.06,409.56 803.41,410.9 804.75,412.22 806.09,413.52 807.44,414.79 808.78,416.04 810.12,417.26 811.47,418.46 812.81,419.64 814.16,420.8 815.5,421.93 816.84,423.04 818.19,424.12 819.53,425.18 820.88,426.22 822.22,427.23 823.56,428.23 824.91,429.19 826.25,430.14 827.59,431.06 828.94,431.96 830.28,432.83 831.62,433.68 832.97,434.51 834.31,435.32 835.66,436.1 837,436.86 838.34,437.59 839.69,438.3 841.03,438.99 842.38,439.66 843.72,440.3 845.06,440.92 846.41,441.51 847.75,442.08 849.09,442.63 850.44,443.16 851.78,443.66 853.12,444.13 854.47,444.59 855.81,445.02 857.16,445.43 858.5,445.81 859.84,446.18 861.19,446.51 862.53,446.83 863.88,447.12 865.22,447.39 866.56,447.63 867.91,447.86 869.25,448.05 870.59,448.23 871.94,448.38 873.28,448.51 874.62,448.61 875.97,448.7 877.31,448.75 878.66,448.79 880,448.8 881.34,448.79 882.69,448.75 884.03,448.7 885.38,448.61 886.72,448.51 888.06,448.38 889.41,448.23 890.75,448.05 892.09,447.86 893.44,447.63 894.78,447.39 896.12,447.12 897.47,446.83 898.81,446.51 900.16,446.18 901.5,445.81 902.84,445.43 904.19,445.02 905.53,444.59 906.88,444.13 908.22,443.66 909.56,443.16 910.91,442.63 912.25,442.08 913.59,441.51 914.94,440.92 916.28,440.3 917.62,439.66 918.97,438.99 920.31,438.3 921.66,437.59 923,436.86 924.34,436.1 925.69,435.32 927.03,434.51 928.38,433.68 929.72,432.83 931.06,431.96 932.41,431.06 933.75,430.14 935.09,429.19 936.44,428.23 937.78,427.23 939.12,426.22 940.47,425.18 941.81,424.12 943.16,423.04 944.5,421.93 945.84,420.8 947.19,419.64 948.53,418.46 949.88,417.26 951.22,416.04 952.56,414.79 953.91,413.52 955.25,412.22 956.59,410.9 957.94,409.56 959.28,408.2 960.62,406.81 961.97,405.4 963.31,403.96 964.66,402.51 966,401.03 967.34,399.52 968.69,397.99 970.03,396.44 971.38,394.87 972.72,393.27 974.06,391.65 975.41,390 976.75,388.34 978.09,386.64 979.44,384.93 980.78,383.19 982.12,381.43 983.47,379.65 984.81,377.84 986.16,376.01 987.5,374.15 988.84,372.27 990.19,370.37 991.53,368.45 992.88,366.5 994.22,364.53 995.56,362.53 996.91,360.52 998.25,358.48 999.59,356.41 1000.94,354.32 1002.28,352.21 1003.62,350.08 1004.97,347.92 1006.31,345.74 1007.66,343.53 1009,341.31 1010.34,339.06 1011.69,336.78 1013.03,334.48 1014.38,332.16 1015.72,329.82 1017.06,327.45 1018.41,325.06 1019.75,322.64 1021.09,320.21 1022.44,317.75 1023.78,315.26 1025.12,312.75 1026.47,310.22 1027.81,307.67 1029.16,305.09 1030.5,302.49 1031.84,299.87 1033.19,297.22 1034.53,294.55 1035.88,291.85 1037.22,289.13 1038.56,286.39 1039.91,283.63 1041.25,280.84 1042.59,278.03 1043.94,275.2 1045.28,272.34 1046.62,269.46 1047.97,266.55 1049.31,263.63 1050.66,260.67 1052,257.7 1053.34,254.7 1054.69,251.68 1056.03,248.64 1057.38,245.57 1058.72,242.48 1060.06,239.36 1061.41,236.23 1062.75,233.07 1064.09,229.88 1065.44,226.67 1066.78,223.44 1068.12,220.19 1069.47,216.91 1070.81,213.61 1072.16,210.29 1073.5,206.94 1074.84,203.57 1076.19,200.17 1077.53,196.76 1078.88,193.32 1080.22,189.85 1081.56,186.36 1082.91,182.85 1084.25,179.32 1085.59,175.76 1086.94,172.18 1088.28,168.58 1089.62,164.95 1090.97,161.3 1092.31,157.62 1093.66,153.93 1095,150.21" fill="none" stroke="#6670ee" stroke-width="3"/>
<polyline points="665,388.12 666.34,388.34 667.69,388.56 669.03,388.79 670.38,389.01 671.72,389.24 673.06,389.46 674.41,389.69 675.75,389.92 677.09,390.15 678.44,390.38 679.78,390.62 681.12,390.85 682.47,391.09 683.81,391.33 685.16,391.57 686.5,391.81 687.84,392.05 689.19,392.29 690.53,392.54 691.88,392.79 693.22,393.03 694.56,393.28 695.91,393.54 697.25,393.79 698.59,394.05 699.94,394.3 701.28,394.56 702.62,394.82 703.97,395.08 705.31,395.35 706.66,395.61 708,395.88 709.34,396.15 710.69,396.42 712.03,396.7 713.38,396.97 714.72,397.25 716.06,397.53 717.41,397.81 718.75,398.09 720.09,398.38 721.44,398.66 722.78,398.95 724.12,399.24 725.47,399.54 726.81,399.83 728.16,400.13 729.5,400.43 730.84,400.73 732.19,401.04 733.53,401.35 734.88,401.65 736.22,401.97 737.56,402.28 738.91,402.6 740.25,402.92 741.59,403.24 742.94,403.56 744.28,403.89 745.62,404.22 746.97,404.55 748.31,404.89 749.66,405.23 751,405.57 752.34,405.91 753.69,406.26 755.03,406.61 756.38,406.96 757.72,407.31 759.06,407.67 760.41,408.03 761.75,408.4 763.09,408.76 764.44,409.14 765.78,409.51 767.12,409.89 768.47,410.27 769.81,410.65 771.16,411.04 772.5,411.43 773.84,411.83 775.19,412.22 776.53,412.63 777.88,413.03 779.22,413.44 780.56,413.85 781.91,414.27 783.25,414.69 784.59,415.12 785.94,415.54 787.28,415.98 788.62,416.41 789.97,416.85 791.31,417.3 792.66,417.75 794,418.2 795.34,418.66 796.69,419.12 798.03,419.59 799.38,420.06 800.72,420.53 802.06,421.01 803.41,421.49 804.75,421.98 806.09,422.47 807.44,422.97 808.78,423.47 810.12,423.97 811.47,424.48 812.81,425 814.16,425.51 815.5,426.04 816.84,426.56 818.19,427.09 819.53,427.63 820.88,428.16 822.22,428.71 823.56,429.25 824.91,429.8 826.25,430.35 827.59,430.9 828.94,431.46 830.28,432.02 831.62,432.58 832.97,433.15 834.31,433.71 835.66,434.28 837,434.84 838.34,435.41 839.69,435.97 841.03,436.53 842.38,437.09 843.72,437.65 845.06,438.21 846.41,438.76 847.75,439.3 849.09,439.84 850.44,440.37 851.78,440.89 853.12,441.4 854.47,441.9 855.81,442.39 857.16,442.86 858.5,443.32 859.84,443.76 861.19,444.19 862.53,444.59 863.88,444.97 865.22,445.33 866.56,445.66 867.91,445.96 869.25,446.24 870.59,446.49 871.94,446.71 873.28,446.9 874.62,447.05 875.97,447.17 877.31,447.26 878.66,447.31 880,447.33 881.34,447.31 882.69,447.26 884.03,447.17 885.38,447.05 886.72,446.9 888.06,446.71 889.41,446.49 890.75,446.24 892.09,445.96 893.44,445.66 894.78,445.33 896.12,444.97 897.47,444.59 898.81,444.19 900.16,443.76 901.5,443.32 902.84,442.86 904.19,442.39 905.53,441.9 906.88,441.4 908.22,440.89 909.56,440.37 910.91,439.84 912.25,439.3 913.59,438.76 914.94,438.21 916.28,437.65 917.62,437.09 918.97,436.53 920.31,435.97 921.66,435.41 923,434.84 924.34,434.28 925.69,433.71 927.03,433.15 928.38,432.58 929.72,432.02 931.06,431.46 932.41,430.9 933.75,430.35 935.09,429.8 936.44,429.25 937.78,428.71 939.12,428.16 940.47,427.63 941.81,427.09 943.16,426.56 944.5,426.04 945.84,425.51 947.19,425 948.53,424.48 949.88,423.97 951.22,423.47 952.56,422.97 953.91,422.47 955.25,421.98 956.59,421.49 957.94,421.01 959.28,420.53 960.62,420.06 961.97,419.59 963.31,419.12 964.66,418.66 966,418.2 967.34,417.75 968.69,417.3 970.03,416.85 971.38,416.41 972.72,415.98 974.06,415.54 975.41,415.12 976.75,414.69 978.09,414.27 979.44,413.85 980.78,413.44 982.12,413.03 983.47,412.63 984.81,412.22 986.16,411.83 987.5,411.43 988.84,411.04 990.19,410.65 991.53,410.27 992.88,409.89 994.22,409.51 995.56,409.14 996.91,408.76 998.25,408.4 999.59,408.03 1000.94,407.67 1002.28,407.31 1003.62,406.96 1004.97,406.61 1006.31,406.26 1007.66,405.91 1009,405.57 1010.34,405.23 1011.69,404.89 1013.03,404.55 1014.38,404.22 1015.72,403.89 1017.06,403.56 1018.41,403.24 1019.75,402.92 1021.09,402.6 1022.44,402.28 1023.78,401.97 1025.12,401.65 1026.47,401.35 1027.81,401.04 1029.16,400.73 1030.5,400.43 1031.84,400.13 1033.19,399.83 1034.53,399.54 1035.88,399.24 1037.22,398.95 1038.56,398.66 1039.91,398.38 1041.25,398.09 1042.59,397.81 1043.94,397.53 1045.28,397.25 1046.62,396.97 1047.97,396.7 1049.31,396.42 1050.66,396.15 1052,395.88 1053.34,395.61 1054.69,395.35 1056.03,395.08 1057.38,394.82 1058.72,394.56 1060.06,394.3 1061.41,394.05 1062.75,393.79 1064.09,393.54 1065.44,393.28 1066.78,393.03 1068.12,392.79 1069.47,392.54 1070.81,392.29 1072.16,392.05 1073.5,391.81 1074.84,391.57 1076.19,391.33 1077.53,391.09 1078.88,390.85 1080.22,390.62 1081.56,390.38 1082.91,390.15 1084.25,389.92 1085.59,389.69 1086.94,389.46 1088.28,389.24 1089.62,389.01 1090.97,388.79 1092.31,388.56 1093.66,388.34 1095,388.12" fill="none" stroke="#30332e" stroke-width="3"/>
<line x1="665" y1="460" x2="665" y2="467" stroke="#333"/>
<text x="665" y="489" text-anchor="middle" font-family="PingFang SC, Noto Sans CJK SC, Microsoft YaHei, sans-serif" font-size="16">-7</text>
<line x1="726.43" y1="460" x2="726.43" y2="467" stroke="#333"/>
<text x="726.43" y="489" text-anchor="middle" font-family="PingFang SC, Noto Sans CJK SC, Microsoft YaHei, sans-serif" font-size="16">-5</text>
<line x1="787.86" y1="460" x2="787.86" y2="467" stroke="#333"/>
<text x="787.86" y="489" text-anchor="middle" font-family="PingFang SC, Noto Sans CJK SC, Microsoft YaHei, sans-serif" font-size="16">-3</text>
<line x1="849.29" y1="460" x2="849.29" y2="467" stroke="#333"/>
<text x="849.29" y="489" text-anchor="middle" font-family="PingFang SC, Noto Sans CJK SC, Microsoft YaHei, sans-serif" font-size="16">-1</text>
<line x1="910.71" y1="460" x2="910.71" y2="467" stroke="#333"/>
<text x="910.71" y="489" text-anchor="middle" font-family="PingFang SC, Noto Sans CJK SC, Microsoft YaHei, sans-serif" font-size="16">1</text>
<line x1="972.14" y1="460" x2="972.14" y2="467" stroke="#333"/>
<text x="972.14" y="489" text-anchor="middle" font-family="PingFang SC, Noto Sans CJK SC, Microsoft YaHei, sans-serif" font-size="16">3</text>
<line x1="1033.57" y1="460" x2="1033.57" y2="467" stroke="#333"/>
<text x="1033.57" y="489" text-anchor="middle" font-family="PingFang SC, Noto Sans CJK SC, Microsoft YaHei, sans-serif" font-size="16">5</text>
<line x1="1095" y1="460" x2="1095" y2="467" stroke="#333"/>
<text x="1095" y="489" text-anchor="middle" font-family="PingFang SC, Noto Sans CJK SC, Microsoft YaHei, sans-serif" font-size="16">7</text>
<text x="880.0" y="525" text-anchor="middle" font-family="PingFang SC, Noto Sans CJK SC, Microsoft YaHei, sans-serif" font-size="20" font-weight="700" fill="#263f86">数值</text>
<text x="603" y="265.0" transform="rotate(-90 603 265.0)" text-anchor="middle" font-family="PingFang SC, Noto Sans CJK SC, Microsoft YaHei, sans-serif" font-size="20" font-weight="700" fill="#263f86">负对数密度</text>
<line x1="430" y1="555" x2="480" y2="555" stroke="#6670ee" stroke-width="3"/><text x="490" y="561" font-family="PingFang SC, Noto Sans CJK SC, Microsoft YaHei, sans-serif" font-size="17">高斯</text>
<line x1="625" y1="555" x2="675" y2="555" stroke="#30332e" stroke-width="3"/><text x="685" y="561" font-family="PingFang SC, Noto Sans CJK SC, Microsoft YaHei, sans-serif" font-size="17">Student-t（ν=2）</text>
</svg>
