<svg xmlns="http://www.w3.org/2000/svg" width="1200" height="600" viewBox="0 0 1200 600" role="img">
<title>指数分布与 Gamma 分布的生成过程</title>
<desc>左图显示两个或五个部件中第一个故障的等待时间概率密度；右图显示十个部件中第二个或第五个故障的等待时间概率密度。</desc>
<rect width="100%" height="100%" fill="#fbfaf6"/>
<rect x="55" y="45" width="535" height="500" rx="8" fill="#fff" stroke="#d9d5c8"/>
<text x="322.0" y="78.0" text-anchor="middle" font-family="-apple-system,BlinkMacSystemFont,PingFang SC,Noto Sans CJK SC,sans-serif" font-size="22" font-weight="700" fill="#30332e">单个部件故障：指数分布</text>
<line x1="140" y1="500" x2="590" y2="500" stroke="#30332e" stroke-width="1.6"/>
<line x1="140" y1="500" x2="140" y2="95" stroke="#30332e" stroke-width="1.6"/>
<text x="365.0" y="535.0" text-anchor="middle" font-family="-apple-system,BlinkMacSystemFont,PingFang SC,Noto Sans CJK SC,sans-serif" font-size="18" font-weight="400" fill="#30332e">天</text>
<text x="80.0" y="297.5" text-anchor="middle" font-family="-apple-system,BlinkMacSystemFont,PingFang SC,Noto Sans CJK SC,sans-serif" font-size="18" font-weight="400" fill="#30332e" transform="rotate(-90 80 297.5)">概率密度</text>
<line x1="140.0" y1="500" x2="140.0" y2="506" stroke="#30332e"/>
<text x="140.0" y="525.0" text-anchor="middle" font-family="-apple-system,BlinkMacSystemFont,PingFang SC,Noto Sans CJK SC,sans-serif" font-size="14" font-weight="400" fill="#30332e">0</text>
<line x1="230.0" y1="500" x2="230.0" y2="506" stroke="#30332e"/>
<text x="230.0" y="525.0" text-anchor="middle" font-family="-apple-system,BlinkMacSystemFont,PingFang SC,Noto Sans CJK SC,sans-serif" font-size="14" font-weight="400" fill="#30332e">20</text>
<line x1="320.0" y1="500" x2="320.0" y2="506" stroke="#30332e"/>
<text x="320.0" y="525.0" text-anchor="middle" font-family="-apple-system,BlinkMacSystemFont,PingFang SC,Noto Sans CJK SC,sans-serif" font-size="14" font-weight="400" fill="#30332e">40</text>
<line x1="410.0" y1="500" x2="410.0" y2="506" stroke="#30332e"/>
<text x="410.0" y="525.0" text-anchor="middle" font-family="-apple-system,BlinkMacSystemFont,PingFang SC,Noto Sans CJK SC,sans-serif" font-size="14" font-weight="400" fill="#30332e">60</text>
<line x1="500.0" y1="500" x2="500.0" y2="506" stroke="#30332e"/>
<text x="500.0" y="525.0" text-anchor="middle" font-family="-apple-system,BlinkMacSystemFont,PingFang SC,Noto Sans CJK SC,sans-serif" font-size="14" font-weight="400" fill="#30332e">80</text>
<line x1="590.0" y1="500" x2="590.0" y2="506" stroke="#30332e"/>
<text x="590.0" y="525.0" text-anchor="middle" font-family="-apple-system,BlinkMacSystemFont,PingFang SC,Noto Sans CJK SC,sans-serif" font-size="14" font-weight="400" fill="#30332e">100</text>
<line x1="134" y1="500.0" x2="140" y2="500.0" stroke="#30332e"/>
<text x="130.0" y="505.0" text-anchor="end" font-family="-apple-system,BlinkMacSystemFont,PingFang SC,Noto Sans CJK SC,sans-serif" font-size="14" font-weight="400" fill="#30332e">0.00</text>
<line x1="134" y1="338.0" x2="140" y2="338.0" stroke="#30332e"/>
<text x="130.0" y="343.0" text-anchor="end" font-family="-apple-system,BlinkMacSystemFont,PingFang SC,Noto Sans CJK SC,sans-serif" font-size="14" font-weight="400" fill="#30332e">0.02</text>
<line x1="134" y1="176.0" x2="140" y2="176.0" stroke="#30332e"/>
<text x="130.0" y="181.0" text-anchor="end" font-family="-apple-system,BlinkMacSystemFont,PingFang SC,Noto Sans CJK SC,sans-serif" font-size="14" font-weight="400" fill="#30332e">0.04</text>
<rect x="625" y="45" width="535" height="500" rx="8" fill="#fff" stroke="#d9d5c8"/>
<text x="892.0" y="78.0" text-anchor="middle" font-family="-apple-system,BlinkMacSystemFont,PingFang SC,Noto Sans CJK SC,sans-serif" font-size="22" font-weight="700" fill="#30332e">多个部件故障：Gamma 分布</text>
<line x1="710" y1="500" x2="1160" y2="500" stroke="#30332e" stroke-width="1.6"/>
<line x1="710" y1="500" x2="710" y2="95" stroke="#30332e" stroke-width="1.6"/>
<text x="935.0" y="535.0" text-anchor="middle" font-family="-apple-system,BlinkMacSystemFont,PingFang SC,Noto Sans CJK SC,sans-serif" font-size="18" font-weight="400" fill="#30332e">天</text>
<text x="650.0" y="297.5" text-anchor="middle" font-family="-apple-system,BlinkMacSystemFont,PingFang SC,Noto Sans CJK SC,sans-serif" font-size="18" font-weight="400" fill="#30332e" transform="rotate(-90 650 297.5)">概率密度</text>
<line x1="710.0" y1="500" x2="710.0" y2="506" stroke="#30332e"/>
<text x="710.0" y="525.0" text-anchor="middle" font-family="-apple-system,BlinkMacSystemFont,PingFang SC,Noto Sans CJK SC,sans-serif" font-size="14" font-weight="400" fill="#30332e">0</text>
<line x1="800.0" y1="500" x2="800.0" y2="506" stroke="#30332e"/>
<text x="800.0" y="525.0" text-anchor="middle" font-family="-apple-system,BlinkMacSystemFont,PingFang SC,Noto Sans CJK SC,sans-serif" font-size="14" font-weight="400" fill="#30332e">20</text>
<line x1="890.0" y1="500" x2="890.0" y2="506" stroke="#30332e"/>
<text x="890.0" y="525.0" text-anchor="middle" font-family="-apple-system,BlinkMacSystemFont,PingFang SC,Noto Sans CJK SC,sans-serif" font-size="14" font-weight="400" fill="#30332e">40</text>
<line x1="980.0" y1="500" x2="980.0" y2="506" stroke="#30332e"/>
<text x="980.0" y="525.0" text-anchor="middle" font-family="-apple-system,BlinkMacSystemFont,PingFang SC,Noto Sans CJK SC,sans-serif" font-size="14" font-weight="400" fill="#30332e">60</text>
<line x1="1070.0" y1="500" x2="1070.0" y2="506" stroke="#30332e"/>
<text x="1070.0" y="525.0" text-anchor="middle" font-family="-apple-system,BlinkMacSystemFont,PingFang SC,Noto Sans CJK SC,sans-serif" font-size="14" font-weight="400" fill="#30332e">80</text>
<line x1="1160.0" y1="500" x2="1160.0" y2="506" stroke="#30332e"/>
<text x="1160.0" y="525.0" text-anchor="middle" font-family="-apple-system,BlinkMacSystemFont,PingFang SC,Noto Sans CJK SC,sans-serif" font-size="14" font-weight="400" fill="#30332e">100</text>
<line x1="704" y1="500.0" x2="710" y2="500.0" stroke="#30332e"/>
<text x="700.0" y="505.0" text-anchor="end" font-family="-apple-system,BlinkMacSystemFont,PingFang SC,Noto Sans CJK SC,sans-serif" font-size="14" font-weight="400" fill="#30332e">0.00</text>
<line x1="704" y1="338.0" x2="710" y2="338.0" stroke="#30332e"/>
<text x="700.0" y="343.0" text-anchor="end" font-family="-apple-system,BlinkMacSystemFont,PingFang SC,Noto Sans CJK SC,sans-serif" font-size="14" font-weight="400" fill="#30332e">0.02</text>
<line x1="704" y1="176.0" x2="710" y2="176.0" stroke="#30332e"/>
<text x="700.0" y="181.0" text-anchor="end" font-family="-apple-system,BlinkMacSystemFont,PingFang SC,Noto Sans CJK SC,sans-serif" font-size="14" font-weight="400" fill="#30332e">0.04</text>
<polyline points="140.0,500.0 142.2,500.0 144.5,336.4 146.8,337.2 149.0,338.0 151.2,338.8 153.5,339.7 155.8,340.5 158.0,341.3 160.2,342.1 162.5,343.0 164.8,343.8 167.0,344.6 169.2,345.5 171.5,346.3 173.8,347.1 176.0,347.9 178.2,348.8 180.5,349.6 182.8,350.4 185.0,351.2 187.2,352.1 189.5,352.9 191.8,353.7 194.0,354.5 196.2,355.4 198.5,356.2 200.8,357.0 203.0,357.9 205.2,358.7 207.5,359.5 209.8,360.3 212.0,361.2 214.2,362.0 216.5,362.8 218.8,363.6 221.0,364.5 223.2,365.3 225.5,366.1 227.8,366.9 230.0,367.8 232.2,368.6 234.5,369.4 236.8,370.2 239.0,371.1 241.2,371.9 243.5,372.7 245.8,373.6 248.0,374.4 250.2,375.2 252.5,376.0 254.8,376.9 257.0,377.7 259.2,378.5 261.5,379.3 263.8,380.2 266.0,381.0 268.2,381.8 270.5,382.6 272.8,383.5 275.0,384.3 277.2,385.1 279.5,386.0 281.8,386.8 284.0,387.6 286.2,388.4 288.5,389.3 290.8,390.1 293.0,390.9 295.2,391.7 297.5,392.6 299.8,393.4 302.0,394.2 304.2,395.0 306.5,395.9 308.8,396.7 311.0,397.5 313.2,398.3 315.5,399.2 317.8,400.0 320.0,400.8 322.2,401.7 324.5,402.5 326.8,403.3 329.0,404.1 331.2,405.0 333.5,405.8 335.8,406.6 338.0,407.4 340.2,408.3 342.5,409.1 344.8,409.9 347.0,410.7 349.2,411.6 351.5,412.4 353.8,413.2 356.0,414.0 358.2,414.9 360.5,415.7 362.8,416.5 365.0,417.4 367.2,418.2 369.5,419.0 371.8,419.8 374.0,420.7 376.2,421.5 378.5,422.3 380.8,423.1 383.0,424.0 385.2,424.8 387.5,425.6 389.8,426.4 392.0,427.3 394.2,428.1 396.5,428.9 398.8,429.8 401.0,430.6 403.2,431.4 405.5,432.2 407.8,433.1 410.0,433.9 412.2,434.7 414.5,435.5 416.8,436.4 419.0,437.2 421.2,438.0 423.5,438.8 425.8,439.7 428.0,440.5 430.2,441.3 432.5,442.1 434.8,443.0 437.0,443.8 439.2,444.6 441.5,445.5 443.8,446.3 446.0,447.1 448.2,447.9 450.5,448.8 452.8,449.6 455.0,450.4 457.2,451.2 459.5,452.1 461.8,452.9 464.0,453.7 466.2,454.5 468.5,455.4 470.8,456.2 473.0,457.0 475.2,457.9 477.5,458.7 479.8,459.5 482.0,460.3 484.2,461.2 486.5,462.0 488.8,462.8 491.0,463.6 493.2,464.5 495.5,465.3 497.8,466.1 500.0,466.9 502.2,467.8 504.5,468.6 506.8,469.4 509.0,470.2 511.2,471.1 513.5,471.9 515.8,472.7 518.0,473.6 520.2,474.4 522.5,475.2 524.8,476.0 527.0,476.9 529.2,477.7 531.5,478.5 533.8,479.3 536.0,480.2 538.2,481.0 540.5,481.8 542.8,482.6 545.0,483.5 547.2,484.3 549.5,485.1 551.8,486.0 554.0,486.8 556.2,487.6 558.5,488.4 560.8,489.3 563.0,490.1 565.2,490.9 567.5,491.7 569.8,492.6 572.0,493.4 574.2,494.2 576.5,495.0 578.8,495.9 581.0,496.7 583.2,497.5 585.5,498.3 587.8,499.2 590.0,500.0" fill="none" stroke="#30332e" stroke-width="3.2" stroke-linejoin="round"/>
<text x="427.0" y="427.2" text-anchor="start" font-family="-apple-system,BlinkMacSystemFont,PingFang SC,Noto Sans CJK SC,sans-serif" font-size="17" font-weight="700" fill="#30332e">2 个部件</text>
<polyline points="140.0,500.0 142.2,500.0 144.5,90.9 146.8,99.1 149.0,107.2 151.2,115.1 153.5,123.0 155.8,130.7 158.0,138.3 160.2,145.8 162.5,153.1 164.8,160.4 167.0,167.5 169.2,174.5 171.5,181.4 173.8,188.2 176.0,194.9 178.2,201.5 180.5,208.0 182.8,214.3 185.0,220.6 187.2,226.7 189.5,232.8 191.8,238.8 194.0,244.6 196.2,250.4 198.5,256.0 200.8,261.6 203.0,267.0 205.2,272.4 207.5,277.7 209.8,282.9 212.0,288.0 214.2,293.0 216.5,297.9 218.8,302.7 221.0,307.5 223.2,312.1 225.5,316.7 227.8,321.2 230.0,325.6 232.2,329.9 234.5,334.1 236.8,338.3 239.0,342.4 241.2,346.4 243.5,350.3 245.8,354.1 248.0,357.9 250.2,361.6 252.5,365.3 254.8,368.8 257.0,372.3 259.2,375.7 261.5,379.1 263.8,382.3 266.0,385.6 268.2,388.7 270.5,391.8 272.8,394.8 275.0,397.7 277.2,400.6 279.5,403.5 281.8,406.2 284.0,408.9 286.2,411.6 288.5,414.2 290.8,416.7 293.0,419.2 295.2,421.6 297.5,424.0 299.8,426.3 302.0,428.6 304.2,430.8 306.5,432.9 308.8,435.0 311.0,437.1 313.2,439.1 315.5,441.0 317.8,442.9 320.0,444.8 322.2,446.6 324.5,448.4 326.8,450.1 329.0,451.8 331.2,453.4 333.5,455.0 335.8,456.6 338.0,458.1 340.2,459.6 342.5,461.0 344.8,462.4 347.0,463.8 349.2,465.1 351.5,466.4 353.8,467.6 356.0,468.9 358.2,470.0 360.5,471.2 362.8,472.3 365.0,473.4 367.2,474.4 369.5,475.4 371.8,476.4 374.0,477.4 376.2,478.3 378.5,479.2 380.8,480.1 383.0,480.9 385.2,481.7 387.5,482.5 389.8,483.3 392.0,484.0 394.2,484.8 396.5,485.4 398.8,486.1 401.0,486.7 403.2,487.4 405.5,488.0 407.8,488.5 410.0,489.1 412.2,489.6 414.5,490.1 416.8,490.6 419.0,491.1 421.2,491.6 423.5,492.0 425.8,492.4 428.0,492.8 430.2,493.2 432.5,493.6 434.8,494.0 437.0,494.3 439.2,494.6 441.5,494.9 443.8,495.2 446.0,495.5 448.2,495.8 450.5,496.1 452.8,496.3 455.0,496.6 457.2,496.8 459.5,497.0 461.8,497.2 464.0,497.4 466.2,497.6 468.5,497.7 470.8,497.9 473.0,498.1 475.2,498.2 477.5,498.3 479.8,498.5 482.0,498.6 484.2,498.7 486.5,498.8 488.8,498.9 491.0,499.0 493.2,499.1 495.5,499.2 497.8,499.2 500.0,499.3 502.2,499.4 504.5,499.4 506.8,499.5 509.0,499.6 511.2,499.6 513.5,499.6 515.8,499.7 518.0,499.7 520.2,499.8 522.5,499.8 524.8,499.8 527.0,499.8 529.2,499.9 531.5,499.9 533.8,499.9 536.0,499.9 538.2,499.9 540.5,499.9 542.8,499.9 545.0,500.0 547.2,500.0 549.5,500.0 551.8,500.0 554.0,500.0 556.2,500.0 558.5,500.0 560.8,500.0 563.0,500.0 565.2,500.0 567.5,500.0 569.8,500.0 572.0,500.0 574.2,500.0 576.5,500.0 578.8,500.0 581.0,500.0 583.2,500.0 585.5,500.0 587.8,500.0 590.0,500.0" fill="none" stroke="#6670ee" stroke-width="3.2" stroke-linejoin="round"/>
<text x="229.0" y="297.5" text-anchor="start" font-family="-apple-system,BlinkMacSystemFont,PingFang SC,Noto Sans CJK SC,sans-serif" font-size="17" font-weight="700" fill="#6670ee">5 个部件</text>
<polyline points="710.0,500.0 712.2,500.0 714.5,500.0 716.8,464.3 719.0,431.4 721.2,401.3 723.5,373.6 725.8,348.5 728.0,325.6 730.2,304.8 732.5,286.1 734.8,269.3 737.0,254.3 739.2,241.0 741.5,229.4 743.8,219.2 746.0,210.4 748.2,203.0 750.5,196.8 752.8,191.7 755.0,187.7 757.2,184.7 759.5,182.7 761.8,181.5 764.0,181.1 766.2,181.5 768.5,182.5 770.8,184.2 773.0,186.5 775.2,189.2 777.5,192.5 779.8,196.2 782.0,200.3 784.2,204.7 786.5,209.5 788.8,214.6 791.0,219.9 793.2,225.4 795.5,231.1 797.8,237.0 800.0,243.0 802.2,249.2 804.5,255.4 806.8,261.7 809.0,268.1 811.2,274.5 813.5,280.9 815.8,287.3 818.0,293.6 820.2,300.0 822.5,306.3 824.8,312.6 827.0,318.8 829.2,324.9 831.5,331.0 833.8,336.9 836.0,342.8 838.2,348.6 840.5,354.3 842.8,359.8 845.0,365.2 847.2,370.6 849.5,375.8 851.8,380.8 854.0,385.8 856.2,390.6 858.5,395.3 860.8,399.8 863.0,404.2 865.2,408.5 867.5,412.7 869.8,416.7 872.0,420.6 874.2,424.4 876.5,428.0 878.8,431.5 881.0,434.9 883.2,438.1 885.5,441.3 887.8,444.3 890.0,447.2 892.2,450.0 894.5,452.7 896.8,455.2 899.0,457.7 901.2,460.0 903.5,462.3 905.8,464.4 908.0,466.5 910.2,468.4 912.5,470.3 914.8,472.1 917.0,473.8 919.2,475.4 921.5,476.9 923.8,478.4 926.0,479.7 928.2,481.1 930.5,482.3 932.8,483.5 935.0,484.6 937.2,485.6 939.5,486.6 941.8,487.5 944.0,488.4 946.2,489.2 948.5,490.0 950.8,490.7 953.0,491.4 955.2,492.1 957.5,492.7 959.8,493.2 962.0,493.8 964.2,494.3 966.5,494.7 968.8,495.2 971.0,495.6 973.2,495.9 975.5,496.3 977.8,496.6 980.0,496.9 982.2,497.2 984.5,497.4 986.8,497.6 989.0,497.9 991.2,498.1 993.5,498.2 995.8,498.4 998.0,498.6 1000.2,498.7 1002.5,498.8 1004.8,499.0 1007.0,499.1 1009.2,499.2 1011.5,499.3 1013.8,499.3 1016.0,499.4 1018.2,499.5 1020.5,499.5 1022.8,499.6 1025.0,499.6 1027.2,499.7 1029.5,499.7 1031.8,499.8 1034.0,499.8 1036.2,499.8 1038.5,499.8 1040.8,499.9 1043.0,499.9 1045.2,499.9 1047.5,499.9 1049.8,499.9 1052.0,499.9 1054.2,499.9 1056.5,500.0 1058.8,500.0 1061.0,500.0 1063.2,500.0 1065.5,500.0 1067.8,500.0 1070.0,500.0 1072.2,500.0 1074.5,500.0 1076.8,500.0 1079.0,500.0 1081.2,500.0 1083.5,500.0 1085.8,500.0 1088.0,500.0 1090.2,500.0 1092.5,500.0 1094.8,500.0 1097.0,500.0 1099.2,500.0 1101.5,500.0 1103.8,500.0 1106.0,500.0 1108.2,500.0 1110.5,500.0 1112.8,500.0 1115.0,500.0 1117.2,500.0 1119.5,500.0 1121.8,500.0 1124.0,500.0 1126.2,500.0 1128.5,500.0 1130.8,500.0 1133.0,500.0 1135.2,500.0 1137.5,500.0 1139.8,500.0 1142.0,500.0 1144.2,500.0 1146.5,500.0 1148.8,500.0 1151.0,500.0 1153.2,500.0 1155.5,500.0 1157.8,500.0 1160.0,500.0" fill="none" stroke="#30332e" stroke-width="3.2" stroke-linejoin="round"/>
<text x="785.5" y="182.5" text-anchor="start" font-family="-apple-system,BlinkMacSystemFont,PingFang SC,Noto Sans CJK SC,sans-serif" font-size="17" font-weight="700" fill="#30332e">2/10 个部件</text>
<polyline points="710.0,500.0 712.2,500.0 714.5,500.0 716.8,500.0 719.0,500.0 721.2,500.0 723.5,500.0 725.8,500.0 728.0,499.9 730.2,499.9 732.5,499.8 734.8,499.7 737.0,499.5 739.2,499.3 741.5,499.0 743.8,498.6 746.0,498.2 748.2,497.7 750.5,497.1 752.8,496.4 755.0,495.6 757.2,494.7 759.5,493.7 761.8,492.6 764.0,491.3 766.2,489.9 768.5,488.3 770.8,486.7 773.0,484.8 775.2,482.9 777.5,480.8 779.8,478.5 782.0,476.1 784.2,473.6 786.5,470.9 788.8,468.0 791.0,465.1 793.2,461.9 795.5,458.7 797.8,455.3 800.0,451.8 802.2,448.2 804.5,444.4 806.8,440.6 809.0,436.6 811.2,432.6 813.5,428.4 815.8,424.2 818.0,419.9 820.2,415.6 822.5,411.2 824.8,406.7 827.0,402.2 829.2,397.6 831.5,393.1 833.8,388.5 836.0,384.0 838.2,379.4 840.5,374.9 842.8,370.3 845.0,365.9 847.2,361.4 849.5,357.0 851.8,352.7 854.0,348.5 856.2,344.3 858.5,340.2 860.8,336.3 863.0,332.4 865.2,328.6 867.5,325.0 869.8,321.5 872.0,318.2 874.2,315.0 876.5,311.9 878.8,309.0 881.0,306.2 883.2,303.7 885.5,301.3 887.8,299.0 890.0,297.0 892.2,295.1 894.5,293.5 896.8,292.0 899.0,290.7 901.2,289.6 903.5,288.7 905.8,288.0 908.0,287.5 910.2,287.2 912.5,287.1 914.8,287.2 917.0,287.5 919.2,288.0 921.5,288.7 923.8,289.6 926.0,290.6 928.2,291.9 930.5,293.3 932.8,294.9 935.0,296.7 937.2,298.7 939.5,300.8 941.8,303.0 944.0,305.5 946.2,308.0 948.5,310.8 950.8,313.6 953.0,316.6 955.2,319.7 957.5,322.9 959.8,326.3 962.0,329.7 964.2,333.2 966.5,336.8 968.8,340.5 971.0,344.3 973.2,348.1 975.5,352.0 977.8,356.0 980.0,360.0 982.2,364.0 984.5,368.0 986.8,372.1 989.0,376.2 991.2,380.3 993.5,384.4 995.8,388.4 998.0,392.5 1000.2,396.5 1002.5,400.6 1004.8,404.5 1007.0,408.5 1009.2,412.4 1011.5,416.2 1013.8,420.0 1016.0,423.7 1018.2,427.3 1020.5,430.9 1022.8,434.4 1025.0,437.8 1027.2,441.2 1029.5,444.4 1031.8,447.6 1034.0,450.6 1036.2,453.6 1038.5,456.5 1040.8,459.3 1043.0,461.9 1045.2,464.5 1047.5,467.0 1049.8,469.3 1052.0,471.6 1054.2,473.7 1056.5,475.8 1058.8,477.7 1061.0,479.6 1063.2,481.3 1065.5,482.9 1067.8,484.5 1070.0,485.9 1072.2,487.3 1074.5,488.6 1076.8,489.7 1079.0,490.8 1081.2,491.8 1083.5,492.8 1085.8,493.6 1088.0,494.4 1090.2,495.1 1092.5,495.7 1094.8,496.3 1097.0,496.8 1099.2,497.3 1101.5,497.7 1103.8,498.1 1106.0,498.4 1108.2,498.7 1110.5,498.9 1112.8,499.1 1115.0,499.3 1117.2,499.4 1119.5,499.6 1121.8,499.7 1124.0,499.7 1126.2,499.8 1128.5,499.9 1130.8,499.9 1133.0,499.9 1135.2,500.0 1137.5,500.0 1139.8,500.0 1142.0,500.0 1144.2,500.0 1146.5,500.0 1148.8,500.0 1151.0,500.0 1153.2,500.0 1155.5,500.0 1157.8,500.0 1160.0,500.0" fill="none" stroke="#6670ee" stroke-width="3.2" stroke-linejoin="round"/>
<text x="934.0" y="280.6" text-anchor="start" font-family="-apple-system,BlinkMacSystemFont,PingFang SC,Noto Sans CJK SC,sans-serif" font-size="17" font-weight="700" fill="#6670ee">5/10 个部件</text>
</svg>
