<svg xmlns="http://www.w3.org/2000/svg" width="1200" height="560" viewBox="0 0 1200 560" role="img">
<title>好国王马尔可夫的 Metropolis 模拟结果</title>
<desc>左图显示前一百周所在岛屿，右图显示十万周中各岛访问次数与人口近似成比例。</desc>
<rect width="100%" height="100%" fill="#fff"/>
<rect x="90" y="70" width="465" height="390" fill="#fff" stroke="#30332e"/>
<line x1="90.0" y1="460" x2="90.0" y2="467" stroke="#30332e"/>
<text x="90.0" y="491" text-anchor="middle" font-family="-apple-system,BlinkMacSystemFont,PingFang SC,Noto Sans CJK SC,sans-serif" font-size="17">0</text>
<line x1="183.0" y1="460" x2="183.0" y2="467" stroke="#30332e"/>
<text x="183.0" y="491" text-anchor="middle" font-family="-apple-system,BlinkMacSystemFont,PingFang SC,Noto Sans CJK SC,sans-serif" font-size="17">20</text>
<line x1="276.0" y1="460" x2="276.0" y2="467" stroke="#30332e"/>
<text x="276.0" y="491" text-anchor="middle" font-family="-apple-system,BlinkMacSystemFont,PingFang SC,Noto Sans CJK SC,sans-serif" font-size="17">40</text>
<line x1="369.0" y1="460" x2="369.0" y2="467" stroke="#30332e"/>
<text x="369.0" y="491" text-anchor="middle" font-family="-apple-system,BlinkMacSystemFont,PingFang SC,Noto Sans CJK SC,sans-serif" font-size="17">60</text>
<line x1="462.0" y1="460" x2="462.0" y2="467" stroke="#30332e"/>
<text x="462.0" y="491" text-anchor="middle" font-family="-apple-system,BlinkMacSystemFont,PingFang SC,Noto Sans CJK SC,sans-serif" font-size="17">80</text>
<line x1="555.0" y1="460" x2="555.0" y2="467" stroke="#30332e"/>
<text x="555.0" y="491" text-anchor="middle" font-family="-apple-system,BlinkMacSystemFont,PingFang SC,Noto Sans CJK SC,sans-serif" font-size="17">100</text>
<line x1="83" y1="401.5" x2="90" y2="401.5" stroke="#30332e"/>
<text x="76" y="407.5" text-anchor="end" font-family="-apple-system,BlinkMacSystemFont,PingFang SC,Noto Sans CJK SC,sans-serif" font-size="17">2</text>
<line x1="83" y1="323.5" x2="90" y2="323.5" stroke="#30332e"/>
<text x="76" y="329.5" text-anchor="end" font-family="-apple-system,BlinkMacSystemFont,PingFang SC,Noto Sans CJK SC,sans-serif" font-size="17">4</text>
<line x1="83" y1="245.5" x2="90" y2="245.5" stroke="#30332e"/>
<text x="76" y="251.5" text-anchor="end" font-family="-apple-system,BlinkMacSystemFont,PingFang SC,Noto Sans CJK SC,sans-serif" font-size="17">6</text>
<line x1="83" y1="167.5" x2="90" y2="167.5" stroke="#30332e"/>
<text x="76" y="173.5" text-anchor="end" font-family="-apple-system,BlinkMacSystemFont,PingFang SC,Noto Sans CJK SC,sans-serif" font-size="17">8</text>
<line x1="83" y1="89.5" x2="90" y2="89.5" stroke="#30332e"/>
<text x="76" y="95.5" text-anchor="end" font-family="-apple-system,BlinkMacSystemFont,PingFang SC,Noto Sans CJK SC,sans-serif" font-size="17">10</text>
<circle cx="94.7" cy="89.5" r="3.7" fill="#fff" stroke="#6670ee" stroke-width="1.7"/>
<circle cx="99.3" cy="89.5" r="3.7" fill="#fff" stroke="#6670ee" stroke-width="1.7"/>
<circle cx="104.0" cy="89.5" r="3.7" fill="#fff" stroke="#6670ee" stroke-width="1.7"/>
<circle cx="108.6" cy="128.5" r="3.7" fill="#fff" stroke="#6670ee" stroke-width="1.7"/>
<circle cx="113.2" cy="89.5" r="3.7" fill="#fff" stroke="#6670ee" stroke-width="1.7"/>
<circle cx="117.9" cy="128.5" r="3.7" fill="#fff" stroke="#6670ee" stroke-width="1.7"/>
<circle cx="122.6" cy="167.5" r="3.7" fill="#fff" stroke="#6670ee" stroke-width="1.7"/>
<circle cx="127.2" cy="206.5" r="3.7" fill="#fff" stroke="#6670ee" stroke-width="1.7"/>
<circle cx="131.8" cy="167.5" r="3.7" fill="#fff" stroke="#6670ee" stroke-width="1.7"/>
<circle cx="136.5" cy="128.5" r="3.7" fill="#fff" stroke="#6670ee" stroke-width="1.7"/>
<circle cx="141.2" cy="167.5" r="3.7" fill="#fff" stroke="#6670ee" stroke-width="1.7"/>
<circle cx="145.8" cy="206.5" r="3.7" fill="#fff" stroke="#6670ee" stroke-width="1.7"/>
<circle cx="150.4" cy="245.5" r="3.7" fill="#fff" stroke="#6670ee" stroke-width="1.7"/>
<circle cx="155.1" cy="206.5" r="3.7" fill="#fff" stroke="#6670ee" stroke-width="1.7"/>
<circle cx="159.8" cy="206.5" r="3.7" fill="#fff" stroke="#6670ee" stroke-width="1.7"/>
<circle cx="164.4" cy="245.5" r="3.7" fill="#fff" stroke="#6670ee" stroke-width="1.7"/>
<circle cx="169.1" cy="206.5" r="3.7" fill="#fff" stroke="#6670ee" stroke-width="1.7"/>
<circle cx="173.7" cy="167.5" r="3.7" fill="#fff" stroke="#6670ee" stroke-width="1.7"/>
<circle cx="178.3" cy="128.5" r="3.7" fill="#fff" stroke="#6670ee" stroke-width="1.7"/>
<circle cx="183.0" cy="167.5" r="3.7" fill="#fff" stroke="#6670ee" stroke-width="1.7"/>
<circle cx="187.6" cy="167.5" r="3.7" fill="#fff" stroke="#6670ee" stroke-width="1.7"/>
<circle cx="192.3" cy="167.5" r="3.7" fill="#fff" stroke="#6670ee" stroke-width="1.7"/>
<circle cx="196.9" cy="128.5" r="3.7" fill="#fff" stroke="#6670ee" stroke-width="1.7"/>
<circle cx="201.6" cy="167.5" r="3.7" fill="#fff" stroke="#6670ee" stroke-width="1.7"/>
<circle cx="206.2" cy="167.5" r="3.7" fill="#fff" stroke="#6670ee" stroke-width="1.7"/>
<circle cx="210.9" cy="206.5" r="3.7" fill="#fff" stroke="#6670ee" stroke-width="1.7"/>
<circle cx="215.6" cy="206.5" r="3.7" fill="#fff" stroke="#6670ee" stroke-width="1.7"/>
<circle cx="220.2" cy="245.5" r="3.7" fill="#fff" stroke="#6670ee" stroke-width="1.7"/>
<circle cx="224.8" cy="284.5" r="3.7" fill="#fff" stroke="#6670ee" stroke-width="1.7"/>
<circle cx="229.5" cy="323.5" r="3.7" fill="#fff" stroke="#6670ee" stroke-width="1.7"/>
<circle cx="234.2" cy="284.5" r="3.7" fill="#fff" stroke="#6670ee" stroke-width="1.7"/>
<circle cx="238.8" cy="323.5" r="3.7" fill="#fff" stroke="#6670ee" stroke-width="1.7"/>
<circle cx="243.5" cy="284.5" r="3.7" fill="#fff" stroke="#6670ee" stroke-width="1.7"/>
<circle cx="248.1" cy="323.5" r="3.7" fill="#fff" stroke="#6670ee" stroke-width="1.7"/>
<circle cx="252.8" cy="362.5" r="3.7" fill="#fff" stroke="#6670ee" stroke-width="1.7"/>
<circle cx="257.4" cy="401.5" r="3.7" fill="#fff" stroke="#6670ee" stroke-width="1.7"/>
<circle cx="262.1" cy="401.5" r="3.7" fill="#fff" stroke="#6670ee" stroke-width="1.7"/>
<circle cx="266.7" cy="440.5" r="3.7" fill="#fff" stroke="#6670ee" stroke-width="1.7"/>
<circle cx="271.4" cy="401.5" r="3.7" fill="#fff" stroke="#6670ee" stroke-width="1.7"/>
<circle cx="276.0" cy="440.5" r="3.7" fill="#fff" stroke="#6670ee" stroke-width="1.7"/>
<circle cx="280.6" cy="89.5" r="3.7" fill="#fff" stroke="#6670ee" stroke-width="1.7"/>
<circle cx="285.3" cy="128.5" r="3.7" fill="#fff" stroke="#6670ee" stroke-width="1.7"/>
<circle cx="289.9" cy="167.5" r="3.7" fill="#fff" stroke="#6670ee" stroke-width="1.7"/>
<circle cx="294.6" cy="128.5" r="3.7" fill="#fff" stroke="#6670ee" stroke-width="1.7"/>
<circle cx="299.2" cy="89.5" r="3.7" fill="#fff" stroke="#6670ee" stroke-width="1.7"/>
<circle cx="303.9" cy="128.5" r="3.7" fill="#fff" stroke="#6670ee" stroke-width="1.7"/>
<circle cx="308.5" cy="89.5" r="3.7" fill="#fff" stroke="#6670ee" stroke-width="1.7"/>
<circle cx="313.2" cy="128.5" r="3.7" fill="#fff" stroke="#6670ee" stroke-width="1.7"/>
<circle cx="317.9" cy="89.5" r="3.7" fill="#fff" stroke="#6670ee" stroke-width="1.7"/>
<circle cx="322.5" cy="128.5" r="3.7" fill="#fff" stroke="#6670ee" stroke-width="1.7"/>
<circle cx="327.1" cy="89.5" r="3.7" fill="#fff" stroke="#6670ee" stroke-width="1.7"/>
<circle cx="331.8" cy="128.5" r="3.7" fill="#fff" stroke="#6670ee" stroke-width="1.7"/>
<circle cx="336.5" cy="89.5" r="3.7" fill="#fff" stroke="#6670ee" stroke-width="1.7"/>
<circle cx="341.1" cy="128.5" r="3.7" fill="#fff" stroke="#6670ee" stroke-width="1.7"/>
<circle cx="345.8" cy="167.5" r="3.7" fill="#fff" stroke="#6670ee" stroke-width="1.7"/>
<circle cx="350.4" cy="206.5" r="3.7" fill="#fff" stroke="#6670ee" stroke-width="1.7"/>
<circle cx="355.0" cy="167.5" r="3.7" fill="#fff" stroke="#6670ee" stroke-width="1.7"/>
<circle cx="359.7" cy="128.5" r="3.7" fill="#fff" stroke="#6670ee" stroke-width="1.7"/>
<circle cx="364.3" cy="89.5" r="3.7" fill="#fff" stroke="#6670ee" stroke-width="1.7"/>
<circle cx="369.0" cy="440.5" r="3.7" fill="#fff" stroke="#6670ee" stroke-width="1.7"/>
<circle cx="373.6" cy="89.5" r="3.7" fill="#fff" stroke="#6670ee" stroke-width="1.7"/>
<circle cx="378.3" cy="89.5" r="3.7" fill="#fff" stroke="#6670ee" stroke-width="1.7"/>
<circle cx="382.9" cy="128.5" r="3.7" fill="#fff" stroke="#6670ee" stroke-width="1.7"/>
<circle cx="387.6" cy="167.5" r="3.7" fill="#fff" stroke="#6670ee" stroke-width="1.7"/>
<circle cx="392.2" cy="128.5" r="3.7" fill="#fff" stroke="#6670ee" stroke-width="1.7"/>
<circle cx="396.9" cy="128.5" r="3.7" fill="#fff" stroke="#6670ee" stroke-width="1.7"/>
<circle cx="401.6" cy="89.5" r="3.7" fill="#fff" stroke="#6670ee" stroke-width="1.7"/>
<circle cx="406.2" cy="89.5" r="3.7" fill="#fff" stroke="#6670ee" stroke-width="1.7"/>
<circle cx="410.8" cy="89.5" r="3.7" fill="#fff" stroke="#6670ee" stroke-width="1.7"/>
<circle cx="415.5" cy="89.5" r="3.7" fill="#fff" stroke="#6670ee" stroke-width="1.7"/>
<circle cx="420.1" cy="128.5" r="3.7" fill="#fff" stroke="#6670ee" stroke-width="1.7"/>
<circle cx="424.8" cy="167.5" r="3.7" fill="#fff" stroke="#6670ee" stroke-width="1.7"/>
<circle cx="429.4" cy="128.5" r="3.7" fill="#fff" stroke="#6670ee" stroke-width="1.7"/>
<circle cx="434.1" cy="167.5" r="3.7" fill="#fff" stroke="#6670ee" stroke-width="1.7"/>
<circle cx="438.8" cy="128.5" r="3.7" fill="#fff" stroke="#6670ee" stroke-width="1.7"/>
<circle cx="443.4" cy="89.5" r="3.7" fill="#fff" stroke="#6670ee" stroke-width="1.7"/>
<circle cx="448.1" cy="128.5" r="3.7" fill="#fff" stroke="#6670ee" stroke-width="1.7"/>
<circle cx="452.7" cy="167.5" r="3.7" fill="#fff" stroke="#6670ee" stroke-width="1.7"/>
<circle cx="457.4" cy="206.5" r="3.7" fill="#fff" stroke="#6670ee" stroke-width="1.7"/>
<circle cx="462.0" cy="206.5" r="3.7" fill="#fff" stroke="#6670ee" stroke-width="1.7"/>
<circle cx="466.7" cy="245.5" r="3.7" fill="#fff" stroke="#6670ee" stroke-width="1.7"/>
<circle cx="471.3" cy="206.5" r="3.7" fill="#fff" stroke="#6670ee" stroke-width="1.7"/>
<circle cx="475.9" cy="167.5" r="3.7" fill="#fff" stroke="#6670ee" stroke-width="1.7"/>
<circle cx="480.6" cy="128.5" r="3.7" fill="#fff" stroke="#6670ee" stroke-width="1.7"/>
<circle cx="485.2" cy="89.5" r="3.7" fill="#fff" stroke="#6670ee" stroke-width="1.7"/>
<circle cx="489.9" cy="128.5" r="3.7" fill="#fff" stroke="#6670ee" stroke-width="1.7"/>
<circle cx="494.6" cy="89.5" r="3.7" fill="#fff" stroke="#6670ee" stroke-width="1.7"/>
<circle cx="499.2" cy="128.5" r="3.7" fill="#fff" stroke="#6670ee" stroke-width="1.7"/>
<circle cx="503.9" cy="89.5" r="3.7" fill="#fff" stroke="#6670ee" stroke-width="1.7"/>
<circle cx="508.5" cy="128.5" r="3.7" fill="#fff" stroke="#6670ee" stroke-width="1.7"/>
<circle cx="513.2" cy="167.5" r="3.7" fill="#fff" stroke="#6670ee" stroke-width="1.7"/>
<circle cx="517.8" cy="128.5" r="3.7" fill="#fff" stroke="#6670ee" stroke-width="1.7"/>
<circle cx="522.5" cy="89.5" r="3.7" fill="#fff" stroke="#6670ee" stroke-width="1.7"/>
<circle cx="527.1" cy="128.5" r="3.7" fill="#fff" stroke="#6670ee" stroke-width="1.7"/>
<circle cx="531.8" cy="167.5" r="3.7" fill="#fff" stroke="#6670ee" stroke-width="1.7"/>
<circle cx="536.4" cy="128.5" r="3.7" fill="#fff" stroke="#6670ee" stroke-width="1.7"/>
<circle cx="541.0" cy="89.5" r="3.7" fill="#fff" stroke="#6670ee" stroke-width="1.7"/>
<circle cx="545.7" cy="128.5" r="3.7" fill="#fff" stroke="#6670ee" stroke-width="1.7"/>
<circle cx="550.4" cy="167.5" r="3.7" fill="#fff" stroke="#6670ee" stroke-width="1.7"/>
<circle cx="555.0" cy="128.5" r="3.7" fill="#fff" stroke="#6670ee" stroke-width="1.7"/>
<text x="322.5" y="530" text-anchor="middle" font-family="-apple-system,BlinkMacSystemFont,PingFang SC,Noto Sans CJK SC,sans-serif" font-size="21" fill="#263f86">周</text>
<text x="28" y="265.0" transform="rotate(-90 28 265.0)" text-anchor="middle" font-family="-apple-system,BlinkMacSystemFont,PingFang SC,Noto Sans CJK SC,sans-serif" font-size="21" fill="#263f86">岛屿</text>
<rect x="690" y="70" width="420" height="390" fill="#fff" stroke="#30332e"/>
<line x1="753.0" y1="460" x2="753.0" y2="467" stroke="#30332e"/>
<text x="753.0" y="491" text-anchor="middle" font-family="-apple-system,BlinkMacSystemFont,PingFang SC,Noto Sans CJK SC,sans-serif" font-size="17">2</text>
<line x1="837.0" y1="460" x2="837.0" y2="467" stroke="#30332e"/>
<text x="837.0" y="491" text-anchor="middle" font-family="-apple-system,BlinkMacSystemFont,PingFang SC,Noto Sans CJK SC,sans-serif" font-size="17">4</text>
<line x1="921.0" y1="460" x2="921.0" y2="467" stroke="#30332e"/>
<text x="921.0" y="491" text-anchor="middle" font-family="-apple-system,BlinkMacSystemFont,PingFang SC,Noto Sans CJK SC,sans-serif" font-size="17">6</text>
<line x1="1005.0" y1="460" x2="1005.0" y2="467" stroke="#30332e"/>
<text x="1005.0" y="491" text-anchor="middle" font-family="-apple-system,BlinkMacSystemFont,PingFang SC,Noto Sans CJK SC,sans-serif" font-size="17">8</text>
<line x1="1089.0" y1="460" x2="1089.0" y2="467" stroke="#30332e"/>
<text x="1089.0" y="491" text-anchor="middle" font-family="-apple-system,BlinkMacSystemFont,PingFang SC,Noto Sans CJK SC,sans-serif" font-size="17">10</text>
<line x1="683" y1="460.0" x2="690" y2="460.0" stroke="#30332e"/>
<text x="676" y="466.0" text-anchor="end" font-family="-apple-system,BlinkMacSystemFont,PingFang SC,Noto Sans CJK SC,sans-serif" font-size="17">0</text>
<line x1="683" y1="359.3" x2="690" y2="359.3" stroke="#30332e"/>
<text x="676" y="365.3" text-anchor="end" font-family="-apple-system,BlinkMacSystemFont,PingFang SC,Noto Sans CJK SC,sans-serif" font-size="17">5000</text>
<line x1="683" y1="258.6" x2="690" y2="258.6" stroke="#30332e"/>
<text x="676" y="264.6" text-anchor="end" font-family="-apple-system,BlinkMacSystemFont,PingFang SC,Noto Sans CJK SC,sans-serif" font-size="17">10000</text>
<line x1="683" y1="157.8" x2="690" y2="157.8" stroke="#30332e"/>
<text x="676" y="163.8" text-anchor="end" font-family="-apple-system,BlinkMacSystemFont,PingFang SC,Noto Sans CJK SC,sans-serif" font-size="17">15000</text>
<line x1="711.0" y1="460.0" x2="711.0" y2="423.2" stroke="#6670ee" stroke-width="3"/>
<line x1="753.0" y1="460.0" x2="753.0" y2="387.2" stroke="#6670ee" stroke-width="3"/>
<line x1="795.0" y1="460.0" x2="795.0" y2="352.4" stroke="#6670ee" stroke-width="3"/>
<line x1="837.0" y1="460.0" x2="837.0" y2="316.2" stroke="#6670ee" stroke-width="3"/>
<line x1="879.0" y1="460.0" x2="879.0" y2="278.8" stroke="#6670ee" stroke-width="3"/>
<line x1="921.0" y1="460.0" x2="921.0" y2="241.6" stroke="#6670ee" stroke-width="3"/>
<line x1="963.0" y1="460.0" x2="963.0" y2="200.3" stroke="#6670ee" stroke-width="3"/>
<line x1="1005.0" y1="460.0" x2="1005.0" y2="168.0" stroke="#6670ee" stroke-width="3"/>
<line x1="1047.0" y1="460.0" x2="1047.0" y2="129.3" stroke="#6670ee" stroke-width="3"/>
<line x1="1089.0" y1="460.0" x2="1089.0" y2="88.6" stroke="#6670ee" stroke-width="3"/>
<text x="900.0" y="530" text-anchor="middle" font-family="-apple-system,BlinkMacSystemFont,PingFang SC,Noto Sans CJK SC,sans-serif" font-size="21" fill="#263f86">岛屿</text>
<text x="620" y="265.0" transform="rotate(-90 620 265.0)" text-anchor="middle" font-family="-apple-system,BlinkMacSystemFont,PingFang SC,Noto Sans CJK SC,sans-serif" font-size="21" fill="#263f86">周数</text>
</svg>
