<?xml version="1.0" encoding="UTF-8"?><svg xmlns="http://www.w3.org/2000/svg" width="900" height="550" viewBox="0 0 900 550" role="img" aria-labelledby="title desc"><title id="title">逐年变化捕获率下的观测毛皮数量分布</title><desc id="desc">在真实种群固定为一万只且年度捕获率服从 Beta(2, 18) 分布时，观测毛皮数呈明显右偏；同一真实种群规模可产生很宽的观测范围。</desc><rect width="100%" height="100%" fill="#fff"/><style>.axis{font:16px -apple-system, BlinkMacSystemFont, "PingFang SC", sans-serif;fill:#30332e}.label{font:20px -apple-system, BlinkMacSystemFont, "PingFang SC", sans-serif;fill:#30332e}.title{font:700 23px -apple-system, BlinkMacSystemFont, "PingFang SC", sans-serif;fill:#263f86}.panel{fill:#fff;stroke:#3c403b;stroke-width:1.4}.density{fill:none;stroke:#202420;stroke-width:3}</style><text class="title" x="450" y="31" text-anchor="middle">观测模型的模拟分布</text><rect class="panel" x="100" y="60" width="735" height="390"/><path class="density" d="M100,367.81 L103.34,352.48 L106.68,336.01 L110.02,318.65 L113.36,300.69 L116.7,282.4 L120.05,264.09 L123.39,246.04 L126.73,228.49 L130.07,211.66 L133.41,195.71 L136.75,180.78 L140.09,166.94 L143.43,154.27 L146.77,142.78 L150.11,132.49 L153.45,123.41 L156.8,115.54 L160.14,108.85 L163.48,103.35 L166.82,99.01 L170.16,95.83 L173.5,93.76 L176.84,92.77 L180.18,92.81 L183.52,93.79 L186.86,95.65 L190.2,98.27 L193.55,101.55 L196.89,105.37 L200.23,109.63 L203.57,114.22 L206.91,119.05 L210.25,124.04 L213.59,129.13 L216.93,134.29 L220.27,139.48 L223.61,144.72 L226.95,150.01 L230.3,155.37 L233.64,160.83 L236.98,166.41 L240.32,172.12 L243.66,177.98 L247,183.98 L250.34,190.11 L253.68,196.35 L257.02,202.65 L260.36,208.97 L263.7,215.29 L267.05,221.55 L270.39,227.72 L273.73,233.79 L277.07,239.74 L280.41,245.57 L283.75,251.29 L287.09,256.91 L290.43,262.45 L293.77,267.93 L297.11,273.37 L300.45,278.79 L303.8,284.19 L307.14,289.57 L310.48,294.91 L313.82,300.2 L317.16,305.4 L320.5,310.48 L323.84,315.41 L327.18,320.15 L330.52,324.69 L333.86,329 L337.2,333.1 L340.55,336.99 L343.89,340.68 L347.23,344.21 L350.57,347.61 L353.91,350.91 L357.25,354.14 L360.59,357.32 L363.93,360.46 L367.27,363.58 L370.61,366.67 L373.95,369.72 L377.3,372.72 L380.64,375.64 L383.98,378.49 L387.32,381.23 L390.66,383.86 L394,386.39 L397.34,388.81 L400.68,391.14 L404.02,393.39 L407.36,395.57 L410.7,397.71 L414.05,399.82 L417.39,401.91 L420.73,403.99 L424.07,406.06 L427.41,408.11 L430.75,410.13 L434.09,412.11 L437.43,414.04 L440.77,415.89 L444.11,417.65 L447.45,419.31 L450.8,420.86 L454.14,422.32 L457.48,423.67 L460.82,424.94 L464.16,426.13 L467.5,427.26 L470.84,428.35 L474.18,429.39 L477.52,430.41 L480.86,431.4 L484.2,432.37 L487.55,433.32 L490.89,434.24 L494.23,435.14 L497.57,436 L500.91,436.81 L504.25,437.59 L507.59,438.31 L510.93,438.97 L514.27,439.58 L517.61,440.12 L520.95,440.61 L524.3,441.04 L527.64,441.41 L530.98,441.75 L534.32,442.05 L537.66,442.32 L541,442.58 L544.34,442.84 L547.68,443.09 L551.02,443.36 L554.36,443.65 L557.7,443.94 L561.05,444.26 L564.39,444.58 L567.73,444.92 L571.07,445.26 L574.41,445.59 L577.75,445.92 L581.09,446.23 L584.43,446.53 L587.77,446.81 L591.11,447.08 L594.45,447.33 L597.8,447.56 L601.14,447.78 L604.48,447.98 L607.82,448.16 L611.16,448.33 L614.5,448.48 L617.84,448.62 L621.18,448.73 L624.52,448.84 L627.86,448.92 L631.2,448.99 L634.55,449.04 L637.89,449.09 L641.23,449.12 L644.57,449.15 L647.91,449.17 L651.25,449.19 L654.59,449.21 L657.93,449.23 L661.27,449.25 L664.61,449.28 L667.95,449.31 L671.3,449.34 L674.64,449.38 L677.98,449.43 L681.32,449.47 L684.66,449.52 L688,449.56 L691.34,449.6 L694.68,449.64 L698.02,449.67 L701.36,449.69 L704.7,449.71 L708.05,449.72 L711.39,449.73 L714.73,449.74 L718.07,449.74 L721.41,449.74 L724.75,449.75 L728.09,449.75 L731.43,449.76 L734.77,449.77 L738.11,449.78 L741.45,449.8 L744.8,449.82 L748.14,449.84 L751.48,449.86 L754.82,449.88 L758.16,449.9 L761.5,449.92 L764.84,449.93 L768.18,449.95 L771.52,449.96 L774.86,449.97 L778.2,449.98 L781.55,449.98 L784.89,449.99 L788.23,449.99 L791.57,449.99 L794.91,450 L798.25,450 L801.59,450 L804.93,450 L808.27,450 L811.61,450 L814.95,450 L818.3,450 L821.64,450 L824.98,450 L828.32,450 L831.66,450 L835,450"/><line x1="100" y1="450" x2="100" y2="456" stroke="#3c403b"/><text class="axis" x="100" y="478" text-anchor="middle">0</text><line x1="233.64" y1="450" x2="233.64" y2="456" stroke="#3c403b"/><text class="axis" x="233.64" y="478" text-anchor="middle">1</text><line x1="367.27" y1="450" x2="367.27" y2="456" stroke="#3c403b"/><text class="axis" x="367.27" y="478" text-anchor="middle">2</text><line x1="500.91" y1="450" x2="500.91" y2="456" stroke="#3c403b"/><text class="axis" x="500.91" y="478" text-anchor="middle">3</text><line x1="634.55" y1="450" x2="634.55" y2="456" stroke="#3c403b"/><text class="axis" x="634.55" y="478" text-anchor="middle">4</text><line x1="768.18" y1="450" x2="768.18" y2="456" stroke="#3c403b"/><text class="axis" x="768.18" y="478" text-anchor="middle">5</text><line x1="94" y1="450" x2="100" y2="450" stroke="#3c403b"/><text class="axis" x="88" y="455" text-anchor="end">0.0</text><line x1="94" y1="346" x2="100" y2="346" stroke="#3c403b"/><text class="axis" x="88" y="351" text-anchor="end">0.2</text><line x1="94" y1="242" x2="100" y2="242" stroke="#3c403b"/><text class="axis" x="88" y="247" text-anchor="end">0.4</text><line x1="94" y1="138" x2="100" y2="138" stroke="#3c403b"/><text class="axis" x="88" y="143" text-anchor="end">0.6</text><text class="label" x="467.5" y="512" text-anchor="middle">毛皮数量（千张）</text><text class="label" x="32" y="255.0" text-anchor="middle" transform="rotate(-90 32 255.0)">密度</text></svg>