<?xml version="1.0" encoding="UTF-8"?>
<svg xmlns="http://www.w3.org/2000/svg" width="1200" height="850" viewBox="0 0 1200 850" role="img">
  <title>足球场随机游走逐渐形成正态分布</title>
  <desc>上图显示一百条十六步随机游走；下方三个面板显示四步、八步和十六步后位置的经验概率密度，十六步面板叠加理想正态曲线。</desc>
  <rect width="100%" height="100%" fill="#ffffff"/>
  <rect x="110" y="65" width="1020" height="285" fill="#fff" stroke="#363934" stroke-width="1.2"/>
  <polyline points="110,207.5 173.75,199.97 237.5,199.44 301.25,182.43 365,199.33 428.75,211.05 492.5,220.88 556.25,239.47 620,247.74 683.75,227.31 747.5,247.12 811.25,261.13 875,276.3 938.75,291.21 1002.5,273.6 1066.25,290.58 1130,278" fill="none" stroke="#30332e" stroke-width="2.5" opacity="1"/>
  <polyline points="110,207.5 173.75,224.75 237.5,216.42 301.25,201.76 365,216.86 428.75,210.68 492.5,198.22 556.25,210.62 620,227.37 683.75,242.45 747.5,253.88 811.25,249.44 875,230.37 938.75,223.28 1002.5,245.54 1066.25,229.14 1130,241.18" fill="none" stroke="#6670ee" stroke-width="1" opacity="0.25"/>
  <polyline points="110,207.5 173.75,201.76 237.5,214.26 301.25,237.42 365,233.41 428.75,242.76 492.5,248.18 556.25,240.35 620,233.04 683.75,223.89 747.5,217.54 811.25,205.87 875,189.77 938.75,183.98 1002.5,206.09 1066.25,205.63 1130,221.37" fill="none" stroke="#6670ee" stroke-width="1" opacity="0.25"/>
  <polyline points="110,207.5 173.75,215.34 237.5,197.82 301.25,206.61 365,216.56 428.75,210.23 492.5,187.92 556.25,173.61 620,174.96 683.75,178.97 747.5,161.05 811.25,143.85 875,132.52 938.75,124.85 1002.5,128.84 1066.25,119.2 1130,98.24" fill="none" stroke="#6670ee" stroke-width="1" opacity="0.25"/>
  <polyline points="110,207.5 173.75,215.33 237.5,239.05 301.25,238.13 365,227.34 428.75,244.47 492.5,252.82 556.25,235.03 620,247.97 683.75,234.91 747.5,232.6 811.25,222.1 875,208.44 938.75,209.35 1002.5,221.27 1066.25,225.4 1130,204.59" fill="none" stroke="#6670ee" stroke-width="1" opacity="0.25"/>
  <polyline points="110,207.5 173.75,220.1 237.5,213.78 301.25,229.73 365,229.82 428.75,246.73 492.5,267.41 556.25,288.38 620,290.16 683.75,296.15 747.5,318.49 811.25,309.41 875,294.1 938.75,286.35 1002.5,300.48 1066.25,320.65 1130,325.17" fill="none" stroke="#6670ee" stroke-width="1" opacity="0.25"/>
  <polyline points="110,207.5 173.75,189.82 237.5,175.92 301.25,168.96 365,170.89 428.75,186.3 492.5,163.61 556.25,151.86 620,157.54 683.75,175.06 747.5,155.57 811.25,144.49 875,166.46 938.75,175.09 1002.5,171.19 1066.25,169.14 1130,180.83" fill="none" stroke="#6670ee" stroke-width="1" opacity="0.25"/>
  <polyline points="110,207.5 173.75,224.94 237.5,238.52 301.25,244.57 365,222.67 428.75,214.68 492.5,194.87 556.25,196.76 620,195.15 683.75,210.79 747.5,199.23 811.25,176.93 875,153.92 938.75,145.18 1002.5,129.37 1066.25,150.42 1130,167.74" fill="none" stroke="#6670ee" stroke-width="1" opacity="0.25"/>
  <polyline points="110,207.5 173.75,211.04 237.5,229.69 301.25,220.6 365,204.45 428.75,207.9 492.5,207.96 556.25,186.8 620,207.96 683.75,208.78 747.5,223.18 811.25,200.66 875,190.02 938.75,195.87 1002.5,208.85 1066.25,187.42 1130,191.47" fill="none" stroke="#6670ee" stroke-width="1" opacity="0.25"/>
  <polyline points="110,207.5 173.75,185.92 237.5,208.33 301.25,227.15 365,225.27 428.75,221.44 492.5,218.27 556.25,239.24 620,234.3 683.75,215.28 747.5,215.87 811.25,205.28 875,185.25 938.75,176.18 1002.5,180.43 1066.25,202.98 1130,219.72" fill="none" stroke="#6670ee" stroke-width="1" opacity="0.25"/>
  <polyline points="110,207.5 173.75,220.21 237.5,235.86 301.25,213.22 365,210.92 428.75,233.94 492.5,248.21 556.25,263.74 620,261.67 683.75,260.54 747.5,282.26 811.25,302.86 875,320.42 938.75,334.89 1002.5,352.19 1066.25,345.18 1130,341.22" fill="none" stroke="#6670ee" stroke-width="1" opacity="0.25"/>
  <polyline points="110,207.5 173.75,223.64 237.5,233.04 301.25,241.03 365,255.52 428.75,263.85 492.5,262.75 556.25,246.05 620,251.07 683.75,246.85 747.5,238.19 811.25,220.87 875,218.51 938.75,204.23 1002.5,191.25 1066.25,196.68 1130,176.62" fill="none" stroke="#6670ee" stroke-width="1" opacity="0.25"/>
  <polyline points="110,207.5 173.75,187.24 237.5,176.95 301.25,166.88 365,176.51 428.75,198.5 492.5,190.24 556.25,188.9 620,178.98 683.75,199.89 747.5,184.64 811.25,202.29 875,210.57 938.75,200.87 1002.5,218.27 1066.25,215.78 1130,211.12" fill="none" stroke="#6670ee" stroke-width="1" opacity="0.25"/>
  <polyline points="110,207.5 173.75,188.26 237.5,187.84 301.25,177.84 365,157.19 428.75,179.03 492.5,165.22 556.25,149.21 620,170.92 683.75,189.39 747.5,208.66 811.25,228.41 875,228.62 938.75,237.37 1002.5,239.02 1066.25,240.89 1130,231.72" fill="none" stroke="#6670ee" stroke-width="1" opacity="0.25"/>
  <polyline points="110,207.5 173.75,207.72 237.5,186.86 301.25,209.46 365,226.61 428.75,229.39 492.5,246.38 556.25,229.12 620,227.66 683.75,243.3 747.5,225.96 811.25,237.6 875,260.5 938.75,281.75 1002.5,277.88 1066.25,285.33 1130,279.9" fill="none" stroke="#6670ee" stroke-width="1" opacity="0.25"/>
  <polyline points="110,207.5 173.75,209.15 237.5,194.03 301.25,186.79 365,185.46 428.75,168.32 492.5,162.27 556.25,143.02 620,155.27 683.75,169.18 747.5,172.31 811.25,166.94 875,154.82 938.75,133.14 1002.5,121.48 1066.25,118.98 1130,101.61" fill="none" stroke="#6670ee" stroke-width="1" opacity="0.25"/>
  <polyline points="110,207.5 173.75,197.06 237.5,218.9 301.25,221.6 365,226.18 428.75,231.3 492.5,217.52 556.25,202.57 620,199.53 683.75,187.17 747.5,195.76 811.25,215.97 875,199.1 938.75,202.91 1002.5,208.81 1066.25,221.09 1130,197.85" fill="none" stroke="#6670ee" stroke-width="1" opacity="0.25"/>
  <polyline points="110,207.5 173.75,203.9 237.5,198.52 301.25,185.04 365,208.38 428.75,193.44 492.5,197.53 556.25,174.89 620,169.27 683.75,151.52 747.5,167.69 811.25,144.95 875,140.16 938.75,135.48 1002.5,115.84 1066.25,118.62 1130,134.82" fill="none" stroke="#6670ee" stroke-width="1" opacity="0.25"/>
  <polyline points="110,207.5 173.75,228.74 237.5,230.9 301.25,241.14 365,242.66 428.75,234.59 492.5,222.26 556.25,205.47 620,189.04 683.75,180.39 747.5,164.92 811.25,146.92 875,161.25 938.75,158.81 1002.5,154.12 1066.25,140.9 1130,153.7" fill="none" stroke="#6670ee" stroke-width="1" opacity="0.25"/>
  <polyline points="110,207.5 173.75,192.87 237.5,200.17 301.25,214.43 365,204.26 428.75,204.05 492.5,188.78 556.25,190.7 620,213.32 683.75,223.61 747.5,204.74 811.25,197 875,175.94 938.75,172.86 1002.5,169.09 1066.25,156.66 1130,164.4" fill="none" stroke="#6670ee" stroke-width="1" opacity="0.25"/>
  <polyline points="110,207.5 173.75,228.94 237.5,230.45 301.25,236.98 365,229.68 428.75,223.05 492.5,210.98 556.25,202.1 620,217.08 683.75,211.49 747.5,188.98 811.25,181.93 875,175.38 938.75,154.33 1002.5,169.8 1066.25,180.01 1130,157.25" fill="none" stroke="#6670ee" stroke-width="1" opacity="0.25"/>
  <polyline points="110,207.5 173.75,221.27 237.5,204.63 301.25,208.93 365,221.9 428.75,205.9 492.5,203.19 556.25,192.26 620,173.77 683.75,171.57 747.5,169.96 811.25,146.57 875,132.27 938.75,131.77 1002.5,116.4 1066.25,120.32 1130,134.53" fill="none" stroke="#6670ee" stroke-width="1" opacity="0.25"/>
  <polyline points="110,207.5 173.75,213.84 237.5,232.37 301.25,254.19 365,236.73 428.75,244.74 492.5,265.06 556.25,267.14 620,285.8 683.75,267.06 747.5,251.51 811.25,245.95 875,252.39 938.75,252.96 1002.5,266.08 1066.25,262.5 1130,241.31" fill="none" stroke="#6670ee" stroke-width="1" opacity="0.25"/>
  <polyline points="110,207.5 173.75,218.21 237.5,222.35 301.25,198.89 365,209.53 428.75,223.69 492.5,245.33 556.25,247.26 620,230.55 683.75,243.82 747.5,266.69 811.25,282.38 875,290.7 938.75,278.15 1002.5,282.08 1066.25,305.24 1130,304.58" fill="none" stroke="#6670ee" stroke-width="1" opacity="0.25"/>
  <polyline points="110,207.5 173.75,187.5 237.5,211.23 301.25,233.66 365,213.49 428.75,201.86 492.5,201.34 556.25,180.19 620,195.39 683.75,208.01 747.5,230.66 811.25,225.97 875,229.32 938.75,246.9 1002.5,260.16 1066.25,250.56 1130,247.19" fill="none" stroke="#6670ee" stroke-width="1" opacity="0.25"/>
  <polyline points="110,207.5 173.75,228.35 237.5,223.47 301.25,245.92 365,266.44 428.75,287.96 492.5,287.27 556.25,292.96 620,298.9 683.75,302.78 747.5,291.96 811.25,310.76 875,315.96 938.75,311.84 1002.5,333.27 1066.25,351.77 1130,342.76" fill="none" stroke="#6670ee" stroke-width="1" opacity="0.25"/>
  <polyline points="110,207.5 173.75,202.2 237.5,213.27 301.25,199.55 365,177.74 428.75,191.82 492.5,191.18 556.25,171.73 620,150.77 683.75,156.75 747.5,175.24 811.25,170.2 875,160.73 938.75,138.94 1002.5,127.6 1066.25,139.09 1130,120.04" fill="none" stroke="#6670ee" stroke-width="1" opacity="0.25"/>
  <polyline points="110,207.5 173.75,223.94 237.5,233.05 301.25,255.34 365,233.63 428.75,210.06 492.5,187.9 556.25,168.8 620,149.86 683.75,147.19 747.5,165.09 811.25,171.63 875,152.89 938.75,150.5 1002.5,172.13 1066.25,191.08 1130,210.78" fill="none" stroke="#6670ee" stroke-width="1" opacity="0.25"/>
  <polyline points="110,207.5 173.75,198.09 237.5,211.9 301.25,210.26 365,227.14 428.75,204.07 492.5,214.8 556.25,234.57 620,253.49 683.75,272.38 747.5,252.55 811.25,232.16 875,226.3 938.75,247.3 1002.5,265.54 1066.25,277.06 1130,295.13" fill="none" stroke="#6670ee" stroke-width="1" opacity="0.25"/>
  <polyline points="110,207.5 173.75,204.61 237.5,186.47 301.25,169.36 365,169.25 428.75,162.18 492.5,161.78 556.25,169.41 620,158.88 683.75,166.14 747.5,146.28 811.25,141.27 875,134.33 938.75,122.07 1002.5,130.13 1066.25,121.05 1130,119.32" fill="none" stroke="#6670ee" stroke-width="1" opacity="0.25"/>
  <polyline points="110,207.5 173.75,193.16 237.5,216.62 301.25,205.24 365,199.19 428.75,203.28 492.5,207.47 556.25,223.69 620,204.34 683.75,225.39 747.5,235.93 811.25,232.33 875,233.27 938.75,233.17 1002.5,232.58 1066.25,216.53 1130,222.27" fill="none" stroke="#6670ee" stroke-width="1" opacity="0.25"/>
  <polyline points="110,207.5 173.75,230.67 237.5,227.47 301.25,248.57 365,235.89 428.75,231.91 492.5,243.15 556.25,264.29 620,284.19 683.75,290.84 747.5,270.16 811.25,268.94 875,271.32 938.75,282.17 1002.5,263.77 1066.25,247.55 1130,235.92" fill="none" stroke="#6670ee" stroke-width="1" opacity="0.25"/>
  <polyline points="110,207.5 173.75,201.25 237.5,206.43 301.25,193.29 365,214.37 428.75,232.75 492.5,248.65 556.25,233.18 620,249.95 683.75,251.58 747.5,267.52 811.25,266.23 875,252.53 938.75,273.78 1002.5,253.27 1066.25,260.69 1130,267.67" fill="none" stroke="#6670ee" stroke-width="1" opacity="0.25"/>
  <polyline points="110,207.5 173.75,213.32 237.5,195.47 301.25,210.1 365,209.6 428.75,213.9 492.5,206 556.25,186.77 620,179.71 683.75,170.24 747.5,189.46 811.25,190.21 875,186.64 938.75,186.72 1002.5,205.21 1066.25,185.83 1130,200.26" fill="none" stroke="#6670ee" stroke-width="1" opacity="0.25"/>
  <polyline points="110,207.5 173.75,212.26 237.5,211.44 301.25,213.69 365,201.08 428.75,213.65 492.5,215.25 556.25,209.35 620,219.54 683.75,196.29 747.5,218.49 811.25,240.67 875,224.93 938.75,246.05 1002.5,265.49 1066.25,263.07 1130,253.22" fill="none" stroke="#6670ee" stroke-width="1" opacity="0.25"/>
  <polyline points="110,207.5 173.75,210.91 237.5,189.35 301.25,201.49 365,179.35 428.75,194.41 492.5,179.59 556.25,156.78 620,139.13 683.75,147.86 747.5,135.84 811.25,114.33 875,134.9 938.75,132.94 1002.5,113.61 1066.25,119.84 1130,133.92" fill="none" stroke="#6670ee" stroke-width="1" opacity="0.25"/>
  <polyline points="110,207.5 173.75,185.33 237.5,205.63 301.25,183.71 365,187.16 428.75,164.71 492.5,185.1 556.25,165.32 620,161.51 683.75,149.29 747.5,134.4 811.25,120.45 875,98.98 938.75,92.61 1002.5,113.9 1066.25,97.94 1130,94.48" fill="none" stroke="#6670ee" stroke-width="1" opacity="0.25"/>
  <polyline points="110,207.5 173.75,186.87 237.5,168.39 301.25,190.66 365,214.3 428.75,233.82 492.5,223.65 556.25,207.69 620,229.91 683.75,251.58 747.5,235.2 811.25,250.95 875,237.6 938.75,232.72 1002.5,211.29 1066.25,222.54 1130,236.67" fill="none" stroke="#6670ee" stroke-width="1" opacity="0.25"/>
  <polyline points="110,207.5 173.75,201.93 237.5,205.91 301.25,202.45 365,204.45 428.75,187.94 492.5,193.85 556.25,183.04 620,198.6 683.75,218.77 747.5,213.72 811.25,217.74 875,231.91 938.75,211.47 1002.5,226.14 1066.25,220.86 1130,239.03" fill="none" stroke="#6670ee" stroke-width="1" opacity="0.25"/>
  <polyline points="110,207.5 173.75,219.4 237.5,239.26 301.25,252.77 365,274.79 428.75,267.96 492.5,249.82 556.25,256.27 620,274.06 683.75,293.16 747.5,301.34 811.25,286.63 875,302.75 938.75,301.26 1002.5,280.63 1066.25,270.04 1130,263.34" fill="none" stroke="#6670ee" stroke-width="1" opacity="0.25"/>
  <polyline points="110,207.5 173.75,227.9 237.5,239.64 301.25,240.94 365,241.37 428.75,260.68 492.5,282.76 556.25,292.96 620,292.01 683.75,269.44 747.5,255.1 811.25,274.81 875,265.09 938.75,276.55 1002.5,294.2 1066.25,284.12 1130,302.7" fill="none" stroke="#6670ee" stroke-width="1" opacity="0.25"/>
  <polyline points="110,207.5 173.75,229.47 237.5,208.89 301.25,219.47 365,238.62 428.75,246.35 492.5,264.32 556.25,262.93 620,286.29 683.75,263.06 747.5,253.97 811.25,239.89 875,259.04 938.75,237.46 1002.5,220.63 1066.25,206.47 1130,206.57" fill="none" stroke="#6670ee" stroke-width="1" opacity="0.25"/>
  <polyline points="110,207.5 173.75,201.15 237.5,222.7 301.25,203.53 365,224.39 428.75,210.48 492.5,192.06 556.25,186.06 620,201.36 683.75,218.12 747.5,215.16 811.25,231.62 875,248.94 938.75,271.37 1002.5,285.08 1066.25,306.08 1130,301.32" fill="none" stroke="#6670ee" stroke-width="1" opacity="0.25"/>
  <polyline points="110,207.5 173.75,199.93 237.5,188.56 301.25,209.59 365,226.17 428.75,234.23 492.5,256.44 556.25,279.42 620,271.6 683.75,270.9 747.5,289.36 811.25,272.14 875,255.96 938.75,260.08 1002.5,239.21 1066.25,244.08 1130,257.05" fill="none" stroke="#6670ee" stroke-width="1" opacity="0.25"/>
  <polyline points="110,207.5 173.75,224.41 237.5,213.67 301.25,233.95 365,244.21 428.75,259.01 492.5,244.63 556.25,235.95 620,213.81 683.75,201.12 747.5,187.99 811.25,189.2 875,184.17 938.75,170.25 1002.5,193.23 1066.25,189.04 1130,179.11" fill="none" stroke="#6670ee" stroke-width="1" opacity="0.25"/>
  <polyline points="110,207.5 173.75,187.45 237.5,164.67 301.25,155.72 365,169.92 428.75,182.32 492.5,201.68 556.25,209.06 620,232.15 683.75,214.47 747.5,207.48 811.25,230.97 875,250.71 938.75,238.54 1002.5,256.04 1066.25,262.34 1130,245.03" fill="none" stroke="#6670ee" stroke-width="1" opacity="0.25"/>
  <polyline points="110,207.5 173.75,208.54 237.5,196.93 301.25,188.83 365,195.73 428.75,189.62 492.5,194.41 556.25,185.42 620,200.58 683.75,192.06 747.5,180.06 811.25,183.19 875,168.12 938.75,154.41 1002.5,132.53 1066.25,121.21 1130,98.32" fill="none" stroke="#6670ee" stroke-width="1" opacity="0.25"/>
  <polyline points="110,207.5 173.75,194.45 237.5,180.82 301.25,166.26 365,143.66 428.75,140.86 492.5,153.58 556.25,159.24 620,166.72 683.75,155.05 747.5,164.87 811.25,155.14 875,148.74 938.75,163.55 1002.5,156.98 1066.25,171.45 1130,190.18" fill="none" stroke="#6670ee" stroke-width="1" opacity="0.25"/>
  <polyline points="110,207.5 173.75,226.36 237.5,247.66 301.25,232.06 365,230.1 428.75,227.47 492.5,222.93 556.25,239.14 620,245.18 683.75,242.63 747.5,227.26 811.25,247.47 875,247.7 938.75,240.37 1002.5,263.06 1066.25,267.57 1130,249.71" fill="none" stroke="#6670ee" stroke-width="1" opacity="0.25"/>
  <polyline points="110,207.5 173.75,210.71 237.5,204.58 301.25,187.64 365,186.67 428.75,200.35 492.5,213.66 556.25,197.65 620,202.38 683.75,223.35 747.5,207.41 811.25,212.64 875,209.64 938.75,190.89 1002.5,192.05 1066.25,199.38 1130,208.39" fill="none" stroke="#6670ee" stroke-width="1" opacity="0.25"/>
  <polyline points="110,207.5 173.75,209.05 237.5,215.72 301.25,192.68 365,212.17 428.75,189.72 492.5,166 556.25,152.16 620,138.91 683.75,138.85 747.5,120.52 811.25,128.29 875,121.18 938.75,101.55 1002.5,122.08 1066.25,103.21 1130,104.61" fill="none" stroke="#6670ee" stroke-width="1" opacity="0.25"/>
  <polyline points="110,207.5 173.75,200.41 237.5,185.2 301.25,168.56 365,145.14 428.75,136.41 492.5,119.7 556.25,124.54 620,101.96 683.75,112.12 747.5,106.13 811.25,111.84 875,99.93 938.75,83.57 1002.5,65.1 1066.25,85.49 1130,88.67" fill="none" stroke="#6670ee" stroke-width="1" opacity="0.25"/>
  <polyline points="110,207.5 173.75,190.3 237.5,188.24 301.25,201.49 365,207.2 428.75,189.4 492.5,190.04 556.25,178.27 620,164.98 683.75,182.41 747.5,178.02 811.25,190.54 875,203.34 938.75,220.25 1002.5,199.7 1066.25,181.99 1130,199.68" fill="none" stroke="#6670ee" stroke-width="1" opacity="0.25"/>
  <polyline points="110,207.5 173.75,207.12 237.5,191.5 301.25,207.57 365,203.27 428.75,203.99 492.5,187.05 556.25,204.76 620,225.38 683.75,222.21 747.5,238.27 811.25,255.63 875,271.3 938.75,284.55 1002.5,296.96 1066.25,273.39 1130,251.6" fill="none" stroke="#6670ee" stroke-width="1" opacity="0.25"/>
  <polyline points="110,207.5 173.75,206.75 237.5,216.09 301.25,228.26 365,218.91 428.75,234.5 492.5,232.94 556.25,227.98 620,207.75 683.75,227.24 747.5,235.69 811.25,226.15 875,242.69 938.75,222.97 1002.5,234.45 1066.25,253.52 1130,268.9" fill="none" stroke="#6670ee" stroke-width="1" opacity="0.25"/>
  <polyline points="110,207.5 173.75,192.1 237.5,175.56 301.25,173.79 365,167.46 428.75,157.61 492.5,163.9 556.25,168.64 620,166.35 683.75,169.37 747.5,147.62 811.25,137.43 875,144.94 938.75,123.16 1002.5,120.16 1066.25,114.5 1130,99.38" fill="none" stroke="#6670ee" stroke-width="1" opacity="0.25"/>
  <polyline points="110,207.5 173.75,204.65 237.5,187.56 301.25,202.65 365,196.25 428.75,206.38 492.5,194.78 556.25,180.63 620,169.48 683.75,189.04 747.5,183.15 811.25,189.52 875,174.14 938.75,176.83 1002.5,182.31 1066.25,172.56 1130,158.77" fill="none" stroke="#6670ee" stroke-width="1" opacity="0.25"/>
  <polyline points="110,207.5 173.75,194.96 237.5,210.19 301.25,197.03 365,201.68 428.75,192.64 492.5,185.59 556.25,196.31 620,191.25 683.75,194.6 747.5,216.16 811.25,213.69 875,220.39 938.75,197.06 1002.5,181.14 1066.25,167.23 1130,145.3" fill="none" stroke="#6670ee" stroke-width="1" opacity="0.25"/>
  <polyline points="110,207.5 173.75,213.21 237.5,228.84 301.25,241.38 365,226.49 428.75,230.32 492.5,236.75 556.25,237.04 620,245.19 683.75,258.04 747.5,253.31 811.25,260.75 875,242.15 938.75,231.56 1002.5,227.54 1066.25,246.7 1130,245.97" fill="none" stroke="#6670ee" stroke-width="1" opacity="0.25"/>
  <polyline points="110,207.5 173.75,224.49 237.5,213.16 301.25,200.94 365,182.8 428.75,182.61 492.5,170.25 556.25,152.78 620,150.46 683.75,154.94 747.5,139.76 811.25,131.87 875,136.66 938.75,156.54 1002.5,137.81 1066.25,156.67 1130,166.79" fill="none" stroke="#6670ee" stroke-width="1" opacity="0.25"/>
  <polyline points="110,207.5 173.75,217.18 237.5,218.92 301.25,216.47 365,231.75 428.75,246.05 492.5,256.45 556.25,243.06 620,229.44 683.75,229.02 747.5,238.14 811.25,246.21 875,251.23 938.75,241.35 1002.5,227.95 1066.25,249.68 1130,270.62" fill="none" stroke="#6670ee" stroke-width="1" opacity="0.25"/>
  <polyline points="110,207.5 173.75,226.66 237.5,213.57 301.25,191.48 365,170.74 428.75,171.7 492.5,193.93 556.25,195.91 620,210.56 683.75,231.45 747.5,242.61 811.25,258.1 875,240.89 938.75,261.84 1002.5,243.38 1066.25,223.3 1130,205.5" fill="none" stroke="#6670ee" stroke-width="1" opacity="0.25"/>
  <polyline points="110,207.5 173.75,225.62 237.5,210.52 301.25,215.53 365,196.15 428.75,212.44 492.5,193 556.25,200.32 620,181.67 683.75,192.71 747.5,173.19 811.25,174.97 875,192.39 938.75,178.71 1002.5,202.14 1066.25,225.5 1130,231.05" fill="none" stroke="#6670ee" stroke-width="1" opacity="0.25"/>
  <polyline points="110,207.5 173.75,188.45 237.5,165.19 301.25,145.46 365,146.71 428.75,143.13 492.5,164.89 556.25,161.31 620,174.02 683.75,194.24 747.5,209.6 811.25,199.89 875,205.64 938.75,200.58 1002.5,184.1 1066.25,190.41 1130,183.15" fill="none" stroke="#6670ee" stroke-width="1" opacity="0.25"/>
  <polyline points="110,207.5 173.75,206.83 237.5,229.6 301.25,230.42 365,242.65 428.75,255.35 492.5,245.12 556.25,227.84 620,251.43 683.75,244.23 747.5,253.23 811.25,234.59 875,240.75 938.75,259.66 1002.5,247.28 1066.25,259.43 1130,235.98" fill="none" stroke="#6670ee" stroke-width="1" opacity="0.25"/>
  <polyline points="110,207.5 173.75,184.1 237.5,202.18 301.25,219.79 365,225.74 428.75,216.42 492.5,192.75 556.25,192.14 620,188.12 683.75,205.22 747.5,194.63 811.25,211.54 875,233.19 938.75,235.39 1002.5,221.25 1066.25,208.55 1130,199.31" fill="none" stroke="#6670ee" stroke-width="1" opacity="0.25"/>
  <polyline points="110,207.5 173.75,202.32 237.5,213.09 301.25,223.4 365,226.15 428.75,228.5 492.5,225.78 556.25,227.95 620,227.7 683.75,240.89 747.5,258.68 811.25,241.75 875,230.93 938.75,211.69 1002.5,231.31 1066.25,228.15 1130,214.46" fill="none" stroke="#6670ee" stroke-width="1" opacity="0.25"/>
  <polyline points="110,207.5 173.75,198.03 237.5,189.21 301.25,166.95 365,172.22 428.75,178.35 492.5,158.96 556.25,143.27 620,128.13 683.75,112.64 747.5,126.72 811.25,112.17 875,133.82 938.75,128.84 1002.5,125.1 1066.25,104.26 1130,112.39" fill="none" stroke="#6670ee" stroke-width="1" opacity="0.25"/>
  <polyline points="110,207.5 173.75,225.08 237.5,241.88 301.25,257.28 365,280.5 428.75,281.52 492.5,279.59 556.25,287.88 620,289.96 683.75,289.64 747.5,301.51 811.25,278.95 875,294.75 938.75,300.75 1002.5,283.52 1066.25,279.58 1130,294.62" fill="none" stroke="#6670ee" stroke-width="1" opacity="0.25"/>
  <polyline points="110,207.5 173.75,217.43 237.5,200.02 301.25,185.18 365,178.93 428.75,157.32 492.5,150.79 556.25,162.33 620,183.83 683.75,161.58 747.5,166.29 811.25,147.59 875,151.47 938.75,163.14 1002.5,155.08 1066.25,159.06 1130,161.93" fill="none" stroke="#6670ee" stroke-width="1" opacity="0.25"/>
  <polyline points="110,207.5 173.75,206.4 237.5,196.06 301.25,206.77 365,218.3 428.75,216.47 492.5,220.57 556.25,230.1 620,244.66 683.75,229.94 747.5,239.99 811.25,234.81 875,220.82 938.75,217.96 1002.5,234.99 1066.25,225.1 1130,212.2" fill="none" stroke="#6670ee" stroke-width="1" opacity="0.25"/>
  <polyline points="110,207.5 173.75,219.92 237.5,217.09 301.25,229.14 365,214.91 428.75,208.38 492.5,212.07 556.25,209.41 620,228.93 683.75,221.08 747.5,239.56 811.25,235.17 875,226.74 938.75,211.01 1002.5,198.27 1066.25,181.43 1130,191.07" fill="none" stroke="#6670ee" stroke-width="1" opacity="0.25"/>
  <polyline points="110,207.5 173.75,188.32 237.5,179.14 301.25,183.79 365,166.15 428.75,151.71 492.5,141.23 556.25,123.27 620,134.84 683.75,151.44 747.5,131.86 811.25,115.37 875,115.51 938.75,102.27 1002.5,85.31 1066.25,107.93 1130,93.79" fill="none" stroke="#6670ee" stroke-width="1" opacity="0.25"/>
  <polyline points="110,207.5 173.75,191.42 237.5,192.27 301.25,209.26 365,204.03 428.75,198.59 492.5,211.35 556.25,219.17 620,224.01 683.75,242.6 747.5,256.92 811.25,234.54 875,226.76 938.75,241.69 1002.5,254.19 1066.25,274.95 1130,275.42" fill="none" stroke="#6670ee" stroke-width="1" opacity="0.25"/>
  <polyline points="110,207.5 173.75,199.8 237.5,181.69 301.25,159.88 365,138.23 428.75,117.79 492.5,140.83 556.25,119.09 620,112.47 683.75,100.42 747.5,78.54 811.25,84.39 875,73.5 938.75,83.24 1002.5,76.98 1066.25,55.7 1130,43.94" fill="none" stroke="#6670ee" stroke-width="1" opacity="0.25"/>
  <polyline points="110,207.5 173.75,225.32 237.5,220.57 301.25,224.4 365,219.82 428.75,207.97 492.5,184.95 556.25,190.66 620,204.94 683.75,199.35 747.5,179.68 811.25,167.07 875,144.77 938.75,123.47 1002.5,107 1066.25,118.86 1130,99.59" fill="none" stroke="#6670ee" stroke-width="1" opacity="0.25"/>
  <polyline points="110,207.5 173.75,219.41 237.5,238.39 301.25,247.01 365,227.18 428.75,225.54 492.5,215.49 556.25,218.23 620,216.71 683.75,239.53 747.5,228.43 811.25,247.52 875,227.46 938.75,237.72 1002.5,222.11 1066.25,208.97 1130,198.99" fill="none" stroke="#6670ee" stroke-width="1" opacity="0.25"/>
  <polyline points="110,207.5 173.75,213.29 237.5,230.16 301.25,228.64 365,217.37 428.75,235.54 492.5,243.83 556.25,226.85 620,239.22 683.75,233.56 747.5,232.92 811.25,235.27 875,258.62 938.75,246.9 1002.5,239.72 1066.25,231.81 1130,246.22" fill="none" stroke="#6670ee" stroke-width="1" opacity="0.25"/>
  <polyline points="110,207.5 173.75,225.21 237.5,239.78 301.25,230.65 365,212.16 428.75,190.48 492.5,176.5 556.25,153.97 620,133.97 683.75,139.71 747.5,159.12 811.25,175.65 875,189.94 938.75,188.86 1002.5,209.95 1066.25,208.48 1130,196.7" fill="none" stroke="#6670ee" stroke-width="1" opacity="0.25"/>
  <polyline points="110,207.5 173.75,225.92 237.5,226.78 301.25,229.93 365,226.52 428.75,212.28 492.5,201.98 556.25,224.23 620,206.19 683.75,226.11 747.5,233.61 811.25,211.82 875,198.22 938.75,215.72 1002.5,192.93 1066.25,182.03 1130,158.83" fill="none" stroke="#6670ee" stroke-width="1" opacity="0.25"/>
  <polyline points="110,207.5 173.75,192.94 237.5,176.58 301.25,179.4 365,194.87 428.75,215.72 492.5,195.42 556.25,188.23 620,193.73 683.75,208.99 747.5,206.67 811.25,185.86 875,168.4 938.75,170.54 1002.5,178.98 1066.25,178.6 1130,191.61" fill="none" stroke="#6670ee" stroke-width="1" opacity="0.25"/>
  <polyline points="110,207.5 173.75,212.83 237.5,234.14 301.25,212.29 365,207.39 428.75,213.17 492.5,222.83 556.25,238.74 620,256.93 683.75,266.07 747.5,287.96 811.25,287.19 875,268.43 938.75,245.5 1002.5,256.81 1066.25,241.4 1130,260.34" fill="none" stroke="#6670ee" stroke-width="1" opacity="0.25"/>
  <polyline points="110,207.5 173.75,200.42 237.5,198.42 301.25,176.76 365,183.47 428.75,188.62 492.5,190.66 556.25,187.61 620,190.22 683.75,184.79 747.5,187.25 811.25,202.58 875,178.86 938.75,172.03 1002.5,165.35 1066.25,162.63 1130,156.88" fill="none" stroke="#6670ee" stroke-width="1" opacity="0.25"/>
  <polyline points="110,207.5 173.75,206.08 237.5,205.92 301.25,227.15 365,228.11 428.75,210.17 492.5,218.57 556.25,208.65 620,216.13 683.75,195.06 747.5,182.87 811.25,160.84 875,145.71 938.75,145.17 1002.5,132.94 1066.25,112.1 1130,107.14" fill="none" stroke="#6670ee" stroke-width="1" opacity="0.25"/>
  <polyline points="110,207.5 173.75,186.88 237.5,208.61 301.25,199.31 365,190.1 428.75,187.17 492.5,207.79 556.25,217.35 620,236.4 683.75,245.02 747.5,249.3 811.25,265.48 875,242.03 938.75,239.69 1002.5,236.19 1066.25,239.79 1130,221" fill="none" stroke="#6670ee" stroke-width="1" opacity="0.25"/>
  <polyline points="110,207.5 173.75,218.21 237.5,234.41 301.25,215.73 365,235.01 428.75,239.77 492.5,221.76 556.25,237.1 620,217.32 683.75,228.54 747.5,226.26 811.25,249.37 875,228.52 938.75,232.3 1002.5,222.66 1066.25,238.89 1130,231.59" fill="none" stroke="#6670ee" stroke-width="1" opacity="0.25"/>
  <polyline points="110,207.5 173.75,202.17 237.5,206.23 301.25,187.93 365,165.99 428.75,171.39 492.5,152.41 556.25,140.69 620,139.73 683.75,123.03 747.5,124.35 811.25,113.81 875,123.8 938.75,105.75 1002.5,85.22 1066.25,93.46 1130,103.6" fill="none" stroke="#6670ee" stroke-width="1" opacity="0.25"/>
  <polyline points="110,207.5 173.75,226.07 237.5,227.48 301.25,250.87 365,271.41 428.75,254.51 492.5,231.47 556.25,215.32 620,209.35 683.75,223.54 747.5,217.79 811.25,228.56 875,234 938.75,216.58 1002.5,205.38 1066.25,186.87 1130,190.96" fill="none" stroke="#6670ee" stroke-width="1" opacity="0.25"/>
  <polyline points="110,207.5 173.75,222.03 237.5,215.38 301.25,238.56 365,256.7 428.75,263.69 492.5,281.54 556.25,271.05 620,290.24 683.75,284.39 747.5,302.58 811.25,285.95 875,305.12 938.75,321.37 1002.5,326.25 1066.25,334.88 1130,348.5" fill="none" stroke="#6670ee" stroke-width="1" opacity="0.25"/>
  <polyline points="110,207.5 173.75,196.53 237.5,210.11 301.25,229.87 365,247.91 428.75,239.21 492.5,216.94 556.25,205.82 620,192.61 683.75,192.82 747.5,215.72 811.25,193.21 875,206.66 938.75,208.66 1002.5,230.31 1066.25,238.45 1130,231.24" fill="none" stroke="#6670ee" stroke-width="1" opacity="0.25"/>
  <polyline points="110,207.5 173.75,223.75 237.5,212.45 301.25,200.06 365,180.34 428.75,188.82 492.5,189.8 556.25,185.1 620,187 683.75,189.39 747.5,202.69 811.25,193.06 875,213.8 938.75,219.63 1002.5,202.99 1066.25,216.4 1130,226.07" fill="none" stroke="#6670ee" stroke-width="1" opacity="0.25"/>
  <polyline points="110,207.5 173.75,219.63 237.5,225.57 301.25,206.48 365,199.28 428.75,211.04 492.5,213.49 556.25,227.33 620,203.88 683.75,211.38 747.5,203.54 811.25,185.98 875,166.39 938.75,153.88 1002.5,158.78 1066.25,150.73 1130,143.95" fill="none" stroke="#6670ee" stroke-width="1" opacity="0.25"/>
  <polyline points="110,207.5 173.75,185.43 237.5,186.36 301.25,187.83 365,168.86 428.75,168.17 492.5,164.71 556.25,177.9 620,190.09 683.75,174.09 747.5,170.37 811.25,188.56 875,210.62 938.75,210.37 1002.5,233.76 1066.25,213.31 1130,230.91" fill="none" stroke="#6670ee" stroke-width="1" opacity="0.25"/>
  <polyline points="110,207.5 173.75,211.5 237.5,202.39 301.25,198.66 365,212.74 428.75,223.22 492.5,210.9 556.25,212.34 620,232.76 683.75,256.42 747.5,252.57 811.25,251.86 875,261.37 938.75,278.9 1002.5,282.38 1066.25,293.74 1130,314.59" fill="none" stroke="#6670ee" stroke-width="1" opacity="0.25"/>
  <polyline points="110,207.5 173.75,206.77 237.5,190.65 301.25,169.21 365,178.03 428.75,196.11 492.5,192.71 556.25,205.86 620,183.13 683.75,204.36 747.5,226.28 811.25,205.15 875,218.5 938.75,217.89 1002.5,231.68 1066.25,223.56 1130,229.72" fill="none" stroke="#6670ee" stroke-width="1" opacity="0.25"/>
  <polyline points="110,207.5 173.75,201.97 237.5,198.86 301.25,202.71 365,222.79 428.75,233.37 492.5,237.5 556.25,218.12 620,233.95 683.75,240.05 747.5,229.58 811.25,220.53 875,203.07 938.75,218.43 1002.5,208.25 1066.25,209.7 1130,214.47" fill="none" stroke="#6670ee" stroke-width="1" opacity="0.25"/>
  <polyline points="110,207.5 173.75,224.74 237.5,218.11 301.25,214.25 365,233.36 428.75,211.18 492.5,232.42 556.25,228.5 620,209.73 683.75,198.63 747.5,190.32 811.25,172.23 875,154.58 938.75,152.1 1002.5,145.6 1066.25,137.89 1130,140.11" fill="none" stroke="#6670ee" stroke-width="1" opacity="0.25"/>
  <polyline points="110,207.5 173.75,229.21 237.5,247.78 301.25,225.08 365,214.56 428.75,217.87 492.5,208.79 556.25,229.29 620,242.01 683.75,225.67 747.5,227.91 811.25,207.34 875,190.25 938.75,178.99 1002.5,177.16 1066.25,155.47 1130,151.29" fill="none" stroke="#6670ee" stroke-width="1" opacity="0.25"/>
  <polyline points="110,207.5 173.75,218.8 237.5,216.38 301.25,232.63 365,251.56 428.75,256.5 492.5,233.6 556.25,236.46 620,229.92 683.75,250.72 747.5,254.33 811.25,261.52 875,266.49 938.75,266.99 1002.5,287.82 1066.25,278.28 1130,289.03" fill="none" stroke="#6670ee" stroke-width="1" opacity="0.25"/>
  <polyline points="110,207.5 173.75,231.24 237.5,218.21 301.25,220.51 365,231.23 428.75,254.75 492.5,252.51 556.25,257.46 620,271.84 683.75,284.11 747.5,302.89 811.25,305.56 875,295.29 938.75,284.36 1002.5,265.52 1066.25,273.35 1130,284.14" fill="none" stroke="#6670ee" stroke-width="1" opacity="0.25"/>
  <line x1="365" y1="65" x2="365" y2="350" stroke="#30332e" stroke-width="1.3" stroke-dasharray="7 6"/>
  <line x1="620" y1="65" x2="620" y2="350" stroke="#30332e" stroke-width="1.3" stroke-dasharray="7 6"/>
  <line x1="1130" y1="65" x2="1130" y2="350" stroke="#30332e" stroke-width="1.3" stroke-dasharray="7 6"/>
  <text x="110" y="379" text-anchor="middle" font-family="-apple-system,BlinkMacSystemFont,PingFang SC,Noto Sans CJK SC,sans-serif" font-size="14" fill="#30332e">0</text>
  <text x="365" y="379" text-anchor="middle" font-family="-apple-system,BlinkMacSystemFont,PingFang SC,Noto Sans CJK SC,sans-serif" font-size="14" fill="#30332e">4</text>
  <text x="620" y="379" text-anchor="middle" font-family="-apple-system,BlinkMacSystemFont,PingFang SC,Noto Sans CJK SC,sans-serif" font-size="14" fill="#30332e">8</text>
  <text x="875" y="379" text-anchor="middle" font-family="-apple-system,BlinkMacSystemFont,PingFang SC,Noto Sans CJK SC,sans-serif" font-size="14" fill="#30332e">12</text>
  <text x="1130" y="379" text-anchor="middle" font-family="-apple-system,BlinkMacSystemFont,PingFang SC,Noto Sans CJK SC,sans-serif" font-size="14" fill="#30332e">16</text>
  <text x="94" y="355" text-anchor="end" font-family="-apple-system,BlinkMacSystemFont,PingFang SC,Noto Sans CJK SC,sans-serif" font-size="14" fill="#30332e">-6</text>
  <text x="94" y="283.75" text-anchor="end" font-family="-apple-system,BlinkMacSystemFont,PingFang SC,Noto Sans CJK SC,sans-serif" font-size="14" fill="#30332e">-3</text>
  <text x="94" y="212.5" text-anchor="end" font-family="-apple-system,BlinkMacSystemFont,PingFang SC,Noto Sans CJK SC,sans-serif" font-size="14" fill="#30332e">0</text>
  <text x="94" y="141.25" text-anchor="end" font-family="-apple-system,BlinkMacSystemFont,PingFang SC,Noto Sans CJK SC,sans-serif" font-size="14" fill="#30332e">3</text>
  <text x="94" y="70" text-anchor="end" font-family="-apple-system,BlinkMacSystemFont,PingFang SC,Noto Sans CJK SC,sans-serif" font-size="14" fill="#30332e">6</text>
  <text x="600.0" y="408" text-anchor="middle" font-family="-apple-system,BlinkMacSystemFont,PingFang SC,Noto Sans CJK SC,sans-serif" font-size="18" fill="#30332e">步数</text>
  <text x="42" y="207.5" transform="rotate(-90 42 207.5)" text-anchor="middle" font-family="-apple-system,BlinkMacSystemFont,PingFang SC,Noto Sans CJK SC,sans-serif" font-size="18" fill="#30332e">位置</text>
  <rect x="85" y="500" width="285" height="210" fill="#fff" stroke="#363934" stroke-width="1.2"/>
  <text x="227.5" y="484" text-anchor="middle" font-family="-apple-system,BlinkMacSystemFont,PingFang SC,Noto Sans CJK SC,sans-serif" font-size="19" font-weight="700" fill="#263f86">4 步</text>
  <polyline points="85,710 86.19,710 87.37,710 88.56,710 89.75,710 90.94,710 92.12,710 93.31,710 94.5,710 95.69,710 96.88,710 98.06,710 99.25,710 100.44,710 101.62,710 102.81,710 104,710 105.19,710 106.38,710 107.56,710 108.75,710 109.94,710 111.12,710 112.31,710 113.5,710 114.69,710 115.88,710 117.06,710 118.25,710 119.44,710 120.62,710 121.81,710 123,710 124.19,710 125.38,710 126.56,709.99 127.75,709.99 128.94,709.98 130.12,709.97 131.31,709.94 132.5,709.91 133.69,709.85 134.88,709.77 136.06,709.66 137.25,709.52 138.44,709.33 139.62,709.1 140.81,708.83 142,708.51 143.19,708.15 144.38,707.75 145.56,707.32 146.75,706.85 147.94,706.35 149.12,705.8 150.31,705.2 151.5,704.54 152.69,703.83 153.88,703.05 155.06,702.2 156.25,701.26 157.44,700.23 158.62,699.09 159.81,697.81 161,696.38 162.19,694.79 163.38,693.02 164.56,691.1 165.75,689.04 166.94,686.88 168.12,684.64 169.31,682.37 170.5,680.07 171.69,677.76 172.88,675.42 174.06,673.04 175.25,670.6 176.44,668.08 177.62,665.46 178.81,662.73 180,659.89 181.19,656.94 182.38,653.88 183.56,650.71 184.75,647.42 185.94,644.02 187.12,640.49 188.31,636.8 189.5,632.94 190.69,628.86 191.88,624.51 193.06,619.85 194.25,614.87 195.44,609.57 196.62,604.01 197.81,598.31 199,592.62 200.19,587.12 201.38,581.97 202.56,577.32 203.75,573.22 204.94,569.66 206.12,566.56 207.31,563.75 208.5,561.05 209.69,558.27 210.88,555.28 212.06,551.98 213.25,548.37 214.44,544.52 215.62,540.53 216.81,536.57 218,532.79 219.19,529.34 220.38,526.31 221.56,523.74 222.75,521.61 223.94,519.88 225.12,518.48 226.31,517.35 227.5,516.47 228.69,515.85 229.88,515.56 231.06,515.67 232.25,516.3 233.44,517.53 234.62,519.41 235.81,521.97 237,525.18 238.19,528.96 239.38,533.21 240.56,537.8 241.75,542.61 242.94,547.5 244.12,552.37 245.31,557.11 246.5,561.66 247.69,565.98 248.88,570.06 250.06,573.94 251.25,577.65 252.44,581.27 253.62,584.85 254.81,588.47 256,592.18 257.19,596.01 258.38,599.96 259.56,604.02 260.75,608.15 261.94,612.34 263.12,616.55 264.31,620.77 265.5,625.02 266.69,629.32 267.88,633.68 269.06,638.12 270.25,642.64 271.44,647.2 272.62,651.75 273.81,656.24 275,660.61 276.19,664.81 277.38,668.8 278.56,672.56 279.75,676.09 280.94,679.4 282.12,682.49 283.31,685.38 284.5,688.08 285.69,690.58 286.88,692.9 288.06,695.02 289.25,696.95 290.44,698.69 291.62,700.25 292.81,701.62 294,702.83 295.19,703.88 296.38,704.8 297.56,705.59 298.75,706.28 299.94,706.87 301.12,707.38 302.31,707.81 303.5,708.18 304.69,708.49 305.88,708.75 307.06,708.97 308.25,709.14 309.44,709.29 310.62,709.41 311.81,709.52 313,709.61 314.19,709.69 315.38,709.75 316.56,709.81 317.75,709.86 318.94,709.9 320.12,709.93 321.31,709.95 322.5,709.97 323.69,709.98 324.88,709.99 326.06,709.99 327.25,710 328.44,710 329.62,710 330.81,710 332,710 333.19,710 334.38,710 335.56,710 336.75,710 337.94,710 339.12,710 340.31,710 341.5,710 342.69,710 343.88,710 345.06,710 346.25,710 347.44,710 348.62,710 349.81,710 351,710 352.19,710 353.38,710 354.56,710 355.75,710 356.94,710 358.12,710 359.31,710 360.5,710 361.69,710 362.88,710 364.06,710 365.25,710 366.44,710 367.62,710 368.81,710 370,710" fill="none" stroke="#6670ee" stroke-width="3"/>
  <line x1="85" y1="710" x2="85" y2="717" stroke="#363934"/>
  <text x="85" y="738" text-anchor="middle" font-family="-apple-system,BlinkMacSystemFont,PingFang SC,Noto Sans CJK SC,sans-serif" font-size="14" fill="#30332e">-6</text>
  <line x1="156.25" y1="710" x2="156.25" y2="717" stroke="#363934"/>
  <text x="156.25" y="738" text-anchor="middle" font-family="-apple-system,BlinkMacSystemFont,PingFang SC,Noto Sans CJK SC,sans-serif" font-size="14" fill="#30332e">-3</text>
  <line x1="227.5" y1="710" x2="227.5" y2="717" stroke="#363934"/>
  <text x="227.5" y="738" text-anchor="middle" font-family="-apple-system,BlinkMacSystemFont,PingFang SC,Noto Sans CJK SC,sans-serif" font-size="14" fill="#30332e">0</text>
  <line x1="298.75" y1="710" x2="298.75" y2="717" stroke="#363934"/>
  <text x="298.75" y="738" text-anchor="middle" font-family="-apple-system,BlinkMacSystemFont,PingFang SC,Noto Sans CJK SC,sans-serif" font-size="14" fill="#30332e">3</text>
  <line x1="370" y1="710" x2="370" y2="717" stroke="#363934"/>
  <text x="370" y="738" text-anchor="middle" font-family="-apple-system,BlinkMacSystemFont,PingFang SC,Noto Sans CJK SC,sans-serif" font-size="14" fill="#30332e">6</text>
  <text x="227.5" y="768" text-anchor="middle" font-family="-apple-system,BlinkMacSystemFont,PingFang SC,Noto Sans CJK SC,sans-serif" font-size="17" fill="#30332e">位置</text>
  <text x="51" y="605" transform="rotate(-90 51 605)" text-anchor="middle" font-family="-apple-system,BlinkMacSystemFont,PingFang SC,Noto Sans CJK SC,sans-serif" font-size="17" fill="#30332e">概率密度</text>
  <rect x="470" y="500" width="285" height="210" fill="#fff" stroke="#363934" stroke-width="1.2"/>
  <text x="612.5" y="484" text-anchor="middle" font-family="-apple-system,BlinkMacSystemFont,PingFang SC,Noto Sans CJK SC,sans-serif" font-size="19" font-weight="700" fill="#263f86">8 步</text>
  <polyline points="470,709.98 471.19,709.97 472.38,709.96 473.56,709.94 474.75,709.92 475.94,709.89 477.12,709.85 478.31,709.8 479.5,709.75 480.69,709.68 481.88,709.59 483.06,709.49 484.25,709.37 485.44,709.23 486.62,709.08 487.81,708.9 489,708.7 490.19,708.47 491.38,708.22 492.56,707.94 493.75,707.64 494.94,707.31 496.12,706.95 497.31,706.56 498.5,706.14 499.69,705.69 500.88,705.21 502.06,704.7 503.25,704.17 504.44,703.6 505.62,703.01 506.81,702.39 508,701.75 509.19,701.09 510.38,700.41 511.56,699.71 512.75,699 513.94,698.28 515.12,697.54 516.31,696.78 517.5,696 518.69,695.19 519.88,694.35 521.06,693.46 522.25,692.53 523.44,691.53 524.62,690.46 525.81,689.31 527,688.06 528.19,686.73 529.38,685.29 530.56,683.75 531.75,682.11 532.94,680.37 534.12,678.54 535.31,676.63 536.5,674.65 537.69,672.6 538.88,670.5 540.06,668.37 541.25,666.2 542.44,664.01 543.62,661.8 544.81,659.57 546,657.32 547.19,655.04 548.38,652.74 549.56,650.4 550.75,648.01 551.94,645.57 553.12,643.05 554.31,640.47 555.5,637.8 556.69,635.04 557.88,632.2 559.06,629.26 560.25,626.22 561.44,623.09 562.62,619.87 563.81,616.54 565,613.12 566.19,609.59 567.38,605.96 568.56,602.22 569.75,598.38 570.94,594.45 572.12,590.43 573.31,586.35 574.5,582.24 575.69,578.14 576.88,574.08 578.06,570.12 579.25,566.29 580.44,562.63 581.62,559.19 582.81,555.98 584,553.04 585.19,550.35 586.38,547.91 587.56,545.7 588.75,543.69 589.94,541.84 591.12,540.1 592.31,538.44 593.5,536.82 594.69,535.19 595.88,533.54 597.06,531.84 598.25,530.1 599.44,528.32 600.62,526.52 601.81,524.74 603,523 604.19,521.36 605.38,519.86 606.56,518.53 607.75,517.42 608.94,516.55 610.12,515.95 611.31,515.62 612.5,515.56 613.69,515.75 614.88,516.16 616.06,516.77 617.25,517.54 618.44,518.41 619.62,519.35 620.81,520.33 622,521.31 623.19,522.26 624.38,523.19 625.56,524.09 626.75,524.98 627.94,525.89 629.12,526.86 630.31,527.92 631.5,529.13 632.69,530.54 633.88,532.17 635.06,534.07 636.25,536.26 637.44,538.74 638.62,541.52 639.81,544.58 641,547.89 642.19,551.42 643.38,555.14 644.56,558.98 645.75,562.91 646.94,566.88 648.12,570.85 649.31,574.78 650.5,578.64 651.69,582.42 652.88,586.1 654.06,589.68 655.25,593.16 656.44,596.55 657.62,599.86 658.81,603.1 660,606.3 661.19,609.47 662.38,612.62 663.56,615.75 664.75,618.87 665.94,621.99 667.12,625.09 668.31,628.16 669.5,631.19 670.69,634.17 671.88,637.06 673.06,639.86 674.25,642.55 675.44,645.12 676.62,647.56 677.81,649.88 679,652.08 680.19,654.18 681.38,656.19 682.56,658.15 683.75,660.08 684.94,662 686.12,663.93 687.31,665.91 688.5,667.93 689.69,670.01 690.88,672.15 692.06,674.33 693.25,676.55 694.44,678.77 695.62,680.98 696.81,683.16 698,685.27 699.19,687.3 700.38,689.22 701.56,691.02 702.75,692.69 703.94,694.22 705.12,695.6 706.31,696.86 707.5,697.98 708.69,698.99 709.88,699.9 711.06,700.71 712.25,701.44 713.44,702.11 714.62,702.72 715.81,703.28 717,703.8 718.19,704.29 719.38,704.74 720.56,705.17 721.75,705.58 722.94,705.96 724.12,706.32 725.31,706.66 726.5,706.98 727.69,707.29 728.88,707.57 730.06,707.85 731.25,708.1 732.44,708.34 733.62,708.56 734.81,708.77 736,708.96 737.19,709.13 738.38,709.28 739.56,709.41 740.75,709.52 741.94,709.62 743.12,709.7 744.31,709.77 745.5,709.83 746.69,709.87 747.88,709.9 749.06,709.93 750.25,709.95 751.44,709.97 752.62,709.98 753.81,709.98 755,709.99" fill="none" stroke="#6670ee" stroke-width="3"/>
  <line x1="470" y1="710" x2="470" y2="717" stroke="#363934"/>
  <text x="470" y="738" text-anchor="middle" font-family="-apple-system,BlinkMacSystemFont,PingFang SC,Noto Sans CJK SC,sans-serif" font-size="14" fill="#30332e">-6</text>
  <line x1="541.25" y1="710" x2="541.25" y2="717" stroke="#363934"/>
  <text x="541.25" y="738" text-anchor="middle" font-family="-apple-system,BlinkMacSystemFont,PingFang SC,Noto Sans CJK SC,sans-serif" font-size="14" fill="#30332e">-3</text>
  <line x1="612.5" y1="710" x2="612.5" y2="717" stroke="#363934"/>
  <text x="612.5" y="738" text-anchor="middle" font-family="-apple-system,BlinkMacSystemFont,PingFang SC,Noto Sans CJK SC,sans-serif" font-size="14" fill="#30332e">0</text>
  <line x1="683.75" y1="710" x2="683.75" y2="717" stroke="#363934"/>
  <text x="683.75" y="738" text-anchor="middle" font-family="-apple-system,BlinkMacSystemFont,PingFang SC,Noto Sans CJK SC,sans-serif" font-size="14" fill="#30332e">3</text>
  <line x1="755" y1="710" x2="755" y2="717" stroke="#363934"/>
  <text x="755" y="738" text-anchor="middle" font-family="-apple-system,BlinkMacSystemFont,PingFang SC,Noto Sans CJK SC,sans-serif" font-size="14" fill="#30332e">6</text>
  <text x="612.5" y="768" text-anchor="middle" font-family="-apple-system,BlinkMacSystemFont,PingFang SC,Noto Sans CJK SC,sans-serif" font-size="17" fill="#30332e">位置</text>
  <text x="436" y="605" transform="rotate(-90 436 605)" text-anchor="middle" font-family="-apple-system,BlinkMacSystemFont,PingFang SC,Noto Sans CJK SC,sans-serif" font-size="17" fill="#30332e">概率密度</text>
  <rect x="855" y="500" width="285" height="210" fill="#fff" stroke="#363934" stroke-width="1.2"/>
  <text x="997.5" y="484" text-anchor="middle" font-family="-apple-system,BlinkMacSystemFont,PingFang SC,Noto Sans CJK SC,sans-serif" font-size="19" font-weight="700" fill="#263f86">16 步</text>
  <polyline points="855,703.23 856.19,702.68 857.38,702.09 858.56,701.48 859.75,700.83 860.94,700.16 862.12,699.46 863.31,698.73 864.5,697.96 865.69,697.17 866.88,696.35 868.06,695.49 869.25,694.61 870.44,693.69 871.62,692.74 872.81,691.76 874,690.75 875.19,689.71 876.38,688.64 877.56,687.55 878.75,686.43 879.94,685.29 881.12,684.14 882.31,682.98 883.5,681.8 884.69,680.62 885.88,679.44 887.06,678.25 888.25,677.06 889.44,675.87 890.62,674.68 891.81,673.47 893,672.26 894.19,671.04 895.38,669.79 896.56,668.51 897.75,667.2 898.94,665.84 900.12,664.43 901.31,662.96 902.5,661.42 903.69,659.81 904.88,658.11 906.06,656.33 907.25,654.45 908.44,652.49 909.62,650.43 910.81,648.29 912,646.05 913.19,643.74 914.38,641.36 915.56,638.92 916.75,636.41 917.94,633.87 919.12,631.29 920.31,628.68 921.5,626.06 922.69,623.44 923.88,620.82 925.06,618.23 926.25,615.65 927.44,613.11 928.62,610.6 929.81,608.14 931,605.73 932.19,603.38 933.38,601.08 934.56,598.84 935.75,596.66 936.94,594.55 938.12,592.49 939.31,590.49 940.5,588.55 941.69,586.65 942.88,584.79 944.06,582.98 945.25,581.19 946.44,579.42 947.62,577.66 948.81,575.9 950,574.14 951.19,572.37 952.38,570.57 953.56,568.75 954.75,566.91 955.94,565.03 957.12,563.12 958.31,561.18 959.5,559.21 960.69,557.22 961.88,555.22 963.06,553.21 964.25,551.2 965.44,549.21 966.62,547.23 967.81,545.28 969,543.38 970.19,541.53 971.38,539.74 972.56,538.03 973.75,536.4 974.94,534.87 976.12,533.44 977.31,532.12 978.5,530.92 979.69,529.83 980.88,528.88 982.06,528.04 983.25,527.33 984.44,526.75 985.62,526.27 986.81,525.91 988,525.65 989.19,525.49 990.38,525.4 991.56,525.4 992.75,525.45 993.94,525.56 995.12,525.73 996.31,525.93 997.5,526.17 998.69,526.45 999.88,526.75 1001.06,527.1 1002.25,527.48 1003.44,527.9 1004.62,528.37 1005.81,528.89 1007,529.47 1008.19,530.12 1009.38,530.84 1010.56,531.64 1011.75,532.53 1012.94,533.51 1014.12,534.58 1015.31,535.74 1016.5,537 1017.69,538.35 1018.88,539.8 1020.06,541.32 1021.25,542.93 1022.44,544.61 1023.62,546.35 1024.81,548.15 1026,549.99 1027.19,551.87 1028.38,553.78 1029.56,555.71 1030.75,557.66 1031.94,559.62 1033.12,561.59 1034.31,563.57 1035.5,565.56 1036.69,567.56 1037.88,569.57 1039.06,571.59 1040.25,573.64 1041.44,575.71 1042.62,577.81 1043.81,579.93 1045,582.09 1046.19,584.28 1047.38,586.5 1048.56,588.74 1049.75,591.01 1050.94,593.31 1052.12,595.61 1053.31,597.93 1054.5,600.24 1055.69,602.56 1056.88,604.86 1058.06,607.16 1059.25,609.43 1060.44,611.69 1061.62,613.93 1062.81,616.14 1064,618.33 1065.19,620.5 1066.38,622.64 1067.56,624.76 1068.75,626.87 1069.94,628.95 1071.12,631.01 1072.31,633.04 1073.5,635.06 1074.69,637.05 1075.88,639.02 1077.06,640.95 1078.25,642.86 1079.44,644.73 1080.62,646.57 1081.81,648.38 1083,650.15 1084.19,651.89 1085.38,653.6 1086.56,655.28 1087.75,656.93 1088.94,658.56 1090.12,660.16 1091.31,661.74 1092.5,663.3 1093.69,664.85 1094.88,666.38 1096.06,667.89 1097.25,669.38 1098.44,670.86 1099.62,672.31 1100.81,673.74 1102,675.14 1103.19,676.5 1104.38,677.84 1105.56,679.13 1106.75,680.39 1107.94,681.6 1109.12,682.77 1110.31,683.89 1111.5,684.97 1112.69,686.01 1113.88,687 1115.06,687.95 1116.25,688.86 1117.44,689.73 1118.62,690.56 1119.81,691.36 1121,692.13 1122.19,692.87 1123.38,693.59 1124.56,694.28 1125.75,694.96 1126.94,695.61 1128.12,696.24 1129.31,696.86 1130.5,697.47 1131.69,698.06 1132.88,698.63 1134.06,699.2 1135.25,699.75 1136.44,700.28 1137.62,700.8 1138.81,701.31 1140,701.8" fill="none" stroke="#6670ee" stroke-width="3"/>
  <polyline points="855,703.35 856.19,702.96 857.38,702.56 858.56,702.14 859.75,701.7 860.94,701.24 862.12,700.75 863.31,700.25 864.5,699.72 865.69,699.17 866.88,698.59 868.06,697.99 869.25,697.37 870.44,696.71 871.62,696.03 872.81,695.32 874,694.59 875.19,693.82 876.38,693.03 877.56,692.2 878.75,691.34 879.94,690.45 881.12,689.52 882.31,688.57 883.5,687.58 884.69,686.55 885.88,685.49 887.06,684.39 888.25,683.25 889.44,682.08 890.62,680.87 891.81,679.62 893,678.34 894.19,677.01 895.38,675.65 896.56,674.24 897.75,672.8 898.94,671.31 900.12,669.79 901.31,668.22 902.5,666.61 903.69,664.97 904.88,663.28 906.06,661.55 907.25,659.78 908.44,657.97 909.62,656.12 910.81,654.23 912,652.31 913.19,650.34 914.38,648.34 915.56,646.29 916.75,644.21 917.94,642.1 919.12,639.95 920.31,637.77 921.5,635.55 922.69,633.3 923.88,631.02 925.06,628.71 926.25,626.37 927.44,624.01 928.62,621.61 929.81,619.2 931,616.76 932.19,614.31 933.38,611.83 934.56,609.34 935.75,606.83 936.94,604.31 938.12,601.78 939.31,599.23 940.5,596.69 941.69,594.14 942.88,591.58 944.06,589.03 945.25,586.48 946.44,583.94 947.62,581.4 948.81,578.87 950,576.36 951.19,573.86 952.38,571.38 953.56,568.93 954.75,566.49 955.94,564.08 957.12,561.7 958.31,559.36 959.5,557.04 960.69,554.77 961.88,552.53 963.06,550.34 964.25,548.19 965.44,546.09 966.62,544.05 967.81,542.05 969,540.11 970.19,538.23 971.38,536.41 972.56,534.65 973.75,532.96 974.94,531.33 976.12,529.77 977.31,528.29 978.5,526.88 979.69,525.54 980.88,524.29 982.06,523.11 983.25,522.01 984.44,520.99 985.62,520.06 986.81,519.21 988,518.45 989.19,517.78 990.38,517.19 991.56,516.69 992.75,516.28 993.94,515.97 995.12,515.74 996.31,515.6 997.5,515.56 998.69,515.6 999.88,515.74 1001.06,515.97 1002.25,516.28 1003.44,516.69 1004.62,517.19 1005.81,517.78 1007,518.45 1008.19,519.21 1009.38,520.06 1010.56,520.99 1011.75,522.01 1012.94,523.11 1014.12,524.29 1015.31,525.54 1016.5,526.88 1017.69,528.29 1018.88,529.77 1020.06,531.33 1021.25,532.96 1022.44,534.65 1023.62,536.41 1024.81,538.23 1026,540.11 1027.19,542.05 1028.38,544.05 1029.56,546.09 1030.75,548.19 1031.94,550.34 1033.12,552.53 1034.31,554.77 1035.5,557.04 1036.69,559.36 1037.88,561.7 1039.06,564.08 1040.25,566.49 1041.44,568.93 1042.62,571.38 1043.81,573.86 1045,576.36 1046.19,578.87 1047.38,581.4 1048.56,583.94 1049.75,586.48 1050.94,589.03 1052.12,591.58 1053.31,594.14 1054.5,596.69 1055.69,599.23 1056.88,601.78 1058.06,604.31 1059.25,606.83 1060.44,609.34 1061.62,611.83 1062.81,614.31 1064,616.76 1065.19,619.2 1066.38,621.61 1067.56,624.01 1068.75,626.37 1069.94,628.71 1071.12,631.02 1072.31,633.3 1073.5,635.55 1074.69,637.77 1075.88,639.95 1077.06,642.1 1078.25,644.21 1079.44,646.29 1080.62,648.34 1081.81,650.34 1083,652.31 1084.19,654.23 1085.38,656.12 1086.56,657.97 1087.75,659.78 1088.94,661.55 1090.12,663.28 1091.31,664.97 1092.5,666.61 1093.69,668.22 1094.88,669.79 1096.06,671.31 1097.25,672.8 1098.44,674.24 1099.62,675.65 1100.81,677.01 1102,678.34 1103.19,679.62 1104.38,680.87 1105.56,682.08 1106.75,683.25 1107.94,684.39 1109.12,685.49 1110.31,686.55 1111.5,687.58 1112.69,688.57 1113.88,689.52 1115.06,690.45 1116.25,691.34 1117.44,692.2 1118.62,693.03 1119.81,693.82 1121,694.59 1122.19,695.32 1123.38,696.03 1124.56,696.71 1125.75,697.37 1126.94,697.99 1128.12,698.59 1129.31,699.17 1130.5,699.72 1131.69,700.25 1132.88,700.75 1134.06,701.24 1135.25,701.7 1136.44,702.14 1137.62,702.56 1138.81,702.96 1140,703.35" fill="none" stroke="#30332e" stroke-width="2.2"/>
  <line x1="855" y1="710" x2="855" y2="717" stroke="#363934"/>
  <text x="855" y="738" text-anchor="middle" font-family="-apple-system,BlinkMacSystemFont,PingFang SC,Noto Sans CJK SC,sans-serif" font-size="14" fill="#30332e">-6</text>
  <line x1="926.25" y1="710" x2="926.25" y2="717" stroke="#363934"/>
  <text x="926.25" y="738" text-anchor="middle" font-family="-apple-system,BlinkMacSystemFont,PingFang SC,Noto Sans CJK SC,sans-serif" font-size="14" fill="#30332e">-3</text>
  <line x1="997.5" y1="710" x2="997.5" y2="717" stroke="#363934"/>
  <text x="997.5" y="738" text-anchor="middle" font-family="-apple-system,BlinkMacSystemFont,PingFang SC,Noto Sans CJK SC,sans-serif" font-size="14" fill="#30332e">0</text>
  <line x1="1068.75" y1="710" x2="1068.75" y2="717" stroke="#363934"/>
  <text x="1068.75" y="738" text-anchor="middle" font-family="-apple-system,BlinkMacSystemFont,PingFang SC,Noto Sans CJK SC,sans-serif" font-size="14" fill="#30332e">3</text>
  <line x1="1140" y1="710" x2="1140" y2="717" stroke="#363934"/>
  <text x="1140" y="738" text-anchor="middle" font-family="-apple-system,BlinkMacSystemFont,PingFang SC,Noto Sans CJK SC,sans-serif" font-size="14" fill="#30332e">6</text>
  <text x="997.5" y="768" text-anchor="middle" font-family="-apple-system,BlinkMacSystemFont,PingFang SC,Noto Sans CJK SC,sans-serif" font-size="17" fill="#30332e">位置</text>
  <text x="821" y="605" transform="rotate(-90 821 605)" text-anchor="middle" font-family="-apple-system,BlinkMacSystemFont,PingFang SC,Noto Sans CJK SC,sans-serif" font-size="17" fill="#30332e">概率密度</text>
  <line x1="850" y1="805" x2="890" y2="805" stroke="#30332e" stroke-width="2.2"/>
  <text x="902" y="811" font-family="-apple-system,BlinkMacSystemFont,PingFang SC,Noto Sans CJK SC,sans-serif" font-size="15" fill="#30332e">理想正态概率密度</text>
</svg>
