<svg xmlns="http://www.w3.org/2000/svg" width="1200" height="930" viewBox="0 0 1200 930" role="img">
<title>指数族分布及其生成关系</title>
<desc>Gamma、正态、指数、Poisson 与二项分布的代表性形状，以及求和、大均值、计数和低概率极限等关系。</desc>
<defs><marker id="arrow10-6" viewBox="0 0 10 10" refX="9" refY="5" markerWidth="7" markerHeight="7" orient="auto-start-reverse"><path d="M 0 0 L 10 5 L 0 10 z" fill="#a8aaa4"/></marker></defs>
<rect width="100%" height="100%" fill="#fbfaf6"/>
<path d="M 430 185 C 560 75, 650 75, 760 185" fill="none" stroke="#a8aaa4" stroke-width="4" marker-end="url(#arrow10-6)"/>
<text x="600.0" y="76.0" text-anchor="middle" font-family="-apple-system,BlinkMacSystemFont,PingFang SC,Noto Sans CJK SC,sans-serif" font-size="18" font-weight="400" fill="#777872">均值很大</text>
<path d="M 500 425 C 445 390, 425 350, 408 300" fill="none" stroke="#a8aaa4" stroke-width="4" marker-end="url(#arrow10-6)"/>
<text x="432.0" y="355.0" text-anchor="middle" font-family="-apple-system,BlinkMacSystemFont,PingFang SC,Noto Sans CJK SC,sans-serif" font-size="18" font-weight="400" fill="#777872">求和</text>
<path d="M 470 510 C 430 600, 410 650, 372 690" fill="none" stroke="#a8aaa4" stroke-width="4" marker-end="url(#arrow10-6)"/>
<text x="435.0" y="610.0" text-anchor="middle" font-family="-apple-system,BlinkMacSystemFont,PingFang SC,Noto Sans CJK SC,sans-serif" font-size="18" font-weight="400" fill="#777872">计数事件</text>
<text x="435.0" y="635.0" text-anchor="middle" font-family="-apple-system,BlinkMacSystemFont,PingFang SC,Noto Sans CJK SC,sans-serif" font-size="17" font-weight="400" fill="#777872">低发生率</text>
<path d="M 730 510 C 770 600, 790 650, 828 690" fill="none" stroke="#a8aaa4" stroke-width="4" marker-end="url(#arrow10-6)"/>
<text x="765.0" y="610.0" text-anchor="middle" font-family="-apple-system,BlinkMacSystemFont,PingFang SC,Noto Sans CJK SC,sans-serif" font-size="18" font-weight="400" fill="#777872">计数事件</text>
<path d="M 790 835 C 660 905, 540 905, 410 835" fill="none" stroke="#a8aaa4" stroke-width="4" marker-end="url(#arrow10-6)"/>
<text x="600.0" y="870.0" text-anchor="middle" font-family="-apple-system,BlinkMacSystemFont,PingFang SC,Noto Sans CJK SC,sans-serif" font-size="18" font-weight="400" fill="#777872">低概率、试验很多</text>
<text x="240.0" y="140.0" text-anchor="middle" font-family="-apple-system,BlinkMacSystemFont,PingFang SC,Noto Sans CJK SC,sans-serif" font-size="20" font-weight="400" fill="#30332e">y ∼ Gamma(λ, k)</text>
<rect x="98" y="160" width="292" height="125" fill="#fff" stroke="#30332e"/>
<polyline points="98.0,285.0 99.6,284.6 101.3,283.4 102.9,281.6 104.5,279.2 106.2,276.4 107.8,273.1 109.4,269.5 111.1,265.7 112.7,261.6 114.3,257.4 115.9,253.0 117.6,248.6 119.2,244.2 120.8,239.7 122.5,235.3 124.1,230.9 125.7,226.6 127.4,222.4 129.0,218.3 130.6,214.4 132.3,210.5 133.9,206.8 135.5,203.3 137.2,199.9 138.8,196.7 140.4,193.7 142.0,190.8 143.7,188.2 145.3,185.7 146.9,183.3 148.6,181.2 150.2,179.2 151.8,177.4 153.5,175.8 155.1,174.3 156.7,173.0 158.4,171.9 160.0,170.9 161.6,170.1 163.3,169.4 164.9,168.9 166.5,168.5 168.1,168.2 169.8,168.0 171.4,168.0 173.0,168.1 174.7,168.3 176.3,168.6 177.9,169.0 179.6,169.5 181.2,170.1 182.8,170.7 184.5,171.5 186.1,172.3 187.7,173.2 189.4,174.2 191.0,175.2 192.6,176.3 194.2,177.4 195.9,178.6 197.5,179.8 199.1,181.1 200.8,182.4 202.4,183.8 204.0,185.1 205.7,186.5 207.3,188.0 208.9,189.4 210.6,190.9 212.2,192.4 213.8,193.9 215.5,195.4 217.1,196.9 218.7,198.4 220.3,200.0 222.0,201.5 223.6,203.0 225.2,204.6 226.9,206.1 228.5,207.6 230.1,209.1 231.8,210.7 233.4,212.2 235.0,213.7 236.7,215.1 238.3,216.6 239.9,218.1 241.6,219.5 243.2,221.0 244.8,222.4 246.4,223.8 248.1,225.1 249.7,226.5 251.3,227.9 253.0,229.2 254.6,230.5 256.2,231.8 257.9,233.1 259.5,234.3 261.1,235.5 262.8,236.8 264.4,237.9 266.0,239.1 267.7,240.3 269.3,241.4 270.9,242.5 272.5,243.6 274.2,244.7 275.8,245.7 277.4,246.7 279.1,247.7 280.7,248.7 282.3,249.7 284.0,250.6 285.6,251.5 287.2,252.4 288.9,253.3 290.5,254.2 292.1,255.0 293.8,255.9 295.4,256.7 297.0,257.5 298.6,258.2 300.3,259.0 301.9,259.7 303.5,260.4 305.2,261.1 306.8,261.8 308.4,262.5 310.1,263.1 311.7,263.8 313.3,264.4 315.0,265.0 316.6,265.6 318.2,266.1 319.9,266.7 321.5,267.2 323.1,267.8 324.7,268.3 326.4,268.8 328.0,269.3 329.6,269.7 331.3,270.2 332.9,270.6 334.5,271.1 336.2,271.5 337.8,271.9 339.4,272.3 341.1,272.7 342.7,273.1 344.3,273.5 346.0,273.8 347.6,274.2 349.2,274.5 350.8,274.8 352.5,275.1 354.1,275.5 355.7,275.8 357.4,276.0 359.0,276.3 360.6,276.6 362.3,276.9 363.9,277.1 365.5,277.4 367.2,277.6 368.8,277.9 370.4,278.1 372.1,278.3 373.7,278.5 375.3,278.7 376.9,278.9 378.6,279.1 380.2,279.3 381.8,279.5 383.5,279.7 385.1,279.9 386.7,280.0 388.4,280.2 390.0,280.4" fill="none" stroke="#737cff" stroke-width="4"/>
<text x="240.0" y="313.0" text-anchor="middle" font-family="-apple-system,BlinkMacSystemFont,PingFang SC,Noto Sans CJK SC,sans-serif" font-size="17" font-weight="400" fill="#666862">dgamma</text>
<text x="960.0" y="140.0" text-anchor="middle" font-family="-apple-system,BlinkMacSystemFont,PingFang SC,Noto Sans CJK SC,sans-serif" font-size="20" font-weight="400" fill="#30332e">y ∼ Normal(μ, σ)</text>
<rect x="818" y="160" width="292" height="125" fill="#fff" stroke="#30332e"/>
<polyline points="818.0,285.0 819.6,285.0 821.3,284.9 822.9,284.9 824.5,284.9 826.2,284.9 827.8,284.9 829.4,284.9 831.1,284.8 832.7,284.8 834.3,284.8 835.9,284.8 837.6,284.7 839.2,284.7 840.8,284.6 842.5,284.5 844.1,284.5 845.7,284.4 847.4,284.3 849.0,284.2 850.6,284.1 852.3,283.9 853.9,283.8 855.5,283.6 857.2,283.4 858.8,283.2 860.4,282.9 862.0,282.6 863.7,282.3 865.3,282.0 866.9,281.6 868.6,281.2 870.2,280.7 871.8,280.2 873.5,279.6 875.1,279.0 876.7,278.3 878.4,277.5 880.0,276.7 881.6,275.8 883.3,274.9 884.9,273.8 886.5,272.7 888.1,271.5 889.8,270.2 891.4,268.8 893.0,267.3 894.7,265.7 896.3,264.0 897.9,262.3 899.6,260.4 901.2,258.4 902.8,256.3 904.5,254.1 906.1,251.8 907.7,249.4 909.4,246.8 911.0,244.2 912.6,241.6 914.2,238.8 915.9,235.9 917.5,233.0 919.1,230.0 920.8,227.0 922.4,223.9 924.0,220.7 925.7,217.6 927.3,214.4 928.9,211.2 930.6,208.1 932.2,204.9 933.8,201.9 935.5,198.8 937.1,195.8 938.7,192.9 940.3,190.1 942.0,187.4 943.6,184.9 945.2,182.5 946.9,180.2 948.5,178.1 950.1,176.1 951.8,174.4 953.4,172.8 955.0,171.5 956.7,170.3 958.3,169.4 959.9,168.7 961.6,168.2 963.2,168.0 964.8,168.0 966.4,168.2 968.1,168.7 969.7,169.4 971.3,170.3 973.0,171.5 974.6,172.8 976.2,174.4 977.9,176.1 979.5,178.1 981.1,180.2 982.8,182.5 984.4,184.9 986.0,187.4 987.7,190.1 989.3,192.9 990.9,195.8 992.5,198.8 994.2,201.9 995.8,204.9 997.4,208.1 999.1,211.2 1000.7,214.4 1002.3,217.6 1004.0,220.7 1005.6,223.9 1007.2,227.0 1008.9,230.0 1010.5,233.0 1012.1,235.9 1013.8,238.8 1015.4,241.6 1017.0,244.2 1018.6,246.8 1020.3,249.4 1021.9,251.8 1023.5,254.1 1025.2,256.3 1026.8,258.4 1028.4,260.4 1030.1,262.3 1031.7,264.0 1033.3,265.7 1035.0,267.3 1036.6,268.8 1038.2,270.2 1039.9,271.5 1041.5,272.7 1043.1,273.8 1044.7,274.9 1046.4,275.8 1048.0,276.7 1049.6,277.5 1051.3,278.3 1052.9,279.0 1054.5,279.6 1056.2,280.2 1057.8,280.7 1059.4,281.2 1061.1,281.6 1062.7,282.0 1064.3,282.3 1066.0,282.6 1067.6,282.9 1069.2,283.2 1070.8,283.4 1072.5,283.6 1074.1,283.8 1075.7,283.9 1077.4,284.1 1079.0,284.2 1080.6,284.3 1082.3,284.4 1083.9,284.5 1085.5,284.5 1087.2,284.6 1088.8,284.7 1090.4,284.7 1092.1,284.8 1093.7,284.8 1095.3,284.8 1096.9,284.8 1098.6,284.9 1100.2,284.9 1101.8,284.9 1103.5,284.9 1105.1,284.9 1106.7,284.9 1108.4,285.0 1110.0,285.0" fill="none" stroke="#737cff" stroke-width="4"/>
<text x="960.0" y="313.0" text-anchor="middle" font-family="-apple-system,BlinkMacSystemFont,PingFang SC,Noto Sans CJK SC,sans-serif" font-size="17" font-weight="400" fill="#666862">dnorm</text>
<text x="600.0" y="390.0" text-anchor="middle" font-family="-apple-system,BlinkMacSystemFont,PingFang SC,Noto Sans CJK SC,sans-serif" font-size="20" font-weight="400" fill="#30332e">y ∼ Exponential(λ)</text>
<rect x="458" y="410" width="292" height="125" fill="#fff" stroke="#30332e"/>
<polyline points="458.0,418.0 459.6,421.3 461.3,424.6 462.9,427.8 464.5,430.8 466.2,433.8 467.8,436.7 469.4,439.5 471.1,442.3 472.7,444.9 474.3,447.5 475.9,450.0 477.6,452.4 479.2,454.8 480.8,457.1 482.5,459.3 484.1,461.5 485.7,463.6 487.4,465.6 489.0,467.6 490.6,469.6 492.3,471.4 493.9,473.3 495.5,475.0 497.2,476.7 498.8,478.4 500.4,480.0 502.0,481.6 503.7,483.1 505.3,484.6 506.9,486.1 508.6,487.5 510.2,488.8 511.8,490.1 513.5,491.4 515.1,492.7 516.7,493.9 518.4,495.1 520.0,496.2 521.6,497.3 523.3,498.4 524.9,499.4 526.5,500.5 528.1,501.5 529.8,502.4 531.4,503.3 533.0,504.3 534.7,505.1 536.3,506.0 537.9,506.8 539.6,507.6 541.2,508.4 542.8,509.2 544.5,509.9 546.1,510.6 547.7,511.3 549.4,512.0 551.0,512.7 552.6,513.3 554.2,513.9 555.9,514.5 557.5,515.1 559.1,515.7 560.8,516.2 562.4,516.8 564.0,517.3 565.7,517.8 567.3,518.3 568.9,518.8 570.6,519.2 572.2,519.7 573.8,520.1 575.5,520.6 577.1,521.0 578.7,521.4 580.3,521.8 582.0,522.1 583.6,522.5 585.2,522.9 586.9,523.2 588.5,523.5 590.1,523.9 591.8,524.2 593.4,524.5 595.0,524.8 596.7,525.1 598.3,525.4 599.9,525.7 601.6,525.9 603.2,526.2 604.8,526.4 606.4,526.7 608.1,526.9 609.7,527.2 611.3,527.4 613.0,527.6 614.6,527.8 616.2,528.0 617.9,528.2 619.5,528.4 621.1,528.6 622.8,528.8 624.4,529.0 626.0,529.1 627.7,529.3 629.3,529.5 630.9,529.6 632.5,529.8 634.2,529.9 635.8,530.1 637.4,530.2 639.1,530.3 640.7,530.5 642.3,530.6 644.0,530.7 645.6,530.9 647.2,531.0 648.9,531.1 650.5,531.2 652.1,531.3 653.8,531.4 655.4,531.5 657.0,531.6 658.6,531.7 660.3,531.8 661.9,531.9 663.5,532.0 665.2,532.1 666.8,532.2 668.4,532.2 670.1,532.3 671.7,532.4 673.3,532.5 675.0,532.5 676.6,532.6 678.2,532.7 679.9,532.7 681.5,532.8 683.1,532.9 684.7,532.9 686.4,533.0 688.0,533.1 689.6,533.1 691.3,533.2 692.9,533.2 694.5,533.3 696.2,533.3 697.8,533.4 699.4,533.4 701.1,533.5 702.7,533.5 704.3,533.5 706.0,533.6 707.6,533.6 709.2,533.7 710.8,533.7 712.5,533.7 714.1,533.8 715.7,533.8 717.4,533.8 719.0,533.9 720.6,533.9 722.3,533.9 723.9,534.0 725.5,534.0 727.2,534.0 728.8,534.1 730.4,534.1 732.1,534.1 733.7,534.1 735.3,534.2 736.9,534.2 738.6,534.2 740.2,534.2 741.8,534.3 743.5,534.3 745.1,534.3 746.7,534.3 748.4,534.3 750.0,534.4" fill="none" stroke="#737cff" stroke-width="4"/>
<text x="600.0" y="563.0" text-anchor="middle" font-family="-apple-system,BlinkMacSystemFont,PingFang SC,Noto Sans CJK SC,sans-serif" font-size="17" font-weight="400" fill="#666862">dexp</text>
<text x="240.0" y="690.0" text-anchor="middle" font-family="-apple-system,BlinkMacSystemFont,PingFang SC,Noto Sans CJK SC,sans-serif" font-size="20" font-weight="400" fill="#30332e">y ∼ Poisson(λ)</text>
<rect x="98" y="710" width="292" height="125" fill="#fff" stroke="#30332e"/>
<line x1="111.3" y1="835" x2="111.3" y2="824.0" stroke="#737cff" stroke-width="4"/>
<line x1="137.8" y1="835" x2="137.8" y2="791.1" stroke="#737cff" stroke-width="4"/>
<line x1="164.4" y1="835" x2="164.4" y2="747.2" stroke="#737cff" stroke-width="4"/>
<line x1="190.9" y1="835" x2="190.9" y2="718.0" stroke="#737cff" stroke-width="4"/>
<line x1="217.5" y1="835" x2="217.5" y2="718.0" stroke="#737cff" stroke-width="4"/>
<line x1="244.0" y1="835" x2="244.0" y2="741.4" stroke="#737cff" stroke-width="4"/>
<line x1="270.5" y1="835" x2="270.5" y2="772.6" stroke="#737cff" stroke-width="4"/>
<line x1="297.1" y1="835" x2="297.1" y2="799.3" stroke="#737cff" stroke-width="4"/>
<line x1="323.6" y1="835" x2="323.6" y2="817.2" stroke="#737cff" stroke-width="4"/>
<line x1="350.2" y1="835" x2="350.2" y2="827.1" stroke="#737cff" stroke-width="4"/>
<line x1="376.7" y1="835" x2="376.7" y2="831.8" stroke="#737cff" stroke-width="4"/>
<text x="240.0" y="863.0" text-anchor="middle" font-family="-apple-system,BlinkMacSystemFont,PingFang SC,Noto Sans CJK SC,sans-serif" font-size="17" font-weight="400" fill="#666862">dpois</text>
<text x="960.0" y="690.0" text-anchor="middle" font-family="-apple-system,BlinkMacSystemFont,PingFang SC,Noto Sans CJK SC,sans-serif" font-size="20" font-weight="400" fill="#30332e">y ∼ Binomial(n, p)</text>
<rect x="818" y="710" width="292" height="125" fill="#fff" stroke="#30332e"/>
<line x1="831.3" y1="835" x2="831.3" y2="835.0" stroke="#737cff" stroke-width="4"/>
<line x1="857.8" y1="835" x2="857.8" y2="835.0" stroke="#737cff" stroke-width="4"/>
<line x1="884.4" y1="835" x2="884.4" y2="834.6" stroke="#737cff" stroke-width="4"/>
<line x1="910.9" y1="835" x2="910.9" y2="832.3" stroke="#737cff" stroke-width="4"/>
<line x1="937.5" y1="835" x2="937.5" y2="823.0" stroke="#737cff" stroke-width="4"/>
<line x1="964.0" y1="835" x2="964.0" y2="797.8" stroke="#737cff" stroke-width="4"/>
<line x1="990.5" y1="835" x2="990.5" y2="755.4" stroke="#737cff" stroke-width="4"/>
<line x1="1017.1" y1="835" x2="1017.1" y2="718.0" stroke="#737cff" stroke-width="4"/>
<line x1="1043.6" y1="835" x2="1043.6" y2="722.2" stroke="#737cff" stroke-width="4"/>
<line x1="1070.2" y1="835" x2="1070.2" y2="770.5" stroke="#737cff" stroke-width="4"/>
<line x1="1096.7" y1="835" x2="1096.7" y2="818.4" stroke="#737cff" stroke-width="4"/>
<text x="960.0" y="863.0" text-anchor="middle" font-family="-apple-system,BlinkMacSystemFont,PingFang SC,Noto Sans CJK SC,sans-serif" font-size="17" font-weight="400" fill="#666862">dbinom</text>
</svg>
