<?xml version="1.0" encoding="UTF-8"?>
<svg xmlns="http://www.w3.org/2000/svg" width="1200" height="1000" viewBox="0 0 1200 1000" role="img">
  <title>灵长类乳汁能量、新皮层与雌性体重</title>
  <desc>上排是乳汁能量分别对新皮层百分比和对数体重的简单回归；下排在同时控制另一预测变量时显示更强的反向关系。</desc>
  <rect width="100%" height="100%" fill="#fff"/>
  <defs><clipPath id="milk-panel-105-55"><rect x="105" y="55" width="430" height="330"/></clipPath></defs>
  <rect x="105" y="55" width="430" height="330" fill="#fff" stroke="#343732" stroke-width="1.5"/>
  <polygon points="105,181.51 108.58,182.26 112.17,183.01 115.75,183.75 119.33,184.49 122.92,185.23 126.5,185.96 130.08,186.69 133.67,187.42 137.25,188.14 140.83,188.86 144.42,189.57 148,190.28 151.58,190.98 155.17,191.68 158.75,192.37 162.33,193.06 165.92,193.74 169.5,194.41 173.08,195.08 176.67,195.74 180.25,196.4 183.83,197.05 187.42,197.69 191,198.32 194.58,198.94 198.17,199.55 201.75,200.16 205.33,200.76 208.92,201.34 212.5,201.92 216.08,202.48 219.67,203.03 223.25,203.57 226.83,204.1 230.42,204.61 234,205.11 237.58,205.59 241.17,206.06 244.75,206.51 248.33,206.94 251.92,207.36 255.5,207.75 259.08,208.13 262.67,208.48 266.25,208.81 269.83,209.12 273.42,209.41 277,209.66 280.58,209.89 284.17,210.09 287.75,210.26 291.33,210.4 294.92,210.51 298.5,210.59 302.08,210.63 305.67,210.63 309.25,210.59 312.83,210.52 316.42,210.4 320,210.25 323.58,210.05 327.17,209.81 330.75,209.52 334.33,209.19 337.92,208.81 341.5,208.39 345.08,207.92 348.67,207.41 352.25,206.84 355.83,206.23 359.42,205.58 363,204.88 366.58,204.13 370.17,203.34 373.75,202.5 377.33,201.62 380.92,200.7 384.5,199.74 388.08,198.74 391.67,197.7 395.25,196.62 398.83,195.51 402.42,194.37 406,193.19 409.58,191.98 413.17,190.74 416.75,189.47 420.33,188.17 423.92,186.85 427.5,185.5 431.08,184.13 434.67,182.73 438.25,181.31 441.83,179.87 445.42,178.42 449,176.94 452.58,175.44 456.17,173.93 459.75,172.4 463.33,170.86 466.92,169.3 470.5,167.73 474.08,166.15 477.67,164.55 481.25,162.94 484.83,161.32 488.42,159.68 492,158.04 495.58,156.39 499.17,154.73 502.75,153.06 506.33,151.38 509.92,149.69 513.5,148 517.08,146.29 520.67,144.58 524.25,142.87 527.83,141.15 531.42,139.42 535,137.68 535,305.86 531.42,305.18 527.83,304.5 524.25,303.83 520.67,303.16 517.08,302.5 513.5,301.85 509.92,301.2 506.33,300.57 502.75,299.94 499.17,299.32 495.58,298.71 492,298.11 488.42,297.51 484.83,296.93 481.25,296.36 477.67,295.8 474.08,295.26 470.5,294.72 466.92,294.2 463.33,293.69 459.75,293.2 456.17,292.72 452.58,292.26 449,291.82 445.42,291.39 441.83,290.98 438.25,290.6 434.67,290.23 431.08,289.88 427.5,289.56 423.92,289.26 420.33,288.99 416.75,288.74 413.17,288.52 409.58,288.33 406,288.17 402.42,288.05 398.83,287.95 395.25,287.89 391.67,287.87 388.08,287.88 384.5,287.93 380.92,288.02 377.33,288.15 373.75,288.32 370.17,288.53 366.58,288.79 363,289.1 359.42,289.44 355.83,289.84 352.25,290.28 348.67,290.77 345.08,291.3 341.5,291.88 337.92,292.51 334.33,293.18 330.75,293.9 327.17,294.67 323.58,295.48 320,296.33 316.42,297.22 312.83,298.16 309.25,299.14 305.67,300.15 302.08,301.21 298.5,302.29 294.92,303.42 291.33,304.58 287.75,305.77 284.17,306.99 280.58,308.24 277,309.52 273.42,310.83 269.83,312.16 266.25,313.52 262.67,314.9 259.08,316.31 255.5,317.74 251.92,319.18 248.33,320.65 244.75,322.13 241.17,323.63 237.58,325.15 234,326.68 230.42,328.23 226.83,329.8 223.25,331.37 219.67,332.96 216.08,334.57 212.5,336.18 208.92,337.81 205.33,339.44 201.75,341.09 198.17,342.74 194.58,344.41 191,346.08 187.42,347.77 183.83,349.46 180.25,351.15 176.67,352.86 173.08,354.57 169.5,356.29 165.92,358.02 162.33,359.75 158.75,361.48 155.17,363.23 151.58,364.98 148,366.73 144.42,368.49 140.83,370.25 137.25,372.02 133.67,373.79 130.08,375.57 126.5,377.35 122.92,379.13 119.33,380.92 115.75,382.71 112.17,384.5 108.58,386.3 105,388.1" fill="#cfd2d5" opacity="0.82" clip-path="url(#milk-panel-105-55)"/>
  <polyline points="105,284.81 108.58,284.28 112.17,283.76 115.75,283.23 119.33,282.71 122.92,282.18 126.5,281.66 130.08,281.13 133.67,280.61 137.25,280.08 140.83,279.55 144.42,279.03 148,278.5 151.58,277.98 155.17,277.45 158.75,276.93 162.33,276.4 165.92,275.88 169.5,275.35 173.08,274.83 176.67,274.3 180.25,273.78 183.83,273.25 187.42,272.73 191,272.2 194.58,271.67 198.17,271.15 201.75,270.62 205.33,270.1 208.92,269.57 212.5,269.05 216.08,268.52 219.67,268 223.25,267.47 226.83,266.95 230.42,266.42 234,265.9 237.58,265.37 241.17,264.85 244.75,264.32 248.33,263.8 251.92,263.27 255.5,262.74 259.08,262.22 262.67,261.69 266.25,261.17 269.83,260.64 273.42,260.12 277,259.59 280.58,259.07 284.17,258.54 287.75,258.02 291.33,257.49 294.92,256.97 298.5,256.44 302.08,255.92 305.67,255.39 309.25,254.87 312.83,254.34 316.42,253.81 320,253.29 323.58,252.76 327.17,252.24 330.75,251.71 334.33,251.19 337.92,250.66 341.5,250.14 345.08,249.61 348.67,249.09 352.25,248.56 355.83,248.04 359.42,247.51 363,246.99 366.58,246.46 370.17,245.93 373.75,245.41 377.33,244.88 380.92,244.36 384.5,243.83 388.08,243.31 391.67,242.78 395.25,242.26 398.83,241.73 402.42,241.21 406,240.68 409.58,240.16 413.17,239.63 416.75,239.11 420.33,238.58 423.92,238.06 427.5,237.53 431.08,237 434.67,236.48 438.25,235.95 441.83,235.43 445.42,234.9 449,234.38 452.58,233.85 456.17,233.33 459.75,232.8 463.33,232.28 466.92,231.75 470.5,231.23 474.08,230.7 477.67,230.18 481.25,229.65 484.83,229.12 488.42,228.6 492,228.07 495.58,227.55 499.17,227.02 502.75,226.5 506.33,225.97 509.92,225.45 513.5,224.92 517.08,224.4 520.67,223.87 524.25,223.35 527.83,222.82 531.42,222.3 535,221.77" fill="none" stroke="#242724" stroke-width="3" clip-path="url(#milk-panel-105-55)"/>
  <circle cx="118.21" cy="350.06" r="4.8" fill="#fff" stroke="#6670ee" stroke-width="2"/>
  <circle cx="291.48" cy="362.09" r="4.8" fill="#fff" stroke="#6670ee" stroke-width="2"/>
  <circle cx="291.48" cy="307.97" r="4.8" fill="#fff" stroke="#6670ee" stroke-width="2"/>
  <circle cx="348.75" cy="109.52" r="4.8" fill="#fff" stroke="#6670ee" stroke-width="2"/>
  <circle cx="371.1" cy="91.48" r="4.8" fill="#fff" stroke="#6670ee" stroke-width="2"/>
  <circle cx="186.37" cy="163.64" r="4.8" fill="#fff" stroke="#6670ee" stroke-width="2"/>
  <circle cx="238.84" cy="368.1" r="4.8" fill="#fff" stroke="#6670ee" stroke-width="2"/>
  <circle cx="213.53" cy="217.77" r="4.8" fill="#fff" stroke="#6670ee" stroke-width="2"/>
  <circle cx="391.79" cy="235.81" r="4.8" fill="#fff" stroke="#6670ee" stroke-width="2"/>
  <circle cx="399.92" cy="61.41" r="4.8" fill="#fff" stroke="#6670ee" stroke-width="2"/>
  <circle cx="455.15" cy="139.59" r="4.8" fill="#fff" stroke="#6670ee" stroke-width="2"/>
  <circle cx="346.72" cy="271.89" r="4.8" fill="#fff" stroke="#6670ee" stroke-width="2"/>
  <circle cx="415.62" cy="320" r="4.8" fill="#fff" stroke="#6670ee" stroke-width="2"/>
  <circle cx="440.37" cy="350.06" r="4.8" fill="#fff" stroke="#6670ee" stroke-width="2"/>
  <circle cx="396.78" cy="356.08" r="4.8" fill="#fff" stroke="#6670ee" stroke-width="2"/>
  <circle cx="508.72" cy="313.98" r="4.8" fill="#fff" stroke="#6670ee" stroke-width="2"/>
  <circle cx="493.76" cy="217.77" r="4.8" fill="#fff" stroke="#6670ee" stroke-width="2"/>
  <text x="127.05" y="412" text-anchor="middle" font-family="PingFang SC, Noto Sans CJK SC, Microsoft YaHei, sans-serif" font-size="14" fill="#30332e">-2</text>
  <text x="237.31" y="412" text-anchor="middle" font-family="PingFang SC, Noto Sans CJK SC, Microsoft YaHei, sans-serif" font-size="14" fill="#30332e">-1</text>
  <text x="92" y="360.88" text-anchor="end" font-family="PingFang SC, Noto Sans CJK SC, Microsoft YaHei, sans-serif" font-size="14" fill="#30332e">-1</text>
  <text x="347.56" y="412" text-anchor="middle" font-family="PingFang SC, Noto Sans CJK SC, Microsoft YaHei, sans-serif" font-size="14" fill="#30332e">0</text>
  <text x="92" y="263.82" text-anchor="end" font-family="PingFang SC, Noto Sans CJK SC, Microsoft YaHei, sans-serif" font-size="14" fill="#30332e">0</text>
  <text x="457.82" y="412" text-anchor="middle" font-family="PingFang SC, Noto Sans CJK SC, Microsoft YaHei, sans-serif" font-size="14" fill="#30332e">1</text>
  <text x="92" y="166.76" text-anchor="end" font-family="PingFang SC, Noto Sans CJK SC, Microsoft YaHei, sans-serif" font-size="14" fill="#30332e">1</text>
  <text x="92" y="69.71" text-anchor="end" font-family="PingFang SC, Noto Sans CJK SC, Microsoft YaHei, sans-serif" font-size="14" fill="#30332e">2</text>
  <text x="320.0" y="446" text-anchor="middle" font-family="PingFang SC, Noto Sans CJK SC, Microsoft YaHei, sans-serif" font-size="18" font-weight="700" fill="#263f86">新皮层百分比（标准化）</text>
  <text x="47" y="220.0" transform="rotate(-90 47 220.0)" text-anchor="middle" font-family="PingFang SC, Noto Sans CJK SC, Microsoft YaHei, sans-serif" font-size="18" font-weight="700" fill="#263f86">每克乳汁千卡（标准化）</text>
  <defs><clipPath id="milk-panel-690-55"><rect x="690" y="55" width="430" height="330"/></clipPath></defs>
  <rect x="690" y="55" width="430" height="330" fill="#fff" stroke="#343732" stroke-width="1.5"/>
  <polygon points="690,81.49 693.58,83.75 697.17,86.01 700.75,88.27 704.33,90.52 707.92,92.77 711.5,95.01 715.08,97.25 718.67,99.48 722.25,101.72 725.83,103.94 729.42,106.17 733,108.38 736.58,110.6 740.17,112.8 743.75,115.01 747.33,117.2 750.92,119.4 754.5,121.58 758.08,123.76 761.67,125.93 765.25,128.09 768.83,130.25 772.42,132.4 776,134.54 779.58,136.68 783.17,138.8 786.75,140.92 790.33,143.03 793.92,145.12 797.5,147.21 801.08,149.28 804.67,151.35 808.25,153.4 811.83,155.43 815.42,157.46 819,159.47 822.58,161.47 826.17,163.45 829.75,165.41 833.33,167.36 836.92,169.29 840.5,171.21 844.08,173.1 847.67,174.97 851.25,176.82 854.83,178.65 858.42,180.46 862,182.24 865.58,184 869.17,185.73 872.75,187.43 876.33,189.11 879.92,190.75 883.5,192.36 887.08,193.95 890.67,195.5 894.25,197.01 897.83,198.5 901.42,199.94 905,201.35 908.58,202.72 912.17,204.06 915.75,205.36 919.33,206.61 922.92,207.83 926.5,209.01 930.08,210.15 933.67,211.25 937.25,212.31 940.83,213.33 944.42,214.32 948,215.26 951.58,216.17 955.17,217.03 958.75,217.87 962.33,218.66 965.92,219.42 969.5,220.15 973.08,220.84 976.67,221.51 980.25,222.14 983.83,222.74 987.42,223.31 991,223.85 994.58,224.37 998.17,224.86 1001.75,225.33 1005.33,225.77 1008.92,226.2 1012.5,226.6 1016.08,226.97 1019.67,227.33 1023.25,227.68 1026.83,228 1030.42,228.3 1034,228.59 1037.58,228.87 1041.17,229.13 1044.75,229.37 1048.33,229.6 1051.92,229.82 1055.5,230.03 1059.08,230.22 1062.67,230.4 1066.25,230.57 1069.83,230.74 1073.42,230.89 1077,231.03 1080.58,231.17 1084.17,231.29 1087.75,231.41 1091.33,231.52 1094.92,231.62 1098.5,231.72 1102.08,231.81 1105.67,231.89 1109.25,231.97 1112.83,232.04 1116.42,232.1 1120,232.16 1120,387.1 1116.42,384.89 1112.83,382.69 1109.25,380.5 1105.67,378.31 1102.08,376.13 1098.5,373.95 1094.92,371.78 1091.33,369.62 1087.75,367.46 1084.17,365.32 1080.58,363.18 1077,361.05 1073.42,358.92 1069.83,356.81 1066.25,354.71 1062.67,352.62 1059.08,350.53 1055.5,348.46 1051.92,346.41 1048.33,344.36 1044.75,342.32 1041.17,340.3 1037.58,338.3 1034,336.31 1030.42,334.33 1026.83,332.37 1023.25,330.43 1019.67,328.51 1016.08,326.6 1012.5,324.71 1008.92,322.85 1005.33,321.01 1001.75,319.19 998.17,317.39 994.58,315.61 991,313.87 987.42,312.15 983.83,310.45 980.25,308.79 976.67,307.16 973.08,305.55 969.5,303.98 965.92,302.44 962.33,300.94 958.75,299.47 955.17,298.04 951.58,296.64 948,295.28 944.42,293.96 940.83,292.68 937.25,291.44 933.67,290.23 930.08,289.07 926.5,287.94 922.92,286.86 919.33,285.81 915.75,284.8 912.17,283.83 908.58,282.9 905,282.01 901.42,281.16 897.83,280.34 894.25,279.55 890.67,278.81 887.08,278.09 883.5,277.41 879.92,276.76 876.33,276.14 872.75,275.55 869.17,274.99 865.58,274.45 862,273.94 858.42,273.46 854.83,273 851.25,272.57 847.67,272.15 844.08,271.76 840.5,271.39 836.92,271.04 833.33,270.7 829.75,270.39 826.17,270.09 822.58,269.8 819,269.53 815.42,269.28 811.83,269.04 808.25,268.81 804.67,268.6 801.08,268.4 797.5,268.21 793.92,268.03 790.33,267.86 786.75,267.7 783.17,267.55 779.58,267.41 776,267.28 772.42,267.16 768.83,267.04 765.25,266.94 761.67,266.84 758.08,266.74 754.5,266.66 750.92,266.58 747.33,266.5 743.75,266.44 740.17,266.37 736.58,266.32 733,266.26 729.42,266.22 725.83,266.17 722.25,266.14 718.67,266.1 715.08,266.07 711.5,266.05 707.92,266.03 704.33,266.01 700.75,266 697.17,265.99 693.58,265.98 690,265.98" fill="#cfd2d5" opacity="0.82" clip-path="url(#milk-panel-690-55)"/>
  <polyline points="690,173.73 693.58,174.87 697.17,176 700.75,177.13 704.33,178.26 707.92,179.4 711.5,180.53 715.08,181.66 718.67,182.79 722.25,183.93 725.83,185.06 729.42,186.19 733,187.32 736.58,188.46 740.17,189.59 743.75,190.72 747.33,191.85 750.92,192.99 754.5,194.12 758.08,195.25 761.67,196.38 765.25,197.52 768.83,198.65 772.42,199.78 776,200.91 779.58,202.05 783.17,203.18 786.75,204.31 790.33,205.44 793.92,206.58 797.5,207.71 801.08,208.84 804.67,209.97 808.25,211.11 811.83,212.24 815.42,213.37 819,214.5 822.58,215.64 826.17,216.77 829.75,217.9 833.33,219.03 836.92,220.17 840.5,221.3 844.08,222.43 847.67,223.56 851.25,224.7 854.83,225.83 858.42,226.96 862,228.09 865.58,229.22 869.17,230.36 872.75,231.49 876.33,232.62 879.92,233.75 883.5,234.89 887.08,236.02 890.67,237.15 894.25,238.28 897.83,239.42 901.42,240.55 905,241.68 908.58,242.81 912.17,243.95 915.75,245.08 919.33,246.21 922.92,247.34 926.5,248.48 930.08,249.61 933.67,250.74 937.25,251.87 940.83,253.01 944.42,254.14 948,255.27 951.58,256.4 955.17,257.54 958.75,258.67 962.33,259.8 965.92,260.93 969.5,262.07 973.08,263.2 976.67,264.33 980.25,265.46 983.83,266.6 987.42,267.73 991,268.86 994.58,269.99 998.17,271.13 1001.75,272.26 1005.33,273.39 1008.92,274.52 1012.5,275.66 1016.08,276.79 1019.67,277.92 1023.25,279.05 1026.83,280.19 1030.42,281.32 1034,282.45 1037.58,283.58 1041.17,284.71 1044.75,285.85 1048.33,286.98 1051.92,288.11 1055.5,289.24 1059.08,290.38 1062.67,291.51 1066.25,292.64 1069.83,293.77 1073.42,294.91 1077,296.04 1080.58,297.17 1084.17,298.3 1087.75,299.44 1091.33,300.57 1094.92,301.7 1098.5,302.83 1102.08,303.97 1105.67,305.1 1109.25,306.23 1112.83,307.36 1116.42,308.5 1120,309.63" fill="none" stroke="#242724" stroke-width="3" clip-path="url(#milk-panel-690-55)"/>
  <circle cx="878.81" cy="350.06" r="4.8" fill="#fff" stroke="#6670ee" stroke-width="2"/>
  <circle cx="938.52" cy="362.09" r="4.8" fill="#fff" stroke="#6670ee" stroke-width="2"/>
  <circle cx="939.89" cy="307.97" r="4.8" fill="#fff" stroke="#6670ee" stroke-width="2"/>
  <circle cx="894.03" cy="109.52" r="4.8" fill="#fff" stroke="#6670ee" stroke-width="2"/>
  <circle cx="815.29" cy="91.48" r="4.8" fill="#fff" stroke="#6670ee" stroke-width="2"/>
  <circle cx="710.7" cy="163.64" r="4.8" fill="#fff" stroke="#6670ee" stroke-width="2"/>
  <circle cx="793.02" cy="368.1" r="4.8" fill="#fff" stroke="#6670ee" stroke-width="2"/>
  <circle cx="769.84" cy="217.77" r="4.8" fill="#fff" stroke="#6670ee" stroke-width="2"/>
  <circle cx="864.97" cy="235.81" r="4.8" fill="#fff" stroke="#6670ee" stroke-width="2"/>
  <circle cx="909.42" cy="61.41" r="4.8" fill="#fff" stroke="#6670ee" stroke-width="2"/>
  <circle cx="989.86" cy="139.59" r="4.8" fill="#fff" stroke="#6670ee" stroke-width="2"/>
  <circle cx="939.89" cy="271.89" r="4.8" fill="#fff" stroke="#6670ee" stroke-width="2"/>
  <circle cx="1053.73" cy="320" r="4.8" fill="#fff" stroke="#6670ee" stroke-width="2"/>
  <circle cx="1102.32" cy="350.06" r="4.8" fill="#fff" stroke="#6670ee" stroke-width="2"/>
  <circle cx="1062.07" cy="356.08" r="4.8" fill="#fff" stroke="#6670ee" stroke-width="2"/>
  <circle cx="1049.56" cy="313.98" r="4.8" fill="#fff" stroke="#6670ee" stroke-width="2"/>
  <circle cx="1080.11" cy="217.77" r="4.8" fill="#fff" stroke="#6670ee" stroke-width="2"/>
  <text x="720.71" y="412" text-anchor="middle" font-family="PingFang SC, Noto Sans CJK SC, Microsoft YaHei, sans-serif" font-size="14" fill="#30332e">-2</text>
  <text x="823.1" y="412" text-anchor="middle" font-family="PingFang SC, Noto Sans CJK SC, Microsoft YaHei, sans-serif" font-size="14" fill="#30332e">-1</text>
  <text x="677" y="360.88" text-anchor="end" font-family="PingFang SC, Noto Sans CJK SC, Microsoft YaHei, sans-serif" font-size="14" fill="#30332e">-1</text>
  <text x="925.48" y="412" text-anchor="middle" font-family="PingFang SC, Noto Sans CJK SC, Microsoft YaHei, sans-serif" font-size="14" fill="#30332e">0</text>
  <text x="677" y="263.82" text-anchor="end" font-family="PingFang SC, Noto Sans CJK SC, Microsoft YaHei, sans-serif" font-size="14" fill="#30332e">0</text>
  <text x="1027.86" y="412" text-anchor="middle" font-family="PingFang SC, Noto Sans CJK SC, Microsoft YaHei, sans-serif" font-size="14" fill="#30332e">1</text>
  <text x="677" y="166.76" text-anchor="end" font-family="PingFang SC, Noto Sans CJK SC, Microsoft YaHei, sans-serif" font-size="14" fill="#30332e">1</text>
  <text x="677" y="69.71" text-anchor="end" font-family="PingFang SC, Noto Sans CJK SC, Microsoft YaHei, sans-serif" font-size="14" fill="#30332e">2</text>
  <text x="905.0" y="446" text-anchor="middle" font-family="PingFang SC, Noto Sans CJK SC, Microsoft YaHei, sans-serif" font-size="18" font-weight="700" fill="#263f86">对数体重（标准化）</text>
  <text x="632" y="220.0" transform="rotate(-90 632 220.0)" text-anchor="middle" font-family="PingFang SC, Noto Sans CJK SC, Microsoft YaHei, sans-serif" font-size="18" font-weight="700" fill="#263f86">每克乳汁千卡（标准化）</text>
  <text x="320.0" y="550" text-anchor="middle" font-family="PingFang SC, Noto Sans CJK SC, Microsoft YaHei, sans-serif" font-size="19" font-weight="700" fill="#263f86">反事实：保持 M = 0</text>
  <defs><clipPath id="milk-panel-105-570"><rect x="105" y="570" width="430" height="330"/></clipPath></defs>
  <rect x="105" y="570" width="430" height="330" fill="#fff" stroke="#343732" stroke-width="1.5"/>
  <polygon points="105,869.4 108.58,867.66 112.17,865.93 115.75,864.19 119.33,862.45 122.92,860.71 126.5,858.97 130.08,857.22 133.67,855.47 137.25,853.72 140.83,851.97 144.42,850.22 148,848.46 151.58,846.7 155.17,844.93 158.75,843.16 162.33,841.39 165.92,839.62 169.5,837.84 173.08,836.05 176.67,834.27 180.25,832.48 183.83,830.68 187.42,828.88 191,827.07 194.58,825.26 198.17,823.44 201.75,821.62 205.33,819.78 208.92,817.95 212.5,816.1 216.08,814.25 219.67,812.38 223.25,810.51 226.83,808.63 230.42,806.74 234,804.84 237.58,802.92 241.17,800.99 244.75,799.05 248.33,797.1 251.92,795.12 255.5,793.14 259.08,791.13 262.67,789.1 266.25,787.05 269.83,784.98 273.42,782.89 277,780.77 280.58,778.62 284.17,776.44 287.75,774.22 291.33,771.97 294.92,769.68 298.5,767.35 302.08,764.98 305.67,762.56 309.25,760.08 312.83,757.55 316.42,754.97 320,752.32 323.58,749.6 327.17,746.82 330.75,743.97 334.33,741.04 337.92,738.04 341.5,734.95 345.08,731.79 348.67,728.55 352.25,725.22 355.83,721.82 359.42,718.34 363,714.78 366.58,711.15 370.17,707.44 373.75,703.66 377.33,699.82 380.92,695.91 384.5,691.95 388.08,687.93 391.67,683.85 395.25,679.73 398.83,675.56 402.42,671.35 406,667.1 409.58,662.81 413.17,658.49 416.75,654.13 420.33,649.75 423.92,645.34 427.5,640.9 431.08,636.44 434.67,631.96 438.25,627.46 441.83,622.93 445.42,618.4 449,613.84 452.58,609.27 456.17,604.69 459.75,600.09 463.33,595.48 466.92,590.86 470.5,586.23 474.08,581.59 477.67,576.94 481.25,572.28 484.83,567.62 488.42,562.94 492,558.26 495.58,553.57 499.17,548.87 502.75,544.17 506.33,539.47 509.92,534.75 513.5,530.04 517.08,525.31 520.67,520.59 524.25,515.85 527.83,511.12 531.42,506.38 535,501.63 535,679.35 531.42,681.12 527.83,682.9 524.25,684.68 520.67,686.46 517.08,688.25 513.5,690.05 509.92,691.84 506.33,693.65 502.75,695.46 499.17,697.27 495.58,699.09 492,700.92 488.42,702.75 484.83,704.6 481.25,706.44 477.67,708.3 474.08,710.17 470.5,712.04 466.92,713.93 463.33,715.82 459.75,717.73 456.17,719.65 452.58,721.58 449,723.53 445.42,725.49 441.83,727.47 438.25,729.47 434.67,731.48 431.08,733.52 427.5,735.57 423.92,737.65 420.33,739.76 416.75,741.89 413.17,744.05 409.58,746.24 406,748.47 402.42,750.73 398.83,753.04 395.25,755.39 391.67,757.78 388.08,760.22 384.5,762.72 380.92,765.27 377.33,767.88 373.75,770.55 370.17,773.29 366.58,776.1 363,778.98 359.42,781.94 355.83,784.97 352.25,788.09 348.67,791.28 345.08,794.55 341.5,797.91 337.92,801.34 334.33,804.85 330.75,808.44 327.17,812.1 323.58,815.84 320,819.64 316.42,823.51 312.83,827.44 309.25,831.42 305.67,835.47 302.08,839.56 298.5,843.7 294.92,847.89 291.33,852.11 287.75,856.38 284.17,860.68 280.58,865.02 277,869.38 273.42,873.78 269.83,878.2 266.25,882.65 262.67,887.11 259.08,891.6 255.5,896.11 251.92,900.64 248.33,905.19 244.75,909.75 241.17,914.32 237.58,918.91 234,923.51 230.42,928.12 226.83,932.75 223.25,937.38 219.67,942.03 216.08,946.68 212.5,951.34 208.92,956.01 205.33,960.69 201.75,965.38 198.17,970.07 194.58,974.77 191,979.47 187.42,984.18 183.83,988.89 180.25,993.61 176.67,998.34 173.08,1003.07 169.5,1007.8 165.92,1012.54 162.33,1017.28 158.75,1022.02 155.17,1026.77 151.58,1031.52 148,1036.28 144.42,1041.04 140.83,1045.8 137.25,1050.56 133.67,1055.33 130.08,1060.09 126.5,1064.86 122.92,1069.64 119.33,1074.41 115.75,1079.19 112.17,1083.97 108.58,1088.75 105,1093.53" fill="#cfd2d5" opacity="0.82" clip-path="url(#milk-panel-105-570)"/>
  <polyline points="105,981.46 108.58,978.21 112.17,974.95 115.75,971.69 119.33,968.43 122.92,965.17 126.5,961.92 130.08,958.66 133.67,955.4 137.25,952.14 140.83,948.88 144.42,945.63 148,942.37 151.58,939.11 155.17,935.85 158.75,932.59 162.33,929.33 165.92,926.08 169.5,922.82 173.08,919.56 176.67,916.3 180.25,913.04 183.83,909.79 187.42,906.53 191,903.27 194.58,900.01 198.17,896.75 201.75,893.5 205.33,890.24 208.92,886.98 212.5,883.72 216.08,880.46 219.67,877.21 223.25,873.95 226.83,870.69 230.42,867.43 234,864.17 237.58,860.91 241.17,857.66 244.75,854.4 248.33,851.14 251.92,847.88 255.5,844.62 259.08,841.37 262.67,838.11 266.25,834.85 269.83,831.59 273.42,828.33 277,825.08 280.58,821.82 284.17,818.56 287.75,815.3 291.33,812.04 294.92,808.79 298.5,805.53 302.08,802.27 305.67,799.01 309.25,795.75 312.83,792.49 316.42,789.24 320,785.98 323.58,782.72 327.17,779.46 330.75,776.2 334.33,772.95 337.92,769.69 341.5,766.43 345.08,763.17 348.67,759.91 352.25,756.66 355.83,753.4 359.42,750.14 363,746.88 366.58,743.62 370.17,740.36 373.75,737.11 377.33,733.85 380.92,730.59 384.5,727.33 388.08,724.07 391.67,720.82 395.25,717.56 398.83,714.3 402.42,711.04 406,707.78 409.58,704.53 413.17,701.27 416.75,698.01 420.33,694.75 423.92,691.49 427.5,688.24 431.08,684.98 434.67,681.72 438.25,678.46 441.83,675.2 445.42,671.94 449,668.69 452.58,665.43 456.17,662.17 459.75,658.91 463.33,655.65 466.92,652.4 470.5,649.14 474.08,645.88 477.67,642.62 481.25,639.36 484.83,636.11 488.42,632.85 492,629.59 495.58,626.33 499.17,623.07 502.75,619.82 506.33,616.56 509.92,613.3 513.5,610.04 517.08,606.78 520.67,603.52 524.25,600.27 527.83,597.01 531.42,593.75 535,590.49" fill="none" stroke="#242724" stroke-width="3" clip-path="url(#milk-panel-105-570)"/>
  <text x="127.05" y="927" text-anchor="middle" font-family="PingFang SC, Noto Sans CJK SC, Microsoft YaHei, sans-serif" font-size="14" fill="#30332e">-2</text>
  <text x="237.31" y="927" text-anchor="middle" font-family="PingFang SC, Noto Sans CJK SC, Microsoft YaHei, sans-serif" font-size="14" fill="#30332e">-1</text>
  <text x="92" y="875.88" text-anchor="end" font-family="PingFang SC, Noto Sans CJK SC, Microsoft YaHei, sans-serif" font-size="14" fill="#30332e">-1</text>
  <text x="347.56" y="927" text-anchor="middle" font-family="PingFang SC, Noto Sans CJK SC, Microsoft YaHei, sans-serif" font-size="14" fill="#30332e">0</text>
  <text x="92" y="778.82" text-anchor="end" font-family="PingFang SC, Noto Sans CJK SC, Microsoft YaHei, sans-serif" font-size="14" fill="#30332e">0</text>
  <text x="457.82" y="927" text-anchor="middle" font-family="PingFang SC, Noto Sans CJK SC, Microsoft YaHei, sans-serif" font-size="14" fill="#30332e">1</text>
  <text x="92" y="681.76" text-anchor="end" font-family="PingFang SC, Noto Sans CJK SC, Microsoft YaHei, sans-serif" font-size="14" fill="#30332e">1</text>
  <text x="92" y="584.71" text-anchor="end" font-family="PingFang SC, Noto Sans CJK SC, Microsoft YaHei, sans-serif" font-size="14" fill="#30332e">2</text>
  <text x="320.0" y="961" text-anchor="middle" font-family="PingFang SC, Noto Sans CJK SC, Microsoft YaHei, sans-serif" font-size="18" font-weight="700" fill="#263f86">新皮层百分比（标准化）</text>
  <text x="47" y="735.0" transform="rotate(-90 47 735.0)" text-anchor="middle" font-family="PingFang SC, Noto Sans CJK SC, Microsoft YaHei, sans-serif" font-size="18" font-weight="700" fill="#263f86">每克乳汁千卡（标准化）</text>
  <text x="905.0" y="550" text-anchor="middle" font-family="PingFang SC, Noto Sans CJK SC, Microsoft YaHei, sans-serif" font-size="19" font-weight="700" fill="#263f86">反事实：保持 N = 0</text>
  <defs><clipPath id="milk-panel-690-570"><rect x="690" y="570" width="430" height="330"/></clipPath></defs>
  <rect x="690" y="570" width="430" height="330" fill="#fff" stroke="#343732" stroke-width="1.5"/>
  <polygon points="690,429.46 693.58,434.34 697.17,439.22 700.75,444.1 704.33,448.97 707.92,453.84 711.5,458.71 715.08,463.57 718.67,468.44 722.25,473.3 725.83,478.15 729.42,483.01 733,487.86 736.58,492.71 740.17,497.55 743.75,502.4 747.33,507.23 750.92,512.07 754.5,516.9 758.08,521.72 761.67,526.54 765.25,531.36 768.83,536.17 772.42,540.97 776,545.77 779.58,550.57 783.17,555.35 786.75,560.13 790.33,564.9 793.92,569.67 797.5,574.43 801.08,579.17 804.67,583.91 808.25,588.64 811.83,593.36 815.42,598.07 819,602.76 822.58,607.44 826.17,612.11 829.75,616.76 833.33,621.4 836.92,626.02 840.5,630.63 844.08,635.21 847.67,639.77 851.25,644.31 854.83,648.83 858.42,653.32 862,657.78 865.58,662.22 869.17,666.62 872.75,670.99 876.33,675.32 879.92,679.61 883.5,683.85 887.08,688.06 890.67,692.21 894.25,696.32 897.83,700.37 901.42,704.36 905,708.3 908.58,712.17 912.17,715.98 915.75,719.72 919.33,723.39 922.92,726.99 926.5,730.52 930.08,733.98 933.67,737.37 937.25,740.68 940.83,743.93 944.42,747.1 948,750.21 951.58,753.25 955.17,756.23 958.75,759.14 962.33,762 965.92,764.81 969.5,767.56 973.08,770.27 976.67,772.92 980.25,775.54 983.83,778.11 987.42,780.65 991,783.15 994.58,785.62 998.17,788.06 1001.75,790.47 1005.33,792.85 1008.92,795.21 1012.5,797.54 1016.08,799.86 1019.67,802.15 1023.25,804.43 1026.83,806.69 1030.42,808.93 1034,811.16 1037.58,813.37 1041.17,815.57 1044.75,817.76 1048.33,819.93 1051.92,822.1 1055.5,824.25 1059.08,826.4 1062.67,828.54 1066.25,830.67 1069.83,832.79 1073.42,834.9 1077,837.01 1080.58,839.11 1084.17,841.2 1087.75,843.29 1091.33,845.37 1094.92,847.45 1098.5,849.52 1102.08,851.59 1105.67,853.65 1109.25,855.71 1112.83,857.76 1116.42,859.81 1120,861.86 1120,1034.03 1116.42,1029.18 1112.83,1024.34 1109.25,1019.51 1105.67,1014.68 1102.08,1009.85 1098.5,1005.02 1094.92,1000.21 1091.33,995.39 1087.75,990.58 1084.17,985.78 1080.58,980.98 1077,976.19 1073.42,971.41 1069.83,966.63 1066.25,961.86 1062.67,957.1 1059.08,952.35 1055.5,947.6 1051.92,942.87 1048.33,938.14 1044.75,933.43 1041.17,928.73 1037.58,924.04 1034,919.36 1030.42,914.69 1026.83,910.05 1023.25,905.41 1019.67,900.8 1016.08,896.2 1012.5,891.63 1008.92,887.07 1005.33,882.54 1001.75,878.03 998.17,873.55 994.58,869.1 991,864.68 987.42,860.29 983.83,855.94 980.25,851.62 976.67,847.34 973.08,843.11 969.5,838.92 965.92,834.79 962.33,830.7 958.75,826.67 955.17,822.7 951.58,818.79 948,814.94 944.42,811.15 940.83,807.44 937.25,803.79 933.67,800.22 930.08,796.71 926.5,793.28 922.92,789.92 919.33,786.63 915.75,783.41 912.17,780.26 908.58,777.18 905,774.16 901.42,771.2 897.83,768.31 894.25,765.47 890.67,762.68 887.08,759.95 883.5,757.26 879.92,754.62 876.33,752.02 872.75,749.46 869.17,746.93 865.58,744.45 862,741.99 858.42,739.56 854.83,737.16 851.25,734.79 847.67,732.44 844.08,730.11 840.5,727.8 836.92,725.52 833.33,723.25 829.75,720.99 826.17,718.76 822.58,716.54 819,714.33 815.42,712.13 811.83,709.95 808.25,707.78 804.67,705.61 801.08,703.46 797.5,701.32 793.92,699.19 790.33,697.06 786.75,694.94 783.17,692.83 779.58,690.73 776,688.63 772.42,686.54 768.83,684.45 765.25,682.37 761.67,680.3 758.08,678.23 754.5,676.16 750.92,674.1 747.33,672.04 743.75,669.99 740.17,667.94 736.58,665.9 733,663.86 729.42,661.82 725.83,659.78 722.25,657.75 718.67,655.72 715.08,653.69 711.5,651.67 707.92,649.64 704.33,647.62 700.75,645.61 697.17,643.59 693.58,641.58 690,639.57" fill="#cfd2d5" opacity="0.82" clip-path="url(#milk-panel-690-570)"/>
  <polyline points="690,534.52 693.58,537.96 697.17,541.41 700.75,544.85 704.33,548.3 707.92,551.74 711.5,555.19 715.08,558.63 718.67,562.08 722.25,565.52 725.83,568.97 729.42,572.41 733,575.86 736.58,579.3 740.17,582.75 743.75,586.19 747.33,589.64 750.92,593.08 754.5,596.53 758.08,599.97 761.67,603.42 765.25,606.87 768.83,610.31 772.42,613.76 776,617.2 779.58,620.65 783.17,624.09 786.75,627.54 790.33,630.98 793.92,634.43 797.5,637.87 801.08,641.32 804.67,644.76 808.25,648.21 811.83,651.65 815.42,655.1 819,658.54 822.58,661.99 826.17,665.43 829.75,668.88 833.33,672.32 836.92,675.77 840.5,679.21 844.08,682.66 847.67,686.11 851.25,689.55 854.83,693 858.42,696.44 862,699.89 865.58,703.33 869.17,706.78 872.75,710.22 876.33,713.67 879.92,717.11 883.5,720.56 887.08,724 890.67,727.45 894.25,730.89 897.83,734.34 901.42,737.78 905,741.23 908.58,744.67 912.17,748.12 915.75,751.56 919.33,755.01 922.92,758.46 926.5,761.9 930.08,765.35 933.67,768.79 937.25,772.24 940.83,775.68 944.42,779.13 948,782.57 951.58,786.02 955.17,789.46 958.75,792.91 962.33,796.35 965.92,799.8 969.5,803.24 973.08,806.69 976.67,810.13 980.25,813.58 983.83,817.02 987.42,820.47 991,823.91 994.58,827.36 998.17,830.8 1001.75,834.25 1005.33,837.7 1008.92,841.14 1012.5,844.59 1016.08,848.03 1019.67,851.48 1023.25,854.92 1026.83,858.37 1030.42,861.81 1034,865.26 1037.58,868.7 1041.17,872.15 1044.75,875.59 1048.33,879.04 1051.92,882.48 1055.5,885.93 1059.08,889.37 1062.67,892.82 1066.25,896.26 1069.83,899.71 1073.42,903.15 1077,906.6 1080.58,910.05 1084.17,913.49 1087.75,916.94 1091.33,920.38 1094.92,923.83 1098.5,927.27 1102.08,930.72 1105.67,934.16 1109.25,937.61 1112.83,941.05 1116.42,944.5 1120,947.94" fill="none" stroke="#242724" stroke-width="3" clip-path="url(#milk-panel-690-570)"/>
  <text x="720.71" y="927" text-anchor="middle" font-family="PingFang SC, Noto Sans CJK SC, Microsoft YaHei, sans-serif" font-size="14" fill="#30332e">-2</text>
  <text x="823.1" y="927" text-anchor="middle" font-family="PingFang SC, Noto Sans CJK SC, Microsoft YaHei, sans-serif" font-size="14" fill="#30332e">-1</text>
  <text x="677" y="875.88" text-anchor="end" font-family="PingFang SC, Noto Sans CJK SC, Microsoft YaHei, sans-serif" font-size="14" fill="#30332e">-1</text>
  <text x="925.48" y="927" text-anchor="middle" font-family="PingFang SC, Noto Sans CJK SC, Microsoft YaHei, sans-serif" font-size="14" fill="#30332e">0</text>
  <text x="677" y="778.82" text-anchor="end" font-family="PingFang SC, Noto Sans CJK SC, Microsoft YaHei, sans-serif" font-size="14" fill="#30332e">0</text>
  <text x="1027.86" y="927" text-anchor="middle" font-family="PingFang SC, Noto Sans CJK SC, Microsoft YaHei, sans-serif" font-size="14" fill="#30332e">1</text>
  <text x="677" y="681.76" text-anchor="end" font-family="PingFang SC, Noto Sans CJK SC, Microsoft YaHei, sans-serif" font-size="14" fill="#30332e">1</text>
  <text x="677" y="584.71" text-anchor="end" font-family="PingFang SC, Noto Sans CJK SC, Microsoft YaHei, sans-serif" font-size="14" fill="#30332e">2</text>
  <text x="905.0" y="961" text-anchor="middle" font-family="PingFang SC, Noto Sans CJK SC, Microsoft YaHei, sans-serif" font-size="18" font-weight="700" fill="#263f86">对数体重（标准化）</text>
  <text x="632" y="735.0" transform="rotate(-90 632 735.0)" text-anchor="middle" font-family="PingFang SC, Noto Sans CJK SC, Microsoft YaHei, sans-serif" font-size="18" font-weight="700" fill="#263f86">每克乳汁千卡（标准化）</text>
</svg>
