<svg xmlns="http://www.w3.org/2000/svg" width="900" height="370" viewBox="0 0 900 370" role="img">
<title>四种处理效应的后验分布</title>
<desc>四行分别给出亲社会选项位于右侧或左侧以及伙伴缺席或在场时的 logit 尺度处理效应。</desc>
<rect width="100%" height="100%" fill="#fbfaf6"/>
<rect x="145" y="11" width="705" height="293" fill="#fff" stroke="#d9d5c8"/>
<line x1="478.9" y1="11" x2="478.9" y2="304" stroke="#d9d5c8" stroke-width="2"/>
<line x1="145" y1="35.0" x2="850" y2="35.0" stroke="#d9d5c8" stroke-dasharray="4 5"/>
<text x="127.0" y="41.0" text-anchor="end" font-family="-apple-system,BlinkMacSystemFont,PingFang SC,Noto Sans CJK SC,sans-serif" font-size="19" font-weight="400" fill="#30332e">R/N</text>
<line x1="289.7" y1="35.0" x2="627.4" y2="35.0" stroke="#30332e" stroke-width="4"/>
<circle cx="464.1" cy="35.0" r="7" fill="#fff" stroke="#30332e" stroke-width="3"/>
<line x1="145" y1="116.7" x2="850" y2="116.7" stroke="#d9d5c8" stroke-dasharray="4 5"/>
<text x="127.0" y="122.7" text-anchor="end" font-family="-apple-system,BlinkMacSystemFont,PingFang SC,Noto Sans CJK SC,sans-serif" font-size="19" font-weight="400" fill="#30332e">L/N</text>
<line x1="493.8" y1="116.7" x2="820.3" y2="116.7" stroke="#30332e" stroke-width="4"/>
<circle cx="657.1" cy="116.7" r="7" fill="#fff" stroke="#30332e" stroke-width="3"/>
<line x1="145" y1="198.3" x2="850" y2="198.3" stroke="#d9d5c8" stroke-dasharray="4 5"/>
<text x="127.0" y="204.3" text-anchor="end" font-family="-apple-system,BlinkMacSystemFont,PingFang SC,Noto Sans CJK SC,sans-serif" font-size="19" font-weight="400" fill="#30332e">R/P</text>
<line x1="171.0" y1="198.3" x2="501.2" y2="198.3" stroke="#30332e" stroke-width="4"/>
<circle cx="337.9" cy="198.3" r="7" fill="#fff" stroke="#30332e" stroke-width="3"/>
<line x1="145" y1="280.0" x2="850" y2="280.0" stroke="#d9d5c8" stroke-dasharray="4 5"/>
<text x="127.0" y="286.0" text-anchor="end" font-family="-apple-system,BlinkMacSystemFont,PingFang SC,Noto Sans CJK SC,sans-serif" font-size="19" font-weight="400" fill="#30332e">L/P</text>
<line x1="453.0" y1="280.0" x2="772.1" y2="280.0" stroke="#30332e" stroke-width="4"/>
<circle cx="616.2" cy="280.0" r="7" fill="#fff" stroke="#30332e" stroke-width="3"/>
<line x1="293.4" y1="304" x2="293.4" y2="312" stroke="#30332e"/>
<text x="293.4" y="328.0" text-anchor="middle" font-family="-apple-system,BlinkMacSystemFont,PingFang SC,Noto Sans CJK SC,sans-serif" font-size="17" font-weight="400" fill="#30332e">-0.5</text>
<line x1="478.9" y1="304" x2="478.9" y2="312" stroke="#30332e"/>
<text x="478.9" y="328.0" text-anchor="middle" font-family="-apple-system,BlinkMacSystemFont,PingFang SC,Noto Sans CJK SC,sans-serif" font-size="17" font-weight="400" fill="#30332e">0</text>
<line x1="664.5" y1="304" x2="664.5" y2="312" stroke="#30332e"/>
<text x="664.5" y="328.0" text-anchor="middle" font-family="-apple-system,BlinkMacSystemFont,PingFang SC,Noto Sans CJK SC,sans-serif" font-size="17" font-weight="400" fill="#30332e">0.5</text>
<line x1="850.0" y1="304" x2="850.0" y2="312" stroke="#30332e"/>
<text x="850.0" y="328.0" text-anchor="middle" font-family="-apple-system,BlinkMacSystemFont,PingFang SC,Noto Sans CJK SC,sans-serif" font-size="17" font-weight="400" fill="#30332e">1</text>
<text x="497.5" y="358.0" text-anchor="middle" font-family="-apple-system,BlinkMacSystemFont,PingFang SC,Noto Sans CJK SC,sans-serif" font-size="19" font-weight="400" fill="#30332e">logit 尺度上的处理效应</text>
</svg>
