<svg xmlns="http://www.w3.org/2000/svg" width="920" height="760" viewBox="0 0 920 760">
<title>图 13.6：中心化与非中心化参数化的有效样本量</title>
<desc>横轴是中心化黑猩猩模型的有效样本量，纵轴是非中心化模型的有效样本量。二十个参数中除两个外都位于对角线之上，表明非中心化参数化的抽样效率更高。</desc>
<rect width="920" height="760" fill="#fff"/>
<line x1="115.0" y1="640.0" x2="850.0" y2="640.0" stroke="#30332e" stroke-width="2"/>
<line x1="115.0" y1="75.0" x2="115.0" y2="640.0" stroke="#30332e" stroke-width="2"/>
<line x1="115.0" y1="640.0" x2="850.0" y2="75.0" stroke="#30332e" stroke-width="2" stroke-dasharray="10 8"/>
<line x1="282.0" y1="640.0" x2="282.0" y2="647.0" stroke="#30332e"/>
<text x="282.0" y="670.0" text-anchor="middle" font-family="-apple-system,BlinkMacSystemFont,PingFang SC,Noto Sans CJK SC,sans-serif" font-size="17" font-weight="400" fill="#30332e">500</text>
<line x1="108.0" y1="511.6" x2="115.0" y2="511.6" stroke="#30332e"/>
<text x="100.0" y="517.6" text-anchor="end" font-family="-apple-system,BlinkMacSystemFont,PingFang SC,Noto Sans CJK SC,sans-serif" font-size="17" font-weight="400" fill="#30332e">500</text>
<line x1="449.1" y1="640.0" x2="449.1" y2="647.0" stroke="#30332e"/>
<text x="449.1" y="670.0" text-anchor="middle" font-family="-apple-system,BlinkMacSystemFont,PingFang SC,Noto Sans CJK SC,sans-serif" font-size="17" font-weight="400" fill="#30332e">1000</text>
<line x1="108.0" y1="383.2" x2="115.0" y2="383.2" stroke="#30332e"/>
<text x="100.0" y="389.2" text-anchor="end" font-family="-apple-system,BlinkMacSystemFont,PingFang SC,Noto Sans CJK SC,sans-serif" font-size="17" font-weight="400" fill="#30332e">1000</text>
<line x1="616.1" y1="640.0" x2="616.1" y2="647.0" stroke="#30332e"/>
<text x="616.1" y="670.0" text-anchor="middle" font-family="-apple-system,BlinkMacSystemFont,PingFang SC,Noto Sans CJK SC,sans-serif" font-size="17" font-weight="400" fill="#30332e">1500</text>
<line x1="108.0" y1="254.8" x2="115.0" y2="254.8" stroke="#30332e"/>
<text x="100.0" y="260.8" text-anchor="end" font-family="-apple-system,BlinkMacSystemFont,PingFang SC,Noto Sans CJK SC,sans-serif" font-size="17" font-weight="400" fill="#30332e">1500</text>
<line x1="783.2" y1="640.0" x2="783.2" y2="647.0" stroke="#30332e"/>
<text x="783.2" y="670.0" text-anchor="middle" font-family="-apple-system,BlinkMacSystemFont,PingFang SC,Noto Sans CJK SC,sans-serif" font-size="17" font-weight="400" fill="#30332e">2000</text>
<line x1="108.0" y1="126.4" x2="115.0" y2="126.4" stroke="#30332e"/>
<text x="100.0" y="132.4" text-anchor="end" font-family="-apple-system,BlinkMacSystemFont,PingFang SC,Noto Sans CJK SC,sans-serif" font-size="17" font-weight="400" fill="#30332e">2000</text>
<circle cx="167.8" cy="298.4" r="8" fill="#fff" stroke="#30332e" stroke-width="3"/>
<circle cx="218.6" cy="303.6" r="8" fill="#fff" stroke="#30332e" stroke-width="3"/>
<circle cx="287.1" cy="267.6" r="8" fill="#fff" stroke="#30332e" stroke-width="3"/>
<circle cx="177.1" cy="321.5" r="8" fill="#fff" stroke="#30332e" stroke-width="3"/>
<circle cx="264.0" cy="283.0" r="8" fill="#fff" stroke="#30332e" stroke-width="3"/>
<circle cx="420.7" cy="98.1" r="8" fill="#fff" stroke="#30332e" stroke-width="3"/>
<circle cx="351.9" cy="288.2" r="8" fill="#fff" stroke="#30332e" stroke-width="3"/>
<circle cx="193.5" cy="447.4" r="8" fill="#fff" stroke="#30332e" stroke-width="3"/>
<circle cx="227.9" cy="293.3" r="8" fill="#fff" stroke="#30332e" stroke-width="3"/>
<circle cx="302.1" cy="254.8" r="8" fill="#fff" stroke="#30332e" stroke-width="3"/>
<circle cx="355.9" cy="167.5" r="8" fill="#fff" stroke="#30332e" stroke-width="3"/>
<circle cx="257.3" cy="306.1" r="8" fill="#fff" stroke="#30332e" stroke-width="3"/>
<circle cx="422.7" cy="121.2" r="8" fill="#fff" stroke="#30332e" stroke-width="3"/>
<circle cx="469.8" cy="213.7" r="8" fill="#fff" stroke="#30332e" stroke-width="3"/>
<circle cx="428.7" cy="200.8" r="8" fill="#fff" stroke="#30332e" stroke-width="3"/>
<circle cx="406.7" cy="175.2" r="8" fill="#fff" stroke="#30332e" stroke-width="3"/>
<circle cx="293.1" cy="270.2" r="8" fill="#fff" stroke="#30332e" stroke-width="3"/>
<circle cx="382.3" cy="152.0" r="8" fill="#fff" stroke="#30332e" stroke-width="3"/>
<circle cx="484.5" cy="437.1" r="8" fill="#fff" stroke="#30332e" stroke-width="3"/>
<circle cx="191.5" cy="290.7" r="8" fill="#fff" stroke="#30332e" stroke-width="3"/>
<text x="482.5" y="715.0" text-anchor="middle" font-family="-apple-system,BlinkMacSystemFont,PingFang SC,Noto Sans CJK SC,sans-serif" font-size="22" font-weight="400" fill="#30332e">n_eff（中心化）</text>
<text x="35.0" y="357.5" text-anchor="middle" font-family="-apple-system,BlinkMacSystemFont,PingFang SC,Noto Sans CJK SC,sans-serif" font-size="22" font-weight="400" fill="#30332e" transform="rotate(-90 35 357.5)">n_eff（非中心化）</text>
</svg>