<?xml version="1.0" encoding="UTF-8"?>
<svg xmlns="http://www.w3.org/2000/svg" width="1200" height="470" viewBox="0 0 1200 470" role="img">
  <title>点估计与损失函数</title>
  <desc>左图标出偏斜后验的均值、中位数和众数；右图显示绝对距离规则下的期望损失，并在后验中位数处达到最小。</desc>
  <rect width="100%" height="100%" fill="#ffffff"/>
  <rect x="105" y="50" width="430" height="300" fill="#fff" stroke="#363934" stroke-width="1.3"/>
  <line x1="105" y1="350" x2="105" y2="357" stroke="#363934"/>
  <text x="105" y="377" text-anchor="middle" font-family="-apple-system,BlinkMacSystemFont,PingFang SC,Noto Sans CJK SC,sans-serif" font-size="14" fill="#30332e">0</text>
  <line x1="191" y1="350" x2="191" y2="357" stroke="#363934"/>
  <text x="191" y="377" text-anchor="middle" font-family="-apple-system,BlinkMacSystemFont,PingFang SC,Noto Sans CJK SC,sans-serif" font-size="14" fill="#30332e">0.2</text>
  <line x1="277" y1="350" x2="277" y2="357" stroke="#363934"/>
  <text x="277" y="377" text-anchor="middle" font-family="-apple-system,BlinkMacSystemFont,PingFang SC,Noto Sans CJK SC,sans-serif" font-size="14" fill="#30332e">0.4</text>
  <line x1="363" y1="350" x2="363" y2="357" stroke="#363934"/>
  <text x="363" y="377" text-anchor="middle" font-family="-apple-system,BlinkMacSystemFont,PingFang SC,Noto Sans CJK SC,sans-serif" font-size="14" fill="#30332e">0.6</text>
  <line x1="449" y1="350" x2="449" y2="357" stroke="#363934"/>
  <text x="449" y="377" text-anchor="middle" font-family="-apple-system,BlinkMacSystemFont,PingFang SC,Noto Sans CJK SC,sans-serif" font-size="14" fill="#30332e">0.8</text>
  <line x1="535" y1="350" x2="535" y2="357" stroke="#363934"/>
  <text x="535" y="377" text-anchor="middle" font-family="-apple-system,BlinkMacSystemFont,PingFang SC,Noto Sans CJK SC,sans-serif" font-size="14" fill="#30332e">1</text>
  <line x1="98" y1="350" x2="105" y2="350" stroke="#363934"/>
  <text x="93" y="355" text-anchor="end" font-family="-apple-system,BlinkMacSystemFont,PingFang SC,Noto Sans CJK SC,sans-serif" font-size="14" fill="#30332e">0</text>
  <line x1="98" y1="275" x2="105" y2="275" stroke="#363934"/>
  <text x="93" y="280" text-anchor="end" font-family="-apple-system,BlinkMacSystemFont,PingFang SC,Noto Sans CJK SC,sans-serif" font-size="14" fill="#30332e">1</text>
  <line x1="98" y1="200" x2="105" y2="200" stroke="#363934"/>
  <text x="93" y="205" text-anchor="end" font-family="-apple-system,BlinkMacSystemFont,PingFang SC,Noto Sans CJK SC,sans-serif" font-size="14" fill="#30332e">2</text>
  <line x1="98" y1="125" x2="105" y2="125" stroke="#363934"/>
  <text x="93" y="130" text-anchor="end" font-family="-apple-system,BlinkMacSystemFont,PingFang SC,Noto Sans CJK SC,sans-serif" font-size="14" fill="#30332e">3</text>
  <line x1="98" y1="50" x2="105" y2="50" stroke="#363934"/>
  <text x="93" y="55" text-anchor="end" font-family="-apple-system,BlinkMacSystemFont,PingFang SC,Noto Sans CJK SC,sans-serif" font-size="14" fill="#30332e">4</text>
  <text x="320" y="408" text-anchor="middle" font-family="-apple-system,BlinkMacSystemFont,PingFang SC,Noto Sans CJK SC,sans-serif" font-size="17" fill="#30332e">水域比例（p）</text>
  <text x="50" y="200" transform="rotate(-90 50 200)" text-anchor="middle" font-family="-apple-system,BlinkMacSystemFont,PingFang SC,Noto Sans CJK SC,sans-serif" font-size="17" fill="#30332e">概率密度</text>
  <path d="M105 350 L105.43 350 L105.86 350 L106.29 350 L106.72 350 L107.15 350 L107.58 350 L108.01 350 L108.44 350 L108.87 350 L109.3 350 L109.73 350 L110.16 350 L110.59 350 L111.02 350 L111.45 350 L111.88 350 L112.31 350 L112.74 350 L113.17 350 L113.6 350 L114.03 350 L114.46 350 L114.89 350 L115.32 350 L115.75 350 L116.18 349.99 L116.61 349.99 L117.04 349.99 L117.47 349.99 L117.9 349.99 L118.33 349.99 L118.76 349.99 L119.19 349.99 L119.62 349.99 L120.05 349.99 L120.48 349.99 L120.91 349.98 L121.34 349.98 L121.77 349.98 L122.2 349.98 L122.63 349.98 L123.06 349.98 L123.49 349.98 L123.92 349.97 L124.35 349.97 L124.78 349.97 L125.21 349.97 L125.64 349.97 L126.07 349.96 L126.5 349.96 L126.93 349.96 L127.36 349.96 L127.79 349.96 L128.22 349.95 L128.65 349.95 L129.08 349.95 L129.51 349.94 L129.94 349.94 L130.37 349.94 L130.8 349.94 L131.23 349.93 L131.66 349.93 L132.09 349.92 L132.52 349.92 L132.95 349.92 L133.38 349.91 L133.81 349.91 L134.24 349.91 L134.67 349.9 L135.1 349.9 L135.53 349.89 L135.96 349.89 L136.39 349.88 L136.82 349.88 L137.25 349.87 L137.68 349.87 L138.11 349.86 L138.54 349.86 L138.97 349.85 L139.4 349.85 L139.83 349.84 L140.26 349.83 L140.69 349.83 L141.12 349.82 L141.55 349.82 L141.98 349.81 L142.41 349.8 L142.84 349.8 L143.27 349.79 L143.7 349.78 L144.13 349.77 L144.56 349.77 L144.99 349.76 L145.42 349.75 L145.85 349.74 L146.28 349.73 L146.71 349.73 L147.14 349.72 L147.57 349.71 L148 349.7 L148.43 349.69 L148.86 349.68 L149.29 349.67 L149.72 349.66 L150.15 349.65 L150.58 349.64 L151.01 349.63 L151.44 349.62 L151.87 349.61 L152.3 349.6 L152.73 349.59 L153.16 349.58 L153.59 349.57 L154.02 349.56 L154.45 349.54 L154.88 349.53 L155.31 349.52 L155.74 349.51 L156.17 349.49 L156.6 349.48 L157.03 349.47 L157.46 349.46 L157.89 349.44 L158.32 349.43 L158.75 349.41 L159.18 349.4 L159.61 349.39 L160.04 349.37 L160.47 349.36 L160.9 349.34 L161.33 349.33 L161.76 349.31 L162.19 349.29 L162.62 349.28 L163.05 349.26 L163.48 349.25 L163.91 349.23 L164.34 349.21 L164.77 349.19 L165.2 349.18 L165.63 349.16 L166.06 349.14 L166.49 349.12 L166.92 349.1 L167.35 349.09 L167.78 349.07 L168.21 349.05 L168.64 349.03 L169.07 349.01 L169.5 348.99 L169.93 348.97 L170.36 348.95 L170.79 348.93 L171.22 348.9 L171.65 348.88 L172.08 348.86 L172.51 348.84 L172.94 348.82 L173.37 348.79 L173.8 348.77 L174.23 348.75 L174.66 348.72 L175.09 348.7 L175.52 348.68 L175.95 348.65 L176.38 348.63 L176.81 348.6 L177.24 348.58 L177.67 348.55 L178.1 348.53 L178.53 348.5 L178.96 348.47 L179.39 348.45 L179.82 348.42 L180.25 348.39 L180.68 348.36 L181.11 348.34 L181.54 348.31 L181.97 348.28 L182.4 348.25 L182.83 348.22 L183.26 348.19 L183.69 348.16 L184.12 348.13 L184.55 348.1 L184.98 348.07 L185.41 348.04 L185.84 348.01 L186.27 347.97 L186.7 347.94 L187.13 347.91 L187.56 347.88 L187.99 347.84 L188.42 347.81 L188.85 347.78 L189.28 347.74 L189.71 347.71 L190.14 347.67 L190.57 347.64 L191 347.6 L191.43 347.56 L191.86 347.53 L192.29 347.49 L192.72 347.45 L193.15 347.42 L193.58 347.38 L194.01 347.34 L194.44 347.3 L194.87 347.26 L195.3 347.22 L195.73 347.18 L196.16 347.14 L196.59 347.1 L197.02 347.06 L197.45 347.02 L197.88 346.98 L198.31 346.93 L198.74 346.89 L199.17 346.85 L199.6 346.81 L200.03 346.76 L200.46 346.72 L200.89 346.67 L201.32 346.63 L201.75 346.58 L202.18 346.54 L202.61 346.49 L203.04 346.44 L203.47 346.4 L203.9 346.35 L204.33 346.3 L204.76 346.25 L205.19 346.21 L205.62 346.16 L206.05 346.11 L206.48 346.06 L206.91 346.01 L207.34 345.96 L207.77 345.9 L208.2 345.85 L208.63 345.8 L209.06 345.75 L209.49 345.7 L209.92 345.64 L210.35 345.59 L210.78 345.53 L211.21 345.48 L211.64 345.42 L212.07 345.37 L212.5 345.31 L212.93 345.26 L213.36 345.2 L213.79 345.14 L214.22 345.08 L214.65 345.03 L215.08 344.97 L215.51 344.91 L215.94 344.85 L216.37 344.79 L216.8 344.73 L217.23 344.67 L217.66 344.6 L218.09 344.54 L218.52 344.48 L218.95 344.42 L219.38 344.35 L219.81 344.29 L220.24 344.23 L220.67 344.16 L221.1 344.1 L221.53 344.03 L221.96 343.96 L222.39 343.9 L222.82 343.83 L223.25 343.76 L223.68 343.69 L224.11 343.62 L224.54 343.55 L224.97 343.48 L225.4 343.41 L225.83 343.34 L226.26 343.27 L226.69 343.2 L227.12 343.13 L227.55 343.06 L227.98 342.98 L228.41 342.91 L228.84 342.83 L229.27 342.76 L229.7 342.68 L230.13 342.61 L230.56 342.53 L230.99 342.45 L231.42 342.38 L231.85 342.3 L232.28 342.22 L232.71 342.14 L233.14 342.06 L233.57 341.98 L234 341.9 L234.43 341.82 L234.86 341.74 L235.29 341.65 L235.72 341.57 L236.15 341.49 L236.58 341.4 L237.01 341.32 L237.44 341.23 L237.87 341.15 L238.3 341.06 L238.73 340.98 L239.16 340.89 L239.59 340.8 L240.02 340.71 L240.45 340.62 L240.88 340.53 L241.31 340.44 L241.74 340.35 L242.17 340.26 L242.6 340.17 L243.03 340.08 L243.46 339.98 L243.89 339.89 L244.32 339.8 L244.75 339.7 L245.18 339.61 L245.61 339.51 L246.04 339.41 L246.47 339.32 L246.9 339.22 L247.33 339.12 L247.76 339.02 L248.19 338.92 L248.62 338.82 L249.05 338.72 L249.48 338.62 L249.91 338.52 L250.34 338.42 L250.77 338.31 L251.2 338.21 L251.63 338.1 L252.06 338 L252.49 337.89 L252.92 337.79 L253.35 337.68 L253.78 337.57 L254.21 337.47 L254.64 337.36 L255.07 337.25 L255.5 337.14 L255.93 337.03 L256.36 336.92 L256.79 336.8 L257.22 336.69 L257.65 336.58 L258.08 336.46 L258.51 336.35 L258.94 336.24 L259.37 336.12 L259.8 336 L260.23 335.89 L260.66 335.77 L261.09 335.65 L261.52 335.53 L261.95 335.41 L262.38 335.29 L262.81 335.17 L263.24 335.05 L263.67 334.93 L264.1 334.8 L264.53 334.68 L264.96 334.56 L265.39 334.43 L265.82 334.31 L266.25 334.18 L266.68 334.05 L267.11 333.93 L267.54 333.8 L267.97 333.67 L268.4 333.54 L268.83 333.41 L269.26 333.28 L269.69 333.15 L270.12 333.01 L270.55 332.88 L270.98 332.75 L271.41 332.61 L271.84 332.48 L272.27 332.34 L272.7 332.2 L273.13 332.07 L273.56 331.93 L273.99 331.79 L274.42 331.65 L274.85 331.51 L275.28 331.37 L275.71 331.23 L276.14 331.09 L276.57 330.94 L277 330.8 L277.43 330.66 L277.86 330.51 L278.29 330.36 L278.72 330.22 L279.15 330.07 L279.58 329.92 L280.01 329.77 L280.44 329.62 L280.87 329.47 L281.3 329.32 L281.73 329.17 L282.16 329.02 L282.59 328.87 L283.02 328.71 L283.45 328.56 L283.88 328.4 L284.31 328.25 L284.74 328.09 L285.17 327.93 L285.6 327.77 L286.03 327.61 L286.46 327.45 L286.89 327.29 L287.32 327.13 L287.75 326.97 L288.18 326.81 L288.61 326.64 L289.04 326.48 L289.47 326.31 L289.9 326.15 L290.33 325.98 L290.76 325.81 L291.19 325.65 L291.62 325.48 L292.05 325.31 L292.48 325.14 L292.91 324.96 L293.34 324.79 L293.77 324.62 L294.2 324.44 L294.63 324.27 L295.06 324.09 L295.49 323.92 L295.92 323.74 L296.35 323.56 L296.78 323.39 L297.21 323.21 L297.64 323.03 L298.07 322.84 L298.5 322.66 L298.93 322.48 L299.36 322.3 L299.79 322.11 L300.22 321.93 L300.65 321.74 L301.08 321.55 L301.51 321.37 L301.94 321.18 L302.37 320.99 L302.8 320.8 L303.23 320.61 L303.66 320.42 L304.09 320.22 L304.52 320.03 L304.95 319.84 L305.38 319.64 L305.81 319.45 L306.24 319.25 L306.67 319.05 L307.1 318.85 L307.53 318.65 L307.96 318.45 L308.39 318.25 L308.82 318.05 L309.25 317.85 L309.68 317.64 L310.11 317.44 L310.54 317.24 L310.97 317.03 L311.4 316.82 L311.83 316.61 L312.26 316.41 L312.69 316.2 L313.12 315.99 L313.55 315.77 L313.98 315.56 L314.41 315.35 L314.84 315.14 L315.27 314.92 L315.7 314.71 L316.13 314.49 L316.56 314.27 L316.99 314.05 L317.42 313.83 L317.85 313.61 L318.28 313.39 L318.71 313.17 L319.14 312.95 L319.57 312.72 L320 312.5 L320.43 312.27 L320.86 312.05 L321.29 311.82 L321.72 311.59 L322.15 311.36 L322.58 311.13 L323.01 310.9 L323.44 310.67 L323.87 310.44 L324.3 310.2 L324.73 309.97 L325.16 309.73 L325.59 309.5 L326.02 309.26 L326.45 309.02 L326.88 308.78 L327.31 308.54 L327.74 308.3 L328.17 308.06 L328.6 307.82 L329.03 307.57 L329.46 307.33 L329.89 307.08 L330.32 306.84 L330.75 306.59 L331.18 306.34 L331.61 306.09 L332.04 305.84 L332.47 305.59 L332.9 305.34 L333.33 305.08 L333.76 304.83 L334.19 304.57 L334.62 304.32 L335.05 304.06 L335.48 303.8 L335.91 303.54 L336.34 303.28 L336.77 303.02 L337.2 302.76 L337.63 302.5 L338.06 302.23 L338.49 301.97 L338.92 301.7 L339.35 301.44 L339.78 301.17 L340.21 300.9 L340.64 300.63 L341.07 300.36 L341.5 300.09 L341.93 299.81 L342.36 299.54 L342.79 299.27 L343.22 298.99 L343.65 298.71 L344.08 298.44 L344.51 298.16 L344.94 297.88 L345.37 297.6 L345.8 297.32 L346.23 297.03 L346.66 296.75 L347.09 296.46 L347.52 296.18 L347.95 295.89 L348.38 295.6 L348.81 295.31 L349.24 295.02 L349.67 294.73 L350.1 294.44 L350.53 294.15 L350.96 293.86 L351.39 293.56 L351.82 293.26 L352.25 292.97 L352.68 292.67 L353.11 292.37 L353.54 292.07 L353.97 291.77 L354.4 291.47 L354.83 291.16 L355.26 290.86 L355.69 290.55 L356.12 290.25 L356.55 289.94 L356.98 289.63 L357.41 289.32 L357.84 289.01 L358.27 288.7 L358.7 288.39 L359.13 288.07 L359.56 287.76 L359.99 287.44 L360.42 287.12 L360.85 286.81 L361.28 286.49 L361.71 286.17 L362.14 285.85 L362.57 285.52 L363 285.2 L363.43 284.88 L363.86 284.55 L364.29 284.22 L364.72 283.9 L365.15 283.57 L365.58 283.24 L366.01 282.91 L366.44 282.57 L366.87 282.24 L367.3 281.91 L367.73 281.57 L368.16 281.23 L368.59 280.9 L369.02 280.56 L369.45 280.22 L369.88 279.88 L370.31 279.53 L370.74 279.19 L371.17 278.85 L371.6 278.5 L372.03 278.16 L372.46 277.81 L372.89 277.46 L373.32 277.11 L373.75 276.76 L374.18 276.41 L374.61 276.05 L375.04 275.7 L375.47 275.34 L375.9 274.99 L376.33 274.63 L376.76 274.27 L377.19 273.91 L377.62 273.55 L378.05 273.19 L378.48 272.82 L378.91 272.46 L379.34 272.09 L379.77 271.72 L380.2 271.36 L380.63 270.99 L381.06 270.62 L381.49 270.25 L381.92 269.87 L382.35 269.5 L382.78 269.12 L383.21 268.75 L383.64 268.37 L384.07 267.99 L384.5 267.61 L384.93 267.23 L385.36 266.85 L385.79 266.47 L386.22 266.08 L386.65 265.7 L387.08 265.31 L387.51 264.92 L387.94 264.53 L388.37 264.14 L388.8 263.75 L389.23 263.36 L389.66 262.96 L390.09 262.57 L390.52 262.17 L390.95 261.78 L391.38 261.38 L391.81 260.98 L392.24 260.58 L392.67 260.17 L393.1 259.77 L393.53 259.37 L393.96 258.96 L394.39 258.55 L394.82 258.15 L395.25 257.74 L395.68 257.33 L396.11 256.91 L396.54 256.5 L396.97 256.09 L397.4 255.67 L397.83 255.25 L398.26 254.84 L398.69 254.42 L399.12 254 L399.55 253.57 L399.98 253.15 L400.41 252.73 L400.84 252.3 L401.27 251.88 L401.7 251.45 L402.13 251.02 L402.56 250.59 L402.99 250.16 L403.42 249.72 L403.85 249.29 L404.28 248.85 L404.71 248.42 L405.14 247.98 L405.57 247.54 L406 247.1 L406.43 246.66 L406.86 246.22 L407.29 245.77 L407.72 245.33 L408.15 244.88 L408.58 244.43 L409.01 243.98 L409.44 243.53 L409.87 243.08 L410.3 242.63 L410.73 242.17 L411.16 241.72 L411.59 241.26 L412.02 240.8 L412.45 240.34 L412.88 239.88 L413.31 239.42 L413.74 238.96 L414.17 238.49 L414.6 238.03 L415.03 237.56 L415.46 237.09 L415.89 236.62 L416.32 236.15 L416.75 235.68 L417.18 235.2 L417.61 234.73 L418.04 234.25 L418.47 233.77 L418.9 233.29 L419.33 232.81 L419.76 232.33 L420.19 231.85 L420.62 231.37 L421.05 230.88 L421.48 230.39 L421.91 229.91 L422.34 229.42 L422.77 228.92 L423.2 228.43 L423.63 227.94 L424.06 227.44 L424.49 226.95 L424.92 226.45 L425.35 225.95 L425.78 225.45 L426.21 224.95 L426.64 224.45 L427.07 223.94 L427.5 223.44 L427.93 222.93 L428.36 222.42 L428.79 221.91 L429.22 221.4 L429.65 220.89 L430.08 220.38 L430.51 219.86 L430.94 219.34 L431.37 218.83 L431.8 218.31 L432.23 217.79 L432.66 217.26 L433.09 216.74 L433.52 216.22 L433.95 215.69 L434.38 215.16 L434.81 214.63 L435.24 214.1 L435.67 213.57 L436.1 213.04 L436.53 212.51 L436.96 211.97 L437.39 211.43 L437.82 210.89 L438.25 210.35 L438.68 209.81 L439.11 209.27 L439.54 208.73 L439.97 208.18 L440.4 207.63 L440.83 207.09 L441.26 206.54 L441.69 205.99 L442.12 205.43 L442.55 204.88 L442.98 204.32 L443.41 203.77 L443.84 203.21 L444.27 202.65 L444.7 202.09 L445.13 201.53 L445.56 200.96 L445.99 200.4 L446.42 199.83 L446.85 199.26 L447.28 198.69 L447.71 198.12 L448.14 197.55 L448.57 196.98 L449 196.4 L449.43 195.82 L449.86 195.25 L450.29 194.67 L450.72 194.08 L451.15 193.5 L451.58 192.92 L452.01 192.33 L452.44 191.75 L452.87 191.16 L453.3 190.57 L453.73 189.98 L454.16 189.38 L454.59 188.79 L455.02 188.19 L455.45 187.6 L455.88 187 L456.31 186.4 L456.74 185.8 L457.17 185.19 L457.6 184.59 L458.03 183.98 L458.46 183.38 L458.89 182.77 L459.32 182.16 L459.75 181.55 L460.18 180.93 L460.61 180.32 L461.04 179.7 L461.47 179.08 L461.9 178.46 L462.33 177.84 L462.76 177.22 L463.19 176.6 L463.62 175.97 L464.05 175.35 L464.48 174.72 L464.91 174.09 L465.34 173.46 L465.77 172.82 L466.2 172.19 L466.63 171.55 L467.06 170.92 L467.49 170.28 L467.92 169.64 L468.35 168.99 L468.78 168.35 L469.21 167.71 L469.64 167.06 L470.07 166.41 L470.5 165.76 L470.93 165.11 L471.36 164.46 L471.79 163.8 L472.22 163.15 L472.65 162.49 L473.08 161.83 L473.51 161.17 L473.94 160.51 L474.37 159.85 L474.8 159.18 L475.23 158.52 L475.66 157.85 L476.09 157.18 L476.52 156.51 L476.95 155.84 L477.38 155.16 L477.81 154.49 L478.24 153.81 L478.67 153.13 L479.1 152.45 L479.53 151.77 L479.96 151.08 L480.39 150.4 L480.82 149.71 L481.25 149.02 L481.68 148.33 L482.11 147.64 L482.54 146.95 L482.97 146.25 L483.4 145.56 L483.83 144.86 L484.26 144.16 L484.69 143.46 L485.12 142.76 L485.55 142.05 L485.98 141.35 L486.41 140.64 L486.84 139.93 L487.27 139.22 L487.7 138.51 L488.13 137.8 L488.56 137.08 L488.99 136.36 L489.42 135.64 L489.85 134.92 L490.28 134.2 L490.71 133.48 L491.14 132.75 L491.57 132.03 L492 131.3 L492.43 130.57 L492.86 129.84 L493.29 129.11 L493.72 128.37 L494.15 127.63 L494.58 126.9 L495.01 126.16 L495.44 125.42 L495.87 124.67 L496.3 123.93 L496.73 123.18 L497.16 122.43 L497.59 121.69 L498.02 120.93 L498.45 120.18 L498.88 119.43 L499.31 118.67 L499.74 117.91 L500.17 117.15 L500.6 116.39 L501.03 115.63 L501.46 114.87 L501.89 114.1 L502.32 113.33 L502.75 112.56 L503.18 111.79 L503.61 111.02 L504.04 110.25 L504.47 109.47 L504.9 108.69 L505.33 107.91 L505.76 107.13 L506.19 106.35 L506.62 105.57 L507.05 104.78 L507.48 103.99 L507.91 103.2 L508.34 102.41 L508.77 101.62 L509.2 100.82 L509.63 100.03 L510.06 99.23 L510.49 98.43 L510.92 97.63 L511.35 96.83 L511.78 96.02 L512.21 95.22 L512.64 94.41 L513.07 93.6 L513.5 92.79 L513.93 91.97 L514.36 91.16 L514.79 90.34 L515.22 89.52 L515.65 88.7 L516.08 87.88 L516.51 87.06 L516.94 86.23 L517.37 85.41 L517.8 84.58 L518.23 83.75 L518.66 82.92 L519.09 82.08 L519.52 81.25 L519.95 80.41 L520.38 79.57 L520.81 78.73 L521.24 77.89 L521.67 77.04 L522.1 76.2 L522.53 75.35 L522.96 74.5 L523.39 73.65 L523.82 72.8 L524.25 71.94 L524.68 71.09 L525.11 70.23 L525.54 69.37 L525.97 68.51 L526.4 67.64 L526.83 66.78 L527.26 65.91 L527.69 65.04 L528.12 64.17 L528.55 63.3 L528.98 62.42 L529.41 61.55 L529.84 60.67 L530.27 59.79 L530.7 58.91 L531.13 58.03 L531.56 57.14 L531.99 56.26 L532.42 55.37 L532.85 54.48 L533.28 53.59 L533.71 52.69 L534.14 51.8 L534.57 50.9 L535 50" fill="none" stroke="#6670ee" stroke-width="3"/>
  <line x1="449.24" y1="50" x2="449.24" y2="350" stroke="#292b27" stroke-width="1.6"/>
  <text x="442.24" y="290" transform="rotate(-90 442.24 290)" text-anchor="middle" font-family="-apple-system,BlinkMacSystemFont,PingFang SC,Noto Sans CJK SC,sans-serif" font-size="15" font-weight="700" fill="#30332e">均值</text>
  <line x1="466.56" y1="50" x2="466.56" y2="350" stroke="#292b27" stroke-width="1.6"/>
  <text x="459.56" y="245" transform="rotate(-90 459.56 245)" text-anchor="middle" font-family="-apple-system,BlinkMacSystemFont,PingFang SC,Noto Sans CJK SC,sans-serif" font-size="15" font-weight="700" fill="#30332e">中位数</text>
  <line x1="534.38" y1="50" x2="534.38" y2="350" stroke="#292b27" stroke-width="1.6"/>
  <text x="527.38" y="200" transform="rotate(-90 527.38 200)" text-anchor="middle" font-family="-apple-system,BlinkMacSystemFont,PingFang SC,Noto Sans CJK SC,sans-serif" font-size="15" font-weight="700" fill="#30332e">众数</text>
  <rect x="700" y="50" width="430" height="300" fill="#fff" stroke="#363934" stroke-width="1.3"/>
  <line x1="700" y1="350" x2="700" y2="357" stroke="#363934"/>
  <text x="700" y="377" text-anchor="middle" font-family="-apple-system,BlinkMacSystemFont,PingFang SC,Noto Sans CJK SC,sans-serif" font-size="14" fill="#30332e">0</text>
  <line x1="786" y1="350" x2="786" y2="357" stroke="#363934"/>
  <text x="786" y="377" text-anchor="middle" font-family="-apple-system,BlinkMacSystemFont,PingFang SC,Noto Sans CJK SC,sans-serif" font-size="14" fill="#30332e">0.2</text>
  <line x1="872" y1="350" x2="872" y2="357" stroke="#363934"/>
  <text x="872" y="377" text-anchor="middle" font-family="-apple-system,BlinkMacSystemFont,PingFang SC,Noto Sans CJK SC,sans-serif" font-size="14" fill="#30332e">0.4</text>
  <line x1="958" y1="350" x2="958" y2="357" stroke="#363934"/>
  <text x="958" y="377" text-anchor="middle" font-family="-apple-system,BlinkMacSystemFont,PingFang SC,Noto Sans CJK SC,sans-serif" font-size="14" fill="#30332e">0.6</text>
  <line x1="1044" y1="350" x2="1044" y2="357" stroke="#363934"/>
  <text x="1044" y="377" text-anchor="middle" font-family="-apple-system,BlinkMacSystemFont,PingFang SC,Noto Sans CJK SC,sans-serif" font-size="14" fill="#30332e">0.8</text>
  <line x1="1130" y1="350" x2="1130" y2="357" stroke="#363934"/>
  <text x="1130" y="377" text-anchor="middle" font-family="-apple-system,BlinkMacSystemFont,PingFang SC,Noto Sans CJK SC,sans-serif" font-size="14" fill="#30332e">1</text>
  <line x1="693" y1="350" x2="700" y2="350" stroke="#363934"/>
  <text x="688" y="355" text-anchor="end" font-family="-apple-system,BlinkMacSystemFont,PingFang SC,Noto Sans CJK SC,sans-serif" font-size="14" fill="#30332e">0</text>
  <line x1="693" y1="275" x2="700" y2="275" stroke="#363934"/>
  <text x="688" y="280" text-anchor="end" font-family="-apple-system,BlinkMacSystemFont,PingFang SC,Noto Sans CJK SC,sans-serif" font-size="14" fill="#30332e">0.21</text>
  <line x1="693" y1="200" x2="700" y2="200" stroke="#363934"/>
  <text x="688" y="205" text-anchor="end" font-family="-apple-system,BlinkMacSystemFont,PingFang SC,Noto Sans CJK SC,sans-serif" font-size="14" fill="#30332e">0.42</text>
  <line x1="693" y1="125" x2="700" y2="125" stroke="#363934"/>
  <text x="688" y="130" text-anchor="end" font-family="-apple-system,BlinkMacSystemFont,PingFang SC,Noto Sans CJK SC,sans-serif" font-size="14" fill="#30332e">0.64</text>
  <line x1="693" y1="50" x2="700" y2="50" stroke="#363934"/>
  <text x="688" y="55" text-anchor="end" font-family="-apple-system,BlinkMacSystemFont,PingFang SC,Noto Sans CJK SC,sans-serif" font-size="14" fill="#30332e">0.85</text>
  <text x="915" y="408" text-anchor="middle" font-family="-apple-system,BlinkMacSystemFont,PingFang SC,Noto Sans CJK SC,sans-serif" font-size="17" fill="#30332e">决策值</text>
  <text x="645" y="200" transform="rotate(-90 645 200)" text-anchor="middle" font-family="-apple-system,BlinkMacSystemFont,PingFang SC,Noto Sans CJK SC,sans-serif" font-size="17" fill="#30332e">期望比例损失</text>
  <path d="M700 66.94 L700.43 67.29 L700.86 67.65 L701.29 68 L701.72 68.36 L702.15 68.71 L702.58 69.06 L703.01 69.42 L703.44 69.77 L703.87 70.12 L704.3 70.48 L704.73 70.83 L705.16 71.18 L705.59 71.54 L706.02 71.89 L706.45 72.25 L706.88 72.6 L707.31 72.95 L707.74 73.31 L708.17 73.66 L708.6 74.01 L709.03 74.37 L709.46 74.72 L709.89 75.07 L710.32 75.43 L710.75 75.78 L711.18 76.14 L711.61 76.49 L712.04 76.84 L712.47 77.2 L712.9 77.55 L713.33 77.9 L713.76 78.26 L714.19 78.61 L714.62 78.96 L715.05 79.32 L715.48 79.67 L715.91 80.03 L716.34 80.38 L716.77 80.73 L717.2 81.09 L717.63 81.44 L718.06 81.79 L718.49 82.15 L718.92 82.5 L719.35 82.85 L719.78 83.21 L720.21 83.56 L720.64 83.92 L721.07 84.27 L721.5 84.62 L721.93 84.98 L722.36 85.33 L722.79 85.68 L723.22 86.04 L723.65 86.39 L724.08 86.74 L724.51 87.1 L724.94 87.45 L725.37 87.81 L725.8 88.16 L726.23 88.51 L726.66 88.87 L727.09 89.22 L727.52 89.57 L727.95 89.93 L728.38 90.28 L728.81 90.63 L729.24 90.99 L729.67 91.34 L730.1 91.7 L730.53 92.05 L730.96 92.4 L731.39 92.76 L731.82 93.11 L732.25 93.46 L732.68 93.82 L733.11 94.17 L733.54 94.52 L733.97 94.88 L734.4 95.23 L734.83 95.59 L735.26 95.94 L735.69 96.29 L736.12 96.65 L736.55 97 L736.98 97.35 L737.41 97.71 L737.84 98.06 L738.27 98.41 L738.7 98.77 L739.13 99.12 L739.56 99.48 L739.99 99.83 L740.42 100.18 L740.85 100.54 L741.28 100.89 L741.71 101.24 L742.14 101.6 L742.57 101.95 L743 102.3 L743.43 102.66 L743.86 103.01 L744.29 103.36 L744.72 103.72 L745.15 104.07 L745.58 104.43 L746.01 104.78 L746.44 105.13 L746.87 105.49 L747.3 105.84 L747.73 106.19 L748.16 106.55 L748.59 106.9 L749.02 107.25 L749.45 107.61 L749.88 107.96 L750.31 108.31 L750.74 108.67 L751.17 109.02 L751.6 109.37 L752.03 109.73 L752.46 110.08 L752.89 110.44 L753.32 110.79 L753.75 111.14 L754.18 111.5 L754.61 111.85 L755.04 112.2 L755.47 112.56 L755.9 112.91 L756.33 113.26 L756.76 113.62 L757.19 113.97 L757.62 114.32 L758.05 114.68 L758.48 115.03 L758.91 115.38 L759.34 115.74 L759.77 116.09 L760.2 116.44 L760.63 116.8 L761.06 117.15 L761.49 117.5 L761.92 117.86 L762.35 118.21 L762.78 118.56 L763.21 118.92 L763.64 119.27 L764.07 119.62 L764.5 119.98 L764.93 120.33 L765.36 120.68 L765.79 121.04 L766.22 121.39 L766.65 121.74 L767.08 122.1 L767.51 122.45 L767.94 122.8 L768.37 123.16 L768.8 123.51 L769.23 123.86 L769.66 124.22 L770.09 124.57 L770.52 124.92 L770.95 125.28 L771.38 125.63 L771.81 125.98 L772.24 126.33 L772.67 126.69 L773.1 127.04 L773.53 127.39 L773.96 127.75 L774.39 128.1 L774.82 128.45 L775.25 128.81 L775.68 129.16 L776.11 129.51 L776.54 129.86 L776.97 130.22 L777.4 130.57 L777.83 130.92 L778.26 131.28 L778.69 131.63 L779.12 131.98 L779.55 132.33 L779.98 132.69 L780.41 133.04 L780.84 133.39 L781.27 133.75 L781.7 134.1 L782.13 134.45 L782.56 134.8 L782.99 135.16 L783.42 135.51 L783.85 135.86 L784.28 136.21 L784.71 136.57 L785.14 136.92 L785.57 137.27 L786 137.63 L786.43 137.98 L786.86 138.33 L787.29 138.68 L787.72 139.03 L788.15 139.39 L788.58 139.74 L789.01 140.09 L789.44 140.44 L789.87 140.8 L790.3 141.15 L790.73 141.5 L791.16 141.85 L791.59 142.21 L792.02 142.56 L792.45 142.91 L792.88 143.26 L793.31 143.61 L793.74 143.97 L794.17 144.32 L794.6 144.67 L795.03 145.02 L795.46 145.37 L795.89 145.73 L796.32 146.08 L796.75 146.43 L797.18 146.78 L797.61 147.13 L798.04 147.49 L798.47 147.84 L798.9 148.19 L799.33 148.54 L799.76 148.89 L800.19 149.24 L800.62 149.6 L801.05 149.95 L801.48 150.3 L801.91 150.65 L802.34 151 L802.77 151.35 L803.2 151.7 L803.63 152.05 L804.06 152.41 L804.49 152.76 L804.92 153.11 L805.35 153.46 L805.78 153.81 L806.21 154.16 L806.64 154.51 L807.07 154.86 L807.5 155.21 L807.93 155.57 L808.36 155.92 L808.79 156.27 L809.22 156.62 L809.65 156.97 L810.08 157.32 L810.51 157.67 L810.94 158.02 L811.37 158.37 L811.8 158.72 L812.23 159.07 L812.66 159.42 L813.09 159.77 L813.52 160.12 L813.95 160.47 L814.38 160.82 L814.81 161.17 L815.24 161.52 L815.67 161.87 L816.1 162.22 L816.53 162.57 L816.96 162.92 L817.39 163.27 L817.82 163.62 L818.25 163.97 L818.68 164.32 L819.11 164.67 L819.54 165.02 L819.97 165.37 L820.4 165.72 L820.83 166.07 L821.26 166.42 L821.69 166.77 L822.12 167.12 L822.55 167.46 L822.98 167.81 L823.41 168.16 L823.84 168.51 L824.27 168.86 L824.7 169.21 L825.13 169.56 L825.56 169.91 L825.99 170.25 L826.42 170.6 L826.85 170.95 L827.28 171.3 L827.71 171.65 L828.14 172 L828.57 172.34 L829 172.69 L829.43 173.04 L829.86 173.39 L830.29 173.74 L830.72 174.08 L831.15 174.43 L831.58 174.78 L832.01 175.13 L832.44 175.47 L832.87 175.82 L833.3 176.17 L833.73 176.51 L834.16 176.86 L834.59 177.21 L835.02 177.56 L835.45 177.9 L835.88 178.25 L836.31 178.6 L836.74 178.94 L837.17 179.29 L837.6 179.63 L838.03 179.98 L838.46 180.33 L838.89 180.67 L839.32 181.02 L839.75 181.36 L840.18 181.71 L840.61 182.06 L841.04 182.4 L841.47 182.75 L841.9 183.09 L842.33 183.44 L842.76 183.78 L843.19 184.13 L843.62 184.47 L844.05 184.82 L844.48 185.16 L844.91 185.51 L845.34 185.85 L845.77 186.2 L846.2 186.54 L846.63 186.88 L847.06 187.23 L847.49 187.57 L847.92 187.92 L848.35 188.26 L848.78 188.6 L849.21 188.95 L849.64 189.29 L850.07 189.63 L850.5 189.98 L850.93 190.32 L851.36 190.66 L851.79 191 L852.22 191.35 L852.65 191.69 L853.08 192.03 L853.51 192.37 L853.94 192.72 L854.37 193.06 L854.8 193.4 L855.23 193.74 L855.66 194.08 L856.09 194.42 L856.52 194.77 L856.95 195.11 L857.38 195.45 L857.81 195.79 L858.24 196.13 L858.67 196.47 L859.1 196.81 L859.53 197.15 L859.96 197.49 L860.39 197.83 L860.82 198.17 L861.25 198.51 L861.68 198.85 L862.11 199.19 L862.54 199.53 L862.97 199.87 L863.4 200.21 L863.83 200.55 L864.26 200.89 L864.69 201.22 L865.12 201.56 L865.55 201.9 L865.98 202.24 L866.41 202.58 L866.84 202.91 L867.27 203.25 L867.7 203.59 L868.13 203.93 L868.56 204.26 L868.99 204.6 L869.42 204.94 L869.85 205.27 L870.28 205.61 L870.71 205.95 L871.14 206.28 L871.57 206.62 L872 206.95 L872.43 207.29 L872.86 207.62 L873.29 207.96 L873.72 208.29 L874.15 208.63 L874.58 208.96 L875.01 209.3 L875.44 209.63 L875.87 209.97 L876.3 210.3 L876.73 210.63 L877.16 210.97 L877.59 211.3 L878.02 211.63 L878.45 211.97 L878.88 212.3 L879.31 212.63 L879.74 212.96 L880.17 213.3 L880.6 213.63 L881.03 213.96 L881.46 214.29 L881.89 214.62 L882.32 214.95 L882.75 215.28 L883.18 215.61 L883.61 215.94 L884.04 216.27 L884.47 216.6 L884.9 216.93 L885.33 217.26 L885.76 217.59 L886.19 217.92 L886.62 218.25 L887.05 218.58 L887.48 218.91 L887.91 219.23 L888.34 219.56 L888.77 219.89 L889.2 220.22 L889.63 220.54 L890.06 220.87 L890.49 221.2 L890.92 221.52 L891.35 221.85 L891.78 222.18 L892.21 222.5 L892.64 222.83 L893.07 223.15 L893.5 223.48 L893.93 223.8 L894.36 224.13 L894.79 224.45 L895.22 224.77 L895.65 225.1 L896.08 225.42 L896.51 225.74 L896.94 226.07 L897.37 226.39 L897.8 226.71 L898.23 227.03 L898.66 227.35 L899.09 227.68 L899.52 228 L899.95 228.32 L900.38 228.64 L900.81 228.96 L901.24 229.28 L901.67 229.6 L902.1 229.92 L902.53 230.24 L902.96 230.56 L903.39 230.87 L903.82 231.19 L904.25 231.51 L904.68 231.83 L905.11 232.14 L905.54 232.46 L905.97 232.78 L906.4 233.09 L906.83 233.41 L907.26 233.73 L907.69 234.04 L908.12 234.36 L908.55 234.67 L908.98 234.99 L909.41 235.3 L909.84 235.61 L910.27 235.93 L910.7 236.24 L911.13 236.55 L911.56 236.87 L911.99 237.18 L912.42 237.49 L912.85 237.8 L913.28 238.11 L913.71 238.42 L914.14 238.73 L914.57 239.04 L915 239.35 L915.43 239.66 L915.86 239.97 L916.29 240.28 L916.72 240.59 L917.15 240.9 L917.58 241.2 L918.01 241.51 L918.44 241.82 L918.87 242.12 L919.3 242.43 L919.73 242.74 L920.16 243.04 L920.59 243.35 L921.02 243.65 L921.45 243.95 L921.88 244.26 L922.31 244.56 L922.74 244.86 L923.17 245.17 L923.6 245.47 L924.03 245.77 L924.46 246.07 L924.89 246.37 L925.32 246.67 L925.75 246.97 L926.18 247.27 L926.61 247.57 L927.04 247.87 L927.47 248.17 L927.9 248.47 L928.33 248.77 L928.76 249.06 L929.19 249.36 L929.62 249.66 L930.05 249.95 L930.48 250.25 L930.91 250.55 L931.34 250.84 L931.77 251.13 L932.2 251.43 L932.63 251.72 L933.06 252.01 L933.49 252.31 L933.92 252.6 L934.35 252.89 L934.78 253.18 L935.21 253.47 L935.64 253.76 L936.07 254.05 L936.5 254.34 L936.93 254.63 L937.36 254.92 L937.79 255.21 L938.22 255.49 L938.65 255.78 L939.08 256.07 L939.51 256.35 L939.94 256.64 L940.37 256.92 L940.8 257.21 L941.23 257.49 L941.66 257.78 L942.09 258.06 L942.52 258.34 L942.95 258.62 L943.38 258.9 L943.81 259.19 L944.24 259.47 L944.67 259.75 L945.1 260.03 L945.53 260.3 L945.96 260.58 L946.39 260.86 L946.82 261.14 L947.25 261.41 L947.68 261.69 L948.11 261.97 L948.54 262.24 L948.97 262.52 L949.4 262.79 L949.83 263.06 L950.26 263.34 L950.69 263.61 L951.12 263.88 L951.55 264.15 L951.98 264.42 L952.41 264.69 L952.84 264.96 L953.27 265.23 L953.7 265.5 L954.13 265.77 L954.56 266.03 L954.99 266.3 L955.42 266.57 L955.85 266.83 L956.28 267.1 L956.71 267.36 L957.14 267.63 L957.57 267.89 L958 268.15 L958.43 268.41 L958.86 268.67 L959.29 268.94 L959.72 269.2 L960.15 269.45 L960.58 269.71 L961.01 269.97 L961.44 270.23 L961.87 270.49 L962.3 270.74 L962.73 271 L963.16 271.25 L963.59 271.51 L964.02 271.76 L964.45 272.01 L964.88 272.27 L965.31 272.52 L965.74 272.77 L966.17 273.02 L966.6 273.27 L967.03 273.52 L967.46 273.77 L967.89 274.01 L968.32 274.26 L968.75 274.51 L969.18 274.75 L969.61 275 L970.04 275.24 L970.47 275.48 L970.9 275.73 L971.33 275.97 L971.76 276.21 L972.19 276.45 L972.62 276.69 L973.05 276.93 L973.48 277.17 L973.91 277.41 L974.34 277.64 L974.77 277.88 L975.2 278.12 L975.63 278.35 L976.06 278.59 L976.49 278.82 L976.92 279.05 L977.35 279.28 L977.78 279.51 L978.21 279.74 L978.64 279.97 L979.07 280.2 L979.5 280.43 L979.93 280.66 L980.36 280.88 L980.79 281.11 L981.22 281.34 L981.65 281.56 L982.08 281.78 L982.51 282.01 L982.94 282.23 L983.37 282.45 L983.8 282.67 L984.23 282.89 L984.66 283.11 L985.09 283.32 L985.52 283.54 L985.95 283.76 L986.38 283.97 L986.81 284.19 L987.24 284.4 L987.67 284.61 L988.1 284.82 L988.53 285.03 L988.96 285.25 L989.39 285.45 L989.82 285.66 L990.25 285.87 L990.68 286.08 L991.11 286.28 L991.54 286.49 L991.97 286.69 L992.4 286.89 L992.83 287.1 L993.26 287.3 L993.69 287.5 L994.12 287.7 L994.55 287.9 L994.98 288.1 L995.41 288.29 L995.84 288.49 L996.27 288.68 L996.7 288.88 L997.13 289.07 L997.56 289.26 L997.99 289.45 L998.42 289.64 L998.85 289.83 L999.28 290.02 L999.71 290.21 L1000.14 290.4 L1000.57 290.58 L1001 290.77 L1001.43 290.95 L1001.86 291.13 L1002.29 291.31 L1002.72 291.5 L1003.15 291.68 L1003.58 291.85 L1004.01 292.03 L1004.44 292.21 L1004.87 292.38 L1005.3 292.56 L1005.73 292.73 L1006.16 292.91 L1006.59 293.08 L1007.02 293.25 L1007.45 293.42 L1007.88 293.59 L1008.31 293.75 L1008.74 293.92 L1009.17 294.09 L1009.6 294.25 L1010.03 294.41 L1010.46 294.58 L1010.89 294.74 L1011.32 294.9 L1011.75 295.06 L1012.18 295.22 L1012.61 295.37 L1013.04 295.53 L1013.47 295.68 L1013.9 295.84 L1014.33 295.99 L1014.76 296.14 L1015.19 296.29 L1015.62 296.44 L1016.05 296.59 L1016.48 296.74 L1016.91 296.88 L1017.34 297.03 L1017.77 297.17 L1018.2 297.31 L1018.63 297.45 L1019.06 297.59 L1019.49 297.73 L1019.92 297.87 L1020.35 298.01 L1020.78 298.14 L1021.21 298.28 L1021.64 298.41 L1022.07 298.54 L1022.5 298.67 L1022.93 298.8 L1023.36 298.93 L1023.79 299.06 L1024.22 299.19 L1024.65 299.31 L1025.08 299.43 L1025.51 299.56 L1025.94 299.68 L1026.37 299.8 L1026.8 299.92 L1027.23 300.03 L1027.66 300.15 L1028.09 300.27 L1028.52 300.38 L1028.95 300.49 L1029.38 300.6 L1029.81 300.71 L1030.24 300.82 L1030.67 300.93 L1031.1 301.04 L1031.53 301.14 L1031.96 301.24 L1032.39 301.35 L1032.82 301.45 L1033.25 301.55 L1033.68 301.65 L1034.11 301.74 L1034.54 301.84 L1034.97 301.93 L1035.4 302.03 L1035.83 302.12 L1036.26 302.21 L1036.69 302.3 L1037.12 302.38 L1037.55 302.47 L1037.98 302.56 L1038.41 302.64 L1038.84 302.72 L1039.27 302.8 L1039.7 302.88 L1040.13 302.96 L1040.56 303.04 L1040.99 303.11 L1041.42 303.19 L1041.85 303.26 L1042.28 303.33 L1042.71 303.4 L1043.14 303.47 L1043.57 303.53 L1044 303.6 L1044.43 303.66 L1044.86 303.72 L1045.29 303.79 L1045.72 303.84 L1046.15 303.9 L1046.58 303.96 L1047.01 304.01 L1047.44 304.07 L1047.87 304.12 L1048.3 304.17 L1048.73 304.22 L1049.16 304.27 L1049.59 304.31 L1050.02 304.36 L1050.45 304.4 L1050.88 304.44 L1051.31 304.48 L1051.74 304.52 L1052.17 304.56 L1052.6 304.59 L1053.03 304.63 L1053.46 304.66 L1053.89 304.69 L1054.32 304.72 L1054.75 304.74 L1055.18 304.77 L1055.61 304.8 L1056.04 304.82 L1056.47 304.84 L1056.9 304.86 L1057.33 304.88 L1057.76 304.89 L1058.19 304.91 L1058.62 304.92 L1059.05 304.93 L1059.48 304.94 L1059.91 304.95 L1060.34 304.96 L1060.77 304.96 L1061.2 304.96 L1061.63 304.96 L1062.06 304.96 L1062.49 304.96 L1062.92 304.96 L1063.35 304.95 L1063.78 304.95 L1064.21 304.94 L1064.64 304.93 L1065.07 304.91 L1065.5 304.9 L1065.93 304.88 L1066.36 304.87 L1066.79 304.85 L1067.22 304.83 L1067.65 304.8 L1068.08 304.78 L1068.51 304.75 L1068.94 304.73 L1069.37 304.7 L1069.8 304.66 L1070.23 304.63 L1070.66 304.6 L1071.09 304.56 L1071.52 304.52 L1071.95 304.48 L1072.38 304.44 L1072.81 304.39 L1073.24 304.35 L1073.67 304.3 L1074.1 304.25 L1074.53 304.2 L1074.96 304.14 L1075.39 304.09 L1075.82 304.03 L1076.25 303.97 L1076.68 303.91 L1077.11 303.85 L1077.54 303.78 L1077.97 303.72 L1078.4 303.65 L1078.83 303.58 L1079.26 303.5 L1079.69 303.43 L1080.12 303.35 L1080.55 303.27 L1080.98 303.19 L1081.41 303.11 L1081.84 303.03 L1082.27 302.94 L1082.7 302.85 L1083.13 302.76 L1083.56 302.67 L1083.99 302.58 L1084.42 302.48 L1084.85 302.38 L1085.28 302.28 L1085.71 302.18 L1086.14 302.08 L1086.57 301.97 L1087 301.86 L1087.43 301.75 L1087.86 301.64 L1088.29 301.52 L1088.72 301.41 L1089.15 301.29 L1089.58 301.17 L1090.01 301.04 L1090.44 300.92 L1090.87 300.79 L1091.3 300.66 L1091.73 300.53 L1092.16 300.4 L1092.59 300.26 L1093.02 300.12 L1093.45 299.98 L1093.88 299.84 L1094.31 299.7 L1094.74 299.55 L1095.17 299.4 L1095.6 299.25 L1096.03 299.1 L1096.46 298.94 L1096.89 298.78 L1097.32 298.62 L1097.75 298.46 L1098.18 298.3 L1098.61 298.13 L1099.04 297.96 L1099.47 297.79 L1099.9 297.62 L1100.33 297.44 L1100.76 297.26 L1101.19 297.08 L1101.62 296.9 L1102.05 296.72 L1102.48 296.53 L1102.91 296.34 L1103.34 296.15 L1103.77 295.96 L1104.2 295.76 L1104.63 295.56 L1105.06 295.36 L1105.49 295.16 L1105.92 294.95 L1106.35 294.74 L1106.78 294.53 L1107.21 294.32 L1107.64 294.1 L1108.07 293.89 L1108.5 293.67 L1108.93 293.44 L1109.36 293.22 L1109.79 292.99 L1110.22 292.76 L1110.65 292.53 L1111.08 292.29 L1111.51 292.06 L1111.94 291.82 L1112.37 291.58 L1112.8 291.33 L1113.23 291.08 L1113.66 290.83 L1114.09 290.58 L1114.52 290.33 L1114.95 290.07 L1115.38 289.81 L1115.81 289.55 L1116.24 289.28 L1116.67 289.02 L1117.1 288.75 L1117.53 288.47 L1117.96 288.2 L1118.39 287.92 L1118.82 287.64 L1119.25 287.36 L1119.68 287.07 L1120.11 286.78 L1120.54 286.49 L1120.97 286.2 L1121.4 285.9 L1121.83 285.6 L1122.26 285.3 L1122.69 285 L1123.12 284.69 L1123.55 284.38 L1123.98 284.07 L1124.41 283.76 L1124.84 283.44 L1125.27 283.12 L1125.7 282.79 L1126.13 282.47 L1126.56 282.14 L1126.99 281.81 L1127.42 281.47 L1127.85 281.14 L1128.28 280.8 L1128.71 280.46 L1129.14 280.11 L1129.57 279.76 L1130 279.41" fill="none" stroke="#6670ee" stroke-width="3"/>
  <circle cx="1061.63" cy="304.96" r="6" fill="#fff" stroke="#263f86" stroke-width="2.5"/>
  <text x="1061.63" y="288.96" text-anchor="middle" font-family="-apple-system,BlinkMacSystemFont,PingFang SC,Noto Sans CJK SC,sans-serif" font-size="15" font-weight="700" fill="#263f86">中位数</text>
</svg>
