<?xml version="1.0" encoding="UTF-8"?>
<svg xmlns="http://www.w3.org/2000/svg" width="1200" height="570" viewBox="0 0 1200 570" role="img">
  <title>同一后验预测分布的两种替代视图</title>
  <desc>左图显示九次投掷中最长连续段的后验预测频数，观测值为三；右图显示水域与陆地切换次数的后验预测频数，观测值为六。</desc>
  <rect width="100%" height="100%" fill="#ffffff"/>
  <text x="34" y="260.0" transform="rotate(-90 34 260.0)" text-anchor="middle" font-family="-apple-system,BlinkMacSystemFont,PingFang SC,Noto Sans CJK SC,sans-serif" font-size="19" fill="#30332e">频数</text>
  <text x="632" y="260.0" transform="rotate(-90 632 260.0)" text-anchor="middle" font-family="-apple-system,BlinkMacSystemFont,PingFang SC,Noto Sans CJK SC,sans-serif" font-size="19" fill="#30332e">频数</text>
  <rect x="125" y="90" width="440" height="340" fill="#fff" stroke="#363934" stroke-width="1.3"/>
  <rect x="136.73" y="427.28" width="25.42" height="2.72" fill="#4d524e" opacity="0.82"/>
  <line x1="149.44" y1="430" x2="149.44" y2="437" stroke="#363934"/>
  <text x="149.44" y="459" text-anchor="middle" font-family="-apple-system,BlinkMacSystemFont,PingFang SC,Noto Sans CJK SC,sans-serif" font-size="15" fill="#30332e">1</text>
  <rect x="185.62" y="273.05" width="25.42" height="156.95" fill="#4d524e" opacity="0.82"/>
  <line x1="198.33" y1="430" x2="198.33" y2="437" stroke="#363934"/>
  <text x="198.33" y="459" text-anchor="middle" font-family="-apple-system,BlinkMacSystemFont,PingFang SC,Noto Sans CJK SC,sans-serif" font-size="15" fill="#30332e">2</text>
  <rect x="234.51" y="114.38" width="25.42" height="315.62" fill="#4d524e" opacity="0.82"/>
  <line x1="247.22" y1="430" x2="247.22" y2="437" stroke="#363934"/>
  <text x="247.22" y="459" text-anchor="middle" font-family="-apple-system,BlinkMacSystemFont,PingFang SC,Noto Sans CJK SC,sans-serif" font-size="15" fill="#30332e">3</text>
  <rect x="283.4" y="178.8" width="25.42" height="251.2" fill="#4d524e" opacity="0.82"/>
  <line x1="296.11" y1="430" x2="296.11" y2="437" stroke="#363934"/>
  <text x="296.11" y="459" text-anchor="middle" font-family="-apple-system,BlinkMacSystemFont,PingFang SC,Noto Sans CJK SC,sans-serif" font-size="15" fill="#30332e">4</text>
  <rect x="332.29" y="272.81" width="25.42" height="157.19" fill="#4d524e" opacity="0.82"/>
  <line x1="345" y1="430" x2="345" y2="437" stroke="#363934"/>
  <text x="345" y="459" text-anchor="middle" font-family="-apple-system,BlinkMacSystemFont,PingFang SC,Noto Sans CJK SC,sans-serif" font-size="15" fill="#30332e">5</text>
  <rect x="381.18" y="337.23" width="25.42" height="92.77" fill="#4d524e" opacity="0.82"/>
  <line x1="393.89" y1="430" x2="393.89" y2="437" stroke="#363934"/>
  <text x="393.89" y="459" text-anchor="middle" font-family="-apple-system,BlinkMacSystemFont,PingFang SC,Noto Sans CJK SC,sans-serif" font-size="15" fill="#30332e">6</text>
  <rect x="430.07" y="373.12" width="25.42" height="56.88" fill="#4d524e" opacity="0.82"/>
  <line x1="442.78" y1="430" x2="442.78" y2="437" stroke="#363934"/>
  <text x="442.78" y="459" text-anchor="middle" font-family="-apple-system,BlinkMacSystemFont,PingFang SC,Noto Sans CJK SC,sans-serif" font-size="15" fill="#30332e">7</text>
  <rect x="478.96" y="394.1" width="25.42" height="35.9" fill="#4d524e" opacity="0.82"/>
  <line x1="491.67" y1="430" x2="491.67" y2="437" stroke="#363934"/>
  <text x="491.67" y="459" text-anchor="middle" font-family="-apple-system,BlinkMacSystemFont,PingFang SC,Noto Sans CJK SC,sans-serif" font-size="15" fill="#30332e">8</text>
  <rect x="527.84" y="365.9" width="25.42" height="64.1" fill="#4d524e" opacity="0.82"/>
  <line x1="540.56" y1="430" x2="540.56" y2="437" stroke="#363934"/>
  <text x="540.56" y="459" text-anchor="middle" font-family="-apple-system,BlinkMacSystemFont,PingFang SC,Noto Sans CJK SC,sans-serif" font-size="15" fill="#30332e">9</text>
  <line x1="247.22" y1="430" x2="247.22" y2="114.38" stroke="#179bd7" stroke-width="8" stroke-linecap="round"/>
  <circle cx="247.22" cy="114.38" r="5" fill="#179bd7"/>
  <text x="345" y="497" text-anchor="middle" font-family="-apple-system,BlinkMacSystemFont,PingFang SC,Noto Sans CJK SC,sans-serif" font-size="19" fill="#30332e">最长连续段长度</text>
  <line x1="118" y1="430" x2="125" y2="430" stroke="#363934"/>
  <text x="112" y="435" text-anchor="end" font-family="-apple-system,BlinkMacSystemFont,PingFang SC,Noto Sans CJK SC,sans-serif" font-size="14" fill="#30332e">0</text>
  <line x1="118" y1="373.33" x2="125" y2="373.33" stroke="#363934"/>
  <text x="112" y="378.33" text-anchor="end" font-family="-apple-system,BlinkMacSystemFont,PingFang SC,Noto Sans CJK SC,sans-serif" font-size="14" fill="#30332e">500</text>
  <line x1="118" y1="260" x2="125" y2="260" stroke="#363934"/>
  <text x="112" y="265" text-anchor="end" font-family="-apple-system,BlinkMacSystemFont,PingFang SC,Noto Sans CJK SC,sans-serif" font-size="14" fill="#30332e">1,500</text>
  <line x1="118" y1="146.67" x2="125" y2="146.67" stroke="#363934"/>
  <text x="112" y="151.67" text-anchor="end" font-family="-apple-system,BlinkMacSystemFont,PingFang SC,Noto Sans CJK SC,sans-serif" font-size="14" fill="#30332e">2,500</text>
  <rect x="690" y="90" width="440" height="340" fill="#fff" stroke="#363934" stroke-width="1.3"/>
  <rect x="701.73" y="365.9" width="25.42" height="64.1" fill="#4d524e" opacity="0.82"/>
  <line x1="714.44" y1="430" x2="714.44" y2="437" stroke="#363934"/>
  <text x="714.44" y="459" text-anchor="middle" font-family="-apple-system,BlinkMacSystemFont,PingFang SC,Noto Sans CJK SC,sans-serif" font-size="15" fill="#30332e">0</text>
  <rect x="750.62" y="367.22" width="25.42" height="62.78" fill="#4d524e" opacity="0.82"/>
  <line x1="763.33" y1="430" x2="763.33" y2="437" stroke="#363934"/>
  <text x="763.33" y="459" text-anchor="middle" font-family="-apple-system,BlinkMacSystemFont,PingFang SC,Noto Sans CJK SC,sans-serif" font-size="15" fill="#30332e">1</text>
  <rect x="799.51" y="210.26" width="25.42" height="219.74" fill="#4d524e" opacity="0.82"/>
  <line x1="812.22" y1="430" x2="812.22" y2="437" stroke="#363934"/>
  <text x="812.22" y="459" text-anchor="middle" font-family="-apple-system,BlinkMacSystemFont,PingFang SC,Noto Sans CJK SC,sans-serif" font-size="15" fill="#30332e">2</text>
  <rect x="848.4" y="206.22" width="25.42" height="223.78" fill="#4d524e" opacity="0.82"/>
  <line x1="861.11" y1="430" x2="861.11" y2="437" stroke="#363934"/>
  <text x="861.11" y="459" text-anchor="middle" font-family="-apple-system,BlinkMacSystemFont,PingFang SC,Noto Sans CJK SC,sans-serif" font-size="15" fill="#30332e">3</text>
  <rect x="897.29" y="150.28" width="25.42" height="279.72" fill="#4d524e" opacity="0.82"/>
  <line x1="910" y1="430" x2="910" y2="437" stroke="#363934"/>
  <text x="910" y="459" text-anchor="middle" font-family="-apple-system,BlinkMacSystemFont,PingFang SC,Noto Sans CJK SC,sans-serif" font-size="15" fill="#30332e">4</text>
  <rect x="946.18" y="257.51" width="25.42" height="172.49" fill="#4d524e" opacity="0.82"/>
  <line x1="958.89" y1="430" x2="958.89" y2="437" stroke="#363934"/>
  <text x="958.89" y="459" text-anchor="middle" font-family="-apple-system,BlinkMacSystemFont,PingFang SC,Noto Sans CJK SC,sans-serif" font-size="15" fill="#30332e">5</text>
  <rect x="995.07" y="343.75" width="25.42" height="86.25" fill="#4d524e" opacity="0.82"/>
  <line x1="1007.78" y1="430" x2="1007.78" y2="437" stroke="#363934"/>
  <text x="1007.78" y="459" text-anchor="middle" font-family="-apple-system,BlinkMacSystemFont,PingFang SC,Noto Sans CJK SC,sans-serif" font-size="15" fill="#30332e">6</text>
  <rect x="1043.96" y="408.24" width="25.42" height="21.76" fill="#4d524e" opacity="0.82"/>
  <line x1="1056.67" y1="430" x2="1056.67" y2="437" stroke="#363934"/>
  <text x="1056.67" y="459" text-anchor="middle" font-family="-apple-system,BlinkMacSystemFont,PingFang SC,Noto Sans CJK SC,sans-serif" font-size="15" fill="#30332e">7</text>
  <rect x="1092.84" y="427.28" width="25.42" height="2.72" fill="#4d524e" opacity="0.82"/>
  <line x1="1105.56" y1="430" x2="1105.56" y2="437" stroke="#363934"/>
  <text x="1105.56" y="459" text-anchor="middle" font-family="-apple-system,BlinkMacSystemFont,PingFang SC,Noto Sans CJK SC,sans-serif" font-size="15" fill="#30332e">8</text>
  <line x1="1007.78" y1="430" x2="1007.78" y2="343.75" stroke="#179bd7" stroke-width="8" stroke-linecap="round"/>
  <circle cx="1007.78" cy="343.75" r="5" fill="#179bd7"/>
  <text x="910" y="497" text-anchor="middle" font-family="-apple-system,BlinkMacSystemFont,PingFang SC,Noto Sans CJK SC,sans-serif" font-size="19" fill="#30332e">切换次数</text>
  <line x1="683" y1="430" x2="690" y2="430" stroke="#363934"/>
  <text x="677" y="435" text-anchor="end" font-family="-apple-system,BlinkMacSystemFont,PingFang SC,Noto Sans CJK SC,sans-serif" font-size="14" fill="#30332e">0</text>
  <line x1="683" y1="373.33" x2="690" y2="373.33" stroke="#363934"/>
  <text x="677" y="378.33" text-anchor="end" font-family="-apple-system,BlinkMacSystemFont,PingFang SC,Noto Sans CJK SC,sans-serif" font-size="14" fill="#30332e">500</text>
  <line x1="683" y1="260" x2="690" y2="260" stroke="#363934"/>
  <text x="677" y="265" text-anchor="end" font-family="-apple-system,BlinkMacSystemFont,PingFang SC,Noto Sans CJK SC,sans-serif" font-size="14" fill="#30332e">1,500</text>
  <line x1="683" y1="146.67" x2="690" y2="146.67" stroke="#363934"/>
  <text x="677" y="151.67" text-anchor="end" font-family="-apple-system,BlinkMacSystemFont,PingFang SC,Noto Sans CJK SC,sans-serif" font-size="14" fill="#30332e">2,500</text>
  <circle cx="430" cy="535" r="6" fill="#179bd7"/>
  <text x="447" y="541" font-family="-apple-system,BlinkMacSystemFont,PingFang SC,Noto Sans CJK SC,sans-serif" font-size="16" fill="#30332e">实际观测</text>
  <rect x="590" y="529" width="14" height="14" fill="#4d524e" opacity="0.82"/>
  <text x="614" y="541" font-family="-apple-system,BlinkMacSystemFont,PingFang SC,Noto Sans CJK SC,sans-serif" font-size="16" fill="#30332e">后验预测</text>
</svg>
