<svg xmlns="http://www.w3.org/2000/svg" width="920" height="620" viewBox="0 0 920 620">
<title>图 14.3：三种 LKJcorr 相关先验</title>
<desc>eta 等于一时相关系数密度平坦；eta 等于二时密度在零附近较高；eta 等于四时更强烈地排斥接近负一或一的极端相关。</desc>
<rect width="920" height="620" fill="#fff"/>
<rect x="110.0" y="65.0" width="740.0" height="445.0" fill="#fff" stroke="#30332e" stroke-width="1.5"/>
<line x1="110.0" y1="510.0" x2="110.0" y2="517.0" stroke="#30332e" stroke-width="1.4"/>
<text x="110.0" y="541.0" text-anchor="middle" font-family="-apple-system,BlinkMacSystemFont,PingFang SC,Noto Sans CJK SC,sans-serif" font-size="18" font-weight="400" fill="#30332e">-1.0</text>
<line x1="295.0" y1="510.0" x2="295.0" y2="517.0" stroke="#30332e" stroke-width="1.4"/>
<text x="295.0" y="541.0" text-anchor="middle" font-family="-apple-system,BlinkMacSystemFont,PingFang SC,Noto Sans CJK SC,sans-serif" font-size="18" font-weight="400" fill="#30332e">-0.5</text>
<line x1="480.0" y1="510.0" x2="480.0" y2="517.0" stroke="#30332e" stroke-width="1.4"/>
<text x="480.0" y="541.0" text-anchor="middle" font-family="-apple-system,BlinkMacSystemFont,PingFang SC,Noto Sans CJK SC,sans-serif" font-size="18" font-weight="400" fill="#30332e">0.0</text>
<line x1="665.0" y1="510.0" x2="665.0" y2="517.0" stroke="#30332e" stroke-width="1.4"/>
<text x="665.0" y="541.0" text-anchor="middle" font-family="-apple-system,BlinkMacSystemFont,PingFang SC,Noto Sans CJK SC,sans-serif" font-size="18" font-weight="400" fill="#30332e">0.5</text>
<line x1="850.0" y1="510.0" x2="850.0" y2="517.0" stroke="#30332e" stroke-width="1.4"/>
<text x="850.0" y="541.0" text-anchor="middle" font-family="-apple-system,BlinkMacSystemFont,PingFang SC,Noto Sans CJK SC,sans-serif" font-size="18" font-weight="400" fill="#30332e">1.0</text>
<line x1="103.0" y1="510.0" x2="110.0" y2="510.0" stroke="#30332e" stroke-width="1.4"/>
<text x="95.0" y="516.0" text-anchor="end" font-family="-apple-system,BlinkMacSystemFont,PingFang SC,Noto Sans CJK SC,sans-serif" font-size="18" font-weight="400" fill="#30332e">0.0</text>
<line x1="103.0" y1="432.6" x2="110.0" y2="432.6" stroke="#30332e" stroke-width="1.4"/>
<text x="95.0" y="438.6" text-anchor="end" font-family="-apple-system,BlinkMacSystemFont,PingFang SC,Noto Sans CJK SC,sans-serif" font-size="18" font-weight="400" fill="#30332e">0.2</text>
<line x1="103.0" y1="355.2" x2="110.0" y2="355.2" stroke="#30332e" stroke-width="1.4"/>
<text x="95.0" y="361.2" text-anchor="end" font-family="-apple-system,BlinkMacSystemFont,PingFang SC,Noto Sans CJK SC,sans-serif" font-size="18" font-weight="400" fill="#30332e">0.4</text>
<line x1="103.0" y1="277.8" x2="110.0" y2="277.8" stroke="#30332e" stroke-width="1.4"/>
<text x="95.0" y="283.8" text-anchor="end" font-family="-apple-system,BlinkMacSystemFont,PingFang SC,Noto Sans CJK SC,sans-serif" font-size="18" font-weight="400" fill="#30332e">0.6</text>
<line x1="103.0" y1="200.4" x2="110.0" y2="200.4" stroke="#30332e" stroke-width="1.4"/>
<text x="95.0" y="206.4" text-anchor="end" font-family="-apple-system,BlinkMacSystemFont,PingFang SC,Noto Sans CJK SC,sans-serif" font-size="18" font-weight="400" fill="#30332e">0.8</text>
<line x1="103.0" y1="123.0" x2="110.0" y2="123.0" stroke="#30332e" stroke-width="1.4"/>
<text x="95.0" y="129.0" text-anchor="end" font-family="-apple-system,BlinkMacSystemFont,PingFang SC,Noto Sans CJK SC,sans-serif" font-size="18" font-weight="400" fill="#30332e">1.0</text>
<polyline points="110.4,316.5 112.2,316.5 114.1,316.5 115.9,316.5 117.8,316.5 119.6,316.5 121.5,316.5 123.3,316.5 125.2,316.5 127.0,316.5 128.9,316.5 130.7,316.5 132.5,316.5 134.4,316.5 136.2,316.5 138.1,316.5 139.9,316.5 141.8,316.5 143.6,316.5 145.5,316.5 147.3,316.5 149.2,316.5 151.0,316.5 152.9,316.5 154.7,316.5 156.6,316.5 158.4,316.5 160.3,316.5 162.1,316.5 164.0,316.5 165.8,316.5 167.7,316.5 169.5,316.5 171.4,316.5 173.2,316.5 175.1,316.5 176.9,316.5 178.8,316.5 180.6,316.5 182.4,316.5 184.3,316.5 186.1,316.5 188.0,316.5 189.8,316.5 191.7,316.5 193.5,316.5 195.4,316.5 197.2,316.5 199.1,316.5 200.9,316.5 202.8,316.5 204.6,316.5 206.5,316.5 208.3,316.5 210.2,316.5 212.0,316.5 213.9,316.5 215.7,316.5 217.6,316.5 219.4,316.5 221.3,316.5 223.1,316.5 225.0,316.5 226.8,316.5 228.7,316.5 230.5,316.5 232.3,316.5 234.2,316.5 236.0,316.5 237.9,316.5 239.7,316.5 241.6,316.5 243.4,316.5 245.3,316.5 247.1,316.5 249.0,316.5 250.8,316.5 252.7,316.5 254.5,316.5 256.4,316.5 258.2,316.5 260.1,316.5 261.9,316.5 263.8,316.5 265.6,316.5 267.5,316.5 269.3,316.5 271.2,316.5 273.0,316.5 274.9,316.5 276.7,316.5 278.6,316.5 280.4,316.5 282.2,316.5 284.1,316.5 285.9,316.5 287.8,316.5 289.6,316.5 291.5,316.5 293.3,316.5 295.2,316.5 297.0,316.5 298.9,316.5 300.7,316.5 302.6,316.5 304.4,316.5 306.3,316.5 308.1,316.5 310.0,316.5 311.8,316.5 313.7,316.5 315.5,316.5 317.4,316.5 319.2,316.5 321.1,316.5 322.9,316.5 324.8,316.5 326.6,316.5 328.5,316.5 330.3,316.5 332.1,316.5 334.0,316.5 335.8,316.5 337.7,316.5 339.5,316.5 341.4,316.5 343.2,316.5 345.1,316.5 346.9,316.5 348.8,316.5 350.6,316.5 352.5,316.5 354.3,316.5 356.2,316.5 358.0,316.5 359.9,316.5 361.7,316.5 363.6,316.5 365.4,316.5 367.3,316.5 369.1,316.5 371.0,316.5 372.8,316.5 374.7,316.5 376.5,316.5 378.4,316.5 380.2,316.5 382.0,316.5 383.9,316.5 385.7,316.5 387.6,316.5 389.4,316.5 391.3,316.5 393.1,316.5 395.0,316.5 396.8,316.5 398.7,316.5 400.5,316.5 402.4,316.5 404.2,316.5 406.1,316.5 407.9,316.5 409.8,316.5 411.6,316.5 413.5,316.5 415.3,316.5 417.2,316.5 419.0,316.5 420.9,316.5 422.7,316.5 424.6,316.5 426.4,316.5 428.3,316.5 430.1,316.5 431.9,316.5 433.8,316.5 435.6,316.5 437.5,316.5 439.3,316.5 441.2,316.5 443.0,316.5 444.9,316.5 446.7,316.5 448.6,316.5 450.4,316.5 452.3,316.5 454.1,316.5 456.0,316.5 457.8,316.5 459.7,316.5 461.5,316.5 463.4,316.5 465.2,316.5 467.1,316.5 468.9,316.5 470.8,316.5 472.6,316.5 474.5,316.5 476.3,316.5 478.2,316.5 480.0,316.5 481.8,316.5 483.7,316.5 485.5,316.5 487.4,316.5 489.2,316.5 491.1,316.5 492.9,316.5 494.8,316.5 496.6,316.5 498.5,316.5 500.3,316.5 502.2,316.5 504.0,316.5 505.9,316.5 507.7,316.5 509.6,316.5 511.4,316.5 513.3,316.5 515.1,316.5 517.0,316.5 518.8,316.5 520.7,316.5 522.5,316.5 524.4,316.5 526.2,316.5 528.1,316.5 529.9,316.5 531.7,316.5 533.6,316.5 535.4,316.5 537.3,316.5 539.1,316.5 541.0,316.5 542.8,316.5 544.7,316.5 546.5,316.5 548.4,316.5 550.2,316.5 552.1,316.5 553.9,316.5 555.8,316.5 557.6,316.5 559.5,316.5 561.3,316.5 563.2,316.5 565.0,316.5 566.9,316.5 568.7,316.5 570.6,316.5 572.4,316.5 574.3,316.5 576.1,316.5 578.0,316.5 579.8,316.5 581.6,316.5 583.5,316.5 585.3,316.5 587.2,316.5 589.0,316.5 590.9,316.5 592.7,316.5 594.6,316.5 596.4,316.5 598.3,316.5 600.1,316.5 602.0,316.5 603.8,316.5 605.7,316.5 607.5,316.5 609.4,316.5 611.2,316.5 613.1,316.5 614.9,316.5 616.8,316.5 618.6,316.5 620.5,316.5 622.3,316.5 624.2,316.5 626.0,316.5 627.9,316.5 629.7,316.5 631.5,316.5 633.4,316.5 635.2,316.5 637.1,316.5 638.9,316.5 640.8,316.5 642.6,316.5 644.5,316.5 646.3,316.5 648.2,316.5 650.0,316.5 651.9,316.5 653.7,316.5 655.6,316.5 657.4,316.5 659.3,316.5 661.1,316.5 663.0,316.5 664.8,316.5 666.7,316.5 668.5,316.5 670.4,316.5 672.2,316.5 674.1,316.5 675.9,316.5 677.8,316.5 679.6,316.5 681.4,316.5 683.3,316.5 685.1,316.5 687.0,316.5 688.8,316.5 690.7,316.5 692.5,316.5 694.4,316.5 696.2,316.5 698.1,316.5 699.9,316.5 701.8,316.5 703.6,316.5 705.5,316.5 707.3,316.5 709.2,316.5 711.0,316.5 712.9,316.5 714.7,316.5 716.6,316.5 718.4,316.5 720.3,316.5 722.1,316.5 724.0,316.5 725.8,316.5 727.7,316.5 729.5,316.5 731.3,316.5 733.2,316.5 735.0,316.5 736.9,316.5 738.7,316.5 740.6,316.5 742.4,316.5 744.3,316.5 746.1,316.5 748.0,316.5 749.8,316.5 751.7,316.5 753.5,316.5 755.4,316.5 757.2,316.5 759.1,316.5 760.9,316.5 762.8,316.5 764.6,316.5 766.5,316.5 768.3,316.5 770.2,316.5 772.0,316.5 773.9,316.5 775.7,316.5 777.6,316.5 779.4,316.5 781.2,316.5 783.1,316.5 784.9,316.5 786.8,316.5 788.6,316.5 790.5,316.5 792.3,316.5 794.2,316.5 796.0,316.5 797.9,316.5 799.7,316.5 801.6,316.5 803.4,316.5 805.3,316.5 807.1,316.5 809.0,316.5 810.8,316.5 812.7,316.5 814.5,316.5 816.4,316.5 818.2,316.5 820.1,316.5 821.9,316.5 823.8,316.5 825.6,316.5 827.5,316.5 829.3,316.5 831.1,316.5 833.0,316.5 834.8,316.5 836.7,316.5 838.5,316.5 840.4,316.5 842.2,316.5 844.1,316.5 845.9,316.5 847.8,316.5 849.6,316.5" fill="none" stroke="#30332e" stroke-width="2.5"/>
<polyline points="110.4,509.4 112.2,506.5 114.1,503.7 115.9,500.8 117.8,498.0 119.6,495.1 121.5,492.3 123.3,489.5 125.2,486.7 127.0,483.9 128.9,481.2 130.7,478.4 132.5,475.7 134.4,473.0 136.2,470.3 138.1,467.6 139.9,464.9 141.8,462.3 143.6,459.6 145.5,457.0 147.3,454.4 149.2,451.8 151.0,449.2 152.9,446.6 154.7,444.1 156.6,441.5 158.4,439.0 160.3,436.5 162.1,434.0 164.0,431.5 165.8,429.0 167.7,426.6 169.5,424.2 171.4,421.7 173.2,419.3 175.1,416.9 176.9,414.5 178.8,412.2 180.6,409.8 182.4,407.5 184.3,405.2 186.1,402.8 188.0,400.5 189.8,398.3 191.7,396.0 193.5,393.7 195.4,391.5 197.2,389.3 199.1,387.1 200.9,384.9 202.8,382.7 204.6,380.5 206.5,378.4 208.3,376.3 210.2,374.1 212.0,372.0 213.9,369.9 215.7,367.9 217.6,365.8 219.4,363.7 221.3,361.7 223.1,359.7 225.0,357.7 226.8,355.7 228.7,353.7 230.5,351.7 232.3,349.8 234.2,347.9 236.0,345.9 237.9,344.0 239.7,342.2 241.6,340.3 243.4,338.4 245.3,336.6 247.1,334.7 249.0,332.9 250.8,331.1 252.7,329.3 254.5,327.6 256.4,325.8 258.2,324.1 260.1,322.3 261.9,320.6 263.8,318.9 265.6,317.2 267.5,315.5 269.3,313.9 271.2,312.2 273.0,310.6 274.9,309.0 276.7,307.4 278.6,305.8 280.4,304.2 282.2,302.7 284.1,301.1 285.9,299.6 287.8,298.1 289.6,296.6 291.5,295.1 293.3,293.6 295.2,292.2 297.0,290.8 298.9,289.3 300.7,287.9 302.6,286.5 304.4,285.1 306.3,283.8 308.1,282.4 310.0,281.1 311.8,279.7 313.7,278.4 315.5,277.1 317.4,275.9 319.2,274.6 321.1,273.3 322.9,272.1 324.8,270.9 326.6,269.7 328.5,268.5 330.3,267.3 332.1,266.1 334.0,265.0 335.8,263.8 337.7,262.7 339.5,261.6 341.4,260.5 343.2,259.4 345.1,258.4 346.9,257.3 348.8,256.3 350.6,255.3 352.5,254.3 354.3,253.3 356.2,252.3 358.0,251.3 359.9,250.4 361.7,249.4 363.6,248.5 365.4,247.6 367.3,246.7 369.1,245.8 371.0,245.0 372.8,244.1 374.7,243.3 376.5,242.5 378.4,241.7 380.2,240.9 382.0,240.1 383.9,239.4 385.7,238.6 387.6,237.9 389.4,237.2 391.3,236.5 393.1,235.8 395.0,235.1 396.8,234.4 398.7,233.8 400.5,233.2 402.4,232.6 404.2,232.0 406.1,231.4 407.9,230.8 409.8,230.2 411.6,229.7 413.5,229.2 415.3,228.7 417.2,228.2 419.0,227.7 420.9,227.2 422.7,226.7 424.6,226.3 426.4,225.9 428.3,225.5 430.1,225.1 431.9,224.7 433.8,224.3 435.6,224.0 437.5,223.6 439.3,223.3 441.2,223.0 443.0,222.7 444.9,222.4 446.7,222.1 448.6,221.9 450.4,221.6 452.3,221.4 454.1,221.2 456.0,221.0 457.8,220.8 459.7,220.7 461.5,220.5 463.4,220.4 465.2,220.2 467.1,220.1 468.9,220.0 470.8,220.0 472.6,219.9 474.5,219.8 476.3,219.8 478.2,219.8 480.0,219.8 481.8,219.8 483.7,219.8 485.5,219.8 487.4,219.9 489.2,220.0 491.1,220.0 492.9,220.1 494.8,220.2 496.6,220.4 498.5,220.5 500.3,220.7 502.2,220.8 504.0,221.0 505.9,221.2 507.7,221.4 509.6,221.6 511.4,221.9 513.3,222.1 515.1,222.4 517.0,222.7 518.8,223.0 520.7,223.3 522.5,223.6 524.4,224.0 526.2,224.3 528.1,224.7 529.9,225.1 531.7,225.5 533.6,225.9 535.4,226.3 537.3,226.7 539.1,227.2 541.0,227.7 542.8,228.2 544.7,228.7 546.5,229.2 548.4,229.7 550.2,230.2 552.1,230.8 553.9,231.4 555.8,232.0 557.6,232.6 559.5,233.2 561.3,233.8 563.2,234.4 565.0,235.1 566.9,235.8 568.7,236.5 570.6,237.2 572.4,237.9 574.3,238.6 576.1,239.4 578.0,240.1 579.8,240.9 581.6,241.7 583.5,242.5 585.3,243.3 587.2,244.1 589.0,245.0 590.9,245.8 592.7,246.7 594.6,247.6 596.4,248.5 598.3,249.4 600.1,250.4 602.0,251.3 603.8,252.3 605.7,253.3 607.5,254.3 609.4,255.3 611.2,256.3 613.1,257.3 614.9,258.4 616.8,259.4 618.6,260.5 620.5,261.6 622.3,262.7 624.2,263.8 626.0,265.0 627.9,266.1 629.7,267.3 631.5,268.5 633.4,269.7 635.2,270.9 637.1,272.1 638.9,273.3 640.8,274.6 642.6,275.9 644.5,277.1 646.3,278.4 648.2,279.7 650.0,281.1 651.9,282.4 653.7,283.8 655.6,285.1 657.4,286.5 659.3,287.9 661.1,289.3 663.0,290.8 664.8,292.2 666.7,293.6 668.5,295.1 670.4,296.6 672.2,298.1 674.1,299.6 675.9,301.1 677.8,302.7 679.6,304.2 681.4,305.8 683.3,307.4 685.1,309.0 687.0,310.6 688.8,312.2 690.7,313.9 692.5,315.5 694.4,317.2 696.2,318.9 698.1,320.6 699.9,322.3 701.8,324.1 703.6,325.8 705.5,327.6 707.3,329.3 709.2,331.1 711.0,332.9 712.9,334.7 714.7,336.6 716.6,338.4 718.4,340.3 720.3,342.2 722.1,344.0 724.0,345.9 725.8,347.9 727.7,349.8 729.5,351.7 731.3,353.7 733.2,355.7 735.0,357.7 736.9,359.7 738.7,361.7 740.6,363.7 742.4,365.8 744.3,367.9 746.1,369.9 748.0,372.0 749.8,374.1 751.7,376.3 753.5,378.4 755.4,380.5 757.2,382.7 759.1,384.9 760.9,387.1 762.8,389.3 764.6,391.5 766.5,393.7 768.3,396.0 770.2,398.3 772.0,400.5 773.9,402.8 775.7,405.2 777.6,407.5 779.4,409.8 781.2,412.2 783.1,414.5 784.9,416.9 786.8,419.3 788.6,421.7 790.5,424.2 792.3,426.6 794.2,429.0 796.0,431.5 797.9,434.0 799.7,436.5 801.6,439.0 803.4,441.5 805.3,444.1 807.1,446.6 809.0,449.2 810.8,451.8 812.7,454.4 814.5,457.0 816.4,459.6 818.2,462.3 820.1,464.9 821.9,467.6 823.8,470.3 825.6,473.0 827.5,475.7 829.3,478.4 831.1,481.2 833.0,483.9 834.8,486.7 836.7,489.5 838.5,492.3 840.4,495.1 842.2,498.0 844.1,500.8 845.9,503.7 847.8,506.5 849.6,509.4" fill="none" stroke="#30332e" stroke-width="2.5"/>
<polyline points="110.4,510.0 112.2,510.0 114.1,510.0 115.9,510.0 117.8,510.0 119.6,509.9 121.5,509.9 123.3,509.9 125.2,509.8 127.0,509.7 128.9,509.6 130.7,509.5 132.5,509.3 134.4,509.1 136.2,508.9 138.1,508.7 139.9,508.4 141.8,508.1 143.6,507.8 145.5,507.4 147.3,507.0 149.2,506.6 151.0,506.1 152.9,505.6 154.7,505.0 156.6,504.4 158.4,503.8 160.3,503.1 162.1,502.4 164.0,501.6 165.8,500.8 167.7,500.0 169.5,499.0 171.4,498.1 173.2,497.1 175.1,496.0 176.9,494.9 178.8,493.8 180.6,492.6 182.4,491.3 184.3,490.0 186.1,488.7 188.0,487.3 189.8,485.8 191.7,484.3 193.5,482.8 195.4,481.2 197.2,479.5 199.1,477.8 200.9,476.1 202.8,474.3 204.6,472.4 206.5,470.5 208.3,468.6 210.2,466.6 212.0,464.5 213.9,462.4 215.7,460.3 217.6,458.1 219.4,455.8 221.3,453.5 223.1,451.2 225.0,448.8 226.8,446.4 228.7,443.9 230.5,441.4 232.3,438.8 234.2,436.2 236.0,433.6 237.9,430.9 239.7,428.1 241.6,425.4 243.4,422.5 245.3,419.7 247.1,416.8 249.0,413.9 250.8,410.9 252.7,407.9 254.5,404.9 256.4,401.8 258.2,398.7 260.1,395.5 261.9,392.4 263.8,389.2 265.6,385.9 267.5,382.7 269.3,379.4 271.2,376.1 273.0,372.8 274.9,369.4 276.7,366.0 278.6,362.6 280.4,359.2 282.2,355.7 284.1,352.3 285.9,348.8 287.8,345.3 289.6,341.7 291.5,338.2 293.3,334.7 295.2,331.1 297.0,327.5 298.9,323.9 300.7,320.3 302.6,316.7 304.4,313.1 306.3,309.5 308.1,305.9 310.0,302.3 311.8,298.6 313.7,295.0 315.5,291.4 317.4,287.7 319.2,284.1 321.1,280.5 322.9,276.9 324.8,273.3 326.6,269.6 328.5,266.0 330.3,262.4 332.1,258.9 334.0,255.3 335.8,251.7 337.7,248.2 339.5,244.6 341.4,241.1 343.2,237.6 345.1,234.1 346.9,230.7 348.8,227.2 350.6,223.8 352.5,220.4 354.3,217.0 356.2,213.6 358.0,210.3 359.9,207.0 361.7,203.7 363.6,200.5 365.4,197.2 367.3,194.0 369.1,190.9 371.0,187.7 372.8,184.6 374.7,181.6 376.5,178.5 378.4,175.5 380.2,172.6 382.0,169.7 383.9,166.8 385.7,163.9 387.6,161.1 389.4,158.4 391.3,155.6 393.1,153.0 395.0,150.3 396.8,147.7 398.7,145.2 400.5,142.7 402.4,140.2 404.2,137.8 406.1,135.5 407.9,133.1 409.8,130.9 411.6,128.7 413.5,126.5 415.3,124.4 417.2,122.3 419.0,120.3 420.9,118.4 422.7,116.5 424.6,114.6 426.4,112.9 428.3,111.1 430.1,109.4 431.9,107.8 433.8,106.3 435.6,104.8 437.5,103.3 439.3,101.9 441.2,100.6 443.0,99.3 444.9,98.1 446.7,96.9 448.6,95.9 450.4,94.8 452.3,93.9 454.1,92.9 456.0,92.1 457.8,91.3 459.7,90.6 461.5,89.9 463.4,89.3 465.2,88.8 467.1,88.3 468.9,87.9 470.8,87.6 472.6,87.3 474.5,87.1 476.3,86.9 478.2,86.8 480.0,86.8 481.8,86.8 483.7,86.9 485.5,87.1 487.4,87.3 489.2,87.6 491.1,87.9 492.9,88.3 494.8,88.8 496.6,89.3 498.5,89.9 500.3,90.6 502.2,91.3 504.0,92.1 505.9,92.9 507.7,93.9 509.6,94.8 511.4,95.9 513.3,96.9 515.1,98.1 517.0,99.3 518.8,100.6 520.7,101.9 522.5,103.3 524.4,104.8 526.2,106.3 528.1,107.8 529.9,109.4 531.7,111.1 533.6,112.9 535.4,114.6 537.3,116.5 539.1,118.4 541.0,120.3 542.8,122.3 544.7,124.4 546.5,126.5 548.4,128.7 550.2,130.9 552.1,133.1 553.9,135.5 555.8,137.8 557.6,140.2 559.5,142.7 561.3,145.2 563.2,147.7 565.0,150.3 566.9,153.0 568.7,155.6 570.6,158.4 572.4,161.1 574.3,163.9 576.1,166.8 578.0,169.7 579.8,172.6 581.6,175.5 583.5,178.5 585.3,181.6 587.2,184.6 589.0,187.7 590.9,190.9 592.7,194.0 594.6,197.2 596.4,200.5 598.3,203.7 600.1,207.0 602.0,210.3 603.8,213.6 605.7,217.0 607.5,220.4 609.4,223.8 611.2,227.2 613.1,230.7 614.9,234.1 616.8,237.6 618.6,241.1 620.5,244.6 622.3,248.2 624.2,251.7 626.0,255.3 627.9,258.9 629.7,262.4 631.5,266.0 633.4,269.6 635.2,273.3 637.1,276.9 638.9,280.5 640.8,284.1 642.6,287.7 644.5,291.4 646.3,295.0 648.2,298.6 650.0,302.3 651.9,305.9 653.7,309.5 655.6,313.1 657.4,316.7 659.3,320.3 661.1,323.9 663.0,327.5 664.8,331.1 666.7,334.7 668.5,338.2 670.4,341.7 672.2,345.3 674.1,348.8 675.9,352.3 677.8,355.7 679.6,359.2 681.4,362.6 683.3,366.0 685.1,369.4 687.0,372.8 688.8,376.1 690.7,379.4 692.5,382.7 694.4,385.9 696.2,389.2 698.1,392.4 699.9,395.5 701.8,398.7 703.6,401.8 705.5,404.9 707.3,407.9 709.2,410.9 711.0,413.9 712.9,416.8 714.7,419.7 716.6,422.5 718.4,425.4 720.3,428.1 722.1,430.9 724.0,433.6 725.8,436.2 727.7,438.8 729.5,441.4 731.3,443.9 733.2,446.4 735.0,448.8 736.9,451.2 738.7,453.5 740.6,455.8 742.4,458.1 744.3,460.3 746.1,462.4 748.0,464.5 749.8,466.6 751.7,468.6 753.5,470.5 755.4,472.4 757.2,474.3 759.1,476.1 760.9,477.8 762.8,479.5 764.6,481.2 766.5,482.8 768.3,484.3 770.2,485.8 772.0,487.3 773.9,488.7 775.7,490.0 777.6,491.3 779.4,492.6 781.2,493.8 783.1,494.9 784.9,496.0 786.8,497.1 788.6,498.1 790.5,499.0 792.3,500.0 794.2,500.8 796.0,501.6 797.9,502.4 799.7,503.1 801.6,503.8 803.4,504.4 805.3,505.0 807.1,505.6 809.0,506.1 810.8,506.6 812.7,507.0 814.5,507.4 816.4,507.8 818.2,508.1 820.1,508.4 821.9,508.7 823.8,508.9 825.6,509.1 827.5,509.3 829.3,509.5 831.1,509.6 833.0,509.7 834.8,509.8 836.7,509.9 838.5,509.9 840.4,509.9 842.2,510.0 844.1,510.0 845.9,510.0 847.8,510.0 849.6,510.0" fill="none" stroke="#30332e" stroke-width="2.5"/>
<text x="425.4" y="306.5" text-anchor="start" font-family="-apple-system,BlinkMacSystemFont,PingFang SC,Noto Sans CJK SC,sans-serif" font-size="18" font-weight="600" fill="#30332e">η = 1</text>
<text x="462.4" y="211.6" text-anchor="start" font-family="-apple-system,BlinkMacSystemFont,PingFang SC,Noto Sans CJK SC,sans-serif" font-size="18" font-weight="600" fill="#30332e">η = 2</text>
<text x="514.2" y="81.3" text-anchor="start" font-family="-apple-system,BlinkMacSystemFont,PingFang SC,Noto Sans CJK SC,sans-serif" font-size="18" font-weight="600" fill="#30332e">η = 4</text>
<text x="480.0" y="585.0" text-anchor="middle" font-family="-apple-system,BlinkMacSystemFont,PingFang SC,Noto Sans CJK SC,sans-serif" font-size="21" font-weight="600" fill="#30332e">相关系数</text>
<text x="32.0" y="287.5" text-anchor="middle" font-family="-apple-system,BlinkMacSystemFont,PingFang SC,Noto Sans CJK SC,sans-serif" font-size="21" font-weight="600" fill="#30332e" transform="rotate(-90 32 287.5)">密度</text>
</svg>