<svg xmlns="http://www.w3.org/2000/svg" width="1200" height="620" viewBox="0 0 1200 620" role="img">
<title>UCB 录取模型的后验验证</title>
<desc>蓝色点和连线表示六个院系男女申请者的观测录取比例；空心点、短黑线与十字分别表示模型期望、百分之八十九期望区间和模拟样本区间。</desc>
<rect width="100%" height="100%" fill="#fbfaf6"/>
<text x="627.5" y="40.0" text-anchor="middle" font-family="-apple-system,BlinkMacSystemFont,PingFang SC,Noto Sans CJK SC,sans-serif" font-size="24" font-weight="700" fill="#263f86">后验验证检查</text>
<rect x="95" y="80" width="1065" height="455" fill="#fff" stroke="#d9d5c8"/>
<text x="28.0" y="307.5" text-anchor="middle" font-family="-apple-system,BlinkMacSystemFont,PingFang SC,Noto Sans CJK SC,sans-serif" font-size="20" font-weight="400" fill="#30332e" transform="rotate(-90 28 307.5)">录取比例</text>
<line x1="95" y1="535.0" x2="1160" y2="535.0" stroke="#d9d5c8" stroke-dasharray="5 6"/>
<text x="81.0" y="541.0" text-anchor="end" font-family="-apple-system,BlinkMacSystemFont,PingFang SC,Noto Sans CJK SC,sans-serif" font-size="16" font-weight="400" fill="#30332e">0.0</text>
<line x1="95" y1="444.0" x2="1160" y2="444.0" stroke="#d9d5c8" stroke-dasharray="5 6"/>
<text x="81.0" y="450.0" text-anchor="end" font-family="-apple-system,BlinkMacSystemFont,PingFang SC,Noto Sans CJK SC,sans-serif" font-size="16" font-weight="400" fill="#30332e">0.2</text>
<line x1="95" y1="353.0" x2="1160" y2="353.0" stroke="#d9d5c8" stroke-dasharray="5 6"/>
<text x="81.0" y="359.0" text-anchor="end" font-family="-apple-system,BlinkMacSystemFont,PingFang SC,Noto Sans CJK SC,sans-serif" font-size="16" font-weight="400" fill="#30332e">0.4</text>
<line x1="95" y1="262.0" x2="1160" y2="262.0" stroke="#d9d5c8" stroke-dasharray="5 6"/>
<text x="81.0" y="268.0" text-anchor="end" font-family="-apple-system,BlinkMacSystemFont,PingFang SC,Noto Sans CJK SC,sans-serif" font-size="16" font-weight="400" fill="#30332e">0.6</text>
<line x1="95" y1="171.0" x2="1160" y2="171.0" stroke="#d9d5c8" stroke-dasharray="5 6"/>
<text x="81.0" y="177.0" text-anchor="end" font-family="-apple-system,BlinkMacSystemFont,PingFang SC,Noto Sans CJK SC,sans-serif" font-size="16" font-weight="400" fill="#30332e">0.8</text>
<line x1="95" y1="80.0" x2="1160" y2="80.0" stroke="#d9d5c8" stroke-dasharray="5 6"/>
<text x="81.0" y="86.0" text-anchor="end" font-family="-apple-system,BlinkMacSystemFont,PingFang SC,Noto Sans CJK SC,sans-serif" font-size="16" font-weight="400" fill="#30332e">1.0</text>
<text x="95.0" y="569.0" text-anchor="middle" font-family="-apple-system,BlinkMacSystemFont,PingFang SC,Noto Sans CJK SC,sans-serif" font-size="16" font-weight="400" fill="#30332e">1</text>
<line x1="95.0" y1="339.6" x2="95.0" y2="325.2" stroke="#111" stroke-width="3"/>
<line x1="88.0" y1="345.0" x2="102.0" y2="319.8" stroke="#111" stroke-width="2"/>
<line x1="88.0" y1="319.8" x2="102.0" y2="345.0" stroke="#111" stroke-width="2"/>
<circle cx="95.0" cy="332.4" r="9" fill="#fff" stroke="#111" stroke-width="2"/>
<circle cx="95.0" cy="252.6" r="7" fill="#6670ee" stroke="#fff" stroke-width="2"/>
<text x="191.8" y="569.0" text-anchor="middle" font-family="-apple-system,BlinkMacSystemFont,PingFang SC,Noto Sans CJK SC,sans-serif" font-size="16" font-weight="400" fill="#30332e">2</text>
<line x1="191.8" y1="404.4" x2="191.8" y2="389.0" stroke="#111" stroke-width="3"/>
<line x1="184.8" y1="429.1" x2="198.8" y2="364.6" stroke="#111" stroke-width="2"/>
<line x1="184.8" y1="364.6" x2="198.8" y2="429.1" stroke="#111" stroke-width="2"/>
<circle cx="191.8" cy="396.8" r="9" fill="#fff" stroke="#111" stroke-width="2"/>
<circle cx="191.8" cy="160.0" r="7" fill="#6670ee" stroke="#fff" stroke-width="2"/>
<text x="288.6" y="569.0" text-anchor="middle" font-family="-apple-system,BlinkMacSystemFont,PingFang SC,Noto Sans CJK SC,sans-serif" font-size="16" font-weight="400" fill="#30332e">3</text>
<line x1="288.6" y1="339.6" x2="288.6" y2="325.2" stroke="#111" stroke-width="3"/>
<line x1="281.6" y1="347.7" x2="295.6" y2="317.1" stroke="#111" stroke-width="2"/>
<line x1="281.6" y1="317.1" x2="295.6" y2="347.7" stroke="#111" stroke-width="2"/>
<circle cx="288.6" cy="332.4" r="9" fill="#fff" stroke="#111" stroke-width="2"/>
<circle cx="288.6" cy="248.2" r="7" fill="#6670ee" stroke="#fff" stroke-width="2"/>
<text x="385.5" y="569.0" text-anchor="middle" font-family="-apple-system,BlinkMacSystemFont,PingFang SC,Noto Sans CJK SC,sans-serif" font-size="16" font-weight="400" fill="#30332e">4</text>
<line x1="385.5" y1="404.4" x2="385.5" y2="389.0" stroke="#111" stroke-width="3"/>
<line x1="378.5" y1="463.8" x2="392.5" y2="329.9" stroke="#111" stroke-width="2"/>
<line x1="378.5" y1="329.9" x2="392.5" y2="463.8" stroke="#111" stroke-width="2"/>
<circle cx="385.5" cy="396.8" r="9" fill="#fff" stroke="#111" stroke-width="2"/>
<circle cx="385.5" cy="225.6" r="7" fill="#6670ee" stroke="#fff" stroke-width="2"/>
<text x="482.3" y="569.0" text-anchor="middle" font-family="-apple-system,BlinkMacSystemFont,PingFang SC,Noto Sans CJK SC,sans-serif" font-size="16" font-weight="400" fill="#30332e">5</text>
<line x1="482.3" y1="339.6" x2="482.3" y2="325.2" stroke="#111" stroke-width="3"/>
<line x1="475.3" y1="352.5" x2="489.3" y2="312.4" stroke="#111" stroke-width="2"/>
<line x1="475.3" y1="312.4" x2="489.3" y2="352.5" stroke="#111" stroke-width="2"/>
<circle cx="482.3" cy="332.4" r="9" fill="#fff" stroke="#111" stroke-width="2"/>
<circle cx="482.3" cy="367.0" r="7" fill="#6670ee" stroke="#fff" stroke-width="2"/>
<text x="579.1" y="569.0" text-anchor="middle" font-family="-apple-system,BlinkMacSystemFont,PingFang SC,Noto Sans CJK SC,sans-serif" font-size="16" font-weight="400" fill="#30332e">6</text>
<line x1="579.1" y1="404.4" x2="579.1" y2="389.0" stroke="#111" stroke-width="3"/>
<line x1="572.1" y1="410.6" x2="586.1" y2="383.1" stroke="#111" stroke-width="2"/>
<line x1="572.1" y1="383.1" x2="586.1" y2="410.6" stroke="#111" stroke-width="2"/>
<circle cx="579.1" cy="396.8" r="9" fill="#fff" stroke="#111" stroke-width="2"/>
<circle cx="579.1" cy="380.0" r="7" fill="#6670ee" stroke="#fff" stroke-width="2"/>
<text x="675.9" y="569.0" text-anchor="middle" font-family="-apple-system,BlinkMacSystemFont,PingFang SC,Noto Sans CJK SC,sans-serif" font-size="16" font-weight="400" fill="#30332e">7</text>
<line x1="675.9" y1="339.6" x2="675.9" y2="325.2" stroke="#111" stroke-width="3"/>
<line x1="668.9" y1="350.1" x2="682.9" y2="314.7" stroke="#111" stroke-width="2"/>
<line x1="668.9" y1="314.7" x2="682.9" y2="350.1" stroke="#111" stroke-width="2"/>
<circle cx="675.9" cy="332.4" r="9" fill="#fff" stroke="#111" stroke-width="2"/>
<circle cx="675.9" cy="384.4" r="7" fill="#6670ee" stroke="#fff" stroke-width="2"/>
<text x="772.7" y="569.0" text-anchor="middle" font-family="-apple-system,BlinkMacSystemFont,PingFang SC,Noto Sans CJK SC,sans-serif" font-size="16" font-weight="400" fill="#30332e">8</text>
<line x1="772.7" y1="404.4" x2="772.7" y2="389.0" stroke="#111" stroke-width="3"/>
<line x1="765.7" y1="414.1" x2="779.7" y2="379.6" stroke="#111" stroke-width="2"/>
<line x1="765.7" y1="379.6" x2="779.7" y2="414.1" stroke="#111" stroke-width="2"/>
<circle cx="772.7" cy="396.8" r="9" fill="#fff" stroke="#111" stroke-width="2"/>
<circle cx="772.7" cy="376.1" r="7" fill="#6670ee" stroke="#fff" stroke-width="2"/>
<text x="869.5" y="569.0" text-anchor="middle" font-family="-apple-system,BlinkMacSystemFont,PingFang SC,Noto Sans CJK SC,sans-serif" font-size="16" font-weight="400" fill="#30332e">9</text>
<line x1="869.5" y1="339.6" x2="869.5" y2="325.2" stroke="#111" stroke-width="3"/>
<line x1="862.5" y1="358.6" x2="876.5" y2="306.2" stroke="#111" stroke-width="2"/>
<line x1="862.5" y1="306.2" x2="876.5" y2="358.6" stroke="#111" stroke-width="2"/>
<circle cx="869.5" cy="332.4" r="9" fill="#fff" stroke="#111" stroke-width="2"/>
<circle cx="869.5" cy="408.7" r="7" fill="#6670ee" stroke="#fff" stroke-width="2"/>
<text x="966.4" y="569.0" text-anchor="middle" font-family="-apple-system,BlinkMacSystemFont,PingFang SC,Noto Sans CJK SC,sans-serif" font-size="16" font-weight="400" fill="#30332e">10</text>
<line x1="966.4" y1="404.4" x2="966.4" y2="389.0" stroke="#111" stroke-width="3"/>
<line x1="959.4" y1="413.7" x2="973.4" y2="380.0" stroke="#111" stroke-width="2"/>
<line x1="959.4" y1="380.0" x2="973.4" y2="413.7" stroke="#111" stroke-width="2"/>
<circle cx="966.4" cy="396.8" r="9" fill="#fff" stroke="#111" stroke-width="2"/>
<circle cx="966.4" cy="426.2" r="7" fill="#6670ee" stroke="#fff" stroke-width="2"/>
<text x="1063.2" y="569.0" text-anchor="middle" font-family="-apple-system,BlinkMacSystemFont,PingFang SC,Noto Sans CJK SC,sans-serif" font-size="16" font-weight="400" fill="#30332e">11</text>
<line x1="1063.2" y1="339.6" x2="1063.2" y2="325.2" stroke="#111" stroke-width="3"/>
<line x1="1056.2" y1="351.2" x2="1070.2" y2="313.7" stroke="#111" stroke-width="2"/>
<line x1="1056.2" y1="313.7" x2="1070.2" y2="351.2" stroke="#111" stroke-width="2"/>
<circle cx="1063.2" cy="332.4" r="9" fill="#fff" stroke="#111" stroke-width="2"/>
<circle cx="1063.2" cy="508.2" r="7" fill="#6670ee" stroke="#fff" stroke-width="2"/>
<text x="1160.0" y="569.0" text-anchor="middle" font-family="-apple-system,BlinkMacSystemFont,PingFang SC,Noto Sans CJK SC,sans-serif" font-size="16" font-weight="400" fill="#30332e">12</text>
<line x1="1160.0" y1="404.4" x2="1160.0" y2="389.0" stroke="#111" stroke-width="3"/>
<line x1="1153.0" y1="415.0" x2="1167.0" y2="378.7" stroke="#111" stroke-width="2"/>
<line x1="1153.0" y1="378.7" x2="1167.0" y2="415.0" stroke="#111" stroke-width="2"/>
<circle cx="1160.0" cy="396.8" r="9" fill="#fff" stroke="#111" stroke-width="2"/>
<circle cx="1160.0" cy="503.0" r="7" fill="#6670ee" stroke="#fff" stroke-width="2"/>
<line x1="95.0" y1="252.6" x2="191.8" y2="160.0" stroke="#6670ee" stroke-width="4"/>
<text x="143.4" y="188.3" text-anchor="middle" font-family="-apple-system,BlinkMacSystemFont,PingFang SC,Noto Sans CJK SC,sans-serif" font-size="18" font-weight="700" fill="#263f86">A</text>
<line x1="288.6" y1="248.2" x2="385.5" y2="225.6" stroke="#6670ee" stroke-width="4"/>
<text x="337.0" y="218.9" text-anchor="middle" font-family="-apple-system,BlinkMacSystemFont,PingFang SC,Noto Sans CJK SC,sans-serif" font-size="18" font-weight="700" fill="#263f86">B</text>
<line x1="482.3" y1="367.0" x2="579.1" y2="380.0" stroke="#6670ee" stroke-width="4"/>
<text x="530.7" y="355.5" text-anchor="middle" font-family="-apple-system,BlinkMacSystemFont,PingFang SC,Noto Sans CJK SC,sans-serif" font-size="18" font-weight="700" fill="#263f86">C</text>
<line x1="675.9" y1="384.4" x2="772.7" y2="376.1" stroke="#6670ee" stroke-width="4"/>
<text x="724.3" y="362.2" text-anchor="middle" font-family="-apple-system,BlinkMacSystemFont,PingFang SC,Noto Sans CJK SC,sans-serif" font-size="18" font-weight="700" fill="#263f86">D</text>
<line x1="869.5" y1="408.7" x2="966.4" y2="426.2" stroke="#6670ee" stroke-width="4"/>
<text x="918.0" y="399.5" text-anchor="middle" font-family="-apple-system,BlinkMacSystemFont,PingFang SC,Noto Sans CJK SC,sans-serif" font-size="18" font-weight="700" fill="#263f86">E</text>
<line x1="1063.2" y1="508.2" x2="1160.0" y2="503.0" stroke="#6670ee" stroke-width="4"/>
<text x="1111.6" y="487.6" text-anchor="middle" font-family="-apple-system,BlinkMacSystemFont,PingFang SC,Noto Sans CJK SC,sans-serif" font-size="18" font-weight="700" fill="#263f86">F</text>
<text x="627.5" y="604.0" text-anchor="middle" font-family="-apple-system,BlinkMacSystemFont,PingFang SC,Noto Sans CJK SC,sans-serif" font-size="19" font-weight="400" fill="#30332e">数据行</text>
</svg>
