<svg xmlns="http://www.w3.org/2000/svg" width="1200" height="690" viewBox="0 0 1200 690">
<title>图 13.5：魔鬼漏斗的中心化与非中心化参数化</title>
<desc>左图是中心化参数化的漏斗形联合密度等高线，灰色 HMC 轨迹越过陡峭谷壁形成发散转移；右图是同一模型的非中心化参数化，联合密度变为平缓的二维高斯。</desc>
<rect width="1200" height="690" fill="#fff"/>
<text x="322.5" y="48.0" text-anchor="middle" font-family="-apple-system,BlinkMacSystemFont,PingFang SC,Noto Sans CJK SC,sans-serif" font-size="23" font-weight="600" fill="#30332e">中心化参数化</text>
<text x="897.5" y="48.0" text-anchor="middle" font-family="-apple-system,BlinkMacSystemFont,PingFang SC,Noto Sans CJK SC,sans-serif" font-size="23" font-weight="600" fill="#30332e">非中心化参数化</text>
<line x1="90.0" y1="560.0" x2="555.0" y2="560.0" stroke="#30332e" stroke-width="2"/>
<line x1="90.0" y1="95.0" x2="90.0" y2="560.0" stroke="#30332e" stroke-width="2"/>
<line x1="665.0" y1="560.0" x2="1130.0" y2="560.0" stroke="#30332e" stroke-width="2"/>
<line x1="665.0" y1="95.0" x2="665.0" y2="560.0" stroke="#30332e" stroke-width="2"/>
<polyline points="324.6,557.4 324.6,556.1 324.7,554.9 324.7,553.6 324.8,552.3 324.8,551.0 324.9,549.8 325.0,548.5 325.0,547.2 325.1,545.9 325.1,544.6 325.2,543.4 325.3,542.1 325.3,540.8 325.4,539.5 325.5,538.3 325.5,537.0 325.6,535.7 325.7,534.4 325.8,533.1 325.9,531.9 325.9,530.6 326.0,529.3 326.1,528.0 326.2,526.8 326.3,525.5 326.4,524.2 326.5,522.9 326.6,521.7 326.6,520.4 326.7,519.1 326.9,517.8 327.0,516.5 327.1,515.3 327.2,514.0 327.3,512.7 327.4,511.4 327.5,510.2 327.6,508.9 327.8,507.6 327.9,506.3 328.0,505.0 328.1,503.8 328.3,502.5 328.4,501.2 328.6,499.9 328.7,498.7 328.8,497.4 329.0,496.1 329.2,494.8 329.3,493.6 329.5,492.3 329.6,491.0 329.8,489.7 330.0,488.4 330.2,487.2 330.3,485.9 330.5,484.6 330.7,483.3 330.9,482.1 331.1,480.8 331.3,479.5 331.5,478.2 331.7,476.9 332.0,475.7 332.2,474.4 332.4,473.1 332.6,471.8 332.9,470.6 333.1,469.3 333.4,468.0 333.6,466.7 333.9,465.4 334.2,464.2 334.5,462.9 334.7,461.6 335.0,460.3 335.3,459.1 335.6,457.8 335.9,456.5 336.2,455.2 336.6,454.0 336.9,452.7 337.2,451.4 337.6,450.1 337.9,448.8 338.3,447.6 338.7,446.3 339.0,445.0 339.4,443.7 339.8,442.5 340.2,441.2 340.7,439.9 341.1,438.6 341.5,437.3 342.0,436.1 342.4,434.8 342.9,433.5 343.4,432.2 343.8,431.0 344.3,429.7 344.8,428.4 345.4,427.1 345.9,425.9 346.4,424.6 347.0,423.3 347.6,422.0 348.2,420.7 348.8,419.5 349.4,418.2 350.0,416.9 350.6,415.6 351.3,414.4 351.9,413.1 352.6,411.8 353.3,410.5 354.0,409.2 354.8,408.0 355.5,406.7 356.3,405.4 357.0,404.1 357.8,402.9 358.7,401.6 359.5,400.3 360.3,399.0 361.2,397.8 362.1,396.5 363.0,395.2 363.9,393.9 364.9,392.6 365.9,391.4 366.9,390.1 367.9,388.8 368.9,387.5 370.0,386.3 371.1,385.0 372.2,383.7 373.3,382.4 374.4,381.1 375.6,379.9 376.8,378.6 378.1,377.3 379.3,376.0 380.6,374.8 381.9,373.5 383.3,372.2 384.7,370.9 386.1,369.7 387.5,368.4 389.0,367.1 390.5,365.8 392.0,364.5 393.6,363.3 395.2,362.0 396.8,360.7 398.5,359.4 400.2,358.2 401.9,356.9 403.7,355.6 405.5,354.3 407.4,353.0 409.3,351.8 411.2,350.5 413.2,349.2 415.2,347.9 417.3,346.7 419.4,345.4 421.6,344.1 423.8,342.8 426.0,341.6 428.3,340.3 430.6,339.0 433.0,337.7 435.5,336.4 438.0,335.2 440.5,333.9 443.1,332.6 445.7,331.3 448.4,330.1 451.2,328.8 454.0,327.5 456.9,326.2 459.8,324.9 462.8,323.7 465.9,322.4 469.0,321.1 472.2,319.8 475.4,318.6 478.7,317.3 482.1,316.0 485.5,314.7 489.1,313.4 492.6,312.2 496.3,310.9 500.0,309.6 503.8,308.3 507.7,307.1 511.7,305.8 515.7,304.5 519.8,303.2 524.0,302.0 528.3,300.7 532.6,299.4 537.0,298.1 541.6,296.8 546.2,295.6 550.9,294.3 555.6,293.0" fill="none" stroke="#777a74" stroke-width="1.2"/>
<polyline points="320.4,557.4 320.4,556.1 320.3,554.9 320.3,553.6 320.2,552.3 320.2,551.0 320.1,549.8 320.0,548.5 320.0,547.2 319.9,545.9 319.9,544.6 319.8,543.4 319.7,542.1 319.7,540.8 319.6,539.5 319.5,538.3 319.5,537.0 319.4,535.7 319.3,534.4 319.2,533.1 319.1,531.9 319.1,530.6 319.0,529.3 318.9,528.0 318.8,526.8 318.7,525.5 318.6,524.2 318.5,522.9 318.4,521.7 318.4,520.4 318.3,519.1 318.1,517.8 318.0,516.5 317.9,515.3 317.8,514.0 317.7,512.7 317.6,511.4 317.5,510.2 317.4,508.9 317.2,507.6 317.1,506.3 317.0,505.0 316.9,503.8 316.7,502.5 316.6,501.2 316.4,499.9 316.3,498.7 316.2,497.4 316.0,496.1 315.8,494.8 315.7,493.6 315.5,492.3 315.4,491.0 315.2,489.7 315.0,488.4 314.8,487.2 314.7,485.9 314.5,484.6 314.3,483.3 314.1,482.1 313.9,480.8 313.7,479.5 313.5,478.2 313.3,476.9 313.0,475.7 312.8,474.4 312.6,473.1 312.4,471.8 312.1,470.6 311.9,469.3 311.6,468.0 311.4,466.7 311.1,465.4 310.8,464.2 310.5,462.9 310.3,461.6 310.0,460.3 309.7,459.1 309.4,457.8 309.1,456.5 308.8,455.2 308.4,454.0 308.1,452.7 307.8,451.4 307.4,450.1 307.1,448.8 306.7,447.6 306.3,446.3 306.0,445.0 305.6,443.7 305.2,442.5 304.8,441.2 304.3,439.9 303.9,438.6 303.5,437.3 303.0,436.1 302.6,434.8 302.1,433.5 301.6,432.2 301.2,431.0 300.7,429.7 300.2,428.4 299.6,427.1 299.1,425.9 298.6,424.6 298.0,423.3 297.4,422.0 296.8,420.7 296.2,419.5 295.6,418.2 295.0,416.9 294.4,415.6 293.7,414.4 293.1,413.1 292.4,411.8 291.7,410.5 291.0,409.2 290.2,408.0 289.5,406.7 288.7,405.4 288.0,404.1 287.2,402.9 286.3,401.6 285.5,400.3 284.7,399.0 283.8,397.8 282.9,396.5 282.0,395.2 281.1,393.9 280.1,392.6 279.1,391.4 278.1,390.1 277.1,388.8 276.1,387.5 275.0,386.3 273.9,385.0 272.8,383.7 271.7,382.4 270.6,381.1 269.4,379.9 268.2,378.6 266.9,377.3 265.7,376.0 264.4,374.8 263.1,373.5 261.7,372.2 260.3,370.9 258.9,369.7 257.5,368.4 256.0,367.1 254.5,365.8 253.0,364.5 251.4,363.3 249.8,362.0 248.2,360.7 246.5,359.4 244.8,358.2 243.1,356.9 241.3,355.6 239.5,354.3 237.6,353.0 235.7,351.8 233.8,350.5 231.8,349.2 229.8,347.9 227.7,346.7 225.6,345.4 223.4,344.1 221.2,342.8 219.0,341.6 216.7,340.3 214.4,339.0 212.0,337.7 209.5,336.4 207.0,335.2 204.5,333.9 201.9,332.6 199.3,331.3 196.6,330.1 193.8,328.8 191.0,327.5 188.1,326.2 185.2,324.9 182.2,323.7 179.1,322.4 176.0,321.1 172.8,319.8 169.6,318.6 166.3,317.3 162.9,316.0 159.5,314.7 155.9,313.4 152.4,312.2 148.7,310.9 145.0,309.6 141.2,308.3 137.3,307.1 133.3,305.8 129.3,304.5 125.2,303.2 121.0,302.0 116.7,300.7 112.4,299.4 108.0,298.1 103.4,296.8 98.8,295.6 94.1,294.3 89.4,293.0" fill="none" stroke="#777a74" stroke-width="1.2"/>
<polyline points="324.4,557.4 324.5,556.1 324.5,554.9 324.6,553.6 324.6,552.3 324.7,551.0 324.7,549.8 324.8,548.5 324.8,547.2 324.9,545.9 325.0,544.6 325.0,543.4 325.1,542.1 325.1,540.8 325.2,539.5 325.3,538.3 325.3,537.0 325.4,535.7 325.5,534.4 325.5,533.1 325.6,531.9 325.7,530.6 325.8,529.3 325.8,528.0 325.9,526.8 326.0,525.5 326.1,524.2 326.2,522.9 326.3,521.7 326.3,520.4 326.4,519.1 326.5,517.8 326.6,516.5 326.7,515.3 326.8,514.0 326.9,512.7 327.0,511.4 327.1,510.2 327.2,508.9 327.4,507.6 327.5,506.3 327.6,505.0 327.7,503.8 327.8,502.5 328.0,501.2 328.1,499.9 328.2,498.7 328.4,497.4 328.5,496.1 328.6,494.8 328.8,493.6 328.9,492.3 329.1,491.0 329.2,489.7 329.4,488.4 329.6,487.2 329.7,485.9 329.9,484.6 330.1,483.3 330.2,482.1 330.4,480.8 330.6,479.5 330.8,478.2 331.0,476.9 331.2,475.7 331.4,474.4 331.6,473.1 331.8,471.8 332.0,470.6 332.3,469.3 332.5,468.0 332.7,466.7 333.0,465.4 333.2,464.2 333.5,462.9 333.7,461.6 334.0,460.3 334.2,459.1 334.5,457.8 334.8,456.5 335.1,455.2 335.4,454.0 335.7,452.7 336.0,451.4 336.3,450.1 336.6,448.8 336.9,447.6 337.3,446.3 337.6,445.0 338.0,443.7 338.3,442.5 338.7,441.2 339.0,439.9 339.4,438.6 339.8,437.3 340.2,436.1 340.6,434.8 341.0,433.5 341.5,432.2 341.9,431.0 342.4,429.7 342.8,428.4 343.3,427.1 343.8,425.9 344.2,424.6 344.7,423.3 345.2,422.0 345.8,420.7 346.3,419.5 346.8,418.2 347.4,416.9 348.0,415.6 348.5,414.4 349.1,413.1 349.7,411.8 350.4,410.5 351.0,409.2 351.6,408.0 352.3,406.7 353.0,405.4 353.7,404.1 354.4,402.9 355.1,401.6 355.8,400.3 356.6,399.0 357.3,397.8 358.1,396.5 358.9,395.2 359.7,393.9 360.6,392.6 361.4,391.4 362.3,390.1 363.2,388.8 364.1,387.5 365.0,386.3 366.0,385.0 366.9,383.7 367.9,382.4 368.9,381.1 370.0,379.9 371.0,378.6 372.1,377.3 373.2,376.0 374.3,374.8 375.5,373.5 376.6,372.2 377.8,370.9 379.0,369.7 380.3,368.4 381.5,367.1 382.8,365.8 384.2,364.5 385.5,363.3 386.9,362.0 388.3,360.7 389.7,359.4 391.2,358.2 392.7,356.9 394.2,355.6 395.7,354.3 397.3,353.0 398.9,351.8 400.6,350.5 402.3,349.2 404.0,347.9 405.7,346.7 407.5,345.4 409.3,344.1 411.2,342.8 413.1,341.6 415.0,340.3 417.0,339.0 419.0,337.7 421.0,336.4 423.1,335.2 425.2,333.9 427.4,332.6 429.6,331.3 431.8,330.1 434.1,328.8 436.4,327.5 438.8,326.2 441.2,324.9 443.6,323.7 446.1,322.4 448.7,321.1 451.3,319.8 453.9,318.6 456.6,317.3 459.3,316.0 462.1,314.7 465.0,313.4 467.8,312.2 470.8,310.9 473.7,309.6 476.8,308.3 479.9,307.1 483.0,305.8 486.2,304.5 489.4,303.2 492.7,302.0 496.0,300.7 499.4,299.4 502.9,298.1 506.4,296.8 510.0,295.6 513.6,294.3 517.2,293.0 521.0,291.7 524.7,290.5 528.6,289.2 532.4,287.9 536.4,286.6 540.4,285.3 544.4,284.1 548.5,282.8 552.7,281.5 556.9,280.2" fill="none" stroke="#777a74" stroke-width="1.2"/>
<polyline points="320.6,557.4 320.5,556.1 320.5,554.9 320.4,553.6 320.4,552.3 320.3,551.0 320.3,549.8 320.2,548.5 320.2,547.2 320.1,545.9 320.0,544.6 320.0,543.4 319.9,542.1 319.9,540.8 319.8,539.5 319.7,538.3 319.7,537.0 319.6,535.7 319.5,534.4 319.5,533.1 319.4,531.9 319.3,530.6 319.2,529.3 319.2,528.0 319.1,526.8 319.0,525.5 318.9,524.2 318.8,522.9 318.7,521.7 318.7,520.4 318.6,519.1 318.5,517.8 318.4,516.5 318.3,515.3 318.2,514.0 318.1,512.7 318.0,511.4 317.9,510.2 317.8,508.9 317.6,507.6 317.5,506.3 317.4,505.0 317.3,503.8 317.2,502.5 317.0,501.2 316.9,499.9 316.8,498.7 316.6,497.4 316.5,496.1 316.4,494.8 316.2,493.6 316.1,492.3 315.9,491.0 315.8,489.7 315.6,488.4 315.4,487.2 315.3,485.9 315.1,484.6 314.9,483.3 314.8,482.1 314.6,480.8 314.4,479.5 314.2,478.2 314.0,476.9 313.8,475.7 313.6,474.4 313.4,473.1 313.2,471.8 313.0,470.6 312.7,469.3 312.5,468.0 312.3,466.7 312.0,465.4 311.8,464.2 311.5,462.9 311.3,461.6 311.0,460.3 310.8,459.1 310.5,457.8 310.2,456.5 309.9,455.2 309.6,454.0 309.3,452.7 309.0,451.4 308.7,450.1 308.4,448.8 308.1,447.6 307.7,446.3 307.4,445.0 307.0,443.7 306.7,442.5 306.3,441.2 306.0,439.9 305.6,438.6 305.2,437.3 304.8,436.1 304.4,434.8 304.0,433.5 303.5,432.2 303.1,431.0 302.6,429.7 302.2,428.4 301.7,427.1 301.2,425.9 300.8,424.6 300.3,423.3 299.8,422.0 299.2,420.7 298.7,419.5 298.2,418.2 297.6,416.9 297.0,415.6 296.5,414.4 295.9,413.1 295.3,411.8 294.6,410.5 294.0,409.2 293.4,408.0 292.7,406.7 292.0,405.4 291.3,404.1 290.6,402.9 289.9,401.6 289.2,400.3 288.4,399.0 287.7,397.8 286.9,396.5 286.1,395.2 285.3,393.9 284.4,392.6 283.6,391.4 282.7,390.1 281.8,388.8 280.9,387.5 280.0,386.3 279.0,385.0 278.1,383.7 277.1,382.4 276.1,381.1 275.0,379.9 274.0,378.6 272.9,377.3 271.8,376.0 270.7,374.8 269.5,373.5 268.4,372.2 267.2,370.9 266.0,369.7 264.7,368.4 263.5,367.1 262.2,365.8 260.8,364.5 259.5,363.3 258.1,362.0 256.7,360.7 255.3,359.4 253.8,358.2 252.3,356.9 250.8,355.6 249.3,354.3 247.7,353.0 246.1,351.8 244.4,350.5 242.7,349.2 241.0,347.9 239.3,346.7 237.5,345.4 235.7,344.1 233.8,342.8 231.9,341.6 230.0,340.3 228.0,339.0 226.0,337.7 224.0,336.4 221.9,335.2 219.8,333.9 217.6,332.6 215.4,331.3 213.2,330.1 210.9,328.8 208.6,327.5 206.2,326.2 203.8,324.9 201.4,323.7 198.9,322.4 196.3,321.1 193.7,319.8 191.1,318.6 188.4,317.3 185.7,316.0 182.9,314.7 180.0,313.4 177.2,312.2 174.2,310.9 171.3,309.6 168.2,308.3 165.1,307.1 162.0,305.8 158.8,304.5 155.6,303.2 152.3,302.0 149.0,300.7 145.6,299.4 142.1,298.1 138.6,296.8 135.0,295.6 131.4,294.3 127.8,293.0 124.0,291.7 120.3,290.5 116.4,289.2 112.6,287.9 108.6,286.6 104.6,285.3 100.6,284.1 96.5,282.8 92.3,281.5 88.1,280.2" fill="none" stroke="#777a74" stroke-width="1.2"/>
<polyline points="536.0,194.7 474.7,193.4" fill="none" stroke="#777a74" stroke-width="1.2"/>
<polyline points="109.0,194.7 170.3,193.4" fill="none" stroke="#777a74" stroke-width="1.2"/>
<polyline points="324.3,557.4 324.3,556.1 324.4,554.9 324.4,553.6 324.5,552.3 324.5,551.0 324.5,549.8 324.6,548.5 324.6,547.2 324.7,545.9 324.7,544.6 324.8,543.4 324.9,542.1 324.9,540.8 325.0,539.5 325.0,538.3 325.1,537.0 325.1,535.7 325.2,534.4 325.3,533.1 325.3,531.9 325.4,530.6 325.5,529.3 325.5,528.0 325.6,526.8 325.7,525.5 325.8,524.2 325.8,522.9 325.9,521.7 326.0,520.4 326.1,519.1 326.2,517.8 326.3,516.5 326.3,515.3 326.4,514.0 326.5,512.7 326.6,511.4 326.7,510.2 326.8,508.9 326.9,507.6 327.0,506.3 327.1,505.0 327.2,503.8 327.3,502.5 327.5,501.2 327.6,499.9 327.7,498.7 327.8,497.4 327.9,496.1 328.1,494.8 328.2,493.6 328.3,492.3 328.5,491.0 328.6,489.7 328.7,488.4 328.9,487.2 329.0,485.9 329.2,484.6 329.3,483.3 329.5,482.1 329.7,480.8 329.8,479.5 330.0,478.2 330.2,476.9 330.3,475.7 330.5,474.4 330.7,473.1 330.9,471.8 331.1,470.6 331.3,469.3 331.5,468.0 331.7,466.7 331.9,465.4 332.1,464.2 332.4,462.9 332.6,461.6 332.8,460.3 333.0,459.1 333.3,457.8 333.5,456.5 333.8,455.2 334.0,454.0 334.3,452.7 334.6,451.4 334.8,450.1 335.1,448.8 335.4,447.6 335.7,446.3 336.0,445.0 336.3,443.7 336.6,442.5 336.9,441.2 337.3,439.9 337.6,438.6 337.9,437.3 338.3,436.1 338.6,434.8 339.0,433.5 339.4,432.2 339.8,431.0 340.1,429.7 340.5,428.4 340.9,427.1 341.4,425.9 341.8,424.6 342.2,423.3 342.6,422.0 343.1,420.7 343.6,419.5 344.0,418.2 344.5,416.9 345.0,415.6 345.5,414.4 346.0,413.1 346.5,411.8 347.0,410.5 347.6,409.2 348.1,408.0 348.7,406.7 349.3,405.4 349.9,404.1 350.5,402.9 351.1,401.6 351.7,400.3 352.3,399.0 353.0,397.8 353.6,396.5 354.3,395.2 355.0,393.9 355.7,392.6 356.4,391.4 357.1,390.1 357.9,388.8 358.6,387.5 359.4,386.3 360.2,385.0 361.0,383.7 361.8,382.4 362.7,381.1 363.5,379.9 364.4,378.6 365.3,377.3 366.2,376.0 367.1,374.8 368.1,373.5 369.0,372.2 370.0,370.9 371.0,369.7 372.0,368.4 373.0,367.1 374.1,365.8 375.1,364.5 376.2,363.3 377.3,362.0 378.5,360.7 379.6,359.4 380.8,358.2 382.0,356.9 383.2,355.6 384.4,354.3 385.7,353.0 386.9,351.8 388.2,350.5 389.6,349.2 390.9,347.9 392.3,346.7 393.7,345.4 395.1,344.1 396.5,342.8 398.0,341.6 399.4,340.3 400.9,339.0 402.5,337.7 404.0,336.4 405.6,335.2 407.2,333.9 408.8,332.6 410.4,331.3 412.1,330.1 413.8,328.8 415.5,327.5 417.2,326.2 419.0,324.9 420.8,323.7 422.6,322.4 424.4,321.1 426.3,319.8 428.1,318.6 430.0,317.3 431.9,316.0 433.9,314.7 435.8,313.4 437.8,312.2 439.8,310.9 441.8,309.6 443.8,308.3 445.9,307.1 447.9,305.8 450.0,304.5 452.1,303.2 454.2,302.0 456.3,300.7 458.4,299.4 460.6,298.1 462.7,296.8 464.8,295.6 467.0,294.3 469.1,293.0 471.2,291.7 473.4,290.5 475.5,289.2 477.6,287.9 479.7,286.6 481.8,285.3 483.8,284.1 485.8,282.8 487.8,281.5 489.8,280.2 491.7,279.0 493.6,277.7 495.4,276.4 497.2,275.1 498.9,273.9 500.5,272.6 502.1,271.3 503.5,270.0 504.9,268.7 506.1,267.5 507.2,266.2 508.2,264.9 509.0,263.6 509.7,262.4 510.2,261.1 510.4,259.8 510.5,258.5 510.3,257.2 509.8,256.0 509.1,254.7 507.9,253.4 506.5,252.1 504.5,250.9 502.1,249.6 499.2,248.3 495.7,247.0 491.4,245.8 486.4,244.5 480.3,243.2 473.2,241.9 464.6,240.6 454.3,239.4 441.7,238.1 425.7,236.8 404.3,235.5 370.4,234.3" fill="none" stroke="#777a74" stroke-width="1.2"/>
<polyline points="320.7,557.4 320.7,556.1 320.6,554.9 320.6,553.6 320.5,552.3 320.5,551.0 320.5,549.8 320.4,548.5 320.4,547.2 320.3,545.9 320.3,544.6 320.2,543.4 320.1,542.1 320.1,540.8 320.0,539.5 320.0,538.3 319.9,537.0 319.9,535.7 319.8,534.4 319.7,533.1 319.7,531.9 319.6,530.6 319.5,529.3 319.5,528.0 319.4,526.8 319.3,525.5 319.2,524.2 319.2,522.9 319.1,521.7 319.0,520.4 318.9,519.1 318.8,517.8 318.7,516.5 318.7,515.3 318.6,514.0 318.5,512.7 318.4,511.4 318.3,510.2 318.2,508.9 318.1,507.6 318.0,506.3 317.9,505.0 317.8,503.8 317.7,502.5 317.5,501.2 317.4,499.9 317.3,498.7 317.2,497.4 317.1,496.1 316.9,494.8 316.8,493.6 316.7,492.3 316.5,491.0 316.4,489.7 316.3,488.4 316.1,487.2 316.0,485.9 315.8,484.6 315.7,483.3 315.5,482.1 315.3,480.8 315.2,479.5 315.0,478.2 314.8,476.9 314.7,475.7 314.5,474.4 314.3,473.1 314.1,471.8 313.9,470.6 313.7,469.3 313.5,468.0 313.3,466.7 313.1,465.4 312.9,464.2 312.6,462.9 312.4,461.6 312.2,460.3 312.0,459.1 311.7,457.8 311.5,456.5 311.2,455.2 311.0,454.0 310.7,452.7 310.4,451.4 310.2,450.1 309.9,448.8 309.6,447.6 309.3,446.3 309.0,445.0 308.7,443.7 308.4,442.5 308.1,441.2 307.7,439.9 307.4,438.6 307.1,437.3 306.7,436.1 306.4,434.8 306.0,433.5 305.6,432.2 305.2,431.0 304.9,429.7 304.5,428.4 304.1,427.1 303.6,425.9 303.2,424.6 302.8,423.3 302.4,422.0 301.9,420.7 301.4,419.5 301.0,418.2 300.5,416.9 300.0,415.6 299.5,414.4 299.0,413.1 298.5,411.8 298.0,410.5 297.4,409.2 296.9,408.0 296.3,406.7 295.7,405.4 295.1,404.1 294.5,402.9 293.9,401.6 293.3,400.3 292.7,399.0 292.0,397.8 291.4,396.5 290.7,395.2 290.0,393.9 289.3,392.6 288.6,391.4 287.9,390.1 287.1,388.8 286.4,387.5 285.6,386.3 284.8,385.0 284.0,383.7 283.2,382.4 282.3,381.1 281.5,379.9 280.6,378.6 279.7,377.3 278.8,376.0 277.9,374.8 276.9,373.5 276.0,372.2 275.0,370.9 274.0,369.7 273.0,368.4 272.0,367.1 270.9,365.8 269.9,364.5 268.8,363.3 267.7,362.0 266.5,360.7 265.4,359.4 264.2,358.2 263.0,356.9 261.8,355.6 260.6,354.3 259.3,353.0 258.1,351.8 256.8,350.5 255.4,349.2 254.1,347.9 252.7,346.7 251.3,345.4 249.9,344.1 248.5,342.8 247.0,341.6 245.6,340.3 244.1,339.0 242.5,337.7 241.0,336.4 239.4,335.2 237.8,333.9 236.2,332.6 234.6,331.3 232.9,330.1 231.2,328.8 229.5,327.5 227.8,326.2 226.0,324.9 224.2,323.7 222.4,322.4 220.6,321.1 218.7,319.8 216.9,318.6 215.0,317.3 213.1,316.0 211.1,314.7 209.2,313.4 207.2,312.2 205.2,310.9 203.2,309.6 201.2,308.3 199.1,307.1 197.1,305.8 195.0,304.5 192.9,303.2 190.8,302.0 188.7,300.7 186.6,299.4 184.4,298.1 182.3,296.8 180.2,295.6 178.0,294.3 175.9,293.0 173.8,291.7 171.6,290.5 169.5,289.2 167.4,287.9 165.3,286.6 163.2,285.3 161.2,284.1 159.2,282.8 157.2,281.5 155.2,280.2 153.3,279.0 151.4,277.7 149.6,276.4 147.8,275.1 146.1,273.9 144.5,272.6 142.9,271.3 141.5,270.0 140.1,268.7 138.9,267.5 137.8,266.2 136.8,264.9 136.0,263.6 135.3,262.4 134.8,261.1 134.6,259.8 134.5,258.5 134.7,257.2 135.2,256.0 135.9,254.7 137.1,253.4 138.5,252.1 140.5,250.9 142.9,249.6 145.8,248.3 149.3,247.0 153.6,245.8 158.6,244.5 164.7,243.2 171.8,241.9 180.4,240.6 190.7,239.4 203.3,238.1 219.3,236.8 240.7,235.5 274.6,234.3" fill="none" stroke="#777a74" stroke-width="1.2"/>
<polyline points="324.1,557.4 324.1,556.1 324.2,554.9 324.2,553.6 324.3,552.3 324.3,551.0 324.3,549.8 324.4,548.5 324.4,547.2 324.5,545.9 324.5,544.6 324.6,543.4 324.6,542.1 324.7,540.8 324.7,539.5 324.8,538.3 324.8,537.0 324.9,535.7 324.9,534.4 325.0,533.1 325.0,531.9 325.1,530.6 325.2,529.3 325.2,528.0 325.3,526.8 325.4,525.5 325.4,524.2 325.5,522.9 325.6,521.7 325.6,520.4 325.7,519.1 325.8,517.8 325.9,516.5 325.9,515.3 326.0,514.0 326.1,512.7 326.2,511.4 326.3,510.2 326.3,508.9 326.4,507.6 326.5,506.3 326.6,505.0 326.7,503.8 326.8,502.5 326.9,501.2 327.0,499.9 327.1,498.7 327.2,497.4 327.3,496.1 327.4,494.8 327.5,493.6 327.7,492.3 327.8,491.0 327.9,489.7 328.0,488.4 328.1,487.2 328.3,485.9 328.4,484.6 328.5,483.3 328.7,482.1 328.8,480.8 329.0,479.5 329.1,478.2 329.2,476.9 329.4,475.7 329.6,474.4 329.7,473.1 329.9,471.8 330.0,470.6 330.2,469.3 330.4,468.0 330.6,466.7 330.7,465.4 330.9,464.2 331.1,462.9 331.3,461.6 331.5,460.3 331.7,459.1 331.9,457.8 332.1,456.5 332.3,455.2 332.5,454.0 332.8,452.7 333.0,451.4 333.2,450.1 333.5,448.8 333.7,447.6 333.9,446.3 334.2,445.0 334.4,443.7 334.7,442.5 335.0,441.2 335.2,439.9 335.5,438.6 335.8,437.3 336.1,436.1 336.4,434.8 336.7,433.5 337.0,432.2 337.3,431.0 337.6,429.7 337.9,428.4 338.3,427.1 338.6,425.9 339.0,424.6 339.3,423.3 339.7,422.0 340.0,420.7 340.4,419.5 340.8,418.2 341.2,416.9 341.6,415.6 342.0,414.4 342.4,413.1 342.8,411.8 343.2,410.5 343.6,409.2 344.1,408.0 344.5,406.7 345.0,405.4 345.4,404.1 345.9,402.9 346.4,401.6 346.9,400.3 347.4,399.0 347.9,397.8 348.4,396.5 348.9,395.2 349.4,393.9 350.0,392.6 350.5,391.4 351.1,390.1 351.6,388.8 352.2,387.5 352.8,386.3 353.4,385.0 354.0,383.7 354.6,382.4 355.2,381.1 355.9,379.9 356.5,378.6 357.2,377.3 357.8,376.0 358.5,374.8 359.2,373.5 359.9,372.2 360.6,370.9 361.3,369.7 362.0,368.4 362.7,367.1 363.5,365.8 364.2,364.5 365.0,363.3 365.7,362.0 366.5,360.7 367.3,359.4 368.1,358.2 368.9,356.9 369.7,355.6 370.5,354.3 371.3,353.0 372.1,351.8 373.0,350.5 373.8,349.2 374.6,347.9 375.5,346.7 376.3,345.4 377.2,344.1 378.1,342.8 378.9,341.6 379.8,340.3 380.6,339.0 381.5,337.7 382.4,336.4 383.2,335.2 384.1,333.9 384.9,332.6 385.8,331.3 386.6,330.1 387.4,328.8 388.3,327.5 389.1,326.2 389.9,324.9 390.6,323.7 391.4,322.4 392.1,321.1 392.8,319.8 393.5,318.6 394.2,317.3 394.8,316.0 395.4,314.7 395.9,313.4 396.4,312.2 396.9,310.9 397.3,309.6 397.6,308.3 397.9,307.1 398.1,305.8 398.2,304.5 398.2,303.2 398.1,302.0 397.9,300.7 397.6,299.4 397.2,298.1 396.6,296.8 395.8,295.6 394.8,294.3 393.6,293.0 392.2,291.7 390.4,290.5 388.4,289.2 385.9,287.9 383.0,286.6 379.5,285.3 375.3,284.1 370.2,282.8 363.6,281.5 354.8,280.2 340.6,279.0" fill="none" stroke="#777a74" stroke-width="1.2"/>
<polyline points="320.9,557.4 320.9,556.1 320.8,554.9 320.8,553.6 320.7,552.3 320.7,551.0 320.7,549.8 320.6,548.5 320.6,547.2 320.5,545.9 320.5,544.6 320.4,543.4 320.4,542.1 320.3,540.8 320.3,539.5 320.2,538.3 320.2,537.0 320.1,535.7 320.1,534.4 320.0,533.1 320.0,531.9 319.9,530.6 319.8,529.3 319.8,528.0 319.7,526.8 319.6,525.5 319.6,524.2 319.5,522.9 319.4,521.7 319.4,520.4 319.3,519.1 319.2,517.8 319.1,516.5 319.1,515.3 319.0,514.0 318.9,512.7 318.8,511.4 318.7,510.2 318.7,508.9 318.6,507.6 318.5,506.3 318.4,505.0 318.3,503.8 318.2,502.5 318.1,501.2 318.0,499.9 317.9,498.7 317.8,497.4 317.7,496.1 317.6,494.8 317.5,493.6 317.3,492.3 317.2,491.0 317.1,489.7 317.0,488.4 316.9,487.2 316.7,485.9 316.6,484.6 316.5,483.3 316.3,482.1 316.2,480.8 316.0,479.5 315.9,478.2 315.8,476.9 315.6,475.7 315.4,474.4 315.3,473.1 315.1,471.8 315.0,470.6 314.8,469.3 314.6,468.0 314.4,466.7 314.3,465.4 314.1,464.2 313.9,462.9 313.7,461.6 313.5,460.3 313.3,459.1 313.1,457.8 312.9,456.5 312.7,455.2 312.5,454.0 312.2,452.7 312.0,451.4 311.8,450.1 311.5,448.8 311.3,447.6 311.1,446.3 310.8,445.0 310.6,443.7 310.3,442.5 310.0,441.2 309.8,439.9 309.5,438.6 309.2,437.3 308.9,436.1 308.6,434.8 308.3,433.5 308.0,432.2 307.7,431.0 307.4,429.7 307.1,428.4 306.7,427.1 306.4,425.9 306.0,424.6 305.7,423.3 305.3,422.0 305.0,420.7 304.6,419.5 304.2,418.2 303.8,416.9 303.4,415.6 303.0,414.4 302.6,413.1 302.2,411.8 301.8,410.5 301.4,409.2 300.9,408.0 300.5,406.7 300.0,405.4 299.6,404.1 299.1,402.9 298.6,401.6 298.1,400.3 297.6,399.0 297.1,397.8 296.6,396.5 296.1,395.2 295.6,393.9 295.0,392.6 294.5,391.4 293.9,390.1 293.4,388.8 292.8,387.5 292.2,386.3 291.6,385.0 291.0,383.7 290.4,382.4 289.8,381.1 289.1,379.9 288.5,378.6 287.8,377.3 287.2,376.0 286.5,374.8 285.8,373.5 285.1,372.2 284.4,370.9 283.7,369.7 283.0,368.4 282.3,367.1 281.5,365.8 280.8,364.5 280.0,363.3 279.3,362.0 278.5,360.7 277.7,359.4 276.9,358.2 276.1,356.9 275.3,355.6 274.5,354.3 273.7,353.0 272.9,351.8 272.0,350.5 271.2,349.2 270.4,347.9 269.5,346.7 268.7,345.4 267.8,344.1 266.9,342.8 266.1,341.6 265.2,340.3 264.4,339.0 263.5,337.7 262.6,336.4 261.8,335.2 260.9,333.9 260.1,332.6 259.2,331.3 258.4,330.1 257.6,328.8 256.7,327.5 255.9,326.2 255.1,324.9 254.4,323.7 253.6,322.4 252.9,321.1 252.2,319.8 251.5,318.6 250.8,317.3 250.2,316.0 249.6,314.7 249.1,313.4 248.6,312.2 248.1,310.9 247.7,309.6 247.4,308.3 247.1,307.1 246.9,305.8 246.8,304.5 246.8,303.2 246.9,302.0 247.1,300.7 247.4,299.4 247.8,298.1 248.4,296.8 249.2,295.6 250.2,294.3 251.4,293.0 252.8,291.7 254.6,290.5 256.6,289.2 259.1,287.9 262.0,286.6 265.5,285.3 269.7,284.1 274.8,282.8 281.4,281.5 290.2,280.2 304.4,279.0" fill="none" stroke="#777a74" stroke-width="1.2"/>
<polyline points="323.9,557.4 323.9,556.1 324.0,554.9 324.0,553.6 324.0,552.3 324.1,551.0 324.1,549.8 324.1,548.5 324.2,547.2 324.2,545.9 324.3,544.6 324.3,543.4 324.3,542.1 324.4,540.8 324.4,539.5 324.5,538.3 324.5,537.0 324.6,535.7 324.6,534.4 324.7,533.1 324.7,531.9 324.8,530.6 324.8,529.3 324.9,528.0 324.9,526.8 325.0,525.5 325.0,524.2 325.1,522.9 325.1,521.7 325.2,520.4 325.3,519.1 325.3,517.8 325.4,516.5 325.5,515.3 325.5,514.0 325.6,512.7 325.7,511.4 325.7,510.2 325.8,508.9 325.9,507.6 326.0,506.3 326.0,505.0 326.1,503.8 326.2,502.5 326.3,501.2 326.4,499.9 326.4,498.7 326.5,497.4 326.6,496.1 326.7,494.8 326.8,493.6 326.9,492.3 327.0,491.0 327.1,489.7 327.2,488.4 327.3,487.2 327.4,485.9 327.5,484.6 327.6,483.3 327.7,482.1 327.8,480.8 327.9,479.5 328.1,478.2 328.2,476.9 328.3,475.7 328.4,474.4 328.6,473.1 328.7,471.8 328.8,470.6 328.9,469.3 329.1,468.0 329.2,466.7 329.4,465.4 329.5,464.2 329.7,462.9 329.8,461.6 330.0,460.3 330.1,459.1 330.3,457.8 330.4,456.5 330.6,455.2 330.8,454.0 330.9,452.7 331.1,451.4 331.3,450.1 331.5,448.8 331.7,447.6 331.8,446.3 332.0,445.0 332.2,443.7 332.4,442.5 332.6,441.2 332.8,439.9 333.0,438.6 333.2,437.3 333.5,436.1 333.7,434.8 333.9,433.5 334.1,432.2 334.3,431.0 334.6,429.7 334.8,428.4 335.0,427.1 335.3,425.9 335.5,424.6 335.8,423.3 336.0,422.0 336.3,420.7 336.5,419.5 336.8,418.2 337.1,416.9 337.3,415.6 337.6,414.4 337.9,413.1 338.2,411.8 338.5,410.5 338.7,409.2 339.0,408.0 339.3,406.7 339.6,405.4 339.9,404.1 340.2,402.9 340.5,401.6 340.8,400.3 341.1,399.0 341.4,397.8 341.7,396.5 342.1,395.2 342.4,393.9 342.7,392.6 343.0,391.4 343.3,390.1 343.6,388.8 344.0,387.5 344.3,386.3 344.6,385.0 344.9,383.7 345.2,382.4 345.5,381.1 345.8,379.9 346.1,378.6 346.5,377.3 346.8,376.0 347.0,374.8 347.3,373.5 347.6,372.2 347.9,370.9 348.2,369.7 348.4,368.4 348.7,367.1 348.9,365.8 349.1,364.5 349.4,363.3 349.5,362.0 349.7,360.7 349.9,359.4 350.0,358.2 350.1,356.9 350.2,355.6 350.3,354.3 350.3,353.0 350.3,351.8 350.3,350.5 350.2,349.2 350.0,347.9 349.9,346.7 349.6,345.4 349.3,344.1 348.9,342.8 348.4,341.6 347.9,340.3 347.2,339.0 346.4,337.7 345.4,336.4 344.2,335.2 342.9,333.9 341.2,332.6 339.1,331.3 336.4,330.1 332.6,328.8" fill="none" stroke="#777a74" stroke-width="1.2"/>
<polyline points="321.1,557.4 321.1,556.1 321.0,554.9 321.0,553.6 321.0,552.3 320.9,551.0 320.9,549.8 320.9,548.5 320.8,547.2 320.8,545.9 320.7,544.6 320.7,543.4 320.7,542.1 320.6,540.8 320.6,539.5 320.5,538.3 320.5,537.0 320.4,535.7 320.4,534.4 320.3,533.1 320.3,531.9 320.2,530.6 320.2,529.3 320.1,528.0 320.1,526.8 320.0,525.5 320.0,524.2 319.9,522.9 319.9,521.7 319.8,520.4 319.7,519.1 319.7,517.8 319.6,516.5 319.5,515.3 319.5,514.0 319.4,512.7 319.3,511.4 319.3,510.2 319.2,508.9 319.1,507.6 319.0,506.3 319.0,505.0 318.9,503.8 318.8,502.5 318.7,501.2 318.6,499.9 318.6,498.7 318.5,497.4 318.4,496.1 318.3,494.8 318.2,493.6 318.1,492.3 318.0,491.0 317.9,489.7 317.8,488.4 317.7,487.2 317.6,485.9 317.5,484.6 317.4,483.3 317.3,482.1 317.2,480.8 317.1,479.5 316.9,478.2 316.8,476.9 316.7,475.7 316.6,474.4 316.4,473.1 316.3,471.8 316.2,470.6 316.1,469.3 315.9,468.0 315.8,466.7 315.6,465.4 315.5,464.2 315.3,462.9 315.2,461.6 315.0,460.3 314.9,459.1 314.7,457.8 314.6,456.5 314.4,455.2 314.2,454.0 314.1,452.7 313.9,451.4 313.7,450.1 313.5,448.8 313.3,447.6 313.2,446.3 313.0,445.0 312.8,443.7 312.6,442.5 312.4,441.2 312.2,439.9 312.0,438.6 311.8,437.3 311.5,436.1 311.3,434.8 311.1,433.5 310.9,432.2 310.7,431.0 310.4,429.7 310.2,428.4 310.0,427.1 309.7,425.9 309.5,424.6 309.2,423.3 309.0,422.0 308.7,420.7 308.5,419.5 308.2,418.2 307.9,416.9 307.7,415.6 307.4,414.4 307.1,413.1 306.8,411.8 306.5,410.5 306.3,409.2 306.0,408.0 305.7,406.7 305.4,405.4 305.1,404.1 304.8,402.9 304.5,401.6 304.2,400.3 303.9,399.0 303.6,397.8 303.3,396.5 302.9,395.2 302.6,393.9 302.3,392.6 302.0,391.4 301.7,390.1 301.4,388.8 301.0,387.5 300.7,386.3 300.4,385.0 300.1,383.7 299.8,382.4 299.5,381.1 299.2,379.9 298.9,378.6 298.5,377.3 298.2,376.0 298.0,374.8 297.7,373.5 297.4,372.2 297.1,370.9 296.8,369.7 296.6,368.4 296.3,367.1 296.1,365.8 295.9,364.5 295.6,363.3 295.5,362.0 295.3,360.7 295.1,359.4 295.0,358.2 294.9,356.9 294.8,355.6 294.7,354.3 294.7,353.0 294.7,351.8 294.7,350.5 294.8,349.2 295.0,347.9 295.1,346.7 295.4,345.4 295.7,344.1 296.1,342.8 296.6,341.6 297.1,340.3 297.8,339.0 298.6,337.7 299.6,336.4 300.8,335.2 302.1,333.9 303.8,332.6 305.9,331.3 308.6,330.1 312.4,328.8" fill="none" stroke="#777a74" stroke-width="1.2"/>
<polyline points="323.7,557.4 323.7,556.1 323.7,554.9 323.8,553.6 323.8,552.3 323.8,551.0 323.8,549.8 323.9,548.5 323.9,547.2 323.9,545.9 324.0,544.6 324.0,543.4 324.0,542.1 324.1,540.8 324.1,539.5 324.1,538.3 324.2,537.0 324.2,535.7 324.2,534.4 324.3,533.1 324.3,531.9 324.4,530.6 324.4,529.3 324.4,528.0 324.5,526.8 324.5,525.5 324.6,524.2 324.6,522.9 324.7,521.7 324.7,520.4 324.7,519.1 324.8,517.8 324.8,516.5 324.9,515.3 324.9,514.0 325.0,512.7 325.0,511.4 325.1,510.2 325.2,508.9 325.2,507.6 325.3,506.3 325.3,505.0 325.4,503.8 325.4,502.5 325.5,501.2 325.6,499.9 325.6,498.7 325.7,497.4 325.8,496.1 325.8,494.8 325.9,493.6 326.0,492.3 326.0,491.0 326.1,489.7 326.2,488.4 326.2,487.2 326.3,485.9 326.4,484.6 326.5,483.3 326.5,482.1 326.6,480.8 326.7,479.5 326.8,478.2 326.9,476.9 326.9,475.7 327.0,474.4 327.1,473.1 327.2,471.8 327.3,470.6 327.4,469.3 327.5,468.0 327.5,466.7 327.6,465.4 327.7,464.2 327.8,462.9 327.9,461.6 328.0,460.3 328.1,459.1 328.2,457.8 328.3,456.5 328.4,455.2 328.5,454.0 328.6,452.7 328.7,451.4 328.8,450.1 328.9,448.8 329.0,447.6 329.1,446.3 329.2,445.0 329.3,443.7 329.4,442.5 329.5,441.2 329.6,439.9 329.7,438.6 329.8,437.3 329.9,436.1 330.0,434.8 330.1,433.5 330.2,432.2 330.3,431.0 330.4,429.7 330.5,428.4 330.6,427.1 330.7,425.9 330.8,424.6 330.9,423.3 331.0,422.0 331.0,420.7 331.1,419.5 331.2,418.2 331.3,416.9 331.3,415.6 331.4,414.4 331.4,413.1 331.4,411.8 331.5,410.5 331.5,409.2 331.5,408.0 331.5,406.7 331.5,405.4 331.5,404.1 331.4,402.9 331.4,401.6 331.3,400.3 331.2,399.0 331.1,397.8 330.9,396.5 330.7,395.2 330.5,393.9 330.2,392.6 329.9,391.4 329.6,390.1 329.1,388.8 328.6,387.5 327.9,386.3 327.0,385.0 325.8,383.7 322.9,382.4" fill="none" stroke="#777a74" stroke-width="1.2"/>
<polyline points="321.3,557.4 321.3,556.1 321.3,554.9 321.2,553.6 321.2,552.3 321.2,551.0 321.2,549.8 321.1,548.5 321.1,547.2 321.1,545.9 321.0,544.6 321.0,543.4 321.0,542.1 320.9,540.8 320.9,539.5 320.9,538.3 320.8,537.0 320.8,535.7 320.8,534.4 320.7,533.1 320.7,531.9 320.6,530.6 320.6,529.3 320.6,528.0 320.5,526.8 320.5,525.5 320.4,524.2 320.4,522.9 320.3,521.7 320.3,520.4 320.3,519.1 320.2,517.8 320.2,516.5 320.1,515.3 320.1,514.0 320.0,512.7 320.0,511.4 319.9,510.2 319.8,508.9 319.8,507.6 319.7,506.3 319.7,505.0 319.6,503.8 319.6,502.5 319.5,501.2 319.4,499.9 319.4,498.7 319.3,497.4 319.2,496.1 319.2,494.8 319.1,493.6 319.0,492.3 319.0,491.0 318.9,489.7 318.8,488.4 318.8,487.2 318.7,485.9 318.6,484.6 318.5,483.3 318.5,482.1 318.4,480.8 318.3,479.5 318.2,478.2 318.1,476.9 318.1,475.7 318.0,474.4 317.9,473.1 317.8,471.8 317.7,470.6 317.6,469.3 317.5,468.0 317.5,466.7 317.4,465.4 317.3,464.2 317.2,462.9 317.1,461.6 317.0,460.3 316.9,459.1 316.8,457.8 316.7,456.5 316.6,455.2 316.5,454.0 316.4,452.7 316.3,451.4 316.2,450.1 316.1,448.8 316.0,447.6 315.9,446.3 315.8,445.0 315.7,443.7 315.6,442.5 315.5,441.2 315.4,439.9 315.3,438.6 315.2,437.3 315.1,436.1 315.0,434.8 314.9,433.5 314.8,432.2 314.7,431.0 314.6,429.7 314.5,428.4 314.4,427.1 314.3,425.9 314.2,424.6 314.1,423.3 314.0,422.0 314.0,420.7 313.9,419.5 313.8,418.2 313.7,416.9 313.7,415.6 313.6,414.4 313.6,413.1 313.6,411.8 313.5,410.5 313.5,409.2 313.5,408.0 313.5,406.7 313.5,405.4 313.5,404.1 313.6,402.9 313.6,401.6 313.7,400.3 313.8,399.0 313.9,397.8 314.1,396.5 314.3,395.2 314.5,393.9 314.8,392.6 315.1,391.4 315.4,390.1 315.9,388.8 316.4,387.5 317.1,386.3 318.0,385.0 319.2,383.7 322.1,382.4" fill="none" stroke="#777a74" stroke-width="1.2"/>
<polyline points="323.4,557.4 323.4,556.1 323.4,554.9 323.4,553.6 323.5,552.3 323.5,551.0 323.5,549.8 323.5,548.5 323.5,547.2 323.6,545.9 323.6,544.6 323.6,543.4 323.6,542.1 323.7,540.8 323.7,539.5 323.7,538.3 323.7,537.0 323.7,535.7 323.8,534.4 323.8,533.1 323.8,531.9 323.8,530.6 323.9,529.3 323.9,528.0 323.9,526.8 323.9,525.5 324.0,524.2 324.0,522.9 324.0,521.7 324.0,520.4 324.1,519.1 324.1,517.8 324.1,516.5 324.1,515.3 324.2,514.0 324.2,512.7 324.2,511.4 324.3,510.2 324.3,508.9 324.3,507.6 324.3,506.3 324.4,505.0 324.4,503.8 324.4,502.5 324.5,501.2 324.5,499.9 324.5,498.7 324.5,497.4 324.6,496.1 324.6,494.8 324.6,493.6 324.6,492.3 324.7,491.0 324.7,489.7 324.7,488.4 324.7,487.2 324.8,485.9 324.8,484.6 324.8,483.3 324.8,482.1 324.8,480.8 324.9,479.5 324.9,478.2 324.9,476.9 324.9,475.7 324.9,474.4 324.9,473.1 324.9,471.8 324.9,470.6 324.9,469.3 324.9,468.0 324.9,466.7 324.9,465.4 324.9,464.2 324.8,462.9 324.8,461.6 324.8,460.3 324.7,459.1 324.7,457.8 324.6,456.5 324.5,455.2 324.4,454.0 324.3,452.7 324.2,451.4 324.0,450.1 323.8,448.8 323.5,447.6 323.0,446.3" fill="none" stroke="#777a74" stroke-width="1.2"/>
<polyline points="321.6,557.4 321.6,556.1 321.6,554.9 321.6,553.6 321.5,552.3 321.5,551.0 321.5,549.8 321.5,548.5 321.5,547.2 321.4,545.9 321.4,544.6 321.4,543.4 321.4,542.1 321.3,540.8 321.3,539.5 321.3,538.3 321.3,537.0 321.3,535.7 321.2,534.4 321.2,533.1 321.2,531.9 321.2,530.6 321.1,529.3 321.1,528.0 321.1,526.8 321.1,525.5 321.0,524.2 321.0,522.9 321.0,521.7 321.0,520.4 320.9,519.1 320.9,517.8 320.9,516.5 320.9,515.3 320.8,514.0 320.8,512.7 320.8,511.4 320.7,510.2 320.7,508.9 320.7,507.6 320.7,506.3 320.6,505.0 320.6,503.8 320.6,502.5 320.5,501.2 320.5,499.9 320.5,498.7 320.5,497.4 320.4,496.1 320.4,494.8 320.4,493.6 320.4,492.3 320.3,491.0 320.3,489.7 320.3,488.4 320.3,487.2 320.2,485.9 320.2,484.6 320.2,483.3 320.2,482.1 320.2,480.8 320.1,479.5 320.1,478.2 320.1,476.9 320.1,475.7 320.1,474.4 320.1,473.1 320.1,471.8 320.1,470.6 320.1,469.3 320.1,468.0 320.1,466.7 320.1,465.4 320.1,464.2 320.2,462.9 320.2,461.6 320.2,460.3 320.3,459.1 320.3,457.8 320.4,456.5 320.5,455.2 320.6,454.0 320.7,452.7 320.8,451.4 321.0,450.1 321.2,448.8 321.5,447.6 322.0,446.3" fill="none" stroke="#777a74" stroke-width="1.2"/>
<polyline points="927.8,327.5 927.8,326.3 927.8,325.1 927.7,323.9 927.7,322.6 927.6,321.4 927.5,320.2 927.3,319.0 927.2,317.8 927.0,316.6 926.8,315.5 926.6,314.3 926.3,313.1 926.1,312.0 925.8,310.8 925.5,309.7 925.2,308.6 924.9,307.5 924.5,306.4 924.2,305.3 923.8,304.2 923.4,303.2 922.9,302.2 922.5,301.2 922.0,300.2 921.6,299.2 921.1,298.2 920.6,297.3 920.0,296.4 919.5,295.5 918.9,294.6 918.4,293.8 917.8,292.9 917.2,292.1 916.6,291.4 916.0,290.6 915.3,289.9 914.7,289.2 914.0,288.5 913.3,287.9 912.7,287.2 912.0,286.6 911.3,286.1 910.6,285.5 909.8,285.0 909.1,284.5 908.4,284.1 907.6,283.7 906.9,283.3 906.1,282.9 905.3,282.6 904.6,282.3 903.8,282.0 903.0,281.8 902.2,281.6 901.5,281.4 900.7,281.3 899.9,281.1 899.1,281.1 898.3,281.0 897.5,281.0 896.7,281.0 895.9,281.1 895.1,281.1 894.3,281.3 893.5,281.4 892.8,281.6 892.0,281.8 891.2,282.0 890.4,282.3 889.7,282.6 888.9,282.9 888.1,283.3 887.4,283.7 886.6,284.1 885.9,284.5 885.2,285.0 884.4,285.5 883.7,286.1 883.0,286.6 882.3,287.2 881.7,287.9 881.0,288.5 880.3,289.2 879.7,289.9 879.0,290.6 878.4,291.4 877.8,292.1 877.2,292.9 876.6,293.8 876.1,294.6 875.5,295.5 875.0,296.4 874.4,297.3 873.9,298.2 873.4,299.2 873.0,300.2 872.5,301.2 872.1,302.2 871.6,303.2 871.2,304.2 870.8,305.3 870.5,306.4 870.1,307.5 869.8,308.6 869.5,309.7 869.2,310.8 868.9,312.0 868.7,313.1 868.4,314.3 868.2,315.5 868.0,316.6 867.8,317.8 867.7,319.0 867.5,320.2 867.4,321.4 867.3,322.6 867.3,323.9 867.2,325.1 867.2,326.3 867.2,327.5 867.2,328.7 867.2,329.9 867.3,331.1 867.3,332.4 867.4,333.6 867.5,334.8 867.7,336.0 867.8,337.2 868.0,338.4 868.2,339.5 868.4,340.7 868.7,341.9 868.9,343.0 869.2,344.2 869.5,345.3 869.8,346.4 870.1,347.5 870.5,348.6 870.8,349.7 871.2,350.8 871.6,351.8 872.1,352.8 872.5,353.8 873.0,354.8 873.4,355.8 873.9,356.8 874.4,357.7 875.0,358.6 875.5,359.5 876.1,360.4 876.6,361.2 877.2,362.1 877.8,362.9 878.4,363.6 879.0,364.4 879.7,365.1 880.3,365.8 881.0,366.5 881.7,367.1 882.3,367.8 883.0,368.4 883.7,368.9 884.4,369.5 885.2,370.0 885.9,370.5 886.6,370.9 887.4,371.3 888.1,371.7 888.9,372.1 889.7,372.4 890.4,372.7 891.2,373.0 892.0,373.2 892.8,373.4 893.5,373.6 894.3,373.7 895.1,373.9 895.9,373.9 896.7,374.0 897.5,374.0 898.3,374.0 899.1,373.9 899.9,373.9 900.7,373.7 901.5,373.6 902.2,373.4 903.0,373.2 903.8,373.0 904.6,372.7 905.3,372.4 906.1,372.1 906.9,371.7 907.6,371.3 908.4,370.9 909.1,370.5 909.8,370.0 910.6,369.5 911.3,368.9 912.0,368.4 912.7,367.8 913.3,367.1 914.0,366.5 914.7,365.8 915.3,365.1 916.0,364.4 916.6,363.6 917.2,362.9 917.8,362.1 918.4,361.2 918.9,360.4 919.5,359.5 920.0,358.6 920.6,357.7 921.1,356.8 921.6,355.8 922.0,354.8 922.5,353.8 922.9,352.8 923.4,351.8 923.8,350.8 924.2,349.7 924.5,348.6 924.9,347.5 925.2,346.4 925.5,345.3 925.8,344.2 926.1,343.0 926.3,341.9 926.6,340.7 926.8,339.5 927.0,338.4 927.2,337.2 927.3,336.0 927.5,334.8 927.6,333.6 927.7,332.4 927.7,331.1 927.8,329.9 927.8,328.7 927.8,327.5" fill="none" stroke="#777a74" stroke-width="1.2"/>
<polyline points="946.0,327.5 946.0,325.6 946.0,323.6 945.9,321.7 945.8,319.7 945.6,317.8 945.4,315.9 945.2,313.9 945.0,312.0 944.7,310.1 944.4,308.2 944.0,306.4 943.6,304.5 943.2,302.7 942.8,300.8 942.3,299.0 941.8,297.2 941.3,295.5 940.7,293.7 940.1,292.0 939.5,290.3 938.9,288.6 938.2,287.0 937.5,285.4 936.8,283.8 936.0,282.2 935.2,280.7 934.4,279.2 933.6,277.7 932.7,276.3 931.8,274.9 930.9,273.5 930.0,272.2 929.0,270.9 928.0,269.7 927.0,268.5 926.0,267.3 925.0,266.2 923.9,265.1 922.9,264.1 921.8,263.1 920.7,262.1 919.5,261.2 918.4,260.3 917.2,259.5 916.1,258.8 914.9,258.0 913.7,257.4 912.5,256.7 911.3,256.2 910.1,255.6 908.8,255.2 907.6,254.7 906.3,254.3 905.1,254.0 903.8,253.7 902.6,253.5 901.3,253.3 900.0,253.2 898.8,253.1 897.5,253.1 896.2,253.1 895.0,253.2 893.7,253.3 892.4,253.5 891.2,253.7 889.9,254.0 888.7,254.3 887.4,254.7 886.2,255.2 884.9,255.6 883.7,256.2 882.5,256.7 881.3,257.4 880.1,258.0 878.9,258.8 877.8,259.5 876.6,260.3 875.5,261.2 874.3,262.1 873.2,263.1 872.1,264.1 871.1,265.1 870.0,266.2 869.0,267.3 868.0,268.5 867.0,269.7 866.0,270.9 865.0,272.2 864.1,273.5 863.2,274.9 862.3,276.3 861.4,277.7 860.6,279.2 859.8,280.7 859.0,282.2 858.2,283.8 857.5,285.4 856.8,287.0 856.1,288.6 855.5,290.3 854.9,292.0 854.3,293.7 853.7,295.5 853.2,297.2 852.7,299.0 852.2,300.8 851.8,302.7 851.4,304.5 851.0,306.4 850.6,308.2 850.3,310.1 850.0,312.0 849.8,313.9 849.6,315.9 849.4,317.8 849.2,319.7 849.1,321.7 849.0,323.6 849.0,325.6 849.0,327.5 849.0,329.4 849.0,331.4 849.1,333.3 849.2,335.3 849.4,337.2 849.6,339.1 849.8,341.1 850.0,343.0 850.3,344.9 850.6,346.8 851.0,348.6 851.4,350.5 851.8,352.3 852.2,354.2 852.7,356.0 853.2,357.8 853.7,359.5 854.3,361.3 854.9,363.0 855.5,364.7 856.1,366.4 856.8,368.0 857.5,369.6 858.2,371.2 859.0,372.8 859.8,374.3 860.6,375.8 861.4,377.3 862.3,378.7 863.2,380.1 864.1,381.5 865.0,382.8 866.0,384.1 867.0,385.3 868.0,386.5 869.0,387.7 870.0,388.8 871.1,389.9 872.1,390.9 873.2,391.9 874.3,392.9 875.5,393.8 876.6,394.7 877.8,395.5 878.9,396.2 880.1,397.0 881.3,397.6 882.5,398.3 883.7,398.8 884.9,399.4 886.2,399.8 887.4,400.3 888.7,400.7 889.9,401.0 891.2,401.3 892.4,401.5 893.7,401.7 895.0,401.8 896.2,401.9 897.5,401.9 898.8,401.9 900.0,401.8 901.3,401.7 902.6,401.5 903.8,401.3 905.1,401.0 906.3,400.7 907.6,400.3 908.8,399.8 910.1,399.4 911.3,398.8 912.5,398.3 913.7,397.6 914.9,397.0 916.1,396.2 917.2,395.5 918.4,394.7 919.5,393.8 920.7,392.9 921.8,391.9 922.9,390.9 923.9,389.9 925.0,388.8 926.0,387.7 927.0,386.5 928.0,385.3 929.0,384.1 930.0,382.8 930.9,381.5 931.8,380.1 932.7,378.7 933.6,377.3 934.4,375.8 935.2,374.3 936.0,372.8 936.8,371.2 937.5,369.6 938.2,368.0 938.9,366.4 939.5,364.7 940.1,363.0 940.7,361.3 941.3,359.5 941.8,357.8 942.3,356.0 942.8,354.2 943.2,352.3 943.6,350.5 944.0,348.6 944.4,346.8 944.7,344.9 945.0,343.0 945.2,341.1 945.4,339.1 945.6,337.2 945.8,335.3 945.9,333.3 946.0,331.4 946.0,329.4 946.0,327.5" fill="none" stroke="#777a74" stroke-width="1.2"/>
<polyline points="964.2,327.5 964.2,324.8 964.1,322.1 964.0,319.5 963.9,316.8 963.6,314.1 963.4,311.5 963.1,308.9 962.8,306.2 962.4,303.6 961.9,301.0 961.5,298.4 961.0,295.9 960.4,293.4 959.8,290.8 959.1,288.4 958.4,285.9 957.7,283.5 956.9,281.1 956.1,278.7 955.3,276.4 954.4,274.0 953.5,271.8 952.5,269.6 951.5,267.4 950.4,265.2 949.3,263.1 948.2,261.1 947.1,259.0 945.9,257.1 944.7,255.2 943.4,253.3 942.1,251.5 940.8,249.7 939.5,248.0 938.1,246.3 936.7,244.7 935.3,243.2 933.8,241.7 932.4,240.3 930.9,238.9 929.3,237.6 927.8,236.4 926.2,235.2 924.6,234.0 923.0,233.0 921.4,232.0 919.8,231.1 918.1,230.2 916.4,229.4 914.8,228.7 913.1,228.0 911.4,227.4 909.7,226.9 907.9,226.5 906.2,226.1 904.5,225.8 902.7,225.5 901.0,225.3 899.2,225.2 897.5,225.2 895.8,225.2 894.0,225.3 892.3,225.5 890.5,225.8 888.8,226.1 887.1,226.5 885.3,226.9 883.6,227.4 881.9,228.0 880.2,228.7 878.6,229.4 876.9,230.2 875.2,231.1 873.6,232.0 872.0,233.0 870.4,234.0 868.8,235.2 867.2,236.4 865.7,237.6 864.1,238.9 862.6,240.3 861.2,241.7 859.7,243.2 858.3,244.7 856.9,246.3 855.5,248.0 854.2,249.7 852.9,251.5 851.6,253.3 850.3,255.2 849.1,257.1 847.9,259.0 846.8,261.1 845.7,263.1 844.6,265.2 843.5,267.4 842.5,269.6 841.5,271.8 840.6,274.0 839.7,276.4 838.9,278.7 838.1,281.1 837.3,283.5 836.6,285.9 835.9,288.4 835.2,290.8 834.6,293.4 834.0,295.9 833.5,298.4 833.1,301.0 832.6,303.6 832.2,306.2 831.9,308.9 831.6,311.5 831.4,314.1 831.1,316.8 831.0,319.5 830.9,322.1 830.8,324.8 830.8,327.5 830.8,330.2 830.9,332.9 831.0,335.5 831.1,338.2 831.4,340.9 831.6,343.5 831.9,346.1 832.2,348.8 832.6,351.4 833.1,354.0 833.5,356.6 834.0,359.1 834.6,361.6 835.2,364.2 835.9,366.6 836.6,369.1 837.3,371.5 838.1,373.9 838.9,376.3 839.7,378.6 840.6,381.0 841.5,383.2 842.5,385.4 843.5,387.6 844.6,389.8 845.7,391.9 846.8,393.9 847.9,396.0 849.1,397.9 850.3,399.8 851.6,401.7 852.9,403.5 854.2,405.3 855.5,407.0 856.9,408.7 858.3,410.3 859.7,411.8 861.2,413.3 862.6,414.7 864.1,416.1 865.7,417.4 867.2,418.6 868.8,419.8 870.4,421.0 872.0,422.0 873.6,423.0 875.2,423.9 876.9,424.8 878.6,425.6 880.2,426.3 881.9,427.0 883.6,427.6 885.3,428.1 887.1,428.5 888.8,428.9 890.5,429.2 892.3,429.5 894.0,429.7 895.8,429.8 897.5,429.8 899.2,429.8 901.0,429.7 902.7,429.5 904.5,429.2 906.2,428.9 907.9,428.5 909.7,428.1 911.4,427.6 913.1,427.0 914.8,426.3 916.4,425.6 918.1,424.8 919.8,423.9 921.4,423.0 923.0,422.0 924.6,421.0 926.2,419.8 927.8,418.6 929.3,417.4 930.9,416.1 932.4,414.7 933.8,413.3 935.3,411.8 936.7,410.3 938.1,408.7 939.5,407.0 940.8,405.3 942.1,403.5 943.4,401.7 944.7,399.8 945.9,397.9 947.1,396.0 948.2,393.9 949.3,391.9 950.4,389.8 951.5,387.6 952.5,385.4 953.5,383.2 954.4,381.0 955.3,378.6 956.1,376.3 956.9,373.9 957.7,371.5 958.4,369.1 959.1,366.6 959.8,364.2 960.4,361.6 961.0,359.1 961.5,356.6 961.9,354.0 962.4,351.4 962.8,348.8 963.1,346.1 963.4,343.5 963.6,340.9 963.9,338.2 964.0,335.5 964.1,332.9 964.2,330.2 964.2,327.5" fill="none" stroke="#777a74" stroke-width="1.2"/>
<polyline points="982.4,327.5 982.4,324.1 982.3,320.7 982.2,317.3 981.9,313.9 981.7,310.5 981.4,307.1 981.0,303.8 980.6,300.4 980.1,297.1 979.5,293.8 978.9,290.5 978.3,287.3 977.5,284.0 976.8,280.8 975.9,277.7 975.1,274.5 974.1,271.4 973.2,268.4 972.1,265.4 971.0,262.4 969.9,259.5 968.7,256.6 967.5,253.8 966.2,251.0 964.9,248.2 963.5,245.6 962.1,242.9 960.6,240.4 959.1,237.9 957.5,235.4 956.0,233.1 954.3,230.7 952.6,228.5 950.9,226.3 949.2,224.2 947.4,222.2 945.6,220.2 943.7,218.3 941.9,216.5 940.0,214.7 938.0,213.1 936.0,211.5 934.1,210.0 932.0,208.6 930.0,207.2 927.9,205.9 925.8,204.8 923.7,203.7 921.6,202.7 919.5,201.7 917.3,200.9 915.2,200.1 913.0,199.5 910.8,198.9 908.6,198.4 906.4,198.0 904.2,197.7 901.9,197.5 899.7,197.3 897.5,197.3 895.3,197.3 893.1,197.5 890.8,197.7 888.6,198.0 886.4,198.4 884.2,198.9 882.0,199.5 879.8,200.1 877.7,200.9 875.5,201.7 873.4,202.7 871.3,203.7 869.2,204.8 867.1,205.9 865.0,207.2 863.0,208.6 860.9,210.0 859.0,211.5 857.0,213.1 855.0,214.7 853.1,216.5 851.3,218.3 849.4,220.2 847.6,222.2 845.8,224.2 844.1,226.3 842.4,228.5 840.7,230.7 839.0,233.1 837.5,235.4 835.9,237.9 834.4,240.4 832.9,242.9 831.5,245.6 830.1,248.2 828.8,251.0 827.5,253.8 826.3,256.6 825.1,259.5 824.0,262.4 822.9,265.4 821.8,268.4 820.9,271.4 819.9,274.5 819.1,277.7 818.2,280.8 817.5,284.0 816.7,287.3 816.1,290.5 815.5,293.8 814.9,297.1 814.4,300.4 814.0,303.8 813.6,307.1 813.3,310.5 813.1,313.9 812.8,317.3 812.7,320.7 812.6,324.1 812.6,327.5 812.6,330.9 812.7,334.3 812.8,337.7 813.1,341.1 813.3,344.5 813.6,347.9 814.0,351.2 814.4,354.6 814.9,357.9 815.5,361.2 816.1,364.5 816.7,367.7 817.5,371.0 818.2,374.2 819.1,377.3 819.9,380.5 820.9,383.6 821.8,386.6 822.9,389.6 824.0,392.6 825.1,395.5 826.3,398.4 827.5,401.2 828.8,404.0 830.1,406.8 831.5,409.4 832.9,412.1 834.4,414.6 835.9,417.1 837.5,419.6 839.0,421.9 840.7,424.3 842.4,426.5 844.1,428.7 845.8,430.8 847.6,432.8 849.4,434.8 851.3,436.7 853.1,438.5 855.0,440.3 857.0,441.9 859.0,443.5 860.9,445.0 863.0,446.4 865.0,447.8 867.1,449.1 869.2,450.2 871.3,451.3 873.4,452.3 875.5,453.3 877.7,454.1 879.8,454.9 882.0,455.5 884.2,456.1 886.4,456.6 888.6,457.0 890.8,457.3 893.1,457.5 895.3,457.7 897.5,457.7 899.7,457.7 901.9,457.5 904.2,457.3 906.4,457.0 908.6,456.6 910.8,456.1 913.0,455.5 915.2,454.9 917.3,454.1 919.5,453.3 921.6,452.3 923.7,451.3 925.8,450.2 927.9,449.1 930.0,447.8 932.0,446.4 934.1,445.0 936.0,443.5 938.0,441.9 940.0,440.3 941.9,438.5 943.7,436.7 945.6,434.8 947.4,432.8 949.2,430.8 950.9,428.7 952.6,426.5 954.3,424.3 956.0,421.9 957.5,419.6 959.1,417.1 960.6,414.6 962.1,412.1 963.5,409.4 964.9,406.8 966.2,404.0 967.5,401.2 968.7,398.4 969.9,395.5 971.0,392.6 972.1,389.6 973.2,386.6 974.1,383.6 975.1,380.5 975.9,377.3 976.8,374.2 977.5,371.0 978.3,367.7 978.9,364.5 979.5,361.2 980.1,357.9 980.6,354.6 981.0,351.2 981.4,347.9 981.7,344.5 981.9,341.1 982.2,337.7 982.3,334.3 982.4,330.9 982.4,327.5" fill="none" stroke="#777a74" stroke-width="1.2"/>
<polyline points="1000.6,327.5 1000.6,323.4 1000.5,319.2 1000.3,315.1 1000.0,311.0 999.7,306.9 999.3,302.8 998.9,298.7 998.4,294.6 997.8,290.6 997.1,286.6 996.4,282.6 995.6,278.6 994.7,274.7 993.8,270.8 992.8,267.0 991.7,263.2 990.6,259.4 989.4,255.7 988.1,252.1 986.8,248.5 985.4,244.9 984.0,241.4 982.5,238.0 980.9,234.6 979.3,231.3 977.6,228.0 975.9,224.8 974.1,221.7 972.3,218.7 970.4,215.7 968.5,212.8 966.5,210.0 964.5,207.3 962.4,204.6 960.3,202.1 958.1,199.6 955.9,197.2 953.7,194.9 951.4,192.7 949.1,190.6 946.7,188.6 944.3,186.6 941.9,184.8 939.4,183.1 937.0,181.4 934.5,179.9 931.9,178.5 929.4,177.1 926.8,175.9 924.2,174.8 921.6,173.8 918.9,172.9 916.3,172.0 913.6,171.3 911.0,170.8 908.3,170.3 905.6,169.9 902.9,169.6 900.2,169.5 897.5,169.4 894.8,169.5 892.1,169.6 889.4,169.9 886.7,170.3 884.0,170.8 881.4,171.3 878.7,172.0 876.1,172.9 873.4,173.8 870.8,174.8 868.2,175.9 865.6,177.1 863.1,178.5 860.5,179.9 858.0,181.4 855.6,183.1 853.1,184.8 850.7,186.6 848.3,188.6 845.9,190.6 843.6,192.7 841.3,194.9 839.1,197.2 836.9,199.6 834.7,202.1 832.6,204.6 830.5,207.3 828.5,210.0 826.5,212.8 824.6,215.7 822.7,218.7 820.9,221.7 819.1,224.8 817.4,228.0 815.7,231.3 814.1,234.6 812.5,238.0 811.0,241.4 809.6,244.9 808.2,248.5 806.9,252.1 805.6,255.7 804.4,259.4 803.3,263.2 802.2,267.0 801.2,270.8 800.3,274.7 799.4,278.6 798.6,282.6 797.9,286.6 797.2,290.6 796.6,294.6 796.1,298.7 795.7,302.8 795.3,306.9 795.0,311.0 794.7,315.1 794.5,319.2 794.4,323.4 794.4,327.5 794.4,331.6 794.5,335.8 794.7,339.9 795.0,344.0 795.3,348.1 795.7,352.2 796.1,356.3 796.6,360.4 797.2,364.4 797.9,368.4 798.6,372.4 799.4,376.4 800.3,380.3 801.2,384.2 802.2,388.0 803.3,391.8 804.4,395.6 805.6,399.3 806.9,402.9 808.2,406.5 809.6,410.1 811.0,413.6 812.5,417.0 814.1,420.4 815.7,423.7 817.4,427.0 819.1,430.2 820.9,433.3 822.7,436.3 824.6,439.3 826.5,442.2 828.5,445.0 830.5,447.7 832.6,450.4 834.7,452.9 836.9,455.4 839.1,457.8 841.3,460.1 843.6,462.3 845.9,464.4 848.3,466.4 850.7,468.4 853.1,470.2 855.6,471.9 858.0,473.6 860.5,475.1 863.1,476.5 865.6,477.9 868.2,479.1 870.8,480.2 873.4,481.2 876.1,482.1 878.7,483.0 881.4,483.7 884.0,484.2 886.7,484.7 889.4,485.1 892.1,485.4 894.8,485.5 897.5,485.6 900.2,485.5 902.9,485.4 905.6,485.1 908.3,484.7 911.0,484.2 913.6,483.7 916.3,483.0 918.9,482.1 921.6,481.2 924.2,480.2 926.8,479.1 929.4,477.9 931.9,476.5 934.5,475.1 937.0,473.6 939.4,471.9 941.9,470.2 944.3,468.4 946.7,466.4 949.1,464.4 951.4,462.3 953.7,460.1 955.9,457.8 958.1,455.4 960.3,452.9 962.4,450.4 964.5,447.7 966.5,445.0 968.5,442.2 970.4,439.3 972.3,436.3 974.1,433.3 975.9,430.2 977.6,427.0 979.3,423.7 980.9,420.4 982.5,417.0 984.0,413.6 985.4,410.1 986.8,406.5 988.1,402.9 989.4,399.3 990.6,395.6 991.7,391.8 992.8,388.0 993.8,384.2 994.7,380.3 995.6,376.4 996.4,372.4 997.1,368.4 997.8,364.4 998.4,360.4 998.9,356.3 999.3,352.2 999.7,348.1 1000.0,344.0 1000.3,339.9 1000.5,335.8 1000.6,331.6 1000.6,327.5" fill="none" stroke="#777a74" stroke-width="1.2"/>
<polyline points="1018.8,327.5 1018.8,322.6 1018.6,317.8 1018.4,312.9 1018.1,308.1 1017.8,303.2 1017.3,298.4 1016.8,293.6 1016.2,288.8 1015.5,284.1 1014.7,279.4 1013.8,274.7 1012.9,270.0 1011.8,265.4 1010.7,260.8 1009.6,256.3 1008.3,251.8 1007.0,247.4 1005.6,243.1 1004.1,238.7 1002.6,234.5 1000.9,230.3 999.2,226.2 997.5,222.1 995.6,218.2 993.7,214.3 991.8,210.4 989.7,206.7 987.6,203.0 985.5,199.5 983.3,196.0 981.0,192.6 978.7,189.3 976.3,186.1 973.8,183.0 971.3,179.9 968.8,177.0 966.2,174.2 963.6,171.5 960.9,168.9 958.2,166.4 955.4,164.0 952.6,161.8 949.7,159.6 946.8,157.6 943.9,155.7 941.0,153.9 938.0,152.2 935.0,150.6 932.0,149.2 928.9,147.8 925.8,146.6 922.7,145.6 919.6,144.6 916.5,143.8 913.3,143.1 910.2,142.5 907.0,142.1 903.8,141.8 900.7,141.6 897.5,141.5 894.3,141.6 891.2,141.8 888.0,142.1 884.8,142.5 881.7,143.1 878.5,143.8 875.4,144.6 872.3,145.6 869.2,146.6 866.1,147.8 863.0,149.2 860.0,150.6 857.0,152.2 854.0,153.9 851.1,155.7 848.2,157.6 845.3,159.6 842.4,161.8 839.6,164.0 836.8,166.4 834.1,168.9 831.4,171.5 828.8,174.2 826.2,177.0 823.7,179.9 821.2,183.0 818.7,186.1 816.3,189.3 814.0,192.6 811.7,196.0 809.5,199.5 807.4,203.0 805.3,206.7 803.2,210.4 801.3,214.3 799.4,218.2 797.5,222.1 795.8,226.2 794.1,230.3 792.4,234.5 790.9,238.7 789.4,243.1 788.0,247.4 786.7,251.8 785.4,256.3 784.3,260.8 783.2,265.4 782.1,270.0 781.2,274.7 780.3,279.4 779.5,284.1 778.8,288.8 778.2,293.6 777.7,298.4 777.2,303.2 776.9,308.1 776.6,312.9 776.4,317.8 776.2,322.6 776.2,327.5 776.2,332.4 776.4,337.2 776.6,342.1 776.9,346.9 777.2,351.8 777.7,356.6 778.2,361.4 778.8,366.2 779.5,370.9 780.3,375.6 781.2,380.3 782.1,385.0 783.2,389.6 784.3,394.2 785.4,398.7 786.7,403.2 788.0,407.6 789.4,411.9 790.9,416.3 792.4,420.5 794.1,424.7 795.8,428.8 797.5,432.9 799.4,436.8 801.3,440.7 803.2,444.6 805.3,448.3 807.4,452.0 809.5,455.5 811.7,459.0 814.0,462.4 816.3,465.7 818.7,468.9 821.2,472.0 823.7,475.1 826.2,478.0 828.8,480.8 831.4,483.5 834.1,486.1 836.8,488.6 839.6,491.0 842.4,493.2 845.3,495.4 848.2,497.4 851.1,499.3 854.0,501.1 857.0,502.8 860.0,504.4 863.0,505.8 866.1,507.2 869.2,508.4 872.3,509.4 875.4,510.4 878.5,511.2 881.7,511.9 884.8,512.5 888.0,512.9 891.2,513.2 894.3,513.4 897.5,513.5 900.7,513.4 903.8,513.2 907.0,512.9 910.2,512.5 913.3,511.9 916.5,511.2 919.6,510.4 922.7,509.4 925.8,508.4 928.9,507.2 932.0,505.8 935.0,504.4 938.0,502.8 941.0,501.1 943.9,499.3 946.8,497.4 949.7,495.4 952.6,493.2 955.4,491.0 958.2,488.6 960.9,486.1 963.6,483.5 966.2,480.8 968.8,478.0 971.3,475.1 973.8,472.0 976.3,468.9 978.7,465.7 981.0,462.4 983.3,459.0 985.5,455.5 987.6,452.0 989.7,448.3 991.8,444.6 993.7,440.7 995.6,436.8 997.5,432.9 999.2,428.8 1000.9,424.7 1002.6,420.5 1004.1,416.3 1005.6,411.9 1007.0,407.6 1008.3,403.2 1009.6,398.7 1010.7,394.2 1011.8,389.6 1012.9,385.0 1013.8,380.3 1014.7,375.6 1015.5,370.9 1016.2,366.2 1016.8,361.4 1017.3,356.6 1017.8,351.8 1018.1,346.9 1018.4,342.1 1018.6,337.2 1018.8,332.4 1018.8,327.5" fill="none" stroke="#777a74" stroke-width="1.2"/>
<polyline points="1037.0,327.5 1037.0,321.9 1036.8,316.3 1036.6,310.7 1036.2,305.1 1035.8,299.6 1035.3,294.0 1034.7,288.5 1034.0,283.0 1033.1,277.6 1032.2,272.1 1031.3,266.7 1030.2,261.4 1029.0,256.1 1027.7,250.8 1026.4,245.6 1024.9,240.5 1023.4,235.4 1021.8,230.4 1020.1,225.4 1018.3,220.6 1016.4,215.7 1014.5,211.0 1012.5,206.3 1010.4,201.8 1008.2,197.3 1005.9,192.9 1003.6,188.6 1001.2,184.4 998.7,180.3 996.1,176.2 993.5,172.3 990.8,168.5 988.1,164.8 985.3,161.3 982.4,157.8 979.5,154.5 976.5,151.2 973.5,148.1 970.4,145.1 967.2,142.3 964.1,139.5 960.8,136.9 957.6,134.4 954.2,132.1 950.9,129.9 947.5,127.8 944.1,125.9 940.6,124.1 937.1,122.4 933.6,120.9 930.1,119.5 926.5,118.3 922.9,117.2 919.3,116.2 915.7,115.4 912.1,114.8 908.4,114.3 904.8,113.9 901.2,113.7 897.5,113.6 893.8,113.7 890.2,113.9 886.6,114.3 882.9,114.8 879.3,115.4 875.7,116.2 872.1,117.2 868.5,118.3 864.9,119.5 861.4,120.9 857.9,122.4 854.4,124.1 850.9,125.9 847.5,127.8 844.1,129.9 840.8,132.1 837.4,134.4 834.2,136.9 830.9,139.5 827.8,142.3 824.6,145.1 821.5,148.1 818.5,151.2 815.5,154.5 812.6,157.8 809.7,161.3 806.9,164.8 804.2,168.5 801.5,172.3 798.9,176.2 796.3,180.3 793.8,184.4 791.4,188.6 789.1,192.9 786.8,197.3 784.6,201.8 782.5,206.3 780.5,211.0 778.6,215.7 776.7,220.6 774.9,225.4 773.2,230.4 771.6,235.4 770.1,240.5 768.6,245.6 767.3,250.8 766.0,256.1 764.8,261.4 763.7,266.7 762.8,272.1 761.9,277.6 761.0,283.0 760.3,288.5 759.7,294.0 759.2,299.6 758.8,305.1 758.4,310.7 758.2,316.3 758.0,321.9 758.0,327.5 758.0,333.1 758.2,338.7 758.4,344.3 758.8,349.9 759.2,355.4 759.7,361.0 760.3,366.5 761.0,372.0 761.9,377.4 762.8,382.9 763.7,388.3 764.8,393.6 766.0,398.9 767.3,404.2 768.6,409.4 770.1,414.5 771.6,419.6 773.2,424.6 774.9,429.6 776.7,434.4 778.6,439.3 780.5,444.0 782.5,448.7 784.6,453.2 786.8,457.7 789.1,462.1 791.4,466.4 793.8,470.6 796.3,474.7 798.9,478.8 801.5,482.7 804.2,486.5 806.9,490.2 809.7,493.7 812.6,497.2 815.5,500.5 818.5,503.8 821.5,506.9 824.6,509.9 827.8,512.7 830.9,515.5 834.2,518.1 837.4,520.6 840.8,522.9 844.1,525.1 847.5,527.2 850.9,529.1 854.4,530.9 857.9,532.6 861.4,534.1 864.9,535.5 868.5,536.7 872.1,537.8 875.7,538.8 879.3,539.6 882.9,540.2 886.6,540.7 890.2,541.1 893.8,541.3 897.5,541.4 901.2,541.3 904.8,541.1 908.4,540.7 912.1,540.2 915.7,539.6 919.3,538.8 922.9,537.8 926.5,536.7 930.1,535.5 933.6,534.1 937.1,532.6 940.6,530.9 944.1,529.1 947.5,527.2 950.9,525.1 954.2,522.9 957.6,520.6 960.8,518.1 964.1,515.5 967.2,512.7 970.4,509.9 973.5,506.9 976.5,503.8 979.5,500.5 982.4,497.2 985.3,493.7 988.1,490.2 990.8,486.5 993.5,482.7 996.1,478.8 998.7,474.7 1001.2,470.6 1003.6,466.4 1005.9,462.1 1008.2,457.7 1010.4,453.2 1012.5,448.7 1014.5,444.0 1016.4,439.3 1018.3,434.4 1020.1,429.6 1021.8,424.6 1023.4,419.6 1024.9,414.5 1026.4,409.4 1027.7,404.2 1029.0,398.9 1030.2,393.6 1031.3,388.3 1032.2,382.9 1033.1,377.4 1034.0,372.0 1034.7,366.5 1035.3,361.0 1035.8,355.4 1036.2,349.9 1036.6,344.3 1036.8,338.7 1037.0,333.1 1037.0,327.5" fill="none" stroke="#777a74" stroke-width="1.2"/>
<polyline points="1045.1,327.5 1045.0,321.6 1044.9,315.7 1044.6,309.7 1044.3,303.8 1043.8,298.0 1043.3,292.1 1042.6,286.3 1041.9,280.4 1041.0,274.7 1040.1,268.9 1039.0,263.2 1037.9,257.6 1036.6,252.0 1035.3,246.4 1033.9,240.9 1032.3,235.5 1030.7,230.1 1029.0,224.8 1027.2,219.5 1025.3,214.4 1023.3,209.3 1021.3,204.2 1019.1,199.3 1016.9,194.5 1014.6,189.7 1012.2,185.1 1009.7,180.5 1007.2,176.1 1004.6,171.7 1001.9,167.5 999.1,163.3 996.3,159.3 993.4,155.4 990.4,151.6 987.3,148.0 984.2,144.4 981.1,141.0 977.9,137.7 974.6,134.5 971.3,131.5 967.9,128.6 964.5,125.9 961.0,123.2 957.5,120.8 954.0,118.4 950.4,116.2 946.8,114.2 943.1,112.3 939.4,110.5 935.7,108.9 932.0,107.5 928.2,106.1 924.4,105.0 920.6,104.0 916.8,103.1 912.9,102.4 909.1,101.9 905.2,101.5 901.4,101.3 897.5,101.2 893.6,101.3 889.8,101.5 885.9,101.9 882.1,102.4 878.2,103.1 874.4,104.0 870.6,105.0 866.8,106.1 863.0,107.5 859.3,108.9 855.6,110.5 851.9,112.3 848.2,114.2 844.6,116.2 841.0,118.4 837.5,120.8 834.0,123.2 830.5,125.9 827.1,128.6 823.7,131.5 820.4,134.5 817.1,137.7 813.9,141.0 810.8,144.4 807.7,148.0 804.6,151.6 801.6,155.4 798.7,159.3 795.9,163.3 793.1,167.5 790.4,171.7 787.8,176.1 785.3,180.5 782.8,185.1 780.4,189.7 778.1,194.5 775.9,199.3 773.7,204.2 771.7,209.3 769.7,214.4 767.8,219.5 766.0,224.8 764.3,230.1 762.7,235.5 761.1,240.9 759.7,246.4 758.4,252.0 757.1,257.6 756.0,263.2 754.9,268.9 754.0,274.7 753.1,280.4 752.4,286.3 751.7,292.1 751.2,298.0 750.7,303.8 750.4,309.7 750.1,315.7 750.0,321.6 749.9,327.5 750.0,333.4 750.1,339.3 750.4,345.3 750.7,351.2 751.2,357.0 751.7,362.9 752.4,368.7 753.1,374.6 754.0,380.3 754.9,386.1 756.0,391.8 757.1,397.4 758.4,403.0 759.7,408.6 761.1,414.1 762.7,419.5 764.3,424.9 766.0,430.2 767.8,435.5 769.7,440.6 771.7,445.7 773.7,450.8 775.9,455.7 778.1,460.5 780.4,465.3 782.8,469.9 785.3,474.5 787.8,478.9 790.4,483.3 793.1,487.5 795.9,491.7 798.7,495.7 801.6,499.6 804.6,503.4 807.7,507.0 810.8,510.6 813.9,514.0 817.1,517.3 820.4,520.5 823.7,523.5 827.1,526.4 830.5,529.1 834.0,531.8 837.5,534.2 841.0,536.6 844.6,538.8 848.2,540.8 851.9,542.7 855.6,544.5 859.3,546.1 863.0,547.5 866.8,548.9 870.6,550.0 874.4,551.0 878.2,551.9 882.1,552.6 885.9,553.1 889.8,553.5 893.6,553.7 897.5,553.8 901.4,553.7 905.2,553.5 909.1,553.1 912.9,552.6 916.8,551.9 920.6,551.0 924.4,550.0 928.2,548.9 932.0,547.5 935.7,546.1 939.4,544.5 943.1,542.7 946.8,540.8 950.4,538.8 954.0,536.6 957.5,534.2 961.0,531.8 964.5,529.1 967.9,526.4 971.3,523.5 974.6,520.5 977.9,517.3 981.1,514.0 984.2,510.6 987.3,507.0 990.4,503.4 993.4,499.6 996.3,495.7 999.1,491.7 1001.9,487.5 1004.6,483.3 1007.2,478.9 1009.7,474.5 1012.2,469.9 1014.6,465.3 1016.9,460.5 1019.1,455.7 1021.3,450.8 1023.3,445.7 1025.3,440.6 1027.2,435.5 1029.0,430.2 1030.7,424.9 1032.3,419.5 1033.9,414.1 1035.3,408.6 1036.6,403.0 1037.9,397.4 1039.0,391.8 1040.1,386.1 1041.0,380.3 1041.9,374.6 1042.6,368.7 1043.3,362.9 1043.8,357.0 1044.3,351.2 1044.6,345.3 1044.9,339.3 1045.0,333.4 1045.1,327.5" fill="none" stroke="#777a74" stroke-width="1.2"/>
<polyline points="313.2,355.9 356.0,318.2 323.4,443.8 371.8,307.9 236.5,169.9" fill="none" stroke="#a8aaa5" stroke-width="4"/>
<polyline points="899.5,337.8 740.8,273.2 877.3,235.5 935.9,342.0 747.9,381.8 867.2,536.8" fill="none" stroke="#a8aaa5" stroke-width="4"/>
<circle cx="313.2" cy="355.9" r="4.5" fill="#30332e"/>
<circle cx="356.0" cy="318.2" r="4.5" fill="#30332e"/>
<circle cx="323.4" cy="443.8" r="4.5" fill="#30332e"/>
<circle cx="371.8" cy="307.9" r="4.5" fill="#30332e"/>
<circle cx="236.5" cy="169.9" r="7" fill="#fff" stroke="#30332e" stroke-width="2.3"/>
<circle cx="899.5" cy="337.8" r="4.5" fill="#30332e"/>
<circle cx="740.8" cy="273.2" r="4.5" fill="#30332e"/>
<circle cx="877.3" cy="235.5" r="4.5" fill="#30332e"/>
<circle cx="935.9" cy="342.0" r="4.5" fill="#30332e"/>
<circle cx="747.9" cy="381.8" r="4.5" fill="#30332e"/>
<circle cx="867.2" cy="536.8" r="4.5" fill="#30332e"/>
<line x1="314.5" y1="319.5" x2="330.5" y2="335.5" stroke="#30332e" stroke-width="2.2"/>
<line x1="314.5" y1="335.5" x2="330.5" y2="319.5" stroke="#30332e" stroke-width="2.2"/>
<line x1="889.5" y1="319.5" x2="905.5" y2="335.5" stroke="#30332e" stroke-width="2.2"/>
<line x1="889.5" y1="335.5" x2="905.5" y2="319.5" stroke="#30332e" stroke-width="2.2"/>
<line x1="136.5" y1="560.0" x2="136.5" y2="567.0" stroke="#30332e"/>
<text x="136.5" y="590.0" text-anchor="middle" font-family="-apple-system,BlinkMacSystemFont,PingFang SC,Noto Sans CJK SC,sans-serif" font-size="17" font-weight="400" fill="#30332e">-4</text>
<line x1="229.5" y1="560.0" x2="229.5" y2="567.0" stroke="#30332e"/>
<text x="229.5" y="590.0" text-anchor="middle" font-family="-apple-system,BlinkMacSystemFont,PingFang SC,Noto Sans CJK SC,sans-serif" font-size="17" font-weight="400" fill="#30332e">-2</text>
<line x1="322.5" y1="560.0" x2="322.5" y2="567.0" stroke="#30332e"/>
<text x="322.5" y="590.0" text-anchor="middle" font-family="-apple-system,BlinkMacSystemFont,PingFang SC,Noto Sans CJK SC,sans-serif" font-size="17" font-weight="400" fill="#30332e">0</text>
<line x1="415.5" y1="560.0" x2="415.5" y2="567.0" stroke="#30332e"/>
<text x="415.5" y="590.0" text-anchor="middle" font-family="-apple-system,BlinkMacSystemFont,PingFang SC,Noto Sans CJK SC,sans-serif" font-size="17" font-weight="400" fill="#30332e">2</text>
<line x1="508.5" y1="560.0" x2="508.5" y2="567.0" stroke="#30332e"/>
<text x="508.5" y="590.0" text-anchor="middle" font-family="-apple-system,BlinkMacSystemFont,PingFang SC,Noto Sans CJK SC,sans-serif" font-size="17" font-weight="400" fill="#30332e">4</text>
<line x1="695.3" y1="560.0" x2="695.3" y2="567.0" stroke="#30332e"/>
<text x="695.3" y="590.0" text-anchor="middle" font-family="-apple-system,BlinkMacSystemFont,PingFang SC,Noto Sans CJK SC,sans-serif" font-size="17" font-weight="400" fill="#30332e">-2</text>
<line x1="796.4" y1="560.0" x2="796.4" y2="567.0" stroke="#30332e"/>
<text x="796.4" y="590.0" text-anchor="middle" font-family="-apple-system,BlinkMacSystemFont,PingFang SC,Noto Sans CJK SC,sans-serif" font-size="17" font-weight="400" fill="#30332e">-1</text>
<line x1="897.5" y1="560.0" x2="897.5" y2="567.0" stroke="#30332e"/>
<text x="897.5" y="590.0" text-anchor="middle" font-family="-apple-system,BlinkMacSystemFont,PingFang SC,Noto Sans CJK SC,sans-serif" font-size="17" font-weight="400" fill="#30332e">0</text>
<line x1="998.6" y1="560.0" x2="998.6" y2="567.0" stroke="#30332e"/>
<text x="998.6" y="590.0" text-anchor="middle" font-family="-apple-system,BlinkMacSystemFont,PingFang SC,Noto Sans CJK SC,sans-serif" font-size="17" font-weight="400" fill="#30332e">1</text>
<line x1="1099.7" y1="560.0" x2="1099.7" y2="567.0" stroke="#30332e"/>
<text x="1099.7" y="590.0" text-anchor="middle" font-family="-apple-system,BlinkMacSystemFont,PingFang SC,Noto Sans CJK SC,sans-serif" font-size="17" font-weight="400" fill="#30332e">2</text>
<line x1="83.0" y1="534.2" x2="90.0" y2="534.2" stroke="#30332e"/>
<text x="75.0" y="540.2" text-anchor="end" font-family="-apple-system,BlinkMacSystemFont,PingFang SC,Noto Sans CJK SC,sans-serif" font-size="17" font-weight="400" fill="#30332e">-4</text>
<line x1="658.0" y1="534.2" x2="665.0" y2="534.2" stroke="#30332e"/>
<text x="650.0" y="540.2" text-anchor="end" font-family="-apple-system,BlinkMacSystemFont,PingFang SC,Noto Sans CJK SC,sans-serif" font-size="17" font-weight="400" fill="#30332e">-4</text>
<line x1="83.0" y1="430.8" x2="90.0" y2="430.8" stroke="#30332e"/>
<text x="75.0" y="436.8" text-anchor="end" font-family="-apple-system,BlinkMacSystemFont,PingFang SC,Noto Sans CJK SC,sans-serif" font-size="17" font-weight="400" fill="#30332e">-2</text>
<line x1="658.0" y1="430.8" x2="665.0" y2="430.8" stroke="#30332e"/>
<text x="650.0" y="436.8" text-anchor="end" font-family="-apple-system,BlinkMacSystemFont,PingFang SC,Noto Sans CJK SC,sans-serif" font-size="17" font-weight="400" fill="#30332e">-2</text>
<line x1="83.0" y1="327.5" x2="90.0" y2="327.5" stroke="#30332e"/>
<text x="75.0" y="333.5" text-anchor="end" font-family="-apple-system,BlinkMacSystemFont,PingFang SC,Noto Sans CJK SC,sans-serif" font-size="17" font-weight="400" fill="#30332e">0</text>
<line x1="658.0" y1="327.5" x2="665.0" y2="327.5" stroke="#30332e"/>
<text x="650.0" y="333.5" text-anchor="end" font-family="-apple-system,BlinkMacSystemFont,PingFang SC,Noto Sans CJK SC,sans-serif" font-size="17" font-weight="400" fill="#30332e">0</text>
<line x1="83.0" y1="224.2" x2="90.0" y2="224.2" stroke="#30332e"/>
<text x="75.0" y="230.2" text-anchor="end" font-family="-apple-system,BlinkMacSystemFont,PingFang SC,Noto Sans CJK SC,sans-serif" font-size="17" font-weight="400" fill="#30332e">2</text>
<line x1="658.0" y1="224.2" x2="665.0" y2="224.2" stroke="#30332e"/>
<text x="650.0" y="230.2" text-anchor="end" font-family="-apple-system,BlinkMacSystemFont,PingFang SC,Noto Sans CJK SC,sans-serif" font-size="17" font-weight="400" fill="#30332e">2</text>
<line x1="83.0" y1="120.8" x2="90.0" y2="120.8" stroke="#30332e"/>
<text x="75.0" y="126.8" text-anchor="end" font-family="-apple-system,BlinkMacSystemFont,PingFang SC,Noto Sans CJK SC,sans-serif" font-size="17" font-weight="400" fill="#30332e">4</text>
<line x1="658.0" y1="120.8" x2="665.0" y2="120.8" stroke="#30332e"/>
<text x="650.0" y="126.8" text-anchor="end" font-family="-apple-system,BlinkMacSystemFont,PingFang SC,Noto Sans CJK SC,sans-serif" font-size="17" font-weight="400" fill="#30332e">4</text>
<text x="322.5" y="635.0" text-anchor="middle" font-family="-apple-system,BlinkMacSystemFont,PingFang SC,Noto Sans CJK SC,sans-serif" font-size="22" font-weight="400" fill="#30332e">x</text>
<text x="897.5" y="635.0" text-anchor="middle" font-family="-apple-system,BlinkMacSystemFont,PingFang SC,Noto Sans CJK SC,sans-serif" font-size="22" font-weight="400" fill="#30332e">z</text>
<text x="30.0" y="327.5" text-anchor="middle" font-family="-apple-system,BlinkMacSystemFont,PingFang SC,Noto Sans CJK SC,sans-serif" font-size="22" font-weight="400" fill="#30332e" transform="rotate(-90 30 327.5)">v</text>
<text x="605.0" y="327.5" text-anchor="middle" font-family="-apple-system,BlinkMacSystemFont,PingFang SC,Noto Sans CJK SC,sans-serif" font-size="22" font-weight="400" fill="#30332e" transform="rotate(-90 605 327.5)">v</text>
</svg>