<?xml version="1.0" encoding="UTF-8"?>
<svg xmlns="http://www.w3.org/2000/svg" width="1100" height="580" viewBox="0 0 1100 580" role="img">
<title>欠拟合与过拟合对样本构成的敏感性</title>
<desc>左图七条一次回归线变化很小；右图七条四次多项式曲线在每次删除一个观测后剧烈变化。</desc>
<rect width="100%" height="100%" fill="#fff"/>
<defs><clipPath id="loo-left"><rect x="120" y="70" width="410" height="350"/></clipPath><clipPath id="loo-right"><rect x="650" y="70" width="410" height="350"/></clipPath></defs>
<text x="120" y="46" font-family="PingFang SC, Noto Sans CJK SC, Microsoft YaHei, sans-serif" font-size="22" font-weight="700" fill="#30332e">m7.1</text>
<rect x="120" y="70" width="410" height="350" fill="#fff" stroke="#343732" stroke-width="1.4"/>
<polyline points="120,378.49 122.73,377.13 125.47,375.77 128.2,374.41 130.93,373.05 133.67,371.69 136.4,370.33 139.13,368.97 141.87,367.61 144.6,366.25 147.33,364.9 150.07,363.54 152.8,362.18 155.53,360.82 158.27,359.46 161,358.1 163.73,356.74 166.47,355.38 169.2,354.02 171.93,352.66 174.67,351.3 177.4,349.94 180.13,348.58 182.87,347.22 185.6,345.87 188.33,344.51 191.07,343.15 193.8,341.79 196.53,340.43 199.27,339.07 202,337.71 204.73,336.35 207.47,334.99 210.2,333.63 212.93,332.27 215.67,330.91 218.4,329.55 221.13,328.19 223.87,326.84 226.6,325.48 229.33,324.12 232.07,322.76 234.8,321.4 237.53,320.04 240.27,318.68 243,317.32 245.73,315.96 248.47,314.6 251.2,313.24 253.93,311.88 256.67,310.52 259.4,309.16 262.13,307.81 264.87,306.45 267.6,305.09 270.33,303.73 273.07,302.37 275.8,301.01 278.53,299.65 281.27,298.29 284,296.93 286.73,295.57 289.47,294.21 292.2,292.85 294.93,291.49 297.67,290.13 300.4,288.78 303.13,287.42 305.87,286.06 308.6,284.7 311.33,283.34 314.07,281.98 316.8,280.62 319.53,279.26 322.27,277.9 325,276.54 327.73,275.18 330.47,273.82 333.2,272.46 335.93,271.1 338.67,269.75 341.4,268.39 344.13,267.03 346.87,265.67 349.6,264.31 352.33,262.95 355.07,261.59 357.8,260.23 360.53,258.87 363.27,257.51 366,256.15 368.73,254.79 371.47,253.43 374.2,252.07 376.93,250.72 379.67,249.36 382.4,248 385.13,246.64 387.87,245.28 390.6,243.92 393.33,242.56 396.07,241.2 398.8,239.84 401.53,238.48 404.27,237.12 407,235.76 409.73,234.4 412.47,233.04 415.2,231.69 417.93,230.33 420.67,228.97 423.4,227.61 426.13,226.25 428.87,224.89 431.6,223.53 434.33,222.17 437.07,220.81 439.8,219.45 442.53,218.09 445.27,216.73 448,215.37 450.73,214.01 453.47,212.66 456.2,211.3 458.93,209.94 461.67,208.58 464.4,207.22 467.13,205.86 469.87,204.5 472.6,203.14 475.33,201.78 478.07,200.42 480.8,199.06 483.53,197.7 486.27,196.34 489,194.98 491.73,193.63 494.47,192.27 497.2,190.91 499.93,189.55 502.67,188.19 505.4,186.83 508.13,185.47 510.87,184.11 513.6,182.75 516.33,181.39 519.07,180.03 521.8,178.67 524.53,177.31 527.27,175.95 530,174.59" fill="none" stroke="#9b9d9a" stroke-width="2.6" opacity="0.76" clip-path="url(#loo-left)"/>
<polyline points="120,383.4 122.73,382 125.47,380.61 128.2,379.21 130.93,377.82 133.67,376.42 136.4,375.03 139.13,373.63 141.87,372.24 144.6,370.84 147.33,369.45 150.07,368.05 152.8,366.66 155.53,365.26 158.27,363.87 161,362.47 163.73,361.08 166.47,359.68 169.2,358.29 171.93,356.89 174.67,355.5 177.4,354.1 180.13,352.71 182.87,351.31 185.6,349.92 188.33,348.52 191.07,347.13 193.8,345.73 196.53,344.34 199.27,342.94 202,341.55 204.73,340.15 207.47,338.76 210.2,337.36 212.93,335.97 215.67,334.57 218.4,333.18 221.13,331.78 223.87,330.39 226.6,328.99 229.33,327.6 232.07,326.2 234.8,324.81 237.53,323.41 240.27,322.02 243,320.62 245.73,319.23 248.47,317.83 251.2,316.44 253.93,315.04 256.67,313.65 259.4,312.25 262.13,310.86 264.87,309.46 267.6,308.07 270.33,306.67 273.07,305.28 275.8,303.88 278.53,302.49 281.27,301.09 284,299.7 286.73,298.3 289.47,296.91 292.2,295.51 294.93,294.12 297.67,292.72 300.4,291.33 303.13,289.93 305.87,288.54 308.6,287.14 311.33,285.75 314.07,284.35 316.8,282.96 319.53,281.56 322.27,280.17 325,278.77 327.73,277.38 330.47,275.98 333.2,274.59 335.93,273.19 338.67,271.8 341.4,270.4 344.13,269.01 346.87,267.61 349.6,266.22 352.33,264.82 355.07,263.43 357.8,262.03 360.53,260.64 363.27,259.24 366,257.85 368.73,256.45 371.47,255.06 374.2,253.66 376.93,252.27 379.67,250.87 382.4,249.48 385.13,248.08 387.87,246.69 390.6,245.29 393.33,243.9 396.07,242.5 398.8,241.11 401.53,239.71 404.27,238.32 407,236.92 409.73,235.53 412.47,234.13 415.2,232.74 417.93,231.34 420.67,229.95 423.4,228.55 426.13,227.16 428.87,225.76 431.6,224.37 434.33,222.97 437.07,221.58 439.8,220.18 442.53,218.79 445.27,217.39 448,216 450.73,214.6 453.47,213.21 456.2,211.81 458.93,210.42 461.67,209.02 464.4,207.63 467.13,206.23 469.87,204.84 472.6,203.44 475.33,202.05 478.07,200.65 480.8,199.26 483.53,197.86 486.27,196.47 489,195.07 491.73,193.68 494.47,192.28 497.2,190.89 499.93,189.49 502.67,188.1 505.4,186.7 508.13,185.31 510.87,183.91 513.6,182.52 516.33,181.12 519.07,179.73 521.8,178.33 524.53,176.94 527.27,175.54 530,174.15" fill="none" stroke="#9b9d9a" stroke-width="2.6" opacity="0.76" clip-path="url(#loo-left)"/>
<polyline points="120,413.28 122.73,411.61 125.47,409.93 128.2,408.26 130.93,406.59 133.67,404.92 136.4,403.25 139.13,401.58 141.87,399.9 144.6,398.23 147.33,396.56 150.07,394.89 152.8,393.22 155.53,391.54 158.27,389.87 161,388.2 163.73,386.53 166.47,384.86 169.2,383.18 171.93,381.51 174.67,379.84 177.4,378.17 180.13,376.5 182.87,374.83 185.6,373.15 188.33,371.48 191.07,369.81 193.8,368.14 196.53,366.47 199.27,364.79 202,363.12 204.73,361.45 207.47,359.78 210.2,358.11 212.93,356.43 215.67,354.76 218.4,353.09 221.13,351.42 223.87,349.75 226.6,348.07 229.33,346.4 232.07,344.73 234.8,343.06 237.53,341.39 240.27,339.72 243,338.04 245.73,336.37 248.47,334.7 251.2,333.03 253.93,331.36 256.67,329.68 259.4,328.01 262.13,326.34 264.87,324.67 267.6,323 270.33,321.32 273.07,319.65 275.8,317.98 278.53,316.31 281.27,314.64 284,312.96 286.73,311.29 289.47,309.62 292.2,307.95 294.93,306.28 297.67,304.61 300.4,302.93 303.13,301.26 305.87,299.59 308.6,297.92 311.33,296.25 314.07,294.57 316.8,292.9 319.53,291.23 322.27,289.56 325,287.89 327.73,286.21 330.47,284.54 333.2,282.87 335.93,281.2 338.67,279.53 341.4,277.86 344.13,276.18 346.87,274.51 349.6,272.84 352.33,271.17 355.07,269.5 357.8,267.82 360.53,266.15 363.27,264.48 366,262.81 368.73,261.14 371.47,259.46 374.2,257.79 376.93,256.12 379.67,254.45 382.4,252.78 385.13,251.1 387.87,249.43 390.6,247.76 393.33,246.09 396.07,244.42 398.8,242.75 401.53,241.07 404.27,239.4 407,237.73 409.73,236.06 412.47,234.39 415.2,232.71 417.93,231.04 420.67,229.37 423.4,227.7 426.13,226.03 428.87,224.35 431.6,222.68 434.33,221.01 437.07,219.34 439.8,217.67 442.53,215.99 445.27,214.32 448,212.65 450.73,210.98 453.47,209.31 456.2,207.64 458.93,205.96 461.67,204.29 464.4,202.62 467.13,200.95 469.87,199.28 472.6,197.6 475.33,195.93 478.07,194.26 480.8,192.59 483.53,190.92 486.27,189.24 489,187.57 491.73,185.9 494.47,184.23 497.2,182.56 499.93,180.88 502.67,179.21 505.4,177.54 508.13,175.87 510.87,174.2 513.6,172.53 516.33,170.85 519.07,169.18 521.8,167.51 524.53,165.84 527.27,164.17 530,162.49" fill="none" stroke="#9b9d9a" stroke-width="2.6" opacity="0.76" clip-path="url(#loo-left)"/>
<polyline points="120,382.27 122.73,380.85 125.47,379.43 128.2,378.01 130.93,376.59 133.67,375.17 136.4,373.75 139.13,372.33 141.87,370.92 144.6,369.5 147.33,368.08 150.07,366.66 152.8,365.24 155.53,363.82 158.27,362.4 161,360.99 163.73,359.57 166.47,358.15 169.2,356.73 171.93,355.31 174.67,353.89 177.4,352.47 180.13,351.05 182.87,349.64 185.6,348.22 188.33,346.8 191.07,345.38 193.8,343.96 196.53,342.54 199.27,341.12 202,339.7 204.73,338.29 207.47,336.87 210.2,335.45 212.93,334.03 215.67,332.61 218.4,331.19 221.13,329.77 223.87,328.36 226.6,326.94 229.33,325.52 232.07,324.1 234.8,322.68 237.53,321.26 240.27,319.84 243,318.42 245.73,317.01 248.47,315.59 251.2,314.17 253.93,312.75 256.67,311.33 259.4,309.91 262.13,308.49 264.87,307.07 267.6,305.66 270.33,304.24 273.07,302.82 275.8,301.4 278.53,299.98 281.27,298.56 284,297.14 286.73,295.73 289.47,294.31 292.2,292.89 294.93,291.47 297.67,290.05 300.4,288.63 303.13,287.21 305.87,285.79 308.6,284.38 311.33,282.96 314.07,281.54 316.8,280.12 319.53,278.7 322.27,277.28 325,275.86 327.73,274.44 330.47,273.03 333.2,271.61 335.93,270.19 338.67,268.77 341.4,267.35 344.13,265.93 346.87,264.51 349.6,263.1 352.33,261.68 355.07,260.26 357.8,258.84 360.53,257.42 363.27,256 366,254.58 368.73,253.16 371.47,251.75 374.2,250.33 376.93,248.91 379.67,247.49 382.4,246.07 385.13,244.65 387.87,243.23 390.6,241.82 393.33,240.4 396.07,238.98 398.8,237.56 401.53,236.14 404.27,234.72 407,233.3 409.73,231.88 412.47,230.47 415.2,229.05 417.93,227.63 420.67,226.21 423.4,224.79 426.13,223.37 428.87,221.95 431.6,220.53 434.33,219.12 437.07,217.7 439.8,216.28 442.53,214.86 445.27,213.44 448,212.02 450.73,210.6 453.47,209.19 456.2,207.77 458.93,206.35 461.67,204.93 464.4,203.51 467.13,202.09 469.87,200.67 472.6,199.25 475.33,197.84 478.07,196.42 480.8,195 483.53,193.58 486.27,192.16 489,190.74 491.73,189.32 494.47,187.9 497.2,186.49 499.93,185.07 502.67,183.65 505.4,182.23 508.13,180.81 510.87,179.39 513.6,177.97 516.33,176.56 519.07,175.14 521.8,173.72 524.53,172.3 527.27,170.88 530,169.46" fill="none" stroke="#9b9d9a" stroke-width="2.6" opacity="0.76" clip-path="url(#loo-left)"/>
<polyline points="120,395.49 122.73,393.79 125.47,392.08 128.2,390.38 130.93,388.67 133.67,386.97 136.4,385.26 139.13,383.56 141.87,381.85 144.6,380.14 147.33,378.44 150.07,376.73 152.8,375.03 155.53,373.32 158.27,371.62 161,369.91 163.73,368.21 166.47,366.5 169.2,364.79 171.93,363.09 174.67,361.38 177.4,359.68 180.13,357.97 182.87,356.27 185.6,354.56 188.33,352.86 191.07,351.15 193.8,349.44 196.53,347.74 199.27,346.03 202,344.33 204.73,342.62 207.47,340.92 210.2,339.21 212.93,337.51 215.67,335.8 218.4,334.09 221.13,332.39 223.87,330.68 226.6,328.98 229.33,327.27 232.07,325.57 234.8,323.86 237.53,322.16 240.27,320.45 243,318.74 245.73,317.04 248.47,315.33 251.2,313.63 253.93,311.92 256.67,310.22 259.4,308.51 262.13,306.81 264.87,305.1 267.6,303.39 270.33,301.69 273.07,299.98 275.8,298.28 278.53,296.57 281.27,294.87 284,293.16 286.73,291.45 289.47,289.75 292.2,288.04 294.93,286.34 297.67,284.63 300.4,282.93 303.13,281.22 305.87,279.52 308.6,277.81 311.33,276.1 314.07,274.4 316.8,272.69 319.53,270.99 322.27,269.28 325,267.58 327.73,265.87 330.47,264.17 333.2,262.46 335.93,260.75 338.67,259.05 341.4,257.34 344.13,255.64 346.87,253.93 349.6,252.23 352.33,250.52 355.07,248.82 357.8,247.11 360.53,245.4 363.27,243.7 366,241.99 368.73,240.29 371.47,238.58 374.2,236.88 376.93,235.17 379.67,233.47 382.4,231.76 385.13,230.05 387.87,228.35 390.6,226.64 393.33,224.94 396.07,223.23 398.8,221.53 401.53,219.82 404.27,218.12 407,216.41 409.73,214.7 412.47,213 415.2,211.29 417.93,209.59 420.67,207.88 423.4,206.18 426.13,204.47 428.87,202.77 431.6,201.06 434.33,199.35 437.07,197.65 439.8,195.94 442.53,194.24 445.27,192.53 448,190.83 450.73,189.12 453.47,187.41 456.2,185.71 458.93,184 461.67,182.3 464.4,180.59 467.13,178.89 469.87,177.18 472.6,175.48 475.33,173.77 478.07,172.06 480.8,170.36 483.53,168.65 486.27,166.95 489,165.24 491.73,163.54 494.47,161.83 497.2,160.13 499.93,158.42 502.67,156.71 505.4,155.01 508.13,153.3 510.87,151.6 513.6,149.89 516.33,148.19 519.07,146.48 521.8,144.78 524.53,143.07 527.27,141.36 530,139.66" fill="none" stroke="#9b9d9a" stroke-width="2.6" opacity="0.76" clip-path="url(#loo-left)"/>
<polyline points="120,407.6 122.73,405.65 125.47,403.69 128.2,401.73 130.93,399.78 133.67,397.82 136.4,395.87 139.13,393.91 141.87,391.95 144.6,390 147.33,388.04 150.07,386.08 152.8,384.13 155.53,382.17 158.27,380.22 161,378.26 163.73,376.3 166.47,374.35 169.2,372.39 171.93,370.44 174.67,368.48 177.4,366.52 180.13,364.57 182.87,362.61 185.6,360.65 188.33,358.7 191.07,356.74 193.8,354.79 196.53,352.83 199.27,350.87 202,348.92 204.73,346.96 207.47,345 210.2,343.05 212.93,341.09 215.67,339.14 218.4,337.18 221.13,335.22 223.87,333.27 226.6,331.31 229.33,329.35 232.07,327.4 234.8,325.44 237.53,323.49 240.27,321.53 243,319.57 245.73,317.62 248.47,315.66 251.2,313.7 253.93,311.75 256.67,309.79 259.4,307.84 262.13,305.88 264.87,303.92 267.6,301.97 270.33,300.01 273.07,298.06 275.8,296.1 278.53,294.14 281.27,292.19 284,290.23 286.73,288.27 289.47,286.32 292.2,284.36 294.93,282.41 297.67,280.45 300.4,278.49 303.13,276.54 305.87,274.58 308.6,272.62 311.33,270.67 314.07,268.71 316.8,266.76 319.53,264.8 322.27,262.84 325,260.89 327.73,258.93 330.47,256.97 333.2,255.02 335.93,253.06 338.67,251.11 341.4,249.15 344.13,247.19 346.87,245.24 349.6,243.28 352.33,241.32 355.07,239.37 357.8,237.41 360.53,235.46 363.27,233.5 366,231.54 368.73,229.59 371.47,227.63 374.2,225.68 376.93,223.72 379.67,221.76 382.4,219.81 385.13,217.85 387.87,215.89 390.6,213.94 393.33,211.98 396.07,210.03 398.8,208.07 401.53,206.11 404.27,204.16 407,202.2 409.73,200.24 412.47,198.29 415.2,196.33 417.93,194.38 420.67,192.42 423.4,190.46 426.13,188.51 428.87,186.55 431.6,184.59 434.33,182.64 437.07,180.68 439.8,178.73 442.53,176.77 445.27,174.81 448,172.86 450.73,170.9 453.47,168.94 456.2,166.99 458.93,165.03 461.67,163.08 464.4,161.12 467.13,159.16 469.87,157.21 472.6,155.25 475.33,153.3 478.07,151.34 480.8,149.38 483.53,147.43 486.27,145.47 489,143.51 491.73,141.56 494.47,139.6 497.2,137.65 499.93,135.69 502.67,133.73 505.4,131.78 508.13,129.82 510.87,127.86 513.6,125.91 516.33,123.95 519.07,122 521.8,120.04 524.53,118.08 527.27,116.13 530,114.17" fill="none" stroke="#9b9d9a" stroke-width="2.6" opacity="0.76" clip-path="url(#loo-left)"/>
<polyline points="120,390.12 122.73,389.14 125.47,388.16 128.2,387.18 130.93,386.19 133.67,385.21 136.4,384.23 139.13,383.25 141.87,382.26 144.6,381.28 147.33,380.3 150.07,379.32 152.8,378.34 155.53,377.35 158.27,376.37 161,375.39 163.73,374.41 166.47,373.43 169.2,372.44 171.93,371.46 174.67,370.48 177.4,369.5 180.13,368.52 182.87,367.53 185.6,366.55 188.33,365.57 191.07,364.59 193.8,363.6 196.53,362.62 199.27,361.64 202,360.66 204.73,359.68 207.47,358.69 210.2,357.71 212.93,356.73 215.67,355.75 218.4,354.77 221.13,353.78 223.87,352.8 226.6,351.82 229.33,350.84 232.07,349.86 234.8,348.87 237.53,347.89 240.27,346.91 243,345.93 245.73,344.94 248.47,343.96 251.2,342.98 253.93,342 256.67,341.02 259.4,340.03 262.13,339.05 264.87,338.07 267.6,337.09 270.33,336.11 273.07,335.12 275.8,334.14 278.53,333.16 281.27,332.18 284,331.2 286.73,330.21 289.47,329.23 292.2,328.25 294.93,327.27 297.67,326.28 300.4,325.3 303.13,324.32 305.87,323.34 308.6,322.36 311.33,321.37 314.07,320.39 316.8,319.41 319.53,318.43 322.27,317.45 325,316.46 327.73,315.48 330.47,314.5 333.2,313.52 335.93,312.54 338.67,311.55 341.4,310.57 344.13,309.59 346.87,308.61 349.6,307.62 352.33,306.64 355.07,305.66 357.8,304.68 360.53,303.7 363.27,302.71 366,301.73 368.73,300.75 371.47,299.77 374.2,298.79 376.93,297.8 379.67,296.82 382.4,295.84 385.13,294.86 387.87,293.88 390.6,292.89 393.33,291.91 396.07,290.93 398.8,289.95 401.53,288.96 404.27,287.98 407,287 409.73,286.02 412.47,285.04 415.2,284.05 417.93,283.07 420.67,282.09 423.4,281.11 426.13,280.13 428.87,279.14 431.6,278.16 434.33,277.18 437.07,276.2 439.8,275.22 442.53,274.23 445.27,273.25 448,272.27 450.73,271.29 453.47,270.3 456.2,269.32 458.93,268.34 461.67,267.36 464.4,266.38 467.13,265.39 469.87,264.41 472.6,263.43 475.33,262.45 478.07,261.47 480.8,260.48 483.53,259.5 486.27,258.52 489,257.54 491.73,256.56 494.47,255.57 497.2,254.59 499.93,253.61 502.67,252.63 505.4,251.64 508.13,250.66 510.87,249.68 513.6,248.7 516.33,247.72 519.07,246.73 521.8,245.75 524.53,244.77 527.27,243.79 530,242.81" fill="none" stroke="#9b9d9a" stroke-width="2.6" opacity="0.76" clip-path="url(#loo-left)"/>
<circle cx="184.06" cy="390.67" r="5.4" fill="#6670ee" stroke="#fff" stroke-width="1.2"/>
<circle cx="164.84" cy="386" r="5.4" fill="#6670ee" stroke="#fff" stroke-width="1.2"/>
<circle cx="152.03" cy="332.67" r="5.4" fill="#6670ee" stroke="#fff" stroke-width="1.2"/>
<circle cx="241.72" cy="363" r="5.4" fill="#6670ee" stroke="#fff" stroke-width="1.2"/>
<circle cx="421.09" cy="286" r="5.4" fill="#6670ee" stroke="#fff" stroke-width="1.2"/>
<circle cx="491.56" cy="246.33" r="5.4" fill="#6670ee" stroke="#fff" stroke-width="1.2"/>
<circle cx="395.47" cy="86.67" r="5.4" fill="#6670ee" stroke="#fff" stroke-width="1.2"/>
<line x1="158.44" y1="420" x2="158.44" y2="426" stroke="#343732"/>
<text x="158.44" y="446" text-anchor="middle" font-family="PingFang SC, Noto Sans CJK SC, Microsoft YaHei, sans-serif" font-size="16">35</text>
<line x1="312.19" y1="420" x2="312.19" y2="426" stroke="#343732"/>
<text x="312.19" y="446" text-anchor="middle" font-family="PingFang SC, Noto Sans CJK SC, Microsoft YaHei, sans-serif" font-size="16">47</text>
<line x1="478.75" y1="420" x2="478.75" y2="426" stroke="#343732"/>
<text x="478.75" y="446" text-anchor="middle" font-family="PingFang SC, Noto Sans CJK SC, Microsoft YaHei, sans-serif" font-size="16">60</text>
<line x1="114" y1="386.67" x2="120" y2="386.67" stroke="#343732"/>
<text x="107" y="391.67" text-anchor="end" font-family="PingFang SC, Noto Sans CJK SC, Microsoft YaHei, sans-serif" font-size="16">450</text>
<line x1="114" y1="236.67" x2="120" y2="236.67" stroke="#343732"/>
<text x="107" y="241.67" text-anchor="end" font-family="PingFang SC, Noto Sans CJK SC, Microsoft YaHei, sans-serif" font-size="16">900</text>
<line x1="114" y1="103.33" x2="120" y2="103.33" stroke="#343732"/>
<text x="107" y="108.33" text-anchor="end" font-family="PingFang SC, Noto Sans CJK SC, Microsoft YaHei, sans-serif" font-size="16">1300</text>
<text x="325.0" y="478" text-anchor="middle" font-family="PingFang SC, Noto Sans CJK SC, Microsoft YaHei, sans-serif" font-size="18" font-weight="700" fill="#263f86">体重（千克）</text>
<text x="48" y="245.0" transform="rotate(-90 48 245.0)" text-anchor="middle" font-family="PingFang SC, Noto Sans CJK SC, Microsoft YaHei, sans-serif" font-size="18" font-weight="700" fill="#263f86">脑容量（立方厘米）</text>
<text x="650" y="46" font-family="PingFang SC, Noto Sans CJK SC, Microsoft YaHei, sans-serif" font-size="22" font-weight="700" fill="#30332e">m7.4</text>
<rect x="650" y="70" width="410" height="350" fill="#fff" stroke="#343732" stroke-width="1.4"/>
<polyline points="650,-31.85 652.73,6.55 655.47,42.71 658.2,76.68 660.93,108.55 663.67,138.37 666.4,166.21 669.13,192.13 671.87,216.21 674.6,238.5 677.33,259.07 680.07,277.97 682.8,295.27 685.53,311.03 688.27,325.3 691,338.14 693.73,349.62 696.47,359.78 699.2,368.69 701.93,376.38 704.67,382.93 707.4,388.37 710.13,392.77 712.87,396.17 715.6,398.62 718.33,400.17 721.07,400.87 723.8,400.76 726.53,399.89 729.27,398.31 732,396.06 734.73,393.18 737.47,389.71 740.2,385.7 742.93,381.19 745.67,376.21 748.4,370.8 751.13,365.01 753.87,358.87 756.6,352.41 759.33,345.67 762.07,338.68 764.8,331.48 767.53,324.09 770.27,316.56 773,308.91 775.73,301.16 778.47,293.36 781.2,285.52 783.93,277.67 786.67,269.84 789.4,262.05 792.13,254.33 794.87,246.7 797.6,239.18 800.33,231.8 803.07,224.57 805.8,217.51 808.53,210.64 811.27,203.98 814,197.55 816.73,191.36 819.47,185.43 822.2,179.76 824.93,174.38 827.67,169.3 830.4,164.52 833.13,160.05 835.87,155.92 838.6,152.12 841.33,148.66 844.07,145.55 846.8,142.79 849.53,140.39 852.27,138.36 855,136.69 857.73,135.4 860.47,134.47 863.2,133.91 865.93,133.72 868.67,133.9 871.4,134.44 874.13,135.34 876.87,136.6 879.6,138.22 882.33,140.18 885.07,142.48 887.8,145.11 890.53,148.06 893.27,151.32 896,154.89 898.73,158.74 901.47,162.88 904.2,167.28 906.93,171.92 909.67,176.81 912.4,181.91 915.13,187.21 917.87,192.69 920.6,198.34 923.33,204.14 926.07,210.06 928.8,216.08 931.53,222.18 934.27,228.34 937,234.53 939.73,240.72 942.47,246.9 945.2,253.03 947.93,259.09 950.67,265.04 953.4,270.86 956.13,276.51 958.87,281.97 961.6,287.2 964.33,292.17 967.07,296.84 969.8,301.18 972.53,305.16 975.27,308.73 978,311.85 980.73,314.5 983.47,316.62 986.2,318.18 988.93,319.14 991.67,319.44 994.4,319.06 997.13,317.95 999.87,316.05 1002.6,313.33 1005.33,309.74 1008.07,305.22 1010.8,299.73 1013.53,293.23 1016.27,285.65 1019,276.95 1021.73,267.07 1024.47,255.97 1027.2,243.58 1029.93,229.85 1032.67,214.73 1035.4,198.15 1038.13,180.07 1040.87,160.41 1043.6,139.13 1046.33,116.16 1049.07,91.43 1051.8,64.89 1054.53,36.47 1057.27,6.11 1060,-26.26" fill="none" stroke="#9b9d9a" stroke-width="2.6" opacity="0.76" clip-path="url(#loo-right)"/>
<polyline points="650,113.1 652.73,135.01 655.47,155.63 658.2,175 660.93,193.17 663.67,210.17 666.4,226.04 669.13,240.81 671.87,254.52 674.6,267.21 677.33,278.91 680.07,289.65 682.8,299.47 685.53,308.41 688.27,316.5 691,323.76 693.73,330.23 696.47,335.95 699.2,340.94 701.93,345.24 704.67,348.87 707.4,351.87 710.13,354.26 712.87,356.07 715.6,357.34 718.33,358.08 721.07,358.32 723.8,358.1 726.53,357.43 729.27,356.35 732,354.88 734.73,353.04 737.47,350.85 740.2,348.34 742.93,345.54 745.67,342.47 748.4,339.14 751.13,335.58 753.87,331.81 756.6,327.85 759.33,323.72 762.07,319.44 764.8,315.03 767.53,310.51 770.27,305.89 773,301.2 775.73,296.44 778.47,291.65 781.2,286.82 783.93,281.98 786.67,277.14 789.4,272.32 792.13,267.54 794.87,262.79 797.6,258.1 800.33,253.48 803.07,248.95 805.8,244.5 808.53,240.16 811.27,235.93 814,231.83 816.73,227.86 819.47,224.03 822.2,220.35 824.93,216.82 827.67,213.47 830.4,210.28 833.13,207.27 835.87,204.45 838.6,201.82 841.33,199.38 844.07,197.14 846.8,195.1 849.53,193.26 852.27,191.64 855,190.22 857.73,189.02 860.47,188.03 863.2,187.25 865.93,186.69 868.67,186.35 871.4,186.21 874.13,186.29 876.87,186.58 879.6,187.07 882.33,187.77 885.07,188.67 887.8,189.77 890.53,191.06 893.27,192.54 896,194.21 898.73,196.05 901.47,198.06 904.2,200.24 906.93,202.57 909.67,205.06 912.4,207.68 915.13,210.43 917.87,213.31 920.6,216.3 923.33,219.39 926.07,222.57 928.8,225.83 931.53,229.15 934.27,232.54 937,235.96 939.73,239.42 942.47,242.88 945.2,246.35 947.93,249.8 950.67,253.23 953.4,256.6 956.13,259.92 958.87,263.15 961.6,266.29 964.33,269.31 967.07,272.2 969.8,274.93 972.53,277.49 975.27,279.86 978,282.02 980.73,283.94 983.47,285.61 986.2,287 988.93,288.09 991.67,288.85 994.4,289.27 997.13,289.32 999.87,288.97 1002.6,288.2 1005.33,286.98 1008.07,285.29 1010.8,283.11 1013.53,280.39 1016.27,277.13 1019,273.28 1021.73,268.82 1024.47,263.72 1027.2,257.95 1029.93,251.48 1032.67,244.28 1035.4,236.31 1038.13,227.56 1040.87,217.98 1043.6,207.54 1046.33,196.21 1049.07,183.95 1051.8,170.74 1054.53,156.53 1057.27,141.29 1060,124.99" fill="none" stroke="#9b9d9a" stroke-width="2.6" opacity="0.76" clip-path="url(#loo-right)"/>
<polyline points="650,-37.63 652.73,-3.2 655.47,29.29 658.2,59.9 660.93,88.69 663.67,115.71 666.4,141.02 669.13,164.68 671.87,186.73 674.6,207.24 677.33,226.25 680.07,243.82 682.8,260 685.53,274.84 688.27,288.39 691,300.69 693.73,311.8 696.47,321.76 699.2,330.62 701.93,338.42 704.67,345.22 707.4,351.05 710.13,355.96 712.87,359.98 715.6,363.18 718.33,365.57 721.07,367.21 723.8,368.14 726.53,368.39 729.27,368 732,367.01 734.73,365.46 737.47,363.38 740.2,360.8 742.93,357.77 745.67,354.31 748.4,350.46 751.13,346.25 753.87,341.71 756.6,336.88 759.33,331.78 762.07,326.43 764.8,320.88 767.53,315.15 770.27,309.25 773,303.23 775.73,297.11 778.47,290.9 781.2,284.64 783.93,278.34 786.67,272.03 789.4,265.73 792.13,259.47 794.87,253.25 797.6,247.1 800.33,241.05 803.07,235.09 805.8,229.27 808.53,223.58 811.27,218.04 814,212.68 816.73,207.5 819.47,202.51 822.2,197.73 824.93,193.17 827.67,188.85 830.4,184.76 833.13,180.93 835.87,177.35 838.6,174.04 841.33,171 844.07,168.25 846.8,165.78 849.53,163.59 852.27,161.71 855,160.12 857.73,158.82 860.47,157.83 863.2,157.15 865.93,156.76 868.67,156.68 871.4,156.89 874.13,157.41 876.87,158.22 879.6,159.32 882.33,160.71 885.07,162.38 887.8,164.32 890.53,166.54 893.27,169.02 896,171.75 898.73,174.72 901.47,177.93 904.2,181.37 906.93,185.02 909.67,188.87 912.4,192.9 915.13,197.11 917.87,201.49 920.6,206 923.33,210.65 926.07,215.41 928.8,220.27 931.53,225.2 934.27,230.19 937,235.22 939.73,240.26 942.47,245.31 945.2,250.33 947.93,255.3 950.67,260.2 953.4,265.01 956.13,269.69 958.87,274.23 961.6,278.6 964.33,282.77 967.07,286.71 969.8,290.39 972.53,293.79 975.27,296.87 978,299.6 980.73,301.95 983.47,303.89 986.2,305.39 988.93,306.41 991.67,306.91 994.4,306.86 997.13,306.22 999.87,304.97 1002.6,303.05 1005.33,300.43 1008.07,297.07 1010.8,292.93 1013.53,287.96 1016.27,282.14 1019,275.41 1021.73,267.73 1024.47,259.06 1027.2,249.36 1029.93,238.57 1032.67,226.65 1035.4,213.55 1038.13,199.23 1040.87,183.64 1043.6,166.72 1046.33,148.43 1049.07,128.72 1051.8,107.54 1054.53,84.83 1057.27,60.53 1060,34.61" fill="none" stroke="#9b9d9a" stroke-width="2.6" opacity="0.76" clip-path="url(#loo-right)"/>
<polyline points="650,69.83 652.73,100.83 655.47,129.54 658.2,156.04 660.93,180.42 663.67,202.75 666.4,223.1 669.13,241.56 671.87,258.18 674.6,273.05 677.33,286.23 680.07,297.79 682.8,307.81 685.53,316.35 688.27,323.48 691,329.25 693.73,333.74 696.47,337.01 699.2,339.13 701.93,340.14 704.67,340.11 707.4,339.1 710.13,337.17 712.87,334.37 715.6,330.76 718.33,326.39 721.07,321.32 723.8,315.59 726.53,309.25 729.27,302.37 732,294.98 734.73,287.13 737.47,278.86 740.2,270.23 742.93,261.28 745.67,252.05 748.4,242.58 751.13,232.91 753.87,223.08 756.6,213.12 759.33,203.09 762.07,193.01 764.8,182.91 767.53,172.83 770.27,162.81 773,152.88 775.73,143.05 778.47,133.38 781.2,123.87 783.93,114.56 786.67,105.48 789.4,96.65 792.13,88.1 794.87,79.84 797.6,71.89 800.33,64.29 803.07,57.04 805.8,50.17 808.53,43.69 811.27,37.61 814,31.96 816.73,26.75 819.47,21.98 822.2,17.67 824.93,13.83 827.67,10.47 830.4,7.6 833.13,5.22 835.87,3.34 838.6,1.96 841.33,1.09 844.07,0.73 846.8,0.88 849.53,1.54 852.27,2.71 855,4.39 857.73,6.57 860.47,9.25 863.2,12.42 865.93,16.08 868.67,20.22 871.4,24.83 874.13,29.91 876.87,35.43 879.6,41.38 882.33,47.76 885.07,54.55 887.8,61.73 890.53,69.29 893.27,77.21 896,85.46 898.73,94.04 901.47,102.91 904.2,112.06 906.93,121.46 909.67,131.08 912.4,140.91 915.13,150.91 917.87,161.06 920.6,171.33 923.33,181.68 926.07,192.09 928.8,202.52 931.53,212.95 934.27,223.32 937,233.62 939.73,243.79 942.47,253.81 945.2,263.64 947.93,273.23 950.67,282.54 953.4,291.53 956.13,300.16 958.87,308.37 961.6,316.14 964.33,323.4 967.07,330.11 969.8,336.22 972.53,341.68 975.27,346.44 978,350.45 980.73,353.64 983.47,355.98 986.2,357.39 988.93,357.83 991.67,357.23 994.4,355.54 997.13,352.69 999.87,348.62 1002.6,343.28 1005.33,336.59 1008.07,328.5 1010.8,318.92 1013.53,307.81 1016.27,295.08 1019,280.68 1021.73,264.52 1024.47,246.54 1027.2,226.67 1029.93,204.82 1032.67,180.93 1035.4,154.92 1038.13,126.71 1040.87,96.22 1043.6,63.37 1046.33,28.09 1049.07,-9.71 1051.8,-50.12 1054.53,-93.22 1057.27,-139.08 1060,-187.81" fill="none" stroke="#9b9d9a" stroke-width="2.6" opacity="0.76" clip-path="url(#loo-right)"/>
<polyline points="650,239.42 652.73,247.36 655.47,254.91 658.2,262.09 660.93,268.89 663.67,275.33 666.4,281.42 669.13,287.16 671.87,292.56 674.6,297.63 677.33,302.38 680.07,306.81 682.8,310.93 685.53,314.76 688.27,318.28 691,321.53 693.73,324.49 696.47,327.18 699.2,329.61 701.93,331.77 704.67,333.69 707.4,335.37 710.13,336.8 712.87,338.01 715.6,339 718.33,339.76 721.07,340.32 723.8,340.68 726.53,340.83 729.27,340.8 732,340.59 734.73,340.2 737.47,339.63 740.2,338.9 742.93,338.02 745.67,336.98 748.4,335.8 751.13,334.47 753.87,333.01 756.6,331.42 759.33,329.71 762.07,327.89 764.8,325.95 767.53,323.91 770.27,321.77 773,319.53 775.73,317.21 778.47,314.8 781.2,312.32 783.93,309.76 786.67,307.13 789.4,304.45 792.13,301.7 794.87,298.91 797.6,296.07 800.33,293.19 803.07,290.27 805.8,287.31 808.53,284.34 811.27,281.34 814,278.32 816.73,275.29 819.47,272.25 822.2,269.2 824.93,266.16 827.67,263.12 830.4,260.09 833.13,257.08 835.87,254.08 838.6,251.11 841.33,248.16 844.07,245.24 846.8,242.35 849.53,239.51 852.27,236.7 855,233.94 857.73,231.23 860.47,228.57 863.2,225.97 865.93,223.43 868.67,220.96 871.4,218.55 874.13,216.21 876.87,213.95 879.6,211.76 882.33,209.65 885.07,207.63 887.8,205.69 890.53,203.85 893.27,202.09 896,200.43 898.73,198.87 901.47,197.42 904.2,196.06 906.93,194.81 909.67,193.68 912.4,192.65 915.13,191.74 917.87,190.95 920.6,190.27 923.33,189.72 926.07,189.29 928.8,188.99 931.53,188.81 934.27,188.77 937,188.86 939.73,189.08 942.47,189.44 945.2,189.94 947.93,190.58 950.67,191.36 953.4,192.28 956.13,193.35 958.87,194.57 961.6,195.93 964.33,197.44 967.07,199.11 969.8,200.93 972.53,202.9 975.27,205.03 978,207.31 980.73,209.75 983.47,212.35 986.2,215.11 988.93,218.03 991.67,221.11 994.4,224.35 997.13,227.75 999.87,231.32 1002.6,235.06 1005.33,238.95 1008.07,243.02 1010.8,247.24 1013.53,251.64 1016.27,256.2 1019,260.93 1021.73,265.82 1024.47,270.88 1027.2,276.11 1029.93,281.51 1032.67,287.07 1035.4,292.81 1038.13,298.7 1040.87,304.77 1043.6,311 1046.33,317.4 1049.07,323.96 1051.8,330.7 1054.53,337.59 1057.27,344.65 1060,351.88" fill="none" stroke="#9b9d9a" stroke-width="2.6" opacity="0.76" clip-path="url(#loo-right)"/>
<polyline points="650,260.14 652.73,264.94 655.47,269.67 658.2,274.32 660.93,278.89 663.67,283.35 666.4,287.71 669.13,291.95 671.87,296.06 674.6,300.05 677.33,303.9 680.07,307.59 682.8,311.14 685.53,314.53 688.27,317.75 691,320.8 693.73,323.67 696.47,326.36 699.2,328.87 701.93,331.18 704.67,333.3 707.4,335.22 710.13,336.94 712.87,338.46 715.6,339.77 718.33,340.88 721.07,341.77 723.8,342.45 726.53,342.91 729.27,343.17 732,343.21 734.73,343.04 737.47,342.65 740.2,342.05 742.93,341.24 745.67,340.22 748.4,338.99 751.13,337.56 753.87,335.92 756.6,334.08 759.33,332.04 762.07,329.81 764.8,327.39 767.53,324.79 770.27,322 773,319.04 775.73,315.91 778.47,312.61 781.2,309.16 783.93,305.55 786.67,301.8 789.4,297.91 792.13,293.89 794.87,289.74 797.6,285.49 800.33,281.12 803.07,276.67 805.8,272.12 808.53,267.49 811.27,262.8 814,258.05 816.73,253.26 819.47,248.42 822.2,243.57 824.93,238.7 827.67,233.83 830.4,228.98 833.13,224.15 835.87,219.36 838.6,214.62 841.33,209.95 844.07,205.36 846.8,200.87 849.53,196.48 852.27,192.22 855,188.11 857.73,184.15 860.47,180.36 863.2,176.77 865.93,173.38 868.67,170.22 871.4,167.31 874.13,164.65 876.87,162.28 879.6,160.21 882.33,158.45 885.07,157.04 887.8,155.98 890.53,155.3 893.27,155.02 896,155.17 898.73,155.75 901.47,156.8 904.2,158.34 906.93,160.38 909.67,162.96 912.4,166.09 915.13,169.8 917.87,174.12 920.6,179.06 923.33,184.66 926.07,190.93 928.8,197.9 931.53,205.6 934.27,214.06 937,223.29 939.73,233.34 942.47,244.22 945.2,255.96 947.93,268.59 950.67,282.14 953.4,296.64 956.13,312.11 958.87,328.59 961.6,346.11 964.33,364.69 967.07,384.37 969.8,405.17 972.53,427.13 975.27,450.28 978,474.65 980.73,500.28 983.47,527.19 986.2,555.42 988.93,585 991.67,615.97 994.4,648.35 997.13,682.19 999.87,717.52 1002.6,754.38 1005.33,792.79 1008.07,832.8 1010.8,874.44 1013.53,917.74 1016.27,962.75 1019,1009.51 1021.73,1058.04 1024.47,1108.39 1027.2,1160.6 1029.93,1214.7 1032.67,1270.73 1035.4,1328.73 1038.13,1388.75 1040.87,1450.82 1043.6,1514.98 1046.33,1581.28 1049.07,1649.75 1051.8,1720.44 1054.53,1793.39 1057.27,1868.63 1060,1946.22" fill="none" stroke="#9b9d9a" stroke-width="2.6" opacity="0.76" clip-path="url(#loo-right)"/>
<polyline points="650,229.13 652.73,238.6 655.47,247.54 658.2,255.95 660.93,263.86 663.67,271.29 666.4,278.24 669.13,284.73 671.87,290.77 674.6,296.39 677.33,301.6 680.07,306.4 682.8,310.82 685.53,314.87 688.27,318.56 691,321.9 693.73,324.92 696.47,327.61 699.2,330 701.93,332.09 704.67,333.91 707.4,335.45 710.13,336.74 712.87,337.78 715.6,338.59 718.33,339.18 721.07,339.56 723.8,339.73 726.53,339.72 729.27,339.53 732,339.17 734.73,338.64 737.47,337.98 740.2,337.17 742.93,336.23 745.67,335.17 748.4,334 751.13,332.72 753.87,331.35 756.6,329.9 759.33,328.37 762.07,326.76 764.8,325.1 767.53,323.38 770.27,321.61 773,319.81 775.73,317.97 778.47,316.1 781.2,314.21 783.93,312.31 786.67,310.4 789.4,308.49 792.13,306.58 794.87,304.68 797.6,302.8 800.33,300.93 803.07,299.09 805.8,297.28 808.53,295.5 811.27,293.75 814,292.05 816.73,290.39 819.47,288.78 822.2,287.23 824.93,285.72 827.67,284.28 830.4,282.89 833.13,281.57 835.87,280.31 838.6,279.11 841.33,277.99 844.07,276.94 846.8,275.96 849.53,275.05 852.27,274.21 855,273.45 857.73,272.77 860.47,272.16 863.2,271.63 865.93,271.17 868.67,270.79 871.4,270.48 874.13,270.25 876.87,270.09 879.6,270 882.33,269.98 885.07,270.04 887.8,270.16 890.53,270.34 893.27,270.59 896,270.9 898.73,271.27 901.47,271.7 904.2,272.17 906.93,272.7 909.67,273.27 912.4,273.89 915.13,274.54 917.87,275.23 920.6,275.95 923.33,276.69 926.07,277.45 928.8,278.23 931.53,279.03 934.27,279.82 937,280.62 939.73,281.41 942.47,282.19 945.2,282.95 947.93,283.69 950.67,284.39 953.4,285.06 956.13,285.69 958.87,286.26 961.6,286.77 964.33,287.22 967.07,287.59 969.8,287.88 972.53,288.07 975.27,288.17 978,288.16 980.73,288.03 983.47,287.77 986.2,287.38 988.93,286.85 991.67,286.15 994.4,285.3 997.13,284.26 999.87,283.05 1002.6,281.63 1005.33,280.01 1008.07,278.17 1010.8,276.1 1013.53,273.79 1016.27,271.23 1019,268.41 1021.73,265.3 1024.47,261.91 1027.2,258.22 1029.93,254.21 1032.67,249.88 1035.4,245.21 1038.13,240.18 1040.87,234.79 1043.6,229.02 1046.33,222.85 1049.07,216.27 1051.8,209.27 1054.53,201.84 1057.27,193.95 1060,185.59" fill="none" stroke="#9b9d9a" stroke-width="2.6" opacity="0.76" clip-path="url(#loo-right)"/>
<circle cx="714.06" cy="334.41" r="5.4" fill="#6670ee" stroke="#fff" stroke-width="1.2"/>
<circle cx="694.84" cy="332.18" r="5.4" fill="#6670ee" stroke="#fff" stroke-width="1.2"/>
<circle cx="682.03" cy="306.73" r="5.4" fill="#6670ee" stroke="#fff" stroke-width="1.2"/>
<circle cx="771.72" cy="321.2" r="5.4" fill="#6670ee" stroke="#fff" stroke-width="1.2"/>
<circle cx="951.09" cy="284.45" r="5.4" fill="#6670ee" stroke="#fff" stroke-width="1.2"/>
<circle cx="1021.56" cy="265.52" r="5.4" fill="#6670ee" stroke="#fff" stroke-width="1.2"/>
<circle cx="925.47" cy="189.32" r="5.4" fill="#6670ee" stroke="#fff" stroke-width="1.2"/>
<line x1="688.44" y1="420" x2="688.44" y2="426" stroke="#343732"/>
<text x="688.44" y="446" text-anchor="middle" font-family="PingFang SC, Noto Sans CJK SC, Microsoft YaHei, sans-serif" font-size="16">35</text>
<line x1="842.19" y1="420" x2="842.19" y2="426" stroke="#343732"/>
<text x="842.19" y="446" text-anchor="middle" font-family="PingFang SC, Noto Sans CJK SC, Microsoft YaHei, sans-serif" font-size="16">47</text>
<line x1="1008.75" y1="420" x2="1008.75" y2="426" stroke="#343732"/>
<text x="1008.75" y="446" text-anchor="middle" font-family="PingFang SC, Noto Sans CJK SC, Microsoft YaHei, sans-serif" font-size="16">60</text>
<line x1="644" y1="404.09" x2="650" y2="404.09" stroke="#343732"/>
<text x="637" y="409.09" text-anchor="end" font-family="PingFang SC, Noto Sans CJK SC, Microsoft YaHei, sans-serif" font-size="16">0</text>
<line x1="644" y1="260.91" x2="650" y2="260.91" stroke="#343732"/>
<text x="637" y="265.91" text-anchor="end" font-family="PingFang SC, Noto Sans CJK SC, Microsoft YaHei, sans-serif" font-size="16">900</text>
<line x1="644" y1="85.91" x2="650" y2="85.91" stroke="#343732"/>
<text x="637" y="90.91" text-anchor="end" font-family="PingFang SC, Noto Sans CJK SC, Microsoft YaHei, sans-serif" font-size="16">2000</text>
<text x="855.0" y="478" text-anchor="middle" font-family="PingFang SC, Noto Sans CJK SC, Microsoft YaHei, sans-serif" font-size="18" font-weight="700" fill="#263f86">体重（千克）</text>
<text x="578" y="245.0" transform="rotate(-90 578 245.0)" text-anchor="middle" font-family="PingFang SC, Noto Sans CJK SC, Microsoft YaHei, sans-serif" font-size="18" font-weight="700" fill="#263f86">脑容量（立方厘米）</text>
<text x="550.0" y="555" text-anchor="middle" font-family="PingFang SC, Noto Sans CJK SC, Microsoft YaHei, sans-serif" font-size="17" fill="#656963">每条灰线代表删除一个物种后重新拟合的模型</text>
</svg>
