<?xml version="1.0" encoding="UTF-8"?>
<svg xmlns="http://www.w3.org/2000/svg" width="1200" height="470" viewBox="0 0 1200 470" role="img">
  <title>百分位区间与最高后验密度区间</title>
  <desc>左图为百分位区间，排除了最可能的参数值一；右图为更窄且包含参数值一的最高后验密度区间。</desc>
  <rect width="100%" height="100%" fill="#ffffff"/>
  <g aria-label="50% 百分位区间">
    <text x="315" y="42" text-anchor="middle" font-family="-apple-system,BlinkMacSystemFont,PingFang SC,Noto Sans CJK SC,sans-serif" font-size="19" font-weight="700" fill="#263f86">50% 百分位区间</text>
    <rect x="100" y="60" width="430" height="270" fill="#fff" stroke="#363934" stroke-width="1.3"/>
    <path d="M402.59 330 L403.15 237.7 L404.23 236.71 L405.3 235.72 L406.38 234.72 L407.45 233.72 L408.53 232.7 L409.6 231.68 L410.68 230.65 L411.75 229.62 L412.82 228.58 L413.9 227.53 L414.98 226.47 L416.05 225.41 L417.12 224.34 L418.2 223.26 L419.28 222.17 L420.35 221.08 L421.43 219.98 L422.5 218.87 L423.57 217.76 L424.65 216.63 L425.72 215.5 L426.8 214.37 L427.88 213.22 L428.95 212.07 L430.02 210.91 L431.1 209.74 L432.18 208.57 L433.25 207.38 L434.32 206.19 L435.4 205 L436.47 203.79 L437.55 202.58 L438.62 201.36 L439.7 200.13 L440.77 198.89 L441.85 197.64 L442.93 196.39 L444 195.13 L445.07 193.86 L446.15 192.59 L447.23 191.3 L448.3 190.01 L449.38 188.71 L450.45 187.4 L451.52 186.09 L452.6 184.76 L453.68 183.43 L454.75 182.09 L455.82 180.74 L456.9 179.38 L457.98 178.02 L459.05 176.64 L460.12 175.26 L461.2 173.87 L462.28 172.47 L463.35 171.07 L464.43 169.65 L465.5 168.23 L466.57 166.8 L467.65 165.36 L468.73 163.91 L469.8 162.45 L470.88 160.99 L471.95 159.51 L473.03 158.03 L474.1 156.54 L475.18 155.04 L476.25 153.53 L477.32 152.02 L478.4 150.49 L479.47 148.96 L480.55 147.41 L481.62 145.86 L482.7 144.3 L483.77 142.73 L484.85 141.15 L485.93 139.57 L487 137.97 L488.07 136.37 L489.15 134.75 L490.22 133.13 L491.3 131.5 L492.38 129.86 L493.45 128.21 L494.52 126.55 L495.6 124.88 L496.68 123.21 L497.75 121.52 L498.82 119.82 L499.9 118.12 L500.98 116.41 L501.16 330 Z" fill="#6670ee" opacity="0.82"/>
    <path d="M100 330 L101.08 330 L102.15 330 L103.22 330 L104.3 330 L105.38 330 L106.45 330 L107.53 330 L108.6 330 L109.67 330 L110.75 330 L111.83 329.99 L112.9 329.99 L113.97 329.99 L115.05 329.99 L116.12 329.99 L117.2 329.98 L118.28 329.98 L119.35 329.98 L120.42 329.97 L121.5 329.97 L122.58 329.96 L123.65 329.96 L124.72 329.95 L125.8 329.94 L126.88 329.94 L127.95 329.93 L129.03 329.92 L130.1 329.91 L131.18 329.9 L132.25 329.89 L133.32 329.88 L134.4 329.87 L135.47 329.85 L136.55 329.84 L137.62 329.82 L138.7 329.81 L139.78 329.79 L140.85 329.77 L141.93 329.76 L143 329.74 L144.07 329.72 L145.15 329.7 L146.22 329.67 L147.3 329.65 L148.38 329.62 L149.45 329.6 L150.53 329.57 L151.6 329.54 L152.68 329.52 L153.75 329.49 L154.82 329.45 L155.9 329.42 L156.97 329.39 L158.05 329.35 L159.12 329.32 L160.2 329.28 L161.28 329.24 L162.35 329.2 L163.43 329.15 L164.5 329.11 L165.57 329.07 L166.65 329.02 L167.72 328.97 L168.8 328.92 L169.88 328.87 L170.95 328.82 L172.03 328.76 L173.1 328.71 L174.18 328.65 L175.25 328.59 L176.32 328.53 L177.4 328.46 L178.47 328.4 L179.55 328.33 L180.62 328.26 L181.7 328.19 L182.78 328.12 L183.85 328.05 L184.93 327.97 L186 327.89 L187.07 327.81 L188.15 327.73 L189.22 327.65 L190.3 327.56 L191.38 327.47 L192.45 327.38 L193.53 327.29 L194.6 327.2 L195.68 327.1 L196.75 327 L197.82 326.9 L198.9 326.8 L199.97 326.69 L201.05 326.58 L202.12 326.47 L203.2 326.36 L204.28 326.24 L205.35 326.13 L206.43 326.01 L207.5 325.88 L208.57 325.76 L209.65 325.63 L210.72 325.5 L211.8 325.37 L212.88 325.24 L213.95 325.1 L215.03 324.96 L216.1 324.82 L217.18 324.67 L218.25 324.52 L219.32 324.37 L220.4 324.22 L221.47 324.06 L222.55 323.9 L223.62 323.74 L224.7 323.58 L225.78 323.41 L226.85 323.24 L227.93 323.06 L229 322.89 L230.07 322.71 L231.15 322.53 L232.22 322.34 L233.3 322.15 L234.38 321.96 L235.45 321.77 L236.53 321.57 L237.6 321.37 L238.68 321.16 L239.75 320.96 L240.82 320.75 L241.9 320.53 L242.97 320.32 L244.05 320.1 L245.12 319.87 L246.2 319.65 L247.28 319.42 L248.35 319.18 L249.43 318.95 L250.5 318.71 L251.57 318.46 L252.65 318.22 L253.72 317.96 L254.8 317.71 L255.88 317.45 L256.95 317.19 L258.02 316.93 L259.1 316.66 L260.18 316.38 L261.25 316.11 L262.32 315.83 L263.4 315.55 L264.48 315.26 L265.55 314.97 L266.62 314.67 L267.7 314.37 L268.77 314.07 L269.85 313.77 L270.93 313.46 L272 313.14 L273.07 312.82 L274.15 312.5 L275.23 312.18 L276.3 311.85 L277.38 311.51 L278.45 311.17 L279.52 310.83 L280.6 310.48 L281.68 310.13 L282.75 309.78 L283.82 309.42 L284.9 309.06 L285.98 308.69 L287.05 308.32 L288.12 307.94 L289.2 307.56 L290.27 307.18 L291.35 306.79 L292.43 306.39 L293.5 306 L294.57 305.59 L295.65 305.19 L296.73 304.78 L297.8 304.36 L298.88 303.94 L299.95 303.52 L301.02 303.09 L302.1 302.65 L303.18 302.21 L304.25 301.77 L305.32 301.32 L306.4 300.87 L307.48 300.41 L308.55 299.95 L309.62 299.48 L310.7 299.01 L311.77 298.53 L312.85 298.05 L313.93 297.56 L315 297.07 L316.07 296.58 L317.15 296.08 L318.23 295.57 L319.3 295.06 L320.38 294.54 L321.45 294.02 L322.52 293.49 L323.6 292.96 L324.68 292.43 L325.75 291.88 L326.82 291.34 L327.9 290.78 L328.98 290.23 L330.05 289.66 L331.12 289.1 L332.2 288.52 L333.27 287.94 L334.35 287.36 L335.43 286.77 L336.5 286.17 L337.57 285.57 L338.65 284.97 L339.73 284.36 L340.8 283.74 L341.88 283.12 L342.95 282.49 L344.02 281.86 L345.1 281.22 L346.18 280.57 L347.25 279.92 L348.32 279.27 L349.4 278.6 L350.48 277.94 L351.55 277.26 L352.62 276.58 L353.7 275.9 L354.77 275.21 L355.85 274.51 L356.93 273.81 L358 273.1 L359.07 272.39 L360.15 271.67 L361.23 270.94 L362.3 270.21 L363.38 269.47 L364.45 268.73 L365.52 267.98 L366.6 267.22 L367.68 266.46 L368.75 265.69 L369.82 264.91 L370.9 264.13 L371.98 263.35 L373.05 262.55 L374.12 261.75 L375.2 260.95 L376.27 260.14 L377.35 259.32 L378.43 258.49 L379.5 257.66 L380.57 256.82 L381.65 255.98 L382.73 255.13 L383.8 254.27 L384.88 253.41 L385.95 252.54 L387.02 251.66 L388.1 250.77 L389.18 249.88 L390.25 248.99 L391.32 248.08 L392.4 247.17 L393.48 246.26 L394.55 245.33 L395.62 244.4 L396.7 243.47 L397.77 242.52 L398.85 241.57 L399.93 240.61 L401 239.65 L402.07 238.68 L403.15 237.7 L404.23 236.71 L405.3 235.72 L406.38 234.72 L407.45 233.72 L408.52 232.7 L409.6 231.68 L410.68 230.65 L411.75 229.62 L412.82 228.58 L413.9 227.53 L414.98 226.47 L416.05 225.41 L417.12 224.34 L418.2 223.26 L419.27 222.17 L420.35 221.08 L421.43 219.98 L422.5 218.87 L423.57 217.76 L424.65 216.63 L425.73 215.5 L426.8 214.37 L427.88 213.22 L428.95 212.07 L430.02 210.91 L431.1 209.74 L432.18 208.57 L433.25 207.38 L434.32 206.19 L435.4 205 L436.48 203.79 L437.55 202.58 L438.62 201.36 L439.7 200.13 L440.77 198.89 L441.85 197.64 L442.93 196.39 L444 195.13 L445.07 193.86 L446.15 192.59 L447.23 191.3 L448.3 190.01 L449.38 188.71 L450.45 187.4 L451.52 186.09 L452.6 184.76 L453.68 183.43 L454.75 182.09 L455.82 180.74 L456.9 179.38 L457.98 178.02 L459.05 176.64 L460.12 175.26 L461.2 173.87 L462.27 172.47 L463.35 171.07 L464.43 169.65 L465.5 168.23 L466.57 166.8 L467.65 165.36 L468.73 163.91 L469.8 162.45 L470.88 160.99 L471.95 159.51 L473.02 158.03 L474.1 156.54 L475.18 155.04 L476.25 153.53 L477.32 152.02 L478.4 150.49 L479.48 148.96 L480.55 147.41 L481.62 145.86 L482.7 144.3 L483.77 142.73 L484.85 141.15 L485.93 139.57 L487 137.97 L488.07 136.37 L489.15 134.75 L490.23 133.13 L491.3 131.5 L492.38 129.86 L493.45 128.21 L494.52 126.55 L495.6 124.88 L496.68 123.21 L497.75 121.52 L498.82 119.82 L499.9 118.12 L500.98 116.41 L502.05 114.68 L503.12 112.95 L504.2 111.21 L505.27 109.46 L506.35 107.7 L507.43 105.93 L508.5 104.15 L509.57 102.37 L510.65 100.57 L511.73 98.76 L512.8 96.95 L513.88 95.12 L514.95 93.29 L516.02 91.44 L517.1 89.59 L518.17 87.72 L519.25 85.85 L520.33 83.97 L521.4 82.08 L522.48 80.17 L523.55 78.26 L524.62 76.34 L525.7 74.41 L526.77 72.47 L527.85 70.52 L528.92 68.56 L530 66.59" fill="none" stroke="#292b27" stroke-width="2"/>
    <line x1="100" y1="330" x2="100" y2="337" stroke="#363934"/>
    <text x="100" y="356" text-anchor="middle" font-family="-apple-system,BlinkMacSystemFont,PingFang SC,Noto Sans CJK SC,sans-serif" font-size="13" fill="#30332e">0</text>
    <line x1="207.5" y1="330" x2="207.5" y2="337" stroke="#363934"/>
    <text x="207.5" y="356" text-anchor="middle" font-family="-apple-system,BlinkMacSystemFont,PingFang SC,Noto Sans CJK SC,sans-serif" font-size="13" fill="#30332e">0.25</text>
    <line x1="315" y1="330" x2="315" y2="337" stroke="#363934"/>
    <text x="315" y="356" text-anchor="middle" font-family="-apple-system,BlinkMacSystemFont,PingFang SC,Noto Sans CJK SC,sans-serif" font-size="13" fill="#30332e">0.5</text>
    <line x1="422.5" y1="330" x2="422.5" y2="337" stroke="#363934"/>
    <text x="422.5" y="356" text-anchor="middle" font-family="-apple-system,BlinkMacSystemFont,PingFang SC,Noto Sans CJK SC,sans-serif" font-size="13" fill="#30332e">0.75</text>
    <line x1="530" y1="330" x2="530" y2="337" stroke="#363934"/>
    <text x="530" y="356" text-anchor="middle" font-family="-apple-system,BlinkMacSystemFont,PingFang SC,Noto Sans CJK SC,sans-serif" font-size="13" fill="#30332e">1</text>
    <text x="315" y="382" text-anchor="middle" font-family="-apple-system,BlinkMacSystemFont,PingFang SC,Noto Sans CJK SC,sans-serif" font-size="16" fill="#30332e">水域比例（p）</text>
    <text x="57" y="195" transform="rotate(-90 57 195)" text-anchor="middle" font-family="-apple-system,BlinkMacSystemFont,PingFang SC,Noto Sans CJK SC,sans-serif" font-size="16" fill="#30332e">密度</text>
  </g>
  <g aria-label="50% HPDI">
    <text x="905" y="42" text-anchor="middle" font-family="-apple-system,BlinkMacSystemFont,PingFang SC,Noto Sans CJK SC,sans-serif" font-size="19" font-weight="700" fill="#263f86">50% HPDI</text>
    <rect x="690" y="60" width="430" height="270" fill="#fff" stroke="#363934" stroke-width="1.3"/>
    <path d="M1051.56 330 L1052.28 172.47 L1053.35 171.07 L1054.42 169.65 L1055.5 168.23 L1056.58 166.8 L1057.65 165.36 L1058.72 163.91 L1059.8 162.45 L1060.88 160.99 L1061.95 159.51 L1063.03 158.03 L1064.1 156.54 L1065.17 155.04 L1066.25 153.53 L1067.33 152.02 L1068.4 150.49 L1069.47 148.96 L1070.55 147.41 L1071.62 145.86 L1072.7 144.3 L1073.78 142.73 L1074.85 141.15 L1075.92 139.57 L1077 137.97 L1078.08 136.37 L1079.15 134.75 L1080.22 133.13 L1081.3 131.5 L1082.38 129.86 L1083.45 128.21 L1084.53 126.55 L1085.6 124.88 L1086.67 123.21 L1087.75 121.52 L1088.83 119.82 L1089.9 118.12 L1090.97 116.41 L1092.05 114.68 L1093.12 112.95 L1094.2 111.21 L1095.28 109.46 L1096.35 107.7 L1097.42 105.93 L1098.5 104.15 L1099.58 102.37 L1100.65 100.57 L1101.72 98.76 L1102.8 96.95 L1103.88 95.12 L1104.95 93.29 L1106.03 91.44 L1107.1 89.59 L1108.17 87.72 L1109.25 85.85 L1110.33 83.97 L1111.4 82.08 L1112.47 80.17 L1113.55 78.26 L1114.62 76.34 L1115.7 74.41 L1116.78 72.47 L1117.85 70.52 L1118.92 68.56 L1120 66.59 L1120 330 Z" fill="#6670ee" opacity="0.82"/>
    <path d="M690 330 L691.08 330 L692.15 330 L693.23 330 L694.3 330 L695.38 330 L696.45 330 L697.52 330 L698.6 330 L699.67 330 L700.75 330 L701.83 329.99 L702.9 329.99 L703.98 329.99 L705.05 329.99 L706.12 329.99 L707.2 329.98 L708.27 329.98 L709.35 329.98 L710.42 329.97 L711.5 329.97 L712.58 329.96 L713.65 329.96 L714.73 329.95 L715.8 329.94 L716.88 329.94 L717.95 329.93 L719.02 329.92 L720.1 329.91 L721.17 329.9 L722.25 329.89 L723.33 329.88 L724.4 329.87 L725.48 329.85 L726.55 329.84 L727.62 329.82 L728.7 329.81 L729.77 329.79 L730.85 329.77 L731.92 329.76 L733 329.74 L734.08 329.72 L735.15 329.7 L736.23 329.67 L737.3 329.65 L738.38 329.62 L739.45 329.6 L740.52 329.57 L741.6 329.54 L742.67 329.52 L743.75 329.49 L744.83 329.45 L745.9 329.42 L746.98 329.39 L748.05 329.35 L749.12 329.32 L750.2 329.28 L751.27 329.24 L752.35 329.2 L753.42 329.15 L754.5 329.11 L755.58 329.07 L756.65 329.02 L757.73 328.97 L758.8 328.92 L759.88 328.87 L760.95 328.82 L762.02 328.76 L763.1 328.71 L764.17 328.65 L765.25 328.59 L766.33 328.53 L767.4 328.46 L768.48 328.4 L769.55 328.33 L770.62 328.26 L771.7 328.19 L772.77 328.12 L773.85 328.05 L774.92 327.97 L776 327.89 L777.08 327.81 L778.15 327.73 L779.23 327.65 L780.3 327.56 L781.38 327.47 L782.45 327.38 L783.52 327.29 L784.6 327.2 L785.67 327.1 L786.75 327 L787.83 326.9 L788.9 326.8 L789.98 326.69 L791.05 326.58 L792.12 326.47 L793.2 326.36 L794.27 326.24 L795.35 326.13 L796.42 326.01 L797.5 325.88 L798.58 325.76 L799.65 325.63 L800.73 325.5 L801.8 325.37 L802.88 325.24 L803.95 325.1 L805.02 324.96 L806.1 324.82 L807.17 324.67 L808.25 324.52 L809.33 324.37 L810.4 324.22 L811.48 324.06 L812.55 323.9 L813.62 323.74 L814.7 323.58 L815.77 323.41 L816.85 323.24 L817.92 323.06 L819 322.89 L820.08 322.71 L821.15 322.53 L822.23 322.34 L823.3 322.15 L824.38 321.96 L825.45 321.77 L826.52 321.57 L827.6 321.37 L828.67 321.16 L829.75 320.96 L830.83 320.75 L831.9 320.53 L832.98 320.32 L834.05 320.1 L835.12 319.87 L836.2 319.65 L837.27 319.42 L838.35 319.18 L839.42 318.95 L840.5 318.71 L841.58 318.46 L842.65 318.22 L843.73 317.96 L844.8 317.71 L845.88 317.45 L846.95 317.19 L848.02 316.93 L849.1 316.66 L850.17 316.38 L851.25 316.11 L852.33 315.83 L853.4 315.55 L854.48 315.26 L855.55 314.97 L856.62 314.67 L857.7 314.37 L858.77 314.07 L859.85 313.77 L860.92 313.46 L862 313.14 L863.08 312.82 L864.15 312.5 L865.23 312.18 L866.3 311.85 L867.38 311.51 L868.45 311.17 L869.52 310.83 L870.6 310.48 L871.67 310.13 L872.75 309.78 L873.83 309.42 L874.9 309.06 L875.98 308.69 L877.05 308.32 L878.12 307.94 L879.2 307.56 L880.27 307.18 L881.35 306.79 L882.42 306.39 L883.5 306 L884.58 305.59 L885.65 305.19 L886.73 304.78 L887.8 304.36 L888.88 303.94 L889.95 303.52 L891.02 303.09 L892.1 302.65 L893.17 302.21 L894.25 301.77 L895.33 301.32 L896.4 300.87 L897.48 300.41 L898.55 299.95 L899.62 299.48 L900.7 299.01 L901.77 298.53 L902.85 298.05 L903.92 297.56 L905 297.07 L906.08 296.58 L907.15 296.08 L908.23 295.57 L909.3 295.06 L910.38 294.54 L911.45 294.02 L912.52 293.49 L913.6 292.96 L914.67 292.43 L915.75 291.88 L916.83 291.34 L917.9 290.78 L918.98 290.23 L920.05 289.66 L921.12 289.1 L922.2 288.52 L923.27 287.94 L924.35 287.36 L925.42 286.77 L926.5 286.17 L927.58 285.57 L928.65 284.97 L929.73 284.36 L930.8 283.74 L931.88 283.12 L932.95 282.49 L934.02 281.86 L935.1 281.22 L936.17 280.57 L937.25 279.92 L938.33 279.27 L939.4 278.6 L940.48 277.94 L941.55 277.26 L942.62 276.58 L943.7 275.9 L944.77 275.21 L945.85 274.51 L946.92 273.81 L948 273.1 L949.08 272.39 L950.15 271.67 L951.23 270.94 L952.3 270.21 L953.38 269.47 L954.45 268.73 L955.52 267.98 L956.6 267.22 L957.67 266.46 L958.75 265.69 L959.83 264.91 L960.9 264.13 L961.98 263.35 L963.05 262.55 L964.12 261.75 L965.2 260.95 L966.27 260.14 L967.35 259.32 L968.42 258.49 L969.5 257.66 L970.58 256.82 L971.65 255.98 L972.73 255.13 L973.8 254.27 L974.88 253.41 L975.95 252.54 L977.02 251.66 L978.1 250.77 L979.17 249.88 L980.25 248.99 L981.33 248.08 L982.4 247.17 L983.48 246.26 L984.55 245.33 L985.62 244.4 L986.7 243.47 L987.77 242.52 L988.85 241.57 L989.92 240.61 L991 239.65 L992.08 238.68 L993.15 237.7 L994.23 236.71 L995.3 235.72 L996.38 234.72 L997.45 233.72 L998.52 232.7 L999.6 231.68 L1000.67 230.65 L1001.75 229.62 L1002.83 228.58 L1003.9 227.53 L1004.98 226.47 L1006.05 225.41 L1007.12 224.34 L1008.2 223.26 L1009.27 222.17 L1010.35 221.08 L1011.42 219.98 L1012.5 218.87 L1013.58 217.76 L1014.65 216.63 L1015.73 215.5 L1016.8 214.37 L1017.88 213.22 L1018.95 212.07 L1020.02 210.91 L1021.1 209.74 L1022.17 208.57 L1023.25 207.38 L1024.33 206.19 L1025.4 205 L1026.47 203.79 L1027.55 202.58 L1028.62 201.36 L1029.7 200.13 L1030.78 198.89 L1031.85 197.64 L1032.92 196.39 L1034 195.13 L1035.08 193.86 L1036.15 192.59 L1037.22 191.3 L1038.3 190.01 L1039.38 188.71 L1040.45 187.4 L1041.53 186.09 L1042.6 184.76 L1043.67 183.43 L1044.75 182.09 L1045.83 180.74 L1046.9 179.38 L1047.97 178.02 L1049.05 176.64 L1050.12 175.26 L1051.2 173.87 L1052.28 172.47 L1053.35 171.07 L1054.42 169.65 L1055.5 168.23 L1056.58 166.8 L1057.65 165.36 L1058.72 163.91 L1059.8 162.45 L1060.88 160.99 L1061.95 159.51 L1063.03 158.03 L1064.1 156.54 L1065.17 155.04 L1066.25 153.53 L1067.33 152.02 L1068.4 150.49 L1069.47 148.96 L1070.55 147.41 L1071.62 145.86 L1072.7 144.3 L1073.78 142.73 L1074.85 141.15 L1075.92 139.57 L1077 137.97 L1078.08 136.37 L1079.15 134.75 L1080.22 133.13 L1081.3 131.5 L1082.38 129.86 L1083.45 128.21 L1084.53 126.55 L1085.6 124.88 L1086.67 123.21 L1087.75 121.52 L1088.83 119.82 L1089.9 118.12 L1090.97 116.41 L1092.05 114.68 L1093.12 112.95 L1094.2 111.21 L1095.28 109.46 L1096.35 107.7 L1097.42 105.93 L1098.5 104.15 L1099.58 102.37 L1100.65 100.57 L1101.72 98.76 L1102.8 96.95 L1103.88 95.12 L1104.95 93.29 L1106.03 91.44 L1107.1 89.59 L1108.17 87.72 L1109.25 85.85 L1110.33 83.97 L1111.4 82.08 L1112.47 80.17 L1113.55 78.26 L1114.62 76.34 L1115.7 74.41 L1116.78 72.47 L1117.85 70.52 L1118.92 68.56 L1120 66.59" fill="none" stroke="#292b27" stroke-width="2"/>
    <line x1="690" y1="330" x2="690" y2="337" stroke="#363934"/>
    <text x="690" y="356" text-anchor="middle" font-family="-apple-system,BlinkMacSystemFont,PingFang SC,Noto Sans CJK SC,sans-serif" font-size="13" fill="#30332e">0</text>
    <line x1="797.5" y1="330" x2="797.5" y2="337" stroke="#363934"/>
    <text x="797.5" y="356" text-anchor="middle" font-family="-apple-system,BlinkMacSystemFont,PingFang SC,Noto Sans CJK SC,sans-serif" font-size="13" fill="#30332e">0.25</text>
    <line x1="905" y1="330" x2="905" y2="337" stroke="#363934"/>
    <text x="905" y="356" text-anchor="middle" font-family="-apple-system,BlinkMacSystemFont,PingFang SC,Noto Sans CJK SC,sans-serif" font-size="13" fill="#30332e">0.5</text>
    <line x1="1012.5" y1="330" x2="1012.5" y2="337" stroke="#363934"/>
    <text x="1012.5" y="356" text-anchor="middle" font-family="-apple-system,BlinkMacSystemFont,PingFang SC,Noto Sans CJK SC,sans-serif" font-size="13" fill="#30332e">0.75</text>
    <line x1="1120" y1="330" x2="1120" y2="337" stroke="#363934"/>
    <text x="1120" y="356" text-anchor="middle" font-family="-apple-system,BlinkMacSystemFont,PingFang SC,Noto Sans CJK SC,sans-serif" font-size="13" fill="#30332e">1</text>
    <text x="905" y="382" text-anchor="middle" font-family="-apple-system,BlinkMacSystemFont,PingFang SC,Noto Sans CJK SC,sans-serif" font-size="16" fill="#30332e">水域比例（p）</text>
    <text x="647" y="195" transform="rotate(-90 647 195)" text-anchor="middle" font-family="-apple-system,BlinkMacSystemFont,PingFang SC,Noto Sans CJK SC,sans-serif" font-size="16" fill="#30332e">密度</text>
  </g>
</svg>
