<svg xmlns="http://www.w3.org/2000/svg" width="1200" height="560" viewBox="0 0 1200 560" role="img">
<title>蒙蒂国王的王室驾车之旅</title>
<desc>车辆在南北向山谷中随动量上坡减速、下坡加速，并在一系列访问地点停下。</desc>
<rect width="100%" height="100%" fill="#fff"/>
<line x1="100" y1="463.7" x2="1155" y2="463.7" stroke="#b8b9b5" stroke-width="1"/>
<line x1="100" y1="438.6" x2="1155" y2="438.6" stroke="#b8b9b5" stroke-width="1"/>
<line x1="100" y1="413.4" x2="1155" y2="413.4" stroke="#b8b9b5" stroke-width="1"/>
<line x1="100" y1="388.3" x2="1155" y2="388.3" stroke="#b8b9b5" stroke-width="1"/>
<line x1="100" y1="363.1" x2="1155" y2="363.1" stroke="#b8b9b5" stroke-width="1"/>
<line x1="100" y1="338.0" x2="1155" y2="338.0" stroke="#b8b9b5" stroke-width="1"/>
<line x1="100" y1="312.8" x2="1155" y2="312.8" stroke="#b8b9b5" stroke-width="1"/>
<line x1="100" y1="287.7" x2="1155" y2="287.7" stroke="#b8b9b5" stroke-width="1"/>
<line x1="100" y1="262.5" x2="1155" y2="262.5" stroke="#b8b9b5" stroke-width="1"/>
<line x1="100" y1="237.3" x2="1155" y2="237.3" stroke="#b8b9b5" stroke-width="1"/>
<line x1="100" y1="212.2" x2="1155" y2="212.2" stroke="#b8b9b5" stroke-width="1"/>
<line x1="100" y1="187.0" x2="1155" y2="187.0" stroke="#b8b9b5" stroke-width="1"/>
<line x1="100" y1="161.9" x2="1155" y2="161.9" stroke="#b8b9b5" stroke-width="1"/>
<line x1="100" y1="136.7" x2="1155" y2="136.7" stroke="#b8b9b5" stroke-width="1"/>
<line x1="100" y1="111.6" x2="1155" y2="111.6" stroke="#b8b9b5" stroke-width="1"/>
<line x1="100" y1="86.4" x2="1155" y2="86.4" stroke="#b8b9b5" stroke-width="1"/>
<line x1="100" y1="61.3" x2="1155" y2="61.3" stroke="#b8b9b5" stroke-width="1"/>
<line x1="100" y1="262.5" x2="1155" y2="262.5" stroke="#30332e" stroke-width="1.6"/>
<path d="M 100.0,262.5 Q 127.8,363.1 155.5,375.7" fill="none" stroke="#30332e" stroke-width="4.6" stroke-linecap="round"/>
<path d="M 155.5,375.7 Q 186.1,266.3 216.6,262.5" fill="none" stroke="#30332e" stroke-width="5.0" stroke-linecap="round"/>
<path d="M 216.6,262.5 Q 244.4,358.7 272.1,331.7" fill="none" stroke="#30332e" stroke-width="5.4" stroke-linecap="round"/>
<path d="M 272.1,331.7 Q 299.9,305.3 327.7,419.7" fill="none" stroke="#30332e" stroke-width="5.9" stroke-linecap="round"/>
<path d="M 327.7,419.7 Q 355.4,363.1 383.2,218.5" fill="none" stroke="#30332e" stroke-width="4.6" stroke-linecap="round"/>
<path d="M 383.2,218.5 Q 410.9,203.4 438.7,293.9" fill="none" stroke="#30332e" stroke-width="5.0" stroke-linecap="round"/>
<path d="M 438.7,293.9 Q 466.5,314.7 494.2,212.2" fill="none" stroke="#30332e" stroke-width="5.4" stroke-linecap="round"/>
<path d="M 494.2,212.2 Q 522.0,151.2 549.8,231.1" fill="none" stroke="#30332e" stroke-width="5.9" stroke-linecap="round"/>
<path d="M 549.8,231.1 Q 577.5,328.5 605.3,338.0" fill="none" stroke="#30332e" stroke-width="4.6" stroke-linecap="round"/>
<path d="M 605.3,338.0 Q 633.1,266.3 660.8,300.2" fill="none" stroke="#30332e" stroke-width="5.0" stroke-linecap="round"/>
<path d="M 660.8,300.2 Q 688.6,365.0 716.3,306.5" fill="none" stroke="#30332e" stroke-width="5.4" stroke-linecap="round"/>
<path d="M 716.3,306.5 Q 744.1,166.9 771.9,168.2" fill="none" stroke="#30332e" stroke-width="5.9" stroke-linecap="round"/>
<path d="M 771.9,168.2 Q 799.6,259.4 827.4,262.5" fill="none" stroke="#30332e" stroke-width="4.6" stroke-linecap="round"/>
<path d="M 827.4,262.5 Q 855.2,222.3 882.9,287.7" fill="none" stroke="#30332e" stroke-width="5.0" stroke-linecap="round"/>
<path d="M 882.9,287.7 Q 910.7,251.8 938.4,92.7" fill="none" stroke="#30332e" stroke-width="5.4" stroke-linecap="round"/>
<path d="M 938.4,92.7 Q 966.2,176.4 994.0,400.8" fill="none" stroke="#30332e" stroke-width="5.9" stroke-linecap="round"/>
<path d="M 994.0,400.8 Q 1021.7,388.3 1049.5,287.7" fill="none" stroke="#30332e" stroke-width="4.6" stroke-linecap="round"/>
<path d="M 1049.5,287.7 Q 1077.3,238.0 1105.0,293.9" fill="none" stroke="#30332e" stroke-width="5.0" stroke-linecap="round"/>
<path d="M 1105.0,293.9 Q 1130.0,330.4 1155.0,243.6" fill="none" stroke="#30332e" stroke-width="5.4" stroke-linecap="round"/>
<circle cx="155.5" cy="375.7" r="5.5" fill="#fff" stroke="#30332e" stroke-width="2"/>
<circle cx="216.6" cy="262.5" r="5.5" fill="#fff" stroke="#30332e" stroke-width="2"/>
<circle cx="272.1" cy="331.7" r="5.5" fill="#fff" stroke="#30332e" stroke-width="2"/>
<circle cx="327.7" cy="419.7" r="5.5" fill="#fff" stroke="#30332e" stroke-width="2"/>
<circle cx="383.2" cy="218.5" r="5.5" fill="#fff" stroke="#30332e" stroke-width="2"/>
<circle cx="438.7" cy="293.9" r="5.5" fill="#fff" stroke="#30332e" stroke-width="2"/>
<circle cx="494.2" cy="212.2" r="5.5" fill="#fff" stroke="#30332e" stroke-width="2"/>
<circle cx="549.8" cy="231.1" r="5.5" fill="#fff" stroke="#30332e" stroke-width="2"/>
<circle cx="605.3" cy="338.0" r="5.5" fill="#fff" stroke="#30332e" stroke-width="2"/>
<circle cx="660.8" cy="300.2" r="5.5" fill="#fff" stroke="#30332e" stroke-width="2"/>
<circle cx="716.3" cy="306.5" r="5.5" fill="#fff" stroke="#30332e" stroke-width="2"/>
<circle cx="771.9" cy="168.2" r="5.5" fill="#fff" stroke="#30332e" stroke-width="2"/>
<circle cx="827.4" cy="262.5" r="5.5" fill="#fff" stroke="#30332e" stroke-width="2"/>
<circle cx="882.9" cy="287.7" r="5.5" fill="#fff" stroke="#30332e" stroke-width="2"/>
<circle cx="938.4" cy="92.7" r="5.5" fill="#fff" stroke="#30332e" stroke-width="2"/>
<circle cx="994.0" cy="400.8" r="5.5" fill="#fff" stroke="#30332e" stroke-width="2"/>
<circle cx="1049.5" cy="287.7" r="5.5" fill="#fff" stroke="#30332e" stroke-width="2"/>
<circle cx="1105.0" cy="293.9" r="5.5" fill="#fff" stroke="#30332e" stroke-width="2"/>
<circle cx="1155.0" cy="243.6" r="5.5" fill="#fff" stroke="#30332e" stroke-width="2"/>
<line x1="100.0" y1="470" x2="100.0" y2="477" stroke="#30332e"/>
<text x="100.0" y="501" text-anchor="middle" font-family="-apple-system,BlinkMacSystemFont,PingFang SC,Noto Sans CJK SC,sans-serif" font-size="17">0</text>
<line x1="377.6" y1="470" x2="377.6" y2="477" stroke="#30332e"/>
<text x="377.6" y="501" text-anchor="middle" font-family="-apple-system,BlinkMacSystemFont,PingFang SC,Noto Sans CJK SC,sans-serif" font-size="17">100</text>
<line x1="655.3" y1="470" x2="655.3" y2="477" stroke="#30332e"/>
<text x="655.3" y="501" text-anchor="middle" font-family="-apple-system,BlinkMacSystemFont,PingFang SC,Noto Sans CJK SC,sans-serif" font-size="17">200</text>
<line x1="932.9" y1="470" x2="932.9" y2="477" stroke="#30332e"/>
<text x="932.9" y="501" text-anchor="middle" font-family="-apple-system,BlinkMacSystemFont,PingFang SC,Noto Sans CJK SC,sans-serif" font-size="17">300</text>
<text x="627.5" y="536" text-anchor="middle" font-family="-apple-system,BlinkMacSystemFont,PingFang SC,Noto Sans CJK SC,sans-serif" font-size="21" fill="#263f86">时间</text>
<text x="31" y="262.5" transform="rotate(-90 31 262.5)" text-anchor="middle" font-family="-apple-system,BlinkMacSystemFont,PingFang SC,Noto Sans CJK SC,sans-serif" font-size="21" fill="#263f86">位置</text>
<text x="88" y="80.2" text-anchor="end" font-family="-apple-system,BlinkMacSystemFont,PingFang SC,Noto Sans CJK SC,sans-serif" font-size="18">北</text>
<text x="88" y="444.8" text-anchor="end" font-family="-apple-system,BlinkMacSystemFont,PingFang SC,Noto Sans CJK SC,sans-serif" font-size="18">南</text>
</svg>
