<svg xmlns="http://www.w3.org/2000/svg" width="1200" height="520" viewBox="0 0 1200 520" role="img" aria-labelledby="title desc"><title id="title">地形崎岖度模型的先验预测模拟</title><desc id="desc">左图宽松先验产生许多不合理直线；右图收紧截距与斜率先验后，直线大多落在观测范围附近。</desc><style>.prior{font:17px ui-monospace,monospace;fill:#29302d}.axis{font:15px -apple-system,BlinkMacSystemFont,"PingFang SC",sans-serif;fill:#30332e}.label{font:18px -apple-system,BlinkMacSystemFont,"PingFang SC",sans-serif;fill:#30332e}.plot{fill:#fff;stroke:#4b4e49;stroke-width:1.2}.grid{stroke:#e6e6e2}.tick{stroke:#4b4e49}.observed{stroke:#353833;stroke-width:1.5;stroke-dasharray:8 7}.line{stroke:#1e211e;stroke-width:1.4;opacity:.22}.highlight{stroke:#5666df;stroke-width:3;opacity:.85}</style><text class="prior" x="300.0" y="30" text-anchor="middle">a ~ Normal(1, 1)</text><text class="prior" x="300.0" y="55" text-anchor="middle">b ~ Normal(0, 1)</text><rect class="plot" x="96" y="82" width="466" height="346"/><line class="tick" x1="134.8" y1="428" x2="134.8" y2="434"/><text class="axis" x="134.8" y="452" text-anchor="middle">0.0</text><line class="tick" x1="212.5" y1="428" x2="212.5" y2="434"/><text class="axis" x="212.5" y="452" text-anchor="middle">0.2</text><line class="tick" x1="290.2" y1="428" x2="290.2" y2="434"/><text class="axis" x="290.2" y="452" text-anchor="middle">0.4</text><line class="tick" x1="367.8" y1="428" x2="367.8" y2="434"/><text class="axis" x="367.8" y="452" text-anchor="middle">0.6</text><line class="tick" x1="445.5" y1="428" x2="445.5" y2="434"/><text class="axis" x="445.5" y="452" text-anchor="middle">0.8</text><line class="tick" x1="523.2" y1="428" x2="523.2" y2="434"/><text class="axis" x="523.2" y="452" text-anchor="middle">1.0</text><line class="grid" x1="96" y1="393.4" x2="562" y2="393.4"/><text class="axis" x="85" y="398.4" text-anchor="end">0.6</text><line class="grid" x1="96" y1="324.2" x2="562" y2="324.2"/><text class="axis" x="85" y="329.2" text-anchor="end">0.8</text><line class="grid" x1="96" y1="255.0" x2="562" y2="255.0"/><text class="axis" x="85" y="260.0" text-anchor="end">1.0</text><line class="grid" x1="96" y1="185.8" x2="562" y2="185.8"/><text class="axis" x="85" y="190.8" text-anchor="end">1.2</text><line class="grid" x1="96" y1="116.6" x2="562" y2="116.6"/><text class="axis" x="85" y="121.6" text-anchor="end">1.4</text><line class="observed" x1="96" y1="351.3" x2="562" y2="351.3"/><line class="observed" x1="96" y1="155.6" x2="562" y2="155.6"/><line class="line" clip-path="url(#clip-20)" x1="96.0" y1="399.3" x2="562.0" y2="186.9"/><line class="line" clip-path="url(#clip-20)" x1="96.0" y1="298.9" x2="562.0" y2="429.7"/><line class="line" clip-path="url(#clip-20)" x1="96.0" y1="553.5" x2="562.0" y2="642.1"/><line class="line" clip-path="url(#clip-20)" x1="96.0" y1="-83.5" x2="562.0" y2="-259.6"/><line class="line" clip-path="url(#clip-20)" x1="96.0" y1="-76.6" x2="562.0" y2="-180.0"/><line class="line" clip-path="url(#clip-20)" x1="96.0" y1="138.6" x2="562.0" y2="61.7"/><line class="line" clip-path="url(#clip-20)" x1="96.0" y1="924.7" x2="562.0" y2="569.6"/><line class="line" clip-path="url(#clip-20)" x1="96.0" y1="134.2" x2="562.0" y2="-73.0"/><line class="line" clip-path="url(#clip-20)" x1="96.0" y1="650.1" x2="562.0" y2="1374.2"/><line class="line" clip-path="url(#clip-20)" x1="96.0" y1="511.8" x2="562.0" y2="706.2"/><line class="line" clip-path="url(#clip-20)" x1="96.0" y1="144.3" x2="562.0" y2="163.4"/><line class="line" clip-path="url(#clip-20)" x1="96.0" y1="4.7" x2="562.0" y2="271.4"/><line class="line" clip-path="url(#clip-20)" x1="96.0" y1="191.1" x2="562.0" y2="27.5"/><line class="line" clip-path="url(#clip-20)" x1="96.0" y1="670.9" x2="562.0" y2="-42.2"/><line class="line" clip-path="url(#clip-20)" x1="96.0" y1="192.9" x2="562.0" y2="-304.1"/><line class="line" clip-path="url(#clip-20)" x1="96.0" y1="389.0" x2="562.0" y2="696.1"/><line class="line" clip-path="url(#clip-20)" x1="96.0" y1="362.4" x2="562.0" y2="406.6"/><line class="line" clip-path="url(#clip-20)" x1="96.0" y1="63.4" x2="562.0" y2="-39.8"/><line class="line" clip-path="url(#clip-20)" x1="96.0" y1="305.5" x2="562.0" y2="702.8"/><line class="line" clip-path="url(#clip-20)" x1="96.0" y1="568.2" x2="562.0" y2="61.3"/><line class="line" clip-path="url(#clip-20)" x1="96.0" y1="561.2" x2="562.0" y2="459.6"/><line class="line" clip-path="url(#clip-20)" x1="96.0" y1="-54.9" x2="562.0" y2="563.6"/><line class="line" clip-path="url(#clip-20)" x1="96.0" y1="380.6" x2="562.0" y2="-161.8"/><line class="line" clip-path="url(#clip-20)" x1="96.0" y1="916.9" x2="562.0" y2="1050.4"/><line class="line" clip-path="url(#clip-20)" x1="96.0" y1="202.7" x2="562.0" y2="542.0"/><line class="line" clip-path="url(#clip-20)" x1="96.0" y1="76.1" x2="562.0" y2="102.0"/><line class="line" clip-path="url(#clip-20)" x1="96.0" y1="852.0" x2="562.0" y2="508.3"/><line class="line" clip-path="url(#clip-20)" x1="96.0" y1="126.5" x2="562.0" y2="-266.2"/><line class="line" clip-path="url(#clip-20)" x1="96.0" y1="-204.0" x2="562.0" y2="-354.4"/><line class="line" clip-path="url(#clip-20)" x1="96.0" y1="72.1" x2="562.0" y2="611.5"/><line class="line" clip-path="url(#clip-20)" x1="96.0" y1="-24.6" x2="562.0" y2="229.4"/><line class="line" clip-path="url(#clip-20)" x1="96.0" y1="273.8" x2="562.0" y2="798.9"/><line class="line" clip-path="url(#clip-20)" x1="96.0" y1="531.9" x2="562.0" y2="752.4"/><line class="line" clip-path="url(#clip-20)" x1="96.0" y1="-412.4" x2="562.0" y2="431.2"/><line class="line" clip-path="url(#clip-20)" x1="96.0" y1="785.5" x2="562.0" y2="686.1"/><line class="line" clip-path="url(#clip-20)" x1="96.0" y1="-181.3" x2="562.0" y2="-421.5"/><line class="line highlight" clip-path="url(#clip-20)" x1="96.0" y1="637.9" x2="562.0" y2="1683.5"/><line class="line" clip-path="url(#clip-20)" x1="96.0" y1="51.1" x2="562.0" y2="356.8"/><line class="line" clip-path="url(#clip-20)" x1="96.0" y1="749.0" x2="562.0" y2="343.2"/><line class="line" clip-path="url(#clip-20)" x1="96.0" y1="-109.1" x2="562.0" y2="-174.4"/><line class="line" clip-path="url(#clip-20)" x1="96.0" y1="217.3" x2="562.0" y2="37.0"/><line class="line" clip-path="url(#clip-20)" x1="96.0" y1="-229.1" x2="562.0" y2="-486.1"/><line class="line" clip-path="url(#clip-20)" x1="96.0" y1="135.2" x2="562.0" y2="-92.2"/><line class="line" clip-path="url(#clip-20)" x1="96.0" y1="937.3" x2="562.0" y2="405.2"/><line class="line" clip-path="url(#clip-20)" x1="96.0" y1="-17.7" x2="562.0" y2="-237.6"/><line class="line" clip-path="url(#clip-20)" x1="96.0" y1="868.9" x2="562.0" y2="1132.0"/><line class="line" clip-path="url(#clip-20)" x1="96.0" y1="-233.8" x2="562.0" y2="518.2"/><line class="line" clip-path="url(#clip-20)" x1="96.0" y1="429.8" x2="562.0" y2="6.5"/><line class="line" clip-path="url(#clip-20)" x1="96.0" y1="884.2" x2="562.0" y2="215.6"/><line class="line" clip-path="url(#clip-20)" x1="96.0" y1="47.7" x2="562.0" y2="110.0"/><text class="label" x="329.0" y="482" text-anchor="middle">崎岖度</text><text class="label" transform="translate(40,255.0) rotate(-90)" text-anchor="middle">对数 GDP（占均值比例）</text><clipPath id="clip-20"><rect x="96" y="82" width="466" height="346"/></clipPath><text class="prior" x="900.0" y="30" text-anchor="middle">a ~ Normal(1, 0.1)</text><text class="prior" x="900.0" y="55" text-anchor="middle">b ~ Normal(0, 0.3)</text><rect class="plot" x="696" y="82" width="466" height="346"/><line class="tick" x1="734.8" y1="428" x2="734.8" y2="434"/><text class="axis" x="734.8" y="452" text-anchor="middle">0.0</text><line class="tick" x1="812.5" y1="428" x2="812.5" y2="434"/><text class="axis" x="812.5" y="452" text-anchor="middle">0.2</text><line class="tick" x1="890.2" y1="428" x2="890.2" y2="434"/><text class="axis" x="890.2" y="452" text-anchor="middle">0.4</text><line class="tick" x1="967.8" y1="428" x2="967.8" y2="434"/><text class="axis" x="967.8" y="452" text-anchor="middle">0.6</text><line class="tick" x1="1045.5" y1="428" x2="1045.5" y2="434"/><text class="axis" x="1045.5" y="452" text-anchor="middle">0.8</text><line class="tick" x1="1123.2" y1="428" x2="1123.2" y2="434"/><text class="axis" x="1123.2" y="452" text-anchor="middle">1.0</text><line class="grid" x1="696" y1="393.4" x2="1162" y2="393.4"/><text class="axis" x="685" y="398.4" text-anchor="end">0.6</text><line class="grid" x1="696" y1="324.2" x2="1162" y2="324.2"/><text class="axis" x="685" y="329.2" text-anchor="end">0.8</text><line class="grid" x1="696" y1="255.0" x2="1162" y2="255.0"/><text class="axis" x="685" y="260.0" text-anchor="end">1.0</text><line class="grid" x1="696" y1="185.8" x2="1162" y2="185.8"/><text class="axis" x="685" y="190.8" text-anchor="end">1.2</text><line class="grid" x1="696" y1="116.6" x2="1162" y2="116.6"/><text class="axis" x="685" y="121.6" text-anchor="end">1.4</text><line class="observed" x1="696" y1="351.3" x2="1162" y2="351.3"/><line class="observed" x1="696" y1="155.6" x2="1162" y2="155.6"/><line class="line" clip-path="url(#clip-620)" x1="696.0" y1="324.9" x2="1162.0" y2="9.4"/><line class="line" clip-path="url(#clip-620)" x1="696.0" y1="253.5" x2="1162.0" y2="114.8"/><line class="line" clip-path="url(#clip-620)" x1="696.0" y1="245.1" x2="1162.0" y2="197.2"/><line class="line" clip-path="url(#clip-620)" x1="696.0" y1="231.2" x2="1162.0" y2="231.6"/><line class="line" clip-path="url(#clip-620)" x1="696.0" y1="250.9" x2="1162.0" y2="358.3"/><line class="line" clip-path="url(#clip-620)" x1="696.0" y1="304.8" x2="1162.0" y2="262.5"/><line class="line" clip-path="url(#clip-620)" x1="696.0" y1="289.4" x2="1162.0" y2="70.0"/><line class="line" clip-path="url(#clip-620)" x1="696.0" y1="246.4" x2="1162.0" y2="197.8"/><line class="line" clip-path="url(#clip-620)" x1="696.0" y1="231.2" x2="1162.0" y2="218.9"/><line class="line" clip-path="url(#clip-620)" x1="696.0" y1="356.0" x2="1162.0" y2="208.8"/><line class="line" clip-path="url(#clip-620)" x1="696.0" y1="278.4" x2="1162.0" y2="236.2"/><line class="line" clip-path="url(#clip-620)" x1="696.0" y1="361.6" x2="1162.0" y2="-23.0"/><line class="line" clip-path="url(#clip-620)" x1="696.0" y1="228.2" x2="1162.0" y2="161.2"/><line class="line" clip-path="url(#clip-620)" x1="696.0" y1="325.0" x2="1162.0" y2="197.3"/><line class="line" clip-path="url(#clip-620)" x1="696.0" y1="325.6" x2="1162.0" y2="163.3"/><line class="line" clip-path="url(#clip-620)" x1="696.0" y1="305.8" x2="1162.0" y2="303.1"/><line class="line" clip-path="url(#clip-620)" x1="696.0" y1="192.8" x2="1162.0" y2="288.2"/><line class="line" clip-path="url(#clip-620)" x1="696.0" y1="256.4" x2="1162.0" y2="221.0"/><line class="line" clip-path="url(#clip-620)" x1="696.0" y1="204.6" x2="1162.0" y2="252.6"/><line class="line" clip-path="url(#clip-620)" x1="696.0" y1="300.3" x2="1162.0" y2="17.8"/><line class="line" clip-path="url(#clip-620)" x1="696.0" y1="279.0" x2="1162.0" y2="374.8"/><line class="line" clip-path="url(#clip-620)" x1="696.0" y1="216.0" x2="1162.0" y2="285.4"/><line class="line" clip-path="url(#clip-620)" x1="696.0" y1="351.7" x2="1162.0" y2="151.4"/><line class="line" clip-path="url(#clip-620)" x1="696.0" y1="257.8" x2="1162.0" y2="99.0"/><line class="line" clip-path="url(#clip-620)" x1="696.0" y1="240.5" x2="1162.0" y2="130.7"/><line class="line" clip-path="url(#clip-620)" x1="696.0" y1="203.6" x2="1162.0" y2="494.9"/><line class="line" clip-path="url(#clip-620)" x1="696.0" y1="200.1" x2="1162.0" y2="322.8"/><line class="line" clip-path="url(#clip-620)" x1="696.0" y1="266.3" x2="1162.0" y2="199.0"/><line class="line" clip-path="url(#clip-620)" x1="696.0" y1="288.6" x2="1162.0" y2="315.3"/><line class="line" clip-path="url(#clip-620)" x1="696.0" y1="218.3" x2="1162.0" y2="101.5"/><line class="line" clip-path="url(#clip-620)" x1="696.0" y1="306.4" x2="1162.0" y2="315.4"/><line class="line" clip-path="url(#clip-620)" x1="696.0" y1="274.2" x2="1162.0" y2="182.7"/><line class="line" clip-path="url(#clip-620)" x1="696.0" y1="225.6" x2="1162.0" y2="217.1"/><line class="line" clip-path="url(#clip-620)" x1="696.0" y1="293.0" x2="1162.0" y2="163.0"/><line class="line" clip-path="url(#clip-620)" x1="696.0" y1="345.3" x2="1162.0" y2="180.3"/><line class="line" clip-path="url(#clip-620)" x1="696.0" y1="225.5" x2="1162.0" y2="274.3"/><line class="line" clip-path="url(#clip-620)" x1="696.0" y1="283.5" x2="1162.0" y2="238.0"/><line class="line" clip-path="url(#clip-620)" x1="696.0" y1="227.9" x2="1162.0" y2="516.8"/><line class="line" clip-path="url(#clip-620)" x1="696.0" y1="290.6" x2="1162.0" y2="87.9"/><line class="line" clip-path="url(#clip-620)" x1="696.0" y1="261.8" x2="1162.0" y2="242.5"/><line class="line" clip-path="url(#clip-620)" x1="696.0" y1="222.4" x2="1162.0" y2="335.8"/><line class="line" clip-path="url(#clip-620)" x1="696.0" y1="267.9" x2="1162.0" y2="151.1"/><line class="line" clip-path="url(#clip-620)" x1="696.0" y1="284.3" x2="1162.0" y2="157.2"/><line class="line" clip-path="url(#clip-620)" x1="696.0" y1="300.3" x2="1162.0" y2="257.2"/><line class="line" clip-path="url(#clip-620)" x1="696.0" y1="265.0" x2="1162.0" y2="319.3"/><line class="line" clip-path="url(#clip-620)" x1="696.0" y1="250.7" x2="1162.0" y2="221.1"/><line class="line" clip-path="url(#clip-620)" x1="696.0" y1="246.7" x2="1162.0" y2="152.9"/><line class="line" clip-path="url(#clip-620)" x1="696.0" y1="340.8" x2="1162.0" y2="166.7"/><line class="line" clip-path="url(#clip-620)" x1="696.0" y1="307.7" x2="1162.0" y2="313.7"/><line class="line" clip-path="url(#clip-620)" x1="696.0" y1="241.1" x2="1162.0" y2="246.8"/><text class="label" x="929.0" y="482" text-anchor="middle">崎岖度</text><text class="label" transform="translate(640,255.0) rotate(-90)" text-anchor="middle">对数 GDP（占均值比例）</text><clipPath id="clip-620"><rect x="696" y="82" width="466" height="346"/></clipPath></svg>