<?xml version="1.0" encoding="UTF-8"?>
<svg xmlns="http://www.w3.org/2000/svg" width="1200" height="470" viewBox="0 0 1200 470" role="img">
  <title>二次近似随样本量增加而改善</title>
  <desc>三个面板比较样本量为九、十八和三十六时的精确后验与高斯二次近似。样本越多，两条曲线越接近。</desc>
  <rect width="100%" height="100%" fill="#ffffff"/>
  <g id="sample-9">
    <text x="245.5" y="55" text-anchor="middle" font-family="-apple-system,BlinkMacSystemFont,PingFang SC,Noto Sans CJK SC,sans-serif" font-size="21" font-weight="700" fill="#263f86">n = 9，w = 6</text>
    <line x1="123" y1="302" x2="368" y2="302" stroke="#363934" stroke-width="1.3"/>
    <line x1="123" y1="97" x2="123" y2="302" stroke="#363934" stroke-width="1.3"/>
    <path d="M123 302 L124.22 302 L125.45 302 L126.67 302 L127.9 302 L129.12 302 L130.35 302 L131.57 302 L132.8 302 L134.03 302 L135.25 302 L136.47 302 L137.7 302 L138.93 302 L140.15 301.99 L141.38 301.99 L142.6 301.99 L143.82 301.98 L145.05 301.98 L146.28 301.97 L147.5 301.96 L148.72 301.95 L149.95 301.93 L151.18 301.91 L152.4 301.88 L153.62 301.85 L154.85 301.82 L156.07 301.78 L157.3 301.73 L158.53 301.67 L159.75 301.6 L160.97 301.52 L162.2 301.43 L163.43 301.33 L164.65 301.21 L165.88 301.08 L167.1 300.93 L168.32 300.76 L169.55 300.57 L170.78 300.36 L172 300.13 L173.22 299.87 L174.45 299.58 L175.68 299.27 L176.9 298.92 L178.12 298.55 L179.35 298.14 L180.57 297.69 L181.8 297.2 L183.03 296.68 L184.25 296.11 L185.47 295.5 L186.7 294.84 L187.93 294.14 L189.15 293.39 L190.38 292.58 L191.6 291.72 L192.82 290.8 L194.05 289.83 L195.28 288.8 L196.5 287.71 L197.72 286.55 L198.95 285.33 L200.18 284.05 L201.4 282.7 L202.62 281.28 L203.85 279.8 L205.07 278.24 L206.3 276.61 L207.53 274.91 L208.75 273.14 L209.97 271.3 L211.2 269.38 L212.43 267.39 L213.65 265.33 L214.88 263.19 L216.1 260.98 L217.32 258.7 L218.55 256.35 L219.78 253.92 L221 251.43 L222.22 248.87 L223.45 246.24 L224.68 243.54 L225.9 240.78 L227.12 237.96 L228.35 235.08 L229.57 232.15 L230.8 229.16 L232.03 226.12 L233.25 223.03 L234.47 219.9 L235.7 216.72 L236.93 213.51 L238.15 210.27 L239.38 207 L240.6 203.7 L241.82 200.38 L243.05 197.05 L244.28 193.71 L245.5 190.36 L246.72 187.01 L247.95 183.67 L249.18 180.34 L250.4 177.02 L251.62 173.73 L252.85 170.46 L254.07 167.23 L255.3 164.05 L256.52 160.91 L257.75 157.82 L258.98 154.79 L260.2 151.83 L261.43 148.94 L262.65 146.13 L263.88 143.41 L265.1 140.78 L266.32 138.25 L267.55 135.83 L268.77 133.51 L270 131.32 L271.23 129.25 L272.45 127.31 L273.68 125.51 L274.9 123.85 L276.12 122.33 L277.35 120.97 L278.57 119.77 L279.8 118.73 L281.02 117.86 L282.25 117.17 L283.48 116.65 L284.7 116.31 L285.93 116.15 L287.15 116.18 L288.38 116.4 L289.6 116.82 L290.82 117.43 L292.05 118.23 L293.27 119.23 L294.5 120.43 L295.73 121.82 L296.95 123.42 L298.18 125.21 L299.4 127.19 L300.62 129.37 L301.85 131.74 L303.07 134.29 L304.3 137.03 L305.52 139.95 L306.75 143.04 L307.98 146.3 L309.2 149.73 L310.43 153.31 L311.65 157.05 L312.88 160.92 L314.1 164.93 L315.32 169.07 L316.55 173.32 L317.77 177.67 L319 182.13 L320.23 186.66 L321.45 191.27 L322.68 195.94 L323.9 200.66 L325.12 205.41 L326.35 210.19 L327.57 214.97 L328.8 219.75 L330.02 224.51 L331.25 229.24 L332.48 233.92 L333.7 238.54 L334.93 243.09 L336.15 247.54 L337.38 251.9 L338.6 256.13 L339.82 260.23 L341.05 264.19 L342.27 267.99 L343.5 271.62 L344.73 275.07 L345.95 278.34 L347.18 281.4 L348.4 284.25 L349.62 286.89 L350.85 289.32 L352.07 291.51 L353.3 293.48 L354.52 295.23 L355.75 296.75 L356.98 298.05 L358.2 299.14 L359.43 300.02 L360.65 300.71 L361.88 301.23 L363.1 301.59 L364.32 301.82 L365.55 301.95 L366.77 301.99 L368 302" fill="none" stroke="#315bd7" stroke-width="2.8"/>
    <path d="M123 301.98 L124.22 301.98 L125.45 301.97 L126.67 301.97 L127.9 301.96 L129.12 301.96 L130.35 301.95 L131.57 301.95 L132.8 301.94 L134.03 301.93 L135.25 301.92 L136.47 301.91 L137.7 301.9 L138.93 301.89 L140.15 301.87 L141.38 301.86 L142.6 301.84 L143.82 301.82 L145.05 301.79 L146.28 301.77 L147.5 301.74 L148.72 301.71 L149.95 301.67 L151.18 301.64 L152.4 301.59 L153.62 301.55 L154.85 301.49 L156.07 301.44 L157.3 301.37 L158.53 301.3 L159.75 301.22 L160.97 301.14 L162.2 301.05 L163.43 300.94 L164.65 300.83 L165.88 300.71 L167.1 300.57 L168.32 300.43 L169.55 300.27 L170.78 300.09 L172 299.9 L173.22 299.69 L174.45 299.47 L175.68 299.22 L176.9 298.96 L178.12 298.67 L179.35 298.36 L180.57 298.03 L181.8 297.67 L183.03 297.28 L184.25 296.86 L185.47 296.41 L186.7 295.93 L187.93 295.41 L189.15 294.86 L190.38 294.27 L191.6 293.63 L192.82 292.96 L194.05 292.23 L195.28 291.47 L196.5 290.65 L197.72 289.78 L198.95 288.86 L200.18 287.88 L201.4 286.85 L202.62 285.75 L203.85 284.6 L205.07 283.38 L206.3 282.09 L207.53 280.74 L208.75 279.32 L209.97 277.83 L211.2 276.27 L212.43 274.64 L213.65 272.93 L214.88 271.15 L216.1 269.29 L217.32 267.35 L218.55 265.33 L219.78 263.24 L221 261.07 L222.22 258.82 L223.45 256.49 L224.68 254.09 L225.9 251.61 L227.12 249.05 L228.35 246.43 L229.57 243.73 L230.8 240.96 L232.03 238.13 L233.25 235.23 L234.47 232.27 L235.7 229.25 L236.93 226.18 L238.15 223.06 L239.38 219.89 L240.6 216.69 L241.82 213.45 L243.05 210.17 L244.28 206.88 L245.5 203.56 L246.72 200.23 L247.95 196.9 L249.18 193.57 L250.4 190.24 L251.62 186.93 L252.85 183.64 L254.07 180.38 L255.3 177.16 L256.52 173.98 L257.75 170.85 L258.98 167.79 L260.2 164.79 L261.43 161.86 L262.65 159.02 L263.88 156.27 L265.1 153.61 L266.32 151.06 L267.55 148.62 L268.77 146.3 L270 144.11 L271.23 142.04 L272.45 140.11 L273.68 138.33 L274.9 136.69 L276.12 135.2 L277.35 133.88 L278.57 132.71 L279.8 131.71 L281.02 130.87 L282.25 130.2 L283.48 129.71 L284.7 129.39 L285.93 129.25 L287.15 129.27 L288.38 129.48 L289.6 129.86 L290.82 130.41 L292.05 131.13 L293.27 132.02 L294.5 133.08 L295.73 134.3 L296.95 135.68 L298.18 137.22 L299.4 138.91 L300.62 140.74 L301.85 142.71 L303.07 144.82 L304.3 147.06 L305.52 149.42 L306.75 151.9 L307.98 154.49 L309.2 157.17 L310.43 159.96 L311.65 162.83 L312.88 165.78 L314.1 168.8 L315.32 171.89 L316.55 175.04 L317.77 178.23 L319 181.47 L320.23 184.74 L321.45 188.03 L322.68 191.35 L323.9 194.68 L325.12 198.01 L326.35 201.34 L327.57 204.67 L328.8 207.98 L330.02 211.27 L331.25 214.53 L332.48 217.76 L333.7 220.95 L334.93 224.1 L336.15 227.21 L337.38 230.26 L338.6 233.26 L339.82 236.2 L341.05 239.08 L342.27 241.89 L343.5 244.64 L344.73 247.31 L345.95 249.91 L347.18 252.44 L348.4 254.9 L349.62 257.28 L350.85 259.58 L352.07 261.8 L353.3 263.95 L354.52 266.01 L355.75 268 L356.98 269.91 L358.2 271.75 L359.43 273.51 L360.65 275.19 L361.88 276.8 L363.1 278.34 L364.32 279.8 L365.55 281.2 L366.77 282.53 L368 283.79" fill="none" stroke="#30332e" stroke-width="2" stroke-dasharray="7 5"/>
    <line x1="123" y1="302" x2="123" y2="310" stroke="#363934"/>
    <text x="123" y="330" text-anchor="middle" font-family="-apple-system,BlinkMacSystemFont,PingFang SC,Noto Sans CJK SC,sans-serif" font-size="14" fill="#30332e">0</text>
    <line x1="245.5" y1="302" x2="245.5" y2="310" stroke="#363934"/>
    <text x="245.5" y="330" text-anchor="middle" font-family="-apple-system,BlinkMacSystemFont,PingFang SC,Noto Sans CJK SC,sans-serif" font-size="14" fill="#30332e">0.5</text>
    <line x1="368" y1="302" x2="368" y2="310" stroke="#363934"/>
    <text x="368" y="330" text-anchor="middle" font-family="-apple-system,BlinkMacSystemFont,PingFang SC,Noto Sans CJK SC,sans-serif" font-size="14" fill="#30332e">1</text>
    <text x="245.5" y="363" text-anchor="middle" font-family="-apple-system,BlinkMacSystemFont,PingFang SC,Noto Sans CJK SC,sans-serif" font-size="17" fill="#30332e">水域比例</text>
    <text x="82" y="199.5" transform="rotate(-90 82 199.5)" text-anchor="middle" font-family="-apple-system,BlinkMacSystemFont,PingFang SC,Noto Sans CJK SC,sans-serif" font-size="17" fill="#30332e">概率密度</text>
  </g>
  <g id="sample-18">
    <text x="615.5" y="55" text-anchor="middle" font-family="-apple-system,BlinkMacSystemFont,PingFang SC,Noto Sans CJK SC,sans-serif" font-size="21" font-weight="700" fill="#263f86">n = 18，w = 12</text>
    <line x1="493" y1="302" x2="738" y2="302" stroke="#363934" stroke-width="1.3"/>
    <line x1="493" y1="97" x2="493" y2="302" stroke="#363934" stroke-width="1.3"/>
    <path d="M493 302 L494.23 302 L495.45 302 L496.68 302 L497.9 302 L499.12 302 L500.35 302 L501.57 302 L502.8 302 L504.02 302 L505.25 302 L506.48 302 L507.7 302 L508.93 302 L510.15 302 L511.38 302 L512.6 302 L513.83 302 L515.05 302 L516.27 302 L517.5 302 L518.73 302 L519.95 302 L521.17 302 L522.4 302 L523.62 302 L524.85 302 L526.08 302 L527.3 302 L528.52 302 L529.75 302 L530.98 302 L532.2 302 L533.42 302 L534.65 302 L535.88 302 L537.1 301.99 L538.33 301.99 L539.55 301.99 L540.77 301.99 L542 301.98 L543.23 301.98 L544.45 301.97 L545.67 301.96 L546.9 301.95 L548.12 301.94 L549.35 301.92 L550.58 301.9 L551.8 301.88 L553.02 301.85 L554.25 301.81 L555.48 301.77 L556.7 301.72 L557.92 301.67 L559.15 301.6 L560.38 301.52 L561.6 301.43 L562.83 301.33 L564.05 301.2 L565.27 301.06 L566.5 300.9 L567.73 300.72 L568.95 300.51 L570.17 300.27 L571.4 300 L572.62 299.69 L573.85 299.35 L575.08 298.96 L576.3 298.53 L577.52 298.05 L578.75 297.52 L579.98 296.93 L581.2 296.28 L582.42 295.56 L583.65 294.76 L584.88 293.9 L586.1 292.95 L587.33 291.91 L588.55 290.79 L589.77 289.56 L591 288.24 L592.23 286.81 L593.45 285.27 L594.67 283.61 L595.9 281.84 L597.12 279.93 L598.35 277.91 L599.58 275.75 L600.8 273.45 L602.02 271.02 L603.25 268.44 L604.48 265.73 L605.7 262.87 L606.92 259.87 L608.15 256.72 L609.38 253.44 L610.6 250.01 L611.83 246.44 L613.05 242.73 L614.27 238.9 L615.5 234.94 L616.73 230.85 L617.95 226.66 L619.17 222.35 L620.4 217.95 L621.62 213.47 L622.85 208.9 L624.08 204.28 L625.3 199.6 L626.52 194.88 L627.75 190.14 L628.98 185.4 L630.2 180.66 L631.42 175.95 L632.65 171.28 L633.88 166.67 L635.1 162.15 L636.33 157.73 L637.55 153.42 L638.77 149.26 L640 145.25 L641.23 141.42 L642.45 137.8 L643.67 134.39 L644.9 131.22 L646.12 128.31 L647.35 125.67 L648.58 123.32 L649.8 121.28 L651.02 119.56 L652.25 118.18 L653.48 117.14 L654.7 116.46 L655.92 116.15 L657.15 116.21 L658.38 116.66 L659.6 117.48 L660.83 118.69 L662.05 120.28 L663.27 122.26 L664.5 124.61 L665.73 127.32 L666.95 130.4 L668.17 133.82 L669.4 137.57 L670.62 141.64 L671.85 146.01 L673.08 150.66 L674.3 155.56 L675.52 160.7 L676.75 166.04 L677.98 171.57 L679.2 177.24 L680.42 183.05 L681.65 188.95 L682.88 194.91 L684.1 200.91 L685.33 206.92 L686.55 212.9 L687.77 218.83 L689 224.68 L690.23 230.42 L691.45 236.03 L692.67 241.47 L693.9 246.74 L695.12 251.8 L696.35 256.64 L697.58 261.25 L698.8 265.6 L700.02 269.69 L701.25 273.52 L702.48 277.06 L703.7 280.33 L704.92 283.33 L706.15 286.04 L707.38 288.49 L708.6 290.68 L709.83 292.61 L711.05 294.31 L712.27 295.78 L713.5 297.03 L714.73 298.1 L715.95 298.99 L717.17 299.72 L718.4 300.31 L719.62 300.77 L720.85 301.13 L722.08 301.41 L723.3 301.61 L724.52 301.75 L725.75 301.85 L726.98 301.92 L728.2 301.96 L729.42 301.98 L730.65 301.99 L731.88 302 L733.1 302 L734.33 302 L735.55 302 L736.77 302 L738 302" fill="none" stroke="#315bd7" stroke-width="2.8"/>
    <path d="M493 302 L494.23 302 L495.45 302 L496.68 302 L497.9 302 L499.12 302 L500.35 302 L501.57 302 L502.8 302 L504.02 302 L505.25 302 L506.48 302 L507.7 302 L508.93 302 L510.15 302 L511.38 302 L512.6 302 L513.83 302 L515.05 302 L516.27 302 L517.5 302 L518.73 302 L519.95 302 L521.17 302 L522.4 302 L523.62 302 L524.85 302 L526.08 302 L527.3 302 L528.52 302 L529.75 302 L530.98 302 L532.2 301.99 L533.42 301.99 L534.65 301.99 L535.88 301.99 L537.1 301.99 L538.33 301.99 L539.55 301.98 L540.77 301.98 L542 301.97 L543.23 301.97 L544.45 301.96 L545.67 301.95 L546.9 301.94 L548.12 301.93 L549.35 301.92 L550.58 301.91 L551.8 301.89 L553.02 301.87 L554.25 301.84 L555.48 301.81 L556.7 301.78 L557.92 301.74 L559.15 301.69 L560.38 301.64 L561.6 301.58 L562.83 301.51 L564.05 301.43 L565.27 301.33 L566.5 301.23 L567.73 301.1 L568.95 300.96 L570.17 300.8 L571.4 300.62 L572.62 300.42 L573.85 300.18 L575.08 299.92 L576.3 299.62 L577.52 299.29 L578.75 298.92 L579.98 298.5 L581.2 298.03 L582.42 297.51 L583.65 296.93 L584.88 296.29 L586.1 295.58 L587.33 294.8 L588.55 293.94 L589.77 292.99 L591 291.95 L592.23 290.82 L593.45 289.58 L594.67 288.24 L595.9 286.77 L597.12 285.19 L598.35 283.48 L599.58 281.64 L600.8 279.66 L602.02 277.54 L603.25 275.27 L604.48 272.84 L605.7 270.27 L606.92 267.53 L608.15 264.64 L609.38 261.58 L610.6 258.36 L611.83 254.98 L613.05 251.44 L614.27 247.75 L615.5 243.9 L616.73 239.91 L617.95 235.77 L619.17 231.5 L620.4 227.11 L621.62 222.61 L622.85 218.01 L624.08 213.32 L625.3 208.56 L626.52 203.74 L627.75 198.88 L628.98 194 L630.2 189.11 L631.42 184.25 L632.65 179.43 L633.88 174.66 L635.1 169.98 L636.33 165.4 L637.55 160.95 L638.77 156.65 L640 152.52 L641.23 148.58 L642.45 144.86 L643.67 141.38 L644.9 138.15 L646.12 135.19 L647.35 132.52 L648.58 130.16 L649.8 128.12 L651.02 126.41 L652.25 125.04 L653.48 124.02 L654.7 123.36 L655.92 123.06 L657.15 123.12 L658.38 123.54 L659.6 124.32 L660.83 125.46 L662.05 126.94 L663.27 128.76 L664.5 130.91 L665.73 133.38 L666.95 136.14 L668.17 139.19 L669.4 142.51 L670.62 146.08 L671.85 149.87 L673.08 153.87 L674.3 158.06 L675.52 162.42 L676.75 166.91 L677.98 171.53 L679.2 176.24 L680.42 181.03 L681.65 185.87 L682.88 190.74 L684.1 195.63 L685.33 200.5 L686.55 205.35 L687.77 210.15 L689 214.89 L690.23 219.55 L691.45 224.12 L692.67 228.59 L693.9 232.94 L695.12 237.16 L696.35 241.25 L697.58 245.2 L698.8 249 L700.02 252.64 L701.25 256.13 L702.48 259.45 L703.7 262.62 L704.92 265.62 L706.15 268.46 L707.38 271.14 L708.6 273.67 L709.83 276.04 L711.05 278.26 L712.27 280.34 L713.5 282.27 L714.73 284.07 L715.95 285.73 L717.17 287.27 L718.4 288.7 L719.62 290.01 L720.85 291.21 L722.08 292.31 L723.3 293.32 L724.52 294.23 L725.75 295.07 L726.98 295.83 L728.2 296.51 L729.42 297.13 L730.65 297.69 L731.88 298.19 L733.1 298.64 L734.33 299.05 L735.55 299.41 L736.77 299.73 L738 300.01" fill="none" stroke="#30332e" stroke-width="2" stroke-dasharray="7 5"/>
    <line x1="493" y1="302" x2="493" y2="310" stroke="#363934"/>
    <text x="493" y="330" text-anchor="middle" font-family="-apple-system,BlinkMacSystemFont,PingFang SC,Noto Sans CJK SC,sans-serif" font-size="14" fill="#30332e">0</text>
    <line x1="615.5" y1="302" x2="615.5" y2="310" stroke="#363934"/>
    <text x="615.5" y="330" text-anchor="middle" font-family="-apple-system,BlinkMacSystemFont,PingFang SC,Noto Sans CJK SC,sans-serif" font-size="14" fill="#30332e">0.5</text>
    <line x1="738" y1="302" x2="738" y2="310" stroke="#363934"/>
    <text x="738" y="330" text-anchor="middle" font-family="-apple-system,BlinkMacSystemFont,PingFang SC,Noto Sans CJK SC,sans-serif" font-size="14" fill="#30332e">1</text>
    <text x="615.5" y="363" text-anchor="middle" font-family="-apple-system,BlinkMacSystemFont,PingFang SC,Noto Sans CJK SC,sans-serif" font-size="17" fill="#30332e">水域比例</text>
    <text x="452" y="199.5" transform="rotate(-90 452 199.5)" text-anchor="middle" font-family="-apple-system,BlinkMacSystemFont,PingFang SC,Noto Sans CJK SC,sans-serif" font-size="17" fill="#30332e">概率密度</text>
  </g>
  <g id="sample-36">
    <text x="985.5" y="55" text-anchor="middle" font-family="-apple-system,BlinkMacSystemFont,PingFang SC,Noto Sans CJK SC,sans-serif" font-size="21" font-weight="700" fill="#263f86">n = 36，w = 24</text>
    <line x1="863" y1="302" x2="1108" y2="302" stroke="#363934" stroke-width="1.3"/>
    <line x1="863" y1="97" x2="863" y2="302" stroke="#363934" stroke-width="1.3"/>
    <path d="M863 302 L864.23 302 L865.45 302 L866.67 302 L867.9 302 L869.12 302 L870.35 302 L871.58 302 L872.8 302 L874.02 302 L875.25 302 L876.48 302 L877.7 302 L878.92 302 L880.15 302 L881.38 302 L882.6 302 L883.83 302 L885.05 302 L886.27 302 L887.5 302 L888.73 302 L889.95 302 L891.17 302 L892.4 302 L893.62 302 L894.85 302 L896.08 302 L897.3 302 L898.52 302 L899.75 302 L900.98 302 L902.2 302 L903.42 302 L904.65 302 L905.88 302 L907.1 302 L908.33 302 L909.55 302 L910.77 302 L912 302 L913.23 302 L914.45 302 L915.67 302 L916.9 302 L918.12 302 L919.35 302 L920.58 302 L921.8 302 L923.02 302 L924.25 302 L925.48 302 L926.7 302 L927.92 302 L929.15 302 L930.38 302 L931.6 302 L932.83 302 L934.05 302 L935.27 302 L936.5 301.99 L937.73 301.99 L938.95 301.99 L940.17 301.98 L941.4 301.98 L942.62 301.97 L943.85 301.96 L945.08 301.95 L946.3 301.94 L947.52 301.92 L948.75 301.89 L949.98 301.86 L951.2 301.82 L952.42 301.78 L953.65 301.72 L954.88 301.65 L956.1 301.56 L957.33 301.45 L958.55 301.32 L959.77 301.17 L961 300.98 L962.23 300.76 L963.45 300.49 L964.67 300.18 L965.9 299.81 L967.12 299.38 L968.35 298.88 L969.58 298.29 L970.8 297.61 L972.02 296.84 L973.25 295.94 L974.48 294.92 L975.7 293.76 L976.92 292.45 L978.15 290.97 L979.38 289.31 L980.6 287.45 L981.83 285.39 L983.05 283.1 L984.27 280.57 L985.5 277.8 L986.73 274.76 L987.95 271.45 L989.17 267.87 L990.4 263.99 L991.62 259.83 L992.85 255.37 L994.08 250.62 L995.3 245.58 L996.52 240.26 L997.75 234.68 L998.98 228.84 L1000.2 222.78 L1001.42 216.51 L1002.65 210.06 L1003.88 203.46 L1005.1 196.76 L1006.33 190 L1007.55 183.22 L1008.77 176.46 L1010 169.79 L1011.23 163.26 L1012.45 156.92 L1013.67 150.84 L1014.9 145.07 L1016.12 139.67 L1017.35 134.7 L1018.58 130.21 L1019.8 126.27 L1021.02 122.91 L1022.25 120.18 L1023.48 118.12 L1024.7 116.77 L1025.92 116.15 L1027.15 116.28 L1028.38 117.16 L1029.6 118.8 L1030.83 121.2 L1032.05 124.33 L1033.28 128.17 L1034.5 132.68 L1035.72 137.83 L1036.95 143.55 L1038.17 149.81 L1039.4 156.53 L1040.62 163.64 L1041.85 171.08 L1043.08 178.76 L1044.3 186.62 L1045.53 194.57 L1046.75 202.54 L1047.97 210.46 L1049.2 218.25 L1050.42 225.86 L1051.65 233.23 L1052.88 240.29 L1054.1 247.01 L1055.33 253.36 L1056.55 259.28 L1057.78 264.78 L1059 269.83 L1060.22 274.43 L1061.45 278.58 L1062.67 282.29 L1063.9 285.57 L1065.12 288.44 L1066.35 290.93 L1067.58 293.06 L1068.8 294.87 L1070.03 296.38 L1071.25 297.63 L1072.47 298.65 L1073.7 299.47 L1074.92 300.12 L1076.15 300.63 L1077.38 301.02 L1078.6 301.31 L1079.83 301.53 L1081.05 301.68 L1082.28 301.79 L1083.5 301.87 L1084.72 301.92 L1085.95 301.95 L1087.17 301.97 L1088.4 301.98 L1089.62 301.99 L1090.85 302 L1092.08 302 L1093.3 302 L1094.53 302 L1095.75 302 L1096.97 302 L1098.2 302 L1099.42 302 L1100.65 302 L1101.88 302 L1103.1 302 L1104.33 302 L1105.55 302 L1106.78 302 L1108 302" fill="none" stroke="#315bd7" stroke-width="2.8"/>
    <path d="M863 302 L864.23 302 L865.45 302 L866.67 302 L867.9 302 L869.12 302 L870.35 302 L871.58 302 L872.8 302 L874.02 302 L875.25 302 L876.48 302 L877.7 302 L878.92 302 L880.15 302 L881.38 302 L882.6 302 L883.83 302 L885.05 302 L886.27 302 L887.5 302 L888.73 302 L889.95 302 L891.17 302 L892.4 302 L893.62 302 L894.85 302 L896.08 302 L897.3 302 L898.52 302 L899.75 302 L900.98 302 L902.2 302 L903.42 302 L904.65 302 L905.88 302 L907.1 302 L908.33 302 L909.55 302 L910.77 302 L912 302 L913.23 302 L914.45 302 L915.67 302 L916.9 302 L918.12 302 L919.35 302 L920.58 302 L921.8 302 L923.02 302 L924.25 302 L925.48 302 L926.7 302 L927.92 302 L929.15 302 L930.38 302 L931.6 302 L932.83 302 L934.05 302 L935.27 302 L936.5 302 L937.73 302 L938.95 301.99 L940.17 301.99 L941.4 301.99 L942.62 301.99 L943.85 301.98 L945.08 301.98 L946.3 301.97 L947.52 301.96 L948.75 301.95 L949.98 301.93 L951.2 301.91 L952.42 301.89 L953.65 301.85 L954.88 301.81 L956.1 301.77 L957.33 301.7 L958.55 301.63 L959.77 301.54 L961 301.43 L962.23 301.29 L963.45 301.12 L964.67 300.92 L965.9 300.68 L967.12 300.39 L968.35 300.05 L969.58 299.64 L970.8 299.16 L972.02 298.59 L973.25 297.93 L974.48 297.16 L975.7 296.27 L976.92 295.24 L978.15 294.05 L979.38 292.7 L980.6 291.16 L981.83 289.41 L983.05 287.45 L984.27 285.24 L985.5 282.78 L986.73 280.05 L987.95 277.03 L989.17 273.71 L990.4 270.07 L991.62 266.12 L992.85 261.84 L994.08 257.23 L995.3 252.29 L996.52 247.03 L997.75 241.46 L998.98 235.59 L1000.2 229.45 L1001.42 223.06 L1002.65 216.46 L1003.88 209.68 L1005.1 202.77 L1006.33 195.77 L1007.55 188.73 L1008.77 181.72 L1010 174.79 L1011.23 168 L1012.45 161.42 L1013.67 155.12 L1014.9 149.15 L1016.12 143.58 L1017.35 138.48 L1018.58 133.89 L1019.8 129.87 L1021.02 126.47 L1022.25 123.72 L1023.48 121.66 L1024.7 120.32 L1025.92 119.7 L1027.15 119.83 L1028.38 120.69 L1029.6 122.27 L1030.83 124.56 L1032.05 127.53 L1033.28 131.14 L1034.5 135.36 L1035.72 140.12 L1036.95 145.39 L1038.17 151.1 L1039.4 157.18 L1040.62 163.59 L1041.85 170.24 L1043.08 177.08 L1044.3 184.05 L1045.53 191.08 L1046.75 198.11 L1047.97 205.08 L1049.2 211.96 L1050.42 218.68 L1051.65 225.22 L1052.88 231.53 L1054.1 237.58 L1055.33 243.35 L1056.55 248.82 L1057.78 253.97 L1059 258.8 L1060.22 263.3 L1061.45 267.47 L1062.67 271.32 L1063.9 274.85 L1065.12 278.07 L1066.35 280.99 L1067.58 283.63 L1068.8 286.01 L1070.03 288.13 L1071.25 290.02 L1072.47 291.69 L1073.7 293.17 L1074.92 294.46 L1076.15 295.6 L1077.38 296.58 L1078.6 297.43 L1079.83 298.16 L1081.05 298.79 L1082.28 299.33 L1083.5 299.78 L1084.72 300.17 L1085.95 300.49 L1087.17 300.77 L1088.4 300.99 L1089.62 301.18 L1090.85 301.34 L1092.08 301.47 L1093.3 301.57 L1094.53 301.66 L1095.75 301.73 L1096.97 301.78 L1098.2 301.83 L1099.42 301.87 L1100.65 301.89 L1101.88 301.92 L1103.1 301.94 L1104.33 301.95 L1105.55 301.96 L1106.78 301.97 L1108 301.98" fill="none" stroke="#30332e" stroke-width="2" stroke-dasharray="7 5"/>
    <line x1="863" y1="302" x2="863" y2="310" stroke="#363934"/>
    <text x="863" y="330" text-anchor="middle" font-family="-apple-system,BlinkMacSystemFont,PingFang SC,Noto Sans CJK SC,sans-serif" font-size="14" fill="#30332e">0</text>
    <line x1="985.5" y1="302" x2="985.5" y2="310" stroke="#363934"/>
    <text x="985.5" y="330" text-anchor="middle" font-family="-apple-system,BlinkMacSystemFont,PingFang SC,Noto Sans CJK SC,sans-serif" font-size="14" fill="#30332e">0.5</text>
    <line x1="1108" y1="302" x2="1108" y2="310" stroke="#363934"/>
    <text x="1108" y="330" text-anchor="middle" font-family="-apple-system,BlinkMacSystemFont,PingFang SC,Noto Sans CJK SC,sans-serif" font-size="14" fill="#30332e">1</text>
    <text x="985.5" y="363" text-anchor="middle" font-family="-apple-system,BlinkMacSystemFont,PingFang SC,Noto Sans CJK SC,sans-serif" font-size="17" fill="#30332e">水域比例</text>
    <text x="822" y="199.5" transform="rotate(-90 822 199.5)" text-anchor="middle" font-family="-apple-system,BlinkMacSystemFont,PingFang SC,Noto Sans CJK SC,sans-serif" font-size="17" fill="#30332e">概率密度</text>
  </g>
  <line x1="380" y1="440" x2="445" y2="440" stroke="#315bd7" stroke-width="2.8"/>
  <text x="458" y="446" font-family="-apple-system,BlinkMacSystemFont,PingFang SC,Noto Sans CJK SC,sans-serif" font-size="16" fill="#30332e">精确后验</text>
  <line x1="650" y1="440" x2="715" y2="440" stroke="#30332e" stroke-width="2" stroke-dasharray="7 5"/>
  <text x="728" y="446" font-family="-apple-system,BlinkMacSystemFont,PingFang SC,Noto Sans CJK SC,sans-serif" font-size="16" fill="#30332e">二次近似</text>
</svg>
