<svg xmlns="http://www.w3.org/2000/svg" width="900" height="560" viewBox="0 0 900 560" role="img" aria-labelledby="title desc"><title id="title">非洲指示变量只改变截距</title><desc id="desc">非洲国家为蓝色，其他国家为空心点；两条回归线平行，说明指示变量未改变斜率。</desc><style>.axis,.label,.ann{font:17px -apple-system,BlinkMacSystemFont,"PingFang SC",sans-serif;fill:#30332e}.label{font-size:19px}.plot{fill:#fff;stroke:#4b4e49}.grid{stroke:#e5e5e1}.na{fill:#fff;stroke:#222;stroke-width:1.2}.af{fill:#6874ef}.line{stroke:#171917;stroke-width:3}.blue{stroke:#5968e7}.band{opacity:.14;fill:#20231f}.band.blue{fill:#5968e7;stroke:none}</style><rect class="plot" x="105" y="55" width="740" height="425"/><text class="axis" x="105.0" y="515" text-anchor="middle">0.0</text><text class="axis" x="246.0" y="515" text-anchor="middle">0.2</text><text class="axis" x="386.9" y="515" text-anchor="middle">0.4</text><text class="axis" x="527.9" y="515" text-anchor="middle">0.6</text><text class="axis" x="668.8" y="515" text-anchor="middle">0.8</text><text class="axis" x="809.8" y="515" text-anchor="middle">1.0</text><line class="grid" x1="105" y1="466.7" x2="845" y2="466.7"/><text class="axis" x="93" y="471.7" text-anchor="end">0.7</text><line class="grid" x1="105" y1="400.3" x2="845" y2="400.3"/><text class="axis" x="93" y="405.3" text-anchor="end">0.8</text><line class="grid" x1="105" y1="333.9" x2="845" y2="333.9"/><text class="axis" x="93" y="338.9" text-anchor="end">0.9</text><line class="grid" x1="105" y1="267.5" x2="845" y2="267.5"/><text class="axis" x="93" y="272.5" text-anchor="end">1.0</text><line class="grid" x1="105" y1="201.1" x2="845" y2="201.1"/><text class="axis" x="93" y="206.1" text-anchor="end">1.1</text><line class="grid" x1="105" y1="134.7" x2="845" y2="134.7"/><text class="axis" x="93" y="139.7" text-anchor="end">1.2</text><line class="grid" x1="105" y1="68.3" x2="845" y2="68.3"/><text class="axis" x="93" y="73.3" text-anchor="end">1.3</text><circle class="af" cx="202.5" cy="347.4" r="4"/><circle class="na" cx="494.4" cy="290.9" r="4"/><circle class="na" cx="192.4" cy="157.1" r="4"/><circle class="na" cx="193.1" cy="198.1" r="4"/><circle class="na" cx="410.4" cy="324.0" r="4"/><circle class="na" cx="105.7" cy="213.3" r="4"/><circle class="na" cx="121.2" cy="140.7" r="4"/><circle class="na" cx="504.2" cy="130.5" r="4"/><circle class="na" cx="295.0" cy="319.4" r="4"/><circle class="af" cx="307.3" cy="430.0" r="4"/><circle class="na" cx="149.1" cy="135.1" r="4"/><circle class="af" cx="121.0" cy="396.2" r="4"/><circle class="af" cx="131.8" cy="393.1" r="4"/><circle class="na" cx="126.1" cy="362.5" r="4"/><circle class="na" cx="273.1" cy="253.5" r="4"/><circle class="na" cx="131.2" cy="177.2" r="4"/><circle class="na" cx="111.2" cy="172.2" r="4"/><circle class="na" cx="367.6" cy="263.0" r="4"/><circle class="na" cx="123.6" cy="270.6" r="4"/><circle class="na" cx="174.0" cy="255.0" r="4"/><circle class="na" cx="201.9" cy="324.8" r="4"/><circle class="na" cx="132.3" cy="238.0" r="4"/><circle class="na" cx="214.4" cy="180.3" r="4"/><circle class="af" cx="125.6" cy="233.8" r="4"/><circle class="af" cx="127.4" cy="382.2" r="4"/><circle class="na" cx="193.1" cy="135.2" r="4"/><circle class="na" cx="646.0" cy="127.4" r="4"/><circle class="na" cx="386.9" cy="220.7" r="4"/><circle class="na" cx="318.4" cy="286.3" r="4"/><circle class="af" cx="130.5" cy="357.5" r="4"/><circle class="af" cx="163.5" cy="343.6" r="4"/><circle class="af" cx="155.3" cy="424.4" r="4"/><circle class="af" cx="122.3" cy="396.4" r="4"/><circle class="na" cx="205.6" cy="250.2" r="4"/><circle class="af" cx="483.2" cy="348.5" r="4"/><circle class="af" cx="374.0" cy="269.7" r="4"/><circle class="na" cx="345.0" cy="225.0" r="4"/><circle class="na" cx="413.9" cy="158.2" r="4"/><circle class="na" cx="205.5" cy="179.9" r="4"/><circle class="na" cx="172.8" cy="140.5" r="4"/><circle class="af" cx="381.4" cy="343.7" r="4"/><circle class="na" cx="105.3" cy="254.2" r="4"/><circle class="na" cx="126.5" cy="131.1" r="4"/><circle class="na" cx="291.5" cy="248.1" r="4"/><circle class="af" cx="163.0" cy="261.2" r="4"/><circle class="na" cx="250.2" cy="298.2" r="4"/><circle class="af" cx="187.2" cy="293.1" r="4"/><circle class="af" cx="386.9" cy="400.2" r="4"/><circle class="na" cx="296.9" cy="152.8" r="4"/><circle class="na" cx="119.0" cy="215.3" r="4"/><circle class="af" cx="283.4" cy="428.3" r="4"/><circle class="na" cx="142.3" cy="140.3" r="4"/><circle class="na" cx="263.6" cy="268.3" r="4"/><circle class="na" cx="229.8" cy="139.9" r="4"/><circle class="af" cx="129.8" cy="251.8" r="4"/><circle class="na" cx="169.5" cy="138.0" r="4"/><circle class="na" cx="520.8" cy="343.7" r="4"/><circle class="af" cx="130.9" cy="343.2" r="4"/><circle class="af" cx="189.1" cy="339.9" r="4"/><circle class="af" cx="145.1" cy="350.3" r="4"/><circle class="af" cx="160.8" cy="412.1" r="4"/><circle class="af" cx="168.5" cy="180.9" r="4"/><circle class="na" cx="457.6" cy="170.3" r="4"/><circle class="na" cx="342.3" cy="235.5" r="4"/><circle class="na" cx="310.3" cy="285.4" r="4"/><circle class="na" cx="136.0" cy="283.5" r="4"/><circle class="na" cx="389.2" cy="139.6" r="4"/><circle class="na" cx="349.3" cy="321.3" r="4"/><circle class="na" cx="249.0" cy="217.1" r="4"/><circle class="na" cx="373.4" cy="347.2" r="4"/><circle class="na" cx="144.3" cy="191.7" r="4"/><circle class="na" cx="214.9" cy="306.6" r="4"/><circle class="na" cx="220.1" cy="324.2" r="4"/><circle class="na" cx="163.3" cy="126.4" r="4"/><circle class="na" cx="382.8" cy="255.6" r="4"/><circle class="na" cx="272.3" cy="130.6" r="4"/><circle class="na" cx="298.7" cy="145.7" r="4"/><circle class="na" cx="384.3" cy="142.0" r="4"/><circle class="na" cx="308.2" cy="292.0" r="4"/><circle class="na" cx="229.7" cy="287.9" r="4"/><circle class="na" cx="347.3" cy="138.3" r="4"/><circle class="na" cx="147.3" cy="274.1" r="4"/><circle class="af" cx="181.0" cy="391.5" r="4"/><circle class="na" cx="592.2" cy="358.3" r="4"/><circle class="na" cx="166.4" cy="344.6" r="4"/><circle class="na" cx="105.7" cy="204.4" r="4"/><circle class="na" cx="327.7" cy="176.0" r="4"/><circle class="na" cx="132.8" cy="177.0" r="4"/><circle class="na" cx="395.1" cy="357.8" r="4"/><circle class="na" cx="581.9" cy="280.8" r="4"/><circle class="na" cx="349.0" cy="258.4" r="4"/><circle class="na" cx="178.9" cy="292.6" r="4"/><circle class="af" cx="809.8" cy="334.3" r="4"/><circle class="na" cx="124.9" cy="223.7" r="4"/><circle class="na" cx="205.1" cy="76.7" r="4"/><circle class="na" cx="122.5" cy="231.8" r="4"/><circle class="na" cx="188.2" cy="165.1" r="4"/><circle class="af" cx="379.2" cy="295.0" r="4"/><circle class="na" cx="195.8" cy="370.7" r="4"/><circle class="af" cx="237.8" cy="408.0" r="4"/><circle class="na" cx="301.8" cy="221.3" r="4"/><circle class="na" cx="407.8" cy="252.5" r="4"/><circle class="af" cx="121.7" cy="412.4" r="4"/><circle class="na" cx="278.5" cy="166.5" r="4"/><circle class="na" cx="225.1" cy="355.3" r="4"/><circle class="af" cx="174.5" cy="403.2" r="4"/><circle class="af" cx="118.1" cy="350.3" r="4"/><circle class="af" cx="212.8" cy="216.5" r="4"/><circle class="af" cx="221.7" cy="434.6" r="4"/><circle class="na" cx="219.7" cy="222.3" r="4"/><circle class="af" cx="208.7" cy="252.5" r="4"/><circle class="na" cx="285.2" cy="151.5" r="4"/><circle class="af" cx="125.2" cy="420.4" r="4"/><circle class="af" cx="140.5" cy="402.7" r="4"/><circle class="na" cx="217.7" cy="300.4" r="4"/><circle class="na" cx="109.2" cy="131.5" r="4"/><circle class="na" cx="378.7" cy="117.6" r="4"/><circle class="na" cx="678.1" cy="371.2" r="4"/><circle class="na" cx="336.6" cy="160.9" r="4"/><circle class="na" cx="231.0" cy="194.6" r="4"/><circle class="na" cx="326.5" cy="341.9" r="4"/><circle class="na" cx="280.0" cy="251.2" r="4"/><circle class="na" cx="258.1" cy="271.9" r="4"/><circle class="na" cx="335.5" cy="284.4" r="4"/><circle class="na" cx="285.6" cy="327.2" r="4"/><circle class="na" cx="138.7" cy="210.4" r="4"/><circle class="na" cx="269.4" cy="151.1" r="4"/><circle class="na" cx="253.2" cy="166.5" r="4"/><circle class="na" cx="132.8" cy="274.8" r="4"/><circle class="na" cx="340.5" cy="143.5" r="4"/><circle class="na" cx="249.0" cy="254.7" r="4"/><circle class="na" cx="211.8" cy="240.2" r="4"/><circle class="af" cx="481.0" cy="390.0" r="4"/><circle class="na" cx="208.9" cy="196.8" r="4"/><circle class="af" cx="155.2" cy="352.4" r="4"/><circle class="af" cx="132.7" cy="364.8" r="4"/><circle class="na" cx="106.8" cy="146.5" r="4"/><circle class="na" cx="280.0" cy="344.5" r="4"/><circle class="af" cx="161.6" cy="452.4" r="4"/><circle class="na" cx="303.9" cy="274.1" r="4"/><circle class="na" cx="282.3" cy="203.9" r="4"/><circle class="na" cx="388.6" cy="172.7" r="4"/><circle class="na" cx="186.2" cy="139.3" r="4"/><circle class="af" cx="453.1" cy="272.6" r="4"/><circle class="af" cx="660.1" cy="167.8" r="4"/><circle class="na" cx="190.9" cy="301.3" r="4"/><circle class="af" cx="152.6" cy="408.3" r="4"/><circle class="af" cx="136.8" cy="364.7" r="4"/><circle class="na" cx="224.4" cy="249.7" r="4"/><circle class="na" cx="707.4" cy="411.8" r="4"/><circle class="na" cx="137.3" cy="291.7" r="4"/><circle class="na" cx="192.8" cy="246.2" r="4"/><circle class="na" cx="173.5" cy="221.9" r="4"/><circle class="af" cx="187.5" cy="250.1" r="4"/><circle class="na" cx="402.7" cy="246.9" r="4"/><circle class="af" cx="181.9" cy="443.7" r="4"/><circle class="af" cx="208.7" cy="376.0" r="4"/><circle class="na" cx="152.3" cy="282.8" r="4"/><circle class="na" cx="154.4" cy="223.6" r="4"/><circle class="na" cx="226.9" cy="118.1" r="4"/><circle class="na" cx="164.8" cy="360.6" r="4"/><circle class="na" cx="454.0" cy="262.4" r="4"/><circle class="na" cx="177.0" cy="257.5" r="4"/><circle class="na" cx="338.4" cy="338.5" r="4"/><circle class="na" cx="301.5" cy="303.0" r="4"/><circle class="na" cx="295.6" cy="269.7" r="4"/><circle class="na" cx="369.0" cy="411.6" r="4"/><circle class="af" cx="305.1" cy="218.1" r="4"/><circle class="af" cx="165.6" cy="413.0" r="4"/><circle class="af" cx="240.7" cy="321.6" r="4"/><polygon class="band " points="105.0,210.9 845.0,244.9 845.0,278.1 105.0,244.1"/><line class="line" x1="105.0" y1="227.5" x2="845.0" y2="261.5"/><polygon class="band blue" points="105.0,325.5 845.0,359.4 845.0,392.6 105.0,358.7"/><line class="line blue" x1="105.0" y1="342.1" x2="845.0" y2="376.0"/><text class="ann" x="837" y="244.6" text-anchor="end">非非洲</text><text class="ann" x="837" y="395.2" text-anchor="end" fill="#5968e7">非洲</text><text class="label" x="475.0" y="548" text-anchor="middle">崎岖度（标准化）</text><text class="label" transform="translate(24,267.5) rotate(-90)" text-anchor="middle">对数 GDP（占均值比例）</text></svg>