<svg xmlns="http://www.w3.org/2000/svg" width="1200" height="720" viewBox="0 0 1200 720">
<title>图 13.3：无汇聚与部分汇聚估计的绝对误差</title>
<desc>六十个模拟池塘按初始蝌蚪数量分为四组。蓝色实心点是无汇聚估计的绝对误差，黑色空心点是部分汇聚估计的误差；小池塘误差更大，部分汇聚平均改善最明显。</desc>
<rect width="1200" height="720" fill="#fff"/>
<line x1="105.0" y1="590.0" x2="1120.0" y2="590.0" stroke="#30332e" stroke-width="2"/>
<line x1="105.0" y1="85.0" x2="105.0" y2="590.0" stroke="#30332e" stroke-width="2"/>
<line x1="98.0" y1="590.0" x2="105.0" y2="590.0" stroke="#30332e"/>
<text x="90.0" y="596.0" text-anchor="end" font-family="-apple-system,BlinkMacSystemFont,PingFang SC,Noto Sans CJK SC,sans-serif" font-size="17" font-weight="400" fill="#30332e">0.0</text>
<line x1="98.0" y1="477.8" x2="105.0" y2="477.8" stroke="#30332e"/>
<text x="90.0" y="483.8" text-anchor="end" font-family="-apple-system,BlinkMacSystemFont,PingFang SC,Noto Sans CJK SC,sans-serif" font-size="17" font-weight="400" fill="#30332e">0.1</text>
<line x1="98.0" y1="365.6" x2="105.0" y2="365.6" stroke="#30332e"/>
<text x="90.0" y="371.6" text-anchor="end" font-family="-apple-system,BlinkMacSystemFont,PingFang SC,Noto Sans CJK SC,sans-serif" font-size="17" font-weight="400" fill="#30332e">0.2</text>
<line x1="98.0" y1="253.3" x2="105.0" y2="253.3" stroke="#30332e"/>
<text x="90.0" y="259.3" text-anchor="end" font-family="-apple-system,BlinkMacSystemFont,PingFang SC,Noto Sans CJK SC,sans-serif" font-size="17" font-weight="400" fill="#30332e">0.3</text>
<line x1="98.0" y1="141.1" x2="105.0" y2="141.1" stroke="#30332e"/>
<text x="90.0" y="147.1" text-anchor="end" font-family="-apple-system,BlinkMacSystemFont,PingFang SC,Noto Sans CJK SC,sans-serif" font-size="17" font-weight="400" fill="#30332e">0.4</text>
<line x1="105.0" y1="590.0" x2="105.0" y2="597.0" stroke="#30332e"/>
<text x="105.0" y="619.0" text-anchor="middle" font-family="-apple-system,BlinkMacSystemFont,PingFang SC,Noto Sans CJK SC,sans-serif" font-size="17" font-weight="400" fill="#30332e">1</text>
<line x1="259.8" y1="590.0" x2="259.8" y2="597.0" stroke="#30332e"/>
<text x="259.8" y="619.0" text-anchor="middle" font-family="-apple-system,BlinkMacSystemFont,PingFang SC,Noto Sans CJK SC,sans-serif" font-size="17" font-weight="400" fill="#30332e">10</text>
<line x1="431.9" y1="590.0" x2="431.9" y2="597.0" stroke="#30332e"/>
<text x="431.9" y="619.0" text-anchor="middle" font-family="-apple-system,BlinkMacSystemFont,PingFang SC,Noto Sans CJK SC,sans-serif" font-size="17" font-weight="400" fill="#30332e">20</text>
<line x1="603.9" y1="590.0" x2="603.9" y2="597.0" stroke="#30332e"/>
<text x="603.9" y="619.0" text-anchor="middle" font-family="-apple-system,BlinkMacSystemFont,PingFang SC,Noto Sans CJK SC,sans-serif" font-size="17" font-weight="400" fill="#30332e">30</text>
<line x1="775.9" y1="590.0" x2="775.9" y2="597.0" stroke="#30332e"/>
<text x="775.9" y="619.0" text-anchor="middle" font-family="-apple-system,BlinkMacSystemFont,PingFang SC,Noto Sans CJK SC,sans-serif" font-size="17" font-weight="400" fill="#30332e">40</text>
<line x1="948.0" y1="590.0" x2="948.0" y2="597.0" stroke="#30332e"/>
<text x="948.0" y="619.0" text-anchor="middle" font-family="-apple-system,BlinkMacSystemFont,PingFang SC,Noto Sans CJK SC,sans-serif" font-size="17" font-weight="400" fill="#30332e">50</text>
<line x1="1120.0" y1="590.0" x2="1120.0" y2="597.0" stroke="#30332e"/>
<text x="1120.0" y="619.0" text-anchor="middle" font-family="-apple-system,BlinkMacSystemFont,PingFang SC,Noto Sans CJK SC,sans-serif" font-size="17" font-weight="400" fill="#30332e">60</text>
<line x1="354.4" y1="85.0" x2="354.4" y2="590.0" stroke="#777" stroke-width="1.4"/>
<line x1="612.5" y1="85.0" x2="612.5" y2="590.0" stroke="#777" stroke-width="1.4"/>
<line x1="870.6" y1="85.0" x2="870.6" y2="590.0" stroke="#777" stroke-width="1.4"/>
<text x="225.4" y="90.0" text-anchor="middle" font-family="-apple-system,BlinkMacSystemFont,PingFang SC,Noto Sans CJK SC,sans-serif" font-size="18" font-weight="400" fill="#30332e">极小池塘（5）</text>
<line x1="105.0" y1="454.0" x2="345.8" y2="454.0" stroke="#6670ee" stroke-width="3"/>
<line x1="105.0" y1="494.0" x2="345.8" y2="494.0" stroke="#30332e" stroke-width="3" stroke-dasharray="9 7"/>
<text x="483.5" y="90.0" text-anchor="middle" font-family="-apple-system,BlinkMacSystemFont,PingFang SC,Noto Sans CJK SC,sans-serif" font-size="18" font-weight="400" fill="#30332e">小池塘（10）</text>
<line x1="363.1" y1="475.0" x2="603.9" y2="475.0" stroke="#6670ee" stroke-width="3"/>
<line x1="363.1" y1="505.4" x2="603.9" y2="505.4" stroke="#30332e" stroke-width="3" stroke-dasharray="9 7"/>
<text x="741.5" y="90.0" text-anchor="middle" font-family="-apple-system,BlinkMacSystemFont,PingFang SC,Noto Sans CJK SC,sans-serif" font-size="18" font-weight="400" fill="#30332e">中池塘（25）</text>
<line x1="621.1" y1="544.5" x2="861.9" y2="544.5" stroke="#6670ee" stroke-width="3"/>
<line x1="621.1" y1="535.0" x2="861.9" y2="535.0" stroke="#30332e" stroke-width="3" stroke-dasharray="9 7"/>
<text x="999.6" y="90.0" text-anchor="middle" font-family="-apple-system,BlinkMacSystemFont,PingFang SC,Noto Sans CJK SC,sans-serif" font-size="18" font-weight="400" fill="#30332e">大池塘（35）</text>
<line x1="879.2" y1="549.8" x2="1120.0" y2="549.8" stroke="#6670ee" stroke-width="3"/>
<line x1="879.2" y1="549.7" x2="1120.0" y2="549.7" stroke="#30332e" stroke-width="3" stroke-dasharray="9 7"/>
<circle cx="105.0" cy="408.2" r="6.5" fill="#6670ee"/>
<circle cx="105.0" cy="412.4" r="6.5" fill="#fff" stroke="#30332e" stroke-width="2"/>
<circle cx="122.2" cy="455.0" r="6.5" fill="#6670ee"/>
<circle cx="122.2" cy="552.6" r="6.5" fill="#fff" stroke="#30332e" stroke-width="2"/>
<circle cx="139.4" cy="291.9" r="6.5" fill="#6670ee"/>
<circle cx="139.4" cy="487.3" r="6.5" fill="#fff" stroke="#30332e" stroke-width="2"/>
<circle cx="156.6" cy="438.4" r="6.5" fill="#6670ee"/>
<circle cx="156.6" cy="545.6" r="6.5" fill="#fff" stroke="#30332e" stroke-width="2"/>
<circle cx="173.8" cy="568.0" r="6.5" fill="#6670ee"/>
<circle cx="173.8" cy="511.3" r="6.5" fill="#fff" stroke="#30332e" stroke-width="2"/>
<circle cx="191.0" cy="450.7" r="6.5" fill="#6670ee"/>
<circle cx="191.0" cy="552.3" r="6.5" fill="#fff" stroke="#30332e" stroke-width="2"/>
<circle cx="208.2" cy="123.1" r="6.5" fill="#6670ee"/>
<circle cx="208.2" cy="244.5" r="6.5" fill="#fff" stroke="#30332e" stroke-width="2"/>
<circle cx="225.4" cy="506.7" r="6.5" fill="#6670ee"/>
<circle cx="225.4" cy="573.2" r="6.5" fill="#fff" stroke="#30332e" stroke-width="2"/>
<circle cx="242.6" cy="479.7" r="6.5" fill="#6670ee"/>
<circle cx="242.6" cy="473.4" r="6.5" fill="#fff" stroke="#30332e" stroke-width="2"/>
<circle cx="259.8" cy="493.8" r="6.5" fill="#6670ee"/>
<circle cx="259.8" cy="492.5" r="6.5" fill="#fff" stroke="#30332e" stroke-width="2"/>
<circle cx="277.0" cy="522.3" r="6.5" fill="#6670ee"/>
<circle cx="277.0" cy="556.3" r="6.5" fill="#fff" stroke="#30332e" stroke-width="2"/>
<circle cx="294.2" cy="529.3" r="6.5" fill="#6670ee"/>
<circle cx="294.2" cy="393.9" r="6.5" fill="#fff" stroke="#30332e" stroke-width="2"/>
<circle cx="311.4" cy="538.7" r="6.5" fill="#6670ee"/>
<circle cx="311.4" cy="542.1" r="6.5" fill="#fff" stroke="#30332e" stroke-width="2"/>
<circle cx="328.6" cy="444.9" r="6.5" fill="#6670ee"/>
<circle cx="328.6" cy="544.4" r="6.5" fill="#fff" stroke="#30332e" stroke-width="2"/>
<circle cx="345.8" cy="558.4" r="6.5" fill="#6670ee"/>
<circle cx="345.8" cy="527.5" r="6.5" fill="#fff" stroke="#30332e" stroke-width="2"/>
<circle cx="363.1" cy="430.0" r="6.5" fill="#6670ee"/>
<circle cx="363.1" cy="431.8" r="6.5" fill="#fff" stroke="#30332e" stroke-width="2"/>
<circle cx="380.3" cy="436.3" r="6.5" fill="#6670ee"/>
<circle cx="380.3" cy="564.8" r="6.5" fill="#fff" stroke="#30332e" stroke-width="2"/>
<circle cx="397.5" cy="527.9" r="6.5" fill="#6670ee"/>
<circle cx="397.5" cy="504.1" r="6.5" fill="#fff" stroke="#30332e" stroke-width="2"/>
<circle cx="414.7" cy="146.6" r="6.5" fill="#6670ee"/>
<circle cx="414.7" cy="260.8" r="6.5" fill="#fff" stroke="#30332e" stroke-width="2"/>
<circle cx="431.9" cy="519.1" r="6.5" fill="#6670ee"/>
<circle cx="431.9" cy="518.6" r="6.5" fill="#fff" stroke="#30332e" stroke-width="2"/>
<circle cx="449.1" cy="458.1" r="6.5" fill="#6670ee"/>
<circle cx="449.1" cy="526.7" r="6.5" fill="#fff" stroke="#30332e" stroke-width="2"/>
<circle cx="466.3" cy="471.1" r="6.5" fill="#6670ee"/>
<circle cx="466.3" cy="495.9" r="6.5" fill="#fff" stroke="#30332e" stroke-width="2"/>
<circle cx="483.5" cy="501.4" r="6.5" fill="#6670ee"/>
<circle cx="483.5" cy="570.9" r="6.5" fill="#fff" stroke="#30332e" stroke-width="2"/>
<circle cx="500.7" cy="463.0" r="6.5" fill="#6670ee"/>
<circle cx="500.7" cy="421.5" r="6.5" fill="#fff" stroke="#30332e" stroke-width="2"/>
<circle cx="517.9" cy="478.7" r="6.5" fill="#6670ee"/>
<circle cx="517.9" cy="546.5" r="6.5" fill="#fff" stroke="#30332e" stroke-width="2"/>
<circle cx="535.1" cy="547.0" r="6.5" fill="#6670ee"/>
<circle cx="535.1" cy="569.9" r="6.5" fill="#fff" stroke="#30332e" stroke-width="2"/>
<circle cx="552.3" cy="486.2" r="6.5" fill="#6670ee"/>
<circle cx="552.3" cy="509.2" r="6.5" fill="#fff" stroke="#30332e" stroke-width="2"/>
<circle cx="569.5" cy="509.3" r="6.5" fill="#6670ee"/>
<circle cx="569.5" cy="537.7" r="6.5" fill="#fff" stroke="#30332e" stroke-width="2"/>
<circle cx="586.7" cy="565.4" r="6.5" fill="#6670ee"/>
<circle cx="586.7" cy="563.2" r="6.5" fill="#fff" stroke="#30332e" stroke-width="2"/>
<circle cx="603.9" cy="585.1" r="6.5" fill="#6670ee"/>
<circle cx="603.9" cy="559.2" r="6.5" fill="#fff" stroke="#30332e" stroke-width="2"/>
<circle cx="621.1" cy="573.7" r="6.5" fill="#6670ee"/>
<circle cx="621.1" cy="561.5" r="6.5" fill="#fff" stroke="#30332e" stroke-width="2"/>
<circle cx="638.3" cy="579.7" r="6.5" fill="#6670ee"/>
<circle cx="638.3" cy="570.3" r="6.5" fill="#fff" stroke="#30332e" stroke-width="2"/>
<circle cx="655.5" cy="566.1" r="6.5" fill="#6670ee"/>
<circle cx="655.5" cy="567.6" r="6.5" fill="#fff" stroke="#30332e" stroke-width="2"/>
<circle cx="672.7" cy="526.3" r="6.5" fill="#6670ee"/>
<circle cx="672.7" cy="517.2" r="6.5" fill="#fff" stroke="#30332e" stroke-width="2"/>
<circle cx="689.9" cy="496.4" r="6.5" fill="#6670ee"/>
<circle cx="689.9" cy="479.4" r="6.5" fill="#fff" stroke="#30332e" stroke-width="2"/>
<circle cx="707.1" cy="579.0" r="6.5" fill="#6670ee"/>
<circle cx="707.1" cy="564.6" r="6.5" fill="#fff" stroke="#30332e" stroke-width="2"/>
<circle cx="724.3" cy="486.6" r="6.5" fill="#6670ee"/>
<circle cx="724.3" cy="441.8" r="6.5" fill="#fff" stroke="#30332e" stroke-width="2"/>
<circle cx="741.5" cy="519.9" r="6.5" fill="#6670ee"/>
<circle cx="741.5" cy="565.3" r="6.5" fill="#fff" stroke="#30332e" stroke-width="2"/>
<circle cx="758.7" cy="499.4" r="6.5" fill="#6670ee"/>
<circle cx="758.7" cy="483.6" r="6.5" fill="#fff" stroke="#30332e" stroke-width="2"/>
<circle cx="775.9" cy="584.7" r="6.5" fill="#6670ee"/>
<circle cx="775.9" cy="557.3" r="6.5" fill="#fff" stroke="#30332e" stroke-width="2"/>
<circle cx="793.1" cy="566.5" r="6.5" fill="#6670ee"/>
<circle cx="793.1" cy="576.6" r="6.5" fill="#fff" stroke="#30332e" stroke-width="2"/>
<circle cx="810.3" cy="522.8" r="6.5" fill="#6670ee"/>
<circle cx="810.3" cy="539.0" r="6.5" fill="#fff" stroke="#30332e" stroke-width="2"/>
<circle cx="827.5" cy="562.1" r="6.5" fill="#6670ee"/>
<circle cx="827.5" cy="530.5" r="6.5" fill="#fff" stroke="#30332e" stroke-width="2"/>
<circle cx="844.7" cy="543.3" r="6.5" fill="#6670ee"/>
<circle cx="844.7" cy="560.8" r="6.5" fill="#fff" stroke="#30332e" stroke-width="2"/>
<circle cx="861.9" cy="560.5" r="6.5" fill="#6670ee"/>
<circle cx="861.9" cy="509.3" r="6.5" fill="#fff" stroke="#30332e" stroke-width="2"/>
<circle cx="879.2" cy="582.3" r="6.5" fill="#6670ee"/>
<circle cx="879.2" cy="562.3" r="6.5" fill="#fff" stroke="#30332e" stroke-width="2"/>
<circle cx="896.4" cy="576.1" r="6.5" fill="#6670ee"/>
<circle cx="896.4" cy="575.0" r="6.5" fill="#fff" stroke="#30332e" stroke-width="2"/>
<circle cx="913.6" cy="561.6" r="6.5" fill="#6670ee"/>
<circle cx="913.6" cy="557.3" r="6.5" fill="#fff" stroke="#30332e" stroke-width="2"/>
<circle cx="930.8" cy="588.6" r="6.5" fill="#6670ee"/>
<circle cx="930.8" cy="589.3" r="6.5" fill="#fff" stroke="#30332e" stroke-width="2"/>
<circle cx="948.0" cy="504.3" r="6.5" fill="#6670ee"/>
<circle cx="948.0" cy="516.2" r="6.5" fill="#fff" stroke="#30332e" stroke-width="2"/>
<circle cx="965.2" cy="494.8" r="6.5" fill="#6670ee"/>
<circle cx="965.2" cy="504.7" r="6.5" fill="#fff" stroke="#30332e" stroke-width="2"/>
<circle cx="982.4" cy="553.4" r="6.5" fill="#6670ee"/>
<circle cx="982.4" cy="538.6" r="6.5" fill="#fff" stroke="#30332e" stroke-width="2"/>
<circle cx="999.6" cy="514.1" r="6.5" fill="#6670ee"/>
<circle cx="999.6" cy="518.6" r="6.5" fill="#fff" stroke="#30332e" stroke-width="2"/>
<circle cx="1016.8" cy="577.6" r="6.5" fill="#6670ee"/>
<circle cx="1016.8" cy="573.5" r="6.5" fill="#fff" stroke="#30332e" stroke-width="2"/>
<circle cx="1034.0" cy="471.9" r="6.5" fill="#6670ee"/>
<circle cx="1034.0" cy="462.6" r="6.5" fill="#fff" stroke="#30332e" stroke-width="2"/>
<circle cx="1051.2" cy="573.5" r="6.5" fill="#6670ee"/>
<circle cx="1051.2" cy="587.6" r="6.5" fill="#fff" stroke="#30332e" stroke-width="2"/>
<circle cx="1068.4" cy="568.7" r="6.5" fill="#6670ee"/>
<circle cx="1068.4" cy="558.8" r="6.5" fill="#fff" stroke="#30332e" stroke-width="2"/>
<circle cx="1085.6" cy="522.3" r="6.5" fill="#6670ee"/>
<circle cx="1085.6" cy="551.3" r="6.5" fill="#fff" stroke="#30332e" stroke-width="2"/>
<circle cx="1102.8" cy="578.4" r="6.5" fill="#6670ee"/>
<circle cx="1102.8" cy="579.2" r="6.5" fill="#fff" stroke="#30332e" stroke-width="2"/>
<circle cx="1120.0" cy="579.1" r="6.5" fill="#6670ee"/>
<circle cx="1120.0" cy="570.4" r="6.5" fill="#fff" stroke="#30332e" stroke-width="2"/>
<text x="612.5" y="670.0" text-anchor="middle" font-family="-apple-system,BlinkMacSystemFont,PingFang SC,Noto Sans CJK SC,sans-serif" font-size="22" font-weight="400" fill="#30332e">池塘编号</text>
<text x="30.0" y="337.5" text-anchor="middle" font-family="-apple-system,BlinkMacSystemFont,PingFang SC,Noto Sans CJK SC,sans-serif" font-size="22" font-weight="400" fill="#30332e" transform="rotate(-90 30 337.5)">绝对误差</text>
<circle cx="800" cy="690" r="6.5" fill="#6670ee"/>
<text x="818.0" y="696.0" text-anchor="start" font-family="-apple-system,BlinkMacSystemFont,PingFang SC,Noto Sans CJK SC,sans-serif" font-size="17" font-weight="400" fill="#30332e">无汇聚</text>
<circle cx="930" cy="690" r="6.5" fill="#fff" stroke="#30332e" stroke-width="2"/>
<text x="948.0" y="696.0" text-anchor="start" font-family="-apple-system,BlinkMacSystemFont,PingFang SC,Noto Sans CJK SC,sans-serif" font-size="17" font-weight="400" fill="#30332e">部分汇聚</text>
</svg>