<?xml version="1.0" encoding="UTF-8"?>
<svg xmlns="http://www.w3.org/2000/svg" width="1000" height="920" viewBox="0 0 1000 920" role="img">
<title>灵长类乳汁能量、脂肪和乳糖的变量对图</title>
<desc>脂肪与乳糖强烈负相关，并分别与乳汁能量正相关和负相关。</desc>
<rect width="100%" height="100%" fill="#fff"/>
<rect x="75" y="75" width="245" height="245" fill="#fff" stroke="#d0d2cf"/>
<text x="197.5" y="197.5" text-anchor="middle" font-family="PingFang SC, Noto Sans CJK SC, Microsoft YaHei, sans-serif" font-size="22" font-weight="700" fill="#263f86">每克乳汁千卡</text>
<rect x="375" y="75" width="245" height="245" fill="#fff" stroke="#d0d2cf"/>
<circle cx="459.54" cy="304.82" r="4.2" fill="#fff" stroke="#6670ee" stroke-width="1.8"/>
<circle cx="494.77" cy="217.93" r="4.2" fill="#fff" stroke="#6670ee" stroke-width="1.8"/>
<circle cx="567.80" cy="142.22" r="4.2" fill="#fff" stroke="#6670ee" stroke-width="1.8"/>
<circle cx="503.75" cy="212.88" r="4.2" fill="#fff" stroke="#6670ee" stroke-width="1.8"/>
<circle cx="520.01" cy="232.11" r="4.2" fill="#fff" stroke="#6670ee" stroke-width="1.8"/>
<circle cx="600.15" cy="122.44" r="4.2" fill="#fff" stroke="#6670ee" stroke-width="1.8"/>
<circle cx="485.56" cy="247.60" r="4.2" fill="#fff" stroke="#6670ee" stroke-width="1.8"/>
<circle cx="479.95" cy="289.89" r="4.2" fill="#fff" stroke="#6670ee" stroke-width="1.8"/>
<circle cx="505.09" cy="256.63" r="4.2" fill="#fff" stroke="#6670ee" stroke-width="1.8"/>
<circle cx="406.05" cy="346.98" r="4.2" fill="#fff" stroke="#6670ee" stroke-width="1.8"/>
<circle cx="456.84" cy="278.87" r="4.2" fill="#fff" stroke="#6670ee" stroke-width="1.8"/>
<circle cx="475.54" cy="269.97" r="4.2" fill="#fff" stroke="#6670ee" stroke-width="1.8"/>
<circle cx="537.15" cy="197.97" r="4.2" fill="#fff" stroke="#6670ee" stroke-width="1.8"/>
<circle cx="559.99" cy="183.06" r="4.2" fill="#fff" stroke="#6670ee" stroke-width="1.8"/>
<circle cx="417.21" cy="317.62" r="4.2" fill="#fff" stroke="#6670ee" stroke-width="1.8"/>
<circle cx="463.22" cy="281.53" r="4.2" fill="#fff" stroke="#6670ee" stroke-width="1.8"/>
<circle cx="517.76" cy="170.83" r="4.2" fill="#fff" stroke="#6670ee" stroke-width="1.8"/>
<circle cx="555.40" cy="147.81" r="4.2" fill="#fff" stroke="#6670ee" stroke-width="1.8"/>
<circle cx="414.74" cy="332.94" r="4.2" fill="#fff" stroke="#6670ee" stroke-width="1.8"/>
<circle cx="429.06" cy="300.26" r="4.2" fill="#fff" stroke="#6670ee" stroke-width="1.8"/>
<circle cx="479.35" cy="276.43" r="4.2" fill="#fff" stroke="#6670ee" stroke-width="1.8"/>
<circle cx="497.35" cy="203.78" r="4.2" fill="#fff" stroke="#6670ee" stroke-width="1.8"/>
<circle cx="515.86" cy="218.14" r="4.2" fill="#fff" stroke="#6670ee" stroke-width="1.8"/>
<circle cx="523.47" cy="224.23" r="4.2" fill="#fff" stroke="#6670ee" stroke-width="1.8"/>
<circle cx="571.58" cy="150.34" r="4.2" fill="#fff" stroke="#6670ee" stroke-width="1.8"/>
<circle cx="465.14" cy="262.81" r="4.2" fill="#fff" stroke="#6670ee" stroke-width="1.8"/>
<circle cx="512.41" cy="237.55" r="4.2" fill="#fff" stroke="#6670ee" stroke-width="1.8"/>
<circle cx="416.91" cy="299.82" r="4.2" fill="#fff" stroke="#6670ee" stroke-width="1.8"/>
<circle cx="567.92" cy="162.63" r="4.2" fill="#fff" stroke="#6670ee" stroke-width="1.8"/>
<rect x="675" y="75" width="245" height="245" fill="#fff" stroke="#d0d2cf"/>
<circle cx="837.67" cy="304.82" r="4.2" fill="#fff" stroke="#6670ee" stroke-width="1.8"/>
<circle cx="760.62" cy="217.93" r="4.2" fill="#fff" stroke="#6670ee" stroke-width="1.8"/>
<circle cx="756.28" cy="142.22" r="4.2" fill="#fff" stroke="#6670ee" stroke-width="1.8"/>
<circle cx="761.81" cy="212.88" r="4.2" fill="#fff" stroke="#6670ee" stroke-width="1.8"/>
<circle cx="776.19" cy="232.11" r="4.2" fill="#fff" stroke="#6670ee" stroke-width="1.8"/>
<circle cx="726.69" cy="122.44" r="4.2" fill="#fff" stroke="#6670ee" stroke-width="1.8"/>
<circle cx="805.36" cy="247.60" r="4.2" fill="#fff" stroke="#6670ee" stroke-width="1.8"/>
<circle cx="829.10" cy="289.89" r="4.2" fill="#fff" stroke="#6670ee" stroke-width="1.8"/>
<circle cx="775.75" cy="256.63" r="4.2" fill="#fff" stroke="#6670ee" stroke-width="1.8"/>
<circle cx="841.48" cy="346.98" r="4.2" fill="#fff" stroke="#6670ee" stroke-width="1.8"/>
<circle cx="830.89" cy="278.87" r="4.2" fill="#fff" stroke="#6670ee" stroke-width="1.8"/>
<circle cx="816.22" cy="269.97" r="4.2" fill="#fff" stroke="#6670ee" stroke-width="1.8"/>
<circle cx="767.25" cy="197.97" r="4.2" fill="#fff" stroke="#6670ee" stroke-width="1.8"/>
<circle cx="763.79" cy="183.06" r="4.2" fill="#fff" stroke="#6670ee" stroke-width="1.8"/>
<circle cx="839.46" cy="317.62" r="4.2" fill="#fff" stroke="#6670ee" stroke-width="1.8"/>
<circle cx="850.83" cy="281.53" r="4.2" fill="#fff" stroke="#6670ee" stroke-width="1.8"/>
<circle cx="785.01" cy="170.83" r="4.2" fill="#fff" stroke="#6670ee" stroke-width="1.8"/>
<circle cx="745.33" cy="147.81" r="4.2" fill="#fff" stroke="#6670ee" stroke-width="1.8"/>
<circle cx="838.14" cy="332.94" r="4.2" fill="#fff" stroke="#6670ee" stroke-width="1.8"/>
<circle cx="856.15" cy="300.26" r="4.2" fill="#fff" stroke="#6670ee" stroke-width="1.8"/>
<circle cx="809.06" cy="276.43" r="4.2" fill="#fff" stroke="#6670ee" stroke-width="1.8"/>
<circle cx="793.22" cy="203.78" r="4.2" fill="#fff" stroke="#6670ee" stroke-width="1.8"/>
<circle cx="775.50" cy="218.14" r="4.2" fill="#fff" stroke="#6670ee" stroke-width="1.8"/>
<circle cx="735.65" cy="224.23" r="4.2" fill="#fff" stroke="#6670ee" stroke-width="1.8"/>
<circle cx="711.22" cy="150.34" r="4.2" fill="#fff" stroke="#6670ee" stroke-width="1.8"/>
<circle cx="810.99" cy="262.81" r="4.2" fill="#fff" stroke="#6670ee" stroke-width="1.8"/>
<circle cx="800.00" cy="237.55" r="4.2" fill="#fff" stroke="#6670ee" stroke-width="1.8"/>
<circle cx="853.47" cy="299.82" r="4.2" fill="#fff" stroke="#6670ee" stroke-width="1.8"/>
<circle cx="717.56" cy="162.63" r="4.2" fill="#fff" stroke="#6670ee" stroke-width="1.8"/>
<rect x="75" y="375" width="245" height="245" fill="#fff" stroke="#d0d2cf"/>
<circle cx="90.18" cy="535.46" r="4.2" fill="#fff" stroke="#6670ee" stroke-width="1.8"/>
<circle cx="177.07" cy="500.23" r="4.2" fill="#fff" stroke="#6670ee" stroke-width="1.8"/>
<circle cx="252.78" cy="427.20" r="4.2" fill="#fff" stroke="#6670ee" stroke-width="1.8"/>
<circle cx="182.12" cy="491.25" r="4.2" fill="#fff" stroke="#6670ee" stroke-width="1.8"/>
<circle cx="162.89" cy="474.99" r="4.2" fill="#fff" stroke="#6670ee" stroke-width="1.8"/>
<circle cx="272.56" cy="394.85" r="4.2" fill="#fff" stroke="#6670ee" stroke-width="1.8"/>
<circle cx="147.40" cy="509.44" r="4.2" fill="#fff" stroke="#6670ee" stroke-width="1.8"/>
<circle cx="105.11" cy="515.05" r="4.2" fill="#fff" stroke="#6670ee" stroke-width="1.8"/>
<circle cx="138.37" cy="489.91" r="4.2" fill="#fff" stroke="#6670ee" stroke-width="1.8"/>
<circle cx="48.02" cy="588.95" r="4.2" fill="#fff" stroke="#6670ee" stroke-width="1.8"/>
<circle cx="116.13" cy="538.16" r="4.2" fill="#fff" stroke="#6670ee" stroke-width="1.8"/>
<circle cx="125.03" cy="519.46" r="4.2" fill="#fff" stroke="#6670ee" stroke-width="1.8"/>
<circle cx="197.03" cy="457.85" r="4.2" fill="#fff" stroke="#6670ee" stroke-width="1.8"/>
<circle cx="211.94" cy="435.01" r="4.2" fill="#fff" stroke="#6670ee" stroke-width="1.8"/>
<circle cx="77.38" cy="577.79" r="4.2" fill="#fff" stroke="#6670ee" stroke-width="1.8"/>
<circle cx="113.47" cy="531.78" r="4.2" fill="#fff" stroke="#6670ee" stroke-width="1.8"/>
<circle cx="224.17" cy="477.24" r="4.2" fill="#fff" stroke="#6670ee" stroke-width="1.8"/>
<circle cx="247.19" cy="439.60" r="4.2" fill="#fff" stroke="#6670ee" stroke-width="1.8"/>
<circle cx="62.06" cy="580.26" r="4.2" fill="#fff" stroke="#6670ee" stroke-width="1.8"/>
<circle cx="94.74" cy="565.94" r="4.2" fill="#fff" stroke="#6670ee" stroke-width="1.8"/>
<circle cx="118.57" cy="515.65" r="4.2" fill="#fff" stroke="#6670ee" stroke-width="1.8"/>
<circle cx="191.22" cy="497.65" r="4.2" fill="#fff" stroke="#6670ee" stroke-width="1.8"/>
<circle cx="176.86" cy="479.14" r="4.2" fill="#fff" stroke="#6670ee" stroke-width="1.8"/>
<circle cx="170.77" cy="471.53" r="4.2" fill="#fff" stroke="#6670ee" stroke-width="1.8"/>
<circle cx="244.66" cy="423.42" r="4.2" fill="#fff" stroke="#6670ee" stroke-width="1.8"/>
<circle cx="132.19" cy="529.86" r="4.2" fill="#fff" stroke="#6670ee" stroke-width="1.8"/>
<circle cx="157.45" cy="482.59" r="4.2" fill="#fff" stroke="#6670ee" stroke-width="1.8"/>
<circle cx="95.18" cy="578.09" r="4.2" fill="#fff" stroke="#6670ee" stroke-width="1.8"/>
<circle cx="232.37" cy="427.08" r="4.2" fill="#fff" stroke="#6670ee" stroke-width="1.8"/>
<rect x="375" y="375" width="245" height="245" fill="#fff" stroke="#d0d2cf"/>
<text x="497.5" y="497.5" text-anchor="middle" font-family="PingFang SC, Noto Sans CJK SC, Microsoft YaHei, sans-serif" font-size="22" font-weight="700" fill="#263f86">脂肪百分比</text>
<rect x="675" y="375" width="245" height="245" fill="#fff" stroke="#d0d2cf"/>
<circle cx="837.67" cy="535.46" r="4.2" fill="#fff" stroke="#6670ee" stroke-width="1.8"/>
<circle cx="760.62" cy="500.23" r="4.2" fill="#fff" stroke="#6670ee" stroke-width="1.8"/>
<circle cx="756.28" cy="427.20" r="4.2" fill="#fff" stroke="#6670ee" stroke-width="1.8"/>
<circle cx="761.81" cy="491.25" r="4.2" fill="#fff" stroke="#6670ee" stroke-width="1.8"/>
<circle cx="776.19" cy="474.99" r="4.2" fill="#fff" stroke="#6670ee" stroke-width="1.8"/>
<circle cx="726.69" cy="394.85" r="4.2" fill="#fff" stroke="#6670ee" stroke-width="1.8"/>
<circle cx="805.36" cy="509.44" r="4.2" fill="#fff" stroke="#6670ee" stroke-width="1.8"/>
<circle cx="829.10" cy="515.05" r="4.2" fill="#fff" stroke="#6670ee" stroke-width="1.8"/>
<circle cx="775.75" cy="489.91" r="4.2" fill="#fff" stroke="#6670ee" stroke-width="1.8"/>
<circle cx="841.48" cy="588.95" r="4.2" fill="#fff" stroke="#6670ee" stroke-width="1.8"/>
<circle cx="830.89" cy="538.16" r="4.2" fill="#fff" stroke="#6670ee" stroke-width="1.8"/>
<circle cx="816.22" cy="519.46" r="4.2" fill="#fff" stroke="#6670ee" stroke-width="1.8"/>
<circle cx="767.25" cy="457.85" r="4.2" fill="#fff" stroke="#6670ee" stroke-width="1.8"/>
<circle cx="763.79" cy="435.01" r="4.2" fill="#fff" stroke="#6670ee" stroke-width="1.8"/>
<circle cx="839.46" cy="577.79" r="4.2" fill="#fff" stroke="#6670ee" stroke-width="1.8"/>
<circle cx="850.83" cy="531.78" r="4.2" fill="#fff" stroke="#6670ee" stroke-width="1.8"/>
<circle cx="785.01" cy="477.24" r="4.2" fill="#fff" stroke="#6670ee" stroke-width="1.8"/>
<circle cx="745.33" cy="439.60" r="4.2" fill="#fff" stroke="#6670ee" stroke-width="1.8"/>
<circle cx="838.14" cy="580.26" r="4.2" fill="#fff" stroke="#6670ee" stroke-width="1.8"/>
<circle cx="856.15" cy="565.94" r="4.2" fill="#fff" stroke="#6670ee" stroke-width="1.8"/>
<circle cx="809.06" cy="515.65" r="4.2" fill="#fff" stroke="#6670ee" stroke-width="1.8"/>
<circle cx="793.22" cy="497.65" r="4.2" fill="#fff" stroke="#6670ee" stroke-width="1.8"/>
<circle cx="775.50" cy="479.14" r="4.2" fill="#fff" stroke="#6670ee" stroke-width="1.8"/>
<circle cx="735.65" cy="471.53" r="4.2" fill="#fff" stroke="#6670ee" stroke-width="1.8"/>
<circle cx="711.22" cy="423.42" r="4.2" fill="#fff" stroke="#6670ee" stroke-width="1.8"/>
<circle cx="810.99" cy="529.86" r="4.2" fill="#fff" stroke="#6670ee" stroke-width="1.8"/>
<circle cx="800.00" cy="482.59" r="4.2" fill="#fff" stroke="#6670ee" stroke-width="1.8"/>
<circle cx="853.47" cy="578.09" r="4.2" fill="#fff" stroke="#6670ee" stroke-width="1.8"/>
<circle cx="717.56" cy="427.08" r="4.2" fill="#fff" stroke="#6670ee" stroke-width="1.8"/>
<rect x="75" y="675" width="245" height="245" fill="#fff" stroke="#d0d2cf"/>
<circle cx="90.18" cy="757.33" r="4.2" fill="#fff" stroke="#6670ee" stroke-width="1.8"/>
<circle cx="177.07" cy="834.38" r="4.2" fill="#fff" stroke="#6670ee" stroke-width="1.8"/>
<circle cx="252.78" cy="838.72" r="4.2" fill="#fff" stroke="#6670ee" stroke-width="1.8"/>
<circle cx="182.12" cy="833.19" r="4.2" fill="#fff" stroke="#6670ee" stroke-width="1.8"/>
<circle cx="162.89" cy="818.81" r="4.2" fill="#fff" stroke="#6670ee" stroke-width="1.8"/>
<circle cx="272.56" cy="868.31" r="4.2" fill="#fff" stroke="#6670ee" stroke-width="1.8"/>
<circle cx="147.40" cy="789.64" r="4.2" fill="#fff" stroke="#6670ee" stroke-width="1.8"/>
<circle cx="105.11" cy="765.90" r="4.2" fill="#fff" stroke="#6670ee" stroke-width="1.8"/>
<circle cx="138.37" cy="819.25" r="4.2" fill="#fff" stroke="#6670ee" stroke-width="1.8"/>
<circle cx="48.02" cy="753.52" r="4.2" fill="#fff" stroke="#6670ee" stroke-width="1.8"/>
<circle cx="116.13" cy="764.11" r="4.2" fill="#fff" stroke="#6670ee" stroke-width="1.8"/>
<circle cx="125.03" cy="778.78" r="4.2" fill="#fff" stroke="#6670ee" stroke-width="1.8"/>
<circle cx="197.03" cy="827.75" r="4.2" fill="#fff" stroke="#6670ee" stroke-width="1.8"/>
<circle cx="211.94" cy="831.21" r="4.2" fill="#fff" stroke="#6670ee" stroke-width="1.8"/>
<circle cx="77.38" cy="755.54" r="4.2" fill="#fff" stroke="#6670ee" stroke-width="1.8"/>
<circle cx="113.47" cy="744.17" r="4.2" fill="#fff" stroke="#6670ee" stroke-width="1.8"/>
<circle cx="224.17" cy="809.99" r="4.2" fill="#fff" stroke="#6670ee" stroke-width="1.8"/>
<circle cx="247.19" cy="849.67" r="4.2" fill="#fff" stroke="#6670ee" stroke-width="1.8"/>
<circle cx="62.06" cy="756.86" r="4.2" fill="#fff" stroke="#6670ee" stroke-width="1.8"/>
<circle cx="94.74" cy="738.85" r="4.2" fill="#fff" stroke="#6670ee" stroke-width="1.8"/>
<circle cx="118.57" cy="785.94" r="4.2" fill="#fff" stroke="#6670ee" stroke-width="1.8"/>
<circle cx="191.22" cy="801.78" r="4.2" fill="#fff" stroke="#6670ee" stroke-width="1.8"/>
<circle cx="176.86" cy="819.50" r="4.2" fill="#fff" stroke="#6670ee" stroke-width="1.8"/>
<circle cx="170.77" cy="859.35" r="4.2" fill="#fff" stroke="#6670ee" stroke-width="1.8"/>
<circle cx="244.66" cy="883.78" r="4.2" fill="#fff" stroke="#6670ee" stroke-width="1.8"/>
<circle cx="132.19" cy="784.01" r="4.2" fill="#fff" stroke="#6670ee" stroke-width="1.8"/>
<circle cx="157.45" cy="795.00" r="4.2" fill="#fff" stroke="#6670ee" stroke-width="1.8"/>
<circle cx="95.18" cy="741.53" r="4.2" fill="#fff" stroke="#6670ee" stroke-width="1.8"/>
<circle cx="232.37" cy="877.44" r="4.2" fill="#fff" stroke="#6670ee" stroke-width="1.8"/>
<rect x="375" y="675" width="245" height="245" fill="#fff" stroke="#d0d2cf"/>
<circle cx="459.54" cy="757.33" r="4.2" fill="#fff" stroke="#6670ee" stroke-width="1.8"/>
<circle cx="494.77" cy="834.38" r="4.2" fill="#fff" stroke="#6670ee" stroke-width="1.8"/>
<circle cx="567.80" cy="838.72" r="4.2" fill="#fff" stroke="#6670ee" stroke-width="1.8"/>
<circle cx="503.75" cy="833.19" r="4.2" fill="#fff" stroke="#6670ee" stroke-width="1.8"/>
<circle cx="520.01" cy="818.81" r="4.2" fill="#fff" stroke="#6670ee" stroke-width="1.8"/>
<circle cx="600.15" cy="868.31" r="4.2" fill="#fff" stroke="#6670ee" stroke-width="1.8"/>
<circle cx="485.56" cy="789.64" r="4.2" fill="#fff" stroke="#6670ee" stroke-width="1.8"/>
<circle cx="479.95" cy="765.90" r="4.2" fill="#fff" stroke="#6670ee" stroke-width="1.8"/>
<circle cx="505.09" cy="819.25" r="4.2" fill="#fff" stroke="#6670ee" stroke-width="1.8"/>
<circle cx="406.05" cy="753.52" r="4.2" fill="#fff" stroke="#6670ee" stroke-width="1.8"/>
<circle cx="456.84" cy="764.11" r="4.2" fill="#fff" stroke="#6670ee" stroke-width="1.8"/>
<circle cx="475.54" cy="778.78" r="4.2" fill="#fff" stroke="#6670ee" stroke-width="1.8"/>
<circle cx="537.15" cy="827.75" r="4.2" fill="#fff" stroke="#6670ee" stroke-width="1.8"/>
<circle cx="559.99" cy="831.21" r="4.2" fill="#fff" stroke="#6670ee" stroke-width="1.8"/>
<circle cx="417.21" cy="755.54" r="4.2" fill="#fff" stroke="#6670ee" stroke-width="1.8"/>
<circle cx="463.22" cy="744.17" r="4.2" fill="#fff" stroke="#6670ee" stroke-width="1.8"/>
<circle cx="517.76" cy="809.99" r="4.2" fill="#fff" stroke="#6670ee" stroke-width="1.8"/>
<circle cx="555.40" cy="849.67" r="4.2" fill="#fff" stroke="#6670ee" stroke-width="1.8"/>
<circle cx="414.74" cy="756.86" r="4.2" fill="#fff" stroke="#6670ee" stroke-width="1.8"/>
<circle cx="429.06" cy="738.85" r="4.2" fill="#fff" stroke="#6670ee" stroke-width="1.8"/>
<circle cx="479.35" cy="785.94" r="4.2" fill="#fff" stroke="#6670ee" stroke-width="1.8"/>
<circle cx="497.35" cy="801.78" r="4.2" fill="#fff" stroke="#6670ee" stroke-width="1.8"/>
<circle cx="515.86" cy="819.50" r="4.2" fill="#fff" stroke="#6670ee" stroke-width="1.8"/>
<circle cx="523.47" cy="859.35" r="4.2" fill="#fff" stroke="#6670ee" stroke-width="1.8"/>
<circle cx="571.58" cy="883.78" r="4.2" fill="#fff" stroke="#6670ee" stroke-width="1.8"/>
<circle cx="465.14" cy="784.01" r="4.2" fill="#fff" stroke="#6670ee" stroke-width="1.8"/>
<circle cx="512.41" cy="795.00" r="4.2" fill="#fff" stroke="#6670ee" stroke-width="1.8"/>
<circle cx="416.91" cy="741.53" r="4.2" fill="#fff" stroke="#6670ee" stroke-width="1.8"/>
<circle cx="567.92" cy="877.44" r="4.2" fill="#fff" stroke="#6670ee" stroke-width="1.8"/>
<rect x="675" y="675" width="245" height="245" fill="#fff" stroke="#d0d2cf"/>
<text x="797.5" y="797.5" text-anchor="middle" font-family="PingFang SC, Noto Sans CJK SC, Microsoft YaHei, sans-serif" font-size="22" font-weight="700" fill="#263f86">乳糖百分比</text>
</svg>
