<svg xmlns="http://www.w3.org/2000/svg" width="920" height="670" viewBox="0 0 920 670">
<title>图 14.2：从截距与斜率总体抽取的二十家咖啡馆</title>
<desc>二十个空心蓝点表示咖啡馆截距和斜率。灰色椭圆是相关为负零点七的多元高斯总体等高线，呈现截距越高、斜率越负的趋势。</desc>
<rect width="920" height="670" fill="#fff"/>
<rect x="115.0" y="70.0" width="735.0" height="495.0" fill="#fff" stroke="#30332e" stroke-width="1.5"/>
<defs><clipPath id="plot-clip"><rect x="115.0" y="70.0" width="735.0" height="495.0"/></clipPath></defs>
<g clip-path="url(#plot-clip)">
<polyline points="499.6,307.8 499.5,306.3 499.4,304.8 499.2,303.3 498.9,301.7 498.5,300.1 498.0,298.5 497.4,296.8 496.8,295.0 496.0,293.3 495.2,291.5 494.3,289.7 493.3,287.8 492.3,286.0 491.1,284.1 489.9,282.2 488.6,280.2 487.3,278.3 485.8,276.3 484.3,274.4 482.8,272.4 481.1,270.4 479.4,268.4 477.6,266.4 475.8,264.5 473.9,262.5 472.0,260.5 470.0,258.6 467.9,256.6 465.8,254.7 463.7,252.7 461.5,250.8 459.2,249.0 457.0,247.1 454.7,245.3 452.3,243.5 449.9,241.7 447.6,240.0 445.1,238.3 442.7,236.6 440.2,235.0 437.8,233.4 435.3,231.8 432.8,230.3 430.3,228.8 427.8,227.4 425.3,226.1 422.8,224.8 420.3,223.5 417.8,222.3 415.3,221.1 412.8,220.1 410.4,219.0 408.0,218.0 405.6,217.1 403.2,216.3 400.9,215.5 398.6,214.8 396.3,214.1 394.1,213.5 391.9,213.0 389.7,212.5 387.6,212.1 385.6,211.8 383.6,211.6 381.6,211.4 379.7,211.2 377.9,211.2 376.1,211.2 374.4,211.3 372.8,211.5 371.2,211.7 369.7,212.0 368.3,212.3 366.9,212.8 365.6,213.3 364.4,213.8 363.2,214.5 362.2,215.2 361.2,215.9 360.3,216.8 359.5,217.6 358.8,218.6 358.1,219.6 357.5,220.7 357.1,221.8 356.7,223.0 356.4,224.2 356.2,225.5 356.0,226.8 356.0,228.2 356.0,229.7 356.2,231.2 356.4,232.7 356.7,234.3 357.1,235.9 357.5,237.5 358.1,239.2 358.8,241.0 359.5,242.7 360.3,244.5 361.2,246.3 362.2,248.2 363.2,250.0 364.4,251.9 365.6,253.8 366.9,255.8 368.3,257.7 369.7,259.7 371.2,261.6 372.8,263.6 374.4,265.6 376.1,267.6 377.9,269.6 379.7,271.5 381.6,273.5 383.6,275.5 385.6,277.4 387.6,279.4 389.7,281.3 391.9,283.3 394.1,285.2 396.3,287.0 398.6,288.9 400.9,290.7 403.2,292.5 405.6,294.3 408.0,296.0 410.4,297.7 412.8,299.4 415.3,301.0 417.8,302.6 420.3,304.2 422.8,305.7 425.3,307.2 427.8,308.6 430.3,309.9 432.8,311.2 435.3,312.5 437.8,313.7 440.2,314.9 442.7,315.9 445.1,317.0 447.6,318.0 449.9,318.9 452.3,319.7 454.7,320.5 457.0,321.2 459.2,321.9 461.5,322.5 463.7,323.0 465.8,323.5 467.9,323.9 470.0,324.2 472.0,324.4 473.9,324.6 475.8,324.8 477.6,324.8 479.4,324.8 481.1,324.7 482.8,324.5 484.3,324.3 485.8,324.0 487.3,323.7 488.6,323.2 489.9,322.7 491.1,322.2 492.3,321.5 493.3,320.8 494.3,320.1 495.2,319.2 496.0,318.4 496.8,317.4 497.4,316.4 498.0,315.3 498.5,314.2 498.9,313.0 499.2,311.8 499.4,310.5 499.5,309.2 499.6,307.8" fill="none" stroke="#b8bbb5" stroke-width="2"/>
<polyline points="559.8,341.2 559.8,338.5 559.5,335.8 559.1,333.0 558.6,330.1 557.8,327.1 557.0,324.0 555.9,320.9 554.7,317.8 553.4,314.5 551.9,311.2 550.2,307.9 548.4,304.5 546.5,301.0 544.4,297.6 542.2,294.0 539.8,290.5 537.3,286.9 534.6,283.3 531.8,279.7 528.9,276.1 525.9,272.4 522.8,268.8 519.5,265.1 516.1,261.5 512.7,257.8 509.1,254.2 505.4,250.6 501.6,247.0 497.8,243.5 493.8,239.9 489.8,236.4 485.7,233.0 481.5,229.6 477.2,226.2 472.9,222.9 468.6,219.6 464.2,216.4 459.7,213.3 455.2,210.2 450.7,207.2 446.1,204.3 441.6,201.4 437.0,198.6 432.4,196.0 427.8,193.4 423.2,190.9 418.6,188.4 414.0,186.1 409.4,183.9 404.8,181.8 400.3,179.8 395.8,177.9 391.4,176.1 387.0,174.4 382.6,172.8 378.3,171.4 374.0,170.1 369.9,168.8 365.8,167.7 361.7,166.8 357.8,165.9 353.9,165.2 350.1,164.6 346.4,164.1 342.9,163.8 339.4,163.6 336.0,163.5 332.8,163.5 329.6,163.7 326.6,164.0 323.7,164.4 320.9,164.9 318.3,165.6 315.8,166.4 313.4,167.3 311.1,168.4 309.1,169.5 307.1,170.8 305.3,172.2 303.7,173.7 302.1,175.4 300.8,177.1 299.6,179.0 298.6,180.9 297.7,183.0 297.0,185.2 296.4,187.4 296.0,189.8 295.8,192.3 295.7,194.8 295.8,197.5 296.0,200.2 296.4,203.0 297.0,205.9 297.7,208.9 298.6,212.0 299.6,215.1 300.8,218.2 302.1,221.5 303.7,224.8 305.3,228.1 307.1,231.5 309.1,235.0 311.1,238.4 313.4,242.0 315.8,245.5 318.3,249.1 320.9,252.7 323.7,256.3 326.6,259.9 329.6,263.6 332.8,267.2 336.0,270.9 339.4,274.5 342.9,278.2 346.4,281.8 350.1,285.4 353.9,289.0 357.8,292.5 361.7,296.1 365.8,299.6 369.9,303.0 374.0,306.4 378.3,309.8 382.6,313.1 387.0,316.4 391.4,319.6 395.8,322.7 400.3,325.8 404.8,328.8 409.4,331.7 414.0,334.6 418.6,337.4 423.2,340.0 427.8,342.6 432.4,345.1 437.0,347.6 441.6,349.9 446.1,352.1 450.7,354.2 455.2,356.2 459.7,358.1 464.2,359.9 468.6,361.6 472.9,363.2 477.2,364.6 481.5,365.9 485.7,367.2 489.8,368.3 493.8,369.2 497.8,370.1 501.6,370.8 505.4,371.4 509.1,371.9 512.7,372.2 516.1,372.4 519.5,372.5 522.8,372.5 525.9,372.3 528.9,372.0 531.8,371.6 534.6,371.1 537.3,370.4 539.8,369.6 542.2,368.7 544.4,367.6 546.5,366.5 548.4,365.2 550.2,363.8 551.9,362.3 553.4,360.6 554.7,358.9 555.9,357.0 557.0,355.1 557.8,353.0 558.6,350.8 559.1,348.6 559.5,346.2 559.8,343.7 559.8,341.2" fill="none" stroke="#b8bbb5" stroke-width="2"/>
<polyline points="611.9,370.0 611.8,366.3 611.4,362.5 610.9,358.6 610.1,354.5 609.1,350.4 607.9,346.1 606.4,341.8 604.8,337.4 602.9,332.8 600.8,328.3 598.5,323.6 596.0,318.9 593.3,314.1 590.3,309.2 587.2,304.3 583.9,299.4 580.4,294.4 576.7,289.4 572.9,284.3 568.8,279.2 564.6,274.2 560.2,269.1 555.7,264.0 551.0,258.9 546.1,253.9 541.1,248.8 536.0,243.8 530.7,238.8 525.3,233.8 519.8,228.9 514.2,224.0 508.5,219.2 502.7,214.4 496.7,209.7 490.7,205.1 484.7,200.6 478.5,196.1 472.3,191.7 466.0,187.4 459.7,183.2 453.4,179.2 447.0,175.2 440.6,171.3 434.2,167.6 427.8,163.9 421.3,160.5 414.9,157.1 408.5,153.9 402.1,150.8 395.8,147.8 389.5,145.0 383.2,142.4 377.0,139.9 370.9,137.5 364.8,135.3 358.8,133.3 352.9,131.5 347.1,129.8 341.3,128.2 335.7,126.9 330.2,125.7 324.8,124.7 319.5,123.9 314.4,123.2 309.4,122.7 304.6,122.4 299.9,122.3 295.3,122.4 290.9,122.6 286.7,123.0 282.7,123.6 278.8,124.3 275.1,125.3 271.6,126.4 268.3,127.6 265.2,129.1 262.3,130.7 259.6,132.5 257.0,134.5 254.7,136.6 252.7,138.8 250.8,141.3 249.1,143.9 247.7,146.6 246.4,149.5 245.4,152.5 244.6,155.7 244.1,159.0 243.8,162.4 243.6,166.0 243.8,169.7 244.1,173.5 244.6,177.4 245.4,181.5 246.4,185.6 247.7,189.9 249.1,194.2 250.8,198.6 252.7,203.2 254.7,207.7 257.0,212.4 259.6,217.1 262.3,221.9 265.2,226.8 268.3,231.7 271.6,236.6 275.1,241.6 278.8,246.6 282.7,251.7 286.7,256.8 290.9,261.8 295.3,266.9 299.9,272.0 304.6,277.1 309.4,282.1 314.4,287.2 319.5,292.2 324.8,297.2 330.2,302.2 335.7,307.1 341.3,312.0 347.1,316.8 352.9,321.6 358.8,326.3 364.8,330.9 370.9,335.4 377.0,339.9 383.2,344.3 389.5,348.6 395.8,352.8 402.1,356.8 408.5,360.8 414.9,364.7 421.3,368.4 427.8,372.1 434.2,375.5 440.6,378.9 447.0,382.1 453.4,385.2 459.7,388.2 466.0,391.0 472.3,393.6 478.5,396.1 484.7,398.5 490.7,400.7 496.7,402.7 502.7,404.5 508.5,406.2 514.2,407.8 519.8,409.1 525.3,410.3 530.7,411.3 536.0,412.1 541.1,412.8 546.1,413.3 551.0,413.6 555.7,413.7 560.2,413.6 564.6,413.4 568.8,413.0 572.9,412.4 576.7,411.7 580.4,410.7 583.9,409.6 587.2,408.4 590.3,406.9 593.3,405.3 596.0,403.5 598.5,401.5 600.8,399.4 602.9,397.2 604.8,394.7 606.4,392.1 607.9,389.4 609.1,386.5 610.1,383.5 610.9,380.3 611.4,377.0 611.8,373.6 611.9,370.0" fill="none" stroke="#b8bbb5" stroke-width="2"/>
<polyline points="708.3,423.4 708.2,417.8 707.7,412.0 706.8,406.0 705.6,399.8 704.1,393.5 702.2,387.1 700.0,380.4 697.5,373.7 694.6,366.8 691.4,359.8 687.9,352.7 684.1,345.5 679.9,338.2 675.5,330.8 670.7,323.3 665.7,315.8 660.4,308.2 654.8,300.5 648.9,292.9 642.7,285.1 636.3,277.4 629.6,269.7 622.7,261.9 615.5,254.2 608.1,246.4 600.5,238.7 592.7,231.1 584.7,223.5 576.4,215.9 568.1,208.4 559.5,201.0 550.8,193.6 541.9,186.4 532.9,179.2 523.7,172.2 514.5,165.2 505.1,158.4 495.6,151.8 486.1,145.2 476.5,138.8 466.8,132.6 457.1,126.6 447.3,120.7 437.6,115.0 427.8,109.4 418.0,104.1 408.2,99.0 398.4,94.1 388.7,89.4 379.0,84.9 369.4,80.6 359.9,76.6 350.4,72.7 341.1,69.2 331.8,65.9 322.7,62.8 313.6,59.9 304.8,57.4 296.0,55.0 287.5,53.0 279.1,51.2 270.9,49.6 262.9,48.4 255.0,47.4 247.4,46.6 240.0,46.2 232.9,46.0 225.9,46.1 219.3,46.4 212.8,47.0 206.7,47.9 200.8,49.1 195.2,50.5 189.8,52.2 184.8,54.1 180.0,56.3 175.6,58.8 171.5,61.5 167.6,64.5 164.1,67.7 160.9,71.2 158.1,74.9 155.5,78.8 153.3,83.0 151.5,87.4 149.9,92.0 148.7,96.9 147.9,101.9 147.4,107.1 147.2,112.6 147.4,118.2 147.9,124.0 148.7,130.0 149.9,136.2 151.5,142.5 153.3,148.9 155.5,155.6 158.1,162.3 160.9,169.2 164.1,176.2 167.6,183.3 171.5,190.5 175.6,197.8 180.0,205.2 184.8,212.7 189.8,220.2 195.2,227.8 200.8,235.5 206.7,243.1 212.8,250.9 219.3,258.6 225.9,266.3 232.9,274.1 240.0,281.8 247.4,289.6 255.0,297.3 262.9,304.9 270.9,312.5 279.1,320.1 287.5,327.6 296.0,335.0 304.8,342.4 313.6,349.6 322.7,356.8 331.8,363.8 341.1,370.8 350.4,377.6 359.9,384.2 369.4,390.8 379.0,397.2 388.7,403.4 398.4,409.4 408.2,415.3 418.0,421.0 427.8,426.6 437.6,431.9 447.3,437.0 457.1,441.9 466.8,446.6 476.5,451.1 486.1,455.4 495.6,459.4 505.1,463.3 514.5,466.8 523.7,470.1 532.9,473.2 541.9,476.1 550.8,478.6 559.5,481.0 568.1,483.0 576.4,484.8 584.7,486.4 592.7,487.6 600.5,488.6 608.1,489.4 615.5,489.8 622.7,490.0 629.6,489.9 636.3,489.6 642.7,489.0 648.9,488.1 654.8,486.9 660.4,485.5 665.7,483.8 670.7,481.9 675.5,479.7 679.9,477.2 684.1,474.5 687.9,471.5 691.4,468.3 694.6,464.8 697.5,461.1 700.0,457.2 702.2,453.0 704.1,448.6 705.6,444.0 706.8,439.1 707.7,434.1 708.2,428.9 708.3,423.4" fill="none" stroke="#b8bbb5" stroke-width="2"/>
<polyline points="902.4,530.9 902.1,521.4 901.2,511.5 899.8,501.4 897.7,491.0 895.2,480.3 892.0,469.4 888.3,458.2 884.0,446.8 879.1,435.1 873.7,423.3 867.8,411.3 861.3,399.1 854.3,386.7 846.8,374.2 838.8,361.6 830.2,348.8 821.2,336.0 811.7,323.0 801.8,310.0 791.3,297.0 780.5,283.9 769.2,270.8 757.5,257.7 745.3,244.6 732.8,231.5 720.0,218.5 706.7,205.5 693.2,192.7 679.3,179.9 665.1,167.2 650.6,154.6 635.8,142.2 620.8,129.9 605.6,117.8 590.1,105.9 574.4,94.2 558.6,82.6 542.6,71.4 526.4,60.3 510.2,49.5 493.8,39.0 477.4,28.7 460.9,18.8 444.3,9.1 427.8,-0.2 411.2,-9.2 394.7,-17.9 378.2,-26.2 361.7,-34.2 345.4,-41.8 329.1,-49.0 312.9,-55.8 296.9,-62.3 281.1,-68.3 265.4,-73.9 250.0,-79.2 234.7,-83.9 219.7,-88.3 205.0,-92.2 190.5,-95.7 176.3,-98.8 162.4,-101.4 148.8,-103.5 135.6,-105.2 122.7,-106.4 110.2,-107.2 98.1,-107.6 86.4,-107.4 75.1,-106.8 64.2,-105.8 53.8,-104.3 43.8,-102.3 34.3,-99.9 25.3,-97.1 16.8,-93.8 8.7,-90.0 1.2,-85.9 -5.8,-81.3 -12.3,-76.2 -18.2,-70.8 -23.6,-64.9 -28.4,-58.6 -32.7,-52.0 -36.5,-44.9 -39.6,-37.5 -42.2,-29.7 -44.2,-21.5 -45.7,-13.0 -46.5,-4.1 -46.8,5.1 -46.5,14.6 -45.7,24.5 -44.2,34.6 -42.2,45.0 -39.6,55.7 -36.5,66.6 -32.7,77.8 -28.4,89.2 -23.6,100.9 -18.2,112.7 -12.3,124.7 -5.8,136.9 1.2,149.3 8.7,161.8 16.8,174.4 25.3,187.2 34.3,200.0 43.8,213.0 53.8,226.0 64.2,239.0 75.1,252.1 86.4,265.2 98.1,278.3 110.2,291.4 122.7,304.5 135.6,317.5 148.8,330.5 162.4,343.3 176.3,356.1 190.5,368.8 205.0,381.4 219.7,393.8 234.7,406.1 250.0,418.2 265.4,430.1 281.1,441.8 296.9,453.4 312.9,464.6 329.1,475.7 345.4,486.5 361.7,497.0 378.2,507.3 394.7,517.2 411.2,526.9 427.8,536.2 444.3,545.2 460.9,553.9 477.4,562.2 493.8,570.2 510.2,577.8 526.4,585.0 542.6,591.8 558.6,598.3 574.4,604.3 590.1,609.9 605.6,615.2 620.8,619.9 635.8,624.3 650.6,628.2 665.1,631.7 679.3,634.8 693.2,637.4 706.7,639.5 720.0,641.2 732.8,642.4 745.3,643.2 757.5,643.6 769.2,643.4 780.5,642.8 791.3,641.8 801.8,640.3 811.7,638.3 821.2,635.9 830.2,633.1 838.8,629.8 846.8,626.0 854.3,621.9 861.3,617.3 867.8,612.2 873.7,606.8 879.1,600.9 884.0,594.6 888.3,588.0 892.0,580.9 895.2,573.5 897.7,565.7 899.8,557.5 901.2,549.0 902.1,540.1 902.4,530.9" fill="none" stroke="#b8bbb5" stroke-width="2"/>
</g>
<circle cx="541.0" cy="418.8" r="6" fill="#fff" stroke="#6670ee" stroke-width="2.2"/>
<circle cx="194.8" cy="206.6" r="6" fill="#fff" stroke="#6670ee" stroke-width="2.2"/>
<circle cx="594.4" cy="502.7" r="6" fill="#fff" stroke="#6670ee" stroke-width="2.2"/>
<circle cx="403.3" cy="315.7" r="6" fill="#fff" stroke="#6670ee" stroke-width="2.2"/>
<circle cx="146.4" cy="165.4" r="6" fill="#fff" stroke="#6670ee" stroke-width="2.2"/>
<circle cx="527.0" cy="303.8" r="6" fill="#fff" stroke="#6670ee" stroke-width="2.2"/>
<circle cx="473.8" cy="423.1" r="6" fill="#fff" stroke="#6670ee" stroke-width="2.2"/>
<circle cx="497.6" cy="445.0" r="6" fill="#fff" stroke="#6670ee" stroke-width="2.2"/>
<circle cx="484.7" cy="245.0" r="6" fill="#fff" stroke="#6670ee" stroke-width="2.2"/>
<circle cx="422.7" cy="188.9" r="6" fill="#fff" stroke="#6670ee" stroke-width="2.2"/>
<circle cx="231.2" cy="173.5" r="6" fill="#fff" stroke="#6670ee" stroke-width="2.2"/>
<circle cx="530.9" cy="431.2" r="6" fill="#fff" stroke="#6670ee" stroke-width="2.2"/>
<circle cx="552.9" cy="543.4" r="6" fill="#fff" stroke="#6670ee" stroke-width="2.2"/>
<circle cx="428.9" cy="377.1" r="6" fill="#fff" stroke="#6670ee" stroke-width="2.2"/>
<circle cx="565.7" cy="485.8" r="6" fill="#fff" stroke="#6670ee" stroke-width="2.2"/>
<circle cx="431.1" cy="354.8" r="6" fill="#fff" stroke="#6670ee" stroke-width="2.2"/>
<circle cx="539.8" cy="248.0" r="6" fill="#fff" stroke="#6670ee" stroke-width="2.2"/>
<circle cx="805.1" cy="325.3" r="6" fill="#fff" stroke="#6670ee" stroke-width="2.2"/>
<circle cx="424.2" cy="108.9" r="6" fill="#fff" stroke="#6670ee" stroke-width="2.2"/>
<circle cx="470.8" cy="282.1" r="6" fill="#fff" stroke="#6670ee" stroke-width="2.2"/>
<line x1="193.2" y1="565.0" x2="193.2" y2="572.0" stroke="#30332e" stroke-width="1.4"/>
<text x="193.2" y="596.0" text-anchor="middle" font-family="-apple-system,BlinkMacSystemFont,PingFang SC,Noto Sans CJK SC,sans-serif" font-size="18" font-weight="400" fill="#30332e">2</text>
<line x1="349.6" y1="565.0" x2="349.6" y2="572.0" stroke="#30332e" stroke-width="1.4"/>
<text x="349.6" y="596.0" text-anchor="middle" font-family="-apple-system,BlinkMacSystemFont,PingFang SC,Noto Sans CJK SC,sans-serif" font-size="18" font-weight="400" fill="#30332e">3</text>
<line x1="506.0" y1="565.0" x2="506.0" y2="572.0" stroke="#30332e" stroke-width="1.4"/>
<text x="506.0" y="596.0" text-anchor="middle" font-family="-apple-system,BlinkMacSystemFont,PingFang SC,Noto Sans CJK SC,sans-serif" font-size="18" font-weight="400" fill="#30332e">4</text>
<line x1="662.3" y1="565.0" x2="662.3" y2="572.0" stroke="#30332e" stroke-width="1.4"/>
<text x="662.3" y="596.0" text-anchor="middle" font-family="-apple-system,BlinkMacSystemFont,PingFang SC,Noto Sans CJK SC,sans-serif" font-size="18" font-weight="400" fill="#30332e">5</text>
<line x1="818.7" y1="565.0" x2="818.7" y2="572.0" stroke="#30332e" stroke-width="1.4"/>
<text x="818.7" y="596.0" text-anchor="middle" font-family="-apple-system,BlinkMacSystemFont,PingFang SC,Noto Sans CJK SC,sans-serif" font-size="18" font-weight="400" fill="#30332e">6</text>
<line x1="108.0" y1="515.5" x2="115.0" y2="515.5" stroke="#30332e" stroke-width="1.4"/>
<text x="100.0" y="521.5" text-anchor="end" font-family="-apple-system,BlinkMacSystemFont,PingFang SC,Noto Sans CJK SC,sans-serif" font-size="18" font-weight="400" fill="#30332e">-2.0</text>
<line x1="108.0" y1="391.7" x2="115.0" y2="391.7" stroke="#30332e" stroke-width="1.4"/>
<text x="100.0" y="397.7" text-anchor="end" font-family="-apple-system,BlinkMacSystemFont,PingFang SC,Noto Sans CJK SC,sans-serif" font-size="18" font-weight="400" fill="#30332e">-1.5</text>
<line x1="108.0" y1="268.0" x2="115.0" y2="268.0" stroke="#30332e" stroke-width="1.4"/>
<text x="100.0" y="274.0" text-anchor="end" font-family="-apple-system,BlinkMacSystemFont,PingFang SC,Noto Sans CJK SC,sans-serif" font-size="18" font-weight="400" fill="#30332e">-1.0</text>
<line x1="108.0" y1="144.2" x2="115.0" y2="144.2" stroke="#30332e" stroke-width="1.4"/>
<text x="100.0" y="150.2" text-anchor="end" font-family="-apple-system,BlinkMacSystemFont,PingFang SC,Noto Sans CJK SC,sans-serif" font-size="18" font-weight="400" fill="#30332e">-0.5</text>
<text x="482.5" y="635.0" text-anchor="middle" font-family="-apple-system,BlinkMacSystemFont,PingFang SC,Noto Sans CJK SC,sans-serif" font-size="21" font-weight="600" fill="#30332e">截距（a_cafe）</text>
<text x="32.0" y="317.5" text-anchor="middle" font-family="-apple-system,BlinkMacSystemFont,PingFang SC,Noto Sans CJK SC,sans-serif" font-size="21" font-weight="600" fill="#30332e" transform="rotate(-90 32 317.5)">斜率（b_cafe）</text>
</svg>