<svg xmlns="http://www.w3.org/2000/svg" width="1200" height="920" viewBox="0 0 1200 920" role="img">
<title>地形崎岖度模型的健康链轨迹图</title>
<desc>五个参数的第一条链轨迹，前五百次预热区域为灰色，后五百次推断样本区域为白色。</desc>
<rect width="100%" height="100%" fill="#fff"/>
<rect x="85" y="75" width="235.0" height="190" fill="#e2e3e0"/>
<rect x="85" y="75" width="470" height="190" fill="none" stroke="#30332e"/>
<text x="85" y="61" font-family="-apple-system,BlinkMacSystemFont,PingFang SC,Noto Sans CJK SC,sans-serif" font-size="22" fill="#30332e">a[1]</text>
<text x="555" y="61" text-anchor="end" font-family="-apple-system,BlinkMacSystemFont,PingFang SC,Noto Sans CJK SC,sans-serif" font-size="18" fill="#30332e">n_eff = 2671</text>
<polyline points="85.0,184.3 85.5,177.3 85.9,152.3 86.4,151.6 86.9,190.2 87.4,178.7 87.8,160.8 88.3,133.0 88.8,120.3 89.2,140.6 89.7,142.4 90.2,188.7 90.6,159.4 91.1,146.6 91.6,177.7 92.1,152.0 92.5,177.8 93.0,127.5 93.5,166.9 93.9,180.3 94.4,167.7 94.9,140.5 95.4,156.3 95.8,159.0 96.3,197.5 96.8,169.9 97.2,167.6 97.7,177.1 98.2,175.2 98.6,142.5 99.1,185.8 99.6,164.2 100.1,187.6 100.5,158.6 101.0,156.6 101.5,133.1 101.9,171.9 102.4,180.1 102.9,178.2 103.3,151.9 103.8,163.8 104.3,158.3 104.8,144.9 105.2,136.5 105.7,149.1 106.2,155.8 106.6,164.5 107.1,165.7 107.6,129.8 108.1,179.2 108.5,153.1 109.0,185.8 109.5,168.1 109.9,197.0 110.4,143.7 110.9,164.0 111.3,146.3 111.8,180.1 112.3,166.2 112.8,169.2 113.2,133.7 113.7,209.5 114.2,189.1 114.6,181.1 115.1,164.3 115.6,128.6 116.1,204.9 116.5,185.9 117.0,132.8 117.5,164.1 117.9,137.7 118.4,140.4 118.9,133.8 119.3,111.0 119.8,181.6 120.3,183.1 120.8,120.0 121.2,182.3 121.7,185.1 122.2,115.5 122.6,178.7 123.1,176.7 123.6,164.2 124.0,154.1 124.5,200.6 125.0,180.5 125.5,168.2 125.9,149.1 126.4,203.0 126.9,117.5 127.3,161.2 127.8,153.5 128.3,173.0 128.8,126.9 129.2,193.9 129.7,132.9 130.2,185.7 130.6,154.6 131.1,121.6 131.6,140.4 132.0,177.6 132.5,149.6 133.0,206.4 133.5,170.8 133.9,150.1 134.4,167.0 134.9,121.8 135.3,195.0 135.8,215.0 136.3,162.9 136.8,157.7 137.2,185.9 137.7,173.7 138.2,180.9 138.6,171.7 139.1,151.2 139.6,115.4 140.0,188.8 140.5,140.3 141.0,204.6 141.5,135.5 141.9,172.3 142.4,147.9 142.9,165.0 143.3,149.5 143.8,199.0 144.3,109.3 144.7,208.0 145.2,158.4 145.7,154.0 146.2,195.3 146.6,137.8 147.1,164.6 147.6,193.3 148.0,177.7 148.5,154.0 149.0,144.6 149.5,192.9 149.9,129.6 150.4,163.2 150.9,220.8 151.3,153.0 151.8,176.3 152.3,186.2 152.7,187.4 153.2,170.3 153.7,123.5 154.2,241.0 154.6,165.7 155.1,183.3 155.6,91.9 156.0,182.2 156.5,130.2 157.0,206.0 157.5,146.5 157.9,135.3 158.4,169.7 158.9,158.7 159.3,166.1 159.8,188.8 160.3,150.4 160.7,180.5 161.2,155.5 161.7,165.8 162.2,168.4 162.6,195.0 163.1,157.4 163.6,182.9 164.0,140.2 164.5,140.5 165.0,182.0 165.5,141.0 165.9,165.0 166.4,174.8 166.9,158.8 167.3,144.5 167.8,189.4 168.3,175.9 168.7,154.9 169.2,156.9 169.7,141.0 170.2,155.9 170.6,161.1 171.1,169.0 171.6,151.4 172.0,168.0 172.5,192.8 173.0,143.1 173.4,197.6 173.9,138.4 174.4,142.2 174.9,191.2 175.3,204.5 175.8,173.6 176.3,136.9 176.7,161.4 177.2,121.9 177.7,216.2 178.2,191.1 178.6,201.7 179.1,108.1 179.6,201.8 180.0,174.6 180.5,175.5 181.0,187.0 181.4,149.5 181.9,196.1 182.4,179.9 182.9,128.3 183.3,147.4 183.8,187.3 184.3,210.0 184.7,129.3 185.2,141.8 185.7,170.6 186.2,166.0 186.6,161.8 187.1,162.4 187.6,116.2 188.0,146.2 188.5,168.3 189.0,136.8 189.4,146.6 189.9,138.4 190.4,148.0 190.9,189.2 191.3,171.7 191.8,187.8 192.3,181.2 192.7,129.6 193.2,155.8 193.7,153.4 194.1,173.4 194.6,170.4 195.1,170.2 195.6,161.0 196.0,204.8 196.5,178.2 197.0,165.3 197.4,197.1 197.9,140.2 198.4,214.1 198.9,204.3 199.3,162.3 199.8,180.2 200.3,141.4 200.7,178.6 201.2,172.9 201.7,182.7 202.1,178.0 202.6,166.0 203.1,158.2 203.6,166.0 204.0,175.9 204.5,189.8 205.0,166.5 205.4,143.8 205.9,213.2 206.4,113.2 206.9,209.4 207.3,117.2 207.8,177.1 208.3,194.5 208.7,157.2 209.2,146.6 209.7,172.0 210.1,167.7 210.6,170.0 211.1,164.3 211.6,165.7 212.0,182.1 212.5,171.9 213.0,135.2 213.4,187.5 213.9,183.2 214.4,175.4 214.8,185.1 215.3,138.5 215.8,166.3 216.3,196.8 216.7,165.4 217.2,176.4 217.7,144.7 218.1,161.1 218.6,99.3 219.1,194.5 219.6,162.4 220.0,221.6 220.5,175.0 221.0,149.6 221.4,181.9 221.9,170.2 222.4,188.3 222.8,152.8 223.3,192.0 223.8,168.9 224.3,154.0 224.7,208.7 225.2,172.3 225.7,209.2 226.1,187.4 226.6,151.5 227.1,177.3 227.6,199.5 228.0,164.7 228.5,168.4 229.0,131.0 229.4,184.7 229.9,142.7 230.4,186.5 230.8,173.6 231.3,187.7 231.8,170.1 232.3,149.4 232.7,163.4 233.2,170.2 233.7,161.1 234.1,169.6 234.6,184.8 235.1,172.8 235.6,168.6 236.0,181.3 236.5,216.3 237.0,177.3 237.4,164.5 237.9,168.1 238.4,184.5 238.8,178.5 239.3,136.7 239.8,196.7 240.3,176.5 240.7,214.2 241.2,179.5 241.7,186.1 242.1,142.1 242.6,127.5 243.1,210.0 243.5,177.6 244.0,204.7 244.5,123.1 245.0,222.9 245.4,217.9 245.9,186.1 246.4,147.4 246.8,190.2 247.3,182.2 247.8,201.9 248.3,210.2 248.7,100.4 249.2,109.3 249.7,177.1 250.1,182.9 250.6,143.7 251.1,150.4 251.5,172.2 252.0,185.7 252.5,206.9 253.0,139.0 253.4,176.1 253.9,177.6 254.4,160.9 254.8,152.1 255.3,191.2 255.8,157.1 256.3,169.4 256.7,185.4 257.2,126.7 257.7,168.0 258.1,191.4 258.6,137.2 259.1,180.3 259.5,136.6 260.0,190.6 260.5,141.3 261.0,197.0 261.4,109.4 261.9,160.1 262.4,164.7 262.8,166.3 263.3,167.7 263.8,149.0 264.2,161.8 264.7,158.8 265.2,149.5 265.7,139.8 266.1,199.1 266.6,215.5 267.1,170.8 267.5,215.7 268.0,209.4 268.5,125.0 269.0,183.9 269.4,140.0 269.9,174.4 270.4,222.2 270.8,161.0 271.3,155.2 271.8,200.2 272.2,198.6 272.7,159.9 273.2,151.0 273.7,120.7 274.1,195.9 274.6,187.2 275.1,201.1 275.5,148.9 276.0,186.6 276.5,137.3 277.0,211.8 277.4,170.8 277.9,125.6 278.4,164.9 278.8,125.3 279.3,201.7 279.8,200.7 280.2,173.5 280.7,147.4 281.2,157.4 281.7,194.3 282.1,143.3 282.6,153.2 283.1,144.3 283.5,193.1 284.0,167.9 284.5,175.4 284.9,208.2 285.4,163.1 285.9,165.4 286.4,167.7 286.8,193.8 287.3,213.4 287.8,169.5 288.2,156.2 288.7,162.9 289.2,197.0 289.7,195.9 290.1,162.6 290.6,157.6 291.1,175.0 291.5,184.9 292.0,164.5 292.5,155.5 292.9,148.4 293.4,151.7 293.9,157.0 294.4,187.2 294.8,168.5 295.3,205.6 295.8,150.3 296.2,150.4 296.7,169.9 297.2,168.4 297.7,163.1 298.1,202.1 298.6,130.3 299.1,187.0 299.5,233.8 300.0,148.4 300.5,137.7 300.9,222.0 301.4,211.6 301.9,201.9 302.4,150.7 302.8,163.5 303.3,191.7 303.8,218.3 304.2,141.2 304.7,177.7 305.2,175.4 305.7,163.3 306.1,215.4 306.6,182.0 307.1,171.8 307.5,161.4 308.0,176.3 308.5,113.8 308.9,194.7 309.4,137.7 309.9,200.0 310.4,142.7 310.8,158.4 311.3,168.3 311.8,198.9 312.2,193.2 312.7,186.9 313.2,165.7 313.6,191.1 314.1,165.6 314.6,163.5 315.1,164.0 315.5,193.8 316.0,152.8 316.5,191.1 316.9,179.7 317.4,135.6 317.9,149.2 318.4,186.7 318.8,160.4 319.3,130.4 319.8,148.8 320.2,178.5 320.7,165.0 321.2,145.1 321.6,154.8 322.1,116.4 322.6,221.0 323.1,116.6 323.5,147.2 324.0,152.5 324.5,168.8 324.9,169.0 325.4,175.4 325.9,200.4 326.4,224.8 326.8,182.5 327.3,151.4 327.8,170.5 328.2,138.8 328.7,185.3 329.2,161.1 329.6,146.7 330.1,190.5 330.6,127.6 331.1,185.5 331.5,173.8 332.0,158.6 332.5,190.2 332.9,190.2 333.4,169.3 333.9,152.8 334.3,148.3 334.8,178.5 335.3,146.1 335.8,120.0 336.2,200.0 336.7,138.8 337.2,172.5 337.6,189.0 338.1,169.8 338.6,126.0 339.1,183.2 339.5,152.6 340.0,166.4 340.5,208.6 340.9,180.3 341.4,163.6 341.9,203.0 342.3,187.5 342.8,131.1 343.3,181.8 343.8,203.2 344.2,170.0 344.7,157.0 345.2,201.4 345.6,185.7 346.1,184.4 346.6,170.0 347.1,206.6 347.5,177.3 348.0,195.4 348.5,228.1 348.9,179.5 349.4,187.9 349.9,214.9 350.3,117.0 350.8,206.6 351.3,130.8 351.8,170.8 352.2,154.5 352.7,143.2 353.2,145.8 353.6,168.1 354.1,174.6 354.6,143.7 355.1,202.0 355.5,185.2 356.0,199.0 356.5,102.3 356.9,199.5 357.4,172.3 357.9,142.5 358.3,175.0 358.8,148.5 359.3,168.4 359.8,199.4 360.2,194.8 360.7,211.5 361.2,164.3 361.6,192.8 362.1,180.8 362.6,141.1 363.0,239.4 363.5,180.4 364.0,137.1 364.5,208.0 364.9,129.9 365.4,162.0 365.9,133.3 366.3,174.5 366.8,164.0 367.3,196.6 367.8,175.3 368.2,179.4 368.7,169.4 369.2,158.3 369.6,151.8 370.1,135.2 370.6,165.5 371.0,176.7 371.5,160.0 372.0,157.0 372.5,190.0 372.9,161.3 373.4,183.0 373.9,181.6 374.3,142.3 374.8,188.9 375.3,153.3 375.8,162.1 376.2,160.8 376.7,163.3 377.2,144.8 377.6,159.6 378.1,129.7 378.6,194.5 379.0,184.3 379.5,142.0 380.0,137.4 380.5,166.6 380.9,132.9 381.4,227.0 381.9,164.6 382.3,157.6 382.8,182.4 383.3,181.8 383.7,167.3 384.2,170.0 384.7,201.1 385.2,234.8 385.6,179.4 386.1,196.7 386.6,174.8 387.0,165.4 387.5,179.3 388.0,141.3 388.5,213.5 388.9,168.1 389.4,136.0 389.9,183.0 390.3,138.0 390.8,166.0 391.3,181.7 391.7,132.5 392.2,163.6 392.7,166.1 393.2,176.7 393.6,189.2 394.1,103.1 394.6,215.1 395.0,171.2 395.5,178.8 396.0,138.4 396.5,206.6 396.9,141.9 397.4,176.3 397.9,148.3 398.3,144.9 398.8,155.1 399.3,195.1 399.7,174.4 400.2,138.9 400.7,161.3 401.2,190.2 401.6,197.7 402.1,156.6 402.6,176.9 403.0,168.5 403.5,165.3 404.0,191.3 404.4,163.7 404.9,148.4 405.4,184.5 405.9,121.6 406.3,174.8 406.8,193.2 407.3,151.7 407.7,169.6 408.2,230.4 408.7,158.3 409.2,188.5 409.6,193.6 410.1,180.0 410.6,207.4 411.0,190.0 411.5,151.8 412.0,178.8 412.4,159.8 412.9,190.5 413.4,195.9 413.9,148.9 414.3,173.8 414.8,200.0 415.3,179.4 415.7,188.4 416.2,169.7 416.7,166.9 417.2,127.0 417.6,155.6 418.1,135.1 418.6,175.1 419.0,159.0 419.5,189.8 420.0,147.0 420.4,180.2 420.9,131.4 421.4,177.3 421.9,161.2 422.3,127.3 422.8,141.8 423.3,182.5 423.7,175.6 424.2,144.5 424.7,215.9 425.2,134.1 425.6,188.6 426.1,176.9 426.6,155.5 427.0,182.9 427.5,166.6 428.0,187.6 428.4,174.8 428.9,183.1 429.4,183.5 429.9,172.7 430.3,187.5 430.8,146.3 431.3,194.8 431.7,153.9 432.2,197.1 432.7,133.2 433.1,168.6 433.6,165.3 434.1,193.2 434.6,148.1 435.0,189.4 435.5,149.9 436.0,179.3 436.4,142.7 436.9,174.6 437.4,157.0 437.9,198.8 438.3,208.3 438.8,127.5 439.3,164.9 439.7,192.4 440.2,150.6 440.7,198.9 441.1,173.9 441.6,148.8 442.1,131.8 442.6,153.3 443.0,190.8 443.5,192.0 444.0,166.1 444.4,185.2 444.9,174.1 445.4,182.7 445.9,173.2 446.3,133.0 446.8,152.5 447.3,178.5 447.7,201.4 448.2,165.1 448.7,188.4 449.1,187.7 449.6,219.3 450.1,156.8 450.6,179.5 451.0,132.4 451.5,170.6 452.0,149.0 452.4,192.8 452.9,171.5 453.4,201.3 453.8,175.4 454.3,145.6 454.8,156.4 455.3,144.1 455.7,167.2 456.2,215.9 456.7,121.3 457.1,217.0 457.6,167.2 458.1,153.4 458.6,203.7 459.0,179.9 459.5,175.8 460.0,208.9 460.4,191.5 460.9,195.4 461.4,146.4 461.8,163.8 462.3,207.4 462.8,160.6 463.3,138.6 463.7,170.4 464.2,153.9 464.7,198.1 465.1,172.1 465.6,149.9 466.1,171.3 466.6,136.0 467.0,179.4 467.5,104.4 468.0,201.9 468.4,146.4 468.9,185.8 469.4,131.3 469.8,182.5 470.3,145.0 470.8,174.3 471.3,220.2 471.7,189.5 472.2,151.0 472.7,131.5 473.1,212.7 473.6,151.1 474.1,160.9 474.5,167.1 475.0,187.9 475.5,137.9 476.0,201.2 476.4,222.2 476.9,120.7 477.4,206.7 477.8,109.9 478.3,175.7 478.8,198.0 479.3,168.4 479.7,181.0 480.2,161.7 480.7,144.1 481.1,206.7 481.6,134.6 482.1,156.5 482.5,196.4 483.0,147.8 483.5,163.8 484.0,165.9 484.4,142.1 484.9,173.7 485.4,181.4 485.8,111.5 486.3,197.2 486.8,165.4 487.3,183.5 487.7,178.3 488.2,189.7 488.7,138.2 489.1,223.8 489.6,221.5 490.1,168.5 490.5,142.0 491.0,146.6 491.5,199.6 492.0,123.4 492.4,155.1 492.9,172.4 493.4,165.9 493.8,141.0 494.3,154.3 494.8,150.5 495.3,146.8 495.7,138.6 496.2,152.5 496.7,163.9 497.1,175.2 497.6,144.4 498.1,178.6 498.5,196.6 499.0,212.1 499.5,170.2 500.0,124.4 500.4,133.1 500.9,144.1 501.4,183.5 501.8,211.5 502.3,186.0 502.8,188.2 503.2,163.5 503.7,176.5 504.2,152.6 504.7,142.7 505.1,205.1 505.6,144.8 506.1,154.2 506.5,194.9 507.0,120.9 507.5,165.0 508.0,77.2 508.4,205.0 508.9,127.2 509.4,164.7 509.8,170.9 510.3,128.4 510.8,160.7 511.2,202.4 511.7,152.2 512.2,115.5 512.7,187.0 513.1,166.2 513.6,173.8 514.1,169.5 514.5,180.9 515.0,170.7 515.5,152.7 516.0,182.5 516.4,173.4 516.9,154.6 517.4,211.3 517.8,163.4 518.3,161.7 518.8,187.0 519.2,165.7 519.7,191.0 520.2,214.5 520.7,164.2 521.1,172.9 521.6,170.1 522.1,152.5 522.5,172.6 523.0,167.5 523.5,197.9 523.9,131.2 524.4,172.9 524.9,145.9 525.4,157.4 525.8,167.3 526.3,159.3 526.8,179.4 527.2,190.2 527.7,164.5 528.2,159.3 528.7,167.7 529.1,135.7 529.6,169.9 530.1,168.9 530.5,133.6 531.0,192.2 531.5,156.3 531.9,149.5 532.4,160.2 532.9,155.4 533.4,199.3 533.8,149.9 534.3,173.0 534.8,170.2 535.2,162.4 535.7,177.7 536.2,188.3 536.7,185.3 537.1,169.9 537.6,152.0 538.1,191.8 538.5,172.2 539.0,187.3 539.5,176.2 539.9,140.2 540.4,134.5 540.9,162.2 541.4,163.0 541.8,237.3 542.3,119.9 542.8,192.8 543.2,166.9 543.7,121.4 544.2,128.0 544.6,179.3 545.1,154.6 545.6,198.7 546.1,183.1 546.5,175.5 547.0,196.8 547.5,164.1 547.9,170.0 548.4,196.7 548.9,129.9 549.4,182.4 549.8,177.4 550.3,168.6 550.8,198.5 551.2,159.5 551.7,149.6 552.2,214.9 552.6,131.7 553.1,205.6 553.6,168.1 554.1,169.7 554.5,158.4 555.0,191.0" fill="none" stroke="#6670ee" stroke-width="1.2" opacity=".82"/>
<line x1="179.0" y1="265" x2="179.0" y2="271" stroke="#30332e"/>
<text x="179.0" y="292" text-anchor="middle" font-family="-apple-system,BlinkMacSystemFont,PingFang SC,Noto Sans CJK SC,sans-serif" font-size="14">200</text>
<line x1="273.0" y1="265" x2="273.0" y2="271" stroke="#30332e"/>
<text x="273.0" y="292" text-anchor="middle" font-family="-apple-system,BlinkMacSystemFont,PingFang SC,Noto Sans CJK SC,sans-serif" font-size="14">400</text>
<line x1="367.0" y1="265" x2="367.0" y2="271" stroke="#30332e"/>
<text x="367.0" y="292" text-anchor="middle" font-family="-apple-system,BlinkMacSystemFont,PingFang SC,Noto Sans CJK SC,sans-serif" font-size="14">600</text>
<line x1="461.0" y1="265" x2="461.0" y2="271" stroke="#30332e"/>
<text x="461.0" y="292" text-anchor="middle" font-family="-apple-system,BlinkMacSystemFont,PingFang SC,Noto Sans CJK SC,sans-serif" font-size="14">800</text>
<line x1="555.0" y1="265" x2="555.0" y2="271" stroke="#30332e"/>
<text x="555.0" y="292" text-anchor="middle" font-family="-apple-system,BlinkMacSystemFont,PingFang SC,Noto Sans CJK SC,sans-serif" font-size="14">1000</text>
<rect x="645" y="75" width="235.0" height="190" fill="#e2e3e0"/>
<rect x="645" y="75" width="470" height="190" fill="none" stroke="#30332e"/>
<text x="645" y="61" font-family="-apple-system,BlinkMacSystemFont,PingFang SC,Noto Sans CJK SC,sans-serif" font-size="22" fill="#30332e">a[2]</text>
<text x="1115" y="61" text-anchor="end" font-family="-apple-system,BlinkMacSystemFont,PingFang SC,Noto Sans CJK SC,sans-serif" font-size="18" fill="#30332e">n_eff = 3109</text>
<polyline points="645.0,166.5 645.5,169.3 645.9,169.7 646.4,173.7 646.9,154.1 647.4,115.7 647.8,139.1 648.3,173.9 648.8,135.7 649.2,152.1 649.7,183.0 650.2,192.7 650.6,143.6 651.1,191.0 651.6,159.1 652.1,170.3 652.5,112.4 653.0,158.2 653.5,152.7 653.9,128.8 654.4,180.8 654.9,139.1 655.4,151.8 655.8,178.5 656.3,158.8 656.8,180.9 657.2,164.0 657.7,204.4 658.2,177.6 658.6,177.2 659.1,195.6 659.6,172.3 660.1,207.0 660.5,175.6 661.0,135.6 661.5,173.5 661.9,144.7 662.4,139.0 662.9,189.9 663.3,147.8 663.8,177.0 664.3,152.1 664.8,119.4 665.2,191.7 665.7,134.5 666.2,180.5 666.6,172.5 667.1,174.7 667.6,128.8 668.1,209.4 668.5,236.8 669.0,132.5 669.5,135.5 669.9,126.2 670.4,143.2 670.9,127.6 671.3,153.9 671.8,157.0 672.3,164.0 672.8,134.9 673.2,161.5 673.7,158.2 674.2,182.9 674.6,136.0 675.1,159.0 675.6,194.4 676.1,196.2 676.5,155.4 677.0,136.6 677.5,128.3 677.9,144.9 678.4,208.7 678.9,170.3 679.3,213.1 679.8,193.0 680.3,151.5 680.8,238.8 681.2,165.1 681.7,167.5 682.2,154.7 682.6,176.8 683.1,178.3 683.6,190.5 684.0,126.0 684.5,178.1 685.0,142.7 685.5,165.2 685.9,196.8 686.4,148.5 686.9,133.0 687.3,190.5 687.8,139.7 688.3,162.4 688.8,151.4 689.2,147.8 689.7,148.9 690.2,167.4 690.6,172.2 691.1,159.8 691.6,156.6 692.0,125.3 692.5,205.1 693.0,188.6 693.5,164.6 693.9,183.9 694.4,150.5 694.9,116.6 695.3,189.0 695.8,170.7 696.3,187.6 696.8,162.4 697.2,132.7 697.7,154.1 698.2,140.3 698.6,221.7 699.1,145.9 699.6,208.4 700.0,210.9 700.5,162.5 701.0,185.7 701.5,163.8 701.9,182.0 702.4,162.5 702.9,173.2 703.3,175.8 703.8,141.9 704.3,188.8 704.7,158.8 705.2,144.5 705.7,228.6 706.2,134.7 706.6,196.8 707.1,125.8 707.6,164.4 708.0,207.7 708.5,163.3 709.0,107.6 709.5,223.8 709.9,197.6 710.4,181.4 710.9,143.0 711.3,186.2 711.8,208.4 712.3,121.9 712.7,143.5 713.2,159.9 713.7,184.5 714.2,189.8 714.6,166.1 715.1,147.2 715.6,129.8 716.0,184.7 716.5,148.5 717.0,116.8 717.5,154.1 717.9,186.2 718.4,161.1 718.9,159.5 719.3,192.4 719.8,172.7 720.3,108.4 720.7,171.5 721.2,148.5 721.7,133.6 722.2,159.1 722.6,119.4 723.1,117.1 723.6,203.9 724.0,180.4 724.5,143.6 725.0,162.7 725.5,146.1 725.9,135.4 726.4,152.9 726.9,171.8 727.3,111.4 727.8,188.1 728.3,93.4 728.7,198.4 729.2,197.7 729.7,141.9 730.2,164.0 730.6,148.6 731.1,161.0 731.6,174.3 732.0,181.5 732.5,138.3 733.0,168.5 733.4,139.8 733.9,185.3 734.4,165.6 734.9,201.1 735.3,184.2 735.8,173.4 736.3,128.5 736.7,191.7 737.2,169.2 737.7,202.8 738.2,162.7 738.6,186.2 739.1,145.4 739.6,153.9 740.0,191.8 740.5,193.0 741.0,171.7 741.4,155.8 741.9,146.9 742.4,148.7 742.9,143.0 743.3,167.2 743.8,170.3 744.3,116.1 744.7,181.3 745.2,178.5 745.7,139.0 746.2,201.8 746.6,179.7 747.1,118.1 747.6,189.4 748.0,128.9 748.5,189.3 749.0,139.9 749.4,168.0 749.9,151.7 750.4,155.4 750.9,186.5 751.3,118.8 751.8,203.7 752.3,167.3 752.7,157.9 753.2,146.5 753.7,142.3 754.1,114.9 754.6,107.9 755.1,199.0 755.6,183.6 756.0,158.7 756.5,181.7 757.0,117.2 757.4,159.5 757.9,168.6 758.4,181.0 758.9,180.8 759.3,223.6 759.8,162.8 760.3,184.3 760.7,204.5 761.2,175.5 761.7,157.6 762.1,209.7 762.6,126.4 763.1,179.3 763.6,159.0 764.0,215.0 764.5,164.3 765.0,135.5 765.4,218.2 765.9,124.6 766.4,144.8 766.9,165.7 767.3,149.5 767.8,153.7 768.3,147.0 768.7,186.1 769.2,168.2 769.7,212.6 770.1,127.2 770.6,190.0 771.1,124.3 771.6,153.7 772.0,142.5 772.5,161.2 773.0,173.9 773.4,134.6 773.9,173.6 774.4,156.4 774.8,164.4 775.3,164.6 775.8,189.3 776.3,133.9 776.7,190.1 777.2,173.5 777.7,140.1 778.1,175.5 778.6,165.5 779.1,134.4 779.6,224.6 780.0,181.9 780.5,160.4 781.0,192.3 781.4,164.3 781.9,112.0 782.4,145.7 782.8,161.2 783.3,142.3 783.8,158.6 784.3,180.5 784.7,154.5 785.2,226.7 785.7,117.0 786.1,139.5 786.6,185.9 787.1,188.8 787.6,193.4 788.0,152.6 788.5,137.0 789.0,204.2 789.4,147.1 789.9,188.5 790.4,176.0 790.8,182.6 791.3,154.7 791.8,257.2 792.3,155.2 792.7,156.6 793.2,184.7 793.7,140.4 794.1,171.5 794.6,147.7 795.1,152.6 795.6,233.7 796.0,176.2 796.5,177.0 797.0,126.3 797.4,183.0 797.9,143.8 798.4,168.8 798.8,138.5 799.3,206.7 799.8,141.1 800.3,167.3 800.7,169.2 801.2,161.4 801.7,145.8 802.1,145.8 802.6,202.3 803.1,194.5 803.5,201.7 804.0,169.1 804.5,189.5 805.0,154.5 805.4,187.3 805.9,139.8 806.4,159.5 806.8,132.1 807.3,177.0 807.8,181.3 808.3,196.1 808.7,138.6 809.2,187.6 809.7,195.5 810.1,168.3 810.6,154.7 811.1,155.9 811.5,178.8 812.0,167.1 812.5,183.1 813.0,140.5 813.4,154.4 813.9,111.8 814.4,119.2 814.8,188.3 815.3,148.2 815.8,212.9 816.3,137.2 816.7,146.0 817.2,176.0 817.7,200.0 818.1,149.0 818.6,185.8 819.1,161.6 819.5,158.1 820.0,189.6 820.5,171.4 821.0,203.9 821.4,143.1 821.9,156.8 822.4,173.2 822.8,142.7 823.3,184.1 823.8,159.1 824.2,207.1 824.7,175.1 825.2,159.0 825.7,159.5 826.1,142.7 826.6,187.2 827.1,191.9 827.5,166.8 828.0,169.9 828.5,163.5 829.0,150.4 829.4,167.3 829.9,142.8 830.4,159.7 830.8,185.8 831.3,205.3 831.8,122.3 832.2,152.3 832.7,193.9 833.2,164.8 833.7,146.1 834.1,170.1 834.6,151.0 835.1,145.3 835.5,147.7 836.0,190.4 836.5,170.9 837.0,167.0 837.4,185.3 837.9,196.9 838.4,131.1 838.8,164.8 839.3,176.2 839.8,188.9 840.2,163.8 840.7,186.0 841.2,214.0 841.7,178.4 842.1,160.6 842.6,160.1 843.1,139.3 843.5,188.4 844.0,178.5 844.5,188.1 844.9,178.3 845.4,190.6 845.9,125.8 846.4,191.9 846.8,173.8 847.3,159.3 847.8,166.3 848.2,186.5 848.7,180.2 849.2,180.2 849.7,141.9 850.1,170.4 850.6,156.2 851.1,149.0 851.5,196.5 852.0,185.2 852.5,149.5 852.9,139.3 853.4,171.3 853.9,150.1 854.4,144.8 854.8,215.1 855.3,119.9 855.8,150.8 856.2,212.0 856.7,186.8 857.2,184.6 857.7,159.9 858.1,139.8 858.6,185.0 859.1,207.2 859.5,184.0 860.0,125.9 860.5,152.1 860.9,168.7 861.4,180.3 861.9,136.5 862.4,153.7 862.8,183.5 863.3,169.3 863.8,181.3 864.2,206.5 864.7,120.6 865.2,147.4 865.7,127.3 866.1,176.6 866.6,169.6 867.1,165.1 867.5,166.8 868.0,162.0 868.5,120.3 868.9,183.1 869.4,180.8 869.9,207.3 870.4,134.6 870.8,191.4 871.3,189.3 871.8,169.9 872.2,180.0 872.7,142.2 873.2,199.0 873.6,164.8 874.1,187.1 874.6,120.6 875.1,179.0 875.5,184.2 876.0,108.2 876.5,147.2 876.9,170.2 877.4,176.1 877.9,155.0 878.4,184.5 878.8,136.7 879.3,176.0 879.8,132.8 880.2,175.8 880.7,175.2 881.2,194.7 881.6,124.7 882.1,158.9 882.6,175.5 883.1,149.8 883.5,169.9 884.0,135.3 884.5,194.5 884.9,168.7 885.4,143.9 885.9,160.1 886.4,117.7 886.8,170.7 887.3,170.3 887.8,181.9 888.2,192.6 888.7,135.9 889.2,184.3 889.6,140.8 890.1,162.5 890.6,184.1 891.1,174.0 891.5,126.8 892.0,176.1 892.5,226.4 892.9,153.2 893.4,136.4 893.9,180.6 894.3,164.3 894.8,230.1 895.3,157.2 895.8,188.4 896.2,164.8 896.7,204.7 897.2,160.6 897.6,169.1 898.1,206.1 898.6,171.7 899.1,189.4 899.5,187.5 900.0,158.1 900.5,121.4 900.9,136.3 901.4,130.4 901.9,201.6 902.3,165.7 902.8,182.1 903.3,172.0 903.8,118.5 904.2,204.9 904.7,152.6 905.2,161.9 905.6,214.5 906.1,192.9 906.6,146.3 907.1,163.6 907.5,181.3 908.0,172.6 908.5,161.1 908.9,153.3 909.4,218.6 909.9,112.5 910.3,203.4 910.8,212.2 911.3,168.0 911.8,224.3 912.2,153.1 912.7,166.5 913.2,172.5 913.6,140.8 914.1,182.5 914.6,205.4 915.1,154.6 915.5,140.9 916.0,183.0 916.5,218.5 916.9,168.6 917.4,148.7 917.9,142.6 918.3,168.7 918.8,180.2 919.3,171.3 919.8,132.6 920.2,163.7 920.7,199.2 921.2,182.2 921.6,166.4 922.1,142.4 922.6,154.4 923.0,172.9 923.5,135.4 924.0,158.1 924.5,151.4 924.9,180.4 925.4,170.1 925.9,188.9 926.3,208.4 926.8,148.7 927.3,195.7 927.8,144.8 928.2,179.9 928.7,174.8 929.2,174.4 929.6,179.6 930.1,140.5 930.6,186.9 931.0,220.1 931.5,171.5 932.0,161.2 932.5,186.7 932.9,201.9 933.4,247.4 933.9,176.1 934.3,177.2 934.8,151.7 935.3,157.5 935.8,168.1 936.2,161.4 936.7,206.1 937.2,203.3 937.6,149.6 938.1,193.8 938.6,187.3 939.0,171.0 939.5,189.8 940.0,161.5 940.5,157.6 940.9,176.4 941.4,159.2 941.9,136.2 942.3,130.2 942.8,232.5 943.3,157.2 943.7,215.2 944.2,151.8 944.7,166.8 945.2,175.1 945.6,161.0 946.1,201.7 946.6,132.6 947.0,131.0 947.5,225.7 948.0,151.7 948.5,184.2 948.9,170.7 949.4,136.0 949.9,155.9 950.3,220.2 950.8,160.0 951.3,193.2 951.7,168.9 952.2,113.8 952.7,145.5 953.2,134.2 953.6,177.9 954.1,166.3 954.6,134.2 955.0,179.1 955.5,135.9 956.0,154.6 956.5,173.2 956.9,201.8 957.4,164.0 957.9,180.1 958.3,168.4 958.8,155.8 959.3,156.0 959.7,146.0 960.2,219.5 960.7,176.4 961.2,184.5 961.6,173.4 962.1,165.8 962.6,181.2 963.0,133.0 963.5,186.6 964.0,138.4 964.4,184.0 964.9,143.3 965.4,159.5 965.9,171.6 966.3,156.7 966.8,168.0 967.3,159.6 967.7,224.3 968.2,173.4 968.7,173.3 969.2,162.9 969.6,155.4 970.1,174.4 970.6,178.6 971.0,160.5 971.5,170.8 972.0,164.1 972.4,166.5 972.9,124.4 973.4,147.6 973.9,174.7 974.3,168.6 974.8,175.3 975.3,191.0 975.7,171.4 976.2,157.7 976.7,165.5 977.2,160.2 977.6,192.1 978.1,193.3 978.6,163.4 979.0,209.7 979.5,161.9 980.0,153.9 980.4,188.1 980.9,132.9 981.4,196.0 981.9,204.1 982.3,151.2 982.8,124.5 983.3,165.8 983.7,199.0 984.2,177.8 984.7,192.8 985.2,144.4 985.6,167.0 986.1,157.8 986.6,129.3 987.0,139.6 987.5,149.8 988.0,148.3 988.4,210.2 988.9,185.8 989.4,161.3 989.9,168.8 990.3,183.7 990.8,128.1 991.3,174.1 991.7,160.8 992.2,200.5 992.7,173.4 993.1,178.5 993.6,136.3 994.1,194.6 994.6,172.8 995.0,159.3 995.5,161.7 996.0,204.4 996.4,146.7 996.9,171.9 997.4,172.0 997.9,205.3 998.3,166.2 998.8,196.3 999.3,127.7 999.7,190.5 1000.2,172.0 1000.7,158.2 1001.1,164.6 1001.6,209.2 1002.1,204.2 1002.6,121.5 1003.0,171.8 1003.5,215.1 1004.0,144.0 1004.4,161.6 1004.9,190.0 1005.4,162.7 1005.9,127.3 1006.3,164.1 1006.8,185.9 1007.3,173.6 1007.7,155.2 1008.2,235.6 1008.7,159.1 1009.1,179.9 1009.6,145.3 1010.1,177.7 1010.6,185.3 1011.0,141.9 1011.5,167.7 1012.0,197.1 1012.4,166.1 1012.9,177.3 1013.4,175.8 1013.8,201.2 1014.3,159.1 1014.8,173.2 1015.3,140.1 1015.7,223.1 1016.2,196.4 1016.7,176.5 1017.1,176.4 1017.6,173.6 1018.1,163.0 1018.6,202.7 1019.0,161.0 1019.5,166.3 1020.0,212.9 1020.4,162.3 1020.9,199.2 1021.4,206.7 1021.8,179.7 1022.3,164.7 1022.8,165.5 1023.3,173.3 1023.7,149.5 1024.2,149.2 1024.7,176.1 1025.1,132.5 1025.6,201.5 1026.1,151.8 1026.6,161.6 1027.0,193.8 1027.5,203.1 1028.0,197.8 1028.4,168.8 1028.9,143.7 1029.4,201.4 1029.8,151.4 1030.3,222.0 1030.8,161.5 1031.3,157.1 1031.7,192.8 1032.2,152.8 1032.7,147.7 1033.1,206.6 1033.6,157.0 1034.1,167.3 1034.5,230.3 1035.0,171.5 1035.5,165.1 1036.0,155.7 1036.4,102.8 1036.9,210.8 1037.4,176.6 1037.8,188.3 1038.3,196.7 1038.8,177.5 1039.3,208.2 1039.7,188.7 1040.2,154.7 1040.7,230.5 1041.1,171.9 1041.6,171.3 1042.1,172.5 1042.5,195.1 1043.0,110.9 1043.5,158.5 1044.0,167.3 1044.4,175.7 1044.9,168.1 1045.4,189.7 1045.8,189.8 1046.3,155.8 1046.8,148.9 1047.3,119.0 1047.7,158.0 1048.2,163.4 1048.7,170.4 1049.1,141.8 1049.6,187.1 1050.1,191.8 1050.5,217.6 1051.0,147.6 1051.5,159.6 1052.0,222.6 1052.4,168.2 1052.9,140.0 1053.4,184.6 1053.8,160.4 1054.3,172.5 1054.8,193.0 1055.3,148.7 1055.7,221.8 1056.2,194.5 1056.7,197.5 1057.1,162.2 1057.6,187.5 1058.1,102.6 1058.5,163.8 1059.0,159.3 1059.5,153.5 1060.0,198.2 1060.4,176.7 1060.9,189.9 1061.4,214.8 1061.8,201.0 1062.3,128.7 1062.8,204.2 1063.2,143.6 1063.7,128.8 1064.2,139.7 1064.7,168.0 1065.1,164.8 1065.6,179.0 1066.1,182.3 1066.5,162.5 1067.0,154.4 1067.5,204.2 1068.0,179.3 1068.4,185.8 1068.9,177.2 1069.4,170.0 1069.8,130.9 1070.3,135.4 1070.8,228.3 1071.2,140.9 1071.7,198.3 1072.2,138.8 1072.7,206.7 1073.1,198.7 1073.6,152.7 1074.1,152.0 1074.5,164.7 1075.0,182.3 1075.5,211.1 1076.0,138.7 1076.4,178.1 1076.9,159.4 1077.4,158.6 1077.8,127.5 1078.3,198.7 1078.8,164.0 1079.2,154.2 1079.7,146.8 1080.2,189.2 1080.7,159.3 1081.1,154.7 1081.6,177.9 1082.1,152.0 1082.5,196.3 1083.0,185.4 1083.5,191.1 1083.9,158.5 1084.4,213.9 1084.9,152.3 1085.4,159.8 1085.8,163.7 1086.3,153.5 1086.8,178.2 1087.2,146.9 1087.7,143.9 1088.2,197.5 1088.7,125.1 1089.1,172.9 1089.6,146.7 1090.1,172.9 1090.5,190.1 1091.0,150.3 1091.5,180.6 1091.9,163.0 1092.4,191.6 1092.9,148.9 1093.4,201.0 1093.8,176.8 1094.3,173.9 1094.8,140.1 1095.2,177.2 1095.7,152.0 1096.2,175.6 1096.7,161.4 1097.1,146.2 1097.6,214.6 1098.1,121.2 1098.5,161.8 1099.0,145.4 1099.5,204.3 1099.9,145.6 1100.4,202.3 1100.9,207.6 1101.4,163.7 1101.8,174.8 1102.3,163.3 1102.8,186.4 1103.2,162.4 1103.7,128.9 1104.2,174.1 1104.6,165.3 1105.1,166.4 1105.6,135.9 1106.1,149.4 1106.5,182.5 1107.0,141.5 1107.5,175.6 1107.9,183.4 1108.4,222.2 1108.9,172.0 1109.4,225.4 1109.8,186.2 1110.3,169.2 1110.8,203.4 1111.2,136.8 1111.7,169.5 1112.2,202.6 1112.6,140.8 1113.1,191.2 1113.6,186.5 1114.1,171.3 1114.5,197.1 1115.0,143.5" fill="none" stroke="#6670ee" stroke-width="1.2" opacity=".82"/>
<line x1="739.0" y1="265" x2="739.0" y2="271" stroke="#30332e"/>
<text x="739.0" y="292" text-anchor="middle" font-family="-apple-system,BlinkMacSystemFont,PingFang SC,Noto Sans CJK SC,sans-serif" font-size="14">200</text>
<line x1="833.0" y1="265" x2="833.0" y2="271" stroke="#30332e"/>
<text x="833.0" y="292" text-anchor="middle" font-family="-apple-system,BlinkMacSystemFont,PingFang SC,Noto Sans CJK SC,sans-serif" font-size="14">400</text>
<line x1="927.0" y1="265" x2="927.0" y2="271" stroke="#30332e"/>
<text x="927.0" y="292" text-anchor="middle" font-family="-apple-system,BlinkMacSystemFont,PingFang SC,Noto Sans CJK SC,sans-serif" font-size="14">600</text>
<line x1="1021.0" y1="265" x2="1021.0" y2="271" stroke="#30332e"/>
<text x="1021.0" y="292" text-anchor="middle" font-family="-apple-system,BlinkMacSystemFont,PingFang SC,Noto Sans CJK SC,sans-serif" font-size="14">800</text>
<line x1="1115.0" y1="265" x2="1115.0" y2="271" stroke="#30332e"/>
<text x="1115.0" y="292" text-anchor="middle" font-family="-apple-system,BlinkMacSystemFont,PingFang SC,Noto Sans CJK SC,sans-serif" font-size="14">1000</text>
<rect x="85" y="355" width="235.0" height="190" fill="#e2e3e0"/>
<rect x="85" y="355" width="470" height="190" fill="none" stroke="#30332e"/>
<text x="85" y="341" font-family="-apple-system,BlinkMacSystemFont,PingFang SC,Noto Sans CJK SC,sans-serif" font-size="22" fill="#30332e">b[1]</text>
<text x="555" y="341" text-anchor="end" font-family="-apple-system,BlinkMacSystemFont,PingFang SC,Noto Sans CJK SC,sans-serif" font-size="18" fill="#30332e">n_eff = 2153</text>
<polyline points="85.0,448.7 85.5,445.1 85.9,477.5 86.4,449.5 86.9,410.9 87.4,466.9 87.8,450.3 88.3,440.1 88.8,482.6 89.2,449.7 89.7,460.7 90.2,453.0 90.6,474.2 91.1,440.5 91.6,430.4 92.1,405.1 92.5,507.8 93.0,414.2 93.5,461.2 93.9,434.6 94.4,473.0 94.9,476.3 95.4,461.7 95.8,414.6 96.3,428.8 96.8,472.5 97.2,430.6 97.7,439.3 98.2,473.3 98.6,404.5 99.1,456.9 99.6,471.5 100.1,493.3 100.5,452.5 101.0,437.2 101.5,439.7 101.9,419.1 102.4,441.3 102.9,440.1 103.3,493.8 103.8,469.2 104.3,487.2 104.8,430.9 105.2,458.7 105.7,424.0 106.2,406.3 106.6,478.5 107.1,455.9 107.6,439.6 108.1,424.4 108.5,474.3 109.0,446.8 109.5,459.0 109.9,402.4 110.4,472.0 110.9,406.3 111.3,473.3 111.8,430.3 112.3,467.5 112.8,444.5 113.2,475.2 113.7,477.9 114.2,441.7 114.6,419.0 115.1,464.6 115.6,450.9 116.1,410.0 116.5,440.1 117.0,445.8 117.5,429.9 117.9,467.5 118.4,408.4 118.9,418.0 119.3,466.4 119.8,445.0 120.3,472.5 120.8,470.4 121.2,442.6 121.7,454.3 122.2,393.6 122.6,475.8 123.1,429.1 123.6,416.6 124.0,462.8 124.5,461.7 125.0,467.6 125.5,419.0 125.9,461.8 126.4,433.5 126.9,438.3 127.3,414.5 127.8,458.5 128.3,383.3 128.8,441.4 129.2,465.0 129.7,439.9 130.2,478.3 130.6,433.3 131.1,441.2 131.6,495.4 132.0,415.3 132.5,445.8 133.0,464.3 133.5,449.0 133.9,467.5 134.4,437.1 134.9,455.9 135.3,423.4 135.8,413.5 136.3,475.5 136.8,417.5 137.2,447.1 137.7,427.4 138.2,473.2 138.6,444.1 139.1,422.2 139.6,435.1 140.0,400.8 140.5,453.2 141.0,464.4 141.5,413.9 141.9,445.4 142.4,418.6 142.9,442.9 143.3,445.7 143.8,487.3 144.3,440.9 144.7,449.2 145.2,445.0 145.7,448.1 146.2,465.5 146.6,432.1 147.1,448.2 147.6,456.6 148.0,468.5 148.5,435.4 149.0,439.9 149.5,485.9 149.9,438.3 150.4,430.3 150.9,435.9 151.3,419.7 151.8,436.6 152.3,479.4 152.7,434.3 153.2,445.0 153.7,490.3 154.2,429.1 154.6,462.6 155.1,459.6 155.6,480.1 156.0,471.4 156.5,451.9 157.0,489.5 157.5,400.4 157.9,465.2 158.4,478.3 158.9,455.8 159.3,456.4 159.8,479.7 160.3,429.9 160.7,493.9 161.2,430.2 161.7,439.6 162.2,404.9 162.6,451.0 163.1,437.6 163.6,473.0 164.0,416.3 164.5,444.5 165.0,457.6 165.5,454.8 165.9,456.6 166.4,450.6 166.9,468.3 167.3,429.9 167.8,451.8 168.3,406.9 168.7,450.0 169.2,476.5 169.7,419.5 170.2,469.1 170.6,451.7 171.1,431.1 171.6,499.2 172.0,424.1 172.5,455.0 173.0,435.7 173.4,427.7 173.9,475.2 174.4,438.4 174.9,493.4 175.3,450.0 175.8,461.5 176.3,473.4 176.7,448.8 177.2,436.8 177.7,465.4 178.2,448.5 178.6,436.8 179.1,447.7 179.6,478.6 180.0,428.9 180.5,452.6 181.0,437.5 181.4,444.2 181.9,441.6 182.4,435.6 182.9,467.3 183.3,430.5 183.8,393.3 184.3,476.6 184.7,382.6 185.2,442.3 185.7,487.2 186.2,452.5 186.6,437.0 187.1,446.3 187.6,472.6 188.0,474.6 188.5,489.6 189.0,444.5 189.4,471.7 189.9,441.0 190.4,417.2 190.9,435.9 191.3,429.3 191.8,446.6 192.3,444.1 192.7,437.2 193.2,429.7 193.7,441.7 194.1,491.4 194.6,421.5 195.1,441.1 195.6,474.4 196.0,457.0 196.5,406.6 197.0,467.8 197.4,454.3 197.9,458.7 198.4,443.8 198.9,435.7 199.3,430.0 199.8,462.5 200.3,435.2 200.7,471.8 201.2,473.3 201.7,425.9 202.1,456.2 202.6,466.4 203.1,406.8 203.6,483.3 204.0,403.4 204.5,473.7 205.0,442.4 205.4,428.0 205.9,482.4 206.4,438.6 206.9,458.3 207.3,461.2 207.8,401.4 208.3,465.8 208.7,460.5 209.2,409.7 209.7,453.3 210.1,488.9 210.6,460.4 211.1,430.1 211.6,407.9 212.0,446.8 212.5,447.3 213.0,417.4 213.4,451.9 213.9,414.4 214.4,441.0 214.8,466.8 215.3,475.2 215.8,435.9 216.3,466.0 216.7,452.3 217.2,429.5 217.7,457.5 218.1,409.5 218.6,456.7 219.1,456.8 219.6,475.8 220.0,454.3 220.5,480.8 221.0,461.0 221.4,435.2 221.9,450.5 222.4,426.5 222.8,487.2 223.3,453.3 223.8,458.9 224.3,438.6 224.7,456.5 225.2,478.6 225.7,426.7 226.1,456.6 226.6,456.2 227.1,464.9 227.6,460.7 228.0,491.9 228.5,414.5 229.0,446.8 229.4,504.5 229.9,479.5 230.4,464.8 230.8,476.2 231.3,438.0 231.8,463.5 232.3,442.5 232.7,475.1 233.2,456.1 233.7,409.8 234.1,415.5 234.6,447.0 235.1,433.5 235.6,486.1 236.0,429.9 236.5,411.9 237.0,471.6 237.4,456.5 237.9,478.6 238.4,390.5 238.8,435.3 239.3,495.6 239.8,454.9 240.3,440.8 240.7,440.4 241.2,444.3 241.7,474.3 242.1,477.9 242.6,408.2 243.1,464.9 243.5,434.3 244.0,451.1 244.5,474.5 245.0,443.6 245.4,457.1 245.9,413.4 246.4,449.7 246.8,472.2 247.3,455.6 247.8,427.0 248.3,462.1 248.7,486.6 249.2,467.4 249.7,461.3 250.1,407.3 250.6,426.8 251.1,425.5 251.5,449.0 252.0,475.9 252.5,451.0 253.0,407.8 253.4,473.2 253.9,458.0 254.4,445.5 254.8,432.0 255.3,430.2 255.8,498.6 256.3,476.5 256.7,450.8 257.2,427.6 257.7,472.2 258.1,429.4 258.6,467.7 259.1,457.0 259.5,415.7 260.0,482.4 260.5,443.1 261.0,446.7 261.4,471.1 261.9,461.4 262.4,472.7 262.8,470.6 263.3,421.6 263.8,458.4 264.2,469.2 264.7,438.2 265.2,432.4 265.7,452.7 266.1,414.0 266.6,481.6 267.1,407.5 267.5,481.8 268.0,431.8 268.5,470.3 269.0,464.4 269.4,472.7 269.9,488.6 270.4,436.0 270.8,469.0 271.3,449.6 271.8,460.4 272.2,436.4 272.7,429.7 273.2,437.7 273.7,468.5 274.1,428.0 274.6,441.1 275.1,500.6 275.5,450.7 276.0,483.2 276.5,407.6 277.0,475.9 277.4,440.8 277.9,448.3 278.4,449.6 278.8,446.7 279.3,424.7 279.8,443.9 280.2,439.6 280.7,438.7 281.2,419.4 281.7,456.4 282.1,439.7 282.6,440.0 283.1,447.6 283.5,456.4 284.0,447.7 284.5,494.8 284.9,454.7 285.4,446.2 285.9,468.6 286.4,456.6 286.8,477.0 287.3,448.4 287.8,430.0 288.2,443.0 288.7,426.0 289.2,492.7 289.7,452.0 290.1,463.7 290.6,447.0 291.1,495.1 291.5,434.2 292.0,429.7 292.5,481.8 292.9,464.2 293.4,412.6 293.9,431.5 294.4,487.5 294.8,478.1 295.3,470.0 295.8,455.5 296.2,450.3 296.7,419.7 297.2,480.0 297.7,439.2 298.1,452.9 298.6,449.2 299.1,409.4 299.5,436.0 300.0,440.3 300.5,457.2 300.9,460.1 301.4,466.9 301.9,416.6 302.4,450.7 302.8,427.3 303.3,486.4 303.8,451.1 304.2,408.0 304.7,444.4 305.2,477.8 305.7,451.3 306.1,443.2 306.6,429.5 307.1,467.4 307.5,420.4 308.0,468.3 308.5,436.6 308.9,469.8 309.4,469.6 309.9,484.3 310.4,425.9 310.8,452.1 311.3,494.1 311.8,461.4 312.2,480.3 312.7,476.1 313.2,444.5 313.6,471.7 314.1,428.3 314.6,454.8 315.1,427.6 315.5,450.8 316.0,465.7 316.5,447.5 316.9,471.7 317.4,466.1 317.9,458.2 318.4,434.8 318.8,448.4 319.3,365.3 319.8,482.9 320.2,416.6 320.7,420.8 321.2,481.6 321.6,430.4 322.1,489.3 322.6,417.5 323.1,440.5 323.5,492.3 324.0,396.0 324.5,463.3 324.9,424.1 325.4,445.2 325.9,463.7 326.4,442.7 326.8,445.0 327.3,445.4 327.8,462.2 328.2,446.0 328.7,443.6 329.2,449.1 329.6,468.1 330.1,436.7 330.6,490.9 331.1,411.1 331.5,470.8 332.0,451.0 332.5,428.6 332.9,422.6 333.4,413.7 333.9,422.7 334.3,492.4 334.8,462.0 335.3,453.8 335.8,460.5 336.2,422.2 336.7,499.4 337.2,425.4 337.6,452.0 338.1,485.6 338.6,446.0 339.1,433.3 339.5,467.3 340.0,424.9 340.5,437.1 340.9,444.2 341.4,420.6 341.9,500.9 342.3,439.4 342.8,446.3 343.3,422.3 343.8,461.2 344.2,483.4 344.7,426.2 345.2,428.9 345.6,489.0 346.1,419.5 346.6,425.1 347.1,445.6 347.5,453.6 348.0,460.3 348.5,494.3 348.9,443.5 349.4,444.8 349.9,442.8 350.3,471.4 350.8,404.0 351.3,468.3 351.8,421.2 352.2,493.3 352.7,407.3 353.2,499.1 353.6,447.2 354.1,460.7 354.6,442.8 355.1,455.6 355.5,421.9 356.0,497.7 356.5,435.0 356.9,433.4 357.4,439.3 357.9,458.1 358.3,404.0 358.8,478.2 359.3,426.4 359.8,514.1 360.2,415.6 360.7,433.1 361.2,474.2 361.6,464.7 362.1,450.4 362.6,460.2 363.0,447.6 363.5,451.8 364.0,480.2 364.5,429.7 364.9,452.5 365.4,415.3 365.9,487.0 366.3,436.2 366.8,456.1 367.3,446.0 367.8,488.7 368.2,482.0 368.7,448.9 369.2,471.9 369.6,468.3 370.1,455.9 370.6,496.2 371.0,462.1 371.5,417.3 372.0,446.6 372.5,473.3 372.9,405.2 373.4,465.2 373.9,445.2 374.3,448.6 374.8,483.4 375.3,416.6 375.8,481.2 376.2,473.4 376.7,440.9 377.2,431.9 377.6,468.8 378.1,462.1 378.6,447.8 379.0,447.7 379.5,442.5 380.0,451.6 380.5,461.2 380.9,441.0 381.4,438.9 381.9,453.4 382.3,494.0 382.8,445.0 383.3,430.0 383.7,447.4 384.2,445.8 384.7,473.2 385.2,433.2 385.6,399.3 386.1,439.6 386.6,420.1 387.0,473.8 387.5,436.5 388.0,418.5 388.5,489.9 388.9,429.5 389.4,476.9 389.9,425.6 390.3,459.9 390.8,432.9 391.3,433.1 391.7,430.7 392.2,479.9 392.7,463.7 393.2,472.7 393.6,426.1 394.1,423.2 394.6,458.0 395.0,433.6 395.5,491.2 396.0,407.3 396.5,424.6 396.9,465.5 397.4,496.6 397.9,425.5 398.3,453.1 398.8,436.5 399.3,454.1 399.7,456.7 400.2,457.2 400.7,460.1 401.2,454.2 401.6,435.8 402.1,464.4 402.6,492.5 403.0,448.5 403.5,480.9 404.0,405.3 404.4,510.6 404.9,483.6 405.4,490.5 405.9,438.2 406.3,432.5 406.8,449.1 407.3,425.2 407.7,508.2 408.2,455.7 408.7,450.4 409.2,472.8 409.6,431.2 410.1,472.9 410.6,431.0 411.0,418.0 411.5,453.8 412.0,451.8 412.4,431.2 412.9,425.1 413.4,417.0 413.9,444.3 414.3,415.0 414.8,452.9 415.3,425.8 415.7,442.1 416.2,415.2 416.7,474.9 417.2,457.7 417.6,445.1 418.1,399.5 418.6,460.6 419.0,424.9 419.5,459.4 420.0,442.9 420.4,445.1 420.9,476.4 421.4,427.7 421.9,448.4 422.3,426.4 422.8,452.8 423.3,443.4 423.7,456.1 424.2,466.1 424.7,427.7 425.2,438.0 425.6,454.2 426.1,447.1 426.6,449.1 427.0,443.3 427.5,453.5 428.0,480.5 428.4,433.9 428.9,459.2 429.4,453.7 429.9,407.6 430.3,434.0 430.8,433.8 431.3,415.9 431.7,453.7 432.2,434.7 432.7,474.8 433.1,441.1 433.6,469.2 434.1,480.6 434.6,463.4 435.0,459.5 435.5,436.2 436.0,438.9 436.4,443.9 436.9,436.3 437.4,457.9 437.9,481.2 438.3,449.9 438.8,425.1 439.3,432.2 439.7,422.2 440.2,475.1 440.7,435.4 441.1,474.1 441.6,426.2 442.1,442.6 442.6,443.4 443.0,435.1 443.5,425.6 444.0,472.0 444.4,452.3 444.9,453.0 445.4,415.2 445.9,455.6 446.3,475.6 446.8,468.1 447.3,460.9 447.7,458.7 448.2,462.3 448.7,430.4 449.1,479.6 449.6,410.1 450.1,444.1 450.6,428.9 451.0,432.6 451.5,470.6 452.0,461.6 452.4,436.3 452.9,483.1 453.4,456.2 453.8,470.6 454.3,475.1 454.8,529.1 455.3,455.9 455.7,436.9 456.2,443.9 456.7,465.1 457.1,428.6 457.6,460.8 458.1,439.9 458.6,425.1 459.0,453.5 459.5,423.5 460.0,469.7 460.4,403.6 460.9,425.2 461.4,475.2 461.8,454.9 462.3,471.5 462.8,439.3 463.3,471.8 463.7,461.9 464.2,455.7 464.7,429.6 465.1,484.6 465.6,461.1 466.1,449.4 466.6,447.4 467.0,465.3 467.5,429.2 468.0,485.6 468.4,395.5 468.9,473.7 469.4,443.9 469.8,458.4 470.3,456.6 470.8,429.5 471.3,456.4 471.7,480.4 472.2,446.6 472.7,418.5 473.1,448.1 473.6,452.1 474.1,440.3 474.5,447.5 475.0,436.8 475.5,444.8 476.0,409.3 476.4,462.9 476.9,463.2 477.4,483.7 477.8,434.6 478.3,451.8 478.8,435.3 479.3,437.6 479.7,442.8 480.2,452.7 480.7,447.9 481.1,432.8 481.6,455.2 482.1,473.1 482.5,421.0 483.0,451.8 483.5,466.4 484.0,427.4 484.4,470.6 484.9,456.8 485.4,463.1 485.8,429.6 486.3,415.1 486.8,418.2 487.3,426.5 487.7,433.8 488.2,423.3 488.7,452.3 489.1,450.8 489.6,438.9 490.1,442.1 490.5,467.1 491.0,482.2 491.5,438.4 492.0,444.9 492.4,450.4 492.9,443.0 493.4,460.3 493.8,428.6 494.3,473.0 494.8,463.4 495.3,479.4 495.7,427.0 496.2,450.8 496.7,413.7 497.1,427.1 497.6,423.2 498.1,451.7 498.5,457.3 499.0,437.0 499.5,418.7 500.0,455.6 500.4,413.4 500.9,454.5 501.4,461.2 501.8,495.0 502.3,432.7 502.8,449.5 503.2,442.9 503.7,487.7 504.2,386.3 504.7,476.0 505.1,435.0 505.6,413.5 506.1,430.5 506.5,432.8 507.0,419.7 507.5,450.1 508.0,452.2 508.4,459.8 508.9,427.2 509.4,461.5 509.8,444.6 510.3,461.2 510.8,443.5 511.2,451.4 511.7,449.3 512.2,417.8 512.7,434.2 513.1,424.5 513.6,432.3 514.1,468.9 514.5,460.1 515.0,399.6 515.5,455.3 516.0,391.9 516.4,442.3 516.9,457.0 517.4,444.6 517.8,452.9 518.3,423.9 518.8,472.8 519.2,454.5 519.7,449.5 520.2,489.9 520.7,467.3 521.1,429.6 521.6,443.5 522.1,474.8 522.5,459.2 523.0,439.9 523.5,437.0 523.9,445.2 524.4,466.1 524.9,427.3 525.4,471.7 525.8,462.7 526.3,441.9 526.8,508.9 527.2,432.7 527.7,452.7 528.2,489.3 528.7,439.0 529.1,464.4 529.6,434.6 530.1,446.0 530.5,449.5 531.0,447.7 531.5,469.4 531.9,439.0 532.4,468.0 532.9,453.1 533.4,419.8 533.8,441.9 534.3,441.4 534.8,447.5 535.2,425.5 535.7,458.3 536.2,455.1 536.7,465.7 537.1,415.3 537.6,443.5 538.1,399.9 538.5,460.0 539.0,473.3 539.5,416.2 539.9,453.3 540.4,425.5 540.9,443.9 541.4,459.0 541.8,469.1 542.3,421.4 542.8,460.7 543.2,429.9 543.7,455.2 544.2,489.2 544.6,406.1 545.1,455.4 545.6,404.3 546.1,451.6 546.5,432.8 547.0,465.8 547.5,474.2 547.9,457.0 548.4,489.4 548.9,444.1 549.4,429.2 549.8,437.4 550.3,451.0 550.8,463.2 551.2,449.6 551.7,408.7 552.2,479.1 552.6,398.1 553.1,422.7 553.6,442.1 554.1,473.0 554.5,433.2 555.0,438.1" fill="none" stroke="#6670ee" stroke-width="1.2" opacity=".82"/>
<line x1="179.0" y1="545" x2="179.0" y2="551" stroke="#30332e"/>
<text x="179.0" y="572" text-anchor="middle" font-family="-apple-system,BlinkMacSystemFont,PingFang SC,Noto Sans CJK SC,sans-serif" font-size="14">200</text>
<line x1="273.0" y1="545" x2="273.0" y2="551" stroke="#30332e"/>
<text x="273.0" y="572" text-anchor="middle" font-family="-apple-system,BlinkMacSystemFont,PingFang SC,Noto Sans CJK SC,sans-serif" font-size="14">400</text>
<line x1="367.0" y1="545" x2="367.0" y2="551" stroke="#30332e"/>
<text x="367.0" y="572" text-anchor="middle" font-family="-apple-system,BlinkMacSystemFont,PingFang SC,Noto Sans CJK SC,sans-serif" font-size="14">600</text>
<line x1="461.0" y1="545" x2="461.0" y2="551" stroke="#30332e"/>
<text x="461.0" y="572" text-anchor="middle" font-family="-apple-system,BlinkMacSystemFont,PingFang SC,Noto Sans CJK SC,sans-serif" font-size="14">800</text>
<line x1="555.0" y1="545" x2="555.0" y2="551" stroke="#30332e"/>
<text x="555.0" y="572" text-anchor="middle" font-family="-apple-system,BlinkMacSystemFont,PingFang SC,Noto Sans CJK SC,sans-serif" font-size="14">1000</text>
<rect x="645" y="355" width="235.0" height="190" fill="#e2e3e0"/>
<rect x="645" y="355" width="470" height="190" fill="none" stroke="#30332e"/>
<text x="645" y="341" font-family="-apple-system,BlinkMacSystemFont,PingFang SC,Noto Sans CJK SC,sans-serif" font-size="22" fill="#30332e">b[2]</text>
<text x="1115" y="341" text-anchor="end" font-family="-apple-system,BlinkMacSystemFont,PingFang SC,Noto Sans CJK SC,sans-serif" font-size="18" fill="#30332e">n_eff = 2027</text>
<polyline points="645.0,410.5 645.5,444.2 645.9,442.4 646.4,428.5 646.9,445.1 647.4,493.5 647.8,446.1 648.3,444.3 648.8,462.0 649.2,472.5 649.7,431.0 650.2,448.0 650.6,426.5 651.1,418.8 651.6,401.9 652.1,471.7 652.5,441.9 653.0,423.0 653.5,459.6 653.9,489.0 654.4,481.8 654.9,470.5 655.4,408.2 655.8,394.5 656.3,457.6 656.8,426.9 657.2,457.2 657.7,439.4 658.2,476.1 658.6,417.4 659.1,432.8 659.6,486.9 660.1,461.6 660.5,406.1 661.0,440.6 661.5,479.5 661.9,465.7 662.4,415.2 662.9,442.6 663.3,463.1 663.8,453.4 664.3,473.4 664.8,466.2 665.2,426.0 665.7,449.7 666.2,429.4 666.6,404.8 667.1,443.7 667.6,436.1 668.1,431.8 668.5,420.8 669.0,449.9 669.5,453.3 669.9,470.1 670.4,415.6 670.9,462.8 671.3,446.4 671.8,370.1 672.3,435.5 672.8,481.5 673.2,408.0 673.7,436.7 674.2,466.6 674.6,385.7 675.1,434.7 675.6,414.5 676.1,441.3 676.5,390.6 677.0,461.2 677.5,477.9 677.9,416.6 678.4,429.9 678.9,437.0 679.3,453.0 679.8,422.2 680.3,433.6 680.8,474.2 681.2,431.9 681.7,410.8 682.2,477.0 682.6,447.8 683.1,445.9 683.6,518.8 684.0,435.5 684.5,428.3 685.0,435.2 685.5,446.5 685.9,426.5 686.4,438.0 686.9,455.3 687.3,434.3 687.8,434.6 688.3,461.0 688.8,427.0 689.2,449.3 689.7,420.6 690.2,397.7 690.6,501.1 691.1,465.8 691.6,443.7 692.0,443.9 692.5,434.8 693.0,408.7 693.5,449.5 693.9,499.6 694.4,454.6 694.9,382.6 695.3,470.6 695.8,414.1 696.3,393.1 696.8,448.1 697.2,478.6 697.7,437.2 698.2,481.3 698.6,445.0 699.1,427.4 699.6,414.4 700.0,416.9 700.5,404.7 701.0,475.2 701.5,407.2 701.9,438.3 702.4,416.7 702.9,425.7 703.3,435.7 703.8,446.1 704.3,470.8 704.7,448.3 705.2,482.8 705.7,501.5 706.2,437.4 706.6,453.0 707.1,445.1 707.6,441.9 708.0,451.7 708.5,476.4 709.0,479.0 709.5,429.5 709.9,461.4 710.4,449.4 710.9,430.9 711.3,466.1 711.8,458.5 712.3,421.9 712.7,449.5 713.2,472.5 713.7,430.3 714.2,492.4 714.6,437.6 715.1,450.4 715.6,466.1 716.0,427.3 716.5,456.6 717.0,401.1 717.5,444.0 717.9,446.1 718.4,442.3 718.9,415.1 719.3,451.9 719.8,403.4 720.3,465.7 720.7,423.8 721.2,479.9 721.7,428.5 722.2,470.7 722.6,394.2 723.1,452.1 723.6,451.4 724.0,455.1 724.5,404.0 725.0,434.5 725.5,379.5 725.9,483.1 726.4,434.4 726.9,476.4 727.3,429.5 727.8,422.9 728.3,435.4 728.7,425.4 729.2,432.3 729.7,462.4 730.2,467.3 730.6,514.2 731.1,414.7 731.6,424.8 732.0,467.3 732.5,444.7 733.0,421.2 733.4,469.9 733.9,420.9 734.4,459.2 734.9,448.2 735.3,416.3 735.8,437.1 736.3,475.3 736.7,442.8 737.2,407.1 737.7,442.9 738.2,431.1 738.6,430.9 739.1,407.8 739.6,443.8 740.0,459.1 740.5,421.7 741.0,478.7 741.4,459.6 741.9,425.9 742.4,487.1 742.9,412.2 743.3,411.3 743.8,455.7 744.3,478.9 744.7,449.7 745.2,450.5 745.7,426.7 746.2,477.1 746.6,427.0 747.1,452.3 747.6,427.6 748.0,452.9 748.5,415.6 749.0,436.4 749.4,496.5 749.9,463.2 750.4,423.7 750.9,441.4 751.3,441.3 751.8,463.4 752.3,445.3 752.7,441.7 753.2,453.4 753.7,441.8 754.1,496.7 754.6,417.9 755.1,494.9 755.6,443.8 756.0,457.5 756.5,431.3 757.0,411.5 757.4,416.1 757.9,433.7 758.4,483.8 758.9,452.8 759.3,400.2 759.8,468.9 760.3,439.6 760.7,410.5 761.2,399.9 761.7,510.8 762.1,451.0 762.6,453.7 763.1,427.4 763.6,397.4 764.0,464.0 764.5,388.5 765.0,422.4 765.4,454.1 765.9,432.7 766.4,497.3 766.9,466.5 767.3,431.6 767.8,450.6 768.3,425.3 768.7,454.1 769.2,425.5 769.7,473.7 770.1,486.7 770.6,415.2 771.1,462.7 771.6,443.8 772.0,453.1 772.5,474.8 773.0,429.5 773.4,412.7 773.9,411.6 774.4,447.7 774.8,435.6 775.3,403.9 775.8,483.4 776.3,430.0 776.7,426.9 777.2,485.5 777.7,444.7 778.1,443.4 778.6,420.2 779.1,458.2 779.6,425.3 780.0,450.3 780.5,436.5 781.0,447.5 781.4,505.2 781.9,407.0 782.4,451.3 782.8,458.0 783.3,428.8 783.8,437.3 784.3,468.5 784.7,427.9 785.2,403.6 785.7,466.7 786.1,421.6 786.6,425.7 787.1,418.7 787.6,413.7 788.0,442.6 788.5,453.1 789.0,436.5 789.4,482.5 789.9,417.2 790.4,417.3 790.8,433.2 791.3,456.1 791.8,451.6 792.3,436.2 792.7,457.5 793.2,452.3 793.7,422.9 794.1,496.9 794.6,456.4 795.1,442.1 795.6,511.9 796.0,483.4 796.5,434.8 797.0,486.8 797.4,430.9 797.9,437.1 798.4,475.3 798.8,442.8 799.3,490.2 799.8,413.4 800.3,453.0 800.7,472.8 801.2,502.8 801.7,409.1 802.1,467.4 802.6,467.9 803.1,456.0 803.5,359.7 804.0,444.0 804.5,451.6 805.0,421.0 805.4,459.9 805.9,457.7 806.4,464.5 806.8,487.6 807.3,445.1 807.8,462.7 808.3,463.7 808.7,455.4 809.2,475.0 809.7,444.4 810.1,426.6 810.6,438.6 811.1,428.4 811.5,467.6 812.0,484.2 812.5,467.9 813.0,417.1 813.4,493.0 813.9,430.1 814.4,458.4 814.8,438.3 815.3,473.3 815.8,522.7 816.3,438.4 816.7,463.5 817.2,448.6 817.7,443.6 818.1,470.8 818.6,454.9 819.1,437.5 819.5,491.5 820.0,452.3 820.5,395.2 821.0,475.3 821.4,432.0 821.9,463.2 822.4,442.6 822.8,432.7 823.3,433.4 823.8,444.0 824.2,430.7 824.7,420.1 825.2,465.0 825.7,451.1 826.1,465.1 826.6,506.1 827.1,463.2 827.5,428.9 828.0,488.3 828.5,480.0 829.0,450.4 829.4,451.3 829.9,460.6 830.4,483.0 830.8,458.6 831.3,456.9 831.8,443.6 832.2,439.8 832.7,454.4 833.2,461.9 833.7,456.7 834.1,478.9 834.6,440.0 835.1,424.0 835.5,447.6 836.0,401.8 836.5,523.5 837.0,451.4 837.4,461.8 837.9,435.8 838.4,455.6 838.8,454.1 839.3,467.2 839.8,469.2 840.2,418.7 840.7,411.2 841.2,429.7 841.7,455.8 842.1,454.4 842.6,435.6 843.1,443.6 843.5,461.6 844.0,490.6 844.5,495.5 844.9,466.3 845.4,455.5 845.9,476.8 846.4,438.2 846.8,445.3 847.3,504.6 847.8,447.5 848.2,444.0 848.7,451.1 849.2,448.6 849.7,452.3 850.1,503.7 850.6,446.5 851.1,414.3 851.5,450.5 852.0,463.7 852.5,432.9 852.9,430.2 853.4,455.3 853.9,455.2 854.4,480.5 854.8,478.9 855.3,459.7 855.8,418.5 856.2,498.4 856.7,466.1 857.2,455.7 857.7,466.8 858.1,450.7 858.6,482.7 859.1,467.5 859.5,451.9 860.0,472.1 860.5,419.9 860.9,441.8 861.4,439.1 861.9,413.8 862.4,430.8 862.8,508.9 863.3,406.6 863.8,453.7 864.2,462.3 864.7,432.1 865.2,421.5 865.7,451.2 866.1,439.5 866.6,457.1 867.1,473.4 867.5,495.5 868.0,460.1 868.5,483.5 868.9,448.4 869.4,410.7 869.9,472.2 870.4,436.0 870.8,396.3 871.3,497.3 871.8,465.0 872.2,476.9 872.7,508.4 873.2,425.1 873.6,454.2 874.1,477.2 874.6,445.7 875.1,437.4 875.5,488.8 876.0,452.7 876.5,426.5 876.9,446.5 877.4,460.0 877.9,422.7 878.4,441.0 878.8,459.4 879.3,480.9 879.8,447.4 880.2,424.2 880.7,425.6 881.2,477.6 881.6,438.3 882.1,453.8 882.6,458.6 883.1,429.4 883.5,473.8 884.0,431.5 884.5,463.2 884.9,468.1 885.4,477.3 885.9,461.4 886.4,460.3 886.8,428.2 887.3,442.2 887.8,463.2 888.2,434.5 888.7,435.1 889.2,445.0 889.6,411.7 890.1,414.5 890.6,423.6 891.1,418.2 891.5,425.4 892.0,421.7 892.5,417.1 892.9,421.7 893.4,450.1 893.9,469.8 894.3,438.2 894.8,445.8 895.3,480.3 895.8,473.4 896.2,408.4 896.7,456.4 897.2,459.1 897.6,473.5 898.1,434.1 898.6,496.3 899.1,423.8 899.5,444.2 900.0,423.8 900.5,451.9 900.9,409.9 901.4,458.4 901.9,496.4 902.3,479.6 902.8,471.6 903.3,451.6 903.8,462.4 904.2,433.2 904.7,460.7 905.2,443.7 905.6,447.5 906.1,442.2 906.6,395.6 907.1,463.7 907.5,467.2 908.0,385.6 908.5,454.5 908.9,474.2 909.4,433.0 909.9,416.1 910.3,460.9 910.8,415.8 911.3,505.5 911.8,432.6 912.2,425.7 912.7,472.7 913.2,495.4 913.6,442.0 914.1,481.3 914.6,460.6 915.1,404.7 915.5,467.6 916.0,415.7 916.5,442.9 916.9,508.0 917.4,363.9 917.9,440.7 918.3,428.5 918.8,467.0 919.3,427.0 919.8,462.4 920.2,410.2 920.7,487.5 921.2,472.2 921.6,480.6 922.1,444.3 922.6,421.3 923.0,468.2 923.5,478.3 924.0,430.9 924.5,435.7 924.9,437.9 925.4,477.3 925.9,408.0 926.3,401.3 926.8,443.3 927.3,439.1 927.8,454.6 928.2,456.8 928.7,436.6 929.2,452.6 929.6,429.5 930.1,503.1 930.6,468.3 931.0,442.9 931.5,485.2 932.0,431.6 932.5,440.2 932.9,447.0 933.4,466.0 933.9,434.0 934.3,459.3 934.8,429.6 935.3,478.5 935.8,445.9 936.2,401.0 936.7,494.4 937.2,405.0 937.6,416.7 938.1,425.9 938.6,443.5 939.0,410.9 939.5,474.9 940.0,463.9 940.5,456.9 940.9,436.5 941.4,458.6 941.9,470.4 942.3,435.0 942.8,447.3 943.3,424.9 943.7,462.4 944.2,451.7 944.7,429.1 945.2,488.4 945.6,511.5 946.1,481.2 946.6,462.7 947.0,490.1 947.5,444.0 948.0,429.5 948.5,487.2 948.9,449.4 949.4,425.4 949.9,490.1 950.3,444.3 950.8,423.6 951.3,466.2 951.7,434.3 952.2,431.4 952.7,435.8 953.2,501.4 953.6,419.0 954.1,466.0 954.6,449.3 955.0,427.8 955.5,448.3 956.0,462.0 956.5,428.3 956.9,407.3 957.4,447.8 957.9,434.1 958.3,491.6 958.8,438.2 959.3,468.0 959.7,454.4 960.2,461.6 960.7,452.6 961.2,468.6 961.6,435.9 962.1,473.2 962.6,439.5 963.0,388.9 963.5,454.5 964.0,421.2 964.4,445.0 964.9,439.6 965.4,498.9 965.9,428.7 966.3,436.7 966.8,490.5 967.3,411.8 967.7,474.3 968.2,465.6 968.7,431.8 969.2,463.4 969.6,458.3 970.1,513.6 970.6,432.5 971.0,461.9 971.5,403.2 972.0,430.0 972.4,472.6 972.9,418.8 973.4,420.2 973.9,449.5 974.3,452.5 974.8,450.5 975.3,413.5 975.7,474.3 976.2,386.3 976.7,461.7 977.2,385.6 977.6,488.7 978.1,433.8 978.6,436.2 979.0,452.4 979.5,516.7 980.0,408.7 980.4,439.5 980.9,462.4 981.4,441.3 981.9,508.6 982.3,496.8 982.8,447.7 983.3,463.6 983.7,458.0 984.2,442.3 984.7,484.5 985.2,440.6 985.6,463.9 986.1,436.1 986.6,431.4 987.0,424.9 987.5,445.8 988.0,455.6 988.4,471.5 988.9,429.5 989.4,473.3 989.9,437.1 990.3,448.8 990.8,433.3 991.3,424.9 991.7,465.8 992.2,489.5 992.7,414.0 993.1,417.7 993.6,427.7 994.1,444.0 994.6,514.4 995.0,444.3 995.5,446.9 996.0,514.5 996.4,400.3 996.9,481.4 997.4,466.2 997.9,436.9 998.3,441.3 998.8,475.3 999.3,463.2 999.7,446.9 1000.2,430.6 1000.7,451.5 1001.1,456.9 1001.6,505.7 1002.1,454.9 1002.6,436.7 1003.0,464.8 1003.5,439.8 1004.0,471.6 1004.4,440.6 1004.9,477.9 1005.4,395.5 1005.9,434.3 1006.3,447.7 1006.8,429.9 1007.3,420.1 1007.7,444.8 1008.2,438.4 1008.7,449.7 1009.1,492.9 1009.6,415.3 1010.1,483.4 1010.6,444.5 1011.0,506.3 1011.5,453.9 1012.0,472.4 1012.4,470.9 1012.9,474.2 1013.4,467.8 1013.8,387.0 1014.3,447.3 1014.8,414.4 1015.3,473.4 1015.7,439.9 1016.2,476.4 1016.7,472.9 1017.1,454.6 1017.6,432.3 1018.1,474.9 1018.6,423.1 1019.0,452.0 1019.5,455.9 1020.0,430.1 1020.4,429.1 1020.9,451.3 1021.4,500.2 1021.8,396.7 1022.3,475.1 1022.8,442.5 1023.3,506.2 1023.7,453.9 1024.2,457.1 1024.7,452.2 1025.1,455.4 1025.6,429.9 1026.1,428.2 1026.6,477.2 1027.0,468.7 1027.5,459.4 1028.0,486.8 1028.4,433.5 1028.9,448.7 1029.4,420.7 1029.8,447.2 1030.3,414.0 1030.8,439.1 1031.3,437.7 1031.7,455.2 1032.2,429.5 1032.7,479.4 1033.1,449.8 1033.6,403.9 1034.1,435.1 1034.5,467.4 1035.0,453.7 1035.5,455.8 1036.0,478.5 1036.4,463.8 1036.9,451.6 1037.4,477.2 1037.8,504.5 1038.3,409.2 1038.8,476.8 1039.3,434.9 1039.7,444.2 1040.2,420.1 1040.7,482.2 1041.1,466.5 1041.6,461.7 1042.1,411.6 1042.5,474.3 1043.0,451.5 1043.5,439.2 1044.0,419.6 1044.4,506.5 1044.9,492.5 1045.4,476.1 1045.8,458.6 1046.3,458.3 1046.8,440.7 1047.3,452.1 1047.7,437.7 1048.2,454.7 1048.7,440.6 1049.1,475.8 1049.6,454.3 1050.1,452.7 1050.5,479.0 1051.0,424.7 1051.5,425.1 1052.0,403.9 1052.4,422.9 1052.9,465.6 1053.4,447.6 1053.8,457.8 1054.3,465.1 1054.8,442.6 1055.3,496.3 1055.7,432.1 1056.2,467.3 1056.7,424.0 1057.1,396.6 1057.6,480.6 1058.1,421.0 1058.5,469.8 1059.0,439.4 1059.5,433.4 1060.0,462.6 1060.4,442.7 1060.9,493.8 1061.4,437.5 1061.8,416.8 1062.3,476.8 1062.8,418.5 1063.2,452.9 1063.7,484.5 1064.2,404.2 1064.7,446.3 1065.1,428.3 1065.6,455.4 1066.1,468.4 1066.5,397.3 1067.0,501.4 1067.5,447.0 1068.0,433.8 1068.4,438.9 1068.9,455.1 1069.4,454.7 1069.8,409.0 1070.3,452.5 1070.8,451.6 1071.2,448.3 1071.7,455.6 1072.2,445.1 1072.7,431.8 1073.1,438.0 1073.6,473.7 1074.1,457.2 1074.5,426.2 1075.0,419.9 1075.5,476.0 1076.0,382.0 1076.4,444.4 1076.9,445.4 1077.4,437.2 1077.8,479.6 1078.3,452.3 1078.8,452.9 1079.2,470.1 1079.7,386.4 1080.2,462.9 1080.7,443.0 1081.1,478.9 1081.6,465.8 1082.1,473.9 1082.5,436.0 1083.0,380.2 1083.5,455.8 1083.9,484.2 1084.4,405.4 1084.9,473.6 1085.4,471.8 1085.8,445.3 1086.3,440.7 1086.8,422.8 1087.2,464.2 1087.7,440.3 1088.2,466.2 1088.7,403.7 1089.1,462.3 1089.6,488.8 1090.1,455.6 1090.5,465.0 1091.0,492.8 1091.5,472.8 1091.9,452.2 1092.4,412.0 1092.9,412.8 1093.4,468.2 1093.8,468.2 1094.3,430.9 1094.8,467.7 1095.2,454.9 1095.7,428.0 1096.2,514.3 1096.7,448.4 1097.1,457.9 1097.6,413.8 1098.1,404.6 1098.5,403.7 1099.0,479.7 1099.5,441.9 1099.9,422.7 1100.4,444.3 1100.9,471.7 1101.4,456.2 1101.8,445.9 1102.3,431.1 1102.8,446.2 1103.2,433.6 1103.7,443.3 1104.2,444.3 1104.6,498.7 1105.1,438.8 1105.6,495.6 1106.1,472.8 1106.5,471.6 1107.0,458.6 1107.5,490.5 1107.9,444.9 1108.4,453.5 1108.9,476.7 1109.4,453.4 1109.8,453.5 1110.3,440.7 1110.8,486.2 1111.2,431.4 1111.7,486.4 1112.2,466.9 1112.6,482.1 1113.1,465.2 1113.6,457.6 1114.1,444.1 1114.5,430.3 1115.0,466.6" fill="none" stroke="#6670ee" stroke-width="1.2" opacity=".82"/>
<line x1="739.0" y1="545" x2="739.0" y2="551" stroke="#30332e"/>
<text x="739.0" y="572" text-anchor="middle" font-family="-apple-system,BlinkMacSystemFont,PingFang SC,Noto Sans CJK SC,sans-serif" font-size="14">200</text>
<line x1="833.0" y1="545" x2="833.0" y2="551" stroke="#30332e"/>
<text x="833.0" y="572" text-anchor="middle" font-family="-apple-system,BlinkMacSystemFont,PingFang SC,Noto Sans CJK SC,sans-serif" font-size="14">400</text>
<line x1="927.0" y1="545" x2="927.0" y2="551" stroke="#30332e"/>
<text x="927.0" y="572" text-anchor="middle" font-family="-apple-system,BlinkMacSystemFont,PingFang SC,Noto Sans CJK SC,sans-serif" font-size="14">600</text>
<line x1="1021.0" y1="545" x2="1021.0" y2="551" stroke="#30332e"/>
<text x="1021.0" y="572" text-anchor="middle" font-family="-apple-system,BlinkMacSystemFont,PingFang SC,Noto Sans CJK SC,sans-serif" font-size="14">800</text>
<line x1="1115.0" y1="545" x2="1115.0" y2="551" stroke="#30332e"/>
<text x="1115.0" y="572" text-anchor="middle" font-family="-apple-system,BlinkMacSystemFont,PingFang SC,Noto Sans CJK SC,sans-serif" font-size="14">1000</text>
<rect x="85" y="635" width="235.0" height="190" fill="#e2e3e0"/>
<rect x="85" y="635" width="470" height="190" fill="none" stroke="#30332e"/>
<text x="85" y="621" font-family="-apple-system,BlinkMacSystemFont,PingFang SC,Noto Sans CJK SC,sans-serif" font-size="22" fill="#30332e">sigma</text>
<text x="555" y="621" text-anchor="end" font-family="-apple-system,BlinkMacSystemFont,PingFang SC,Noto Sans CJK SC,sans-serif" font-size="18" fill="#30332e">n_eff = 2885</text>
<polyline points="85.0,678.3 85.5,761.4 85.9,745.7 86.4,722.3 86.9,724.7 87.4,730.3 87.8,758.4 88.3,735.6 88.8,720.8 89.2,753.9 89.7,697.0 90.2,735.4 90.6,722.3 91.1,715.6 91.6,712.2 92.1,731.9 92.5,736.9 93.0,715.6 93.5,744.7 93.9,698.2 94.4,732.9 94.9,741.0 95.4,706.2 95.8,744.9 96.3,709.1 96.8,791.7 97.2,746.9 97.7,777.9 98.2,701.4 98.6,682.5 99.1,745.3 99.6,717.3 100.1,755.2 100.5,759.8 101.0,716.0 101.5,752.0 101.9,670.2 102.4,708.2 102.9,754.8 103.3,686.1 103.8,764.6 104.3,721.6 104.8,743.9 105.2,726.9 105.7,726.5 106.2,749.0 106.6,707.2 107.1,733.5 107.6,734.2 108.1,764.7 108.5,686.4 109.0,680.1 109.5,755.5 109.9,681.4 110.4,712.2 110.9,750.1 111.3,724.6 111.8,715.1 112.3,728.1 112.8,710.2 113.2,770.4 113.7,745.8 114.2,722.3 114.6,715.3 115.1,697.6 115.6,718.5 116.1,752.9 116.5,745.8 117.0,715.1 117.5,701.4 117.9,703.9 118.4,751.4 118.9,730.4 119.3,746.7 119.8,736.2 120.3,733.5 120.8,736.9 121.2,730.6 121.7,689.7 122.2,763.7 122.6,728.2 123.1,694.4 123.6,706.2 124.0,729.1 124.5,688.7 125.0,712.2 125.5,752.3 125.9,708.2 126.4,711.7 126.9,702.8 127.3,727.6 127.8,756.4 128.3,701.6 128.8,711.1 129.2,734.5 129.7,732.9 130.2,737.5 130.6,672.8 131.1,743.7 131.6,722.0 132.0,737.3 132.5,760.3 133.0,685.6 133.5,696.0 133.9,734.9 134.4,684.5 134.9,785.3 135.3,748.5 135.8,713.4 136.3,725.3 136.8,703.8 137.2,703.8 137.7,744.9 138.2,726.1 138.6,689.3 139.1,730.0 139.6,702.9 140.0,714.4 140.5,730.5 141.0,718.1 141.5,715.6 141.9,756.4 142.4,662.2 142.9,712.2 143.3,746.8 143.8,749.9 144.3,717.2 144.7,744.8 145.2,727.8 145.7,709.3 146.2,746.4 146.6,690.5 147.1,767.0 147.6,762.5 148.0,735.5 148.5,678.8 149.0,748.4 149.5,740.8 149.9,724.7 150.4,722.0 150.9,720.3 151.3,707.9 151.8,723.8 152.3,722.0 152.7,711.5 153.2,692.6 153.7,702.1 154.2,687.3 154.6,717.1 155.1,714.7 155.6,733.0 156.0,751.5 156.5,731.6 157.0,777.2 157.5,709.7 157.9,759.7 158.4,690.5 158.9,743.1 159.3,717.5 159.8,708.8 160.3,717.2 160.7,754.4 161.2,711.6 161.7,707.2 162.2,734.8 162.6,782.6 163.1,665.3 163.6,804.2 164.0,703.1 164.5,754.4 165.0,713.8 165.5,717.5 165.9,664.2 166.4,744.2 166.9,715.1 167.3,756.1 167.8,729.3 168.3,711.4 168.7,740.8 169.2,727.1 169.7,730.9 170.2,709.8 170.6,714.2 171.1,735.6 171.6,722.0 172.0,730.9 172.5,724.3 173.0,726.7 173.4,705.4 173.9,788.2 174.4,722.0 174.9,744.8 175.3,714.2 175.8,724.3 176.3,734.6 176.7,729.6 177.2,723.2 177.7,741.5 178.2,673.1 178.6,736.6 179.1,705.4 179.6,716.5 180.0,763.5 180.5,718.2 181.0,745.0 181.4,744.9 181.9,705.7 182.4,712.7 182.9,723.1 183.3,751.0 183.8,747.7 184.3,748.5 184.7,733.8 185.2,732.2 185.7,714.7 186.2,748.0 186.6,792.6 187.1,691.1 187.6,704.9 188.0,729.2 188.5,728.6 189.0,712.2 189.4,734.2 189.9,790.9 190.4,727.8 190.9,750.4 191.3,754.3 191.8,669.7 192.3,746.1 192.7,704.3 193.2,746.2 193.7,727.3 194.1,734.2 194.6,735.5 195.1,727.7 195.6,746.0 196.0,737.9 196.5,716.7 197.0,737.3 197.4,715.3 197.9,759.6 198.4,746.2 198.9,719.8 199.3,722.7 199.8,737.3 200.3,752.1 200.7,742.9 201.2,694.3 201.7,749.6 202.1,723.0 202.6,752.2 203.1,716.7 203.6,750.4 204.0,742.8 204.5,714.2 205.0,705.7 205.4,699.5 205.9,737.6 206.4,743.4 206.9,740.5 207.3,733.1 207.8,738.4 208.3,746.1 208.7,711.3 209.2,743.7 209.7,721.3 210.1,774.3 210.6,711.9 211.1,753.7 211.6,726.4 212.0,718.5 212.5,713.9 213.0,746.1 213.4,755.6 213.9,748.9 214.4,693.2 214.8,731.4 215.3,734.8 215.8,734.5 216.3,700.7 216.7,705.8 217.2,704.9 217.7,768.3 218.1,774.1 218.6,689.8 219.1,695.7 219.6,715.4 220.0,791.2 220.5,688.4 221.0,705.3 221.4,782.6 221.9,686.9 222.4,745.8 222.8,725.2 223.3,728.6 223.8,756.6 224.3,740.9 224.7,712.5 225.2,794.1 225.7,739.5 226.1,730.3 226.6,705.5 227.1,764.3 227.6,720.1 228.0,702.7 228.5,734.7 229.0,744.0 229.4,704.9 229.9,738.9 230.4,737.2 230.8,756.8 231.3,775.0 231.8,700.3 232.3,752.3 232.7,739.8 233.2,703.2 233.7,747.2 234.1,690.9 234.6,742.4 235.1,699.3 235.6,781.4 236.0,701.0 236.5,731.2 237.0,735.7 237.4,676.4 237.9,730.5 238.4,701.0 238.8,724.1 239.3,730.1 239.8,740.6 240.3,731.7 240.7,684.2 241.2,733.5 241.7,675.1 242.1,695.5 242.6,804.4 243.1,751.7 243.5,689.0 244.0,744.6 244.5,736.3 245.0,739.9 245.4,746.3 245.9,725.5 246.4,731.0 246.8,732.3 247.3,738.1 247.8,742.0 248.3,763.3 248.7,740.3 249.2,691.4 249.7,746.7 250.1,735.7 250.6,683.2 251.1,750.1 251.5,725.2 252.0,725.1 252.5,714.9 253.0,715.2 253.4,777.7 253.9,672.1 254.4,736.8 254.8,704.9 255.3,731.5 255.8,714.1 256.3,694.7 256.7,701.2 257.2,754.8 257.7,721.4 258.1,741.5 258.6,719.5 259.1,785.7 259.5,704.8 260.0,741.1 260.5,718.9 261.0,704.4 261.4,690.8 261.9,750.1 262.4,741.0 262.8,709.1 263.3,723.9 263.8,730.2 264.2,777.9 264.7,708.5 265.2,737.7 265.7,714.2 266.1,745.3 266.6,706.1 267.1,745.4 267.5,781.8 268.0,694.3 268.5,741.0 269.0,713.8 269.4,722.9 269.9,754.1 270.4,721.4 270.8,695.5 271.3,734.5 271.8,702.7 272.2,684.3 272.7,752.8 273.2,686.9 273.7,724.4 274.1,764.9 274.6,714.6 275.1,721.7 275.5,760.5 276.0,730.3 276.5,740.0 277.0,767.4 277.4,687.9 277.9,779.8 278.4,737.4 278.8,739.0 279.3,683.8 279.8,740.6 280.2,730.8 280.7,768.4 281.2,736.4 281.7,729.7 282.1,755.1 282.6,758.4 283.1,707.9 283.5,717.2 284.0,743.8 284.5,708.8 284.9,739.3 285.4,713.5 285.9,684.8 286.4,747.3 286.8,728.3 287.3,690.0 287.8,755.1 288.2,727.4 288.7,732.6 289.2,734.5 289.7,747.1 290.1,718.5 290.6,747.6 291.1,690.9 291.5,737.0 292.0,723.5 292.5,748.7 292.9,726.7 293.4,727.5 293.9,732.6 294.4,694.7 294.8,751.4 295.3,724.6 295.8,750.8 296.2,745.4 296.7,725.2 297.2,745.2 297.7,747.5 298.1,725.1 298.6,753.4 299.1,741.1 299.5,764.6 300.0,746.4 300.5,737.3 300.9,751.3 301.4,706.5 301.9,722.4 302.4,734.3 302.8,740.3 303.3,720.6 303.8,750.1 304.2,746.6 304.7,696.0 305.2,692.5 305.7,736.4 306.1,756.2 306.6,743.4 307.1,709.7 307.5,739.7 308.0,736.6 308.5,745.9 308.9,719.1 309.4,705.8 309.9,714.8 310.4,762.3 310.8,666.0 311.3,754.6 311.8,741.8 312.2,698.2 312.7,729.4 313.2,727.1 313.6,741.1 314.1,748.0 314.6,723.4 315.1,708.8 315.5,734.4 316.0,715.9 316.5,688.0 316.9,753.7 317.4,720.5 317.9,739.2 318.4,734.7 318.8,724.7 319.3,751.2 319.8,736.6 320.2,772.3 320.7,758.6 321.2,687.3 321.6,719.5 322.1,707.6 322.6,747.1 323.1,772.8 323.5,733.5 324.0,706.9 324.5,708.7 324.9,764.5 325.4,766.8 325.9,710.5 326.4,735.1 326.8,739.9 327.3,768.1 327.8,737.5 328.2,754.5 328.7,743.0 329.2,725.8 329.6,736.6 330.1,699.0 330.6,758.6 331.1,725.5 331.5,774.5 332.0,728.6 332.5,728.8 332.9,743.1 333.4,750.9 333.9,737.8 334.3,748.9 334.8,733.8 335.3,661.4 335.8,734.6 336.2,768.2 336.7,767.5 337.2,737.1 337.6,746.9 338.1,750.0 338.6,699.7 339.1,779.1 339.5,718.6 340.0,700.7 340.5,759.9 340.9,696.9 341.4,737.9 341.9,741.5 342.3,727.8 342.8,729.5 343.3,744.8 343.8,706.7 344.2,748.9 344.7,714.2 345.2,747.4 345.6,713.5 346.1,764.1 346.6,685.3 347.1,738.0 347.5,724.6 348.0,725.3 348.5,729.7 348.9,716.6 349.4,738.7 349.9,738.6 350.3,741.1 350.8,769.0 351.3,704.3 351.8,695.1 352.2,754.6 352.7,691.1 353.2,753.7 353.6,726.4 354.1,716.5 354.6,747.5 355.1,718.0 355.5,744.6 356.0,719.6 356.5,718.3 356.9,787.8 357.4,733.1 357.9,732.7 358.3,728.0 358.8,741.2 359.3,715.8 359.8,735.7 360.2,735.2 360.7,743.0 361.2,714.4 361.6,800.5 362.1,735.4 362.6,737.4 363.0,666.4 363.5,746.3 364.0,723.2 364.5,745.4 364.9,751.0 365.4,708.0 365.9,765.3 366.3,735.1 366.8,741.9 367.3,747.0 367.8,749.4 368.2,730.5 368.7,759.7 369.2,703.8 369.6,715.2 370.1,741.8 370.6,730.6 371.0,718.2 371.5,737.0 372.0,739.9 372.5,712.3 372.9,724.4 373.4,761.6 373.9,779.0 374.3,676.5 374.8,746.0 375.3,723.3 375.8,776.3 376.2,757.2 376.7,717.1 377.2,712.3 377.6,714.6 378.1,739.4 378.6,663.8 379.0,786.5 379.5,711.1 380.0,709.7 380.5,705.8 380.9,748.2 381.4,707.5 381.9,736.0 382.3,789.2 382.8,800.8 383.3,699.5 383.7,761.4 384.2,744.1 384.7,696.9 385.2,710.3 385.6,708.9 386.1,748.1 386.6,704.9 387.0,766.8 387.5,709.2 388.0,753.9 388.5,718.9 388.9,733.9 389.4,691.3 389.9,754.3 390.3,747.8 390.8,716.9 391.3,710.9 391.7,734.6 392.2,745.5 392.7,728.9 393.2,753.8 393.6,719.8 394.1,700.0 394.6,772.8 395.0,758.2 395.5,722.3 396.0,706.4 396.5,723.6 396.9,671.0 397.4,725.0 397.9,705.7 398.3,717.7 398.8,751.2 399.3,706.5 399.7,702.8 400.2,700.2 400.7,739.3 401.2,751.1 401.6,730.7 402.1,729.1 402.6,757.0 403.0,735.4 403.5,696.5 404.0,776.3 404.4,708.3 404.9,727.7 405.4,672.9 405.9,696.3 406.3,760.2 406.8,680.1 407.3,717.4 407.7,746.8 408.2,797.2 408.7,701.1 409.2,678.7 409.6,704.0 410.1,698.5 410.6,702.5 411.0,754.5 411.5,735.7 412.0,717.8 412.4,753.5 412.9,747.9 413.4,719.2 413.9,750.3 414.3,730.9 414.8,723.1 415.3,730.2 415.7,711.8 416.2,759.0 416.7,687.0 417.2,770.7 417.6,708.2 418.1,747.9 418.6,757.4 419.0,731.5 419.5,655.2 420.0,733.7 420.4,756.2 420.9,738.4 421.4,718.5 421.9,723.6 422.3,727.2 422.8,721.9 423.3,712.5 423.7,758.0 424.2,688.3 424.7,759.6 425.2,710.3 425.6,756.8 426.1,713.3 426.6,753.6 427.0,728.2 427.5,768.8 428.0,723.4 428.4,728.8 428.9,723.5 429.4,720.6 429.9,745.2 430.3,747.8 430.8,679.5 431.3,706.1 431.7,745.0 432.2,765.1 432.7,714.6 433.1,779.1 433.6,711.2 434.1,757.5 434.6,704.8 435.0,727.7 435.5,739.4 436.0,750.3 436.4,697.2 436.9,709.7 437.4,735.6 437.9,712.1 438.3,720.0 438.8,736.1 439.3,769.2 439.7,772.0 440.2,756.9 440.7,742.7 441.1,729.9 441.6,757.6 442.1,730.1 442.6,735.3 443.0,738.9 443.5,772.7 444.0,730.9 444.4,757.4 444.9,728.3 445.4,723.0 445.9,753.4 446.3,733.5 446.8,699.9 447.3,731.4 447.7,732.6 448.2,726.8 448.7,761.0 449.1,731.2 449.6,708.7 450.1,733.9 450.6,763.4 451.0,762.2 451.5,681.0 452.0,771.9 452.4,709.9 452.9,694.0 453.4,738.7 453.8,761.5 454.3,745.4 454.8,748.8 455.3,728.6 455.7,697.2 456.2,751.2 456.7,727.3 457.1,737.0 457.6,741.2 458.1,791.8 458.6,708.6 459.0,764.6 459.5,703.5 460.0,751.7 460.4,761.5 460.9,705.8 461.4,738.1 461.8,758.2 462.3,766.7 462.8,711.2 463.3,783.4 463.7,722.8 464.2,673.6 464.7,744.9 465.1,694.3 465.6,746.2 466.1,742.8 466.6,725.3 467.0,744.6 467.5,743.2 468.0,720.2 468.4,698.6 468.9,682.7 469.4,706.9 469.8,699.4 470.3,792.2 470.8,659.3 471.3,764.7 471.7,767.7 472.2,682.8 472.7,749.3 473.1,768.3 473.6,721.3 474.1,716.2 474.5,759.2 475.0,765.0 475.5,732.1 476.0,689.7 476.4,722.5 476.9,717.4 477.4,746.5 477.8,680.5 478.3,743.4 478.8,736.9 479.3,701.4 479.7,688.2 480.2,725.0 480.7,745.7 481.1,734.1 481.6,761.0 482.1,741.7 482.5,719.9 483.0,728.2 483.5,774.1 484.0,744.4 484.4,746.2 484.9,735.4 485.4,715.1 485.8,729.5 486.3,719.2 486.8,683.5 487.3,717.2 487.7,720.6 488.2,720.5 488.7,736.5 489.1,716.5 489.6,737.9 490.1,736.7 490.5,680.3 491.0,726.3 491.5,734.4 492.0,745.4 492.4,717.6 492.9,744.1 493.4,711.0 493.8,714.0 494.3,728.0 494.8,695.4 495.3,688.0 495.7,744.6 496.2,696.4 496.7,727.7 497.1,712.2 497.6,702.3 498.1,715.7 498.5,751.5 499.0,730.0 499.5,739.1 500.0,722.4 500.4,720.6 500.9,717.9 501.4,735.6 501.8,775.9 502.3,717.7 502.8,759.5 503.2,695.5 503.7,761.1 504.2,738.4 504.7,733.3 505.1,720.9 505.6,764.3 506.1,697.3 506.5,720.6 507.0,746.4 507.5,735.9 508.0,725.4 508.4,729.5 508.9,686.8 509.4,747.8 509.8,733.1 510.3,774.4 510.8,755.3 511.2,710.3 511.7,745.5 512.2,705.4 512.7,706.9 513.1,719.1 513.6,734.7 514.1,698.1 514.5,718.5 515.0,713.4 515.5,760.0 516.0,760.2 516.4,733.7 516.9,733.0 517.4,735.9 517.8,766.9 518.3,713.1 518.8,709.7 519.2,731.1 519.7,715.0 520.2,750.3 520.7,763.8 521.1,757.3 521.6,759.8 522.1,761.0 522.5,761.2 523.0,733.5 523.5,666.7 523.9,745.4 524.4,715.8 524.9,711.7 525.4,727.5 525.8,741.6 526.3,738.5 526.8,726.8 527.2,757.4 527.7,702.0 528.2,738.6 528.7,714.6 529.1,731.7 529.6,754.7 530.1,770.6 530.5,678.2 531.0,720.1 531.5,731.6 531.9,718.2 532.4,687.9 532.9,737.8 533.4,717.6 533.8,770.4 534.3,693.6 534.8,689.4 535.2,738.9 535.7,719.2 536.2,719.1 536.7,747.6 537.1,707.2 537.6,709.6 538.1,675.6 538.5,706.1 539.0,739.2 539.5,705.9 539.9,702.5 540.4,732.0 540.9,697.3 541.4,756.0 541.8,728.5 542.3,740.0 542.8,758.3 543.2,742.5 543.7,732.3 544.2,701.8 544.6,715.5 545.1,744.9 545.6,693.8 546.1,723.7 546.5,715.6 547.0,717.5 547.5,709.1 547.9,819.0 548.4,718.3 548.9,686.3 549.4,701.9 549.8,714.3 550.3,768.5 550.8,713.3 551.2,767.1 551.7,722.6 552.2,699.6 552.6,753.7 553.1,735.0 553.6,722.0 554.1,691.9 554.5,798.1 555.0,760.4" fill="none" stroke="#6670ee" stroke-width="1.2" opacity=".82"/>
<line x1="179.0" y1="825" x2="179.0" y2="831" stroke="#30332e"/>
<text x="179.0" y="852" text-anchor="middle" font-family="-apple-system,BlinkMacSystemFont,PingFang SC,Noto Sans CJK SC,sans-serif" font-size="14">200</text>
<line x1="273.0" y1="825" x2="273.0" y2="831" stroke="#30332e"/>
<text x="273.0" y="852" text-anchor="middle" font-family="-apple-system,BlinkMacSystemFont,PingFang SC,Noto Sans CJK SC,sans-serif" font-size="14">400</text>
<line x1="367.0" y1="825" x2="367.0" y2="831" stroke="#30332e"/>
<text x="367.0" y="852" text-anchor="middle" font-family="-apple-system,BlinkMacSystemFont,PingFang SC,Noto Sans CJK SC,sans-serif" font-size="14">600</text>
<line x1="461.0" y1="825" x2="461.0" y2="831" stroke="#30332e"/>
<text x="461.0" y="852" text-anchor="middle" font-family="-apple-system,BlinkMacSystemFont,PingFang SC,Noto Sans CJK SC,sans-serif" font-size="14">800</text>
<line x1="555.0" y1="825" x2="555.0" y2="831" stroke="#30332e"/>
<text x="555.0" y="852" text-anchor="middle" font-family="-apple-system,BlinkMacSystemFont,PingFang SC,Noto Sans CJK SC,sans-serif" font-size="14">1000</text>
<rect x="890" y="838" width="24" height="18" fill="#e2e3e0" stroke="#b7b9b4"/>
<text x="925" y="852" font-family="-apple-system,BlinkMacSystemFont,PingFang SC,Noto Sans CJK SC,sans-serif" font-size="17" fill="#30332e">预热（1–500）</text>
<rect x="1045" y="838" width="24" height="18" fill="#fff" stroke="#b7b9b4"/>
<text x="1080" y="852" font-family="-apple-system,BlinkMacSystemFont,PingFang SC,Noto Sans CJK SC,sans-serif" font-size="17" fill="#30332e">推断</text>
</svg>
