<?xml version="1.0" encoding="UTF-8"?>
<svg xmlns="http://www.w3.org/2000/svg" width="1200" height="1000" viewBox="0 0 1200 1000" role="img">
  <title>通过残差理解多元回归</title>
  <desc>上排让两个预测变量互相回归并显示残差，下排用两组残差分别预测离婚率。</desc>
  <rect width="100%" height="100%" fill="#fff"/>
  <line x1="231.91" y1="234.91" x2="231.91" y2="262.14" stroke="#9b9e9a" stroke-width="2"/>
  <line x1="225.5" y1="231.1" x2="225.5" y2="161.83" stroke="#9b9e9a" stroke-width="2"/>
  <line x1="263.92" y1="253.95" x2="263.92" y2="260.41" stroke="#9b9e9a" stroke-width="2"/>
  <line x1="167.88" y1="196.82" x2="167.88" y2="154.91" stroke="#9b9e9a" stroke-width="2"/>
  <line x1="327.95" y1="292.04" x2="327.95" y2="281.16" stroke="#9b9e9a" stroke-width="2"/>
  <line x1="257.52" y1="250.14" x2="257.52" y2="205.07" stroke="#9b9e9a" stroke-width="2"/>
  <line x1="379.18" y1="322.51" x2="379.18" y2="315.76" stroke="#9b9e9a" stroke-width="2"/>
  <line x1="315.15" y1="284.42" x2="315.15" y2="211.98" stroke="#9b9e9a" stroke-width="2"/>
  <line x1="513.64" y1="402.49" x2="513.64" y2="305.38" stroke="#9b9e9a" stroke-width="2"/>
  <line x1="302.34" y1="276.81" x2="302.34" y2="317.49" stroke="#9b9e9a" stroke-width="2"/>
  <line x1="270.32" y1="257.76" x2="270.32" y2="229.28" stroke="#9b9e9a" stroke-width="2"/>
  <line x1="334.35" y1="295.85" x2="334.35" y2="180.85" stroke="#9b9e9a" stroke-width="2"/>
  <line x1="97.44" y1="154.93" x2="97.44" y2="165.29" stroke="#9b9e9a" stroke-width="2"/>
  <line x1="340.76" y1="299.66" x2="340.76" y2="301.92" stroke="#9b9e9a" stroke-width="2"/>
  <line x1="257.52" y1="250.14" x2="257.52" y2="269.06" stroke="#9b9e9a" stroke-width="2"/>
  <line x1="238.31" y1="238.72" x2="238.31" y2="239.66" stroke="#9b9e9a" stroke-width="2"/>
  <line x1="212.7" y1="223.48" x2="212.7" y2="229.28" stroke="#9b9e9a" stroke-width="2"/>
  <line x1="199.89" y1="215.87" x2="199.89" y2="227.55" stroke="#9b9e9a" stroke-width="2"/>
  <line x1="270.32" y1="257.76" x2="270.32" y2="255.22" stroke="#9b9e9a" stroke-width="2"/>
  <line x1="302.34" y1="276.81" x2="302.34" y2="378.02" stroke="#9b9e9a" stroke-width="2"/>
  <line x1="359.97" y1="311.08" x2="359.97" y2="295" stroke="#9b9e9a" stroke-width="2"/>
  <line x1="436.8" y1="356.79" x2="436.8" y2="338.24" stroke="#9b9e9a" stroke-width="2"/>
  <line x1="302.34" y1="276.81" x2="302.34" y2="326.13" stroke="#9b9e9a" stroke-width="2"/>
  <line x1="295.94" y1="273" x2="295.94" y2="346.89" stroke="#9b9e9a" stroke-width="2"/>
  <line x1="263.92" y1="253.95" x2="263.92" y2="277.71" stroke="#9b9e9a" stroke-width="2"/>
  <line x1="251.12" y1="246.34" x2="251.12" y2="289.81" stroke="#9b9e9a" stroke-width="2"/>
  <line x1="257.52" y1="250.14" x2="257.52" y2="291.54" stroke="#9b9e9a" stroke-width="2"/>
  <line x1="238.31" y1="238.72" x2="238.31" y2="272.52" stroke="#9b9e9a" stroke-width="2"/>
  <line x1="327.95" y1="292.04" x2="327.95" y2="322.67" stroke="#9b9e9a" stroke-width="2"/>
  <line x1="385.58" y1="326.32" x2="385.58" y2="355.54" stroke="#9b9e9a" stroke-width="2"/>
  <line x1="263.92" y1="253.95" x2="263.92" y2="258.68" stroke="#9b9e9a" stroke-width="2"/>
  <line x1="430.4" y1="352.98" x2="430.4" y2="320.94" stroke="#9b9e9a" stroke-width="2"/>
  <line x1="257.52" y1="250.14" x2="257.52" y2="258.68" stroke="#9b9e9a" stroke-width="2"/>
  <line x1="231.91" y1="234.91" x2="231.91" y2="149.72" stroke="#9b9e9a" stroke-width="2"/>
  <line x1="295.94" y1="273" x2="295.94" y2="319.21" stroke="#9b9e9a" stroke-width="2"/>
  <line x1="174.28" y1="200.63" x2="174.28" y2="199.88" stroke="#9b9e9a" stroke-width="2"/>
  <line x1="276.73" y1="261.57" x2="276.73" y2="284.62" stroke="#9b9e9a" stroke-width="2"/>
  <line x1="347.16" y1="303.47" x2="347.16" y2="343.43" stroke="#9b9e9a" stroke-width="2"/>
  <line x1="417.59" y1="345.36" x2="417.59" y2="352.08" stroke="#9b9e9a" stroke-width="2"/>
  <line x1="302.34" y1="276.81" x2="302.34" y2="298.46" stroke="#9b9e9a" stroke-width="2"/>
  <line x1="251.12" y1="246.34" x2="251.12" y2="263.87" stroke="#9b9e9a" stroke-width="2"/>
  <line x1="225.5" y1="231.1" x2="225.5" y2="275.98" stroke="#9b9e9a" stroke-width="2"/>
  <line x1="225.5" y1="231.1" x2="225.5" y2="239.66" stroke="#9b9e9a" stroke-width="2"/>
  <line x1="103.85" y1="158.74" x2="103.85" y2="99.56" stroke="#9b9e9a" stroke-width="2"/>
  <line x1="334.35" y1="295.85" x2="334.35" y2="327.86" stroke="#9b9e9a" stroke-width="2"/>
  <line x1="302.34" y1="276.81" x2="302.34" y2="256.95" stroke="#9b9e9a" stroke-width="2"/>
  <line x1="270.32" y1="257.76" x2="270.32" y2="241.39" stroke="#9b9e9a" stroke-width="2"/>
  <line x1="212.7" y1="223.48" x2="212.7" y2="227.55" stroke="#9b9e9a" stroke-width="2"/>
  <line x1="295.94" y1="273" x2="295.94" y2="314.03" stroke="#9b9e9a" stroke-width="2"/>
  <line x1="161.47" y1="193.01" x2="161.47" y2="80.54" stroke="#9b9e9a" stroke-width="2"/>
  <rect x="105" y="60" width="430" height="335" fill="none" stroke="#343732" stroke-width="1.5"/>
  <line x1="105" y1="159.42" x2="535" y2="415.2" stroke="#242724" stroke-width="3"/>
  <circle cx="231.91" cy="262.14" r="4.8" fill="#fff" stroke="#6670ee" stroke-width="2"/>
  <circle cx="225.5" cy="161.83" r="4.8" fill="#fff" stroke="#6670ee" stroke-width="2"/>
  <circle cx="263.92" cy="260.41" r="4.8" fill="#fff" stroke="#6670ee" stroke-width="2"/>
  <circle cx="167.88" cy="154.91" r="4.8" fill="#fff" stroke="#6670ee" stroke-width="2"/>
  <circle cx="327.95" cy="281.16" r="4.8" fill="#fff" stroke="#6670ee" stroke-width="2"/>
  <circle cx="257.52" cy="205.07" r="4.8" fill="#fff" stroke="#6670ee" stroke-width="2"/>
  <circle cx="379.18" cy="315.76" r="4.8" fill="#fff" stroke="#6670ee" stroke-width="2"/>
  <circle cx="315.15" cy="211.98" r="4.8" fill="#fff" stroke="#6670ee" stroke-width="2"/>
  <circle cx="513.64" cy="305.38" r="4.8" fill="#fff" stroke="#6670ee" stroke-width="2"/>
  <text x="521.64" y="297.38" text-anchor="start" font-family="PingFang SC, Noto Sans CJK SC, Microsoft YaHei, sans-serif" font-size="16" font-weight="700" fill="#30332e">DC</text>
  <circle cx="302.34" cy="317.49" r="4.8" fill="#fff" stroke="#6670ee" stroke-width="2"/>
  <circle cx="270.32" cy="229.28" r="4.8" fill="#fff" stroke="#6670ee" stroke-width="2"/>
  <circle cx="334.35" cy="180.85" r="4.8" fill="#fff" stroke="#6670ee" stroke-width="2"/>
  <text x="342.35" y="172.85" text-anchor="start" font-family="PingFang SC, Noto Sans CJK SC, Microsoft YaHei, sans-serif" font-size="16" font-weight="700" fill="#30332e">HI</text>
  <circle cx="97.44" cy="165.29" r="4.8" fill="#fff" stroke="#6670ee" stroke-width="2"/>
  <circle cx="340.76" cy="301.92" r="4.8" fill="#fff" stroke="#6670ee" stroke-width="2"/>
  <circle cx="257.52" cy="269.06" r="4.8" fill="#fff" stroke="#6670ee" stroke-width="2"/>
  <circle cx="238.31" cy="239.66" r="4.8" fill="#fff" stroke="#6670ee" stroke-width="2"/>
  <circle cx="212.7" cy="229.28" r="4.8" fill="#fff" stroke="#6670ee" stroke-width="2"/>
  <circle cx="199.89" cy="227.55" r="4.8" fill="#fff" stroke="#6670ee" stroke-width="2"/>
  <circle cx="270.32" cy="255.22" r="4.8" fill="#fff" stroke="#6670ee" stroke-width="2"/>
  <circle cx="302.34" cy="378.02" r="4.8" fill="#fff" stroke="#6670ee" stroke-width="2"/>
  <text x="294.34" y="370.02" text-anchor="end" font-family="PingFang SC, Noto Sans CJK SC, Microsoft YaHei, sans-serif" font-size="16" font-weight="700" fill="#30332e">ME</text>
  <circle cx="359.97" cy="295" r="4.8" fill="#fff" stroke="#6670ee" stroke-width="2"/>
  <circle cx="436.8" cy="338.24" r="4.8" fill="#fff" stroke="#6670ee" stroke-width="2"/>
  <circle cx="302.34" cy="326.13" r="4.8" fill="#fff" stroke="#6670ee" stroke-width="2"/>
  <circle cx="295.94" cy="346.89" r="4.8" fill="#fff" stroke="#6670ee" stroke-width="2"/>
  <circle cx="263.92" cy="277.71" r="4.8" fill="#fff" stroke="#6670ee" stroke-width="2"/>
  <circle cx="251.12" cy="289.81" r="4.8" fill="#fff" stroke="#6670ee" stroke-width="2"/>
  <circle cx="257.52" cy="291.54" r="4.8" fill="#fff" stroke="#6670ee" stroke-width="2"/>
  <circle cx="238.31" cy="272.52" r="4.8" fill="#fff" stroke="#6670ee" stroke-width="2"/>
  <circle cx="327.95" cy="322.67" r="4.8" fill="#fff" stroke="#6670ee" stroke-width="2"/>
  <circle cx="385.58" cy="355.54" r="4.8" fill="#fff" stroke="#6670ee" stroke-width="2"/>
  <circle cx="263.92" cy="258.68" r="4.8" fill="#fff" stroke="#6670ee" stroke-width="2"/>
  <circle cx="430.4" cy="320.94" r="4.8" fill="#fff" stroke="#6670ee" stroke-width="2"/>
  <circle cx="257.52" cy="258.68" r="4.8" fill="#fff" stroke="#6670ee" stroke-width="2"/>
  <circle cx="231.91" cy="149.72" r="4.8" fill="#fff" stroke="#6670ee" stroke-width="2"/>
  <text x="239.91" y="141.72" text-anchor="start" font-family="PingFang SC, Noto Sans CJK SC, Microsoft YaHei, sans-serif" font-size="16" font-weight="700" fill="#30332e">ND</text>
  <circle cx="295.94" cy="319.21" r="4.8" fill="#fff" stroke="#6670ee" stroke-width="2"/>
  <circle cx="174.28" cy="199.88" r="4.8" fill="#fff" stroke="#6670ee" stroke-width="2"/>
  <circle cx="276.73" cy="284.62" r="4.8" fill="#fff" stroke="#6670ee" stroke-width="2"/>
  <circle cx="347.16" cy="343.43" r="4.8" fill="#fff" stroke="#6670ee" stroke-width="2"/>
  <circle cx="417.59" cy="352.08" r="4.8" fill="#fff" stroke="#6670ee" stroke-width="2"/>
  <circle cx="302.34" cy="298.46" r="4.8" fill="#fff" stroke="#6670ee" stroke-width="2"/>
  <circle cx="251.12" cy="263.87" r="4.8" fill="#fff" stroke="#6670ee" stroke-width="2"/>
  <circle cx="225.5" cy="275.98" r="4.8" fill="#fff" stroke="#6670ee" stroke-width="2"/>
  <circle cx="225.5" cy="239.66" r="4.8" fill="#fff" stroke="#6670ee" stroke-width="2"/>
  <circle cx="103.85" cy="99.56" r="4.8" fill="#fff" stroke="#6670ee" stroke-width="2"/>
  <circle cx="334.35" cy="327.86" r="4.8" fill="#fff" stroke="#6670ee" stroke-width="2"/>
  <circle cx="302.34" cy="256.95" r="4.8" fill="#fff" stroke="#6670ee" stroke-width="2"/>
  <circle cx="270.32" cy="241.39" r="4.8" fill="#fff" stroke="#6670ee" stroke-width="2"/>
  <circle cx="212.7" cy="227.55" r="4.8" fill="#fff" stroke="#6670ee" stroke-width="2"/>
  <circle cx="295.94" cy="314.03" r="4.8" fill="#fff" stroke="#6670ee" stroke-width="2"/>
  <circle cx="161.47" cy="80.54" r="4.8" fill="#fff" stroke="#6670ee" stroke-width="2"/>
  <text x="169.47" y="72.54" text-anchor="start" font-family="PingFang SC, Noto Sans CJK SC, Microsoft YaHei, sans-serif" font-size="16" font-weight="700" fill="#30332e">WY</text>
  <text x="120.93" y="422" text-anchor="middle" font-family="PingFang SC, Noto Sans CJK SC, Microsoft YaHei, sans-serif" font-size="14" fill="#30332e">-2</text>
  <text x="92" y="400" text-anchor="end" font-family="PingFang SC, Noto Sans CJK SC, Microsoft YaHei, sans-serif" font-size="14" fill="#30332e">-2</text>
  <text x="200.56" y="422" text-anchor="middle" font-family="PingFang SC, Noto Sans CJK SC, Microsoft YaHei, sans-serif" font-size="14" fill="#30332e">-1</text>
  <text x="92" y="334.31" text-anchor="end" font-family="PingFang SC, Noto Sans CJK SC, Microsoft YaHei, sans-serif" font-size="14" fill="#30332e">-1</text>
  <text x="280.19" y="422" text-anchor="middle" font-family="PingFang SC, Noto Sans CJK SC, Microsoft YaHei, sans-serif" font-size="14" fill="#30332e">0</text>
  <text x="92" y="268.63" text-anchor="end" font-family="PingFang SC, Noto Sans CJK SC, Microsoft YaHei, sans-serif" font-size="14" fill="#30332e">0</text>
  <text x="359.81" y="422" text-anchor="middle" font-family="PingFang SC, Noto Sans CJK SC, Microsoft YaHei, sans-serif" font-size="14" fill="#30332e">1</text>
  <text x="92" y="202.94" text-anchor="end" font-family="PingFang SC, Noto Sans CJK SC, Microsoft YaHei, sans-serif" font-size="14" fill="#30332e">1</text>
  <text x="439.44" y="422" text-anchor="middle" font-family="PingFang SC, Noto Sans CJK SC, Microsoft YaHei, sans-serif" font-size="14" fill="#30332e">2</text>
  <text x="92" y="137.25" text-anchor="end" font-family="PingFang SC, Noto Sans CJK SC, Microsoft YaHei, sans-serif" font-size="14" fill="#30332e">2</text>
  <text x="519.07" y="422" text-anchor="middle" font-family="PingFang SC, Noto Sans CJK SC, Microsoft YaHei, sans-serif" font-size="14" fill="#30332e">3</text>
  <text x="92" y="71.57" text-anchor="end" font-family="PingFang SC, Noto Sans CJK SC, Microsoft YaHei, sans-serif" font-size="14" fill="#30332e">3</text>
  <text x="320.0" y="453" text-anchor="middle" font-family="PingFang SC, Noto Sans CJK SC, Microsoft YaHei, sans-serif" font-size="18" font-weight="700" fill="#263f86">结婚年龄（标准化）</text>
  <text x="47" y="227.5" transform="rotate(-90 47 227.5)" text-anchor="middle" font-family="PingFang SC, Noto Sans CJK SC, Microsoft YaHei, sans-serif" font-size="18" font-weight="700" fill="#263f86">结婚率（标准化）</text>
  <line x1="860.54" y1="259.53" x2="860.54" y2="296.13" stroke="#9b9e9a" stroke-width="2"/>
  <line x1="989.3" y1="327.85" x2="989.3" y2="301.12" stroke="#9b9e9a" stroke-width="2"/>
  <line x1="862.76" y1="260.71" x2="862.76" y2="271.19" stroke="#9b9e9a" stroke-width="2"/>
  <line x1="998.18" y1="332.56" x2="998.18" y2="346.01" stroke="#9b9e9a" stroke-width="2"/>
  <line x1="836.12" y1="246.57" x2="836.12" y2="221.31" stroke="#9b9e9a" stroke-width="2"/>
  <line x1="933.8" y1="298.4" x2="933.8" y2="276.18" stroke="#9b9e9a" stroke-width="2"/>
  <line x1="791.72" y1="223.02" x2="791.72" y2="181.4" stroke="#9b9e9a" stroke-width="2"/>
  <line x1="924.92" y1="293.69" x2="924.92" y2="231.28" stroke="#9b9e9a" stroke-width="2"/>
  <line x1="805.04" y1="230.08" x2="805.04" y2="76.64" stroke="#9b9e9a" stroke-width="2"/>
  <line x1="789.5" y1="221.84" x2="789.5" y2="241.26" stroke="#9b9e9a" stroke-width="2"/>
  <line x1="902.72" y1="281.91" x2="902.72" y2="266.2" stroke="#9b9e9a" stroke-width="2"/>
  <line x1="964.88" y1="314.89" x2="964.88" y2="216.32" stroke="#9b9e9a" stroke-width="2"/>
  <line x1="984.86" y1="325.49" x2="984.86" y2="400.89" stroke="#9b9e9a" stroke-width="2"/>
  <line x1="809.48" y1="232.44" x2="809.48" y2="211.33" stroke="#9b9e9a" stroke-width="2"/>
  <line x1="851.66" y1="254.82" x2="851.66" y2="276.18" stroke="#9b9e9a" stroke-width="2"/>
  <line x1="889.4" y1="274.84" x2="889.4" y2="291.14" stroke="#9b9e9a" stroke-width="2"/>
  <line x1="902.72" y1="281.91" x2="902.72" y2="311.1" stroke="#9b9e9a" stroke-width="2"/>
  <line x1="904.94" y1="283.09" x2="904.94" y2="321.07" stroke="#9b9e9a" stroke-width="2"/>
  <line x1="869.42" y1="264.24" x2="869.42" y2="266.2" stroke="#9b9e9a" stroke-width="2"/>
  <line x1="711.8" y1="180.61" x2="711.8" y2="241.26" stroke="#9b9e9a" stroke-width="2"/>
  <line x1="818.36" y1="237.15" x2="818.36" y2="196.36" stroke="#9b9e9a" stroke-width="2"/>
  <line x1="762.86" y1="207.7" x2="762.86" y2="136.5" stroke="#9b9e9a" stroke-width="2"/>
  <line x1="778.4" y1="215.95" x2="778.4" y2="241.26" stroke="#9b9e9a" stroke-width="2"/>
  <line x1="751.76" y1="201.82" x2="751.76" y2="246.25" stroke="#9b9e9a" stroke-width="2"/>
  <line x1="840.56" y1="248.93" x2="840.56" y2="271.19" stroke="#9b9e9a" stroke-width="2"/>
  <line x1="825.02" y1="240.69" x2="825.02" y2="281.17" stroke="#9b9e9a" stroke-width="2"/>
  <line x1="822.8" y1="239.51" x2="822.8" y2="276.18" stroke="#9b9e9a" stroke-width="2"/>
  <line x1="847.22" y1="252.46" x2="847.22" y2="291.14" stroke="#9b9e9a" stroke-width="2"/>
  <line x1="782.84" y1="218.31" x2="782.84" y2="221.31" stroke="#9b9e9a" stroke-width="2"/>
  <line x1="740.66" y1="195.93" x2="740.66" y2="176.41" stroke="#9b9e9a" stroke-width="2"/>
  <line x1="864.98" y1="261.89" x2="864.98" y2="271.19" stroke="#9b9e9a" stroke-width="2"/>
  <line x1="785.06" y1="219.48" x2="785.06" y2="141.49" stroke="#9b9e9a" stroke-width="2"/>
  <line x1="864.98" y1="261.89" x2="864.98" y2="276.18" stroke="#9b9e9a" stroke-width="2"/>
  <line x1="1004.84" y1="336.09" x2="1004.84" y2="296.13" stroke="#9b9e9a" stroke-width="2"/>
  <line x1="787.28" y1="220.66" x2="787.28" y2="246.25" stroke="#9b9e9a" stroke-width="2"/>
  <line x1="940.46" y1="301.94" x2="940.46" y2="341.03" stroke="#9b9e9a" stroke-width="2"/>
  <line x1="831.68" y1="244.22" x2="831.68" y2="261.21" stroke="#9b9e9a" stroke-width="2"/>
  <line x1="756.2" y1="204.17" x2="756.2" y2="206.34" stroke="#9b9e9a" stroke-width="2"/>
  <line x1="745.1" y1="198.28" x2="745.1" y2="151.47" stroke="#9b9e9a" stroke-width="2"/>
  <line x1="813.92" y1="234.8" x2="813.92" y2="241.26" stroke="#9b9e9a" stroke-width="2"/>
  <line x1="858.32" y1="258.35" x2="858.32" y2="281.17" stroke="#9b9e9a" stroke-width="2"/>
  <line x1="842.78" y1="250.11" x2="842.78" y2="301.12" stroke="#9b9e9a" stroke-width="2"/>
  <line x1="889.4" y1="274.84" x2="889.4" y2="301.12" stroke="#9b9e9a" stroke-width="2"/>
  <line x1="1069.22" y1="370.25" x2="1069.22" y2="395.9" stroke="#9b9e9a" stroke-width="2"/>
  <line x1="776.18" y1="214.77" x2="776.18" y2="216.32" stroke="#9b9e9a" stroke-width="2"/>
  <line x1="867.2" y1="263.07" x2="867.2" y2="241.26" stroke="#9b9e9a" stroke-width="2"/>
  <line x1="887.18" y1="273.67" x2="887.18" y2="266.2" stroke="#9b9e9a" stroke-width="2"/>
  <line x1="904.94" y1="283.09" x2="904.94" y2="311.1" stroke="#9b9e9a" stroke-width="2"/>
  <line x1="793.94" y1="224.2" x2="793.94" y2="246.25" stroke="#9b9e9a" stroke-width="2"/>
  <line x1="1093.64" y1="383.21" x2="1093.64" y2="351" stroke="#9b9e9a" stroke-width="2"/>
  <rect x="690" y="60" width="430" height="335" fill="none" stroke="#343732" stroke-width="1.5"/>
  <line x1="690" y1="169.05" x2="1120" y2="397.2" stroke="#242724" stroke-width="3"/>
  <circle cx="860.54" cy="296.13" r="4.8" fill="#fff" stroke="#6670ee" stroke-width="2"/>
  <circle cx="989.3" cy="301.12" r="4.8" fill="#fff" stroke="#6670ee" stroke-width="2"/>
  <circle cx="862.76" cy="271.19" r="4.8" fill="#fff" stroke="#6670ee" stroke-width="2"/>
  <circle cx="998.18" cy="346.01" r="4.8" fill="#fff" stroke="#6670ee" stroke-width="2"/>
  <circle cx="836.12" cy="221.31" r="4.8" fill="#fff" stroke="#6670ee" stroke-width="2"/>
  <circle cx="933.8" cy="276.18" r="4.8" fill="#fff" stroke="#6670ee" stroke-width="2"/>
  <circle cx="791.72" cy="181.4" r="4.8" fill="#fff" stroke="#6670ee" stroke-width="2"/>
  <circle cx="924.92" cy="231.28" r="4.8" fill="#fff" stroke="#6670ee" stroke-width="2"/>
  <circle cx="805.04" cy="76.64" r="4.8" fill="#fff" stroke="#6670ee" stroke-width="2"/>
  <text x="813.04" y="68.64" text-anchor="start" font-family="PingFang SC, Noto Sans CJK SC, Microsoft YaHei, sans-serif" font-size="16" font-weight="700" fill="#30332e">DC</text>
  <circle cx="789.5" cy="241.26" r="4.8" fill="#fff" stroke="#6670ee" stroke-width="2"/>
  <circle cx="902.72" cy="266.2" r="4.8" fill="#fff" stroke="#6670ee" stroke-width="2"/>
  <circle cx="964.88" cy="216.32" r="4.8" fill="#fff" stroke="#6670ee" stroke-width="2"/>
  <text x="972.88" y="208.32" text-anchor="start" font-family="PingFang SC, Noto Sans CJK SC, Microsoft YaHei, sans-serif" font-size="16" font-weight="700" fill="#30332e">HI</text>
  <circle cx="984.86" cy="400.89" r="4.8" fill="#fff" stroke="#6670ee" stroke-width="2"/>
  <text x="976.86" y="392.89" text-anchor="end" font-family="PingFang SC, Noto Sans CJK SC, Microsoft YaHei, sans-serif" font-size="16" font-weight="700" fill="#30332e">ID</text>
  <circle cx="809.48" cy="211.33" r="4.8" fill="#fff" stroke="#6670ee" stroke-width="2"/>
  <circle cx="851.66" cy="276.18" r="4.8" fill="#fff" stroke="#6670ee" stroke-width="2"/>
  <circle cx="889.4" cy="291.14" r="4.8" fill="#fff" stroke="#6670ee" stroke-width="2"/>
  <circle cx="902.72" cy="311.1" r="4.8" fill="#fff" stroke="#6670ee" stroke-width="2"/>
  <circle cx="904.94" cy="321.07" r="4.8" fill="#fff" stroke="#6670ee" stroke-width="2"/>
  <circle cx="869.42" cy="266.2" r="4.8" fill="#fff" stroke="#6670ee" stroke-width="2"/>
  <circle cx="711.8" cy="241.26" r="4.8" fill="#fff" stroke="#6670ee" stroke-width="2"/>
  <circle cx="818.36" cy="196.36" r="4.8" fill="#fff" stroke="#6670ee" stroke-width="2"/>
  <circle cx="762.86" cy="136.5" r="4.8" fill="#fff" stroke="#6670ee" stroke-width="2"/>
  <circle cx="778.4" cy="241.26" r="4.8" fill="#fff" stroke="#6670ee" stroke-width="2"/>
  <circle cx="751.76" cy="246.25" r="4.8" fill="#fff" stroke="#6670ee" stroke-width="2"/>
  <circle cx="840.56" cy="271.19" r="4.8" fill="#fff" stroke="#6670ee" stroke-width="2"/>
  <circle cx="825.02" cy="281.17" r="4.8" fill="#fff" stroke="#6670ee" stroke-width="2"/>
  <circle cx="822.8" cy="276.18" r="4.8" fill="#fff" stroke="#6670ee" stroke-width="2"/>
  <circle cx="847.22" cy="291.14" r="4.8" fill="#fff" stroke="#6670ee" stroke-width="2"/>
  <circle cx="782.84" cy="221.31" r="4.8" fill="#fff" stroke="#6670ee" stroke-width="2"/>
  <circle cx="740.66" cy="176.41" r="4.8" fill="#fff" stroke="#6670ee" stroke-width="2"/>
  <circle cx="864.98" cy="271.19" r="4.8" fill="#fff" stroke="#6670ee" stroke-width="2"/>
  <circle cx="785.06" cy="141.49" r="4.8" fill="#fff" stroke="#6670ee" stroke-width="2"/>
  <circle cx="864.98" cy="276.18" r="4.8" fill="#fff" stroke="#6670ee" stroke-width="2"/>
  <circle cx="1004.84" cy="296.13" r="4.8" fill="#fff" stroke="#6670ee" stroke-width="2"/>
  <circle cx="787.28" cy="246.25" r="4.8" fill="#fff" stroke="#6670ee" stroke-width="2"/>
  <circle cx="940.46" cy="341.03" r="4.8" fill="#fff" stroke="#6670ee" stroke-width="2"/>
  <circle cx="831.68" cy="261.21" r="4.8" fill="#fff" stroke="#6670ee" stroke-width="2"/>
  <circle cx="756.2" cy="206.34" r="4.8" fill="#fff" stroke="#6670ee" stroke-width="2"/>
  <circle cx="745.1" cy="151.47" r="4.8" fill="#fff" stroke="#6670ee" stroke-width="2"/>
  <circle cx="813.92" cy="241.26" r="4.8" fill="#fff" stroke="#6670ee" stroke-width="2"/>
  <circle cx="858.32" cy="281.17" r="4.8" fill="#fff" stroke="#6670ee" stroke-width="2"/>
  <circle cx="842.78" cy="301.12" r="4.8" fill="#fff" stroke="#6670ee" stroke-width="2"/>
  <circle cx="889.4" cy="301.12" r="4.8" fill="#fff" stroke="#6670ee" stroke-width="2"/>
  <circle cx="1069.22" cy="395.9" r="4.8" fill="#fff" stroke="#6670ee" stroke-width="2"/>
  <circle cx="776.18" cy="216.32" r="4.8" fill="#fff" stroke="#6670ee" stroke-width="2"/>
  <circle cx="867.2" cy="241.26" r="4.8" fill="#fff" stroke="#6670ee" stroke-width="2"/>
  <circle cx="887.18" cy="266.2" r="4.8" fill="#fff" stroke="#6670ee" stroke-width="2"/>
  <circle cx="904.94" cy="311.1" r="4.8" fill="#fff" stroke="#6670ee" stroke-width="2"/>
  <circle cx="793.94" cy="246.25" r="4.8" fill="#fff" stroke="#6670ee" stroke-width="2"/>
  <circle cx="1093.64" cy="351" r="4.8" fill="#fff" stroke="#6670ee" stroke-width="2"/>
  <text x="690" y="422" text-anchor="middle" font-family="PingFang SC, Noto Sans CJK SC, Microsoft YaHei, sans-serif" font-size="14" fill="#30332e">-2</text>
  <text x="677" y="387.59" text-anchor="end" font-family="PingFang SC, Noto Sans CJK SC, Microsoft YaHei, sans-serif" font-size="14" fill="#30332e">-2</text>
  <text x="774.31" y="422" text-anchor="middle" font-family="PingFang SC, Noto Sans CJK SC, Microsoft YaHei, sans-serif" font-size="14" fill="#30332e">-1</text>
  <text x="677" y="325.56" text-anchor="end" font-family="PingFang SC, Noto Sans CJK SC, Microsoft YaHei, sans-serif" font-size="14" fill="#30332e">-1</text>
  <text x="858.63" y="422" text-anchor="middle" font-family="PingFang SC, Noto Sans CJK SC, Microsoft YaHei, sans-serif" font-size="14" fill="#30332e">0</text>
  <text x="677" y="263.52" text-anchor="end" font-family="PingFang SC, Noto Sans CJK SC, Microsoft YaHei, sans-serif" font-size="14" fill="#30332e">0</text>
  <text x="942.94" y="422" text-anchor="middle" font-family="PingFang SC, Noto Sans CJK SC, Microsoft YaHei, sans-serif" font-size="14" fill="#30332e">1</text>
  <text x="677" y="201.48" text-anchor="end" font-family="PingFang SC, Noto Sans CJK SC, Microsoft YaHei, sans-serif" font-size="14" fill="#30332e">1</text>
  <text x="1027.25" y="422" text-anchor="middle" font-family="PingFang SC, Noto Sans CJK SC, Microsoft YaHei, sans-serif" font-size="14" fill="#30332e">2</text>
  <text x="677" y="139.44" text-anchor="end" font-family="PingFang SC, Noto Sans CJK SC, Microsoft YaHei, sans-serif" font-size="14" fill="#30332e">2</text>
  <text x="1111.57" y="422" text-anchor="middle" font-family="PingFang SC, Noto Sans CJK SC, Microsoft YaHei, sans-serif" font-size="14" fill="#30332e">3</text>
  <text x="677" y="77.41" text-anchor="end" font-family="PingFang SC, Noto Sans CJK SC, Microsoft YaHei, sans-serif" font-size="14" fill="#30332e">3</text>
  <text x="905.0" y="453" text-anchor="middle" font-family="PingFang SC, Noto Sans CJK SC, Microsoft YaHei, sans-serif" font-size="18" font-weight="700" fill="#263f86">结婚率（标准化）</text>
  <text x="632" y="227.5" transform="rotate(-90 632 227.5)" text-anchor="middle" font-family="PingFang SC, Noto Sans CJK SC, Microsoft YaHei, sans-serif" font-size="18" font-weight="700" fill="#263f86">结婚年龄（标准化）</text>
  <line x1="320" y1="555" x2="320" y2="890" stroke="#777b76" stroke-width="2" stroke-dasharray="7 7"/>
  <rect x="105" y="555" width="430" height="335" fill="none" stroke="#343732" stroke-width="1.5"/>
  <line x1="105" y1="706.25" x2="535" y2="738.75" stroke="#242724" stroke-width="3"/>
  <circle cx="270.48" cy="596.55" r="4.8" fill="#fff" stroke="#6670ee" stroke-width="2"/>
  <circle cx="445.97" cy="604.92" r="4.8" fill="#fff" stroke="#6670ee" stroke-width="2"/>
  <circle cx="308.26" cy="676" r="4.8" fill="#fff" stroke="#6670ee" stroke-width="2"/>
  <circle cx="396.22" cy="563.1" r="4.8" fill="#fff" stroke="#6670ee" stroke-width="2"/>
  <circle cx="339.78" cy="793.08" r="4.8" fill="#fff" stroke="#6670ee" stroke-width="2"/>
  <circle cx="401.97" cy="642.55" r="4.8" fill="#fff" stroke="#6670ee" stroke-width="2"/>
  <circle cx="332.28" cy="847.44" r="4.8" fill="#fff" stroke="#6670ee" stroke-width="2"/>
  <circle cx="451.72" cy="755.45" r="4.8" fill="#fff" stroke="#6670ee" stroke-width="2"/>
  <circle cx="496.59" cy="864.17" r="4.8" fill="#fff" stroke="#6670ee" stroke-width="2"/>
  <text x="504.59" y="856.17" text-anchor="start" font-family="PingFang SC, Noto Sans CJK SC, Microsoft YaHei, sans-serif" font-size="16" font-weight="700" fill="#30332e">DC</text>
  <circle cx="246.03" cy="772.18" r="4.8" fill="#fff" stroke="#6670ee" stroke-width="2"/>
  <circle cx="371.79" cy="646.73" r="4.8" fill="#fff" stroke="#6670ee" stroke-width="2"/>
  <circle cx="529.11" cy="780.54" r="4.8" fill="#fff" stroke="#6670ee" stroke-width="2"/>
  <text x="537.11" y="772.54" text-anchor="start" font-family="PingFang SC, Noto Sans CJK SC, Microsoft YaHei, sans-serif" font-size="16" font-weight="700" fill="#30332e">HI</text>
  <circle cx="301.16" cy="805.63" r="4.8" fill="#fff" stroke="#6670ee" stroke-width="2"/>
  <circle cx="315.89" cy="793.08" r="4.8" fill="#fff" stroke="#6670ee" stroke-width="2"/>
  <circle cx="285.61" cy="667.64" r="4.8" fill="#fff" stroke="#6670ee" stroke-width="2"/>
  <circle cx="318.3" cy="701.09" r="4.8" fill="#fff" stroke="#6670ee" stroke-width="2"/>
  <circle cx="309.46" cy="684.37" r="4.8" fill="#fff" stroke="#6670ee" stroke-width="2"/>
  <circle cx="298.76" cy="600.74" r="4.8" fill="#fff" stroke="#6670ee" stroke-width="2"/>
  <circle cx="324.62" cy="667.64" r="4.8" fill="#fff" stroke="#6670ee" stroke-width="2"/>
  <circle cx="135.95" cy="584.01" r="4.8" fill="#fff" stroke="#6670ee" stroke-width="2"/>
  <text x="127.95" y="576.01" text-anchor="end" font-family="PingFang SC, Noto Sans CJK SC, Microsoft YaHei, sans-serif" font-size="16" font-weight="700" fill="#30332e">ME</text>
  <circle cx="349.24" cy="759.63" r="4.8" fill="#fff" stroke="#6670ee" stroke-width="2"/>
  <circle cx="353.73" cy="801.45" r="4.8" fill="#fff" stroke="#6670ee" stroke-width="2"/>
  <circle cx="230.3" cy="742.91" r="4.8" fill="#fff" stroke="#6670ee" stroke-width="2"/>
  <circle cx="185.64" cy="818.17" r="4.8" fill="#fff" stroke="#6670ee" stroke-width="2"/>
  <circle cx="276.81" cy="663.46" r="4.8" fill="#fff" stroke="#6670ee" stroke-width="2"/>
  <circle cx="240.94" cy="730.36" r="4.8" fill="#fff" stroke="#6670ee" stroke-width="2"/>
  <circle cx="244.72" cy="747.09" r="4.8" fill="#fff" stroke="#6670ee" stroke-width="2"/>
  <circle cx="258.54" cy="759.63" r="4.8" fill="#fff" stroke="#6670ee" stroke-width="2"/>
  <circle cx="264.3" cy="705.27" r="4.8" fill="#fff" stroke="#6670ee" stroke-width="2"/>
  <circle cx="266.87" cy="872.53" r="4.8" fill="#fff" stroke="#6670ee" stroke-width="2"/>
  <circle cx="311.4" cy="701.09" r="4.8" fill="#fff" stroke="#6670ee" stroke-width="2"/>
  <circle cx="378.25" cy="851.62" r="4.8" fill="#fff" stroke="#6670ee" stroke-width="2"/>
  <circle cx="304.48" cy="713.64" r="4.8" fill="#fff" stroke="#6670ee" stroke-width="2"/>
  <circle cx="474.91" cy="793.08" r="4.8" fill="#fff" stroke="#6670ee" stroke-width="2"/>
  <text x="482.91" y="785.08" text-anchor="start" font-family="PingFang SC, Noto Sans CJK SC, Microsoft YaHei, sans-serif" font-size="16" font-weight="700" fill="#30332e">ND</text>
  <circle cx="235.96" cy="730.36" r="4.8" fill="#fff" stroke="#6670ee" stroke-width="2"/>
  <circle cx="321.37" cy="592.37" r="4.8" fill="#fff" stroke="#6670ee" stroke-width="2"/>
  <circle cx="278.08" cy="692.73" r="4.8" fill="#fff" stroke="#6670ee" stroke-width="2"/>
  <circle cx="247.33" cy="805.63" r="4.8" fill="#fff" stroke="#6670ee" stroke-width="2"/>
  <circle cx="307.79" cy="734.54" r="4.8" fill="#fff" stroke="#6670ee" stroke-width="2"/>
  <circle cx="280.62" cy="788.9" r="4.8" fill="#fff" stroke="#6670ee" stroke-width="2"/>
  <circle cx="288.12" cy="671.82" r="4.8" fill="#fff" stroke="#6670ee" stroke-width="2"/>
  <circle cx="238.4" cy="650.91" r="4.8" fill="#fff" stroke="#6670ee" stroke-width="2"/>
  <circle cx="304.44" cy="709.45" r="4.8" fill="#fff" stroke="#6670ee" stroke-width="2"/>
  <circle cx="427.6" cy="701.09" r="4.8" fill="#fff" stroke="#6670ee" stroke-width="2"/>
  <circle cx="261.79" cy="726.18" r="4.8" fill="#fff" stroke="#6670ee" stroke-width="2"/>
  <circle cx="356.1" cy="755.45" r="4.8" fill="#fff" stroke="#6670ee" stroke-width="2"/>
  <circle cx="349.78" cy="709.45" r="4.8" fill="#fff" stroke="#6670ee" stroke-width="2"/>
  <circle cx="312.61" cy="671.82" r="4.8" fill="#fff" stroke="#6670ee" stroke-width="2"/>
  <circle cx="245.39" cy="780.54" r="4.8" fill="#fff" stroke="#6670ee" stroke-width="2"/>
  <circle cx="524.53" cy="696.91" r="4.8" fill="#fff" stroke="#6670ee" stroke-width="2"/>
  <text x="532.53" y="688.91" text-anchor="start" font-family="PingFang SC, Noto Sans CJK SC, Microsoft YaHei, sans-serif" font-size="16" font-weight="700" fill="#30332e">WY</text>
  <text x="92" y="879.77" text-anchor="end" font-family="PingFang SC, Noto Sans CJK SC, Microsoft YaHei, sans-serif" font-size="14" fill="#30332e">-2</text>
  <text x="200.56" y="917" text-anchor="middle" font-family="PingFang SC, Noto Sans CJK SC, Microsoft YaHei, sans-serif" font-size="14" fill="#30332e">-1</text>
  <text x="92" y="803.64" text-anchor="end" font-family="PingFang SC, Noto Sans CJK SC, Microsoft YaHei, sans-serif" font-size="14" fill="#30332e">-1</text>
  <text x="320" y="917" text-anchor="middle" font-family="PingFang SC, Noto Sans CJK SC, Microsoft YaHei, sans-serif" font-size="14" fill="#30332e">0</text>
  <text x="92" y="727.5" text-anchor="end" font-family="PingFang SC, Noto Sans CJK SC, Microsoft YaHei, sans-serif" font-size="14" fill="#30332e">0</text>
  <text x="439.44" y="917" text-anchor="middle" font-family="PingFang SC, Noto Sans CJK SC, Microsoft YaHei, sans-serif" font-size="14" fill="#30332e">1</text>
  <text x="92" y="651.36" text-anchor="end" font-family="PingFang SC, Noto Sans CJK SC, Microsoft YaHei, sans-serif" font-size="14" fill="#30332e">1</text>
  <text x="92" y="575.23" text-anchor="end" font-family="PingFang SC, Noto Sans CJK SC, Microsoft YaHei, sans-serif" font-size="14" fill="#30332e">2</text>
  <text x="320.0" y="948" text-anchor="middle" font-family="PingFang SC, Noto Sans CJK SC, Microsoft YaHei, sans-serif" font-size="18" font-weight="700" fill="#263f86">结婚率残差</text>
  <text x="47" y="722.5" transform="rotate(-90 47 722.5)" text-anchor="middle" font-family="PingFang SC, Noto Sans CJK SC, Microsoft YaHei, sans-serif" font-size="18" font-weight="700" fill="#263f86">离婚率（标准化）</text>
  <line x1="864.32" y1="555" x2="864.32" y2="890" stroke="#777b76" stroke-width="2" stroke-dasharray="7 7"/>
  <rect x="690" y="555" width="430" height="335" fill="none" stroke="#343732" stroke-width="1.5"/>
  <line x1="690" y1="644.52" x2="1120" y2="836.86" stroke="#242724" stroke-width="3"/>
  <circle cx="795.76" cy="596.55" r="4.8" fill="#fff" stroke="#6670ee" stroke-width="2"/>
  <circle cx="914.4" cy="604.92" r="4.8" fill="#fff" stroke="#6670ee" stroke-width="2"/>
  <circle cx="844.69" cy="676" r="4.8" fill="#fff" stroke="#6670ee" stroke-width="2"/>
  <circle cx="839.12" cy="563.1" r="4.8" fill="#fff" stroke="#6670ee" stroke-width="2"/>
  <circle cx="911.66" cy="793.08" r="4.8" fill="#fff" stroke="#6670ee" stroke-width="2"/>
  <circle cx="905.96" cy="642.55" r="4.8" fill="#fff" stroke="#6670ee" stroke-width="2"/>
  <circle cx="942.29" cy="847.44" r="4.8" fill="#fff" stroke="#6670ee" stroke-width="2"/>
  <circle cx="981.24" cy="755.45" r="4.8" fill="#fff" stroke="#6670ee" stroke-width="2"/>
  <circle cx="1151.77" cy="864.17" r="4.8" fill="#fff" stroke="#6670ee" stroke-width="2"/>
  <text x="1159.77" y="856.17" text-anchor="start" font-family="PingFang SC, Noto Sans CJK SC, Microsoft YaHei, sans-serif" font-size="16" font-weight="700" fill="#30332e">DC</text>
  <circle cx="827.95" cy="772.18" r="4.8" fill="#fff" stroke="#6670ee" stroke-width="2"/>
  <circle cx="893.76" cy="646.73" r="4.8" fill="#fff" stroke="#6670ee" stroke-width="2"/>
  <circle cx="1048.99" cy="780.54" r="4.8" fill="#fff" stroke="#6670ee" stroke-width="2"/>
  <text x="1056.99" y="772.54" text-anchor="start" font-family="PingFang SC, Noto Sans CJK SC, Microsoft YaHei, sans-serif" font-size="16" font-weight="700" fill="#30332e">HI</text>
  <circle cx="723.09" cy="805.63" r="4.8" fill="#fff" stroke="#6670ee" stroke-width="2"/>
  <text x="715.09" y="797.63" text-anchor="end" font-family="PingFang SC, Noto Sans CJK SC, Microsoft YaHei, sans-serif" font-size="16" font-weight="700" fill="#30332e">ID</text>
  <circle cx="903.87" cy="793.08" r="4.8" fill="#fff" stroke="#6670ee" stroke-width="2"/>
  <circle cx="824.31" cy="667.64" r="4.8" fill="#fff" stroke="#6670ee" stroke-width="2"/>
  <circle cx="833.79" cy="701.09" r="4.8" fill="#fff" stroke="#6670ee" stroke-width="2"/>
  <circle cx="809.65" cy="684.37" r="4.8" fill="#fff" stroke="#6670ee" stroke-width="2"/>
  <circle cx="793.17" cy="600.74" r="4.8" fill="#fff" stroke="#6670ee" stroke-width="2"/>
  <circle cx="860.66" cy="667.64" r="4.8" fill="#fff" stroke="#6670ee" stroke-width="2"/>
  <circle cx="750.72" cy="584.01" r="4.8" fill="#fff" stroke="#6670ee" stroke-width="2"/>
  <circle cx="940.73" cy="759.63" r="4.8" fill="#fff" stroke="#6670ee" stroke-width="2"/>
  <circle cx="997.71" cy="801.45" r="4.8" fill="#fff" stroke="#6670ee" stroke-width="2"/>
  <circle cx="816.91" cy="742.91" r="4.8" fill="#fff" stroke="#6670ee" stroke-width="2"/>
  <circle cx="781.09" cy="818.17" r="4.8" fill="#fff" stroke="#6670ee" stroke-width="2"/>
  <circle cx="822.63" cy="663.46" r="4.8" fill="#fff" stroke="#6670ee" stroke-width="2"/>
  <circle cx="788.49" cy="730.36" r="4.8" fill="#fff" stroke="#6670ee" stroke-width="2"/>
  <circle cx="795.63" cy="747.09" r="4.8" fill="#fff" stroke="#6670ee" stroke-width="2"/>
  <circle cx="791.87" cy="759.63" r="4.8" fill="#fff" stroke="#6670ee" stroke-width="2"/>
  <circle cx="858.71" cy="705.27" r="4.8" fill="#fff" stroke="#6670ee" stroke-width="2"/>
  <circle cx="900.89" cy="872.53" r="4.8" fill="#fff" stroke="#6670ee" stroke-width="2"/>
  <circle cx="846.9" cy="701.09" r="4.8" fill="#fff" stroke="#6670ee" stroke-width="2"/>
  <circle cx="1010.43" cy="851.62" r="4.8" fill="#fff" stroke="#6670ee" stroke-width="2"/>
  <circle cx="837.55" cy="713.64" r="4.8" fill="#fff" stroke="#6670ee" stroke-width="2"/>
  <circle cx="939.19" cy="793.08" r="4.8" fill="#fff" stroke="#6670ee" stroke-width="2"/>
  <circle cx="816.39" cy="730.36" r="4.8" fill="#fff" stroke="#6670ee" stroke-width="2"/>
  <circle cx="791.09" cy="592.37" r="4.8" fill="#fff" stroke="#6670ee" stroke-width="2"/>
  <circle cx="832.49" cy="692.73" r="4.8" fill="#fff" stroke="#6670ee" stroke-width="2"/>
  <circle cx="860.26" cy="805.63" r="4.8" fill="#fff" stroke="#6670ee" stroke-width="2"/>
  <circle cx="952.02" cy="734.54" r="4.8" fill="#fff" stroke="#6670ee" stroke-width="2"/>
  <circle cx="852.22" cy="788.9" r="4.8" fill="#fff" stroke="#6670ee" stroke-width="2"/>
  <circle cx="821.59" cy="671.82" r="4.8" fill="#fff" stroke="#6670ee" stroke-width="2"/>
  <circle cx="768.76" cy="650.91" r="4.8" fill="#fff" stroke="#6670ee" stroke-width="2"/>
  <circle cx="815.1" cy="709.45" r="4.8" fill="#fff" stroke="#6670ee" stroke-width="2"/>
  <circle cx="816.28" cy="701.09" r="4.8" fill="#fff" stroke="#6670ee" stroke-width="2"/>
  <circle cx="861.43" cy="726.18" r="4.8" fill="#fff" stroke="#6670ee" stroke-width="2"/>
  <circle cx="905.18" cy="755.45" r="4.8" fill="#fff" stroke="#6670ee" stroke-width="2"/>
  <circle cx="878.31" cy="709.45" r="4.8" fill="#fff" stroke="#6670ee" stroke-width="2"/>
  <circle cx="811.86" cy="671.82" r="4.8" fill="#fff" stroke="#6670ee" stroke-width="2"/>
  <circle cx="823.01" cy="780.54" r="4.8" fill="#fff" stroke="#6670ee" stroke-width="2"/>
  <circle cx="924.66" cy="696.91" r="4.8" fill="#fff" stroke="#6670ee" stroke-width="2"/>
  <text x="677" y="879.77" text-anchor="end" font-family="PingFang SC, Noto Sans CJK SC, Microsoft YaHei, sans-serif" font-size="14" fill="#30332e">-2</text>
  <text x="748.11" y="917" text-anchor="middle" font-family="PingFang SC, Noto Sans CJK SC, Microsoft YaHei, sans-serif" font-size="14" fill="#30332e">-1</text>
  <text x="677" y="803.64" text-anchor="end" font-family="PingFang SC, Noto Sans CJK SC, Microsoft YaHei, sans-serif" font-size="14" fill="#30332e">-1</text>
  <text x="864.32" y="917" text-anchor="middle" font-family="PingFang SC, Noto Sans CJK SC, Microsoft YaHei, sans-serif" font-size="14" fill="#30332e">0</text>
  <text x="677" y="727.5" text-anchor="end" font-family="PingFang SC, Noto Sans CJK SC, Microsoft YaHei, sans-serif" font-size="14" fill="#30332e">0</text>
  <text x="980.54" y="917" text-anchor="middle" font-family="PingFang SC, Noto Sans CJK SC, Microsoft YaHei, sans-serif" font-size="14" fill="#30332e">1</text>
  <text x="677" y="651.36" text-anchor="end" font-family="PingFang SC, Noto Sans CJK SC, Microsoft YaHei, sans-serif" font-size="14" fill="#30332e">1</text>
  <text x="1096.76" y="917" text-anchor="middle" font-family="PingFang SC, Noto Sans CJK SC, Microsoft YaHei, sans-serif" font-size="14" fill="#30332e">2</text>
  <text x="677" y="575.23" text-anchor="end" font-family="PingFang SC, Noto Sans CJK SC, Microsoft YaHei, sans-serif" font-size="14" fill="#30332e">2</text>
  <text x="905.0" y="948" text-anchor="middle" font-family="PingFang SC, Noto Sans CJK SC, Microsoft YaHei, sans-serif" font-size="18" font-weight="700" fill="#263f86">结婚年龄残差</text>
  <text x="632" y="722.5" transform="rotate(-90 632 722.5)" text-anchor="middle" font-family="PingFang SC, Noto Sans CJK SC, Microsoft YaHei, sans-serif" font-size="18" font-weight="700" fill="#263f86">离婚率（标准化）</text>
</svg>
