<svg xmlns="http://www.w3.org/2000/svg" width="1200" height="650" viewBox="0 0 1200 650" role="img">
<title>logit link 把线性模型变换为概率</title>
<desc>左图为无界的对数赔率线性空间，右图为压缩到零与一之间的概率空间。</desc>
<rect width="100%" height="100%" fill="#fbfaf6"/>
<rect x="85" y="65" width="455" height="455" fill="#fff" stroke="#d9d5c8"/>
<line x1="85.0" y1="520" x2="85.0" y2="527" stroke="#30332e"/>
<text x="85.0" y="549.0" text-anchor="middle" font-family="-apple-system,BlinkMacSystemFont,PingFang SC,Noto Sans CJK SC,sans-serif" font-size="15" font-weight="400" fill="#30332e">-1.0</text>
<line x1="198.8" y1="520" x2="198.8" y2="527" stroke="#30332e"/>
<text x="198.8" y="549.0" text-anchor="middle" font-family="-apple-system,BlinkMacSystemFont,PingFang SC,Noto Sans CJK SC,sans-serif" font-size="15" font-weight="400" fill="#30332e">-0.5</text>
<line x1="312.5" y1="520" x2="312.5" y2="527" stroke="#30332e"/>
<text x="312.5" y="549.0" text-anchor="middle" font-family="-apple-system,BlinkMacSystemFont,PingFang SC,Noto Sans CJK SC,sans-serif" font-size="15" font-weight="400" fill="#30332e">0.0</text>
<line x1="426.2" y1="520" x2="426.2" y2="527" stroke="#30332e"/>
<text x="426.2" y="549.0" text-anchor="middle" font-family="-apple-system,BlinkMacSystemFont,PingFang SC,Noto Sans CJK SC,sans-serif" font-size="15" font-weight="400" fill="#30332e">0.5</text>
<line x1="540.0" y1="520" x2="540.0" y2="527" stroke="#30332e"/>
<text x="540.0" y="549.0" text-anchor="middle" font-family="-apple-system,BlinkMacSystemFont,PingFang SC,Noto Sans CJK SC,sans-serif" font-size="15" font-weight="400" fill="#30332e">1.0</text>
<line x1="85" y1="504.1" x2="540" y2="504.1" stroke="#b9bbb5" stroke-width="1.5"/>
<line x1="85" y1="451.2" x2="540" y2="451.2" stroke="#b9bbb5" stroke-width="1.5"/>
<line x1="85" y1="398.3" x2="540" y2="398.3" stroke="#b9bbb5" stroke-width="1.5"/>
<line x1="85" y1="345.4" x2="540" y2="345.4" stroke="#b9bbb5" stroke-width="1.5"/>
<line x1="85" y1="292.5" x2="540" y2="292.5" stroke="#b9bbb5" stroke-width="1.5"/>
<line x1="85" y1="239.6" x2="540" y2="239.6" stroke="#b9bbb5" stroke-width="1.5"/>
<line x1="85" y1="186.7" x2="540" y2="186.7" stroke="#b9bbb5" stroke-width="1.5"/>
<line x1="85" y1="133.8" x2="540" y2="133.8" stroke="#b9bbb5" stroke-width="1.5"/>
<line x1="85" y1="80.9" x2="540" y2="80.9" stroke="#b9bbb5" stroke-width="1.5"/>
<line x1="78" y1="504.1" x2="85" y2="504.1" stroke="#30332e"/>
<text x="72.0" y="509.1" text-anchor="end" font-family="-apple-system,BlinkMacSystemFont,PingFang SC,Noto Sans CJK SC,sans-serif" font-size="15" font-weight="400" fill="#30332e">-4</text>
<line x1="78" y1="398.3" x2="85" y2="398.3" stroke="#30332e"/>
<text x="72.0" y="403.3" text-anchor="end" font-family="-apple-system,BlinkMacSystemFont,PingFang SC,Noto Sans CJK SC,sans-serif" font-size="15" font-weight="400" fill="#30332e">-2</text>
<line x1="78" y1="292.5" x2="85" y2="292.5" stroke="#30332e"/>
<text x="72.0" y="297.5" text-anchor="end" font-family="-apple-system,BlinkMacSystemFont,PingFang SC,Noto Sans CJK SC,sans-serif" font-size="15" font-weight="400" fill="#30332e">0</text>
<line x1="78" y1="186.7" x2="85" y2="186.7" stroke="#30332e"/>
<text x="72.0" y="191.7" text-anchor="end" font-family="-apple-system,BlinkMacSystemFont,PingFang SC,Noto Sans CJK SC,sans-serif" font-size="15" font-weight="400" fill="#30332e">2</text>
<line x1="78" y1="80.9" x2="85" y2="80.9" stroke="#30332e"/>
<text x="72.0" y="85.9" text-anchor="end" font-family="-apple-system,BlinkMacSystemFont,PingFang SC,Noto Sans CJK SC,sans-serif" font-size="15" font-weight="400" fill="#30332e">4</text>
<polyline points="85.0,414.2 86.5,413.4 88.0,412.6 89.6,411.8 91.1,410.9 92.6,410.1 94.1,409.3 95.6,408.5 97.1,407.7 98.7,406.9 100.2,406.1 101.7,405.3 103.2,404.5 104.7,403.6 106.2,402.8 107.8,402.0 109.3,401.2 110.8,400.4 112.3,399.6 113.8,398.8 115.3,398.0 116.8,397.1 118.4,396.3 119.9,395.5 121.4,394.7 122.9,393.9 124.4,393.1 125.9,392.3 127.5,391.5 129.0,390.7 130.5,389.8 132.0,389.0 133.5,388.2 135.1,387.4 136.6,386.6 138.1,385.8 139.6,385.0 141.1,384.2 142.6,383.4 144.2,382.5 145.7,381.7 147.2,380.9 148.7,380.1 150.2,379.3 151.7,378.5 153.2,377.7 154.8,376.9 156.3,376.1 157.8,375.2 159.3,374.4 160.8,373.6 162.4,372.8 163.9,372.0 165.4,371.2 166.9,370.4 168.4,369.6 169.9,368.8 171.4,367.9 173.0,367.1 174.5,366.3 176.0,365.5 177.5,364.7 179.0,363.9 180.5,363.1 182.1,362.3 183.6,361.5 185.1,360.6 186.6,359.8 188.1,359.0 189.6,358.2 191.2,357.4 192.7,356.6 194.2,355.8 195.7,355.0 197.2,354.2 198.8,353.3 200.3,352.5 201.8,351.7 203.3,350.9 204.8,350.1 206.3,349.3 207.9,348.5 209.4,347.7 210.9,346.9 212.4,346.0 213.9,345.2 215.4,344.4 216.9,343.6 218.5,342.8 220.0,342.0 221.5,341.2 223.0,340.4 224.5,339.6 226.1,338.7 227.6,337.9 229.1,337.1 230.6,336.3 232.1,335.5 233.6,334.7 235.2,333.9 236.7,333.1 238.2,332.3 239.7,331.4 241.2,330.6 242.7,329.8 244.2,329.0 245.8,328.2 247.3,327.4 248.8,326.6 250.3,325.8 251.8,324.9 253.3,324.1 254.9,323.3 256.4,322.5 257.9,321.7 259.4,320.9 260.9,320.1 262.5,319.3 264.0,318.5 265.5,317.6 267.0,316.8 268.5,316.0 270.0,315.2 271.5,314.4 273.1,313.6 274.6,312.8 276.1,312.0 277.6,311.2 279.1,310.3 280.6,309.5 282.2,308.7 283.7,307.9 285.2,307.1 286.7,306.3 288.2,305.5 289.8,304.7 291.3,303.9 292.8,303.0 294.3,302.2 295.8,301.4 297.3,300.6 298.9,299.8 300.4,299.0 301.9,298.2 303.4,297.4 304.9,296.6 306.4,295.7 307.9,294.9 309.5,294.1 311.0,293.3 312.5,292.5 314.0,291.7 315.5,290.9 317.1,290.1 318.6,289.3 320.1,288.4 321.6,287.6 323.1,286.8 324.6,286.0 326.1,285.2 327.7,284.4 329.2,283.6 330.7,282.8 332.2,282.0 333.7,281.1 335.2,280.3 336.8,279.5 338.3,278.7 339.8,277.9 341.3,277.1 342.8,276.3 344.3,275.5 345.9,274.7 347.4,273.8 348.9,273.0 350.4,272.2 351.9,271.4 353.4,270.6 355.0,269.8 356.5,269.0 358.0,268.2 359.5,267.4 361.0,266.5 362.6,265.7 364.1,264.9 365.6,264.1 367.1,263.3 368.6,262.5 370.1,261.7 371.6,260.9 373.2,260.1 374.7,259.2 376.2,258.4 377.7,257.6 379.2,256.8 380.8,256.0 382.3,255.2 383.8,254.4 385.3,253.6 386.8,252.7 388.3,251.9 389.9,251.1 391.4,250.3 392.9,249.5 394.4,248.7 395.9,247.9 397.4,247.1 398.9,246.3 400.5,245.4 402.0,244.6 403.5,243.8 405.0,243.0 406.5,242.2 408.1,241.4 409.6,240.6 411.1,239.8 412.6,239.0 414.1,238.1 415.6,237.3 417.1,236.5 418.7,235.7 420.2,234.9 421.7,234.1 423.2,233.3 424.7,232.5 426.2,231.7 427.8,230.8 429.3,230.0 430.8,229.2 432.3,228.4 433.8,227.6 435.4,226.8 436.9,226.0 438.4,225.2 439.9,224.4 441.4,223.5 442.9,222.7 444.4,221.9 446.0,221.1 447.5,220.3 449.0,219.5 450.5,218.7 452.0,217.9 453.6,217.1 455.1,216.2 456.6,215.4 458.1,214.6 459.6,213.8 461.1,213.0 462.6,212.2 464.2,211.4 465.7,210.6 467.2,209.8 468.7,208.9 470.2,208.1 471.8,207.3 473.3,206.5 474.8,205.7 476.3,204.9 477.8,204.1 479.3,203.3 480.9,202.5 482.4,201.6 483.9,200.8 485.4,200.0 486.9,199.2 488.4,198.4 489.9,197.6 491.5,196.8 493.0,196.0 494.5,195.2 496.0,194.3 497.5,193.5 499.1,192.7 500.6,191.9 502.1,191.1 503.6,190.3 505.1,189.5 506.6,188.7 508.2,187.9 509.7,187.0 511.2,186.2 512.7,185.4 514.2,184.6 515.7,183.8 517.2,183.0 518.8,182.2 520.3,181.4 521.8,180.5 523.3,179.7 524.8,178.9 526.3,178.1 527.9,177.3 529.4,176.5 530.9,175.7 532.4,174.9 533.9,174.1 535.5,173.2 537.0,172.4 538.5,171.6 540.0,170.8" fill="none" stroke="#737cff" stroke-width="5"/>
<text x="312.5" y="592.0" text-anchor="middle" font-family="-apple-system,BlinkMacSystemFont,PingFang SC,Noto Sans CJK SC,sans-serif" font-size="19" font-weight="400" fill="#263f86">预测变量 x</text>
<text x="25.0" y="292.5" text-anchor="middle" font-family="-apple-system,BlinkMacSystemFont,PingFang SC,Noto Sans CJK SC,sans-serif" font-size="19" font-weight="400" fill="#263f86" transform="rotate(-90 25 292.5)">对数赔率</text>
<rect x="655" y="65" width="455" height="455" fill="#fff" stroke="#d9d5c8"/>
<line x1="655.0" y1="520" x2="655.0" y2="527" stroke="#30332e"/>
<text x="655.0" y="549.0" text-anchor="middle" font-family="-apple-system,BlinkMacSystemFont,PingFang SC,Noto Sans CJK SC,sans-serif" font-size="15" font-weight="400" fill="#30332e">-1.0</text>
<line x1="768.8" y1="520" x2="768.8" y2="527" stroke="#30332e"/>
<text x="768.8" y="549.0" text-anchor="middle" font-family="-apple-system,BlinkMacSystemFont,PingFang SC,Noto Sans CJK SC,sans-serif" font-size="15" font-weight="400" fill="#30332e">-0.5</text>
<line x1="882.5" y1="520" x2="882.5" y2="527" stroke="#30332e"/>
<text x="882.5" y="549.0" text-anchor="middle" font-family="-apple-system,BlinkMacSystemFont,PingFang SC,Noto Sans CJK SC,sans-serif" font-size="15" font-weight="400" fill="#30332e">0.0</text>
<line x1="996.2" y1="520" x2="996.2" y2="527" stroke="#30332e"/>
<text x="996.2" y="549.0" text-anchor="middle" font-family="-apple-system,BlinkMacSystemFont,PingFang SC,Noto Sans CJK SC,sans-serif" font-size="15" font-weight="400" fill="#30332e">0.5</text>
<line x1="1110.0" y1="520" x2="1110.0" y2="527" stroke="#30332e"/>
<text x="1110.0" y="549.0" text-anchor="middle" font-family="-apple-system,BlinkMacSystemFont,PingFang SC,Noto Sans CJK SC,sans-serif" font-size="15" font-weight="400" fill="#30332e">1.0</text>
<line x1="655" y1="503.4" x2="1110" y2="503.4" stroke="#b9bbb5" stroke-width="1.5"/>
<line x1="655" y1="490.5" x2="1110" y2="490.5" stroke="#b9bbb5" stroke-width="1.5"/>
<line x1="655" y1="459.1" x2="1110" y2="459.1" stroke="#b9bbb5" stroke-width="1.5"/>
<line x1="655" y1="393.6" x2="1110" y2="393.6" stroke="#b9bbb5" stroke-width="1.5"/>
<line x1="655" y1="292.5" x2="1110" y2="292.5" stroke="#b9bbb5" stroke-width="1.5"/>
<line x1="655" y1="191.4" x2="1110" y2="191.4" stroke="#b9bbb5" stroke-width="1.5"/>
<line x1="655" y1="125.9" x2="1110" y2="125.9" stroke="#b9bbb5" stroke-width="1.5"/>
<line x1="655" y1="94.5" x2="1110" y2="94.5" stroke="#b9bbb5" stroke-width="1.5"/>
<line x1="655" y1="81.6" x2="1110" y2="81.6" stroke="#b9bbb5" stroke-width="1.5"/>
<line x1="648" y1="511.2" x2="655" y2="511.2" stroke="#30332e"/>
<text x="642.0" y="516.2" text-anchor="end" font-family="-apple-system,BlinkMacSystemFont,PingFang SC,Noto Sans CJK SC,sans-serif" font-size="15" font-weight="400" fill="#30332e">0.0</text>
<line x1="648" y1="292.5" x2="655" y2="292.5" stroke="#30332e"/>
<text x="642.0" y="297.5" text-anchor="end" font-family="-apple-system,BlinkMacSystemFont,PingFang SC,Noto Sans CJK SC,sans-serif" font-size="15" font-weight="400" fill="#30332e">0.5</text>
<line x1="648" y1="73.8" x2="655" y2="73.8" stroke="#30332e"/>
<text x="642.0" y="78.8" text-anchor="end" font-family="-apple-system,BlinkMacSystemFont,PingFang SC,Noto Sans CJK SC,sans-serif" font-size="15" font-weight="400" fill="#30332e">1.0</text>
<polyline points="655.0,471.4 656.5,470.8 658.0,470.3 659.5,469.7 661.1,469.1 662.6,468.5 664.1,467.9 665.6,467.3 667.1,466.7 668.6,466.1 670.2,465.5 671.7,464.8 673.2,464.2 674.7,463.5 676.2,462.9 677.8,462.2 679.3,461.6 680.8,460.9 682.3,460.2 683.8,459.5 685.3,458.8 686.9,458.1 688.4,457.4 689.9,456.6 691.4,455.9 692.9,455.1 694.4,454.4 696.0,453.6 697.5,452.9 699.0,452.1 700.5,451.3 702.0,450.5 703.5,449.7 705.0,448.9 706.6,448.0 708.1,447.2 709.6,446.4 711.1,445.5 712.6,444.7 714.1,443.8 715.7,442.9 717.2,442.0 718.7,441.1 720.2,440.2 721.7,439.3 723.2,438.4 724.8,437.4 726.3,436.5 727.8,435.5 729.3,434.6 730.8,433.6 732.4,432.6 733.9,431.6 735.4,430.6 736.9,429.6 738.4,428.6 739.9,427.5 741.5,426.5 743.0,425.4 744.5,424.4 746.0,423.3 747.5,422.2 749.0,421.1 750.5,420.0 752.1,418.9 753.6,417.8 755.1,416.7 756.6,415.5 758.1,414.4 759.6,413.2 761.2,412.0 762.7,410.9 764.2,409.7 765.7,408.5 767.2,407.3 768.8,406.0 770.3,404.8 771.8,403.6 773.3,402.3 774.8,401.1 776.3,399.8 777.9,398.5 779.4,397.2 780.9,395.9 782.4,394.6 783.9,393.3 785.4,392.0 787.0,390.6 788.5,389.3 790.0,387.9 791.5,386.6 793.0,385.2 794.5,383.8 796.0,382.4 797.6,381.0 799.1,379.6 800.6,378.2 802.1,376.8 803.6,375.4 805.1,373.9 806.7,372.5 808.2,371.0 809.7,369.6 811.2,368.1 812.7,366.6 814.2,365.1 815.8,363.6 817.3,362.1 818.8,360.6 820.3,359.1 821.8,357.6 823.4,356.0 824.9,354.5 826.4,352.9 827.9,351.4 829.4,349.8 830.9,348.3 832.5,346.7 834.0,345.1 835.5,343.5 837.0,341.9 838.5,340.3 840.0,338.8 841.5,337.1 843.1,335.5 844.6,333.9 846.1,332.3 847.6,330.7 849.1,329.0 850.6,327.4 852.2,325.8 853.7,324.1 855.2,322.5 856.7,320.9 858.2,319.2 859.8,317.5 861.3,315.9 862.8,314.2 864.3,312.6 865.8,310.9 867.3,309.2 868.9,307.6 870.4,305.9 871.9,304.2 873.4,302.6 874.9,300.9 876.4,299.2 878.0,297.5 879.5,295.9 881.0,294.2 882.5,292.5 884.0,290.8 885.5,289.1 887.0,287.5 888.6,285.8 890.1,284.1 891.6,282.4 893.1,280.8 894.6,279.1 896.1,277.4 897.7,275.8 899.2,274.1 900.7,272.4 902.2,270.8 903.7,269.1 905.2,267.5 906.8,265.8 908.3,264.1 909.8,262.5 911.3,260.9 912.8,259.2 914.3,257.6 915.9,256.0 917.4,254.3 918.9,252.7 920.4,251.1 921.9,249.5 923.5,247.9 925.0,246.2 926.5,244.7 928.0,243.1 929.5,241.5 931.0,239.9 932.5,238.3 934.1,236.7 935.6,235.2 937.1,233.6 938.6,232.1 940.1,230.5 941.6,229.0 943.2,227.4 944.7,225.9 946.2,224.4 947.7,222.9 949.2,221.4 950.8,219.9 952.3,218.4 953.8,216.9 955.3,215.4 956.8,214.0 958.3,212.5 959.9,211.1 961.4,209.6 962.9,208.2 964.4,206.8 965.9,205.4 967.4,204.0 969.0,202.6 970.5,201.2 972.0,199.8 973.5,198.4 975.0,197.1 976.5,195.7 978.0,194.4 979.6,193.0 981.1,191.7 982.6,190.4 984.1,189.1 985.6,187.8 987.1,186.5 988.7,185.2 990.2,183.9 991.7,182.7 993.2,181.4 994.7,180.2 996.2,179.0 997.8,177.7 999.3,176.5 1000.8,175.3 1002.3,174.1 1003.8,173.0 1005.4,171.8 1006.9,170.6 1008.4,169.5 1009.9,168.3 1011.4,167.2 1012.9,166.1 1014.5,165.0 1016.0,163.9 1017.5,162.8 1019.0,161.7 1020.5,160.6 1022.0,159.6 1023.5,158.5 1025.1,157.5 1026.6,156.4 1028.1,155.4 1029.6,154.4 1031.1,153.4 1032.7,152.4 1034.2,151.4 1035.7,150.4 1037.2,149.5 1038.7,148.5 1040.2,147.6 1041.8,146.6 1043.3,145.7 1044.8,144.8 1046.3,143.9 1047.8,143.0 1049.3,142.1 1050.8,141.2 1052.4,140.3 1053.9,139.5 1055.4,138.6 1056.9,137.8 1058.4,137.0 1060.0,136.1 1061.5,135.3 1063.0,134.5 1064.5,133.7 1066.0,132.9 1067.5,132.1 1069.0,131.4 1070.6,130.6 1072.1,129.9 1073.6,129.1 1075.1,128.4 1076.6,127.6 1078.2,126.9 1079.7,126.2 1081.2,125.5 1082.7,124.8 1084.2,124.1 1085.7,123.4 1087.2,122.8 1088.8,122.1 1090.3,121.5 1091.8,120.8 1093.3,120.2 1094.8,119.5 1096.3,118.9 1097.9,118.3 1099.4,117.7 1100.9,117.1 1102.4,116.5 1103.9,115.9 1105.5,115.3 1107.0,114.7 1108.5,114.2 1110.0,113.6" fill="none" stroke="#737cff" stroke-width="5"/>
<text x="882.5" y="592.0" text-anchor="middle" font-family="-apple-system,BlinkMacSystemFont,PingFang SC,Noto Sans CJK SC,sans-serif" font-size="19" font-weight="400" fill="#263f86">预测变量 x</text>
<text x="595.0" y="292.5" text-anchor="middle" font-family="-apple-system,BlinkMacSystemFont,PingFang SC,Noto Sans CJK SC,sans-serif" font-size="19" font-weight="400" fill="#263f86" transform="rotate(-90 595 292.5)">概率</text>
<text x="312.0" y="38.0" text-anchor="middle" font-family="-apple-system,BlinkMacSystemFont,PingFang SC,Noto Sans CJK SC,sans-serif" font-size="22" font-weight="700" fill="#263f86">线性模型</text>
<text x="882.0" y="38.0" text-anchor="middle" font-family="-apple-system,BlinkMacSystemFont,PingFang SC,Noto Sans CJK SC,sans-serif" font-size="22" font-weight="700" fill="#263f86">logistic 变换</text>
</svg>
