<?xml version="1.0" encoding="UTF-8"?>
<svg xmlns="http://www.w3.org/2000/svg" width="1160" height="890" viewBox="0 0 1160 890" role="img">
  <title>先验与似然相乘生成后验</title>
  <desc>三行依次展示平坦先验、阶梯先验和尖峰先验与同一个似然相乘，得到不同后验分布。</desc>
  <rect width="100%" height="100%" fill="#ffffff"/>
  <text x="210" y="48" text-anchor="middle" font-family="-apple-system,BlinkMacSystemFont,PingFang SC,Noto Sans CJK SC,sans-serif" font-size="23" font-weight="700" fill="#263f86">先验</text>
  <text x="580" y="48" text-anchor="middle" font-family="-apple-system,BlinkMacSystemFont,PingFang SC,Noto Sans CJK SC,sans-serif" font-size="23" font-weight="700" fill="#263f86">似然</text>
  <text x="950" y="48" text-anchor="middle" font-family="-apple-system,BlinkMacSystemFont,PingFang SC,Noto Sans CJK SC,sans-serif" font-size="23" font-weight="700" fill="#263f86">后验</text>
  <g id="row-1-col-1">
    <rect x="100" y="119" width="220" height="140" fill="none" stroke="#41443e" stroke-width="1.2"/>
    <line x1="100" y1="259" x2="100" y2="268" stroke="#41443e"/>
    <text x="100" y="288" text-anchor="middle" font-family="-apple-system,BlinkMacSystemFont,PingFang SC,Noto Sans CJK SC,sans-serif" font-size="15" fill="#30332e">0</text>
    <line x1="210" y1="259" x2="210" y2="268" stroke="#41443e"/>
    <text x="210" y="288" text-anchor="middle" font-family="-apple-system,BlinkMacSystemFont,PingFang SC,Noto Sans CJK SC,sans-serif" font-size="15" fill="#30332e">0.5</text>
    <line x1="320" y1="259" x2="320" y2="268" stroke="#41443e"/>
    <text x="320" y="288" text-anchor="middle" font-family="-apple-system,BlinkMacSystemFont,PingFang SC,Noto Sans CJK SC,sans-serif" font-size="15" fill="#30332e">1</text>
    <path d="M108 137 L109.28 137 L110.55 137 L111.83 137 L113.1 137 L114.38 137 L115.65 137 L116.92 137 L118.2 137 L119.47 137 L120.75 137 L122.03 137 L123.3 137 L124.58 137 L125.85 137 L127.12 137 L128.4 137 L129.68 137 L130.95 137 L132.22 137 L133.5 137 L134.78 137 L136.05 137 L137.32 137 L138.6 137 L139.88 137 L141.15 137 L142.43 137 L143.7 137 L144.97 137 L146.25 137 L147.53 137 L148.8 137 L150.07 137 L151.35 137 L152.62 137 L153.9 137 L155.18 137 L156.45 137 L157.72 137 L159 137 L160.28 137 L161.55 137 L162.82 137 L164.1 137 L165.38 137 L166.65 137 L167.93 137 L169.2 137 L170.47 137 L171.75 137 L173.03 137 L174.3 137 L175.57 137 L176.85 137 L178.12 137 L179.4 137 L180.68 137 L181.95 137 L183.22 137 L184.5 137 L185.78 137 L187.05 137 L188.32 137 L189.6 137 L190.88 137 L192.15 137 L193.43 137 L194.7 137 L195.97 137 L197.25 137 L198.53 137 L199.8 137 L201.07 137 L202.35 137 L203.62 137 L204.9 137 L206.18 137 L207.45 137 L208.72 137 L210 137 L211.28 137 L212.55 137 L213.82 137 L215.1 137 L216.38 137 L217.65 137 L218.93 137 L220.2 137 L221.47 137 L222.75 137 L224.03 137 L225.3 137 L226.57 137 L227.85 137 L229.12 137 L230.4 137 L231.68 137 L232.95 137 L234.22 137 L235.5 137 L236.78 137 L238.05 137 L239.32 137 L240.6 137 L241.88 137 L243.15 137 L244.43 137 L245.7 137 L246.97 137 L248.25 137 L249.53 137 L250.8 137 L252.07 137 L253.35 137 L254.62 137 L255.9 137 L257.18 137 L258.45 137 L259.73 137 L261 137 L262.27 137 L263.55 137 L264.82 137 L266.1 137 L267.38 137 L268.65 137 L269.93 137 L271.2 137 L272.48 137 L273.75 137 L275.02 137 L276.3 137 L277.57 137 L278.85 137 L280.12 137 L281.4 137 L282.68 137 L283.95 137 L285.23 137 L286.5 137 L287.77 137 L289.05 137 L290.32 137 L291.6 137 L292.88 137 L294.15 137 L295.43 137 L296.7 137 L297.98 137 L299.25 137 L300.52 137 L301.8 137 L303.07 137 L304.35 137 L305.62 137 L306.9 137 L308.18 137 L309.45 137 L310.73 137 L312 137" fill="none" stroke="#172860" stroke-width="2.2"/>
  </g>
  <g id="row-1-col-2">
    <rect x="470" y="119" width="220" height="140" fill="none" stroke="#41443e" stroke-width="1.2"/>
    <line x1="470" y1="259" x2="470" y2="268" stroke="#41443e"/>
    <text x="470" y="288" text-anchor="middle" font-family="-apple-system,BlinkMacSystemFont,PingFang SC,Noto Sans CJK SC,sans-serif" font-size="15" fill="#30332e">0</text>
    <line x1="580" y1="259" x2="580" y2="268" stroke="#41443e"/>
    <text x="580" y="288" text-anchor="middle" font-family="-apple-system,BlinkMacSystemFont,PingFang SC,Noto Sans CJK SC,sans-serif" font-size="15" fill="#30332e">0.5</text>
    <line x1="690" y1="259" x2="690" y2="268" stroke="#41443e"/>
    <text x="690" y="288" text-anchor="middle" font-family="-apple-system,BlinkMacSystemFont,PingFang SC,Noto Sans CJK SC,sans-serif" font-size="15" fill="#30332e">1</text>
    <path d="M478 251 L479.27 251 L480.55 251 L481.82 251 L483.1 251 L484.38 251 L485.65 251 L486.93 251 L488.2 251 L489.48 251 L490.75 251 L492.02 251 L493.3 251 L494.57 250.99 L495.85 250.99 L497.12 250.98 L498.4 250.97 L499.68 250.96 L500.95 250.95 L502.23 250.93 L503.5 250.91 L504.77 250.88 L506.05 250.85 L507.32 250.81 L508.6 250.75 L509.88 250.69 L511.15 250.62 L512.42 250.53 L513.7 250.43 L514.98 250.32 L516.25 250.18 L517.52 250.03 L518.8 249.85 L520.08 249.65 L521.35 249.42 L522.62 249.17 L523.9 248.88 L525.17 248.56 L526.45 248.21 L527.73 247.82 L529 247.39 L530.27 246.92 L531.55 246.4 L532.83 245.83 L534.1 245.22 L535.38 244.56 L536.65 243.84 L537.92 243.06 L539.2 242.23 L540.48 241.34 L541.75 240.39 L543.02 239.37 L544.3 238.29 L545.58 237.15 L546.85 235.93 L548.12 234.65 L549.4 233.3 L550.67 231.88 L551.95 230.39 L553.23 228.83 L554.5 227.19 L555.77 225.49 L557.05 223.72 L558.33 221.88 L559.6 219.98 L560.88 218.01 L562.15 215.97 L563.42 213.87 L564.7 211.72 L565.98 209.51 L567.25 207.24 L568.52 204.92 L569.8 202.56 L571.08 200.15 L572.35 197.71 L573.62 195.23 L574.9 192.72 L576.17 190.19 L577.45 187.64 L578.73 185.08 L580 182.52 L581.27 179.95 L582.55 177.39 L583.83 174.84 L585.1 172.32 L586.38 169.82 L587.65 167.35 L588.92 164.93 L590.2 162.56 L591.48 160.24 L592.75 157.99 L594.02 155.81 L595.3 153.72 L596.58 151.71 L597.85 149.8 L599.12 148 L600.4 146.3 L601.67 144.73 L602.95 143.28 L604.23 141.96 L605.5 140.79 L606.77 139.76 L608.05 138.89 L609.33 138.17 L610.6 137.62 L611.88 137.24 L613.15 137.03 L614.42 137 L615.7 137.15 L616.98 137.49 L618.25 138.01 L619.52 138.72 L620.8 139.62 L622.08 140.71 L623.35 141.99 L624.62 143.45 L625.9 145.1 L627.17 146.94 L628.45 148.95 L629.73 151.14 L631 153.49 L632.27 156.01 L633.55 158.68 L634.83 161.5 L636.1 164.46 L637.38 167.55 L638.65 170.75 L639.92 174.06 L641.2 177.47 L642.48 180.95 L643.75 184.5 L645.02 188.11 L646.3 191.75 L647.58 195.41 L648.85 199.08 L650.12 202.74 L651.4 206.37 L652.67 209.95 L653.95 213.48 L655.23 216.92 L656.5 220.27 L657.77 223.5 L659.05 226.6 L660.33 229.56 L661.6 232.37 L662.88 234.99 L664.15 237.44 L665.42 239.69 L666.7 241.73 L667.98 243.57 L669.25 245.19 L670.52 246.59 L671.8 247.78 L673.08 248.75 L674.35 249.53 L675.62 250.12 L676.9 250.53 L678.17 250.79 L679.45 250.94 L680.73 250.99 L682 251" fill="none" stroke="#172860" stroke-width="2.2"/>
  </g>
  <g id="row-1-col-3">
    <rect x="840" y="119" width="220" height="140" fill="none" stroke="#41443e" stroke-width="1.2"/>
    <line x1="840" y1="259" x2="840" y2="268" stroke="#41443e"/>
    <text x="840" y="288" text-anchor="middle" font-family="-apple-system,BlinkMacSystemFont,PingFang SC,Noto Sans CJK SC,sans-serif" font-size="15" fill="#30332e">0</text>
    <line x1="950" y1="259" x2="950" y2="268" stroke="#41443e"/>
    <text x="950" y="288" text-anchor="middle" font-family="-apple-system,BlinkMacSystemFont,PingFang SC,Noto Sans CJK SC,sans-serif" font-size="15" fill="#30332e">0.5</text>
    <line x1="1060" y1="259" x2="1060" y2="268" stroke="#41443e"/>
    <text x="1060" y="288" text-anchor="middle" font-family="-apple-system,BlinkMacSystemFont,PingFang SC,Noto Sans CJK SC,sans-serif" font-size="15" fill="#30332e">1</text>
    <path d="M848 251 L849.27 251 L850.55 251 L851.83 251 L853.1 251 L854.38 251 L855.65 251 L856.92 251 L858.2 251 L859.48 251 L860.75 251 L862.02 251 L863.3 251 L864.58 250.99 L865.85 250.99 L867.12 250.98 L868.4 250.97 L869.67 250.96 L870.95 250.95 L872.23 250.93 L873.5 250.91 L874.77 250.88 L876.05 250.85 L877.33 250.81 L878.6 250.75 L879.88 250.69 L881.15 250.62 L882.42 250.53 L883.7 250.43 L884.98 250.32 L886.25 250.18 L887.52 250.03 L888.8 249.85 L890.08 249.65 L891.35 249.42 L892.62 249.17 L893.9 248.88 L895.17 248.56 L896.45 248.21 L897.73 247.82 L899 247.39 L900.27 246.92 L901.55 246.4 L902.83 245.83 L904.1 245.22 L905.38 244.56 L906.65 243.84 L907.92 243.06 L909.2 242.23 L910.48 241.34 L911.75 240.39 L913.02 239.37 L914.3 238.29 L915.58 237.15 L916.85 235.93 L918.12 234.65 L919.4 233.3 L920.67 231.88 L921.95 230.39 L923.23 228.83 L924.5 227.19 L925.77 225.49 L927.05 223.72 L928.33 221.88 L929.6 219.98 L930.88 218.01 L932.15 215.97 L933.42 213.87 L934.7 211.72 L935.98 209.51 L937.25 207.24 L938.52 204.92 L939.8 202.56 L941.08 200.15 L942.35 197.71 L943.62 195.23 L944.9 192.72 L946.17 190.19 L947.45 187.64 L948.73 185.08 L950 182.52 L951.27 179.95 L952.55 177.39 L953.83 174.84 L955.1 172.32 L956.38 169.82 L957.65 167.35 L958.92 164.93 L960.2 162.56 L961.48 160.24 L962.75 157.99 L964.02 155.81 L965.3 153.72 L966.58 151.71 L967.85 149.8 L969.12 148 L970.4 146.3 L971.67 144.73 L972.95 143.28 L974.23 141.96 L975.5 140.79 L976.77 139.76 L978.05 138.89 L979.33 138.17 L980.6 137.62 L981.88 137.24 L983.15 137.03 L984.42 137 L985.7 137.15 L986.98 137.49 L988.25 138.01 L989.52 138.72 L990.8 139.62 L992.08 140.71 L993.35 141.99 L994.62 143.45 L995.9 145.1 L997.17 146.94 L998.45 148.95 L999.73 151.14 L1001 153.49 L1002.27 156.01 L1003.55 158.68 L1004.83 161.5 L1006.1 164.46 L1007.38 167.55 L1008.65 170.75 L1009.92 174.06 L1011.2 177.47 L1012.48 180.95 L1013.75 184.5 L1015.02 188.11 L1016.3 191.75 L1017.58 195.41 L1018.85 199.08 L1020.12 202.74 L1021.4 206.37 L1022.67 209.95 L1023.95 213.48 L1025.22 216.92 L1026.5 220.27 L1027.78 223.5 L1029.05 226.6 L1030.33 229.56 L1031.6 232.37 L1032.88 234.99 L1034.15 237.44 L1035.42 239.69 L1036.7 241.73 L1037.97 243.57 L1039.25 245.19 L1040.53 246.59 L1041.8 247.78 L1043.08 248.75 L1044.35 249.53 L1045.62 250.12 L1046.9 250.53 L1048.17 250.79 L1049.45 250.94 L1050.72 250.99 L1052 251" fill="none" stroke="#172860" stroke-width="2.2"/>
  </g>
  <text x="395" y="197" text-anchor="middle" font-family="-apple-system,BlinkMacSystemFont,PingFang SC,Noto Sans CJK SC,sans-serif" font-size="46" fill="#30332e">×</text>
  <text x="765" y="197" text-anchor="middle" font-family="-apple-system,BlinkMacSystemFont,PingFang SC,Noto Sans CJK SC,sans-serif" font-size="46" fill="#30332e">∝</text>
  <g id="row-2-col-1">
    <rect x="100" y="372" width="220" height="140" fill="none" stroke="#41443e" stroke-width="1.2"/>
    <line x1="100" y1="512" x2="100" y2="521" stroke="#41443e"/>
    <text x="100" y="541" text-anchor="middle" font-family="-apple-system,BlinkMacSystemFont,PingFang SC,Noto Sans CJK SC,sans-serif" font-size="15" fill="#30332e">0</text>
    <line x1="210" y1="512" x2="210" y2="521" stroke="#41443e"/>
    <text x="210" y="541" text-anchor="middle" font-family="-apple-system,BlinkMacSystemFont,PingFang SC,Noto Sans CJK SC,sans-serif" font-size="15" fill="#30332e">0.5</text>
    <line x1="320" y1="512" x2="320" y2="521" stroke="#41443e"/>
    <text x="320" y="541" text-anchor="middle" font-family="-apple-system,BlinkMacSystemFont,PingFang SC,Noto Sans CJK SC,sans-serif" font-size="15" fill="#30332e">1</text>
    <path d="M108 504 L109.28 504 L110.55 504 L111.83 504 L113.1 504 L114.38 504 L115.65 504 L116.92 504 L118.2 504 L119.47 504 L120.75 504 L122.03 504 L123.3 504 L124.58 504 L125.85 504 L127.12 504 L128.4 504 L129.68 504 L130.95 504 L132.22 504 L133.5 504 L134.78 504 L136.05 504 L137.32 504 L138.6 504 L139.88 504 L141.15 504 L142.43 504 L143.7 504 L144.97 504 L146.25 504 L147.53 504 L148.8 504 L150.07 504 L151.35 504 L152.62 504 L153.9 504 L155.18 504 L156.45 504 L157.72 504 L159 504 L160.28 504 L161.55 504 L162.82 504 L164.1 504 L165.38 504 L166.65 504 L167.93 504 L169.2 504 L170.47 504 L171.75 504 L173.03 504 L174.3 504 L175.57 504 L176.85 504 L178.12 504 L179.4 504 L180.68 504 L181.95 504 L183.22 504 L184.5 504 L185.78 504 L187.05 504 L188.32 504 L189.6 504 L190.88 504 L192.15 504 L193.43 504 L194.7 504 L195.97 504 L197.25 504 L198.53 504 L199.8 504 L201.07 504 L202.35 504 L203.62 504 L204.9 504 L206.18 504 L207.45 504 L208.72 504 L210 390 L211.28 390 L212.55 390 L213.82 390 L215.1 390 L216.38 390 L217.65 390 L218.93 390 L220.2 390 L221.47 390 L222.75 390 L224.03 390 L225.3 390 L226.57 390 L227.85 390 L229.12 390 L230.4 390 L231.68 390 L232.95 390 L234.22 390 L235.5 390 L236.78 390 L238.05 390 L239.32 390 L240.6 390 L241.88 390 L243.15 390 L244.43 390 L245.7 390 L246.97 390 L248.25 390 L249.53 390 L250.8 390 L252.07 390 L253.35 390 L254.62 390 L255.9 390 L257.18 390 L258.45 390 L259.73 390 L261 390 L262.27 390 L263.55 390 L264.82 390 L266.1 390 L267.38 390 L268.65 390 L269.93 390 L271.2 390 L272.48 390 L273.75 390 L275.02 390 L276.3 390 L277.57 390 L278.85 390 L280.12 390 L281.4 390 L282.68 390 L283.95 390 L285.23 390 L286.5 390 L287.77 390 L289.05 390 L290.32 390 L291.6 390 L292.88 390 L294.15 390 L295.43 390 L296.7 390 L297.98 390 L299.25 390 L300.52 390 L301.8 390 L303.07 390 L304.35 390 L305.62 390 L306.9 390 L308.18 390 L309.45 390 L310.73 390 L312 390" fill="none" stroke="#172860" stroke-width="2.2"/>
  </g>
  <g id="row-2-col-2">
    <rect x="470" y="372" width="220" height="140" fill="none" stroke="#41443e" stroke-width="1.2"/>
    <line x1="470" y1="512" x2="470" y2="521" stroke="#41443e"/>
    <text x="470" y="541" text-anchor="middle" font-family="-apple-system,BlinkMacSystemFont,PingFang SC,Noto Sans CJK SC,sans-serif" font-size="15" fill="#30332e">0</text>
    <line x1="580" y1="512" x2="580" y2="521" stroke="#41443e"/>
    <text x="580" y="541" text-anchor="middle" font-family="-apple-system,BlinkMacSystemFont,PingFang SC,Noto Sans CJK SC,sans-serif" font-size="15" fill="#30332e">0.5</text>
    <line x1="690" y1="512" x2="690" y2="521" stroke="#41443e"/>
    <text x="690" y="541" text-anchor="middle" font-family="-apple-system,BlinkMacSystemFont,PingFang SC,Noto Sans CJK SC,sans-serif" font-size="15" fill="#30332e">1</text>
    <path d="M478 504 L479.27 504 L480.55 504 L481.82 504 L483.1 504 L484.38 504 L485.65 504 L486.93 504 L488.2 504 L489.48 504 L490.75 504 L492.02 504 L493.3 504 L494.57 503.99 L495.85 503.99 L497.12 503.98 L498.4 503.97 L499.68 503.96 L500.95 503.95 L502.23 503.93 L503.5 503.91 L504.77 503.88 L506.05 503.85 L507.32 503.81 L508.6 503.75 L509.88 503.69 L511.15 503.62 L512.42 503.53 L513.7 503.43 L514.98 503.32 L516.25 503.18 L517.52 503.03 L518.8 502.85 L520.08 502.65 L521.35 502.42 L522.62 502.17 L523.9 501.88 L525.17 501.56 L526.45 501.21 L527.73 500.82 L529 500.39 L530.27 499.92 L531.55 499.4 L532.83 498.83 L534.1 498.22 L535.38 497.56 L536.65 496.84 L537.92 496.06 L539.2 495.23 L540.48 494.34 L541.75 493.39 L543.02 492.37 L544.3 491.29 L545.58 490.15 L546.85 488.93 L548.12 487.65 L549.4 486.3 L550.67 484.88 L551.95 483.39 L553.23 481.83 L554.5 480.19 L555.77 478.49 L557.05 476.72 L558.33 474.88 L559.6 472.98 L560.88 471.01 L562.15 468.97 L563.42 466.87 L564.7 464.72 L565.98 462.51 L567.25 460.24 L568.52 457.92 L569.8 455.56 L571.08 453.15 L572.35 450.71 L573.62 448.23 L574.9 445.72 L576.17 443.19 L577.45 440.64 L578.73 438.08 L580 435.52 L581.27 432.95 L582.55 430.39 L583.83 427.84 L585.1 425.32 L586.38 422.82 L587.65 420.35 L588.92 417.93 L590.2 415.56 L591.48 413.24 L592.75 410.99 L594.02 408.81 L595.3 406.72 L596.58 404.71 L597.85 402.8 L599.12 401 L600.4 399.3 L601.67 397.73 L602.95 396.28 L604.23 394.96 L605.5 393.79 L606.77 392.76 L608.05 391.89 L609.33 391.17 L610.6 390.62 L611.88 390.24 L613.15 390.03 L614.42 390 L615.7 390.15 L616.98 390.49 L618.25 391.01 L619.52 391.72 L620.8 392.62 L622.08 393.71 L623.35 394.99 L624.62 396.45 L625.9 398.1 L627.17 399.94 L628.45 401.95 L629.73 404.14 L631 406.49 L632.27 409.01 L633.55 411.68 L634.83 414.5 L636.1 417.46 L637.38 420.55 L638.65 423.75 L639.92 427.06 L641.2 430.47 L642.48 433.95 L643.75 437.5 L645.02 441.11 L646.3 444.75 L647.58 448.41 L648.85 452.08 L650.12 455.74 L651.4 459.37 L652.67 462.95 L653.95 466.48 L655.23 469.92 L656.5 473.27 L657.77 476.5 L659.05 479.6 L660.33 482.56 L661.6 485.37 L662.88 487.99 L664.15 490.44 L665.42 492.69 L666.7 494.73 L667.98 496.57 L669.25 498.19 L670.52 499.59 L671.8 500.78 L673.08 501.75 L674.35 502.53 L675.62 503.12 L676.9 503.53 L678.17 503.79 L679.45 503.94 L680.73 503.99 L682 504" fill="none" stroke="#172860" stroke-width="2.2"/>
  </g>
  <g id="row-2-col-3">
    <rect x="840" y="372" width="220" height="140" fill="none" stroke="#41443e" stroke-width="1.2"/>
    <line x1="840" y1="512" x2="840" y2="521" stroke="#41443e"/>
    <text x="840" y="541" text-anchor="middle" font-family="-apple-system,BlinkMacSystemFont,PingFang SC,Noto Sans CJK SC,sans-serif" font-size="15" fill="#30332e">0</text>
    <line x1="950" y1="512" x2="950" y2="521" stroke="#41443e"/>
    <text x="950" y="541" text-anchor="middle" font-family="-apple-system,BlinkMacSystemFont,PingFang SC,Noto Sans CJK SC,sans-serif" font-size="15" fill="#30332e">0.5</text>
    <line x1="1060" y1="512" x2="1060" y2="521" stroke="#41443e"/>
    <text x="1060" y="541" text-anchor="middle" font-family="-apple-system,BlinkMacSystemFont,PingFang SC,Noto Sans CJK SC,sans-serif" font-size="15" fill="#30332e">1</text>
    <path d="M848 504 L849.27 504 L850.55 504 L851.83 504 L853.1 504 L854.38 504 L855.65 504 L856.92 504 L858.2 504 L859.48 504 L860.75 504 L862.02 504 L863.3 504 L864.58 504 L865.85 504 L867.12 504 L868.4 504 L869.67 504 L870.95 504 L872.23 504 L873.5 504 L874.77 504 L876.05 504 L877.33 504 L878.6 504 L879.88 504 L881.15 504 L882.42 504 L883.7 504 L884.98 504 L886.25 504 L887.52 504 L888.8 504 L890.08 504 L891.35 504 L892.62 504 L893.9 504 L895.17 504 L896.45 504 L897.73 504 L899 504 L900.27 504 L901.55 504 L902.83 504 L904.1 504 L905.38 504 L906.65 504 L907.92 504 L909.2 504 L910.48 504 L911.75 504 L913.02 504 L914.3 504 L915.58 504 L916.85 504 L918.12 504 L919.4 504 L920.67 504 L921.95 504 L923.23 504 L924.5 504 L925.77 504 L927.05 504 L928.33 504 L929.6 504 L930.88 504 L932.15 504 L933.42 504 L934.7 504 L935.98 504 L937.25 504 L938.52 504 L939.8 504 L941.08 504 L942.35 504 L943.62 504 L944.9 504 L946.17 504 L947.45 504 L948.73 504 L950 435.52 L951.27 432.95 L952.55 430.39 L953.83 427.84 L955.1 425.32 L956.38 422.82 L957.65 420.35 L958.92 417.93 L960.2 415.56 L961.48 413.24 L962.75 410.99 L964.02 408.81 L965.3 406.72 L966.58 404.71 L967.85 402.8 L969.12 401 L970.4 399.3 L971.67 397.73 L972.95 396.28 L974.23 394.96 L975.5 393.79 L976.77 392.76 L978.05 391.89 L979.33 391.17 L980.6 390.62 L981.88 390.24 L983.15 390.03 L984.42 390 L985.7 390.15 L986.98 390.49 L988.25 391.01 L989.52 391.72 L990.8 392.62 L992.08 393.71 L993.35 394.99 L994.62 396.45 L995.9 398.1 L997.17 399.94 L998.45 401.95 L999.73 404.14 L1001 406.49 L1002.27 409.01 L1003.55 411.68 L1004.83 414.5 L1006.1 417.46 L1007.38 420.55 L1008.65 423.75 L1009.92 427.06 L1011.2 430.47 L1012.48 433.95 L1013.75 437.5 L1015.02 441.11 L1016.3 444.75 L1017.58 448.41 L1018.85 452.08 L1020.12 455.74 L1021.4 459.37 L1022.67 462.95 L1023.95 466.48 L1025.22 469.92 L1026.5 473.27 L1027.78 476.5 L1029.05 479.6 L1030.33 482.56 L1031.6 485.37 L1032.88 487.99 L1034.15 490.44 L1035.42 492.69 L1036.7 494.73 L1037.97 496.57 L1039.25 498.19 L1040.53 499.59 L1041.8 500.78 L1043.08 501.75 L1044.35 502.53 L1045.62 503.12 L1046.9 503.53 L1048.17 503.79 L1049.45 503.94 L1050.72 503.99 L1052 504" fill="none" stroke="#172860" stroke-width="2.2"/>
  </g>
  <text x="395" y="450" text-anchor="middle" font-family="-apple-system,BlinkMacSystemFont,PingFang SC,Noto Sans CJK SC,sans-serif" font-size="46" fill="#30332e">×</text>
  <text x="765" y="450" text-anchor="middle" font-family="-apple-system,BlinkMacSystemFont,PingFang SC,Noto Sans CJK SC,sans-serif" font-size="46" fill="#30332e">∝</text>
  <g id="row-3-col-1">
    <rect x="100" y="625" width="220" height="140" fill="none" stroke="#41443e" stroke-width="1.2"/>
    <line x1="100" y1="765" x2="100" y2="774" stroke="#41443e"/>
    <text x="100" y="794" text-anchor="middle" font-family="-apple-system,BlinkMacSystemFont,PingFang SC,Noto Sans CJK SC,sans-serif" font-size="15" fill="#30332e">0</text>
    <line x1="210" y1="765" x2="210" y2="774" stroke="#41443e"/>
    <text x="210" y="794" text-anchor="middle" font-family="-apple-system,BlinkMacSystemFont,PingFang SC,Noto Sans CJK SC,sans-serif" font-size="15" fill="#30332e">0.5</text>
    <line x1="320" y1="765" x2="320" y2="774" stroke="#41443e"/>
    <text x="320" y="794" text-anchor="middle" font-family="-apple-system,BlinkMacSystemFont,PingFang SC,Noto Sans CJK SC,sans-serif" font-size="15" fill="#30332e">1</text>
    <path d="M108 751.32 L109.28 751.11 L110.55 750.88 L111.83 750.65 L113.1 750.41 L114.38 750.15 L115.65 749.89 L116.92 749.62 L118.2 749.34 L119.47 749.05 L120.75 748.74 L122.03 748.43 L123.3 748.1 L124.58 747.76 L125.85 747.41 L127.12 747.04 L128.4 746.66 L129.68 746.26 L130.95 745.85 L132.22 745.43 L133.5 744.98 L134.78 744.53 L136.05 744.05 L137.32 743.55 L138.6 743.04 L139.88 742.51 L141.15 741.95 L142.43 741.38 L143.7 740.78 L144.97 740.16 L146.25 739.52 L147.53 738.85 L148.8 738.16 L150.07 737.44 L151.35 736.69 L152.62 735.91 L153.9 735.11 L155.18 734.27 L156.45 733.4 L157.72 732.5 L159 731.56 L160.28 730.59 L161.55 729.58 L162.82 728.53 L164.1 727.45 L165.38 726.32 L166.65 725.14 L167.93 723.93 L169.2 722.66 L170.47 721.35 L171.75 719.99 L173.03 718.58 L174.3 717.11 L175.57 715.58 L176.85 714 L178.12 712.36 L179.4 710.65 L180.68 708.88 L181.95 707.04 L183.22 705.13 L184.5 703.15 L185.78 701.09 L187.05 698.96 L188.32 696.74 L189.6 694.44 L190.88 692.04 L192.15 689.56 L193.43 686.99 L194.7 684.31 L195.97 681.53 L197.25 678.65 L198.53 675.66 L199.8 672.55 L201.07 669.32 L202.35 665.97 L203.62 662.49 L204.9 658.88 L206.18 655.13 L207.45 651.24 L208.72 647.2 L210 643 L211.28 647.2 L212.55 651.24 L213.82 655.13 L215.1 658.88 L216.38 662.49 L217.65 665.97 L218.93 669.32 L220.2 672.55 L221.47 675.66 L222.75 678.65 L224.03 681.53 L225.3 684.31 L226.57 686.99 L227.85 689.56 L229.12 692.04 L230.4 694.44 L231.68 696.74 L232.95 698.96 L234.22 701.09 L235.5 703.15 L236.78 705.13 L238.05 707.04 L239.32 708.88 L240.6 710.65 L241.88 712.36 L243.15 714 L244.43 715.58 L245.7 717.11 L246.97 718.58 L248.25 719.99 L249.53 721.35 L250.8 722.66 L252.07 723.93 L253.35 725.14 L254.62 726.32 L255.9 727.45 L257.18 728.53 L258.45 729.58 L259.73 730.59 L261 731.56 L262.27 732.5 L263.55 733.4 L264.82 734.27 L266.1 735.11 L267.38 735.91 L268.65 736.69 L269.93 737.44 L271.2 738.16 L272.48 738.85 L273.75 739.52 L275.02 740.16 L276.3 740.78 L277.57 741.38 L278.85 741.95 L280.12 742.51 L281.4 743.04 L282.68 743.55 L283.95 744.05 L285.23 744.53 L286.5 744.98 L287.77 745.43 L289.05 745.85 L290.32 746.26 L291.6 746.66 L292.88 747.04 L294.15 747.41 L295.43 747.76 L296.7 748.1 L297.98 748.43 L299.25 748.74 L300.52 749.05 L301.8 749.34 L303.07 749.62 L304.35 749.89 L305.62 750.15 L306.9 750.41 L308.18 750.65 L309.45 750.88 L310.73 751.11 L312 751.32" fill="none" stroke="#172860" stroke-width="2.2"/>
  </g>
  <g id="row-3-col-2">
    <rect x="470" y="625" width="220" height="140" fill="none" stroke="#41443e" stroke-width="1.2"/>
    <line x1="470" y1="765" x2="470" y2="774" stroke="#41443e"/>
    <text x="470" y="794" text-anchor="middle" font-family="-apple-system,BlinkMacSystemFont,PingFang SC,Noto Sans CJK SC,sans-serif" font-size="15" fill="#30332e">0</text>
    <line x1="580" y1="765" x2="580" y2="774" stroke="#41443e"/>
    <text x="580" y="794" text-anchor="middle" font-family="-apple-system,BlinkMacSystemFont,PingFang SC,Noto Sans CJK SC,sans-serif" font-size="15" fill="#30332e">0.5</text>
    <line x1="690" y1="765" x2="690" y2="774" stroke="#41443e"/>
    <text x="690" y="794" text-anchor="middle" font-family="-apple-system,BlinkMacSystemFont,PingFang SC,Noto Sans CJK SC,sans-serif" font-size="15" fill="#30332e">1</text>
    <path d="M478 757 L479.27 757 L480.55 757 L481.82 757 L483.1 757 L484.38 757 L485.65 757 L486.93 757 L488.2 757 L489.48 757 L490.75 757 L492.02 757 L493.3 757 L494.57 756.99 L495.85 756.99 L497.12 756.98 L498.4 756.97 L499.68 756.96 L500.95 756.95 L502.23 756.93 L503.5 756.91 L504.77 756.88 L506.05 756.85 L507.32 756.81 L508.6 756.75 L509.88 756.69 L511.15 756.62 L512.42 756.53 L513.7 756.43 L514.98 756.32 L516.25 756.18 L517.52 756.03 L518.8 755.85 L520.08 755.65 L521.35 755.42 L522.62 755.17 L523.9 754.88 L525.17 754.56 L526.45 754.21 L527.73 753.82 L529 753.39 L530.27 752.92 L531.55 752.4 L532.83 751.83 L534.1 751.22 L535.38 750.56 L536.65 749.84 L537.92 749.06 L539.2 748.23 L540.48 747.34 L541.75 746.39 L543.02 745.37 L544.3 744.29 L545.58 743.15 L546.85 741.93 L548.12 740.65 L549.4 739.3 L550.67 737.88 L551.95 736.39 L553.23 734.83 L554.5 733.19 L555.77 731.49 L557.05 729.72 L558.33 727.88 L559.6 725.98 L560.88 724.01 L562.15 721.97 L563.42 719.87 L564.7 717.72 L565.98 715.51 L567.25 713.24 L568.52 710.92 L569.8 708.56 L571.08 706.15 L572.35 703.71 L573.62 701.23 L574.9 698.72 L576.17 696.19 L577.45 693.64 L578.73 691.08 L580 688.52 L581.27 685.95 L582.55 683.39 L583.83 680.84 L585.1 678.32 L586.38 675.82 L587.65 673.35 L588.92 670.93 L590.2 668.56 L591.48 666.24 L592.75 663.99 L594.02 661.81 L595.3 659.72 L596.58 657.71 L597.85 655.8 L599.12 654 L600.4 652.3 L601.67 650.73 L602.95 649.28 L604.23 647.96 L605.5 646.79 L606.77 645.76 L608.05 644.89 L609.33 644.17 L610.6 643.62 L611.88 643.24 L613.15 643.03 L614.42 643 L615.7 643.15 L616.98 643.49 L618.25 644.01 L619.52 644.72 L620.8 645.62 L622.08 646.71 L623.35 647.99 L624.62 649.45 L625.9 651.1 L627.17 652.94 L628.45 654.95 L629.73 657.14 L631 659.49 L632.27 662.01 L633.55 664.68 L634.83 667.5 L636.1 670.46 L637.38 673.55 L638.65 676.75 L639.92 680.06 L641.2 683.47 L642.48 686.95 L643.75 690.5 L645.02 694.11 L646.3 697.75 L647.58 701.41 L648.85 705.08 L650.12 708.74 L651.4 712.37 L652.67 715.95 L653.95 719.48 L655.23 722.92 L656.5 726.27 L657.77 729.5 L659.05 732.6 L660.33 735.56 L661.6 738.37 L662.88 740.99 L664.15 743.44 L665.42 745.69 L666.7 747.73 L667.98 749.57 L669.25 751.19 L670.52 752.59 L671.8 753.78 L673.08 754.75 L674.35 755.53 L675.62 756.12 L676.9 756.53 L678.17 756.79 L679.45 756.94 L680.73 756.99 L682 757" fill="none" stroke="#172860" stroke-width="2.2"/>
  </g>
  <g id="row-3-col-3">
    <rect x="840" y="625" width="220" height="140" fill="none" stroke="#41443e" stroke-width="1.2"/>
    <line x1="840" y1="765" x2="840" y2="774" stroke="#41443e"/>
    <text x="840" y="794" text-anchor="middle" font-family="-apple-system,BlinkMacSystemFont,PingFang SC,Noto Sans CJK SC,sans-serif" font-size="15" fill="#30332e">0</text>
    <line x1="950" y1="765" x2="950" y2="774" stroke="#41443e"/>
    <text x="950" y="794" text-anchor="middle" font-family="-apple-system,BlinkMacSystemFont,PingFang SC,Noto Sans CJK SC,sans-serif" font-size="15" fill="#30332e">0.5</text>
    <line x1="1060" y1="765" x2="1060" y2="774" stroke="#41443e"/>
    <text x="1060" y="794" text-anchor="middle" font-family="-apple-system,BlinkMacSystemFont,PingFang SC,Noto Sans CJK SC,sans-serif" font-size="15" fill="#30332e">1</text>
    <path d="M848 757 L849.27 757 L850.55 757 L851.83 757 L853.1 757 L854.38 757 L855.65 757 L856.92 757 L858.2 757 L859.48 757 L860.75 757 L862.02 757 L863.3 757 L864.58 757 L865.85 757 L867.12 757 L868.4 757 L869.67 756.99 L870.95 756.99 L872.23 756.99 L873.5 756.98 L874.77 756.98 L876.05 756.97 L877.33 756.96 L878.6 756.95 L879.88 756.94 L881.15 756.92 L882.42 756.89 L883.7 756.87 L884.98 756.83 L886.25 756.79 L887.52 756.74 L888.8 756.68 L890.08 756.61 L891.35 756.53 L892.62 756.44 L893.9 756.32 L895.17 756.19 L896.45 756.04 L897.73 755.86 L899 755.66 L900.27 755.42 L901.55 755.16 L902.83 754.85 L904.1 754.51 L905.38 754.11 L906.65 753.67 L907.92 753.17 L909.2 752.6 L910.48 751.97 L911.75 751.27 L913.02 750.48 L914.3 749.6 L915.58 748.62 L916.85 747.54 L918.12 746.34 L919.4 745.02 L920.67 743.56 L921.95 741.96 L923.23 740.21 L924.5 738.28 L925.77 736.18 L927.05 733.88 L928.33 731.38 L929.6 728.66 L930.88 725.71 L932.15 722.51 L933.42 719.04 L934.7 715.31 L935.98 711.27 L937.25 706.93 L938.52 702.27 L939.8 697.26 L941.08 691.9 L942.35 686.16 L943.62 680.04 L944.9 673.5 L946.17 666.55 L947.45 659.16 L948.73 651.31 L950 643 L951.27 643.08 L952.55 643.32 L953.83 643.71 L955.1 644.26 L956.38 644.96 L957.65 645.81 L958.92 646.8 L960.2 647.93 L961.48 649.2 L962.75 650.59 L964.02 652.11 L965.3 653.74 L966.58 655.49 L967.85 657.35 L969.12 659.3 L970.4 661.35 L971.67 663.48 L972.95 665.7 L974.23 667.99 L975.5 670.34 L976.77 672.75 L978.05 675.21 L979.33 677.72 L980.6 680.26 L981.88 682.84 L983.15 685.44 L984.42 688.06 L985.7 690.68 L986.98 693.31 L988.25 695.94 L989.52 698.55 L990.8 701.16 L992.08 703.74 L993.35 706.29 L994.62 708.82 L995.9 711.3 L997.17 713.75 L998.45 716.14 L999.73 718.49 L1001 720.78 L1002.27 723.02 L1003.55 725.19 L1004.83 727.29 L1006.1 729.33 L1007.38 731.3 L1008.65 733.2 L1009.92 735.02 L1011.2 736.77 L1012.48 738.43 L1013.75 740.02 L1015.02 741.54 L1016.3 742.97 L1017.58 744.32 L1018.85 745.59 L1020.12 746.79 L1021.4 747.9 L1022.67 748.94 L1023.95 749.9 L1025.22 750.79 L1026.5 751.61 L1027.78 752.35 L1029.05 753.03 L1030.33 753.64 L1031.6 754.19 L1032.88 754.67 L1034.15 755.1 L1035.42 755.47 L1036.7 755.8 L1037.97 756.07 L1039.25 756.3 L1040.53 756.49 L1041.8 756.64 L1043.08 756.76 L1044.35 756.85 L1045.62 756.91 L1046.9 756.95 L1048.17 756.98 L1049.45 756.99 L1050.72 757 L1052 757" fill="none" stroke="#172860" stroke-width="2.2"/>
  </g>
  <text x="395" y="703" text-anchor="middle" font-family="-apple-system,BlinkMacSystemFont,PingFang SC,Noto Sans CJK SC,sans-serif" font-size="46" fill="#30332e">×</text>
  <text x="765" y="703" text-anchor="middle" font-family="-apple-system,BlinkMacSystemFont,PingFang SC,Noto Sans CJK SC,sans-serif" font-size="46" fill="#30332e">∝</text>
  <text x="580.0" y="335" text-anchor="middle" font-family="-apple-system,BlinkMacSystemFont,PingFang SC,Noto Sans CJK SC,sans-serif" font-size="17" fill="#5d6059">平坦先验：后验与似然同形</text>
  <text x="580.0" y="588" text-anchor="middle" font-family="-apple-system,BlinkMacSystemFont,PingFang SC,Noto Sans CJK SC,sans-serif" font-size="17" fill="#5d6059">阶梯先验：排除 p &lt; 0.5</text>
  <text x="580.0" y="841" text-anchor="middle" font-family="-apple-system,BlinkMacSystemFont,PingFang SC,Noto Sans CJK SC,sans-serif" font-size="17" fill="#5d6059">尖峰先验：后验发生偏移与偏斜</text>
</svg>
