<svg xmlns="http://www.w3.org/2000/svg" width="1200" height="600" viewBox="0 0 1200 600" role="img">
<title>最大熵与高斯分布</title>
<desc>左图比较方差均为一的高斯分布与三种广义正态分布的概率密度曲线；右图显示形状参数贝塔等于二、曲线呈高斯形状时，广义正态分布的熵达到最大。</desc>
<rect width="100%" height="100%" fill="#fbfaf6"/>
<rect x="90" y="55" width="470" height="430" fill="#fff" stroke="#d9d5c8"/>
<line x1="101.2" y1="485" x2="101.2" y2="492" stroke="#30332e"/>
<text x="101.2" y="516.0" text-anchor="middle" font-family="-apple-system,BlinkMacSystemFont,PingFang SC,Noto Sans CJK SC,sans-serif" font-size="16" font-weight="400" fill="#30332e">-4</text>
<line x1="213.1" y1="485" x2="213.1" y2="492" stroke="#30332e"/>
<text x="213.1" y="516.0" text-anchor="middle" font-family="-apple-system,BlinkMacSystemFont,PingFang SC,Noto Sans CJK SC,sans-serif" font-size="16" font-weight="400" fill="#30332e">-2</text>
<line x1="325.0" y1="485" x2="325.0" y2="492" stroke="#30332e"/>
<text x="325.0" y="516.0" text-anchor="middle" font-family="-apple-system,BlinkMacSystemFont,PingFang SC,Noto Sans CJK SC,sans-serif" font-size="16" font-weight="400" fill="#30332e">0</text>
<line x1="436.9" y1="485" x2="436.9" y2="492" stroke="#30332e"/>
<text x="436.9" y="516.0" text-anchor="middle" font-family="-apple-system,BlinkMacSystemFont,PingFang SC,Noto Sans CJK SC,sans-serif" font-size="16" font-weight="400" fill="#30332e">2</text>
<line x1="548.8" y1="485" x2="548.8" y2="492" stroke="#30332e"/>
<text x="548.8" y="516.0" text-anchor="middle" font-family="-apple-system,BlinkMacSystemFont,PingFang SC,Noto Sans CJK SC,sans-serif" font-size="16" font-weight="400" fill="#30332e">4</text>
<line x1="83" y1="485.0" x2="90" y2="485.0" stroke="#30332e"/>
<text x="77.0" y="490.0" text-anchor="end" font-family="-apple-system,BlinkMacSystemFont,PingFang SC,Noto Sans CJK SC,sans-serif" font-size="15" font-weight="400" fill="#30332e">0.0</text>
<line x1="83" y1="370.3" x2="90" y2="370.3" stroke="#30332e"/>
<text x="77.0" y="375.3" text-anchor="end" font-family="-apple-system,BlinkMacSystemFont,PingFang SC,Noto Sans CJK SC,sans-serif" font-size="15" font-weight="400" fill="#30332e">0.2</text>
<line x1="83" y1="255.7" x2="90" y2="255.7" stroke="#30332e"/>
<text x="77.0" y="260.7" text-anchor="end" font-family="-apple-system,BlinkMacSystemFont,PingFang SC,Noto Sans CJK SC,sans-serif" font-size="15" font-weight="400" fill="#30332e">0.4</text>
<line x1="83" y1="141.0" x2="90" y2="141.0" stroke="#30332e"/>
<text x="77.0" y="146.0" text-anchor="end" font-family="-apple-system,BlinkMacSystemFont,PingFang SC,Noto Sans CJK SC,sans-serif" font-size="15" font-weight="400" fill="#30332e">0.6</text>
<text x="325.0" y="565.0" text-anchor="middle" font-family="-apple-system,BlinkMacSystemFont,PingFang SC,Noto Sans CJK SC,sans-serif" font-size="19" font-weight="400" fill="#263f86">取值</text>
<text x="28.0" y="270.0" text-anchor="middle" font-family="-apple-system,BlinkMacSystemFont,PingFang SC,Noto Sans CJK SC,sans-serif" font-size="19" font-weight="400" fill="#263f86" transform="rotate(-90 28 270.0)">概率密度</text>
<polyline points="90.0,483.9 90.7,483.9 91.3,483.9 92.0,483.9 92.7,483.9 93.4,483.8 94.0,483.8 94.7,483.8 95.4,483.8 96.0,483.8 96.7,483.7 97.4,483.7 98.1,483.7 98.7,483.7 99.4,483.6 100.1,483.6 100.7,483.6 101.4,483.6 102.1,483.6 102.8,483.5 103.4,483.5 104.1,483.5 104.8,483.4 105.4,483.4 106.1,483.4 106.8,483.4 107.5,483.3 108.1,483.3 108.8,483.3 109.5,483.3 110.1,483.2 110.8,483.2 111.5,483.2 112.2,483.1 112.8,483.1 113.5,483.1 114.2,483.0 114.8,483.0 115.5,483.0 116.2,482.9 116.9,482.9 117.5,482.9 118.2,482.8 118.9,482.8 119.5,482.7 120.2,482.7 120.9,482.7 121.6,482.6 122.2,482.6 122.9,482.5 123.6,482.5 124.2,482.5 124.9,482.4 125.6,482.4 126.3,482.3 126.9,482.3 127.6,482.2 128.3,482.2 128.9,482.1 129.6,482.1 130.3,482.0 131.0,482.0 131.6,481.9 132.3,481.9 133.0,481.8 133.6,481.8 134.3,481.7 135.0,481.7 135.7,481.6 136.3,481.6 137.0,481.5 137.7,481.4 138.3,481.4 139.0,481.3 139.7,481.3 140.4,481.2 141.0,481.1 141.7,481.1 142.4,481.0 143.0,480.9 143.7,480.9 144.4,480.8 145.1,480.7 145.7,480.6 146.4,480.6 147.1,480.5 147.7,480.4 148.4,480.3 149.1,480.2 149.8,480.2 150.4,480.1 151.1,480.0 151.8,479.9 152.4,479.8 153.1,479.7 153.8,479.6 154.5,479.6 155.1,479.5 155.8,479.4 156.5,479.3 157.1,479.2 157.8,479.1 158.5,479.0 159.2,478.9 159.8,478.8 160.5,478.7 161.2,478.6 161.8,478.4 162.5,478.3 163.2,478.2 163.9,478.1 164.5,478.0 165.2,477.9 165.9,477.7 166.5,477.6 167.2,477.5 167.9,477.4 168.6,477.2 169.2,477.1 169.9,477.0 170.6,476.8 171.2,476.7 171.9,476.5 172.6,476.4 173.3,476.2 173.9,476.1 174.6,475.9 175.3,475.8 175.9,475.6 176.6,475.5 177.3,475.3 178.0,475.1 178.6,475.0 179.3,474.8 180.0,474.6 180.6,474.4 181.3,474.3 182.0,474.1 182.7,473.9 183.3,473.7 184.0,473.5 184.7,473.3 185.3,473.1 186.0,472.9 186.7,472.7 187.4,472.5 188.0,472.3 188.7,472.1 189.4,471.8 190.0,471.6 190.7,471.4 191.4,471.2 192.1,470.9 192.7,470.7 193.4,470.4 194.1,470.2 194.7,469.9 195.4,469.7 196.1,469.4 196.8,469.1 197.4,468.9 198.1,468.6 198.8,468.3 199.4,468.0 200.1,467.7 200.8,467.4 201.5,467.1 202.1,466.8 202.8,466.5 203.5,466.2 204.1,465.9 204.8,465.6 205.5,465.2 206.2,464.9 206.8,464.5 207.5,464.2 208.2,463.8 208.8,463.5 209.5,463.1 210.2,462.7 210.9,462.4 211.5,462.0 212.2,461.6 212.9,461.2 213.5,460.8 214.2,460.4 214.9,459.9 215.6,459.5 216.2,459.1 216.9,458.6 217.6,458.2 218.2,457.7 218.9,457.2 219.6,456.8 220.3,456.3 220.9,455.8 221.6,455.3 222.3,454.8 222.9,454.3 223.6,453.7 224.3,453.2 225.0,452.7 225.6,452.1 226.3,451.5 227.0,451.0 227.6,450.4 228.3,449.8 229.0,449.2 229.7,448.6 230.3,448.0 231.0,447.3 231.7,446.7 232.3,446.0 233.0,445.4 233.7,444.7 234.4,444.0 235.0,443.3 235.7,442.6 236.4,441.8 237.0,441.1 237.7,440.4 238.4,439.6 239.1,438.8 239.7,438.0 240.4,437.2 241.1,436.4 241.7,435.6 242.4,434.7 243.1,433.9 243.8,433.0 244.4,432.1 245.1,431.2 245.8,430.3 246.4,429.3 247.1,428.4 247.8,427.4 248.5,426.4 249.1,425.4 249.8,424.4 250.5,423.4 251.1,422.3 251.8,421.2 252.5,420.2 253.2,419.0 253.8,417.9 254.5,416.8 255.2,415.6 255.8,414.4 256.5,413.2 257.2,412.0 257.9,410.7 258.5,409.4 259.2,408.2 259.9,406.8 260.5,405.5 261.2,404.1 261.9,402.8 262.6,401.4 263.2,399.9 263.9,398.5 264.6,397.0 265.2,395.5 265.9,393.9 266.6,392.4 267.3,390.8 267.9,389.2 268.6,387.5 269.3,385.9 269.9,384.2 270.6,382.5 271.3,380.7 272.0,378.9 272.6,377.1 273.3,375.3 274.0,373.4 274.6,371.5 275.3,369.5 276.0,367.5 276.7,365.5 277.3,363.5 278.0,361.4 278.7,359.3 279.3,357.1 280.0,355.0 280.7,352.7 281.4,350.5 282.0,348.2 282.7,345.8 283.4,343.4 284.0,341.0 284.7,338.6 285.4,336.0 286.1,333.5 286.7,330.9 287.4,328.3 288.1,325.6 288.7,322.9 289.4,320.1 290.1,317.3 290.8,314.4 291.4,311.5 292.1,308.5 292.8,305.5 293.4,302.4 294.1,299.3 294.8,296.1 295.5,292.9 296.1,289.6 296.8,286.2 297.5,282.8 298.1,279.4 298.8,275.9 299.5,272.3 300.2,268.6 300.8,264.9 301.5,261.2 302.2,257.3 302.8,253.4 303.5,249.5 304.2,245.4 304.9,241.3 305.5,237.2 306.2,232.9 306.9,228.6 307.5,224.2 308.2,219.8 308.9,215.2 309.6,210.6 310.2,205.9 310.9,201.1 311.6,196.3 312.2,191.3 312.9,186.3 313.6,181.2 314.3,176.0 314.9,170.7 315.6,165.3 316.3,159.9 316.9,154.3 317.6,148.6 318.3,142.9 319.0,137.0 319.6,131.1 320.3,125.0 321.0,118.8 321.6,112.6 322.3,106.2 323.0,99.7 323.7,93.1 324.3,86.4 325.0,79.6 325.7,86.4 326.3,93.1 327.0,99.7 327.7,106.2 328.4,112.6 329.0,118.8 329.7,125.0 330.4,131.1 331.0,137.0 331.7,142.9 332.4,148.6 333.1,154.3 333.7,159.9 334.4,165.3 335.1,170.7 335.7,176.0 336.4,181.2 337.1,186.3 337.8,191.3 338.4,196.3 339.1,201.1 339.8,205.9 340.4,210.6 341.1,215.2 341.8,219.8 342.5,224.2 343.1,228.6 343.8,232.9 344.5,237.2 345.1,241.3 345.8,245.4 346.5,249.5 347.2,253.4 347.8,257.3 348.5,261.2 349.2,264.9 349.8,268.6 350.5,272.3 351.2,275.9 351.9,279.4 352.5,282.8 353.2,286.2 353.9,289.6 354.5,292.9 355.2,296.1 355.9,299.3 356.6,302.4 357.2,305.5 357.9,308.5 358.6,311.5 359.2,314.4 359.9,317.3 360.6,320.1 361.3,322.9 361.9,325.6 362.6,328.3 363.3,330.9 363.9,333.5 364.6,336.0 365.3,338.6 366.0,341.0 366.6,343.4 367.3,345.8 368.0,348.2 368.6,350.5 369.3,352.7 370.0,355.0 370.7,357.1 371.3,359.3 372.0,361.4 372.7,363.5 373.3,365.5 374.0,367.5 374.7,369.5 375.4,371.5 376.0,373.4 376.7,375.3 377.4,377.1 378.0,378.9 378.7,380.7 379.4,382.5 380.1,384.2 380.7,385.9 381.4,387.5 382.1,389.2 382.7,390.8 383.4,392.4 384.1,393.9 384.8,395.5 385.4,397.0 386.1,398.5 386.8,399.9 387.4,401.4 388.1,402.8 388.8,404.1 389.5,405.5 390.1,406.8 390.8,408.2 391.5,409.4 392.1,410.7 392.8,412.0 393.5,413.2 394.2,414.4 394.8,415.6 395.5,416.8 396.2,417.9 396.8,419.0 397.5,420.2 398.2,421.2 398.9,422.3 399.5,423.4 400.2,424.4 400.9,425.4 401.5,426.4 402.2,427.4 402.9,428.4 403.6,429.3 404.2,430.3 404.9,431.2 405.6,432.1 406.2,433.0 406.9,433.9 407.6,434.7 408.3,435.6 408.9,436.4 409.6,437.2 410.3,438.0 410.9,438.8 411.6,439.6 412.3,440.4 413.0,441.1 413.6,441.8 414.3,442.6 415.0,443.3 415.6,444.0 416.3,444.7 417.0,445.4 417.7,446.0 418.3,446.7 419.0,447.3 419.7,448.0 420.3,448.6 421.0,449.2 421.7,449.8 422.4,450.4 423.0,451.0 423.7,451.5 424.4,452.1 425.0,452.7 425.7,453.2 426.4,453.7 427.1,454.3 427.7,454.8 428.4,455.3 429.1,455.8 429.7,456.3 430.4,456.8 431.1,457.2 431.8,457.7 432.4,458.2 433.1,458.6 433.8,459.1 434.4,459.5 435.1,459.9 435.8,460.4 436.5,460.8 437.1,461.2 437.8,461.6 438.5,462.0 439.1,462.4 439.8,462.7 440.5,463.1 441.2,463.5 441.8,463.8 442.5,464.2 443.2,464.5 443.8,464.9 444.5,465.2 445.2,465.6 445.9,465.9 446.5,466.2 447.2,466.5 447.9,466.8 448.5,467.1 449.2,467.4 449.9,467.7 450.6,468.0 451.2,468.3 451.9,468.6 452.6,468.9 453.2,469.1 453.9,469.4 454.6,469.7 455.3,469.9 455.9,470.2 456.6,470.4 457.3,470.7 457.9,470.9 458.6,471.2 459.3,471.4 460.0,471.6 460.6,471.8 461.3,472.1 462.0,472.3 462.6,472.5 463.3,472.7 464.0,472.9 464.7,473.1 465.3,473.3 466.0,473.5 466.7,473.7 467.3,473.9 468.0,474.1 468.7,474.3 469.4,474.4 470.0,474.6 470.7,474.8 471.4,475.0 472.0,475.1 472.7,475.3 473.4,475.5 474.1,475.6 474.7,475.8 475.4,475.9 476.1,476.1 476.7,476.2 477.4,476.4 478.1,476.5 478.8,476.7 479.4,476.8 480.1,477.0 480.8,477.1 481.4,477.2 482.1,477.4 482.8,477.5 483.5,477.6 484.1,477.7 484.8,477.9 485.5,478.0 486.1,478.1 486.8,478.2 487.5,478.3 488.2,478.4 488.8,478.6 489.5,478.7 490.2,478.8 490.8,478.9 491.5,479.0 492.2,479.1 492.9,479.2 493.5,479.3 494.2,479.4 494.9,479.5 495.5,479.6 496.2,479.6 496.9,479.7 497.6,479.8 498.2,479.9 498.9,480.0 499.6,480.1 500.2,480.2 500.9,480.2 501.6,480.3 502.3,480.4 502.9,480.5 503.6,480.6 504.3,480.6 504.9,480.7 505.6,480.8 506.3,480.9 507.0,480.9 507.6,481.0 508.3,481.1 509.0,481.1 509.6,481.2 510.3,481.3 511.0,481.3 511.7,481.4 512.3,481.4 513.0,481.5 513.7,481.6 514.3,481.6 515.0,481.7 515.7,481.7 516.4,481.8 517.0,481.8 517.7,481.9 518.4,481.9 519.0,482.0 519.7,482.0 520.4,482.1 521.1,482.1 521.7,482.2 522.4,482.2 523.1,482.3 523.7,482.3 524.4,482.4 525.1,482.4 525.8,482.5 526.4,482.5 527.1,482.5 527.8,482.6 528.4,482.6 529.1,482.7 529.8,482.7 530.5,482.7 531.1,482.8 531.8,482.8 532.5,482.9 533.1,482.9 533.8,482.9 534.5,483.0 535.2,483.0 535.8,483.0 536.5,483.1 537.2,483.1 537.8,483.1 538.5,483.2 539.2,483.2 539.9,483.2 540.5,483.3 541.2,483.3 541.9,483.3 542.5,483.3 543.2,483.4 543.9,483.4 544.6,483.4 545.2,483.4 545.9,483.5 546.6,483.5 547.2,483.5 547.9,483.6 548.6,483.6 549.3,483.6 549.9,483.6 550.6,483.6 551.3,483.7 551.9,483.7 552.6,483.7 553.3,483.7 554.0,483.8 554.6,483.8 555.3,483.8 556.0,483.8 556.6,483.8 557.3,483.9 558.0,483.9 558.7,483.9 559.3,483.9 560.0,483.9" fill="none" stroke="#111" stroke-width="2.2"/>
<polyline points="90.0,484.7 90.7,484.7 91.3,484.7 92.0,484.7 92.7,484.7 93.4,484.7 94.0,484.7 94.7,484.6 95.4,484.6 96.0,484.6 96.7,484.6 97.4,484.6 98.1,484.6 98.7,484.6 99.4,484.6 100.1,484.6 100.7,484.5 101.4,484.5 102.1,484.5 102.8,484.5 103.4,484.5 104.1,484.5 104.8,484.5 105.4,484.4 106.1,484.4 106.8,484.4 107.5,484.4 108.1,484.4 108.8,484.4 109.5,484.3 110.1,484.3 110.8,484.3 111.5,484.3 112.2,484.3 112.8,484.2 113.5,484.2 114.2,484.2 114.8,484.2 115.5,484.1 116.2,484.1 116.9,484.1 117.5,484.1 118.2,484.1 118.9,484.0 119.5,484.0 120.2,484.0 120.9,483.9 121.6,483.9 122.2,483.9 122.9,483.8 123.6,483.8 124.2,483.8 124.9,483.8 125.6,483.7 126.3,483.7 126.9,483.6 127.6,483.6 128.3,483.6 128.9,483.5 129.6,483.5 130.3,483.5 131.0,483.4 131.6,483.4 132.3,483.3 133.0,483.3 133.6,483.2 134.3,483.2 135.0,483.1 135.7,483.1 136.3,483.0 137.0,483.0 137.7,482.9 138.3,482.9 139.0,482.8 139.7,482.8 140.4,482.7 141.0,482.6 141.7,482.6 142.4,482.5 143.0,482.4 143.7,482.4 144.4,482.3 145.1,482.2 145.7,482.2 146.4,482.1 147.1,482.0 147.7,481.9 148.4,481.9 149.1,481.8 149.8,481.7 150.4,481.6 151.1,481.5 151.8,481.4 152.4,481.4 153.1,481.3 153.8,481.2 154.5,481.1 155.1,481.0 155.8,480.9 156.5,480.8 157.1,480.7 157.8,480.5 158.5,480.4 159.2,480.3 159.8,480.2 160.5,480.1 161.2,480.0 161.8,479.8 162.5,479.7 163.2,479.6 163.9,479.4 164.5,479.3 165.2,479.2 165.9,479.0 166.5,478.9 167.2,478.7 167.9,478.6 168.6,478.4 169.2,478.3 169.9,478.1 170.6,477.9 171.2,477.8 171.9,477.6 172.6,477.4 173.3,477.2 173.9,477.0 174.6,476.8 175.3,476.7 175.9,476.5 176.6,476.3 177.3,476.0 178.0,475.8 178.6,475.6 179.3,475.4 180.0,475.2 180.6,474.9 181.3,474.7 182.0,474.5 182.7,474.2 183.3,474.0 184.0,473.7 184.7,473.5 185.3,473.2 186.0,472.9 186.7,472.7 187.4,472.4 188.0,472.1 188.7,471.8 189.4,471.5 190.0,471.2 190.7,470.9 191.4,470.6 192.1,470.2 192.7,469.9 193.4,469.6 194.1,469.2 194.7,468.9 195.4,468.5 196.1,468.2 196.8,467.8 197.4,467.4 198.1,467.0 198.8,466.6 199.4,466.3 200.1,465.8 200.8,465.4 201.5,465.0 202.1,464.6 202.8,464.1 203.5,463.7 204.1,463.2 204.8,462.8 205.5,462.3 206.2,461.8 206.8,461.3 207.5,460.8 208.2,460.3 208.8,459.8 209.5,459.3 210.2,458.8 210.9,458.2 211.5,457.7 212.2,457.1 212.9,456.5 213.5,455.9 214.2,455.3 214.9,454.7 215.6,454.1 216.2,453.5 216.9,452.9 217.6,452.2 218.2,451.6 218.9,450.9 219.6,450.2 220.3,449.5 220.9,448.8 221.6,448.1 222.3,447.4 222.9,446.7 223.6,445.9 224.3,445.1 225.0,444.4 225.6,443.6 226.3,442.8 227.0,442.0 227.6,441.2 228.3,440.3 229.0,439.5 229.7,438.6 230.3,437.7 231.0,436.8 231.7,435.9 232.3,435.0 233.0,434.1 233.7,433.2 234.4,432.2 235.0,431.2 235.7,430.2 236.4,429.2 237.0,428.2 237.7,427.2 238.4,426.2 239.1,425.1 239.7,424.0 240.4,422.9 241.1,421.8 241.7,420.7 242.4,419.6 243.1,418.5 243.8,417.3 244.4,416.1 245.1,414.9 245.8,413.7 246.4,412.5 247.1,411.2 247.8,410.0 248.5,408.7 249.1,407.4 249.8,406.1 250.5,404.8 251.1,403.5 251.8,402.1 252.5,400.8 253.2,399.4 253.8,398.0 254.5,396.6 255.2,395.1 255.8,393.7 256.5,392.2 257.2,390.7 257.9,389.2 258.5,387.7 259.2,386.2 259.9,384.7 260.5,383.1 261.2,381.5 261.9,379.9 262.6,378.3 263.2,376.7 263.9,375.1 264.6,373.4 265.2,371.7 265.9,370.0 266.6,368.3 267.3,366.6 267.9,364.9 268.6,363.1 269.3,361.4 269.9,359.6 270.6,357.8 271.3,356.0 272.0,354.2 272.6,352.4 273.3,350.5 274.0,348.6 274.6,346.8 275.3,344.9 276.0,343.0 276.7,341.1 277.3,339.2 278.0,337.2 278.7,335.3 279.3,333.3 280.0,331.3 280.7,329.4 281.4,327.4 282.0,325.4 282.7,323.4 283.4,321.3 284.0,319.3 284.7,317.3 285.4,315.2 286.1,313.2 286.7,311.1 287.4,309.0 288.1,307.0 288.7,304.9 289.4,302.8 290.1,300.7 290.8,298.6 291.4,296.6 292.1,294.5 292.8,292.4 293.4,290.3 294.1,288.2 294.8,286.1 295.5,284.0 296.1,281.9 296.8,279.8 297.5,277.7 298.1,275.6 298.8,273.5 299.5,271.5 300.2,269.4 300.8,267.4 301.5,265.3 302.2,263.3 302.8,261.2 303.5,259.2 304.2,257.2 304.9,255.3 305.5,253.3 306.2,251.3 306.9,249.4 307.5,247.5 308.2,245.6 308.9,243.7 309.6,241.9 310.2,240.1 310.9,238.3 311.6,236.5 312.2,234.8 312.9,233.1 313.6,231.4 314.3,229.8 314.9,228.2 315.6,226.7 316.3,225.2 316.9,223.7 317.6,222.3 318.3,221.0 319.0,219.7 319.6,218.5 320.3,217.4 321.0,216.3 321.6,215.3 322.3,214.4 323.0,213.6 323.7,212.9 324.3,212.4 325.0,212.1 325.7,212.4 326.3,212.9 327.0,213.6 327.7,214.4 328.4,215.3 329.0,216.3 329.7,217.4 330.4,218.5 331.0,219.7 331.7,221.0 332.4,222.3 333.1,223.7 333.7,225.2 334.4,226.7 335.1,228.2 335.7,229.8 336.4,231.4 337.1,233.1 337.8,234.8 338.4,236.5 339.1,238.3 339.8,240.1 340.4,241.9 341.1,243.7 341.8,245.6 342.5,247.5 343.1,249.4 343.8,251.3 344.5,253.3 345.1,255.3 345.8,257.2 346.5,259.2 347.2,261.2 347.8,263.3 348.5,265.3 349.2,267.4 349.8,269.4 350.5,271.5 351.2,273.5 351.9,275.6 352.5,277.7 353.2,279.8 353.9,281.9 354.5,284.0 355.2,286.1 355.9,288.2 356.6,290.3 357.2,292.4 357.9,294.5 358.6,296.6 359.2,298.6 359.9,300.7 360.6,302.8 361.3,304.9 361.9,307.0 362.6,309.0 363.3,311.1 363.9,313.2 364.6,315.2 365.3,317.3 366.0,319.3 366.6,321.3 367.3,323.4 368.0,325.4 368.6,327.4 369.3,329.4 370.0,331.3 370.7,333.3 371.3,335.3 372.0,337.2 372.7,339.2 373.3,341.1 374.0,343.0 374.7,344.9 375.4,346.8 376.0,348.6 376.7,350.5 377.4,352.4 378.0,354.2 378.7,356.0 379.4,357.8 380.1,359.6 380.7,361.4 381.4,363.1 382.1,364.9 382.7,366.6 383.4,368.3 384.1,370.0 384.8,371.7 385.4,373.4 386.1,375.1 386.8,376.7 387.4,378.3 388.1,379.9 388.8,381.5 389.5,383.1 390.1,384.7 390.8,386.2 391.5,387.7 392.1,389.2 392.8,390.7 393.5,392.2 394.2,393.7 394.8,395.1 395.5,396.6 396.2,398.0 396.8,399.4 397.5,400.8 398.2,402.1 398.9,403.5 399.5,404.8 400.2,406.1 400.9,407.4 401.5,408.7 402.2,410.0 402.9,411.2 403.6,412.5 404.2,413.7 404.9,414.9 405.6,416.1 406.2,417.3 406.9,418.5 407.6,419.6 408.3,420.7 408.9,421.8 409.6,422.9 410.3,424.0 410.9,425.1 411.6,426.2 412.3,427.2 413.0,428.2 413.6,429.2 414.3,430.2 415.0,431.2 415.6,432.2 416.3,433.2 417.0,434.1 417.7,435.0 418.3,435.9 419.0,436.8 419.7,437.7 420.3,438.6 421.0,439.5 421.7,440.3 422.4,441.2 423.0,442.0 423.7,442.8 424.4,443.6 425.0,444.4 425.7,445.1 426.4,445.9 427.1,446.7 427.7,447.4 428.4,448.1 429.1,448.8 429.7,449.5 430.4,450.2 431.1,450.9 431.8,451.6 432.4,452.2 433.1,452.9 433.8,453.5 434.4,454.1 435.1,454.7 435.8,455.3 436.5,455.9 437.1,456.5 437.8,457.1 438.5,457.7 439.1,458.2 439.8,458.8 440.5,459.3 441.2,459.8 441.8,460.3 442.5,460.8 443.2,461.3 443.8,461.8 444.5,462.3 445.2,462.8 445.9,463.2 446.5,463.7 447.2,464.1 447.9,464.6 448.5,465.0 449.2,465.4 449.9,465.8 450.6,466.3 451.2,466.6 451.9,467.0 452.6,467.4 453.2,467.8 453.9,468.2 454.6,468.5 455.3,468.9 455.9,469.2 456.6,469.6 457.3,469.9 457.9,470.2 458.6,470.6 459.3,470.9 460.0,471.2 460.6,471.5 461.3,471.8 462.0,472.1 462.6,472.4 463.3,472.7 464.0,472.9 464.7,473.2 465.3,473.5 466.0,473.7 466.7,474.0 467.3,474.2 468.0,474.5 468.7,474.7 469.4,474.9 470.0,475.2 470.7,475.4 471.4,475.6 472.0,475.8 472.7,476.0 473.4,476.3 474.1,476.5 474.7,476.7 475.4,476.8 476.1,477.0 476.7,477.2 477.4,477.4 478.1,477.6 478.8,477.8 479.4,477.9 480.1,478.1 480.8,478.3 481.4,478.4 482.1,478.6 482.8,478.7 483.5,478.9 484.1,479.0 484.8,479.2 485.5,479.3 486.1,479.4 486.8,479.6 487.5,479.7 488.2,479.8 488.8,480.0 489.5,480.1 490.2,480.2 490.8,480.3 491.5,480.4 492.2,480.5 492.9,480.7 493.5,480.8 494.2,480.9 494.9,481.0 495.5,481.1 496.2,481.2 496.9,481.3 497.6,481.4 498.2,481.4 498.9,481.5 499.6,481.6 500.2,481.7 500.9,481.8 501.6,481.9 502.3,481.9 502.9,482.0 503.6,482.1 504.3,482.2 504.9,482.2 505.6,482.3 506.3,482.4 507.0,482.4 507.6,482.5 508.3,482.6 509.0,482.6 509.6,482.7 510.3,482.8 511.0,482.8 511.7,482.9 512.3,482.9 513.0,483.0 513.7,483.0 514.3,483.1 515.0,483.1 515.7,483.2 516.4,483.2 517.0,483.3 517.7,483.3 518.4,483.4 519.0,483.4 519.7,483.5 520.4,483.5 521.1,483.5 521.7,483.6 522.4,483.6 523.1,483.6 523.7,483.7 524.4,483.7 525.1,483.8 525.8,483.8 526.4,483.8 527.1,483.8 527.8,483.9 528.4,483.9 529.1,483.9 529.8,484.0 530.5,484.0 531.1,484.0 531.8,484.1 532.5,484.1 533.1,484.1 533.8,484.1 534.5,484.1 535.2,484.2 535.8,484.2 536.5,484.2 537.2,484.2 537.8,484.3 538.5,484.3 539.2,484.3 539.9,484.3 540.5,484.3 541.2,484.4 541.9,484.4 542.5,484.4 543.2,484.4 543.9,484.4 544.6,484.4 545.2,484.5 545.9,484.5 546.6,484.5 547.2,484.5 547.9,484.5 548.6,484.5 549.3,484.5 549.9,484.6 550.6,484.6 551.3,484.6 551.9,484.6 552.6,484.6 553.3,484.6 554.0,484.6 554.6,484.6 555.3,484.6 556.0,484.7 556.6,484.7 557.3,484.7 558.0,484.7 558.7,484.7 559.3,484.7 560.0,484.7" fill="none" stroke="#777872" stroke-width="2.2"/>
<polyline points="90.0,485.0 90.7,485.0 91.3,485.0 92.0,485.0 92.7,485.0 93.4,485.0 94.0,485.0 94.7,485.0 95.4,485.0 96.0,485.0 96.7,485.0 97.4,485.0 98.1,485.0 98.7,485.0 99.4,485.0 100.1,485.0 100.7,485.0 101.4,485.0 102.1,485.0 102.8,485.0 103.4,485.0 104.1,485.0 104.8,485.0 105.4,485.0 106.1,485.0 106.8,485.0 107.5,485.0 108.1,485.0 108.8,485.0 109.5,485.0 110.1,485.0 110.8,485.0 111.5,485.0 112.2,485.0 112.8,485.0 113.5,485.0 114.2,485.0 114.8,485.0 115.5,485.0 116.2,485.0 116.9,485.0 117.5,485.0 118.2,485.0 118.9,485.0 119.5,485.0 120.2,485.0 120.9,485.0 121.6,485.0 122.2,485.0 122.9,485.0 123.6,485.0 124.2,485.0 124.9,485.0 125.6,485.0 126.3,485.0 126.9,485.0 127.6,485.0 128.3,485.0 128.9,485.0 129.6,485.0 130.3,485.0 131.0,485.0 131.6,485.0 132.3,485.0 133.0,485.0 133.6,485.0 134.3,485.0 135.0,485.0 135.7,485.0 136.3,485.0 137.0,485.0 137.7,485.0 138.3,485.0 139.0,485.0 139.7,485.0 140.4,485.0 141.0,485.0 141.7,485.0 142.4,485.0 143.0,485.0 143.7,485.0 144.4,485.0 145.1,485.0 145.7,485.0 146.4,485.0 147.1,485.0 147.7,485.0 148.4,485.0 149.1,485.0 149.8,485.0 150.4,485.0 151.1,485.0 151.8,485.0 152.4,485.0 153.1,485.0 153.8,485.0 154.5,485.0 155.1,485.0 155.8,485.0 156.5,485.0 157.1,485.0 157.8,485.0 158.5,485.0 159.2,485.0 159.8,485.0 160.5,485.0 161.2,485.0 161.8,485.0 162.5,484.9 163.2,484.9 163.9,484.9 164.5,484.9 165.2,484.9 165.9,484.9 166.5,484.9 167.2,484.9 167.9,484.8 168.6,484.8 169.2,484.8 169.9,484.8 170.6,484.8 171.2,484.7 171.9,484.7 172.6,484.7 173.3,484.6 173.9,484.6 174.6,484.5 175.3,484.5 175.9,484.4 176.6,484.4 177.3,484.3 178.0,484.2 178.6,484.1 179.3,484.0 180.0,483.9 180.6,483.8 181.3,483.7 182.0,483.6 182.7,483.5 183.3,483.3 184.0,483.2 184.7,483.0 185.3,482.8 186.0,482.6 186.7,482.4 187.4,482.2 188.0,482.0 188.7,481.7 189.4,481.4 190.0,481.2 190.7,480.8 191.4,480.5 192.1,480.2 192.7,479.8 193.4,479.4 194.1,479.0 194.7,478.6 195.4,478.1 196.1,477.6 196.8,477.1 197.4,476.6 198.1,476.1 198.8,475.5 199.4,474.8 200.1,474.2 200.8,473.5 201.5,472.8 202.1,472.1 202.8,471.3 203.5,470.5 204.1,469.7 204.8,468.8 205.5,467.9 206.2,467.0 206.8,466.1 207.5,465.1 208.2,464.0 208.8,463.0 209.5,461.9 210.2,460.7 210.9,459.6 211.5,458.4 212.2,457.1 212.9,455.9 213.5,454.6 214.2,453.2 214.9,451.9 215.6,450.5 216.2,449.0 216.9,447.6 217.6,446.1 218.2,444.5 218.9,443.0 219.6,441.4 220.3,439.8 220.9,438.2 221.6,436.5 222.3,434.8 222.9,433.1 223.6,431.3 224.3,429.6 225.0,427.8 225.6,426.0 226.3,424.2 227.0,422.3 227.6,420.5 228.3,418.6 229.0,416.7 229.7,414.8 230.3,412.9 231.0,411.0 231.7,409.1 232.3,407.1 233.0,405.2 233.7,403.2 234.4,401.3 235.0,399.3 235.7,397.4 236.4,395.4 237.0,393.5 237.7,391.5 238.4,389.6 239.1,387.6 239.7,385.7 240.4,383.8 241.1,381.9 241.7,380.0 242.4,378.1 243.1,376.2 243.8,374.3 244.4,372.5 245.1,370.7 245.8,368.8 246.4,367.0 247.1,365.3 247.8,363.5 248.5,361.8 249.1,360.0 249.8,358.3 250.5,356.7 251.1,355.0 251.8,353.4 252.5,351.8 253.2,350.2 253.8,348.7 254.5,347.1 255.2,345.6 255.8,344.2 256.5,342.7 257.2,341.3 257.9,339.9 258.5,338.6 259.2,337.2 259.9,335.9 260.5,334.6 261.2,333.4 261.9,332.2 262.6,331.0 263.2,329.8 263.9,328.7 264.6,327.6 265.2,326.5 265.9,325.5 266.6,324.5 267.3,323.5 267.9,322.5 268.6,321.6 269.3,320.7 269.9,319.8 270.6,319.0 271.3,318.1 272.0,317.3 272.6,316.6 273.3,315.8 274.0,315.1 274.6,314.4 275.3,313.7 276.0,313.1 276.7,312.5 277.3,311.9 278.0,311.3 278.7,310.7 279.3,310.2 280.0,309.7 280.7,309.2 281.4,308.7 282.0,308.3 282.7,307.9 283.4,307.5 284.0,307.1 284.7,306.7 285.4,306.3 286.1,306.0 286.7,305.7 287.4,305.4 288.1,305.1 288.7,304.8 289.4,304.5 290.1,304.3 290.8,304.1 291.4,303.8 292.1,303.6 292.8,303.4 293.4,303.2 294.1,303.1 294.8,302.9 295.5,302.8 296.1,302.6 296.8,302.5 297.5,302.4 298.1,302.2 298.8,302.1 299.5,302.0 300.2,301.9 300.8,301.9 301.5,301.8 302.2,301.7 302.8,301.6 303.5,301.6 304.2,301.5 304.9,301.5 305.5,301.4 306.2,301.4 306.9,301.4 307.5,301.3 308.2,301.3 308.9,301.3 309.6,301.3 310.2,301.2 310.9,301.2 311.6,301.2 312.2,301.2 312.9,301.2 313.6,301.2 314.3,301.2 314.9,301.2 315.6,301.1 316.3,301.1 316.9,301.1 317.6,301.1 318.3,301.1 319.0,301.1 319.6,301.1 320.3,301.1 321.0,301.1 321.6,301.1 322.3,301.1 323.0,301.1 323.7,301.1 324.3,301.1 325.0,301.1 325.7,301.1 326.3,301.1 327.0,301.1 327.7,301.1 328.4,301.1 329.0,301.1 329.7,301.1 330.4,301.1 331.0,301.1 331.7,301.1 332.4,301.1 333.1,301.1 333.7,301.1 334.4,301.1 335.1,301.2 335.7,301.2 336.4,301.2 337.1,301.2 337.8,301.2 338.4,301.2 339.1,301.2 339.8,301.2 340.4,301.3 341.1,301.3 341.8,301.3 342.5,301.3 343.1,301.4 343.8,301.4 344.5,301.4 345.1,301.5 345.8,301.5 346.5,301.6 347.2,301.6 347.8,301.7 348.5,301.8 349.2,301.9 349.8,301.9 350.5,302.0 351.2,302.1 351.9,302.2 352.5,302.4 353.2,302.5 353.9,302.6 354.5,302.8 355.2,302.9 355.9,303.1 356.6,303.2 357.2,303.4 357.9,303.6 358.6,303.8 359.2,304.1 359.9,304.3 360.6,304.5 361.3,304.8 361.9,305.1 362.6,305.4 363.3,305.7 363.9,306.0 364.6,306.3 365.3,306.7 366.0,307.1 366.6,307.5 367.3,307.9 368.0,308.3 368.6,308.7 369.3,309.2 370.0,309.7 370.7,310.2 371.3,310.7 372.0,311.3 372.7,311.9 373.3,312.5 374.0,313.1 374.7,313.7 375.4,314.4 376.0,315.1 376.7,315.8 377.4,316.6 378.0,317.3 378.7,318.1 379.4,319.0 380.1,319.8 380.7,320.7 381.4,321.6 382.1,322.5 382.7,323.5 383.4,324.5 384.1,325.5 384.8,326.5 385.4,327.6 386.1,328.7 386.8,329.8 387.4,331.0 388.1,332.2 388.8,333.4 389.5,334.6 390.1,335.9 390.8,337.2 391.5,338.6 392.1,339.9 392.8,341.3 393.5,342.7 394.2,344.2 394.8,345.6 395.5,347.1 396.2,348.7 396.8,350.2 397.5,351.8 398.2,353.4 398.9,355.0 399.5,356.7 400.2,358.3 400.9,360.0 401.5,361.8 402.2,363.5 402.9,365.3 403.6,367.0 404.2,368.8 404.9,370.7 405.6,372.5 406.2,374.3 406.9,376.2 407.6,378.1 408.3,380.0 408.9,381.9 409.6,383.8 410.3,385.7 410.9,387.6 411.6,389.6 412.3,391.5 413.0,393.5 413.6,395.4 414.3,397.4 415.0,399.3 415.6,401.3 416.3,403.2 417.0,405.2 417.7,407.1 418.3,409.1 419.0,411.0 419.7,412.9 420.3,414.8 421.0,416.7 421.7,418.6 422.4,420.5 423.0,422.3 423.7,424.2 424.4,426.0 425.0,427.8 425.7,429.6 426.4,431.3 427.1,433.1 427.7,434.8 428.4,436.5 429.1,438.2 429.7,439.8 430.4,441.4 431.1,443.0 431.8,444.5 432.4,446.1 433.1,447.6 433.8,449.0 434.4,450.5 435.1,451.9 435.8,453.2 436.5,454.6 437.1,455.9 437.8,457.1 438.5,458.4 439.1,459.6 439.8,460.7 440.5,461.9 441.2,463.0 441.8,464.0 442.5,465.1 443.2,466.1 443.8,467.0 444.5,467.9 445.2,468.8 445.9,469.7 446.5,470.5 447.2,471.3 447.9,472.1 448.5,472.8 449.2,473.5 449.9,474.2 450.6,474.8 451.2,475.5 451.9,476.1 452.6,476.6 453.2,477.1 453.9,477.6 454.6,478.1 455.3,478.6 455.9,479.0 456.6,479.4 457.3,479.8 457.9,480.2 458.6,480.5 459.3,480.8 460.0,481.2 460.6,481.4 461.3,481.7 462.0,482.0 462.6,482.2 463.3,482.4 464.0,482.6 464.7,482.8 465.3,483.0 466.0,483.2 466.7,483.3 467.3,483.5 468.0,483.6 468.7,483.7 469.4,483.8 470.0,483.9 470.7,484.0 471.4,484.1 472.0,484.2 472.7,484.3 473.4,484.4 474.1,484.4 474.7,484.5 475.4,484.5 476.1,484.6 476.7,484.6 477.4,484.7 478.1,484.7 478.8,484.7 479.4,484.8 480.1,484.8 480.8,484.8 481.4,484.8 482.1,484.8 482.8,484.9 483.5,484.9 484.1,484.9 484.8,484.9 485.5,484.9 486.1,484.9 486.8,484.9 487.5,484.9 488.2,485.0 488.8,485.0 489.5,485.0 490.2,485.0 490.8,485.0 491.5,485.0 492.2,485.0 492.9,485.0 493.5,485.0 494.2,485.0 494.9,485.0 495.5,485.0 496.2,485.0 496.9,485.0 497.6,485.0 498.2,485.0 498.9,485.0 499.6,485.0 500.2,485.0 500.9,485.0 501.6,485.0 502.3,485.0 502.9,485.0 503.6,485.0 504.3,485.0 504.9,485.0 505.6,485.0 506.3,485.0 507.0,485.0 507.6,485.0 508.3,485.0 509.0,485.0 509.6,485.0 510.3,485.0 511.0,485.0 511.7,485.0 512.3,485.0 513.0,485.0 513.7,485.0 514.3,485.0 515.0,485.0 515.7,485.0 516.4,485.0 517.0,485.0 517.7,485.0 518.4,485.0 519.0,485.0 519.7,485.0 520.4,485.0 521.1,485.0 521.7,485.0 522.4,485.0 523.1,485.0 523.7,485.0 524.4,485.0 525.1,485.0 525.8,485.0 526.4,485.0 527.1,485.0 527.8,485.0 528.4,485.0 529.1,485.0 529.8,485.0 530.5,485.0 531.1,485.0 531.8,485.0 532.5,485.0 533.1,485.0 533.8,485.0 534.5,485.0 535.2,485.0 535.8,485.0 536.5,485.0 537.2,485.0 537.8,485.0 538.5,485.0 539.2,485.0 539.9,485.0 540.5,485.0 541.2,485.0 541.9,485.0 542.5,485.0 543.2,485.0 543.9,485.0 544.6,485.0 545.2,485.0 545.9,485.0 546.6,485.0 547.2,485.0 547.9,485.0 548.6,485.0 549.3,485.0 549.9,485.0 550.6,485.0 551.3,485.0 551.9,485.0 552.6,485.0 553.3,485.0 554.0,485.0 554.6,485.0 555.3,485.0 556.0,485.0 556.6,485.0 557.3,485.0 558.0,485.0 558.7,485.0 559.3,485.0 560.0,485.0" fill="none" stroke="#111" stroke-width="2.2"/>
<polyline points="90.0,485.0 90.7,485.0 91.3,485.0 92.0,485.0 92.7,485.0 93.4,485.0 94.0,485.0 94.7,485.0 95.4,484.9 96.0,484.9 96.7,484.9 97.4,484.9 98.1,484.9 98.7,484.9 99.4,484.9 100.1,484.9 100.7,484.9 101.4,484.9 102.1,484.9 102.8,484.9 103.4,484.9 104.1,484.9 104.8,484.9 105.4,484.9 106.1,484.9 106.8,484.9 107.5,484.9 108.1,484.9 108.8,484.9 109.5,484.9 110.1,484.9 110.8,484.8 111.5,484.8 112.2,484.8 112.8,484.8 113.5,484.8 114.2,484.8 114.8,484.8 115.5,484.8 116.2,484.8 116.9,484.8 117.5,484.8 118.2,484.8 118.9,484.7 119.5,484.7 120.2,484.7 120.9,484.7 121.6,484.7 122.2,484.7 122.9,484.7 123.6,484.6 124.2,484.6 124.9,484.6 125.6,484.6 126.3,484.6 126.9,484.6 127.6,484.5 128.3,484.5 128.9,484.5 129.6,484.5 130.3,484.5 131.0,484.4 131.6,484.4 132.3,484.4 133.0,484.4 133.6,484.3 134.3,484.3 135.0,484.3 135.7,484.3 136.3,484.2 137.0,484.2 137.7,484.2 138.3,484.1 139.0,484.1 139.7,484.1 140.4,484.0 141.0,484.0 141.7,483.9 142.4,483.9 143.0,483.8 143.7,483.8 144.4,483.8 145.1,483.7 145.7,483.7 146.4,483.6 147.1,483.5 147.7,483.5 148.4,483.4 149.1,483.4 149.8,483.3 150.4,483.2 151.1,483.2 151.8,483.1 152.4,483.0 153.1,483.0 153.8,482.9 154.5,482.8 155.1,482.7 155.8,482.6 156.5,482.5 157.1,482.5 157.8,482.4 158.5,482.3 159.2,482.2 159.8,482.1 160.5,482.0 161.2,481.9 161.8,481.7 162.5,481.6 163.2,481.5 163.9,481.4 164.5,481.3 165.2,481.1 165.9,481.0 166.5,480.9 167.2,480.7 167.9,480.6 168.6,480.4 169.2,480.3 169.9,480.1 170.6,479.9 171.2,479.8 171.9,479.6 172.6,479.4 173.3,479.2 173.9,479.0 174.6,478.8 175.3,478.6 175.9,478.4 176.6,478.2 177.3,478.0 178.0,477.8 178.6,477.5 179.3,477.3 180.0,477.0 180.6,476.8 181.3,476.5 182.0,476.3 182.7,476.0 183.3,475.7 184.0,475.4 184.7,475.1 185.3,474.8 186.0,474.5 186.7,474.2 187.4,473.9 188.0,473.6 188.7,473.2 189.4,472.9 190.0,472.5 190.7,472.2 191.4,471.8 192.1,471.4 192.7,471.0 193.4,470.6 194.1,470.2 194.7,469.8 195.4,469.3 196.1,468.9 196.8,468.5 197.4,468.0 198.1,467.5 198.8,467.0 199.4,466.6 200.1,466.1 200.8,465.5 201.5,465.0 202.1,464.5 202.8,463.9 203.5,463.4 204.1,462.8 204.8,462.2 205.5,461.6 206.2,461.0 206.8,460.4 207.5,459.8 208.2,459.1 208.8,458.5 209.5,457.8 210.2,457.1 210.9,456.4 211.5,455.7 212.2,455.0 212.9,454.3 213.5,453.5 214.2,452.8 214.9,452.0 215.6,451.2 216.2,450.4 216.9,449.6 217.6,448.8 218.2,447.9 218.9,447.1 219.6,446.2 220.3,445.3 220.9,444.4 221.6,443.5 222.3,442.6 222.9,441.7 223.6,440.7 224.3,439.7 225.0,438.8 225.6,437.8 226.3,436.7 227.0,435.7 227.6,434.7 228.3,433.6 229.0,432.5 229.7,431.4 230.3,430.3 231.0,429.2 231.7,428.1 232.3,426.9 233.0,425.8 233.7,424.6 234.4,423.4 235.0,422.2 235.7,421.0 236.4,419.8 237.0,418.5 237.7,417.3 238.4,416.0 239.1,414.7 239.7,413.4 240.4,412.1 241.1,410.7 241.7,409.4 242.4,408.0 243.1,406.7 243.8,405.3 244.4,403.9 245.1,402.5 245.8,401.1 246.4,399.6 247.1,398.2 247.8,396.7 248.5,395.3 249.1,393.8 249.8,392.3 250.5,390.8 251.1,389.3 251.8,387.8 252.5,386.2 253.2,384.7 253.8,383.1 254.5,381.6 255.2,380.0 255.8,378.4 256.5,376.9 257.2,375.3 257.9,373.7 258.5,372.1 259.2,370.4 259.9,368.8 260.5,367.2 261.2,365.6 261.9,363.9 262.6,362.3 263.2,360.6 263.9,359.0 264.6,357.3 265.2,355.7 265.9,354.0 266.6,352.4 267.3,350.7 267.9,349.0 268.6,347.4 269.3,345.7 269.9,344.1 270.6,342.4 271.3,340.7 272.0,339.1 272.6,337.4 273.3,335.7 274.0,334.1 274.6,332.4 275.3,330.8 276.0,329.2 276.7,327.5 277.3,325.9 278.0,324.3 278.7,322.7 279.3,321.0 280.0,319.4 280.7,317.8 281.4,316.3 282.0,314.7 282.7,313.1 283.4,311.6 284.0,310.0 284.7,308.5 285.4,307.0 286.1,305.5 286.7,304.0 287.4,302.5 288.1,301.0 288.7,299.6 289.4,298.2 290.1,296.7 290.8,295.3 291.4,294.0 292.1,292.6 292.8,291.2 293.4,289.9 294.1,288.6 294.8,287.3 295.5,286.0 296.1,284.8 296.8,283.6 297.5,282.3 298.1,281.2 298.8,280.0 299.5,278.9 300.2,277.7 300.8,276.7 301.5,275.6 302.2,274.5 302.8,273.5 303.5,272.5 304.2,271.6 304.9,270.6 305.5,269.7 306.2,268.8 306.9,268.0 307.5,267.1 308.2,266.3 308.9,265.6 309.6,264.8 310.2,264.1 310.9,263.4 311.6,262.8 312.2,262.1 312.9,261.5 313.6,261.0 314.3,260.5 314.9,259.9 315.6,259.5 316.3,259.0 316.9,258.6 317.6,258.3 318.3,257.9 319.0,257.6 319.6,257.3 320.3,257.1 321.0,256.9 321.6,256.7 322.3,256.5 323.0,256.4 323.7,256.3 324.3,256.3 325.0,256.3 325.7,256.3 326.3,256.3 327.0,256.4 327.7,256.5 328.4,256.7 329.0,256.9 329.7,257.1 330.4,257.3 331.0,257.6 331.7,257.9 332.4,258.3 333.1,258.6 333.7,259.0 334.4,259.5 335.1,259.9 335.7,260.5 336.4,261.0 337.1,261.5 337.8,262.1 338.4,262.8 339.1,263.4 339.8,264.1 340.4,264.8 341.1,265.6 341.8,266.3 342.5,267.1 343.1,268.0 343.8,268.8 344.5,269.7 345.1,270.6 345.8,271.6 346.5,272.5 347.2,273.5 347.8,274.5 348.5,275.6 349.2,276.7 349.8,277.7 350.5,278.9 351.2,280.0 351.9,281.2 352.5,282.3 353.2,283.6 353.9,284.8 354.5,286.0 355.2,287.3 355.9,288.6 356.6,289.9 357.2,291.2 357.9,292.6 358.6,294.0 359.2,295.3 359.9,296.7 360.6,298.2 361.3,299.6 361.9,301.0 362.6,302.5 363.3,304.0 363.9,305.5 364.6,307.0 365.3,308.5 366.0,310.0 366.6,311.6 367.3,313.1 368.0,314.7 368.6,316.3 369.3,317.8 370.0,319.4 370.7,321.0 371.3,322.7 372.0,324.3 372.7,325.9 373.3,327.5 374.0,329.2 374.7,330.8 375.4,332.4 376.0,334.1 376.7,335.7 377.4,337.4 378.0,339.1 378.7,340.7 379.4,342.4 380.1,344.1 380.7,345.7 381.4,347.4 382.1,349.0 382.7,350.7 383.4,352.4 384.1,354.0 384.8,355.7 385.4,357.3 386.1,359.0 386.8,360.6 387.4,362.3 388.1,363.9 388.8,365.6 389.5,367.2 390.1,368.8 390.8,370.4 391.5,372.1 392.1,373.7 392.8,375.3 393.5,376.9 394.2,378.4 394.8,380.0 395.5,381.6 396.2,383.1 396.8,384.7 397.5,386.2 398.2,387.8 398.9,389.3 399.5,390.8 400.2,392.3 400.9,393.8 401.5,395.3 402.2,396.7 402.9,398.2 403.6,399.6 404.2,401.1 404.9,402.5 405.6,403.9 406.2,405.3 406.9,406.7 407.6,408.0 408.3,409.4 408.9,410.7 409.6,412.1 410.3,413.4 410.9,414.7 411.6,416.0 412.3,417.3 413.0,418.5 413.6,419.8 414.3,421.0 415.0,422.2 415.6,423.4 416.3,424.6 417.0,425.8 417.7,426.9 418.3,428.1 419.0,429.2 419.7,430.3 420.3,431.4 421.0,432.5 421.7,433.6 422.4,434.7 423.0,435.7 423.7,436.7 424.4,437.8 425.0,438.8 425.7,439.7 426.4,440.7 427.1,441.7 427.7,442.6 428.4,443.5 429.1,444.4 429.7,445.3 430.4,446.2 431.1,447.1 431.8,447.9 432.4,448.8 433.1,449.6 433.8,450.4 434.4,451.2 435.1,452.0 435.8,452.8 436.5,453.5 437.1,454.3 437.8,455.0 438.5,455.7 439.1,456.4 439.8,457.1 440.5,457.8 441.2,458.5 441.8,459.1 442.5,459.8 443.2,460.4 443.8,461.0 444.5,461.6 445.2,462.2 445.9,462.8 446.5,463.4 447.2,463.9 447.9,464.5 448.5,465.0 449.2,465.5 449.9,466.1 450.6,466.6 451.2,467.0 451.9,467.5 452.6,468.0 453.2,468.5 453.9,468.9 454.6,469.3 455.3,469.8 455.9,470.2 456.6,470.6 457.3,471.0 457.9,471.4 458.6,471.8 459.3,472.2 460.0,472.5 460.6,472.9 461.3,473.2 462.0,473.6 462.6,473.9 463.3,474.2 464.0,474.5 464.7,474.8 465.3,475.1 466.0,475.4 466.7,475.7 467.3,476.0 468.0,476.3 468.7,476.5 469.4,476.8 470.0,477.0 470.7,477.3 471.4,477.5 472.0,477.8 472.7,478.0 473.4,478.2 474.1,478.4 474.7,478.6 475.4,478.8 476.1,479.0 476.7,479.2 477.4,479.4 478.1,479.6 478.8,479.8 479.4,479.9 480.1,480.1 480.8,480.3 481.4,480.4 482.1,480.6 482.8,480.7 483.5,480.9 484.1,481.0 484.8,481.1 485.5,481.3 486.1,481.4 486.8,481.5 487.5,481.6 488.2,481.7 488.8,481.9 489.5,482.0 490.2,482.1 490.8,482.2 491.5,482.3 492.2,482.4 492.9,482.5 493.5,482.5 494.2,482.6 494.9,482.7 495.5,482.8 496.2,482.9 496.9,483.0 497.6,483.0 498.2,483.1 498.9,483.2 499.6,483.2 500.2,483.3 500.9,483.4 501.6,483.4 502.3,483.5 502.9,483.5 503.6,483.6 504.3,483.7 504.9,483.7 505.6,483.8 506.3,483.8 507.0,483.8 507.6,483.9 508.3,483.9 509.0,484.0 509.6,484.0 510.3,484.1 511.0,484.1 511.7,484.1 512.3,484.2 513.0,484.2 513.7,484.2 514.3,484.3 515.0,484.3 515.7,484.3 516.4,484.3 517.0,484.4 517.7,484.4 518.4,484.4 519.0,484.4 519.7,484.5 520.4,484.5 521.1,484.5 521.7,484.5 522.4,484.5 523.1,484.6 523.7,484.6 524.4,484.6 525.1,484.6 525.8,484.6 526.4,484.6 527.1,484.7 527.8,484.7 528.4,484.7 529.1,484.7 529.8,484.7 530.5,484.7 531.1,484.7 531.8,484.8 532.5,484.8 533.1,484.8 533.8,484.8 534.5,484.8 535.2,484.8 535.8,484.8 536.5,484.8 537.2,484.8 537.8,484.8 538.5,484.8 539.2,484.8 539.9,484.9 540.5,484.9 541.2,484.9 541.9,484.9 542.5,484.9 543.2,484.9 543.9,484.9 544.6,484.9 545.2,484.9 545.9,484.9 546.6,484.9 547.2,484.9 547.9,484.9 548.6,484.9 549.3,484.9 549.9,484.9 550.6,484.9 551.3,484.9 551.9,484.9 552.6,484.9 553.3,484.9 554.0,484.9 554.6,484.9 555.3,485.0 556.0,485.0 556.6,485.0 557.3,485.0 558.0,485.0 558.7,485.0 559.3,485.0 560.0,485.0" fill="none" stroke="#6670ee" stroke-width="4.0"/>
<line x1="112" y1="79" x2="152" y2="79" stroke="#6670ee" stroke-width="4"/>
<text x="162.0" y="85.0" text-anchor="start" font-family="-apple-system,BlinkMacSystemFont,PingFang SC,Noto Sans CJK SC,sans-serif" font-size="16" font-weight="400" fill="#263f86">高斯分布（β = 2）</text>
<rect x="690" y="55" width="420" height="430" fill="#fff" stroke="#d9d5c8"/>
<line x1="690.0" y1="485" x2="690.0" y2="492" stroke="#30332e"/>
<text x="690.0" y="516.0" text-anchor="middle" font-family="-apple-system,BlinkMacSystemFont,PingFang SC,Noto Sans CJK SC,sans-serif" font-size="15" font-weight="400" fill="#30332e">1.0</text>
<line x1="760.0" y1="485" x2="760.0" y2="492" stroke="#30332e"/>
<text x="760.0" y="516.0" text-anchor="middle" font-family="-apple-system,BlinkMacSystemFont,PingFang SC,Noto Sans CJK SC,sans-serif" font-size="15" font-weight="400" fill="#30332e">1.5</text>
<line x1="830.0" y1="485" x2="830.0" y2="492" stroke="#30332e"/>
<text x="830.0" y="516.0" text-anchor="middle" font-family="-apple-system,BlinkMacSystemFont,PingFang SC,Noto Sans CJK SC,sans-serif" font-size="15" font-weight="400" fill="#30332e">2.0</text>
<line x1="900.0" y1="485" x2="900.0" y2="492" stroke="#30332e"/>
<text x="900.0" y="516.0" text-anchor="middle" font-family="-apple-system,BlinkMacSystemFont,PingFang SC,Noto Sans CJK SC,sans-serif" font-size="15" font-weight="400" fill="#30332e">2.5</text>
<line x1="970.0" y1="485" x2="970.0" y2="492" stroke="#30332e"/>
<text x="970.0" y="516.0" text-anchor="middle" font-family="-apple-system,BlinkMacSystemFont,PingFang SC,Noto Sans CJK SC,sans-serif" font-size="15" font-weight="400" fill="#30332e">3.0</text>
<line x1="1040.0" y1="485" x2="1040.0" y2="492" stroke="#30332e"/>
<text x="1040.0" y="516.0" text-anchor="middle" font-family="-apple-system,BlinkMacSystemFont,PingFang SC,Noto Sans CJK SC,sans-serif" font-size="15" font-weight="400" fill="#30332e">3.5</text>
<line x1="1110.0" y1="485" x2="1110.0" y2="492" stroke="#30332e"/>
<text x="1110.0" y="516.0" text-anchor="middle" font-family="-apple-system,BlinkMacSystemFont,PingFang SC,Noto Sans CJK SC,sans-serif" font-size="15" font-weight="400" fill="#30332e">4.0</text>
<line x1="683" y1="458.1" x2="690" y2="458.1" stroke="#30332e"/>
<text x="677.0" y="463.1" text-anchor="end" font-family="-apple-system,BlinkMacSystemFont,PingFang SC,Noto Sans CJK SC,sans-serif" font-size="15" font-weight="400" fill="#30332e">1.35</text>
<line x1="683" y1="350.6" x2="690" y2="350.6" stroke="#30332e"/>
<text x="677.0" y="355.6" text-anchor="end" font-family="-apple-system,BlinkMacSystemFont,PingFang SC,Noto Sans CJK SC,sans-serif" font-size="15" font-weight="400" fill="#30332e">1.37</text>
<line x1="683" y1="243.1" x2="690" y2="243.1" stroke="#30332e"/>
<text x="677.0" y="248.1" text-anchor="end" font-family="-apple-system,BlinkMacSystemFont,PingFang SC,Noto Sans CJK SC,sans-serif" font-size="15" font-weight="400" fill="#30332e">1.39</text>
<line x1="683" y1="135.6" x2="690" y2="135.6" stroke="#30332e"/>
<text x="677.0" y="140.6" text-anchor="end" font-family="-apple-system,BlinkMacSystemFont,PingFang SC,Noto Sans CJK SC,sans-serif" font-size="15" font-weight="400" fill="#30332e">1.41</text>
<polyline points="690.0,476.5 690.7,469.9 691.4,463.3 692.1,456.9 692.8,450.5 693.5,444.3 694.2,438.1 694.9,432.1 695.6,426.1 696.3,420.3 697.0,414.5 697.7,408.8 698.4,403.2 699.1,397.7 699.8,392.3 700.5,387.0 701.2,381.8 701.9,376.6 702.6,371.5 703.3,366.5 704.0,361.6 704.7,356.8 705.4,352.0 706.1,347.3 706.8,342.7 707.5,338.1 708.2,333.7 708.9,329.3 709.6,324.9 710.3,320.7 711.0,316.5 711.7,312.3 712.4,308.2 713.1,304.2 713.8,300.3 714.5,296.4 715.2,292.6 715.9,288.8 716.6,285.1 717.3,281.5 718.0,277.9 718.7,274.4 719.4,270.9 720.1,267.4 720.8,264.1 721.5,260.8 722.2,257.5 722.9,254.3 723.6,251.1 724.3,248.0 725.0,244.9 725.7,241.9 726.4,238.9 727.1,236.0 727.8,233.1 728.5,230.3 729.2,227.5 729.9,224.8 730.6,222.1 731.3,219.4 732.0,216.8 732.7,214.2 733.4,211.7 734.1,209.2 734.8,206.7 735.5,204.3 736.2,202.0 736.9,199.6 737.6,197.3 738.3,195.0 739.0,192.8 739.7,190.6 740.4,188.5 741.1,186.4 741.8,184.3 742.5,182.2 743.2,180.2 743.9,178.2 744.6,176.2 745.3,174.3 746.0,172.4 746.7,170.6 747.4,168.7 748.1,166.9 748.8,165.2 749.5,163.4 750.2,161.7 750.9,160.0 751.6,158.4 752.3,156.8 753.0,155.2 753.7,153.6 754.4,152.0 755.1,150.5 755.8,149.0 756.5,147.6 757.2,146.1 757.9,144.7 758.6,143.3 759.3,141.9 760.0,140.6 760.7,139.3 761.4,138.0 762.1,136.7 762.8,135.5 763.5,134.2 764.2,133.0 764.9,131.8 765.6,130.7 766.3,129.5 767.0,128.4 767.7,127.3 768.4,126.2 769.1,125.2 769.8,124.1 770.5,123.1 771.2,122.1 771.9,121.1 772.6,120.2 773.3,119.2 774.0,118.3 774.7,117.4 775.4,116.5 776.1,115.6 776.8,114.8 777.5,113.9 778.2,113.1 778.9,112.3 779.6,111.5 780.3,110.8 781.0,110.0 781.7,109.3 782.4,108.5 783.1,107.8 783.8,107.1 784.5,106.5 785.2,105.8 785.9,105.2 786.6,104.5 787.3,103.9 788.0,103.3 788.7,102.7 789.4,102.1 790.1,101.6 790.8,101.0 791.5,100.5 792.2,100.0 792.9,99.5 793.6,99.0 794.3,98.5 795.0,98.0 795.7,97.6 796.4,97.1 797.1,96.7 797.8,96.3 798.5,95.8 799.2,95.4 799.9,95.1 800.6,94.7 801.3,94.3 802.0,94.0 802.7,93.6 803.4,93.3 804.1,93.0 804.8,92.7 805.5,92.4 806.2,92.1 806.9,91.8 807.6,91.5 808.3,91.3 809.0,91.0 809.7,90.8 810.4,90.6 811.1,90.3 811.8,90.1 812.5,89.9 813.2,89.7 813.9,89.5 814.6,89.4 815.3,89.2 816.0,89.0 816.7,88.9 817.4,88.8 818.1,88.6 818.8,88.5 819.5,88.4 820.2,88.3 820.9,88.2 821.6,88.1 822.3,88.0 823.0,87.9 823.7,87.9 824.4,87.8 825.1,87.8 825.8,87.7 826.5,87.7 827.2,87.6 827.9,87.6 828.6,87.6 829.3,87.6 830.0,87.6 830.7,87.6 831.4,87.6 832.1,87.6 832.8,87.6 833.5,87.7 834.2,87.7 834.9,87.7 835.6,87.8 836.3,87.8 837.0,87.9 837.7,88.0 838.4,88.0 839.1,88.1 839.8,88.2 840.5,88.3 841.2,88.4 841.9,88.5 842.6,88.6 843.3,88.7 844.0,88.8 844.7,89.0 845.4,89.1 846.1,89.2 846.8,89.4 847.5,89.5 848.2,89.6 848.9,89.8 849.6,90.0 850.3,90.1 851.0,90.3 851.7,90.5 852.4,90.6 853.1,90.8 853.8,91.0 854.5,91.2 855.2,91.4 855.9,91.6 856.6,91.8 857.3,92.0 858.0,92.2 858.7,92.4 859.4,92.7 860.1,92.9 860.8,93.1 861.5,93.3 862.2,93.6 862.9,93.8 863.6,94.1 864.3,94.3 865.0,94.6 865.7,94.8 866.4,95.1 867.1,95.3 867.8,95.6 868.5,95.9 869.2,96.2 869.9,96.4 870.6,96.7 871.3,97.0 872.0,97.3 872.7,97.6 873.4,97.9 874.1,98.2 874.8,98.5 875.5,98.8 876.2,99.1 876.9,99.4 877.6,99.7 878.3,100.0 879.0,100.3 879.7,100.7 880.4,101.0 881.1,101.3 881.8,101.6 882.5,102.0 883.2,102.3 883.9,102.7 884.6,103.0 885.3,103.3 886.0,103.7 886.7,104.0 887.4,104.4 888.1,104.7 888.8,105.1 889.5,105.5 890.2,105.8 890.9,106.2 891.6,106.5 892.3,106.9 893.0,107.3 893.7,107.7 894.4,108.0 895.1,108.4 895.8,108.8 896.5,109.2 897.2,109.6 897.9,109.9 898.6,110.3 899.3,110.7 900.0,111.1 900.7,111.5 901.4,111.9 902.1,112.3 902.8,112.7 903.5,113.1 904.2,113.5 904.9,113.9 905.6,114.3 906.3,114.7 907.0,115.1 907.7,115.6 908.4,116.0 909.1,116.4 909.8,116.8 910.5,117.2 911.2,117.6 911.9,118.1 912.6,118.5 913.3,118.9 914.0,119.3 914.7,119.8 915.4,120.2 916.1,120.6 916.8,121.1 917.5,121.5 918.2,121.9 918.9,122.4 919.6,122.8 920.3,123.3 921.0,123.7 921.7,124.2 922.4,124.6 923.1,125.0 923.8,125.5 924.5,125.9 925.2,126.4 925.9,126.8 926.6,127.3 927.3,127.8 928.0,128.2 928.7,128.7 929.4,129.1 930.1,129.6 930.8,130.0 931.5,130.5 932.2,131.0 932.9,131.4 933.6,131.9 934.3,132.4 935.0,132.8 935.7,133.3 936.4,133.8 937.1,134.2 937.8,134.7 938.5,135.2 939.2,135.6 939.9,136.1 940.6,136.6 941.3,137.1 942.0,137.5 942.7,138.0 943.4,138.5 944.1,139.0 944.8,139.4 945.5,139.9 946.2,140.4 946.9,140.9 947.6,141.4 948.3,141.8 949.0,142.3 949.7,142.8 950.4,143.3 951.1,143.8 951.8,144.3 952.5,144.8 953.2,145.2 953.9,145.7 954.6,146.2 955.3,146.7 956.0,147.2 956.7,147.7 957.4,148.2 958.1,148.7 958.8,149.2 959.5,149.7 960.2,150.2 960.9,150.7 961.6,151.2 962.3,151.6 963.0,152.1 963.7,152.6 964.4,153.1 965.1,153.6 965.8,154.1 966.5,154.6 967.2,155.1 967.9,155.6 968.6,156.1 969.3,156.6 970.0,157.1 970.7,157.6 971.4,158.1 972.1,158.6 972.8,159.1 973.5,159.6 974.2,160.1 974.9,160.6 975.6,161.1 976.3,161.7 977.0,162.2 977.7,162.7 978.4,163.2 979.1,163.7 979.8,164.2 980.5,164.7 981.2,165.2 981.9,165.7 982.6,166.2 983.3,166.7 984.0,167.2 984.7,167.7 985.4,168.2 986.1,168.7 986.8,169.3 987.5,169.8 988.2,170.3 988.9,170.8 989.6,171.3 990.3,171.8 991.0,172.3 991.7,172.8 992.4,173.3 993.1,173.8 993.8,174.4 994.5,174.9 995.2,175.4 995.9,175.9 996.6,176.4 997.3,176.9 998.0,177.4 998.7,177.9 999.4,178.4 1000.1,179.0 1000.8,179.5 1001.5,180.0 1002.2,180.5 1002.9,181.0 1003.6,181.5 1004.3,182.0 1005.0,182.5 1005.7,183.0 1006.4,183.6 1007.1,184.1 1007.8,184.6 1008.5,185.1 1009.2,185.6 1009.9,186.1 1010.6,186.6 1011.3,187.1 1012.0,187.7 1012.7,188.2 1013.4,188.7 1014.1,189.2 1014.8,189.7 1015.5,190.2 1016.2,190.7 1016.9,191.2 1017.6,191.8 1018.3,192.3 1019.0,192.8 1019.7,193.3 1020.4,193.8 1021.1,194.3 1021.8,194.8 1022.5,195.3 1023.2,195.9 1023.9,196.4 1024.6,196.9 1025.3,197.4 1026.0,197.9 1026.7,198.4 1027.4,198.9 1028.1,199.4 1028.8,200.0 1029.5,200.5 1030.2,201.0 1030.9,201.5 1031.6,202.0 1032.3,202.5 1033.0,203.0 1033.7,203.5 1034.4,204.0 1035.1,204.6 1035.8,205.1 1036.5,205.6 1037.2,206.1 1037.9,206.6 1038.6,207.1 1039.3,207.6 1040.0,208.1 1040.7,208.6 1041.4,209.1 1042.1,209.7 1042.8,210.2 1043.5,210.7 1044.2,211.2 1044.9,211.7 1045.6,212.2 1046.3,212.7 1047.0,213.2 1047.7,213.7 1048.4,214.2 1049.1,214.7 1049.8,215.2 1050.5,215.8 1051.2,216.3 1051.9,216.8 1052.6,217.3 1053.3,217.8 1054.0,218.3 1054.7,218.8 1055.4,219.3 1056.1,219.8 1056.8,220.3 1057.5,220.8 1058.2,221.3 1058.9,221.8 1059.6,222.3 1060.3,222.8 1061.0,223.3 1061.7,223.8 1062.4,224.3 1063.1,224.8 1063.8,225.4 1064.5,225.9 1065.2,226.4 1065.9,226.9 1066.6,227.4 1067.3,227.9 1068.0,228.4 1068.7,228.9 1069.4,229.4 1070.1,229.9 1070.8,230.4 1071.5,230.9 1072.2,231.4 1072.9,231.9 1073.6,232.4 1074.3,232.9 1075.0,233.4 1075.7,233.9 1076.4,234.4 1077.1,234.9 1077.8,235.4 1078.5,235.9 1079.2,236.4 1079.9,236.8 1080.6,237.3 1081.3,237.8 1082.0,238.3 1082.7,238.8 1083.4,239.3 1084.1,239.8 1084.8,240.3 1085.5,240.8 1086.2,241.3 1086.9,241.8 1087.6,242.3 1088.3,242.8 1089.0,243.3 1089.7,243.8 1090.4,244.3 1091.1,244.8 1091.8,245.3 1092.5,245.7 1093.2,246.2 1093.9,246.7 1094.6,247.2 1095.3,247.7 1096.0,248.2 1096.7,248.7 1097.4,249.2 1098.1,249.7 1098.8,250.2 1099.5,250.6 1100.2,251.1 1100.9,251.6 1101.6,252.1 1102.3,252.6 1103.0,253.1 1103.7,253.6 1104.4,254.1 1105.1,254.5 1105.8,255.0 1106.5,255.5 1107.2,256.0 1107.9,256.5 1108.6,257.0 1109.3,257.4 1110.0,257.9" fill="none" stroke="#6670ee" stroke-width="4"/>
<line x1="830.0" y1="55" x2="830.0" y2="485" stroke="#30332e" stroke-width="2" stroke-dasharray="8 7"/>
<text x="900.0" y="565.0" text-anchor="middle" font-family="-apple-system,BlinkMacSystemFont,PingFang SC,Noto Sans CJK SC,sans-serif" font-size="19" font-weight="400" fill="#263f86">形状参数 β</text>
<text x="628.0" y="270.0" text-anchor="middle" font-family="-apple-system,BlinkMacSystemFont,PingFang SC,Noto Sans CJK SC,sans-serif" font-size="19" font-weight="400" fill="#263f86" transform="rotate(-90 628 270.0)">熵</text>
<text x="842.0" y="75.6" text-anchor="start" font-family="-apple-system,BlinkMacSystemFont,PingFang SC,Noto Sans CJK SC,sans-serif" font-size="17" font-weight="700" fill="#263f86">最大值（β = 2）</text>
</svg>
