<svg xmlns="http://www.w3.org/2000/svg" width="1400" height="780" viewBox="0 0 1400 780" role="img" aria-labelledby="title desc"><title id="title">郁金香花朵的后验预测三联图</title><desc id="desc">上排无交互作用，下排有水量与遮阴交互作用；三列分别固定遮阴为负一、零和一。</desc><style>.title,.axis{font:15px -apple-system,BlinkMacSystemFont,"PingFang SC",sans-serif;fill:#30332e}.title{font-weight:700;font-size:16px}.plot{fill:#fff;stroke:#555}.grid{stroke:#e7e7e3}.point{fill:#6874ef}.line{stroke:#20231f;stroke-width:1.3;opacity:.22}.bold{stroke:#171917;stroke-width:3;opacity:.9}.label{font:17px -apple-system,BlinkMacSystemFont,"PingFang SC",sans-serif}</style><text class="title" x="280.0" y="41" text-anchor="middle">m8.4 后验：遮阴 = -1</text><rect class="plot" x="65" y="58" width="430" height="300"/><line class="grid" x1="65" y1="358.0" x2="495" y2="358.0"/><line class="grid" x1="65" y1="208.0" x2="495" y2="208.0"/><line class="grid" x1="65" y1="58.0" x2="495" y2="58.0"/><circle class="point" cx="65.0" cy="358.0" r="4"/><circle class="point" cx="280.0" cy="205.8" r="4"/><circle class="point" cx="495.0" cy="171.4" r="4"/><circle class="point" cx="65.0" cy="291.6" r="4"/><circle class="point" cx="280.0" cy="181.2" r="4"/><circle class="point" cx="495.0" cy="58.0" r="4"/><circle class="point" cx="65.0" cy="349.7" r="4"/><circle class="point" cx="280.0" cy="153.9" r="4"/><circle class="point" cx="495.0" cy="105.4" r="4"/><polyline class="line" points="65.0,297.3 280.0,230.4 495.0,163.5"/><polyline class="line" points="65.0,273.5 280.0,207.6 495.0,141.7"/><polyline class="line" points="65.0,257.8 280.0,199.7 495.0,141.6"/><polyline class="line" points="65.0,300.8 280.0,223.2 495.0,145.6"/><polyline class="line" points="65.0,287.4 280.0,237.9 495.0,188.5"/><polyline class="line" points="65.0,297.5 280.0,248.9 495.0,200.3"/><polyline class="line" points="65.0,277.6 280.0,197.7 495.0,117.8"/><polyline class="line" points="65.0,271.7 280.0,211.2 495.0,150.8"/><polyline class="line" points="65.0,290.7 280.0,227.2 495.0,163.7"/><polyline class="line" points="65.0,279.0 280.0,224.0 495.0,169.0"/><polyline class="line" points="65.0,282.3 280.0,203.5 495.0,124.8"/><polyline class="line" points="65.0,286.5 280.0,214.0 495.0,141.6"/><polyline class="line" points="65.0,299.1 280.0,220.0 495.0,140.9"/><polyline class="line" points="65.0,300.1 280.0,234.7 495.0,169.3"/><polyline class="line" points="65.0,259.1 280.0,199.0 495.0,138.9"/><polyline class="line" points="65.0,233.5 280.0,183.5 495.0,133.6"/><polyline class="line" points="65.0,316.4 280.0,237.0 495.0,157.6"/><polyline class="line" points="65.0,264.0 280.0,206.0 495.0,148.0"/><polyline class="line" points="65.0,297.0 280.0,227.5 495.0,158.1"/><polyline class="line" points="65.0,273.2 280.0,220.6 495.0,168.0"/><text class="axis" x="65.0" y="381" text-anchor="middle">-1</text><text class="axis" x="280.0" y="381" text-anchor="middle">0</text><text class="axis" x="495.0" y="381" text-anchor="middle">1</text><text class="label" x="280.0" y="408" text-anchor="middle">水量</text><text class="label" transform="translate(30,208.0) rotate(-90)" text-anchor="middle">花朵</text><text class="title" x="738.0" y="41" text-anchor="middle">m8.4 后验：遮阴 = 0</text><rect class="plot" x="523" y="58" width="430" height="300"/><line class="grid" x1="523" y1="358.0" x2="953" y2="358.0"/><line class="grid" x1="523" y1="208.0" x2="953" y2="208.0"/><line class="grid" x1="523" y1="58.0" x2="953" y2="58.0"/><circle class="point" cx="523.0" cy="358.0" r="4"/><circle class="point" cx="738.0" cy="308.9" r="4"/><circle class="point" cx="953.0" cy="288.5" r="4"/><circle class="point" cx="523.0" cy="286.7" r="4"/><circle class="point" cx="738.0" cy="254.3" r="4"/><circle class="point" cx="953.0" cy="194.5" r="4"/><circle class="point" cx="523.0" cy="318.4" r="4"/><circle class="point" cx="738.0" cy="245.3" r="4"/><circle class="point" cx="953.0" cy="151.2" r="4"/><polyline class="line" points="523.0,320.9 738.0,254.0 953.0,187.1"/><polyline class="line" points="523.0,301.8 738.0,235.9 953.0,170.0"/><polyline class="line" points="523.0,304.9 738.0,246.8 953.0,188.7"/><polyline class="line" points="523.0,320.2 738.0,242.5 953.0,164.9"/><polyline class="line" points="523.0,295.6 738.0,246.1 953.0,196.6"/><polyline class="line" points="523.0,303.8 738.0,255.2 953.0,206.7"/><polyline class="line" points="523.0,318.8 738.0,238.9 953.0,159.0"/><polyline class="line" points="523.0,319.7 738.0,259.3 953.0,198.8"/><polyline class="line" points="523.0,323.6 738.0,260.1 953.0,196.6"/><polyline class="line" points="523.0,303.0 738.0,248.0 953.0,193.1"/><polyline class="line" points="523.0,345.0 738.0,266.2 953.0,187.4"/><polyline class="line" points="523.0,321.3 738.0,248.9 953.0,176.4"/><polyline class="line" points="523.0,336.9 738.0,257.8 953.0,178.7"/><polyline class="line" points="523.0,315.4 738.0,250.0 953.0,184.6"/><polyline class="line" points="523.0,304.7 738.0,244.5 953.0,184.4"/><polyline class="line" points="523.0,298.6 738.0,248.6 953.0,198.7"/><polyline class="line" points="523.0,340.6 738.0,261.2 953.0,181.8"/><polyline class="line" points="523.0,297.1 738.0,239.1 953.0,181.1"/><polyline class="line" points="523.0,323.5 738.0,254.1 953.0,184.6"/><polyline class="line" points="523.0,310.2 738.0,257.6 953.0,205.0"/><text class="axis" x="523.0" y="381" text-anchor="middle">-1</text><text class="axis" x="738.0" y="381" text-anchor="middle">0</text><text class="axis" x="953.0" y="381" text-anchor="middle">1</text><text class="label" x="738.0" y="408" text-anchor="middle">水量</text><text class="label" transform="translate(488,208.0) rotate(-90)" text-anchor="middle">花朵</text><text class="title" x="1196.0" y="41" text-anchor="middle">m8.4 后验：遮阴 = 1</text><rect class="plot" x="981" y="58" width="430" height="300"/><line class="grid" x1="981" y1="358.0" x2="1411" y2="358.0"/><line class="grid" x1="981" y1="208.0" x2="1411" y2="208.0"/><line class="grid" x1="981" y1="58.0" x2="1411" y2="58.0"/><circle class="point" cx="981.0" cy="265.9" r="4"/><circle class="point" cx="1196.0" cy="294.3" r="4"/><circle class="point" cx="1411.0" cy="246.1" r="4"/><circle class="point" cx="981.0" cy="341.5" r="4"/><circle class="point" cx="1196.0" cy="303.7" r="4"/><circle class="point" cx="1411.0" cy="246.1" r="4"/><circle class="point" cx="981.0" cy="269.4" r="4"/><circle class="point" cx="1196.0" cy="282.8" r="4"/><circle class="point" cx="1411.0" cy="246.4" r="4"/><polyline class="line" points="981.0,344.5 1196.0,277.6 1411.0,210.7"/><polyline class="line" points="981.0,330.1 1196.0,264.2 1411.0,198.3"/><polyline class="line" points="981.0,352.0 1196.0,293.9 1411.0,235.9"/><polyline class="line" points="981.0,339.5 1196.0,261.9 1411.0,184.2"/><polyline class="line" points="981.0,303.8 1196.0,254.3 1411.0,204.8"/><polyline class="line" points="981.0,310.2 1196.0,261.6 1411.0,213.0"/><polyline class="line" points="981.0,359.9 1196.0,280.0 1411.0,200.1"/><polyline class="line" points="981.0,367.8 1196.0,307.3 1411.0,246.8"/><polyline class="line" points="981.0,356.5 1196.0,293.0 1411.0,229.5"/><polyline class="line" points="981.0,327.1 1196.0,272.1 1411.0,217.1"/><polyline class="line" points="981.0,407.7 1196.0,328.9 1411.0,250.1"/><polyline class="line" points="981.0,356.1 1196.0,283.7 1411.0,211.3"/><polyline class="line" points="981.0,374.7 1196.0,295.6 1411.0,216.5"/><polyline class="line" points="981.0,330.8 1196.0,265.3 1411.0,199.9"/><polyline class="line" points="981.0,350.2 1196.0,290.1 1411.0,230.0"/><polyline class="line" points="981.0,363.7 1196.0,313.8 1411.0,263.8"/><polyline class="line" points="981.0,364.7 1196.0,285.3 1411.0,205.9"/><polyline class="line" points="981.0,330.2 1196.0,272.2 1411.0,214.2"/><polyline class="line" points="981.0,350.0 1196.0,280.6 1411.0,211.1"/><polyline class="line" points="981.0,347.2 1196.0,294.6 1411.0,242.0"/><text class="axis" x="981.0" y="381" text-anchor="middle">-1</text><text class="axis" x="1196.0" y="381" text-anchor="middle">0</text><text class="axis" x="1411.0" y="381" text-anchor="middle">1</text><text class="label" x="1196.0" y="408" text-anchor="middle">水量</text><text class="label" transform="translate(946,208.0) rotate(-90)" text-anchor="middle">花朵</text><text class="title" x="280.0" y="426" text-anchor="middle">m8.5 后验：遮阴 = -1</text><rect class="plot" x="65" y="443" width="430" height="300"/><line class="grid" x1="65" y1="743.0" x2="495" y2="743.0"/><line class="grid" x1="65" y1="593.0" x2="495" y2="593.0"/><line class="grid" x1="65" y1="443.0" x2="495" y2="443.0"/><circle class="point" cx="65.0" cy="743.0" r="4"/><circle class="point" cx="280.0" cy="590.8" r="4"/><circle class="point" cx="495.0" cy="556.4" r="4"/><circle class="point" cx="65.0" cy="676.6" r="4"/><circle class="point" cx="280.0" cy="566.2" r="4"/><circle class="point" cx="495.0" cy="443.0" r="4"/><circle class="point" cx="65.0" cy="734.7" r="4"/><circle class="point" cx="280.0" cy="538.9" r="4"/><circle class="point" cx="495.0" cy="490.4" r="4"/><polyline class="line" points="65.0,736.7 280.0,607.1 495.0,477.5"/><polyline class="line" points="65.0,682.7 280.0,589.6 495.0,496.5"/><polyline class="line" points="65.0,721.8 280.0,601.5 495.0,481.2"/><polyline class="line" points="65.0,705.9 280.0,593.8 495.0,481.7"/><polyline class="line" points="65.0,684.2 280.0,594.7 495.0,505.1"/><polyline class="line" points="65.0,708.1 280.0,594.8 495.0,481.5"/><polyline class="line" points="65.0,704.0 280.0,600.4 495.0,496.8"/><polyline class="line" points="65.0,748.3 280.0,622.0 495.0,495.6"/><polyline class="line" points="65.0,685.7 280.0,604.6 495.0,523.5"/><polyline class="line" points="65.0,729.6 280.0,620.5 495.0,511.4"/><polyline class="line" points="65.0,725.1 280.0,628.7 495.0,532.3"/><polyline class="line" points="65.0,720.3 280.0,618.1 495.0,515.9"/><polyline class="line" points="65.0,703.0 280.0,592.3 495.0,481.7"/><polyline class="line" points="65.0,695.6 280.0,582.0 495.0,468.4"/><polyline class="line" points="65.0,723.2 280.0,609.7 495.0,496.1"/><polyline class="line" points="65.0,738.1 280.0,601.1 495.0,464.2"/><polyline class="line" points="65.0,674.1 280.0,583.0 495.0,491.8"/><polyline class="line" points="65.0,682.0 280.0,589.8 495.0,497.7"/><polyline class="line" points="65.0,749.9 280.0,629.0 495.0,508.2"/><polyline class="line" points="65.0,710.9 280.0,607.0 495.0,503.0"/><text class="axis" x="65.0" y="766" text-anchor="middle">-1</text><text class="axis" x="280.0" y="766" text-anchor="middle">0</text><text class="axis" x="495.0" y="766" text-anchor="middle">1</text><text class="label" x="280.0" y="793" text-anchor="middle">水量</text><text class="label" transform="translate(30,593.0) rotate(-90)" text-anchor="middle">花朵</text><text class="title" x="738.0" y="426" text-anchor="middle">m8.5 后验：遮阴 = 0</text><rect class="plot" x="523" y="443" width="430" height="300"/><line class="grid" x1="523" y1="743.0" x2="953" y2="743.0"/><line class="grid" x1="523" y1="593.0" x2="953" y2="593.0"/><line class="grid" x1="523" y1="443.0" x2="953" y2="443.0"/><circle class="point" cx="523.0" cy="743.0" r="4"/><circle class="point" cx="738.0" cy="693.9" r="4"/><circle class="point" cx="953.0" cy="673.5" r="4"/><circle class="point" cx="523.0" cy="671.7" r="4"/><circle class="point" cx="738.0" cy="639.3" r="4"/><circle class="point" cx="953.0" cy="579.5" r="4"/><circle class="point" cx="523.0" cy="703.4" r="4"/><circle class="point" cx="738.0" cy="630.3" r="4"/><circle class="point" cx="953.0" cy="536.2" r="4"/><polyline class="line" points="523.0,716.8 738.0,643.5 953.0,570.1"/><polyline class="line" points="523.0,690.9 738.0,630.7 953.0,570.5"/><polyline class="line" points="523.0,710.4 738.0,635.7 953.0,561.0"/><polyline class="line" points="523.0,693.6 738.0,623.9 953.0,554.3"/><polyline class="line" points="523.0,691.6 738.0,630.9 953.0,570.2"/><polyline class="line" points="523.0,695.5 738.0,626.7 953.0,558.0"/><polyline class="line" points="523.0,682.6 738.0,637.7 953.0,592.8"/><polyline class="line" points="523.0,716.2 738.0,654.2 953.0,592.3"/><polyline class="line" points="523.0,700.0 738.0,637.0 953.0,574.0"/><polyline class="line" points="523.0,684.8 738.0,635.2 953.0,585.6"/><polyline class="line" points="523.0,715.6 738.0,654.2 953.0,592.9"/><polyline class="line" points="523.0,714.5 738.0,644.9 953.0,575.4"/><polyline class="line" points="523.0,706.3 738.0,640.6 953.0,574.8"/><polyline class="line" points="523.0,699.2 738.0,636.8 953.0,574.3"/><polyline class="line" points="523.0,708.8 738.0,644.7 953.0,580.6"/><polyline class="line" points="523.0,719.8 738.0,641.1 953.0,562.4"/><polyline class="line" points="523.0,664.2 738.0,624.3 953.0,584.5"/><polyline class="line" points="523.0,684.1 738.0,632.0 953.0,579.9"/><polyline class="line" points="523.0,727.0 738.0,660.2 953.0,593.4"/><polyline class="line" points="523.0,706.0 738.0,640.1 953.0,574.2"/><text class="axis" x="523.0" y="766" text-anchor="middle">-1</text><text class="axis" x="738.0" y="766" text-anchor="middle">0</text><text class="axis" x="953.0" y="766" text-anchor="middle">1</text><text class="label" x="738.0" y="793" text-anchor="middle">水量</text><text class="label" transform="translate(488,593.0) rotate(-90)" text-anchor="middle">花朵</text><text class="title" x="1196.0" y="426" text-anchor="middle">m8.5 后验：遮阴 = 1</text><rect class="plot" x="981" y="443" width="430" height="300"/><line class="grid" x1="981" y1="743.0" x2="1411" y2="743.0"/><line class="grid" x1="981" y1="593.0" x2="1411" y2="593.0"/><line class="grid" x1="981" y1="443.0" x2="1411" y2="443.0"/><circle class="point" cx="981.0" cy="650.9" r="4"/><circle class="point" cx="1196.0" cy="679.3" r="4"/><circle class="point" cx="1411.0" cy="631.1" r="4"/><circle class="point" cx="981.0" cy="726.5" r="4"/><circle class="point" cx="1196.0" cy="688.7" r="4"/><circle class="point" cx="1411.0" cy="631.1" r="4"/><circle class="point" cx="981.0" cy="654.4" r="4"/><circle class="point" cx="1196.0" cy="667.8" r="4"/><circle class="point" cx="1411.0" cy="631.4" r="4"/><polyline class="line" points="981.0,696.9 1196.0,679.9 1411.0,662.8"/><polyline class="line" points="981.0,699.0 1196.0,671.7 1411.0,644.5"/><polyline class="line" points="981.0,699.0 1196.0,669.9 1411.0,640.8"/><polyline class="line" points="981.0,681.3 1196.0,654.1 1411.0,626.9"/><polyline class="line" points="981.0,699.0 1196.0,667.2 1411.0,635.3"/><polyline class="line" points="981.0,682.9 1196.0,658.7 1411.0,634.4"/><polyline class="line" points="981.0,661.3 1196.0,675.1 1411.0,688.8"/><polyline class="line" points="981.0,684.0 1196.0,686.5 1411.0,689.0"/><polyline class="line" points="981.0,714.4 1196.0,669.5 1411.0,624.6"/><polyline class="line" points="981.0,640.0 1196.0,649.9 1411.0,659.8"/><polyline class="line" points="981.0,706.1 1196.0,679.8 1411.0,653.4"/><polyline class="line" points="981.0,708.6 1196.0,671.7 1411.0,634.8"/><polyline class="line" points="981.0,709.7 1196.0,688.8 1411.0,667.9"/><polyline class="line" points="981.0,702.9 1196.0,691.6 1411.0,680.3"/><polyline class="line" points="981.0,694.4 1196.0,679.7 1411.0,665.0"/><polyline class="line" points="981.0,701.5 1196.0,681.0 1411.0,660.6"/><polyline class="line" points="981.0,654.2 1196.0,665.7 1411.0,677.2"/><polyline class="line" points="981.0,686.1 1196.0,674.2 1411.0,662.2"/><polyline class="line" points="981.0,704.0 1196.0,691.3 1411.0,678.6"/><polyline class="line" points="981.0,701.1 1196.0,673.3 1411.0,645.4"/><text class="axis" x="981.0" y="766" text-anchor="middle">-1</text><text class="axis" x="1196.0" y="766" text-anchor="middle">0</text><text class="axis" x="1411.0" y="766" text-anchor="middle">1</text><text class="label" x="1196.0" y="793" text-anchor="middle">水量</text><text class="label" transform="translate(946,593.0) rotate(-90)" text-anchor="middle">花朵</text></svg>