<svg xmlns="http://www.w3.org/2000/svg" width="1200" height="600" viewBox="0 0 1200 600">
<title>图 13.7：黑猩猩多层模型的三种后验预测</title>
<desc>左图把行动者截距固定在总体均值，显示平均行动者预测；中图对行动者间变异取平均；右图显示一百个从后验总体模拟的新行动者，既呈现处理的锯齿影响，也呈现个体差异。</desc>
<rect width="1200" height="600" fill="#fff"/>
<text x="210.0" y="45.0" text-anchor="middle" font-family="-apple-system,BlinkMacSystemFont,PingFang SC,Noto Sans CJK SC,sans-serif" font-size="22" font-weight="600" fill="#30332e">平均行动者</text>
<line x1="70.0" y1="485.0" x2="350.0" y2="485.0" stroke="#30332e" stroke-width="2"/>
<line x1="70.0" y1="90.0" x2="70.0" y2="485.0" stroke="#30332e" stroke-width="2"/>
<line x1="64.0" y1="485.0" x2="70.0" y2="485.0" stroke="#30332e"/>
<text x="58.0" y="491.0" text-anchor="end" font-family="-apple-system,BlinkMacSystemFont,PingFang SC,Noto Sans CJK SC,sans-serif" font-size="15" font-weight="400" fill="#30332e">0.0</text>
<line x1="64.0" y1="406.0" x2="70.0" y2="406.0" stroke="#30332e"/>
<text x="58.0" y="412.0" text-anchor="end" font-family="-apple-system,BlinkMacSystemFont,PingFang SC,Noto Sans CJK SC,sans-serif" font-size="15" font-weight="400" fill="#30332e">0.2</text>
<line x1="64.0" y1="327.0" x2="70.0" y2="327.0" stroke="#30332e"/>
<text x="58.0" y="333.0" text-anchor="end" font-family="-apple-system,BlinkMacSystemFont,PingFang SC,Noto Sans CJK SC,sans-serif" font-size="15" font-weight="400" fill="#30332e">0.4</text>
<line x1="64.0" y1="248.0" x2="70.0" y2="248.0" stroke="#30332e"/>
<text x="58.0" y="254.0" text-anchor="end" font-family="-apple-system,BlinkMacSystemFont,PingFang SC,Noto Sans CJK SC,sans-serif" font-size="15" font-weight="400" fill="#30332e">0.6</text>
<line x1="64.0" y1="169.0" x2="70.0" y2="169.0" stroke="#30332e"/>
<text x="58.0" y="175.0" text-anchor="end" font-family="-apple-system,BlinkMacSystemFont,PingFang SC,Noto Sans CJK SC,sans-serif" font-size="15" font-weight="400" fill="#30332e">0.8</text>
<line x1="64.0" y1="90.0" x2="70.0" y2="90.0" stroke="#30332e"/>
<text x="58.0" y="96.0" text-anchor="end" font-family="-apple-system,BlinkMacSystemFont,PingFang SC,Noto Sans CJK SC,sans-serif" font-size="15" font-weight="400" fill="#30332e">1.0</text>
<line x1="70.0" y1="485.0" x2="70.0" y2="491.0" stroke="#30332e"/>
<text x="70.0" y="513.0" text-anchor="middle" font-family="-apple-system,BlinkMacSystemFont,PingFang SC,Noto Sans CJK SC,sans-serif" font-size="16" font-weight="400" fill="#30332e">R/N</text>
<line x1="163.3" y1="485.0" x2="163.3" y2="491.0" stroke="#30332e"/>
<text x="163.3" y="513.0" text-anchor="middle" font-family="-apple-system,BlinkMacSystemFont,PingFang SC,Noto Sans CJK SC,sans-serif" font-size="16" font-weight="400" fill="#30332e">L/N</text>
<line x1="256.7" y1="485.0" x2="256.7" y2="491.0" stroke="#30332e"/>
<text x="256.7" y="513.0" text-anchor="middle" font-family="-apple-system,BlinkMacSystemFont,PingFang SC,Noto Sans CJK SC,sans-serif" font-size="16" font-weight="400" fill="#30332e">R/P</text>
<line x1="350.0" y1="485.0" x2="350.0" y2="491.0" stroke="#30332e"/>
<text x="350.0" y="513.0" text-anchor="middle" font-family="-apple-system,BlinkMacSystemFont,PingFang SC,Noto Sans CJK SC,sans-serif" font-size="16" font-weight="400" fill="#30332e">L/P</text>
<text x="210.0" y="555.0" text-anchor="middle" font-family="-apple-system,BlinkMacSystemFont,PingFang SC,Noto Sans CJK SC,sans-serif" font-size="20" font-weight="400" fill="#30332e">处理</text>
<text x="18.0" y="287.5" text-anchor="middle" font-family="-apple-system,BlinkMacSystemFont,PingFang SC,Noto Sans CJK SC,sans-serif" font-size="18" font-weight="400" fill="#30332e" transform="rotate(-90 18.0 287.5)">拉左侧杠杆的比例</text>
<text x="600.0" y="45.0" text-anchor="middle" font-family="-apple-system,BlinkMacSystemFont,PingFang SC,Noto Sans CJK SC,sans-serif" font-size="22" font-weight="600" fill="#30332e">对行动者取边际</text>
<line x1="460.0" y1="485.0" x2="740.0" y2="485.0" stroke="#30332e" stroke-width="2"/>
<line x1="460.0" y1="90.0" x2="460.0" y2="485.0" stroke="#30332e" stroke-width="2"/>
<line x1="454.0" y1="485.0" x2="460.0" y2="485.0" stroke="#30332e"/>
<text x="448.0" y="491.0" text-anchor="end" font-family="-apple-system,BlinkMacSystemFont,PingFang SC,Noto Sans CJK SC,sans-serif" font-size="15" font-weight="400" fill="#30332e">0.0</text>
<line x1="454.0" y1="406.0" x2="460.0" y2="406.0" stroke="#30332e"/>
<text x="448.0" y="412.0" text-anchor="end" font-family="-apple-system,BlinkMacSystemFont,PingFang SC,Noto Sans CJK SC,sans-serif" font-size="15" font-weight="400" fill="#30332e">0.2</text>
<line x1="454.0" y1="327.0" x2="460.0" y2="327.0" stroke="#30332e"/>
<text x="448.0" y="333.0" text-anchor="end" font-family="-apple-system,BlinkMacSystemFont,PingFang SC,Noto Sans CJK SC,sans-serif" font-size="15" font-weight="400" fill="#30332e">0.4</text>
<line x1="454.0" y1="248.0" x2="460.0" y2="248.0" stroke="#30332e"/>
<text x="448.0" y="254.0" text-anchor="end" font-family="-apple-system,BlinkMacSystemFont,PingFang SC,Noto Sans CJK SC,sans-serif" font-size="15" font-weight="400" fill="#30332e">0.6</text>
<line x1="454.0" y1="169.0" x2="460.0" y2="169.0" stroke="#30332e"/>
<text x="448.0" y="175.0" text-anchor="end" font-family="-apple-system,BlinkMacSystemFont,PingFang SC,Noto Sans CJK SC,sans-serif" font-size="15" font-weight="400" fill="#30332e">0.8</text>
<line x1="454.0" y1="90.0" x2="460.0" y2="90.0" stroke="#30332e"/>
<text x="448.0" y="96.0" text-anchor="end" font-family="-apple-system,BlinkMacSystemFont,PingFang SC,Noto Sans CJK SC,sans-serif" font-size="15" font-weight="400" fill="#30332e">1.0</text>
<line x1="460.0" y1="485.0" x2="460.0" y2="491.0" stroke="#30332e"/>
<text x="460.0" y="513.0" text-anchor="middle" font-family="-apple-system,BlinkMacSystemFont,PingFang SC,Noto Sans CJK SC,sans-serif" font-size="16" font-weight="400" fill="#30332e">R/N</text>
<line x1="553.3" y1="485.0" x2="553.3" y2="491.0" stroke="#30332e"/>
<text x="553.3" y="513.0" text-anchor="middle" font-family="-apple-system,BlinkMacSystemFont,PingFang SC,Noto Sans CJK SC,sans-serif" font-size="16" font-weight="400" fill="#30332e">L/N</text>
<line x1="646.7" y1="485.0" x2="646.7" y2="491.0" stroke="#30332e"/>
<text x="646.7" y="513.0" text-anchor="middle" font-family="-apple-system,BlinkMacSystemFont,PingFang SC,Noto Sans CJK SC,sans-serif" font-size="16" font-weight="400" fill="#30332e">R/P</text>
<line x1="740.0" y1="485.0" x2="740.0" y2="491.0" stroke="#30332e"/>
<text x="740.0" y="513.0" text-anchor="middle" font-family="-apple-system,BlinkMacSystemFont,PingFang SC,Noto Sans CJK SC,sans-serif" font-size="16" font-weight="400" fill="#30332e">L/P</text>
<text x="600.0" y="555.0" text-anchor="middle" font-family="-apple-system,BlinkMacSystemFont,PingFang SC,Noto Sans CJK SC,sans-serif" font-size="20" font-weight="400" fill="#30332e">处理</text>
<text x="408.0" y="287.5" text-anchor="middle" font-family="-apple-system,BlinkMacSystemFont,PingFang SC,Noto Sans CJK SC,sans-serif" font-size="18" font-weight="400" fill="#30332e" transform="rotate(-90 408.0 287.5)">拉左侧杠杆的比例</text>
<text x="990.0" y="45.0" text-anchor="middle" font-family="-apple-system,BlinkMacSystemFont,PingFang SC,Noto Sans CJK SC,sans-serif" font-size="22" font-weight="600" fill="#30332e">模拟行动者</text>
<line x1="850.0" y1="485.0" x2="1130.0" y2="485.0" stroke="#30332e" stroke-width="2"/>
<line x1="850.0" y1="90.0" x2="850.0" y2="485.0" stroke="#30332e" stroke-width="2"/>
<line x1="844.0" y1="485.0" x2="850.0" y2="485.0" stroke="#30332e"/>
<text x="838.0" y="491.0" text-anchor="end" font-family="-apple-system,BlinkMacSystemFont,PingFang SC,Noto Sans CJK SC,sans-serif" font-size="15" font-weight="400" fill="#30332e">0.0</text>
<line x1="844.0" y1="406.0" x2="850.0" y2="406.0" stroke="#30332e"/>
<text x="838.0" y="412.0" text-anchor="end" font-family="-apple-system,BlinkMacSystemFont,PingFang SC,Noto Sans CJK SC,sans-serif" font-size="15" font-weight="400" fill="#30332e">0.2</text>
<line x1="844.0" y1="327.0" x2="850.0" y2="327.0" stroke="#30332e"/>
<text x="838.0" y="333.0" text-anchor="end" font-family="-apple-system,BlinkMacSystemFont,PingFang SC,Noto Sans CJK SC,sans-serif" font-size="15" font-weight="400" fill="#30332e">0.4</text>
<line x1="844.0" y1="248.0" x2="850.0" y2="248.0" stroke="#30332e"/>
<text x="838.0" y="254.0" text-anchor="end" font-family="-apple-system,BlinkMacSystemFont,PingFang SC,Noto Sans CJK SC,sans-serif" font-size="15" font-weight="400" fill="#30332e">0.6</text>
<line x1="844.0" y1="169.0" x2="850.0" y2="169.0" stroke="#30332e"/>
<text x="838.0" y="175.0" text-anchor="end" font-family="-apple-system,BlinkMacSystemFont,PingFang SC,Noto Sans CJK SC,sans-serif" font-size="15" font-weight="400" fill="#30332e">0.8</text>
<line x1="844.0" y1="90.0" x2="850.0" y2="90.0" stroke="#30332e"/>
<text x="838.0" y="96.0" text-anchor="end" font-family="-apple-system,BlinkMacSystemFont,PingFang SC,Noto Sans CJK SC,sans-serif" font-size="15" font-weight="400" fill="#30332e">1.0</text>
<line x1="850.0" y1="485.0" x2="850.0" y2="491.0" stroke="#30332e"/>
<text x="850.0" y="513.0" text-anchor="middle" font-family="-apple-system,BlinkMacSystemFont,PingFang SC,Noto Sans CJK SC,sans-serif" font-size="16" font-weight="400" fill="#30332e">R/N</text>
<line x1="943.3" y1="485.0" x2="943.3" y2="491.0" stroke="#30332e"/>
<text x="943.3" y="513.0" text-anchor="middle" font-family="-apple-system,BlinkMacSystemFont,PingFang SC,Noto Sans CJK SC,sans-serif" font-size="16" font-weight="400" fill="#30332e">L/N</text>
<line x1="1036.7" y1="485.0" x2="1036.7" y2="491.0" stroke="#30332e"/>
<text x="1036.7" y="513.0" text-anchor="middle" font-family="-apple-system,BlinkMacSystemFont,PingFang SC,Noto Sans CJK SC,sans-serif" font-size="16" font-weight="400" fill="#30332e">R/P</text>
<line x1="1130.0" y1="485.0" x2="1130.0" y2="491.0" stroke="#30332e"/>
<text x="1130.0" y="513.0" text-anchor="middle" font-family="-apple-system,BlinkMacSystemFont,PingFang SC,Noto Sans CJK SC,sans-serif" font-size="16" font-weight="400" fill="#30332e">L/P</text>
<text x="990.0" y="555.0" text-anchor="middle" font-family="-apple-system,BlinkMacSystemFont,PingFang SC,Noto Sans CJK SC,sans-serif" font-size="20" font-weight="400" fill="#30332e">处理</text>
<text x="798.0" y="287.5" text-anchor="middle" font-family="-apple-system,BlinkMacSystemFont,PingFang SC,Noto Sans CJK SC,sans-serif" font-size="18" font-weight="400" fill="#30332e" transform="rotate(-90 798.0 287.5)">拉左侧杠杆的比例</text>
<polygon points="70.0,153.2 163.3,129.5 256.7,184.8 350.0,141.4 350.0,319.1 256.7,378.4 163.3,311.2 70.0,354.6" fill="#cfd1ce" opacity="0.85"/>
<polyline points="70.0,252.0 163.3,208.5 256.7,279.6 350.0,216.4" fill="none" stroke="#30332e" stroke-width="3"/>
<polygon points="460.0,105.8 553.3,101.9 646.7,109.8 740.0,97.9 740.0,461.3 646.7,477.1 553.3,469.2 460.0,465.2" fill="#cfd1ce" opacity="0.85"/>
<polyline points="460.0,263.8 553.3,236.2 646.7,283.5 740.0,236.2" fill="none" stroke="#30332e" stroke-width="3"/>
<polyline points="850.0,335.2 943.3,284.8 1036.7,367.0 1130.0,294.7" fill="none" stroke="#30332e" stroke-width="2" opacity="0.23"/>
<polyline points="850.0,359.3 943.3,311.3 1036.7,388.0 1130.0,320.9" fill="none" stroke="#30332e" stroke-width="2" opacity="0.23"/>
<polyline points="850.0,108.3 943.3,101.1 1036.7,115.7 1130.0,102.2" fill="none" stroke="#30332e" stroke-width="2" opacity="0.23"/>
<polyline points="850.0,126.2 943.3,112.4 1036.7,140.0 1130.0,114.6" fill="none" stroke="#30332e" stroke-width="2" opacity="0.23"/>
<polyline points="850.0,389.3 943.3,346.9 1036.7,413.0 1130.0,355.7" fill="none" stroke="#30332e" stroke-width="2" opacity="0.23"/>
<polyline points="850.0,455.7 943.3,438.1 1036.7,464.1 1130.0,442.1" fill="none" stroke="#30332e" stroke-width="2" opacity="0.23"/>
<polyline points="850.0,199.5 943.3,163.4 1036.7,230.2 1130.0,169.5" fill="none" stroke="#30332e" stroke-width="2" opacity="0.23"/>
<polyline points="850.0,198.5 943.3,162.6 1036.7,229.0 1130.0,168.7" fill="none" stroke="#30332e" stroke-width="2" opacity="0.23"/>
<polyline points="850.0,204.0 943.3,166.8 1036.7,235.2 1130.0,173.1" fill="none" stroke="#30332e" stroke-width="2" opacity="0.23"/>
<polyline points="850.0,396.6 943.3,356.0 1036.7,418.9 1130.0,364.6" fill="none" stroke="#30332e" stroke-width="2" opacity="0.23"/>
<polyline points="850.0,443.2 943.3,419.4 1036.7,454.9 1130.0,424.7" fill="none" stroke="#30332e" stroke-width="2" opacity="0.23"/>
<polyline points="850.0,204.2 943.3,166.9 1036.7,235.5 1130.0,173.3" fill="none" stroke="#30332e" stroke-width="2" opacity="0.23"/>
<polyline points="850.0,279.0 943.3,229.4 1036.7,314.4 1130.0,238.6" fill="none" stroke="#30332e" stroke-width="2" opacity="0.23"/>
<polyline points="850.0,384.1 943.3,340.4 1036.7,408.7 1130.0,349.5" fill="none" stroke="#30332e" stroke-width="2" opacity="0.23"/>
<polyline points="850.0,135.9 943.3,118.6 1036.7,152.6 1130.0,121.4" fill="none" stroke="#30332e" stroke-width="2" opacity="0.23"/>
<polyline points="850.0,200.4 943.3,164.0 1036.7,231.1 1130.0,170.2" fill="none" stroke="#30332e" stroke-width="2" opacity="0.23"/>
<polyline points="850.0,225.8 943.3,183.8 1036.7,259.4 1130.0,191.1" fill="none" stroke="#30332e" stroke-width="2" opacity="0.23"/>
<polyline points="850.0,336.9 943.3,286.6 1036.7,368.4 1130.0,296.5" fill="none" stroke="#30332e" stroke-width="2" opacity="0.23"/>
<polyline points="850.0,480.2 943.3,477.0 1036.7,481.6 1130.0,477.7" fill="none" stroke="#30332e" stroke-width="2" opacity="0.23"/>
<polyline points="850.0,390.9 943.3,348.9 1036.7,414.3 1130.0,357.6" fill="none" stroke="#30332e" stroke-width="2" opacity="0.23"/>
<polyline points="850.0,97.6 943.3,94.5 1036.7,100.7 1130.0,95.0" fill="none" stroke="#30332e" stroke-width="2" opacity="0.23"/>
<polyline points="850.0,124.4 943.3,111.2 1036.7,137.6 1130.0,113.3" fill="none" stroke="#30332e" stroke-width="2" opacity="0.23"/>
<polyline points="850.0,263.6 943.3,215.6 1036.7,299.0 1130.0,224.3" fill="none" stroke="#30332e" stroke-width="2" opacity="0.23"/>
<polyline points="850.0,401.6 943.3,362.4 1036.7,422.9 1130.0,370.7" fill="none" stroke="#30332e" stroke-width="2" opacity="0.23"/>
<polyline points="850.0,171.4 943.3,142.8 1036.7,197.1 1130.0,147.6" fill="none" stroke="#30332e" stroke-width="2" opacity="0.23"/>
<polyline points="850.0,209.2 943.3,170.7 1036.7,241.1 1130.0,177.3" fill="none" stroke="#30332e" stroke-width="2" opacity="0.23"/>
<polyline points="850.0,463.5 943.3,450.2 1036.7,469.8 1130.0,453.2" fill="none" stroke="#30332e" stroke-width="2" opacity="0.23"/>
<polyline points="850.0,388.6 943.3,346.0 1036.7,412.4 1130.0,354.9" fill="none" stroke="#30332e" stroke-width="2" opacity="0.23"/>
<polyline points="850.0,176.4 943.3,146.4 1036.7,203.1 1130.0,151.4" fill="none" stroke="#30332e" stroke-width="2" opacity="0.23"/>
<polyline points="850.0,391.2 943.3,349.2 1036.7,414.5 1130.0,358.0" fill="none" stroke="#30332e" stroke-width="2" opacity="0.23"/>
<polyline points="850.0,101.0 943.3,96.6 1036.7,105.6 1130.0,97.3" fill="none" stroke="#30332e" stroke-width="2" opacity="0.23"/>
<polyline points="850.0,130.1 943.3,114.9 1036.7,145.1 1130.0,117.3" fill="none" stroke="#30332e" stroke-width="2" opacity="0.23"/>
<polyline points="850.0,196.8 943.3,161.3 1036.7,227.0 1130.0,167.3" fill="none" stroke="#30332e" stroke-width="2" opacity="0.23"/>
<polyline points="850.0,246.0 943.3,200.4 1036.7,280.9 1130.0,208.6" fill="none" stroke="#30332e" stroke-width="2" opacity="0.23"/>
<polyline points="850.0,173.3 943.3,144.2 1036.7,199.4 1130.0,149.0" fill="none" stroke="#30332e" stroke-width="2" opacity="0.23"/>
<polyline points="850.0,280.3 943.3,230.6 1036.7,315.7 1130.0,239.8" fill="none" stroke="#30332e" stroke-width="2" opacity="0.23"/>
<polyline points="850.0,148.2 943.3,126.8 1036.7,168.4 1130.0,130.3" fill="none" stroke="#30332e" stroke-width="2" opacity="0.23"/>
<polyline points="850.0,331.4 943.3,280.8 1036.7,363.5 1130.0,290.6" fill="none" stroke="#30332e" stroke-width="2" opacity="0.23"/>
<polyline points="850.0,401.2 943.3,361.9 1036.7,422.5 1130.0,370.2" fill="none" stroke="#30332e" stroke-width="2" opacity="0.23"/>
<polyline points="850.0,403.7 943.3,365.0 1036.7,424.5 1130.0,373.2" fill="none" stroke="#30332e" stroke-width="2" opacity="0.23"/>
<polyline points="850.0,136.3 943.3,118.9 1036.7,153.1 1130.0,121.7" fill="none" stroke="#30332e" stroke-width="2" opacity="0.23"/>
<polyline points="850.0,478.1 943.3,473.5 1036.7,480.2 1130.0,474.6" fill="none" stroke="#30332e" stroke-width="2" opacity="0.23"/>
<polyline points="850.0,95.4 943.3,93.2 1036.7,97.7 1130.0,93.6" fill="none" stroke="#30332e" stroke-width="2" opacity="0.23"/>
<polyline points="850.0,451.3 943.3,431.4 1036.7,460.9 1130.0,435.9" fill="none" stroke="#30332e" stroke-width="2" opacity="0.23"/>
<polyline points="850.0,100.6 943.3,96.4 1036.7,105.0 1130.0,97.0" fill="none" stroke="#30332e" stroke-width="2" opacity="0.23"/>
<polyline points="850.0,165.2 943.3,138.5 1036.7,189.6 1130.0,142.9" fill="none" stroke="#30332e" stroke-width="2" opacity="0.23"/>
<polyline points="850.0,286.0 943.3,235.9 1036.7,321.2 1130.0,245.2" fill="none" stroke="#30332e" stroke-width="2" opacity="0.23"/>
<polyline points="850.0,93.5 943.3,92.1 1036.7,94.9 1130.0,92.3" fill="none" stroke="#30332e" stroke-width="2" opacity="0.23"/>
<polyline points="850.0,291.0 943.3,240.5 1036.7,326.0 1130.0,250.0" fill="none" stroke="#30332e" stroke-width="2" opacity="0.23"/>
<polyline points="850.0,201.8 943.3,165.1 1036.7,232.8 1130.0,171.4" fill="none" stroke="#30332e" stroke-width="2" opacity="0.23"/>
<polyline points="850.0,340.9 943.3,290.9 1036.7,372.0 1130.0,300.8" fill="none" stroke="#30332e" stroke-width="2" opacity="0.23"/>
<polyline points="850.0,105.2 943.3,99.2 1036.7,111.5 1130.0,100.1" fill="none" stroke="#30332e" stroke-width="2" opacity="0.23"/>
<polyline points="850.0,117.8 943.3,107.0 1036.7,128.7 1130.0,108.7" fill="none" stroke="#30332e" stroke-width="2" opacity="0.23"/>
<polyline points="850.0,228.2 943.3,185.7 1036.7,262.0 1130.0,193.2" fill="none" stroke="#30332e" stroke-width="2" opacity="0.23"/>
<polyline points="850.0,183.3 943.3,151.4 1036.7,211.3 1130.0,156.7" fill="none" stroke="#30332e" stroke-width="2" opacity="0.23"/>
<polyline points="850.0,125.2 943.3,111.7 1036.7,138.5 1130.0,113.8" fill="none" stroke="#30332e" stroke-width="2" opacity="0.23"/>
<polyline points="850.0,137.3 943.3,119.6 1036.7,154.5 1130.0,122.4" fill="none" stroke="#30332e" stroke-width="2" opacity="0.23"/>
<polyline points="850.0,257.4 943.3,210.2 1036.7,292.7 1130.0,218.7" fill="none" stroke="#30332e" stroke-width="2" opacity="0.23"/>
<polyline points="850.0,204.8 943.3,167.3 1036.7,236.1 1130.0,173.7" fill="none" stroke="#30332e" stroke-width="2" opacity="0.23"/>
<polyline points="850.0,154.7 943.3,131.2 1036.7,176.6 1130.0,135.0" fill="none" stroke="#30332e" stroke-width="2" opacity="0.23"/>
<polyline points="850.0,455.0 943.3,437.1 1036.7,463.6 1130.0,441.1" fill="none" stroke="#30332e" stroke-width="2" opacity="0.23"/>
<polyline points="850.0,257.2 943.3,210.0 1036.7,292.5 1130.0,218.5" fill="none" stroke="#30332e" stroke-width="2" opacity="0.23"/>
<polyline points="850.0,441.4 943.3,416.8 1036.7,453.5 1130.0,422.2" fill="none" stroke="#30332e" stroke-width="2" opacity="0.23"/>
<polyline points="850.0,422.6 943.3,390.3 1036.7,439.3 1130.0,397.3" fill="none" stroke="#30332e" stroke-width="2" opacity="0.23"/>
<polyline points="850.0,268.4 943.3,219.8 1036.7,303.8 1130.0,228.7" fill="none" stroke="#30332e" stroke-width="2" opacity="0.23"/>
<polyline points="850.0,183.1 943.3,151.2 1036.7,211.1 1130.0,156.6" fill="none" stroke="#30332e" stroke-width="2" opacity="0.23"/>
<polyline points="850.0,395.8 943.3,354.9 1036.7,418.2 1130.0,363.5" fill="none" stroke="#30332e" stroke-width="2" opacity="0.23"/>
<polyline points="850.0,128.4 943.3,113.7 1036.7,142.8 1130.0,116.1" fill="none" stroke="#30332e" stroke-width="2" opacity="0.23"/>
<polyline points="850.0,371.6 943.3,325.5 1036.7,398.4 1130.0,334.9" fill="none" stroke="#30332e" stroke-width="2" opacity="0.23"/>
<polyline points="850.0,226.7 943.3,184.6 1036.7,260.4 1130.0,192.0" fill="none" stroke="#30332e" stroke-width="2" opacity="0.23"/>
<polyline points="850.0,145.4 943.3,124.9 1036.7,164.9 1130.0,128.3" fill="none" stroke="#30332e" stroke-width="2" opacity="0.23"/>
<polyline points="850.0,461.2 943.3,446.6 1036.7,468.1 1130.0,449.9" fill="none" stroke="#30332e" stroke-width="2" opacity="0.23"/>
<polyline points="850.0,94.6 943.3,92.7 1036.7,96.5 1130.0,93.0" fill="none" stroke="#30332e" stroke-width="2" opacity="0.23"/>
<polyline points="850.0,180.3 943.3,149.2 1036.7,207.8 1130.0,154.4" fill="none" stroke="#30332e" stroke-width="2" opacity="0.23"/>
<polyline points="850.0,111.8 943.3,103.3 1036.7,120.6 1130.0,104.6" fill="none" stroke="#30332e" stroke-width="2" opacity="0.23"/>
<polyline points="850.0,113.7 943.3,104.5 1036.7,123.2 1130.0,105.9" fill="none" stroke="#30332e" stroke-width="2" opacity="0.23"/>
<polyline points="850.0,227.9 943.3,185.5 1036.7,261.7 1130.0,193.0" fill="none" stroke="#30332e" stroke-width="2" opacity="0.23"/>
<polyline points="850.0,463.0 943.3,449.3 1036.7,469.4 1130.0,452.5" fill="none" stroke="#30332e" stroke-width="2" opacity="0.23"/>
<polyline points="850.0,126.7 943.3,112.7 1036.7,140.5 1130.0,114.9" fill="none" stroke="#30332e" stroke-width="2" opacity="0.23"/>
<polyline points="850.0,91.7 943.3,91.0 1036.7,92.5 1130.0,91.1" fill="none" stroke="#30332e" stroke-width="2" opacity="0.23"/>
<polyline points="850.0,291.0 943.3,240.6 1036.7,326.1 1130.0,250.0" fill="none" stroke="#30332e" stroke-width="2" opacity="0.23"/>
<polyline points="850.0,105.0 943.3,99.1 1036.7,111.2 1130.0,100.0" fill="none" stroke="#30332e" stroke-width="2" opacity="0.23"/>
<polyline points="850.0,137.4 943.3,119.6 1036.7,154.6 1130.0,122.5" fill="none" stroke="#30332e" stroke-width="2" opacity="0.23"/>
<polyline points="850.0,136.9 943.3,119.3 1036.7,154.0 1130.0,122.1" fill="none" stroke="#30332e" stroke-width="2" opacity="0.23"/>
<polyline points="850.0,95.3 943.3,93.2 1036.7,97.5 1130.0,93.5" fill="none" stroke="#30332e" stroke-width="2" opacity="0.23"/>
<polyline points="850.0,135.8 943.3,118.6 1036.7,152.5 1130.0,121.4" fill="none" stroke="#30332e" stroke-width="2" opacity="0.23"/>
<polyline points="850.0,240.1 943.3,195.5 1036.7,274.7 1130.0,203.4" fill="none" stroke="#30332e" stroke-width="2" opacity="0.23"/>
<polyline points="850.0,484.0 943.3,483.3 1036.7,484.3 1130.0,483.4" fill="none" stroke="#30332e" stroke-width="2" opacity="0.23"/>
<polyline points="850.0,366.0 943.3,319.0 1036.7,393.7 1130.0,328.5" fill="none" stroke="#30332e" stroke-width="2" opacity="0.23"/>
<polyline points="850.0,459.7 943.3,444.2 1036.7,467.0 1130.0,447.7" fill="none" stroke="#30332e" stroke-width="2" opacity="0.23"/>
<polyline points="850.0,214.4 943.3,174.8 1036.7,246.9 1130.0,181.6" fill="none" stroke="#30332e" stroke-width="2" opacity="0.23"/>
<polyline points="850.0,213.2 943.3,173.9 1036.7,245.6 1130.0,180.7" fill="none" stroke="#30332e" stroke-width="2" opacity="0.23"/>
<polyline points="850.0,290.3 943.3,239.9 1036.7,325.4 1130.0,249.3" fill="none" stroke="#30332e" stroke-width="2" opacity="0.23"/>
<polyline points="850.0,425.6 943.3,394.3 1036.7,441.6 1130.0,401.1" fill="none" stroke="#30332e" stroke-width="2" opacity="0.23"/>
<polyline points="850.0,133.8 943.3,117.3 1036.7,149.9 1130.0,119.9" fill="none" stroke="#30332e" stroke-width="2" opacity="0.23"/>
<polyline points="850.0,106.2 943.3,99.8 1036.7,112.8 1130.0,100.8" fill="none" stroke="#30332e" stroke-width="2" opacity="0.23"/>
<polyline points="850.0,260.2 943.3,212.6 1036.7,295.6 1130.0,221.2" fill="none" stroke="#30332e" stroke-width="2" opacity="0.23"/>
<polyline points="850.0,241.4 943.3,196.6 1036.7,276.1 1130.0,204.5" fill="none" stroke="#30332e" stroke-width="2" opacity="0.23"/>
<polyline points="850.0,214.0 943.3,174.5 1036.7,246.5 1130.0,181.3" fill="none" stroke="#30332e" stroke-width="2" opacity="0.23"/>
<polyline points="850.0,367.6 943.3,320.8 1036.7,395.0 1130.0,330.3" fill="none" stroke="#30332e" stroke-width="2" opacity="0.23"/>
</svg>