<?xml version="1.0" encoding="UTF-8"?>
<svg xmlns="http://www.w3.org/2000/svg" width="900" height="540" viewBox="0 0 900 540" role="img">
  <title>体重五十千克时平均身高的后验分布</title>
  <desc>均值约一百五十九点一厘米的钟形密度曲线，表示体重五十千克时不同平均身高值的相对可信程度。</desc>
  <rect width="100%" height="100%" fill="#ffffff"/>
  <rect x="125" y="55" width="660" height="345" fill="#ffffff" stroke="#333630" stroke-width="1.6"/>
  <polyline points="125,399.85 127.75,399.82 130.5,399.8 133.25,399.77 136,399.74 138.75,399.7 141.5,399.66 144.25,399.62 147,399.57 149.75,399.51 152.5,399.44 155.25,399.37 158,399.29 160.75,399.2 163.5,399.1 166.25,398.99 169,398.87 171.75,398.73 174.5,398.57 177.25,398.4 180,398.22 182.75,398.01 185.5,397.78 188.25,397.53 191,397.25 193.75,396.94 196.5,396.61 199.25,396.24 202,395.84 204.75,395.4 207.5,394.92 210.25,394.39 213,393.82 215.75,393.19 218.5,392.52 221.25,391.78 224,390.99 226.75,390.13 229.5,389.2 232.25,388.19 235,387.11 237.75,385.94 240.5,384.69 243.25,383.35 246,381.91 248.75,380.36 251.5,378.71 254.25,376.95 257,375.08 259.75,373.08 262.5,370.95 265.25,368.7 268,366.31 270.75,363.78 273.5,361.1 276.25,358.28 279,355.31 281.75,352.18 284.5,348.89 287.25,345.43 290,341.82 292.75,338.04 295.5,334.08 298.25,329.96 301,325.67 303.75,321.21 306.5,316.58 309.25,311.78 312,306.82 314.75,301.69 317.5,296.4 320.25,290.96 323,285.36 325.75,279.62 328.5,273.74 331.25,267.73 334,261.6 336.75,255.35 339.5,249 342.25,242.55 345,236.02 347.75,229.43 350.5,222.77 353.25,216.08 356,209.35 358.75,202.61 361.5,195.88 364.25,189.16 367,182.48 369.75,175.85 372.5,169.29 375.25,162.81 378,156.45 380.75,150.2 383.5,144.1 386.25,138.16 389,132.39 391.75,126.82 394.5,121.46 397.25,116.33 400,111.45 402.75,106.82 405.5,102.48 408.25,98.42 411,94.67 413.75,91.23 416.5,88.13 419.25,85.36 422,82.94 424.75,80.88 427.5,79.19 430.25,77.86 433,76.91 435.75,76.34 438.5,76.15 441.25,76.34 444,76.91 446.75,77.86 449.5,79.19 452.25,80.88 455,82.94 457.75,85.36 460.5,88.13 463.25,91.23 466,94.67 468.75,98.42 471.5,102.48 474.25,106.82 477,111.45 479.75,116.33 482.5,121.46 485.25,126.82 488,132.39 490.75,138.16 493.5,144.1 496.25,150.2 499,156.45 501.75,162.81 504.5,169.29 507.25,175.85 510,182.48 512.75,189.16 515.5,195.88 518.25,202.61 521,209.35 523.75,216.08 526.5,222.77 529.25,229.43 532,236.02 534.75,242.55 537.5,249 540.25,255.35 543,261.6 545.75,267.73 548.5,273.74 551.25,279.62 554,285.36 556.75,290.96 559.5,296.4 562.25,301.69 565,306.82 567.75,311.78 570.5,316.58 573.25,321.21 576,325.67 578.75,329.96 581.5,334.08 584.25,338.04 587,341.82 589.75,345.43 592.5,348.89 595.25,352.18 598,355.31 600.75,358.28 603.5,361.1 606.25,363.78 609,366.31 611.75,368.7 614.5,370.95 617.25,373.08 620,375.08 622.75,376.95 625.5,378.71 628.25,380.36 631,381.91 633.75,383.35 636.5,384.69 639.25,385.94 642,387.11 644.75,388.19 647.5,389.2 650.25,390.13 653,390.99 655.75,391.78 658.5,392.52 661.25,393.19 664,393.82 666.75,394.39 669.5,394.92 672.25,395.4 675,395.84 677.75,396.24 680.5,396.61 683.25,396.94 686,397.25 688.75,397.53 691.5,397.78 694.25,398.01 697,398.22 699.75,398.4 702.5,398.57 705.25,398.73 708,398.87 710.75,398.99 713.5,399.1 716.25,399.2 719,399.29 721.75,399.37 724.5,399.44 727.25,399.51 730,399.57 732.75,399.62 735.5,399.66 738.25,399.7 741,399.74 743.75,399.77 746.5,399.8 749.25,399.82 752,399.85 754.75,399.87 757.5,399.88 760.25,399.9 763,399.91 765.75,399.92 768.5,399.93 771.25,399.94 774,399.95 776.75,399.96 779.5,399.96 782.25,399.97 785,399.97" fill="none" stroke="#5669ef" stroke-width="4" stroke-linejoin="round"/>
  <line x1="172.14" y1="400" x2="172.14" y2="408" stroke="#333630"/>
  <text x="172.14" y="431" text-anchor="middle" font-family="PingFang SC, Noto Sans CJK SC, Microsoft YaHei, sans-serif" font-size="17" fill="#30332e">158.0</text>
  <line x1="290" y1="400" x2="290" y2="408" stroke="#333630"/>
  <text x="290" y="431" text-anchor="middle" font-family="PingFang SC, Noto Sans CJK SC, Microsoft YaHei, sans-serif" font-size="17" fill="#30332e">158.5</text>
  <line x1="407.86" y1="400" x2="407.86" y2="408" stroke="#333630"/>
  <text x="407.86" y="431" text-anchor="middle" font-family="PingFang SC, Noto Sans CJK SC, Microsoft YaHei, sans-serif" font-size="17" fill="#30332e">159.0</text>
  <line x1="525.71" y1="400" x2="525.71" y2="408" stroke="#333630"/>
  <text x="525.71" y="431" text-anchor="middle" font-family="PingFang SC, Noto Sans CJK SC, Microsoft YaHei, sans-serif" font-size="17" fill="#30332e">159.5</text>
  <line x1="643.57" y1="400" x2="643.57" y2="408" stroke="#333630"/>
  <text x="643.57" y="431" text-anchor="middle" font-family="PingFang SC, Noto Sans CJK SC, Microsoft YaHei, sans-serif" font-size="17" fill="#30332e">160.0</text>
  <line x1="761.43" y1="400" x2="761.43" y2="408" stroke="#333630"/>
  <text x="761.43" y="431" text-anchor="middle" font-family="PingFang SC, Noto Sans CJK SC, Microsoft YaHei, sans-serif" font-size="17" fill="#30332e">160.5</text>
  <line x1="117" y1="400" x2="125" y2="400" stroke="#333630"/>
  <text x="109" y="406" text-anchor="end" font-family="PingFang SC, Noto Sans CJK SC, Microsoft YaHei, sans-serif" font-size="17" fill="#30332e">0.0</text>
  <line x1="117" y1="289.6" x2="125" y2="289.6" stroke="#333630"/>
  <text x="109" y="295.6" text-anchor="end" font-family="PingFang SC, Noto Sans CJK SC, Microsoft YaHei, sans-serif" font-size="17" fill="#30332e">0.4</text>
  <line x1="117" y1="179.2" x2="125" y2="179.2" stroke="#333630"/>
  <text x="109" y="185.2" text-anchor="end" font-family="PingFang SC, Noto Sans CJK SC, Microsoft YaHei, sans-serif" font-size="17" fill="#30332e">0.8</text>
  <line x1="117" y1="68.8" x2="125" y2="68.8" stroke="#333630"/>
  <text x="109" y="74.8" text-anchor="end" font-family="PingFang SC, Noto Sans CJK SC, Microsoft YaHei, sans-serif" font-size="17" fill="#30332e">1.2</text>
  <text x="455.0" y="476" text-anchor="middle" font-family="PingFang SC, Noto Sans CJK SC, Microsoft YaHei, sans-serif" font-size="21" font-weight="700" fill="#263f86">μ｜体重 = 50 千克</text>
  <text x="38" y="227.5" transform="rotate(-90 38 227.5)" text-anchor="middle" font-family="PingFang SC, Noto Sans CJK SC, Microsoft YaHei, sans-serif" font-size="21" font-weight="700" fill="#263f86">概率密度</text>
  <text x="450.0" y="520" text-anchor="middle" font-family="PingFang SC, Noto Sans CJK SC, Microsoft YaHei, sans-serif" font-size="16" fill="#656963">曲线表示不同平均身高值的相对可信程度</text>
</svg>
