<svg xmlns="http://www.w3.org/2000/svg" width="1200" height="780" viewBox="0 0 1200 780" role="img">
<title>黑猩猩观测比例与后验预测</title>
<desc>上图按个体展示四种处理下拉左侧杠杆的观测比例；下图展示相应的后验均值与百分之八十九相容区间。</desc>
<rect width="100%" height="100%" fill="#fbfaf6"/>
<text x="635.0" y="30.0" text-anchor="middle" font-family="-apple-system,BlinkMacSystemFont,PingFang SC,Noto Sans CJK SC,sans-serif" font-size="22" font-weight="700" fill="#263f86">观测比例</text>
<rect x="105" y="73" width="1060" height="247" fill="#fff" stroke="#d9d5c8"/>
<line x1="105" y1="196.5" x2="1165" y2="196.5" stroke="#d9d5c8" stroke-width="2" stroke-dasharray="8 7"/>
<text x="87.0" y="79.0" text-anchor="end" font-family="-apple-system,BlinkMacSystemFont,PingFang SC,Noto Sans CJK SC,sans-serif" font-size="17" font-weight="400" fill="#30332e">1</text>
<text x="87.0" y="202.5" text-anchor="end" font-family="-apple-system,BlinkMacSystemFont,PingFang SC,Noto Sans CJK SC,sans-serif" font-size="17" font-weight="400" fill="#30332e">0.5</text>
<text x="87.0" y="326.0" text-anchor="end" font-family="-apple-system,BlinkMacSystemFont,PingFang SC,Noto Sans CJK SC,sans-serif" font-size="17" font-weight="400" fill="#30332e">0</text>
<text x="30.0" y="196.5" text-anchor="middle" font-family="-apple-system,BlinkMacSystemFont,PingFang SC,Noto Sans CJK SC,sans-serif" font-size="19" font-weight="400" fill="#30332e" transform="rotate(-90 30 196.5)">拉左侧杠杆的比例</text>
<text x="180.7" y="61.0" text-anchor="middle" font-family="-apple-system,BlinkMacSystemFont,PingFang SC,Noto Sans CJK SC,sans-serif" font-size="16" font-weight="400" fill="#30332e">个体 1</text>
<polyline points="123.9,237.7 199.6,251.4" fill="none" stroke="#6670ee" stroke-width="3"/>
<polyline points="161.8,196.5 237.5,182.8" fill="none" stroke="#6670ee" stroke-width="3"/>
<circle cx="123.9" cy="237.7" r="7" fill="#fff" stroke="#6670ee" stroke-width="3"/>
<circle cx="161.8" cy="196.5" r="7" fill="#fff" stroke="#6670ee" stroke-width="3"/>
<circle cx="199.6" cy="251.4" r="7" fill="#6670ee" stroke="#6670ee" stroke-width="3"/>
<circle cx="237.5" cy="182.8" r="7" fill="#6670ee" stroke="#6670ee" stroke-width="3"/>
<line x1="256.4" y1="73" x2="256.4" y2="320" stroke="#d9d5c8"/>
<text x="332.1" y="61.0" text-anchor="middle" font-family="-apple-system,BlinkMacSystemFont,PingFang SC,Noto Sans CJK SC,sans-serif" font-size="16" font-weight="400" fill="#30332e">个体 2</text>
<polyline points="275.4,73.0 351.1,73.0" fill="none" stroke="#6670ee" stroke-width="3"/>
<polyline points="313.2,73.0 388.9,73.0" fill="none" stroke="#6670ee" stroke-width="3"/>
<circle cx="275.4" cy="73.0" r="7" fill="#fff" stroke="#6670ee" stroke-width="3"/>
<circle cx="313.2" cy="73.0" r="7" fill="#fff" stroke="#6670ee" stroke-width="3"/>
<circle cx="351.1" cy="73.0" r="7" fill="#6670ee" stroke="#6670ee" stroke-width="3"/>
<circle cx="388.9" cy="73.0" r="7" fill="#6670ee" stroke="#6670ee" stroke-width="3"/>
<line x1="407.9" y1="73" x2="407.9" y2="320" stroke="#d9d5c8"/>
<text x="483.6" y="61.0" text-anchor="middle" font-family="-apple-system,BlinkMacSystemFont,PingFang SC,Noto Sans CJK SC,sans-serif" font-size="16" font-weight="400" fill="#30332e">个体 3</text>
<polyline points="426.8,251.4 502.5,278.8" fill="none" stroke="#6670ee" stroke-width="3"/>
<polyline points="464.6,169.1 540.4,237.7" fill="none" stroke="#6670ee" stroke-width="3"/>
<circle cx="426.8" cy="251.4" r="7" fill="#fff" stroke="#6670ee" stroke-width="3"/>
<circle cx="464.6" cy="169.1" r="7" fill="#fff" stroke="#6670ee" stroke-width="3"/>
<circle cx="502.5" cy="278.8" r="7" fill="#6670ee" stroke="#6670ee" stroke-width="3"/>
<circle cx="540.4" cy="237.7" r="7" fill="#6670ee" stroke="#6670ee" stroke-width="3"/>
<line x1="559.3" y1="73" x2="559.3" y2="320" stroke="#d9d5c8"/>
<text x="635.0" y="61.0" text-anchor="middle" font-family="-apple-system,BlinkMacSystemFont,PingFang SC,Noto Sans CJK SC,sans-serif" font-size="16" font-weight="400" fill="#30332e">个体 4</text>
<polyline points="578.2,237.7 653.9,292.6" fill="none" stroke="#6670ee" stroke-width="3"/>
<polyline points="616.1,196.5 691.8,210.2" fill="none" stroke="#6670ee" stroke-width="3"/>
<circle cx="578.2" cy="237.7" r="7" fill="#fff" stroke="#6670ee" stroke-width="3"/>
<circle cx="616.1" cy="196.5" r="7" fill="#fff" stroke="#6670ee" stroke-width="3"/>
<circle cx="653.9" cy="292.6" r="7" fill="#6670ee" stroke="#6670ee" stroke-width="3"/>
<circle cx="691.8" cy="210.2" r="7" fill="#6670ee" stroke="#6670ee" stroke-width="3"/>
<line x1="710.7" y1="73" x2="710.7" y2="320" stroke="#d9d5c8"/>
<text x="786.4" y="61.0" text-anchor="middle" font-family="-apple-system,BlinkMacSystemFont,PingFang SC,Noto Sans CJK SC,sans-serif" font-size="16" font-weight="400" fill="#30332e">个体 5</text>
<polyline points="729.6,237.7 805.4,251.4" fill="none" stroke="#6670ee" stroke-width="3"/>
<polyline points="767.5,182.8 843.2,196.5" fill="none" stroke="#6670ee" stroke-width="3"/>
<circle cx="729.6" cy="237.7" r="7" fill="#fff" stroke="#6670ee" stroke-width="3"/>
<circle cx="767.5" cy="182.8" r="7" fill="#fff" stroke="#6670ee" stroke-width="3"/>
<circle cx="805.4" cy="251.4" r="7" fill="#6670ee" stroke="#6670ee" stroke-width="3"/>
<circle cx="843.2" cy="196.5" r="7" fill="#6670ee" stroke="#6670ee" stroke-width="3"/>
<line x1="862.1" y1="73" x2="862.1" y2="320" stroke="#d9d5c8"/>
<text x="937.9" y="61.0" text-anchor="middle" font-family="-apple-system,BlinkMacSystemFont,PingFang SC,Noto Sans CJK SC,sans-serif" font-size="16" font-weight="400" fill="#30332e">个体 6</text>
<polyline points="881.1,127.9 956.8,182.8" fill="none" stroke="#6670ee" stroke-width="3"/>
<polyline points="918.9,169.1 994.6,169.1" fill="none" stroke="#6670ee" stroke-width="3"/>
<circle cx="881.1" cy="127.9" r="7" fill="#fff" stroke="#6670ee" stroke-width="3"/>
<circle cx="918.9" cy="169.1" r="7" fill="#fff" stroke="#6670ee" stroke-width="3"/>
<circle cx="956.8" cy="182.8" r="7" fill="#6670ee" stroke="#6670ee" stroke-width="3"/>
<circle cx="994.6" cy="169.1" r="7" fill="#6670ee" stroke="#6670ee" stroke-width="3"/>
<line x1="1013.6" y1="73" x2="1013.6" y2="320" stroke="#d9d5c8"/>
<text x="1089.3" y="61.0" text-anchor="middle" font-family="-apple-system,BlinkMacSystemFont,PingFang SC,Noto Sans CJK SC,sans-serif" font-size="16" font-weight="400" fill="#30332e">个体 7</text>
<polyline points="1032.5,127.9 1108.2,86.7" fill="none" stroke="#6670ee" stroke-width="3"/>
<polyline points="1070.4,114.2 1146.1,73.0" fill="none" stroke="#6670ee" stroke-width="3"/>
<circle cx="1032.5" cy="127.9" r="7" fill="#fff" stroke="#6670ee" stroke-width="3"/>
<circle cx="1070.4" cy="114.2" r="7" fill="#fff" stroke="#6670ee" stroke-width="3"/>
<circle cx="1108.2" cy="86.7" r="7" fill="#6670ee" stroke="#6670ee" stroke-width="3"/>
<circle cx="1146.1" cy="73.0" r="7" fill="#6670ee" stroke="#6670ee" stroke-width="3"/>
<text x="635.0" y="405.0" text-anchor="middle" font-family="-apple-system,BlinkMacSystemFont,PingFang SC,Noto Sans CJK SC,sans-serif" font-size="22" font-weight="700" fill="#263f86">后验预测</text>
<rect x="105" y="448" width="1060" height="247" fill="#fff" stroke="#d9d5c8"/>
<line x1="105" y1="571.5" x2="1165" y2="571.5" stroke="#d9d5c8" stroke-width="2" stroke-dasharray="8 7"/>
<text x="87.0" y="454.0" text-anchor="end" font-family="-apple-system,BlinkMacSystemFont,PingFang SC,Noto Sans CJK SC,sans-serif" font-size="17" font-weight="400" fill="#30332e">1</text>
<text x="87.0" y="577.5" text-anchor="end" font-family="-apple-system,BlinkMacSystemFont,PingFang SC,Noto Sans CJK SC,sans-serif" font-size="17" font-weight="400" fill="#30332e">0.5</text>
<text x="87.0" y="701.0" text-anchor="end" font-family="-apple-system,BlinkMacSystemFont,PingFang SC,Noto Sans CJK SC,sans-serif" font-size="17" font-weight="400" fill="#30332e">0</text>
<text x="30.0" y="571.5" text-anchor="middle" font-family="-apple-system,BlinkMacSystemFont,PingFang SC,Noto Sans CJK SC,sans-serif" font-size="19" font-weight="400" fill="#30332e" transform="rotate(-90 30 571.5)">拉左侧杠杆的比例</text>
<text x="180.7" y="436.0" text-anchor="middle" font-family="-apple-system,BlinkMacSystemFont,PingFang SC,Noto Sans CJK SC,sans-serif" font-size="16" font-weight="400" fill="#30332e">个体 1</text>
<polyline points="123.9,601.2 199.6,620.0" fill="none" stroke="#6670ee" stroke-width="3"/>
<polyline points="161.8,569.6 237.5,576.4" fill="none" stroke="#6670ee" stroke-width="3"/>
<line x1="123.9" y1="636.5" x2="123.9" y2="559.8" stroke="#30332e" stroke-width="2"/>
<circle cx="123.9" cy="601.2" r="7" fill="#fff" stroke="#6670ee" stroke-width="3"/>
<line x1="161.8" y1="610.3" x2="161.8" y2="529.4" stroke="#30332e" stroke-width="2"/>
<circle cx="161.8" cy="569.6" r="7" fill="#fff" stroke="#6670ee" stroke-width="3"/>
<line x1="199.6" y1="650.3" x2="199.6" y2="580.7" stroke="#30332e" stroke-width="2"/>
<circle cx="199.6" cy="620.0" r="7" fill="#6670ee" stroke="#6670ee" stroke-width="3"/>
<line x1="237.5" y1="615.8" x2="237.5" y2="536.1" stroke="#30332e" stroke-width="2"/>
<circle cx="237.5" cy="576.4" r="7" fill="#6670ee" stroke="#6670ee" stroke-width="3"/>
<line x1="256.4" y1="448" x2="256.4" y2="695" stroke="#d9d5c8"/>
<text x="332.1" y="436.0" text-anchor="middle" font-family="-apple-system,BlinkMacSystemFont,PingFang SC,Noto Sans CJK SC,sans-serif" font-size="16" font-weight="400" fill="#30332e">个体 2</text>
<polyline points="275.4,453.3 351.1,455.4" fill="none" stroke="#6670ee" stroke-width="3"/>
<polyline points="313.2,451.2 388.9,451.5" fill="none" stroke="#6670ee" stroke-width="3"/>
<line x1="275.4" y1="465.6" x2="275.4" y2="449.5" stroke="#30332e" stroke-width="2"/>
<circle cx="275.4" cy="453.3" r="7" fill="#fff" stroke="#6670ee" stroke-width="3"/>
<line x1="313.2" y1="458.8" x2="313.2" y2="448.9" stroke="#30332e" stroke-width="2"/>
<circle cx="313.2" cy="451.2" r="7" fill="#fff" stroke="#6670ee" stroke-width="3"/>
<line x1="351.1" y1="472.0" x2="351.1" y2="450.2" stroke="#30332e" stroke-width="2"/>
<circle cx="351.1" cy="455.4" r="7" fill="#6670ee" stroke="#6670ee" stroke-width="3"/>
<line x1="388.9" y1="459.9" x2="388.9" y2="449.0" stroke="#30332e" stroke-width="2"/>
<circle cx="388.9" cy="451.5" r="7" fill="#6670ee" stroke="#6670ee" stroke-width="3"/>
<line x1="407.9" y1="448" x2="407.9" y2="695" stroke="#d9d5c8"/>
<text x="483.6" y="436.0" text-anchor="middle" font-family="-apple-system,BlinkMacSystemFont,PingFang SC,Noto Sans CJK SC,sans-serif" font-size="16" font-weight="400" fill="#30332e">个体 3</text>
<polyline points="426.8,617.9 502.5,634.7" fill="none" stroke="#6670ee" stroke-width="3"/>
<polyline points="464.6,588.1 540.4,594.7" fill="none" stroke="#6670ee" stroke-width="3"/>
<line x1="426.8" y1="649.3" x2="426.8" y2="577.5" stroke="#30332e" stroke-width="2"/>
<circle cx="426.8" cy="617.9" r="7" fill="#fff" stroke="#6670ee" stroke-width="3"/>
<line x1="464.6" y1="626.7" x2="464.6" y2="545.8" stroke="#30332e" stroke-width="2"/>
<circle cx="464.6" cy="588.1" r="7" fill="#fff" stroke="#6670ee" stroke-width="3"/>
<line x1="502.5" y1="660.6" x2="502.5" y2="598.1" stroke="#30332e" stroke-width="2"/>
<circle cx="502.5" cy="634.7" r="7" fill="#6670ee" stroke="#6670ee" stroke-width="3"/>
<line x1="540.4" y1="631.5" x2="540.4" y2="553.0" stroke="#30332e" stroke-width="2"/>
<circle cx="540.4" cy="594.7" r="7" fill="#6670ee" stroke="#6670ee" stroke-width="3"/>
<line x1="559.3" y1="448" x2="559.3" y2="695" stroke="#d9d5c8"/>
<text x="635.0" y="436.0" text-anchor="middle" font-family="-apple-system,BlinkMacSystemFont,PingFang SC,Noto Sans CJK SC,sans-serif" font-size="16" font-weight="400" fill="#30332e">个体 4</text>
<polyline points="578.2,617.4 653.9,634.2" fill="none" stroke="#6670ee" stroke-width="3"/>
<polyline points="616.1,587.5 691.8,594.1" fill="none" stroke="#6670ee" stroke-width="3"/>
<line x1="578.2" y1="648.9" x2="578.2" y2="576.9" stroke="#30332e" stroke-width="2"/>
<circle cx="578.2" cy="617.4" r="7" fill="#fff" stroke="#6670ee" stroke-width="3"/>
<line x1="616.1" y1="626.2" x2="616.1" y2="545.2" stroke="#30332e" stroke-width="2"/>
<circle cx="616.1" cy="587.5" r="7" fill="#fff" stroke="#6670ee" stroke-width="3"/>
<line x1="653.9" y1="660.3" x2="653.9" y2="597.5" stroke="#30332e" stroke-width="2"/>
<circle cx="653.9" cy="634.2" r="7" fill="#6670ee" stroke="#6670ee" stroke-width="3"/>
<line x1="691.8" y1="631.1" x2="691.8" y2="552.4" stroke="#30332e" stroke-width="2"/>
<circle cx="691.8" cy="594.1" r="7" fill="#6670ee" stroke="#6670ee" stroke-width="3"/>
<line x1="710.7" y1="448" x2="710.7" y2="695" stroke="#d9d5c8"/>
<text x="786.4" y="436.0" text-anchor="middle" font-family="-apple-system,BlinkMacSystemFont,PingFang SC,Noto Sans CJK SC,sans-serif" font-size="16" font-weight="400" fill="#30332e">个体 5</text>
<polyline points="729.6,600.6 805.4,619.5" fill="none" stroke="#6670ee" stroke-width="3"/>
<polyline points="767.5,569.0 843.2,575.8" fill="none" stroke="#6670ee" stroke-width="3"/>
<line x1="729.6" y1="636.1" x2="729.6" y2="559.2" stroke="#30332e" stroke-width="2"/>
<circle cx="729.6" cy="600.6" r="7" fill="#fff" stroke="#6670ee" stroke-width="3"/>
<line x1="767.5" y1="609.7" x2="767.5" y2="528.8" stroke="#30332e" stroke-width="2"/>
<circle cx="767.5" cy="569.0" r="7" fill="#fff" stroke="#6670ee" stroke-width="3"/>
<line x1="805.4" y1="650.0" x2="805.4" y2="580.1" stroke="#30332e" stroke-width="2"/>
<circle cx="805.4" cy="619.5" r="7" fill="#6670ee" stroke="#6670ee" stroke-width="3"/>
<line x1="843.2" y1="615.2" x2="843.2" y2="535.5" stroke="#30332e" stroke-width="2"/>
<circle cx="843.2" cy="575.8" r="7" fill="#6670ee" stroke="#6670ee" stroke-width="3"/>
<line x1="862.1" y1="448" x2="862.1" y2="695" stroke="#d9d5c8"/>
<text x="937.9" y="436.0" text-anchor="middle" font-family="-apple-system,BlinkMacSystemFont,PingFang SC,Noto Sans CJK SC,sans-serif" font-size="16" font-weight="400" fill="#30332e">个体 6</text>
<polyline points="881.1,544.8 956.8,565.3" fill="none" stroke="#6670ee" stroke-width="3"/>
<polyline points="918.9,516.4 994.6,522.0" fill="none" stroke="#6670ee" stroke-width="3"/>
<line x1="881.1" y1="586.3" x2="881.1" y2="508.7" stroke="#30332e" stroke-width="2"/>
<circle cx="881.1" cy="544.8" r="7" fill="#fff" stroke="#6670ee" stroke-width="3"/>
<line x1="918.9" y1="554.3" x2="918.9" y2="488.1" stroke="#30332e" stroke-width="2"/>
<circle cx="918.9" cy="516.4" r="7" fill="#fff" stroke="#6670ee" stroke-width="3"/>
<line x1="956.8" y1="606.4" x2="956.8" y2="525.6" stroke="#30332e" stroke-width="2"/>
<circle cx="956.8" cy="565.3" r="7" fill="#6670ee" stroke="#6670ee" stroke-width="3"/>
<line x1="994.6" y1="560.4" x2="994.6" y2="492.3" stroke="#30332e" stroke-width="2"/>
<circle cx="994.6" cy="522.0" r="7" fill="#6670ee" stroke="#6670ee" stroke-width="3"/>
<line x1="1013.6" y1="448" x2="1013.6" y2="695" stroke="#d9d5c8"/>
<text x="1089.3" y="436.0" text-anchor="middle" font-family="-apple-system,BlinkMacSystemFont,PingFang SC,Noto Sans CJK SC,sans-serif" font-size="16" font-weight="400" fill="#30332e">个体 7</text>
<polyline points="1032.5,479.9 1108.2,490.5" fill="none" stroke="#6670ee" stroke-width="3"/>
<polyline points="1070.4,468.0 1146.1,470.1" fill="none" stroke="#6670ee" stroke-width="3"/>
<line x1="1032.5" y1="508.4" x2="1032.5" y2="463.7" stroke="#30332e" stroke-width="2"/>
<circle cx="1032.5" cy="479.9" r="7" fill="#fff" stroke="#6670ee" stroke-width="3"/>
<line x1="1070.4" y1="487.8" x2="1070.4" y2="457.6" stroke="#30332e" stroke-width="2"/>
<circle cx="1070.4" cy="468.0" r="7" fill="#fff" stroke="#6670ee" stroke-width="3"/>
<line x1="1108.2" y1="525.2" x2="1108.2" y2="469.5" stroke="#30332e" stroke-width="2"/>
<circle cx="1108.2" cy="490.5" r="7" fill="#6670ee" stroke="#6670ee" stroke-width="3"/>
<line x1="1146.1" y1="491.3" x2="1146.1" y2="458.7" stroke="#30332e" stroke-width="2"/>
<circle cx="1146.1" cy="470.1" r="7" fill="#6670ee" stroke="#6670ee" stroke-width="3"/>
<text x="123.9" y="350.0" text-anchor="middle" font-family="-apple-system,BlinkMacSystemFont,PingFang SC,Noto Sans CJK SC,sans-serif" font-size="14" font-weight="400" fill="#30332e">R/N</text>
<text x="161.8" y="350.0" text-anchor="middle" font-family="-apple-system,BlinkMacSystemFont,PingFang SC,Noto Sans CJK SC,sans-serif" font-size="14" font-weight="400" fill="#30332e">L/N</text>
<text x="199.6" y="350.0" text-anchor="middle" font-family="-apple-system,BlinkMacSystemFont,PingFang SC,Noto Sans CJK SC,sans-serif" font-size="14" font-weight="400" fill="#30332e">R/P</text>
<text x="237.5" y="350.0" text-anchor="middle" font-family="-apple-system,BlinkMacSystemFont,PingFang SC,Noto Sans CJK SC,sans-serif" font-size="14" font-weight="400" fill="#30332e">L/P</text>
</svg>
