<?xml version="1.0" encoding="UTF-8"?>
<svg xmlns="http://www.w3.org/2000/svg" width="900" height="650" viewBox="0 0 900 650" role="img">
  <title>科研资助筛选造成的选择扭曲</title>
  <desc>两百份提案在筛选前可信度与新闻价值不相关；获选的百分之十内部出现约 -0.78 的负相关。</desc>
  <rect width="100%" height="100%" fill="#fff"/>
  <rect x="125" y="55" width="690" height="475" fill="#fff" stroke="#343732" stroke-width="1.5"/>
  <circle cx="583.66" cy="318.50" r="3.5" fill="#a9aca8" opacity="0.55"/>
  <circle cx="445.68" cy="353.70" r="3.5" fill="#a9aca8" opacity="0.55"/>
  <circle cx="706.87" cy="234.13" r="5" fill="#6670ee" opacity="0.9"/>
  <circle cx="481.16" cy="313.11" r="3.5" fill="#a9aca8" opacity="0.55"/>
  <circle cx="602.20" cy="246.02" r="3.5" fill="#a9aca8" opacity="0.55"/>
  <circle cx="416.95" cy="164.49" r="3.5" fill="#a9aca8" opacity="0.55"/>
  <circle cx="448.64" cy="309.14" r="3.5" fill="#a9aca8" opacity="0.55"/>
  <circle cx="430.23" cy="202.30" r="3.5" fill="#a9aca8" opacity="0.55"/>
  <circle cx="478.19" cy="346.64" r="3.5" fill="#a9aca8" opacity="0.55"/>
  <circle cx="391.16" cy="333.00" r="3.5" fill="#a9aca8" opacity="0.55"/>
  <circle cx="656.57" cy="325.48" r="3.5" fill="#a9aca8" opacity="0.55"/>
  <circle cx="506.58" cy="236.12" r="3.5" fill="#a9aca8" opacity="0.55"/>
  <circle cx="384.47" cy="306.26" r="3.5" fill="#a9aca8" opacity="0.55"/>
  <circle cx="594.02" cy="167.93" r="5" fill="#6670ee" opacity="0.9"/>
  <circle cx="424.34" cy="371.74" r="3.5" fill="#a9aca8" opacity="0.55"/>
  <circle cx="429.33" cy="342.25" r="3.5" fill="#a9aca8" opacity="0.55"/>
  <circle cx="491.69" cy="266.80" r="3.5" fill="#a9aca8" opacity="0.55"/>
  <circle cx="518.52" cy="343.63" r="3.5" fill="#a9aca8" opacity="0.55"/>
  <circle cx="594.00" cy="280.90" r="3.5" fill="#a9aca8" opacity="0.55"/>
  <circle cx="481.42" cy="278.99" r="3.5" fill="#a9aca8" opacity="0.55"/>
  <circle cx="508.44" cy="71.77" r="5" fill="#6670ee" opacity="0.9"/>
  <circle cx="461.38" cy="239.72" r="3.5" fill="#a9aca8" opacity="0.55"/>
  <circle cx="353.25" cy="183.98" r="3.5" fill="#a9aca8" opacity="0.55"/>
  <circle cx="439.17" cy="310.52" r="3.5" fill="#a9aca8" opacity="0.55"/>
  <circle cx="432.61" cy="203.29" r="3.5" fill="#a9aca8" opacity="0.55"/>
  <circle cx="442.31" cy="297.74" r="3.5" fill="#a9aca8" opacity="0.55"/>
  <circle cx="394.86" cy="374.38" r="3.5" fill="#a9aca8" opacity="0.55"/>
  <circle cx="429.30" cy="256.80" r="3.5" fill="#a9aca8" opacity="0.55"/>
  <circle cx="324.56" cy="178.78" r="3.5" fill="#a9aca8" opacity="0.55"/>
  <circle cx="416.16" cy="239.86" r="3.5" fill="#a9aca8" opacity="0.55"/>
  <circle cx="369.71" cy="331.52" r="3.5" fill="#a9aca8" opacity="0.55"/>
  <circle cx="482.01" cy="184.47" r="3.5" fill="#a9aca8" opacity="0.55"/>
  <circle cx="471.34" cy="248.46" r="3.5" fill="#a9aca8" opacity="0.55"/>
  <circle cx="721.03" cy="320.64" r="5" fill="#6670ee" opacity="0.9"/>
  <circle cx="343.13" cy="400.46" r="3.5" fill="#a9aca8" opacity="0.55"/>
  <circle cx="508.26" cy="295.47" r="3.5" fill="#a9aca8" opacity="0.55"/>
  <circle cx="597.48" cy="250.47" r="3.5" fill="#a9aca8" opacity="0.55"/>
  <circle cx="485.54" cy="396.82" r="3.5" fill="#a9aca8" opacity="0.55"/>
  <circle cx="530.03" cy="339.16" r="3.5" fill="#a9aca8" opacity="0.55"/>
  <circle cx="472.18" cy="209.00" r="3.5" fill="#a9aca8" opacity="0.55"/>
  <circle cx="366.58" cy="246.90" r="3.5" fill="#a9aca8" opacity="0.55"/>
  <circle cx="487.83" cy="218.04" r="3.5" fill="#a9aca8" opacity="0.55"/>
  <circle cx="605.25" cy="123.47" r="5" fill="#6670ee" opacity="0.9"/>
  <circle cx="517.90" cy="359.37" r="3.5" fill="#a9aca8" opacity="0.55"/>
  <circle cx="540.81" cy="234.15" r="3.5" fill="#a9aca8" opacity="0.55"/>
  <circle cx="588.03" cy="222.02" r="5" fill="#6670ee" opacity="0.9"/>
  <circle cx="626.47" cy="322.87" r="3.5" fill="#a9aca8" opacity="0.55"/>
  <circle cx="669.75" cy="320.97" r="3.5" fill="#a9aca8" opacity="0.55"/>
  <circle cx="505.54" cy="239.90" r="3.5" fill="#a9aca8" opacity="0.55"/>
  <circle cx="201.95" cy="309.96" r="3.5" fill="#a9aca8" opacity="0.55"/>
  <circle cx="528.12" cy="247.25" r="3.5" fill="#a9aca8" opacity="0.55"/>
  <circle cx="541.37" cy="216.80" r="3.5" fill="#a9aca8" opacity="0.55"/>
  <circle cx="554.12" cy="420.33" r="3.5" fill="#a9aca8" opacity="0.55"/>
  <circle cx="491.37" cy="296.52" r="3.5" fill="#a9aca8" opacity="0.55"/>
  <circle cx="493.42" cy="252.65" r="3.5" fill="#a9aca8" opacity="0.55"/>
  <circle cx="406.84" cy="345.10" r="3.5" fill="#a9aca8" opacity="0.55"/>
  <circle cx="621.36" cy="317.23" r="3.5" fill="#a9aca8" opacity="0.55"/>
  <circle cx="691.44" cy="384.57" r="3.5" fill="#a9aca8" opacity="0.55"/>
  <circle cx="585.30" cy="390.43" r="3.5" fill="#a9aca8" opacity="0.55"/>
  <circle cx="638.63" cy="314.44" r="3.5" fill="#a9aca8" opacity="0.55"/>
  <circle cx="572.99" cy="360.03" r="3.5" fill="#a9aca8" opacity="0.55"/>
  <circle cx="497.18" cy="268.83" r="3.5" fill="#a9aca8" opacity="0.55"/>
  <circle cx="412.26" cy="178.66" r="3.5" fill="#a9aca8" opacity="0.55"/>
  <circle cx="549.91" cy="346.31" r="3.5" fill="#a9aca8" opacity="0.55"/>
  <circle cx="519.71" cy="362.01" r="3.5" fill="#a9aca8" opacity="0.55"/>
  <circle cx="357.97" cy="430.78" r="3.5" fill="#a9aca8" opacity="0.55"/>
  <circle cx="494.96" cy="315.10" r="3.5" fill="#a9aca8" opacity="0.55"/>
  <circle cx="350.95" cy="309.81" r="3.5" fill="#a9aca8" opacity="0.55"/>
  <circle cx="561.45" cy="274.00" r="3.5" fill="#a9aca8" opacity="0.55"/>
  <circle cx="266.94" cy="160.00" r="3.5" fill="#a9aca8" opacity="0.55"/>
  <circle cx="295.46" cy="392.43" r="3.5" fill="#a9aca8" opacity="0.55"/>
  <circle cx="539.62" cy="147.79" r="5" fill="#6670ee" opacity="0.9"/>
  <circle cx="505.72" cy="319.61" r="3.5" fill="#a9aca8" opacity="0.55"/>
  <circle cx="387.10" cy="359.79" r="3.5" fill="#a9aca8" opacity="0.55"/>
  <circle cx="519.20" cy="316.84" r="3.5" fill="#a9aca8" opacity="0.55"/>
  <circle cx="518.51" cy="291.40" r="3.5" fill="#a9aca8" opacity="0.55"/>
  <circle cx="419.95" cy="321.24" r="3.5" fill="#a9aca8" opacity="0.55"/>
  <circle cx="491.27" cy="282.78" r="3.5" fill="#a9aca8" opacity="0.55"/>
  <circle cx="270.78" cy="338.27" r="3.5" fill="#a9aca8" opacity="0.55"/>
  <circle cx="432.26" cy="127.91" r="5" fill="#6670ee" opacity="0.9"/>
  <circle cx="271.93" cy="225.73" r="3.5" fill="#a9aca8" opacity="0.55"/>
  <circle cx="488.47" cy="203.12" r="3.5" fill="#a9aca8" opacity="0.55"/>
  <circle cx="384.37" cy="359.09" r="3.5" fill="#a9aca8" opacity="0.55"/>
  <circle cx="341.60" cy="385.12" r="3.5" fill="#a9aca8" opacity="0.55"/>
  <circle cx="375.31" cy="251.59" r="3.5" fill="#a9aca8" opacity="0.55"/>
  <circle cx="608.67" cy="435.07" r="3.5" fill="#a9aca8" opacity="0.55"/>
  <circle cx="493.19" cy="336.90" r="3.5" fill="#a9aca8" opacity="0.55"/>
  <circle cx="411.37" cy="236.44" r="3.5" fill="#a9aca8" opacity="0.55"/>
  <circle cx="541.53" cy="243.81" r="3.5" fill="#a9aca8" opacity="0.55"/>
  <circle cx="423.33" cy="198.33" r="3.5" fill="#a9aca8" opacity="0.55"/>
  <circle cx="586.28" cy="280.97" r="3.5" fill="#a9aca8" opacity="0.55"/>
  <circle cx="640.74" cy="244.79" r="5" fill="#6670ee" opacity="0.9"/>
  <circle cx="434.26" cy="189.39" r="3.5" fill="#a9aca8" opacity="0.55"/>
  <circle cx="281.85" cy="298.93" r="3.5" fill="#a9aca8" opacity="0.55"/>
  <circle cx="430.99" cy="303.13" r="3.5" fill="#a9aca8" opacity="0.55"/>
  <circle cx="483.58" cy="379.47" r="3.5" fill="#a9aca8" opacity="0.55"/>
  <circle cx="443.32" cy="182.84" r="3.5" fill="#a9aca8" opacity="0.55"/>
  <circle cx="490.63" cy="171.98" r="3.5" fill="#a9aca8" opacity="0.55"/>
  <circle cx="463.25" cy="306.25" r="3.5" fill="#a9aca8" opacity="0.55"/>
  <circle cx="499.24" cy="311.74" r="3.5" fill="#a9aca8" opacity="0.55"/>
  <circle cx="423.86" cy="220.99" r="3.5" fill="#a9aca8" opacity="0.55"/>
  <circle cx="468.05" cy="335.40" r="3.5" fill="#a9aca8" opacity="0.55"/>
  <circle cx="622.49" cy="350.98" r="3.5" fill="#a9aca8" opacity="0.55"/>
  <circle cx="401.52" cy="333.75" r="3.5" fill="#a9aca8" opacity="0.55"/>
  <circle cx="363.89" cy="395.12" r="3.5" fill="#a9aca8" opacity="0.55"/>
  <circle cx="707.04" cy="214.59" r="5" fill="#6670ee" opacity="0.9"/>
  <circle cx="546.08" cy="291.52" r="3.5" fill="#a9aca8" opacity="0.55"/>
  <circle cx="503.62" cy="282.71" r="3.5" fill="#a9aca8" opacity="0.55"/>
  <circle cx="571.91" cy="375.37" r="3.5" fill="#a9aca8" opacity="0.55"/>
  <circle cx="520.32" cy="93.31" r="5" fill="#6670ee" opacity="0.9"/>
  <circle cx="502.26" cy="219.47" r="3.5" fill="#a9aca8" opacity="0.55"/>
  <circle cx="573.46" cy="223.51" r="5" fill="#6670ee" opacity="0.9"/>
  <circle cx="406.95" cy="231.81" r="3.5" fill="#a9aca8" opacity="0.55"/>
  <circle cx="253.70" cy="361.27" r="3.5" fill="#a9aca8" opacity="0.55"/>
  <circle cx="270.81" cy="369.16" r="3.5" fill="#a9aca8" opacity="0.55"/>
  <circle cx="469.35" cy="343.60" r="3.5" fill="#a9aca8" opacity="0.55"/>
  <circle cx="332.76" cy="323.40" r="3.5" fill="#a9aca8" opacity="0.55"/>
  <circle cx="633.26" cy="229.17" r="5" fill="#6670ee" opacity="0.9"/>
  <circle cx="302.89" cy="187.61" r="3.5" fill="#a9aca8" opacity="0.55"/>
  <circle cx="454.17" cy="344.62" r="3.5" fill="#a9aca8" opacity="0.55"/>
  <circle cx="535.12" cy="343.70" r="3.5" fill="#a9aca8" opacity="0.55"/>
  <circle cx="597.19" cy="356.56" r="3.5" fill="#a9aca8" opacity="0.55"/>
  <circle cx="406.91" cy="163.76" r="3.5" fill="#a9aca8" opacity="0.55"/>
  <circle cx="657.03" cy="373.10" r="3.5" fill="#a9aca8" opacity="0.55"/>
  <circle cx="346.08" cy="201.52" r="3.5" fill="#a9aca8" opacity="0.55"/>
  <circle cx="442.84" cy="311.55" r="3.5" fill="#a9aca8" opacity="0.55"/>
  <circle cx="489.87" cy="333.16" r="3.5" fill="#a9aca8" opacity="0.55"/>
  <circle cx="335.40" cy="266.20" r="3.5" fill="#a9aca8" opacity="0.55"/>
  <circle cx="441.31" cy="314.37" r="3.5" fill="#a9aca8" opacity="0.55"/>
  <circle cx="519.39" cy="144.83" r="5" fill="#6670ee" opacity="0.9"/>
  <circle cx="295.79" cy="210.35" r="3.5" fill="#a9aca8" opacity="0.55"/>
  <circle cx="296.87" cy="133.13" r="3.5" fill="#a9aca8" opacity="0.55"/>
  <circle cx="492.47" cy="415.67" r="3.5" fill="#a9aca8" opacity="0.55"/>
  <circle cx="435.71" cy="366.77" r="3.5" fill="#a9aca8" opacity="0.55"/>
  <circle cx="467.13" cy="414.71" r="3.5" fill="#a9aca8" opacity="0.55"/>
  <circle cx="475.61" cy="315.91" r="3.5" fill="#a9aca8" opacity="0.55"/>
  <circle cx="399.94" cy="411.38" r="3.5" fill="#a9aca8" opacity="0.55"/>
  <circle cx="333.14" cy="365.05" r="3.5" fill="#a9aca8" opacity="0.55"/>
  <circle cx="473.03" cy="411.14" r="3.5" fill="#a9aca8" opacity="0.55"/>
  <circle cx="408.99" cy="303.21" r="3.5" fill="#a9aca8" opacity="0.55"/>
  <circle cx="493.61" cy="268.84" r="3.5" fill="#a9aca8" opacity="0.55"/>
  <circle cx="582.35" cy="360.20" r="3.5" fill="#a9aca8" opacity="0.55"/>
  <circle cx="463.88" cy="203.55" r="3.5" fill="#a9aca8" opacity="0.55"/>
  <circle cx="396.80" cy="225.64" r="3.5" fill="#a9aca8" opacity="0.55"/>
  <circle cx="516.67" cy="209.62" r="3.5" fill="#a9aca8" opacity="0.55"/>
  <circle cx="375.24" cy="406.16" r="3.5" fill="#a9aca8" opacity="0.55"/>
  <circle cx="662.58" cy="201.75" r="5" fill="#6670ee" opacity="0.9"/>
  <circle cx="275.69" cy="199.39" r="3.5" fill="#a9aca8" opacity="0.55"/>
  <circle cx="233.75" cy="385.56" r="3.5" fill="#a9aca8" opacity="0.55"/>
  <circle cx="413.30" cy="285.53" r="3.5" fill="#a9aca8" opacity="0.55"/>
  <circle cx="325.34" cy="206.52" r="3.5" fill="#a9aca8" opacity="0.55"/>
  <circle cx="547.13" cy="198.79" r="5" fill="#6670ee" opacity="0.9"/>
  <circle cx="587.81" cy="284.54" r="3.5" fill="#a9aca8" opacity="0.55"/>
  <circle cx="301.05" cy="177.84" r="3.5" fill="#a9aca8" opacity="0.55"/>
  <circle cx="539.87" cy="387.45" r="3.5" fill="#a9aca8" opacity="0.55"/>
  <circle cx="516.13" cy="132.65" r="5" fill="#6670ee" opacity="0.9"/>
  <circle cx="290.02" cy="309.15" r="3.5" fill="#a9aca8" opacity="0.55"/>
  <circle cx="583.81" cy="359.98" r="3.5" fill="#a9aca8" opacity="0.55"/>
  <circle cx="461.14" cy="338.28" r="3.5" fill="#a9aca8" opacity="0.55"/>
  <circle cx="522.23" cy="306.76" r="3.5" fill="#a9aca8" opacity="0.55"/>
  <circle cx="417.00" cy="461.71" r="3.5" fill="#a9aca8" opacity="0.55"/>
  <circle cx="522.77" cy="263.43" r="3.5" fill="#a9aca8" opacity="0.55"/>
  <circle cx="439.79" cy="233.74" r="3.5" fill="#a9aca8" opacity="0.55"/>
  <circle cx="329.74" cy="320.59" r="3.5" fill="#a9aca8" opacity="0.55"/>
  <circle cx="678.99" cy="377.01" r="3.5" fill="#a9aca8" opacity="0.55"/>
  <circle cx="541.55" cy="260.01" r="3.5" fill="#a9aca8" opacity="0.55"/>
  <circle cx="296.13" cy="510.01" r="3.5" fill="#a9aca8" opacity="0.55"/>
  <circle cx="538.14" cy="347.14" r="3.5" fill="#a9aca8" opacity="0.55"/>
  <circle cx="516.93" cy="250.27" r="3.5" fill="#a9aca8" opacity="0.55"/>
  <circle cx="549.71" cy="267.21" r="3.5" fill="#a9aca8" opacity="0.55"/>
  <circle cx="566.81" cy="344.85" r="3.5" fill="#a9aca8" opacity="0.55"/>
  <circle cx="518.05" cy="334.55" r="3.5" fill="#a9aca8" opacity="0.55"/>
  <circle cx="322.65" cy="374.75" r="3.5" fill="#a9aca8" opacity="0.55"/>
  <circle cx="540.57" cy="213.05" r="3.5" fill="#a9aca8" opacity="0.55"/>
  <circle cx="361.83" cy="286.85" r="3.5" fill="#a9aca8" opacity="0.55"/>
  <circle cx="483.95" cy="275.28" r="3.5" fill="#a9aca8" opacity="0.55"/>
  <circle cx="383.22" cy="228.89" r="3.5" fill="#a9aca8" opacity="0.55"/>
  <circle cx="482.09" cy="304.29" r="3.5" fill="#a9aca8" opacity="0.55"/>
  <circle cx="370.34" cy="272.15" r="3.5" fill="#a9aca8" opacity="0.55"/>
  <circle cx="576.76" cy="277.76" r="3.5" fill="#a9aca8" opacity="0.55"/>
  <circle cx="505.54" cy="325.85" r="3.5" fill="#a9aca8" opacity="0.55"/>
  <circle cx="595.48" cy="362.96" r="3.5" fill="#a9aca8" opacity="0.55"/>
  <circle cx="577.77" cy="403.47" r="3.5" fill="#a9aca8" opacity="0.55"/>
  <circle cx="419.02" cy="117.54" r="5" fill="#6670ee" opacity="0.9"/>
  <circle cx="392.26" cy="186.26" r="3.5" fill="#a9aca8" opacity="0.55"/>
  <circle cx="332.07" cy="342.82" r="3.5" fill="#a9aca8" opacity="0.55"/>
  <circle cx="524.97" cy="255.88" r="3.5" fill="#a9aca8" opacity="0.55"/>
  <circle cx="305.57" cy="318.23" r="3.5" fill="#a9aca8" opacity="0.55"/>
  <circle cx="443.16" cy="282.75" r="3.5" fill="#a9aca8" opacity="0.55"/>
  <circle cx="427.28" cy="294.21" r="3.5" fill="#a9aca8" opacity="0.55"/>
  <circle cx="341.78" cy="430.02" r="3.5" fill="#a9aca8" opacity="0.55"/>
  <circle cx="612.46" cy="387.99" r="3.5" fill="#a9aca8" opacity="0.55"/>
  <circle cx="524.32" cy="194.79" r="3.5" fill="#a9aca8" opacity="0.55"/>
  <circle cx="493.58" cy="354.62" r="3.5" fill="#a9aca8" opacity="0.55"/>
  <circle cx="588.93" cy="201.53" r="5" fill="#6670ee" opacity="0.9"/>
  <circle cx="389.57" cy="338.12" r="3.5" fill="#a9aca8" opacity="0.55"/>
  <circle cx="649.05" cy="199.51" r="5" fill="#6670ee" opacity="0.9"/>
  <circle cx="447.57" cy="153.64" r="3.5" fill="#a9aca8" opacity="0.55"/>
  <circle cx="560.77" cy="264.55" r="3.5" fill="#a9aca8" opacity="0.55"/>
  <circle cx="467.53" cy="215.92" r="3.5" fill="#a9aca8" opacity="0.55"/>
  <line x1="419.02" y1="90.29" x2="721.03" y2="256.50" stroke="#263f86" stroke-width="3"/>
  <text x="146.56" y="560" text-anchor="middle" font-family="PingFang SC, Noto Sans CJK SC, Microsoft YaHei, sans-serif" font-size="16" fill="#30332e">-3</text>
  <text x="105" y="520.16" text-anchor="end" font-family="PingFang SC, Noto Sans CJK SC, Microsoft YaHei, sans-serif" font-size="16" fill="#30332e">-3</text>
  <text x="254.38" y="560" text-anchor="middle" font-family="PingFang SC, Noto Sans CJK SC, Microsoft YaHei, sans-serif" font-size="16" fill="#30332e">-2</text>
  <text x="105" y="445.94" text-anchor="end" font-family="PingFang SC, Noto Sans CJK SC, Microsoft YaHei, sans-serif" font-size="16" fill="#30332e">-2</text>
  <text x="362.19" y="560" text-anchor="middle" font-family="PingFang SC, Noto Sans CJK SC, Microsoft YaHei, sans-serif" font-size="16" fill="#30332e">-1</text>
  <text x="105" y="371.72" text-anchor="end" font-family="PingFang SC, Noto Sans CJK SC, Microsoft YaHei, sans-serif" font-size="16" fill="#30332e">-1</text>
  <text x="470.00" y="560" text-anchor="middle" font-family="PingFang SC, Noto Sans CJK SC, Microsoft YaHei, sans-serif" font-size="16" fill="#30332e">0</text>
  <text x="105" y="297.50" text-anchor="end" font-family="PingFang SC, Noto Sans CJK SC, Microsoft YaHei, sans-serif" font-size="16" fill="#30332e">0</text>
  <text x="577.81" y="560" text-anchor="middle" font-family="PingFang SC, Noto Sans CJK SC, Microsoft YaHei, sans-serif" font-size="16" fill="#30332e">1</text>
  <text x="105" y="223.28" text-anchor="end" font-family="PingFang SC, Noto Sans CJK SC, Microsoft YaHei, sans-serif" font-size="16" fill="#30332e">1</text>
  <text x="685.62" y="560" text-anchor="middle" font-family="PingFang SC, Noto Sans CJK SC, Microsoft YaHei, sans-serif" font-size="16" fill="#30332e">2</text>
  <text x="105" y="149.06" text-anchor="end" font-family="PingFang SC, Noto Sans CJK SC, Microsoft YaHei, sans-serif" font-size="16" fill="#30332e">2</text>
  <text x="793.44" y="560" text-anchor="middle" font-family="PingFang SC, Noto Sans CJK SC, Microsoft YaHei, sans-serif" font-size="16" fill="#30332e">3</text>
  <text x="105" y="74.84" text-anchor="end" font-family="PingFang SC, Noto Sans CJK SC, Microsoft YaHei, sans-serif" font-size="16" fill="#30332e">3</text>
  <text x="470" y="606" text-anchor="middle" font-family="PingFang SC, Noto Sans CJK SC, Microsoft YaHei, sans-serif" font-size="20" font-weight="700" fill="#263f86">新闻价值</text>
  <text x="48" y="292" transform="rotate(-90 48 292)" text-anchor="middle" font-family="PingFang SC, Noto Sans CJK SC, Microsoft YaHei, sans-serif" font-size="20" font-weight="700" fill="#263f86">可信度</text>
  <circle cx="640" cy="620" r="5" fill="#6670ee"/><text x="654" y="626" font-family="PingFang SC, Noto Sans CJK SC, Microsoft YaHei, sans-serif" font-size="16" fill="#30332e">获选</text>
  <circle cx="720" cy="620" r="4" fill="#a9aca8"/><text x="734" y="626" font-family="PingFang SC, Noto Sans CJK SC, Microsoft YaHei, sans-serif" font-size="16" fill="#30332e">落选</text>
</svg>
