<?xml version="1.0" encoding="UTF-8"?>
<svg xmlns="http://www.w3.org/2000/svg" width="1080" height="500" viewBox="0 0 1080 500" role="img">
  <title>五点与二十点网格近似比较</title>
  <desc>左图使用五个均匀网格点近似后验，形状粗糙；右图使用二十个网格点，已形成平滑而准确的后验轮廓。</desc>
  <rect width="100%" height="100%" fill="#ffffff"/>
  <g id="grid-5">
    <text x="297.5" y="75" text-anchor="middle" font-family="-apple-system,BlinkMacSystemFont,PingFang SC,Noto Sans CJK SC,sans-serif" font-size="22" font-weight="700" fill="#263f86">5 个点</text>
    <line x1="135" y1="335" x2="460" y2="335" stroke="#363934" stroke-width="1.3"/>
    <line x1="135" y1="110" x2="135" y2="335" stroke="#363934" stroke-width="1.3"/>
    <path d="M135 335 L216.25 327.28 L297.5 188.68 L378.75 126.67 L460 335" fill="none" stroke="#172860" stroke-width="2.4"/>
    <circle cx="135" cy="335" r="4.1" fill="#ffffff" stroke="#172860" stroke-width="2"/>
    <circle cx="216.25" cy="327.28" r="4.1" fill="#ffffff" stroke="#172860" stroke-width="2"/>
    <circle cx="297.5" cy="188.68" r="4.1" fill="#ffffff" stroke="#172860" stroke-width="2"/>
    <circle cx="378.75" cy="126.67" r="4.1" fill="#ffffff" stroke="#172860" stroke-width="2"/>
    <circle cx="460" cy="335" r="4.1" fill="#ffffff" stroke="#172860" stroke-width="2"/>
    <line x1="135" y1="335" x2="135" y2="343" stroke="#363934"/>
    <text x="135" y="363" text-anchor="middle" font-family="-apple-system,BlinkMacSystemFont,PingFang SC,Noto Sans CJK SC,sans-serif" font-size="14" fill="#30332e">0</text>
    <line x1="200" y1="335" x2="200" y2="343" stroke="#363934"/>
    <text x="200" y="363" text-anchor="middle" font-family="-apple-system,BlinkMacSystemFont,PingFang SC,Noto Sans CJK SC,sans-serif" font-size="14" fill="#30332e">0.2</text>
    <line x1="265" y1="335" x2="265" y2="343" stroke="#363934"/>
    <text x="265" y="363" text-anchor="middle" font-family="-apple-system,BlinkMacSystemFont,PingFang SC,Noto Sans CJK SC,sans-serif" font-size="14" fill="#30332e">0.4</text>
    <line x1="330" y1="335" x2="330" y2="343" stroke="#363934"/>
    <text x="330" y="363" text-anchor="middle" font-family="-apple-system,BlinkMacSystemFont,PingFang SC,Noto Sans CJK SC,sans-serif" font-size="14" fill="#30332e">0.6</text>
    <line x1="395" y1="335" x2="395" y2="343" stroke="#363934"/>
    <text x="395" y="363" text-anchor="middle" font-family="-apple-system,BlinkMacSystemFont,PingFang SC,Noto Sans CJK SC,sans-serif" font-size="14" fill="#30332e">0.8</text>
    <line x1="460" y1="335" x2="460" y2="343" stroke="#363934"/>
    <text x="460" y="363" text-anchor="middle" font-family="-apple-system,BlinkMacSystemFont,PingFang SC,Noto Sans CJK SC,sans-serif" font-size="14" fill="#30332e">1</text>
    <text x="297.5" y="397" text-anchor="middle" font-family="-apple-system,BlinkMacSystemFont,PingFang SC,Noto Sans CJK SC,sans-serif" font-size="17" fill="#30332e">水域概率</text>
    <text x="80" y="222.5" transform="rotate(-90 80 222.5)" text-anchor="middle" font-family="-apple-system,BlinkMacSystemFont,PingFang SC,Noto Sans CJK SC,sans-serif" font-size="17" fill="#30332e">后验概率</text>
  </g>
  <g id="grid-20">
    <text x="817.5" y="75" text-anchor="middle" font-family="-apple-system,BlinkMacSystemFont,PingFang SC,Noto Sans CJK SC,sans-serif" font-size="22" font-weight="700" fill="#263f86">20 个点</text>
    <line x1="655" y1="335" x2="980" y2="335" stroke="#363934" stroke-width="1.3"/>
    <line x1="655" y1="110" x2="655" y2="335" stroke="#363934" stroke-width="1.3"/>
    <path d="M655 335 L672.11 335 L689.21 334.94 L706.32 334.4 L723.42 332.24 L740.53 326.43 L757.63 314.52 L774.74 294.38 L791.84 265.28 L808.95 228.81 L826.05 189.33 L843.16 153.75 L860.26 130.34 L877.37 126.67 L894.47 146.93 L911.58 189.33 L928.68 244.48 L945.79 296.41 L962.89 328.2 L980 335" fill="none" stroke="#172860" stroke-width="2.4"/>
    <circle cx="655" cy="335" r="4.1" fill="#ffffff" stroke="#172860" stroke-width="2"/>
    <circle cx="672.11" cy="335" r="4.1" fill="#ffffff" stroke="#172860" stroke-width="2"/>
    <circle cx="689.21" cy="334.94" r="4.1" fill="#ffffff" stroke="#172860" stroke-width="2"/>
    <circle cx="706.32" cy="334.4" r="4.1" fill="#ffffff" stroke="#172860" stroke-width="2"/>
    <circle cx="723.42" cy="332.24" r="4.1" fill="#ffffff" stroke="#172860" stroke-width="2"/>
    <circle cx="740.53" cy="326.43" r="4.1" fill="#ffffff" stroke="#172860" stroke-width="2"/>
    <circle cx="757.63" cy="314.52" r="4.1" fill="#ffffff" stroke="#172860" stroke-width="2"/>
    <circle cx="774.74" cy="294.38" r="4.1" fill="#ffffff" stroke="#172860" stroke-width="2"/>
    <circle cx="791.84" cy="265.28" r="4.1" fill="#ffffff" stroke="#172860" stroke-width="2"/>
    <circle cx="808.95" cy="228.81" r="4.1" fill="#ffffff" stroke="#172860" stroke-width="2"/>
    <circle cx="826.05" cy="189.33" r="4.1" fill="#ffffff" stroke="#172860" stroke-width="2"/>
    <circle cx="843.16" cy="153.75" r="4.1" fill="#ffffff" stroke="#172860" stroke-width="2"/>
    <circle cx="860.26" cy="130.34" r="4.1" fill="#ffffff" stroke="#172860" stroke-width="2"/>
    <circle cx="877.37" cy="126.67" r="4.1" fill="#ffffff" stroke="#172860" stroke-width="2"/>
    <circle cx="894.47" cy="146.93" r="4.1" fill="#ffffff" stroke="#172860" stroke-width="2"/>
    <circle cx="911.58" cy="189.33" r="4.1" fill="#ffffff" stroke="#172860" stroke-width="2"/>
    <circle cx="928.68" cy="244.48" r="4.1" fill="#ffffff" stroke="#172860" stroke-width="2"/>
    <circle cx="945.79" cy="296.41" r="4.1" fill="#ffffff" stroke="#172860" stroke-width="2"/>
    <circle cx="962.89" cy="328.2" r="4.1" fill="#ffffff" stroke="#172860" stroke-width="2"/>
    <circle cx="980" cy="335" r="4.1" fill="#ffffff" stroke="#172860" stroke-width="2"/>
    <line x1="655" y1="335" x2="655" y2="343" stroke="#363934"/>
    <text x="655" y="363" text-anchor="middle" font-family="-apple-system,BlinkMacSystemFont,PingFang SC,Noto Sans CJK SC,sans-serif" font-size="14" fill="#30332e">0</text>
    <line x1="720" y1="335" x2="720" y2="343" stroke="#363934"/>
    <text x="720" y="363" text-anchor="middle" font-family="-apple-system,BlinkMacSystemFont,PingFang SC,Noto Sans CJK SC,sans-serif" font-size="14" fill="#30332e">0.2</text>
    <line x1="785" y1="335" x2="785" y2="343" stroke="#363934"/>
    <text x="785" y="363" text-anchor="middle" font-family="-apple-system,BlinkMacSystemFont,PingFang SC,Noto Sans CJK SC,sans-serif" font-size="14" fill="#30332e">0.4</text>
    <line x1="850" y1="335" x2="850" y2="343" stroke="#363934"/>
    <text x="850" y="363" text-anchor="middle" font-family="-apple-system,BlinkMacSystemFont,PingFang SC,Noto Sans CJK SC,sans-serif" font-size="14" fill="#30332e">0.6</text>
    <line x1="915" y1="335" x2="915" y2="343" stroke="#363934"/>
    <text x="915" y="363" text-anchor="middle" font-family="-apple-system,BlinkMacSystemFont,PingFang SC,Noto Sans CJK SC,sans-serif" font-size="14" fill="#30332e">0.8</text>
    <line x1="980" y1="335" x2="980" y2="343" stroke="#363934"/>
    <text x="980" y="363" text-anchor="middle" font-family="-apple-system,BlinkMacSystemFont,PingFang SC,Noto Sans CJK SC,sans-serif" font-size="14" fill="#30332e">1</text>
    <text x="817.5" y="397" text-anchor="middle" font-family="-apple-system,BlinkMacSystemFont,PingFang SC,Noto Sans CJK SC,sans-serif" font-size="17" fill="#30332e">水域概率</text>
    <text x="600" y="222.5" transform="rotate(-90 600 222.5)" text-anchor="middle" font-family="-apple-system,BlinkMacSystemFont,PingFang SC,Noto Sans CJK SC,sans-serif" font-size="17" fill="#30332e">后验概率</text>
  </g>
</svg>
