<?xml version="1.0" encoding="UTF-8"?>
<svg xmlns="http://www.w3.org/2000/svg" width="900" height="650" viewBox="0 0 900 650" role="img">
  <title>结婚率干预对离婚率的反事实效应</title>
  <desc>操纵结婚率对离婚率几乎没有趋势。</desc>
  <rect width="100%" height="100%" fill="#fff"/>
  <text x="455.0" y="68" text-anchor="middle" font-family="PingFang SC, Noto Sans CJK SC, Microsoft YaHei, sans-serif" font-size="21" font-weight="700" fill="#263f86">M 对 D 的总反事实效应</text>
  <rect x="155" y="90" width="600" height="420" fill="#fff" stroke="#343732" stroke-width="1.5"/>
  <polygon points="155,260.1 160,260.34 165,260.59 170,260.83 175,261.08 180,261.33 185,261.57 190,261.81 195,262.06 200,262.31 205,262.55 210,262.79 215,263.04 220,263.28 225,263.53 230,263.78 235,264.02 240,264.26 245,264.51 250,264.75 255,265 260,265.25 265,265.49 270,265.74 275,265.98 280,266.23 285,266.47 290,266.71 295,266.96 300,267.21 305,267.45 310,267.7 315,267.94 320,268.19 325,268.43 330,268.68 335,268.92 340,269.16 345,269.41 350,269.65 355,269.9 360,270.14 365,270.39 370,270.63 375,270.88 380,271.12 385,271.37 390,271.62 395,271.86 400,272.11 405,272.35 410,272.6 415,272.84 420,273.09 425,273.33 430,273.58 435,273.82 440,274.06 445,274.31 450,274.56 455,274.8 460,275.04 465,275.29 470,275.53 475,275.78 480,276.02 485,276.27 490,276.51 495,276.76 500,277 505,277.25 510,277.5 515,277.74 520,277.99 525,278.23 530,278.48 535,278.72 540,278.96 545,279.21 550,279.45 555,279.7 560,279.95 565,280.19 570,280.44 575,280.68 580,280.93 585,281.17 590,281.41 595,281.66 600,281.9 605,282.15 610,282.39 615,282.64 620,282.88 625,283.13 630,283.38 635,283.62 640,283.87 645,284.11 650,284.36 655,284.6 660,284.85 665,285.09 670,285.33 675,285.58 680,285.83 685,286.07 690,286.32 695,286.56 700,286.81 705,287.05 710,287.29 715,287.54 720,287.78 725,288.03 730,288.27 735,288.52 740,288.76 745,289.01 750,289.25 755,289.5 755,339.9 750,339.66 745,339.41 740,339.16 735,338.92 730,338.68 725,338.43 720,338.19 715,337.94 710,337.69 705,337.45 700,337.21 695,336.96 690,336.72 685,336.47 680,336.23 675,335.98 670,335.74 665,335.49 660,335.25 655,335 650,334.75 645,334.51 640,334.26 635,334.02 630,333.77 625,333.53 620,333.28 615,333.04 610,332.8 605,332.55 600,332.3 595,332.06 590,331.81 585,331.57 580,331.32 575,331.08 570,330.84 565,330.59 560,330.35 555,330.1 550,329.86 545,329.61 540,329.37 535,329.12 530,328.88 525,328.63 520,328.38 515,328.14 510,327.89 505,327.65 500,327.4 495,327.16 490,326.91 485,326.67 480,326.43 475,326.18 470,325.94 465,325.69 460,325.44 455,325.2 450,324.96 445,324.71 440,324.47 435,324.22 430,323.98 425,323.73 420,323.49 415,323.24 410,323 405,322.75 400,322.5 395,322.26 390,322.01 385,321.77 380,321.52 375,321.28 370,321.03 365,320.79 360,320.54 355,320.3 350,320.06 345,319.81 340,319.56 335,319.32 330,319.07 325,318.83 320,318.59 315,318.34 310,318.1 305,317.85 300,317.61 295,317.36 290,317.12 285,316.87 280,316.62 275,316.38 270,316.13 265,315.89 260,315.64 255,315.4 250,315.15 245,314.91 240,314.66 235,314.42 230,314.18 225,313.93 220,313.68 215,313.44 210,313.19 205,312.95 200,312.71 195,312.46 190,312.22 185,311.97 180,311.73 175,311.48 170,311.24 165,310.99 160,310.75 155,310.5" fill="#cfd2d5" opacity="0.82"/>
  <line x1="155" y1="285.3" x2="755" y2="314.7" stroke="#242724" stroke-width="3"/>
  <text x="155" y="539" text-anchor="middle" font-family="PingFang SC, Noto Sans CJK SC, Microsoft YaHei, sans-serif" font-size="15" fill="#30332e">-2</text>
  <text x="142" y="515" text-anchor="end" font-family="PingFang SC, Noto Sans CJK SC, Microsoft YaHei, sans-serif" font-size="15" fill="#30332e">-2</text>
  <text x="305" y="539" text-anchor="middle" font-family="PingFang SC, Noto Sans CJK SC, Microsoft YaHei, sans-serif" font-size="15" fill="#30332e">-1</text>
  <text x="142" y="410" text-anchor="end" font-family="PingFang SC, Noto Sans CJK SC, Microsoft YaHei, sans-serif" font-size="15" fill="#30332e">-1</text>
  <text x="455" y="539" text-anchor="middle" font-family="PingFang SC, Noto Sans CJK SC, Microsoft YaHei, sans-serif" font-size="15" fill="#30332e">0</text>
  <text x="142" y="305" text-anchor="end" font-family="PingFang SC, Noto Sans CJK SC, Microsoft YaHei, sans-serif" font-size="15" fill="#30332e">0</text>
  <text x="605" y="539" text-anchor="middle" font-family="PingFang SC, Noto Sans CJK SC, Microsoft YaHei, sans-serif" font-size="15" fill="#30332e">1</text>
  <text x="142" y="200" text-anchor="end" font-family="PingFang SC, Noto Sans CJK SC, Microsoft YaHei, sans-serif" font-size="15" fill="#30332e">1</text>
  <text x="755" y="539" text-anchor="middle" font-family="PingFang SC, Noto Sans CJK SC, Microsoft YaHei, sans-serif" font-size="15" fill="#30332e">2</text>
  <text x="142" y="95" text-anchor="end" font-family="PingFang SC, Noto Sans CJK SC, Microsoft YaHei, sans-serif" font-size="15" fill="#30332e">2</text>
  <text x="455.0" y="575" text-anchor="middle" font-family="PingFang SC, Noto Sans CJK SC, Microsoft YaHei, sans-serif" font-size="19" font-weight="700" fill="#263f86">操纵后的 M</text>
  <text x="97" y="300.0" transform="rotate(-90 97 300.0)" text-anchor="middle" font-family="PingFang SC, Noto Sans CJK SC, Microsoft YaHei, sans-serif" font-size="19" font-weight="700" fill="#263f86">反事实 D</text>
</svg>
