<svg xmlns="http://www.w3.org/2000/svg" width="1200" height="760" viewBox="0 0 1200 760" role="img">
<title>图 12.6：含交互项的有序类别模型后验预测</title>
<desc>上排三个面板显示不同的行动与接触组合下，意图从零变为一时六条累积概率边界的变化；下排用黑色与蓝色线段比较相应的模拟回答频数。</desc>
<rect width="100%" height="100%" fill="#fbfaf6"/>
<text x="247.0" y="42.0" text-anchor="middle" font-family="-apple-system,BlinkMacSystemFont,PingFang SC,Noto Sans CJK SC,sans-serif" font-size="19" font-weight="650" fill="#30332e">action=0, contact=0</text>
<rect x="70" y="55" width="320" height="310" rx="8" fill="#fff" stroke="#d9d5c8"/>
<line x1="118" y1="320.0" x2="124" y2="320.0" stroke="#30332e"/>
<text x="113.0" y="325.0" text-anchor="end" font-family="-apple-system,BlinkMacSystemFont,PingFang SC,Noto Sans CJK SC,sans-serif" font-size="14" font-weight="400" fill="#30332e">0.0</text>
<line x1="118" y1="200.0" x2="124" y2="200.0" stroke="#30332e"/>
<text x="113.0" y="205.0" text-anchor="end" font-family="-apple-system,BlinkMacSystemFont,PingFang SC,Noto Sans CJK SC,sans-serif" font-size="14" font-weight="400" fill="#30332e">0.5</text>
<line x1="118" y1="80.0" x2="124" y2="80.0" stroke="#30332e"/>
<text x="113.0" y="85.0" text-anchor="end" font-family="-apple-system,BlinkMacSystemFont,PingFang SC,Noto Sans CJK SC,sans-serif" font-size="14" font-weight="400" fill="#30332e">1.0</text>
<line x1="124.0" y1="320" x2="124.0" y2="326" stroke="#30332e"/>
<text x="124.0" y="345.0" text-anchor="middle" font-family="-apple-system,BlinkMacSystemFont,PingFang SC,Noto Sans CJK SC,sans-serif" font-size="14" font-weight="400" fill="#30332e">0</text>
<line x1="370.0" y1="320" x2="370.0" y2="326" stroke="#30332e"/>
<text x="370.0" y="345.0" text-anchor="middle" font-family="-apple-system,BlinkMacSystemFont,PingFang SC,Noto Sans CJK SC,sans-serif" font-size="14" font-weight="400" fill="#30332e">1</text>
<line x1="124" y1="320" x2="370" y2="320" stroke="#30332e" stroke-width="1.6"/>
<line x1="124" y1="320" x2="124" y2="80" stroke="#30332e" stroke-width="1.6"/>
<text x="247.0" y="356.0" text-anchor="middle" font-family="-apple-system,BlinkMacSystemFont,PingFang SC,Noto Sans CJK SC,sans-serif" font-size="17" font-weight="400" fill="#30332e">意图</text>
<text x="87.0" y="200.0" text-anchor="middle" font-family="-apple-system,BlinkMacSystemFont,PingFang SC,Noto Sans CJK SC,sans-serif" font-size="17" font-weight="400" fill="#30332e" transform="rotate(-90 87 200.0)">累积概率</text>
<line x1="124.0" y1="306.4" x2="370.0" y2="305.1" stroke="#777a74" stroke-width="1" opacity=".22"/>
<line x1="124.0" y1="305.0" x2="370.0" y2="303.7" stroke="#777a74" stroke-width="1" opacity=".22"/>
<line x1="124.0" y1="302.1" x2="370.0" y2="300.8" stroke="#777a74" stroke-width="1" opacity=".22"/>
<line x1="124.0" y1="300.6" x2="370.0" y2="299.4" stroke="#777a74" stroke-width="1" opacity=".22"/>
<line x1="124.0" y1="303.5" x2="370.0" y2="302.2" stroke="#30332e" stroke-width="3"/>
<circle cx="124.0" cy="303.5" r="5" fill="#6670ee"/>
<circle cx="370.0" cy="302.2" r="5" fill="#6670ee"/>
<line x1="124.0" y1="284.9" x2="370.0" y2="288.4" stroke="#777a74" stroke-width="1" opacity=".22"/>
<line x1="124.0" y1="286.4" x2="370.0" y2="286.9" stroke="#777a74" stroke-width="1" opacity=".22"/>
<line x1="124.0" y1="289.3" x2="370.0" y2="284.0" stroke="#777a74" stroke-width="1" opacity=".22"/>
<line x1="124.0" y1="290.7" x2="370.0" y2="282.6" stroke="#777a74" stroke-width="1" opacity=".22"/>
<line x1="124.0" y1="287.8" x2="370.0" y2="285.5" stroke="#30332e" stroke-width="3"/>
<circle cx="124.0" cy="287.8" r="5" fill="#6670ee"/>
<circle cx="370.0" cy="285.5" r="5" fill="#6670ee"/>
<line x1="124.0" y1="269.3" x2="370.0" y2="261.1" stroke="#777a74" stroke-width="1" opacity=".22"/>
<line x1="124.0" y1="267.9" x2="370.0" y2="259.7" stroke="#777a74" stroke-width="1" opacity=".22"/>
<line x1="124.0" y1="265.0" x2="370.0" y2="256.8" stroke="#777a74" stroke-width="1" opacity=".22"/>
<line x1="124.0" y1="263.6" x2="370.0" y2="255.4" stroke="#777a74" stroke-width="1" opacity=".22"/>
<line x1="124.0" y1="266.4" x2="370.0" y2="258.2" stroke="#30332e" stroke-width="3"/>
<circle cx="124.0" cy="266.4" r="5" fill="#6670ee"/>
<circle cx="370.0" cy="258.2" r="5" fill="#6670ee"/>
<line x1="124.0" y1="211.0" x2="370.0" y2="212.5" stroke="#777a74" stroke-width="1" opacity=".22"/>
<line x1="124.0" y1="212.5" x2="370.0" y2="211.0" stroke="#777a74" stroke-width="1" opacity=".22"/>
<line x1="124.0" y1="215.3" x2="370.0" y2="208.2" stroke="#777a74" stroke-width="1" opacity=".22"/>
<line x1="124.0" y1="216.8" x2="370.0" y2="206.7" stroke="#777a74" stroke-width="1" opacity=".22"/>
<line x1="124.0" y1="213.9" x2="370.0" y2="209.6" stroke="#30332e" stroke-width="3"/>
<circle cx="124.0" cy="213.9" r="5" fill="#6670ee"/>
<circle cx="370.0" cy="209.6" r="5" fill="#6670ee"/>
<line x1="124.0" y1="175.8" x2="370.0" y2="174.3" stroke="#777a74" stroke-width="1" opacity=".22"/>
<line x1="124.0" y1="174.4" x2="370.0" y2="172.9" stroke="#777a74" stroke-width="1" opacity=".22"/>
<line x1="124.0" y1="171.5" x2="370.0" y2="170.0" stroke="#777a74" stroke-width="1" opacity=".22"/>
<line x1="124.0" y1="170.1" x2="370.0" y2="168.5" stroke="#777a74" stroke-width="1" opacity=".22"/>
<line x1="124.0" y1="173.0" x2="370.0" y2="171.4" stroke="#30332e" stroke-width="3"/>
<circle cx="124.0" cy="173.0" r="5" fill="#6670ee"/>
<circle cx="370.0" cy="171.4" r="5" fill="#6670ee"/>
<line x1="124.0" y1="126.3" x2="370.0" y2="135.6" stroke="#777a74" stroke-width="1" opacity=".22"/>
<line x1="124.0" y1="127.7" x2="370.0" y2="134.2" stroke="#777a74" stroke-width="1" opacity=".22"/>
<line x1="124.0" y1="130.6" x2="370.0" y2="131.3" stroke="#777a74" stroke-width="1" opacity=".22"/>
<line x1="124.0" y1="132.1" x2="370.0" y2="129.9" stroke="#777a74" stroke-width="1" opacity=".22"/>
<line x1="124.0" y1="129.2" x2="370.0" y2="132.8" stroke="#30332e" stroke-width="3"/>
<circle cx="124.0" cy="129.2" r="5" fill="#6670ee"/>
<circle cx="370.0" cy="132.8" r="5" fill="#6670ee"/>
<text x="247.0" y="415.0" text-anchor="middle" font-family="-apple-system,BlinkMacSystemFont,PingFang SC,Noto Sans CJK SC,sans-serif" font-size="19" font-weight="650" fill="#30332e">action=0, contact=0</text>
<rect x="70" y="425" width="320" height="310" rx="8" fill="#fff" stroke="#d9d5c8"/>
<line x1="118" y1="675.0" x2="124" y2="675.0" stroke="#30332e"/>
<text x="113.0" y="680.0" text-anchor="end" font-family="-apple-system,BlinkMacSystemFont,PingFang SC,Noto Sans CJK SC,sans-serif" font-size="14" font-weight="400" fill="#30332e">0</text>
<line x1="118" y1="610.7" x2="124" y2="610.7" stroke="#30332e"/>
<text x="113.0" y="615.7" text-anchor="end" font-family="-apple-system,BlinkMacSystemFont,PingFang SC,Noto Sans CJK SC,sans-serif" font-size="14" font-weight="400" fill="#30332e">100</text>
<line x1="118" y1="546.4" x2="124" y2="546.4" stroke="#30332e"/>
<text x="113.0" y="551.4" text-anchor="end" font-family="-apple-system,BlinkMacSystemFont,PingFang SC,Noto Sans CJK SC,sans-serif" font-size="14" font-weight="400" fill="#30332e">200</text>
<line x1="118" y1="482.1" x2="124" y2="482.1" stroke="#30332e"/>
<text x="113.0" y="487.1" text-anchor="end" font-family="-apple-system,BlinkMacSystemFont,PingFang SC,Noto Sans CJK SC,sans-serif" font-size="14" font-weight="400" fill="#30332e">300</text>
<line x1="124.0" y1="675" x2="124.0" y2="681" stroke="#30332e"/>
<text x="124.0" y="699.0" text-anchor="middle" font-family="-apple-system,BlinkMacSystemFont,PingFang SC,Noto Sans CJK SC,sans-serif" font-size="14" font-weight="400" fill="#30332e">1</text>
<line x1="120.0" y1="675" x2="120.0" y2="633.9" stroke="#30332e" stroke-width="4"/>
<line x1="128.0" y1="675" x2="128.0" y2="628.1" stroke="#6670ee" stroke-width="4"/>
<line x1="165.0" y1="675" x2="165.0" y2="681" stroke="#30332e"/>
<text x="165.0" y="699.0" text-anchor="middle" font-family="-apple-system,BlinkMacSystemFont,PingFang SC,Noto Sans CJK SC,sans-serif" font-size="14" font-weight="400" fill="#30332e">2</text>
<line x1="161.0" y1="675" x2="161.0" y2="635.8" stroke="#30332e" stroke-width="4"/>
<line x1="169.0" y1="675" x2="169.0" y2="630.6" stroke="#6670ee" stroke-width="4"/>
<line x1="206.0" y1="675" x2="206.0" y2="681" stroke="#30332e"/>
<text x="206.0" y="699.0" text-anchor="middle" font-family="-apple-system,BlinkMacSystemFont,PingFang SC,Noto Sans CJK SC,sans-serif" font-size="14" font-weight="400" fill="#30332e">3</text>
<line x1="202.0" y1="675" x2="202.0" y2="621.6" stroke="#30332e" stroke-width="4"/>
<line x1="210.0" y1="675" x2="210.0" y2="603.0" stroke="#6670ee" stroke-width="4"/>
<line x1="247.0" y1="675" x2="247.0" y2="681" stroke="#30332e"/>
<text x="247.0" y="699.0" text-anchor="middle" font-family="-apple-system,BlinkMacSystemFont,PingFang SC,Noto Sans CJK SC,sans-serif" font-size="14" font-weight="400" fill="#30332e">4</text>
<line x1="243.0" y1="675" x2="243.0" y2="543.9" stroke="#30332e" stroke-width="4"/>
<line x1="251.0" y1="675" x2="251.0" y2="546.4" stroke="#6670ee" stroke-width="4"/>
<line x1="288.0" y1="675" x2="288.0" y2="681" stroke="#30332e"/>
<text x="288.0" y="699.0" text-anchor="middle" font-family="-apple-system,BlinkMacSystemFont,PingFang SC,Noto Sans CJK SC,sans-serif" font-size="14" font-weight="400" fill="#30332e">5</text>
<line x1="284.0" y1="675" x2="284.0" y2="572.8" stroke="#30332e" stroke-width="4"/>
<line x1="292.0" y1="675" x2="292.0" y2="574.1" stroke="#6670ee" stroke-width="4"/>
<line x1="329.0" y1="675" x2="329.0" y2="681" stroke="#30332e"/>
<text x="329.0" y="699.0" text-anchor="middle" font-family="-apple-system,BlinkMacSystemFont,PingFang SC,Noto Sans CJK SC,sans-serif" font-size="14" font-weight="400" fill="#30332e">6</text>
<line x1="325.0" y1="675" x2="325.0" y2="565.7" stroke="#30332e" stroke-width="4"/>
<line x1="333.0" y1="675" x2="333.0" y2="572.8" stroke="#6670ee" stroke-width="4"/>
<line x1="370.0" y1="675" x2="370.0" y2="681" stroke="#30332e"/>
<text x="370.0" y="699.0" text-anchor="middle" font-family="-apple-system,BlinkMacSystemFont,PingFang SC,Noto Sans CJK SC,sans-serif" font-size="14" font-weight="400" fill="#30332e">7</text>
<line x1="366.0" y1="675" x2="366.0" y2="552.2" stroke="#30332e" stroke-width="4"/>
<line x1="374.0" y1="675" x2="374.0" y2="535.5" stroke="#6670ee" stroke-width="4"/>
<line x1="124" y1="675" x2="370" y2="675" stroke="#30332e" stroke-width="1.6"/>
<line x1="124" y1="675" x2="124" y2="450" stroke="#30332e" stroke-width="1.6"/>
<text x="247.0" y="724.0" text-anchor="middle" font-family="-apple-system,BlinkMacSystemFont,PingFang SC,Noto Sans CJK SC,sans-serif" font-size="17" font-weight="400" fill="#30332e">回答</text>
<text x="87.0" y="562.5" text-anchor="middle" font-family="-apple-system,BlinkMacSystemFont,PingFang SC,Noto Sans CJK SC,sans-serif" font-size="17" font-weight="400" fill="#30332e" transform="rotate(-90 87 562.5)">频数</text>
<text x="607.0" y="42.0" text-anchor="middle" font-family="-apple-system,BlinkMacSystemFont,PingFang SC,Noto Sans CJK SC,sans-serif" font-size="19" font-weight="650" fill="#30332e">action=1, contact=0</text>
<rect x="430" y="55" width="320" height="310" rx="8" fill="#fff" stroke="#d9d5c8"/>
<line x1="478" y1="320.0" x2="484" y2="320.0" stroke="#30332e"/>
<text x="473.0" y="325.0" text-anchor="end" font-family="-apple-system,BlinkMacSystemFont,PingFang SC,Noto Sans CJK SC,sans-serif" font-size="14" font-weight="400" fill="#30332e">0.0</text>
<line x1="478" y1="200.0" x2="484" y2="200.0" stroke="#30332e"/>
<text x="473.0" y="205.0" text-anchor="end" font-family="-apple-system,BlinkMacSystemFont,PingFang SC,Noto Sans CJK SC,sans-serif" font-size="14" font-weight="400" fill="#30332e">0.5</text>
<line x1="478" y1="80.0" x2="484" y2="80.0" stroke="#30332e"/>
<text x="473.0" y="85.0" text-anchor="end" font-family="-apple-system,BlinkMacSystemFont,PingFang SC,Noto Sans CJK SC,sans-serif" font-size="14" font-weight="400" fill="#30332e">1.0</text>
<line x1="484.0" y1="320" x2="484.0" y2="326" stroke="#30332e"/>
<text x="484.0" y="345.0" text-anchor="middle" font-family="-apple-system,BlinkMacSystemFont,PingFang SC,Noto Sans CJK SC,sans-serif" font-size="14" font-weight="400" fill="#30332e">0</text>
<line x1="730.0" y1="320" x2="730.0" y2="326" stroke="#30332e"/>
<text x="730.0" y="345.0" text-anchor="middle" font-family="-apple-system,BlinkMacSystemFont,PingFang SC,Noto Sans CJK SC,sans-serif" font-size="14" font-weight="400" fill="#30332e">1</text>
<line x1="484" y1="320" x2="730" y2="320" stroke="#30332e" stroke-width="1.6"/>
<line x1="484" y1="320" x2="484" y2="80" stroke="#30332e" stroke-width="1.6"/>
<text x="607.0" y="356.0" text-anchor="middle" font-family="-apple-system,BlinkMacSystemFont,PingFang SC,Noto Sans CJK SC,sans-serif" font-size="17" font-weight="400" fill="#30332e">意图</text>
<text x="447.0" y="200.0" text-anchor="middle" font-family="-apple-system,BlinkMacSystemFont,PingFang SC,Noto Sans CJK SC,sans-serif" font-size="17" font-weight="400" fill="#30332e" transform="rotate(-90 447 200.0)">累积概率</text>
<line x1="484.0" y1="295.8" x2="730.0" y2="276.6" stroke="#777a74" stroke-width="1" opacity=".22"/>
<line x1="484.0" y1="294.4" x2="730.0" y2="275.1" stroke="#777a74" stroke-width="1" opacity=".22"/>
<line x1="484.0" y1="291.5" x2="730.0" y2="272.3" stroke="#777a74" stroke-width="1" opacity=".22"/>
<line x1="484.0" y1="290.0" x2="730.0" y2="270.8" stroke="#777a74" stroke-width="1" opacity=".22"/>
<line x1="484.0" y1="292.9" x2="730.0" y2="273.7" stroke="#30332e" stroke-width="3"/>
<circle cx="484.0" cy="292.9" r="5" fill="#6670ee"/>
<circle cx="730.0" cy="273.7" r="5" fill="#6670ee"/>
<line x1="484.0" y1="270.5" x2="730.0" y2="252.8" stroke="#777a74" stroke-width="1" opacity=".22"/>
<line x1="484.0" y1="272.0" x2="730.0" y2="251.4" stroke="#777a74" stroke-width="1" opacity=".22"/>
<line x1="484.0" y1="274.8" x2="730.0" y2="248.5" stroke="#777a74" stroke-width="1" opacity=".22"/>
<line x1="484.0" y1="276.3" x2="730.0" y2="247.0" stroke="#777a74" stroke-width="1" opacity=".22"/>
<line x1="484.0" y1="273.4" x2="730.0" y2="249.9" stroke="#30332e" stroke-width="3"/>
<circle cx="484.0" cy="273.4" r="5" fill="#6670ee"/>
<circle cx="730.0" cy="249.9" r="5" fill="#6670ee"/>
<line x1="484.0" y1="246.8" x2="730.0" y2="214.5" stroke="#777a74" stroke-width="1" opacity=".22"/>
<line x1="484.0" y1="245.3" x2="730.0" y2="213.1" stroke="#777a74" stroke-width="1" opacity=".22"/>
<line x1="484.0" y1="242.4" x2="730.0" y2="210.2" stroke="#777a74" stroke-width="1" opacity=".22"/>
<line x1="484.0" y1="241.0" x2="730.0" y2="208.8" stroke="#777a74" stroke-width="1" opacity=".22"/>
<line x1="484.0" y1="243.9" x2="730.0" y2="211.6" stroke="#30332e" stroke-width="3"/>
<circle cx="484.0" cy="243.9" r="5" fill="#6670ee"/>
<circle cx="730.0" cy="211.6" r="5" fill="#6670ee"/>
<line x1="484.0" y1="178.7" x2="730.0" y2="150.6" stroke="#777a74" stroke-width="1" opacity=".22"/>
<line x1="484.0" y1="180.1" x2="730.0" y2="149.2" stroke="#777a74" stroke-width="1" opacity=".22"/>
<line x1="484.0" y1="183.0" x2="730.0" y2="146.3" stroke="#777a74" stroke-width="1" opacity=".22"/>
<line x1="484.0" y1="184.5" x2="730.0" y2="144.9" stroke="#777a74" stroke-width="1" opacity=".22"/>
<line x1="484.0" y1="181.6" x2="730.0" y2="147.8" stroke="#30332e" stroke-width="3"/>
<circle cx="484.0" cy="181.6" r="5" fill="#6670ee"/>
<circle cx="730.0" cy="147.8" r="5" fill="#6670ee"/>
<line x1="484.0" y1="149.8" x2="730.0" y2="126.8" stroke="#777a74" stroke-width="1" opacity=".22"/>
<line x1="484.0" y1="148.3" x2="730.0" y2="125.4" stroke="#777a74" stroke-width="1" opacity=".22"/>
<line x1="484.0" y1="145.5" x2="730.0" y2="122.5" stroke="#777a74" stroke-width="1" opacity=".22"/>
<line x1="484.0" y1="144.0" x2="730.0" y2="121.1" stroke="#777a74" stroke-width="1" opacity=".22"/>
<line x1="484.0" y1="146.9" x2="730.0" y2="124.0" stroke="#30332e" stroke-width="3"/>
<circle cx="484.0" cy="146.9" r="5" fill="#6670ee"/>
<circle cx="730.0" cy="124.0" r="5" fill="#6670ee"/>
<line x1="484.0" y1="111.5" x2="730.0" y2="104.3" stroke="#777a74" stroke-width="1" opacity=".22"/>
<line x1="484.0" y1="113.0" x2="730.0" y2="102.9" stroke="#777a74" stroke-width="1" opacity=".22"/>
<line x1="484.0" y1="115.8" x2="730.0" y2="100.0" stroke="#777a74" stroke-width="1" opacity=".22"/>
<line x1="484.0" y1="117.3" x2="730.0" y2="98.6" stroke="#777a74" stroke-width="1" opacity=".22"/>
<line x1="484.0" y1="114.4" x2="730.0" y2="101.5" stroke="#30332e" stroke-width="3"/>
<circle cx="484.0" cy="114.4" r="5" fill="#6670ee"/>
<circle cx="730.0" cy="101.5" r="5" fill="#6670ee"/>
<text x="607.0" y="415.0" text-anchor="middle" font-family="-apple-system,BlinkMacSystemFont,PingFang SC,Noto Sans CJK SC,sans-serif" font-size="19" font-weight="650" fill="#30332e">action=1, contact=0</text>
<rect x="430" y="425" width="320" height="310" rx="8" fill="#fff" stroke="#d9d5c8"/>
<line x1="478" y1="675.0" x2="484" y2="675.0" stroke="#30332e"/>
<text x="473.0" y="680.0" text-anchor="end" font-family="-apple-system,BlinkMacSystemFont,PingFang SC,Noto Sans CJK SC,sans-serif" font-size="14" font-weight="400" fill="#30332e">0</text>
<line x1="478" y1="610.7" x2="484" y2="610.7" stroke="#30332e"/>
<text x="473.0" y="615.7" text-anchor="end" font-family="-apple-system,BlinkMacSystemFont,PingFang SC,Noto Sans CJK SC,sans-serif" font-size="14" font-weight="400" fill="#30332e">100</text>
<line x1="478" y1="546.4" x2="484" y2="546.4" stroke="#30332e"/>
<text x="473.0" y="551.4" text-anchor="end" font-family="-apple-system,BlinkMacSystemFont,PingFang SC,Noto Sans CJK SC,sans-serif" font-size="14" font-weight="400" fill="#30332e">200</text>
<line x1="478" y1="482.1" x2="484" y2="482.1" stroke="#30332e"/>
<text x="473.0" y="487.1" text-anchor="end" font-family="-apple-system,BlinkMacSystemFont,PingFang SC,Noto Sans CJK SC,sans-serif" font-size="14" font-weight="400" fill="#30332e">300</text>
<line x1="484.0" y1="675" x2="484.0" y2="681" stroke="#30332e"/>
<text x="484.0" y="699.0" text-anchor="middle" font-family="-apple-system,BlinkMacSystemFont,PingFang SC,Noto Sans CJK SC,sans-serif" font-size="14" font-weight="400" fill="#30332e">1</text>
<line x1="480.0" y1="675" x2="480.0" y2="610.7" stroke="#30332e" stroke-width="4"/>
<line x1="488.0" y1="675" x2="488.0" y2="559.9" stroke="#6670ee" stroke-width="4"/>
<line x1="525.0" y1="675" x2="525.0" y2="681" stroke="#30332e"/>
<text x="525.0" y="699.0" text-anchor="middle" font-family="-apple-system,BlinkMacSystemFont,PingFang SC,Noto Sans CJK SC,sans-serif" font-size="14" font-weight="400" fill="#30332e">2</text>
<line x1="521.0" y1="675" x2="521.0" y2="628.7" stroke="#30332e" stroke-width="4"/>
<line x1="529.0" y1="675" x2="529.0" y2="615.9" stroke="#6670ee" stroke-width="4"/>
<line x1="566.0" y1="675" x2="566.0" y2="681" stroke="#30332e"/>
<text x="566.0" y="699.0" text-anchor="middle" font-family="-apple-system,BlinkMacSystemFont,PingFang SC,Noto Sans CJK SC,sans-serif" font-size="14" font-weight="400" fill="#30332e">3</text>
<line x1="562.0" y1="675" x2="562.0" y2="604.9" stroke="#30332e" stroke-width="4"/>
<line x1="570.0" y1="675" x2="570.0" y2="579.9" stroke="#6670ee" stroke-width="4"/>
<line x1="607.0" y1="675" x2="607.0" y2="681" stroke="#30332e"/>
<text x="607.0" y="699.0" text-anchor="middle" font-family="-apple-system,BlinkMacSystemFont,PingFang SC,Noto Sans CJK SC,sans-serif" font-size="14" font-weight="400" fill="#30332e">4</text>
<line x1="603.0" y1="675" x2="603.0" y2="527.1" stroke="#30332e" stroke-width="4"/>
<line x1="611.0" y1="675" x2="611.0" y2="516.2" stroke="#6670ee" stroke-width="4"/>
<line x1="648.0" y1="675" x2="648.0" y2="681" stroke="#30332e"/>
<text x="648.0" y="699.0" text-anchor="middle" font-family="-apple-system,BlinkMacSystemFont,PingFang SC,Noto Sans CJK SC,sans-serif" font-size="14" font-weight="400" fill="#30332e">5</text>
<line x1="644.0" y1="675" x2="644.0" y2="592.7" stroke="#30332e" stroke-width="4"/>
<line x1="652.0" y1="675" x2="652.0" y2="615.9" stroke="#6670ee" stroke-width="4"/>
<line x1="689.0" y1="675" x2="689.0" y2="681" stroke="#30332e"/>
<text x="689.0" y="699.0" text-anchor="middle" font-family="-apple-system,BlinkMacSystemFont,PingFang SC,Noto Sans CJK SC,sans-serif" font-size="14" font-weight="400" fill="#30332e">6</text>
<line x1="685.0" y1="675" x2="685.0" y2="597.9" stroke="#30332e" stroke-width="4"/>
<line x1="693.0" y1="675" x2="693.0" y2="619.1" stroke="#6670ee" stroke-width="4"/>
<line x1="730.0" y1="675" x2="730.0" y2="681" stroke="#30332e"/>
<text x="730.0" y="699.0" text-anchor="middle" font-family="-apple-system,BlinkMacSystemFont,PingFang SC,Noto Sans CJK SC,sans-serif" font-size="14" font-weight="400" fill="#30332e">7</text>
<line x1="726.0" y1="675" x2="726.0" y2="593.4" stroke="#30332e" stroke-width="4"/>
<line x1="734.0" y1="675" x2="734.0" y2="621.6" stroke="#6670ee" stroke-width="4"/>
<line x1="484" y1="675" x2="730" y2="675" stroke="#30332e" stroke-width="1.6"/>
<line x1="484" y1="675" x2="484" y2="450" stroke="#30332e" stroke-width="1.6"/>
<text x="607.0" y="724.0" text-anchor="middle" font-family="-apple-system,BlinkMacSystemFont,PingFang SC,Noto Sans CJK SC,sans-serif" font-size="17" font-weight="400" fill="#30332e">回答</text>
<text x="447.0" y="562.5" text-anchor="middle" font-family="-apple-system,BlinkMacSystemFont,PingFang SC,Noto Sans CJK SC,sans-serif" font-size="17" font-weight="400" fill="#30332e" transform="rotate(-90 447 562.5)">频数</text>
<text x="967.0" y="42.0" text-anchor="middle" font-family="-apple-system,BlinkMacSystemFont,PingFang SC,Noto Sans CJK SC,sans-serif" font-size="19" font-weight="650" fill="#30332e">action=0, contact=1</text>
<rect x="790" y="55" width="320" height="310" rx="8" fill="#fff" stroke="#d9d5c8"/>
<line x1="838" y1="320.0" x2="844" y2="320.0" stroke="#30332e"/>
<text x="833.0" y="325.0" text-anchor="end" font-family="-apple-system,BlinkMacSystemFont,PingFang SC,Noto Sans CJK SC,sans-serif" font-size="14" font-weight="400" fill="#30332e">0.0</text>
<line x1="838" y1="200.0" x2="844" y2="200.0" stroke="#30332e"/>
<text x="833.0" y="205.0" text-anchor="end" font-family="-apple-system,BlinkMacSystemFont,PingFang SC,Noto Sans CJK SC,sans-serif" font-size="14" font-weight="400" fill="#30332e">0.5</text>
<line x1="838" y1="80.0" x2="844" y2="80.0" stroke="#30332e"/>
<text x="833.0" y="85.0" text-anchor="end" font-family="-apple-system,BlinkMacSystemFont,PingFang SC,Noto Sans CJK SC,sans-serif" font-size="14" font-weight="400" fill="#30332e">1.0</text>
<line x1="844.0" y1="320" x2="844.0" y2="326" stroke="#30332e"/>
<text x="844.0" y="345.0" text-anchor="middle" font-family="-apple-system,BlinkMacSystemFont,PingFang SC,Noto Sans CJK SC,sans-serif" font-size="14" font-weight="400" fill="#30332e">0</text>
<line x1="1090.0" y1="320" x2="1090.0" y2="326" stroke="#30332e"/>
<text x="1090.0" y="345.0" text-anchor="middle" font-family="-apple-system,BlinkMacSystemFont,PingFang SC,Noto Sans CJK SC,sans-serif" font-size="14" font-weight="400" fill="#30332e">1</text>
<line x1="844" y1="320" x2="1090" y2="320" stroke="#30332e" stroke-width="1.6"/>
<line x1="844" y1="320" x2="844" y2="80" stroke="#30332e" stroke-width="1.6"/>
<text x="967.0" y="356.0" text-anchor="middle" font-family="-apple-system,BlinkMacSystemFont,PingFang SC,Noto Sans CJK SC,sans-serif" font-size="17" font-weight="400" fill="#30332e">意图</text>
<text x="807.0" y="200.0" text-anchor="middle" font-family="-apple-system,BlinkMacSystemFont,PingFang SC,Noto Sans CJK SC,sans-serif" font-size="17" font-weight="400" fill="#30332e" transform="rotate(-90 807 200.0)">累积概率</text>
<line x1="844.0" y1="299.5" x2="1090.0" y2="240.7" stroke="#777a74" stroke-width="1" opacity=".22"/>
<line x1="844.0" y1="298.1" x2="1090.0" y2="239.3" stroke="#777a74" stroke-width="1" opacity=".22"/>
<line x1="844.0" y1="295.2" x2="1090.0" y2="236.4" stroke="#777a74" stroke-width="1" opacity=".22"/>
<line x1="844.0" y1="293.8" x2="1090.0" y2="235.0" stroke="#777a74" stroke-width="1" opacity=".22"/>
<line x1="844.0" y1="296.7" x2="1090.0" y2="237.8" stroke="#30332e" stroke-width="3"/>
<circle cx="844.0" cy="296.7" r="5" fill="#6670ee"/>
<circle cx="1090.0" cy="237.8" r="5" fill="#6670ee"/>
<line x1="844.0" y1="273.3" x2="1090.0" y2="203.1" stroke="#777a74" stroke-width="1" opacity=".22"/>
<line x1="844.0" y1="274.7" x2="1090.0" y2="201.7" stroke="#777a74" stroke-width="1" opacity=".22"/>
<line x1="844.0" y1="277.6" x2="1090.0" y2="198.8" stroke="#777a74" stroke-width="1" opacity=".22"/>
<line x1="844.0" y1="279.0" x2="1090.0" y2="197.4" stroke="#777a74" stroke-width="1" opacity=".22"/>
<line x1="844.0" y1="276.2" x2="1090.0" y2="200.2" stroke="#30332e" stroke-width="3"/>
<circle cx="844.0" cy="276.2" r="5" fill="#6670ee"/>
<circle cx="1090.0" cy="200.2" r="5" fill="#6670ee"/>
<line x1="844.0" y1="252.1" x2="1090.0" y2="171.8" stroke="#777a74" stroke-width="1" opacity=".22"/>
<line x1="844.0" y1="250.7" x2="1090.0" y2="170.3" stroke="#777a74" stroke-width="1" opacity=".22"/>
<line x1="844.0" y1="247.8" x2="1090.0" y2="167.4" stroke="#777a74" stroke-width="1" opacity=".22"/>
<line x1="844.0" y1="246.4" x2="1090.0" y2="166.0" stroke="#777a74" stroke-width="1" opacity=".22"/>
<line x1="844.0" y1="249.2" x2="1090.0" y2="168.9" stroke="#30332e" stroke-width="3"/>
<circle cx="844.0" cy="249.2" r="5" fill="#6670ee"/>
<circle cx="1090.0" cy="168.9" r="5" fill="#6670ee"/>
<line x1="844.0" y1="188.7" x2="1090.0" y2="118.7" stroke="#777a74" stroke-width="1" opacity=".22"/>
<line x1="844.0" y1="190.1" x2="1090.0" y2="117.3" stroke="#777a74" stroke-width="1" opacity=".22"/>
<line x1="844.0" y1="193.0" x2="1090.0" y2="114.4" stroke="#777a74" stroke-width="1" opacity=".22"/>
<line x1="844.0" y1="194.4" x2="1090.0" y2="113.0" stroke="#777a74" stroke-width="1" opacity=".22"/>
<line x1="844.0" y1="191.5" x2="1090.0" y2="115.9" stroke="#30332e" stroke-width="3"/>
<circle cx="844.0" cy="191.5" r="5" fill="#6670ee"/>
<circle cx="1090.0" cy="115.9" r="5" fill="#6670ee"/>
<line x1="844.0" y1="163.1" x2="1090.0" y2="103.5" stroke="#777a74" stroke-width="1" opacity=".22"/>
<line x1="844.0" y1="161.7" x2="1090.0" y2="102.1" stroke="#777a74" stroke-width="1" opacity=".22"/>
<line x1="844.0" y1="158.8" x2="1090.0" y2="99.2" stroke="#777a74" stroke-width="1" opacity=".22"/>
<line x1="844.0" y1="157.4" x2="1090.0" y2="97.8" stroke="#777a74" stroke-width="1" opacity=".22"/>
<line x1="844.0" y1="160.3" x2="1090.0" y2="100.7" stroke="#30332e" stroke-width="3"/>
<circle cx="844.0" cy="160.3" r="5" fill="#6670ee"/>
<circle cx="1090.0" cy="100.7" r="5" fill="#6670ee"/>
<line x1="844.0" y1="117.1" x2="1090.0" y2="92.6" stroke="#777a74" stroke-width="1" opacity=".22"/>
<line x1="844.0" y1="118.6" x2="1090.0" y2="91.1" stroke="#777a74" stroke-width="1" opacity=".22"/>
<line x1="844.0" y1="121.4" x2="1090.0" y2="88.3" stroke="#777a74" stroke-width="1" opacity=".22"/>
<line x1="844.0" y1="122.9" x2="1090.0" y2="86.8" stroke="#777a74" stroke-width="1" opacity=".22"/>
<line x1="844.0" y1="120.0" x2="1090.0" y2="89.7" stroke="#30332e" stroke-width="3"/>
<circle cx="844.0" cy="120.0" r="5" fill="#6670ee"/>
<circle cx="1090.0" cy="89.7" r="5" fill="#6670ee"/>
<text x="967.0" y="415.0" text-anchor="middle" font-family="-apple-system,BlinkMacSystemFont,PingFang SC,Noto Sans CJK SC,sans-serif" font-size="19" font-weight="650" fill="#30332e">action=0, contact=1</text>
<rect x="790" y="425" width="320" height="310" rx="8" fill="#fff" stroke="#d9d5c8"/>
<line x1="838" y1="675.0" x2="844" y2="675.0" stroke="#30332e"/>
<text x="833.0" y="680.0" text-anchor="end" font-family="-apple-system,BlinkMacSystemFont,PingFang SC,Noto Sans CJK SC,sans-serif" font-size="14" font-weight="400" fill="#30332e">0</text>
<line x1="838" y1="610.7" x2="844" y2="610.7" stroke="#30332e"/>
<text x="833.0" y="615.7" text-anchor="end" font-family="-apple-system,BlinkMacSystemFont,PingFang SC,Noto Sans CJK SC,sans-serif" font-size="14" font-weight="400" fill="#30332e">100</text>
<line x1="838" y1="546.4" x2="844" y2="546.4" stroke="#30332e"/>
<text x="833.0" y="551.4" text-anchor="end" font-family="-apple-system,BlinkMacSystemFont,PingFang SC,Noto Sans CJK SC,sans-serif" font-size="14" font-weight="400" fill="#30332e">200</text>
<line x1="838" y1="482.1" x2="844" y2="482.1" stroke="#30332e"/>
<text x="833.0" y="487.1" text-anchor="end" font-family="-apple-system,BlinkMacSystemFont,PingFang SC,Noto Sans CJK SC,sans-serif" font-size="14" font-weight="400" fill="#30332e">300</text>
<line x1="844.0" y1="675" x2="844.0" y2="681" stroke="#30332e"/>
<text x="844.0" y="699.0" text-anchor="middle" font-family="-apple-system,BlinkMacSystemFont,PingFang SC,Noto Sans CJK SC,sans-serif" font-size="14" font-weight="400" fill="#30332e">1</text>
<line x1="840.0" y1="675" x2="840.0" y2="616.5" stroke="#30332e" stroke-width="4"/>
<line x1="848.0" y1="675" x2="848.0" y2="462.9" stroke="#6670ee" stroke-width="4"/>
<line x1="885.0" y1="675" x2="885.0" y2="681" stroke="#30332e"/>
<text x="885.0" y="699.0" text-anchor="middle" font-family="-apple-system,BlinkMacSystemFont,PingFang SC,Noto Sans CJK SC,sans-serif" font-size="14" font-weight="400" fill="#30332e">2</text>
<line x1="881.0" y1="675" x2="881.0" y2="623.6" stroke="#30332e" stroke-width="4"/>
<line x1="889.0" y1="675" x2="889.0" y2="577.9" stroke="#6670ee" stroke-width="4"/>
<line x1="926.0" y1="675" x2="926.0" y2="681" stroke="#30332e"/>
<text x="926.0" y="699.0" text-anchor="middle" font-family="-apple-system,BlinkMacSystemFont,PingFang SC,Noto Sans CJK SC,sans-serif" font-size="14" font-weight="400" fill="#30332e">3</text>
<line x1="922.0" y1="675" x2="922.0" y2="607.5" stroke="#30332e" stroke-width="4"/>
<line x1="930.0" y1="675" x2="930.0" y2="594.0" stroke="#6670ee" stroke-width="4"/>
<line x1="967.0" y1="675" x2="967.0" y2="681" stroke="#30332e"/>
<text x="967.0" y="699.0" text-anchor="middle" font-family="-apple-system,BlinkMacSystemFont,PingFang SC,Noto Sans CJK SC,sans-serif" font-size="14" font-weight="400" fill="#30332e">4</text>
<line x1="963.0" y1="675" x2="963.0" y2="530.4" stroke="#30332e" stroke-width="4"/>
<line x1="971.0" y1="675" x2="971.0" y2="538.1" stroke="#6670ee" stroke-width="4"/>
<line x1="1008.0" y1="675" x2="1008.0" y2="681" stroke="#30332e"/>
<text x="1008.0" y="699.0" text-anchor="middle" font-family="-apple-system,BlinkMacSystemFont,PingFang SC,Noto Sans CJK SC,sans-serif" font-size="14" font-weight="400" fill="#30332e">5</text>
<line x1="1004.0" y1="675" x2="1004.0" y2="596.6" stroke="#30332e" stroke-width="4"/>
<line x1="1012.0" y1="675" x2="1012.0" y2="635.8" stroke="#6670ee" stroke-width="4"/>
<line x1="1049.0" y1="675" x2="1049.0" y2="681" stroke="#30332e"/>
<text x="1049.0" y="699.0" text-anchor="middle" font-family="-apple-system,BlinkMacSystemFont,PingFang SC,Noto Sans CJK SC,sans-serif" font-size="14" font-weight="400" fill="#30332e">6</text>
<line x1="1045.0" y1="675" x2="1045.0" y2="574.1" stroke="#30332e" stroke-width="4"/>
<line x1="1053.0" y1="675" x2="1053.0" y2="646.7" stroke="#6670ee" stroke-width="4"/>
<line x1="1090.0" y1="675" x2="1090.0" y2="681" stroke="#30332e"/>
<text x="1090.0" y="699.0" text-anchor="middle" font-family="-apple-system,BlinkMacSystemFont,PingFang SC,Noto Sans CJK SC,sans-serif" font-size="14" font-weight="400" fill="#30332e">7</text>
<line x1="1086.0" y1="675" x2="1086.0" y2="574.7" stroke="#30332e" stroke-width="4"/>
<line x1="1094.0" y1="675" x2="1094.0" y2="649.9" stroke="#6670ee" stroke-width="4"/>
<line x1="844" y1="675" x2="1090" y2="675" stroke="#30332e" stroke-width="1.6"/>
<line x1="844" y1="675" x2="844" y2="450" stroke="#30332e" stroke-width="1.6"/>
<text x="967.0" y="724.0" text-anchor="middle" font-family="-apple-system,BlinkMacSystemFont,PingFang SC,Noto Sans CJK SC,sans-serif" font-size="17" font-weight="400" fill="#30332e">回答</text>
<text x="807.0" y="562.5" text-anchor="middle" font-family="-apple-system,BlinkMacSystemFont,PingFang SC,Noto Sans CJK SC,sans-serif" font-size="17" font-weight="400" fill="#30332e" transform="rotate(-90 807 562.5)">频数</text>
<line x1="890" y1="746" x2="925" y2="746" stroke="#30332e" stroke-width="4"/>
<text x="934.0" y="752.0" text-anchor="start" font-family="-apple-system,BlinkMacSystemFont,PingFang SC,Noto Sans CJK SC,sans-serif" font-size="14" font-weight="400" fill="#30332e">意图 = 0</text>
<line x1="1035" y1="746" x2="1070" y2="746" stroke="#6670ee" stroke-width="4"/>
<text x="1079.0" y="752.0" text-anchor="start" font-family="-apple-system,BlinkMacSystemFont,PingFang SC,Noto Sans CJK SC,sans-serif" font-size="14" font-weight="400" fill="#30332e">意图 = 1</text>
</svg>
