<?xml version="1.0" encoding="UTF-8"?><svg xmlns="http://www.w3.org/2000/svg" width="1100" height="600" viewBox="0 0 1100 600" role="img" aria-labelledby="title desc"><title id="title">Hudson Bay Company 记录的猞猁与雪兔毛皮数量</title><desc id="desc">一九零零至一九二零年，黑色雪兔和蓝色猞猁毛皮数量都周期波动，猞猁的峰值通常晚于雪兔。</desc><rect width="100%" height="100%" fill="#fff"/><style>.axis{font:16px -apple-system, BlinkMacSystemFont, "PingFang SC", sans-serif;fill:#30332e}.label{font:20px -apple-system, BlinkMacSystemFont, "PingFang SC", sans-serif;fill:#30332e}.title{font:700 23px -apple-system, BlinkMacSystemFont, "PingFang SC", sans-serif;fill:#263f86}.panel{fill:#fff;stroke:#3c403b;stroke-width:1.4}.hare{fill:none;stroke:#202420;stroke-width:3}.lynx{fill:none;stroke:#6874ef;stroke-width:3}.hare-point{fill:#202420;stroke:#fff;stroke-width:1.5}.lynx-point{fill:#6874ef;stroke:#fff;stroke-width:1.5}</style><text class="title" x="550" y="31" text-anchor="middle">雪兔与猞猁毛皮数量，1900–1920</text><rect class="panel" x="100" y="60" width="930" height="430"/><path class="hare" d="M100,346.67 L146.5,264.49 L193,154.6 L239.5,120.2 L286,316.57 L332.5,391.58 L379,403.52 L425.5,387.76 L472,384.89 L518.5,368.64 L565,360.52 L611.5,297.46 L658,217.67 L704.5,124.02 L751,240.12 L797.5,396.83 L844,436.49 L890.5,453.69 L937,420.24 L983.5,412.6 L1030,371.99"/><path class="lynx" d="M100,470.89 L146.5,460.86 L193,443.18 L239.5,321.82 L286,206.2 L332.5,290.77 L379,399.22 L425.5,427.89 L472,450.34 L518.5,446.52 L565,454.64 L611.5,451.78 L658,431.23 L704.5,396.83 L751,271.66 L797.5,245.86 L844,348.1 L890.5,414.51 L937,443.66 L983.5,441.74 L1030,448.91"/><circle class="hare-point" cx="100" cy="346.67" r="6"/><circle class="hare-point" cx="146.5" cy="264.49" r="6"/><circle class="hare-point" cx="193" cy="154.6" r="6"/><circle class="hare-point" cx="239.5" cy="120.2" r="6"/><circle class="hare-point" cx="286" cy="316.57" r="6"/><circle class="hare-point" cx="332.5" cy="391.58" r="6"/><circle class="hare-point" cx="379" cy="403.52" r="6"/><circle class="hare-point" cx="425.5" cy="387.76" r="6"/><circle class="hare-point" cx="472" cy="384.89" r="6"/><circle class="hare-point" cx="518.5" cy="368.64" r="6"/><circle class="hare-point" cx="565" cy="360.52" r="6"/><circle class="hare-point" cx="611.5" cy="297.46" r="6"/><circle class="hare-point" cx="658" cy="217.67" r="6"/><circle class="hare-point" cx="704.5" cy="124.02" r="6"/><circle class="hare-point" cx="751" cy="240.12" r="6"/><circle class="hare-point" cx="797.5" cy="396.83" r="6"/><circle class="hare-point" cx="844" cy="436.49" r="6"/><circle class="hare-point" cx="890.5" cy="453.69" r="6"/><circle class="hare-point" cx="937" cy="420.24" r="6"/><circle class="hare-point" cx="983.5" cy="412.6" r="6"/><circle class="hare-point" cx="1030" cy="371.99" r="6"/><circle class="lynx-point" cx="100" cy="470.89" r="6"/><circle class="lynx-point" cx="146.5" cy="460.86" r="6"/><circle class="lynx-point" cx="193" cy="443.18" r="6"/><circle class="lynx-point" cx="239.5" cy="321.82" r="6"/><circle class="lynx-point" cx="286" cy="206.2" r="6"/><circle class="lynx-point" cx="332.5" cy="290.77" r="6"/><circle class="lynx-point" cx="379" cy="399.22" r="6"/><circle class="lynx-point" cx="425.5" cy="427.89" r="6"/><circle class="lynx-point" cx="472" cy="450.34" r="6"/><circle class="lynx-point" cx="518.5" cy="446.52" r="6"/><circle class="lynx-point" cx="565" cy="454.64" r="6"/><circle class="lynx-point" cx="611.5" cy="451.78" r="6"/><circle class="lynx-point" cx="658" cy="431.23" r="6"/><circle class="lynx-point" cx="704.5" cy="396.83" r="6"/><circle class="lynx-point" cx="751" cy="271.66" r="6"/><circle class="lynx-point" cx="797.5" cy="245.86" r="6"/><circle class="lynx-point" cx="844" cy="348.1" r="6"/><circle class="lynx-point" cx="890.5" cy="414.51" r="6"/><circle class="lynx-point" cx="937" cy="443.66" r="6"/><circle class="lynx-point" cx="983.5" cy="441.74" r="6"/><circle class="lynx-point" cx="1030" cy="448.91" r="6"/><text class="axis" x="100" y="518" text-anchor="middle">1900</text><text class="axis" x="565" y="518" text-anchor="middle">1910</text><text class="axis" x="1030" y="518" text-anchor="middle">1920</text><text class="axis" x="88" y="495" text-anchor="end">0</text><text class="axis" x="88" y="399.44" text-anchor="end">20</text><text class="axis" x="88" y="303.89" text-anchor="end">40</text><text class="axis" x="88" y="208.33" text-anchor="end">60</text><text class="axis" x="88" y="112.78" text-anchor="end">80</text><text class="label" x="565.0" y="558" text-anchor="middle">年份</text><text class="label" x="34" y="275.0" text-anchor="middle" transform="rotate(-90 34 275.0)">毛皮数量（千张）</text><text class="label" x="751" y="117.33" fill="#202420">雪兔</text><text class="label" x="844" y="260.67" fill="#6874ef">猞猁</text></svg>