<?xml version="1.0" encoding="UTF-8"?>
<svg xmlns="http://www.w3.org/2000/svg" width="1200" height="850" viewBox="0 0 1200 850" role="img">
  <title>身高模型的先验预测模拟</title>
  <desc>顶部显示均值与标准差先验，左下显示合理先验产生的身高先验预测，右下显示过宽均值先验产生负身高和异常高身高。</desc>
  <rect width="100%" height="100%" fill="#ffffff"/>
  <rect x="145" y="90" width="390" height="250" fill="#fff" stroke="#363934" stroke-width="1.2"/>
  <text x="340" y="72" text-anchor="middle" font-family="-apple-system,BlinkMacSystemFont,PingFang SC,Noto Sans CJK SC,sans-serif" font-size="18" font-weight="700" fill="#263f86">μ ∼ Normal(178, 20)</text>
  <polyline points="145,339.88 146.62,339.87 148.25,339.85 149.88,339.83 151.5,339.81 153.12,339.79 154.75,339.76 156.38,339.74 158,339.7 159.62,339.67 161.25,339.63 162.88,339.58 164.5,339.54 166.12,339.48 167.75,339.42 169.38,339.36 171,339.29 172.62,339.21 174.25,339.12 175.88,339.02 177.5,338.91 179.12,338.8 180.75,338.67 182.38,338.53 184,338.38 185.62,338.21 187.25,338.03 188.88,337.83 190.5,337.61 192.12,337.38 193.75,337.12 195.38,336.85 197,336.55 198.62,336.22 200.25,335.87 201.88,335.49 203.5,335.08 205.12,334.63 206.75,334.15 208.38,333.64 210,333.09 211.62,332.49 213.25,331.86 214.88,331.18 216.5,330.45 218.12,329.67 219.75,328.84 221.38,327.95 223,327.01 224.62,326 226.25,324.93 227.88,323.8 229.5,322.6 231.12,321.32 232.75,319.98 234.38,318.55 236,317.05 237.62,315.47 239.25,313.8 240.88,312.05 242.5,310.21 244.12,308.28 245.75,306.26 247.38,304.14 249,301.93 250.62,299.62 252.25,297.21 253.88,294.7 255.5,292.1 257.12,289.39 258.75,286.58 260.38,283.67 262,280.66 263.62,277.55 265.25,274.34 266.88,271.04 268.5,267.64 270.12,264.14 271.75,260.55 273.38,256.88 275,253.12 276.62,249.28 278.25,245.36 279.88,241.37 281.5,237.31 283.12,233.19 284.75,229.01 286.38,224.78 288,220.51 289.62,216.19 291.25,211.85 292.88,207.49 294.5,203.11 296.12,198.72 297.75,194.33 299.38,189.96 301,185.6 302.62,181.28 304.25,176.99 305.88,172.75 307.5,168.56 309.12,164.45 310.75,160.41 312.38,156.45 314,152.6 315.62,148.84 317.25,145.21 318.88,141.69 320.5,138.32 322.12,135.08 323.75,131.99 325.38,129.07 327,126.31 328.62,123.73 330.25,121.33 331.88,119.12 333.5,117.1 335.12,115.29 336.75,113.68 338.38,112.29 340,111.1 341.62,110.14 343.25,109.4 344.88,108.88 346.5,108.59 348.12,108.52 349.75,108.68 351.38,109.06 353,109.67 354.62,110.5 356.25,111.55 357.88,112.82 359.5,114.3 361.12,115.99 362.75,117.89 364.38,119.98 366,122.27 367.62,124.74 369.25,127.39 370.88,130.22 372.5,133.21 374.12,136.36 375.75,139.65 377.38,143.08 379,146.65 380.62,150.33 382.25,154.13 383.88,158.02 385.5,162.01 387.12,166.09 388.75,170.23 390.38,174.44 392,178.7 393.62,183 395.25,187.34 396.88,191.71 398.5,196.09 400.12,200.47 401.75,204.86 403.38,209.23 405,213.59 406.62,217.92 408.25,222.22 409.88,226.48 411.5,230.69 413.12,234.84 414.75,238.94 416.38,242.98 418,246.94 419.62,250.83 421.25,254.63 422.88,258.36 424.5,262 426.12,265.55 427.75,269.01 429.38,272.37 431,275.64 432.62,278.81 434.25,281.88 435.88,284.85 437.5,287.72 439.12,290.48 440.75,293.15 442.38,295.72 444,298.18 445.62,300.55 447.25,302.82 448.88,305 450.5,307.08 452.12,309.06 453.75,310.96 455.38,312.76 457,314.48 458.62,316.11 460.25,317.66 461.88,319.13 463.5,320.52 465.12,321.84 466.75,323.09 468.38,324.26 470,325.37 471.62,326.41 473.25,327.39 474.88,328.31 476.5,329.18 478.12,329.99 479.75,330.75 481.38,331.46 483,332.12 484.62,332.74 486.25,333.31 487.88,333.85 489.5,334.35 491.12,334.81 492.75,335.24 494.38,335.64 496,336.01 497.62,336.35 499.25,336.67 500.88,336.96 502.5,337.23 504.12,337.48 505.75,337.7 507.38,337.91 509,338.1 510.62,338.28 512.25,338.44 513.88,338.59 515.5,338.72 517.12,338.85 518.75,338.96 520.38,339.06 522,339.15 523.62,339.24 525.25,339.31 526.88,339.38 528.5,339.45 530.12,339.5 531.75,339.56 533.38,339.6 535,339.64" fill="none" stroke="#6670ee" stroke-width="3"/>
  <line x1="145" y1="340" x2="145" y2="347" stroke="#363934"/>
  <text x="145" y="368" text-anchor="middle" font-family="-apple-system,BlinkMacSystemFont,PingFang SC,Noto Sans CJK SC,sans-serif" font-size="14" fill="#30332e">100</text>
  <line x1="347.8" y1="340" x2="347.8" y2="347" stroke="#363934"/>
  <text x="347.8" y="368" text-anchor="middle" font-family="-apple-system,BlinkMacSystemFont,PingFang SC,Noto Sans CJK SC,sans-serif" font-size="14" fill="#30332e">178</text>
  <line x1="535" y1="340" x2="535" y2="347" stroke="#363934"/>
  <text x="535" y="368" text-anchor="middle" font-family="-apple-system,BlinkMacSystemFont,PingFang SC,Noto Sans CJK SC,sans-serif" font-size="14" fill="#30332e">250</text>
  <text x="340" y="398" text-anchor="middle" font-family="-apple-system,BlinkMacSystemFont,PingFang SC,Noto Sans CJK SC,sans-serif" font-size="17" fill="#30332e">μ</text>
  <text x="110" y="215" transform="rotate(-90 110 215)" text-anchor="middle" font-family="-apple-system,BlinkMacSystemFont,PingFang SC,Noto Sans CJK SC,sans-serif" font-size="17" fill="#30332e">概率密度</text>
  <rect x="675" y="90" width="390" height="250" fill="#fff" stroke="#363934" stroke-width="1.2"/>
  <text x="870" y="72" text-anchor="middle" font-family="-apple-system,BlinkMacSystemFont,PingFang SC,Noto Sans CJK SC,sans-serif" font-size="18" font-weight="700" fill="#263f86">σ ∼ Uniform(0, 50)</text>
  <polyline points="675,340 676.62,340 678.25,340 679.88,340 681.5,340 683.12,340 684.75,340 686.38,340 688,340 689.62,340 691.25,340 692.88,340 694.5,340 696.12,340 697.75,340 699.38,340 701,340 702.62,340 704.25,340 705.88,340 707.5,340 709.12,340 710.75,340 712.38,340 714,340 715.62,340 717.25,340 718.88,340 720.5,340 722.12,340 723.75,340 725.38,340 727,340 728.62,340 730.25,340 731.88,108.52 733.5,108.52 735.12,108.52 736.75,108.52 738.38,108.52 740,108.52 741.62,108.52 743.25,108.52 744.88,108.52 746.5,108.52 748.12,108.52 749.75,108.52 751.38,108.52 753,108.52 754.62,108.52 756.25,108.52 757.88,108.52 759.5,108.52 761.12,108.52 762.75,108.52 764.38,108.52 766,108.52 767.62,108.52 769.25,108.52 770.88,108.52 772.5,108.52 774.12,108.52 775.75,108.52 777.38,108.52 779,108.52 780.62,108.52 782.25,108.52 783.88,108.52 785.5,108.52 787.12,108.52 788.75,108.52 790.38,108.52 792,108.52 793.62,108.52 795.25,108.52 796.88,108.52 798.5,108.52 800.12,108.52 801.75,108.52 803.38,108.52 805,108.52 806.62,108.52 808.25,108.52 809.88,108.52 811.5,108.52 813.12,108.52 814.75,108.52 816.38,108.52 818,108.52 819.62,108.52 821.25,108.52 822.88,108.52 824.5,108.52 826.12,108.52 827.75,108.52 829.38,108.52 831,108.52 832.62,108.52 834.25,108.52 835.88,108.52 837.5,108.52 839.12,108.52 840.75,108.52 842.38,108.52 844,108.52 845.62,108.52 847.25,108.52 848.88,108.52 850.5,108.52 852.12,108.52 853.75,108.52 855.38,108.52 857,108.52 858.62,108.52 860.25,108.52 861.88,108.52 863.5,108.52 865.12,108.52 866.75,108.52 868.38,108.52 870,108.52 871.62,108.52 873.25,108.52 874.88,108.52 876.5,108.52 878.12,108.52 879.75,108.52 881.38,108.52 883,108.52 884.62,108.52 886.25,108.52 887.88,108.52 889.5,108.52 891.12,108.52 892.75,108.52 894.38,108.52 896,108.52 897.62,108.52 899.25,108.52 900.88,108.52 902.5,108.52 904.12,108.52 905.75,108.52 907.38,108.52 909,108.52 910.62,108.52 912.25,108.52 913.88,108.52 915.5,108.52 917.12,108.52 918.75,108.52 920.38,108.52 922,108.52 923.62,108.52 925.25,108.52 926.88,108.52 928.5,108.52 930.12,108.52 931.75,108.52 933.38,108.52 935,108.52 936.62,108.52 938.25,108.52 939.88,108.52 941.5,108.52 943.12,108.52 944.75,108.52 946.38,108.52 948,108.52 949.62,108.52 951.25,108.52 952.88,108.52 954.5,108.52 956.12,108.52 957.75,108.52 959.38,108.52 961,108.52 962.62,108.52 964.25,108.52 965.88,108.52 967.5,108.52 969.12,108.52 970.75,108.52 972.38,108.52 974,108.52 975.62,108.52 977.25,108.52 978.88,108.52 980.5,108.52 982.12,108.52 983.75,108.52 985.38,108.52 987,108.52 988.62,108.52 990.25,108.52 991.88,108.52 993.5,108.52 995.12,108.52 996.75,108.52 998.38,108.52 1000,108.52 1001.62,108.52 1003.25,108.52 1004.88,108.52 1006.5,108.52 1008.12,108.52 1009.75,340 1011.38,340 1013,340 1014.62,340 1016.25,340 1017.88,340 1019.5,340 1021.12,340 1022.75,340 1024.38,340 1026,340 1027.62,340 1029.25,340 1030.88,340 1032.5,340 1034.12,340 1035.75,340 1037.38,340 1039,340 1040.62,340 1042.25,340 1043.88,340 1045.5,340 1047.12,340 1048.75,340 1050.38,340 1052,340 1053.62,340 1055.25,340 1056.88,340 1058.5,340 1060.12,340 1061.75,340 1063.38,340 1065,340" fill="none" stroke="#6670ee" stroke-width="3"/>
  <line x1="730.71" y1="340" x2="730.71" y2="347" stroke="#363934"/>
  <text x="730.71" y="368" text-anchor="middle" font-family="-apple-system,BlinkMacSystemFont,PingFang SC,Noto Sans CJK SC,sans-serif" font-size="14" fill="#30332e">0</text>
  <line x1="1009.29" y1="340" x2="1009.29" y2="347" stroke="#363934"/>
  <text x="1009.29" y="368" text-anchor="middle" font-family="-apple-system,BlinkMacSystemFont,PingFang SC,Noto Sans CJK SC,sans-serif" font-size="14" fill="#30332e">50</text>
  <text x="870" y="398" text-anchor="middle" font-family="-apple-system,BlinkMacSystemFont,PingFang SC,Noto Sans CJK SC,sans-serif" font-size="17" fill="#30332e">σ</text>
  <text x="640" y="215" transform="rotate(-90 640 215)" text-anchor="middle" font-family="-apple-system,BlinkMacSystemFont,PingFang SC,Noto Sans CJK SC,sans-serif" font-size="17" fill="#30332e">概率密度</text>
  <rect x="145" y="515" width="390" height="250" fill="#fff" stroke="#363934" stroke-width="1.2"/>
  <text x="340" y="497" text-anchor="middle" font-family="-apple-system,BlinkMacSystemFont,PingFang SC,Noto Sans CJK SC,sans-serif" font-size="18" font-weight="700" fill="#263f86">h ∼ Normal(μ, σ)</text>
  <polyline points="145,765 146.62,765 148.25,765 149.88,765 151.5,765 153.12,765 154.75,765 156.38,765 158,765 159.62,765 161.25,765 162.88,764.99 164.5,764.99 166.12,764.98 167.75,764.96 169.38,764.94 171,764.91 172.62,764.88 174.25,764.86 175.88,764.85 177.5,764.86 179.12,764.87 180.75,764.9 182.38,764.92 184,764.95 185.62,764.97 187.25,764.98 188.88,764.99 190.5,764.99 192.12,764.99 193.75,764.99 195.38,764.97 197,764.95 198.62,764.92 200.25,764.87 201.88,764.82 203.5,764.77 205.12,764.72 206.75,764.68 208.38,764.65 210,764.62 211.62,764.57 213.25,764.51 214.88,764.43 216.5,764.34 218.12,764.26 219.75,764.2 221.38,764.18 223,764.16 224.62,764.14 226.25,764.1 227.88,764.02 229.5,763.91 231.12,763.79 232.75,763.69 234.38,763.6 236,763.54 237.62,763.48 239.25,763.41 240.88,763.3 242.5,763.13 244.12,762.89 245.75,762.6 247.38,762.27 249,761.94 250.62,761.59 252.25,761.23 253.88,760.81 255.5,760.32 257.12,759.72 258.75,759.01 260.38,758.18 262,757.27 263.62,756.32 265.25,755.33 266.88,754.3 268.5,753.22 270.12,752.03 271.75,750.69 273.38,749.2 275,747.55 276.62,745.76 278.25,743.86 279.88,741.85 281.5,739.76 283.12,737.59 284.75,735.37 286.38,733.09 288,730.71 289.62,728.14 291.25,725.26 292.88,721.94 294.5,718.12 296.12,713.79 297.75,709.01 299.38,703.86 301,698.39 302.62,692.58 304.25,686.36 305.88,679.65 307.5,672.43 309.12,664.75 310.75,656.76 312.38,648.63 314,640.59 315.62,632.79 317.25,625.34 318.88,618.19 320.5,611.23 322.12,604.25 323.75,597.08 325.38,589.64 327,582.02 328.62,574.45 330.25,567.23 331.88,560.61 333.5,554.71 335.12,549.5 336.75,544.9 338.38,540.88 340,537.5 341.62,534.96 343.25,533.55 344.88,533.52 346.5,535 348.12,537.95 349.75,542.13 351.38,547.23 353,552.97 354.62,559.2 356.25,565.95 357.88,573.35 359.5,581.48 361.12,590.32 362.75,599.68 364.38,609.23 366,618.69 367.62,627.85 369.25,636.64 370.88,645.07 372.5,653.17 374.12,660.97 375.75,668.41 377.38,675.47 379,682.11 380.62,688.29 382.25,694.01 383.88,699.28 385.5,704.12 387.12,708.57 388.75,712.69 390.38,716.53 392,720.14 393.62,723.51 395.25,726.64 396.88,729.52 398.5,732.15 400.12,734.57 401.75,736.84 403.38,739.04 405,741.22 406.62,743.42 408.25,745.61 409.88,747.72 411.5,749.65 413.12,751.29 414.75,752.58 416.38,753.54 418,754.22 419.62,754.75 421.25,755.24 422.88,755.8 424.5,756.46 426.12,757.24 427.75,758.09 429.38,758.95 431,759.76 432.62,760.48 434.25,761.1 435.88,761.61 437.5,762.04 439.12,762.4 440.75,762.69 442.38,762.93 444,763.13 445.62,763.29 447.25,763.44 448.88,763.58 450.5,763.71 452.12,763.83 453.75,763.92 455.38,764 457,764.06 458.62,764.09 460.25,764.13 461.88,764.16 463.5,764.22 465.12,764.29 466.75,764.38 468.38,764.49 470,764.6 471.62,764.7 473.25,764.8 474.88,764.87 476.5,764.92 478.12,764.96 479.75,764.98 481.38,764.99 483,765 484.62,765 486.25,765 487.88,765 489.5,765 491.12,765 492.75,765 494.38,765 496,765 497.62,765 499.25,765 500.88,765 502.5,765 504.12,765 505.75,765 507.38,765 509,765 510.62,765 512.25,765 513.88,765 515.5,765 517.12,765 518.75,765 520.38,765 522,765 523.62,765 525.25,765 526.88,765 528.5,765 530.12,765 531.75,765 533.38,765 535,765" fill="none" stroke="#6670ee" stroke-width="3"/>
  <line x1="188.33" y1="765" x2="188.33" y2="772" stroke="#363934"/>
  <text x="188.33" y="793" text-anchor="middle" font-family="-apple-system,BlinkMacSystemFont,PingFang SC,Noto Sans CJK SC,sans-serif" font-size="14" fill="#30332e">0</text>
  <line x1="251.6" y1="765" x2="251.6" y2="772" stroke="#363934"/>
  <text x="251.6" y="793" text-anchor="middle" font-family="-apple-system,BlinkMacSystemFont,PingFang SC,Noto Sans CJK SC,sans-serif" font-size="14" fill="#30332e">73</text>
  <line x1="342.6" y1="765" x2="342.6" y2="772" stroke="#363934"/>
  <text x="342.6" y="793" text-anchor="middle" font-family="-apple-system,BlinkMacSystemFont,PingFang SC,Noto Sans CJK SC,sans-serif" font-size="14" fill="#30332e">178</text>
  <line x1="433.6" y1="765" x2="433.6" y2="772" stroke="#363934"/>
  <text x="433.6" y="793" text-anchor="middle" font-family="-apple-system,BlinkMacSystemFont,PingFang SC,Noto Sans CJK SC,sans-serif" font-size="14" fill="#30332e">283</text>
  <text x="340" y="823" text-anchor="middle" font-family="-apple-system,BlinkMacSystemFont,PingFang SC,Noto Sans CJK SC,sans-serif" font-size="17" fill="#30332e">身高（厘米）</text>
  <text x="110" y="640" transform="rotate(-90 110 640)" text-anchor="middle" font-family="-apple-system,BlinkMacSystemFont,PingFang SC,Noto Sans CJK SC,sans-serif" font-size="17" fill="#30332e">概率密度</text>
  <rect x="675" y="515" width="390" height="250" fill="#fff" stroke="#363934" stroke-width="1.2"/>
  <text x="870" y="497" text-anchor="middle" font-family="-apple-system,BlinkMacSystemFont,PingFang SC,Noto Sans CJK SC,sans-serif" font-size="18" font-weight="700" fill="#263f86">h ∼ Normal(μ, σ)，μ ∼ Normal(178, 100)</text>
  <polyline points="675,763.5 676.62,763.24 678.25,762.94 679.88,762.6 681.5,762.23 683.12,761.83 684.75,761.4 686.38,760.95 688,760.5 689.62,760.06 691.25,759.62 692.88,759.21 694.5,758.81 696.12,758.44 697.75,758.1 699.38,757.79 701,757.49 702.62,757.21 704.25,756.93 705.88,756.65 707.5,756.36 709.12,756.04 710.75,755.7 712.38,755.33 714,754.91 715.62,754.44 717.25,753.92 718.88,753.33 720.5,752.67 722.12,751.92 723.75,751.08 725.38,750.14 727,749.1 728.62,747.95 730.25,746.68 731.88,745.31 733.5,743.83 735.12,742.26 736.75,740.6 738.38,738.86 740,737.05 741.62,735.18 743.25,733.25 744.88,731.27 746.5,729.26 748.12,727.2 749.75,725.12 751.38,723.01 753,720.86 754.62,718.69 756.25,716.48 757.88,714.21 759.5,711.89 761.12,709.49 762.75,707 764.38,704.41 766,701.7 767.62,698.86 769.25,695.88 770.88,692.78 772.5,689.54 774.12,686.18 775.75,682.71 777.38,679.14 779,675.5 780.62,671.8 782.25,668.06 783.88,664.31 785.5,660.57 787.12,656.85 788.75,653.16 790.38,649.53 792,645.95 793.62,642.44 795.25,638.99 796.88,635.61 798.5,632.27 800.12,628.97 801.75,625.69 803.38,622.41 805,619.1 806.62,615.75 808.25,612.35 809.88,608.92 811.5,605.46 813.12,602.01 814.75,598.61 816.38,595.31 818,592.14 819.62,589.15 821.25,586.36 822.88,583.8 824.5,581.43 826.12,579.25 827.75,577.2 829.38,575.23 831,573.29 832.62,571.31 834.25,569.27 835.88,567.11 837.5,564.85 839.12,562.47 840.75,560 842.38,557.47 844,554.92 845.62,552.38 847.25,549.9 848.88,547.51 850.5,545.24 852.12,543.1 853.75,541.12 855.38,539.31 857,537.7 858.62,536.31 860.25,535.16 861.88,534.29 863.5,533.73 865.12,533.52 866.75,533.68 868.38,534.25 870,535.22 871.62,536.62 873.25,538.43 874.88,540.63 876.5,543.18 878.12,546.06 879.75,549.21 881.38,552.58 883,556.13 884.62,559.82 886.25,563.59 887.88,567.4 889.5,571.23 891.12,575.05 892.75,578.83 894.38,582.56 896,586.22 897.62,589.81 899.25,593.33 900.88,596.79 902.5,600.19 904.12,603.56 905.75,606.91 907.38,610.26 909,613.62 910.62,616.99 912.25,620.4 913.88,623.83 915.5,627.28 917.12,630.76 918.75,634.26 920.38,637.78 922,641.32 923.62,644.88 925.25,648.46 926.88,652.07 928.5,655.68 930.12,659.32 931.75,662.95 933.38,666.58 935,670.18 936.62,673.73 938.25,677.22 939.88,680.64 941.5,683.96 943.12,687.18 944.75,690.3 946.38,693.31 948,696.22 949.62,699.03 951.25,701.75 952.88,704.39 954.5,706.96 956.12,709.45 957.75,711.88 959.38,714.25 961,716.56 962.62,718.8 964.25,720.98 965.88,723.1 967.5,725.15 969.12,727.13 970.75,729.04 972.38,730.88 974,732.65 975.62,734.34 977.25,735.95 978.88,737.48 980.5,738.93 982.12,740.31 983.75,741.6 985.38,742.83 987,743.99 988.62,745.09 990.25,746.14 991.88,747.15 993.5,748.12 995.12,749.07 996.75,749.99 998.38,750.89 1000,751.77 1001.62,752.63 1003.25,753.47 1004.88,754.29 1006.5,755.07 1008.12,755.81 1009.75,756.52 1011.38,757.18 1013,757.79 1014.62,758.36 1016.25,758.88 1017.88,759.35 1019.5,759.79 1021.12,760.19 1022.75,760.55 1024.38,760.89 1026,761.2 1027.62,761.48 1029.25,761.74 1030.88,761.99 1032.5,762.22 1034.12,762.44 1035.75,762.64 1037.38,762.83 1039,763.01 1040.62,763.18 1042.25,763.35 1043.88,763.5 1045.5,763.64 1047.12,763.77 1048.75,763.9 1050.38,764.01 1052,764.11 1053.62,764.2 1055.25,764.28 1056.88,764.35 1058.5,764.42 1060.12,764.47 1061.75,764.53 1063.38,764.57 1065,764.62" fill="none" stroke="#6670ee" stroke-width="3"/>
  <line x1="687.26" y1="765" x2="687.26" y2="772" stroke="#363934"/>
  <text x="687.26" y="793" text-anchor="middle" font-family="-apple-system,BlinkMacSystemFont,PingFang SC,Noto Sans CJK SC,sans-serif" font-size="14" fill="#30332e">-128</text>
  <line x1="758.57" y1="765" x2="758.57" y2="772" stroke="#363934"/>
  <text x="758.57" y="793" text-anchor="middle" font-family="-apple-system,BlinkMacSystemFont,PingFang SC,Noto Sans CJK SC,sans-serif" font-size="14" fill="#30332e">0</text>
  <line x1="857.74" y1="765" x2="857.74" y2="772" stroke="#363934"/>
  <text x="857.74" y="793" text-anchor="middle" font-family="-apple-system,BlinkMacSystemFont,PingFang SC,Noto Sans CJK SC,sans-serif" font-size="14" fill="#30332e">178</text>
  <line x1="910.11" y1="765" x2="910.11" y2="772" stroke="#363934"/>
  <text x="910.11" y="793" text-anchor="middle" font-family="-apple-system,BlinkMacSystemFont,PingFang SC,Noto Sans CJK SC,sans-serif" font-size="14" fill="#30332e">272</text>
  <line x1="1028.23" y1="765" x2="1028.23" y2="772" stroke="#363934"/>
  <text x="1028.23" y="793" text-anchor="middle" font-family="-apple-system,BlinkMacSystemFont,PingFang SC,Noto Sans CJK SC,sans-serif" font-size="14" fill="#30332e">484</text>
  <line x1="758.57" y1="515" x2="758.57" y2="765" stroke="#30332e" stroke-width="1.8" stroke-dasharray="7 6"/>
  <line x1="910.11" y1="515" x2="910.11" y2="765" stroke="#30332e" stroke-width="1.8"/>
  <text x="870" y="823" text-anchor="middle" font-family="-apple-system,BlinkMacSystemFont,PingFang SC,Noto Sans CJK SC,sans-serif" font-size="17" fill="#30332e">身高（厘米）</text>
  <text x="640" y="640" transform="rotate(-90 640 640)" text-anchor="middle" font-family="-apple-system,BlinkMacSystemFont,PingFang SC,Noto Sans CJK SC,sans-serif" font-size="17" fill="#30332e">概率密度</text>
  <text x="600.0" y="828" text-anchor="middle" font-family="-apple-system,BlinkMacSystemFont,PingFang SC,Noto Sans CJK SC,sans-serif" font-size="15" fill="#656963">过宽先验模拟中：约 4% 为负身高，约 18% 高于 272 厘米。</text>
</svg>
