<svg xmlns="http://www.w3.org/2000/svg" width="900" height="610" viewBox="0 0 900 610" role="img">
<title>图 12.5：累积概率与有序 likelihood</title>
<desc>灰色竖线表示一至七档结果的累积概率，蓝色竖线段表示相邻累积概率之差，也就是各档结果的离散 likelihood。</desc>
<rect width="100%" height="100%" fill="#fbfaf6"/>
<rect x="45" y="35" width="825" height="535" rx="8" fill="#fff" stroke="#d9d5c8"/>
<line x1="115" y1="505" x2="845" y2="505" stroke="#30332e" stroke-width="1.7"/>
<line x1="115" y1="505" x2="115" y2="70" stroke="#30332e" stroke-width="1.7"/>
<line x1="115.0" y1="505" x2="115.0" y2="512" stroke="#30332e"/>
<text x="115.0" y="535.0" text-anchor="middle" font-family="-apple-system,BlinkMacSystemFont,PingFang SC,Noto Sans CJK SC,sans-serif" font-size="17" font-weight="400" fill="#30332e">1</text>
<line x1="236.7" y1="505" x2="236.7" y2="512" stroke="#30332e"/>
<text x="236.7" y="535.0" text-anchor="middle" font-family="-apple-system,BlinkMacSystemFont,PingFang SC,Noto Sans CJK SC,sans-serif" font-size="17" font-weight="400" fill="#30332e">2</text>
<line x1="358.3" y1="505" x2="358.3" y2="512" stroke="#30332e"/>
<text x="358.3" y="535.0" text-anchor="middle" font-family="-apple-system,BlinkMacSystemFont,PingFang SC,Noto Sans CJK SC,sans-serif" font-size="17" font-weight="400" fill="#30332e">3</text>
<line x1="480.0" y1="505" x2="480.0" y2="512" stroke="#30332e"/>
<text x="480.0" y="535.0" text-anchor="middle" font-family="-apple-system,BlinkMacSystemFont,PingFang SC,Noto Sans CJK SC,sans-serif" font-size="17" font-weight="400" fill="#30332e">4</text>
<line x1="601.7" y1="505" x2="601.7" y2="512" stroke="#30332e"/>
<text x="601.7" y="535.0" text-anchor="middle" font-family="-apple-system,BlinkMacSystemFont,PingFang SC,Noto Sans CJK SC,sans-serif" font-size="17" font-weight="400" fill="#30332e">5</text>
<line x1="723.3" y1="505" x2="723.3" y2="512" stroke="#30332e"/>
<text x="723.3" y="535.0" text-anchor="middle" font-family="-apple-system,BlinkMacSystemFont,PingFang SC,Noto Sans CJK SC,sans-serif" font-size="17" font-weight="400" fill="#30332e">6</text>
<line x1="845.0" y1="505" x2="845.0" y2="512" stroke="#30332e"/>
<text x="845.0" y="535.0" text-anchor="middle" font-family="-apple-system,BlinkMacSystemFont,PingFang SC,Noto Sans CJK SC,sans-serif" font-size="17" font-weight="400" fill="#30332e">7</text>
<line x1="108" y1="505.0" x2="115" y2="505.0" stroke="#30332e"/>
<text x="102.0" y="510.0" text-anchor="end" font-family="-apple-system,BlinkMacSystemFont,PingFang SC,Noto Sans CJK SC,sans-serif" font-size="16" font-weight="400" fill="#30332e">0.0</text>
<line x1="115" y1="505.0" x2="845" y2="505.0" stroke="#d9d5c8" stroke-dasharray="4 7"/>
<line x1="108" y1="418.0" x2="115" y2="418.0" stroke="#30332e"/>
<text x="102.0" y="423.0" text-anchor="end" font-family="-apple-system,BlinkMacSystemFont,PingFang SC,Noto Sans CJK SC,sans-serif" font-size="16" font-weight="400" fill="#30332e">0.2</text>
<line x1="115" y1="418.0" x2="845" y2="418.0" stroke="#d9d5c8" stroke-dasharray="4 7"/>
<line x1="108" y1="331.0" x2="115" y2="331.0" stroke="#30332e"/>
<text x="102.0" y="336.0" text-anchor="end" font-family="-apple-system,BlinkMacSystemFont,PingFang SC,Noto Sans CJK SC,sans-serif" font-size="16" font-weight="400" fill="#30332e">0.4</text>
<line x1="115" y1="331.0" x2="845" y2="331.0" stroke="#d9d5c8" stroke-dasharray="4 7"/>
<line x1="108" y1="244.0" x2="115" y2="244.0" stroke="#30332e"/>
<text x="102.0" y="249.0" text-anchor="end" font-family="-apple-system,BlinkMacSystemFont,PingFang SC,Noto Sans CJK SC,sans-serif" font-size="16" font-weight="400" fill="#30332e">0.6</text>
<line x1="115" y1="244.0" x2="845" y2="244.0" stroke="#d9d5c8" stroke-dasharray="4 7"/>
<line x1="108" y1="157.0" x2="115" y2="157.0" stroke="#30332e"/>
<text x="102.0" y="162.0" text-anchor="end" font-family="-apple-system,BlinkMacSystemFont,PingFang SC,Noto Sans CJK SC,sans-serif" font-size="16" font-weight="400" fill="#30332e">0.8</text>
<line x1="115" y1="157.0" x2="845" y2="157.0" stroke="#d9d5c8" stroke-dasharray="4 7"/>
<line x1="108" y1="70.0" x2="115" y2="70.0" stroke="#30332e"/>
<text x="102.0" y="75.0" text-anchor="end" font-family="-apple-system,BlinkMacSystemFont,PingFang SC,Noto Sans CJK SC,sans-serif" font-size="16" font-weight="400" fill="#30332e">1.0</text>
<line x1="115" y1="70.0" x2="845" y2="70.0" stroke="#d9d5c8" stroke-dasharray="4 7"/>
<polyline points="115.0,449.4 236.7,409.6 358.3,362.6 480.0,260.4 601.7,196.6 723.3,133.3 845.0,70.0" fill="none" stroke="#30332e" stroke-width="2.5" stroke-dasharray="12 9"/>
<line x1="115.0" y1="505" x2="115.0" y2="449.4" stroke="#bcbdb9" stroke-width="7"/>
<line x1="128.0" y1="505.0" x2="128.0" y2="449.4" stroke="#6670ee" stroke-width="7"/>
<circle cx="115.0" cy="449.4" r="6" fill="#fff" stroke="#30332e" stroke-width="2"/>
<text x="137.0" y="483.2" text-anchor="start" font-family="-apple-system,BlinkMacSystemFont,PingFang SC,Noto Sans CJK SC,sans-serif" font-size="17" font-weight="400" fill="#6670ee">1</text>
<line x1="236.7" y1="505" x2="236.7" y2="409.6" stroke="#bcbdb9" stroke-width="7"/>
<line x1="249.7" y1="449.4" x2="249.7" y2="409.6" stroke="#6670ee" stroke-width="7"/>
<circle cx="236.7" cy="409.6" r="6" fill="#fff" stroke="#30332e" stroke-width="2"/>
<text x="258.7" y="435.5" text-anchor="start" font-family="-apple-system,BlinkMacSystemFont,PingFang SC,Noto Sans CJK SC,sans-serif" font-size="17" font-weight="400" fill="#6670ee">2</text>
<line x1="358.3" y1="505" x2="358.3" y2="362.6" stroke="#bcbdb9" stroke-width="7"/>
<line x1="371.3" y1="409.6" x2="371.3" y2="362.6" stroke="#6670ee" stroke-width="7"/>
<circle cx="358.3" cy="362.6" r="6" fill="#fff" stroke="#30332e" stroke-width="2"/>
<text x="380.3" y="392.1" text-anchor="start" font-family="-apple-system,BlinkMacSystemFont,PingFang SC,Noto Sans CJK SC,sans-serif" font-size="17" font-weight="400" fill="#6670ee">3</text>
<line x1="480.0" y1="505" x2="480.0" y2="260.4" stroke="#bcbdb9" stroke-width="7"/>
<line x1="493.0" y1="362.6" x2="493.0" y2="260.4" stroke="#6670ee" stroke-width="7"/>
<circle cx="480.0" cy="260.4" r="6" fill="#fff" stroke="#30332e" stroke-width="2"/>
<text x="502.0" y="317.5" text-anchor="start" font-family="-apple-system,BlinkMacSystemFont,PingFang SC,Noto Sans CJK SC,sans-serif" font-size="17" font-weight="400" fill="#6670ee">4</text>
<line x1="601.7" y1="505" x2="601.7" y2="196.6" stroke="#bcbdb9" stroke-width="7"/>
<line x1="614.7" y1="260.4" x2="614.7" y2="196.6" stroke="#6670ee" stroke-width="7"/>
<circle cx="601.7" cy="196.6" r="6" fill="#fff" stroke="#30332e" stroke-width="2"/>
<text x="623.7" y="234.5" text-anchor="start" font-family="-apple-system,BlinkMacSystemFont,PingFang SC,Noto Sans CJK SC,sans-serif" font-size="17" font-weight="400" fill="#6670ee">5</text>
<line x1="723.3" y1="505" x2="723.3" y2="133.3" stroke="#bcbdb9" stroke-width="7"/>
<line x1="736.3" y1="196.6" x2="736.3" y2="133.3" stroke="#6670ee" stroke-width="7"/>
<circle cx="723.3" cy="133.3" r="6" fill="#fff" stroke="#30332e" stroke-width="2"/>
<text x="745.3" y="171.0" text-anchor="start" font-family="-apple-system,BlinkMacSystemFont,PingFang SC,Noto Sans CJK SC,sans-serif" font-size="17" font-weight="400" fill="#6670ee">6</text>
<line x1="845.0" y1="505" x2="845.0" y2="70.0" stroke="#bcbdb9" stroke-width="7"/>
<line x1="858.0" y1="133.3" x2="858.0" y2="70.0" stroke="#6670ee" stroke-width="7"/>
<circle cx="845.0" cy="70.0" r="6" fill="#fff" stroke="#30332e" stroke-width="2"/>
<text x="867.0" y="107.6" text-anchor="start" font-family="-apple-system,BlinkMacSystemFont,PingFang SC,Noto Sans CJK SC,sans-serif" font-size="17" font-weight="400" fill="#6670ee">7</text>
<text x="480.0" y="585.0" text-anchor="middle" font-family="-apple-system,BlinkMacSystemFont,PingFang SC,Noto Sans CJK SC,sans-serif" font-size="20" font-weight="400" fill="#30332e">回答</text>
<text x="25.0" y="287.5" text-anchor="middle" font-family="-apple-system,BlinkMacSystemFont,PingFang SC,Noto Sans CJK SC,sans-serif" font-size="20" font-weight="400" fill="#30332e" transform="rotate(-90 25 287.5)">累积比例</text>
<line x1="205" y1="548" x2="250" y2="548" stroke="#bcbdb9" stroke-width="7"/><text x="265" y="554" font-family="-apple-system,BlinkMacSystemFont,PingFang SC,sans-serif" font-size="16" fill="#30332e">累积概率</text>
<line x1="430" y1="548" x2="475" y2="548" stroke="#6670ee" stroke-width="7"/><text x="490" y="554" font-family="-apple-system,BlinkMacSystemFont,PingFang SC,sans-serif" font-size="16" fill="#30332e">离散概率（likelihood）</text>
</svg>
