<svg xmlns="http://www.w3.org/2000/svg" width="920" height="620" viewBox="0 0 920 620">
<title>图 14.4：截距与斜率相关的先验和后验</title>
<desc>蓝色后验密度集中在负相关，峰值约为负零点六；黑色虚线是较宽的 LKJcorr 二先验密度。</desc>
<rect width="920" height="620" fill="#fff"/>
<line x1="110.0" y1="510.0" x2="850.0" y2="510.0" stroke="#30332e" stroke-width="1.5"/>
<line x1="110.0" y1="65.0" x2="110.0" y2="510.0" stroke="#30332e" stroke-width="1.5"/>
<polyline points="110.4,510.0 111.8,510.0 113.3,510.0 114.8,510.0 116.3,510.0 117.8,510.0 119.2,510.0 120.7,510.0 122.2,510.0 123.7,510.0 125.2,510.0 126.6,510.0 128.1,510.0 129.6,510.0 131.1,510.0 132.5,510.0 134.0,509.9 135.5,509.9 137.0,509.8 138.5,509.8 139.9,509.7 141.4,509.5 142.9,509.3 144.4,509.1 145.9,508.8 147.3,508.4 148.8,507.9 150.3,507.2 151.8,506.5 153.2,505.6 154.7,504.5 156.2,503.2 157.7,501.8 159.2,500.0 160.6,498.1 162.1,495.8 163.6,493.3 165.1,490.5 166.6,487.3 168.0,483.8 169.5,480.0 171.0,475.8 172.5,471.3 173.9,466.3 175.4,461.1 176.9,455.4 178.4,449.4 179.9,443.0 181.3,436.2 182.8,429.2 184.3,421.8 185.8,414.0 187.3,406.0 188.7,397.7 190.2,389.1 191.7,380.3 193.2,371.3 194.6,362.1 196.1,352.7 197.6,343.2 199.1,333.6 200.6,323.9 202.0,314.1 203.5,304.3 205.0,294.4 206.5,284.6 208.0,274.9 209.4,265.2 210.9,255.6 212.4,246.1 213.9,236.7 215.3,227.5 216.8,218.5 218.3,209.7 219.8,201.1 221.3,192.7 222.7,184.6 224.2,176.8 225.7,169.2 227.2,161.9 228.7,154.9 230.1,148.2 231.6,141.9 233.1,135.8 234.6,130.1 236.0,124.7 237.5,119.6 239.0,114.9 240.5,110.6 242.0,106.5 243.4,102.8 244.9,99.5 246.4,96.5 247.9,93.8 249.4,91.4 250.8,89.4 252.3,87.7 253.8,86.3 255.3,85.2 256.7,84.5 258.2,84.0 259.7,83.8 261.2,83.9 262.7,84.3 264.1,84.9 265.6,85.8 267.1,87.0 268.6,88.4 270.1,90.0 271.5,91.9 273.0,93.9 274.5,96.2 276.0,98.7 277.4,101.4 278.9,104.2 280.4,107.2 281.9,110.4 283.4,113.8 284.8,117.3 286.3,120.9 287.8,124.6 289.3,128.5 290.7,132.5 292.2,136.6 293.7,140.8 295.2,145.1 296.7,149.5 298.1,153.9 299.6,158.5 301.1,163.1 302.6,167.7 304.1,172.4 305.5,177.1 307.0,181.9 308.5,186.7 310.0,191.6 311.4,196.4 312.9,201.3 314.4,206.2 315.9,211.1 317.4,216.0 318.8,220.9 320.3,225.8 321.8,230.7 323.3,235.6 324.8,240.5 326.2,245.4 327.7,250.2 329.2,255.0 330.7,259.8 332.1,264.5 333.6,269.2 335.1,273.9 336.6,278.5 338.1,283.1 339.5,287.7 341.0,292.2 342.5,296.7 344.0,301.1 345.5,305.5 346.9,309.8 348.4,314.1 349.9,318.3 351.4,322.5 352.8,326.6 354.3,330.7 355.8,334.7 357.3,338.6 358.8,342.5 360.2,346.4 361.7,350.1 363.2,353.9 364.7,357.5 366.2,361.1 367.6,364.7 369.1,368.2 370.6,371.6 372.1,375.0 373.5,378.3 375.0,381.5 376.5,384.7 378.0,387.9 379.5,390.9 380.9,394.0 382.4,396.9 383.9,399.8 385.4,402.7 386.9,405.5 388.3,408.2 389.8,410.9 391.3,413.5 392.8,416.1 394.2,418.6 395.7,421.1 397.2,423.5 398.7,425.9 400.2,428.2 401.6,430.5 403.1,432.7 404.6,434.8 406.1,437.0 407.6,439.0 409.0,441.1 410.5,443.0 412.0,445.0 413.5,446.8 414.9,448.7 416.4,450.5 417.9,452.2 419.4,453.9 420.9,455.6 422.3,457.2 423.8,458.8 425.3,460.4 426.8,461.9 428.3,463.4 429.7,464.8 431.2,466.2 432.7,467.6 434.2,468.9 435.6,470.2 437.1,471.4 438.6,472.7 440.1,473.9 441.6,475.0 443.0,476.1 444.5,477.2 446.0,478.3 447.5,479.3 449.0,480.4 450.4,481.3 451.9,482.3 453.4,483.2 454.9,484.1 456.3,485.0 457.8,485.9 459.3,486.7 460.8,487.5 462.3,488.3 463.7,489.0 465.2,489.8 466.7,490.5 468.2,491.2 469.7,491.8 471.1,492.5 472.6,493.1 474.1,493.7 475.6,494.3 477.0,494.9 478.5,495.4 480.0,496.0 481.5,496.5 483.0,497.0 484.4,497.5 485.9,498.0 487.4,498.4 488.9,498.9 490.3,499.3 491.8,499.7 493.3,500.1 494.8,500.5 496.3,500.9 497.7,501.2 499.2,501.6 500.7,501.9 502.2,502.2 503.7,502.5 505.1,502.8 506.6,503.1 508.1,503.4 509.6,503.7 511.0,504.0 512.5,504.2 514.0,504.5 515.5,504.7 517.0,504.9 518.4,505.1 519.9,505.3 521.4,505.5 522.9,505.7 524.4,505.9 525.8,506.1 527.3,506.3 528.8,506.4 530.3,506.6 531.7,506.8 533.2,506.9 534.7,507.1 536.2,507.2 537.7,507.3 539.1,507.4 540.6,507.6 542.1,507.7 543.6,507.8 545.1,507.9 546.5,508.0 548.0,508.1 549.5,508.2 551.0,508.3 552.4,508.4 553.9,508.4 555.4,508.5 556.9,508.6 558.4,508.7 559.8,508.7 561.3,508.8 562.8,508.9 564.3,508.9 565.8,509.0 567.2,509.0 568.7,509.1 570.2,509.1 571.7,509.2 573.1,509.2 574.6,509.3 576.1,509.3 577.6,509.4 579.1,509.4 580.5,509.4 582.0,509.5 583.5,509.5 585.0,509.5 586.5,509.5 587.9,509.6 589.4,509.6 590.9,509.6 592.4,509.6 593.8,509.7 595.3,509.7 596.8,509.7 598.3,509.7 599.8,509.7 601.2,509.8 602.7,509.8 604.2,509.8 605.7,509.8 607.2,509.8 608.6,509.8 610.1,509.8 611.6,509.8 613.1,509.9 614.5,509.9 616.0,509.9 617.5,509.9 619.0,509.9 620.5,509.9 621.9,509.9 623.4,509.9 624.9,509.9 626.4,509.9 627.9,509.9 629.3,509.9 630.8,509.9 632.3,509.9 633.8,510.0 635.2,510.0 636.7,510.0 638.2,510.0 639.7,510.0 641.2,510.0 642.6,510.0 644.1,510.0 645.6,510.0 647.1,510.0 648.6,510.0 650.0,510.0 651.5,510.0 653.0,510.0 654.5,510.0 655.9,510.0 657.4,510.0 658.9,510.0 660.4,510.0 661.9,510.0 663.3,510.0 664.8,510.0 666.3,510.0 667.8,510.0 669.3,510.0 670.7,510.0 672.2,510.0 673.7,510.0 675.2,510.0 676.6,510.0 678.1,510.0 679.6,510.0 681.1,510.0 682.6,510.0 684.0,510.0 685.5,510.0 687.0,510.0 688.5,510.0 689.9,510.0 691.4,510.0 692.9,510.0 694.4,510.0 695.9,510.0 697.3,510.0 698.8,510.0 700.3,510.0 701.8,510.0 703.3,510.0 704.7,510.0 706.2,510.0 707.7,510.0 709.2,510.0 710.6,510.0 712.1,510.0 713.6,510.0 715.1,510.0 716.6,510.0 718.0,510.0 719.5,510.0 721.0,510.0 722.5,510.0 724.0,510.0 725.4,510.0 726.9,510.0 728.4,510.0 729.9,510.0 731.3,510.0 732.8,510.0 734.3,510.0 735.8,510.0 737.3,510.0 738.7,510.0 740.2,510.0 741.7,510.0 743.2,510.0 744.7,510.0 746.1,510.0 747.6,510.0 749.1,510.0 750.6,510.0 752.0,510.0 753.5,510.0 755.0,510.0 756.5,510.0 758.0,510.0 759.4,510.0 760.9,510.0 762.4,510.0 763.9,510.0 765.4,510.0 766.8,510.0 768.3,510.0 769.8,510.0 771.3,510.0 772.7,510.0 774.2,510.0 775.7,510.0 777.2,510.0 778.7,510.0 780.1,510.0 781.6,510.0 783.1,510.0 784.6,510.0 786.1,510.0 787.5,510.0 789.0,510.0 790.5,510.0 792.0,510.0 793.4,510.0 794.9,510.0 796.4,510.0 797.9,510.0 799.4,510.0 800.8,510.0 802.3,510.0 803.8,510.0 805.3,510.0 806.8,510.0 808.2,510.0 809.7,510.0 811.2,510.0 812.7,510.0 814.1,510.0 815.6,510.0 817.1,510.0 818.6,510.0 820.1,510.0 821.5,510.0 823.0,510.0 824.5,510.0 826.0,510.0 827.5,510.0 828.9,510.0 830.4,510.0 831.9,510.0 833.4,510.0 834.8,510.0 836.3,510.0 837.8,510.0 839.3,510.0 840.8,510.0 842.2,510.0 843.7,510.0 845.2,510.0 846.7,510.0 848.2,510.0 849.6,510.0" fill="none" stroke="#6670ee" stroke-width="4"/>
<polyline points="110.4,509.7 111.8,508.7 113.3,507.7 114.8,506.7 116.3,505.7 117.8,504.7 119.2,503.7 120.7,502.7 122.2,501.7 123.7,500.7 125.2,499.7 126.6,498.7 128.1,497.7 129.6,496.8 131.1,495.8 132.5,494.8 134.0,493.9 135.5,492.9 137.0,492.0 138.5,491.0 139.9,490.1 141.4,489.1 142.9,488.2 144.4,487.3 145.9,486.3 147.3,485.4 148.8,484.5 150.3,483.6 151.8,482.7 153.2,481.7 154.7,480.8 156.2,479.9 157.7,479.0 159.2,478.2 160.6,477.3 162.1,476.4 163.6,475.5 165.1,474.6 166.6,473.8 168.0,472.9 169.5,472.0 171.0,471.2 172.5,470.3 173.9,469.5 175.4,468.6 176.9,467.8 178.4,466.9 179.9,466.1 181.3,465.3 182.8,464.4 184.3,463.6 185.8,462.8 187.3,462.0 188.7,461.2 190.2,460.4 191.7,459.6 193.2,458.8 194.6,458.0 196.1,457.2 197.6,456.4 199.1,455.6 200.6,454.9 202.0,454.1 203.5,453.3 205.0,452.5 206.5,451.8 208.0,451.0 209.4,450.3 210.9,449.5 212.4,448.8 213.9,448.0 215.3,447.3 216.8,446.6 218.3,445.9 219.8,445.1 221.3,444.4 222.7,443.7 224.2,443.0 225.7,442.3 227.2,441.6 228.7,440.9 230.1,440.2 231.6,439.5 233.1,438.8 234.6,438.1 236.0,437.4 237.5,436.8 239.0,436.1 240.5,435.4 242.0,434.8 243.4,434.1 244.9,433.5 246.4,432.8 247.9,432.2 249.4,431.5 250.8,430.9 252.3,430.2 253.8,429.6 255.3,429.0 256.7,428.4 258.2,427.8 259.7,427.1 261.2,426.5 262.7,425.9 264.1,425.3 265.6,424.7 267.1,424.1 268.6,423.5 270.1,423.0 271.5,422.4 273.0,421.8 274.5,421.2 276.0,420.7 277.4,420.1 278.9,419.5 280.4,419.0 281.9,418.4 283.4,417.9 284.8,417.3 286.3,416.8 287.8,416.3 289.3,415.7 290.7,415.2 292.2,414.7 293.7,414.2 295.2,413.7 296.7,413.2 298.1,412.6 299.6,412.1 301.1,411.6 302.6,411.2 304.1,410.7 305.5,410.2 307.0,409.7 308.5,409.2 310.0,408.7 311.4,408.3 312.9,407.8 314.4,407.3 315.9,406.9 317.4,406.4 318.8,406.0 320.3,405.5 321.8,405.1 323.3,404.7 324.8,404.2 326.2,403.8 327.7,403.4 329.2,403.0 330.7,402.5 332.1,402.1 333.6,401.7 335.1,401.3 336.6,400.9 338.1,400.5 339.5,400.1 341.0,399.7 342.5,399.4 344.0,399.0 345.5,398.6 346.9,398.2 348.4,397.9 349.9,397.5 351.4,397.1 352.8,396.8 354.3,396.4 355.8,396.1 357.3,395.8 358.8,395.4 360.2,395.1 361.7,394.8 363.2,394.4 364.7,394.1 366.2,393.8 367.6,393.5 369.1,393.2 370.6,392.9 372.1,392.6 373.5,392.3 375.0,392.0 376.5,391.7 378.0,391.4 379.5,391.1 380.9,390.8 382.4,390.6 383.9,390.3 385.4,390.0 386.9,389.8 388.3,389.5 389.8,389.3 391.3,389.0 392.8,388.8 394.2,388.5 395.7,388.3 397.2,388.1 398.7,387.8 400.2,387.6 401.6,387.4 403.1,387.2 404.6,387.0 406.1,386.8 407.6,386.6 409.0,386.4 410.5,386.2 412.0,386.0 413.5,385.8 414.9,385.6 416.4,385.4 417.9,385.3 419.4,385.1 420.9,384.9 422.3,384.8 423.8,384.6 425.3,384.4 426.8,384.3 428.3,384.1 429.7,384.0 431.2,383.9 432.7,383.7 434.2,383.6 435.6,383.5 437.1,383.4 438.6,383.2 440.1,383.1 441.6,383.0 443.0,382.9 444.5,382.8 446.0,382.7 447.5,382.6 449.0,382.5 450.4,382.5 451.9,382.4 453.4,382.3 454.9,382.2 456.3,382.2 457.8,382.1 459.3,382.0 460.8,382.0 462.3,381.9 463.7,381.9 465.2,381.8 466.7,381.8 468.2,381.8 469.7,381.7 471.1,381.7 472.6,381.7 474.1,381.7 475.6,381.7 477.0,381.6 478.5,381.6 480.0,381.6 481.5,381.6 483.0,381.6 484.4,381.7 485.9,381.7 487.4,381.7 488.9,381.7 490.3,381.7 491.8,381.8 493.3,381.8 494.8,381.8 496.3,381.9 497.7,381.9 499.2,382.0 500.7,382.0 502.2,382.1 503.7,382.2 505.1,382.2 506.6,382.3 508.1,382.4 509.6,382.5 511.0,382.5 512.5,382.6 514.0,382.7 515.5,382.8 517.0,382.9 518.4,383.0 519.9,383.1 521.4,383.2 522.9,383.4 524.4,383.5 525.8,383.6 527.3,383.7 528.8,383.9 530.3,384.0 531.7,384.1 533.2,384.3 534.7,384.4 536.2,384.6 537.7,384.8 539.1,384.9 540.6,385.1 542.1,385.3 543.6,385.4 545.1,385.6 546.5,385.8 548.0,386.0 549.5,386.2 551.0,386.4 552.4,386.6 553.9,386.8 555.4,387.0 556.9,387.2 558.4,387.4 559.8,387.6 561.3,387.8 562.8,388.1 564.3,388.3 565.8,388.5 567.2,388.8 568.7,389.0 570.2,389.3 571.7,389.5 573.1,389.8 574.6,390.0 576.1,390.3 577.6,390.6 579.1,390.8 580.5,391.1 582.0,391.4 583.5,391.7 585.0,392.0 586.5,392.3 587.9,392.6 589.4,392.9 590.9,393.2 592.4,393.5 593.8,393.8 595.3,394.1 596.8,394.4 598.3,394.8 599.8,395.1 601.2,395.4 602.7,395.8 604.2,396.1 605.7,396.4 607.2,396.8 608.6,397.1 610.1,397.5 611.6,397.9 613.1,398.2 614.5,398.6 616.0,399.0 617.5,399.4 619.0,399.7 620.5,400.1 621.9,400.5 623.4,400.9 624.9,401.3 626.4,401.7 627.9,402.1 629.3,402.5 630.8,403.0 632.3,403.4 633.8,403.8 635.2,404.2 636.7,404.7 638.2,405.1 639.7,405.5 641.2,406.0 642.6,406.4 644.1,406.9 645.6,407.3 647.1,407.8 648.6,408.3 650.0,408.7 651.5,409.2 653.0,409.7 654.5,410.2 655.9,410.7 657.4,411.2 658.9,411.6 660.4,412.1 661.9,412.6 663.3,413.2 664.8,413.7 666.3,414.2 667.8,414.7 669.3,415.2 670.7,415.7 672.2,416.3 673.7,416.8 675.2,417.3 676.6,417.9 678.1,418.4 679.6,419.0 681.1,419.5 682.6,420.1 684.0,420.7 685.5,421.2 687.0,421.8 688.5,422.4 689.9,423.0 691.4,423.5 692.9,424.1 694.4,424.7 695.9,425.3 697.3,425.9 698.8,426.5 700.3,427.1 701.8,427.8 703.3,428.4 704.7,429.0 706.2,429.6 707.7,430.2 709.2,430.9 710.6,431.5 712.1,432.2 713.6,432.8 715.1,433.5 716.6,434.1 718.0,434.8 719.5,435.4 721.0,436.1 722.5,436.8 724.0,437.4 725.4,438.1 726.9,438.8 728.4,439.5 729.9,440.2 731.3,440.9 732.8,441.6 734.3,442.3 735.8,443.0 737.3,443.7 738.7,444.4 740.2,445.1 741.7,445.9 743.2,446.6 744.7,447.3 746.1,448.0 747.6,448.8 749.1,449.5 750.6,450.3 752.0,451.0 753.5,451.8 755.0,452.5 756.5,453.3 758.0,454.1 759.4,454.9 760.9,455.6 762.4,456.4 763.9,457.2 765.4,458.0 766.8,458.8 768.3,459.6 769.8,460.4 771.3,461.2 772.7,462.0 774.2,462.8 775.7,463.6 777.2,464.4 778.7,465.3 780.1,466.1 781.6,466.9 783.1,467.8 784.6,468.6 786.1,469.5 787.5,470.3 789.0,471.2 790.5,472.0 792.0,472.9 793.4,473.8 794.9,474.6 796.4,475.5 797.9,476.4 799.4,477.3 800.8,478.2 802.3,479.0 803.8,479.9 805.3,480.8 806.8,481.7 808.2,482.7 809.7,483.6 811.2,484.5 812.7,485.4 814.1,486.3 815.6,487.3 817.1,488.2 818.6,489.1 820.1,490.1 821.5,491.0 823.0,492.0 824.5,492.9 826.0,493.9 827.5,494.8 828.9,495.8 830.4,496.8 831.9,497.7 833.4,498.7 834.8,499.7 836.3,500.7 837.8,501.7 839.3,502.7 840.8,503.7 842.2,504.7 843.7,505.7 845.2,506.7 846.7,507.7 848.2,508.7 849.6,509.7" fill="none" stroke="#30332e" stroke-width="3" stroke-dasharray="11 9"/>
<line x1="110.0" y1="510.0" x2="110.0" y2="517.0" stroke="#30332e" stroke-width="1.4"/>
<text x="110.0" y="541.0" text-anchor="middle" font-family="-apple-system,BlinkMacSystemFont,PingFang SC,Noto Sans CJK SC,sans-serif" font-size="18" font-weight="400" fill="#30332e">-1.0</text>
<line x1="295.0" y1="510.0" x2="295.0" y2="517.0" stroke="#30332e" stroke-width="1.4"/>
<text x="295.0" y="541.0" text-anchor="middle" font-family="-apple-system,BlinkMacSystemFont,PingFang SC,Noto Sans CJK SC,sans-serif" font-size="18" font-weight="400" fill="#30332e">-0.5</text>
<line x1="480.0" y1="510.0" x2="480.0" y2="517.0" stroke="#30332e" stroke-width="1.4"/>
<text x="480.0" y="541.0" text-anchor="middle" font-family="-apple-system,BlinkMacSystemFont,PingFang SC,Noto Sans CJK SC,sans-serif" font-size="18" font-weight="400" fill="#30332e">0.0</text>
<line x1="665.0" y1="510.0" x2="665.0" y2="517.0" stroke="#30332e" stroke-width="1.4"/>
<text x="665.0" y="541.0" text-anchor="middle" font-family="-apple-system,BlinkMacSystemFont,PingFang SC,Noto Sans CJK SC,sans-serif" font-size="18" font-weight="400" fill="#30332e">0.5</text>
<line x1="850.0" y1="510.0" x2="850.0" y2="517.0" stroke="#30332e" stroke-width="1.4"/>
<text x="850.0" y="541.0" text-anchor="middle" font-family="-apple-system,BlinkMacSystemFont,PingFang SC,Noto Sans CJK SC,sans-serif" font-size="18" font-weight="400" fill="#30332e">1.0</text>
<line x1="103.0" y1="510.0" x2="110.0" y2="510.0" stroke="#30332e" stroke-width="1.4"/>
<text x="95.0" y="516.0" text-anchor="end" font-family="-apple-system,BlinkMacSystemFont,PingFang SC,Noto Sans CJK SC,sans-serif" font-size="18" font-weight="400" fill="#30332e">0.0</text>
<line x1="103.0" y1="424.4" x2="110.0" y2="424.4" stroke="#30332e" stroke-width="1.4"/>
<text x="95.0" y="430.4" text-anchor="end" font-family="-apple-system,BlinkMacSystemFont,PingFang SC,Noto Sans CJK SC,sans-serif" font-size="18" font-weight="400" fill="#30332e">0.5</text>
<line x1="103.0" y1="338.8" x2="110.0" y2="338.8" stroke="#30332e" stroke-width="1.4"/>
<text x="95.0" y="344.8" text-anchor="end" font-family="-apple-system,BlinkMacSystemFont,PingFang SC,Noto Sans CJK SC,sans-serif" font-size="18" font-weight="400" fill="#30332e">1.0</text>
<line x1="103.0" y1="253.3" x2="110.0" y2="253.3" stroke="#30332e" stroke-width="1.4"/>
<text x="95.0" y="259.3" text-anchor="end" font-family="-apple-system,BlinkMacSystemFont,PingFang SC,Noto Sans CJK SC,sans-serif" font-size="18" font-weight="400" fill="#30332e">1.5</text>
<line x1="103.0" y1="167.7" x2="110.0" y2="167.7" stroke="#30332e" stroke-width="1.4"/>
<text x="95.0" y="173.7" text-anchor="end" font-family="-apple-system,BlinkMacSystemFont,PingFang SC,Noto Sans CJK SC,sans-serif" font-size="18" font-weight="400" fill="#30332e">2.0</text>
<line x1="103.0" y1="82.1" x2="110.0" y2="82.1" stroke="#30332e" stroke-width="1.4"/>
<text x="95.0" y="88.1" text-anchor="end" font-family="-apple-system,BlinkMacSystemFont,PingFang SC,Noto Sans CJK SC,sans-serif" font-size="18" font-weight="400" fill="#30332e">2.5</text>
<text x="275.0" y="170.0" text-anchor="start" font-family="-apple-system,BlinkMacSystemFont,PingFang SC,Noto Sans CJK SC,sans-serif" font-size="20" font-weight="700" fill="#6670ee">后验</text>
<text x="610.0" y="345.0" text-anchor="start" font-family="-apple-system,BlinkMacSystemFont,PingFang SC,Noto Sans CJK SC,sans-serif" font-size="20" font-weight="700" fill="#30332e">先验</text>
<text x="480.0" y="585.0" text-anchor="middle" font-family="-apple-system,BlinkMacSystemFont,PingFang SC,Noto Sans CJK SC,sans-serif" font-size="21" font-weight="600" fill="#30332e">相关系数</text>
<text x="32.0" y="287.5" text-anchor="middle" font-family="-apple-system,BlinkMacSystemFont,PingFang SC,Noto Sans CJK SC,sans-serif" font-size="21" font-weight="600" fill="#30332e" transform="rotate(-90 32 287.5)">概率密度</text>
</svg>