<svg xmlns="http://www.w3.org/2000/svg" width="1200" height="650" viewBox="0 0 1200 650">
<title>图 14.12：大洋洲社会的后验相关</title>
<desc>左图在地理空间中显示社会间后验相关，右图把同一相关叠加到工具总数与人口对数的关系上。</desc>
<rect width="1200" height="650" fill="#fff"/>
<defs><clipPath id="oceania-map-clip"><rect x="75" y="60" width="485" height="470"/></clipPath><clipPath id="oceania-tools-clip"><rect x="700" y="60" width="480" height="470"/></clipPath></defs>
<rect x="75.0" y="60.0" width="485.0" height="470.0" fill="#fff" stroke="#30332e" stroke-width="1.5"/>
<rect x="700.0" y="60.0" width="480.0" height="470.0" fill="#fff" stroke="#30332e" stroke-width="1.5"/>
<g clip-path="url(#oceania-map-clip)">
<line x1="250.8" y1="433.9" x2="305.4" y2="455.2" stroke="#30332e" stroke-width="3" opacity="0.624"/>
<line x1="250.8" y1="433.9" x2="287.2" y2="412.5" stroke="#30332e" stroke-width="3" opacity="0.490"/>
<line x1="250.8" y1="433.9" x2="369.0" y2="487.3" stroke="#30332e" stroke-width="3" opacity="0.096"/>
<line x1="250.8" y1="433.9" x2="208.4" y2="391.1" stroke="#30332e" stroke-width="3" opacity="0.003"/>
<line x1="250.8" y1="433.9" x2="408.4" y2="519.3" stroke="#30332e" stroke-width="3" opacity="0.006"/>
<line x1="305.4" y1="455.2" x2="287.2" y2="412.5" stroke="#30332e" stroke-width="3" opacity="0.757"/>
<line x1="305.4" y1="455.2" x2="369.0" y2="487.3" stroke="#30332e" stroke-width="3" opacity="0.096"/>
<line x1="305.4" y1="455.2" x2="208.4" y2="391.1" stroke="#30332e" stroke-width="3" opacity="0.003"/>
<line x1="305.4" y1="455.2" x2="408.4" y2="519.3" stroke="#30332e" stroke-width="3" opacity="0.004"/>
<line x1="287.2" y1="412.5" x2="369.0" y2="487.3" stroke="#30332e" stroke-width="3" opacity="0.029"/>
<line x1="287.2" y1="412.5" x2="208.4" y2="391.1" stroke="#30332e" stroke-width="3" opacity="0.012"/>
<line x1="123.5" y1="198.9" x2="208.4" y2="220.2" stroke="#30332e" stroke-width="3" opacity="0.026"/>
<line x1="123.5" y1="198.9" x2="184.1" y2="327.0" stroke="#30332e" stroke-width="3" opacity="0.020"/>
<line x1="369.0" y1="487.3" x2="408.4" y2="519.3" stroke="#30332e" stroke-width="3" opacity="0.372"/>
<line x1="208.4" y1="391.1" x2="208.4" y2="220.2" stroke="#30332e" stroke-width="3" opacity="0.008"/>
<line x1="208.4" y1="391.1" x2="184.1" y2="327.0" stroke="#30332e" stroke-width="3" opacity="0.314"/>
<line x1="208.4" y1="220.2" x2="184.1" y2="327.0" stroke="#30332e" stroke-width="3" opacity="0.102"/>
</g>
<g clip-path="url(#oceania-tools-clip)">
<line x1="728.0" y1="507.3" x2="760.0" y2="431.5" stroke="#30332e" stroke-width="3" opacity="0.624"/>
<line x1="728.0" y1="507.3" x2="856.0" y2="423.9" stroke="#30332e" stroke-width="3" opacity="0.490"/>
<line x1="728.0" y1="507.3" x2="848.0" y2="355.6" stroke="#30332e" stroke-width="3" opacity="0.096"/>
<line x1="728.0" y1="507.3" x2="836.0" y2="469.4" stroke="#30332e" stroke-width="3" opacity="0.003"/>
<line x1="728.0" y1="507.3" x2="904.0" y2="188.9" stroke="#30332e" stroke-width="3" opacity="0.006"/>
<line x1="760.0" y1="431.5" x2="856.0" y2="423.9" stroke="#30332e" stroke-width="3" opacity="0.757"/>
<line x1="760.0" y1="431.5" x2="848.0" y2="355.6" stroke="#30332e" stroke-width="3" opacity="0.096"/>
<line x1="760.0" y1="431.5" x2="836.0" y2="469.4" stroke="#30332e" stroke-width="3" opacity="0.003"/>
<line x1="760.0" y1="431.5" x2="904.0" y2="188.9" stroke="#30332e" stroke-width="3" opacity="0.004"/>
<line x1="856.0" y1="423.9" x2="848.0" y2="355.6" stroke="#30332e" stroke-width="3" opacity="0.029"/>
<line x1="856.0" y1="423.9" x2="836.0" y2="469.4" stroke="#30332e" stroke-width="3" opacity="0.012"/>
<line x1="816.0" y1="279.8" x2="876.0" y2="302.6" stroke="#30332e" stroke-width="3" opacity="0.026"/>
<line x1="816.0" y1="279.8" x2="912.0" y2="393.5" stroke="#30332e" stroke-width="3" opacity="0.020"/>
<line x1="848.0" y1="355.6" x2="904.0" y2="188.9" stroke="#30332e" stroke-width="3" opacity="0.372"/>
<line x1="836.0" y1="469.4" x2="876.0" y2="302.6" stroke="#30332e" stroke-width="3" opacity="0.008"/>
<line x1="836.0" y1="469.4" x2="912.0" y2="393.5" stroke="#30332e" stroke-width="3" opacity="0.314"/>
<line x1="876.0" y1="302.6" x2="912.0" y2="393.5" stroke="#30332e" stroke-width="3" opacity="0.102"/>
</g>
<polyline points="700.0,530.0 704.0,529.0 708.0,528.1 712.0,527.1 716.0,526.1 720.0,525.1 724.0,524.1 728.0,523.1 732.0,522.0 736.0,521.0 740.0,519.9 744.0,518.8 748.0,517.7 752.0,516.6 756.0,515.5 760.0,514.4 764.0,513.2 768.0,512.1 772.0,510.9 776.0,509.7 780.0,508.5 784.0,507.2 788.0,506.0 792.0,504.7 796.0,503.5 800.0,502.2 804.0,500.9 808.0,499.6 812.0,498.2 816.0,496.9 820.0,495.5 824.0,494.1 828.0,492.7 832.0,491.3 836.0,489.9 840.0,488.4 844.0,486.9 848.0,485.4 852.0,483.9 856.0,482.4 860.0,480.8 864.0,479.3 868.0,477.7 872.0,476.0 876.0,474.4 880.0,472.8 884.0,471.1 888.0,469.4 892.0,467.7 896.0,465.9 900.0,464.2 904.0,462.4 908.0,460.6 912.0,458.8 916.0,456.9 920.0,455.0 924.0,453.2 928.0,451.2 932.0,449.3 936.0,447.3 940.0,445.3 944.0,443.3 948.0,441.3 952.0,439.2 956.0,437.1 960.0,435.0 964.0,432.8 968.0,430.6 972.0,428.4 976.0,426.2 980.0,424.0 984.0,421.7 988.0,419.4 992.0,417.0 996.0,414.6 1000.0,412.2 1004.0,409.8 1008.0,407.3 1012.0,404.8 1016.0,402.3 1020.0,399.7 1024.0,397.2 1028.0,394.5 1032.0,391.9 1036.0,389.2 1040.0,386.5 1044.0,383.7 1048.0,380.9 1052.0,378.1 1056.0,375.2 1060.0,372.3 1064.0,369.4 1068.0,366.4 1072.0,363.4 1076.0,360.3 1080.0,357.2 1084.0,354.1 1088.0,351.0 1092.0,347.7 1096.0,344.5 1100.0,341.2 1104.0,337.9 1108.0,334.5 1112.0,331.1 1116.0,327.7 1120.0,324.2 1124.0,320.6 1128.0,317.0 1132.0,313.4 1136.0,309.7 1140.0,306.0 1144.0,302.2 1148.0,298.4 1152.0,294.5 1156.0,290.6 1160.0,286.6 1164.0,282.6 1168.0,278.6 1172.0,274.5 1176.0,270.3 1180.0,266.1" clip-path="url(#oceania-tools-clip)" fill="none" stroke="#30332e" stroke-width="2" stroke-dasharray="10 8"/>
<polyline points="700.0,514.8 704.0,513.2 708.0,511.6 712.0,509.9 716.0,508.2 720.0,506.5 724.0,504.8 728.0,503.0 732.0,501.2 736.0,499.3 740.0,497.4 744.0,495.5 748.0,493.6 752.0,491.6 756.0,489.6 760.0,487.5 764.0,485.4 768.0,483.3 772.0,481.2 776.0,479.0 780.0,476.7 784.0,474.4 788.0,472.1 792.0,469.8 796.0,467.4 800.0,464.9 804.0,462.4 808.0,459.9 812.0,457.3 816.0,454.7 820.0,452.0 824.0,449.3 828.0,446.6 832.0,443.7 836.0,440.9 840.0,438.0 844.0,435.0 848.0,432.0 852.0,428.9 856.0,425.8 860.0,422.6 864.0,419.4 868.0,416.1 872.0,412.7 876.0,409.3 880.0,405.9 884.0,402.3 888.0,398.7 892.0,395.1 896.0,391.4 900.0,387.6 904.0,383.7 908.0,379.8 912.0,375.8 916.0,371.8 920.0,367.6 924.0,363.4 928.0,359.1 932.0,354.8 936.0,350.4 940.0,345.9 944.0,341.3 948.0,336.6 952.0,331.8 956.0,327.0 960.0,322.1 964.0,317.1 968.0,312.0 972.0,306.8 976.0,301.5 980.0,296.1 984.0,290.7 988.0,285.1 992.0,279.4 996.0,273.7 1000.0,267.8 1004.0,261.9 1008.0,255.8 1012.0,249.6 1016.0,243.3 1020.0,236.9 1024.0,230.4 1028.0,223.8 1032.0,217.0 1036.0,210.2 1040.0,203.2 1044.0,196.1 1048.0,188.8 1052.0,181.5 1056.0,174.0 1060.0,166.4 1064.0,158.6 1068.0,150.7 1072.0,142.7 1076.0,134.5 1080.0,126.2 1084.0,117.7 1088.0,109.1 1092.0,100.3 1096.0,91.4 1100.0,82.3 1104.0,73.1 1108.0,63.7 1112.0,54.1 1116.0,44.4 1120.0,34.5 1124.0,24.4 1128.0,14.1 1132.0,3.7 1136.0,-7.0 1140.0,-17.8 1144.0,-28.8 1148.0,-40.0 1152.0,-51.4 1156.0,-63.0 1160.0,-74.8 1164.0,-86.8 1168.0,-99.1 1172.0,-111.5 1176.0,-124.2 1180.0,-137.1" clip-path="url(#oceania-tools-clip)" fill="none" stroke="#30332e" stroke-width="2" stroke-dasharray="10 8"/>
<polyline points="700.0,461.8 704.0,459.6 708.0,457.4 712.0,455.1 716.0,452.9 720.0,450.6 724.0,448.2 728.0,445.8 732.0,443.4 736.0,441.0 740.0,438.5 744.0,435.9 748.0,433.4 752.0,430.8 756.0,428.1 760.0,425.4 764.0,422.7 768.0,419.9 772.0,417.1 776.0,414.3 780.0,411.4 784.0,408.4 788.0,405.5 792.0,402.4 796.0,399.4 800.0,396.2 804.0,393.1 808.0,389.9 812.0,386.6 816.0,383.3 820.0,379.9 824.0,376.5 828.0,373.0 832.0,369.5 836.0,366.0 840.0,362.3 844.0,358.6 848.0,354.9 852.0,351.1 856.0,347.3 860.0,343.4 864.0,339.4 868.0,335.4 872.0,331.3 876.0,327.1 880.0,322.9 884.0,318.6 888.0,314.3 892.0,309.9 896.0,305.4 900.0,300.9 904.0,296.3 908.0,291.6 912.0,286.9 916.0,282.0 920.0,277.1 924.0,272.2 928.0,267.1 932.0,262.0 936.0,256.8 940.0,251.5 944.0,246.2 948.0,240.8 952.0,235.2 956.0,229.6 960.0,224.0 964.0,218.2 968.0,212.3 972.0,206.4 976.0,200.3 980.0,194.2 984.0,188.0 988.0,181.7 992.0,175.3 996.0,168.8 1000.0,162.2 1004.0,155.5 1008.0,148.6 1012.0,141.7 1016.0,134.7 1020.0,127.6 1024.0,120.4 1028.0,113.0 1032.0,105.6 1036.0,98.0 1040.0,90.4 1044.0,82.6 1048.0,74.7 1052.0,66.6 1056.0,58.5 1060.0,50.2 1064.0,41.8 1068.0,33.3 1072.0,24.6 1076.0,15.9 1080.0,6.9 1084.0,-2.1 1088.0,-11.3 1092.0,-20.6 1096.0,-30.1 1100.0,-39.7 1104.0,-49.5 1108.0,-59.4 1112.0,-69.4 1116.0,-79.6 1120.0,-90.0 1124.0,-100.5 1128.0,-111.2 1132.0,-122.0 1136.0,-133.0 1140.0,-144.2 1144.0,-155.5 1148.0,-167.0 1152.0,-178.7 1156.0,-190.5 1160.0,-202.6 1164.0,-214.8 1168.0,-227.2 1172.0,-239.8 1176.0,-252.6 1180.0,-265.5" clip-path="url(#oceania-tools-clip)" fill="none" stroke="#30332e" stroke-width="2" stroke-dasharray="10 8"/>
<circle cx="250.8" cy="433.9" r="4.9" fill="#6670ee" opacity="0.88"/>
<text x="242.8" y="455.9" text-anchor="end" font-family="-apple-system,BlinkMacSystemFont,PingFang SC,Noto Sans CJK SC,sans-serif" font-size="15" font-weight="400" fill="#30332e">Malekula</text>
<circle cx="305.4" cy="455.2" r="5.4" fill="#6670ee" opacity="0.88"/>
<text x="313.4" y="445.2" text-anchor="start" font-family="-apple-system,BlinkMacSystemFont,PingFang SC,Noto Sans CJK SC,sans-serif" font-size="15" font-weight="400" fill="#30332e">Tikopia</text>
<circle cx="287.2" cy="412.5" r="6.9" fill="#6670ee" opacity="0.88"/>
<text x="295.2" y="404.5" text-anchor="start" font-family="-apple-system,BlinkMacSystemFont,PingFang SC,Noto Sans CJK SC,sans-serif" font-size="15" font-weight="400" fill="#30332e">Santa Cruz</text>
<circle cx="123.5" cy="198.9" r="6.3" fill="#6670ee" opacity="0.88"/>
<text x="123.5" y="182.9" text-anchor="start" font-family="-apple-system,BlinkMacSystemFont,PingFang SC,Noto Sans CJK SC,sans-serif" font-size="15" font-weight="400" fill="#30332e">Yap</text>
<circle cx="369.0" cy="487.3" r="6.8" fill="#6670ee" opacity="0.88"/>
<text x="377.0" y="479.3" text-anchor="start" font-family="-apple-system,BlinkMacSystemFont,PingFang SC,Noto Sans CJK SC,sans-serif" font-size="15" font-weight="400" fill="#30332e">Lau Fiji</text>
<circle cx="208.4" cy="391.1" r="6.6" fill="#6670ee" opacity="0.88"/>
<text x="200.4" y="413.1" text-anchor="end" font-family="-apple-system,BlinkMacSystemFont,PingFang SC,Noto Sans CJK SC,sans-serif" font-size="15" font-weight="400" fill="#30332e">Trobriand</text>
<circle cx="208.4" cy="220.2" r="7.2" fill="#6670ee" opacity="0.88"/>
<text x="216.4" y="208.2" text-anchor="start" font-family="-apple-system,BlinkMacSystemFont,PingFang SC,Noto Sans CJK SC,sans-serif" font-size="15" font-weight="400" fill="#30332e">Chuuk</text>
<circle cx="184.1" cy="327.0" r="7.8" fill="#6670ee" opacity="0.88"/>
<text x="176.1" y="333.0" text-anchor="end" font-family="-apple-system,BlinkMacSystemFont,PingFang SC,Noto Sans CJK SC,sans-serif" font-size="15" font-weight="400" fill="#30332e">Manus</text>
<circle cx="408.4" cy="519.3" r="7.7" fill="#6670ee" opacity="0.88"/>
<text x="416.4" y="525.3" text-anchor="start" font-family="-apple-system,BlinkMacSystemFont,PingFang SC,Noto Sans CJK SC,sans-serif" font-size="15" font-weight="400" fill="#30332e">Tonga</text>
<circle cx="523.6" cy="81.4" r="11.3" fill="#6670ee" opacity="0.88"/>
<text x="515.6" y="89.4" text-anchor="end" font-family="-apple-system,BlinkMacSystemFont,PingFang SC,Noto Sans CJK SC,sans-serif" font-size="15" font-weight="400" fill="#30332e">Hawaii</text>
<circle cx="728.0" cy="507.3" r="4.9" fill="#6670ee" opacity="0.88"/>
<text x="736.0" y="522.3" text-anchor="start" font-family="-apple-system,BlinkMacSystemFont,PingFang SC,Noto Sans CJK SC,sans-serif" font-size="15" font-weight="400" fill="#30332e">Malekula</text>
<circle cx="760.0" cy="431.5" r="5.4" fill="#6670ee" opacity="0.88"/>
<text x="752.0" y="417.5" text-anchor="end" font-family="-apple-system,BlinkMacSystemFont,PingFang SC,Noto Sans CJK SC,sans-serif" font-size="15" font-weight="400" fill="#30332e">Tikopia</text>
<circle cx="856.0" cy="423.9" r="6.9" fill="#6670ee" opacity="0.88"/>
<text x="864.0" y="429.9" text-anchor="start" font-family="-apple-system,BlinkMacSystemFont,PingFang SC,Noto Sans CJK SC,sans-serif" font-size="15" font-weight="400" fill="#30332e">Santa Cruz</text>
<circle cx="816.0" cy="279.8" r="6.3" fill="#6670ee" opacity="0.88"/>
<text x="808.0" y="267.8" text-anchor="end" font-family="-apple-system,BlinkMacSystemFont,PingFang SC,Noto Sans CJK SC,sans-serif" font-size="15" font-weight="400" fill="#30332e">Yap</text>
<circle cx="848.0" cy="355.6" r="6.8" fill="#6670ee" opacity="0.88"/>
<text x="840.0" y="343.6" text-anchor="end" font-family="-apple-system,BlinkMacSystemFont,PingFang SC,Noto Sans CJK SC,sans-serif" font-size="15" font-weight="400" fill="#30332e">Lau Fiji</text>
<circle cx="836.0" cy="469.4" r="6.6" fill="#6670ee" opacity="0.88"/>
<text x="844.0" y="487.4" text-anchor="start" font-family="-apple-system,BlinkMacSystemFont,PingFang SC,Noto Sans CJK SC,sans-serif" font-size="15" font-weight="400" fill="#30332e">Trobriand</text>
<circle cx="876.0" cy="302.6" r="7.2" fill="#6670ee" opacity="0.88"/>
<text x="884.0" y="292.6" text-anchor="start" font-family="-apple-system,BlinkMacSystemFont,PingFang SC,Noto Sans CJK SC,sans-serif" font-size="15" font-weight="400" fill="#30332e">Chuuk</text>
<circle cx="912.0" cy="393.5" r="7.8" fill="#6670ee" opacity="0.88"/>
<text x="920.0" y="408.5" text-anchor="start" font-family="-apple-system,BlinkMacSystemFont,PingFang SC,Noto Sans CJK SC,sans-serif" font-size="15" font-weight="400" fill="#30332e">Manus</text>
<circle cx="904.0" cy="188.9" r="7.7" fill="#6670ee" opacity="0.88"/>
<text x="912.0" y="180.9" text-anchor="start" font-family="-apple-system,BlinkMacSystemFont,PingFang SC,Noto Sans CJK SC,sans-serif" font-size="15" font-weight="400" fill="#30332e">Tonga</text>
<circle cx="1136.0" cy="75.2" r="11.3" fill="#6670ee" opacity="0.88"/>
<text x="1128.0" y="83.2" text-anchor="end" font-family="-apple-system,BlinkMacSystemFont,PingFang SC,Noto Sans CJK SC,sans-serif" font-size="15" font-weight="400" fill="#30332e">Hawaii</text>
<line x1="135.6" y1="530" x2="135.6" y2="536" stroke="#30332e"/>
<text x="135.6" y="557.0" text-anchor="middle" font-family="-apple-system,BlinkMacSystemFont,PingFang SC,Noto Sans CJK SC,sans-serif" font-size="15" font-weight="400" fill="#30332e">-40</text>
<line x1="256.9" y1="530" x2="256.9" y2="536" stroke="#30332e"/>
<text x="256.9" y="557.0" text-anchor="middle" font-family="-apple-system,BlinkMacSystemFont,PingFang SC,Noto Sans CJK SC,sans-serif" font-size="15" font-weight="400" fill="#30332e">-20</text>
<line x1="378.1" y1="530" x2="378.1" y2="536" stroke="#30332e"/>
<text x="378.1" y="557.0" text-anchor="middle" font-family="-apple-system,BlinkMacSystemFont,PingFang SC,Noto Sans CJK SC,sans-serif" font-size="15" font-weight="400" fill="#30332e">0</text>
<line x1="499.4" y1="530" x2="499.4" y2="536" stroke="#30332e"/>
<text x="499.4" y="557.0" text-anchor="middle" font-family="-apple-system,BlinkMacSystemFont,PingFang SC,Noto Sans CJK SC,sans-serif" font-size="15" font-weight="400" fill="#30332e">20</text>
<line x1="69" y1="508.6" x2="75" y2="508.6" stroke="#30332e"/>
<text x="63.0" y="513.6" text-anchor="end" font-family="-apple-system,BlinkMacSystemFont,PingFang SC,Noto Sans CJK SC,sans-serif" font-size="15" font-weight="400" fill="#30332e">-20</text>
<line x1="69" y1="401.8" x2="75" y2="401.8" stroke="#30332e"/>
<text x="63.0" y="406.8" text-anchor="end" font-family="-apple-system,BlinkMacSystemFont,PingFang SC,Noto Sans CJK SC,sans-serif" font-size="15" font-weight="400" fill="#30332e">-10</text>
<line x1="69" y1="295.0" x2="75" y2="295.0" stroke="#30332e"/>
<text x="63.0" y="300.0" text-anchor="end" font-family="-apple-system,BlinkMacSystemFont,PingFang SC,Noto Sans CJK SC,sans-serif" font-size="15" font-weight="400" fill="#30332e">0</text>
<line x1="69" y1="188.2" x2="75" y2="188.2" stroke="#30332e"/>
<text x="63.0" y="193.2" text-anchor="end" font-family="-apple-system,BlinkMacSystemFont,PingFang SC,Noto Sans CJK SC,sans-serif" font-size="15" font-weight="400" fill="#30332e">10</text>
<line x1="69" y1="81.4" x2="75" y2="81.4" stroke="#30332e"/>
<text x="63.0" y="86.4" text-anchor="end" font-family="-apple-system,BlinkMacSystemFont,PingFang SC,Noto Sans CJK SC,sans-serif" font-size="15" font-weight="400" fill="#30332e">20</text>
<line x1="700.0" y1="530" x2="700.0" y2="536" stroke="#30332e"/>
<text x="700.0" y="557.0" text-anchor="middle" font-family="-apple-system,BlinkMacSystemFont,PingFang SC,Noto Sans CJK SC,sans-serif" font-size="15" font-weight="400" fill="#30332e">7</text>
<line x1="780.0" y1="530" x2="780.0" y2="536" stroke="#30332e"/>
<text x="780.0" y="557.0" text-anchor="middle" font-family="-apple-system,BlinkMacSystemFont,PingFang SC,Noto Sans CJK SC,sans-serif" font-size="15" font-weight="400" fill="#30332e">8</text>
<line x1="860.0" y1="530" x2="860.0" y2="536" stroke="#30332e"/>
<text x="860.0" y="557.0" text-anchor="middle" font-family="-apple-system,BlinkMacSystemFont,PingFang SC,Noto Sans CJK SC,sans-serif" font-size="15" font-weight="400" fill="#30332e">9</text>
<line x1="940.0" y1="530" x2="940.0" y2="536" stroke="#30332e"/>
<text x="940.0" y="557.0" text-anchor="middle" font-family="-apple-system,BlinkMacSystemFont,PingFang SC,Noto Sans CJK SC,sans-serif" font-size="15" font-weight="400" fill="#30332e">10</text>
<line x1="1020.0" y1="530" x2="1020.0" y2="536" stroke="#30332e"/>
<text x="1020.0" y="557.0" text-anchor="middle" font-family="-apple-system,BlinkMacSystemFont,PingFang SC,Noto Sans CJK SC,sans-serif" font-size="15" font-weight="400" fill="#30332e">11</text>
<line x1="1100.0" y1="530" x2="1100.0" y2="536" stroke="#30332e"/>
<text x="1100.0" y="557.0" text-anchor="middle" font-family="-apple-system,BlinkMacSystemFont,PingFang SC,Noto Sans CJK SC,sans-serif" font-size="15" font-weight="400" fill="#30332e">12</text>
<line x1="1180.0" y1="530" x2="1180.0" y2="536" stroke="#30332e"/>
<text x="1180.0" y="557.0" text-anchor="middle" font-family="-apple-system,BlinkMacSystemFont,PingFang SC,Noto Sans CJK SC,sans-serif" font-size="15" font-weight="400" fill="#30332e">13</text>
<line x1="694" y1="530.0" x2="700" y2="530.0" stroke="#30332e"/>
<text x="688.0" y="535.0" text-anchor="end" font-family="-apple-system,BlinkMacSystemFont,PingFang SC,Noto Sans CJK SC,sans-serif" font-size="15" font-weight="400" fill="#30332e">10</text>
<line x1="694" y1="454.2" x2="700" y2="454.2" stroke="#30332e"/>
<text x="688.0" y="459.2" text-anchor="end" font-family="-apple-system,BlinkMacSystemFont,PingFang SC,Noto Sans CJK SC,sans-serif" font-size="15" font-weight="400" fill="#30332e">20</text>
<line x1="694" y1="378.4" x2="700" y2="378.4" stroke="#30332e"/>
<text x="688.0" y="383.4" text-anchor="end" font-family="-apple-system,BlinkMacSystemFont,PingFang SC,Noto Sans CJK SC,sans-serif" font-size="15" font-weight="400" fill="#30332e">30</text>
<line x1="694" y1="302.6" x2="700" y2="302.6" stroke="#30332e"/>
<text x="688.0" y="307.6" text-anchor="end" font-family="-apple-system,BlinkMacSystemFont,PingFang SC,Noto Sans CJK SC,sans-serif" font-size="15" font-weight="400" fill="#30332e">40</text>
<line x1="694" y1="226.8" x2="700" y2="226.8" stroke="#30332e"/>
<text x="688.0" y="231.8" text-anchor="end" font-family="-apple-system,BlinkMacSystemFont,PingFang SC,Noto Sans CJK SC,sans-serif" font-size="15" font-weight="400" fill="#30332e">50</text>
<line x1="694" y1="151.0" x2="700" y2="151.0" stroke="#30332e"/>
<text x="688.0" y="156.0" text-anchor="end" font-family="-apple-system,BlinkMacSystemFont,PingFang SC,Noto Sans CJK SC,sans-serif" font-size="15" font-weight="400" fill="#30332e">60</text>
<line x1="694" y1="75.2" x2="700" y2="75.2" stroke="#30332e"/>
<text x="688.0" y="80.2" text-anchor="end" font-family="-apple-system,BlinkMacSystemFont,PingFang SC,Noto Sans CJK SC,sans-serif" font-size="15" font-weight="400" fill="#30332e">70</text>
<text x="317.5" y="610.0" text-anchor="middle" font-family="-apple-system,BlinkMacSystemFont,PingFang SC,Noto Sans CJK SC,sans-serif" font-size="19" font-weight="600" fill="#30332e">经度</text>
<text x="28.0" y="295.0" text-anchor="middle" font-family="-apple-system,BlinkMacSystemFont,PingFang SC,Noto Sans CJK SC,sans-serif" font-size="19" font-weight="600" fill="#30332e" transform="rotate(-90 28 295)">纬度</text>
<text x="940.0" y="610.0" text-anchor="middle" font-family="-apple-system,BlinkMacSystemFont,PingFang SC,Noto Sans CJK SC,sans-serif" font-size="19" font-weight="600" fill="#30332e">人口对数</text>
<text x="650.0" y="295.0" text-anchor="middle" font-family="-apple-system,BlinkMacSystemFont,PingFang SC,Noto Sans CJK SC,sans-serif" font-size="19" font-weight="600" fill="#30332e" transform="rotate(-90 650 295)">工具总数</text>
</svg>