<?xml version="1.0" encoding="UTF-8"?><svg xmlns="http://www.w3.org/2000/svg" width="900" height="550" viewBox="0 0 900 550" role="img" aria-labelledby="title desc"><title id="title">Lotka–Volterra 雪兔—猞猁种群模拟</title><desc id="desc">黑色雪兔曲线先达到峰值，蓝色猞猁曲线随后达到峰值；捕食者与猎物种群形成反复循环。</desc><rect width="100%" height="100%" fill="#fff"/><style>.axis{font:16px -apple-system, BlinkMacSystemFont, "PingFang SC", sans-serif;fill:#30332e}.label{font:20px -apple-system, BlinkMacSystemFont, "PingFang SC", sans-serif;fill:#30332e}.title{font:700 23px -apple-system, BlinkMacSystemFont, "PingFang SC", sans-serif;fill:#263f86}.panel{fill:#fff;stroke:#3c403b;stroke-width:1.4}.hare{fill:none;stroke:#202420;stroke-width:3}.lynx{fill:none;stroke:#6874ef;stroke-width:3}</style><text class="title" x="450" y="31" text-anchor="middle">Lotka–Volterra 捕食者—猎物循环</text><rect class="panel" x="95" y="60" width="740" height="390"/><path class="hare" d="M95,195.65 L95.37,194.89 L95.74,194.12 L96.11,193.36 L96.48,192.59 L96.85,191.83 L97.22,191.06 L97.59,190.29 L97.96,189.52 L98.33,188.75 L98.7,187.98 L99.07,187.2 L99.44,186.43 L99.81,185.66 L100.18,184.88 L100.55,184.1 L100.92,183.33 L101.29,182.55 L101.66,181.77 L102.03,181 L102.4,180.22 L102.77,179.44 L103.14,178.66 L103.51,177.88 L103.88,177.1 L104.25,176.31 L104.62,175.53 L104.99,174.75 L105.36,173.97 L105.73,173.19 L106.1,172.4 L106.47,171.62 L106.84,170.83 L107.21,170.05 L107.58,169.27 L107.95,168.48 L108.32,167.7 L108.69,166.91 L109.06,166.13 L109.43,165.34 L109.8,164.56 L110.17,163.77 L110.54,162.99 L110.91,162.2 L111.28,161.42 L111.65,160.64 L112.02,159.85 L112.39,159.07 L112.76,158.28 L113.13,157.5 L113.5,156.72 L113.87,155.94 L114.24,155.15 L114.61,154.37 L114.98,153.59 L115.35,152.81 L115.72,152.03 L116.09,151.25 L116.46,150.47 L116.83,149.7 L117.2,148.92 L117.57,148.14 L117.94,147.37 L118.31,146.59 L118.68,145.82 L119.05,145.05 L119.42,144.28 L119.79,143.51 L120.16,142.74 L120.53,141.97 L120.9,141.2 L121.27,140.44 L121.64,139.67 L122.01,138.91 L122.38,138.15 L122.75,137.39 L123.12,136.63 L123.49,135.87 L123.86,135.12 L124.23,134.36 L124.6,133.61 L124.97,132.86 L125.34,132.12 L125.71,131.37 L126.08,130.63 L126.45,129.88 L126.82,129.14 L127.19,128.41 L127.56,127.67 L127.93,126.94 L128.3,126.21 L128.67,125.48 L129.04,124.75 L129.41,124.03 L129.78,123.31 L130.15,122.59 L130.52,121.87 L130.89,121.16 L131.26,120.45 L131.63,119.74 L132,119.04 L132.37,118.34 L132.74,117.64 L133.11,116.94 L133.48,116.25 L133.85,115.56 L134.22,114.88 L134.59,114.2 L134.96,113.52 L135.33,112.85 L135.7,112.17 L136.07,111.51 L136.44,110.84 L136.81,110.19 L137.18,109.53 L137.55,108.88 L137.92,108.23 L138.29,107.59 L138.66,106.95 L139.03,106.31 L139.4,105.68 L139.77,105.06 L140.14,104.44 L140.51,103.82 L140.88,103.21 L141.25,102.6 L141.62,102 L141.99,101.4 L142.36,100.81 L142.73,100.22 L143.1,99.64 L143.47,99.07 L143.84,98.49 L144.21,97.93 L144.58,97.37 L144.95,96.81 L145.33,96.27 L145.7,95.72 L146.07,95.19 L146.44,94.65 L146.81,94.13 L147.18,93.61 L147.55,93.1 L147.92,92.59 L148.29,92.09 L148.66,91.6 L149.03,91.11 L149.4,90.63 L149.77,90.16 L150.14,89.69 L150.51,89.23 L150.88,88.78 L151.25,88.33 L151.62,87.89 L151.99,87.46 L152.36,87.04 L152.73,86.62 L153.1,86.21 L153.47,85.81 L153.84,85.42 L154.21,85.03 L154.58,84.65 L154.95,84.28 L155.32,83.92 L155.69,83.57 L156.06,83.22 L156.43,82.88 L156.8,82.56 L157.17,82.24 L157.54,81.92 L157.91,81.62 L158.28,81.33 L158.65,81.04 L159.02,80.77 L159.39,80.5 L159.76,80.24 L160.13,79.99 L160.5,79.75 L160.87,79.52 L161.24,79.3 L161.61,79.09 L161.98,78.89 L162.35,78.7 L162.72,78.52 L163.09,78.35 L163.46,78.19 L163.83,78.03 L164.2,77.89 L164.57,77.76 L164.94,77.64 L165.31,77.53 L165.68,77.43 L166.05,77.34 L166.42,77.26 L166.79,77.19 L167.16,77.14 L167.53,77.09 L167.9,77.05 L168.27,77.03 L168.64,77.02 L169.01,77.01 L169.38,77.02 L169.75,77.04 L170.12,77.07 L170.49,77.12 L170.86,77.17 L171.23,77.24 L171.6,77.31 L171.97,77.4 L172.34,77.5 L172.71,77.62 L173.08,77.74 L173.45,77.88 L173.82,78.03 L174.19,78.19 L174.56,78.36 L174.93,78.54 L175.3,78.74 L175.67,78.95 L176.04,79.17 L176.41,79.4 L176.78,79.64 L177.15,79.9 L177.52,80.17 L177.89,80.45 L178.26,80.75 L178.63,81.05 L179,81.37 L179.37,81.7 L179.74,82.05 L180.11,82.4 L180.48,82.77 L180.85,83.15 L181.22,83.55 L181.59,83.95 L181.96,84.37 L182.33,84.8 L182.7,85.25 L183.07,85.7 L183.44,86.17 L183.81,86.65 L184.18,87.15 L184.55,87.65 L184.92,88.17 L185.29,88.71 L185.66,89.25 L186.03,89.81 L186.4,90.37 L186.77,90.96 L187.14,91.55 L187.51,92.16 L187.88,92.77 L188.25,93.4 L188.62,94.05 L188.99,94.7 L189.36,95.37 L189.73,96.05 L190.1,96.74 L190.47,97.44 L190.84,98.16 L191.21,98.88 L191.58,99.62 L191.95,100.37 L192.32,101.13 L192.69,101.91 L193.06,102.69 L193.43,103.49 L193.8,104.3 L194.17,105.12 L194.54,105.95 L194.91,106.79 L195.28,107.64 L195.65,108.5 L196.02,109.38 L196.39,110.26 L196.76,111.16 L197.13,112.07 L197.5,112.98 L197.87,113.91 L198.24,114.85 L198.61,115.8 L198.98,116.75 L199.35,117.72 L199.72,118.7 L200.09,119.69 L200.46,120.68 L200.83,121.69 L201.2,122.71 L201.57,123.73 L201.94,124.76 L202.31,125.81 L202.68,126.86 L203.05,127.92 L203.42,128.99 L203.79,130.06 L204.16,131.15 L204.53,132.24 L204.9,133.34 L205.27,134.45 L205.64,135.57 L206.01,136.69 L206.38,137.83 L206.75,138.97 L207.12,140.11 L207.49,141.26 L207.86,142.42 L208.23,143.59 L208.6,144.76 L208.97,145.94 L209.34,147.13 L209.71,148.32 L210.08,149.52 L210.45,150.72 L210.82,151.93 L211.19,153.14 L211.56,154.36 L211.93,155.58 L212.3,156.81 L212.67,158.05 L213.04,159.28 L213.41,160.53 L213.78,161.77 L214.15,163.02 L214.52,164.28 L214.89,165.53 L215.26,166.8 L215.63,168.06 L216,169.33 L216.37,170.6 L216.74,171.87 L217.11,173.15 L217.48,174.43 L217.85,175.71 L218.22,177 L218.59,178.28 L218.96,179.57 L219.33,180.86 L219.7,182.15 L220.07,183.44 L220.44,184.74 L220.81,186.03 L221.18,187.33 L221.55,188.62 L221.92,189.92 L222.29,191.22 L222.66,192.52 L223.03,193.82 L223.4,195.11 L223.77,196.41 L224.14,197.71 L224.51,199.01 L224.88,200.3 L225.25,201.6 L225.62,202.9 L225.99,204.19 L226.36,205.48 L226.73,206.78 L227.1,208.07 L227.47,209.36 L227.84,210.64 L228.21,211.93 L228.58,213.21 L228.95,214.49 L229.32,215.77 L229.69,217.05 L230.06,218.33 L230.43,219.6 L230.8,220.87 L231.17,222.14 L231.54,223.4 L231.91,224.66 L232.28,225.92 L232.65,227.17 L233.02,228.43 L233.39,229.67 L233.76,230.92 L234.13,232.16 L234.5,233.4 L234.87,234.63 L235.24,235.86 L235.61,237.09 L235.98,238.31 L236.35,239.52 L236.72,240.74 L237.09,241.95 L237.46,243.15 L237.83,244.35 L238.2,245.54 L238.57,246.74 L238.94,247.92 L239.31,249.1 L239.68,250.28 L240.05,251.45 L240.42,252.62 L240.79,253.78 L241.16,254.93 L241.53,256.08 L241.9,257.23 L242.27,258.37 L242.64,259.5 L243.01,260.63 L243.38,261.76 L243.75,262.87 L244.12,263.99 L244.49,265.09 L244.86,266.2 L245.24,267.29 L245.61,268.38 L245.98,269.47 L246.35,270.54 L246.72,271.62 L247.09,272.68 L247.46,273.74 L247.83,274.8 L248.2,275.85 L248.57,276.89 L248.94,277.93 L249.31,278.96 L249.68,279.98 L250.05,281 L250.42,282.01 L250.79,283.02 L251.16,284.02 L251.53,285.01 L251.9,286 L252.27,286.98 L252.64,287.96 L253.01,288.93 L253.38,289.89 L253.75,290.85 L254.12,291.8 L254.49,292.74 L254.86,293.68 L255.23,294.61 L255.6,295.54 L255.97,296.46 L256.34,297.37 L256.71,298.28 L257.08,299.18 L257.45,300.07 L257.82,300.96 L258.19,301.84 L258.56,302.71 L258.93,303.58 L259.3,304.45 L259.67,305.3 L260.04,306.15 L260.41,307 L260.78,307.84 L261.15,308.67 L261.52,309.5 L261.89,310.32 L262.26,311.13 L262.63,311.94 L263,312.74 L263.37,313.53 L263.74,314.32 L264.11,315.11 L264.48,315.88 L264.85,316.66 L265.22,317.42 L265.59,318.18 L265.96,318.94 L266.33,319.68 L266.7,320.43 L267.07,321.16 L267.44,321.89 L267.81,322.62 L268.18,323.34 L268.55,324.05 L268.92,324.76 L269.29,325.46 L269.66,326.15 L270.03,326.84 L270.4,327.53 L270.77,328.21 L271.14,328.88 L271.51,329.55 L271.88,330.21 L272.25,330.87 L272.62,331.52 L272.99,332.17 L273.36,332.81 L273.73,333.44 L274.1,334.07 L274.47,334.7 L274.84,335.32 L275.21,335.93 L275.58,336.54 L275.95,337.14 L276.32,337.74 L276.69,338.33 L277.06,338.92 L277.43,339.51 L277.8,340.09 L278.17,340.66 L278.54,341.23 L278.91,341.79 L279.28,342.35 L279.65,342.9 L280.02,343.45 L280.39,344 L280.76,344.54 L281.13,345.07 L281.5,345.6 L281.87,346.12 L282.24,346.65 L282.61,347.16 L282.98,347.67 L283.35,348.18 L283.72,348.68 L284.09,349.18 L284.46,349.67 L284.83,350.16 L285.2,350.65 L285.57,351.13 L285.94,351.6 L286.31,352.07 L286.68,352.54 L287.05,353 L287.42,353.46 L287.79,353.92 L288.16,354.37 L288.53,354.81 L288.9,355.26 L289.27,355.69 L289.64,356.13 L290.01,356.56 L290.38,356.98 L290.75,357.41 L291.12,357.82 L291.49,358.24 L291.86,358.65 L292.23,359.06 L292.6,359.46 L292.97,359.86 L293.34,360.25 L293.71,360.64 L294.08,361.03 L294.45,361.42 L294.82,361.8 L295.19,362.17 L295.56,362.55 L295.93,362.92 L296.3,363.29 L296.67,363.65 L297.04,364.01 L297.41,364.36 L297.78,364.72 L298.15,365.07 L298.52,365.41 L298.89,365.75 L299.26,366.09 L299.63,366.43 L300,366.76 L300.37,367.09 L300.74,367.42 L301.11,367.74 L301.48,368.06 L301.85,368.38 L302.22,368.69 L302.59,369 L302.96,369.31 L303.33,369.62 L303.7,369.92 L304.07,370.22 L304.44,370.51 L304.81,370.81 L305.18,371.1 L305.55,371.38 L305.92,371.67 L306.29,371.95 L306.66,372.23 L307.03,372.5 L307.4,372.78 L307.77,373.05 L308.14,373.31 L308.51,373.58 L308.88,373.84 L309.25,374.1 L309.62,374.36 L309.99,374.61 L310.36,374.86 L310.73,375.11 L311.1,375.36 L311.47,375.6 L311.84,375.85 L312.21,376.08 L312.58,376.32 L312.95,376.56 L313.32,376.79 L313.69,377.02 L314.06,377.24 L314.43,377.47 L314.8,377.69 L315.17,377.91 L315.54,378.13 L315.91,378.34 L316.28,378.55 L316.65,378.76 L317.02,378.97 L317.39,379.18 L317.76,379.38 L318.13,379.58 L318.5,379.78 L318.87,379.98 L319.24,380.18 L319.61,380.37 L319.98,380.56 L320.35,380.75 L320.72,380.94 L321.09,381.12 L321.46,381.3 L321.83,381.48 L322.2,381.66 L322.57,381.84 L322.94,382.01 L323.31,382.18 L323.68,382.36 L324.05,382.52 L324.42,382.69 L324.79,382.85 L325.16,383.02 L325.53,383.18 L325.9,383.34 L326.27,383.49 L326.64,383.65 L327.01,383.8 L327.38,383.95 L327.75,384.1 L328.12,384.25 L328.49,384.4 L328.86,384.54 L329.23,384.69 L329.6,384.83 L329.97,384.97 L330.34,385.1 L330.71,385.24 L331.08,385.37 L331.45,385.51 L331.82,385.64 L332.19,385.77 L332.56,385.89 L332.93,386.02 L333.3,386.14 L333.67,386.27 L334.04,386.39 L334.41,386.51 L334.78,386.62 L335.15,386.74 L335.52,386.85 L335.89,386.97 L336.26,387.08 L336.63,387.19 L337,387.3 L337.37,387.4 L337.74,387.51 L338.11,387.61 L338.48,387.72 L338.85,387.82 L339.22,387.92 L339.59,388.01 L339.96,388.11 L340.33,388.21 L340.7,388.3 L341.07,388.39 L341.44,388.48 L341.81,388.57 L342.18,388.66 L342.55,388.75 L342.92,388.83 L343.29,388.92 L343.66,389 L344.03,389.08 L344.4,389.16 L344.77,389.24 L345.15,389.32 L345.52,389.39 L345.89,389.47 L346.26,389.54 L346.63,389.61 L347,389.68 L347.37,389.75 L347.74,389.82 L348.11,389.89 L348.48,389.95 L348.85,390.02 L349.22,390.08 L349.59,390.14 L349.96,390.2 L350.33,390.26 L350.7,390.32 L351.07,390.38 L351.44,390.43 L351.81,390.49 L352.18,390.54 L352.55,390.59 L352.92,390.65 L353.29,390.7 L353.66,390.74 L354.03,390.79 L354.4,390.84 L354.77,390.88 L355.14,390.93 L355.51,390.97 L355.88,391.01 L356.25,391.05 L356.62,391.09 L356.99,391.13 L357.36,391.17 L357.73,391.21 L358.1,391.24 L358.47,391.27 L358.84,391.31 L359.21,391.34 L359.58,391.37 L359.95,391.4 L360.32,391.43 L360.69,391.46 L361.06,391.48 L361.43,391.51 L361.8,391.53 L362.17,391.56 L362.54,391.58 L362.91,391.6 L363.28,391.62 L363.65,391.64 L364.02,391.66 L364.39,391.68 L364.76,391.69 L365.13,391.71 L365.5,391.72 L365.87,391.74 L366.24,391.75 L366.61,391.76 L366.98,391.77 L367.35,391.78 L367.72,391.79 L368.09,391.79 L368.46,391.8 L368.83,391.81 L369.2,391.81 L369.57,391.81 L369.94,391.82 L370.31,391.82 L370.68,391.82 L371.05,391.82 L371.42,391.82 L371.79,391.81 L372.16,391.81 L372.53,391.81 L372.9,391.8 L373.27,391.79 L373.64,391.79 L374.01,391.78 L374.38,391.77 L374.75,391.76 L375.12,391.75 L375.49,391.74 L375.86,391.73 L376.23,391.71 L376.6,391.7 L376.97,391.68 L377.34,391.67 L377.71,391.65 L378.08,391.63 L378.45,391.61 L378.82,391.59 L379.19,391.57 L379.56,391.55 L379.93,391.53 L380.3,391.5 L380.67,391.48 L381.04,391.45 L381.41,391.43 L381.78,391.4 L382.15,391.37 L382.52,391.34 L382.89,391.31 L383.26,391.28 L383.63,391.25 L384,391.22 L384.37,391.19 L384.74,391.15 L385.11,391.12 L385.48,391.08 L385.85,391.05 L386.22,391.01 L386.59,390.97 L386.96,390.93 L387.33,390.89 L387.7,390.85 L388.07,390.81 L388.44,390.77 L388.81,390.72 L389.18,390.68 L389.55,390.63 L389.92,390.59 L390.29,390.54 L390.66,390.49 L391.03,390.44 L391.4,390.39 L391.77,390.34 L392.14,390.29 L392.51,390.24 L392.88,390.19 L393.25,390.13 L393.62,390.08 L393.99,390.02 L394.36,389.97 L394.73,389.91 L395.1,389.85 L395.47,389.79 L395.84,389.73 L396.21,389.67 L396.58,389.61 L396.95,389.55 L397.32,389.49 L397.69,389.42 L398.06,389.36 L398.43,389.29 L398.8,389.23 L399.17,389.16 L399.54,389.09 L399.91,389.02 L400.28,388.95 L400.65,388.88 L401.02,388.81 L401.39,388.74 L401.76,388.67 L402.13,388.59 L402.5,388.52 L402.87,388.44 L403.24,388.37 L403.61,388.29 L403.98,388.21 L404.35,388.13 L404.72,388.05 L405.09,387.97 L405.46,387.89 L405.83,387.81 L406.2,387.73 L406.57,387.64 L406.94,387.56 L407.31,387.47 L407.68,387.39 L408.05,387.3 L408.42,387.21 L408.79,387.12 L409.16,387.04 L409.53,386.94 L409.9,386.85 L410.27,386.76 L410.64,386.67 L411.01,386.57 L411.38,386.48 L411.75,386.38 L412.12,386.29 L412.49,386.19 L412.86,386.09 L413.23,385.99 L413.6,385.9 L413.97,385.79 L414.34,385.69 L414.71,385.59 L415.08,385.49 L415.45,385.38 L415.82,385.28 L416.19,385.17 L416.56,385.07 L416.93,384.96 L417.3,384.85 L417.67,384.74 L418.04,384.63 L418.41,384.52 L418.78,384.41 L419.15,384.3 L419.52,384.19 L419.89,384.07 L420.26,383.96 L420.63,383.84 L421,383.72 L421.37,383.61 L421.74,383.49 L422.11,383.37 L422.48,383.25 L422.85,383.13 L423.22,383.01 L423.59,382.88 L423.96,382.76 L424.33,382.64 L424.7,382.51 L425.07,382.39 L425.44,382.26 L425.81,382.13 L426.18,382 L426.55,381.87 L426.92,381.74 L427.29,381.61 L427.66,381.48 L428.03,381.34 L428.4,381.21 L428.77,381.08 L429.14,380.94 L429.51,380.8 L429.88,380.67 L430.25,380.53 L430.62,380.39 L430.99,380.25 L431.36,380.11 L431.73,379.96 L432.1,379.82 L432.47,379.68 L432.84,379.53 L433.21,379.39 L433.58,379.24 L433.95,379.09 L434.32,378.94 L434.69,378.8 L435.06,378.65 L435.43,378.49 L435.8,378.34 L436.17,378.19 L436.54,378.04 L436.91,377.88 L437.28,377.72 L437.65,377.57 L438.02,377.41 L438.39,377.25 L438.76,377.09 L439.13,376.93 L439.5,376.77 L439.87,376.61 L440.24,376.45 L440.61,376.28 L440.98,376.12 L441.35,375.95 L441.72,375.78 L442.09,375.61 L442.46,375.45 L442.83,375.28 L443.2,375.11 L443.57,374.93 L443.94,374.76 L444.31,374.59 L444.68,374.41 L445.06,374.24 L445.43,374.06 L445.8,373.88 L446.17,373.7 L446.54,373.52 L446.91,373.34 L447.28,373.16 L447.65,372.98 L448.02,372.8 L448.39,372.61 L448.76,372.43 L449.13,372.24 L449.5,372.05 L449.87,371.87 L450.24,371.68 L450.61,371.49 L450.98,371.29 L451.35,371.1 L451.72,370.91 L452.09,370.71 L452.46,370.52 L452.83,370.32 L453.2,370.12 L453.57,369.93 L453.94,369.73 L454.31,369.53 L454.68,369.32 L455.05,369.12 L455.42,368.92 L455.79,368.71 L456.16,368.51 L456.53,368.3 L456.9,368.09 L457.27,367.88 L457.64,367.67 L458.01,367.46 L458.38,367.25 L458.75,367.04 L459.12,366.82 L459.49,366.61 L459.86,366.39 L460.23,366.17 L460.6,365.96 L460.97,365.74 L461.34,365.52 L461.71,365.29 L462.08,365.07 L462.45,364.85 L462.82,364.62 L463.19,364.4 L463.56,364.17 L463.93,363.94 L464.3,363.71 L464.67,363.48 L465.04,363.25 L465.41,363.02 L465.78,362.78 L466.15,362.55 L466.52,362.31 L466.89,362.07 L467.26,361.84 L467.63,361.6 L468,361.36 L468.37,361.11 L468.74,360.87 L469.11,360.63 L469.48,360.38 L469.85,360.14 L470.22,359.89 L470.59,359.64 L470.96,359.39 L471.33,359.14 L471.7,358.89 L472.07,358.63 L472.44,358.38 L472.81,358.12 L473.18,357.87 L473.55,357.61 L473.92,357.35 L474.29,357.09 L474.66,356.83 L475.03,356.56 L475.4,356.3 L475.77,356.04 L476.14,355.77 L476.51,355.5 L476.88,355.23 L477.25,354.96 L477.62,354.69 L477.99,354.42 L478.36,354.15 L478.73,353.87 L479.1,353.59 L479.47,353.32 L479.84,353.04 L480.21,352.76 L480.58,352.48 L480.95,352.19 L481.32,351.91 L481.69,351.63 L482.06,351.34 L482.43,351.05 L482.8,350.76 L483.17,350.47 L483.54,350.18 L483.91,349.89 L484.28,349.6 L484.65,349.3 L485.02,349 L485.39,348.71 L485.76,348.41 L486.13,348.11 L486.5,347.81 L486.87,347.5 L487.24,347.2 L487.61,346.89 L487.98,346.59 L488.35,346.28 L488.72,345.97 L489.09,345.66 L489.46,345.35 L489.83,345.03 L490.2,344.72 L490.57,344.4 L490.94,344.08 L491.31,343.77 L491.68,343.45 L492.05,343.12 L492.42,342.8 L492.79,342.48 L493.16,342.15 L493.53,341.82 L493.9,341.5 L494.27,341.17 L494.64,340.83 L495.01,340.5 L495.38,340.17 L495.75,339.83 L496.12,339.5 L496.49,339.16 L496.86,338.82 L497.23,338.48 L497.6,338.13 L497.97,337.79 L498.34,337.44 L498.71,337.1 L499.08,336.75 L499.45,336.4 L499.82,336.05 L500.19,335.7 L500.56,335.34 L500.93,334.99 L501.3,334.63 L501.67,334.27 L502.04,333.91 L502.41,333.55 L502.78,333.19 L503.15,332.82 L503.52,332.46 L503.89,332.09 L504.26,331.72 L504.63,331.35 L505,330.98 L505.37,330.61 L505.74,330.23 L506.11,329.86 L506.48,329.48 L506.85,329.1 L507.22,328.72 L507.59,328.34 L507.96,327.95 L508.33,327.57 L508.7,327.18 L509.07,326.79 L509.44,326.41 L509.81,326.01 L510.18,325.62 L510.55,325.23 L510.92,324.83 L511.29,324.43 L511.66,324.03 L512.03,323.63 L512.4,323.23 L512.77,322.83 L513.14,322.42 L513.51,322.01 L513.88,321.61 L514.25,321.2 L514.62,320.78 L514.99,320.37 L515.36,319.96 L515.73,319.54 L516.1,319.12 L516.47,318.7 L516.84,318.28 L517.21,317.86 L517.58,317.43 L517.95,317.01 L518.32,316.58 L518.69,316.15 L519.06,315.72 L519.43,315.29 L519.8,314.85 L520.17,314.41 L520.54,313.98 L520.91,313.54 L521.28,313.1 L521.65,312.65 L522.02,312.21 L522.39,311.76 L522.76,311.32 L523.13,310.87 L523.5,310.42 L523.87,309.96 L524.24,309.51 L524.61,309.05 L524.98,308.59 L525.35,308.14 L525.72,307.67 L526.09,307.21 L526.46,306.75 L526.83,306.28 L527.2,305.81 L527.57,305.34 L527.94,304.87 L528.31,304.4 L528.68,303.92 L529.05,303.45 L529.42,302.97 L529.79,302.49 L530.16,302.01 L530.53,301.52 L530.9,301.04 L531.27,300.55 L531.64,300.06 L532.01,299.57 L532.38,299.08 L532.75,298.59 L533.12,298.09 L533.49,297.59 L533.86,297.09 L534.23,296.59 L534.6,296.09 L534.97,295.58 L535.34,295.08 L535.71,294.57 L536.08,294.06 L536.45,293.55 L536.82,293.03 L537.19,292.52 L537.56,292 L537.93,291.48 L538.3,290.96 L538.67,290.44 L539.04,289.92 L539.41,289.39 L539.78,288.86 L540.15,288.33 L540.52,287.8 L540.89,287.27 L541.26,286.73 L541.63,286.2 L542,285.66 L542.37,285.12 L542.74,284.57 L543.11,284.03 L543.48,283.48 L543.85,282.94 L544.22,282.39 L544.59,281.84 L544.96,281.28 L545.34,280.73 L545.71,280.17 L546.08,279.61 L546.45,279.05 L546.82,278.49 L547.19,277.92 L547.56,277.36 L547.93,276.79 L548.3,276.22 L548.67,275.65 L549.04,275.08 L549.41,274.5 L549.78,273.92 L550.15,273.34 L550.52,272.76 L550.89,272.18 L551.26,271.6 L551.63,271.01 L552,270.42 L552.37,269.83 L552.74,269.24 L553.11,268.65 L553.48,268.05 L553.85,267.45 L554.22,266.85 L554.59,266.25 L554.96,265.65 L555.33,265.04 L555.7,264.44 L556.07,263.83 L556.44,263.22 L556.81,262.61 L557.18,261.99 L557.55,261.38 L557.92,260.76 L558.29,260.14 L558.66,259.52 L559.03,258.9 L559.4,258.27 L559.77,257.64 L560.14,257.02 L560.51,256.39 L560.88,255.75 L561.25,255.12 L561.62,254.48 L561.99,253.85 L562.36,253.21 L562.73,252.56 L563.1,251.92 L563.47,251.28 L563.84,250.63 L564.21,249.98 L564.58,249.33 L564.95,248.68 L565.32,248.02 L565.69,247.37 L566.06,246.71 L566.43,246.05 L566.8,245.39 L567.17,244.73 L567.54,244.06 L567.91,243.4 L568.28,242.73 L568.65,242.06 L569.02,241.39 L569.39,240.71 L569.76,240.04 L570.13,239.36 L570.5,238.68 L570.87,238 L571.24,237.32 L571.61,236.64 L571.98,235.95 L572.35,235.27 L572.72,234.58 L573.09,233.89 L573.46,233.19 L573.83,232.5 L574.2,231.81 L574.57,231.11 L574.94,230.41 L575.31,229.71 L575.68,229.01 L576.05,228.3 L576.42,227.6 L576.79,226.89 L577.16,226.18 L577.53,225.47 L577.9,224.76 L578.27,224.05 L578.64,223.33 L579.01,222.62 L579.38,221.9 L579.75,221.18 L580.12,220.46 L580.49,219.74 L580.86,219.01 L581.23,218.29 L581.6,217.56 L581.97,216.83 L582.34,216.1 L582.71,215.37 L583.08,214.64 L583.45,213.9 L583.82,213.17 L584.19,212.43 L584.56,211.69 L584.93,210.95 L585.3,210.21 L585.67,209.47 L586.04,208.72 L586.41,207.98 L586.78,207.23 L587.15,206.48 L587.52,205.73 L587.89,204.98 L588.26,204.23 L588.63,203.48 L589,202.72 L589.37,201.97 L589.74,201.21 L590.11,200.45 L590.48,199.7 L590.85,198.94 L591.22,198.17 L591.59,197.41 L591.96,196.65 L592.33,195.89 L592.7,195.12 L593.07,194.35 L593.44,193.59 L593.81,192.82 L594.18,192.05 L594.55,191.28 L594.92,190.51 L595.29,189.73 L595.66,188.96 L596.03,188.19 L596.4,187.41 L596.77,186.64 L597.14,185.86 L597.51,185.08 L597.88,184.31 L598.25,183.53 L598.62,182.75 L598.99,181.97 L599.36,181.19 L599.73,180.41 L600.1,179.62 L600.47,178.84 L600.84,178.06 L601.21,177.27 L601.58,176.49 L601.95,175.71 L602.32,174.92 L602.69,174.14 L603.06,173.35 L603.43,172.56 L603.8,171.78 L604.17,170.99 L604.54,170.2 L604.91,169.42 L605.28,168.63 L605.65,167.84 L606.02,167.05 L606.39,166.27 L606.76,165.48 L607.13,164.69 L607.5,163.9 L607.87,163.12 L608.24,162.33 L608.61,161.54 L608.98,160.75 L609.35,159.97 L609.72,159.18 L610.09,158.39 L610.46,157.6 L610.83,156.82 L611.2,156.03 L611.57,155.25 L611.94,154.46 L612.31,153.68 L612.68,152.89 L613.05,152.11 L613.42,151.33 L613.79,150.54 L614.16,149.76 L614.53,148.98 L614.9,148.2 L615.27,147.42 L615.64,146.65 L616.01,145.87 L616.38,145.09 L616.75,144.32 L617.12,143.54 L617.49,142.77 L617.86,142 L618.23,141.22 L618.6,140.46 L618.97,139.69 L619.34,138.92 L619.71,138.15 L620.08,137.39 L620.45,136.63 L620.82,135.87 L621.19,135.11 L621.56,134.35 L621.93,133.59 L622.3,132.84 L622.67,132.09 L623.04,131.33 L623.41,130.59 L623.78,129.84 L624.15,129.09 L624.52,128.35 L624.89,127.61 L625.26,126.87 L625.63,126.14 L626,125.4 L626.37,124.67 L626.74,123.94 L627.11,123.22 L627.48,122.49 L627.85,121.77 L628.22,121.06 L628.59,120.34 L628.96,119.63 L629.33,118.92 L629.7,118.21 L630.07,117.51 L630.44,116.81 L630.81,116.11 L631.18,115.42 L631.55,114.73 L631.92,114.04 L632.29,113.35 L632.66,112.67 L633.03,112 L633.4,111.32 L633.77,110.65 L634.14,109.99 L634.51,109.33 L634.88,108.67 L635.25,108.02 L635.62,107.37 L635.99,106.72 L636.36,106.08 L636.73,105.45 L637.1,104.81 L637.47,104.19 L637.84,103.56 L638.21,102.95 L638.58,102.33 L638.95,101.72 L639.32,101.12 L639.69,100.52 L640.06,99.93 L640.43,99.34 L640.8,98.76 L641.17,98.18 L641.54,97.61 L641.91,97.04 L642.28,96.48 L642.65,95.92 L643.02,95.37 L643.39,94.83 L643.76,94.29 L644.13,93.76 L644.5,93.23 L644.87,92.71 L645.25,92.2 L645.62,91.69 L645.99,91.19 L646.36,90.69 L646.73,90.21 L647.1,89.73 L647.47,89.25 L647.84,88.78 L648.21,88.32 L648.58,87.87 L648.95,87.43 L649.32,86.99 L649.69,86.55 L650.06,86.13 L650.43,85.71 L650.8,85.31 L651.17,84.9 L651.54,84.51 L651.91,84.13 L652.28,83.75 L652.65,83.38 L653.02,83.02 L653.39,82.66 L653.76,82.32 L654.13,81.98 L654.5,81.65 L654.87,81.34 L655.24,81.02 L655.61,80.72 L655.98,80.43 L656.35,80.15 L656.72,79.87 L657.09,79.61 L657.46,79.35 L657.83,79.1 L658.2,78.86 L658.57,78.64 L658.94,78.42 L659.31,78.21 L659.68,78.01 L660.05,77.82 L660.42,77.64 L660.79,77.47 L661.16,77.31 L661.53,77.16 L661.9,77.02 L662.27,76.89 L662.64,76.78 L663.01,76.67 L663.38,76.57 L663.75,76.48 L664.12,76.41 L664.49,76.34 L664.86,76.29 L665.23,76.24 L665.6,76.21 L665.97,76.19 L666.34,76.18 L666.71,76.18 L667.08,76.19 L667.45,76.22 L667.82,76.25 L668.19,76.3 L668.56,76.36 L668.93,76.43 L669.3,76.51 L669.67,76.6 L670.04,76.71 L670.41,76.83 L670.78,76.95 L671.15,77.09 L671.52,77.25 L671.89,77.41 L672.26,77.59 L672.63,77.78 L673,77.98 L673.37,78.19 L673.74,78.42 L674.11,78.66 L674.48,78.91 L674.85,79.17 L675.22,79.44 L675.59,79.73 L675.96,80.03 L676.33,80.34 L676.7,80.67 L677.07,81.01 L677.44,81.36 L677.81,81.72 L678.18,82.09 L678.55,82.48 L678.92,82.88 L679.29,83.3 L679.66,83.72 L680.03,84.16 L680.4,84.61 L680.77,85.07 L681.14,85.55 L681.51,86.04 L681.88,86.54 L682.25,87.05 L682.62,87.58 L682.99,88.12 L683.36,88.67 L683.73,89.23 L684.1,89.81 L684.47,90.4 L684.84,91 L685.21,91.62 L685.58,92.24 L685.95,92.88 L686.32,93.53 L686.69,94.19 L687.06,94.87 L687.43,95.56 L687.8,96.26 L688.17,96.97 L688.54,97.69 L688.91,98.43 L689.28,99.17 L689.65,99.93 L690.02,100.7 L690.39,101.49 L690.76,102.28 L691.13,103.09 L691.5,103.9 L691.87,104.73 L692.24,105.57 L692.61,106.42 L692.98,107.28 L693.35,108.16 L693.72,109.04 L694.09,109.93 L694.46,110.84 L694.83,111.75 L695.2,112.68 L695.57,113.62 L695.94,114.56 L696.31,115.52 L696.68,116.49 L697.05,117.47 L697.42,118.45 L697.79,119.45 L698.16,120.46 L698.53,121.47 L698.9,122.5 L699.27,123.53 L699.64,124.57 L700.01,125.63 L700.38,126.69 L700.75,127.76 L701.12,128.84 L701.49,129.92 L701.86,131.02 L702.23,132.12 L702.6,133.23 L702.97,134.35 L703.34,135.48 L703.71,136.61 L704.08,137.75 L704.45,138.9 L704.82,140.06 L705.19,141.22 L705.56,142.39 L705.93,143.56 L706.3,144.75 L706.67,145.93 L707.04,147.13 L707.41,148.33 L707.78,149.54 L708.15,150.75 L708.52,151.96 L708.89,153.19 L709.26,154.42 L709.63,155.65 L710,156.89 L710.37,158.13 L710.74,159.37 L711.11,160.63 L711.48,161.88 L711.85,163.14 L712.22,164.4 L712.59,165.67 L712.96,166.94 L713.33,168.21 L713.7,169.49 L714.07,170.77 L714.44,172.05 L714.81,173.34 L715.18,174.62 L715.55,175.91 L715.92,177.2 L716.29,178.5 L716.66,179.79 L717.03,181.09 L717.4,182.39 L717.77,183.69 L718.14,184.99 L718.51,186.29 L718.88,187.6 L719.25,188.9 L719.62,190.2 L719.99,191.51 L720.36,192.81 L720.73,194.12 L721.1,195.42 L721.47,196.73 L721.84,198.03 L722.21,199.34 L722.58,200.64 L722.95,201.94 L723.32,203.25 L723.69,204.55 L724.06,205.85 L724.43,207.14 L724.8,208.44 L725.17,209.74 L725.54,211.03 L725.91,212.32 L726.28,213.61 L726.65,214.9 L727.02,216.18 L727.39,217.46 L727.76,218.74 L728.13,220.02 L728.5,221.3 L728.87,222.57 L729.24,223.84 L729.61,225.1 L729.98,226.37 L730.35,227.62 L730.72,228.88 L731.09,230.13 L731.46,231.38 L731.83,232.63 L732.2,233.87 L732.57,235.11 L732.94,236.34 L733.31,237.57 L733.68,238.79 L734.05,240.01 L734.42,241.23 L734.79,242.44 L735.16,243.65 L735.53,244.85 L735.9,246.05 L736.27,247.25 L736.64,248.43 L737.01,249.62 L737.38,250.8 L737.75,251.97 L738.12,253.14 L738.49,254.3 L738.86,255.46 L739.23,256.61 L739.6,257.76 L739.97,258.9 L740.34,260.04 L740.71,261.17 L741.08,262.3 L741.45,263.42 L741.82,264.53 L742.19,265.64 L742.56,266.75 L742.93,267.84 L743.3,268.93 L743.67,270.02 L744.04,271.1 L744.41,272.17 L744.78,273.24 L745.16,274.3 L745.53,275.36 L745.9,276.41 L746.27,277.45 L746.64,278.49 L747.01,279.52 L747.38,280.55 L747.75,281.57 L748.12,282.58 L748.49,283.59 L748.86,284.59 L749.23,285.58 L749.6,286.57 L749.97,287.55 L750.34,288.53 L750.71,289.5 L751.08,290.46 L751.45,291.42 L751.82,292.37 L752.19,293.31 L752.56,294.25 L752.93,295.18 L753.3,296.11 L753.67,297.03 L754.04,297.94 L754.41,298.85 L754.78,299.75 L755.15,300.64 L755.52,301.53 L755.89,302.41 L756.26,303.28 L756.63,304.15 L757,305.01 L757.37,305.87 L757.74,306.72 L758.11,307.57 L758.48,308.4 L758.85,309.23 L759.22,310.06 L759.59,310.88 L759.96,311.69 L760.33,312.5 L760.7,313.3 L761.07,314.09 L761.44,314.88 L761.81,315.67 L762.18,316.44 L762.55,317.21 L762.92,317.98 L763.29,318.74 L763.66,319.49 L764.03,320.24 L764.4,320.98 L764.77,321.71 L765.14,322.44 L765.51,323.16 L765.88,323.88 L766.25,324.59 L766.62,325.3 L766.99,326 L767.36,326.69 L767.73,327.38 L768.1,328.07 L768.47,328.74 L768.84,329.42 L769.21,330.08 L769.58,330.74 L769.95,331.4 L770.32,332.05 L770.69,332.69 L771.06,333.33 L771.43,333.97 L771.8,334.6 L772.17,335.22 L772.54,335.84 L772.91,336.45 L773.28,337.06 L773.65,337.66 L774.02,338.26 L774.39,338.85 L774.76,339.44 L775.13,340.02 L775.5,340.6 L775.87,341.17 L776.24,341.73 L776.61,342.3 L776.98,342.85 L777.35,343.41 L777.72,343.95 L778.09,344.49 L778.46,345.03 L778.83,345.57 L779.2,346.09 L779.57,346.62 L779.94,347.14 L780.31,347.65 L780.68,348.16 L781.05,348.67 L781.42,349.17 L781.79,349.66 L782.16,350.15 L782.53,350.64 L782.9,351.12 L783.27,351.6 L783.64,352.08 L784.01,352.55 L784.38,353.01 L784.75,353.47 L785.12,353.93 L785.49,354.38 L785.86,354.83 L786.23,355.28 L786.6,355.72 L786.97,356.15 L787.34,356.59 L787.71,357.01 L788.08,357.44 L788.45,357.86 L788.82,358.28 L789.19,358.69 L789.56,359.1 L789.93,359.5 L790.3,359.9 L790.67,360.3 L791.04,360.7 L791.41,361.09 L791.78,361.47 L792.15,361.85 L792.52,362.23 L792.89,362.61 L793.26,362.98 L793.63,363.35 L794,363.71 L794.37,364.08 L794.74,364.43 L795.11,364.79 L795.48,365.14 L795.85,365.49 L796.22,365.83 L796.59,366.17 L796.96,366.51 L797.33,366.85 L797.7,367.18 L798.07,367.51 L798.44,367.83 L798.81,368.15 L799.18,368.47 L799.55,368.79 L799.92,369.1 L800.29,369.41 L800.66,369.71 L801.03,370.02 L801.4,370.32 L801.77,370.62 L802.14,370.91 L802.51,371.2 L802.88,371.49 L803.25,371.78 L803.62,372.06 L803.99,372.34 L804.36,372.62 L804.73,372.89 L805.1,373.16 L805.47,373.43 L805.84,373.7 L806.21,373.96 L806.58,374.22 L806.95,374.48 L807.32,374.74 L807.69,374.99 L808.06,375.24 L808.43,375.49 L808.8,375.73 L809.17,375.97 L809.54,376.21 L809.91,376.45 L810.28,376.69 L810.65,376.92 L811.02,377.15 L811.39,377.38 L811.76,377.6 L812.13,377.83 L812.5,378.05 L812.87,378.27 L813.24,378.48 L813.61,378.7 L813.98,378.91 L814.35,379.12 L814.72,379.32 L815.09,379.53 L815.46,379.73 L815.83,379.93 L816.2,380.13 L816.57,380.33 L816.94,380.52 L817.31,380.71 L817.68,380.9 L818.05,381.09 L818.42,381.28 L818.79,381.46 L819.16,381.64 L819.53,381.82 L819.9,382 L820.27,382.17 L820.64,382.35 L821.01,382.52 L821.38,382.69 L821.75,382.85 L822.12,383.02 L822.49,383.18 L822.86,383.34 L823.23,383.5 L823.6,383.66 L823.97,383.82 L824.34,383.97 L824.71,384.12 L825.08,384.28 L825.45,384.42 L825.82,384.57 L826.19,384.72 L826.56,384.86 L826.93,385 L827.3,385.14 L827.67,385.28 L828.04,385.42 L828.41,385.55 L828.78,385.68 L829.15,385.82 L829.52,385.94 L829.89,386.07 L830.26,386.2 L830.63,386.32 L831,386.45 L831.37,386.57 L831.74,386.69 L832.11,386.81 L832.48,386.92 L832.85,387.04 L833.22,387.15 L833.59,387.27 L833.96,387.38 L834.33,387.48 L834.7,387.59"/><path class="lynx" d="M95,416.09 L95.37,416 L95.74,415.92 L96.11,415.83 L96.48,415.74 L96.85,415.65 L97.22,415.56 L97.59,415.47 L97.96,415.38 L98.33,415.28 L98.7,415.19 L99.07,415.09 L99.44,415 L99.81,414.9 L100.18,414.8 L100.55,414.7 L100.92,414.6 L101.29,414.5 L101.66,414.4 L102.03,414.29 L102.4,414.19 L102.77,414.08 L103.14,413.97 L103.51,413.87 L103.88,413.76 L104.25,413.65 L104.62,413.53 L104.99,413.42 L105.36,413.31 L105.73,413.19 L106.1,413.07 L106.47,412.95 L106.84,412.84 L107.21,412.71 L107.58,412.59 L107.95,412.47 L108.32,412.35 L108.69,412.22 L109.06,412.09 L109.43,411.96 L109.8,411.83 L110.17,411.7 L110.54,411.57 L110.91,411.44 L111.28,411.3 L111.65,411.17 L112.02,411.03 L112.39,410.89 L112.76,410.75 L113.13,410.61 L113.5,410.46 L113.87,410.32 L114.24,410.17 L114.61,410.03 L114.98,409.88 L115.35,409.73 L115.72,409.57 L116.09,409.42 L116.46,409.26 L116.83,409.11 L117.2,408.95 L117.57,408.79 L117.94,408.63 L118.31,408.47 L118.68,408.3 L119.05,408.13 L119.42,407.97 L119.79,407.8 L120.16,407.63 L120.53,407.45 L120.9,407.28 L121.27,407.1 L121.64,406.93 L122.01,406.75 L122.38,406.56 L122.75,406.38 L123.12,406.2 L123.49,406.01 L123.86,405.82 L124.23,405.63 L124.6,405.44 L124.97,405.25 L125.34,405.05 L125.71,404.85 L126.08,404.65 L126.45,404.45 L126.82,404.25 L127.19,404.05 L127.56,403.84 L127.93,403.63 L128.3,403.42 L128.67,403.21 L129.04,402.99 L129.41,402.78 L129.78,402.56 L130.15,402.34 L130.52,402.11 L130.89,401.89 L131.26,401.66 L131.63,401.43 L132,401.2 L132.37,400.97 L132.74,400.73 L133.11,400.5 L133.48,400.26 L133.85,400.02 L134.22,399.77 L134.59,399.53 L134.96,399.28 L135.33,399.03 L135.7,398.77 L136.07,398.52 L136.44,398.26 L136.81,398 L137.18,397.74 L137.55,397.48 L137.92,397.21 L138.29,396.94 L138.66,396.67 L139.03,396.4 L139.4,396.12 L139.77,395.84 L140.14,395.56 L140.51,395.28 L140.88,394.99 L141.25,394.7 L141.62,394.41 L141.99,394.12 L142.36,393.82 L142.73,393.52 L143.1,393.22 L143.47,392.92 L143.84,392.61 L144.21,392.3 L144.58,391.99 L144.95,391.68 L145.33,391.36 L145.7,391.04 L146.07,390.72 L146.44,390.39 L146.81,390.07 L147.18,389.73 L147.55,389.4 L147.92,389.07 L148.29,388.73 L148.66,388.39 L149.03,388.04 L149.4,387.69 L149.77,387.34 L150.14,386.99 L150.51,386.64 L150.88,386.28 L151.25,385.92 L151.62,385.55 L151.99,385.19 L152.36,384.82 L152.73,384.44 L153.1,384.07 L153.47,383.69 L153.84,383.31 L154.21,382.92 L154.58,382.53 L154.95,382.14 L155.32,381.75 L155.69,381.35 L156.06,380.95 L156.43,380.55 L156.8,380.14 L157.17,379.74 L157.54,379.32 L157.91,378.91 L158.28,378.49 L158.65,378.07 L159.02,377.65 L159.39,377.22 L159.76,376.79 L160.13,376.35 L160.5,375.92 L160.87,375.48 L161.24,375.04 L161.61,374.59 L161.98,374.14 L162.35,373.69 L162.72,373.23 L163.09,372.78 L163.46,372.31 L163.83,371.85 L164.2,371.38 L164.57,370.91 L164.94,370.44 L165.31,369.96 L165.68,369.48 L166.05,369 L166.42,368.51 L166.79,368.02 L167.16,367.53 L167.53,367.03 L167.9,366.53 L168.27,366.03 L168.64,365.53 L169.01,365.02 L169.38,364.51 L169.75,363.99 L170.12,363.48 L170.49,362.96 L170.86,362.43 L171.23,361.91 L171.6,361.38 L171.97,360.85 L172.34,360.31 L172.71,359.77 L173.08,359.23 L173.45,358.69 L173.82,358.14 L174.19,357.59 L174.56,357.04 L174.93,356.49 L175.3,355.93 L175.67,355.37 L176.04,354.81 L176.41,354.24 L176.78,353.67 L177.15,353.1 L177.52,352.53 L177.89,351.95 L178.26,351.37 L178.63,350.79 L179,350.2 L179.37,349.62 L179.74,349.03 L180.11,348.44 L180.48,347.84 L180.85,347.25 L181.22,346.65 L181.59,346.05 L181.96,345.44 L182.33,344.84 L182.7,344.23 L183.07,343.62 L183.44,343.01 L183.81,342.39 L184.18,341.78 L184.55,341.16 L184.92,340.54 L185.29,339.92 L185.66,339.3 L186.03,338.67 L186.4,338.05 L186.77,337.42 L187.14,336.79 L187.51,336.16 L187.88,335.53 L188.25,334.89 L188.62,334.26 L188.99,333.62 L189.36,332.98 L189.73,332.34 L190.1,331.7 L190.47,331.06 L190.84,330.42 L191.21,329.78 L191.58,329.13 L191.95,328.49 L192.32,327.84 L192.69,327.2 L193.06,326.55 L193.43,325.9 L193.8,325.25 L194.17,324.61 L194.54,323.96 L194.91,323.31 L195.28,322.66 L195.65,322.01 L196.02,321.36 L196.39,320.71 L196.76,320.07 L197.13,319.42 L197.5,318.77 L197.87,318.12 L198.24,317.47 L198.61,316.83 L198.98,316.18 L199.35,315.53 L199.72,314.89 L200.09,314.25 L200.46,313.6 L200.83,312.96 L201.2,312.32 L201.57,311.68 L201.94,311.04 L202.31,310.4 L202.68,309.77 L203.05,309.13 L203.42,308.5 L203.79,307.87 L204.16,307.24 L204.53,306.61 L204.9,305.99 L205.27,305.36 L205.64,304.74 L206.01,304.12 L206.38,303.5 L206.75,302.89 L207.12,302.28 L207.49,301.67 L207.86,301.06 L208.23,300.45 L208.6,299.85 L208.97,299.25 L209.34,298.65 L209.71,298.06 L210.08,297.47 L210.45,296.88 L210.82,296.3 L211.19,295.72 L211.56,295.14 L211.93,294.56 L212.3,293.99 L212.67,293.43 L213.04,292.86 L213.41,292.3 L213.78,291.75 L214.15,291.19 L214.52,290.65 L214.89,290.1 L215.26,289.56 L215.63,289.03 L216,288.49 L216.37,287.97 L216.74,287.44 L217.11,286.93 L217.48,286.41 L217.85,285.9 L218.22,285.4 L218.59,284.9 L218.96,284.4 L219.33,283.91 L219.7,283.43 L220.07,282.94 L220.44,282.47 L220.81,282 L221.18,281.53 L221.55,281.07 L221.92,280.62 L222.29,280.17 L222.66,279.72 L223.03,279.28 L223.4,278.85 L223.77,278.42 L224.14,278 L224.51,277.58 L224.88,277.17 L225.25,276.76 L225.62,276.36 L225.99,275.97 L226.36,275.58 L226.73,275.2 L227.1,274.82 L227.47,274.45 L227.84,274.08 L228.21,273.72 L228.58,273.37 L228.95,273.02 L229.32,272.68 L229.69,272.34 L230.06,272.01 L230.43,271.69 L230.8,271.37 L231.17,271.06 L231.54,270.76 L231.91,270.46 L232.28,270.16 L232.65,269.88 L233.02,269.6 L233.39,269.32 L233.76,269.05 L234.13,268.79 L234.5,268.54 L234.87,268.29 L235.24,268.05 L235.61,267.81 L235.98,267.58 L236.35,267.35 L236.72,267.14 L237.09,266.92 L237.46,266.72 L237.83,266.52 L238.2,266.33 L238.57,266.14 L238.94,265.96 L239.31,265.79 L239.68,265.62 L240.05,265.46 L240.42,265.3 L240.79,265.15 L241.16,265.01 L241.53,264.87 L241.9,264.74 L242.27,264.62 L242.64,264.5 L243.01,264.39 L243.38,264.28 L243.75,264.18 L244.12,264.09 L244.49,264 L244.86,263.92 L245.24,263.84 L245.61,263.77 L245.98,263.71 L246.35,263.65 L246.72,263.6 L247.09,263.55 L247.46,263.51 L247.83,263.48 L248.2,263.45 L248.57,263.43 L248.94,263.41 L249.31,263.4 L249.68,263.39 L250.05,263.39 L250.42,263.4 L250.79,263.41 L251.16,263.43 L251.53,263.45 L251.9,263.48 L252.27,263.51 L252.64,263.55 L253.01,263.59 L253.38,263.64 L253.75,263.69 L254.12,263.75 L254.49,263.82 L254.86,263.89 L255.23,263.96 L255.6,264.04 L255.97,264.13 L256.34,264.22 L256.71,264.31 L257.08,264.41 L257.45,264.51 L257.82,264.62 L258.19,264.74 L258.56,264.86 L258.93,264.98 L259.3,265.11 L259.67,265.24 L260.04,265.38 L260.41,265.52 L260.78,265.67 L261.15,265.82 L261.52,265.97 L261.89,266.13 L262.26,266.3 L262.63,266.46 L263,266.64 L263.37,266.81 L263.74,266.99 L264.11,267.18 L264.48,267.37 L264.85,267.56 L265.22,267.75 L265.59,267.95 L265.96,268.16 L266.33,268.37 L266.7,268.58 L267.07,268.79 L267.44,269.01 L267.81,269.24 L268.18,269.46 L268.55,269.69 L268.92,269.92 L269.29,270.16 L269.66,270.4 L270.03,270.64 L270.4,270.89 L270.77,271.14 L271.14,271.39 L271.51,271.65 L271.88,271.91 L272.25,272.17 L272.62,272.44 L272.99,272.71 L273.36,272.98 L273.73,273.25 L274.1,273.53 L274.47,273.81 L274.84,274.09 L275.21,274.38 L275.58,274.67 L275.95,274.96 L276.32,275.25 L276.69,275.55 L277.06,275.85 L277.43,276.15 L277.8,276.45 L278.17,276.76 L278.54,277.07 L278.91,277.38 L279.28,277.69 L279.65,278.01 L280.02,278.33 L280.39,278.65 L280.76,278.97 L281.13,279.29 L281.5,279.62 L281.87,279.95 L282.24,280.28 L282.61,280.61 L282.98,280.94 L283.35,281.28 L283.72,281.62 L284.09,281.96 L284.46,282.3 L284.83,282.64 L285.2,282.99 L285.57,283.33 L285.94,283.68 L286.31,284.03 L286.68,284.38 L287.05,284.73 L287.42,285.09 L287.79,285.44 L288.16,285.8 L288.53,286.16 L288.9,286.52 L289.27,286.88 L289.64,287.24 L290.01,287.61 L290.38,287.97 L290.75,288.34 L291.12,288.7 L291.49,289.07 L291.86,289.44 L292.23,289.81 L292.6,290.19 L292.97,290.56 L293.34,290.93 L293.71,291.31 L294.08,291.68 L294.45,292.06 L294.82,292.44 L295.19,292.82 L295.56,293.19 L295.93,293.57 L296.3,293.96 L296.67,294.34 L297.04,294.72 L297.41,295.1 L297.78,295.49 L298.15,295.87 L298.52,296.25 L298.89,296.64 L299.26,297.03 L299.63,297.41 L300,297.8 L300.37,298.19 L300.74,298.58 L301.11,298.96 L301.48,299.35 L301.85,299.74 L302.22,300.13 L302.59,300.52 L302.96,300.91 L303.33,301.3 L303.7,301.69 L304.07,302.09 L304.44,302.48 L304.81,302.87 L305.18,303.26 L305.55,303.65 L305.92,304.05 L306.29,304.44 L306.66,304.83 L307.03,305.23 L307.4,305.62 L307.77,306.01 L308.14,306.41 L308.51,306.8 L308.88,307.19 L309.25,307.59 L309.62,307.98 L309.99,308.37 L310.36,308.77 L310.73,309.16 L311.1,309.55 L311.47,309.94 L311.84,310.34 L312.21,310.73 L312.58,311.12 L312.95,311.52 L313.32,311.91 L313.69,312.3 L314.06,312.69 L314.43,313.08 L314.8,313.48 L315.17,313.87 L315.54,314.26 L315.91,314.65 L316.28,315.04 L316.65,315.43 L317.02,315.82 L317.39,316.21 L317.76,316.6 L318.13,316.99 L318.5,317.38 L318.87,317.77 L319.24,318.15 L319.61,318.54 L319.98,318.93 L320.35,319.32 L320.72,319.7 L321.09,320.09 L321.46,320.47 L321.83,320.86 L322.2,321.24 L322.57,321.63 L322.94,322.01 L323.31,322.39 L323.68,322.78 L324.05,323.16 L324.42,323.54 L324.79,323.92 L325.16,324.3 L325.53,324.68 L325.9,325.06 L326.27,325.44 L326.64,325.82 L327.01,326.2 L327.38,326.57 L327.75,326.95 L328.12,327.33 L328.49,327.7 L328.86,328.08 L329.23,328.45 L329.6,328.82 L329.97,329.2 L330.34,329.57 L330.71,329.94 L331.08,330.31 L331.45,330.68 L331.82,331.05 L332.19,331.42 L332.56,331.79 L332.93,332.15 L333.3,332.52 L333.67,332.89 L334.04,333.25 L334.41,333.62 L334.78,333.98 L335.15,334.34 L335.52,334.71 L335.89,335.07 L336.26,335.43 L336.63,335.79 L337,336.15 L337.37,336.51 L337.74,336.86 L338.11,337.22 L338.48,337.58 L338.85,337.93 L339.22,338.29 L339.59,338.64 L339.96,338.99 L340.33,339.34 L340.7,339.7 L341.07,340.05 L341.44,340.4 L341.81,340.74 L342.18,341.09 L342.55,341.44 L342.92,341.79 L343.29,342.13 L343.66,342.48 L344.03,342.82 L344.4,343.16 L344.77,343.51 L345.15,343.85 L345.52,344.19 L345.89,344.53 L346.26,344.87 L346.63,345.2 L347,345.54 L347.37,345.88 L347.74,346.21 L348.11,346.55 L348.48,346.88 L348.85,347.21 L349.22,347.54 L349.59,347.88 L349.96,348.21 L350.33,348.53 L350.7,348.86 L351.07,349.19 L351.44,349.52 L351.81,349.84 L352.18,350.17 L352.55,350.49 L352.92,350.81 L353.29,351.14 L353.66,351.46 L354.03,351.78 L354.4,352.1 L354.77,352.41 L355.14,352.73 L355.51,353.05 L355.88,353.36 L356.25,353.68 L356.62,353.99 L356.99,354.31 L357.36,354.62 L357.73,354.93 L358.1,355.24 L358.47,355.55 L358.84,355.86 L359.21,356.16 L359.58,356.47 L359.95,356.78 L360.32,357.08 L360.69,357.38 L361.06,357.69 L361.43,357.99 L361.8,358.29 L362.17,358.59 L362.54,358.89 L362.91,359.19 L363.28,359.48 L363.65,359.78 L364.02,360.08 L364.39,360.37 L364.76,360.66 L365.13,360.96 L365.5,361.25 L365.87,361.54 L366.24,361.83 L366.61,362.12 L366.98,362.41 L367.35,362.69 L367.72,362.98 L368.09,363.27 L368.46,363.55 L368.83,363.83 L369.2,364.12 L369.57,364.4 L369.94,364.68 L370.31,364.96 L370.68,365.24 L371.05,365.52 L371.42,365.79 L371.79,366.07 L372.16,366.34 L372.53,366.62 L372.9,366.89 L373.27,367.17 L373.64,367.44 L374.01,367.71 L374.38,367.98 L374.75,368.25 L375.12,368.51 L375.49,368.78 L375.86,369.05 L376.23,369.31 L376.6,369.58 L376.97,369.84 L377.34,370.1 L377.71,370.36 L378.08,370.63 L378.45,370.89 L378.82,371.14 L379.19,371.4 L379.56,371.66 L379.93,371.92 L380.3,372.17 L380.67,372.43 L381.04,372.68 L381.41,372.93 L381.78,373.18 L382.15,373.44 L382.52,373.69 L382.89,373.93 L383.26,374.18 L383.63,374.43 L384,374.68 L384.37,374.92 L384.74,375.17 L385.11,375.41 L385.48,375.65 L385.85,375.9 L386.22,376.14 L386.59,376.38 L386.96,376.62 L387.33,376.86 L387.7,377.1 L388.07,377.33 L388.44,377.57 L388.81,377.8 L389.18,378.04 L389.55,378.27 L389.92,378.5 L390.29,378.74 L390.66,378.97 L391.03,379.2 L391.4,379.43 L391.77,379.66 L392.14,379.88 L392.51,380.11 L392.88,380.34 L393.25,380.56 L393.62,380.79 L393.99,381.01 L394.36,381.23 L394.73,381.45 L395.1,381.67 L395.47,381.89 L395.84,382.11 L396.21,382.33 L396.58,382.55 L396.95,382.77 L397.32,382.98 L397.69,383.2 L398.06,383.41 L398.43,383.63 L398.8,383.84 L399.17,384.05 L399.54,384.26 L399.91,384.47 L400.28,384.68 L400.65,384.89 L401.02,385.1 L401.39,385.3 L401.76,385.51 L402.13,385.72 L402.5,385.92 L402.87,386.12 L403.24,386.33 L403.61,386.53 L403.98,386.73 L404.35,386.93 L404.72,387.13 L405.09,387.33 L405.46,387.53 L405.83,387.73 L406.2,387.92 L406.57,388.12 L406.94,388.32 L407.31,388.51 L407.68,388.7 L408.05,388.9 L408.42,389.09 L408.79,389.28 L409.16,389.47 L409.53,389.66 L409.9,389.85 L410.27,390.04 L410.64,390.23 L411.01,390.41 L411.38,390.6 L411.75,390.79 L412.12,390.97 L412.49,391.15 L412.86,391.34 L413.23,391.52 L413.6,391.7 L413.97,391.88 L414.34,392.06 L414.71,392.24 L415.08,392.42 L415.45,392.6 L415.82,392.78 L416.19,392.95 L416.56,393.13 L416.93,393.3 L417.3,393.48 L417.67,393.65 L418.04,393.83 L418.41,394 L418.78,394.17 L419.15,394.34 L419.52,394.51 L419.89,394.68 L420.26,394.85 L420.63,395.02 L421,395.18 L421.37,395.35 L421.74,395.52 L422.11,395.68 L422.48,395.85 L422.85,396.01 L423.22,396.17 L423.59,396.34 L423.96,396.5 L424.33,396.66 L424.7,396.82 L425.07,396.98 L425.44,397.14 L425.81,397.3 L426.18,397.46 L426.55,397.61 L426.92,397.77 L427.29,397.92 L427.66,398.08 L428.03,398.23 L428.4,398.39 L428.77,398.54 L429.14,398.69 L429.51,398.85 L429.88,399 L430.25,399.15 L430.62,399.3 L430.99,399.45 L431.36,399.59 L431.73,399.74 L432.1,399.89 L432.47,400.04 L432.84,400.18 L433.21,400.33 L433.58,400.47 L433.95,400.62 L434.32,400.76 L434.69,400.9 L435.06,401.04 L435.43,401.19 L435.8,401.33 L436.17,401.47 L436.54,401.61 L436.91,401.75 L437.28,401.88 L437.65,402.02 L438.02,402.16 L438.39,402.3 L438.76,402.43 L439.13,402.57 L439.5,402.7 L439.87,402.84 L440.24,402.97 L440.61,403.1 L440.98,403.23 L441.35,403.37 L441.72,403.5 L442.09,403.63 L442.46,403.76 L442.83,403.89 L443.2,404.02 L443.57,404.14 L443.94,404.27 L444.31,404.4 L444.68,404.52 L445.06,404.65 L445.43,404.78 L445.8,404.9 L446.17,405.02 L446.54,405.15 L446.91,405.27 L447.28,405.39 L447.65,405.51 L448.02,405.64 L448.39,405.76 L448.76,405.88 L449.13,406 L449.5,406.11 L449.87,406.23 L450.24,406.35 L450.61,406.47 L450.98,406.58 L451.35,406.7 L451.72,406.82 L452.09,406.93 L452.46,407.05 L452.83,407.16 L453.2,407.27 L453.57,407.39 L453.94,407.5 L454.31,407.61 L454.68,407.72 L455.05,407.83 L455.42,407.94 L455.79,408.05 L456.16,408.16 L456.53,408.27 L456.9,408.38 L457.27,408.48 L457.64,408.59 L458.01,408.7 L458.38,408.8 L458.75,408.91 L459.12,409.01 L459.49,409.12 L459.86,409.22 L460.23,409.32 L460.6,409.43 L460.97,409.53 L461.34,409.63 L461.71,409.73 L462.08,409.83 L462.45,409.93 L462.82,410.03 L463.19,410.13 L463.56,410.23 L463.93,410.33 L464.3,410.42 L464.67,410.52 L465.04,410.62 L465.41,410.71 L465.78,410.81 L466.15,410.9 L466.52,411 L466.89,411.09 L467.26,411.19 L467.63,411.28 L468,411.37 L468.37,411.46 L468.74,411.56 L469.11,411.65 L469.48,411.74 L469.85,411.83 L470.22,411.92 L470.59,412.01 L470.96,412.09 L471.33,412.18 L471.7,412.27 L472.07,412.36 L472.44,412.44 L472.81,412.53 L473.18,412.61 L473.55,412.7 L473.92,412.78 L474.29,412.87 L474.66,412.95 L475.03,413.04 L475.4,413.12 L475.77,413.2 L476.14,413.28 L476.51,413.36 L476.88,413.45 L477.25,413.53 L477.62,413.61 L477.99,413.68 L478.36,413.76 L478.73,413.84 L479.1,413.92 L479.47,414 L479.84,414.08 L480.21,414.15 L480.58,414.23 L480.95,414.3 L481.32,414.38 L481.69,414.45 L482.06,414.53 L482.43,414.6 L482.8,414.68 L483.17,414.75 L483.54,414.82 L483.91,414.89 L484.28,414.97 L484.65,415.04 L485.02,415.11 L485.39,415.18 L485.76,415.25 L486.13,415.32 L486.5,415.39 L486.87,415.46 L487.24,415.52 L487.61,415.59 L487.98,415.66 L488.35,415.73 L488.72,415.79 L489.09,415.86 L489.46,415.92 L489.83,415.99 L490.2,416.05 L490.57,416.12 L490.94,416.18 L491.31,416.24 L491.68,416.31 L492.05,416.37 L492.42,416.43 L492.79,416.49 L493.16,416.55 L493.53,416.61 L493.9,416.67 L494.27,416.73 L494.64,416.79 L495.01,416.85 L495.38,416.91 L495.75,416.97 L496.12,417.03 L496.49,417.08 L496.86,417.14 L497.23,417.2 L497.6,417.25 L497.97,417.31 L498.34,417.36 L498.71,417.42 L499.08,417.47 L499.45,417.53 L499.82,417.58 L500.19,417.63 L500.56,417.69 L500.93,417.74 L501.3,417.79 L501.67,417.84 L502.04,417.89 L502.41,417.94 L502.78,417.99 L503.15,418.04 L503.52,418.09 L503.89,418.14 L504.26,418.19 L504.63,418.24 L505,418.28 L505.37,418.33 L505.74,418.38 L506.11,418.42 L506.48,418.47 L506.85,418.52 L507.22,418.56 L507.59,418.61 L507.96,418.65 L508.33,418.69 L508.7,418.74 L509.07,418.78 L509.44,418.82 L509.81,418.86 L510.18,418.91 L510.55,418.95 L510.92,418.99 L511.29,419.03 L511.66,419.07 L512.03,419.11 L512.4,419.15 L512.77,419.19 L513.14,419.22 L513.51,419.26 L513.88,419.3 L514.25,419.34 L514.62,419.37 L514.99,419.41 L515.36,419.45 L515.73,419.48 L516.1,419.52 L516.47,419.55 L516.84,419.58 L517.21,419.62 L517.58,419.65 L517.95,419.69 L518.32,419.72 L518.69,419.75 L519.06,419.78 L519.43,419.81 L519.8,419.84 L520.17,419.87 L520.54,419.9 L520.91,419.93 L521.28,419.96 L521.65,419.99 L522.02,420.02 L522.39,420.05 L522.76,420.08 L523.13,420.1 L523.5,420.13 L523.87,420.16 L524.24,420.18 L524.61,420.21 L524.98,420.23 L525.35,420.26 L525.72,420.28 L526.09,420.3 L526.46,420.33 L526.83,420.35 L527.2,420.37 L527.57,420.39 L527.94,420.42 L528.31,420.44 L528.68,420.46 L529.05,420.48 L529.42,420.5 L529.79,420.52 L530.16,420.54 L530.53,420.55 L530.9,420.57 L531.27,420.59 L531.64,420.61 L532.01,420.62 L532.38,420.64 L532.75,420.66 L533.12,420.67 L533.49,420.69 L533.86,420.7 L534.23,420.72 L534.6,420.73 L534.97,420.74 L535.34,420.76 L535.71,420.77 L536.08,420.78 L536.45,420.79 L536.82,420.8 L537.19,420.81 L537.56,420.82 L537.93,420.83 L538.3,420.84 L538.67,420.85 L539.04,420.86 L539.41,420.87 L539.78,420.88 L540.15,420.88 L540.52,420.89 L540.89,420.9 L541.26,420.9 L541.63,420.91 L542,420.91 L542.37,420.92 L542.74,420.92 L543.11,420.92 L543.48,420.93 L543.85,420.93 L544.22,420.93 L544.59,420.93 L544.96,420.93 L545.34,420.93 L545.71,420.93 L546.08,420.93 L546.45,420.93 L546.82,420.93 L547.19,420.93 L547.56,420.93 L547.93,420.92 L548.3,420.92 L548.67,420.92 L549.04,420.91 L549.41,420.91 L549.78,420.9 L550.15,420.9 L550.52,420.89 L550.89,420.88 L551.26,420.88 L551.63,420.87 L552,420.86 L552.37,420.85 L552.74,420.84 L553.11,420.83 L553.48,420.82 L553.85,420.81 L554.22,420.8 L554.59,420.79 L554.96,420.78 L555.33,420.76 L555.7,420.75 L556.07,420.74 L556.44,420.72 L556.81,420.71 L557.18,420.69 L557.55,420.67 L557.92,420.66 L558.29,420.64 L558.66,420.62 L559.03,420.6 L559.4,420.58 L559.77,420.57 L560.14,420.55 L560.51,420.52 L560.88,420.5 L561.25,420.48 L561.62,420.46 L561.99,420.44 L562.36,420.41 L562.73,420.39 L563.1,420.36 L563.47,420.34 L563.84,420.31 L564.21,420.29 L564.58,420.26 L564.95,420.23 L565.32,420.21 L565.69,420.18 L566.06,420.15 L566.43,420.12 L566.8,420.09 L567.17,420.06 L567.54,420.02 L567.91,419.99 L568.28,419.96 L568.65,419.92 L569.02,419.89 L569.39,419.86 L569.76,419.82 L570.13,419.78 L570.5,419.75 L570.87,419.71 L571.24,419.67 L571.61,419.63 L571.98,419.59 L572.35,419.55 L572.72,419.51 L573.09,419.47 L573.46,419.43 L573.83,419.39 L574.2,419.34 L574.57,419.3 L574.94,419.25 L575.31,419.21 L575.68,419.16 L576.05,419.11 L576.42,419.07 L576.79,419.02 L577.16,418.97 L577.53,418.92 L577.9,418.87 L578.27,418.82 L578.64,418.76 L579.01,418.71 L579.38,418.66 L579.75,418.6 L580.12,418.55 L580.49,418.49 L580.86,418.44 L581.23,418.38 L581.6,418.32 L581.97,418.26 L582.34,418.2 L582.71,418.14 L583.08,418.08 L583.45,418.02 L583.82,417.95 L584.19,417.89 L584.56,417.82 L584.93,417.76 L585.3,417.69 L585.67,417.63 L586.04,417.56 L586.41,417.49 L586.78,417.42 L587.15,417.35 L587.52,417.28 L587.89,417.2 L588.26,417.13 L588.63,417.06 L589,416.98 L589.37,416.91 L589.74,416.83 L590.11,416.75 L590.48,416.67 L590.85,416.59 L591.22,416.51 L591.59,416.43 L591.96,416.35 L592.33,416.26 L592.7,416.18 L593.07,416.09 L593.44,416.01 L593.81,415.92 L594.18,415.83 L594.55,415.74 L594.92,415.65 L595.29,415.56 L595.66,415.47 L596.03,415.37 L596.4,415.28 L596.77,415.18 L597.14,415.09 L597.51,414.99 L597.88,414.89 L598.25,414.79 L598.62,414.69 L598.99,414.59 L599.36,414.48 L599.73,414.38 L600.1,414.27 L600.47,414.17 L600.84,414.06 L601.21,413.95 L601.58,413.84 L601.95,413.73 L602.32,413.62 L602.69,413.5 L603.06,413.39 L603.43,413.27 L603.8,413.15 L604.17,413.04 L604.54,412.92 L604.91,412.79 L605.28,412.67 L605.65,412.55 L606.02,412.42 L606.39,412.3 L606.76,412.17 L607.13,412.04 L607.5,411.91 L607.87,411.78 L608.24,411.65 L608.61,411.51 L608.98,411.38 L609.35,411.24 L609.72,411.1 L610.09,410.96 L610.46,410.82 L610.83,410.68 L611.2,410.54 L611.57,410.39 L611.94,410.24 L612.31,410.1 L612.68,409.95 L613.05,409.79 L613.42,409.64 L613.79,409.49 L614.16,409.33 L614.53,409.17 L614.9,409.02 L615.27,408.86 L615.64,408.69 L616.01,408.53 L616.38,408.36 L616.75,408.2 L617.12,408.03 L617.49,407.86 L617.86,407.69 L618.23,407.51 L618.6,407.34 L618.97,407.16 L619.34,406.98 L619.71,406.8 L620.08,406.62 L620.45,406.44 L620.82,406.25 L621.19,406.07 L621.56,405.88 L621.93,405.69 L622.3,405.49 L622.67,405.3 L623.04,405.1 L623.41,404.9 L623.78,404.7 L624.15,404.5 L624.52,404.3 L624.89,404.09 L625.26,403.88 L625.63,403.68 L626,403.46 L626.37,403.25 L626.74,403.03 L627.11,402.82 L627.48,402.6 L627.85,402.38 L628.22,402.15 L628.59,401.93 L628.96,401.7 L629.33,401.47 L629.7,401.24 L630.07,401 L630.44,400.77 L630.81,400.53 L631.18,400.29 L631.55,400.04 L631.92,399.8 L632.29,399.55 L632.66,399.3 L633.03,399.05 L633.4,398.8 L633.77,398.54 L634.14,398.28 L634.51,398.02 L634.88,397.76 L635.25,397.49 L635.62,397.23 L635.99,396.95 L636.36,396.68 L636.73,396.41 L637.1,396.13 L637.47,395.85 L637.84,395.57 L638.21,395.28 L638.58,395 L638.95,394.71 L639.32,394.41 L639.69,394.12 L640.06,393.82 L640.43,393.52 L640.8,393.22 L641.17,392.91 L641.54,392.6 L641.91,392.29 L642.28,391.98 L642.65,391.67 L643.02,391.35 L643.39,391.03 L643.76,390.7 L644.13,390.38 L644.5,390.05 L644.87,389.71 L645.25,389.38 L645.62,389.04 L645.99,388.7 L646.36,388.36 L646.73,388.01 L647.1,387.66 L647.47,387.31 L647.84,386.96 L648.21,386.6 L648.58,386.24 L648.95,385.88 L649.32,385.51 L649.69,385.14 L650.06,384.77 L650.43,384.39 L650.8,384.02 L651.17,383.63 L651.54,383.25 L651.91,382.86 L652.28,382.47 L652.65,382.08 L653.02,381.69 L653.39,381.29 L653.76,380.88 L654.13,380.48 L654.5,380.07 L654.87,379.66 L655.24,379.25 L655.61,378.83 L655.98,378.41 L656.35,377.99 L656.72,377.56 L657.09,377.13 L657.46,376.7 L657.83,376.26 L658.2,375.82 L658.57,375.38 L658.94,374.93 L659.31,374.49 L659.68,374.03 L660.05,373.58 L660.42,373.12 L660.79,372.66 L661.16,372.2 L661.53,371.73 L661.9,371.26 L662.27,370.79 L662.64,370.31 L663.01,369.83 L663.38,369.35 L663.75,368.86 L664.12,368.37 L664.49,367.88 L664.86,367.38 L665.23,366.88 L665.6,366.38 L665.97,365.88 L666.34,365.37 L666.71,364.86 L667.08,364.34 L667.45,363.83 L667.82,363.31 L668.19,362.78 L668.56,362.26 L668.93,361.73 L669.3,361.2 L669.67,360.66 L670.04,360.12 L670.41,359.58 L670.78,359.04 L671.15,358.49 L671.52,357.94 L671.89,357.39 L672.26,356.83 L672.63,356.28 L673,355.71 L673.37,355.15 L673.74,354.58 L674.11,354.01 L674.48,353.44 L674.85,352.87 L675.22,352.29 L675.59,351.71 L675.96,351.13 L676.33,350.54 L676.7,349.95 L677.07,349.36 L677.44,348.77 L677.81,348.17 L678.18,347.58 L678.55,346.98 L678.92,346.37 L679.29,345.77 L679.66,345.16 L680.03,344.55 L680.4,343.94 L680.77,343.33 L681.14,342.71 L681.51,342.1 L681.88,341.48 L682.25,340.86 L682.62,340.23 L682.99,339.61 L683.36,338.98 L683.73,338.35 L684.1,337.72 L684.47,337.09 L684.84,336.46 L685.21,335.82 L685.58,335.19 L685.95,334.55 L686.32,333.91 L686.69,333.27 L687.06,332.63 L687.43,331.99 L687.8,331.34 L688.17,330.7 L688.54,330.05 L688.91,329.41 L689.28,328.76 L689.65,328.11 L690.02,327.46 L690.39,326.81 L690.76,326.16 L691.13,325.51 L691.5,324.86 L691.87,324.21 L692.24,323.56 L692.61,322.9 L692.98,322.25 L693.35,321.6 L693.72,320.95 L694.09,320.29 L694.46,319.64 L694.83,318.99 L695.2,318.34 L695.57,317.69 L695.94,317.04 L696.31,316.39 L696.68,315.74 L697.05,315.09 L697.42,314.44 L697.79,313.79 L698.16,313.15 L698.53,312.5 L698.9,311.86 L699.27,311.22 L699.64,310.57 L700.01,309.93 L700.38,309.29 L700.75,308.66 L701.12,308.02 L701.49,307.39 L701.86,306.76 L702.23,306.13 L702.6,305.5 L702.97,304.87 L703.34,304.25 L703.71,303.62 L704.08,303 L704.45,302.39 L704.82,301.77 L705.19,301.16 L705.56,300.55 L705.93,299.94 L706.3,299.34 L706.67,298.74 L707.04,298.14 L707.41,297.54 L707.78,296.95 L708.15,296.36 L708.52,295.77 L708.89,295.19 L709.26,294.61 L709.63,294.03 L710,293.46 L710.37,292.89 L710.74,292.33 L711.11,291.77 L711.48,291.21 L711.85,290.66 L712.22,290.11 L712.59,289.56 L712.96,289.02 L713.33,288.48 L713.7,287.95 L714.07,287.42 L714.44,286.9 L714.81,286.38 L715.18,285.86 L715.55,285.35 L715.92,284.85 L716.29,284.35 L716.66,283.85 L717.03,283.36 L717.4,282.87 L717.77,282.39 L718.14,281.92 L718.51,281.44 L718.88,280.98 L719.25,280.52 L719.62,280.06 L719.99,279.61 L720.36,279.17 L720.73,278.73 L721.1,278.3 L721.47,277.87 L721.84,277.44 L722.21,277.03 L722.58,276.62 L722.95,276.21 L723.32,275.81 L723.69,275.42 L724.06,275.03 L724.43,274.65 L724.8,274.27 L725.17,273.9 L725.54,273.53 L725.91,273.17 L726.28,272.82 L726.65,272.48 L727.02,272.13 L727.39,271.8 L727.76,271.47 L728.13,271.15 L728.5,270.83 L728.87,270.52 L729.24,270.22 L729.61,269.92 L729.98,269.63 L730.35,269.35 L730.72,269.07 L731.09,268.79 L731.46,268.53 L731.83,268.27 L732.2,268.01 L732.57,267.77 L732.94,267.53 L733.31,267.29 L733.68,267.06 L734.05,266.84 L734.42,266.63 L734.79,266.42 L735.16,266.21 L735.53,266.02 L735.9,265.83 L736.27,265.64 L736.64,265.46 L737.01,265.29 L737.38,265.13 L737.75,264.97 L738.12,264.81 L738.49,264.67 L738.86,264.53 L739.23,264.39 L739.6,264.27 L739.97,264.14 L740.34,264.03 L740.71,263.92 L741.08,263.82 L741.45,263.72 L741.82,263.63 L742.19,263.54 L742.56,263.46 L742.93,263.39 L743.3,263.32 L743.67,263.26 L744.04,263.21 L744.41,263.16 L744.78,263.12 L745.16,263.08 L745.53,263.05 L745.9,263.02 L746.27,263 L746.64,262.99 L747.01,262.98 L747.38,262.98 L747.75,262.98 L748.12,262.99 L748.49,263 L748.86,263.02 L749.23,263.05 L749.6,263.08 L749.97,263.11 L750.34,263.15 L750.71,263.2 L751.08,263.25 L751.45,263.31 L751.82,263.37 L752.19,263.44 L752.56,263.51 L752.93,263.59 L753.3,263.67 L753.67,263.76 L754.04,263.86 L754.41,263.95 L754.78,264.06 L755.15,264.16 L755.52,264.28 L755.89,264.39 L756.26,264.52 L756.63,264.64 L757,264.77 L757.37,264.91 L757.74,265.05 L758.11,265.2 L758.48,265.35 L758.85,265.5 L759.22,265.66 L759.59,265.82 L759.96,265.99 L760.33,266.16 L760.7,266.34 L761.07,266.51 L761.44,266.7 L761.81,266.89 L762.18,267.08 L762.55,267.27 L762.92,267.47 L763.29,267.68 L763.66,267.88 L764.03,268.1 L764.4,268.31 L764.77,268.53 L765.14,268.75 L765.51,268.98 L765.88,269.21 L766.25,269.44 L766.62,269.68 L766.99,269.92 L767.36,270.16 L767.73,270.41 L768.1,270.66 L768.47,270.91 L768.84,271.17 L769.21,271.43 L769.58,271.69 L769.95,271.95 L770.32,272.22 L770.69,272.49 L771.06,272.77 L771.43,273.05 L771.8,273.33 L772.17,273.61 L772.54,273.9 L772.91,274.19 L773.28,274.48 L773.65,274.77 L774.02,275.07 L774.39,275.37 L774.76,275.67 L775.13,275.97 L775.5,276.28 L775.87,276.59 L776.24,276.9 L776.61,277.21 L776.98,277.53 L777.35,277.85 L777.72,278.17 L778.09,278.49 L778.46,278.82 L778.83,279.14 L779.2,279.47 L779.57,279.8 L779.94,280.14 L780.31,280.47 L780.68,280.81 L781.05,281.15 L781.42,281.49 L781.79,281.83 L782.16,282.17 L782.53,282.52 L782.9,282.87 L783.27,283.22 L783.64,283.57 L784.01,283.92 L784.38,284.27 L784.75,284.63 L785.12,284.98 L785.49,285.34 L785.86,285.7 L786.23,286.06 L786.6,286.43 L786.97,286.79 L787.34,287.15 L787.71,287.52 L788.08,287.89 L788.45,288.26 L788.82,288.63 L789.19,289 L789.56,289.37 L789.93,289.74 L790.3,290.12 L790.67,290.49 L791.04,290.87 L791.41,291.24 L791.78,291.62 L792.15,292 L792.52,292.38 L792.89,292.76 L793.26,293.14 L793.63,293.52 L794,293.91 L794.37,294.29 L794.74,294.67 L795.11,295.06 L795.48,295.45 L795.85,295.83 L796.22,296.22 L796.59,296.61 L796.96,296.99 L797.33,297.38 L797.7,297.77 L798.07,298.16 L798.44,298.55 L798.81,298.94 L799.18,299.33 L799.55,299.72 L799.92,300.12 L800.29,300.51 L800.66,300.9 L801.03,301.29 L801.4,301.69 L801.77,302.08 L802.14,302.47 L802.51,302.87 L802.88,303.26 L803.25,303.65 L803.62,304.05 L803.99,304.44 L804.36,304.84 L804.73,305.23 L805.1,305.63 L805.47,306.02 L805.84,306.42 L806.21,306.81 L806.58,307.21 L806.95,307.6 L807.32,308 L807.69,308.39 L808.06,308.79 L808.43,309.18 L808.8,309.57 L809.17,309.97 L809.54,310.36 L809.91,310.76 L810.28,311.15 L810.65,311.55 L811.02,311.94 L811.39,312.33 L811.76,312.73 L812.13,313.12 L812.5,313.51 L812.87,313.91 L813.24,314.3 L813.61,314.69 L813.98,315.08 L814.35,315.47 L814.72,315.87 L815.09,316.26 L815.46,316.65 L815.83,317.04 L816.2,317.43 L816.57,317.82 L816.94,318.21 L817.31,318.6 L817.68,318.98 L818.05,319.37 L818.42,319.76 L818.79,320.15 L819.16,320.53 L819.53,320.92 L819.9,321.3 L820.27,321.69 L820.64,322.07 L821.01,322.46 L821.38,322.84 L821.75,323.23 L822.12,323.61 L822.49,323.99 L822.86,324.37 L823.23,324.75 L823.6,325.13 L823.97,325.51 L824.34,325.89 L824.71,326.27 L825.08,326.65 L825.45,327.03 L825.82,327.4 L826.19,327.78 L826.56,328.16 L826.93,328.53 L827.3,328.9 L827.67,329.28 L828.04,329.65 L828.41,330.02 L828.78,330.39 L829.15,330.77 L829.52,331.14 L829.89,331.51 L830.26,331.87 L830.63,332.24 L831,332.61 L831.37,332.98 L831.74,333.34 L832.11,333.71 L832.48,334.07 L832.85,334.44 L833.22,334.8 L833.59,335.16 L833.96,335.52 L834.33,335.88 L834.7,336.24"/><text class="axis" x="83" y="455" text-anchor="end">0</text><text class="axis" x="83" y="370.22" text-anchor="end">10</text><text class="axis" x="83" y="285.43" text-anchor="end">20</text><text class="axis" x="83" y="200.65" text-anchor="end">30</text><text class="axis" x="83" y="115.87" text-anchor="end">40</text><text class="label" x="465.0" y="512" text-anchor="middle">时间</text><text class="label" x="30" y="255.0" text-anchor="middle" transform="rotate(-90 30 255.0)">数量（千）</text><line x1="650" y1="88" x2="698" y2="88" class="hare"/><text class="axis" x="710" y="94">雪兔</text><line x1="650" y1="120" x2="698" y2="120" class="lynx"/><text class="axis" x="710" y="126">猞猁</text></svg>